<svg xmlns="http://www.w3.org/2000/svg" xmlns:xlink="http://www.w3.org/1999/xlink" width="1176" zoomAndPan="magnify" viewBox="0 0 882 749.999995" height="1000" preserveAspectRatio="xMidYMid meet" version="1.0"><defs><g/><clipPath id="68f510b7ff"><path d="M 757 1.210938 L 766 1.210938 L 766 27 L 757 27 Z M 757 1.210938 " clip-rule="nonzero"/></clipPath><clipPath id="9625fdaa1b"><rect x="0" width="9" y="0" height="26"/></clipPath><clipPath id="d3e6f0d8e1"><rect x="0" width="12" y="0" height="25"/></clipPath><clipPath id="6b19c09aa7"><rect x="0" width="11" y="0" height="25"/></clipPath><clipPath id="bade1c0067"><path d="M 0.160156 6 L 10 6 L 10 20 L 0.160156 20 Z M 0.160156 6 " clip-rule="nonzero"/></clipPath><clipPath id="6a3fc30f4c"><rect x="0" width="11" y="0" height="25"/></clipPath><clipPath id="810de3facf"><rect x="0" width="12" y="0" height="25"/></clipPath><clipPath id="3999c38acf"><rect x="0" width="12" y="0" height="25"/></clipPath><clipPath id="764b5a969f"><rect x="0" width="12" y="0" height="25"/></clipPath><clipPath id="a682188023"><rect x="0" width="12" y="0" height="25"/></clipPath><clipPath id="481db0a198"><rect x="0" width="12" y="0" height="25"/></clipPath><clipPath id="3902a251b9"><rect x="0" width="20" y="0" height="25"/></clipPath><clipPath id="462380569c"><path d="M 0.160156 6 L 6 6 L 6 20 L 0.160156 20 Z M 0.160156 6 " clip-rule="nonzero"/></clipPath><clipPath id="2cee70665a"><rect x="0" width="16" y="0" height="25"/></clipPath><clipPath id="ac292916d1"><path d="M 0.160156 6 L 6 6 L 6 20 L 0.160156 20 Z M 0.160156 6 " clip-rule="nonzero"/></clipPath><clipPath id="d1a0e41f5c"><rect x="0" width="19" y="0" height="25"/></clipPath><clipPath id="68c32271be"><rect x="0" width="19" y="0" height="25"/></clipPath><clipPath id="7b97813449"><rect x="0" width="19" y="0" height="25"/></clipPath><clipPath id="ebb90761c4"><rect x="0" width="19" y="0" height="25"/></clipPath><clipPath id="12ad15d22a"><path d="M 2 450.484375 L 21 450.484375 L 21 476 L 2 476 Z M 2 450.484375 " clip-rule="nonzero"/></clipPath><clipPath id="5e44e6a985"><rect x="0" width="19" y="0" height="26"/></clipPath><clipPath id="2fb80ccaaf"><path d="M 128 450.484375 L 147 450.484375 L 147 476 L 128 476 Z M 128 450.484375 " clip-rule="nonzero"/></clipPath><clipPath id="3a2d71aa69"><rect x="0" width="19" y="0" height="26"/></clipPath><clipPath id="3cd6a584f5"><path d="M 254 450.484375 L 273 450.484375 L 273 476 L 254 476 Z M 254 450.484375 " clip-rule="nonzero"/></clipPath><clipPath id="81f51cb2e1"><path d="M 0.160156 7 L 6 7 L 6 21 L 0.160156 21 Z M 0.160156 7 " clip-rule="nonzero"/></clipPath><clipPath id="cb52c238d9"><rect x="0" width="19" y="0" height="26"/></clipPath><clipPath id="8a7c8e8858"><path d="M 380 450.484375 L 399 450.484375 L 399 476 L 380 476 Z M 380 450.484375 " clip-rule="nonzero"/></clipPath><clipPath id="abd744e3d2"><path d="M 0.160156 7 L 6 7 L 6 21 L 0.160156 21 Z M 0.160156 7 " clip-rule="nonzero"/></clipPath><clipPath id="c4fbba15a1"><rect x="0" width="19" y="0" height="26"/></clipPath><clipPath id="ec95d4d2b5"><path d="M 505 450.484375 L 529 450.484375 L 529 476 L 505 476 Z M 505 450.484375 " clip-rule="nonzero"/></clipPath><clipPath id="eec1a18849"><rect x="0" width="24" y="0" height="26"/></clipPath><clipPath id="d3fa3b1f1d"><path d="M 631 450.484375 L 651 450.484375 L 651 476 L 631 476 Z M 631 450.484375 " clip-rule="nonzero"/></clipPath><clipPath id="a03ea6d0ae"><rect x="0" width="20" y="0" height="26"/></clipPath><clipPath id="980305fe83"><path d="M 757 450.484375 L 780 450.484375 L 780 476 L 757 476 Z M 757 450.484375 " clip-rule="nonzero"/></clipPath><clipPath id="762de09628"><rect x="0" width="23" y="0" height="26"/></clipPath><clipPath id="518918a897"><path d="M 2 600.242188 L 24 600.242188 L 24 626 L 2 626 Z M 2 600.242188 " clip-rule="nonzero"/></clipPath><clipPath id="869234912c"><rect x="0" width="22" y="0" height="26"/></clipPath><clipPath id="baef492167"><path d="M 128 600.242188 L 150 600.242188 L 150 626 L 128 626 Z M 128 600.242188 " clip-rule="nonzero"/></clipPath><clipPath id="5c62c0fa82"><rect x="0" width="22" y="0" height="26"/></clipPath><clipPath id="3d8a217410"><path d="M 254 600.242188 L 276 600.242188 L 276 626 L 254 626 Z M 254 600.242188 " clip-rule="nonzero"/></clipPath><clipPath id="b312998ea6"><rect x="0" width="22" y="0" height="26"/></clipPath><clipPath id="6fb3a87a25"><path d="M 380 600.242188 L 402 600.242188 L 402 626 L 380 626 Z M 380 600.242188 " clip-rule="nonzero"/></clipPath><clipPath id="91bbdb3cd9"><rect x="0" width="22" y="0" height="26"/></clipPath><clipPath id="ded6529f96"><path d="M 505 600.242188 L 527 600.242188 L 527 626 L 505 626 Z M 505 600.242188 " clip-rule="nonzero"/></clipPath><clipPath id="4808e0c45a"><rect x="0" width="22" y="0" height="26"/></clipPath><clipPath id="e649f16cc2"><path d="M 631 600.242188 L 654 600.242188 L 654 626 L 631 626 Z M 631 600.242188 " clip-rule="nonzero"/></clipPath><clipPath id="d55053122f"><rect x="0" width="23" y="0" height="26"/></clipPath><clipPath id="f9bd484e1d"><path d="M 757 600.242188 L 780 600.242188 L 780 626 L 757 626 Z M 757 600.242188 " clip-rule="nonzero"/></clipPath><clipPath id="3f99cd4811"><rect x="0" width="23" y="0" height="26"/></clipPath><clipPath id="905ccaf805"><path d="M 0.0390625 0 L 881.984375 0 L 881.984375 750 L 0.0390625 750 Z M 0.0390625 0 " clip-rule="nonzero"/></clipPath><clipPath id="0d3dd97949"><rect x="0" width="23" y="0" height="25"/></clipPath><clipPath id="989a9381b7"><rect x="0" width="18" y="0" height="25"/></clipPath><clipPath id="31b19fc4c6"><path d="M 0 593 L 136 593 L 136 750 L 0 750 Z M 0 593 " clip-rule="nonzero"/></clipPath><clipPath id="3f621e6d17"><path d="M 118 593 L 262 593 L 262 750 L 118 750 Z M 118 593 " clip-rule="nonzero"/></clipPath><clipPath id="3fbc95696b"><rect x="0" width="882" y="0" height="750"/></clipPath></defs><g transform="matrix(1, 0, 0, 1, 0, -0.000000000000042435)"><g clip-path="url(#3fbc95696b)"><g clip-path="url(#68f510b7ff)"><g transform="matrix(1, 0, 0, 1, 757, 1)"><g clip-path="url(#9625fdaa1b)"><g fill="#201f1f" fill-opacity="1"><g transform="translate(0.659576, 20.175269)"><g><path d="M 4.34375 0 C 4.15625 0 4.003906 -0.0546875 3.890625 -0.171875 C 3.773438 -0.285156 3.71875 -0.421875 3.71875 -0.578125 L 3.71875 -12.125 L 3.9375 -11.9375 L 1.375 -10.234375 C 1.28125 -10.148438 1.175781 -10.109375 1.0625 -10.109375 C 0.90625 -10.109375 0.765625 -10.171875 0.640625 -10.296875 C 0.515625 -10.429688 0.453125 -10.570312 0.453125 -10.71875 C 0.453125 -10.925781 0.554688 -11.085938 0.765625 -11.203125 L 3.96875 -13.328125 C 4.050781 -13.378906 4.132812 -13.410156 4.21875 -13.421875 C 4.300781 -13.441406 4.375 -13.445312 4.4375 -13.4375 C 4.601562 -13.414062 4.726562 -13.347656 4.8125 -13.234375 C 4.90625 -13.128906 4.953125 -13.003906 4.953125 -12.859375 L 4.953125 -0.578125 C 4.953125 -0.421875 4.894531 -0.285156 4.78125 -0.171875 C 4.664062 -0.0546875 4.519531 0 4.34375 0 Z M 4.34375 0 "/></g></g></g></g></g></g><g transform="matrix(1, 0, 0, 1, 2, 151)"><g clip-path="url(#d3e6f0d8e1)"><g fill="#201f1f" fill-opacity="1"><g transform="translate(0.748298, 19.933399)"><g><path d="M 9.09375 -1.109375 C 9.25 -1.109375 9.378906 -1.050781 9.484375 -0.9375 C 9.597656 -0.832031 9.65625 -0.707031 9.65625 -0.5625 C 9.65625 -0.394531 9.597656 -0.257812 9.484375 -0.15625 C 9.378906 -0.0507812 9.25 0 9.09375 0 L 1.90625 0 C 1.738281 0 1.59375 -0.046875 1.46875 -0.140625 C 1.34375 -0.234375 1.28125 -0.378906 1.28125 -0.578125 C 1.28125 -0.710938 1.332031 -0.847656 1.4375 -0.984375 L 5.875 -5.875 C 6.570312 -6.632812 7.097656 -7.335938 7.453125 -7.984375 C 7.804688 -8.628906 7.984375 -9.210938 7.984375 -9.734375 C 7.984375 -10.578125 7.726562 -11.253906 7.21875 -11.765625 C 6.707031 -12.273438 6.015625 -12.53125 5.140625 -12.53125 C 4.742188 -12.53125 4.347656 -12.445312 3.953125 -12.28125 C 3.566406 -12.113281 3.222656 -11.894531 2.921875 -11.625 C 2.617188 -11.351562 2.382812 -11.046875 2.21875 -10.703125 C 2.144531 -10.578125 2.066406 -10.488281 1.984375 -10.4375 C 1.898438 -10.382812 1.804688 -10.359375 1.703125 -10.359375 C 1.554688 -10.359375 1.421875 -10.40625 1.296875 -10.5 C 1.179688 -10.601562 1.125 -10.722656 1.125 -10.859375 C 1.125 -10.953125 1.144531 -11.039062 1.1875 -11.125 C 1.238281 -11.21875 1.3125 -11.320312 1.40625 -11.4375 C 1.632812 -11.832031 1.953125 -12.195312 2.359375 -12.53125 C 2.765625 -12.863281 3.21875 -13.128906 3.71875 -13.328125 C 4.226562 -13.523438 4.726562 -13.625 5.21875 -13.625 C 6.039062 -13.625 6.75 -13.46875 7.34375 -13.15625 C 7.9375 -12.84375 8.394531 -12.398438 8.71875 -11.828125 C 9.039062 -11.253906 9.203125 -10.582031 9.203125 -9.8125 C 9.203125 -9.144531 8.992188 -8.414062 8.578125 -7.625 C 8.171875 -6.84375 7.554688 -5.992188 6.734375 -5.078125 L 3 -0.875 L 2.796875 -1.109375 Z M 9.09375 -1.109375 "/></g></g></g></g></g><g transform="matrix(1, 0, 0, 1, 128, 151)"><g clip-path="url(#6b19c09aa7)"><g fill="#201f1f" fill-opacity="1"><g transform="translate(0.566857, 19.933399)"><g><path d="M 1.703125 -1.96875 C 1.765625 -1.96875 1.832031 -1.957031 1.90625 -1.9375 C 1.976562 -1.914062 2.066406 -1.859375 2.171875 -1.765625 C 2.441406 -1.484375 2.757812 -1.269531 3.125 -1.125 C 3.5 -0.976562 3.921875 -0.90625 4.390625 -0.90625 C 5.015625 -0.90625 5.585938 -1.046875 6.109375 -1.328125 C 6.628906 -1.609375 7.039062 -2 7.34375 -2.5 C 7.65625 -3.007812 7.8125 -3.585938 7.8125 -4.234375 C 7.8125 -4.984375 7.644531 -5.582031 7.3125 -6.03125 C 6.988281 -6.488281 6.570312 -6.828125 6.0625 -7.046875 C 5.5625 -7.273438 5.050781 -7.390625 4.53125 -7.390625 C 4.382812 -7.390625 4.242188 -7.378906 4.109375 -7.359375 C 3.984375 -7.335938 3.859375 -7.3125 3.734375 -7.28125 C 3.617188 -7.257812 3.53125 -7.25 3.46875 -7.25 C 3.300781 -7.25 3.171875 -7.300781 3.078125 -7.40625 C 2.992188 -7.519531 2.953125 -7.660156 2.953125 -7.828125 C 2.953125 -7.921875 2.96875 -8 3 -8.0625 C 3.039062 -8.132812 3.097656 -8.21875 3.171875 -8.3125 L 7.0625 -12.546875 L 7.296875 -12.234375 L 1.484375 -12.234375 C 1.328125 -12.234375 1.191406 -12.285156 1.078125 -12.390625 C 0.972656 -12.503906 0.921875 -12.640625 0.921875 -12.796875 C 0.921875 -12.953125 0.972656 -13.078125 1.078125 -13.171875 C 1.191406 -13.273438 1.328125 -13.328125 1.484375 -13.328125 L 7.921875 -13.328125 C 8.140625 -13.328125 8.289062 -13.257812 8.375 -13.125 C 8.46875 -13 8.515625 -12.867188 8.515625 -12.734375 C 8.515625 -12.660156 8.492188 -12.585938 8.453125 -12.515625 C 8.421875 -12.453125 8.375 -12.378906 8.3125 -12.296875 L 4.40625 -8.0625 L 3.984375 -8.3125 C 4.023438 -8.34375 4.15625 -8.378906 4.375 -8.421875 C 4.601562 -8.472656 4.78125 -8.5 4.90625 -8.5 C 5.613281 -8.5 6.273438 -8.332031 6.890625 -8 C 7.515625 -7.664062 8.019531 -7.1875 8.40625 -6.5625 C 8.800781 -5.945312 9 -5.1875 9 -4.28125 C 9 -3.382812 8.785156 -2.597656 8.359375 -1.921875 C 7.941406 -1.253906 7.375 -0.734375 6.65625 -0.359375 C 5.9375 0.00390625 5.144531 0.1875 4.28125 0.1875 C 3.75 0.1875 3.226562 0.0976562 2.71875 -0.078125 C 2.207031 -0.253906 1.757812 -0.519531 1.375 -0.875 C 1.289062 -0.957031 1.226562 -1.035156 1.1875 -1.109375 C 1.144531 -1.191406 1.125 -1.269531 1.125 -1.34375 C 1.125 -1.5 1.175781 -1.640625 1.28125 -1.765625 C 1.394531 -1.898438 1.535156 -1.96875 1.703125 -1.96875 Z M 1.703125 -1.96875 "/></g></g></g></g></g><g transform="matrix(1, 0, 0, 1, 254, 151)"><g clip-path="url(#6a3fc30f4c)"><g clip-path="url(#bade1c0067)"><g fill="#201f1f" fill-opacity="1"><g transform="translate(0.385459, 19.933399)"><g><path d="M 7.046875 0 C 6.878906 0 6.742188 -0.0546875 6.640625 -0.171875 C 6.535156 -0.285156 6.484375 -0.421875 6.484375 -0.578125 L 6.484375 -11.84375 L 6.734375 -11.6875 L 1.6875 -5.015625 L 1.625 -5.21875 L 9 -5.21875 C 9.15625 -5.21875 9.285156 -5.164062 9.390625 -5.0625 C 9.503906 -4.957031 9.5625 -4.832031 9.5625 -4.6875 C 9.5625 -4.53125 9.503906 -4.398438 9.390625 -4.296875 C 9.285156 -4.191406 9.15625 -4.140625 9 -4.140625 L 0.84375 -4.140625 C 0.6875 -4.140625 0.550781 -4.203125 0.4375 -4.328125 C 0.320312 -4.453125 0.265625 -4.585938 0.265625 -4.734375 C 0.265625 -4.878906 0.3125 -5.007812 0.40625 -5.125 L 6.578125 -13.203125 C 6.640625 -13.285156 6.71875 -13.34375 6.8125 -13.375 C 6.914062 -13.414062 7 -13.4375 7.0625 -13.4375 C 7.226562 -13.4375 7.363281 -13.375 7.46875 -13.25 C 7.582031 -13.132812 7.640625 -13.003906 7.640625 -12.859375 L 7.640625 -0.578125 C 7.640625 -0.421875 7.582031 -0.285156 7.46875 -0.171875 C 7.351562 -0.0546875 7.210938 0 7.046875 0 Z M 7.046875 0 "/></g></g></g></g></g></g><g transform="matrix(1, 0, 0, 1, 380, 151)"><g clip-path="url(#810de3facf)"><g fill="#201f1f" fill-opacity="1"><g transform="translate(0.203988, 19.933399)"><g><path d="M 4.484375 0.03125 C 3.960938 0.03125 3.4375 -0.0507812 2.90625 -0.21875 C 2.375 -0.394531 1.90625 -0.65625 1.5 -1 C 1.414062 -1.0625 1.351562 -1.132812 1.3125 -1.21875 C 1.269531 -1.3125 1.25 -1.40625 1.25 -1.5 C 1.25 -1.625 1.296875 -1.742188 1.390625 -1.859375 C 1.492188 -1.984375 1.628906 -2.046875 1.796875 -2.046875 C 1.941406 -2.046875 2.082031 -1.988281 2.21875 -1.875 C 2.550781 -1.625 2.910156 -1.425781 3.296875 -1.28125 C 3.691406 -1.144531 4.085938 -1.078125 4.484375 -1.078125 C 5.242188 -1.078125 5.90625 -1.21875 6.46875 -1.5 C 7.03125 -1.789062 7.460938 -2.203125 7.765625 -2.734375 C 8.078125 -3.265625 8.234375 -3.878906 8.234375 -4.578125 C 8.234375 -5.234375 8.09375 -5.800781 7.8125 -6.28125 C 7.53125 -6.757812 7.128906 -7.132812 6.609375 -7.40625 C 6.085938 -7.6875 5.476562 -7.828125 4.78125 -7.828125 C 4.320312 -7.828125 3.898438 -7.753906 3.515625 -7.609375 C 3.140625 -7.472656 2.8125 -7.332031 2.53125 -7.1875 C 2.257812 -7.039062 2.039062 -6.96875 1.875 -6.96875 C 1.726562 -6.96875 1.601562 -7.003906 1.5 -7.078125 C 1.40625 -7.148438 1.34375 -7.242188 1.3125 -7.359375 C 1.28125 -7.484375 1.28125 -7.609375 1.3125 -7.734375 L 2.125 -12.859375 C 2.144531 -12.972656 2.207031 -13.078125 2.3125 -13.171875 C 2.414062 -13.265625 2.550781 -13.3125 2.71875 -13.3125 L 8.5 -13.3125 C 8.65625 -13.3125 8.785156 -13.253906 8.890625 -13.140625 C 9.003906 -13.035156 9.0625 -12.910156 9.0625 -12.765625 C 9.0625 -12.597656 9.003906 -12.457031 8.890625 -12.34375 C 8.785156 -12.238281 8.65625 -12.1875 8.5 -12.1875 L 3 -12.1875 L 3.171875 -12.359375 L 2.375 -7.8125 L 2.03125 -8.0625 C 2.195312 -8.1875 2.4375 -8.3125 2.75 -8.4375 C 3.0625 -8.570312 3.410156 -8.6875 3.796875 -8.78125 C 4.191406 -8.875 4.609375 -8.921875 5.046875 -8.921875 C 5.878906 -8.921875 6.617188 -8.738281 7.265625 -8.375 C 7.921875 -8.007812 8.4375 -7.503906 8.8125 -6.859375 C 9.1875 -6.210938 9.375 -5.46875 9.375 -4.625 C 9.375 -3.6875 9.171875 -2.867188 8.765625 -2.171875 C 8.367188 -1.472656 7.804688 -0.929688 7.078125 -0.546875 C 6.347656 -0.160156 5.484375 0.03125 4.484375 0.03125 Z M 4.484375 0.03125 "/></g></g></g></g></g><g transform="matrix(1, 0, 0, 1, 505, 151)"><g clip-path="url(#3999c38acf)"><g fill="#201f1f" fill-opacity="1"><g transform="translate(1.022518, 19.933399)"><g><path d="M 5.5 0.1875 C 4.757812 0.1875 4.109375 0.0546875 3.546875 -0.203125 C 2.992188 -0.472656 2.535156 -0.832031 2.171875 -1.28125 C 1.804688 -1.738281 1.535156 -2.253906 1.359375 -2.828125 C 1.191406 -3.410156 1.109375 -4.003906 1.109375 -4.609375 C 1.109375 -5.222656 1.1875 -5.882812 1.34375 -6.59375 C 1.5 -7.300781 1.734375 -8.019531 2.046875 -8.75 C 2.367188 -9.476562 2.765625 -10.164062 3.234375 -10.8125 C 3.703125 -11.46875 4.242188 -12.054688 4.859375 -12.578125 C 5.484375 -13.097656 6.1875 -13.503906 6.96875 -13.796875 C 7.050781 -13.816406 7.125 -13.828125 7.1875 -13.828125 C 7.351562 -13.828125 7.5 -13.78125 7.625 -13.6875 C 7.75 -13.601562 7.8125 -13.453125 7.8125 -13.234375 C 7.8125 -13.109375 7.769531 -13 7.6875 -12.90625 C 7.601562 -12.8125 7.488281 -12.738281 7.34375 -12.6875 C 6.8125 -12.457031 6.28125 -12.128906 5.75 -11.703125 C 5.226562 -11.285156 4.742188 -10.800781 4.296875 -10.25 C 3.847656 -9.695312 3.46875 -9.101562 3.15625 -8.46875 C 2.84375 -7.832031 2.625 -7.191406 2.5 -6.546875 L 2.078125 -6.296875 C 2.304688 -6.710938 2.601562 -7.082031 2.96875 -7.40625 C 3.332031 -7.738281 3.75 -8.003906 4.21875 -8.203125 C 4.695312 -8.398438 5.207031 -8.5 5.75 -8.5 C 6.332031 -8.5 6.863281 -8.375 7.34375 -8.125 C 7.832031 -7.882812 8.253906 -7.554688 8.609375 -7.140625 C 8.960938 -6.734375 9.238281 -6.265625 9.4375 -5.734375 C 9.632812 -5.210938 9.734375 -4.671875 9.734375 -4.109375 C 9.734375 -3.347656 9.550781 -2.640625 9.1875 -1.984375 C 8.820312 -1.335938 8.320312 -0.8125 7.6875 -0.40625 C 7.050781 -0.0078125 6.320312 0.1875 5.5 0.1875 Z M 5.484375 -0.921875 C 6.078125 -0.921875 6.601562 -1.054688 7.0625 -1.328125 C 7.519531 -1.597656 7.878906 -1.972656 8.140625 -2.453125 C 8.398438 -2.929688 8.53125 -3.484375 8.53125 -4.109375 C 8.53125 -4.679688 8.414062 -5.210938 8.1875 -5.703125 C 7.96875 -6.203125 7.640625 -6.609375 7.203125 -6.921875 C 6.765625 -7.234375 6.21875 -7.390625 5.5625 -7.390625 C 4.882812 -7.390625 4.296875 -7.234375 3.796875 -6.921875 C 3.304688 -6.617188 2.929688 -6.210938 2.671875 -5.703125 C 2.410156 -5.203125 2.28125 -4.648438 2.28125 -4.046875 C 2.28125 -3.515625 2.40625 -3.003906 2.65625 -2.515625 C 2.914062 -2.035156 3.285156 -1.648438 3.765625 -1.359375 C 4.242188 -1.066406 4.816406 -0.921875 5.484375 -0.921875 Z M 5.484375 -0.921875 "/></g></g></g></g></g><g transform="matrix(1, 0, 0, 1, 631, 151)"><g clip-path="url(#764b5a969f)"><g fill="#201f1f" fill-opacity="1"><g transform="translate(0.841164, 19.933399)"><g><path d="M 3.421875 0.0625 C 3.265625 0.0625 3.117188 0.0078125 2.984375 -0.09375 C 2.859375 -0.195312 2.796875 -0.328125 2.796875 -0.484375 C 2.796875 -0.566406 2.816406 -0.660156 2.859375 -0.765625 L 7.96875 -12.484375 L 8.171875 -12.21875 L 1.6875 -12.21875 C 1.53125 -12.21875 1.394531 -12.269531 1.28125 -12.375 C 1.175781 -12.488281 1.125 -12.625 1.125 -12.78125 C 1.125 -12.945312 1.175781 -13.078125 1.28125 -13.171875 C 1.394531 -13.273438 1.53125 -13.328125 1.6875 -13.328125 L 8.734375 -13.328125 C 8.921875 -13.328125 9.054688 -13.273438 9.140625 -13.171875 C 9.234375 -13.078125 9.28125 -12.953125 9.28125 -12.796875 C 9.28125 -12.691406 9.265625 -12.597656 9.234375 -12.515625 L 3.953125 -0.328125 C 3.910156 -0.210938 3.835938 -0.117188 3.734375 -0.046875 C 3.640625 0.0234375 3.535156 0.0625 3.421875 0.0625 Z M 3.421875 0.0625 "/></g></g></g></g></g><g transform="matrix(1, 0, 0, 1, 757, 151)"><g clip-path="url(#a682188023)"><g fill="#201f1f" fill-opacity="1"><g transform="translate(0.659576, 19.933399)"><g><path d="M 6.984375 -6.75 L 6.921875 -6.921875 C 7.359375 -6.753906 7.753906 -6.507812 8.109375 -6.1875 C 8.472656 -5.863281 8.765625 -5.476562 8.984375 -5.03125 C 9.203125 -4.59375 9.3125 -4.113281 9.3125 -3.59375 C 9.3125 -2.894531 9.128906 -2.265625 8.765625 -1.703125 C 8.398438 -1.140625 7.898438 -0.691406 7.265625 -0.359375 C 6.640625 -0.0234375 5.945312 0.140625 5.1875 0.140625 C 4.40625 0.140625 3.703125 -0.0234375 3.078125 -0.359375 C 2.460938 -0.691406 1.972656 -1.140625 1.609375 -1.703125 C 1.242188 -2.265625 1.0625 -2.894531 1.0625 -3.59375 C 1.0625 -4.15625 1.171875 -4.65625 1.390625 -5.09375 C 1.617188 -5.53125 1.914062 -5.898438 2.28125 -6.203125 C 2.644531 -6.515625 3.023438 -6.753906 3.421875 -6.921875 L 3.359375 -6.734375 C 3.015625 -6.898438 2.691406 -7.125 2.390625 -7.40625 C 2.085938 -7.695312 1.835938 -8.046875 1.640625 -8.453125 C 1.453125 -8.859375 1.359375 -9.300781 1.359375 -9.78125 C 1.359375 -10.476562 1.523438 -11.097656 1.859375 -11.640625 C 2.203125 -12.191406 2.664062 -12.628906 3.25 -12.953125 C 3.832031 -13.273438 4.476562 -13.4375 5.1875 -13.4375 C 5.882812 -13.4375 6.515625 -13.273438 7.078125 -12.953125 C 7.648438 -12.628906 8.101562 -12.191406 8.4375 -11.640625 C 8.78125 -11.097656 8.953125 -10.476562 8.953125 -9.78125 C 8.953125 -9.28125 8.859375 -8.832031 8.671875 -8.4375 C 8.484375 -8.039062 8.234375 -7.695312 7.921875 -7.40625 C 7.617188 -7.125 7.304688 -6.90625 6.984375 -6.75 Z M 2.546875 -9.78125 C 2.546875 -9.269531 2.664062 -8.820312 2.90625 -8.4375 C 3.15625 -8.050781 3.476562 -7.75 3.875 -7.53125 C 4.269531 -7.320312 4.707031 -7.21875 5.1875 -7.21875 C 5.644531 -7.21875 6.070312 -7.320312 6.46875 -7.53125 C 6.863281 -7.75 7.175781 -8.050781 7.40625 -8.4375 C 7.644531 -8.820312 7.765625 -9.269531 7.765625 -9.78125 C 7.765625 -10.539062 7.519531 -11.15625 7.03125 -11.625 C 6.550781 -12.101562 5.9375 -12.34375 5.1875 -12.34375 C 4.40625 -12.34375 3.769531 -12.101562 3.28125 -11.625 C 2.789062 -11.15625 2.546875 -10.539062 2.546875 -9.78125 Z M 5.1875 -0.953125 C 6.050781 -0.953125 6.753906 -1.203125 7.296875 -1.703125 C 7.835938 -2.203125 8.109375 -2.832031 8.109375 -3.59375 C 8.109375 -4.101562 7.972656 -4.5625 7.703125 -4.96875 C 7.441406 -5.375 7.085938 -5.691406 6.640625 -5.921875 C 6.191406 -6.160156 5.707031 -6.28125 5.1875 -6.28125 C 4.65625 -6.28125 4.164062 -6.160156 3.71875 -5.921875 C 3.269531 -5.691406 2.910156 -5.375 2.640625 -4.96875 C 2.378906 -4.5625 2.25 -4.101562 2.25 -3.59375 C 2.25 -2.832031 2.515625 -2.203125 3.046875 -1.703125 C 3.585938 -1.203125 4.300781 -0.953125 5.1875 -0.953125 Z M 5.1875 -0.953125 "/></g></g></g></g></g><g transform="matrix(1, 0, 0, 1, 2, 301)"><g clip-path="url(#481db0a198)"><g fill="#201f1f" fill-opacity="1"><g transform="translate(0.748298, 19.691561)"><g><path d="M 5.3125 -13.640625 C 6.070312 -13.640625 6.726562 -13.503906 7.28125 -13.234375 C 7.832031 -12.972656 8.285156 -12.613281 8.640625 -12.15625 C 9.003906 -11.695312 9.273438 -11.179688 9.453125 -10.609375 C 9.640625 -10.035156 9.734375 -9.445312 9.734375 -8.84375 C 9.734375 -8.226562 9.648438 -7.570312 9.484375 -6.875 C 9.328125 -6.175781 9.09375 -5.472656 8.78125 -4.765625 C 8.46875 -4.054688 8.078125 -3.378906 7.609375 -2.734375 C 7.140625 -2.097656 6.59375 -1.523438 5.96875 -1.015625 C 5.34375 -0.503906 4.644531 -0.109375 3.875 0.171875 C 3.769531 0.203125 3.6875 0.21875 3.625 0.21875 C 3.46875 0.21875 3.328125 0.160156 3.203125 0.046875 C 3.085938 -0.0546875 3.03125 -0.203125 3.03125 -0.390625 C 3.03125 -0.515625 3.066406 -0.625 3.140625 -0.71875 C 3.222656 -0.8125 3.335938 -0.882812 3.484375 -0.9375 C 4.210938 -1.25 4.914062 -1.707031 5.59375 -2.3125 C 6.28125 -2.914062 6.867188 -3.617188 7.359375 -4.421875 C 7.847656 -5.222656 8.175781 -6.050781 8.34375 -6.90625 L 8.75 -7.15625 C 8.53125 -6.75 8.234375 -6.378906 7.859375 -6.046875 C 7.492188 -5.710938 7.078125 -5.453125 6.609375 -5.265625 C 6.140625 -5.078125 5.628906 -4.984375 5.078125 -4.984375 C 4.265625 -4.984375 3.5625 -5.1875 2.96875 -5.59375 C 2.375 -6 1.914062 -6.53125 1.59375 -7.1875 C 1.269531 -7.851562 1.109375 -8.570312 1.109375 -9.34375 C 1.109375 -10.09375 1.289062 -10.796875 1.65625 -11.453125 C 2.019531 -12.109375 2.519531 -12.632812 3.15625 -13.03125 C 3.789062 -13.4375 4.507812 -13.640625 5.3125 -13.640625 Z M 5.359375 -12.53125 C 4.753906 -12.53125 4.21875 -12.394531 3.75 -12.125 C 3.289062 -11.851562 2.929688 -11.476562 2.671875 -11 C 2.410156 -10.519531 2.28125 -9.96875 2.28125 -9.34375 C 2.28125 -8.78125 2.390625 -8.25 2.609375 -7.75 C 2.835938 -7.25 3.175781 -6.847656 3.625 -6.546875 C 4.070312 -6.253906 4.613281 -6.109375 5.25 -6.109375 C 5.945312 -6.109375 6.535156 -6.253906 7.015625 -6.546875 C 7.503906 -6.847656 7.882812 -7.25 8.15625 -7.75 C 8.425781 -8.25 8.5625 -8.800781 8.5625 -9.40625 C 8.5625 -9.957031 8.429688 -10.46875 8.171875 -10.9375 C 7.921875 -11.40625 7.554688 -11.785156 7.078125 -12.078125 C 6.609375 -12.378906 6.035156 -12.53125 5.359375 -12.53125 Z M 5.359375 -12.53125 "/></g></g></g></g></g><g transform="matrix(1, 0, 0, 1, 128, 301)"><g clip-path="url(#3902a251b9)"><g fill="#201f1f" fill-opacity="1"><g transform="translate(0.566857, 19.691561)"><g><path d="M 4.34375 0 C 4.15625 0 4.003906 -0.0546875 3.890625 -0.171875 C 3.773438 -0.285156 3.71875 -0.421875 3.71875 -0.578125 L 3.71875 -12.125 L 3.9375 -11.9375 L 1.375 -10.234375 C 1.28125 -10.148438 1.175781 -10.109375 1.0625 -10.109375 C 0.90625 -10.109375 0.765625 -10.171875 0.640625 -10.296875 C 0.515625 -10.429688 0.453125 -10.570312 0.453125 -10.71875 C 0.453125 -10.925781 0.554688 -11.085938 0.765625 -11.203125 L 3.96875 -13.328125 C 4.050781 -13.378906 4.132812 -13.410156 4.21875 -13.421875 C 4.300781 -13.441406 4.375 -13.445312 4.4375 -13.4375 C 4.601562 -13.414062 4.726562 -13.347656 4.8125 -13.234375 C 4.90625 -13.128906 4.953125 -13.003906 4.953125 -12.859375 L 4.953125 -0.578125 C 4.953125 -0.421875 4.894531 -0.285156 4.78125 -0.171875 C 4.664062 -0.0546875 4.519531 0 4.34375 0 Z M 4.34375 0 "/></g></g></g><g fill="#201f1f" fill-opacity="1"><g transform="translate(7.66329, 19.691561)"><g><path d="M 5.703125 0.1875 C 4.671875 0.1875 3.8125 -0.117188 3.125 -0.734375 C 2.4375 -1.347656 1.921875 -2.175781 1.578125 -3.21875 C 1.234375 -4.257812 1.0625 -5.425781 1.0625 -6.71875 C 1.0625 -8.019531 1.234375 -9.191406 1.578125 -10.234375 C 1.921875 -11.273438 2.4375 -12.097656 3.125 -12.703125 C 3.8125 -13.316406 4.671875 -13.625 5.703125 -13.625 C 6.742188 -13.625 7.609375 -13.316406 8.296875 -12.703125 C 8.984375 -12.097656 9.5 -11.273438 9.84375 -10.234375 C 10.1875 -9.191406 10.359375 -8.019531 10.359375 -6.71875 C 10.359375 -5.425781 10.1875 -4.257812 9.84375 -3.21875 C 9.5 -2.175781 8.984375 -1.347656 8.296875 -0.734375 C 7.609375 -0.117188 6.742188 0.1875 5.703125 0.1875 Z M 5.703125 -1 C 6.453125 -1 7.078125 -1.234375 7.578125 -1.703125 C 8.085938 -2.179688 8.472656 -2.851562 8.734375 -3.71875 C 9.003906 -4.582031 9.140625 -5.582031 9.140625 -6.71875 C 9.140625 -7.863281 9.003906 -8.867188 8.734375 -9.734375 C 8.472656 -10.597656 8.085938 -11.265625 7.578125 -11.734375 C 7.078125 -12.210938 6.453125 -12.453125 5.703125 -12.453125 C 4.953125 -12.453125 4.320312 -12.210938 3.8125 -11.734375 C 3.3125 -11.265625 2.929688 -10.597656 2.671875 -9.734375 C 2.410156 -8.867188 2.28125 -7.863281 2.28125 -6.71875 C 2.28125 -5.582031 2.410156 -4.582031 2.671875 -3.71875 C 2.929688 -2.851562 3.3125 -2.179688 3.8125 -1.703125 C 4.320312 -1.234375 4.953125 -1 5.703125 -1 Z M 5.703125 -1 "/></g></g></g></g></g><g transform="matrix(1, 0, 0, 1, 254, 301)"><g clip-path="url(#2cee70665a)"><g clip-path="url(#462380569c)"><g fill="#201f1f" fill-opacity="1"><g transform="translate(0.385459, 19.691561)"><g><path d="M 4.34375 0 C 4.15625 0 4.003906 -0.0546875 3.890625 -0.171875 C 3.773438 -0.285156 3.71875 -0.421875 3.71875 -0.578125 L 3.71875 -12.125 L 3.9375 -11.9375 L 1.375 -10.234375 C 1.28125 -10.148438 1.175781 -10.109375 1.0625 -10.109375 C 0.90625 -10.109375 0.765625 -10.171875 0.640625 -10.296875 C 0.515625 -10.429688 0.453125 -10.570312 0.453125 -10.71875 C 0.453125 -10.925781 0.554688 -11.085938 0.765625 -11.203125 L 3.96875 -13.328125 C 4.050781 -13.378906 4.132812 -13.410156 4.21875 -13.421875 C 4.300781 -13.441406 4.375 -13.445312 4.4375 -13.4375 C 4.601562 -13.414062 4.726562 -13.347656 4.8125 -13.234375 C 4.90625 -13.128906 4.953125 -13.003906 4.953125 -12.859375 L 4.953125 -0.578125 C 4.953125 -0.421875 4.894531 -0.285156 4.78125 -0.171875 C 4.664062 -0.0546875 4.519531 0 4.34375 0 Z M 4.34375 0 "/></g></g></g></g><g fill="#201f1f" fill-opacity="1"><g transform="translate(7.481893, 19.691561)"><g><path d="M 4.34375 0 C 4.15625 0 4.003906 -0.0546875 3.890625 -0.171875 C 3.773438 -0.285156 3.71875 -0.421875 3.71875 -0.578125 L 3.71875 -12.125 L 3.9375 -11.9375 L 1.375 -10.234375 C 1.28125 -10.148438 1.175781 -10.109375 1.0625 -10.109375 C 0.90625 -10.109375 0.765625 -10.171875 0.640625 -10.296875 C 0.515625 -10.429688 0.453125 -10.570312 0.453125 -10.71875 C 0.453125 -10.925781 0.554688 -11.085938 0.765625 -11.203125 L 3.96875 -13.328125 C 4.050781 -13.378906 4.132812 -13.410156 4.21875 -13.421875 C 4.300781 -13.441406 4.375 -13.445312 4.4375 -13.4375 C 4.601562 -13.414062 4.726562 -13.347656 4.8125 -13.234375 C 4.90625 -13.128906 4.953125 -13.003906 4.953125 -12.859375 L 4.953125 -0.578125 C 4.953125 -0.421875 4.894531 -0.285156 4.78125 -0.171875 C 4.664062 -0.0546875 4.519531 0 4.34375 0 Z M 4.34375 0 "/></g></g></g></g></g><g transform="matrix(1, 0, 0, 1, 380, 301)"><g clip-path="url(#d1a0e41f5c)"><g clip-path="url(#ac292916d1)"><g fill="#201f1f" fill-opacity="1"><g transform="translate(0.203988, 19.691561)"><g><path d="M 4.34375 0 C 4.15625 0 4.003906 -0.0546875 3.890625 -0.171875 C 3.773438 -0.285156 3.71875 -0.421875 3.71875 -0.578125 L 3.71875 -12.125 L 3.9375 -11.9375 L 1.375 -10.234375 C 1.28125 -10.148438 1.175781 -10.109375 1.0625 -10.109375 C 0.90625 -10.109375 0.765625 -10.171875 0.640625 -10.296875 C 0.515625 -10.429688 0.453125 -10.570312 0.453125 -10.71875 C 0.453125 -10.925781 0.554688 -11.085938 0.765625 -11.203125 L 3.96875 -13.328125 C 4.050781 -13.378906 4.132812 -13.410156 4.21875 -13.421875 C 4.300781 -13.441406 4.375 -13.445312 4.4375 -13.4375 C 4.601562 -13.414062 4.726562 -13.347656 4.8125 -13.234375 C 4.90625 -13.128906 4.953125 -13.003906 4.953125 -12.859375 L 4.953125 -0.578125 C 4.953125 -0.421875 4.894531 -0.285156 4.78125 -0.171875 C 4.664062 -0.0546875 4.519531 0 4.34375 0 Z M 4.34375 0 "/></g></g></g></g><g fill="#201f1f" fill-opacity="1"><g transform="translate(7.300422, 19.691561)"><g><path d="M 9.09375 -1.109375 C 9.25 -1.109375 9.378906 -1.050781 9.484375 -0.9375 C 9.597656 -0.832031 9.65625 -0.707031 9.65625 -0.5625 C 9.65625 -0.394531 9.597656 -0.257812 9.484375 -0.15625 C 9.378906 -0.0507812 9.25 0 9.09375 0 L 1.90625 0 C 1.738281 0 1.59375 -0.046875 1.46875 -0.140625 C 1.34375 -0.234375 1.28125 -0.378906 1.28125 -0.578125 C 1.28125 -0.710938 1.332031 -0.847656 1.4375 -0.984375 L 5.875 -5.875 C 6.570312 -6.632812 7.097656 -7.335938 7.453125 -7.984375 C 7.804688 -8.628906 7.984375 -9.210938 7.984375 -9.734375 C 7.984375 -10.578125 7.726562 -11.253906 7.21875 -11.765625 C 6.707031 -12.273438 6.015625 -12.53125 5.140625 -12.53125 C 4.742188 -12.53125 4.347656 -12.445312 3.953125 -12.28125 C 3.566406 -12.113281 3.222656 -11.894531 2.921875 -11.625 C 2.617188 -11.351562 2.382812 -11.046875 2.21875 -10.703125 C 2.144531 -10.578125 2.066406 -10.488281 1.984375 -10.4375 C 1.898438 -10.382812 1.804688 -10.359375 1.703125 -10.359375 C 1.554688 -10.359375 1.421875 -10.40625 1.296875 -10.5 C 1.179688 -10.601562 1.125 -10.722656 1.125 -10.859375 C 1.125 -10.953125 1.144531 -11.039062 1.1875 -11.125 C 1.238281 -11.21875 1.3125 -11.320312 1.40625 -11.4375 C 1.632812 -11.832031 1.953125 -12.195312 2.359375 -12.53125 C 2.765625 -12.863281 3.21875 -13.128906 3.71875 -13.328125 C 4.226562 -13.523438 4.726562 -13.625 5.21875 -13.625 C 6.039062 -13.625 6.75 -13.46875 7.34375 -13.15625 C 7.9375 -12.84375 8.394531 -12.398438 8.71875 -11.828125 C 9.039062 -11.253906 9.203125 -10.582031 9.203125 -9.8125 C 9.203125 -9.144531 8.992188 -8.414062 8.578125 -7.625 C 8.171875 -6.84375 7.554688 -5.992188 6.734375 -5.078125 L 3 -0.875 L 2.796875 -1.109375 Z M 9.09375 -1.109375 "/></g></g></g></g></g><g transform="matrix(1, 0, 0, 1, 505, 301)"><g clip-path="url(#68c32271be)"><g fill="#201f1f" fill-opacity="1"><g transform="translate(1.022518, 19.691561)"><g><path d="M 4.34375 0 C 4.15625 0 4.003906 -0.0546875 3.890625 -0.171875 C 3.773438 -0.285156 3.71875 -0.421875 3.71875 -0.578125 L 3.71875 -12.125 L 3.9375 -11.9375 L 1.375 -10.234375 C 1.28125 -10.148438 1.175781 -10.109375 1.0625 -10.109375 C 0.90625 -10.109375 0.765625 -10.171875 0.640625 -10.296875 C 0.515625 -10.429688 0.453125 -10.570312 0.453125 -10.71875 C 0.453125 -10.925781 0.554688 -11.085938 0.765625 -11.203125 L 3.96875 -13.328125 C 4.050781 -13.378906 4.132812 -13.410156 4.21875 -13.421875 C 4.300781 -13.441406 4.375 -13.445312 4.4375 -13.4375 C 4.601562 -13.414062 4.726562 -13.347656 4.8125 -13.234375 C 4.90625 -13.128906 4.953125 -13.003906 4.953125 -12.859375 L 4.953125 -0.578125 C 4.953125 -0.421875 4.894531 -0.285156 4.78125 -0.171875 C 4.664062 -0.0546875 4.519531 0 4.34375 0 Z M 4.34375 0 "/></g></g></g><g fill="#201f1f" fill-opacity="1"><g transform="translate(8.118951, 19.691561)"><g><path d="M 1.703125 -1.96875 C 1.765625 -1.96875 1.832031 -1.957031 1.90625 -1.9375 C 1.976562 -1.914062 2.066406 -1.859375 2.171875 -1.765625 C 2.441406 -1.484375 2.757812 -1.269531 3.125 -1.125 C 3.5 -0.976562 3.921875 -0.90625 4.390625 -0.90625 C 5.015625 -0.90625 5.585938 -1.046875 6.109375 -1.328125 C 6.628906 -1.609375 7.039062 -2 7.34375 -2.5 C 7.65625 -3.007812 7.8125 -3.585938 7.8125 -4.234375 C 7.8125 -4.984375 7.644531 -5.582031 7.3125 -6.03125 C 6.988281 -6.488281 6.570312 -6.828125 6.0625 -7.046875 C 5.5625 -7.273438 5.050781 -7.390625 4.53125 -7.390625 C 4.382812 -7.390625 4.242188 -7.378906 4.109375 -7.359375 C 3.984375 -7.335938 3.859375 -7.3125 3.734375 -7.28125 C 3.617188 -7.257812 3.53125 -7.25 3.46875 -7.25 C 3.300781 -7.25 3.171875 -7.300781 3.078125 -7.40625 C 2.992188 -7.519531 2.953125 -7.660156 2.953125 -7.828125 C 2.953125 -7.921875 2.96875 -8 3 -8.0625 C 3.039062 -8.132812 3.097656 -8.21875 3.171875 -8.3125 L 7.0625 -12.546875 L 7.296875 -12.234375 L 1.484375 -12.234375 C 1.328125 -12.234375 1.191406 -12.285156 1.078125 -12.390625 C 0.972656 -12.503906 0.921875 -12.640625 0.921875 -12.796875 C 0.921875 -12.953125 0.972656 -13.078125 1.078125 -13.171875 C 1.191406 -13.273438 1.328125 -13.328125 1.484375 -13.328125 L 7.921875 -13.328125 C 8.140625 -13.328125 8.289062 -13.257812 8.375 -13.125 C 8.46875 -13 8.515625 -12.867188 8.515625 -12.734375 C 8.515625 -12.660156 8.492188 -12.585938 8.453125 -12.515625 C 8.421875 -12.453125 8.375 -12.378906 8.3125 -12.296875 L 4.40625 -8.0625 L 3.984375 -8.3125 C 4.023438 -8.34375 4.15625 -8.378906 4.375 -8.421875 C 4.601562 -8.472656 4.78125 -8.5 4.90625 -8.5 C 5.613281 -8.5 6.273438 -8.332031 6.890625 -8 C 7.515625 -7.664062 8.019531 -7.1875 8.40625 -6.5625 C 8.800781 -5.945312 9 -5.1875 9 -4.28125 C 9 -3.382812 8.785156 -2.597656 8.359375 -1.921875 C 7.941406 -1.253906 7.375 -0.734375 6.65625 -0.359375 C 5.9375 0.00390625 5.144531 0.1875 4.28125 0.1875 C 3.75 0.1875 3.226562 0.0976562 2.71875 -0.078125 C 2.207031 -0.253906 1.757812 -0.519531 1.375 -0.875 C 1.289062 -0.957031 1.226562 -1.035156 1.1875 -1.109375 C 1.144531 -1.191406 1.125 -1.269531 1.125 -1.34375 C 1.125 -1.5 1.175781 -1.640625 1.28125 -1.765625 C 1.394531 -1.898438 1.535156 -1.96875 1.703125 -1.96875 Z M 1.703125 -1.96875 "/></g></g></g></g></g><g transform="matrix(1, 0, 0, 1, 631, 301)"><g clip-path="url(#7b97813449)"><g fill="#201f1f" fill-opacity="1"><g transform="translate(0.841164, 19.691561)"><g><path d="M 4.34375 0 C 4.15625 0 4.003906 -0.0546875 3.890625 -0.171875 C 3.773438 -0.285156 3.71875 -0.421875 3.71875 -0.578125 L 3.71875 -12.125 L 3.9375 -11.9375 L 1.375 -10.234375 C 1.28125 -10.148438 1.175781 -10.109375 1.0625 -10.109375 C 0.90625 -10.109375 0.765625 -10.171875 0.640625 -10.296875 C 0.515625 -10.429688 0.453125 -10.570312 0.453125 -10.71875 C 0.453125 -10.925781 0.554688 -11.085938 0.765625 -11.203125 L 3.96875 -13.328125 C 4.050781 -13.378906 4.132812 -13.410156 4.21875 -13.421875 C 4.300781 -13.441406 4.375 -13.445312 4.4375 -13.4375 C 4.601562 -13.414062 4.726562 -13.347656 4.8125 -13.234375 C 4.90625 -13.128906 4.953125 -13.003906 4.953125 -12.859375 L 4.953125 -0.578125 C 4.953125 -0.421875 4.894531 -0.285156 4.78125 -0.171875 C 4.664062 -0.0546875 4.519531 0 4.34375 0 Z M 4.34375 0 "/></g></g></g><g fill="#201f1f" fill-opacity="1"><g transform="translate(7.937597, 19.691561)"><g><path d="M 7.046875 0 C 6.878906 0 6.742188 -0.0546875 6.640625 -0.171875 C 6.535156 -0.285156 6.484375 -0.421875 6.484375 -0.578125 L 6.484375 -11.84375 L 6.734375 -11.6875 L 1.6875 -5.015625 L 1.625 -5.21875 L 9 -5.21875 C 9.15625 -5.21875 9.285156 -5.164062 9.390625 -5.0625 C 9.503906 -4.957031 9.5625 -4.832031 9.5625 -4.6875 C 9.5625 -4.53125 9.503906 -4.398438 9.390625 -4.296875 C 9.285156 -4.191406 9.15625 -4.140625 9 -4.140625 L 0.84375 -4.140625 C 0.6875 -4.140625 0.550781 -4.203125 0.4375 -4.328125 C 0.320312 -4.453125 0.265625 -4.585938 0.265625 -4.734375 C 0.265625 -4.878906 0.3125 -5.007812 0.40625 -5.125 L 6.578125 -13.203125 C 6.640625 -13.285156 6.71875 -13.34375 6.8125 -13.375 C 6.914062 -13.414062 7 -13.4375 7.0625 -13.4375 C 7.226562 -13.4375 7.363281 -13.375 7.46875 -13.25 C 7.582031 -13.132812 7.640625 -13.003906 7.640625 -12.859375 L 7.640625 -0.578125 C 7.640625 -0.421875 7.582031 -0.285156 7.46875 -0.171875 C 7.351562 -0.0546875 7.210938 0 7.046875 0 Z M 7.046875 0 "/></g></g></g></g></g><g transform="matrix(1, 0, 0, 1, 757, 301)"><g clip-path="url(#ebb90761c4)"><g fill="#201f1f" fill-opacity="1"><g transform="translate(0.659576, 19.691561)"><g><path d="M 4.34375 0 C 4.15625 0 4.003906 -0.0546875 3.890625 -0.171875 C 3.773438 -0.285156 3.71875 -0.421875 3.71875 -0.578125 L 3.71875 -12.125 L 3.9375 -11.9375 L 1.375 -10.234375 C 1.28125 -10.148438 1.175781 -10.109375 1.0625 -10.109375 C 0.90625 -10.109375 0.765625 -10.171875 0.640625 -10.296875 C 0.515625 -10.429688 0.453125 -10.570312 0.453125 -10.71875 C 0.453125 -10.925781 0.554688 -11.085938 0.765625 -11.203125 L 3.96875 -13.328125 C 4.050781 -13.378906 4.132812 -13.410156 4.21875 -13.421875 C 4.300781 -13.441406 4.375 -13.445312 4.4375 -13.4375 C 4.601562 -13.414062 4.726562 -13.347656 4.8125 -13.234375 C 4.90625 -13.128906 4.953125 -13.003906 4.953125 -12.859375 L 4.953125 -0.578125 C 4.953125 -0.421875 4.894531 -0.285156 4.78125 -0.171875 C 4.664062 -0.0546875 4.519531 0 4.34375 0 Z M 4.34375 0 "/></g></g></g><g fill="#201f1f" fill-opacity="1"><g transform="translate(7.756009, 19.691561)"><g><path d="M 4.484375 0.03125 C 3.960938 0.03125 3.4375 -0.0507812 2.90625 -0.21875 C 2.375 -0.394531 1.90625 -0.65625 1.5 -1 C 1.414062 -1.0625 1.351562 -1.132812 1.3125 -1.21875 C 1.269531 -1.3125 1.25 -1.40625 1.25 -1.5 C 1.25 -1.625 1.296875 -1.742188 1.390625 -1.859375 C 1.492188 -1.984375 1.628906 -2.046875 1.796875 -2.046875 C 1.941406 -2.046875 2.082031 -1.988281 2.21875 -1.875 C 2.550781 -1.625 2.910156 -1.425781 3.296875 -1.28125 C 3.691406 -1.144531 4.085938 -1.078125 4.484375 -1.078125 C 5.242188 -1.078125 5.90625 -1.21875 6.46875 -1.5 C 7.03125 -1.789062 7.460938 -2.203125 7.765625 -2.734375 C 8.078125 -3.265625 8.234375 -3.878906 8.234375 -4.578125 C 8.234375 -5.234375 8.09375 -5.800781 7.8125 -6.28125 C 7.53125 -6.757812 7.128906 -7.132812 6.609375 -7.40625 C 6.085938 -7.6875 5.476562 -7.828125 4.78125 -7.828125 C 4.320312 -7.828125 3.898438 -7.753906 3.515625 -7.609375 C 3.140625 -7.472656 2.8125 -7.332031 2.53125 -7.1875 C 2.257812 -7.039062 2.039062 -6.96875 1.875 -6.96875 C 1.726562 -6.96875 1.601562 -7.003906 1.5 -7.078125 C 1.40625 -7.148438 1.34375 -7.242188 1.3125 -7.359375 C 1.28125 -7.484375 1.28125 -7.609375 1.3125 -7.734375 L 2.125 -12.859375 C 2.144531 -12.972656 2.207031 -13.078125 2.3125 -13.171875 C 2.414062 -13.265625 2.550781 -13.3125 2.71875 -13.3125 L 8.5 -13.3125 C 8.65625 -13.3125 8.785156 -13.253906 8.890625 -13.140625 C 9.003906 -13.035156 9.0625 -12.910156 9.0625 -12.765625 C 9.0625 -12.597656 9.003906 -12.457031 8.890625 -12.34375 C 8.785156 -12.238281 8.65625 -12.1875 8.5 -12.1875 L 3 -12.1875 L 3.171875 -12.359375 L 2.375 -7.8125 L 2.03125 -8.0625 C 2.195312 -8.1875 2.4375 -8.3125 2.75 -8.4375 C 3.0625 -8.570312 3.410156 -8.6875 3.796875 -8.78125 C 4.191406 -8.875 4.609375 -8.921875 5.046875 -8.921875 C 5.878906 -8.921875 6.617188 -8.738281 7.265625 -8.375 C 7.921875 -8.007812 8.4375 -7.503906 8.8125 -6.859375 C 9.1875 -6.210938 9.375 -5.46875 9.375 -4.625 C 9.375 -3.6875 9.171875 -2.867188 8.765625 -2.171875 C 8.367188 -1.472656 7.804688 -0.929688 7.078125 -0.546875 C 6.347656 -0.160156 5.484375 0.03125 4.484375 0.03125 Z M 4.484375 0.03125 "/></g></g></g></g></g><g clip-path="url(#12ad15d22a)"><g transform="matrix(1, 0, 0, 1, 2, 450)"><g clip-path="url(#5e44e6a985)"><g fill="#201f1f" fill-opacity="1"><g transform="translate(0.748298, 20.449708)"><g><path d="M 4.34375 0 C 4.15625 0 4.003906 -0.0546875 3.890625 -0.171875 C 3.773438 -0.285156 3.71875 -0.421875 3.71875 -0.578125 L 3.71875 -12.125 L 3.9375 -11.9375 L 1.375 -10.234375 C 1.28125 -10.148438 1.175781 -10.109375 1.0625 -10.109375 C 0.90625 -10.109375 0.765625 -10.171875 0.640625 -10.296875 C 0.515625 -10.429688 0.453125 -10.570312 0.453125 -10.71875 C 0.453125 -10.925781 0.554688 -11.085938 0.765625 -11.203125 L 3.96875 -13.328125 C 4.050781 -13.378906 4.132812 -13.410156 4.21875 -13.421875 C 4.300781 -13.441406 4.375 -13.445312 4.4375 -13.4375 C 4.601562 -13.414062 4.726562 -13.347656 4.8125 -13.234375 C 4.90625 -13.128906 4.953125 -13.003906 4.953125 -12.859375 L 4.953125 -0.578125 C 4.953125 -0.421875 4.894531 -0.285156 4.78125 -0.171875 C 4.664062 -0.0546875 4.519531 0 4.34375 0 Z M 4.34375 0 "/></g></g></g><g fill="#201f1f" fill-opacity="1"><g transform="translate(7.844732, 20.449708)"><g><path d="M 5.5 0.1875 C 4.757812 0.1875 4.109375 0.0546875 3.546875 -0.203125 C 2.992188 -0.472656 2.535156 -0.832031 2.171875 -1.28125 C 1.804688 -1.738281 1.535156 -2.253906 1.359375 -2.828125 C 1.191406 -3.410156 1.109375 -4.003906 1.109375 -4.609375 C 1.109375 -5.222656 1.1875 -5.882812 1.34375 -6.59375 C 1.5 -7.300781 1.734375 -8.019531 2.046875 -8.75 C 2.367188 -9.476562 2.765625 -10.164062 3.234375 -10.8125 C 3.703125 -11.46875 4.242188 -12.054688 4.859375 -12.578125 C 5.484375 -13.097656 6.1875 -13.503906 6.96875 -13.796875 C 7.050781 -13.816406 7.125 -13.828125 7.1875 -13.828125 C 7.351562 -13.828125 7.5 -13.78125 7.625 -13.6875 C 7.75 -13.601562 7.8125 -13.453125 7.8125 -13.234375 C 7.8125 -13.109375 7.769531 -13 7.6875 -12.90625 C 7.601562 -12.8125 7.488281 -12.738281 7.34375 -12.6875 C 6.8125 -12.457031 6.28125 -12.128906 5.75 -11.703125 C 5.226562 -11.285156 4.742188 -10.800781 4.296875 -10.25 C 3.847656 -9.695312 3.46875 -9.101562 3.15625 -8.46875 C 2.84375 -7.832031 2.625 -7.191406 2.5 -6.546875 L 2.078125 -6.296875 C 2.304688 -6.710938 2.601562 -7.082031 2.96875 -7.40625 C 3.332031 -7.738281 3.75 -8.003906 4.21875 -8.203125 C 4.695312 -8.398438 5.207031 -8.5 5.75 -8.5 C 6.332031 -8.5 6.863281 -8.375 7.34375 -8.125 C 7.832031 -7.882812 8.253906 -7.554688 8.609375 -7.140625 C 8.960938 -6.734375 9.238281 -6.265625 9.4375 -5.734375 C 9.632812 -5.210938 9.734375 -4.671875 9.734375 -4.109375 C 9.734375 -3.347656 9.550781 -2.640625 9.1875 -1.984375 C 8.820312 -1.335938 8.320312 -0.8125 7.6875 -0.40625 C 7.050781 -0.0078125 6.320312 0.1875 5.5 0.1875 Z M 5.484375 -0.921875 C 6.078125 -0.921875 6.601562 -1.054688 7.0625 -1.328125 C 7.519531 -1.597656 7.878906 -1.972656 8.140625 -2.453125 C 8.398438 -2.929688 8.53125 -3.484375 8.53125 -4.109375 C 8.53125 -4.679688 8.414062 -5.210938 8.1875 -5.703125 C 7.96875 -6.203125 7.640625 -6.609375 7.203125 -6.921875 C 6.765625 -7.234375 6.21875 -7.390625 5.5625 -7.390625 C 4.882812 -7.390625 4.296875 -7.234375 3.796875 -6.921875 C 3.304688 -6.617188 2.929688 -6.210938 2.671875 -5.703125 C 2.410156 -5.203125 2.28125 -4.648438 2.28125 -4.046875 C 2.28125 -3.515625 2.40625 -3.003906 2.65625 -2.515625 C 2.914062 -2.035156 3.285156 -1.648438 3.765625 -1.359375 C 4.242188 -1.066406 4.816406 -0.921875 5.484375 -0.921875 Z M 5.484375 -0.921875 "/></g></g></g></g></g></g><g clip-path="url(#2fb80ccaaf)"><g transform="matrix(1, 0, 0, 1, 128, 450)"><g clip-path="url(#3a2d71aa69)"><g fill="#201f1f" fill-opacity="1"><g transform="translate(0.566857, 20.449708)"><g><path d="M 4.34375 0 C 4.15625 0 4.003906 -0.0546875 3.890625 -0.171875 C 3.773438 -0.285156 3.71875 -0.421875 3.71875 -0.578125 L 3.71875 -12.125 L 3.9375 -11.9375 L 1.375 -10.234375 C 1.28125 -10.148438 1.175781 -10.109375 1.0625 -10.109375 C 0.90625 -10.109375 0.765625 -10.171875 0.640625 -10.296875 C 0.515625 -10.429688 0.453125 -10.570312 0.453125 -10.71875 C 0.453125 -10.925781 0.554688 -11.085938 0.765625 -11.203125 L 3.96875 -13.328125 C 4.050781 -13.378906 4.132812 -13.410156 4.21875 -13.421875 C 4.300781 -13.441406 4.375 -13.445312 4.4375 -13.4375 C 4.601562 -13.414062 4.726562 -13.347656 4.8125 -13.234375 C 4.90625 -13.128906 4.953125 -13.003906 4.953125 -12.859375 L 4.953125 -0.578125 C 4.953125 -0.421875 4.894531 -0.285156 4.78125 -0.171875 C 4.664062 -0.0546875 4.519531 0 4.34375 0 Z M 4.34375 0 "/></g></g></g><g fill="#201f1f" fill-opacity="1"><g transform="translate(7.66329, 20.449708)"><g><path d="M 3.421875 0.0625 C 3.265625 0.0625 3.117188 0.0078125 2.984375 -0.09375 C 2.859375 -0.195312 2.796875 -0.328125 2.796875 -0.484375 C 2.796875 -0.566406 2.816406 -0.660156 2.859375 -0.765625 L 7.96875 -12.484375 L 8.171875 -12.21875 L 1.6875 -12.21875 C 1.53125 -12.21875 1.394531 -12.269531 1.28125 -12.375 C 1.175781 -12.488281 1.125 -12.625 1.125 -12.78125 C 1.125 -12.945312 1.175781 -13.078125 1.28125 -13.171875 C 1.394531 -13.273438 1.53125 -13.328125 1.6875 -13.328125 L 8.734375 -13.328125 C 8.921875 -13.328125 9.054688 -13.273438 9.140625 -13.171875 C 9.234375 -13.078125 9.28125 -12.953125 9.28125 -12.796875 C 9.28125 -12.691406 9.265625 -12.597656 9.234375 -12.515625 L 3.953125 -0.328125 C 3.910156 -0.210938 3.835938 -0.117188 3.734375 -0.046875 C 3.640625 0.0234375 3.535156 0.0625 3.421875 0.0625 Z M 3.421875 0.0625 "/></g></g></g></g></g></g><g clip-path="url(#3cd6a584f5)"><g transform="matrix(1, 0, 0, 1, 254, 450)"><g clip-path="url(#cb52c238d9)"><g clip-path="url(#81f51cb2e1)"><g fill="#201f1f" fill-opacity="1"><g transform="translate(0.385459, 20.449708)"><g><path d="M 4.34375 0 C 4.15625 0 4.003906 -0.0546875 3.890625 -0.171875 C 3.773438 -0.285156 3.71875 -0.421875 3.71875 -0.578125 L 3.71875 -12.125 L 3.9375 -11.9375 L 1.375 -10.234375 C 1.28125 -10.148438 1.175781 -10.109375 1.0625 -10.109375 C 0.90625 -10.109375 0.765625 -10.171875 0.640625 -10.296875 C 0.515625 -10.429688 0.453125 -10.570312 0.453125 -10.71875 C 0.453125 -10.925781 0.554688 -11.085938 0.765625 -11.203125 L 3.96875 -13.328125 C 4.050781 -13.378906 4.132812 -13.410156 4.21875 -13.421875 C 4.300781 -13.441406 4.375 -13.445312 4.4375 -13.4375 C 4.601562 -13.414062 4.726562 -13.347656 4.8125 -13.234375 C 4.90625 -13.128906 4.953125 -13.003906 4.953125 -12.859375 L 4.953125 -0.578125 C 4.953125 -0.421875 4.894531 -0.285156 4.78125 -0.171875 C 4.664062 -0.0546875 4.519531 0 4.34375 0 Z M 4.34375 0 "/></g></g></g></g><g fill="#201f1f" fill-opacity="1"><g transform="translate(7.481893, 20.449708)"><g><path d="M 6.984375 -6.75 L 6.921875 -6.921875 C 7.359375 -6.753906 7.753906 -6.507812 8.109375 -6.1875 C 8.472656 -5.863281 8.765625 -5.476562 8.984375 -5.03125 C 9.203125 -4.59375 9.3125 -4.113281 9.3125 -3.59375 C 9.3125 -2.894531 9.128906 -2.265625 8.765625 -1.703125 C 8.398438 -1.140625 7.898438 -0.691406 7.265625 -0.359375 C 6.640625 -0.0234375 5.945312 0.140625 5.1875 0.140625 C 4.40625 0.140625 3.703125 -0.0234375 3.078125 -0.359375 C 2.460938 -0.691406 1.972656 -1.140625 1.609375 -1.703125 C 1.242188 -2.265625 1.0625 -2.894531 1.0625 -3.59375 C 1.0625 -4.15625 1.171875 -4.65625 1.390625 -5.09375 C 1.617188 -5.53125 1.914062 -5.898438 2.28125 -6.203125 C 2.644531 -6.515625 3.023438 -6.753906 3.421875 -6.921875 L 3.359375 -6.734375 C 3.015625 -6.898438 2.691406 -7.125 2.390625 -7.40625 C 2.085938 -7.695312 1.835938 -8.046875 1.640625 -8.453125 C 1.453125 -8.859375 1.359375 -9.300781 1.359375 -9.78125 C 1.359375 -10.476562 1.523438 -11.097656 1.859375 -11.640625 C 2.203125 -12.191406 2.664062 -12.628906 3.25 -12.953125 C 3.832031 -13.273438 4.476562 -13.4375 5.1875 -13.4375 C 5.882812 -13.4375 6.515625 -13.273438 7.078125 -12.953125 C 7.648438 -12.628906 8.101562 -12.191406 8.4375 -11.640625 C 8.78125 -11.097656 8.953125 -10.476562 8.953125 -9.78125 C 8.953125 -9.28125 8.859375 -8.832031 8.671875 -8.4375 C 8.484375 -8.039062 8.234375 -7.695312 7.921875 -7.40625 C 7.617188 -7.125 7.304688 -6.90625 6.984375 -6.75 Z M 2.546875 -9.78125 C 2.546875 -9.269531 2.664062 -8.820312 2.90625 -8.4375 C 3.15625 -8.050781 3.476562 -7.75 3.875 -7.53125 C 4.269531 -7.320312 4.707031 -7.21875 5.1875 -7.21875 C 5.644531 -7.21875 6.070312 -7.320312 6.46875 -7.53125 C 6.863281 -7.75 7.175781 -8.050781 7.40625 -8.4375 C 7.644531 -8.820312 7.765625 -9.269531 7.765625 -9.78125 C 7.765625 -10.539062 7.519531 -11.15625 7.03125 -11.625 C 6.550781 -12.101562 5.9375 -12.34375 5.1875 -12.34375 C 4.40625 -12.34375 3.769531 -12.101562 3.28125 -11.625 C 2.789062 -11.15625 2.546875 -10.539062 2.546875 -9.78125 Z M 5.1875 -0.953125 C 6.050781 -0.953125 6.753906 -1.203125 7.296875 -1.703125 C 7.835938 -2.203125 8.109375 -2.832031 8.109375 -3.59375 C 8.109375 -4.101562 7.972656 -4.5625 7.703125 -4.96875 C 7.441406 -5.375 7.085938 -5.691406 6.640625 -5.921875 C 6.191406 -6.160156 5.707031 -6.28125 5.1875 -6.28125 C 4.65625 -6.28125 4.164062 -6.160156 3.71875 -5.921875 C 3.269531 -5.691406 2.910156 -5.375 2.640625 -4.96875 C 2.378906 -4.5625 2.25 -4.101562 2.25 -3.59375 C 2.25 -2.832031 2.515625 -2.203125 3.046875 -1.703125 C 3.585938 -1.203125 4.300781 -0.953125 5.1875 -0.953125 Z M 5.1875 -0.953125 "/></g></g></g></g></g></g><g clip-path="url(#8a7c8e8858)"><g transform="matrix(1, 0, 0, 1, 380, 450)"><g clip-path="url(#c4fbba15a1)"><g clip-path="url(#abd744e3d2)"><g fill="#201f1f" fill-opacity="1"><g transform="translate(0.203988, 20.449708)"><g><path d="M 4.34375 0 C 4.15625 0 4.003906 -0.0546875 3.890625 -0.171875 C 3.773438 -0.285156 3.71875 -0.421875 3.71875 -0.578125 L 3.71875 -12.125 L 3.9375 -11.9375 L 1.375 -10.234375 C 1.28125 -10.148438 1.175781 -10.109375 1.0625 -10.109375 C 0.90625 -10.109375 0.765625 -10.171875 0.640625 -10.296875 C 0.515625 -10.429688 0.453125 -10.570312 0.453125 -10.71875 C 0.453125 -10.925781 0.554688 -11.085938 0.765625 -11.203125 L 3.96875 -13.328125 C 4.050781 -13.378906 4.132812 -13.410156 4.21875 -13.421875 C 4.300781 -13.441406 4.375 -13.445312 4.4375 -13.4375 C 4.601562 -13.414062 4.726562 -13.347656 4.8125 -13.234375 C 4.90625 -13.128906 4.953125 -13.003906 4.953125 -12.859375 L 4.953125 -0.578125 C 4.953125 -0.421875 4.894531 -0.285156 4.78125 -0.171875 C 4.664062 -0.0546875 4.519531 0 4.34375 0 Z M 4.34375 0 "/></g></g></g></g><g fill="#201f1f" fill-opacity="1"><g transform="translate(7.300422, 20.449708)"><g><path d="M 5.3125 -13.640625 C 6.070312 -13.640625 6.726562 -13.503906 7.28125 -13.234375 C 7.832031 -12.972656 8.285156 -12.613281 8.640625 -12.15625 C 9.003906 -11.695312 9.273438 -11.179688 9.453125 -10.609375 C 9.640625 -10.035156 9.734375 -9.445312 9.734375 -8.84375 C 9.734375 -8.226562 9.648438 -7.570312 9.484375 -6.875 C 9.328125 -6.175781 9.09375 -5.472656 8.78125 -4.765625 C 8.46875 -4.054688 8.078125 -3.378906 7.609375 -2.734375 C 7.140625 -2.097656 6.59375 -1.523438 5.96875 -1.015625 C 5.34375 -0.503906 4.644531 -0.109375 3.875 0.171875 C 3.769531 0.203125 3.6875 0.21875 3.625 0.21875 C 3.46875 0.21875 3.328125 0.160156 3.203125 0.046875 C 3.085938 -0.0546875 3.03125 -0.203125 3.03125 -0.390625 C 3.03125 -0.515625 3.066406 -0.625 3.140625 -0.71875 C 3.222656 -0.8125 3.335938 -0.882812 3.484375 -0.9375 C 4.210938 -1.25 4.914062 -1.707031 5.59375 -2.3125 C 6.28125 -2.914062 6.867188 -3.617188 7.359375 -4.421875 C 7.847656 -5.222656 8.175781 -6.050781 8.34375 -6.90625 L 8.75 -7.15625 C 8.53125 -6.75 8.234375 -6.378906 7.859375 -6.046875 C 7.492188 -5.710938 7.078125 -5.453125 6.609375 -5.265625 C 6.140625 -5.078125 5.628906 -4.984375 5.078125 -4.984375 C 4.265625 -4.984375 3.5625 -5.1875 2.96875 -5.59375 C 2.375 -6 1.914062 -6.53125 1.59375 -7.1875 C 1.269531 -7.851562 1.109375 -8.570312 1.109375 -9.34375 C 1.109375 -10.09375 1.289062 -10.796875 1.65625 -11.453125 C 2.019531 -12.109375 2.519531 -12.632812 3.15625 -13.03125 C 3.789062 -13.4375 4.507812 -13.640625 5.3125 -13.640625 Z M 5.359375 -12.53125 C 4.753906 -12.53125 4.21875 -12.394531 3.75 -12.125 C 3.289062 -11.851562 2.929688 -11.476562 2.671875 -11 C 2.410156 -10.519531 2.28125 -9.96875 2.28125 -9.34375 C 2.28125 -8.78125 2.390625 -8.25 2.609375 -7.75 C 2.835938 -7.25 3.175781 -6.847656 3.625 -6.546875 C 4.070312 -6.253906 4.613281 -6.109375 5.25 -6.109375 C 5.945312 -6.109375 6.535156 -6.253906 7.015625 -6.546875 C 7.503906 -6.847656 7.882812 -7.25 8.15625 -7.75 C 8.425781 -8.25 8.5625 -8.800781 8.5625 -9.40625 C 8.5625 -9.957031 8.429688 -10.46875 8.171875 -10.9375 C 7.921875 -11.40625 7.554688 -11.785156 7.078125 -12.078125 C 6.609375 -12.378906 6.035156 -12.53125 5.359375 -12.53125 Z M 5.359375 -12.53125 "/></g></g></g></g></g></g><g clip-path="url(#ec95d4d2b5)"><g transform="matrix(1, 0, 0, 1, 505, 450)"><g clip-path="url(#eec1a18849)"><g fill="#201f1f" fill-opacity="1"><g transform="translate(1.022518, 20.449708)"><g><path d="M 9.09375 -1.109375 C 9.25 -1.109375 9.378906 -1.050781 9.484375 -0.9375 C 9.597656 -0.832031 9.65625 -0.707031 9.65625 -0.5625 C 9.65625 -0.394531 9.597656 -0.257812 9.484375 -0.15625 C 9.378906 -0.0507812 9.25 0 9.09375 0 L 1.90625 0 C 1.738281 0 1.59375 -0.046875 1.46875 -0.140625 C 1.34375 -0.234375 1.28125 -0.378906 1.28125 -0.578125 C 1.28125 -0.710938 1.332031 -0.847656 1.4375 -0.984375 L 5.875 -5.875 C 6.570312 -6.632812 7.097656 -7.335938 7.453125 -7.984375 C 7.804688 -8.628906 7.984375 -9.210938 7.984375 -9.734375 C 7.984375 -10.578125 7.726562 -11.253906 7.21875 -11.765625 C 6.707031 -12.273438 6.015625 -12.53125 5.140625 -12.53125 C 4.742188 -12.53125 4.347656 -12.445312 3.953125 -12.28125 C 3.566406 -12.113281 3.222656 -11.894531 2.921875 -11.625 C 2.617188 -11.351562 2.382812 -11.046875 2.21875 -10.703125 C 2.144531 -10.578125 2.066406 -10.488281 1.984375 -10.4375 C 1.898438 -10.382812 1.804688 -10.359375 1.703125 -10.359375 C 1.554688 -10.359375 1.421875 -10.40625 1.296875 -10.5 C 1.179688 -10.601562 1.125 -10.722656 1.125 -10.859375 C 1.125 -10.953125 1.144531 -11.039062 1.1875 -11.125 C 1.238281 -11.21875 1.3125 -11.320312 1.40625 -11.4375 C 1.632812 -11.832031 1.953125 -12.195312 2.359375 -12.53125 C 2.765625 -12.863281 3.21875 -13.128906 3.71875 -13.328125 C 4.226562 -13.523438 4.726562 -13.625 5.21875 -13.625 C 6.039062 -13.625 6.75 -13.46875 7.34375 -13.15625 C 7.9375 -12.84375 8.394531 -12.398438 8.71875 -11.828125 C 9.039062 -11.253906 9.203125 -10.582031 9.203125 -9.8125 C 9.203125 -9.144531 8.992188 -8.414062 8.578125 -7.625 C 8.171875 -6.84375 7.554688 -5.992188 6.734375 -5.078125 L 3 -0.875 L 2.796875 -1.109375 Z M 9.09375 -1.109375 "/></g></g></g><g fill="#201f1f" fill-opacity="1"><g transform="translate(11.647985, 20.449708)"><g><path d="M 5.703125 0.1875 C 4.671875 0.1875 3.8125 -0.117188 3.125 -0.734375 C 2.4375 -1.347656 1.921875 -2.175781 1.578125 -3.21875 C 1.234375 -4.257812 1.0625 -5.425781 1.0625 -6.71875 C 1.0625 -8.019531 1.234375 -9.191406 1.578125 -10.234375 C 1.921875 -11.273438 2.4375 -12.097656 3.125 -12.703125 C 3.8125 -13.316406 4.671875 -13.625 5.703125 -13.625 C 6.742188 -13.625 7.609375 -13.316406 8.296875 -12.703125 C 8.984375 -12.097656 9.5 -11.273438 9.84375 -10.234375 C 10.1875 -9.191406 10.359375 -8.019531 10.359375 -6.71875 C 10.359375 -5.425781 10.1875 -4.257812 9.84375 -3.21875 C 9.5 -2.175781 8.984375 -1.347656 8.296875 -0.734375 C 7.609375 -0.117188 6.742188 0.1875 5.703125 0.1875 Z M 5.703125 -1 C 6.453125 -1 7.078125 -1.234375 7.578125 -1.703125 C 8.085938 -2.179688 8.472656 -2.851562 8.734375 -3.71875 C 9.003906 -4.582031 9.140625 -5.582031 9.140625 -6.71875 C 9.140625 -7.863281 9.003906 -8.867188 8.734375 -9.734375 C 8.472656 -10.597656 8.085938 -11.265625 7.578125 -11.734375 C 7.078125 -12.210938 6.453125 -12.453125 5.703125 -12.453125 C 4.953125 -12.453125 4.320312 -12.210938 3.8125 -11.734375 C 3.3125 -11.265625 2.929688 -10.597656 2.671875 -9.734375 C 2.410156 -8.867188 2.28125 -7.863281 2.28125 -6.71875 C 2.28125 -5.582031 2.410156 -4.582031 2.671875 -3.71875 C 2.929688 -2.851562 3.3125 -2.179688 3.8125 -1.703125 C 4.320312 -1.234375 4.953125 -1 5.703125 -1 Z M 5.703125 -1 "/></g></g></g></g></g></g><g clip-path="url(#d3fa3b1f1d)"><g transform="matrix(1, 0, 0, 1, 631, 450)"><g clip-path="url(#a03ea6d0ae)"><g fill="#201f1f" fill-opacity="1"><g transform="translate(0.841164, 20.449708)"><g><path d="M 9.09375 -1.109375 C 9.25 -1.109375 9.378906 -1.050781 9.484375 -0.9375 C 9.597656 -0.832031 9.65625 -0.707031 9.65625 -0.5625 C 9.65625 -0.394531 9.597656 -0.257812 9.484375 -0.15625 C 9.378906 -0.0507812 9.25 0 9.09375 0 L 1.90625 0 C 1.738281 0 1.59375 -0.046875 1.46875 -0.140625 C 1.34375 -0.234375 1.28125 -0.378906 1.28125 -0.578125 C 1.28125 -0.710938 1.332031 -0.847656 1.4375 -0.984375 L 5.875 -5.875 C 6.570312 -6.632812 7.097656 -7.335938 7.453125 -7.984375 C 7.804688 -8.628906 7.984375 -9.210938 7.984375 -9.734375 C 7.984375 -10.578125 7.726562 -11.253906 7.21875 -11.765625 C 6.707031 -12.273438 6.015625 -12.53125 5.140625 -12.53125 C 4.742188 -12.53125 4.347656 -12.445312 3.953125 -12.28125 C 3.566406 -12.113281 3.222656 -11.894531 2.921875 -11.625 C 2.617188 -11.351562 2.382812 -11.046875 2.21875 -10.703125 C 2.144531 -10.578125 2.066406 -10.488281 1.984375 -10.4375 C 1.898438 -10.382812 1.804688 -10.359375 1.703125 -10.359375 C 1.554688 -10.359375 1.421875 -10.40625 1.296875 -10.5 C 1.179688 -10.601562 1.125 -10.722656 1.125 -10.859375 C 1.125 -10.953125 1.144531 -11.039062 1.1875 -11.125 C 1.238281 -11.21875 1.3125 -11.320312 1.40625 -11.4375 C 1.632812 -11.832031 1.953125 -12.195312 2.359375 -12.53125 C 2.765625 -12.863281 3.21875 -13.128906 3.71875 -13.328125 C 4.226562 -13.523438 4.726562 -13.625 5.21875 -13.625 C 6.039062 -13.625 6.75 -13.46875 7.34375 -13.15625 C 7.9375 -12.84375 8.394531 -12.398438 8.71875 -11.828125 C 9.039062 -11.253906 9.203125 -10.582031 9.203125 -9.8125 C 9.203125 -9.144531 8.992188 -8.414062 8.578125 -7.625 C 8.171875 -6.84375 7.554688 -5.992188 6.734375 -5.078125 L 3 -0.875 L 2.796875 -1.109375 Z M 9.09375 -1.109375 "/></g></g></g><g fill="#201f1f" fill-opacity="1"><g transform="translate(11.466631, 20.449708)"><g><path d="M 4.34375 0 C 4.15625 0 4.003906 -0.0546875 3.890625 -0.171875 C 3.773438 -0.285156 3.71875 -0.421875 3.71875 -0.578125 L 3.71875 -12.125 L 3.9375 -11.9375 L 1.375 -10.234375 C 1.28125 -10.148438 1.175781 -10.109375 1.0625 -10.109375 C 0.90625 -10.109375 0.765625 -10.171875 0.640625 -10.296875 C 0.515625 -10.429688 0.453125 -10.570312 0.453125 -10.71875 C 0.453125 -10.925781 0.554688 -11.085938 0.765625 -11.203125 L 3.96875 -13.328125 C 4.050781 -13.378906 4.132812 -13.410156 4.21875 -13.421875 C 4.300781 -13.441406 4.375 -13.445312 4.4375 -13.4375 C 4.601562 -13.414062 4.726562 -13.347656 4.8125 -13.234375 C 4.90625 -13.128906 4.953125 -13.003906 4.953125 -12.859375 L 4.953125 -0.578125 C 4.953125 -0.421875 4.894531 -0.285156 4.78125 -0.171875 C 4.664062 -0.0546875 4.519531 0 4.34375 0 Z M 4.34375 0 "/></g></g></g></g></g></g><g clip-path="url(#980305fe83)"><g transform="matrix(1, 0, 0, 1, 757, 450)"><g clip-path="url(#762de09628)"><g fill="#201f1f" fill-opacity="1"><g transform="translate(0.659576, 20.449708)"><g><path d="M 9.09375 -1.109375 C 9.25 -1.109375 9.378906 -1.050781 9.484375 -0.9375 C 9.597656 -0.832031 9.65625 -0.707031 9.65625 -0.5625 C 9.65625 -0.394531 9.597656 -0.257812 9.484375 -0.15625 C 9.378906 -0.0507812 9.25 0 9.09375 0 L 1.90625 0 C 1.738281 0 1.59375 -0.046875 1.46875 -0.140625 C 1.34375 -0.234375 1.28125 -0.378906 1.28125 -0.578125 C 1.28125 -0.710938 1.332031 -0.847656 1.4375 -0.984375 L 5.875 -5.875 C 6.570312 -6.632812 7.097656 -7.335938 7.453125 -7.984375 C 7.804688 -8.628906 7.984375 -9.210938 7.984375 -9.734375 C 7.984375 -10.578125 7.726562 -11.253906 7.21875 -11.765625 C 6.707031 -12.273438 6.015625 -12.53125 5.140625 -12.53125 C 4.742188 -12.53125 4.347656 -12.445312 3.953125 -12.28125 C 3.566406 -12.113281 3.222656 -11.894531 2.921875 -11.625 C 2.617188 -11.351562 2.382812 -11.046875 2.21875 -10.703125 C 2.144531 -10.578125 2.066406 -10.488281 1.984375 -10.4375 C 1.898438 -10.382812 1.804688 -10.359375 1.703125 -10.359375 C 1.554688 -10.359375 1.421875 -10.40625 1.296875 -10.5 C 1.179688 -10.601562 1.125 -10.722656 1.125 -10.859375 C 1.125 -10.953125 1.144531 -11.039062 1.1875 -11.125 C 1.238281 -11.21875 1.3125 -11.320312 1.40625 -11.4375 C 1.632812 -11.832031 1.953125 -12.195312 2.359375 -12.53125 C 2.765625 -12.863281 3.21875 -13.128906 3.71875 -13.328125 C 4.226562 -13.523438 4.726562 -13.625 5.21875 -13.625 C 6.039062 -13.625 6.75 -13.46875 7.34375 -13.15625 C 7.9375 -12.84375 8.394531 -12.398438 8.71875 -11.828125 C 9.039062 -11.253906 9.203125 -10.582031 9.203125 -9.8125 C 9.203125 -9.144531 8.992188 -8.414062 8.578125 -7.625 C 8.171875 -6.84375 7.554688 -5.992188 6.734375 -5.078125 L 3 -0.875 L 2.796875 -1.109375 Z M 9.09375 -1.109375 "/></g></g></g><g fill="#201f1f" fill-opacity="1"><g transform="translate(11.285043, 20.449708)"><g><path d="M 9.09375 -1.109375 C 9.25 -1.109375 9.378906 -1.050781 9.484375 -0.9375 C 9.597656 -0.832031 9.65625 -0.707031 9.65625 -0.5625 C 9.65625 -0.394531 9.597656 -0.257812 9.484375 -0.15625 C 9.378906 -0.0507812 9.25 0 9.09375 0 L 1.90625 0 C 1.738281 0 1.59375 -0.046875 1.46875 -0.140625 C 1.34375 -0.234375 1.28125 -0.378906 1.28125 -0.578125 C 1.28125 -0.710938 1.332031 -0.847656 1.4375 -0.984375 L 5.875 -5.875 C 6.570312 -6.632812 7.097656 -7.335938 7.453125 -7.984375 C 7.804688 -8.628906 7.984375 -9.210938 7.984375 -9.734375 C 7.984375 -10.578125 7.726562 -11.253906 7.21875 -11.765625 C 6.707031 -12.273438 6.015625 -12.53125 5.140625 -12.53125 C 4.742188 -12.53125 4.347656 -12.445312 3.953125 -12.28125 C 3.566406 -12.113281 3.222656 -11.894531 2.921875 -11.625 C 2.617188 -11.351562 2.382812 -11.046875 2.21875 -10.703125 C 2.144531 -10.578125 2.066406 -10.488281 1.984375 -10.4375 C 1.898438 -10.382812 1.804688 -10.359375 1.703125 -10.359375 C 1.554688 -10.359375 1.421875 -10.40625 1.296875 -10.5 C 1.179688 -10.601562 1.125 -10.722656 1.125 -10.859375 C 1.125 -10.953125 1.144531 -11.039062 1.1875 -11.125 C 1.238281 -11.21875 1.3125 -11.320312 1.40625 -11.4375 C 1.632812 -11.832031 1.953125 -12.195312 2.359375 -12.53125 C 2.765625 -12.863281 3.21875 -13.128906 3.71875 -13.328125 C 4.226562 -13.523438 4.726562 -13.625 5.21875 -13.625 C 6.039062 -13.625 6.75 -13.46875 7.34375 -13.15625 C 7.9375 -12.84375 8.394531 -12.398438 8.71875 -11.828125 C 9.039062 -11.253906 9.203125 -10.582031 9.203125 -9.8125 C 9.203125 -9.144531 8.992188 -8.414062 8.578125 -7.625 C 8.171875 -6.84375 7.554688 -5.992188 6.734375 -5.078125 L 3 -0.875 L 2.796875 -1.109375 Z M 9.09375 -1.109375 "/></g></g></g></g></g></g><g clip-path="url(#518918a897)"><g transform="matrix(1, 0, 0, 1, 2, 600)"><g clip-path="url(#869234912c)"><g fill="#201f1f" fill-opacity="1"><g transform="translate(0.748298, 20.207826)"><g><path d="M 9.09375 -1.109375 C 9.25 -1.109375 9.378906 -1.050781 9.484375 -0.9375 C 9.597656 -0.832031 9.65625 -0.707031 9.65625 -0.5625 C 9.65625 -0.394531 9.597656 -0.257812 9.484375 -0.15625 C 9.378906 -0.0507812 9.25 0 9.09375 0 L 1.90625 0 C 1.738281 0 1.59375 -0.046875 1.46875 -0.140625 C 1.34375 -0.234375 1.28125 -0.378906 1.28125 -0.578125 C 1.28125 -0.710938 1.332031 -0.847656 1.4375 -0.984375 L 5.875 -5.875 C 6.570312 -6.632812 7.097656 -7.335938 7.453125 -7.984375 C 7.804688 -8.628906 7.984375 -9.210938 7.984375 -9.734375 C 7.984375 -10.578125 7.726562 -11.253906 7.21875 -11.765625 C 6.707031 -12.273438 6.015625 -12.53125 5.140625 -12.53125 C 4.742188 -12.53125 4.347656 -12.445312 3.953125 -12.28125 C 3.566406 -12.113281 3.222656 -11.894531 2.921875 -11.625 C 2.617188 -11.351562 2.382812 -11.046875 2.21875 -10.703125 C 2.144531 -10.578125 2.066406 -10.488281 1.984375 -10.4375 C 1.898438 -10.382812 1.804688 -10.359375 1.703125 -10.359375 C 1.554688 -10.359375 1.421875 -10.40625 1.296875 -10.5 C 1.179688 -10.601562 1.125 -10.722656 1.125 -10.859375 C 1.125 -10.953125 1.144531 -11.039062 1.1875 -11.125 C 1.238281 -11.21875 1.3125 -11.320312 1.40625 -11.4375 C 1.632812 -11.832031 1.953125 -12.195312 2.359375 -12.53125 C 2.765625 -12.863281 3.21875 -13.128906 3.71875 -13.328125 C 4.226562 -13.523438 4.726562 -13.625 5.21875 -13.625 C 6.039062 -13.625 6.75 -13.46875 7.34375 -13.15625 C 7.9375 -12.84375 8.394531 -12.398438 8.71875 -11.828125 C 9.039062 -11.253906 9.203125 -10.582031 9.203125 -9.8125 C 9.203125 -9.144531 8.992188 -8.414062 8.578125 -7.625 C 8.171875 -6.84375 7.554688 -5.992188 6.734375 -5.078125 L 3 -0.875 L 2.796875 -1.109375 Z M 9.09375 -1.109375 "/></g></g></g><g fill="#201f1f" fill-opacity="1"><g transform="translate(11.373766, 20.207826)"><g><path d="M 1.703125 -1.96875 C 1.765625 -1.96875 1.832031 -1.957031 1.90625 -1.9375 C 1.976562 -1.914062 2.066406 -1.859375 2.171875 -1.765625 C 2.441406 -1.484375 2.757812 -1.269531 3.125 -1.125 C 3.5 -0.976562 3.921875 -0.90625 4.390625 -0.90625 C 5.015625 -0.90625 5.585938 -1.046875 6.109375 -1.328125 C 6.628906 -1.609375 7.039062 -2 7.34375 -2.5 C 7.65625 -3.007812 7.8125 -3.585938 7.8125 -4.234375 C 7.8125 -4.984375 7.644531 -5.582031 7.3125 -6.03125 C 6.988281 -6.488281 6.570312 -6.828125 6.0625 -7.046875 C 5.5625 -7.273438 5.050781 -7.390625 4.53125 -7.390625 C 4.382812 -7.390625 4.242188 -7.378906 4.109375 -7.359375 C 3.984375 -7.335938 3.859375 -7.3125 3.734375 -7.28125 C 3.617188 -7.257812 3.53125 -7.25 3.46875 -7.25 C 3.300781 -7.25 3.171875 -7.300781 3.078125 -7.40625 C 2.992188 -7.519531 2.953125 -7.660156 2.953125 -7.828125 C 2.953125 -7.921875 2.96875 -8 3 -8.0625 C 3.039062 -8.132812 3.097656 -8.21875 3.171875 -8.3125 L 7.0625 -12.546875 L 7.296875 -12.234375 L 1.484375 -12.234375 C 1.328125 -12.234375 1.191406 -12.285156 1.078125 -12.390625 C 0.972656 -12.503906 0.921875 -12.640625 0.921875 -12.796875 C 0.921875 -12.953125 0.972656 -13.078125 1.078125 -13.171875 C 1.191406 -13.273438 1.328125 -13.328125 1.484375 -13.328125 L 7.921875 -13.328125 C 8.140625 -13.328125 8.289062 -13.257812 8.375 -13.125 C 8.46875 -13 8.515625 -12.867188 8.515625 -12.734375 C 8.515625 -12.660156 8.492188 -12.585938 8.453125 -12.515625 C 8.421875 -12.453125 8.375 -12.378906 8.3125 -12.296875 L 4.40625 -8.0625 L 3.984375 -8.3125 C 4.023438 -8.34375 4.15625 -8.378906 4.375 -8.421875 C 4.601562 -8.472656 4.78125 -8.5 4.90625 -8.5 C 5.613281 -8.5 6.273438 -8.332031 6.890625 -8 C 7.515625 -7.664062 8.019531 -7.1875 8.40625 -6.5625 C 8.800781 -5.945312 9 -5.1875 9 -4.28125 C 9 -3.382812 8.785156 -2.597656 8.359375 -1.921875 C 7.941406 -1.253906 7.375 -0.734375 6.65625 -0.359375 C 5.9375 0.00390625 5.144531 0.1875 4.28125 0.1875 C 3.75 0.1875 3.226562 0.0976562 2.71875 -0.078125 C 2.207031 -0.253906 1.757812 -0.519531 1.375 -0.875 C 1.289062 -0.957031 1.226562 -1.035156 1.1875 -1.109375 C 1.144531 -1.191406 1.125 -1.269531 1.125 -1.34375 C 1.125 -1.5 1.175781 -1.640625 1.28125 -1.765625 C 1.394531 -1.898438 1.535156 -1.96875 1.703125 -1.96875 Z M 1.703125 -1.96875 "/></g></g></g></g></g></g><g clip-path="url(#baef492167)"><g transform="matrix(1, 0, 0, 1, 128, 600)"><g clip-path="url(#5c62c0fa82)"><g fill="#201f1f" fill-opacity="1"><g transform="translate(0.566857, 20.207826)"><g><path d="M 9.09375 -1.109375 C 9.25 -1.109375 9.378906 -1.050781 9.484375 -0.9375 C 9.597656 -0.832031 9.65625 -0.707031 9.65625 -0.5625 C 9.65625 -0.394531 9.597656 -0.257812 9.484375 -0.15625 C 9.378906 -0.0507812 9.25 0 9.09375 0 L 1.90625 0 C 1.738281 0 1.59375 -0.046875 1.46875 -0.140625 C 1.34375 -0.234375 1.28125 -0.378906 1.28125 -0.578125 C 1.28125 -0.710938 1.332031 -0.847656 1.4375 -0.984375 L 5.875 -5.875 C 6.570312 -6.632812 7.097656 -7.335938 7.453125 -7.984375 C 7.804688 -8.628906 7.984375 -9.210938 7.984375 -9.734375 C 7.984375 -10.578125 7.726562 -11.253906 7.21875 -11.765625 C 6.707031 -12.273438 6.015625 -12.53125 5.140625 -12.53125 C 4.742188 -12.53125 4.347656 -12.445312 3.953125 -12.28125 C 3.566406 -12.113281 3.222656 -11.894531 2.921875 -11.625 C 2.617188 -11.351562 2.382812 -11.046875 2.21875 -10.703125 C 2.144531 -10.578125 2.066406 -10.488281 1.984375 -10.4375 C 1.898438 -10.382812 1.804688 -10.359375 1.703125 -10.359375 C 1.554688 -10.359375 1.421875 -10.40625 1.296875 -10.5 C 1.179688 -10.601562 1.125 -10.722656 1.125 -10.859375 C 1.125 -10.953125 1.144531 -11.039062 1.1875 -11.125 C 1.238281 -11.21875 1.3125 -11.320312 1.40625 -11.4375 C 1.632812 -11.832031 1.953125 -12.195312 2.359375 -12.53125 C 2.765625 -12.863281 3.21875 -13.128906 3.71875 -13.328125 C 4.226562 -13.523438 4.726562 -13.625 5.21875 -13.625 C 6.039062 -13.625 6.75 -13.46875 7.34375 -13.15625 C 7.9375 -12.84375 8.394531 -12.398438 8.71875 -11.828125 C 9.039062 -11.253906 9.203125 -10.582031 9.203125 -9.8125 C 9.203125 -9.144531 8.992188 -8.414062 8.578125 -7.625 C 8.171875 -6.84375 7.554688 -5.992188 6.734375 -5.078125 L 3 -0.875 L 2.796875 -1.109375 Z M 9.09375 -1.109375 "/></g></g></g><g fill="#201f1f" fill-opacity="1"><g transform="translate(11.192325, 20.207826)"><g><path d="M 7.046875 0 C 6.878906 0 6.742188 -0.0546875 6.640625 -0.171875 C 6.535156 -0.285156 6.484375 -0.421875 6.484375 -0.578125 L 6.484375 -11.84375 L 6.734375 -11.6875 L 1.6875 -5.015625 L 1.625 -5.21875 L 9 -5.21875 C 9.15625 -5.21875 9.285156 -5.164062 9.390625 -5.0625 C 9.503906 -4.957031 9.5625 -4.832031 9.5625 -4.6875 C 9.5625 -4.53125 9.503906 -4.398438 9.390625 -4.296875 C 9.285156 -4.191406 9.15625 -4.140625 9 -4.140625 L 0.84375 -4.140625 C 0.6875 -4.140625 0.550781 -4.203125 0.4375 -4.328125 C 0.320312 -4.453125 0.265625 -4.585938 0.265625 -4.734375 C 0.265625 -4.878906 0.3125 -5.007812 0.40625 -5.125 L 6.578125 -13.203125 C 6.640625 -13.285156 6.71875 -13.34375 6.8125 -13.375 C 6.914062 -13.414062 7 -13.4375 7.0625 -13.4375 C 7.226562 -13.4375 7.363281 -13.375 7.46875 -13.25 C 7.582031 -13.132812 7.640625 -13.003906 7.640625 -12.859375 L 7.640625 -0.578125 C 7.640625 -0.421875 7.582031 -0.285156 7.46875 -0.171875 C 7.351562 -0.0546875 7.210938 0 7.046875 0 Z M 7.046875 0 "/></g></g></g></g></g></g><g clip-path="url(#3d8a217410)"><g transform="matrix(1, 0, 0, 1, 254, 600)"><g clip-path="url(#b312998ea6)"><g fill="#201f1f" fill-opacity="1"><g transform="translate(0.385459, 20.207826)"><g><path d="M 9.09375 -1.109375 C 9.25 -1.109375 9.378906 -1.050781 9.484375 -0.9375 C 9.597656 -0.832031 9.65625 -0.707031 9.65625 -0.5625 C 9.65625 -0.394531 9.597656 -0.257812 9.484375 -0.15625 C 9.378906 -0.0507812 9.25 0 9.09375 0 L 1.90625 0 C 1.738281 0 1.59375 -0.046875 1.46875 -0.140625 C 1.34375 -0.234375 1.28125 -0.378906 1.28125 -0.578125 C 1.28125 -0.710938 1.332031 -0.847656 1.4375 -0.984375 L 5.875 -5.875 C 6.570312 -6.632812 7.097656 -7.335938 7.453125 -7.984375 C 7.804688 -8.628906 7.984375 -9.210938 7.984375 -9.734375 C 7.984375 -10.578125 7.726562 -11.253906 7.21875 -11.765625 C 6.707031 -12.273438 6.015625 -12.53125 5.140625 -12.53125 C 4.742188 -12.53125 4.347656 -12.445312 3.953125 -12.28125 C 3.566406 -12.113281 3.222656 -11.894531 2.921875 -11.625 C 2.617188 -11.351562 2.382812 -11.046875 2.21875 -10.703125 C 2.144531 -10.578125 2.066406 -10.488281 1.984375 -10.4375 C 1.898438 -10.382812 1.804688 -10.359375 1.703125 -10.359375 C 1.554688 -10.359375 1.421875 -10.40625 1.296875 -10.5 C 1.179688 -10.601562 1.125 -10.722656 1.125 -10.859375 C 1.125 -10.953125 1.144531 -11.039062 1.1875 -11.125 C 1.238281 -11.21875 1.3125 -11.320312 1.40625 -11.4375 C 1.632812 -11.832031 1.953125 -12.195312 2.359375 -12.53125 C 2.765625 -12.863281 3.21875 -13.128906 3.71875 -13.328125 C 4.226562 -13.523438 4.726562 -13.625 5.21875 -13.625 C 6.039062 -13.625 6.75 -13.46875 7.34375 -13.15625 C 7.9375 -12.84375 8.394531 -12.398438 8.71875 -11.828125 C 9.039062 -11.253906 9.203125 -10.582031 9.203125 -9.8125 C 9.203125 -9.144531 8.992188 -8.414062 8.578125 -7.625 C 8.171875 -6.84375 7.554688 -5.992188 6.734375 -5.078125 L 3 -0.875 L 2.796875 -1.109375 Z M 9.09375 -1.109375 "/></g></g></g><g fill="#201f1f" fill-opacity="1"><g transform="translate(11.010927, 20.207826)"><g><path d="M 4.484375 0.03125 C 3.960938 0.03125 3.4375 -0.0507812 2.90625 -0.21875 C 2.375 -0.394531 1.90625 -0.65625 1.5 -1 C 1.414062 -1.0625 1.351562 -1.132812 1.3125 -1.21875 C 1.269531 -1.3125 1.25 -1.40625 1.25 -1.5 C 1.25 -1.625 1.296875 -1.742188 1.390625 -1.859375 C 1.492188 -1.984375 1.628906 -2.046875 1.796875 -2.046875 C 1.941406 -2.046875 2.082031 -1.988281 2.21875 -1.875 C 2.550781 -1.625 2.910156 -1.425781 3.296875 -1.28125 C 3.691406 -1.144531 4.085938 -1.078125 4.484375 -1.078125 C 5.242188 -1.078125 5.90625 -1.21875 6.46875 -1.5 C 7.03125 -1.789062 7.460938 -2.203125 7.765625 -2.734375 C 8.078125 -3.265625 8.234375 -3.878906 8.234375 -4.578125 C 8.234375 -5.234375 8.09375 -5.800781 7.8125 -6.28125 C 7.53125 -6.757812 7.128906 -7.132812 6.609375 -7.40625 C 6.085938 -7.6875 5.476562 -7.828125 4.78125 -7.828125 C 4.320312 -7.828125 3.898438 -7.753906 3.515625 -7.609375 C 3.140625 -7.472656 2.8125 -7.332031 2.53125 -7.1875 C 2.257812 -7.039062 2.039062 -6.96875 1.875 -6.96875 C 1.726562 -6.96875 1.601562 -7.003906 1.5 -7.078125 C 1.40625 -7.148438 1.34375 -7.242188 1.3125 -7.359375 C 1.28125 -7.484375 1.28125 -7.609375 1.3125 -7.734375 L 2.125 -12.859375 C 2.144531 -12.972656 2.207031 -13.078125 2.3125 -13.171875 C 2.414062 -13.265625 2.550781 -13.3125 2.71875 -13.3125 L 8.5 -13.3125 C 8.65625 -13.3125 8.785156 -13.253906 8.890625 -13.140625 C 9.003906 -13.035156 9.0625 -12.910156 9.0625 -12.765625 C 9.0625 -12.597656 9.003906 -12.457031 8.890625 -12.34375 C 8.785156 -12.238281 8.65625 -12.1875 8.5 -12.1875 L 3 -12.1875 L 3.171875 -12.359375 L 2.375 -7.8125 L 2.03125 -8.0625 C 2.195312 -8.1875 2.4375 -8.3125 2.75 -8.4375 C 3.0625 -8.570312 3.410156 -8.6875 3.796875 -8.78125 C 4.191406 -8.875 4.609375 -8.921875 5.046875 -8.921875 C 5.878906 -8.921875 6.617188 -8.738281 7.265625 -8.375 C 7.921875 -8.007812 8.4375 -7.503906 8.8125 -6.859375 C 9.1875 -6.210938 9.375 -5.46875 9.375 -4.625 C 9.375 -3.6875 9.171875 -2.867188 8.765625 -2.171875 C 8.367188 -1.472656 7.804688 -0.929688 7.078125 -0.546875 C 6.347656 -0.160156 5.484375 0.03125 4.484375 0.03125 Z M 4.484375 0.03125 "/></g></g></g></g></g></g><g clip-path="url(#6fb3a87a25)"><g transform="matrix(1, 0, 0, 1, 380, 600)"><g clip-path="url(#91bbdb3cd9)"><g fill="#201f1f" fill-opacity="1"><g transform="translate(0.203988, 20.207826)"><g><path d="M 9.09375 -1.109375 C 9.25 -1.109375 9.378906 -1.050781 9.484375 -0.9375 C 9.597656 -0.832031 9.65625 -0.707031 9.65625 -0.5625 C 9.65625 -0.394531 9.597656 -0.257812 9.484375 -0.15625 C 9.378906 -0.0507812 9.25 0 9.09375 0 L 1.90625 0 C 1.738281 0 1.59375 -0.046875 1.46875 -0.140625 C 1.34375 -0.234375 1.28125 -0.378906 1.28125 -0.578125 C 1.28125 -0.710938 1.332031 -0.847656 1.4375 -0.984375 L 5.875 -5.875 C 6.570312 -6.632812 7.097656 -7.335938 7.453125 -7.984375 C 7.804688 -8.628906 7.984375 -9.210938 7.984375 -9.734375 C 7.984375 -10.578125 7.726562 -11.253906 7.21875 -11.765625 C 6.707031 -12.273438 6.015625 -12.53125 5.140625 -12.53125 C 4.742188 -12.53125 4.347656 -12.445312 3.953125 -12.28125 C 3.566406 -12.113281 3.222656 -11.894531 2.921875 -11.625 C 2.617188 -11.351562 2.382812 -11.046875 2.21875 -10.703125 C 2.144531 -10.578125 2.066406 -10.488281 1.984375 -10.4375 C 1.898438 -10.382812 1.804688 -10.359375 1.703125 -10.359375 C 1.554688 -10.359375 1.421875 -10.40625 1.296875 -10.5 C 1.179688 -10.601562 1.125 -10.722656 1.125 -10.859375 C 1.125 -10.953125 1.144531 -11.039062 1.1875 -11.125 C 1.238281 -11.21875 1.3125 -11.320312 1.40625 -11.4375 C 1.632812 -11.832031 1.953125 -12.195312 2.359375 -12.53125 C 2.765625 -12.863281 3.21875 -13.128906 3.71875 -13.328125 C 4.226562 -13.523438 4.726562 -13.625 5.21875 -13.625 C 6.039062 -13.625 6.75 -13.46875 7.34375 -13.15625 C 7.9375 -12.84375 8.394531 -12.398438 8.71875 -11.828125 C 9.039062 -11.253906 9.203125 -10.582031 9.203125 -9.8125 C 9.203125 -9.144531 8.992188 -8.414062 8.578125 -7.625 C 8.171875 -6.84375 7.554688 -5.992188 6.734375 -5.078125 L 3 -0.875 L 2.796875 -1.109375 Z M 9.09375 -1.109375 "/></g></g></g><g fill="#201f1f" fill-opacity="1"><g transform="translate(10.829456, 20.207826)"><g><path d="M 5.5 0.1875 C 4.757812 0.1875 4.109375 0.0546875 3.546875 -0.203125 C 2.992188 -0.472656 2.535156 -0.832031 2.171875 -1.28125 C 1.804688 -1.738281 1.535156 -2.253906 1.359375 -2.828125 C 1.191406 -3.410156 1.109375 -4.003906 1.109375 -4.609375 C 1.109375 -5.222656 1.1875 -5.882812 1.34375 -6.59375 C 1.5 -7.300781 1.734375 -8.019531 2.046875 -8.75 C 2.367188 -9.476562 2.765625 -10.164062 3.234375 -10.8125 C 3.703125 -11.46875 4.242188 -12.054688 4.859375 -12.578125 C 5.484375 -13.097656 6.1875 -13.503906 6.96875 -13.796875 C 7.050781 -13.816406 7.125 -13.828125 7.1875 -13.828125 C 7.351562 -13.828125 7.5 -13.78125 7.625 -13.6875 C 7.75 -13.601562 7.8125 -13.453125 7.8125 -13.234375 C 7.8125 -13.109375 7.769531 -13 7.6875 -12.90625 C 7.601562 -12.8125 7.488281 -12.738281 7.34375 -12.6875 C 6.8125 -12.457031 6.28125 -12.128906 5.75 -11.703125 C 5.226562 -11.285156 4.742188 -10.800781 4.296875 -10.25 C 3.847656 -9.695312 3.46875 -9.101562 3.15625 -8.46875 C 2.84375 -7.832031 2.625 -7.191406 2.5 -6.546875 L 2.078125 -6.296875 C 2.304688 -6.710938 2.601562 -7.082031 2.96875 -7.40625 C 3.332031 -7.738281 3.75 -8.003906 4.21875 -8.203125 C 4.695312 -8.398438 5.207031 -8.5 5.75 -8.5 C 6.332031 -8.5 6.863281 -8.375 7.34375 -8.125 C 7.832031 -7.882812 8.253906 -7.554688 8.609375 -7.140625 C 8.960938 -6.734375 9.238281 -6.265625 9.4375 -5.734375 C 9.632812 -5.210938 9.734375 -4.671875 9.734375 -4.109375 C 9.734375 -3.347656 9.550781 -2.640625 9.1875 -1.984375 C 8.820312 -1.335938 8.320312 -0.8125 7.6875 -0.40625 C 7.050781 -0.0078125 6.320312 0.1875 5.5 0.1875 Z M 5.484375 -0.921875 C 6.078125 -0.921875 6.601562 -1.054688 7.0625 -1.328125 C 7.519531 -1.597656 7.878906 -1.972656 8.140625 -2.453125 C 8.398438 -2.929688 8.53125 -3.484375 8.53125 -4.109375 C 8.53125 -4.679688 8.414062 -5.210938 8.1875 -5.703125 C 7.96875 -6.203125 7.640625 -6.609375 7.203125 -6.921875 C 6.765625 -7.234375 6.21875 -7.390625 5.5625 -7.390625 C 4.882812 -7.390625 4.296875 -7.234375 3.796875 -6.921875 C 3.304688 -6.617188 2.929688 -6.210938 2.671875 -5.703125 C 2.410156 -5.203125 2.28125 -4.648438 2.28125 -4.046875 C 2.28125 -3.515625 2.40625 -3.003906 2.65625 -2.515625 C 2.914062 -2.035156 3.285156 -1.648438 3.765625 -1.359375 C 4.242188 -1.066406 4.816406 -0.921875 5.484375 -0.921875 Z M 5.484375 -0.921875 "/></g></g></g></g></g></g><g clip-path="url(#ded6529f96)"><g transform="matrix(1, 0, 0, 1, 505, 600)"><g clip-path="url(#4808e0c45a)"><g fill="#201f1f" fill-opacity="1"><g transform="translate(1.022518, 20.207826)"><g><path d="M 9.09375 -1.109375 C 9.25 -1.109375 9.378906 -1.050781 9.484375 -0.9375 C 9.597656 -0.832031 9.65625 -0.707031 9.65625 -0.5625 C 9.65625 -0.394531 9.597656 -0.257812 9.484375 -0.15625 C 9.378906 -0.0507812 9.25 0 9.09375 0 L 1.90625 0 C 1.738281 0 1.59375 -0.046875 1.46875 -0.140625 C 1.34375 -0.234375 1.28125 -0.378906 1.28125 -0.578125 C 1.28125 -0.710938 1.332031 -0.847656 1.4375 -0.984375 L 5.875 -5.875 C 6.570312 -6.632812 7.097656 -7.335938 7.453125 -7.984375 C 7.804688 -8.628906 7.984375 -9.210938 7.984375 -9.734375 C 7.984375 -10.578125 7.726562 -11.253906 7.21875 -11.765625 C 6.707031 -12.273438 6.015625 -12.53125 5.140625 -12.53125 C 4.742188 -12.53125 4.347656 -12.445312 3.953125 -12.28125 C 3.566406 -12.113281 3.222656 -11.894531 2.921875 -11.625 C 2.617188 -11.351562 2.382812 -11.046875 2.21875 -10.703125 C 2.144531 -10.578125 2.066406 -10.488281 1.984375 -10.4375 C 1.898438 -10.382812 1.804688 -10.359375 1.703125 -10.359375 C 1.554688 -10.359375 1.421875 -10.40625 1.296875 -10.5 C 1.179688 -10.601562 1.125 -10.722656 1.125 -10.859375 C 1.125 -10.953125 1.144531 -11.039062 1.1875 -11.125 C 1.238281 -11.21875 1.3125 -11.320312 1.40625 -11.4375 C 1.632812 -11.832031 1.953125 -12.195312 2.359375 -12.53125 C 2.765625 -12.863281 3.21875 -13.128906 3.71875 -13.328125 C 4.226562 -13.523438 4.726562 -13.625 5.21875 -13.625 C 6.039062 -13.625 6.75 -13.46875 7.34375 -13.15625 C 7.9375 -12.84375 8.394531 -12.398438 8.71875 -11.828125 C 9.039062 -11.253906 9.203125 -10.582031 9.203125 -9.8125 C 9.203125 -9.144531 8.992188 -8.414062 8.578125 -7.625 C 8.171875 -6.84375 7.554688 -5.992188 6.734375 -5.078125 L 3 -0.875 L 2.796875 -1.109375 Z M 9.09375 -1.109375 "/></g></g></g><g fill="#201f1f" fill-opacity="1"><g transform="translate(11.647985, 20.207826)"><g><path d="M 3.421875 0.0625 C 3.265625 0.0625 3.117188 0.0078125 2.984375 -0.09375 C 2.859375 -0.195312 2.796875 -0.328125 2.796875 -0.484375 C 2.796875 -0.566406 2.816406 -0.660156 2.859375 -0.765625 L 7.96875 -12.484375 L 8.171875 -12.21875 L 1.6875 -12.21875 C 1.53125 -12.21875 1.394531 -12.269531 1.28125 -12.375 C 1.175781 -12.488281 1.125 -12.625 1.125 -12.78125 C 1.125 -12.945312 1.175781 -13.078125 1.28125 -13.171875 C 1.394531 -13.273438 1.53125 -13.328125 1.6875 -13.328125 L 8.734375 -13.328125 C 8.921875 -13.328125 9.054688 -13.273438 9.140625 -13.171875 C 9.234375 -13.078125 9.28125 -12.953125 9.28125 -12.796875 C 9.28125 -12.691406 9.265625 -12.597656 9.234375 -12.515625 L 3.953125 -0.328125 C 3.910156 -0.210938 3.835938 -0.117188 3.734375 -0.046875 C 3.640625 0.0234375 3.535156 0.0625 3.421875 0.0625 Z M 3.421875 0.0625 "/></g></g></g></g></g></g><g clip-path="url(#e649f16cc2)"><g transform="matrix(1, 0, 0, 1, 631, 600)"><g clip-path="url(#d55053122f)"><g fill="#201f1f" fill-opacity="1"><g transform="translate(0.841164, 20.207826)"><g><path d="M 9.09375 -1.109375 C 9.25 -1.109375 9.378906 -1.050781 9.484375 -0.9375 C 9.597656 -0.832031 9.65625 -0.707031 9.65625 -0.5625 C 9.65625 -0.394531 9.597656 -0.257812 9.484375 -0.15625 C 9.378906 -0.0507812 9.25 0 9.09375 0 L 1.90625 0 C 1.738281 0 1.59375 -0.046875 1.46875 -0.140625 C 1.34375 -0.234375 1.28125 -0.378906 1.28125 -0.578125 C 1.28125 -0.710938 1.332031 -0.847656 1.4375 -0.984375 L 5.875 -5.875 C 6.570312 -6.632812 7.097656 -7.335938 7.453125 -7.984375 C 7.804688 -8.628906 7.984375 -9.210938 7.984375 -9.734375 C 7.984375 -10.578125 7.726562 -11.253906 7.21875 -11.765625 C 6.707031 -12.273438 6.015625 -12.53125 5.140625 -12.53125 C 4.742188 -12.53125 4.347656 -12.445312 3.953125 -12.28125 C 3.566406 -12.113281 3.222656 -11.894531 2.921875 -11.625 C 2.617188 -11.351562 2.382812 -11.046875 2.21875 -10.703125 C 2.144531 -10.578125 2.066406 -10.488281 1.984375 -10.4375 C 1.898438 -10.382812 1.804688 -10.359375 1.703125 -10.359375 C 1.554688 -10.359375 1.421875 -10.40625 1.296875 -10.5 C 1.179688 -10.601562 1.125 -10.722656 1.125 -10.859375 C 1.125 -10.953125 1.144531 -11.039062 1.1875 -11.125 C 1.238281 -11.21875 1.3125 -11.320312 1.40625 -11.4375 C 1.632812 -11.832031 1.953125 -12.195312 2.359375 -12.53125 C 2.765625 -12.863281 3.21875 -13.128906 3.71875 -13.328125 C 4.226562 -13.523438 4.726562 -13.625 5.21875 -13.625 C 6.039062 -13.625 6.75 -13.46875 7.34375 -13.15625 C 7.9375 -12.84375 8.394531 -12.398438 8.71875 -11.828125 C 9.039062 -11.253906 9.203125 -10.582031 9.203125 -9.8125 C 9.203125 -9.144531 8.992188 -8.414062 8.578125 -7.625 C 8.171875 -6.84375 7.554688 -5.992188 6.734375 -5.078125 L 3 -0.875 L 2.796875 -1.109375 Z M 9.09375 -1.109375 "/></g></g></g><g fill="#201f1f" fill-opacity="1"><g transform="translate(11.466631, 20.207826)"><g><path d="M 6.984375 -6.75 L 6.921875 -6.921875 C 7.359375 -6.753906 7.753906 -6.507812 8.109375 -6.1875 C 8.472656 -5.863281 8.765625 -5.476562 8.984375 -5.03125 C 9.203125 -4.59375 9.3125 -4.113281 9.3125 -3.59375 C 9.3125 -2.894531 9.128906 -2.265625 8.765625 -1.703125 C 8.398438 -1.140625 7.898438 -0.691406 7.265625 -0.359375 C 6.640625 -0.0234375 5.945312 0.140625 5.1875 0.140625 C 4.40625 0.140625 3.703125 -0.0234375 3.078125 -0.359375 C 2.460938 -0.691406 1.972656 -1.140625 1.609375 -1.703125 C 1.242188 -2.265625 1.0625 -2.894531 1.0625 -3.59375 C 1.0625 -4.15625 1.171875 -4.65625 1.390625 -5.09375 C 1.617188 -5.53125 1.914062 -5.898438 2.28125 -6.203125 C 2.644531 -6.515625 3.023438 -6.753906 3.421875 -6.921875 L 3.359375 -6.734375 C 3.015625 -6.898438 2.691406 -7.125 2.390625 -7.40625 C 2.085938 -7.695312 1.835938 -8.046875 1.640625 -8.453125 C 1.453125 -8.859375 1.359375 -9.300781 1.359375 -9.78125 C 1.359375 -10.476562 1.523438 -11.097656 1.859375 -11.640625 C 2.203125 -12.191406 2.664062 -12.628906 3.25 -12.953125 C 3.832031 -13.273438 4.476562 -13.4375 5.1875 -13.4375 C 5.882812 -13.4375 6.515625 -13.273438 7.078125 -12.953125 C 7.648438 -12.628906 8.101562 -12.191406 8.4375 -11.640625 C 8.78125 -11.097656 8.953125 -10.476562 8.953125 -9.78125 C 8.953125 -9.28125 8.859375 -8.832031 8.671875 -8.4375 C 8.484375 -8.039062 8.234375 -7.695312 7.921875 -7.40625 C 7.617188 -7.125 7.304688 -6.90625 6.984375 -6.75 Z M 2.546875 -9.78125 C 2.546875 -9.269531 2.664062 -8.820312 2.90625 -8.4375 C 3.15625 -8.050781 3.476562 -7.75 3.875 -7.53125 C 4.269531 -7.320312 4.707031 -7.21875 5.1875 -7.21875 C 5.644531 -7.21875 6.070312 -7.320312 6.46875 -7.53125 C 6.863281 -7.75 7.175781 -8.050781 7.40625 -8.4375 C 7.644531 -8.820312 7.765625 -9.269531 7.765625 -9.78125 C 7.765625 -10.539062 7.519531 -11.15625 7.03125 -11.625 C 6.550781 -12.101562 5.9375 -12.34375 5.1875 -12.34375 C 4.40625 -12.34375 3.769531 -12.101562 3.28125 -11.625 C 2.789062 -11.15625 2.546875 -10.539062 2.546875 -9.78125 Z M 5.1875 -0.953125 C 6.050781 -0.953125 6.753906 -1.203125 7.296875 -1.703125 C 7.835938 -2.203125 8.109375 -2.832031 8.109375 -3.59375 C 8.109375 -4.101562 7.972656 -4.5625 7.703125 -4.96875 C 7.441406 -5.375 7.085938 -5.691406 6.640625 -5.921875 C 6.191406 -6.160156 5.707031 -6.28125 5.1875 -6.28125 C 4.65625 -6.28125 4.164062 -6.160156 3.71875 -5.921875 C 3.269531 -5.691406 2.910156 -5.375 2.640625 -4.96875 C 2.378906 -4.5625 2.25 -4.101562 2.25 -3.59375 C 2.25 -2.832031 2.515625 -2.203125 3.046875 -1.703125 C 3.585938 -1.203125 4.300781 -0.953125 5.1875 -0.953125 Z M 5.1875 -0.953125 "/></g></g></g></g></g></g><g clip-path="url(#f9bd484e1d)"><g transform="matrix(1, 0, 0, 1, 757, 600)"><g clip-path="url(#3f99cd4811)"><g fill="#201f1f" fill-opacity="1"><g transform="translate(0.659576, 20.207826)"><g><path d="M 9.09375 -1.109375 C 9.25 -1.109375 9.378906 -1.050781 9.484375 -0.9375 C 9.597656 -0.832031 9.65625 -0.707031 9.65625 -0.5625 C 9.65625 -0.394531 9.597656 -0.257812 9.484375 -0.15625 C 9.378906 -0.0507812 9.25 0 9.09375 0 L 1.90625 0 C 1.738281 0 1.59375 -0.046875 1.46875 -0.140625 C 1.34375 -0.234375 1.28125 -0.378906 1.28125 -0.578125 C 1.28125 -0.710938 1.332031 -0.847656 1.4375 -0.984375 L 5.875 -5.875 C 6.570312 -6.632812 7.097656 -7.335938 7.453125 -7.984375 C 7.804688 -8.628906 7.984375 -9.210938 7.984375 -9.734375 C 7.984375 -10.578125 7.726562 -11.253906 7.21875 -11.765625 C 6.707031 -12.273438 6.015625 -12.53125 5.140625 -12.53125 C 4.742188 -12.53125 4.347656 -12.445312 3.953125 -12.28125 C 3.566406 -12.113281 3.222656 -11.894531 2.921875 -11.625 C 2.617188 -11.351562 2.382812 -11.046875 2.21875 -10.703125 C 2.144531 -10.578125 2.066406 -10.488281 1.984375 -10.4375 C 1.898438 -10.382812 1.804688 -10.359375 1.703125 -10.359375 C 1.554688 -10.359375 1.421875 -10.40625 1.296875 -10.5 C 1.179688 -10.601562 1.125 -10.722656 1.125 -10.859375 C 1.125 -10.953125 1.144531 -11.039062 1.1875 -11.125 C 1.238281 -11.21875 1.3125 -11.320312 1.40625 -11.4375 C 1.632812 -11.832031 1.953125 -12.195312 2.359375 -12.53125 C 2.765625 -12.863281 3.21875 -13.128906 3.71875 -13.328125 C 4.226562 -13.523438 4.726562 -13.625 5.21875 -13.625 C 6.039062 -13.625 6.75 -13.46875 7.34375 -13.15625 C 7.9375 -12.84375 8.394531 -12.398438 8.71875 -11.828125 C 9.039062 -11.253906 9.203125 -10.582031 9.203125 -9.8125 C 9.203125 -9.144531 8.992188 -8.414062 8.578125 -7.625 C 8.171875 -6.84375 7.554688 -5.992188 6.734375 -5.078125 L 3 -0.875 L 2.796875 -1.109375 Z M 9.09375 -1.109375 "/></g></g></g><g fill="#201f1f" fill-opacity="1"><g transform="translate(11.285043, 20.207826)"><g><path d="M 5.3125 -13.640625 C 6.070312 -13.640625 6.726562 -13.503906 7.28125 -13.234375 C 7.832031 -12.972656 8.285156 -12.613281 8.640625 -12.15625 C 9.003906 -11.695312 9.273438 -11.179688 9.453125 -10.609375 C 9.640625 -10.035156 9.734375 -9.445312 9.734375 -8.84375 C 9.734375 -8.226562 9.648438 -7.570312 9.484375 -6.875 C 9.328125 -6.175781 9.09375 -5.472656 8.78125 -4.765625 C 8.46875 -4.054688 8.078125 -3.378906 7.609375 -2.734375 C 7.140625 -2.097656 6.59375 -1.523438 5.96875 -1.015625 C 5.34375 -0.503906 4.644531 -0.109375 3.875 0.171875 C 3.769531 0.203125 3.6875 0.21875 3.625 0.21875 C 3.46875 0.21875 3.328125 0.160156 3.203125 0.046875 C 3.085938 -0.0546875 3.03125 -0.203125 3.03125 -0.390625 C 3.03125 -0.515625 3.066406 -0.625 3.140625 -0.71875 C 3.222656 -0.8125 3.335938 -0.882812 3.484375 -0.9375 C 4.210938 -1.25 4.914062 -1.707031 5.59375 -2.3125 C 6.28125 -2.914062 6.867188 -3.617188 7.359375 -4.421875 C 7.847656 -5.222656 8.175781 -6.050781 8.34375 -6.90625 L 8.75 -7.15625 C 8.53125 -6.75 8.234375 -6.378906 7.859375 -6.046875 C 7.492188 -5.710938 7.078125 -5.453125 6.609375 -5.265625 C 6.140625 -5.078125 5.628906 -4.984375 5.078125 -4.984375 C 4.265625 -4.984375 3.5625 -5.1875 2.96875 -5.59375 C 2.375 -6 1.914062 -6.53125 1.59375 -7.1875 C 1.269531 -7.851562 1.109375 -8.570312 1.109375 -9.34375 C 1.109375 -10.09375 1.289062 -10.796875 1.65625 -11.453125 C 2.019531 -12.109375 2.519531 -12.632812 3.15625 -13.03125 C 3.789062 -13.4375 4.507812 -13.640625 5.3125 -13.640625 Z M 5.359375 -12.53125 C 4.753906 -12.53125 4.21875 -12.394531 3.75 -12.125 C 3.289062 -11.851562 2.929688 -11.476562 2.671875 -11 C 2.410156 -10.519531 2.28125 -9.96875 2.28125 -9.34375 C 2.28125 -8.78125 2.390625 -8.25 2.609375 -7.75 C 2.835938 -7.25 3.175781 -6.847656 3.625 -6.546875 C 4.070312 -6.253906 4.613281 -6.109375 5.25 -6.109375 C 5.945312 -6.109375 6.535156 -6.253906 7.015625 -6.546875 C 7.503906 -6.847656 7.882812 -7.25 8.15625 -7.75 C 8.425781 -8.25 8.5625 -8.800781 8.5625 -9.40625 C 8.5625 -9.957031 8.429688 -10.46875 8.171875 -10.9375 C 7.921875 -11.40625 7.554688 -11.785156 7.078125 -12.078125 C 6.609375 -12.378906 6.035156 -12.53125 5.359375 -12.53125 Z M 5.359375 -12.53125 "/></g></g></g></g></g></g><g clip-path="url(#905ccaf805)"><path stroke-linecap="butt" transform="matrix(0.749954, 0, 0, 0.749954, 0.0390396, 0.00002)" fill-opacity="1" fill="#000000" fill-rule="nonzero" stroke-linejoin="miter" d="M 0.807372 1.614656 L 0.807372 998.446911 M 168.572917 1.614656 L 168.572917 998.446911 M 336.343672 1.614656 L 336.343672 998.446911 M 504.109217 1.614656 L 504.109217 998.446911 M 671.879971 1.614656 L 671.879971 998.446911 M 839.650725 1.614656 L 839.650725 998.446911 M 1007.416271 1.614656 L 1007.416271 998.446911 M 1175.187025 1.614656 L 1175.187025 998.446911 M 0.0000304849 0.807315 L 1175.989158 0.807315 M 0.0000304849 200.496702 L 1175.989158 200.496702 M 0.0000304849 400.18609 L 1175.989158 400.18609 M 0.0000304849 599.875477 L 1175.989158 599.875477 M 0.0000304849 799.564865 L 1175.989158 799.564865 M 0.0000304849 999.254252 L 1175.989158 999.254252 " stroke="#000000" stroke-width="1.612568" stroke-opacity="1" stroke-miterlimit="4"/></g><g transform="matrix(1, 0, 0, 1, 90, 709)"><g clip-path="url(#0d3dd97949)"><g fill="#000000" fill-opacity="1"><g transform="translate(0.415641, 19.747223)"><g><path d="M 1.703125 -1.96875 C 1.765625 -1.96875 1.832031 -1.957031 1.90625 -1.9375 C 1.976562 -1.914062 2.066406 -1.859375 2.171875 -1.765625 C 2.441406 -1.484375 2.757812 -1.269531 3.125 -1.125 C 3.5 -0.976562 3.921875 -0.90625 4.390625 -0.90625 C 5.015625 -0.90625 5.585938 -1.046875 6.109375 -1.328125 C 6.628906 -1.609375 7.039062 -2 7.34375 -2.5 C 7.65625 -3.007812 7.8125 -3.585938 7.8125 -4.234375 C 7.8125 -4.984375 7.644531 -5.582031 7.3125 -6.03125 C 6.988281 -6.488281 6.570312 -6.828125 6.0625 -7.046875 C 5.5625 -7.273438 5.050781 -7.390625 4.53125 -7.390625 C 4.382812 -7.390625 4.242188 -7.378906 4.109375 -7.359375 C 3.984375 -7.335938 3.859375 -7.3125 3.734375 -7.28125 C 3.617188 -7.257812 3.53125 -7.25 3.46875 -7.25 C 3.300781 -7.25 3.171875 -7.300781 3.078125 -7.40625 C 2.992188 -7.519531 2.953125 -7.660156 2.953125 -7.828125 C 2.953125 -7.921875 2.96875 -8 3 -8.0625 C 3.039062 -8.132812 3.097656 -8.21875 3.171875 -8.3125 L 7.0625 -12.546875 L 7.296875 -12.234375 L 1.484375 -12.234375 C 1.328125 -12.234375 1.191406 -12.285156 1.078125 -12.390625 C 0.972656 -12.503906 0.921875 -12.640625 0.921875 -12.796875 C 0.921875 -12.953125 0.972656 -13.078125 1.078125 -13.171875 C 1.191406 -13.273438 1.328125 -13.328125 1.484375 -13.328125 L 7.921875 -13.328125 C 8.140625 -13.328125 8.289062 -13.257812 8.375 -13.125 C 8.46875 -13 8.515625 -12.867188 8.515625 -12.734375 C 8.515625 -12.660156 8.492188 -12.585938 8.453125 -12.515625 C 8.421875 -12.453125 8.375 -12.378906 8.3125 -12.296875 L 4.40625 -8.0625 L 3.984375 -8.3125 C 4.023438 -8.34375 4.15625 -8.378906 4.375 -8.421875 C 4.601562 -8.472656 4.78125 -8.5 4.90625 -8.5 C 5.613281 -8.5 6.273438 -8.332031 6.890625 -8 C 7.515625 -7.664062 8.019531 -7.1875 8.40625 -6.5625 C 8.800781 -5.945312 9 -5.1875 9 -4.28125 C 9 -3.382812 8.785156 -2.597656 8.359375 -1.921875 C 7.941406 -1.253906 7.375 -0.734375 6.65625 -0.359375 C 5.9375 0.00390625 5.144531 0.1875 4.28125 0.1875 C 3.75 0.1875 3.226562 0.0976562 2.71875 -0.078125 C 2.207031 -0.253906 1.757812 -0.519531 1.375 -0.875 C 1.289062 -0.957031 1.226562 -1.035156 1.1875 -1.109375 C 1.144531 -1.191406 1.125 -1.269531 1.125 -1.34375 C 1.125 -1.5 1.175781 -1.640625 1.28125 -1.765625 C 1.394531 -1.898438 1.535156 -1.96875 1.703125 -1.96875 Z M 1.703125 -1.96875 "/></g></g></g><g fill="#000000" fill-opacity="1"><g transform="translate(10.465727, 19.747223)"><g><path d="M 5.703125 0.1875 C 4.671875 0.1875 3.8125 -0.117188 3.125 -0.734375 C 2.4375 -1.347656 1.921875 -2.175781 1.578125 -3.21875 C 1.234375 -4.257812 1.0625 -5.425781 1.0625 -6.71875 C 1.0625 -8.019531 1.234375 -9.191406 1.578125 -10.234375 C 1.921875 -11.273438 2.4375 -12.097656 3.125 -12.703125 C 3.8125 -13.316406 4.671875 -13.625 5.703125 -13.625 C 6.742188 -13.625 7.609375 -13.316406 8.296875 -12.703125 C 8.984375 -12.097656 9.5 -11.273438 9.84375 -10.234375 C 10.1875 -9.191406 10.359375 -8.019531 10.359375 -6.71875 C 10.359375 -5.425781 10.1875 -4.257812 9.84375 -3.21875 C 9.5 -2.175781 8.984375 -1.347656 8.296875 -0.734375 C 7.609375 -0.117188 6.742188 0.1875 5.703125 0.1875 Z M 5.703125 -1 C 6.453125 -1 7.078125 -1.234375 7.578125 -1.703125 C 8.085938 -2.179688 8.472656 -2.851562 8.734375 -3.71875 C 9.003906 -4.582031 9.140625 -5.582031 9.140625 -6.71875 C 9.140625 -7.863281 9.003906 -8.867188 8.734375 -9.734375 C 8.472656 -10.597656 8.085938 -11.265625 7.578125 -11.734375 C 7.078125 -12.210938 6.453125 -12.453125 5.703125 -12.453125 C 4.953125 -12.453125 4.320312 -12.210938 3.8125 -11.734375 C 3.3125 -11.265625 2.929688 -10.597656 2.671875 -9.734375 C 2.410156 -8.867188 2.28125 -7.863281 2.28125 -6.71875 C 2.28125 -5.582031 2.410156 -4.582031 2.671875 -3.71875 C 2.929688 -2.851562 3.3125 -2.179688 3.8125 -1.703125 C 4.320312 -1.234375 4.953125 -1 5.703125 -1 Z M 5.703125 -1 "/></g></g></g></g></g><g transform="matrix(1, 0, 0, 1, 221, 709)"><g clip-path="url(#989a9381b7)"><g fill="#000000" fill-opacity="1"><g transform="translate(0.189011, 19.747223)"><g><path d="M 1.703125 -1.96875 C 1.765625 -1.96875 1.832031 -1.957031 1.90625 -1.9375 C 1.976562 -1.914062 2.066406 -1.859375 2.171875 -1.765625 C 2.441406 -1.484375 2.757812 -1.269531 3.125 -1.125 C 3.5 -0.976562 3.921875 -0.90625 4.390625 -0.90625 C 5.015625 -0.90625 5.585938 -1.046875 6.109375 -1.328125 C 6.628906 -1.609375 7.039062 -2 7.34375 -2.5 C 7.65625 -3.007812 7.8125 -3.585938 7.8125 -4.234375 C 7.8125 -4.984375 7.644531 -5.582031 7.3125 -6.03125 C 6.988281 -6.488281 6.570312 -6.828125 6.0625 -7.046875 C 5.5625 -7.273438 5.050781 -7.390625 4.53125 -7.390625 C 4.382812 -7.390625 4.242188 -7.378906 4.109375 -7.359375 C 3.984375 -7.335938 3.859375 -7.3125 3.734375 -7.28125 C 3.617188 -7.257812 3.53125 -7.25 3.46875 -7.25 C 3.300781 -7.25 3.171875 -7.300781 3.078125 -7.40625 C 2.992188 -7.519531 2.953125 -7.660156 2.953125 -7.828125 C 2.953125 -7.921875 2.96875 -8 3 -8.0625 C 3.039062 -8.132812 3.097656 -8.21875 3.171875 -8.3125 L 7.0625 -12.546875 L 7.296875 -12.234375 L 1.484375 -12.234375 C 1.328125 -12.234375 1.191406 -12.285156 1.078125 -12.390625 C 0.972656 -12.503906 0.921875 -12.640625 0.921875 -12.796875 C 0.921875 -12.953125 0.972656 -13.078125 1.078125 -13.171875 C 1.191406 -13.273438 1.328125 -13.328125 1.484375 -13.328125 L 7.921875 -13.328125 C 8.140625 -13.328125 8.289062 -13.257812 8.375 -13.125 C 8.46875 -13 8.515625 -12.867188 8.515625 -12.734375 C 8.515625 -12.660156 8.492188 -12.585938 8.453125 -12.515625 C 8.421875 -12.453125 8.375 -12.378906 8.3125 -12.296875 L 4.40625 -8.0625 L 3.984375 -8.3125 C 4.023438 -8.34375 4.15625 -8.378906 4.375 -8.421875 C 4.601562 -8.472656 4.78125 -8.5 4.90625 -8.5 C 5.613281 -8.5 6.273438 -8.332031 6.890625 -8 C 7.515625 -7.664062 8.019531 -7.1875 8.40625 -6.5625 C 8.800781 -5.945312 9 -5.1875 9 -4.28125 C 9 -3.382812 8.785156 -2.597656 8.359375 -1.921875 C 7.941406 -1.253906 7.375 -0.734375 6.65625 -0.359375 C 5.9375 0.00390625 5.144531 0.1875 4.28125 0.1875 C 3.75 0.1875 3.226562 0.0976562 2.71875 -0.078125 C 2.207031 -0.253906 1.757812 -0.519531 1.375 -0.875 C 1.289062 -0.957031 1.226562 -1.035156 1.1875 -1.109375 C 1.144531 -1.191406 1.125 -1.269531 1.125 -1.34375 C 1.125 -1.5 1.175781 -1.640625 1.28125 -1.765625 C 1.394531 -1.898438 1.535156 -1.96875 1.703125 -1.96875 Z M 1.703125 -1.96875 "/></g></g></g><g fill="#000000" fill-opacity="1"><g transform="translate(10.239097, 19.747223)"><g><path d="M 4.34375 0 C 4.15625 0 4.003906 -0.0546875 3.890625 -0.171875 C 3.773438 -0.285156 3.71875 -0.421875 3.71875 -0.578125 L 3.71875 -12.125 L 3.9375 -11.9375 L 1.375 -10.234375 C 1.28125 -10.148438 1.175781 -10.109375 1.0625 -10.109375 C 0.90625 -10.109375 0.765625 -10.171875 0.640625 -10.296875 C 0.515625 -10.429688 0.453125 -10.570312 0.453125 -10.71875 C 0.453125 -10.925781 0.554688 -11.085938 0.765625 -11.203125 L 3.96875 -13.328125 C 4.050781 -13.378906 4.132812 -13.410156 4.21875 -13.421875 C 4.300781 -13.441406 4.375 -13.445312 4.4375 -13.4375 C 4.601562 -13.414062 4.726562 -13.347656 4.8125 -13.234375 C 4.90625 -13.128906 4.953125 -13.003906 4.953125 -12.859375 L 4.953125 -0.578125 C 4.953125 -0.421875 4.894531 -0.285156 4.78125 -0.171875 C 4.664062 -0.0546875 4.519531 0 4.34375 0 Z M 4.34375 0 "/></g></g></g></g></g><g clip-path="url(#31b19fc4c6)"><path stroke-linecap="butt" transform="matrix(0.488149, -0.569334, 0.569334, 0.488149, -0.00120644, 748.978975)" fill="none" stroke-linejoin="miter" d="M -0.00313925 0.999668 L 258.323269 0.999221 " stroke="#000000" stroke-width="2" stroke-opacity="1" stroke-miterlimit="4"/></g><g clip-path="url(#3f621e6d17)"><path stroke-linecap="butt" transform="matrix(0.488149, -0.569334, 0.569334, 0.488149, 126.667658, 748.490792)" fill="none" stroke-linejoin="miter" d="M -0.000427607 1.002632 L 258.322591 0.99823 " stroke="#000000" stroke-width="2" stroke-opacity="1" stroke-miterlimit="4"/></g></g></g></svg>