<svg xmlns="http://www.w3.org/2000/svg" xmlns:xlink="http://www.w3.org/1999/xlink" width="1176" zoomAndPan="magnify" viewBox="0 0 882 749.999995" height="1000" preserveAspectRatio="xMidYMid meet" version="1.0"><defs><g/><clipPath id="daf8fb62d5"><path d="M 254 1.222656 L 262 1.222656 L 262 27 L 254 27 Z M 254 1.222656 " clip-rule="nonzero"/></clipPath><clipPath id="2661145a68"><path d="M 0.160156 6 L 6 6 L 6 21 L 0.160156 21 Z M 0.160156 6 " clip-rule="nonzero"/></clipPath><clipPath id="cccf602259"><rect x="0" width="8" y="0" height="26"/></clipPath><clipPath id="6726f4a761"><path d="M 380 1.222656 L 392 1.222656 L 392 27 L 380 27 Z M 380 1.222656 " clip-rule="nonzero"/></clipPath><clipPath id="ea090425dc"><rect x="0" width="12" y="0" height="26"/></clipPath><clipPath id="ce34b7dc6a"><path d="M 505 1.222656 L 517 1.222656 L 517 27 L 505 27 Z M 505 1.222656 " clip-rule="nonzero"/></clipPath><clipPath id="192bd1a154"><rect x="0" width="12" y="0" height="26"/></clipPath><clipPath id="6430a17053"><path d="M 631 1.222656 L 643 1.222656 L 643 27 L 631 27 Z M 631 1.222656 " clip-rule="nonzero"/></clipPath><clipPath id="63d97b52d4"><rect x="0" width="12" y="0" height="26"/></clipPath><clipPath id="532f89c3d9"><path d="M 757 1.222656 L 769 1.222656 L 769 27 L 757 27 Z M 757 1.222656 " clip-rule="nonzero"/></clipPath><clipPath id="c3a05e9d87"><rect x="0" width="12" y="0" height="26"/></clipPath><clipPath id="365cfae911"><rect x="0" width="12" y="0" height="26"/></clipPath><clipPath id="cfaf0f1666"><rect x="0" width="11" y="0" height="26"/></clipPath><clipPath id="63fb58e655"><rect x="0" width="12" y="0" height="26"/></clipPath><clipPath id="56a71123c6"><rect x="0" width="12" y="0" height="26"/></clipPath><clipPath id="6978f64fc4"><rect x="0" width="21" y="0" height="26"/></clipPath><clipPath id="1579c66fe4"><rect x="0" width="16" y="0" height="26"/></clipPath><clipPath id="7d9ee7b06b"><rect x="0" width="20" y="0" height="26"/></clipPath><clipPath id="f5d9925b95"><rect x="0" width="19" y="0" height="25"/></clipPath><clipPath id="45345c0034"><rect x="0" width="19" y="0" height="25"/></clipPath><clipPath id="28fc434aea"><path d="M 0.160156 6 L 6 6 L 6 20 L 0.160156 20 Z M 0.160156 6 " clip-rule="nonzero"/></clipPath><clipPath id="58706028b1"><rect x="0" width="19" y="0" height="25"/></clipPath><clipPath id="d7a85311c9"><path d="M 0.160156 6 L 6 6 L 6 20 L 0.160156 20 Z M 0.160156 6 " clip-rule="nonzero"/></clipPath><clipPath id="87c695d953"><rect x="0" width="19" y="0" height="25"/></clipPath><clipPath id="d48ed7fe90"><rect x="0" width="19" y="0" height="25"/></clipPath><clipPath id="5aac55f728"><rect x="0" width="19" y="0" height="25"/></clipPath><clipPath id="4e4a80c13c"><rect x="0" width="20" y="0" height="25"/></clipPath><clipPath id="ce3a781f0c"><path d="M 2 450.351562 L 26 450.351562 L 26 476 L 2 476 Z M 2 450.351562 " clip-rule="nonzero"/></clipPath><clipPath id="6bed40f957"><rect x="0" width="24" y="0" height="26"/></clipPath><clipPath id="02ee3f312e"><path d="M 128 450.351562 L 148 450.351562 L 148 476 L 128 476 Z M 128 450.351562 " clip-rule="nonzero"/></clipPath><clipPath id="4c998ef20b"><rect x="0" width="20" y="0" height="26"/></clipPath><clipPath id="f2b8a126ee"><path d="M 254 450.351562 L 277 450.351562 L 277 476 L 254 476 Z M 254 450.351562 " clip-rule="nonzero"/></clipPath><clipPath id="0ba8dc27e5"><rect x="0" width="23" y="0" height="26"/></clipPath><clipPath id="9d1c07e5c7"><path d="M 380 450.351562 L 402 450.351562 L 402 476 L 380 476 Z M 380 450.351562 " clip-rule="nonzero"/></clipPath><clipPath id="6ee4c7525e"><rect x="0" width="22" y="0" height="26"/></clipPath><clipPath id="f9ea90b48b"><path d="M 505 450.351562 L 528 450.351562 L 528 476 L 505 476 Z M 505 450.351562 " clip-rule="nonzero"/></clipPath><clipPath id="581ac6c28f"><rect x="0" width="23" y="0" height="26"/></clipPath><clipPath id="d5300a54d8"><path d="M 631 450.351562 L 654 450.351562 L 654 476 L 631 476 Z M 631 450.351562 " clip-rule="nonzero"/></clipPath><clipPath id="ab62985521"><rect x="0" width="23" y="0" height="26"/></clipPath><clipPath id="f552454116"><path d="M 757 450.351562 L 780 450.351562 L 780 476 L 757 476 Z M 757 450.351562 " clip-rule="nonzero"/></clipPath><clipPath id="5fd7e655c9"><rect x="0" width="23" y="0" height="26"/></clipPath><clipPath id="db894371b4"><path d="M 2 600.0625 L 24 600.0625 L 24 626 L 2 626 Z M 2 600.0625 " clip-rule="nonzero"/></clipPath><clipPath id="7ec3ca9f97"><rect x="0" width="22" y="0" height="26"/></clipPath><clipPath id="fe122934ae"><path d="M 128 600.0625 L 150 600.0625 L 150 626 L 128 626 Z M 128 600.0625 " clip-rule="nonzero"/></clipPath><clipPath id="f3c1850ac9"><rect x="0" width="22" y="0" height="26"/></clipPath><clipPath id="8ea053208e"><path d="M 254 600.0625 L 277 600.0625 L 277 626 L 254 626 Z M 254 600.0625 " clip-rule="nonzero"/></clipPath><clipPath id="ab546c28f3"><rect x="0" width="23" y="0" height="26"/></clipPath><clipPath id="2990c65e02"><path d="M 380 600.0625 L 403 600.0625 L 403 626 L 380 626 Z M 380 600.0625 " clip-rule="nonzero"/></clipPath><clipPath id="14651e9b5e"><rect x="0" width="23" y="0" height="26"/></clipPath><clipPath id="71aeb623c4"><path d="M 505 600.0625 L 524 600.0625 L 524 626 L 505 626 Z M 505 600.0625 " clip-rule="nonzero"/></clipPath><clipPath id="38914b8642"><rect x="0" width="19" y="0" height="26"/></clipPath></defs><g clip-path="url(#daf8fb62d5)"><g transform="matrix(1, 0, 0, 1, 254, 1)"><g clip-path="url(#cccf602259)"><g clip-path="url(#2661145a68)"><g fill="#201f1f" fill-opacity="1"><g transform="translate(0.37169, 20.396666)"><g><path d="M 4.390625 0 C 4.203125 0 4.050781 -0.0546875 3.9375 -0.171875 C 3.820312 -0.285156 3.765625 -0.421875 3.765625 -0.578125 L 3.765625 -12.265625 L 3.984375 -12.078125 L 1.390625 -10.34375 C 1.285156 -10.269531 1.175781 -10.234375 1.0625 -10.234375 C 0.90625 -10.234375 0.765625 -10.296875 0.640625 -10.421875 C 0.523438 -10.546875 0.46875 -10.6875 0.46875 -10.84375 C 0.46875 -11.050781 0.570312 -11.210938 0.78125 -11.328125 L 4.015625 -13.484375 C 4.097656 -13.535156 4.179688 -13.566406 4.265625 -13.578125 C 4.347656 -13.597656 4.421875 -13.597656 4.484375 -13.578125 C 4.648438 -13.566406 4.773438 -13.503906 4.859375 -13.390625 C 4.953125 -13.285156 5 -13.15625 5 -13 L 5 -0.578125 C 5 -0.421875 4.941406 -0.285156 4.828125 -0.171875 C 4.710938 -0.0546875 4.566406 0 4.390625 0 Z M 4.390625 0 "/></g></g></g></g></g></g></g><g clip-path="url(#6726f4a761)"><g transform="matrix(1, 0, 0, 1, 380, 1)"><g clip-path="url(#ea090425dc)"><g fill="#201f1f" fill-opacity="1"><g transform="translate(0.196049, 20.396666)"><g><path d="M 9.203125 -1.125 C 9.359375 -1.125 9.488281 -1.066406 9.59375 -0.953125 C 9.707031 -0.847656 9.765625 -0.71875 9.765625 -0.5625 C 9.765625 -0.394531 9.707031 -0.257812 9.59375 -0.15625 C 9.488281 -0.0507812 9.359375 0 9.203125 0 L 1.921875 0 C 1.753906 0 1.609375 -0.046875 1.484375 -0.140625 C 1.359375 -0.242188 1.296875 -0.390625 1.296875 -0.578125 C 1.296875 -0.722656 1.347656 -0.859375 1.453125 -0.984375 L 5.9375 -5.9375 C 6.644531 -6.71875 7.175781 -7.429688 7.53125 -8.078125 C 7.894531 -8.734375 8.078125 -9.320312 8.078125 -9.84375 C 8.078125 -10.695312 7.816406 -11.378906 7.296875 -11.890625 C 6.773438 -12.410156 6.078125 -12.671875 5.203125 -12.671875 C 4.796875 -12.671875 4.394531 -12.585938 4 -12.421875 C 3.613281 -12.253906 3.265625 -12.035156 2.953125 -11.765625 C 2.648438 -11.492188 2.414062 -11.179688 2.25 -10.828125 C 2.175781 -10.703125 2.09375 -10.613281 2 -10.5625 C 1.914062 -10.507812 1.828125 -10.484375 1.734375 -10.484375 C 1.578125 -10.484375 1.4375 -10.53125 1.3125 -10.625 C 1.195312 -10.71875 1.140625 -10.835938 1.140625 -10.984375 C 1.140625 -11.078125 1.160156 -11.164062 1.203125 -11.25 C 1.253906 -11.34375 1.328125 -11.445312 1.421875 -11.5625 C 1.648438 -11.96875 1.972656 -12.335938 2.390625 -12.671875 C 2.804688 -13.003906 3.269531 -13.269531 3.78125 -13.46875 C 4.289062 -13.675781 4.789062 -13.78125 5.28125 -13.78125 C 6.101562 -13.78125 6.816406 -13.617188 7.421875 -13.296875 C 8.023438 -12.984375 8.488281 -12.535156 8.8125 -11.953125 C 9.144531 -11.378906 9.3125 -10.703125 9.3125 -9.921875 C 9.3125 -9.242188 9.097656 -8.503906 8.671875 -7.703125 C 8.253906 -6.910156 7.632812 -6.054688 6.8125 -5.140625 L 3.03125 -0.890625 L 2.828125 -1.125 Z M 9.203125 -1.125 "/></g></g></g></g></g></g><g clip-path="url(#ce34b7dc6a)"><g transform="matrix(1, 0, 0, 1, 505, 1)"><g clip-path="url(#192bd1a154)"><g fill="#201f1f" fill-opacity="1"><g transform="translate(1.020408, 20.396666)"><g><path d="M 1.734375 -2 C 1.796875 -2 1.859375 -1.984375 1.921875 -1.953125 C 1.992188 -1.929688 2.082031 -1.875 2.1875 -1.78125 C 2.457031 -1.5 2.78125 -1.28125 3.15625 -1.125 C 3.53125 -0.976562 3.957031 -0.90625 4.4375 -0.90625 C 5.070312 -0.90625 5.648438 -1.046875 6.171875 -1.328125 C 6.703125 -1.617188 7.117188 -2.019531 7.421875 -2.53125 C 7.734375 -3.039062 7.890625 -3.625 7.890625 -4.28125 C 7.890625 -5.039062 7.722656 -5.648438 7.390625 -6.109375 C 7.066406 -6.566406 6.648438 -6.90625 6.140625 -7.125 C 5.628906 -7.351562 5.109375 -7.46875 4.578125 -7.46875 C 4.429688 -7.46875 4.289062 -7.457031 4.15625 -7.4375 C 4.019531 -7.414062 3.894531 -7.390625 3.78125 -7.359375 C 3.664062 -7.335938 3.578125 -7.328125 3.515625 -7.328125 C 3.347656 -7.328125 3.21875 -7.382812 3.125 -7.5 C 3.03125 -7.613281 2.984375 -7.753906 2.984375 -7.921875 C 2.984375 -8.003906 3.003906 -8.082031 3.046875 -8.15625 C 3.085938 -8.226562 3.140625 -8.3125 3.203125 -8.40625 L 7.140625 -12.6875 L 7.375 -12.375 L 1.5 -12.375 C 1.34375 -12.375 1.207031 -12.429688 1.09375 -12.546875 C 0.988281 -12.660156 0.9375 -12.789062 0.9375 -12.9375 C 0.9375 -13.09375 0.988281 -13.222656 1.09375 -13.328125 C 1.207031 -13.429688 1.34375 -13.484375 1.5 -13.484375 L 8.015625 -13.484375 C 8.234375 -13.484375 8.382812 -13.414062 8.46875 -13.28125 C 8.5625 -13.144531 8.609375 -13.015625 8.609375 -12.890625 C 8.609375 -12.804688 8.585938 -12.726562 8.546875 -12.65625 C 8.515625 -12.59375 8.46875 -12.519531 8.40625 -12.4375 L 4.46875 -8.15625 L 4.03125 -8.40625 C 4.070312 -8.445312 4.207031 -8.488281 4.4375 -8.53125 C 4.664062 -8.570312 4.84375 -8.59375 4.96875 -8.59375 C 5.675781 -8.59375 6.34375 -8.425781 6.96875 -8.09375 C 7.601562 -7.757812 8.117188 -7.273438 8.515625 -6.640625 C 8.910156 -6.015625 9.109375 -5.242188 9.109375 -4.328125 C 9.109375 -3.421875 8.894531 -2.628906 8.46875 -1.953125 C 8.039062 -1.273438 7.460938 -0.75 6.734375 -0.375 C 6.003906 0 5.203125 0.1875 4.328125 0.1875 C 3.796875 0.1875 3.269531 0.0976562 2.75 -0.078125 C 2.238281 -0.253906 1.785156 -0.523438 1.390625 -0.890625 C 1.304688 -0.972656 1.242188 -1.050781 1.203125 -1.125 C 1.160156 -1.195312 1.140625 -1.273438 1.140625 -1.359375 C 1.140625 -1.515625 1.191406 -1.660156 1.296875 -1.796875 C 1.410156 -1.929688 1.554688 -2 1.734375 -2 Z M 1.734375 -2 "/></g></g></g></g></g></g><g clip-path="url(#6430a17053)"><g transform="matrix(1, 0, 0, 1, 631, 1)"><g clip-path="url(#63d97b52d4)"><g fill="#201f1f" fill-opacity="1"><g transform="translate(0.844797, 20.396666)"><g><path d="M 7.125 0 C 6.957031 0 6.820312 -0.0546875 6.71875 -0.171875 C 6.613281 -0.285156 6.5625 -0.421875 6.5625 -0.578125 L 6.5625 -11.96875 L 6.8125 -11.8125 L 1.703125 -5.0625 L 1.65625 -5.28125 L 9.109375 -5.28125 C 9.253906 -5.28125 9.382812 -5.226562 9.5 -5.125 C 9.613281 -5.019531 9.671875 -4.890625 9.671875 -4.734375 C 9.671875 -4.578125 9.613281 -4.445312 9.5 -4.34375 C 9.382812 -4.238281 9.253906 -4.1875 9.109375 -4.1875 L 0.859375 -4.1875 C 0.703125 -4.1875 0.5625 -4.25 0.4375 -4.375 C 0.320312 -4.5 0.265625 -4.640625 0.265625 -4.796875 C 0.265625 -4.929688 0.3125 -5.0625 0.40625 -5.1875 L 6.65625 -13.34375 C 6.71875 -13.4375 6.796875 -13.5 6.890625 -13.53125 C 6.992188 -13.5625 7.078125 -13.578125 7.140625 -13.578125 C 7.304688 -13.578125 7.441406 -13.519531 7.546875 -13.40625 C 7.660156 -13.289062 7.71875 -13.15625 7.71875 -13 L 7.71875 -0.578125 C 7.71875 -0.421875 7.660156 -0.285156 7.546875 -0.171875 C 7.429688 -0.0546875 7.289062 0 7.125 0 Z M 7.125 0 "/></g></g></g></g></g></g><g clip-path="url(#532f89c3d9)"><g transform="matrix(1, 0, 0, 1, 757, 1)"><g clip-path="url(#c3a05e9d87)"><g fill="#201f1f" fill-opacity="1"><g transform="translate(0.669185, 20.396666)"><g><path d="M 4.546875 0.03125 C 4.015625 0.03125 3.476562 -0.0507812 2.9375 -0.21875 C 2.40625 -0.394531 1.929688 -0.660156 1.515625 -1.015625 C 1.429688 -1.078125 1.367188 -1.148438 1.328125 -1.234375 C 1.285156 -1.328125 1.265625 -1.421875 1.265625 -1.515625 C 1.265625 -1.640625 1.316406 -1.765625 1.421875 -1.890625 C 1.523438 -2.015625 1.660156 -2.078125 1.828125 -2.078125 C 1.960938 -2.078125 2.101562 -2.019531 2.25 -1.90625 C 2.582031 -1.644531 2.945312 -1.441406 3.34375 -1.296875 C 3.738281 -1.160156 4.140625 -1.09375 4.546875 -1.09375 C 5.304688 -1.09375 5.96875 -1.234375 6.53125 -1.515625 C 7.101562 -1.804688 7.546875 -2.222656 7.859375 -2.765625 C 8.171875 -3.304688 8.328125 -3.929688 8.328125 -4.640625 C 8.328125 -5.296875 8.179688 -5.863281 7.890625 -6.34375 C 7.609375 -6.832031 7.207031 -7.21875 6.6875 -7.5 C 6.164062 -7.78125 5.546875 -7.921875 4.828125 -7.921875 C 4.367188 -7.921875 3.945312 -7.847656 3.5625 -7.703125 C 3.175781 -7.554688 2.84375 -7.410156 2.5625 -7.265625 C 2.289062 -7.117188 2.070312 -7.046875 1.90625 -7.046875 C 1.75 -7.046875 1.617188 -7.082031 1.515625 -7.15625 C 1.421875 -7.238281 1.359375 -7.335938 1.328125 -7.453125 C 1.296875 -7.566406 1.289062 -7.691406 1.3125 -7.828125 L 2.15625 -13 C 2.164062 -13.113281 2.222656 -13.21875 2.328125 -13.3125 C 2.441406 -13.414062 2.582031 -13.46875 2.75 -13.46875 L 8.59375 -13.46875 C 8.75 -13.46875 8.878906 -13.410156 8.984375 -13.296875 C 9.097656 -13.191406 9.15625 -13.0625 9.15625 -12.90625 C 9.15625 -12.738281 9.097656 -12.597656 8.984375 -12.484375 C 8.878906 -12.378906 8.75 -12.328125 8.59375 -12.328125 L 3.03125 -12.328125 L 3.203125 -12.5 L 2.40625 -7.890625 L 2.0625 -8.15625 C 2.226562 -8.28125 2.46875 -8.40625 2.78125 -8.53125 C 3.101562 -8.664062 3.457031 -8.78125 3.84375 -8.875 C 4.238281 -8.976562 4.660156 -9.03125 5.109375 -9.03125 C 5.941406 -9.03125 6.6875 -8.84375 7.34375 -8.46875 C 8.007812 -8.101562 8.53125 -7.59375 8.90625 -6.9375 C 9.289062 -6.28125 9.484375 -5.523438 9.484375 -4.671875 C 9.484375 -3.734375 9.28125 -2.910156 8.875 -2.203125 C 8.46875 -1.492188 7.894531 -0.941406 7.15625 -0.546875 C 6.425781 -0.160156 5.554688 0.03125 4.546875 0.03125 Z M 4.546875 0.03125 "/></g></g></g></g></g></g><g transform="matrix(1, 0, 0, 1, 2, 151)"><g clip-path="url(#365cfae911)"><g fill="#201f1f" fill-opacity="1"><g transform="translate(0.722956, 20.106039)"><g><path d="M 5.5625 0.1875 C 4.8125 0.1875 4.15625 0.0507812 3.59375 -0.21875 C 3.03125 -0.488281 2.566406 -0.851562 2.203125 -1.3125 C 1.835938 -1.769531 1.566406 -2.289062 1.390625 -2.875 C 1.210938 -3.457031 1.125 -4.050781 1.125 -4.65625 C 1.125 -5.28125 1.203125 -5.953125 1.359375 -6.671875 C 1.515625 -7.390625 1.753906 -8.113281 2.078125 -8.84375 C 2.398438 -9.582031 2.796875 -10.28125 3.265625 -10.9375 C 3.742188 -11.601562 4.296875 -12.195312 4.921875 -12.71875 C 5.546875 -13.238281 6.253906 -13.648438 7.046875 -13.953125 C 7.140625 -13.972656 7.21875 -13.984375 7.28125 -13.984375 C 7.445312 -13.984375 7.585938 -13.9375 7.703125 -13.84375 C 7.828125 -13.757812 7.890625 -13.609375 7.890625 -13.390625 C 7.890625 -13.265625 7.847656 -13.148438 7.765625 -13.046875 C 7.679688 -12.953125 7.570312 -12.878906 7.4375 -12.828125 C 6.894531 -12.597656 6.359375 -12.269531 5.828125 -11.84375 C 5.296875 -11.414062 4.800781 -10.921875 4.34375 -10.359375 C 3.894531 -9.804688 3.507812 -9.207031 3.1875 -8.5625 C 2.875 -7.925781 2.648438 -7.28125 2.515625 -6.625 L 2.09375 -6.359375 C 2.320312 -6.785156 2.617188 -7.164062 2.984375 -7.5 C 3.359375 -7.832031 3.785156 -8.097656 4.265625 -8.296875 C 4.742188 -8.492188 5.265625 -8.59375 5.828125 -8.59375 C 6.398438 -8.59375 6.929688 -8.46875 7.421875 -8.21875 C 7.921875 -7.976562 8.347656 -7.644531 8.703125 -7.21875 C 9.054688 -6.800781 9.332031 -6.328125 9.53125 -5.796875 C 9.738281 -5.265625 9.84375 -4.71875 9.84375 -4.15625 C 9.84375 -3.394531 9.65625 -2.679688 9.28125 -2.015625 C 8.914062 -1.359375 8.410156 -0.828125 7.765625 -0.421875 C 7.128906 -0.015625 6.394531 0.1875 5.5625 0.1875 Z M 5.546875 -0.9375 C 6.140625 -0.9375 6.671875 -1.070312 7.140625 -1.34375 C 7.609375 -1.613281 7.972656 -1.988281 8.234375 -2.46875 C 8.503906 -2.957031 8.640625 -3.519531 8.640625 -4.15625 C 8.640625 -4.738281 8.523438 -5.273438 8.296875 -5.765625 C 8.066406 -6.265625 7.726562 -6.671875 7.28125 -6.984375 C 6.84375 -7.304688 6.289062 -7.46875 5.625 -7.46875 C 4.9375 -7.46875 4.34375 -7.3125 3.84375 -7 C 3.351562 -6.695312 2.972656 -6.285156 2.703125 -5.765625 C 2.441406 -5.253906 2.3125 -4.695312 2.3125 -4.09375 C 2.3125 -3.550781 2.4375 -3.035156 2.6875 -2.546875 C 2.945312 -2.066406 3.320312 -1.675781 3.8125 -1.375 C 4.300781 -1.082031 4.878906 -0.9375 5.546875 -0.9375 Z M 5.546875 -0.9375 "/></g></g></g></g></g><g transform="matrix(1, 0, 0, 1, 128, 151)"><g clip-path="url(#cfaf0f1666)"><g fill="#201f1f" fill-opacity="1"><g transform="translate(0.547331, 20.106039)"><g><path d="M 3.453125 0.0625 C 3.296875 0.0625 3.148438 0.0078125 3.015625 -0.09375 C 2.890625 -0.195312 2.828125 -0.328125 2.828125 -0.484375 C 2.828125 -0.578125 2.847656 -0.675781 2.890625 -0.78125 L 8.046875 -12.640625 L 8.265625 -12.359375 L 1.703125 -12.359375 C 1.546875 -12.359375 1.410156 -12.410156 1.296875 -12.515625 C 1.191406 -12.628906 1.140625 -12.765625 1.140625 -12.921875 C 1.140625 -13.085938 1.191406 -13.222656 1.296875 -13.328125 C 1.410156 -13.429688 1.546875 -13.484375 1.703125 -13.484375 L 8.828125 -13.484375 C 9.023438 -13.484375 9.164062 -13.429688 9.25 -13.328125 C 9.34375 -13.222656 9.390625 -13.09375 9.390625 -12.9375 C 9.390625 -12.832031 9.367188 -12.738281 9.328125 -12.65625 L 4 -0.328125 C 3.957031 -0.210938 3.882812 -0.117188 3.78125 -0.046875 C 3.675781 0.0234375 3.566406 0.0625 3.453125 0.0625 Z M 3.453125 0.0625 "/></g></g></g></g></g><g transform="matrix(1, 0, 0, 1, 254, 151)"><g clip-path="url(#63fb58e655)"><g fill="#201f1f" fill-opacity="1"><g transform="translate(0.37169, 20.106039)"><g><path d="M 7.0625 -6.828125 L 7 -7 C 7.445312 -6.832031 7.847656 -6.582031 8.203125 -6.25 C 8.566406 -5.925781 8.859375 -5.539062 9.078125 -5.09375 C 9.296875 -4.644531 9.40625 -4.15625 9.40625 -3.625 C 9.40625 -2.925781 9.222656 -2.289062 8.859375 -1.71875 C 8.492188 -1.15625 7.992188 -0.703125 7.359375 -0.359375 C 6.722656 -0.0234375 6.015625 0.140625 5.234375 0.140625 C 4.453125 0.140625 3.742188 -0.0234375 3.109375 -0.359375 C 2.484375 -0.703125 1.984375 -1.15625 1.609375 -1.71875 C 1.242188 -2.289062 1.0625 -2.925781 1.0625 -3.625 C 1.0625 -4.195312 1.175781 -4.707031 1.40625 -5.15625 C 1.632812 -5.601562 1.929688 -5.976562 2.296875 -6.28125 C 2.671875 -6.59375 3.054688 -6.832031 3.453125 -7 L 3.390625 -6.8125 C 3.046875 -6.976562 2.71875 -7.207031 2.40625 -7.5 C 2.101562 -7.789062 1.851562 -8.140625 1.65625 -8.546875 C 1.46875 -8.953125 1.375 -9.398438 1.375 -9.890625 C 1.375 -10.585938 1.546875 -11.210938 1.890625 -11.765625 C 2.234375 -12.328125 2.695312 -12.769531 3.28125 -13.09375 C 3.875 -13.414062 4.523438 -13.578125 5.234375 -13.578125 C 5.953125 -13.578125 6.597656 -13.414062 7.171875 -13.09375 C 7.742188 -12.769531 8.203125 -12.328125 8.546875 -11.765625 C 8.890625 -11.210938 9.0625 -10.585938 9.0625 -9.890625 C 9.0625 -9.390625 8.960938 -8.9375 8.765625 -8.53125 C 8.578125 -8.132812 8.328125 -7.789062 8.015625 -7.5 C 7.703125 -7.207031 7.382812 -6.984375 7.0625 -6.828125 Z M 2.578125 -9.890625 C 2.578125 -9.378906 2.695312 -8.925781 2.9375 -8.53125 C 3.1875 -8.144531 3.507812 -7.84375 3.90625 -7.625 C 4.3125 -7.40625 4.753906 -7.296875 5.234375 -7.296875 C 5.703125 -7.296875 6.132812 -7.40625 6.53125 -7.625 C 6.9375 -7.84375 7.257812 -8.144531 7.5 -8.53125 C 7.738281 -8.925781 7.859375 -9.378906 7.859375 -9.890625 C 7.859375 -10.660156 7.613281 -11.285156 7.125 -11.765625 C 6.632812 -12.242188 6.003906 -12.484375 5.234375 -12.484375 C 4.453125 -12.484375 3.8125 -12.242188 3.3125 -11.765625 C 2.820312 -11.285156 2.578125 -10.660156 2.578125 -9.890625 Z M 5.234375 -0.96875 C 6.117188 -0.96875 6.832031 -1.21875 7.375 -1.71875 C 7.925781 -2.226562 8.203125 -2.863281 8.203125 -3.625 C 8.203125 -4.144531 8.066406 -4.609375 7.796875 -5.015625 C 7.523438 -5.429688 7.160156 -5.753906 6.703125 -5.984375 C 6.253906 -6.222656 5.765625 -6.34375 5.234375 -6.34375 C 4.703125 -6.34375 4.207031 -6.222656 3.75 -5.984375 C 3.300781 -5.753906 2.941406 -5.429688 2.671875 -5.015625 C 2.398438 -4.609375 2.265625 -4.144531 2.265625 -3.625 C 2.265625 -2.863281 2.535156 -2.226562 3.078125 -1.71875 C 3.628906 -1.21875 4.347656 -0.96875 5.234375 -0.96875 Z M 5.234375 -0.96875 "/></g></g></g></g></g><g transform="matrix(1, 0, 0, 1, 380, 151)"><g clip-path="url(#56a71123c6)"><g fill="#201f1f" fill-opacity="1"><g transform="translate(0.196049, 20.106039)"><g><path d="M 5.375 -13.796875 C 6.132812 -13.796875 6.796875 -13.660156 7.359375 -13.390625 C 7.921875 -13.117188 8.382812 -12.753906 8.75 -12.296875 C 9.113281 -11.835938 9.382812 -11.316406 9.5625 -10.734375 C 9.75 -10.148438 9.84375 -9.554688 9.84375 -8.953125 C 9.84375 -8.328125 9.757812 -7.660156 9.59375 -6.953125 C 9.4375 -6.253906 9.195312 -5.546875 8.875 -4.828125 C 8.5625 -4.109375 8.164062 -3.425781 7.6875 -2.78125 C 7.21875 -2.132812 6.664062 -1.550781 6.03125 -1.03125 C 5.394531 -0.507812 4.691406 -0.109375 3.921875 0.171875 C 3.816406 0.203125 3.734375 0.21875 3.671875 0.21875 C 3.515625 0.21875 3.375 0.160156 3.25 0.046875 C 3.125 -0.0546875 3.0625 -0.203125 3.0625 -0.390625 C 3.0625 -0.515625 3.097656 -0.625 3.171875 -0.71875 C 3.253906 -0.820312 3.375 -0.898438 3.53125 -0.953125 C 4.269531 -1.265625 4.976562 -1.726562 5.65625 -2.34375 C 6.34375 -2.957031 6.9375 -3.664062 7.4375 -4.46875 C 7.9375 -5.28125 8.269531 -6.117188 8.4375 -6.984375 L 8.84375 -7.234375 C 8.625 -6.828125 8.328125 -6.453125 7.953125 -6.109375 C 7.578125 -5.773438 7.15625 -5.515625 6.6875 -5.328125 C 6.21875 -5.140625 5.703125 -5.046875 5.140625 -5.046875 C 4.316406 -5.046875 3.601562 -5.25 3 -5.65625 C 2.394531 -6.0625 1.929688 -6.597656 1.609375 -7.265625 C 1.285156 -7.941406 1.125 -8.671875 1.125 -9.453125 C 1.125 -10.210938 1.304688 -10.921875 1.671875 -11.578125 C 2.046875 -12.242188 2.550781 -12.78125 3.1875 -13.1875 C 3.832031 -13.59375 4.5625 -13.796875 5.375 -13.796875 Z M 5.421875 -12.671875 C 4.804688 -12.671875 4.265625 -12.535156 3.796875 -12.265625 C 3.335938 -11.992188 2.972656 -11.613281 2.703125 -11.125 C 2.441406 -10.644531 2.3125 -10.085938 2.3125 -9.453125 C 2.3125 -8.878906 2.421875 -8.335938 2.640625 -7.828125 C 2.867188 -7.328125 3.207031 -6.925781 3.65625 -6.625 C 4.113281 -6.320312 4.664062 -6.171875 5.3125 -6.171875 C 6.007812 -6.171875 6.601562 -6.320312 7.09375 -6.625 C 7.59375 -6.925781 7.976562 -7.328125 8.25 -7.828125 C 8.519531 -8.335938 8.65625 -8.898438 8.65625 -9.515625 C 8.65625 -10.066406 8.523438 -10.582031 8.265625 -11.0625 C 8.003906 -11.539062 7.632812 -11.925781 7.15625 -12.21875 C 6.675781 -12.519531 6.097656 -12.671875 5.421875 -12.671875 Z M 5.421875 -12.671875 "/></g></g></g></g></g><g transform="matrix(1, 0, 0, 1, 505, 151)"><g clip-path="url(#6978f64fc4)"><g fill="#201f1f" fill-opacity="1"><g transform="translate(1.020408, 20.106039)"><g><path d="M 4.390625 0 C 4.203125 0 4.050781 -0.0546875 3.9375 -0.171875 C 3.820312 -0.285156 3.765625 -0.421875 3.765625 -0.578125 L 3.765625 -12.265625 L 3.984375 -12.078125 L 1.390625 -10.34375 C 1.285156 -10.269531 1.175781 -10.234375 1.0625 -10.234375 C 0.90625 -10.234375 0.765625 -10.296875 0.640625 -10.421875 C 0.523438 -10.546875 0.46875 -10.6875 0.46875 -10.84375 C 0.46875 -11.050781 0.570312 -11.210938 0.78125 -11.328125 L 4.015625 -13.484375 C 4.097656 -13.535156 4.179688 -13.566406 4.265625 -13.578125 C 4.347656 -13.597656 4.421875 -13.597656 4.484375 -13.578125 C 4.648438 -13.566406 4.773438 -13.503906 4.859375 -13.390625 C 4.953125 -13.285156 5 -13.15625 5 -13 L 5 -0.578125 C 5 -0.421875 4.941406 -0.285156 4.828125 -0.171875 C 4.710938 -0.0546875 4.566406 0 4.390625 0 Z M 4.390625 0 "/></g></g></g><g fill="#201f1f" fill-opacity="1"><g transform="translate(8.196655, 20.106039)"><g><path d="M 5.765625 0.1875 C 4.734375 0.1875 3.863281 -0.117188 3.15625 -0.734375 C 2.457031 -1.359375 1.929688 -2.195312 1.578125 -3.25 C 1.234375 -4.300781 1.0625 -5.484375 1.0625 -6.796875 C 1.0625 -8.109375 1.234375 -9.289062 1.578125 -10.34375 C 1.929688 -11.40625 2.457031 -12.242188 3.15625 -12.859375 C 3.863281 -13.472656 4.734375 -13.78125 5.765625 -13.78125 C 6.828125 -13.78125 7.703125 -13.472656 8.390625 -12.859375 C 9.085938 -12.242188 9.609375 -11.40625 9.953125 -10.34375 C 10.304688 -9.289062 10.484375 -8.109375 10.484375 -6.796875 C 10.484375 -5.484375 10.304688 -4.300781 9.953125 -3.25 C 9.609375 -2.195312 9.085938 -1.359375 8.390625 -0.734375 C 7.703125 -0.117188 6.828125 0.1875 5.765625 0.1875 Z M 5.765625 -1.015625 C 6.523438 -1.015625 7.160156 -1.25 7.671875 -1.71875 C 8.179688 -2.195312 8.566406 -2.875 8.828125 -3.75 C 9.097656 -4.625 9.234375 -5.640625 9.234375 -6.796875 C 9.234375 -7.953125 9.097656 -8.96875 8.828125 -9.84375 C 8.566406 -10.71875 8.179688 -11.394531 7.671875 -11.875 C 7.160156 -12.351562 6.523438 -12.59375 5.765625 -12.59375 C 5.015625 -12.59375 4.382812 -12.351562 3.875 -11.875 C 3.363281 -11.394531 2.972656 -10.71875 2.703125 -9.84375 C 2.441406 -8.96875 2.3125 -7.953125 2.3125 -6.796875 C 2.3125 -5.640625 2.441406 -4.625 2.703125 -3.75 C 2.972656 -2.875 3.363281 -2.195312 3.875 -1.71875 C 4.382812 -1.25 5.015625 -1.015625 5.765625 -1.015625 Z M 5.765625 -1.015625 "/></g></g></g></g></g><g transform="matrix(1, 0, 0, 1, 631, 151)"><g clip-path="url(#1579c66fe4)"><g fill="#201f1f" fill-opacity="1"><g transform="translate(0.844797, 20.106039)"><g><path d="M 4.390625 0 C 4.203125 0 4.050781 -0.0546875 3.9375 -0.171875 C 3.820312 -0.285156 3.765625 -0.421875 3.765625 -0.578125 L 3.765625 -12.265625 L 3.984375 -12.078125 L 1.390625 -10.34375 C 1.285156 -10.269531 1.175781 -10.234375 1.0625 -10.234375 C 0.90625 -10.234375 0.765625 -10.296875 0.640625 -10.421875 C 0.523438 -10.546875 0.46875 -10.6875 0.46875 -10.84375 C 0.46875 -11.050781 0.570312 -11.210938 0.78125 -11.328125 L 4.015625 -13.484375 C 4.097656 -13.535156 4.179688 -13.566406 4.265625 -13.578125 C 4.347656 -13.597656 4.421875 -13.597656 4.484375 -13.578125 C 4.648438 -13.566406 4.773438 -13.503906 4.859375 -13.390625 C 4.953125 -13.285156 5 -13.15625 5 -13 L 5 -0.578125 C 5 -0.421875 4.941406 -0.285156 4.828125 -0.171875 C 4.710938 -0.0546875 4.566406 0 4.390625 0 Z M 4.390625 0 "/></g></g></g><g fill="#201f1f" fill-opacity="1"><g transform="translate(8.021043, 20.106039)"><g><path d="M 4.390625 0 C 4.203125 0 4.050781 -0.0546875 3.9375 -0.171875 C 3.820312 -0.285156 3.765625 -0.421875 3.765625 -0.578125 L 3.765625 -12.265625 L 3.984375 -12.078125 L 1.390625 -10.34375 C 1.285156 -10.269531 1.175781 -10.234375 1.0625 -10.234375 C 0.90625 -10.234375 0.765625 -10.296875 0.640625 -10.421875 C 0.523438 -10.546875 0.46875 -10.6875 0.46875 -10.84375 C 0.46875 -11.050781 0.570312 -11.210938 0.78125 -11.328125 L 4.015625 -13.484375 C 4.097656 -13.535156 4.179688 -13.566406 4.265625 -13.578125 C 4.347656 -13.597656 4.421875 -13.597656 4.484375 -13.578125 C 4.648438 -13.566406 4.773438 -13.503906 4.859375 -13.390625 C 4.953125 -13.285156 5 -13.15625 5 -13 L 5 -0.578125 C 5 -0.421875 4.941406 -0.285156 4.828125 -0.171875 C 4.710938 -0.0546875 4.566406 0 4.390625 0 Z M 4.390625 0 "/></g></g></g></g></g><g transform="matrix(1, 0, 0, 1, 757, 151)"><g clip-path="url(#7d9ee7b06b)"><g fill="#201f1f" fill-opacity="1"><g transform="translate(0.669185, 20.106039)"><g><path d="M 4.390625 0 C 4.203125 0 4.050781 -0.0546875 3.9375 -0.171875 C 3.820312 -0.285156 3.765625 -0.421875 3.765625 -0.578125 L 3.765625 -12.265625 L 3.984375 -12.078125 L 1.390625 -10.34375 C 1.285156 -10.269531 1.175781 -10.234375 1.0625 -10.234375 C 0.90625 -10.234375 0.765625 -10.296875 0.640625 -10.421875 C 0.523438 -10.546875 0.46875 -10.6875 0.46875 -10.84375 C 0.46875 -11.050781 0.570312 -11.210938 0.78125 -11.328125 L 4.015625 -13.484375 C 4.097656 -13.535156 4.179688 -13.566406 4.265625 -13.578125 C 4.347656 -13.597656 4.421875 -13.597656 4.484375 -13.578125 C 4.648438 -13.566406 4.773438 -13.503906 4.859375 -13.390625 C 4.953125 -13.285156 5 -13.15625 5 -13 L 5 -0.578125 C 5 -0.421875 4.941406 -0.285156 4.828125 -0.171875 C 4.710938 -0.0546875 4.566406 0 4.390625 0 Z M 4.390625 0 "/></g></g></g><g fill="#201f1f" fill-opacity="1"><g transform="translate(7.845432, 20.106039)"><g><path d="M 9.203125 -1.125 C 9.359375 -1.125 9.488281 -1.066406 9.59375 -0.953125 C 9.707031 -0.847656 9.765625 -0.71875 9.765625 -0.5625 C 9.765625 -0.394531 9.707031 -0.257812 9.59375 -0.15625 C 9.488281 -0.0507812 9.359375 0 9.203125 0 L 1.921875 0 C 1.753906 0 1.609375 -0.046875 1.484375 -0.140625 C 1.359375 -0.242188 1.296875 -0.390625 1.296875 -0.578125 C 1.296875 -0.722656 1.347656 -0.859375 1.453125 -0.984375 L 5.9375 -5.9375 C 6.644531 -6.71875 7.175781 -7.429688 7.53125 -8.078125 C 7.894531 -8.734375 8.078125 -9.320312 8.078125 -9.84375 C 8.078125 -10.695312 7.816406 -11.378906 7.296875 -11.890625 C 6.773438 -12.410156 6.078125 -12.671875 5.203125 -12.671875 C 4.796875 -12.671875 4.394531 -12.585938 4 -12.421875 C 3.613281 -12.253906 3.265625 -12.035156 2.953125 -11.765625 C 2.648438 -11.492188 2.414062 -11.179688 2.25 -10.828125 C 2.175781 -10.703125 2.09375 -10.613281 2 -10.5625 C 1.914062 -10.507812 1.828125 -10.484375 1.734375 -10.484375 C 1.578125 -10.484375 1.4375 -10.53125 1.3125 -10.625 C 1.195312 -10.71875 1.140625 -10.835938 1.140625 -10.984375 C 1.140625 -11.078125 1.160156 -11.164062 1.203125 -11.25 C 1.253906 -11.34375 1.328125 -11.445312 1.421875 -11.5625 C 1.648438 -11.96875 1.972656 -12.335938 2.390625 -12.671875 C 2.804688 -13.003906 3.269531 -13.269531 3.78125 -13.46875 C 4.289062 -13.675781 4.789062 -13.78125 5.28125 -13.78125 C 6.101562 -13.78125 6.816406 -13.617188 7.421875 -13.296875 C 8.023438 -12.984375 8.488281 -12.535156 8.8125 -11.953125 C 9.144531 -11.378906 9.3125 -10.703125 9.3125 -9.921875 C 9.3125 -9.242188 9.097656 -8.503906 8.671875 -7.703125 C 8.253906 -6.910156 7.632812 -6.054688 6.8125 -5.140625 L 3.03125 -0.890625 L 2.828125 -1.125 Z M 9.203125 -1.125 "/></g></g></g></g></g><g transform="matrix(1, 0, 0, 1, 2, 301)"><g clip-path="url(#f5d9925b95)"><g fill="#201f1f" fill-opacity="1"><g transform="translate(0.722956, 19.815392)"><g><path d="M 4.390625 0 C 4.203125 0 4.050781 -0.0546875 3.9375 -0.171875 C 3.820312 -0.285156 3.765625 -0.421875 3.765625 -0.578125 L 3.765625 -12.265625 L 3.984375 -12.078125 L 1.390625 -10.34375 C 1.285156 -10.269531 1.175781 -10.234375 1.0625 -10.234375 C 0.90625 -10.234375 0.765625 -10.296875 0.640625 -10.421875 C 0.523438 -10.546875 0.46875 -10.6875 0.46875 -10.84375 C 0.46875 -11.050781 0.570312 -11.210938 0.78125 -11.328125 L 4.015625 -13.484375 C 4.097656 -13.535156 4.179688 -13.566406 4.265625 -13.578125 C 4.347656 -13.597656 4.421875 -13.597656 4.484375 -13.578125 C 4.648438 -13.566406 4.773438 -13.503906 4.859375 -13.390625 C 4.953125 -13.285156 5 -13.15625 5 -13 L 5 -0.578125 C 5 -0.421875 4.941406 -0.285156 4.828125 -0.171875 C 4.710938 -0.0546875 4.566406 0 4.390625 0 Z M 4.390625 0 "/></g></g></g><g fill="#201f1f" fill-opacity="1"><g transform="translate(7.899203, 19.815392)"><g><path d="M 1.734375 -2 C 1.796875 -2 1.859375 -1.984375 1.921875 -1.953125 C 1.992188 -1.929688 2.082031 -1.875 2.1875 -1.78125 C 2.457031 -1.5 2.78125 -1.28125 3.15625 -1.125 C 3.53125 -0.976562 3.957031 -0.90625 4.4375 -0.90625 C 5.070312 -0.90625 5.648438 -1.046875 6.171875 -1.328125 C 6.703125 -1.617188 7.117188 -2.019531 7.421875 -2.53125 C 7.734375 -3.039062 7.890625 -3.625 7.890625 -4.28125 C 7.890625 -5.039062 7.722656 -5.648438 7.390625 -6.109375 C 7.066406 -6.566406 6.648438 -6.90625 6.140625 -7.125 C 5.628906 -7.351562 5.109375 -7.46875 4.578125 -7.46875 C 4.429688 -7.46875 4.289062 -7.457031 4.15625 -7.4375 C 4.019531 -7.414062 3.894531 -7.390625 3.78125 -7.359375 C 3.664062 -7.335938 3.578125 -7.328125 3.515625 -7.328125 C 3.347656 -7.328125 3.21875 -7.382812 3.125 -7.5 C 3.03125 -7.613281 2.984375 -7.753906 2.984375 -7.921875 C 2.984375 -8.003906 3.003906 -8.082031 3.046875 -8.15625 C 3.085938 -8.226562 3.140625 -8.3125 3.203125 -8.40625 L 7.140625 -12.6875 L 7.375 -12.375 L 1.5 -12.375 C 1.34375 -12.375 1.207031 -12.429688 1.09375 -12.546875 C 0.988281 -12.660156 0.9375 -12.789062 0.9375 -12.9375 C 0.9375 -13.09375 0.988281 -13.222656 1.09375 -13.328125 C 1.207031 -13.429688 1.34375 -13.484375 1.5 -13.484375 L 8.015625 -13.484375 C 8.234375 -13.484375 8.382812 -13.414062 8.46875 -13.28125 C 8.5625 -13.144531 8.609375 -13.015625 8.609375 -12.890625 C 8.609375 -12.804688 8.585938 -12.726562 8.546875 -12.65625 C 8.515625 -12.59375 8.46875 -12.519531 8.40625 -12.4375 L 4.46875 -8.15625 L 4.03125 -8.40625 C 4.070312 -8.445312 4.207031 -8.488281 4.4375 -8.53125 C 4.664062 -8.570312 4.84375 -8.59375 4.96875 -8.59375 C 5.675781 -8.59375 6.34375 -8.425781 6.96875 -8.09375 C 7.601562 -7.757812 8.117188 -7.273438 8.515625 -6.640625 C 8.910156 -6.015625 9.109375 -5.242188 9.109375 -4.328125 C 9.109375 -3.421875 8.894531 -2.628906 8.46875 -1.953125 C 8.039062 -1.273438 7.460938 -0.75 6.734375 -0.375 C 6.003906 0 5.203125 0.1875 4.328125 0.1875 C 3.796875 0.1875 3.269531 0.0976562 2.75 -0.078125 C 2.238281 -0.253906 1.785156 -0.523438 1.390625 -0.890625 C 1.304688 -0.972656 1.242188 -1.050781 1.203125 -1.125 C 1.160156 -1.195312 1.140625 -1.273438 1.140625 -1.359375 C 1.140625 -1.515625 1.191406 -1.660156 1.296875 -1.796875 C 1.410156 -1.929688 1.554688 -2 1.734375 -2 Z M 1.734375 -2 "/></g></g></g></g></g><g transform="matrix(1, 0, 0, 1, 128, 301)"><g clip-path="url(#45345c0034)"><g fill="#201f1f" fill-opacity="1"><g transform="translate(0.547331, 19.815392)"><g><path d="M 4.390625 0 C 4.203125 0 4.050781 -0.0546875 3.9375 -0.171875 C 3.820312 -0.285156 3.765625 -0.421875 3.765625 -0.578125 L 3.765625 -12.265625 L 3.984375 -12.078125 L 1.390625 -10.34375 C 1.285156 -10.269531 1.175781 -10.234375 1.0625 -10.234375 C 0.90625 -10.234375 0.765625 -10.296875 0.640625 -10.421875 C 0.523438 -10.546875 0.46875 -10.6875 0.46875 -10.84375 C 0.46875 -11.050781 0.570312 -11.210938 0.78125 -11.328125 L 4.015625 -13.484375 C 4.097656 -13.535156 4.179688 -13.566406 4.265625 -13.578125 C 4.347656 -13.597656 4.421875 -13.597656 4.484375 -13.578125 C 4.648438 -13.566406 4.773438 -13.503906 4.859375 -13.390625 C 4.953125 -13.285156 5 -13.15625 5 -13 L 5 -0.578125 C 5 -0.421875 4.941406 -0.285156 4.828125 -0.171875 C 4.710938 -0.0546875 4.566406 0 4.390625 0 Z M 4.390625 0 "/></g></g></g><g fill="#201f1f" fill-opacity="1"><g transform="translate(7.723578, 19.815392)"><g><path d="M 7.125 0 C 6.957031 0 6.820312 -0.0546875 6.71875 -0.171875 C 6.613281 -0.285156 6.5625 -0.421875 6.5625 -0.578125 L 6.5625 -11.96875 L 6.8125 -11.8125 L 1.703125 -5.0625 L 1.65625 -5.28125 L 9.109375 -5.28125 C 9.253906 -5.28125 9.382812 -5.226562 9.5 -5.125 C 9.613281 -5.019531 9.671875 -4.890625 9.671875 -4.734375 C 9.671875 -4.578125 9.613281 -4.445312 9.5 -4.34375 C 9.382812 -4.238281 9.253906 -4.1875 9.109375 -4.1875 L 0.859375 -4.1875 C 0.703125 -4.1875 0.5625 -4.25 0.4375 -4.375 C 0.320312 -4.5 0.265625 -4.640625 0.265625 -4.796875 C 0.265625 -4.929688 0.3125 -5.0625 0.40625 -5.1875 L 6.65625 -13.34375 C 6.71875 -13.4375 6.796875 -13.5 6.890625 -13.53125 C 6.992188 -13.5625 7.078125 -13.578125 7.140625 -13.578125 C 7.304688 -13.578125 7.441406 -13.519531 7.546875 -13.40625 C 7.660156 -13.289062 7.71875 -13.15625 7.71875 -13 L 7.71875 -0.578125 C 7.71875 -0.421875 7.660156 -0.285156 7.546875 -0.171875 C 7.429688 -0.0546875 7.289062 0 7.125 0 Z M 7.125 0 "/></g></g></g></g></g><g transform="matrix(1, 0, 0, 1, 254, 301)"><g clip-path="url(#58706028b1)"><g clip-path="url(#28fc434aea)"><g fill="#201f1f" fill-opacity="1"><g transform="translate(0.37169, 19.815392)"><g><path d="M 4.390625 0 C 4.203125 0 4.050781 -0.0546875 3.9375 -0.171875 C 3.820312 -0.285156 3.765625 -0.421875 3.765625 -0.578125 L 3.765625 -12.265625 L 3.984375 -12.078125 L 1.390625 -10.34375 C 1.285156 -10.269531 1.175781 -10.234375 1.0625 -10.234375 C 0.90625 -10.234375 0.765625 -10.296875 0.640625 -10.421875 C 0.523438 -10.546875 0.46875 -10.6875 0.46875 -10.84375 C 0.46875 -11.050781 0.570312 -11.210938 0.78125 -11.328125 L 4.015625 -13.484375 C 4.097656 -13.535156 4.179688 -13.566406 4.265625 -13.578125 C 4.347656 -13.597656 4.421875 -13.597656 4.484375 -13.578125 C 4.648438 -13.566406 4.773438 -13.503906 4.859375 -13.390625 C 4.953125 -13.285156 5 -13.15625 5 -13 L 5 -0.578125 C 5 -0.421875 4.941406 -0.285156 4.828125 -0.171875 C 4.710938 -0.0546875 4.566406 0 4.390625 0 Z M 4.390625 0 "/></g></g></g></g><g fill="#201f1f" fill-opacity="1"><g transform="translate(7.547937, 19.815392)"><g><path d="M 4.546875 0.03125 C 4.015625 0.03125 3.476562 -0.0507812 2.9375 -0.21875 C 2.40625 -0.394531 1.929688 -0.660156 1.515625 -1.015625 C 1.429688 -1.078125 1.367188 -1.148438 1.328125 -1.234375 C 1.285156 -1.328125 1.265625 -1.421875 1.265625 -1.515625 C 1.265625 -1.640625 1.316406 -1.765625 1.421875 -1.890625 C 1.523438 -2.015625 1.660156 -2.078125 1.828125 -2.078125 C 1.960938 -2.078125 2.101562 -2.019531 2.25 -1.90625 C 2.582031 -1.644531 2.945312 -1.441406 3.34375 -1.296875 C 3.738281 -1.160156 4.140625 -1.09375 4.546875 -1.09375 C 5.304688 -1.09375 5.96875 -1.234375 6.53125 -1.515625 C 7.101562 -1.804688 7.546875 -2.222656 7.859375 -2.765625 C 8.171875 -3.304688 8.328125 -3.929688 8.328125 -4.640625 C 8.328125 -5.296875 8.179688 -5.863281 7.890625 -6.34375 C 7.609375 -6.832031 7.207031 -7.21875 6.6875 -7.5 C 6.164062 -7.78125 5.546875 -7.921875 4.828125 -7.921875 C 4.367188 -7.921875 3.945312 -7.847656 3.5625 -7.703125 C 3.175781 -7.554688 2.84375 -7.410156 2.5625 -7.265625 C 2.289062 -7.117188 2.070312 -7.046875 1.90625 -7.046875 C 1.75 -7.046875 1.617188 -7.082031 1.515625 -7.15625 C 1.421875 -7.238281 1.359375 -7.335938 1.328125 -7.453125 C 1.296875 -7.566406 1.289062 -7.691406 1.3125 -7.828125 L 2.15625 -13 C 2.164062 -13.113281 2.222656 -13.21875 2.328125 -13.3125 C 2.441406 -13.414062 2.582031 -13.46875 2.75 -13.46875 L 8.59375 -13.46875 C 8.75 -13.46875 8.878906 -13.410156 8.984375 -13.296875 C 9.097656 -13.191406 9.15625 -13.0625 9.15625 -12.90625 C 9.15625 -12.738281 9.097656 -12.597656 8.984375 -12.484375 C 8.878906 -12.378906 8.75 -12.328125 8.59375 -12.328125 L 3.03125 -12.328125 L 3.203125 -12.5 L 2.40625 -7.890625 L 2.0625 -8.15625 C 2.226562 -8.28125 2.46875 -8.40625 2.78125 -8.53125 C 3.101562 -8.664062 3.457031 -8.78125 3.84375 -8.875 C 4.238281 -8.976562 4.660156 -9.03125 5.109375 -9.03125 C 5.941406 -9.03125 6.6875 -8.84375 7.34375 -8.46875 C 8.007812 -8.101562 8.53125 -7.59375 8.90625 -6.9375 C 9.289062 -6.28125 9.484375 -5.523438 9.484375 -4.671875 C 9.484375 -3.734375 9.28125 -2.910156 8.875 -2.203125 C 8.46875 -1.492188 7.894531 -0.941406 7.15625 -0.546875 C 6.425781 -0.160156 5.554688 0.03125 4.546875 0.03125 Z M 4.546875 0.03125 "/></g></g></g></g></g><g transform="matrix(1, 0, 0, 1, 380, 301)"><g clip-path="url(#87c695d953)"><g clip-path="url(#d7a85311c9)"><g fill="#201f1f" fill-opacity="1"><g transform="translate(0.196049, 19.815392)"><g><path d="M 4.390625 0 C 4.203125 0 4.050781 -0.0546875 3.9375 -0.171875 C 3.820312 -0.285156 3.765625 -0.421875 3.765625 -0.578125 L 3.765625 -12.265625 L 3.984375 -12.078125 L 1.390625 -10.34375 C 1.285156 -10.269531 1.175781 -10.234375 1.0625 -10.234375 C 0.90625 -10.234375 0.765625 -10.296875 0.640625 -10.421875 C 0.523438 -10.546875 0.46875 -10.6875 0.46875 -10.84375 C 0.46875 -11.050781 0.570312 -11.210938 0.78125 -11.328125 L 4.015625 -13.484375 C 4.097656 -13.535156 4.179688 -13.566406 4.265625 -13.578125 C 4.347656 -13.597656 4.421875 -13.597656 4.484375 -13.578125 C 4.648438 -13.566406 4.773438 -13.503906 4.859375 -13.390625 C 4.953125 -13.285156 5 -13.15625 5 -13 L 5 -0.578125 C 5 -0.421875 4.941406 -0.285156 4.828125 -0.171875 C 4.710938 -0.0546875 4.566406 0 4.390625 0 Z M 4.390625 0 "/></g></g></g></g><g fill="#201f1f" fill-opacity="1"><g transform="translate(7.372296, 19.815392)"><g><path d="M 5.5625 0.1875 C 4.8125 0.1875 4.15625 0.0507812 3.59375 -0.21875 C 3.03125 -0.488281 2.566406 -0.851562 2.203125 -1.3125 C 1.835938 -1.769531 1.566406 -2.289062 1.390625 -2.875 C 1.210938 -3.457031 1.125 -4.050781 1.125 -4.65625 C 1.125 -5.28125 1.203125 -5.953125 1.359375 -6.671875 C 1.515625 -7.390625 1.753906 -8.113281 2.078125 -8.84375 C 2.398438 -9.582031 2.796875 -10.28125 3.265625 -10.9375 C 3.742188 -11.601562 4.296875 -12.195312 4.921875 -12.71875 C 5.546875 -13.238281 6.253906 -13.648438 7.046875 -13.953125 C 7.140625 -13.972656 7.21875 -13.984375 7.28125 -13.984375 C 7.445312 -13.984375 7.585938 -13.9375 7.703125 -13.84375 C 7.828125 -13.757812 7.890625 -13.609375 7.890625 -13.390625 C 7.890625 -13.265625 7.847656 -13.148438 7.765625 -13.046875 C 7.679688 -12.953125 7.570312 -12.878906 7.4375 -12.828125 C 6.894531 -12.597656 6.359375 -12.269531 5.828125 -11.84375 C 5.296875 -11.414062 4.800781 -10.921875 4.34375 -10.359375 C 3.894531 -9.804688 3.507812 -9.207031 3.1875 -8.5625 C 2.875 -7.925781 2.648438 -7.28125 2.515625 -6.625 L 2.09375 -6.359375 C 2.320312 -6.785156 2.617188 -7.164062 2.984375 -7.5 C 3.359375 -7.832031 3.785156 -8.097656 4.265625 -8.296875 C 4.742188 -8.492188 5.265625 -8.59375 5.828125 -8.59375 C 6.398438 -8.59375 6.929688 -8.46875 7.421875 -8.21875 C 7.921875 -7.976562 8.347656 -7.644531 8.703125 -7.21875 C 9.054688 -6.800781 9.332031 -6.328125 9.53125 -5.796875 C 9.738281 -5.265625 9.84375 -4.71875 9.84375 -4.15625 C 9.84375 -3.394531 9.65625 -2.679688 9.28125 -2.015625 C 8.914062 -1.359375 8.410156 -0.828125 7.765625 -0.421875 C 7.128906 -0.015625 6.394531 0.1875 5.5625 0.1875 Z M 5.546875 -0.9375 C 6.140625 -0.9375 6.671875 -1.070312 7.140625 -1.34375 C 7.609375 -1.613281 7.972656 -1.988281 8.234375 -2.46875 C 8.503906 -2.957031 8.640625 -3.519531 8.640625 -4.15625 C 8.640625 -4.738281 8.523438 -5.273438 8.296875 -5.765625 C 8.066406 -6.265625 7.726562 -6.671875 7.28125 -6.984375 C 6.84375 -7.304688 6.289062 -7.46875 5.625 -7.46875 C 4.9375 -7.46875 4.34375 -7.3125 3.84375 -7 C 3.351562 -6.695312 2.972656 -6.285156 2.703125 -5.765625 C 2.441406 -5.253906 2.3125 -4.695312 2.3125 -4.09375 C 2.3125 -3.550781 2.4375 -3.035156 2.6875 -2.546875 C 2.945312 -2.066406 3.320312 -1.675781 3.8125 -1.375 C 4.300781 -1.082031 4.878906 -0.9375 5.546875 -0.9375 Z M 5.546875 -0.9375 "/></g></g></g></g></g><g transform="matrix(1, 0, 0, 1, 505, 301)"><g clip-path="url(#d48ed7fe90)"><g fill="#201f1f" fill-opacity="1"><g transform="translate(1.020408, 19.815392)"><g><path d="M 4.390625 0 C 4.203125 0 4.050781 -0.0546875 3.9375 -0.171875 C 3.820312 -0.285156 3.765625 -0.421875 3.765625 -0.578125 L 3.765625 -12.265625 L 3.984375 -12.078125 L 1.390625 -10.34375 C 1.285156 -10.269531 1.175781 -10.234375 1.0625 -10.234375 C 0.90625 -10.234375 0.765625 -10.296875 0.640625 -10.421875 C 0.523438 -10.546875 0.46875 -10.6875 0.46875 -10.84375 C 0.46875 -11.050781 0.570312 -11.210938 0.78125 -11.328125 L 4.015625 -13.484375 C 4.097656 -13.535156 4.179688 -13.566406 4.265625 -13.578125 C 4.347656 -13.597656 4.421875 -13.597656 4.484375 -13.578125 C 4.648438 -13.566406 4.773438 -13.503906 4.859375 -13.390625 C 4.953125 -13.285156 5 -13.15625 5 -13 L 5 -0.578125 C 5 -0.421875 4.941406 -0.285156 4.828125 -0.171875 C 4.710938 -0.0546875 4.566406 0 4.390625 0 Z M 4.390625 0 "/></g></g></g><g fill="#201f1f" fill-opacity="1"><g transform="translate(8.196655, 19.815392)"><g><path d="M 3.453125 0.0625 C 3.296875 0.0625 3.148438 0.0078125 3.015625 -0.09375 C 2.890625 -0.195312 2.828125 -0.328125 2.828125 -0.484375 C 2.828125 -0.578125 2.847656 -0.675781 2.890625 -0.78125 L 8.046875 -12.640625 L 8.265625 -12.359375 L 1.703125 -12.359375 C 1.546875 -12.359375 1.410156 -12.410156 1.296875 -12.515625 C 1.191406 -12.628906 1.140625 -12.765625 1.140625 -12.921875 C 1.140625 -13.085938 1.191406 -13.222656 1.296875 -13.328125 C 1.410156 -13.429688 1.546875 -13.484375 1.703125 -13.484375 L 8.828125 -13.484375 C 9.023438 -13.484375 9.164062 -13.429688 9.25 -13.328125 C 9.34375 -13.222656 9.390625 -13.09375 9.390625 -12.9375 C 9.390625 -12.832031 9.367188 -12.738281 9.328125 -12.65625 L 4 -0.328125 C 3.957031 -0.210938 3.882812 -0.117188 3.78125 -0.046875 C 3.675781 0.0234375 3.566406 0.0625 3.453125 0.0625 Z M 3.453125 0.0625 "/></g></g></g></g></g><g transform="matrix(1, 0, 0, 1, 631, 301)"><g clip-path="url(#5aac55f728)"><g fill="#201f1f" fill-opacity="1"><g transform="translate(0.844797, 19.815392)"><g><path d="M 4.390625 0 C 4.203125 0 4.050781 -0.0546875 3.9375 -0.171875 C 3.820312 -0.285156 3.765625 -0.421875 3.765625 -0.578125 L 3.765625 -12.265625 L 3.984375 -12.078125 L 1.390625 -10.34375 C 1.285156 -10.269531 1.175781 -10.234375 1.0625 -10.234375 C 0.90625 -10.234375 0.765625 -10.296875 0.640625 -10.421875 C 0.523438 -10.546875 0.46875 -10.6875 0.46875 -10.84375 C 0.46875 -11.050781 0.570312 -11.210938 0.78125 -11.328125 L 4.015625 -13.484375 C 4.097656 -13.535156 4.179688 -13.566406 4.265625 -13.578125 C 4.347656 -13.597656 4.421875 -13.597656 4.484375 -13.578125 C 4.648438 -13.566406 4.773438 -13.503906 4.859375 -13.390625 C 4.953125 -13.285156 5 -13.15625 5 -13 L 5 -0.578125 C 5 -0.421875 4.941406 -0.285156 4.828125 -0.171875 C 4.710938 -0.0546875 4.566406 0 4.390625 0 Z M 4.390625 0 "/></g></g></g><g fill="#201f1f" fill-opacity="1"><g transform="translate(8.021043, 19.815392)"><g><path d="M 7.0625 -6.828125 L 7 -7 C 7.445312 -6.832031 7.847656 -6.582031 8.203125 -6.25 C 8.566406 -5.925781 8.859375 -5.539062 9.078125 -5.09375 C 9.296875 -4.644531 9.40625 -4.15625 9.40625 -3.625 C 9.40625 -2.925781 9.222656 -2.289062 8.859375 -1.71875 C 8.492188 -1.15625 7.992188 -0.703125 7.359375 -0.359375 C 6.722656 -0.0234375 6.015625 0.140625 5.234375 0.140625 C 4.453125 0.140625 3.742188 -0.0234375 3.109375 -0.359375 C 2.484375 -0.703125 1.984375 -1.15625 1.609375 -1.71875 C 1.242188 -2.289062 1.0625 -2.925781 1.0625 -3.625 C 1.0625 -4.195312 1.175781 -4.707031 1.40625 -5.15625 C 1.632812 -5.601562 1.929688 -5.976562 2.296875 -6.28125 C 2.671875 -6.59375 3.054688 -6.832031 3.453125 -7 L 3.390625 -6.8125 C 3.046875 -6.976562 2.71875 -7.207031 2.40625 -7.5 C 2.101562 -7.789062 1.851562 -8.140625 1.65625 -8.546875 C 1.46875 -8.953125 1.375 -9.398438 1.375 -9.890625 C 1.375 -10.585938 1.546875 -11.210938 1.890625 -11.765625 C 2.234375 -12.328125 2.695312 -12.769531 3.28125 -13.09375 C 3.875 -13.414062 4.523438 -13.578125 5.234375 -13.578125 C 5.953125 -13.578125 6.597656 -13.414062 7.171875 -13.09375 C 7.742188 -12.769531 8.203125 -12.328125 8.546875 -11.765625 C 8.890625 -11.210938 9.0625 -10.585938 9.0625 -9.890625 C 9.0625 -9.390625 8.960938 -8.9375 8.765625 -8.53125 C 8.578125 -8.132812 8.328125 -7.789062 8.015625 -7.5 C 7.703125 -7.207031 7.382812 -6.984375 7.0625 -6.828125 Z M 2.578125 -9.890625 C 2.578125 -9.378906 2.695312 -8.925781 2.9375 -8.53125 C 3.1875 -8.144531 3.507812 -7.84375 3.90625 -7.625 C 4.3125 -7.40625 4.753906 -7.296875 5.234375 -7.296875 C 5.703125 -7.296875 6.132812 -7.40625 6.53125 -7.625 C 6.9375 -7.84375 7.257812 -8.144531 7.5 -8.53125 C 7.738281 -8.925781 7.859375 -9.378906 7.859375 -9.890625 C 7.859375 -10.660156 7.613281 -11.285156 7.125 -11.765625 C 6.632812 -12.242188 6.003906 -12.484375 5.234375 -12.484375 C 4.453125 -12.484375 3.8125 -12.242188 3.3125 -11.765625 C 2.820312 -11.285156 2.578125 -10.660156 2.578125 -9.890625 Z M 5.234375 -0.96875 C 6.117188 -0.96875 6.832031 -1.21875 7.375 -1.71875 C 7.925781 -2.226562 8.203125 -2.863281 8.203125 -3.625 C 8.203125 -4.144531 8.066406 -4.609375 7.796875 -5.015625 C 7.523438 -5.429688 7.160156 -5.753906 6.703125 -5.984375 C 6.253906 -6.222656 5.765625 -6.34375 5.234375 -6.34375 C 4.703125 -6.34375 4.207031 -6.222656 3.75 -5.984375 C 3.300781 -5.753906 2.941406 -5.429688 2.671875 -5.015625 C 2.398438 -4.609375 2.265625 -4.144531 2.265625 -3.625 C 2.265625 -2.863281 2.535156 -2.226562 3.078125 -1.71875 C 3.628906 -1.21875 4.347656 -0.96875 5.234375 -0.96875 Z M 5.234375 -0.96875 "/></g></g></g></g></g><g transform="matrix(1, 0, 0, 1, 757, 301)"><g clip-path="url(#4e4a80c13c)"><g fill="#201f1f" fill-opacity="1"><g transform="translate(0.669185, 19.815392)"><g><path d="M 4.390625 0 C 4.203125 0 4.050781 -0.0546875 3.9375 -0.171875 C 3.820312 -0.285156 3.765625 -0.421875 3.765625 -0.578125 L 3.765625 -12.265625 L 3.984375 -12.078125 L 1.390625 -10.34375 C 1.285156 -10.269531 1.175781 -10.234375 1.0625 -10.234375 C 0.90625 -10.234375 0.765625 -10.296875 0.640625 -10.421875 C 0.523438 -10.546875 0.46875 -10.6875 0.46875 -10.84375 C 0.46875 -11.050781 0.570312 -11.210938 0.78125 -11.328125 L 4.015625 -13.484375 C 4.097656 -13.535156 4.179688 -13.566406 4.265625 -13.578125 C 4.347656 -13.597656 4.421875 -13.597656 4.484375 -13.578125 C 4.648438 -13.566406 4.773438 -13.503906 4.859375 -13.390625 C 4.953125 -13.285156 5 -13.15625 5 -13 L 5 -0.578125 C 5 -0.421875 4.941406 -0.285156 4.828125 -0.171875 C 4.710938 -0.0546875 4.566406 0 4.390625 0 Z M 4.390625 0 "/></g></g></g><g fill="#201f1f" fill-opacity="1"><g transform="translate(7.845432, 19.815392)"><g><path d="M 5.375 -13.796875 C 6.132812 -13.796875 6.796875 -13.660156 7.359375 -13.390625 C 7.921875 -13.117188 8.382812 -12.753906 8.75 -12.296875 C 9.113281 -11.835938 9.382812 -11.316406 9.5625 -10.734375 C 9.75 -10.148438 9.84375 -9.554688 9.84375 -8.953125 C 9.84375 -8.328125 9.757812 -7.660156 9.59375 -6.953125 C 9.4375 -6.253906 9.195312 -5.546875 8.875 -4.828125 C 8.5625 -4.109375 8.164062 -3.425781 7.6875 -2.78125 C 7.21875 -2.132812 6.664062 -1.550781 6.03125 -1.03125 C 5.394531 -0.507812 4.691406 -0.109375 3.921875 0.171875 C 3.816406 0.203125 3.734375 0.21875 3.671875 0.21875 C 3.515625 0.21875 3.375 0.160156 3.25 0.046875 C 3.125 -0.0546875 3.0625 -0.203125 3.0625 -0.390625 C 3.0625 -0.515625 3.097656 -0.625 3.171875 -0.71875 C 3.253906 -0.820312 3.375 -0.898438 3.53125 -0.953125 C 4.269531 -1.265625 4.976562 -1.726562 5.65625 -2.34375 C 6.34375 -2.957031 6.9375 -3.664062 7.4375 -4.46875 C 7.9375 -5.28125 8.269531 -6.117188 8.4375 -6.984375 L 8.84375 -7.234375 C 8.625 -6.828125 8.328125 -6.453125 7.953125 -6.109375 C 7.578125 -5.773438 7.15625 -5.515625 6.6875 -5.328125 C 6.21875 -5.140625 5.703125 -5.046875 5.140625 -5.046875 C 4.316406 -5.046875 3.601562 -5.25 3 -5.65625 C 2.394531 -6.0625 1.929688 -6.597656 1.609375 -7.265625 C 1.285156 -7.941406 1.125 -8.671875 1.125 -9.453125 C 1.125 -10.210938 1.304688 -10.921875 1.671875 -11.578125 C 2.046875 -12.242188 2.550781 -12.78125 3.1875 -13.1875 C 3.832031 -13.59375 4.5625 -13.796875 5.375 -13.796875 Z M 5.421875 -12.671875 C 4.804688 -12.671875 4.265625 -12.535156 3.796875 -12.265625 C 3.335938 -11.992188 2.972656 -11.613281 2.703125 -11.125 C 2.441406 -10.644531 2.3125 -10.085938 2.3125 -9.453125 C 2.3125 -8.878906 2.421875 -8.335938 2.640625 -7.828125 C 2.867188 -7.328125 3.207031 -6.925781 3.65625 -6.625 C 4.113281 -6.320312 4.664062 -6.171875 5.3125 -6.171875 C 6.007812 -6.171875 6.601562 -6.320312 7.09375 -6.625 C 7.59375 -6.925781 7.976562 -7.328125 8.25 -7.828125 C 8.519531 -8.335938 8.65625 -8.898438 8.65625 -9.515625 C 8.65625 -10.066406 8.523438 -10.582031 8.265625 -11.0625 C 8.003906 -11.539062 7.632812 -11.925781 7.15625 -12.21875 C 6.675781 -12.519531 6.097656 -12.671875 5.421875 -12.671875 Z M 5.421875 -12.671875 "/></g></g></g></g></g><g clip-path="url(#ce3a781f0c)"><g transform="matrix(1, 0, 0, 1, 2, 450)"><g clip-path="url(#6bed40f957)"><g fill="#201f1f" fill-opacity="1"><g transform="translate(0.722956, 20.524759)"><g><path d="M 9.203125 -1.125 C 9.359375 -1.125 9.488281 -1.066406 9.59375 -0.953125 C 9.707031 -0.847656 9.765625 -0.71875 9.765625 -0.5625 C 9.765625 -0.394531 9.707031 -0.257812 9.59375 -0.15625 C 9.488281 -0.0507812 9.359375 0 9.203125 0 L 1.921875 0 C 1.753906 0 1.609375 -0.046875 1.484375 -0.140625 C 1.359375 -0.242188 1.296875 -0.390625 1.296875 -0.578125 C 1.296875 -0.722656 1.347656 -0.859375 1.453125 -0.984375 L 5.9375 -5.9375 C 6.644531 -6.71875 7.175781 -7.429688 7.53125 -8.078125 C 7.894531 -8.734375 8.078125 -9.320312 8.078125 -9.84375 C 8.078125 -10.695312 7.816406 -11.378906 7.296875 -11.890625 C 6.773438 -12.410156 6.078125 -12.671875 5.203125 -12.671875 C 4.796875 -12.671875 4.394531 -12.585938 4 -12.421875 C 3.613281 -12.253906 3.265625 -12.035156 2.953125 -11.765625 C 2.648438 -11.492188 2.414062 -11.179688 2.25 -10.828125 C 2.175781 -10.703125 2.09375 -10.613281 2 -10.5625 C 1.914062 -10.507812 1.828125 -10.484375 1.734375 -10.484375 C 1.578125 -10.484375 1.4375 -10.53125 1.3125 -10.625 C 1.195312 -10.71875 1.140625 -10.835938 1.140625 -10.984375 C 1.140625 -11.078125 1.160156 -11.164062 1.203125 -11.25 C 1.253906 -11.34375 1.328125 -11.445312 1.421875 -11.5625 C 1.648438 -11.96875 1.972656 -12.335938 2.390625 -12.671875 C 2.804688 -13.003906 3.269531 -13.269531 3.78125 -13.46875 C 4.289062 -13.675781 4.789062 -13.78125 5.28125 -13.78125 C 6.101562 -13.78125 6.816406 -13.617188 7.421875 -13.296875 C 8.023438 -12.984375 8.488281 -12.535156 8.8125 -11.953125 C 9.144531 -11.378906 9.3125 -10.703125 9.3125 -9.921875 C 9.3125 -9.242188 9.097656 -8.503906 8.671875 -7.703125 C 8.253906 -6.910156 7.632812 -6.054688 6.8125 -5.140625 L 3.03125 -0.890625 L 2.828125 -1.125 Z M 9.203125 -1.125 "/></g></g></g><g fill="#201f1f" fill-opacity="1"><g transform="translate(11.467929, 20.524759)"><g><path d="M 5.765625 0.1875 C 4.734375 0.1875 3.863281 -0.117188 3.15625 -0.734375 C 2.457031 -1.359375 1.929688 -2.195312 1.578125 -3.25 C 1.234375 -4.300781 1.0625 -5.484375 1.0625 -6.796875 C 1.0625 -8.109375 1.234375 -9.289062 1.578125 -10.34375 C 1.929688 -11.40625 2.457031 -12.242188 3.15625 -12.859375 C 3.863281 -13.472656 4.734375 -13.78125 5.765625 -13.78125 C 6.828125 -13.78125 7.703125 -13.472656 8.390625 -12.859375 C 9.085938 -12.242188 9.609375 -11.40625 9.953125 -10.34375 C 10.304688 -9.289062 10.484375 -8.109375 10.484375 -6.796875 C 10.484375 -5.484375 10.304688 -4.300781 9.953125 -3.25 C 9.609375 -2.195312 9.085938 -1.359375 8.390625 -0.734375 C 7.703125 -0.117188 6.828125 0.1875 5.765625 0.1875 Z M 5.765625 -1.015625 C 6.523438 -1.015625 7.160156 -1.25 7.671875 -1.71875 C 8.179688 -2.195312 8.566406 -2.875 8.828125 -3.75 C 9.097656 -4.625 9.234375 -5.640625 9.234375 -6.796875 C 9.234375 -7.953125 9.097656 -8.96875 8.828125 -9.84375 C 8.566406 -10.71875 8.179688 -11.394531 7.671875 -11.875 C 7.160156 -12.351562 6.523438 -12.59375 5.765625 -12.59375 C 5.015625 -12.59375 4.382812 -12.351562 3.875 -11.875 C 3.363281 -11.394531 2.972656 -10.71875 2.703125 -9.84375 C 2.441406 -8.96875 2.3125 -7.953125 2.3125 -6.796875 C 2.3125 -5.640625 2.441406 -4.625 2.703125 -3.75 C 2.972656 -2.875 3.363281 -2.195312 3.875 -1.71875 C 4.382812 -1.25 5.015625 -1.015625 5.765625 -1.015625 Z M 5.765625 -1.015625 "/></g></g></g></g></g></g><g clip-path="url(#02ee3f312e)"><g transform="matrix(1, 0, 0, 1, 128, 450)"><g clip-path="url(#4c998ef20b)"><g fill="#201f1f" fill-opacity="1"><g transform="translate(0.547331, 20.524759)"><g><path d="M 9.203125 -1.125 C 9.359375 -1.125 9.488281 -1.066406 9.59375 -0.953125 C 9.707031 -0.847656 9.765625 -0.71875 9.765625 -0.5625 C 9.765625 -0.394531 9.707031 -0.257812 9.59375 -0.15625 C 9.488281 -0.0507812 9.359375 0 9.203125 0 L 1.921875 0 C 1.753906 0 1.609375 -0.046875 1.484375 -0.140625 C 1.359375 -0.242188 1.296875 -0.390625 1.296875 -0.578125 C 1.296875 -0.722656 1.347656 -0.859375 1.453125 -0.984375 L 5.9375 -5.9375 C 6.644531 -6.71875 7.175781 -7.429688 7.53125 -8.078125 C 7.894531 -8.734375 8.078125 -9.320312 8.078125 -9.84375 C 8.078125 -10.695312 7.816406 -11.378906 7.296875 -11.890625 C 6.773438 -12.410156 6.078125 -12.671875 5.203125 -12.671875 C 4.796875 -12.671875 4.394531 -12.585938 4 -12.421875 C 3.613281 -12.253906 3.265625 -12.035156 2.953125 -11.765625 C 2.648438 -11.492188 2.414062 -11.179688 2.25 -10.828125 C 2.175781 -10.703125 2.09375 -10.613281 2 -10.5625 C 1.914062 -10.507812 1.828125 -10.484375 1.734375 -10.484375 C 1.578125 -10.484375 1.4375 -10.53125 1.3125 -10.625 C 1.195312 -10.71875 1.140625 -10.835938 1.140625 -10.984375 C 1.140625 -11.078125 1.160156 -11.164062 1.203125 -11.25 C 1.253906 -11.34375 1.328125 -11.445312 1.421875 -11.5625 C 1.648438 -11.96875 1.972656 -12.335938 2.390625 -12.671875 C 2.804688 -13.003906 3.269531 -13.269531 3.78125 -13.46875 C 4.289062 -13.675781 4.789062 -13.78125 5.28125 -13.78125 C 6.101562 -13.78125 6.816406 -13.617188 7.421875 -13.296875 C 8.023438 -12.984375 8.488281 -12.535156 8.8125 -11.953125 C 9.144531 -11.378906 9.3125 -10.703125 9.3125 -9.921875 C 9.3125 -9.242188 9.097656 -8.503906 8.671875 -7.703125 C 8.253906 -6.910156 7.632812 -6.054688 6.8125 -5.140625 L 3.03125 -0.890625 L 2.828125 -1.125 Z M 9.203125 -1.125 "/></g></g></g><g fill="#201f1f" fill-opacity="1"><g transform="translate(11.292303, 20.524759)"><g><path d="M 4.390625 0 C 4.203125 0 4.050781 -0.0546875 3.9375 -0.171875 C 3.820312 -0.285156 3.765625 -0.421875 3.765625 -0.578125 L 3.765625 -12.265625 L 3.984375 -12.078125 L 1.390625 -10.34375 C 1.285156 -10.269531 1.175781 -10.234375 1.0625 -10.234375 C 0.90625 -10.234375 0.765625 -10.296875 0.640625 -10.421875 C 0.523438 -10.546875 0.46875 -10.6875 0.46875 -10.84375 C 0.46875 -11.050781 0.570312 -11.210938 0.78125 -11.328125 L 4.015625 -13.484375 C 4.097656 -13.535156 4.179688 -13.566406 4.265625 -13.578125 C 4.347656 -13.597656 4.421875 -13.597656 4.484375 -13.578125 C 4.648438 -13.566406 4.773438 -13.503906 4.859375 -13.390625 C 4.953125 -13.285156 5 -13.15625 5 -13 L 5 -0.578125 C 5 -0.421875 4.941406 -0.285156 4.828125 -0.171875 C 4.710938 -0.0546875 4.566406 0 4.390625 0 Z M 4.390625 0 "/></g></g></g></g></g></g><g clip-path="url(#f2b8a126ee)"><g transform="matrix(1, 0, 0, 1, 254, 450)"><g clip-path="url(#0ba8dc27e5)"><g fill="#201f1f" fill-opacity="1"><g transform="translate(0.37169, 20.524759)"><g><path d="M 9.203125 -1.125 C 9.359375 -1.125 9.488281 -1.066406 9.59375 -0.953125 C 9.707031 -0.847656 9.765625 -0.71875 9.765625 -0.5625 C 9.765625 -0.394531 9.707031 -0.257812 9.59375 -0.15625 C 9.488281 -0.0507812 9.359375 0 9.203125 0 L 1.921875 0 C 1.753906 0 1.609375 -0.046875 1.484375 -0.140625 C 1.359375 -0.242188 1.296875 -0.390625 1.296875 -0.578125 C 1.296875 -0.722656 1.347656 -0.859375 1.453125 -0.984375 L 5.9375 -5.9375 C 6.644531 -6.71875 7.175781 -7.429688 7.53125 -8.078125 C 7.894531 -8.734375 8.078125 -9.320312 8.078125 -9.84375 C 8.078125 -10.695312 7.816406 -11.378906 7.296875 -11.890625 C 6.773438 -12.410156 6.078125 -12.671875 5.203125 -12.671875 C 4.796875 -12.671875 4.394531 -12.585938 4 -12.421875 C 3.613281 -12.253906 3.265625 -12.035156 2.953125 -11.765625 C 2.648438 -11.492188 2.414062 -11.179688 2.25 -10.828125 C 2.175781 -10.703125 2.09375 -10.613281 2 -10.5625 C 1.914062 -10.507812 1.828125 -10.484375 1.734375 -10.484375 C 1.578125 -10.484375 1.4375 -10.53125 1.3125 -10.625 C 1.195312 -10.71875 1.140625 -10.835938 1.140625 -10.984375 C 1.140625 -11.078125 1.160156 -11.164062 1.203125 -11.25 C 1.253906 -11.34375 1.328125 -11.445312 1.421875 -11.5625 C 1.648438 -11.96875 1.972656 -12.335938 2.390625 -12.671875 C 2.804688 -13.003906 3.269531 -13.269531 3.78125 -13.46875 C 4.289062 -13.675781 4.789062 -13.78125 5.28125 -13.78125 C 6.101562 -13.78125 6.816406 -13.617188 7.421875 -13.296875 C 8.023438 -12.984375 8.488281 -12.535156 8.8125 -11.953125 C 9.144531 -11.378906 9.3125 -10.703125 9.3125 -9.921875 C 9.3125 -9.242188 9.097656 -8.503906 8.671875 -7.703125 C 8.253906 -6.910156 7.632812 -6.054688 6.8125 -5.140625 L 3.03125 -0.890625 L 2.828125 -1.125 Z M 9.203125 -1.125 "/></g></g></g><g fill="#201f1f" fill-opacity="1"><g transform="translate(11.116662, 20.524759)"><g><path d="M 9.203125 -1.125 C 9.359375 -1.125 9.488281 -1.066406 9.59375 -0.953125 C 9.707031 -0.847656 9.765625 -0.71875 9.765625 -0.5625 C 9.765625 -0.394531 9.707031 -0.257812 9.59375 -0.15625 C 9.488281 -0.0507812 9.359375 0 9.203125 0 L 1.921875 0 C 1.753906 0 1.609375 -0.046875 1.484375 -0.140625 C 1.359375 -0.242188 1.296875 -0.390625 1.296875 -0.578125 C 1.296875 -0.722656 1.347656 -0.859375 1.453125 -0.984375 L 5.9375 -5.9375 C 6.644531 -6.71875 7.175781 -7.429688 7.53125 -8.078125 C 7.894531 -8.734375 8.078125 -9.320312 8.078125 -9.84375 C 8.078125 -10.695312 7.816406 -11.378906 7.296875 -11.890625 C 6.773438 -12.410156 6.078125 -12.671875 5.203125 -12.671875 C 4.796875 -12.671875 4.394531 -12.585938 4 -12.421875 C 3.613281 -12.253906 3.265625 -12.035156 2.953125 -11.765625 C 2.648438 -11.492188 2.414062 -11.179688 2.25 -10.828125 C 2.175781 -10.703125 2.09375 -10.613281 2 -10.5625 C 1.914062 -10.507812 1.828125 -10.484375 1.734375 -10.484375 C 1.578125 -10.484375 1.4375 -10.53125 1.3125 -10.625 C 1.195312 -10.71875 1.140625 -10.835938 1.140625 -10.984375 C 1.140625 -11.078125 1.160156 -11.164062 1.203125 -11.25 C 1.253906 -11.34375 1.328125 -11.445312 1.421875 -11.5625 C 1.648438 -11.96875 1.972656 -12.335938 2.390625 -12.671875 C 2.804688 -13.003906 3.269531 -13.269531 3.78125 -13.46875 C 4.289062 -13.675781 4.789062 -13.78125 5.28125 -13.78125 C 6.101562 -13.78125 6.816406 -13.617188 7.421875 -13.296875 C 8.023438 -12.984375 8.488281 -12.535156 8.8125 -11.953125 C 9.144531 -11.378906 9.3125 -10.703125 9.3125 -9.921875 C 9.3125 -9.242188 9.097656 -8.503906 8.671875 -7.703125 C 8.253906 -6.910156 7.632812 -6.054688 6.8125 -5.140625 L 3.03125 -0.890625 L 2.828125 -1.125 Z M 9.203125 -1.125 "/></g></g></g></g></g></g><g clip-path="url(#9d1c07e5c7)"><g transform="matrix(1, 0, 0, 1, 380, 450)"><g clip-path="url(#6ee4c7525e)"><g fill="#201f1f" fill-opacity="1"><g transform="translate(0.196049, 20.524759)"><g><path d="M 9.203125 -1.125 C 9.359375 -1.125 9.488281 -1.066406 9.59375 -0.953125 C 9.707031 -0.847656 9.765625 -0.71875 9.765625 -0.5625 C 9.765625 -0.394531 9.707031 -0.257812 9.59375 -0.15625 C 9.488281 -0.0507812 9.359375 0 9.203125 0 L 1.921875 0 C 1.753906 0 1.609375 -0.046875 1.484375 -0.140625 C 1.359375 -0.242188 1.296875 -0.390625 1.296875 -0.578125 C 1.296875 -0.722656 1.347656 -0.859375 1.453125 -0.984375 L 5.9375 -5.9375 C 6.644531 -6.71875 7.175781 -7.429688 7.53125 -8.078125 C 7.894531 -8.734375 8.078125 -9.320312 8.078125 -9.84375 C 8.078125 -10.695312 7.816406 -11.378906 7.296875 -11.890625 C 6.773438 -12.410156 6.078125 -12.671875 5.203125 -12.671875 C 4.796875 -12.671875 4.394531 -12.585938 4 -12.421875 C 3.613281 -12.253906 3.265625 -12.035156 2.953125 -11.765625 C 2.648438 -11.492188 2.414062 -11.179688 2.25 -10.828125 C 2.175781 -10.703125 2.09375 -10.613281 2 -10.5625 C 1.914062 -10.507812 1.828125 -10.484375 1.734375 -10.484375 C 1.578125 -10.484375 1.4375 -10.53125 1.3125 -10.625 C 1.195312 -10.71875 1.140625 -10.835938 1.140625 -10.984375 C 1.140625 -11.078125 1.160156 -11.164062 1.203125 -11.25 C 1.253906 -11.34375 1.328125 -11.445312 1.421875 -11.5625 C 1.648438 -11.96875 1.972656 -12.335938 2.390625 -12.671875 C 2.804688 -13.003906 3.269531 -13.269531 3.78125 -13.46875 C 4.289062 -13.675781 4.789062 -13.78125 5.28125 -13.78125 C 6.101562 -13.78125 6.816406 -13.617188 7.421875 -13.296875 C 8.023438 -12.984375 8.488281 -12.535156 8.8125 -11.953125 C 9.144531 -11.378906 9.3125 -10.703125 9.3125 -9.921875 C 9.3125 -9.242188 9.097656 -8.503906 8.671875 -7.703125 C 8.253906 -6.910156 7.632812 -6.054688 6.8125 -5.140625 L 3.03125 -0.890625 L 2.828125 -1.125 Z M 9.203125 -1.125 "/></g></g></g><g fill="#201f1f" fill-opacity="1"><g transform="translate(10.941021, 20.524759)"><g><path d="M 1.734375 -2 C 1.796875 -2 1.859375 -1.984375 1.921875 -1.953125 C 1.992188 -1.929688 2.082031 -1.875 2.1875 -1.78125 C 2.457031 -1.5 2.78125 -1.28125 3.15625 -1.125 C 3.53125 -0.976562 3.957031 -0.90625 4.4375 -0.90625 C 5.070312 -0.90625 5.648438 -1.046875 6.171875 -1.328125 C 6.703125 -1.617188 7.117188 -2.019531 7.421875 -2.53125 C 7.734375 -3.039062 7.890625 -3.625 7.890625 -4.28125 C 7.890625 -5.039062 7.722656 -5.648438 7.390625 -6.109375 C 7.066406 -6.566406 6.648438 -6.90625 6.140625 -7.125 C 5.628906 -7.351562 5.109375 -7.46875 4.578125 -7.46875 C 4.429688 -7.46875 4.289062 -7.457031 4.15625 -7.4375 C 4.019531 -7.414062 3.894531 -7.390625 3.78125 -7.359375 C 3.664062 -7.335938 3.578125 -7.328125 3.515625 -7.328125 C 3.347656 -7.328125 3.21875 -7.382812 3.125 -7.5 C 3.03125 -7.613281 2.984375 -7.753906 2.984375 -7.921875 C 2.984375 -8.003906 3.003906 -8.082031 3.046875 -8.15625 C 3.085938 -8.226562 3.140625 -8.3125 3.203125 -8.40625 L 7.140625 -12.6875 L 7.375 -12.375 L 1.5 -12.375 C 1.34375 -12.375 1.207031 -12.429688 1.09375 -12.546875 C 0.988281 -12.660156 0.9375 -12.789062 0.9375 -12.9375 C 0.9375 -13.09375 0.988281 -13.222656 1.09375 -13.328125 C 1.207031 -13.429688 1.34375 -13.484375 1.5 -13.484375 L 8.015625 -13.484375 C 8.234375 -13.484375 8.382812 -13.414062 8.46875 -13.28125 C 8.5625 -13.144531 8.609375 -13.015625 8.609375 -12.890625 C 8.609375 -12.804688 8.585938 -12.726562 8.546875 -12.65625 C 8.515625 -12.59375 8.46875 -12.519531 8.40625 -12.4375 L 4.46875 -8.15625 L 4.03125 -8.40625 C 4.070312 -8.445312 4.207031 -8.488281 4.4375 -8.53125 C 4.664062 -8.570312 4.84375 -8.59375 4.96875 -8.59375 C 5.675781 -8.59375 6.34375 -8.425781 6.96875 -8.09375 C 7.601562 -7.757812 8.117188 -7.273438 8.515625 -6.640625 C 8.910156 -6.015625 9.109375 -5.242188 9.109375 -4.328125 C 9.109375 -3.421875 8.894531 -2.628906 8.46875 -1.953125 C 8.039062 -1.273438 7.460938 -0.75 6.734375 -0.375 C 6.003906 0 5.203125 0.1875 4.328125 0.1875 C 3.796875 0.1875 3.269531 0.0976562 2.75 -0.078125 C 2.238281 -0.253906 1.785156 -0.523438 1.390625 -0.890625 C 1.304688 -0.972656 1.242188 -1.050781 1.203125 -1.125 C 1.160156 -1.195312 1.140625 -1.273438 1.140625 -1.359375 C 1.140625 -1.515625 1.191406 -1.660156 1.296875 -1.796875 C 1.410156 -1.929688 1.554688 -2 1.734375 -2 Z M 1.734375 -2 "/></g></g></g></g></g></g><g clip-path="url(#f9ea90b48b)"><g transform="matrix(1, 0, 0, 1, 505, 450)"><g clip-path="url(#581ac6c28f)"><g fill="#201f1f" fill-opacity="1"><g transform="translate(1.020408, 20.524759)"><g><path d="M 9.203125 -1.125 C 9.359375 -1.125 9.488281 -1.066406 9.59375 -0.953125 C 9.707031 -0.847656 9.765625 -0.71875 9.765625 -0.5625 C 9.765625 -0.394531 9.707031 -0.257812 9.59375 -0.15625 C 9.488281 -0.0507812 9.359375 0 9.203125 0 L 1.921875 0 C 1.753906 0 1.609375 -0.046875 1.484375 -0.140625 C 1.359375 -0.242188 1.296875 -0.390625 1.296875 -0.578125 C 1.296875 -0.722656 1.347656 -0.859375 1.453125 -0.984375 L 5.9375 -5.9375 C 6.644531 -6.71875 7.175781 -7.429688 7.53125 -8.078125 C 7.894531 -8.734375 8.078125 -9.320312 8.078125 -9.84375 C 8.078125 -10.695312 7.816406 -11.378906 7.296875 -11.890625 C 6.773438 -12.410156 6.078125 -12.671875 5.203125 -12.671875 C 4.796875 -12.671875 4.394531 -12.585938 4 -12.421875 C 3.613281 -12.253906 3.265625 -12.035156 2.953125 -11.765625 C 2.648438 -11.492188 2.414062 -11.179688 2.25 -10.828125 C 2.175781 -10.703125 2.09375 -10.613281 2 -10.5625 C 1.914062 -10.507812 1.828125 -10.484375 1.734375 -10.484375 C 1.578125 -10.484375 1.4375 -10.53125 1.3125 -10.625 C 1.195312 -10.71875 1.140625 -10.835938 1.140625 -10.984375 C 1.140625 -11.078125 1.160156 -11.164062 1.203125 -11.25 C 1.253906 -11.34375 1.328125 -11.445312 1.421875 -11.5625 C 1.648438 -11.96875 1.972656 -12.335938 2.390625 -12.671875 C 2.804688 -13.003906 3.269531 -13.269531 3.78125 -13.46875 C 4.289062 -13.675781 4.789062 -13.78125 5.28125 -13.78125 C 6.101562 -13.78125 6.816406 -13.617188 7.421875 -13.296875 C 8.023438 -12.984375 8.488281 -12.535156 8.8125 -11.953125 C 9.144531 -11.378906 9.3125 -10.703125 9.3125 -9.921875 C 9.3125 -9.242188 9.097656 -8.503906 8.671875 -7.703125 C 8.253906 -6.910156 7.632812 -6.054688 6.8125 -5.140625 L 3.03125 -0.890625 L 2.828125 -1.125 Z M 9.203125 -1.125 "/></g></g></g><g fill="#201f1f" fill-opacity="1"><g transform="translate(11.765381, 20.524759)"><g><path d="M 7.125 0 C 6.957031 0 6.820312 -0.0546875 6.71875 -0.171875 C 6.613281 -0.285156 6.5625 -0.421875 6.5625 -0.578125 L 6.5625 -11.96875 L 6.8125 -11.8125 L 1.703125 -5.0625 L 1.65625 -5.28125 L 9.109375 -5.28125 C 9.253906 -5.28125 9.382812 -5.226562 9.5 -5.125 C 9.613281 -5.019531 9.671875 -4.890625 9.671875 -4.734375 C 9.671875 -4.578125 9.613281 -4.445312 9.5 -4.34375 C 9.382812 -4.238281 9.253906 -4.1875 9.109375 -4.1875 L 0.859375 -4.1875 C 0.703125 -4.1875 0.5625 -4.25 0.4375 -4.375 C 0.320312 -4.5 0.265625 -4.640625 0.265625 -4.796875 C 0.265625 -4.929688 0.3125 -5.0625 0.40625 -5.1875 L 6.65625 -13.34375 C 6.71875 -13.4375 6.796875 -13.5 6.890625 -13.53125 C 6.992188 -13.5625 7.078125 -13.578125 7.140625 -13.578125 C 7.304688 -13.578125 7.441406 -13.519531 7.546875 -13.40625 C 7.660156 -13.289062 7.71875 -13.15625 7.71875 -13 L 7.71875 -0.578125 C 7.71875 -0.421875 7.660156 -0.285156 7.546875 -0.171875 C 7.429688 -0.0546875 7.289062 0 7.125 0 Z M 7.125 0 "/></g></g></g></g></g></g><g clip-path="url(#d5300a54d8)"><g transform="matrix(1, 0, 0, 1, 631, 450)"><g clip-path="url(#ab62985521)"><g fill="#201f1f" fill-opacity="1"><g transform="translate(0.844797, 20.524759)"><g><path d="M 9.203125 -1.125 C 9.359375 -1.125 9.488281 -1.066406 9.59375 -0.953125 C 9.707031 -0.847656 9.765625 -0.71875 9.765625 -0.5625 C 9.765625 -0.394531 9.707031 -0.257812 9.59375 -0.15625 C 9.488281 -0.0507812 9.359375 0 9.203125 0 L 1.921875 0 C 1.753906 0 1.609375 -0.046875 1.484375 -0.140625 C 1.359375 -0.242188 1.296875 -0.390625 1.296875 -0.578125 C 1.296875 -0.722656 1.347656 -0.859375 1.453125 -0.984375 L 5.9375 -5.9375 C 6.644531 -6.71875 7.175781 -7.429688 7.53125 -8.078125 C 7.894531 -8.734375 8.078125 -9.320312 8.078125 -9.84375 C 8.078125 -10.695312 7.816406 -11.378906 7.296875 -11.890625 C 6.773438 -12.410156 6.078125 -12.671875 5.203125 -12.671875 C 4.796875 -12.671875 4.394531 -12.585938 4 -12.421875 C 3.613281 -12.253906 3.265625 -12.035156 2.953125 -11.765625 C 2.648438 -11.492188 2.414062 -11.179688 2.25 -10.828125 C 2.175781 -10.703125 2.09375 -10.613281 2 -10.5625 C 1.914062 -10.507812 1.828125 -10.484375 1.734375 -10.484375 C 1.578125 -10.484375 1.4375 -10.53125 1.3125 -10.625 C 1.195312 -10.71875 1.140625 -10.835938 1.140625 -10.984375 C 1.140625 -11.078125 1.160156 -11.164062 1.203125 -11.25 C 1.253906 -11.34375 1.328125 -11.445312 1.421875 -11.5625 C 1.648438 -11.96875 1.972656 -12.335938 2.390625 -12.671875 C 2.804688 -13.003906 3.269531 -13.269531 3.78125 -13.46875 C 4.289062 -13.675781 4.789062 -13.78125 5.28125 -13.78125 C 6.101562 -13.78125 6.816406 -13.617188 7.421875 -13.296875 C 8.023438 -12.984375 8.488281 -12.535156 8.8125 -11.953125 C 9.144531 -11.378906 9.3125 -10.703125 9.3125 -9.921875 C 9.3125 -9.242188 9.097656 -8.503906 8.671875 -7.703125 C 8.253906 -6.910156 7.632812 -6.054688 6.8125 -5.140625 L 3.03125 -0.890625 L 2.828125 -1.125 Z M 9.203125 -1.125 "/></g></g></g><g fill="#201f1f" fill-opacity="1"><g transform="translate(11.589769, 20.524759)"><g><path d="M 4.546875 0.03125 C 4.015625 0.03125 3.476562 -0.0507812 2.9375 -0.21875 C 2.40625 -0.394531 1.929688 -0.660156 1.515625 -1.015625 C 1.429688 -1.078125 1.367188 -1.148438 1.328125 -1.234375 C 1.285156 -1.328125 1.265625 -1.421875 1.265625 -1.515625 C 1.265625 -1.640625 1.316406 -1.765625 1.421875 -1.890625 C 1.523438 -2.015625 1.660156 -2.078125 1.828125 -2.078125 C 1.960938 -2.078125 2.101562 -2.019531 2.25 -1.90625 C 2.582031 -1.644531 2.945312 -1.441406 3.34375 -1.296875 C 3.738281 -1.160156 4.140625 -1.09375 4.546875 -1.09375 C 5.304688 -1.09375 5.96875 -1.234375 6.53125 -1.515625 C 7.101562 -1.804688 7.546875 -2.222656 7.859375 -2.765625 C 8.171875 -3.304688 8.328125 -3.929688 8.328125 -4.640625 C 8.328125 -5.296875 8.179688 -5.863281 7.890625 -6.34375 C 7.609375 -6.832031 7.207031 -7.21875 6.6875 -7.5 C 6.164062 -7.78125 5.546875 -7.921875 4.828125 -7.921875 C 4.367188 -7.921875 3.945312 -7.847656 3.5625 -7.703125 C 3.175781 -7.554688 2.84375 -7.410156 2.5625 -7.265625 C 2.289062 -7.117188 2.070312 -7.046875 1.90625 -7.046875 C 1.75 -7.046875 1.617188 -7.082031 1.515625 -7.15625 C 1.421875 -7.238281 1.359375 -7.335938 1.328125 -7.453125 C 1.296875 -7.566406 1.289062 -7.691406 1.3125 -7.828125 L 2.15625 -13 C 2.164062 -13.113281 2.222656 -13.21875 2.328125 -13.3125 C 2.441406 -13.414062 2.582031 -13.46875 2.75 -13.46875 L 8.59375 -13.46875 C 8.75 -13.46875 8.878906 -13.410156 8.984375 -13.296875 C 9.097656 -13.191406 9.15625 -13.0625 9.15625 -12.90625 C 9.15625 -12.738281 9.097656 -12.597656 8.984375 -12.484375 C 8.878906 -12.378906 8.75 -12.328125 8.59375 -12.328125 L 3.03125 -12.328125 L 3.203125 -12.5 L 2.40625 -7.890625 L 2.0625 -8.15625 C 2.226562 -8.28125 2.46875 -8.40625 2.78125 -8.53125 C 3.101562 -8.664062 3.457031 -8.78125 3.84375 -8.875 C 4.238281 -8.976562 4.660156 -9.03125 5.109375 -9.03125 C 5.941406 -9.03125 6.6875 -8.84375 7.34375 -8.46875 C 8.007812 -8.101562 8.53125 -7.59375 8.90625 -6.9375 C 9.289062 -6.28125 9.484375 -5.523438 9.484375 -4.671875 C 9.484375 -3.734375 9.28125 -2.910156 8.875 -2.203125 C 8.46875 -1.492188 7.894531 -0.941406 7.15625 -0.546875 C 6.425781 -0.160156 5.554688 0.03125 4.546875 0.03125 Z M 4.546875 0.03125 "/></g></g></g></g></g></g><g clip-path="url(#f552454116)"><g transform="matrix(1, 0, 0, 1, 757, 450)"><g clip-path="url(#5fd7e655c9)"><g fill="#201f1f" fill-opacity="1"><g transform="translate(0.669185, 20.524759)"><g><path d="M 9.203125 -1.125 C 9.359375 -1.125 9.488281 -1.066406 9.59375 -0.953125 C 9.707031 -0.847656 9.765625 -0.71875 9.765625 -0.5625 C 9.765625 -0.394531 9.707031 -0.257812 9.59375 -0.15625 C 9.488281 -0.0507812 9.359375 0 9.203125 0 L 1.921875 0 C 1.753906 0 1.609375 -0.046875 1.484375 -0.140625 C 1.359375 -0.242188 1.296875 -0.390625 1.296875 -0.578125 C 1.296875 -0.722656 1.347656 -0.859375 1.453125 -0.984375 L 5.9375 -5.9375 C 6.644531 -6.71875 7.175781 -7.429688 7.53125 -8.078125 C 7.894531 -8.734375 8.078125 -9.320312 8.078125 -9.84375 C 8.078125 -10.695312 7.816406 -11.378906 7.296875 -11.890625 C 6.773438 -12.410156 6.078125 -12.671875 5.203125 -12.671875 C 4.796875 -12.671875 4.394531 -12.585938 4 -12.421875 C 3.613281 -12.253906 3.265625 -12.035156 2.953125 -11.765625 C 2.648438 -11.492188 2.414062 -11.179688 2.25 -10.828125 C 2.175781 -10.703125 2.09375 -10.613281 2 -10.5625 C 1.914062 -10.507812 1.828125 -10.484375 1.734375 -10.484375 C 1.578125 -10.484375 1.4375 -10.53125 1.3125 -10.625 C 1.195312 -10.71875 1.140625 -10.835938 1.140625 -10.984375 C 1.140625 -11.078125 1.160156 -11.164062 1.203125 -11.25 C 1.253906 -11.34375 1.328125 -11.445312 1.421875 -11.5625 C 1.648438 -11.96875 1.972656 -12.335938 2.390625 -12.671875 C 2.804688 -13.003906 3.269531 -13.269531 3.78125 -13.46875 C 4.289062 -13.675781 4.789062 -13.78125 5.28125 -13.78125 C 6.101562 -13.78125 6.816406 -13.617188 7.421875 -13.296875 C 8.023438 -12.984375 8.488281 -12.535156 8.8125 -11.953125 C 9.144531 -11.378906 9.3125 -10.703125 9.3125 -9.921875 C 9.3125 -9.242188 9.097656 -8.503906 8.671875 -7.703125 C 8.253906 -6.910156 7.632812 -6.054688 6.8125 -5.140625 L 3.03125 -0.890625 L 2.828125 -1.125 Z M 9.203125 -1.125 "/></g></g></g><g fill="#201f1f" fill-opacity="1"><g transform="translate(11.414157, 20.524759)"><g><path d="M 5.5625 0.1875 C 4.8125 0.1875 4.15625 0.0507812 3.59375 -0.21875 C 3.03125 -0.488281 2.566406 -0.851562 2.203125 -1.3125 C 1.835938 -1.769531 1.566406 -2.289062 1.390625 -2.875 C 1.210938 -3.457031 1.125 -4.050781 1.125 -4.65625 C 1.125 -5.28125 1.203125 -5.953125 1.359375 -6.671875 C 1.515625 -7.390625 1.753906 -8.113281 2.078125 -8.84375 C 2.398438 -9.582031 2.796875 -10.28125 3.265625 -10.9375 C 3.742188 -11.601562 4.296875 -12.195312 4.921875 -12.71875 C 5.546875 -13.238281 6.253906 -13.648438 7.046875 -13.953125 C 7.140625 -13.972656 7.21875 -13.984375 7.28125 -13.984375 C 7.445312 -13.984375 7.585938 -13.9375 7.703125 -13.84375 C 7.828125 -13.757812 7.890625 -13.609375 7.890625 -13.390625 C 7.890625 -13.265625 7.847656 -13.148438 7.765625 -13.046875 C 7.679688 -12.953125 7.570312 -12.878906 7.4375 -12.828125 C 6.894531 -12.597656 6.359375 -12.269531 5.828125 -11.84375 C 5.296875 -11.414062 4.800781 -10.921875 4.34375 -10.359375 C 3.894531 -9.804688 3.507812 -9.207031 3.1875 -8.5625 C 2.875 -7.925781 2.648438 -7.28125 2.515625 -6.625 L 2.09375 -6.359375 C 2.320312 -6.785156 2.617188 -7.164062 2.984375 -7.5 C 3.359375 -7.832031 3.785156 -8.097656 4.265625 -8.296875 C 4.742188 -8.492188 5.265625 -8.59375 5.828125 -8.59375 C 6.398438 -8.59375 6.929688 -8.46875 7.421875 -8.21875 C 7.921875 -7.976562 8.347656 -7.644531 8.703125 -7.21875 C 9.054688 -6.800781 9.332031 -6.328125 9.53125 -5.796875 C 9.738281 -5.265625 9.84375 -4.71875 9.84375 -4.15625 C 9.84375 -3.394531 9.65625 -2.679688 9.28125 -2.015625 C 8.914062 -1.359375 8.410156 -0.828125 7.765625 -0.421875 C 7.128906 -0.015625 6.394531 0.1875 5.5625 0.1875 Z M 5.546875 -0.9375 C 6.140625 -0.9375 6.671875 -1.070312 7.140625 -1.34375 C 7.609375 -1.613281 7.972656 -1.988281 8.234375 -2.46875 C 8.503906 -2.957031 8.640625 -3.519531 8.640625 -4.15625 C 8.640625 -4.738281 8.523438 -5.273438 8.296875 -5.765625 C 8.066406 -6.265625 7.726562 -6.671875 7.28125 -6.984375 C 6.84375 -7.304688 6.289062 -7.46875 5.625 -7.46875 C 4.9375 -7.46875 4.34375 -7.3125 3.84375 -7 C 3.351562 -6.695312 2.972656 -6.285156 2.703125 -5.765625 C 2.441406 -5.253906 2.3125 -4.695312 2.3125 -4.09375 C 2.3125 -3.550781 2.4375 -3.035156 2.6875 -2.546875 C 2.945312 -2.066406 3.320312 -1.675781 3.8125 -1.375 C 4.300781 -1.082031 4.878906 -0.9375 5.546875 -0.9375 Z M 5.546875 -0.9375 "/></g></g></g></g></g></g><g clip-path="url(#db894371b4)"><g transform="matrix(1, 0, 0, 1, 2, 600)"><g clip-path="url(#7ec3ca9f97)"><g fill="#201f1f" fill-opacity="1"><g transform="translate(0.722956, 20.234361)"><g><path d="M 9.203125 -1.125 C 9.359375 -1.125 9.488281 -1.066406 9.59375 -0.953125 C 9.707031 -0.847656 9.765625 -0.71875 9.765625 -0.5625 C 9.765625 -0.394531 9.707031 -0.257812 9.59375 -0.15625 C 9.488281 -0.0507812 9.359375 0 9.203125 0 L 1.921875 0 C 1.753906 0 1.609375 -0.046875 1.484375 -0.140625 C 1.359375 -0.242188 1.296875 -0.390625 1.296875 -0.578125 C 1.296875 -0.722656 1.347656 -0.859375 1.453125 -0.984375 L 5.9375 -5.9375 C 6.644531 -6.71875 7.175781 -7.429688 7.53125 -8.078125 C 7.894531 -8.734375 8.078125 -9.320312 8.078125 -9.84375 C 8.078125 -10.695312 7.816406 -11.378906 7.296875 -11.890625 C 6.773438 -12.410156 6.078125 -12.671875 5.203125 -12.671875 C 4.796875 -12.671875 4.394531 -12.585938 4 -12.421875 C 3.613281 -12.253906 3.265625 -12.035156 2.953125 -11.765625 C 2.648438 -11.492188 2.414062 -11.179688 2.25 -10.828125 C 2.175781 -10.703125 2.09375 -10.613281 2 -10.5625 C 1.914062 -10.507812 1.828125 -10.484375 1.734375 -10.484375 C 1.578125 -10.484375 1.4375 -10.53125 1.3125 -10.625 C 1.195312 -10.71875 1.140625 -10.835938 1.140625 -10.984375 C 1.140625 -11.078125 1.160156 -11.164062 1.203125 -11.25 C 1.253906 -11.34375 1.328125 -11.445312 1.421875 -11.5625 C 1.648438 -11.96875 1.972656 -12.335938 2.390625 -12.671875 C 2.804688 -13.003906 3.269531 -13.269531 3.78125 -13.46875 C 4.289062 -13.675781 4.789062 -13.78125 5.28125 -13.78125 C 6.101562 -13.78125 6.816406 -13.617188 7.421875 -13.296875 C 8.023438 -12.984375 8.488281 -12.535156 8.8125 -11.953125 C 9.144531 -11.378906 9.3125 -10.703125 9.3125 -9.921875 C 9.3125 -9.242188 9.097656 -8.503906 8.671875 -7.703125 C 8.253906 -6.910156 7.632812 -6.054688 6.8125 -5.140625 L 3.03125 -0.890625 L 2.828125 -1.125 Z M 9.203125 -1.125 "/></g></g></g><g fill="#201f1f" fill-opacity="1"><g transform="translate(11.467929, 20.234361)"><g><path d="M 3.453125 0.0625 C 3.296875 0.0625 3.148438 0.0078125 3.015625 -0.09375 C 2.890625 -0.195312 2.828125 -0.328125 2.828125 -0.484375 C 2.828125 -0.578125 2.847656 -0.675781 2.890625 -0.78125 L 8.046875 -12.640625 L 8.265625 -12.359375 L 1.703125 -12.359375 C 1.546875 -12.359375 1.410156 -12.410156 1.296875 -12.515625 C 1.191406 -12.628906 1.140625 -12.765625 1.140625 -12.921875 C 1.140625 -13.085938 1.191406 -13.222656 1.296875 -13.328125 C 1.410156 -13.429688 1.546875 -13.484375 1.703125 -13.484375 L 8.828125 -13.484375 C 9.023438 -13.484375 9.164062 -13.429688 9.25 -13.328125 C 9.34375 -13.222656 9.390625 -13.09375 9.390625 -12.9375 C 9.390625 -12.832031 9.367188 -12.738281 9.328125 -12.65625 L 4 -0.328125 C 3.957031 -0.210938 3.882812 -0.117188 3.78125 -0.046875 C 3.675781 0.0234375 3.566406 0.0625 3.453125 0.0625 Z M 3.453125 0.0625 "/></g></g></g></g></g></g><g clip-path="url(#fe122934ae)"><g transform="matrix(1, 0, 0, 1, 128, 600)"><g clip-path="url(#f3c1850ac9)"><g fill="#201f1f" fill-opacity="1"><g transform="translate(0.547331, 20.234361)"><g><path d="M 9.203125 -1.125 C 9.359375 -1.125 9.488281 -1.066406 9.59375 -0.953125 C 9.707031 -0.847656 9.765625 -0.71875 9.765625 -0.5625 C 9.765625 -0.394531 9.707031 -0.257812 9.59375 -0.15625 C 9.488281 -0.0507812 9.359375 0 9.203125 0 L 1.921875 0 C 1.753906 0 1.609375 -0.046875 1.484375 -0.140625 C 1.359375 -0.242188 1.296875 -0.390625 1.296875 -0.578125 C 1.296875 -0.722656 1.347656 -0.859375 1.453125 -0.984375 L 5.9375 -5.9375 C 6.644531 -6.71875 7.175781 -7.429688 7.53125 -8.078125 C 7.894531 -8.734375 8.078125 -9.320312 8.078125 -9.84375 C 8.078125 -10.695312 7.816406 -11.378906 7.296875 -11.890625 C 6.773438 -12.410156 6.078125 -12.671875 5.203125 -12.671875 C 4.796875 -12.671875 4.394531 -12.585938 4 -12.421875 C 3.613281 -12.253906 3.265625 -12.035156 2.953125 -11.765625 C 2.648438 -11.492188 2.414062 -11.179688 2.25 -10.828125 C 2.175781 -10.703125 2.09375 -10.613281 2 -10.5625 C 1.914062 -10.507812 1.828125 -10.484375 1.734375 -10.484375 C 1.578125 -10.484375 1.4375 -10.53125 1.3125 -10.625 C 1.195312 -10.71875 1.140625 -10.835938 1.140625 -10.984375 C 1.140625 -11.078125 1.160156 -11.164062 1.203125 -11.25 C 1.253906 -11.34375 1.328125 -11.445312 1.421875 -11.5625 C 1.648438 -11.96875 1.972656 -12.335938 2.390625 -12.671875 C 2.804688 -13.003906 3.269531 -13.269531 3.78125 -13.46875 C 4.289062 -13.675781 4.789062 -13.78125 5.28125 -13.78125 C 6.101562 -13.78125 6.816406 -13.617188 7.421875 -13.296875 C 8.023438 -12.984375 8.488281 -12.535156 8.8125 -11.953125 C 9.144531 -11.378906 9.3125 -10.703125 9.3125 -9.921875 C 9.3125 -9.242188 9.097656 -8.503906 8.671875 -7.703125 C 8.253906 -6.910156 7.632812 -6.054688 6.8125 -5.140625 L 3.03125 -0.890625 L 2.828125 -1.125 Z M 9.203125 -1.125 "/></g></g></g><g fill="#201f1f" fill-opacity="1"><g transform="translate(11.292303, 20.234361)"><g><path d="M 7.0625 -6.828125 L 7 -7 C 7.445312 -6.832031 7.847656 -6.582031 8.203125 -6.25 C 8.566406 -5.925781 8.859375 -5.539062 9.078125 -5.09375 C 9.296875 -4.644531 9.40625 -4.15625 9.40625 -3.625 C 9.40625 -2.925781 9.222656 -2.289062 8.859375 -1.71875 C 8.492188 -1.15625 7.992188 -0.703125 7.359375 -0.359375 C 6.722656 -0.0234375 6.015625 0.140625 5.234375 0.140625 C 4.453125 0.140625 3.742188 -0.0234375 3.109375 -0.359375 C 2.484375 -0.703125 1.984375 -1.15625 1.609375 -1.71875 C 1.242188 -2.289062 1.0625 -2.925781 1.0625 -3.625 C 1.0625 -4.195312 1.175781 -4.707031 1.40625 -5.15625 C 1.632812 -5.601562 1.929688 -5.976562 2.296875 -6.28125 C 2.671875 -6.59375 3.054688 -6.832031 3.453125 -7 L 3.390625 -6.8125 C 3.046875 -6.976562 2.71875 -7.207031 2.40625 -7.5 C 2.101562 -7.789062 1.851562 -8.140625 1.65625 -8.546875 C 1.46875 -8.953125 1.375 -9.398438 1.375 -9.890625 C 1.375 -10.585938 1.546875 -11.210938 1.890625 -11.765625 C 2.234375 -12.328125 2.695312 -12.769531 3.28125 -13.09375 C 3.875 -13.414062 4.523438 -13.578125 5.234375 -13.578125 C 5.953125 -13.578125 6.597656 -13.414062 7.171875 -13.09375 C 7.742188 -12.769531 8.203125 -12.328125 8.546875 -11.765625 C 8.890625 -11.210938 9.0625 -10.585938 9.0625 -9.890625 C 9.0625 -9.390625 8.960938 -8.9375 8.765625 -8.53125 C 8.578125 -8.132812 8.328125 -7.789062 8.015625 -7.5 C 7.703125 -7.207031 7.382812 -6.984375 7.0625 -6.828125 Z M 2.578125 -9.890625 C 2.578125 -9.378906 2.695312 -8.925781 2.9375 -8.53125 C 3.1875 -8.144531 3.507812 -7.84375 3.90625 -7.625 C 4.3125 -7.40625 4.753906 -7.296875 5.234375 -7.296875 C 5.703125 -7.296875 6.132812 -7.40625 6.53125 -7.625 C 6.9375 -7.84375 7.257812 -8.144531 7.5 -8.53125 C 7.738281 -8.925781 7.859375 -9.378906 7.859375 -9.890625 C 7.859375 -10.660156 7.613281 -11.285156 7.125 -11.765625 C 6.632812 -12.242188 6.003906 -12.484375 5.234375 -12.484375 C 4.453125 -12.484375 3.8125 -12.242188 3.3125 -11.765625 C 2.820312 -11.285156 2.578125 -10.660156 2.578125 -9.890625 Z M 5.234375 -0.96875 C 6.117188 -0.96875 6.832031 -1.21875 7.375 -1.71875 C 7.925781 -2.226562 8.203125 -2.863281 8.203125 -3.625 C 8.203125 -4.144531 8.066406 -4.609375 7.796875 -5.015625 C 7.523438 -5.429688 7.160156 -5.753906 6.703125 -5.984375 C 6.253906 -6.222656 5.765625 -6.34375 5.234375 -6.34375 C 4.703125 -6.34375 4.207031 -6.222656 3.75 -5.984375 C 3.300781 -5.753906 2.941406 -5.429688 2.671875 -5.015625 C 2.398438 -4.609375 2.265625 -4.144531 2.265625 -3.625 C 2.265625 -2.863281 2.535156 -2.226562 3.078125 -1.71875 C 3.628906 -1.21875 4.347656 -0.96875 5.234375 -0.96875 Z M 5.234375 -0.96875 "/></g></g></g></g></g></g><g clip-path="url(#8ea053208e)"><g transform="matrix(1, 0, 0, 1, 254, 600)"><g clip-path="url(#ab546c28f3)"><g fill="#201f1f" fill-opacity="1"><g transform="translate(0.37169, 20.234361)"><g><path d="M 9.203125 -1.125 C 9.359375 -1.125 9.488281 -1.066406 9.59375 -0.953125 C 9.707031 -0.847656 9.765625 -0.71875 9.765625 -0.5625 C 9.765625 -0.394531 9.707031 -0.257812 9.59375 -0.15625 C 9.488281 -0.0507812 9.359375 0 9.203125 0 L 1.921875 0 C 1.753906 0 1.609375 -0.046875 1.484375 -0.140625 C 1.359375 -0.242188 1.296875 -0.390625 1.296875 -0.578125 C 1.296875 -0.722656 1.347656 -0.859375 1.453125 -0.984375 L 5.9375 -5.9375 C 6.644531 -6.71875 7.175781 -7.429688 7.53125 -8.078125 C 7.894531 -8.734375 8.078125 -9.320312 8.078125 -9.84375 C 8.078125 -10.695312 7.816406 -11.378906 7.296875 -11.890625 C 6.773438 -12.410156 6.078125 -12.671875 5.203125 -12.671875 C 4.796875 -12.671875 4.394531 -12.585938 4 -12.421875 C 3.613281 -12.253906 3.265625 -12.035156 2.953125 -11.765625 C 2.648438 -11.492188 2.414062 -11.179688 2.25 -10.828125 C 2.175781 -10.703125 2.09375 -10.613281 2 -10.5625 C 1.914062 -10.507812 1.828125 -10.484375 1.734375 -10.484375 C 1.578125 -10.484375 1.4375 -10.53125 1.3125 -10.625 C 1.195312 -10.71875 1.140625 -10.835938 1.140625 -10.984375 C 1.140625 -11.078125 1.160156 -11.164062 1.203125 -11.25 C 1.253906 -11.34375 1.328125 -11.445312 1.421875 -11.5625 C 1.648438 -11.96875 1.972656 -12.335938 2.390625 -12.671875 C 2.804688 -13.003906 3.269531 -13.269531 3.78125 -13.46875 C 4.289062 -13.675781 4.789062 -13.78125 5.28125 -13.78125 C 6.101562 -13.78125 6.816406 -13.617188 7.421875 -13.296875 C 8.023438 -12.984375 8.488281 -12.535156 8.8125 -11.953125 C 9.144531 -11.378906 9.3125 -10.703125 9.3125 -9.921875 C 9.3125 -9.242188 9.097656 -8.503906 8.671875 -7.703125 C 8.253906 -6.910156 7.632812 -6.054688 6.8125 -5.140625 L 3.03125 -0.890625 L 2.828125 -1.125 Z M 9.203125 -1.125 "/></g></g></g><g fill="#201f1f" fill-opacity="1"><g transform="translate(11.116662, 20.234361)"><g><path d="M 5.375 -13.796875 C 6.132812 -13.796875 6.796875 -13.660156 7.359375 -13.390625 C 7.921875 -13.117188 8.382812 -12.753906 8.75 -12.296875 C 9.113281 -11.835938 9.382812 -11.316406 9.5625 -10.734375 C 9.75 -10.148438 9.84375 -9.554688 9.84375 -8.953125 C 9.84375 -8.328125 9.757812 -7.660156 9.59375 -6.953125 C 9.4375 -6.253906 9.195312 -5.546875 8.875 -4.828125 C 8.5625 -4.109375 8.164062 -3.425781 7.6875 -2.78125 C 7.21875 -2.132812 6.664062 -1.550781 6.03125 -1.03125 C 5.394531 -0.507812 4.691406 -0.109375 3.921875 0.171875 C 3.816406 0.203125 3.734375 0.21875 3.671875 0.21875 C 3.515625 0.21875 3.375 0.160156 3.25 0.046875 C 3.125 -0.0546875 3.0625 -0.203125 3.0625 -0.390625 C 3.0625 -0.515625 3.097656 -0.625 3.171875 -0.71875 C 3.253906 -0.820312 3.375 -0.898438 3.53125 -0.953125 C 4.269531 -1.265625 4.976562 -1.726562 5.65625 -2.34375 C 6.34375 -2.957031 6.9375 -3.664062 7.4375 -4.46875 C 7.9375 -5.28125 8.269531 -6.117188 8.4375 -6.984375 L 8.84375 -7.234375 C 8.625 -6.828125 8.328125 -6.453125 7.953125 -6.109375 C 7.578125 -5.773438 7.15625 -5.515625 6.6875 -5.328125 C 6.21875 -5.140625 5.703125 -5.046875 5.140625 -5.046875 C 4.316406 -5.046875 3.601562 -5.25 3 -5.65625 C 2.394531 -6.0625 1.929688 -6.597656 1.609375 -7.265625 C 1.285156 -7.941406 1.125 -8.671875 1.125 -9.453125 C 1.125 -10.210938 1.304688 -10.921875 1.671875 -11.578125 C 2.046875 -12.242188 2.550781 -12.78125 3.1875 -13.1875 C 3.832031 -13.59375 4.5625 -13.796875 5.375 -13.796875 Z M 5.421875 -12.671875 C 4.804688 -12.671875 4.265625 -12.535156 3.796875 -12.265625 C 3.335938 -11.992188 2.972656 -11.613281 2.703125 -11.125 C 2.441406 -10.644531 2.3125 -10.085938 2.3125 -9.453125 C 2.3125 -8.878906 2.421875 -8.335938 2.640625 -7.828125 C 2.867188 -7.328125 3.207031 -6.925781 3.65625 -6.625 C 4.113281 -6.320312 4.664062 -6.171875 5.3125 -6.171875 C 6.007812 -6.171875 6.601562 -6.320312 7.09375 -6.625 C 7.59375 -6.925781 7.976562 -7.328125 8.25 -7.828125 C 8.519531 -8.335938 8.65625 -8.898438 8.65625 -9.515625 C 8.65625 -10.066406 8.523438 -10.582031 8.265625 -11.0625 C 8.003906 -11.539062 7.632812 -11.925781 7.15625 -12.21875 C 6.675781 -12.519531 6.097656 -12.671875 5.421875 -12.671875 Z M 5.421875 -12.671875 "/></g></g></g></g></g></g><g clip-path="url(#2990c65e02)"><g transform="matrix(1, 0, 0, 1, 380, 600)"><g clip-path="url(#14651e9b5e)"><g fill="#201f1f" fill-opacity="1"><g transform="translate(0.196049, 20.234361)"><g><path d="M 1.734375 -2 C 1.796875 -2 1.859375 -1.984375 1.921875 -1.953125 C 1.992188 -1.929688 2.082031 -1.875 2.1875 -1.78125 C 2.457031 -1.5 2.78125 -1.28125 3.15625 -1.125 C 3.53125 -0.976562 3.957031 -0.90625 4.4375 -0.90625 C 5.070312 -0.90625 5.648438 -1.046875 6.171875 -1.328125 C 6.703125 -1.617188 7.117188 -2.019531 7.421875 -2.53125 C 7.734375 -3.039062 7.890625 -3.625 7.890625 -4.28125 C 7.890625 -5.039062 7.722656 -5.648438 7.390625 -6.109375 C 7.066406 -6.566406 6.648438 -6.90625 6.140625 -7.125 C 5.628906 -7.351562 5.109375 -7.46875 4.578125 -7.46875 C 4.429688 -7.46875 4.289062 -7.457031 4.15625 -7.4375 C 4.019531 -7.414062 3.894531 -7.390625 3.78125 -7.359375 C 3.664062 -7.335938 3.578125 -7.328125 3.515625 -7.328125 C 3.347656 -7.328125 3.21875 -7.382812 3.125 -7.5 C 3.03125 -7.613281 2.984375 -7.753906 2.984375 -7.921875 C 2.984375 -8.003906 3.003906 -8.082031 3.046875 -8.15625 C 3.085938 -8.226562 3.140625 -8.3125 3.203125 -8.40625 L 7.140625 -12.6875 L 7.375 -12.375 L 1.5 -12.375 C 1.34375 -12.375 1.207031 -12.429688 1.09375 -12.546875 C 0.988281 -12.660156 0.9375 -12.789062 0.9375 -12.9375 C 0.9375 -13.09375 0.988281 -13.222656 1.09375 -13.328125 C 1.207031 -13.429688 1.34375 -13.484375 1.5 -13.484375 L 8.015625 -13.484375 C 8.234375 -13.484375 8.382812 -13.414062 8.46875 -13.28125 C 8.5625 -13.144531 8.609375 -13.015625 8.609375 -12.890625 C 8.609375 -12.804688 8.585938 -12.726562 8.546875 -12.65625 C 8.515625 -12.59375 8.46875 -12.519531 8.40625 -12.4375 L 4.46875 -8.15625 L 4.03125 -8.40625 C 4.070312 -8.445312 4.207031 -8.488281 4.4375 -8.53125 C 4.664062 -8.570312 4.84375 -8.59375 4.96875 -8.59375 C 5.675781 -8.59375 6.34375 -8.425781 6.96875 -8.09375 C 7.601562 -7.757812 8.117188 -7.273438 8.515625 -6.640625 C 8.910156 -6.015625 9.109375 -5.242188 9.109375 -4.328125 C 9.109375 -3.421875 8.894531 -2.628906 8.46875 -1.953125 C 8.039062 -1.273438 7.460938 -0.75 6.734375 -0.375 C 6.003906 0 5.203125 0.1875 4.328125 0.1875 C 3.796875 0.1875 3.269531 0.0976562 2.75 -0.078125 C 2.238281 -0.253906 1.785156 -0.523438 1.390625 -0.890625 C 1.304688 -0.972656 1.242188 -1.050781 1.203125 -1.125 C 1.160156 -1.195312 1.140625 -1.273438 1.140625 -1.359375 C 1.140625 -1.515625 1.191406 -1.660156 1.296875 -1.796875 C 1.410156 -1.929688 1.554688 -2 1.734375 -2 Z M 1.734375 -2 "/></g></g></g><g fill="#201f1f" fill-opacity="1"><g transform="translate(10.359169, 20.234361)"><g><path d="M 5.765625 0.1875 C 4.734375 0.1875 3.863281 -0.117188 3.15625 -0.734375 C 2.457031 -1.359375 1.929688 -2.195312 1.578125 -3.25 C 1.234375 -4.300781 1.0625 -5.484375 1.0625 -6.796875 C 1.0625 -8.109375 1.234375 -9.289062 1.578125 -10.34375 C 1.929688 -11.40625 2.457031 -12.242188 3.15625 -12.859375 C 3.863281 -13.472656 4.734375 -13.78125 5.765625 -13.78125 C 6.828125 -13.78125 7.703125 -13.472656 8.390625 -12.859375 C 9.085938 -12.242188 9.609375 -11.40625 9.953125 -10.34375 C 10.304688 -9.289062 10.484375 -8.109375 10.484375 -6.796875 C 10.484375 -5.484375 10.304688 -4.300781 9.953125 -3.25 C 9.609375 -2.195312 9.085938 -1.359375 8.390625 -0.734375 C 7.703125 -0.117188 6.828125 0.1875 5.765625 0.1875 Z M 5.765625 -1.015625 C 6.523438 -1.015625 7.160156 -1.25 7.671875 -1.71875 C 8.179688 -2.195312 8.566406 -2.875 8.828125 -3.75 C 9.097656 -4.625 9.234375 -5.640625 9.234375 -6.796875 C 9.234375 -7.953125 9.097656 -8.96875 8.828125 -9.84375 C 8.566406 -10.71875 8.179688 -11.394531 7.671875 -11.875 C 7.160156 -12.351562 6.523438 -12.59375 5.765625 -12.59375 C 5.015625 -12.59375 4.382812 -12.351562 3.875 -11.875 C 3.363281 -11.394531 2.972656 -10.71875 2.703125 -9.84375 C 2.441406 -8.96875 2.3125 -7.953125 2.3125 -6.796875 C 2.3125 -5.640625 2.441406 -4.625 2.703125 -3.75 C 2.972656 -2.875 3.363281 -2.195312 3.875 -1.71875 C 4.382812 -1.25 5.015625 -1.015625 5.765625 -1.015625 Z M 5.765625 -1.015625 "/></g></g></g></g></g></g><g clip-path="url(#71aeb623c4)"><g transform="matrix(1, 0, 0, 1, 505, 600)"><g clip-path="url(#38914b8642)"><g fill="#201f1f" fill-opacity="1"><g transform="translate(1.020408, 20.234361)"><g><path d="M 1.734375 -2 C 1.796875 -2 1.859375 -1.984375 1.921875 -1.953125 C 1.992188 -1.929688 2.082031 -1.875 2.1875 -1.78125 C 2.457031 -1.5 2.78125 -1.28125 3.15625 -1.125 C 3.53125 -0.976562 3.957031 -0.90625 4.4375 -0.90625 C 5.070312 -0.90625 5.648438 -1.046875 6.171875 -1.328125 C 6.703125 -1.617188 7.117188 -2.019531 7.421875 -2.53125 C 7.734375 -3.039062 7.890625 -3.625 7.890625 -4.28125 C 7.890625 -5.039062 7.722656 -5.648438 7.390625 -6.109375 C 7.066406 -6.566406 6.648438 -6.90625 6.140625 -7.125 C 5.628906 -7.351562 5.109375 -7.46875 4.578125 -7.46875 C 4.429688 -7.46875 4.289062 -7.457031 4.15625 -7.4375 C 4.019531 -7.414062 3.894531 -7.390625 3.78125 -7.359375 C 3.664062 -7.335938 3.578125 -7.328125 3.515625 -7.328125 C 3.347656 -7.328125 3.21875 -7.382812 3.125 -7.5 C 3.03125 -7.613281 2.984375 -7.753906 2.984375 -7.921875 C 2.984375 -8.003906 3.003906 -8.082031 3.046875 -8.15625 C 3.085938 -8.226562 3.140625 -8.3125 3.203125 -8.40625 L 7.140625 -12.6875 L 7.375 -12.375 L 1.5 -12.375 C 1.34375 -12.375 1.207031 -12.429688 1.09375 -12.546875 C 0.988281 -12.660156 0.9375 -12.789062 0.9375 -12.9375 C 0.9375 -13.09375 0.988281 -13.222656 1.09375 -13.328125 C 1.207031 -13.429688 1.34375 -13.484375 1.5 -13.484375 L 8.015625 -13.484375 C 8.234375 -13.484375 8.382812 -13.414062 8.46875 -13.28125 C 8.5625 -13.144531 8.609375 -13.015625 8.609375 -12.890625 C 8.609375 -12.804688 8.585938 -12.726562 8.546875 -12.65625 C 8.515625 -12.59375 8.46875 -12.519531 8.40625 -12.4375 L 4.46875 -8.15625 L 4.03125 -8.40625 C 4.070312 -8.445312 4.207031 -8.488281 4.4375 -8.53125 C 4.664062 -8.570312 4.84375 -8.59375 4.96875 -8.59375 C 5.675781 -8.59375 6.34375 -8.425781 6.96875 -8.09375 C 7.601562 -7.757812 8.117188 -7.273438 8.515625 -6.640625 C 8.910156 -6.015625 9.109375 -5.242188 9.109375 -4.328125 C 9.109375 -3.421875 8.894531 -2.628906 8.46875 -1.953125 C 8.039062 -1.273438 7.460938 -0.75 6.734375 -0.375 C 6.003906 0 5.203125 0.1875 4.328125 0.1875 C 3.796875 0.1875 3.269531 0.0976562 2.75 -0.078125 C 2.238281 -0.253906 1.785156 -0.523438 1.390625 -0.890625 C 1.304688 -0.972656 1.242188 -1.050781 1.203125 -1.125 C 1.160156 -1.195312 1.140625 -1.273438 1.140625 -1.359375 C 1.140625 -1.515625 1.191406 -1.660156 1.296875 -1.796875 C 1.410156 -1.929688 1.554688 -2 1.734375 -2 Z M 1.734375 -2 "/></g></g></g><g fill="#201f1f" fill-opacity="1"><g transform="translate(11.183528, 20.234361)"><g><path d="M 4.390625 0 C 4.203125 0 4.050781 -0.0546875 3.9375 -0.171875 C 3.820312 -0.285156 3.765625 -0.421875 3.765625 -0.578125 L 3.765625 -12.265625 L 3.984375 -12.078125 L 1.390625 -10.34375 C 1.285156 -10.269531 1.175781 -10.234375 1.0625 -10.234375 C 0.90625 -10.234375 0.765625 -10.296875 0.640625 -10.421875 C 0.523438 -10.546875 0.46875 -10.6875 0.46875 -10.84375 C 0.46875 -11.050781 0.570312 -11.210938 0.78125 -11.328125 L 4.015625 -13.484375 C 4.097656 -13.535156 4.179688 -13.566406 4.265625 -13.578125 C 4.347656 -13.597656 4.421875 -13.597656 4.484375 -13.578125 C 4.648438 -13.566406 4.773438 -13.503906 4.859375 -13.390625 C 4.953125 -13.285156 5 -13.15625 5 -13 L 5 -0.578125 C 5 -0.421875 4.941406 -0.285156 4.828125 -0.171875 C 4.710938 -0.0546875 4.566406 0 4.390625 0 Z M 4.390625 0 "/></g></g></g></g></g></g><path stroke-linecap="butt" transform="matrix(0.75, 0, 0, 0.75, 0.0000031164, 0.00002)" fill-opacity="1" fill="#000000" fill-rule="nonzero" stroke-linejoin="miter" d="M 0.817704 1.630182 L 0.817704 998.062522 M 168.583337 1.630182 L 168.583337 998.062522 M 336.348971 1.630182 L 336.348971 998.062522 M 504.114604 1.630182 L 504.114604 998.062522 M 671.880237 1.630182 L 671.880237 998.062522 M 839.64587 1.630182 L 839.64587 998.062522 M 1007.411503 1.630182 L 1007.411503 998.062522 M 1175.177136 1.630182 L 1175.177136 998.062522 M -0.0000041552 0.817682 L 1175.989636 0.817682 M -0.0000041552 200.427066 L 1175.989636 200.427066 M -0.0000041552 400.041659 L 1175.989636 400.041659 M -0.0000041552 599.651044 L 1175.989636 599.651044 M -0.0000041552 799.265637 L 1175.989636 799.265637 M -0.0000041552 998.88023 L 1175.989636 998.88023 " stroke="#000000" stroke-width="1.630604" stroke-opacity="1" stroke-miterlimit="4"/></svg>