<svg xmlns="http://www.w3.org/2000/svg" xmlns:xlink="http://www.w3.org/1999/xlink" width="1176" zoomAndPan="magnify" viewBox="0 0 882 749.999995" height="1000" preserveAspectRatio="xMidYMid meet" version="1.0"><defs><g/><clipPath id="6a2d63a68f"><path d="M 2 1.144531 L 10 1.144531 L 10 25 L 2 25 Z M 2 1.144531 " clip-rule="nonzero"/></clipPath><clipPath id="12df858595"><rect x="0" width="8" y="0" height="24"/></clipPath><clipPath id="ab98acfb0f"><path d="M 128 1.144531 L 139 1.144531 L 139 25 L 128 25 Z M 128 1.144531 " clip-rule="nonzero"/></clipPath><clipPath id="fb35740a22"><rect x="0" width="11" y="0" height="24"/></clipPath><clipPath id="a1ac08f581"><path d="M 254 1.144531 L 265 1.144531 L 265 25 L 254 25 Z M 254 1.144531 " clip-rule="nonzero"/></clipPath><clipPath id="aa82355e2f"><rect x="0" width="11" y="0" height="24"/></clipPath><clipPath id="ccee57141e"><path d="M 379 1.144531 L 390 1.144531 L 390 25 L 379 25 Z M 379 1.144531 " clip-rule="nonzero"/></clipPath><clipPath id="a32ff2ab69"><rect x="0" width="11" y="0" height="24"/></clipPath><clipPath id="78cc31948a"><path d="M 505 1.144531 L 517 1.144531 L 517 25 L 505 25 Z M 505 1.144531 " clip-rule="nonzero"/></clipPath><clipPath id="3217011086"><rect x="0" width="12" y="0" height="24"/></clipPath><clipPath id="78a6a8c62d"><path d="M 631 1.144531 L 643 1.144531 L 643 25 L 631 25 Z M 631 1.144531 " clip-rule="nonzero"/></clipPath><clipPath id="d1888e9c76"><rect x="0" width="12" y="0" height="24"/></clipPath><clipPath id="b947d64ef2"><path d="M 757 1.144531 L 768 1.144531 L 768 25 L 757 25 Z M 757 1.144531 " clip-rule="nonzero"/></clipPath><clipPath id="2ca834b955"><rect x="0" width="11" y="0" height="24"/></clipPath><clipPath id="a22f937201"><rect x="0" width="11" y="0" height="24"/></clipPath><clipPath id="5cc36b5bd9"><rect x="0" width="11" y="0" height="24"/></clipPath><clipPath id="7d41539752"><path d="M 0.160156 6 L 5 6 L 5 19 L 0.160156 19 Z M 0.160156 6 " clip-rule="nonzero"/></clipPath><clipPath id="9db9f5c281"><rect x="0" width="19" y="0" height="24"/></clipPath><clipPath id="246d246c4b"><rect x="0" width="16" y="0" height="24"/></clipPath><clipPath id="a36ed49cc7"><rect x="0" width="19" y="0" height="24"/></clipPath><clipPath id="3cce213fc5"><rect x="0" width="18" y="0" height="24"/></clipPath><clipPath id="3ed0f86554"><rect x="0" width="18" y="0" height="24"/></clipPath><clipPath id="9751b76222"><rect x="0" width="18" y="0" height="24"/></clipPath><clipPath id="ea3dd2819c"><path d="M 0.398438 5 L 6 5 L 6 19 L 0.398438 19 Z M 0.398438 5 " clip-rule="nonzero"/></clipPath><clipPath id="0160185675"><rect x="0" width="18" y="0" height="24"/></clipPath><clipPath id="7b172d6ec4"><path d="M 0.160156 5 L 5 5 L 5 19 L 0.160156 19 Z M 0.160156 5 " clip-rule="nonzero"/></clipPath><clipPath id="01bf280bec"><rect x="0" width="17" y="0" height="24"/></clipPath><clipPath id="a6a5ca188f"><rect x="0" width="18" y="0" height="24"/></clipPath><clipPath id="2480735bdc"><rect x="0" width="19" y="0" height="24"/></clipPath><clipPath id="4891f4f768"><rect x="0" width="23" y="0" height="24"/></clipPath><clipPath id="5266ab9876"><rect x="0" width="18" y="0" height="24"/></clipPath><clipPath id="4ff547a868"><path d="M 2 450.457031 L 24 450.457031 L 24 474 L 2 474 Z M 2 450.457031 " clip-rule="nonzero"/></clipPath><clipPath id="b3377ae781"><rect x="0" width="22" y="0" height="24"/></clipPath><clipPath id="4a66077330"><path d="M 128 450.457031 L 149 450.457031 L 149 474 L 128 474 Z M 128 450.457031 " clip-rule="nonzero"/></clipPath><clipPath id="00152ea0c0"><rect x="0" width="21" y="0" height="24"/></clipPath><clipPath id="6c5c2992e7"><path d="M 254 450.457031 L 275 450.457031 L 275 474 L 254 474 Z M 254 450.457031 " clip-rule="nonzero"/></clipPath><clipPath id="10b7d66eff"><rect x="0" width="21" y="0" height="24"/></clipPath><clipPath id="30de5c24c0"><path d="M 379 450.457031 L 401 450.457031 L 401 474 L 379 474 Z M 379 450.457031 " clip-rule="nonzero"/></clipPath><clipPath id="7b9452b39e"><rect x="0" width="22" y="0" height="24"/></clipPath><clipPath id="589a5f55bb"><path d="M 505 450.457031 L 527 450.457031 L 527 474 L 505 474 Z M 505 450.457031 " clip-rule="nonzero"/></clipPath><clipPath id="544f77644d"><rect x="0" width="22" y="0" height="24"/></clipPath><clipPath id="4fed3ca67f"><path d="M 631 450.457031 L 652 450.457031 L 652 474 L 631 474 Z M 631 450.457031 " clip-rule="nonzero"/></clipPath><clipPath id="6016fd1b1e"><rect x="0" width="21" y="0" height="24"/></clipPath><clipPath id="82fb5f6aa3"><path d="M 757 450.457031 L 778 450.457031 L 778 474 L 757 474 Z M 757 450.457031 " clip-rule="nonzero"/></clipPath><clipPath id="d08d99d71b"><rect x="0" width="21" y="0" height="24"/></clipPath></defs><g clip-path="url(#6a2d63a68f)"><g transform="matrix(1, 0, 0, 1, 2, 1)"><g clip-path="url(#12df858595)"><g fill="#201f1f" fill-opacity="1"><g transform="translate(0.643494, 19.10388)"><g><path d="M 4.09375 0 C 3.925781 0 3.785156 -0.0507812 3.671875 -0.15625 C 3.566406 -0.269531 3.515625 -0.398438 3.515625 -0.546875 L 3.515625 -11.46875 L 3.71875 -11.28125 L 1.3125 -9.671875 C 1.207031 -9.597656 1.101562 -9.5625 1 -9.5625 C 0.851562 -9.5625 0.722656 -9.617188 0.609375 -9.734375 C 0.492188 -9.859375 0.4375 -9.992188 0.4375 -10.140625 C 0.4375 -10.335938 0.53125 -10.488281 0.71875 -10.59375 L 3.75 -12.609375 C 3.820312 -12.660156 3.894531 -12.691406 3.96875 -12.703125 C 4.050781 -12.710938 4.125 -12.710938 4.1875 -12.703125 C 4.34375 -12.691406 4.460938 -12.632812 4.546875 -12.53125 C 4.640625 -12.425781 4.6875 -12.300781 4.6875 -12.15625 L 4.6875 -0.546875 C 4.6875 -0.398438 4.628906 -0.269531 4.515625 -0.15625 C 4.410156 -0.0507812 4.269531 0 4.09375 0 Z M 4.09375 0 "/></g></g></g></g></g></g><g clip-path="url(#ab98acfb0f)"><g transform="matrix(1, 0, 0, 1, 128, 1)"><g clip-path="url(#fb35740a22)"><g fill="#201f1f" fill-opacity="1"><g transform="translate(0.471452, 19.10388)"><g><path d="M 8.59375 -1.046875 C 8.738281 -1.046875 8.863281 -0.992188 8.96875 -0.890625 C 9.070312 -0.796875 9.125 -0.675781 9.125 -0.53125 C 9.125 -0.375 9.070312 -0.242188 8.96875 -0.140625 C 8.863281 -0.046875 8.738281 0 8.59375 0 L 1.796875 0 C 1.640625 0 1.503906 -0.0390625 1.390625 -0.125 C 1.273438 -0.21875 1.21875 -0.359375 1.21875 -0.546875 C 1.21875 -0.679688 1.265625 -0.804688 1.359375 -0.921875 L 5.546875 -5.546875 C 6.210938 -6.273438 6.710938 -6.941406 7.046875 -7.546875 C 7.378906 -8.160156 7.546875 -8.710938 7.546875 -9.203125 C 7.546875 -9.992188 7.300781 -10.628906 6.8125 -11.109375 C 6.332031 -11.597656 5.679688 -11.84375 4.859375 -11.84375 C 4.484375 -11.84375 4.109375 -11.765625 3.734375 -11.609375 C 3.367188 -11.453125 3.046875 -11.242188 2.765625 -10.984375 C 2.484375 -10.734375 2.265625 -10.445312 2.109375 -10.125 C 2.035156 -10 1.957031 -9.910156 1.875 -9.859375 C 1.800781 -9.816406 1.710938 -9.796875 1.609375 -9.796875 C 1.460938 -9.796875 1.332031 -9.835938 1.21875 -9.921875 C 1.113281 -10.015625 1.0625 -10.128906 1.0625 -10.265625 C 1.0625 -10.347656 1.082031 -10.429688 1.125 -10.515625 C 1.175781 -10.609375 1.242188 -10.707031 1.328125 -10.8125 C 1.546875 -11.1875 1.847656 -11.53125 2.234375 -11.84375 C 2.617188 -12.15625 3.050781 -12.40625 3.53125 -12.59375 C 4.007812 -12.78125 4.476562 -12.875 4.9375 -12.875 C 5.707031 -12.875 6.375 -12.722656 6.9375 -12.421875 C 7.5 -12.128906 7.929688 -11.710938 8.234375 -11.171875 C 8.546875 -10.640625 8.703125 -10.003906 8.703125 -9.265625 C 8.703125 -8.640625 8.503906 -7.953125 8.109375 -7.203125 C 7.722656 -6.460938 7.144531 -5.664062 6.375 -4.8125 L 2.828125 -0.828125 L 2.65625 -1.046875 Z M 8.59375 -1.046875 "/></g></g></g></g></g></g><g clip-path="url(#a1ac08f581)"><g transform="matrix(1, 0, 0, 1, 254, 1)"><g clip-path="url(#aa82355e2f)"><g fill="#201f1f" fill-opacity="1"><g transform="translate(0.299415, 19.10388)"><g><path d="M 1.609375 -1.875 C 1.671875 -1.875 1.734375 -1.859375 1.796875 -1.828125 C 1.867188 -1.804688 1.953125 -1.753906 2.046875 -1.671875 C 2.304688 -1.398438 2.609375 -1.195312 2.953125 -1.0625 C 3.304688 -0.925781 3.707031 -0.859375 4.15625 -0.859375 C 4.75 -0.859375 5.289062 -0.988281 5.78125 -1.25 C 6.269531 -1.519531 6.660156 -1.890625 6.953125 -2.359375 C 7.242188 -2.835938 7.390625 -3.390625 7.390625 -4.015625 C 7.390625 -4.710938 7.234375 -5.273438 6.921875 -5.703125 C 6.609375 -6.128906 6.210938 -6.445312 5.734375 -6.65625 C 5.265625 -6.875 4.78125 -6.984375 4.28125 -6.984375 C 4.144531 -6.984375 4.015625 -6.972656 3.890625 -6.953125 C 3.765625 -6.941406 3.644531 -6.921875 3.53125 -6.890625 C 3.425781 -6.867188 3.34375 -6.859375 3.28125 -6.859375 C 3.125 -6.859375 3.003906 -6.910156 2.921875 -7.015625 C 2.835938 -7.117188 2.796875 -7.25 2.796875 -7.40625 C 2.796875 -7.488281 2.8125 -7.5625 2.84375 -7.625 C 2.882812 -7.695312 2.9375 -7.773438 3 -7.859375 L 6.671875 -11.859375 L 6.890625 -11.578125 L 1.390625 -11.578125 C 1.242188 -11.578125 1.117188 -11.625 1.015625 -11.71875 C 0.921875 -11.820312 0.875 -11.945312 0.875 -12.09375 C 0.875 -12.238281 0.921875 -12.359375 1.015625 -12.453125 C 1.117188 -12.554688 1.242188 -12.609375 1.390625 -12.609375 L 7.484375 -12.609375 C 7.691406 -12.609375 7.835938 -12.546875 7.921875 -12.421875 C 8.003906 -12.296875 8.046875 -12.171875 8.046875 -12.046875 C 8.046875 -11.972656 8.03125 -11.898438 8 -11.828125 C 7.96875 -11.765625 7.921875 -11.695312 7.859375 -11.625 L 4.171875 -7.625 L 3.765625 -7.859375 C 3.804688 -7.890625 3.929688 -7.925781 4.140625 -7.96875 C 4.359375 -8.007812 4.523438 -8.03125 4.640625 -8.03125 C 5.304688 -8.03125 5.929688 -7.875 6.515625 -7.5625 C 7.109375 -7.25 7.585938 -6.796875 7.953125 -6.203125 C 8.328125 -5.617188 8.515625 -4.898438 8.515625 -4.046875 C 8.515625 -3.203125 8.3125 -2.460938 7.90625 -1.828125 C 7.507812 -1.191406 6.972656 -0.695312 6.296875 -0.34375 C 5.617188 0.0078125 4.867188 0.1875 4.046875 0.1875 C 3.546875 0.1875 3.050781 0.101562 2.5625 -0.0625 C 2.082031 -0.238281 1.664062 -0.492188 1.3125 -0.828125 C 1.21875 -0.898438 1.148438 -0.972656 1.109375 -1.046875 C 1.078125 -1.117188 1.0625 -1.191406 1.0625 -1.265625 C 1.0625 -1.410156 1.113281 -1.546875 1.21875 -1.671875 C 1.320312 -1.804688 1.453125 -1.875 1.609375 -1.875 Z M 1.609375 -1.875 "/></g></g></g></g></g></g><g clip-path="url(#ccee57141e)"><g transform="matrix(1, 0, 0, 1, 379, 1)"><g clip-path="url(#a32ff2ab69)"><g fill="#201f1f" fill-opacity="1"><g transform="translate(1.127377, 19.10388)"><g><path d="M 6.65625 0 C 6.5 0 6.367188 -0.0507812 6.265625 -0.15625 C 6.171875 -0.269531 6.125 -0.398438 6.125 -0.546875 L 6.125 -11.1875 L 6.375 -11.046875 L 1.59375 -4.734375 L 1.546875 -4.9375 L 8.515625 -4.9375 C 8.648438 -4.9375 8.769531 -4.882812 8.875 -4.78125 C 8.976562 -4.6875 9.03125 -4.566406 9.03125 -4.421875 C 9.03125 -4.273438 8.976562 -4.15625 8.875 -4.0625 C 8.769531 -3.96875 8.648438 -3.921875 8.515625 -3.921875 L 0.796875 -3.921875 C 0.648438 -3.921875 0.519531 -3.976562 0.40625 -4.09375 C 0.300781 -4.207031 0.25 -4.335938 0.25 -4.484375 C 0.25 -4.617188 0.289062 -4.738281 0.375 -4.84375 L 6.21875 -12.484375 C 6.28125 -12.566406 6.351562 -12.625 6.4375 -12.65625 C 6.53125 -12.6875 6.609375 -12.703125 6.671875 -12.703125 C 6.828125 -12.703125 6.957031 -12.644531 7.0625 -12.53125 C 7.164062 -12.425781 7.21875 -12.300781 7.21875 -12.15625 L 7.21875 -0.546875 C 7.21875 -0.398438 7.160156 -0.269531 7.046875 -0.15625 C 6.941406 -0.0507812 6.8125 0 6.65625 0 Z M 6.65625 0 "/></g></g></g></g></g></g><g clip-path="url(#78cc31948a)"><g transform="matrix(1, 0, 0, 1, 505, 1)"><g clip-path="url(#3217011086)"><g fill="#201f1f" fill-opacity="1"><g transform="translate(0.95531, 19.10388)"><g><path d="M 4.25 0.03125 C 3.75 0.03125 3.25 -0.046875 2.75 -0.203125 C 2.25 -0.367188 1.804688 -0.613281 1.421875 -0.9375 C 1.347656 -1 1.285156 -1.070312 1.234375 -1.15625 C 1.191406 -1.238281 1.171875 -1.328125 1.171875 -1.421875 C 1.171875 -1.535156 1.21875 -1.648438 1.3125 -1.765625 C 1.414062 -1.878906 1.546875 -1.9375 1.703125 -1.9375 C 1.835938 -1.9375 1.972656 -1.882812 2.109375 -1.78125 C 2.421875 -1.539062 2.757812 -1.351562 3.125 -1.21875 C 3.5 -1.082031 3.875 -1.015625 4.25 -1.015625 C 4.957031 -1.015625 5.578125 -1.148438 6.109375 -1.421875 C 6.640625 -1.691406 7.050781 -2.078125 7.34375 -2.578125 C 7.632812 -3.085938 7.78125 -3.671875 7.78125 -4.328125 C 7.78125 -4.953125 7.644531 -5.488281 7.375 -5.9375 C 7.113281 -6.394531 6.738281 -6.753906 6.25 -7.015625 C 5.757812 -7.273438 5.179688 -7.40625 4.515625 -7.40625 C 4.078125 -7.40625 3.679688 -7.335938 3.328125 -7.203125 C 2.972656 -7.066406 2.664062 -6.925781 2.40625 -6.78125 C 2.144531 -6.644531 1.9375 -6.578125 1.78125 -6.578125 C 1.632812 -6.578125 1.515625 -6.613281 1.421875 -6.6875 C 1.328125 -6.757812 1.265625 -6.847656 1.234375 -6.953125 C 1.210938 -7.066406 1.210938 -7.1875 1.234375 -7.3125 L 2.015625 -12.15625 C 2.023438 -12.257812 2.082031 -12.359375 2.1875 -12.453125 C 2.289062 -12.546875 2.421875 -12.59375 2.578125 -12.59375 L 8.03125 -12.59375 C 8.175781 -12.59375 8.300781 -12.539062 8.40625 -12.4375 C 8.507812 -12.332031 8.5625 -12.207031 8.5625 -12.0625 C 8.5625 -11.90625 8.507812 -11.773438 8.40625 -11.671875 C 8.300781 -11.566406 8.175781 -11.515625 8.03125 -11.515625 L 2.828125 -11.515625 L 3 -11.6875 L 2.25 -7.390625 L 1.921875 -7.625 C 2.078125 -7.738281 2.300781 -7.851562 2.59375 -7.96875 C 2.894531 -8.09375 3.226562 -8.203125 3.59375 -8.296875 C 3.96875 -8.390625 4.359375 -8.4375 4.765625 -8.4375 C 5.554688 -8.4375 6.257812 -8.265625 6.875 -7.921875 C 7.488281 -7.578125 7.972656 -7.097656 8.328125 -6.484375 C 8.691406 -5.867188 8.875 -5.164062 8.875 -4.375 C 8.875 -3.488281 8.679688 -2.710938 8.296875 -2.046875 C 7.921875 -1.390625 7.382812 -0.878906 6.6875 -0.515625 C 6 -0.148438 5.1875 0.03125 4.25 0.03125 Z M 4.25 0.03125 "/></g></g></g></g></g></g><g clip-path="url(#78a6a8c62d)"><g transform="matrix(1, 0, 0, 1, 631, 1)"><g clip-path="url(#d1888e9c76)"><g fill="#201f1f" fill-opacity="1"><g transform="translate(0.783273, 19.10388)"><g><path d="M 5.203125 0.1875 C 4.503906 0.1875 3.890625 0.0625 3.359375 -0.1875 C 2.835938 -0.445312 2.40625 -0.789062 2.0625 -1.21875 C 1.71875 -1.65625 1.460938 -2.144531 1.296875 -2.6875 C 1.128906 -3.226562 1.046875 -3.785156 1.046875 -4.359375 C 1.046875 -4.929688 1.117188 -5.550781 1.265625 -6.21875 C 1.410156 -6.894531 1.632812 -7.578125 1.9375 -8.265625 C 2.238281 -8.960938 2.609375 -9.617188 3.046875 -10.234375 C 3.492188 -10.847656 4.007812 -11.398438 4.59375 -11.890625 C 5.1875 -12.378906 5.847656 -12.765625 6.578125 -13.046875 C 6.671875 -13.066406 6.742188 -13.078125 6.796875 -13.078125 C 6.953125 -13.078125 7.085938 -13.035156 7.203125 -12.953125 C 7.328125 -12.867188 7.390625 -12.722656 7.390625 -12.515625 C 7.390625 -12.390625 7.347656 -12.28125 7.265625 -12.1875 C 7.179688 -12.101562 7.078125 -12.035156 6.953125 -11.984375 C 6.441406 -11.773438 5.9375 -11.46875 5.4375 -11.0625 C 4.945312 -10.664062 4.488281 -10.207031 4.0625 -9.6875 C 3.632812 -9.164062 3.273438 -8.601562 2.984375 -8 C 2.691406 -7.40625 2.484375 -6.800781 2.359375 -6.1875 L 1.953125 -5.953125 C 2.171875 -6.347656 2.453125 -6.695312 2.796875 -7 C 3.140625 -7.3125 3.535156 -7.5625 3.984375 -7.75 C 4.429688 -7.9375 4.914062 -8.03125 5.4375 -8.03125 C 5.988281 -8.03125 6.492188 -7.914062 6.953125 -7.6875 C 7.410156 -7.457031 7.804688 -7.144531 8.140625 -6.75 C 8.472656 -6.363281 8.734375 -5.921875 8.921875 -5.421875 C 9.109375 -4.929688 9.203125 -4.414062 9.203125 -3.875 C 9.203125 -3.164062 9.023438 -2.503906 8.671875 -1.890625 C 8.328125 -1.273438 7.859375 -0.773438 7.265625 -0.390625 C 6.671875 -0.00390625 5.984375 0.1875 5.203125 0.1875 Z M 5.1875 -0.875 C 5.738281 -0.875 6.234375 -1 6.671875 -1.25 C 7.109375 -1.5 7.453125 -1.851562 7.703125 -2.3125 C 7.953125 -2.769531 8.078125 -3.289062 8.078125 -3.875 C 8.078125 -4.425781 7.96875 -4.929688 7.75 -5.390625 C 7.539062 -5.859375 7.226562 -6.238281 6.8125 -6.53125 C 6.394531 -6.832031 5.878906 -6.984375 5.265625 -6.984375 C 4.617188 -6.984375 4.0625 -6.835938 3.59375 -6.546875 C 3.132812 -6.253906 2.78125 -5.867188 2.53125 -5.390625 C 2.28125 -4.921875 2.15625 -4.398438 2.15625 -3.828125 C 2.15625 -3.316406 2.273438 -2.832031 2.515625 -2.375 C 2.765625 -1.925781 3.113281 -1.5625 3.5625 -1.28125 C 4.019531 -1.007812 4.5625 -0.875 5.1875 -0.875 Z M 5.1875 -0.875 "/></g></g></g></g></g></g><g clip-path="url(#b947d64ef2)"><g transform="matrix(1, 0, 0, 1, 757, 1)"><g clip-path="url(#2ca834b955)"><g fill="#201f1f" fill-opacity="1"><g transform="translate(0.611236, 19.10388)"><g><path d="M 3.234375 0.046875 C 3.085938 0.046875 2.953125 0 2.828125 -0.09375 C 2.710938 -0.1875 2.65625 -0.304688 2.65625 -0.453125 C 2.65625 -0.535156 2.671875 -0.625 2.703125 -0.71875 L 7.53125 -11.8125 L 7.734375 -11.5625 L 1.59375 -11.5625 C 1.445312 -11.5625 1.320312 -11.609375 1.21875 -11.703125 C 1.113281 -11.804688 1.0625 -11.929688 1.0625 -12.078125 C 1.0625 -12.234375 1.113281 -12.359375 1.21875 -12.453125 C 1.320312 -12.554688 1.445312 -12.609375 1.59375 -12.609375 L 8.25 -12.609375 C 8.4375 -12.609375 8.570312 -12.554688 8.65625 -12.453125 C 8.738281 -12.359375 8.78125 -12.238281 8.78125 -12.09375 C 8.78125 -12 8.757812 -11.910156 8.71875 -11.828125 L 3.734375 -0.3125 C 3.703125 -0.195312 3.632812 -0.109375 3.53125 -0.046875 C 3.4375 0.015625 3.335938 0.046875 3.234375 0.046875 Z M 3.234375 0.046875 "/></g></g></g></g></g></g><g transform="matrix(1, 0, 0, 1, 2, 151)"><g clip-path="url(#a22f937201)"><g fill="#201f1f" fill-opacity="1"><g transform="translate(0.643494, 18.875123)"><g><path d="M 6.609375 -6.390625 L 6.546875 -6.546875 C 6.960938 -6.390625 7.335938 -6.15625 7.671875 -5.84375 C 8.015625 -5.539062 8.285156 -5.179688 8.484375 -4.765625 C 8.691406 -4.347656 8.796875 -3.890625 8.796875 -3.390625 C 8.796875 -2.734375 8.625 -2.140625 8.28125 -1.609375 C 7.9375 -1.078125 7.46875 -0.65625 6.875 -0.34375 C 6.28125 -0.03125 5.617188 0.125 4.890625 0.125 C 4.160156 0.125 3.5 -0.03125 2.90625 -0.34375 C 2.320312 -0.65625 1.859375 -1.078125 1.515625 -1.609375 C 1.171875 -2.140625 1 -2.734375 1 -3.390625 C 1 -3.921875 1.101562 -4.394531 1.3125 -4.8125 C 1.519531 -5.226562 1.796875 -5.582031 2.140625 -5.875 C 2.492188 -6.164062 2.859375 -6.390625 3.234375 -6.546875 L 3.171875 -6.375 C 2.847656 -6.53125 2.539062 -6.742188 2.25 -7.015625 C 1.96875 -7.285156 1.734375 -7.609375 1.546875 -7.984375 C 1.367188 -8.367188 1.28125 -8.789062 1.28125 -9.25 C 1.28125 -9.90625 1.441406 -10.492188 1.765625 -11.015625 C 2.085938 -11.535156 2.523438 -11.945312 3.078125 -12.25 C 3.628906 -12.550781 4.234375 -12.703125 4.890625 -12.703125 C 5.554688 -12.703125 6.160156 -12.550781 6.703125 -12.25 C 7.242188 -11.945312 7.671875 -11.535156 7.984375 -11.015625 C 8.304688 -10.492188 8.46875 -9.90625 8.46875 -9.25 C 8.46875 -8.78125 8.375 -8.359375 8.1875 -7.984375 C 8.007812 -7.609375 7.773438 -7.285156 7.484375 -7.015625 C 7.203125 -6.742188 6.910156 -6.535156 6.609375 -6.390625 Z M 2.40625 -9.25 C 2.40625 -8.769531 2.519531 -8.347656 2.75 -7.984375 C 2.988281 -7.617188 3.296875 -7.332031 3.671875 -7.125 C 4.046875 -6.925781 4.453125 -6.828125 4.890625 -6.828125 C 5.328125 -6.828125 5.734375 -6.925781 6.109375 -7.125 C 6.484375 -7.332031 6.78125 -7.617188 7 -7.984375 C 7.226562 -8.347656 7.34375 -8.769531 7.34375 -9.25 C 7.34375 -9.96875 7.113281 -10.550781 6.65625 -11 C 6.195312 -11.445312 5.609375 -11.671875 4.890625 -11.671875 C 4.160156 -11.671875 3.5625 -11.445312 3.09375 -11 C 2.632812 -10.550781 2.40625 -9.96875 2.40625 -9.25 Z M 4.890625 -0.90625 C 5.710938 -0.90625 6.378906 -1.140625 6.890625 -1.609375 C 7.410156 -2.085938 7.671875 -2.679688 7.671875 -3.390625 C 7.671875 -3.878906 7.539062 -4.316406 7.28125 -4.703125 C 7.03125 -5.085938 6.691406 -5.390625 6.265625 -5.609375 C 5.847656 -5.828125 5.390625 -5.9375 4.890625 -5.9375 C 4.398438 -5.9375 3.941406 -5.828125 3.515625 -5.609375 C 3.097656 -5.390625 2.757812 -5.085938 2.5 -4.703125 C 2.25 -4.316406 2.125 -3.878906 2.125 -3.390625 C 2.125 -2.679688 2.375 -2.085938 2.875 -1.609375 C 3.382812 -1.140625 4.054688 -0.90625 4.890625 -0.90625 Z M 4.890625 -0.90625 "/></g></g></g></g></g><g transform="matrix(1, 0, 0, 1, 128, 151)"><g clip-path="url(#5cc36b5bd9)"><g fill="#201f1f" fill-opacity="1"><g transform="translate(0.471452, 18.875123)"><g><path d="M 5.03125 -12.890625 C 5.738281 -12.890625 6.351562 -12.765625 6.875 -12.515625 C 7.40625 -12.265625 7.835938 -11.921875 8.171875 -11.484375 C 8.515625 -11.054688 8.769531 -10.570312 8.9375 -10.03125 C 9.113281 -9.488281 9.203125 -8.929688 9.203125 -8.359375 C 9.203125 -7.773438 9.125 -7.15625 8.96875 -6.5 C 8.820312 -5.84375 8.597656 -5.175781 8.296875 -4.5 C 8.003906 -3.832031 7.632812 -3.195312 7.1875 -2.59375 C 6.75 -1.988281 6.234375 -1.441406 5.640625 -0.953125 C 5.046875 -0.472656 4.390625 -0.101562 3.671875 0.15625 C 3.566406 0.1875 3.484375 0.203125 3.421875 0.203125 C 3.273438 0.203125 3.144531 0.148438 3.03125 0.046875 C 2.914062 -0.0546875 2.859375 -0.191406 2.859375 -0.359375 C 2.859375 -0.484375 2.894531 -0.585938 2.96875 -0.671875 C 3.039062 -0.765625 3.148438 -0.835938 3.296875 -0.890625 C 3.984375 -1.179688 4.648438 -1.613281 5.296875 -2.1875 C 5.941406 -2.757812 6.492188 -3.421875 6.953125 -4.171875 C 7.421875 -4.929688 7.734375 -5.71875 7.890625 -6.53125 L 8.265625 -6.765625 C 8.066406 -6.378906 7.789062 -6.03125 7.4375 -5.71875 C 7.082031 -5.40625 6.6875 -5.160156 6.25 -4.984375 C 5.8125 -4.804688 5.332031 -4.71875 4.8125 -4.71875 C 4.03125 -4.71875 3.359375 -4.90625 2.796875 -5.28125 C 2.234375 -5.664062 1.800781 -6.171875 1.5 -6.796875 C 1.195312 -7.429688 1.046875 -8.109375 1.046875 -8.828125 C 1.046875 -9.546875 1.21875 -10.210938 1.5625 -10.828125 C 1.914062 -11.441406 2.390625 -11.9375 2.984375 -12.3125 C 3.578125 -12.695312 4.257812 -12.890625 5.03125 -12.890625 Z M 5.0625 -11.84375 C 4.488281 -11.84375 3.984375 -11.710938 3.546875 -11.453125 C 3.117188 -11.203125 2.78125 -10.847656 2.53125 -10.390625 C 2.28125 -9.941406 2.15625 -9.421875 2.15625 -8.828125 C 2.15625 -8.296875 2.257812 -7.796875 2.46875 -7.328125 C 2.6875 -6.859375 3.003906 -6.476562 3.421875 -6.1875 C 3.847656 -5.90625 4.363281 -5.765625 4.96875 -5.765625 C 5.625 -5.765625 6.179688 -5.90625 6.640625 -6.1875 C 7.097656 -6.476562 7.453125 -6.859375 7.703125 -7.328125 C 7.960938 -7.796875 8.09375 -8.316406 8.09375 -8.890625 C 8.09375 -9.410156 7.96875 -9.894531 7.71875 -10.34375 C 7.476562 -10.789062 7.132812 -11.148438 6.6875 -11.421875 C 6.238281 -11.703125 5.695312 -11.84375 5.0625 -11.84375 Z M 5.0625 -11.84375 "/></g></g></g></g></g><g transform="matrix(1, 0, 0, 1, 254, 151)"><g clip-path="url(#9db9f5c281)"><g clip-path="url(#7d41539752)"><g fill="#201f1f" fill-opacity="1"><g transform="translate(0.299415, 18.875123)"><g><path d="M 4.09375 0 C 3.925781 0 3.785156 -0.0507812 3.671875 -0.15625 C 3.566406 -0.269531 3.515625 -0.398438 3.515625 -0.546875 L 3.515625 -11.46875 L 3.71875 -11.28125 L 1.3125 -9.671875 C 1.207031 -9.597656 1.101562 -9.5625 1 -9.5625 C 0.851562 -9.5625 0.722656 -9.617188 0.609375 -9.734375 C 0.492188 -9.859375 0.4375 -9.992188 0.4375 -10.140625 C 0.4375 -10.335938 0.53125 -10.488281 0.71875 -10.59375 L 3.75 -12.609375 C 3.820312 -12.660156 3.894531 -12.691406 3.96875 -12.703125 C 4.050781 -12.710938 4.125 -12.710938 4.1875 -12.703125 C 4.34375 -12.691406 4.460938 -12.632812 4.546875 -12.53125 C 4.640625 -12.425781 4.6875 -12.300781 4.6875 -12.15625 L 4.6875 -0.546875 C 4.6875 -0.398438 4.628906 -0.269531 4.515625 -0.15625 C 4.410156 -0.0507812 4.269531 0 4.09375 0 Z M 4.09375 0 "/></g></g></g></g><g fill="#201f1f" fill-opacity="1"><g transform="translate(7.009381, 18.875123)"><g><path d="M 5.390625 0.1875 C 4.421875 0.1875 3.609375 -0.101562 2.953125 -0.6875 C 2.304688 -1.269531 1.816406 -2.050781 1.484375 -3.03125 C 1.160156 -4.019531 1 -5.125 1 -6.34375 C 1 -7.582031 1.160156 -8.691406 1.484375 -9.671875 C 1.816406 -10.660156 2.304688 -11.441406 2.953125 -12.015625 C 3.609375 -12.585938 4.421875 -12.875 5.390625 -12.875 C 6.378906 -12.875 7.195312 -12.585938 7.84375 -12.015625 C 8.488281 -11.441406 8.972656 -10.660156 9.296875 -9.671875 C 9.628906 -8.691406 9.796875 -7.582031 9.796875 -6.34375 C 9.796875 -5.125 9.628906 -4.019531 9.296875 -3.03125 C 8.972656 -2.050781 8.488281 -1.269531 7.84375 -0.6875 C 7.195312 -0.101562 6.378906 0.1875 5.390625 0.1875 Z M 5.390625 -0.9375 C 6.097656 -0.9375 6.691406 -1.160156 7.171875 -1.609375 C 7.648438 -2.054688 8.015625 -2.6875 8.265625 -3.5 C 8.515625 -4.320312 8.640625 -5.269531 8.640625 -6.34375 C 8.640625 -7.4375 8.515625 -8.390625 8.265625 -9.203125 C 8.015625 -10.023438 7.648438 -10.65625 7.171875 -11.09375 C 6.691406 -11.539062 6.097656 -11.765625 5.390625 -11.765625 C 4.679688 -11.765625 4.085938 -11.539062 3.609375 -11.09375 C 3.140625 -10.65625 2.78125 -10.023438 2.53125 -9.203125 C 2.28125 -8.390625 2.15625 -7.4375 2.15625 -6.34375 C 2.15625 -5.269531 2.28125 -4.320312 2.53125 -3.5 C 2.78125 -2.6875 3.140625 -2.054688 3.609375 -1.609375 C 4.085938 -1.160156 4.679688 -0.9375 5.390625 -0.9375 Z M 5.390625 -0.9375 "/></g></g></g></g></g><g transform="matrix(1, 0, 0, 1, 379, 151)"><g clip-path="url(#246d246c4b)"><g fill="#201f1f" fill-opacity="1"><g transform="translate(1.127377, 18.875123)"><g><path d="M 4.09375 0 C 3.925781 0 3.785156 -0.0507812 3.671875 -0.15625 C 3.566406 -0.269531 3.515625 -0.398438 3.515625 -0.546875 L 3.515625 -11.46875 L 3.71875 -11.28125 L 1.3125 -9.671875 C 1.207031 -9.597656 1.101562 -9.5625 1 -9.5625 C 0.851562 -9.5625 0.722656 -9.617188 0.609375 -9.734375 C 0.492188 -9.859375 0.4375 -9.992188 0.4375 -10.140625 C 0.4375 -10.335938 0.53125 -10.488281 0.71875 -10.59375 L 3.75 -12.609375 C 3.820312 -12.660156 3.894531 -12.691406 3.96875 -12.703125 C 4.050781 -12.710938 4.125 -12.710938 4.1875 -12.703125 C 4.34375 -12.691406 4.460938 -12.632812 4.546875 -12.53125 C 4.640625 -12.425781 4.6875 -12.300781 4.6875 -12.15625 L 4.6875 -0.546875 C 4.6875 -0.398438 4.628906 -0.269531 4.515625 -0.15625 C 4.410156 -0.0507812 4.269531 0 4.09375 0 Z M 4.09375 0 "/></g></g></g><g fill="#201f1f" fill-opacity="1"><g transform="translate(7.837344, 18.875123)"><g><path d="M 4.09375 0 C 3.925781 0 3.785156 -0.0507812 3.671875 -0.15625 C 3.566406 -0.269531 3.515625 -0.398438 3.515625 -0.546875 L 3.515625 -11.46875 L 3.71875 -11.28125 L 1.3125 -9.671875 C 1.207031 -9.597656 1.101562 -9.5625 1 -9.5625 C 0.851562 -9.5625 0.722656 -9.617188 0.609375 -9.734375 C 0.492188 -9.859375 0.4375 -9.992188 0.4375 -10.140625 C 0.4375 -10.335938 0.53125 -10.488281 0.71875 -10.59375 L 3.75 -12.609375 C 3.820312 -12.660156 3.894531 -12.691406 3.96875 -12.703125 C 4.050781 -12.710938 4.125 -12.710938 4.1875 -12.703125 C 4.34375 -12.691406 4.460938 -12.632812 4.546875 -12.53125 C 4.640625 -12.425781 4.6875 -12.300781 4.6875 -12.15625 L 4.6875 -0.546875 C 4.6875 -0.398438 4.628906 -0.269531 4.515625 -0.15625 C 4.410156 -0.0507812 4.269531 0 4.09375 0 Z M 4.09375 0 "/></g></g></g></g></g><g transform="matrix(1, 0, 0, 1, 505, 151)"><g clip-path="url(#a36ed49cc7)"><g fill="#201f1f" fill-opacity="1"><g transform="translate(0.95531, 18.875123)"><g><path d="M 4.09375 0 C 3.925781 0 3.785156 -0.0507812 3.671875 -0.15625 C 3.566406 -0.269531 3.515625 -0.398438 3.515625 -0.546875 L 3.515625 -11.46875 L 3.71875 -11.28125 L 1.3125 -9.671875 C 1.207031 -9.597656 1.101562 -9.5625 1 -9.5625 C 0.851562 -9.5625 0.722656 -9.617188 0.609375 -9.734375 C 0.492188 -9.859375 0.4375 -9.992188 0.4375 -10.140625 C 0.4375 -10.335938 0.53125 -10.488281 0.71875 -10.59375 L 3.75 -12.609375 C 3.820312 -12.660156 3.894531 -12.691406 3.96875 -12.703125 C 4.050781 -12.710938 4.125 -12.710938 4.1875 -12.703125 C 4.34375 -12.691406 4.460938 -12.632812 4.546875 -12.53125 C 4.640625 -12.425781 4.6875 -12.300781 4.6875 -12.15625 L 4.6875 -0.546875 C 4.6875 -0.398438 4.628906 -0.269531 4.515625 -0.15625 C 4.410156 -0.0507812 4.269531 0 4.09375 0 Z M 4.09375 0 "/></g></g></g><g fill="#201f1f" fill-opacity="1"><g transform="translate(7.665277, 18.875123)"><g><path d="M 8.59375 -1.046875 C 8.738281 -1.046875 8.863281 -0.992188 8.96875 -0.890625 C 9.070312 -0.796875 9.125 -0.675781 9.125 -0.53125 C 9.125 -0.375 9.070312 -0.242188 8.96875 -0.140625 C 8.863281 -0.046875 8.738281 0 8.59375 0 L 1.796875 0 C 1.640625 0 1.503906 -0.0390625 1.390625 -0.125 C 1.273438 -0.21875 1.21875 -0.359375 1.21875 -0.546875 C 1.21875 -0.679688 1.265625 -0.804688 1.359375 -0.921875 L 5.546875 -5.546875 C 6.210938 -6.273438 6.710938 -6.941406 7.046875 -7.546875 C 7.378906 -8.160156 7.546875 -8.710938 7.546875 -9.203125 C 7.546875 -9.992188 7.300781 -10.628906 6.8125 -11.109375 C 6.332031 -11.597656 5.679688 -11.84375 4.859375 -11.84375 C 4.484375 -11.84375 4.109375 -11.765625 3.734375 -11.609375 C 3.367188 -11.453125 3.046875 -11.242188 2.765625 -10.984375 C 2.484375 -10.734375 2.265625 -10.445312 2.109375 -10.125 C 2.035156 -10 1.957031 -9.910156 1.875 -9.859375 C 1.800781 -9.816406 1.710938 -9.796875 1.609375 -9.796875 C 1.460938 -9.796875 1.332031 -9.835938 1.21875 -9.921875 C 1.113281 -10.015625 1.0625 -10.128906 1.0625 -10.265625 C 1.0625 -10.347656 1.082031 -10.429688 1.125 -10.515625 C 1.175781 -10.609375 1.242188 -10.707031 1.328125 -10.8125 C 1.546875 -11.1875 1.847656 -11.53125 2.234375 -11.84375 C 2.617188 -12.15625 3.050781 -12.40625 3.53125 -12.59375 C 4.007812 -12.78125 4.476562 -12.875 4.9375 -12.875 C 5.707031 -12.875 6.375 -12.722656 6.9375 -12.421875 C 7.5 -12.128906 7.929688 -11.710938 8.234375 -11.171875 C 8.546875 -10.640625 8.703125 -10.003906 8.703125 -9.265625 C 8.703125 -8.640625 8.503906 -7.953125 8.109375 -7.203125 C 7.722656 -6.460938 7.144531 -5.664062 6.375 -4.8125 L 2.828125 -0.828125 L 2.65625 -1.046875 Z M 8.59375 -1.046875 "/></g></g></g></g></g><g transform="matrix(1, 0, 0, 1, 631, 151)"><g clip-path="url(#3cce213fc5)"><g fill="#201f1f" fill-opacity="1"><g transform="translate(0.783273, 18.875123)"><g><path d="M 4.09375 0 C 3.925781 0 3.785156 -0.0507812 3.671875 -0.15625 C 3.566406 -0.269531 3.515625 -0.398438 3.515625 -0.546875 L 3.515625 -11.46875 L 3.71875 -11.28125 L 1.3125 -9.671875 C 1.207031 -9.597656 1.101562 -9.5625 1 -9.5625 C 0.851562 -9.5625 0.722656 -9.617188 0.609375 -9.734375 C 0.492188 -9.859375 0.4375 -9.992188 0.4375 -10.140625 C 0.4375 -10.335938 0.53125 -10.488281 0.71875 -10.59375 L 3.75 -12.609375 C 3.820312 -12.660156 3.894531 -12.691406 3.96875 -12.703125 C 4.050781 -12.710938 4.125 -12.710938 4.1875 -12.703125 C 4.34375 -12.691406 4.460938 -12.632812 4.546875 -12.53125 C 4.640625 -12.425781 4.6875 -12.300781 4.6875 -12.15625 L 4.6875 -0.546875 C 4.6875 -0.398438 4.628906 -0.269531 4.515625 -0.15625 C 4.410156 -0.0507812 4.269531 0 4.09375 0 Z M 4.09375 0 "/></g></g></g><g fill="#201f1f" fill-opacity="1"><g transform="translate(7.49324, 18.875123)"><g><path d="M 1.609375 -1.875 C 1.671875 -1.875 1.734375 -1.859375 1.796875 -1.828125 C 1.867188 -1.804688 1.953125 -1.753906 2.046875 -1.671875 C 2.304688 -1.398438 2.609375 -1.195312 2.953125 -1.0625 C 3.304688 -0.925781 3.707031 -0.859375 4.15625 -0.859375 C 4.75 -0.859375 5.289062 -0.988281 5.78125 -1.25 C 6.269531 -1.519531 6.660156 -1.890625 6.953125 -2.359375 C 7.242188 -2.835938 7.390625 -3.390625 7.390625 -4.015625 C 7.390625 -4.710938 7.234375 -5.273438 6.921875 -5.703125 C 6.609375 -6.128906 6.210938 -6.445312 5.734375 -6.65625 C 5.265625 -6.875 4.78125 -6.984375 4.28125 -6.984375 C 4.144531 -6.984375 4.015625 -6.972656 3.890625 -6.953125 C 3.765625 -6.941406 3.644531 -6.921875 3.53125 -6.890625 C 3.425781 -6.867188 3.34375 -6.859375 3.28125 -6.859375 C 3.125 -6.859375 3.003906 -6.910156 2.921875 -7.015625 C 2.835938 -7.117188 2.796875 -7.25 2.796875 -7.40625 C 2.796875 -7.488281 2.8125 -7.5625 2.84375 -7.625 C 2.882812 -7.695312 2.9375 -7.773438 3 -7.859375 L 6.671875 -11.859375 L 6.890625 -11.578125 L 1.390625 -11.578125 C 1.242188 -11.578125 1.117188 -11.625 1.015625 -11.71875 C 0.921875 -11.820312 0.875 -11.945312 0.875 -12.09375 C 0.875 -12.238281 0.921875 -12.359375 1.015625 -12.453125 C 1.117188 -12.554688 1.242188 -12.609375 1.390625 -12.609375 L 7.484375 -12.609375 C 7.691406 -12.609375 7.835938 -12.546875 7.921875 -12.421875 C 8.003906 -12.296875 8.046875 -12.171875 8.046875 -12.046875 C 8.046875 -11.972656 8.03125 -11.898438 8 -11.828125 C 7.96875 -11.765625 7.921875 -11.695312 7.859375 -11.625 L 4.171875 -7.625 L 3.765625 -7.859375 C 3.804688 -7.890625 3.929688 -7.925781 4.140625 -7.96875 C 4.359375 -8.007812 4.523438 -8.03125 4.640625 -8.03125 C 5.304688 -8.03125 5.929688 -7.875 6.515625 -7.5625 C 7.109375 -7.25 7.585938 -6.796875 7.953125 -6.203125 C 8.328125 -5.617188 8.515625 -4.898438 8.515625 -4.046875 C 8.515625 -3.203125 8.3125 -2.460938 7.90625 -1.828125 C 7.507812 -1.191406 6.972656 -0.695312 6.296875 -0.34375 C 5.617188 0.0078125 4.867188 0.1875 4.046875 0.1875 C 3.546875 0.1875 3.050781 0.101562 2.5625 -0.0625 C 2.082031 -0.238281 1.664062 -0.492188 1.3125 -0.828125 C 1.21875 -0.898438 1.148438 -0.972656 1.109375 -1.046875 C 1.078125 -1.117188 1.0625 -1.191406 1.0625 -1.265625 C 1.0625 -1.410156 1.113281 -1.546875 1.21875 -1.671875 C 1.320312 -1.804688 1.453125 -1.875 1.609375 -1.875 Z M 1.609375 -1.875 "/></g></g></g></g></g><g transform="matrix(1, 0, 0, 1, 757, 151)"><g clip-path="url(#3ed0f86554)"><g fill="#201f1f" fill-opacity="1"><g transform="translate(0.611236, 18.875123)"><g><path d="M 4.09375 0 C 3.925781 0 3.785156 -0.0507812 3.671875 -0.15625 C 3.566406 -0.269531 3.515625 -0.398438 3.515625 -0.546875 L 3.515625 -11.46875 L 3.71875 -11.28125 L 1.3125 -9.671875 C 1.207031 -9.597656 1.101562 -9.5625 1 -9.5625 C 0.851562 -9.5625 0.722656 -9.617188 0.609375 -9.734375 C 0.492188 -9.859375 0.4375 -9.992188 0.4375 -10.140625 C 0.4375 -10.335938 0.53125 -10.488281 0.71875 -10.59375 L 3.75 -12.609375 C 3.820312 -12.660156 3.894531 -12.691406 3.96875 -12.703125 C 4.050781 -12.710938 4.125 -12.710938 4.1875 -12.703125 C 4.34375 -12.691406 4.460938 -12.632812 4.546875 -12.53125 C 4.640625 -12.425781 4.6875 -12.300781 4.6875 -12.15625 L 4.6875 -0.546875 C 4.6875 -0.398438 4.628906 -0.269531 4.515625 -0.15625 C 4.410156 -0.0507812 4.269531 0 4.09375 0 Z M 4.09375 0 "/></g></g></g><g fill="#201f1f" fill-opacity="1"><g transform="translate(7.321202, 18.875123)"><g><path d="M 6.65625 0 C 6.5 0 6.367188 -0.0507812 6.265625 -0.15625 C 6.171875 -0.269531 6.125 -0.398438 6.125 -0.546875 L 6.125 -11.1875 L 6.375 -11.046875 L 1.59375 -4.734375 L 1.546875 -4.9375 L 8.515625 -4.9375 C 8.648438 -4.9375 8.769531 -4.882812 8.875 -4.78125 C 8.976562 -4.6875 9.03125 -4.566406 9.03125 -4.421875 C 9.03125 -4.273438 8.976562 -4.15625 8.875 -4.0625 C 8.769531 -3.96875 8.648438 -3.921875 8.515625 -3.921875 L 0.796875 -3.921875 C 0.648438 -3.921875 0.519531 -3.976562 0.40625 -4.09375 C 0.300781 -4.207031 0.25 -4.335938 0.25 -4.484375 C 0.25 -4.617188 0.289062 -4.738281 0.375 -4.84375 L 6.21875 -12.484375 C 6.28125 -12.566406 6.351562 -12.625 6.4375 -12.65625 C 6.53125 -12.6875 6.609375 -12.703125 6.671875 -12.703125 C 6.828125 -12.703125 6.957031 -12.644531 7.0625 -12.53125 C 7.164062 -12.425781 7.21875 -12.300781 7.21875 -12.15625 L 7.21875 -0.546875 C 7.21875 -0.398438 7.160156 -0.269531 7.046875 -0.15625 C 6.941406 -0.0507812 6.8125 0 6.65625 0 Z M 6.65625 0 "/></g></g></g></g></g><g transform="matrix(1, 0, 0, 1, 2, 301)"><g clip-path="url(#9751b76222)"><g fill="#201f1f" fill-opacity="1"><g transform="translate(0.643494, 18.64638)"><g><path d="M 4.09375 0 C 3.925781 0 3.785156 -0.0507812 3.671875 -0.15625 C 3.566406 -0.269531 3.515625 -0.398438 3.515625 -0.546875 L 3.515625 -11.46875 L 3.71875 -11.28125 L 1.3125 -9.671875 C 1.207031 -9.597656 1.101562 -9.5625 1 -9.5625 C 0.851562 -9.5625 0.722656 -9.617188 0.609375 -9.734375 C 0.492188 -9.859375 0.4375 -9.992188 0.4375 -10.140625 C 0.4375 -10.335938 0.53125 -10.488281 0.71875 -10.59375 L 3.75 -12.609375 C 3.820312 -12.660156 3.894531 -12.691406 3.96875 -12.703125 C 4.050781 -12.710938 4.125 -12.710938 4.1875 -12.703125 C 4.34375 -12.691406 4.460938 -12.632812 4.546875 -12.53125 C 4.640625 -12.425781 4.6875 -12.300781 4.6875 -12.15625 L 4.6875 -0.546875 C 4.6875 -0.398438 4.628906 -0.269531 4.515625 -0.15625 C 4.410156 -0.0507812 4.269531 0 4.09375 0 Z M 4.09375 0 "/></g></g></g><g fill="#201f1f" fill-opacity="1"><g transform="translate(7.353461, 18.64638)"><g><path d="M 4.25 0.03125 C 3.75 0.03125 3.25 -0.046875 2.75 -0.203125 C 2.25 -0.367188 1.804688 -0.613281 1.421875 -0.9375 C 1.347656 -1 1.285156 -1.070312 1.234375 -1.15625 C 1.191406 -1.238281 1.171875 -1.328125 1.171875 -1.421875 C 1.171875 -1.535156 1.21875 -1.648438 1.3125 -1.765625 C 1.414062 -1.878906 1.546875 -1.9375 1.703125 -1.9375 C 1.835938 -1.9375 1.972656 -1.882812 2.109375 -1.78125 C 2.421875 -1.539062 2.757812 -1.351562 3.125 -1.21875 C 3.5 -1.082031 3.875 -1.015625 4.25 -1.015625 C 4.957031 -1.015625 5.578125 -1.148438 6.109375 -1.421875 C 6.640625 -1.691406 7.050781 -2.078125 7.34375 -2.578125 C 7.632812 -3.085938 7.78125 -3.671875 7.78125 -4.328125 C 7.78125 -4.953125 7.644531 -5.488281 7.375 -5.9375 C 7.113281 -6.394531 6.738281 -6.753906 6.25 -7.015625 C 5.757812 -7.273438 5.179688 -7.40625 4.515625 -7.40625 C 4.078125 -7.40625 3.679688 -7.335938 3.328125 -7.203125 C 2.972656 -7.066406 2.664062 -6.925781 2.40625 -6.78125 C 2.144531 -6.644531 1.9375 -6.578125 1.78125 -6.578125 C 1.632812 -6.578125 1.515625 -6.613281 1.421875 -6.6875 C 1.328125 -6.757812 1.265625 -6.847656 1.234375 -6.953125 C 1.210938 -7.066406 1.210938 -7.1875 1.234375 -7.3125 L 2.015625 -12.15625 C 2.023438 -12.257812 2.082031 -12.359375 2.1875 -12.453125 C 2.289062 -12.546875 2.421875 -12.59375 2.578125 -12.59375 L 8.03125 -12.59375 C 8.175781 -12.59375 8.300781 -12.539062 8.40625 -12.4375 C 8.507812 -12.332031 8.5625 -12.207031 8.5625 -12.0625 C 8.5625 -11.90625 8.507812 -11.773438 8.40625 -11.671875 C 8.300781 -11.566406 8.175781 -11.515625 8.03125 -11.515625 L 2.828125 -11.515625 L 3 -11.6875 L 2.25 -7.390625 L 1.921875 -7.625 C 2.078125 -7.738281 2.300781 -7.851562 2.59375 -7.96875 C 2.894531 -8.09375 3.226562 -8.203125 3.59375 -8.296875 C 3.96875 -8.390625 4.359375 -8.4375 4.765625 -8.4375 C 5.554688 -8.4375 6.257812 -8.265625 6.875 -7.921875 C 7.488281 -7.578125 7.972656 -7.097656 8.328125 -6.484375 C 8.691406 -5.867188 8.875 -5.164062 8.875 -4.375 C 8.875 -3.488281 8.679688 -2.710938 8.296875 -2.046875 C 7.921875 -1.390625 7.382812 -0.878906 6.6875 -0.515625 C 6 -0.148438 5.1875 0.03125 4.25 0.03125 Z M 4.25 0.03125 "/></g></g></g></g></g><g transform="matrix(1, 0, 0, 1, 128, 301)"><g clip-path="url(#0160185675)"><g clip-path="url(#ea3dd2819c)"><g fill="#201f1f" fill-opacity="1"><g transform="translate(0.471452, 18.64638)"><g><path d="M 4.09375 0 C 3.925781 0 3.785156 -0.0507812 3.671875 -0.15625 C 3.566406 -0.269531 3.515625 -0.398438 3.515625 -0.546875 L 3.515625 -11.46875 L 3.71875 -11.28125 L 1.3125 -9.671875 C 1.207031 -9.597656 1.101562 -9.5625 1 -9.5625 C 0.851562 -9.5625 0.722656 -9.617188 0.609375 -9.734375 C 0.492188 -9.859375 0.4375 -9.992188 0.4375 -10.140625 C 0.4375 -10.335938 0.53125 -10.488281 0.71875 -10.59375 L 3.75 -12.609375 C 3.820312 -12.660156 3.894531 -12.691406 3.96875 -12.703125 C 4.050781 -12.710938 4.125 -12.710938 4.1875 -12.703125 C 4.34375 -12.691406 4.460938 -12.632812 4.546875 -12.53125 C 4.640625 -12.425781 4.6875 -12.300781 4.6875 -12.15625 L 4.6875 -0.546875 C 4.6875 -0.398438 4.628906 -0.269531 4.515625 -0.15625 C 4.410156 -0.0507812 4.269531 0 4.09375 0 Z M 4.09375 0 "/></g></g></g></g><g fill="#201f1f" fill-opacity="1"><g transform="translate(7.181418, 18.64638)"><g><path d="M 6.609375 -6.390625 L 6.546875 -6.546875 C 6.960938 -6.390625 7.335938 -6.15625 7.671875 -5.84375 C 8.015625 -5.539062 8.285156 -5.179688 8.484375 -4.765625 C 8.691406 -4.347656 8.796875 -3.890625 8.796875 -3.390625 C 8.796875 -2.734375 8.625 -2.140625 8.28125 -1.609375 C 7.9375 -1.078125 7.46875 -0.65625 6.875 -0.34375 C 6.28125 -0.03125 5.617188 0.125 4.890625 0.125 C 4.160156 0.125 3.5 -0.03125 2.90625 -0.34375 C 2.320312 -0.65625 1.859375 -1.078125 1.515625 -1.609375 C 1.171875 -2.140625 1 -2.734375 1 -3.390625 C 1 -3.921875 1.101562 -4.394531 1.3125 -4.8125 C 1.519531 -5.226562 1.796875 -5.582031 2.140625 -5.875 C 2.492188 -6.164062 2.859375 -6.390625 3.234375 -6.546875 L 3.171875 -6.375 C 2.847656 -6.53125 2.539062 -6.742188 2.25 -7.015625 C 1.96875 -7.285156 1.734375 -7.609375 1.546875 -7.984375 C 1.367188 -8.367188 1.28125 -8.789062 1.28125 -9.25 C 1.28125 -9.90625 1.441406 -10.492188 1.765625 -11.015625 C 2.085938 -11.535156 2.523438 -11.945312 3.078125 -12.25 C 3.628906 -12.550781 4.234375 -12.703125 4.890625 -12.703125 C 5.554688 -12.703125 6.160156 -12.550781 6.703125 -12.25 C 7.242188 -11.945312 7.671875 -11.535156 7.984375 -11.015625 C 8.304688 -10.492188 8.46875 -9.90625 8.46875 -9.25 C 8.46875 -8.78125 8.375 -8.359375 8.1875 -7.984375 C 8.007812 -7.609375 7.773438 -7.285156 7.484375 -7.015625 C 7.203125 -6.742188 6.910156 -6.535156 6.609375 -6.390625 Z M 2.40625 -9.25 C 2.40625 -8.769531 2.519531 -8.347656 2.75 -7.984375 C 2.988281 -7.617188 3.296875 -7.332031 3.671875 -7.125 C 4.046875 -6.925781 4.453125 -6.828125 4.890625 -6.828125 C 5.328125 -6.828125 5.734375 -6.925781 6.109375 -7.125 C 6.484375 -7.332031 6.78125 -7.617188 7 -7.984375 C 7.226562 -8.347656 7.34375 -8.769531 7.34375 -9.25 C 7.34375 -9.96875 7.113281 -10.550781 6.65625 -11 C 6.195312 -11.445312 5.609375 -11.671875 4.890625 -11.671875 C 4.160156 -11.671875 3.5625 -11.445312 3.09375 -11 C 2.632812 -10.550781 2.40625 -9.96875 2.40625 -9.25 Z M 4.890625 -0.90625 C 5.710938 -0.90625 6.378906 -1.140625 6.890625 -1.609375 C 7.410156 -2.085938 7.671875 -2.679688 7.671875 -3.390625 C 7.671875 -3.878906 7.539062 -4.316406 7.28125 -4.703125 C 7.03125 -5.085938 6.691406 -5.390625 6.265625 -5.609375 C 5.847656 -5.828125 5.390625 -5.9375 4.890625 -5.9375 C 4.398438 -5.9375 3.941406 -5.828125 3.515625 -5.609375 C 3.097656 -5.390625 2.757812 -5.085938 2.5 -4.703125 C 2.25 -4.316406 2.125 -3.878906 2.125 -3.390625 C 2.125 -2.679688 2.375 -2.085938 2.875 -1.609375 C 3.382812 -1.140625 4.054688 -0.90625 4.890625 -0.90625 Z M 4.890625 -0.90625 "/></g></g></g></g></g><g transform="matrix(1, 0, 0, 1, 254, 301)"><g clip-path="url(#01bf280bec)"><g clip-path="url(#7b172d6ec4)"><g fill="#201f1f" fill-opacity="1"><g transform="translate(0.299415, 18.64638)"><g><path d="M 4.09375 0 C 3.925781 0 3.785156 -0.0507812 3.671875 -0.15625 C 3.566406 -0.269531 3.515625 -0.398438 3.515625 -0.546875 L 3.515625 -11.46875 L 3.71875 -11.28125 L 1.3125 -9.671875 C 1.207031 -9.597656 1.101562 -9.5625 1 -9.5625 C 0.851562 -9.5625 0.722656 -9.617188 0.609375 -9.734375 C 0.492188 -9.859375 0.4375 -9.992188 0.4375 -10.140625 C 0.4375 -10.335938 0.53125 -10.488281 0.71875 -10.59375 L 3.75 -12.609375 C 3.820312 -12.660156 3.894531 -12.691406 3.96875 -12.703125 C 4.050781 -12.710938 4.125 -12.710938 4.1875 -12.703125 C 4.34375 -12.691406 4.460938 -12.632812 4.546875 -12.53125 C 4.640625 -12.425781 4.6875 -12.300781 4.6875 -12.15625 L 4.6875 -0.546875 C 4.6875 -0.398438 4.628906 -0.269531 4.515625 -0.15625 C 4.410156 -0.0507812 4.269531 0 4.09375 0 Z M 4.09375 0 "/></g></g></g></g><g fill="#201f1f" fill-opacity="1"><g transform="translate(7.009381, 18.64638)"><g><path d="M 3.234375 0.046875 C 3.085938 0.046875 2.953125 0 2.828125 -0.09375 C 2.710938 -0.1875 2.65625 -0.304688 2.65625 -0.453125 C 2.65625 -0.535156 2.671875 -0.625 2.703125 -0.71875 L 7.53125 -11.8125 L 7.734375 -11.5625 L 1.59375 -11.5625 C 1.445312 -11.5625 1.320312 -11.609375 1.21875 -11.703125 C 1.113281 -11.804688 1.0625 -11.929688 1.0625 -12.078125 C 1.0625 -12.234375 1.113281 -12.359375 1.21875 -12.453125 C 1.320312 -12.554688 1.445312 -12.609375 1.59375 -12.609375 L 8.25 -12.609375 C 8.4375 -12.609375 8.570312 -12.554688 8.65625 -12.453125 C 8.738281 -12.359375 8.78125 -12.238281 8.78125 -12.09375 C 8.78125 -12 8.757812 -11.910156 8.71875 -11.828125 L 3.734375 -0.3125 C 3.703125 -0.195312 3.632812 -0.109375 3.53125 -0.046875 C 3.4375 0.015625 3.335938 0.046875 3.234375 0.046875 Z M 3.234375 0.046875 "/></g></g></g></g></g><g transform="matrix(1, 0, 0, 1, 379, 301)"><g clip-path="url(#a6a5ca188f)"><g fill="#201f1f" fill-opacity="1"><g transform="translate(1.127377, 18.64638)"><g><path d="M 4.09375 0 C 3.925781 0 3.785156 -0.0507812 3.671875 -0.15625 C 3.566406 -0.269531 3.515625 -0.398438 3.515625 -0.546875 L 3.515625 -11.46875 L 3.71875 -11.28125 L 1.3125 -9.671875 C 1.207031 -9.597656 1.101562 -9.5625 1 -9.5625 C 0.851562 -9.5625 0.722656 -9.617188 0.609375 -9.734375 C 0.492188 -9.859375 0.4375 -9.992188 0.4375 -10.140625 C 0.4375 -10.335938 0.53125 -10.488281 0.71875 -10.59375 L 3.75 -12.609375 C 3.820312 -12.660156 3.894531 -12.691406 3.96875 -12.703125 C 4.050781 -12.710938 4.125 -12.710938 4.1875 -12.703125 C 4.34375 -12.691406 4.460938 -12.632812 4.546875 -12.53125 C 4.640625 -12.425781 4.6875 -12.300781 4.6875 -12.15625 L 4.6875 -0.546875 C 4.6875 -0.398438 4.628906 -0.269531 4.515625 -0.15625 C 4.410156 -0.0507812 4.269531 0 4.09375 0 Z M 4.09375 0 "/></g></g></g><g fill="#201f1f" fill-opacity="1"><g transform="translate(7.837344, 18.64638)"><g><path d="M 6.609375 -6.390625 L 6.546875 -6.546875 C 6.960938 -6.390625 7.335938 -6.15625 7.671875 -5.84375 C 8.015625 -5.539062 8.285156 -5.179688 8.484375 -4.765625 C 8.691406 -4.347656 8.796875 -3.890625 8.796875 -3.390625 C 8.796875 -2.734375 8.625 -2.140625 8.28125 -1.609375 C 7.9375 -1.078125 7.46875 -0.65625 6.875 -0.34375 C 6.28125 -0.03125 5.617188 0.125 4.890625 0.125 C 4.160156 0.125 3.5 -0.03125 2.90625 -0.34375 C 2.320312 -0.65625 1.859375 -1.078125 1.515625 -1.609375 C 1.171875 -2.140625 1 -2.734375 1 -3.390625 C 1 -3.921875 1.101562 -4.394531 1.3125 -4.8125 C 1.519531 -5.226562 1.796875 -5.582031 2.140625 -5.875 C 2.492188 -6.164062 2.859375 -6.390625 3.234375 -6.546875 L 3.171875 -6.375 C 2.847656 -6.53125 2.539062 -6.742188 2.25 -7.015625 C 1.96875 -7.285156 1.734375 -7.609375 1.546875 -7.984375 C 1.367188 -8.367188 1.28125 -8.789062 1.28125 -9.25 C 1.28125 -9.90625 1.441406 -10.492188 1.765625 -11.015625 C 2.085938 -11.535156 2.523438 -11.945312 3.078125 -12.25 C 3.628906 -12.550781 4.234375 -12.703125 4.890625 -12.703125 C 5.554688 -12.703125 6.160156 -12.550781 6.703125 -12.25 C 7.242188 -11.945312 7.671875 -11.535156 7.984375 -11.015625 C 8.304688 -10.492188 8.46875 -9.90625 8.46875 -9.25 C 8.46875 -8.78125 8.375 -8.359375 8.1875 -7.984375 C 8.007812 -7.609375 7.773438 -7.285156 7.484375 -7.015625 C 7.203125 -6.742188 6.910156 -6.535156 6.609375 -6.390625 Z M 2.40625 -9.25 C 2.40625 -8.769531 2.519531 -8.347656 2.75 -7.984375 C 2.988281 -7.617188 3.296875 -7.332031 3.671875 -7.125 C 4.046875 -6.925781 4.453125 -6.828125 4.890625 -6.828125 C 5.328125 -6.828125 5.734375 -6.925781 6.109375 -7.125 C 6.484375 -7.332031 6.78125 -7.617188 7 -7.984375 C 7.226562 -8.347656 7.34375 -8.769531 7.34375 -9.25 C 7.34375 -9.96875 7.113281 -10.550781 6.65625 -11 C 6.195312 -11.445312 5.609375 -11.671875 4.890625 -11.671875 C 4.160156 -11.671875 3.5625 -11.445312 3.09375 -11 C 2.632812 -10.550781 2.40625 -9.96875 2.40625 -9.25 Z M 4.890625 -0.90625 C 5.710938 -0.90625 6.378906 -1.140625 6.890625 -1.609375 C 7.410156 -2.085938 7.671875 -2.679688 7.671875 -3.390625 C 7.671875 -3.878906 7.539062 -4.316406 7.28125 -4.703125 C 7.03125 -5.085938 6.691406 -5.390625 6.265625 -5.609375 C 5.847656 -5.828125 5.390625 -5.9375 4.890625 -5.9375 C 4.398438 -5.9375 3.941406 -5.828125 3.515625 -5.609375 C 3.097656 -5.390625 2.757812 -5.085938 2.5 -4.703125 C 2.25 -4.316406 2.125 -3.878906 2.125 -3.390625 C 2.125 -2.679688 2.375 -2.085938 2.875 -1.609375 C 3.382812 -1.140625 4.054688 -0.90625 4.890625 -0.90625 Z M 4.890625 -0.90625 "/></g></g></g></g></g><g transform="matrix(1, 0, 0, 1, 505, 301)"><g clip-path="url(#2480735bdc)"><g fill="#201f1f" fill-opacity="1"><g transform="translate(0.95531, 18.64638)"><g><path d="M 4.09375 0 C 3.925781 0 3.785156 -0.0507812 3.671875 -0.15625 C 3.566406 -0.269531 3.515625 -0.398438 3.515625 -0.546875 L 3.515625 -11.46875 L 3.71875 -11.28125 L 1.3125 -9.671875 C 1.207031 -9.597656 1.101562 -9.5625 1 -9.5625 C 0.851562 -9.5625 0.722656 -9.617188 0.609375 -9.734375 C 0.492188 -9.859375 0.4375 -9.992188 0.4375 -10.140625 C 0.4375 -10.335938 0.53125 -10.488281 0.71875 -10.59375 L 3.75 -12.609375 C 3.820312 -12.660156 3.894531 -12.691406 3.96875 -12.703125 C 4.050781 -12.710938 4.125 -12.710938 4.1875 -12.703125 C 4.34375 -12.691406 4.460938 -12.632812 4.546875 -12.53125 C 4.640625 -12.425781 4.6875 -12.300781 4.6875 -12.15625 L 4.6875 -0.546875 C 4.6875 -0.398438 4.628906 -0.269531 4.515625 -0.15625 C 4.410156 -0.0507812 4.269531 0 4.09375 0 Z M 4.09375 0 "/></g></g></g><g fill="#201f1f" fill-opacity="1"><g transform="translate(7.665277, 18.64638)"><g><path d="M 5.03125 -12.890625 C 5.738281 -12.890625 6.351562 -12.765625 6.875 -12.515625 C 7.40625 -12.265625 7.835938 -11.921875 8.171875 -11.484375 C 8.515625 -11.054688 8.769531 -10.570312 8.9375 -10.03125 C 9.113281 -9.488281 9.203125 -8.929688 9.203125 -8.359375 C 9.203125 -7.773438 9.125 -7.15625 8.96875 -6.5 C 8.820312 -5.84375 8.597656 -5.175781 8.296875 -4.5 C 8.003906 -3.832031 7.632812 -3.195312 7.1875 -2.59375 C 6.75 -1.988281 6.234375 -1.441406 5.640625 -0.953125 C 5.046875 -0.472656 4.390625 -0.101562 3.671875 0.15625 C 3.566406 0.1875 3.484375 0.203125 3.421875 0.203125 C 3.273438 0.203125 3.144531 0.148438 3.03125 0.046875 C 2.914062 -0.0546875 2.859375 -0.191406 2.859375 -0.359375 C 2.859375 -0.484375 2.894531 -0.585938 2.96875 -0.671875 C 3.039062 -0.765625 3.148438 -0.835938 3.296875 -0.890625 C 3.984375 -1.179688 4.648438 -1.613281 5.296875 -2.1875 C 5.941406 -2.757812 6.492188 -3.421875 6.953125 -4.171875 C 7.421875 -4.929688 7.734375 -5.71875 7.890625 -6.53125 L 8.265625 -6.765625 C 8.066406 -6.378906 7.789062 -6.03125 7.4375 -5.71875 C 7.082031 -5.40625 6.6875 -5.160156 6.25 -4.984375 C 5.8125 -4.804688 5.332031 -4.71875 4.8125 -4.71875 C 4.03125 -4.71875 3.359375 -4.90625 2.796875 -5.28125 C 2.234375 -5.664062 1.800781 -6.171875 1.5 -6.796875 C 1.195312 -7.429688 1.046875 -8.109375 1.046875 -8.828125 C 1.046875 -9.546875 1.21875 -10.210938 1.5625 -10.828125 C 1.914062 -11.441406 2.390625 -11.9375 2.984375 -12.3125 C 3.578125 -12.695312 4.257812 -12.890625 5.03125 -12.890625 Z M 5.0625 -11.84375 C 4.488281 -11.84375 3.984375 -11.710938 3.546875 -11.453125 C 3.117188 -11.203125 2.78125 -10.847656 2.53125 -10.390625 C 2.28125 -9.941406 2.15625 -9.421875 2.15625 -8.828125 C 2.15625 -8.296875 2.257812 -7.796875 2.46875 -7.328125 C 2.6875 -6.859375 3.003906 -6.476562 3.421875 -6.1875 C 3.847656 -5.90625 4.363281 -5.765625 4.96875 -5.765625 C 5.625 -5.765625 6.179688 -5.90625 6.640625 -6.1875 C 7.097656 -6.476562 7.453125 -6.859375 7.703125 -7.328125 C 7.960938 -7.796875 8.09375 -8.316406 8.09375 -8.890625 C 8.09375 -9.410156 7.96875 -9.894531 7.71875 -10.34375 C 7.476562 -10.789062 7.132812 -11.148438 6.6875 -11.421875 C 6.238281 -11.703125 5.695312 -11.84375 5.0625 -11.84375 Z M 5.0625 -11.84375 "/></g></g></g></g></g><g transform="matrix(1, 0, 0, 1, 631, 301)"><g clip-path="url(#4891f4f768)"><g fill="#201f1f" fill-opacity="1"><g transform="translate(0.783273, 18.64638)"><g><path d="M 8.59375 -1.046875 C 8.738281 -1.046875 8.863281 -0.992188 8.96875 -0.890625 C 9.070312 -0.796875 9.125 -0.675781 9.125 -0.53125 C 9.125 -0.375 9.070312 -0.242188 8.96875 -0.140625 C 8.863281 -0.046875 8.738281 0 8.59375 0 L 1.796875 0 C 1.640625 0 1.503906 -0.0390625 1.390625 -0.125 C 1.273438 -0.21875 1.21875 -0.359375 1.21875 -0.546875 C 1.21875 -0.679688 1.265625 -0.804688 1.359375 -0.921875 L 5.546875 -5.546875 C 6.210938 -6.273438 6.710938 -6.941406 7.046875 -7.546875 C 7.378906 -8.160156 7.546875 -8.710938 7.546875 -9.203125 C 7.546875 -9.992188 7.300781 -10.628906 6.8125 -11.109375 C 6.332031 -11.597656 5.679688 -11.84375 4.859375 -11.84375 C 4.484375 -11.84375 4.109375 -11.765625 3.734375 -11.609375 C 3.367188 -11.453125 3.046875 -11.242188 2.765625 -10.984375 C 2.484375 -10.734375 2.265625 -10.445312 2.109375 -10.125 C 2.035156 -10 1.957031 -9.910156 1.875 -9.859375 C 1.800781 -9.816406 1.710938 -9.796875 1.609375 -9.796875 C 1.460938 -9.796875 1.332031 -9.835938 1.21875 -9.921875 C 1.113281 -10.015625 1.0625 -10.128906 1.0625 -10.265625 C 1.0625 -10.347656 1.082031 -10.429688 1.125 -10.515625 C 1.175781 -10.609375 1.242188 -10.707031 1.328125 -10.8125 C 1.546875 -11.1875 1.847656 -11.53125 2.234375 -11.84375 C 2.617188 -12.15625 3.050781 -12.40625 3.53125 -12.59375 C 4.007812 -12.78125 4.476562 -12.875 4.9375 -12.875 C 5.707031 -12.875 6.375 -12.722656 6.9375 -12.421875 C 7.5 -12.128906 7.929688 -11.710938 8.234375 -11.171875 C 8.546875 -10.640625 8.703125 -10.003906 8.703125 -9.265625 C 8.703125 -8.640625 8.503906 -7.953125 8.109375 -7.203125 C 7.722656 -6.460938 7.144531 -5.664062 6.375 -4.8125 L 2.828125 -0.828125 L 2.65625 -1.046875 Z M 8.59375 -1.046875 "/></g></g></g><g fill="#201f1f" fill-opacity="1"><g transform="translate(10.830085, 18.64638)"><g><path d="M 5.390625 0.1875 C 4.421875 0.1875 3.609375 -0.101562 2.953125 -0.6875 C 2.304688 -1.269531 1.816406 -2.050781 1.484375 -3.03125 C 1.160156 -4.019531 1 -5.125 1 -6.34375 C 1 -7.582031 1.160156 -8.691406 1.484375 -9.671875 C 1.816406 -10.660156 2.304688 -11.441406 2.953125 -12.015625 C 3.609375 -12.585938 4.421875 -12.875 5.390625 -12.875 C 6.378906 -12.875 7.195312 -12.585938 7.84375 -12.015625 C 8.488281 -11.441406 8.972656 -10.660156 9.296875 -9.671875 C 9.628906 -8.691406 9.796875 -7.582031 9.796875 -6.34375 C 9.796875 -5.125 9.628906 -4.019531 9.296875 -3.03125 C 8.972656 -2.050781 8.488281 -1.269531 7.84375 -0.6875 C 7.195312 -0.101562 6.378906 0.1875 5.390625 0.1875 Z M 5.390625 -0.9375 C 6.097656 -0.9375 6.691406 -1.160156 7.171875 -1.609375 C 7.648438 -2.054688 8.015625 -2.6875 8.265625 -3.5 C 8.515625 -4.320312 8.640625 -5.269531 8.640625 -6.34375 C 8.640625 -7.4375 8.515625 -8.390625 8.265625 -9.203125 C 8.015625 -10.023438 7.648438 -10.65625 7.171875 -11.09375 C 6.691406 -11.539062 6.097656 -11.765625 5.390625 -11.765625 C 4.679688 -11.765625 4.085938 -11.539062 3.609375 -11.09375 C 3.140625 -10.65625 2.78125 -10.023438 2.53125 -9.203125 C 2.28125 -8.390625 2.15625 -7.4375 2.15625 -6.34375 C 2.15625 -5.269531 2.28125 -4.320312 2.53125 -3.5 C 2.78125 -2.6875 3.140625 -2.054688 3.609375 -1.609375 C 4.085938 -1.160156 4.679688 -0.9375 5.390625 -0.9375 Z M 5.390625 -0.9375 "/></g></g></g></g></g><g transform="matrix(1, 0, 0, 1, 757, 301)"><g clip-path="url(#5266ab9876)"><g fill="#201f1f" fill-opacity="1"><g transform="translate(0.611236, 18.64638)"><g><path d="M 8.59375 -1.046875 C 8.738281 -1.046875 8.863281 -0.992188 8.96875 -0.890625 C 9.070312 -0.796875 9.125 -0.675781 9.125 -0.53125 C 9.125 -0.375 9.070312 -0.242188 8.96875 -0.140625 C 8.863281 -0.046875 8.738281 0 8.59375 0 L 1.796875 0 C 1.640625 0 1.503906 -0.0390625 1.390625 -0.125 C 1.273438 -0.21875 1.21875 -0.359375 1.21875 -0.546875 C 1.21875 -0.679688 1.265625 -0.804688 1.359375 -0.921875 L 5.546875 -5.546875 C 6.210938 -6.273438 6.710938 -6.941406 7.046875 -7.546875 C 7.378906 -8.160156 7.546875 -8.710938 7.546875 -9.203125 C 7.546875 -9.992188 7.300781 -10.628906 6.8125 -11.109375 C 6.332031 -11.597656 5.679688 -11.84375 4.859375 -11.84375 C 4.484375 -11.84375 4.109375 -11.765625 3.734375 -11.609375 C 3.367188 -11.453125 3.046875 -11.242188 2.765625 -10.984375 C 2.484375 -10.734375 2.265625 -10.445312 2.109375 -10.125 C 2.035156 -10 1.957031 -9.910156 1.875 -9.859375 C 1.800781 -9.816406 1.710938 -9.796875 1.609375 -9.796875 C 1.460938 -9.796875 1.332031 -9.835938 1.21875 -9.921875 C 1.113281 -10.015625 1.0625 -10.128906 1.0625 -10.265625 C 1.0625 -10.347656 1.082031 -10.429688 1.125 -10.515625 C 1.175781 -10.609375 1.242188 -10.707031 1.328125 -10.8125 C 1.546875 -11.1875 1.847656 -11.53125 2.234375 -11.84375 C 2.617188 -12.15625 3.050781 -12.40625 3.53125 -12.59375 C 4.007812 -12.78125 4.476562 -12.875 4.9375 -12.875 C 5.707031 -12.875 6.375 -12.722656 6.9375 -12.421875 C 7.5 -12.128906 7.929688 -11.710938 8.234375 -11.171875 C 8.546875 -10.640625 8.703125 -10.003906 8.703125 -9.265625 C 8.703125 -8.640625 8.503906 -7.953125 8.109375 -7.203125 C 7.722656 -6.460938 7.144531 -5.664062 6.375 -4.8125 L 2.828125 -0.828125 L 2.65625 -1.046875 Z M 8.59375 -1.046875 "/></g></g></g><g fill="#201f1f" fill-opacity="1"><g transform="translate(10.658048, 18.64638)"><g><path d="M 4.09375 0 C 3.925781 0 3.785156 -0.0507812 3.671875 -0.15625 C 3.566406 -0.269531 3.515625 -0.398438 3.515625 -0.546875 L 3.515625 -11.46875 L 3.71875 -11.28125 L 1.3125 -9.671875 C 1.207031 -9.597656 1.101562 -9.5625 1 -9.5625 C 0.851562 -9.5625 0.722656 -9.617188 0.609375 -9.734375 C 0.492188 -9.859375 0.4375 -9.992188 0.4375 -10.140625 C 0.4375 -10.335938 0.53125 -10.488281 0.71875 -10.59375 L 3.75 -12.609375 C 3.820312 -12.660156 3.894531 -12.691406 3.96875 -12.703125 C 4.050781 -12.710938 4.125 -12.710938 4.1875 -12.703125 C 4.34375 -12.691406 4.460938 -12.632812 4.546875 -12.53125 C 4.640625 -12.425781 4.6875 -12.300781 4.6875 -12.15625 L 4.6875 -0.546875 C 4.6875 -0.398438 4.628906 -0.269531 4.515625 -0.15625 C 4.410156 -0.0507812 4.269531 0 4.09375 0 Z M 4.09375 0 "/></g></g></g></g></g><g clip-path="url(#4ff547a868)"><g transform="matrix(1, 0, 0, 1, 2, 450)"><g clip-path="url(#b3377ae781)"><g fill="#201f1f" fill-opacity="1"><g transform="translate(0.643494, 19.417857)"><g><path d="M 8.59375 -1.046875 C 8.738281 -1.046875 8.863281 -0.992188 8.96875 -0.890625 C 9.070312 -0.796875 9.125 -0.675781 9.125 -0.53125 C 9.125 -0.375 9.070312 -0.242188 8.96875 -0.140625 C 8.863281 -0.046875 8.738281 0 8.59375 0 L 1.796875 0 C 1.640625 0 1.503906 -0.0390625 1.390625 -0.125 C 1.273438 -0.21875 1.21875 -0.359375 1.21875 -0.546875 C 1.21875 -0.679688 1.265625 -0.804688 1.359375 -0.921875 L 5.546875 -5.546875 C 6.210938 -6.273438 6.710938 -6.941406 7.046875 -7.546875 C 7.378906 -8.160156 7.546875 -8.710938 7.546875 -9.203125 C 7.546875 -9.992188 7.300781 -10.628906 6.8125 -11.109375 C 6.332031 -11.597656 5.679688 -11.84375 4.859375 -11.84375 C 4.484375 -11.84375 4.109375 -11.765625 3.734375 -11.609375 C 3.367188 -11.453125 3.046875 -11.242188 2.765625 -10.984375 C 2.484375 -10.734375 2.265625 -10.445312 2.109375 -10.125 C 2.035156 -10 1.957031 -9.910156 1.875 -9.859375 C 1.800781 -9.816406 1.710938 -9.796875 1.609375 -9.796875 C 1.460938 -9.796875 1.332031 -9.835938 1.21875 -9.921875 C 1.113281 -10.015625 1.0625 -10.128906 1.0625 -10.265625 C 1.0625 -10.347656 1.082031 -10.429688 1.125 -10.515625 C 1.175781 -10.609375 1.242188 -10.707031 1.328125 -10.8125 C 1.546875 -11.1875 1.847656 -11.53125 2.234375 -11.84375 C 2.617188 -12.15625 3.050781 -12.40625 3.53125 -12.59375 C 4.007812 -12.78125 4.476562 -12.875 4.9375 -12.875 C 5.707031 -12.875 6.375 -12.722656 6.9375 -12.421875 C 7.5 -12.128906 7.929688 -11.710938 8.234375 -11.171875 C 8.546875 -10.640625 8.703125 -10.003906 8.703125 -9.265625 C 8.703125 -8.640625 8.503906 -7.953125 8.109375 -7.203125 C 7.722656 -6.460938 7.144531 -5.664062 6.375 -4.8125 L 2.828125 -0.828125 L 2.65625 -1.046875 Z M 8.59375 -1.046875 "/></g></g></g><g fill="#201f1f" fill-opacity="1"><g transform="translate(10.690306, 19.417857)"><g><path d="M 8.59375 -1.046875 C 8.738281 -1.046875 8.863281 -0.992188 8.96875 -0.890625 C 9.070312 -0.796875 9.125 -0.675781 9.125 -0.53125 C 9.125 -0.375 9.070312 -0.242188 8.96875 -0.140625 C 8.863281 -0.046875 8.738281 0 8.59375 0 L 1.796875 0 C 1.640625 0 1.503906 -0.0390625 1.390625 -0.125 C 1.273438 -0.21875 1.21875 -0.359375 1.21875 -0.546875 C 1.21875 -0.679688 1.265625 -0.804688 1.359375 -0.921875 L 5.546875 -5.546875 C 6.210938 -6.273438 6.710938 -6.941406 7.046875 -7.546875 C 7.378906 -8.160156 7.546875 -8.710938 7.546875 -9.203125 C 7.546875 -9.992188 7.300781 -10.628906 6.8125 -11.109375 C 6.332031 -11.597656 5.679688 -11.84375 4.859375 -11.84375 C 4.484375 -11.84375 4.109375 -11.765625 3.734375 -11.609375 C 3.367188 -11.453125 3.046875 -11.242188 2.765625 -10.984375 C 2.484375 -10.734375 2.265625 -10.445312 2.109375 -10.125 C 2.035156 -10 1.957031 -9.910156 1.875 -9.859375 C 1.800781 -9.816406 1.710938 -9.796875 1.609375 -9.796875 C 1.460938 -9.796875 1.332031 -9.835938 1.21875 -9.921875 C 1.113281 -10.015625 1.0625 -10.128906 1.0625 -10.265625 C 1.0625 -10.347656 1.082031 -10.429688 1.125 -10.515625 C 1.175781 -10.609375 1.242188 -10.707031 1.328125 -10.8125 C 1.546875 -11.1875 1.847656 -11.53125 2.234375 -11.84375 C 2.617188 -12.15625 3.050781 -12.40625 3.53125 -12.59375 C 4.007812 -12.78125 4.476562 -12.875 4.9375 -12.875 C 5.707031 -12.875 6.375 -12.722656 6.9375 -12.421875 C 7.5 -12.128906 7.929688 -11.710938 8.234375 -11.171875 C 8.546875 -10.640625 8.703125 -10.003906 8.703125 -9.265625 C 8.703125 -8.640625 8.503906 -7.953125 8.109375 -7.203125 C 7.722656 -6.460938 7.144531 -5.664062 6.375 -4.8125 L 2.828125 -0.828125 L 2.65625 -1.046875 Z M 8.59375 -1.046875 "/></g></g></g></g></g></g><g clip-path="url(#4a66077330)"><g transform="matrix(1, 0, 0, 1, 128, 450)"><g clip-path="url(#00152ea0c0)"><g fill="#201f1f" fill-opacity="1"><g transform="translate(0.471452, 19.417857)"><g><path d="M 8.59375 -1.046875 C 8.738281 -1.046875 8.863281 -0.992188 8.96875 -0.890625 C 9.070312 -0.796875 9.125 -0.675781 9.125 -0.53125 C 9.125 -0.375 9.070312 -0.242188 8.96875 -0.140625 C 8.863281 -0.046875 8.738281 0 8.59375 0 L 1.796875 0 C 1.640625 0 1.503906 -0.0390625 1.390625 -0.125 C 1.273438 -0.21875 1.21875 -0.359375 1.21875 -0.546875 C 1.21875 -0.679688 1.265625 -0.804688 1.359375 -0.921875 L 5.546875 -5.546875 C 6.210938 -6.273438 6.710938 -6.941406 7.046875 -7.546875 C 7.378906 -8.160156 7.546875 -8.710938 7.546875 -9.203125 C 7.546875 -9.992188 7.300781 -10.628906 6.8125 -11.109375 C 6.332031 -11.597656 5.679688 -11.84375 4.859375 -11.84375 C 4.484375 -11.84375 4.109375 -11.765625 3.734375 -11.609375 C 3.367188 -11.453125 3.046875 -11.242188 2.765625 -10.984375 C 2.484375 -10.734375 2.265625 -10.445312 2.109375 -10.125 C 2.035156 -10 1.957031 -9.910156 1.875 -9.859375 C 1.800781 -9.816406 1.710938 -9.796875 1.609375 -9.796875 C 1.460938 -9.796875 1.332031 -9.835938 1.21875 -9.921875 C 1.113281 -10.015625 1.0625 -10.128906 1.0625 -10.265625 C 1.0625 -10.347656 1.082031 -10.429688 1.125 -10.515625 C 1.175781 -10.609375 1.242188 -10.707031 1.328125 -10.8125 C 1.546875 -11.1875 1.847656 -11.53125 2.234375 -11.84375 C 2.617188 -12.15625 3.050781 -12.40625 3.53125 -12.59375 C 4.007812 -12.78125 4.476562 -12.875 4.9375 -12.875 C 5.707031 -12.875 6.375 -12.722656 6.9375 -12.421875 C 7.5 -12.128906 7.929688 -11.710938 8.234375 -11.171875 C 8.546875 -10.640625 8.703125 -10.003906 8.703125 -9.265625 C 8.703125 -8.640625 8.503906 -7.953125 8.109375 -7.203125 C 7.722656 -6.460938 7.144531 -5.664062 6.375 -4.8125 L 2.828125 -0.828125 L 2.65625 -1.046875 Z M 8.59375 -1.046875 "/></g></g></g><g fill="#201f1f" fill-opacity="1"><g transform="translate(10.518264, 19.417857)"><g><path d="M 1.609375 -1.875 C 1.671875 -1.875 1.734375 -1.859375 1.796875 -1.828125 C 1.867188 -1.804688 1.953125 -1.753906 2.046875 -1.671875 C 2.304688 -1.398438 2.609375 -1.195312 2.953125 -1.0625 C 3.304688 -0.925781 3.707031 -0.859375 4.15625 -0.859375 C 4.75 -0.859375 5.289062 -0.988281 5.78125 -1.25 C 6.269531 -1.519531 6.660156 -1.890625 6.953125 -2.359375 C 7.242188 -2.835938 7.390625 -3.390625 7.390625 -4.015625 C 7.390625 -4.710938 7.234375 -5.273438 6.921875 -5.703125 C 6.609375 -6.128906 6.210938 -6.445312 5.734375 -6.65625 C 5.265625 -6.875 4.78125 -6.984375 4.28125 -6.984375 C 4.144531 -6.984375 4.015625 -6.972656 3.890625 -6.953125 C 3.765625 -6.941406 3.644531 -6.921875 3.53125 -6.890625 C 3.425781 -6.867188 3.34375 -6.859375 3.28125 -6.859375 C 3.125 -6.859375 3.003906 -6.910156 2.921875 -7.015625 C 2.835938 -7.117188 2.796875 -7.25 2.796875 -7.40625 C 2.796875 -7.488281 2.8125 -7.5625 2.84375 -7.625 C 2.882812 -7.695312 2.9375 -7.773438 3 -7.859375 L 6.671875 -11.859375 L 6.890625 -11.578125 L 1.390625 -11.578125 C 1.242188 -11.578125 1.117188 -11.625 1.015625 -11.71875 C 0.921875 -11.820312 0.875 -11.945312 0.875 -12.09375 C 0.875 -12.238281 0.921875 -12.359375 1.015625 -12.453125 C 1.117188 -12.554688 1.242188 -12.609375 1.390625 -12.609375 L 7.484375 -12.609375 C 7.691406 -12.609375 7.835938 -12.546875 7.921875 -12.421875 C 8.003906 -12.296875 8.046875 -12.171875 8.046875 -12.046875 C 8.046875 -11.972656 8.03125 -11.898438 8 -11.828125 C 7.96875 -11.765625 7.921875 -11.695312 7.859375 -11.625 L 4.171875 -7.625 L 3.765625 -7.859375 C 3.804688 -7.890625 3.929688 -7.925781 4.140625 -7.96875 C 4.359375 -8.007812 4.523438 -8.03125 4.640625 -8.03125 C 5.304688 -8.03125 5.929688 -7.875 6.515625 -7.5625 C 7.109375 -7.25 7.585938 -6.796875 7.953125 -6.203125 C 8.328125 -5.617188 8.515625 -4.898438 8.515625 -4.046875 C 8.515625 -3.203125 8.3125 -2.460938 7.90625 -1.828125 C 7.507812 -1.191406 6.972656 -0.695312 6.296875 -0.34375 C 5.617188 0.0078125 4.867188 0.1875 4.046875 0.1875 C 3.546875 0.1875 3.050781 0.101562 2.5625 -0.0625 C 2.082031 -0.238281 1.664062 -0.492188 1.3125 -0.828125 C 1.21875 -0.898438 1.148438 -0.972656 1.109375 -1.046875 C 1.078125 -1.117188 1.0625 -1.191406 1.0625 -1.265625 C 1.0625 -1.410156 1.113281 -1.546875 1.21875 -1.671875 C 1.320312 -1.804688 1.453125 -1.875 1.609375 -1.875 Z M 1.609375 -1.875 "/></g></g></g></g></g></g><g clip-path="url(#6c5c2992e7)"><g transform="matrix(1, 0, 0, 1, 254, 450)"><g clip-path="url(#10b7d66eff)"><g fill="#201f1f" fill-opacity="1"><g transform="translate(0.299415, 19.417857)"><g><path d="M 8.59375 -1.046875 C 8.738281 -1.046875 8.863281 -0.992188 8.96875 -0.890625 C 9.070312 -0.796875 9.125 -0.675781 9.125 -0.53125 C 9.125 -0.375 9.070312 -0.242188 8.96875 -0.140625 C 8.863281 -0.046875 8.738281 0 8.59375 0 L 1.796875 0 C 1.640625 0 1.503906 -0.0390625 1.390625 -0.125 C 1.273438 -0.21875 1.21875 -0.359375 1.21875 -0.546875 C 1.21875 -0.679688 1.265625 -0.804688 1.359375 -0.921875 L 5.546875 -5.546875 C 6.210938 -6.273438 6.710938 -6.941406 7.046875 -7.546875 C 7.378906 -8.160156 7.546875 -8.710938 7.546875 -9.203125 C 7.546875 -9.992188 7.300781 -10.628906 6.8125 -11.109375 C 6.332031 -11.597656 5.679688 -11.84375 4.859375 -11.84375 C 4.484375 -11.84375 4.109375 -11.765625 3.734375 -11.609375 C 3.367188 -11.453125 3.046875 -11.242188 2.765625 -10.984375 C 2.484375 -10.734375 2.265625 -10.445312 2.109375 -10.125 C 2.035156 -10 1.957031 -9.910156 1.875 -9.859375 C 1.800781 -9.816406 1.710938 -9.796875 1.609375 -9.796875 C 1.460938 -9.796875 1.332031 -9.835938 1.21875 -9.921875 C 1.113281 -10.015625 1.0625 -10.128906 1.0625 -10.265625 C 1.0625 -10.347656 1.082031 -10.429688 1.125 -10.515625 C 1.175781 -10.609375 1.242188 -10.707031 1.328125 -10.8125 C 1.546875 -11.1875 1.847656 -11.53125 2.234375 -11.84375 C 2.617188 -12.15625 3.050781 -12.40625 3.53125 -12.59375 C 4.007812 -12.78125 4.476562 -12.875 4.9375 -12.875 C 5.707031 -12.875 6.375 -12.722656 6.9375 -12.421875 C 7.5 -12.128906 7.929688 -11.710938 8.234375 -11.171875 C 8.546875 -10.640625 8.703125 -10.003906 8.703125 -9.265625 C 8.703125 -8.640625 8.503906 -7.953125 8.109375 -7.203125 C 7.722656 -6.460938 7.144531 -5.664062 6.375 -4.8125 L 2.828125 -0.828125 L 2.65625 -1.046875 Z M 8.59375 -1.046875 "/></g></g></g><g fill="#201f1f" fill-opacity="1"><g transform="translate(10.346227, 19.417857)"><g><path d="M 6.65625 0 C 6.5 0 6.367188 -0.0507812 6.265625 -0.15625 C 6.171875 -0.269531 6.125 -0.398438 6.125 -0.546875 L 6.125 -11.1875 L 6.375 -11.046875 L 1.59375 -4.734375 L 1.546875 -4.9375 L 8.515625 -4.9375 C 8.648438 -4.9375 8.769531 -4.882812 8.875 -4.78125 C 8.976562 -4.6875 9.03125 -4.566406 9.03125 -4.421875 C 9.03125 -4.273438 8.976562 -4.15625 8.875 -4.0625 C 8.769531 -3.96875 8.648438 -3.921875 8.515625 -3.921875 L 0.796875 -3.921875 C 0.648438 -3.921875 0.519531 -3.976562 0.40625 -4.09375 C 0.300781 -4.207031 0.25 -4.335938 0.25 -4.484375 C 0.25 -4.617188 0.289062 -4.738281 0.375 -4.84375 L 6.21875 -12.484375 C 6.28125 -12.566406 6.351562 -12.625 6.4375 -12.65625 C 6.53125 -12.6875 6.609375 -12.703125 6.671875 -12.703125 C 6.828125 -12.703125 6.957031 -12.644531 7.0625 -12.53125 C 7.164062 -12.425781 7.21875 -12.300781 7.21875 -12.15625 L 7.21875 -0.546875 C 7.21875 -0.398438 7.160156 -0.269531 7.046875 -0.15625 C 6.941406 -0.0507812 6.8125 0 6.65625 0 Z M 6.65625 0 "/></g></g></g></g></g></g><g clip-path="url(#30de5c24c0)"><g transform="matrix(1, 0, 0, 1, 379, 450)"><g clip-path="url(#7b9452b39e)"><g fill="#201f1f" fill-opacity="1"><g transform="translate(1.127377, 19.417857)"><g><path d="M 8.59375 -1.046875 C 8.738281 -1.046875 8.863281 -0.992188 8.96875 -0.890625 C 9.070312 -0.796875 9.125 -0.675781 9.125 -0.53125 C 9.125 -0.375 9.070312 -0.242188 8.96875 -0.140625 C 8.863281 -0.046875 8.738281 0 8.59375 0 L 1.796875 0 C 1.640625 0 1.503906 -0.0390625 1.390625 -0.125 C 1.273438 -0.21875 1.21875 -0.359375 1.21875 -0.546875 C 1.21875 -0.679688 1.265625 -0.804688 1.359375 -0.921875 L 5.546875 -5.546875 C 6.210938 -6.273438 6.710938 -6.941406 7.046875 -7.546875 C 7.378906 -8.160156 7.546875 -8.710938 7.546875 -9.203125 C 7.546875 -9.992188 7.300781 -10.628906 6.8125 -11.109375 C 6.332031 -11.597656 5.679688 -11.84375 4.859375 -11.84375 C 4.484375 -11.84375 4.109375 -11.765625 3.734375 -11.609375 C 3.367188 -11.453125 3.046875 -11.242188 2.765625 -10.984375 C 2.484375 -10.734375 2.265625 -10.445312 2.109375 -10.125 C 2.035156 -10 1.957031 -9.910156 1.875 -9.859375 C 1.800781 -9.816406 1.710938 -9.796875 1.609375 -9.796875 C 1.460938 -9.796875 1.332031 -9.835938 1.21875 -9.921875 C 1.113281 -10.015625 1.0625 -10.128906 1.0625 -10.265625 C 1.0625 -10.347656 1.082031 -10.429688 1.125 -10.515625 C 1.175781 -10.609375 1.242188 -10.707031 1.328125 -10.8125 C 1.546875 -11.1875 1.847656 -11.53125 2.234375 -11.84375 C 2.617188 -12.15625 3.050781 -12.40625 3.53125 -12.59375 C 4.007812 -12.78125 4.476562 -12.875 4.9375 -12.875 C 5.707031 -12.875 6.375 -12.722656 6.9375 -12.421875 C 7.5 -12.128906 7.929688 -11.710938 8.234375 -11.171875 C 8.546875 -10.640625 8.703125 -10.003906 8.703125 -9.265625 C 8.703125 -8.640625 8.503906 -7.953125 8.109375 -7.203125 C 7.722656 -6.460938 7.144531 -5.664062 6.375 -4.8125 L 2.828125 -0.828125 L 2.65625 -1.046875 Z M 8.59375 -1.046875 "/></g></g></g><g fill="#201f1f" fill-opacity="1"><g transform="translate(11.174189, 19.417857)"><g><path d="M 4.25 0.03125 C 3.75 0.03125 3.25 -0.046875 2.75 -0.203125 C 2.25 -0.367188 1.804688 -0.613281 1.421875 -0.9375 C 1.347656 -1 1.285156 -1.070312 1.234375 -1.15625 C 1.191406 -1.238281 1.171875 -1.328125 1.171875 -1.421875 C 1.171875 -1.535156 1.21875 -1.648438 1.3125 -1.765625 C 1.414062 -1.878906 1.546875 -1.9375 1.703125 -1.9375 C 1.835938 -1.9375 1.972656 -1.882812 2.109375 -1.78125 C 2.421875 -1.539062 2.757812 -1.351562 3.125 -1.21875 C 3.5 -1.082031 3.875 -1.015625 4.25 -1.015625 C 4.957031 -1.015625 5.578125 -1.148438 6.109375 -1.421875 C 6.640625 -1.691406 7.050781 -2.078125 7.34375 -2.578125 C 7.632812 -3.085938 7.78125 -3.671875 7.78125 -4.328125 C 7.78125 -4.953125 7.644531 -5.488281 7.375 -5.9375 C 7.113281 -6.394531 6.738281 -6.753906 6.25 -7.015625 C 5.757812 -7.273438 5.179688 -7.40625 4.515625 -7.40625 C 4.078125 -7.40625 3.679688 -7.335938 3.328125 -7.203125 C 2.972656 -7.066406 2.664062 -6.925781 2.40625 -6.78125 C 2.144531 -6.644531 1.9375 -6.578125 1.78125 -6.578125 C 1.632812 -6.578125 1.515625 -6.613281 1.421875 -6.6875 C 1.328125 -6.757812 1.265625 -6.847656 1.234375 -6.953125 C 1.210938 -7.066406 1.210938 -7.1875 1.234375 -7.3125 L 2.015625 -12.15625 C 2.023438 -12.257812 2.082031 -12.359375 2.1875 -12.453125 C 2.289062 -12.546875 2.421875 -12.59375 2.578125 -12.59375 L 8.03125 -12.59375 C 8.175781 -12.59375 8.300781 -12.539062 8.40625 -12.4375 C 8.507812 -12.332031 8.5625 -12.207031 8.5625 -12.0625 C 8.5625 -11.90625 8.507812 -11.773438 8.40625 -11.671875 C 8.300781 -11.566406 8.175781 -11.515625 8.03125 -11.515625 L 2.828125 -11.515625 L 3 -11.6875 L 2.25 -7.390625 L 1.921875 -7.625 C 2.078125 -7.738281 2.300781 -7.851562 2.59375 -7.96875 C 2.894531 -8.09375 3.226562 -8.203125 3.59375 -8.296875 C 3.96875 -8.390625 4.359375 -8.4375 4.765625 -8.4375 C 5.554688 -8.4375 6.257812 -8.265625 6.875 -7.921875 C 7.488281 -7.578125 7.972656 -7.097656 8.328125 -6.484375 C 8.691406 -5.867188 8.875 -5.164062 8.875 -4.375 C 8.875 -3.488281 8.679688 -2.710938 8.296875 -2.046875 C 7.921875 -1.390625 7.382812 -0.878906 6.6875 -0.515625 C 6 -0.148438 5.1875 0.03125 4.25 0.03125 Z M 4.25 0.03125 "/></g></g></g></g></g></g><g clip-path="url(#589a5f55bb)"><g transform="matrix(1, 0, 0, 1, 505, 450)"><g clip-path="url(#544f77644d)"><g fill="#201f1f" fill-opacity="1"><g transform="translate(0.95531, 19.417857)"><g><path d="M 8.59375 -1.046875 C 8.738281 -1.046875 8.863281 -0.992188 8.96875 -0.890625 C 9.070312 -0.796875 9.125 -0.675781 9.125 -0.53125 C 9.125 -0.375 9.070312 -0.242188 8.96875 -0.140625 C 8.863281 -0.046875 8.738281 0 8.59375 0 L 1.796875 0 C 1.640625 0 1.503906 -0.0390625 1.390625 -0.125 C 1.273438 -0.21875 1.21875 -0.359375 1.21875 -0.546875 C 1.21875 -0.679688 1.265625 -0.804688 1.359375 -0.921875 L 5.546875 -5.546875 C 6.210938 -6.273438 6.710938 -6.941406 7.046875 -7.546875 C 7.378906 -8.160156 7.546875 -8.710938 7.546875 -9.203125 C 7.546875 -9.992188 7.300781 -10.628906 6.8125 -11.109375 C 6.332031 -11.597656 5.679688 -11.84375 4.859375 -11.84375 C 4.484375 -11.84375 4.109375 -11.765625 3.734375 -11.609375 C 3.367188 -11.453125 3.046875 -11.242188 2.765625 -10.984375 C 2.484375 -10.734375 2.265625 -10.445312 2.109375 -10.125 C 2.035156 -10 1.957031 -9.910156 1.875 -9.859375 C 1.800781 -9.816406 1.710938 -9.796875 1.609375 -9.796875 C 1.460938 -9.796875 1.332031 -9.835938 1.21875 -9.921875 C 1.113281 -10.015625 1.0625 -10.128906 1.0625 -10.265625 C 1.0625 -10.347656 1.082031 -10.429688 1.125 -10.515625 C 1.175781 -10.609375 1.242188 -10.707031 1.328125 -10.8125 C 1.546875 -11.1875 1.847656 -11.53125 2.234375 -11.84375 C 2.617188 -12.15625 3.050781 -12.40625 3.53125 -12.59375 C 4.007812 -12.78125 4.476562 -12.875 4.9375 -12.875 C 5.707031 -12.875 6.375 -12.722656 6.9375 -12.421875 C 7.5 -12.128906 7.929688 -11.710938 8.234375 -11.171875 C 8.546875 -10.640625 8.703125 -10.003906 8.703125 -9.265625 C 8.703125 -8.640625 8.503906 -7.953125 8.109375 -7.203125 C 7.722656 -6.460938 7.144531 -5.664062 6.375 -4.8125 L 2.828125 -0.828125 L 2.65625 -1.046875 Z M 8.59375 -1.046875 "/></g></g></g><g fill="#201f1f" fill-opacity="1"><g transform="translate(11.002123, 19.417857)"><g><path d="M 5.203125 0.1875 C 4.503906 0.1875 3.890625 0.0625 3.359375 -0.1875 C 2.835938 -0.445312 2.40625 -0.789062 2.0625 -1.21875 C 1.71875 -1.65625 1.460938 -2.144531 1.296875 -2.6875 C 1.128906 -3.226562 1.046875 -3.785156 1.046875 -4.359375 C 1.046875 -4.929688 1.117188 -5.550781 1.265625 -6.21875 C 1.410156 -6.894531 1.632812 -7.578125 1.9375 -8.265625 C 2.238281 -8.960938 2.609375 -9.617188 3.046875 -10.234375 C 3.492188 -10.847656 4.007812 -11.398438 4.59375 -11.890625 C 5.1875 -12.378906 5.847656 -12.765625 6.578125 -13.046875 C 6.671875 -13.066406 6.742188 -13.078125 6.796875 -13.078125 C 6.953125 -13.078125 7.085938 -13.035156 7.203125 -12.953125 C 7.328125 -12.867188 7.390625 -12.722656 7.390625 -12.515625 C 7.390625 -12.390625 7.347656 -12.28125 7.265625 -12.1875 C 7.179688 -12.101562 7.078125 -12.035156 6.953125 -11.984375 C 6.441406 -11.773438 5.9375 -11.46875 5.4375 -11.0625 C 4.945312 -10.664062 4.488281 -10.207031 4.0625 -9.6875 C 3.632812 -9.164062 3.273438 -8.601562 2.984375 -8 C 2.691406 -7.40625 2.484375 -6.800781 2.359375 -6.1875 L 1.953125 -5.953125 C 2.171875 -6.347656 2.453125 -6.695312 2.796875 -7 C 3.140625 -7.3125 3.535156 -7.5625 3.984375 -7.75 C 4.429688 -7.9375 4.914062 -8.03125 5.4375 -8.03125 C 5.988281 -8.03125 6.492188 -7.914062 6.953125 -7.6875 C 7.410156 -7.457031 7.804688 -7.144531 8.140625 -6.75 C 8.472656 -6.363281 8.734375 -5.921875 8.921875 -5.421875 C 9.109375 -4.929688 9.203125 -4.414062 9.203125 -3.875 C 9.203125 -3.164062 9.023438 -2.503906 8.671875 -1.890625 C 8.328125 -1.273438 7.859375 -0.773438 7.265625 -0.390625 C 6.671875 -0.00390625 5.984375 0.1875 5.203125 0.1875 Z M 5.1875 -0.875 C 5.738281 -0.875 6.234375 -1 6.671875 -1.25 C 7.109375 -1.5 7.453125 -1.851562 7.703125 -2.3125 C 7.953125 -2.769531 8.078125 -3.289062 8.078125 -3.875 C 8.078125 -4.425781 7.96875 -4.929688 7.75 -5.390625 C 7.539062 -5.859375 7.226562 -6.238281 6.8125 -6.53125 C 6.394531 -6.832031 5.878906 -6.984375 5.265625 -6.984375 C 4.617188 -6.984375 4.0625 -6.835938 3.59375 -6.546875 C 3.132812 -6.253906 2.78125 -5.867188 2.53125 -5.390625 C 2.28125 -4.921875 2.15625 -4.398438 2.15625 -3.828125 C 2.15625 -3.316406 2.273438 -2.832031 2.515625 -2.375 C 2.765625 -1.925781 3.113281 -1.5625 3.5625 -1.28125 C 4.019531 -1.007812 4.5625 -0.875 5.1875 -0.875 Z M 5.1875 -0.875 "/></g></g></g></g></g></g><g clip-path="url(#4fed3ca67f)"><g transform="matrix(1, 0, 0, 1, 631, 450)"><g clip-path="url(#6016fd1b1e)"><g fill="#201f1f" fill-opacity="1"><g transform="translate(0.783273, 19.417857)"><g><path d="M 8.59375 -1.046875 C 8.738281 -1.046875 8.863281 -0.992188 8.96875 -0.890625 C 9.070312 -0.796875 9.125 -0.675781 9.125 -0.53125 C 9.125 -0.375 9.070312 -0.242188 8.96875 -0.140625 C 8.863281 -0.046875 8.738281 0 8.59375 0 L 1.796875 0 C 1.640625 0 1.503906 -0.0390625 1.390625 -0.125 C 1.273438 -0.21875 1.21875 -0.359375 1.21875 -0.546875 C 1.21875 -0.679688 1.265625 -0.804688 1.359375 -0.921875 L 5.546875 -5.546875 C 6.210938 -6.273438 6.710938 -6.941406 7.046875 -7.546875 C 7.378906 -8.160156 7.546875 -8.710938 7.546875 -9.203125 C 7.546875 -9.992188 7.300781 -10.628906 6.8125 -11.109375 C 6.332031 -11.597656 5.679688 -11.84375 4.859375 -11.84375 C 4.484375 -11.84375 4.109375 -11.765625 3.734375 -11.609375 C 3.367188 -11.453125 3.046875 -11.242188 2.765625 -10.984375 C 2.484375 -10.734375 2.265625 -10.445312 2.109375 -10.125 C 2.035156 -10 1.957031 -9.910156 1.875 -9.859375 C 1.800781 -9.816406 1.710938 -9.796875 1.609375 -9.796875 C 1.460938 -9.796875 1.332031 -9.835938 1.21875 -9.921875 C 1.113281 -10.015625 1.0625 -10.128906 1.0625 -10.265625 C 1.0625 -10.347656 1.082031 -10.429688 1.125 -10.515625 C 1.175781 -10.609375 1.242188 -10.707031 1.328125 -10.8125 C 1.546875 -11.1875 1.847656 -11.53125 2.234375 -11.84375 C 2.617188 -12.15625 3.050781 -12.40625 3.53125 -12.59375 C 4.007812 -12.78125 4.476562 -12.875 4.9375 -12.875 C 5.707031 -12.875 6.375 -12.722656 6.9375 -12.421875 C 7.5 -12.128906 7.929688 -11.710938 8.234375 -11.171875 C 8.546875 -10.640625 8.703125 -10.003906 8.703125 -9.265625 C 8.703125 -8.640625 8.503906 -7.953125 8.109375 -7.203125 C 7.722656 -6.460938 7.144531 -5.664062 6.375 -4.8125 L 2.828125 -0.828125 L 2.65625 -1.046875 Z M 8.59375 -1.046875 "/></g></g></g><g fill="#201f1f" fill-opacity="1"><g transform="translate(10.830085, 19.417857)"><g><path d="M 3.234375 0.046875 C 3.085938 0.046875 2.953125 0 2.828125 -0.09375 C 2.710938 -0.1875 2.65625 -0.304688 2.65625 -0.453125 C 2.65625 -0.535156 2.671875 -0.625 2.703125 -0.71875 L 7.53125 -11.8125 L 7.734375 -11.5625 L 1.59375 -11.5625 C 1.445312 -11.5625 1.320312 -11.609375 1.21875 -11.703125 C 1.113281 -11.804688 1.0625 -11.929688 1.0625 -12.078125 C 1.0625 -12.234375 1.113281 -12.359375 1.21875 -12.453125 C 1.320312 -12.554688 1.445312 -12.609375 1.59375 -12.609375 L 8.25 -12.609375 C 8.4375 -12.609375 8.570312 -12.554688 8.65625 -12.453125 C 8.738281 -12.359375 8.78125 -12.238281 8.78125 -12.09375 C 8.78125 -12 8.757812 -11.910156 8.71875 -11.828125 L 3.734375 -0.3125 C 3.703125 -0.195312 3.632812 -0.109375 3.53125 -0.046875 C 3.4375 0.015625 3.335938 0.046875 3.234375 0.046875 Z M 3.234375 0.046875 "/></g></g></g></g></g></g><g clip-path="url(#82fb5f6aa3)"><g transform="matrix(1, 0, 0, 1, 757, 450)"><g clip-path="url(#d08d99d71b)"><g fill="#201f1f" fill-opacity="1"><g transform="translate(0.611236, 19.417857)"><g><path d="M 8.59375 -1.046875 C 8.738281 -1.046875 8.863281 -0.992188 8.96875 -0.890625 C 9.070312 -0.796875 9.125 -0.675781 9.125 -0.53125 C 9.125 -0.375 9.070312 -0.242188 8.96875 -0.140625 C 8.863281 -0.046875 8.738281 0 8.59375 0 L 1.796875 0 C 1.640625 0 1.503906 -0.0390625 1.390625 -0.125 C 1.273438 -0.21875 1.21875 -0.359375 1.21875 -0.546875 C 1.21875 -0.679688 1.265625 -0.804688 1.359375 -0.921875 L 5.546875 -5.546875 C 6.210938 -6.273438 6.710938 -6.941406 7.046875 -7.546875 C 7.378906 -8.160156 7.546875 -8.710938 7.546875 -9.203125 C 7.546875 -9.992188 7.300781 -10.628906 6.8125 -11.109375 C 6.332031 -11.597656 5.679688 -11.84375 4.859375 -11.84375 C 4.484375 -11.84375 4.109375 -11.765625 3.734375 -11.609375 C 3.367188 -11.453125 3.046875 -11.242188 2.765625 -10.984375 C 2.484375 -10.734375 2.265625 -10.445312 2.109375 -10.125 C 2.035156 -10 1.957031 -9.910156 1.875 -9.859375 C 1.800781 -9.816406 1.710938 -9.796875 1.609375 -9.796875 C 1.460938 -9.796875 1.332031 -9.835938 1.21875 -9.921875 C 1.113281 -10.015625 1.0625 -10.128906 1.0625 -10.265625 C 1.0625 -10.347656 1.082031 -10.429688 1.125 -10.515625 C 1.175781 -10.609375 1.242188 -10.707031 1.328125 -10.8125 C 1.546875 -11.1875 1.847656 -11.53125 2.234375 -11.84375 C 2.617188 -12.15625 3.050781 -12.40625 3.53125 -12.59375 C 4.007812 -12.78125 4.476562 -12.875 4.9375 -12.875 C 5.707031 -12.875 6.375 -12.722656 6.9375 -12.421875 C 7.5 -12.128906 7.929688 -11.710938 8.234375 -11.171875 C 8.546875 -10.640625 8.703125 -10.003906 8.703125 -9.265625 C 8.703125 -8.640625 8.503906 -7.953125 8.109375 -7.203125 C 7.722656 -6.460938 7.144531 -5.664062 6.375 -4.8125 L 2.828125 -0.828125 L 2.65625 -1.046875 Z M 8.59375 -1.046875 "/></g></g></g><g fill="#201f1f" fill-opacity="1"><g transform="translate(10.658048, 19.417857)"><g><path d="M 6.609375 -6.390625 L 6.546875 -6.546875 C 6.960938 -6.390625 7.335938 -6.15625 7.671875 -5.84375 C 8.015625 -5.539062 8.285156 -5.179688 8.484375 -4.765625 C 8.691406 -4.347656 8.796875 -3.890625 8.796875 -3.390625 C 8.796875 -2.734375 8.625 -2.140625 8.28125 -1.609375 C 7.9375 -1.078125 7.46875 -0.65625 6.875 -0.34375 C 6.28125 -0.03125 5.617188 0.125 4.890625 0.125 C 4.160156 0.125 3.5 -0.03125 2.90625 -0.34375 C 2.320312 -0.65625 1.859375 -1.078125 1.515625 -1.609375 C 1.171875 -2.140625 1 -2.734375 1 -3.390625 C 1 -3.921875 1.101562 -4.394531 1.3125 -4.8125 C 1.519531 -5.226562 1.796875 -5.582031 2.140625 -5.875 C 2.492188 -6.164062 2.859375 -6.390625 3.234375 -6.546875 L 3.171875 -6.375 C 2.847656 -6.53125 2.539062 -6.742188 2.25 -7.015625 C 1.96875 -7.285156 1.734375 -7.609375 1.546875 -7.984375 C 1.367188 -8.367188 1.28125 -8.789062 1.28125 -9.25 C 1.28125 -9.90625 1.441406 -10.492188 1.765625 -11.015625 C 2.085938 -11.535156 2.523438 -11.945312 3.078125 -12.25 C 3.628906 -12.550781 4.234375 -12.703125 4.890625 -12.703125 C 5.554688 -12.703125 6.160156 -12.550781 6.703125 -12.25 C 7.242188 -11.945312 7.671875 -11.535156 7.984375 -11.015625 C 8.304688 -10.492188 8.46875 -9.90625 8.46875 -9.25 C 8.46875 -8.78125 8.375 -8.359375 8.1875 -7.984375 C 8.007812 -7.609375 7.773438 -7.285156 7.484375 -7.015625 C 7.203125 -6.742188 6.910156 -6.535156 6.609375 -6.390625 Z M 2.40625 -9.25 C 2.40625 -8.769531 2.519531 -8.347656 2.75 -7.984375 C 2.988281 -7.617188 3.296875 -7.332031 3.671875 -7.125 C 4.046875 -6.925781 4.453125 -6.828125 4.890625 -6.828125 C 5.328125 -6.828125 5.734375 -6.925781 6.109375 -7.125 C 6.484375 -7.332031 6.78125 -7.617188 7 -7.984375 C 7.226562 -8.347656 7.34375 -8.769531 7.34375 -9.25 C 7.34375 -9.96875 7.113281 -10.550781 6.65625 -11 C 6.195312 -11.445312 5.609375 -11.671875 4.890625 -11.671875 C 4.160156 -11.671875 3.5625 -11.445312 3.09375 -11 C 2.632812 -10.550781 2.40625 -9.96875 2.40625 -9.25 Z M 4.890625 -0.90625 C 5.710938 -0.90625 6.378906 -1.140625 6.890625 -1.609375 C 7.410156 -2.085938 7.671875 -2.679688 7.671875 -3.390625 C 7.671875 -3.878906 7.539062 -4.316406 7.28125 -4.703125 C 7.03125 -5.085938 6.691406 -5.390625 6.265625 -5.609375 C 5.847656 -5.828125 5.390625 -5.9375 4.890625 -5.9375 C 4.398438 -5.9375 3.941406 -5.828125 3.515625 -5.609375 C 3.097656 -5.390625 2.757812 -5.085938 2.5 -4.703125 C 2.25 -4.316406 2.125 -3.878906 2.125 -3.390625 C 2.125 -2.679688 2.375 -2.085938 2.875 -1.609375 C 3.382812 -1.140625 4.054688 -0.90625 4.890625 -0.90625 Z M 4.890625 -0.90625 "/></g></g></g></g></g></g><path stroke-linecap="butt" transform="matrix(0.75, 0, 0, 0.75, 0.0000031164, 0.00002)" fill-opacity="1" fill="#000000" fill-rule="nonzero" stroke-linejoin="miter" d="M 0.760413 1.526015 L 0.760413 798.781262 M 168.531254 1.526015 L 168.531254 798.781262 M 336.302096 1.526015 L 336.302096 798.781262 M 504.072937 1.526015 L 504.072937 798.781262 M 671.843779 1.526015 L 671.843779 798.781262 M 839.61462 1.526015 L 839.61462 798.781262 M 1007.385462 1.526015 L 1007.385462 798.781262 M 1175.156303 1.526015 L 1175.156303 798.781262 M -0.0000041552 0.76039 L 1175.91672 0.76039 M -0.0000041552 200.458316 L 1175.91672 200.458316 M -0.0000041552 400.151035 L 1175.91672 400.151035 M -0.0000041552 599.848961 L 1175.91672 599.848961 M -0.0000041552 799.541679 L 1175.91672 799.541679 " stroke="#000000" stroke-width="1.524655" stroke-opacity="1" stroke-miterlimit="4"/><path stroke-linecap="butt" transform="matrix(0.75, 0, 0, 0.75, 0.0000031164, 0.00002)" fill-opacity="1" fill="#000000" fill-rule="nonzero" stroke-linejoin="miter" d="M 0.760413 800.307304 L 0.760413 998.47398 M 168.531254 800.307304 L 168.531254 998.47398 M 336.302096 800.307304 L 336.302096 998.47398 M 504.072937 800.307304 L 504.072937 998.47398 M 671.843779 800.307304 L 671.843779 998.47398 M 839.61462 800.307304 L 839.61462 998.47398 M 1007.385462 800.307304 L 1007.385462 998.47398 M 1175.156303 800.307304 L 1175.156303 998.47398 M -0.0000041552 999.239605 L 1175.91672 999.239605 " stroke="#ffffff" stroke-width="1.524655" stroke-opacity="1" stroke-miterlimit="4"/></svg>