<svg xmlns="http://www.w3.org/2000/svg" xmlns:xlink="http://www.w3.org/1999/xlink" width="1176" zoomAndPan="magnify" viewBox="0 0 882 749.999995" height="1000" preserveAspectRatio="xMidYMid meet" version="1.0"><defs><g/><clipPath id="7c60444de2"><path d="M 631 1.214844 L 640 1.214844 L 640 27 L 631 27 Z M 631 1.214844 " clip-rule="nonzero"/></clipPath><clipPath id="25a3124ab4"><rect x="0" width="9" y="0" height="26"/></clipPath><clipPath id="f678615fda"><path d="M 757 1.214844 L 769 1.214844 L 769 27 L 757 27 Z M 757 1.214844 " clip-rule="nonzero"/></clipPath><clipPath id="30da8a33d9"><rect x="0" width="12" y="0" height="26"/></clipPath><clipPath id="55e4f65858"><rect x="0" width="12" y="0" height="25"/></clipPath><clipPath id="acb5b4f85c"><path d="M 0.398438 6 L 10.960938 6 L 10.960938 20 L 0.398438 20 Z M 0.398438 6 " clip-rule="nonzero"/></clipPath><clipPath id="6580d2d3eb"><rect x="0" width="11" y="0" height="25"/></clipPath><clipPath id="758679b8d2"><rect x="0" width="12" y="0" height="25"/></clipPath><clipPath id="527597f7c2"><rect x="0" width="12" y="0" height="25"/></clipPath><clipPath id="f1181767b1"><rect x="0" width="12" y="0" height="25"/></clipPath><clipPath id="a25b5fa0fa"><rect x="0" width="12" y="0" height="25"/></clipPath><clipPath id="864a6ab205"><rect x="0" width="12" y="0" height="25"/></clipPath><clipPath id="c9d31de131"><rect x="0" width="20" y="0" height="25"/></clipPath><clipPath id="eccf9077bb"><rect x="0" width="16" y="0" height="25"/></clipPath><clipPath id="7418952a57"><path d="M 0.160156 6 L 6 6 L 6 20 L 0.160156 20 Z M 0.160156 6 " clip-rule="nonzero"/></clipPath><clipPath id="faec71b708"><rect x="0" width="19" y="0" height="25"/></clipPath><clipPath id="79f5a6bec3"><path d="M 0.160156 6 L 6 6 L 6 20 L 0.160156 20 Z M 0.160156 6 " clip-rule="nonzero"/></clipPath><clipPath id="b9cb6e6992"><rect x="0" width="18" y="0" height="25"/></clipPath><clipPath id="69af5fddb6"><rect x="0" width="19" y="0" height="25"/></clipPath><clipPath id="9968e1efac"><rect x="0" width="20" y="0" height="25"/></clipPath><clipPath id="7d457c8cae"><rect x="0" width="19" y="0" height="25"/></clipPath><clipPath id="8c517c3bb0"><path d="M 2 450.484375 L 21 450.484375 L 21 476 L 2 476 Z M 2 450.484375 " clip-rule="nonzero"/></clipPath><clipPath id="416fd4c8a6"><rect x="0" width="19" y="0" height="26"/></clipPath><clipPath id="b11e0dec10"><path d="M 128 450.484375 L 147 450.484375 L 147 476 L 128 476 Z M 128 450.484375 " clip-rule="nonzero"/></clipPath><clipPath id="87ffbf3f79"><rect x="0" width="19" y="0" height="26"/></clipPath><clipPath id="8d8eaec3fc"><path d="M 254 450.484375 L 273 450.484375 L 273 476 L 254 476 Z M 254 450.484375 " clip-rule="nonzero"/></clipPath><clipPath id="969865b4ae"><path d="M 0.160156 7 L 6 7 L 6 21 L 0.160156 21 Z M 0.160156 7 " clip-rule="nonzero"/></clipPath><clipPath id="4e65b686e3"><rect x="0" width="19" y="0" height="26"/></clipPath><clipPath id="f9a61bc36f"><path d="M 380 450.484375 L 403 450.484375 L 403 476 L 380 476 Z M 380 450.484375 " clip-rule="nonzero"/></clipPath><clipPath id="f7b4b23620"><rect x="0" width="23" y="0" height="26"/></clipPath><clipPath id="a73bc8ea96"><path d="M 505 450.484375 L 525 450.484375 L 525 476 L 505 476 Z M 505 450.484375 " clip-rule="nonzero"/></clipPath><clipPath id="67e7d57b64"><rect x="0" width="20" y="0" height="26"/></clipPath><clipPath id="7d99571d3a"><path d="M 631 450.484375 L 654 450.484375 L 654 476 L 631 476 Z M 631 450.484375 " clip-rule="nonzero"/></clipPath><clipPath id="aa44ad43e1"><rect x="0" width="23" y="0" height="26"/></clipPath><clipPath id="0e7522e5ae"><path d="M 757 450.484375 L 780 450.484375 L 780 476 L 757 476 Z M 757 450.484375 " clip-rule="nonzero"/></clipPath><clipPath id="782f0dd4d9"><rect x="0" width="23" y="0" height="26"/></clipPath><clipPath id="cf9fcfa075"><path d="M 2 600.242188 L 24 600.242188 L 24 626 L 2 626 Z M 2 600.242188 " clip-rule="nonzero"/></clipPath><clipPath id="89be4fd0d2"><rect x="0" width="22" y="0" height="26"/></clipPath><clipPath id="57908286cd"><path d="M 128 600.242188 L 150 600.242188 L 150 626 L 128 626 Z M 128 600.242188 " clip-rule="nonzero"/></clipPath><clipPath id="f138fbd669"><rect x="0" width="22" y="0" height="26"/></clipPath><clipPath id="c8e4f69bba"><path d="M 254 600.242188 L 276 600.242188 L 276 626 L 254 626 Z M 254 600.242188 " clip-rule="nonzero"/></clipPath><clipPath id="d11a2e184a"><rect x="0" width="22" y="0" height="26"/></clipPath><clipPath id="d1e6bd3765"><path d="M 380 600.242188 L 402 600.242188 L 402 626 L 380 626 Z M 380 600.242188 " clip-rule="nonzero"/></clipPath><clipPath id="290b603bee"><rect x="0" width="22" y="0" height="26"/></clipPath><clipPath id="77c4d01f87"><path d="M 505 600.242188 L 528 600.242188 L 528 626 L 505 626 Z M 505 600.242188 " clip-rule="nonzero"/></clipPath><clipPath id="fe691094f6"><rect x="0" width="23" y="0" height="26"/></clipPath><clipPath id="0fe0a742ba"><path d="M 631 600.242188 L 654 600.242188 L 654 626 L 631 626 Z M 631 600.242188 " clip-rule="nonzero"/></clipPath><clipPath id="7b12753e0d"><rect x="0" width="23" y="0" height="26"/></clipPath><clipPath id="1d9001eb22"><path d="M 757 600.242188 L 780 600.242188 L 780 626 L 757 626 Z M 757 600.242188 " clip-rule="nonzero"/></clipPath><clipPath id="13c94809d8"><rect x="0" width="23" y="0" height="26"/></clipPath><clipPath id="14ab2389eb"><path d="M 0.0390625 0 L 881.984375 0 L 881.984375 750 L 0.0390625 750 Z M 0.0390625 0 " clip-rule="nonzero"/></clipPath><clipPath id="1ab9113d12"><path d="M 0 591 L 137 591 L 137 750 L 0 750 Z M 0 591 " clip-rule="nonzero"/></clipPath><clipPath id="9491c46106"><rect x="0" width="882" y="0" height="750"/></clipPath></defs><g transform="matrix(1, 0, 0, 1, 0, -0.000000000000042435)"><g clip-path="url(#9491c46106)"><g clip-path="url(#7c60444de2)"><g transform="matrix(1, 0, 0, 1, 631, 1)"><g clip-path="url(#25a3124ab4)"><g fill="#201f1f" fill-opacity="1"><g transform="translate(0.843039, 20.242208)"><g><path d="M 4.34375 0 C 4.164062 0 4.019531 -0.0546875 3.90625 -0.171875 C 3.789062 -0.285156 3.734375 -0.421875 3.734375 -0.578125 L 3.734375 -12.171875 L 3.953125 -11.96875 L 1.390625 -10.265625 C 1.285156 -10.179688 1.175781 -10.140625 1.0625 -10.140625 C 0.90625 -10.140625 0.765625 -10.203125 0.640625 -10.328125 C 0.523438 -10.460938 0.46875 -10.609375 0.46875 -10.765625 C 0.46875 -10.960938 0.566406 -11.117188 0.765625 -11.234375 L 3.984375 -13.375 C 4.054688 -13.425781 4.132812 -13.457031 4.21875 -13.46875 C 4.300781 -13.488281 4.378906 -13.488281 4.453125 -13.46875 C 4.617188 -13.457031 4.742188 -13.394531 4.828125 -13.28125 C 4.921875 -13.175781 4.96875 -13.046875 4.96875 -12.890625 L 4.96875 -0.578125 C 4.96875 -0.421875 4.910156 -0.285156 4.796875 -0.171875 C 4.679688 -0.0546875 4.53125 0 4.34375 0 Z M 4.34375 0 "/></g></g></g></g></g></g><g clip-path="url(#f678615fda)"><g transform="matrix(1, 0, 0, 1, 757, 1)"><g clip-path="url(#30da8a33d9)"><g fill="#201f1f" fill-opacity="1"><g transform="translate(0.660923, 20.242208)"><g><path d="M 9.125 -1.109375 C 9.28125 -1.109375 9.410156 -1.054688 9.515625 -0.953125 C 9.628906 -0.847656 9.6875 -0.71875 9.6875 -0.5625 C 9.6875 -0.394531 9.628906 -0.257812 9.515625 -0.15625 C 9.410156 -0.0507812 9.28125 0 9.125 0 L 1.90625 0 C 1.738281 0 1.59375 -0.046875 1.46875 -0.140625 C 1.351562 -0.234375 1.296875 -0.378906 1.296875 -0.578125 C 1.296875 -0.722656 1.34375 -0.859375 1.4375 -0.984375 L 5.890625 -5.890625 C 6.597656 -6.660156 7.128906 -7.367188 7.484375 -8.015625 C 7.835938 -8.660156 8.015625 -9.242188 8.015625 -9.765625 C 8.015625 -10.609375 7.753906 -11.285156 7.234375 -11.796875 C 6.722656 -12.304688 6.03125 -12.5625 5.15625 -12.5625 C 4.757812 -12.5625 4.363281 -12.476562 3.96875 -12.3125 C 3.582031 -12.144531 3.238281 -11.925781 2.9375 -11.65625 C 2.632812 -11.394531 2.398438 -11.085938 2.234375 -10.734375 C 2.160156 -10.609375 2.082031 -10.519531 2 -10.46875 C 1.914062 -10.414062 1.820312 -10.390625 1.71875 -10.390625 C 1.5625 -10.390625 1.425781 -10.4375 1.3125 -10.53125 C 1.195312 -10.632812 1.140625 -10.753906 1.140625 -10.890625 C 1.140625 -10.984375 1.160156 -11.070312 1.203125 -11.15625 C 1.242188 -11.25 1.3125 -11.351562 1.40625 -11.46875 C 1.632812 -11.863281 1.953125 -12.226562 2.359375 -12.5625 C 2.773438 -12.90625 3.234375 -13.175781 3.734375 -13.375 C 4.242188 -13.570312 4.742188 -13.671875 5.234375 -13.671875 C 6.054688 -13.671875 6.765625 -13.507812 7.359375 -13.1875 C 7.960938 -12.875 8.425781 -12.429688 8.75 -11.859375 C 9.070312 -11.296875 9.234375 -10.625 9.234375 -9.84375 C 9.234375 -9.164062 9.023438 -8.429688 8.609375 -7.640625 C 8.191406 -6.859375 7.570312 -6.007812 6.75 -5.09375 L 3 -0.890625 L 2.8125 -1.109375 Z M 9.125 -1.109375 "/></g></g></g></g></g></g><g transform="matrix(1, 0, 0, 1, 2, 151)"><g clip-path="url(#55e4f65858)"><g fill="#201f1f" fill-opacity="1"><g transform="translate(0.753147, 19.999527)"><g><path d="M 1.71875 -1.984375 C 1.78125 -1.984375 1.84375 -1.96875 1.90625 -1.9375 C 1.976562 -1.914062 2.066406 -1.859375 2.171875 -1.765625 C 2.441406 -1.484375 2.765625 -1.269531 3.140625 -1.125 C 3.515625 -0.976562 3.9375 -0.90625 4.40625 -0.90625 C 5.03125 -0.90625 5.601562 -1.046875 6.125 -1.328125 C 6.644531 -1.609375 7.054688 -2 7.359375 -2.5 C 7.671875 -3.007812 7.828125 -3.59375 7.828125 -4.25 C 7.828125 -5 7.664062 -5.597656 7.34375 -6.046875 C 7.019531 -6.503906 6.601562 -6.84375 6.09375 -7.0625 C 5.582031 -7.289062 5.066406 -7.40625 4.546875 -7.40625 C 4.398438 -7.40625 4.257812 -7.394531 4.125 -7.375 C 3.988281 -7.363281 3.863281 -7.34375 3.75 -7.3125 C 3.632812 -7.289062 3.546875 -7.28125 3.484375 -7.28125 C 3.316406 -7.28125 3.1875 -7.332031 3.09375 -7.4375 C 3.007812 -7.550781 2.96875 -7.691406 2.96875 -7.859375 C 2.96875 -7.941406 2.984375 -8.019531 3.015625 -8.09375 C 3.054688 -8.164062 3.109375 -8.242188 3.171875 -8.328125 L 7.078125 -12.59375 L 7.3125 -12.28125 L 1.484375 -12.28125 C 1.328125 -12.28125 1.191406 -12.332031 1.078125 -12.4375 C 0.972656 -12.550781 0.921875 -12.6875 0.921875 -12.84375 C 0.921875 -13 0.972656 -13.125 1.078125 -13.21875 C 1.191406 -13.320312 1.328125 -13.375 1.484375 -13.375 L 7.953125 -13.375 C 8.171875 -13.375 8.320312 -13.304688 8.40625 -13.171875 C 8.5 -13.035156 8.546875 -12.90625 8.546875 -12.78125 C 8.546875 -12.707031 8.523438 -12.632812 8.484375 -12.5625 C 8.453125 -12.488281 8.398438 -12.414062 8.328125 -12.34375 L 4.421875 -8.078125 L 4 -8.328125 C 4.039062 -8.367188 4.171875 -8.410156 4.390625 -8.453125 C 4.617188 -8.503906 4.796875 -8.53125 4.921875 -8.53125 C 5.628906 -8.53125 6.296875 -8.363281 6.921875 -8.03125 C 7.546875 -7.695312 8.050781 -7.21875 8.4375 -6.59375 C 8.832031 -5.96875 9.03125 -5.203125 9.03125 -4.296875 C 9.03125 -3.390625 8.816406 -2.597656 8.390625 -1.921875 C 7.960938 -1.253906 7.390625 -0.734375 6.671875 -0.359375 C 5.960938 0.00390625 5.171875 0.1875 4.296875 0.1875 C 3.765625 0.1875 3.242188 0.0976562 2.734375 -0.078125 C 2.222656 -0.253906 1.773438 -0.523438 1.390625 -0.890625 C 1.296875 -0.960938 1.226562 -1.035156 1.1875 -1.109375 C 1.15625 -1.191406 1.140625 -1.269531 1.140625 -1.34375 C 1.140625 -1.5 1.191406 -1.644531 1.296875 -1.78125 C 1.410156 -1.914062 1.550781 -1.984375 1.71875 -1.984375 Z M 1.71875 -1.984375 "/></g></g></g></g></g><g transform="matrix(1, 0, 0, 1, 128, 151)"><g clip-path="url(#6580d2d3eb)"><g clip-path="url(#acb5b4f85c)"><g fill="#201f1f" fill-opacity="1"><g transform="translate(0.57112, 19.999527)"><g><path d="M 7.0625 0 C 6.894531 0 6.757812 -0.0546875 6.65625 -0.171875 C 6.550781 -0.285156 6.5 -0.421875 6.5 -0.578125 L 6.5 -11.875 L 6.75 -11.71875 L 1.6875 -5.03125 L 1.640625 -5.234375 L 9.03125 -5.234375 C 9.1875 -5.234375 9.316406 -5.179688 9.421875 -5.078125 C 9.535156 -4.972656 9.59375 -4.847656 9.59375 -4.703125 C 9.59375 -4.546875 9.535156 -4.414062 9.421875 -4.3125 C 9.316406 -4.207031 9.1875 -4.15625 9.03125 -4.15625 L 0.84375 -4.15625 C 0.6875 -4.15625 0.550781 -4.21875 0.4375 -4.34375 C 0.320312 -4.46875 0.265625 -4.601562 0.265625 -4.75 C 0.265625 -4.894531 0.3125 -5.023438 0.40625 -5.140625 L 6.609375 -13.25 C 6.671875 -13.332031 6.75 -13.390625 6.84375 -13.421875 C 6.9375 -13.453125 7.015625 -13.46875 7.078125 -13.46875 C 7.242188 -13.46875 7.378906 -13.410156 7.484375 -13.296875 C 7.597656 -13.179688 7.65625 -13.046875 7.65625 -12.890625 L 7.65625 -0.578125 C 7.65625 -0.421875 7.597656 -0.285156 7.484375 -0.171875 C 7.367188 -0.0546875 7.226562 0 7.0625 0 Z M 7.0625 0 "/></g></g></g></g></g></g><g transform="matrix(1, 0, 0, 1, 254, 151)"><g clip-path="url(#758679b8d2)"><g fill="#201f1f" fill-opacity="1"><g transform="translate(0.389122, 19.999527)"><g><path d="M 4.5 0.03125 C 3.976562 0.03125 3.453125 -0.0507812 2.921875 -0.21875 C 2.390625 -0.394531 1.914062 -0.65625 1.5 -1 C 1.425781 -1.0625 1.363281 -1.132812 1.3125 -1.21875 C 1.269531 -1.3125 1.25 -1.40625 1.25 -1.5 C 1.25 -1.625 1.300781 -1.75 1.40625 -1.875 C 1.507812 -2 1.644531 -2.0625 1.8125 -2.0625 C 1.945312 -2.0625 2.085938 -2.003906 2.234375 -1.890625 C 2.566406 -1.628906 2.925781 -1.425781 3.3125 -1.28125 C 3.707031 -1.144531 4.101562 -1.078125 4.5 -1.078125 C 5.257812 -1.078125 5.921875 -1.21875 6.484375 -1.5 C 7.046875 -1.789062 7.484375 -2.203125 7.796875 -2.734375 C 8.109375 -3.273438 8.265625 -3.894531 8.265625 -4.59375 C 8.265625 -5.25 8.117188 -5.816406 7.828125 -6.296875 C 7.546875 -6.785156 7.144531 -7.164062 6.625 -7.4375 C 6.113281 -7.71875 5.503906 -7.859375 4.796875 -7.859375 C 4.328125 -7.859375 3.90625 -7.785156 3.53125 -7.640625 C 3.15625 -7.503906 2.828125 -7.359375 2.546875 -7.203125 C 2.273438 -7.054688 2.054688 -6.984375 1.890625 -6.984375 C 1.734375 -6.984375 1.601562 -7.019531 1.5 -7.09375 C 1.40625 -7.175781 1.34375 -7.273438 1.3125 -7.390625 C 1.28125 -7.503906 1.28125 -7.625 1.3125 -7.75 L 2.140625 -12.890625 C 2.148438 -13.015625 2.207031 -13.125 2.3125 -13.21875 C 2.425781 -13.3125 2.566406 -13.359375 2.734375 -13.359375 L 8.53125 -13.359375 C 8.6875 -13.359375 8.816406 -13.300781 8.921875 -13.1875 C 9.035156 -13.082031 9.09375 -12.953125 9.09375 -12.796875 C 9.09375 -12.628906 9.035156 -12.488281 8.921875 -12.375 C 8.816406 -12.269531 8.6875 -12.21875 8.53125 -12.21875 L 3 -12.21875 L 3.171875 -12.390625 L 2.390625 -7.828125 L 2.046875 -8.078125 C 2.210938 -8.210938 2.453125 -8.34375 2.765625 -8.46875 C 3.078125 -8.59375 3.425781 -8.703125 3.8125 -8.796875 C 4.207031 -8.898438 4.625 -8.953125 5.0625 -8.953125 C 5.894531 -8.953125 6.640625 -8.769531 7.296875 -8.40625 C 7.953125 -8.039062 8.46875 -7.53125 8.84375 -6.875 C 9.21875 -6.226562 9.40625 -5.484375 9.40625 -4.640625 C 9.40625 -3.703125 9.203125 -2.882812 8.796875 -2.1875 C 8.398438 -1.488281 7.832031 -0.941406 7.09375 -0.546875 C 6.363281 -0.160156 5.5 0.03125 4.5 0.03125 Z M 4.5 0.03125 "/></g></g></g></g></g><g transform="matrix(1, 0, 0, 1, 380, 151)"><g clip-path="url(#527597f7c2)"><g fill="#201f1f" fill-opacity="1"><g transform="translate(0.207094, 19.999527)"><g><path d="M 5.53125 0.1875 C 4.78125 0.1875 4.125 0.0546875 3.5625 -0.203125 C 3.007812 -0.472656 2.550781 -0.835938 2.1875 -1.296875 C 1.820312 -1.753906 1.550781 -2.269531 1.375 -2.84375 C 1.195312 -3.425781 1.109375 -4.019531 1.109375 -4.625 C 1.109375 -5.238281 1.1875 -5.898438 1.34375 -6.609375 C 1.5 -7.328125 1.738281 -8.050781 2.0625 -8.78125 C 2.382812 -9.507812 2.78125 -10.203125 3.25 -10.859375 C 3.71875 -11.515625 4.257812 -12.097656 4.875 -12.609375 C 5.5 -13.128906 6.203125 -13.539062 6.984375 -13.84375 C 7.078125 -13.863281 7.15625 -13.875 7.21875 -13.875 C 7.382812 -13.875 7.523438 -13.828125 7.640625 -13.734375 C 7.765625 -13.648438 7.828125 -13.5 7.828125 -13.28125 C 7.828125 -13.15625 7.785156 -13.039062 7.703125 -12.9375 C 7.617188 -12.84375 7.507812 -12.769531 7.375 -12.71875 C 6.832031 -12.488281 6.296875 -12.160156 5.765625 -11.734375 C 5.242188 -11.316406 4.757812 -10.832031 4.3125 -10.28125 C 3.863281 -9.726562 3.476562 -9.132812 3.15625 -8.5 C 2.84375 -7.863281 2.625 -7.21875 2.5 -6.5625 L 2.078125 -6.3125 C 2.304688 -6.738281 2.601562 -7.113281 2.96875 -7.4375 C 3.332031 -7.769531 3.753906 -8.035156 4.234375 -8.234375 C 4.710938 -8.429688 5.226562 -8.53125 5.78125 -8.53125 C 6.351562 -8.53125 6.882812 -8.40625 7.375 -8.15625 C 7.863281 -7.914062 8.28125 -7.585938 8.625 -7.171875 C 8.976562 -6.753906 9.253906 -6.28125 9.453125 -5.75 C 9.660156 -5.226562 9.765625 -4.6875 9.765625 -4.125 C 9.765625 -3.363281 9.578125 -2.65625 9.203125 -2 C 8.835938 -1.34375 8.335938 -0.8125 7.703125 -0.40625 C 7.066406 -0.0078125 6.34375 0.1875 5.53125 0.1875 Z M 5.5 -0.921875 C 6.09375 -0.921875 6.617188 -1.054688 7.078125 -1.328125 C 7.546875 -1.597656 7.910156 -1.972656 8.171875 -2.453125 C 8.429688 -2.929688 8.5625 -3.488281 8.5625 -4.125 C 8.5625 -4.695312 8.445312 -5.226562 8.21875 -5.71875 C 8 -6.21875 7.664062 -6.625 7.21875 -6.9375 C 6.78125 -7.25 6.234375 -7.40625 5.578125 -7.40625 C 4.898438 -7.40625 4.3125 -7.25 3.8125 -6.9375 C 3.320312 -6.632812 2.945312 -6.226562 2.6875 -5.71875 C 2.425781 -5.21875 2.296875 -4.664062 2.296875 -4.0625 C 2.296875 -3.519531 2.421875 -3.007812 2.671875 -2.53125 C 2.929688 -2.050781 3.300781 -1.660156 3.78125 -1.359375 C 4.257812 -1.066406 4.832031 -0.921875 5.5 -0.921875 Z M 5.5 -0.921875 "/></g></g></g></g></g><g transform="matrix(1, 0, 0, 1, 505, 151)"><g clip-path="url(#f1181767b1)"><g fill="#201f1f" fill-opacity="1"><g transform="translate(1.024978, 19.999527)"><g><path d="M 3.421875 0.0625 C 3.273438 0.0625 3.132812 0.0078125 3 -0.09375 C 2.875 -0.195312 2.8125 -0.328125 2.8125 -0.484375 C 2.8125 -0.566406 2.832031 -0.660156 2.875 -0.765625 L 7.984375 -12.53125 L 8.203125 -12.265625 L 1.6875 -12.265625 C 1.539062 -12.265625 1.410156 -12.316406 1.296875 -12.421875 C 1.191406 -12.535156 1.140625 -12.671875 1.140625 -12.828125 C 1.140625 -12.992188 1.191406 -13.125 1.296875 -13.21875 C 1.410156 -13.320312 1.539062 -13.375 1.6875 -13.375 L 8.765625 -13.375 C 8.953125 -13.375 9.085938 -13.320312 9.171875 -13.21875 C 9.265625 -13.125 9.3125 -13 9.3125 -12.84375 C 9.3125 -12.738281 9.296875 -12.640625 9.265625 -12.546875 L 3.96875 -0.328125 C 3.925781 -0.210938 3.851562 -0.117188 3.75 -0.046875 C 3.644531 0.0234375 3.535156 0.0625 3.421875 0.0625 Z M 3.421875 0.0625 "/></g></g></g></g></g><g transform="matrix(1, 0, 0, 1, 631, 151)"><g clip-path="url(#a25b5fa0fa)"><g fill="#201f1f" fill-opacity="1"><g transform="translate(0.843039, 19.999527)"><g><path d="M 7 -6.78125 L 6.953125 -6.953125 C 7.390625 -6.785156 7.785156 -6.535156 8.140625 -6.203125 C 8.503906 -5.878906 8.796875 -5.492188 9.015625 -5.046875 C 9.234375 -4.609375 9.34375 -4.125 9.34375 -3.59375 C 9.34375 -2.90625 9.15625 -2.273438 8.78125 -1.703125 C 8.414062 -1.140625 7.921875 -0.691406 7.296875 -0.359375 C 6.671875 -0.0234375 5.972656 0.140625 5.203125 0.140625 C 4.410156 0.140625 3.703125 -0.0234375 3.078125 -0.359375 C 2.460938 -0.691406 1.972656 -1.140625 1.609375 -1.703125 C 1.242188 -2.273438 1.0625 -2.90625 1.0625 -3.59375 C 1.0625 -4.164062 1.171875 -4.671875 1.390625 -5.109375 C 1.617188 -5.554688 1.914062 -5.929688 2.28125 -6.234375 C 2.644531 -6.546875 3.023438 -6.785156 3.421875 -6.953125 L 3.375 -6.75 C 3.019531 -6.914062 2.691406 -7.144531 2.390625 -7.4375 C 2.085938 -7.726562 1.835938 -8.078125 1.640625 -8.484375 C 1.453125 -8.890625 1.359375 -9.332031 1.359375 -9.8125 C 1.359375 -10.507812 1.53125 -11.132812 1.875 -11.6875 C 2.21875 -12.238281 2.679688 -12.671875 3.265625 -12.984375 C 3.847656 -13.304688 4.492188 -13.46875 5.203125 -13.46875 C 5.898438 -13.46875 6.535156 -13.304688 7.109375 -12.984375 C 7.679688 -12.671875 8.132812 -12.238281 8.46875 -11.6875 C 8.8125 -11.132812 8.984375 -10.507812 8.984375 -9.8125 C 8.984375 -9.3125 8.882812 -8.863281 8.6875 -8.46875 C 8.5 -8.070312 8.25 -7.726562 7.9375 -7.4375 C 7.632812 -7.144531 7.320312 -6.925781 7 -6.78125 Z M 2.5625 -9.8125 C 2.5625 -9.300781 2.679688 -8.851562 2.921875 -8.46875 C 3.171875 -8.082031 3.492188 -7.78125 3.890625 -7.5625 C 4.285156 -7.34375 4.722656 -7.234375 5.203125 -7.234375 C 5.660156 -7.234375 6.085938 -7.34375 6.484375 -7.5625 C 6.878906 -7.78125 7.195312 -8.082031 7.4375 -8.46875 C 7.675781 -8.851562 7.796875 -9.300781 7.796875 -9.8125 C 7.796875 -10.570312 7.550781 -11.1875 7.0625 -11.65625 C 6.570312 -12.132812 5.953125 -12.375 5.203125 -12.375 C 4.410156 -12.375 3.769531 -12.132812 3.28125 -11.65625 C 2.800781 -11.1875 2.5625 -10.570312 2.5625 -9.8125 Z M 5.203125 -0.96875 C 6.066406 -0.96875 6.769531 -1.21875 7.3125 -1.71875 C 7.863281 -2.21875 8.140625 -2.84375 8.140625 -3.59375 C 8.140625 -4.113281 8.003906 -4.578125 7.734375 -4.984375 C 7.460938 -5.398438 7.101562 -5.722656 6.65625 -5.953125 C 6.207031 -6.179688 5.722656 -6.296875 5.203125 -6.296875 C 4.671875 -6.296875 4.179688 -6.179688 3.734375 -5.953125 C 3.285156 -5.722656 2.925781 -5.398438 2.65625 -4.984375 C 2.382812 -4.578125 2.25 -4.113281 2.25 -3.59375 C 2.25 -2.84375 2.519531 -2.21875 3.0625 -1.71875 C 3.601562 -1.21875 4.316406 -0.96875 5.203125 -0.96875 Z M 5.203125 -0.96875 "/></g></g></g></g></g><g transform="matrix(1, 0, 0, 1, 757, 151)"><g clip-path="url(#864a6ab205)"><g fill="#201f1f" fill-opacity="1"><g transform="translate(0.660923, 19.999527)"><g><path d="M 5.328125 -13.6875 C 6.085938 -13.6875 6.742188 -13.550781 7.296875 -13.28125 C 7.859375 -13.007812 8.316406 -12.644531 8.671875 -12.1875 C 9.035156 -11.738281 9.304688 -11.222656 9.484375 -10.640625 C 9.671875 -10.066406 9.765625 -9.476562 9.765625 -8.875 C 9.765625 -8.257812 9.679688 -7.601562 9.515625 -6.90625 C 9.359375 -6.207031 9.117188 -5.5 8.796875 -4.78125 C 8.484375 -4.070312 8.09375 -3.394531 7.625 -2.75 C 7.164062 -2.113281 6.617188 -1.535156 5.984375 -1.015625 C 5.359375 -0.503906 4.660156 -0.109375 3.890625 0.171875 C 3.785156 0.203125 3.703125 0.21875 3.640625 0.21875 C 3.484375 0.21875 3.34375 0.160156 3.21875 0.046875 C 3.101562 -0.0546875 3.046875 -0.203125 3.046875 -0.390625 C 3.046875 -0.515625 3.082031 -0.625 3.15625 -0.71875 C 3.226562 -0.8125 3.34375 -0.882812 3.5 -0.9375 C 4.226562 -1.25 4.929688 -1.707031 5.609375 -2.3125 C 6.296875 -2.925781 6.882812 -3.632812 7.375 -4.4375 C 7.875 -5.238281 8.207031 -6.070312 8.375 -6.9375 L 8.78125 -7.1875 C 8.5625 -6.769531 8.265625 -6.394531 7.890625 -6.0625 C 7.515625 -5.726562 7.09375 -5.46875 6.625 -5.28125 C 6.15625 -5.09375 5.644531 -5 5.09375 -5 C 4.28125 -5 3.570312 -5.203125 2.96875 -5.609375 C 2.375 -6.015625 1.914062 -6.550781 1.59375 -7.21875 C 1.269531 -7.882812 1.109375 -8.601562 1.109375 -9.375 C 1.109375 -10.132812 1.289062 -10.835938 1.65625 -11.484375 C 2.03125 -12.140625 2.535156 -12.671875 3.171875 -13.078125 C 3.804688 -13.484375 4.523438 -13.6875 5.328125 -13.6875 Z M 5.375 -12.5625 C 4.769531 -12.5625 4.234375 -12.425781 3.765625 -12.15625 C 3.304688 -11.894531 2.945312 -11.519531 2.6875 -11.03125 C 2.425781 -10.550781 2.296875 -10 2.296875 -9.375 C 2.296875 -8.8125 2.40625 -8.28125 2.625 -7.78125 C 2.851562 -7.28125 3.191406 -6.878906 3.640625 -6.578125 C 4.085938 -6.273438 4.632812 -6.125 5.28125 -6.125 C 5.96875 -6.125 6.554688 -6.273438 7.046875 -6.578125 C 7.535156 -6.878906 7.910156 -7.28125 8.171875 -7.78125 C 8.441406 -8.28125 8.578125 -8.832031 8.578125 -9.4375 C 8.578125 -9.988281 8.445312 -10.5 8.1875 -10.96875 C 7.9375 -11.445312 7.570312 -11.832031 7.09375 -12.125 C 6.625 -12.414062 6.050781 -12.5625 5.375 -12.5625 Z M 5.375 -12.5625 "/></g></g></g></g></g><g transform="matrix(1, 0, 0, 1, 2, 301)"><g clip-path="url(#c9d31de131)"><g fill="#201f1f" fill-opacity="1"><g transform="translate(0.753147, 19.756839)"><g><path d="M 4.34375 0 C 4.164062 0 4.019531 -0.0546875 3.90625 -0.171875 C 3.789062 -0.285156 3.734375 -0.421875 3.734375 -0.578125 L 3.734375 -12.171875 L 3.953125 -11.96875 L 1.390625 -10.265625 C 1.285156 -10.179688 1.175781 -10.140625 1.0625 -10.140625 C 0.90625 -10.140625 0.765625 -10.203125 0.640625 -10.328125 C 0.523438 -10.460938 0.46875 -10.609375 0.46875 -10.765625 C 0.46875 -10.960938 0.566406 -11.117188 0.765625 -11.234375 L 3.984375 -13.375 C 4.054688 -13.425781 4.132812 -13.457031 4.21875 -13.46875 C 4.300781 -13.488281 4.378906 -13.488281 4.453125 -13.46875 C 4.617188 -13.457031 4.742188 -13.394531 4.828125 -13.28125 C 4.921875 -13.175781 4.96875 -13.046875 4.96875 -12.890625 L 4.96875 -0.578125 C 4.96875 -0.421875 4.910156 -0.285156 4.796875 -0.171875 C 4.679688 -0.0546875 4.53125 0 4.34375 0 Z M 4.34375 0 "/></g></g></g><g fill="#201f1f" fill-opacity="1"><g transform="translate(7.873723, 19.756839)"><g><path d="M 5.71875 0.1875 C 4.6875 0.1875 3.820312 -0.117188 3.125 -0.734375 C 2.4375 -1.347656 1.921875 -2.175781 1.578125 -3.21875 C 1.234375 -4.269531 1.0625 -5.441406 1.0625 -6.734375 C 1.0625 -8.046875 1.234375 -9.222656 1.578125 -10.265625 C 1.921875 -11.316406 2.4375 -12.144531 3.125 -12.75 C 3.820312 -13.363281 4.6875 -13.671875 5.71875 -13.671875 C 6.769531 -13.671875 7.640625 -13.363281 8.328125 -12.75 C 9.015625 -12.144531 9.53125 -11.316406 9.875 -10.265625 C 10.21875 -9.222656 10.390625 -8.046875 10.390625 -6.734375 C 10.390625 -5.441406 10.21875 -4.269531 9.875 -3.21875 C 9.53125 -2.175781 9.015625 -1.347656 8.328125 -0.734375 C 7.640625 -0.117188 6.769531 0.1875 5.71875 0.1875 Z M 5.71875 -1 C 6.476562 -1 7.109375 -1.234375 7.609375 -1.703125 C 8.117188 -2.179688 8.503906 -2.851562 8.765625 -3.71875 C 9.023438 -4.59375 9.15625 -5.597656 9.15625 -6.734375 C 9.15625 -7.890625 9.023438 -8.898438 8.765625 -9.765625 C 8.503906 -10.628906 8.117188 -11.300781 7.609375 -11.78125 C 7.109375 -12.257812 6.476562 -12.5 5.71875 -12.5 C 4.96875 -12.5 4.335938 -12.257812 3.828125 -11.78125 C 3.328125 -11.300781 2.945312 -10.628906 2.6875 -9.765625 C 2.425781 -8.898438 2.296875 -7.890625 2.296875 -6.734375 C 2.296875 -5.597656 2.425781 -4.59375 2.6875 -3.71875 C 2.945312 -2.851562 3.328125 -2.179688 3.828125 -1.703125 C 4.335938 -1.234375 4.96875 -1 5.71875 -1 Z M 5.71875 -1 "/></g></g></g></g></g><g transform="matrix(1, 0, 0, 1, 128, 301)"><g clip-path="url(#eccf9077bb)"><g fill="#201f1f" fill-opacity="1"><g transform="translate(0.57112, 19.756839)"><g><path d="M 4.34375 0 C 4.164062 0 4.019531 -0.0546875 3.90625 -0.171875 C 3.789062 -0.285156 3.734375 -0.421875 3.734375 -0.578125 L 3.734375 -12.171875 L 3.953125 -11.96875 L 1.390625 -10.265625 C 1.285156 -10.179688 1.175781 -10.140625 1.0625 -10.140625 C 0.90625 -10.140625 0.765625 -10.203125 0.640625 -10.328125 C 0.523438 -10.460938 0.46875 -10.609375 0.46875 -10.765625 C 0.46875 -10.960938 0.566406 -11.117188 0.765625 -11.234375 L 3.984375 -13.375 C 4.054688 -13.425781 4.132812 -13.457031 4.21875 -13.46875 C 4.300781 -13.488281 4.378906 -13.488281 4.453125 -13.46875 C 4.617188 -13.457031 4.742188 -13.394531 4.828125 -13.28125 C 4.921875 -13.175781 4.96875 -13.046875 4.96875 -12.890625 L 4.96875 -0.578125 C 4.96875 -0.421875 4.910156 -0.285156 4.796875 -0.171875 C 4.679688 -0.0546875 4.53125 0 4.34375 0 Z M 4.34375 0 "/></g></g></g><g fill="#201f1f" fill-opacity="1"><g transform="translate(7.691697, 19.756839)"><g><path d="M 4.34375 0 C 4.164062 0 4.019531 -0.0546875 3.90625 -0.171875 C 3.789062 -0.285156 3.734375 -0.421875 3.734375 -0.578125 L 3.734375 -12.171875 L 3.953125 -11.96875 L 1.390625 -10.265625 C 1.285156 -10.179688 1.175781 -10.140625 1.0625 -10.140625 C 0.90625 -10.140625 0.765625 -10.203125 0.640625 -10.328125 C 0.523438 -10.460938 0.46875 -10.609375 0.46875 -10.765625 C 0.46875 -10.960938 0.566406 -11.117188 0.765625 -11.234375 L 3.984375 -13.375 C 4.054688 -13.425781 4.132812 -13.457031 4.21875 -13.46875 C 4.300781 -13.488281 4.378906 -13.488281 4.453125 -13.46875 C 4.617188 -13.457031 4.742188 -13.394531 4.828125 -13.28125 C 4.921875 -13.175781 4.96875 -13.046875 4.96875 -12.890625 L 4.96875 -0.578125 C 4.96875 -0.421875 4.910156 -0.285156 4.796875 -0.171875 C 4.679688 -0.0546875 4.53125 0 4.34375 0 Z M 4.34375 0 "/></g></g></g></g></g><g transform="matrix(1, 0, 0, 1, 254, 301)"><g clip-path="url(#faec71b708)"><g clip-path="url(#7418952a57)"><g fill="#201f1f" fill-opacity="1"><g transform="translate(0.389122, 19.756839)"><g><path d="M 4.34375 0 C 4.164062 0 4.019531 -0.0546875 3.90625 -0.171875 C 3.789062 -0.285156 3.734375 -0.421875 3.734375 -0.578125 L 3.734375 -12.171875 L 3.953125 -11.96875 L 1.390625 -10.265625 C 1.285156 -10.179688 1.175781 -10.140625 1.0625 -10.140625 C 0.90625 -10.140625 0.765625 -10.203125 0.640625 -10.328125 C 0.523438 -10.460938 0.46875 -10.609375 0.46875 -10.765625 C 0.46875 -10.960938 0.566406 -11.117188 0.765625 -11.234375 L 3.984375 -13.375 C 4.054688 -13.425781 4.132812 -13.457031 4.21875 -13.46875 C 4.300781 -13.488281 4.378906 -13.488281 4.453125 -13.46875 C 4.617188 -13.457031 4.742188 -13.394531 4.828125 -13.28125 C 4.921875 -13.175781 4.96875 -13.046875 4.96875 -12.890625 L 4.96875 -0.578125 C 4.96875 -0.421875 4.910156 -0.285156 4.796875 -0.171875 C 4.679688 -0.0546875 4.53125 0 4.34375 0 Z M 4.34375 0 "/></g></g></g></g><g fill="#201f1f" fill-opacity="1"><g transform="translate(7.509698, 19.756839)"><g><path d="M 9.125 -1.109375 C 9.28125 -1.109375 9.410156 -1.054688 9.515625 -0.953125 C 9.628906 -0.847656 9.6875 -0.71875 9.6875 -0.5625 C 9.6875 -0.394531 9.628906 -0.257812 9.515625 -0.15625 C 9.410156 -0.0507812 9.28125 0 9.125 0 L 1.90625 0 C 1.738281 0 1.59375 -0.046875 1.46875 -0.140625 C 1.351562 -0.234375 1.296875 -0.378906 1.296875 -0.578125 C 1.296875 -0.722656 1.34375 -0.859375 1.4375 -0.984375 L 5.890625 -5.890625 C 6.597656 -6.660156 7.128906 -7.367188 7.484375 -8.015625 C 7.835938 -8.660156 8.015625 -9.242188 8.015625 -9.765625 C 8.015625 -10.609375 7.753906 -11.285156 7.234375 -11.796875 C 6.722656 -12.304688 6.03125 -12.5625 5.15625 -12.5625 C 4.757812 -12.5625 4.363281 -12.476562 3.96875 -12.3125 C 3.582031 -12.144531 3.238281 -11.925781 2.9375 -11.65625 C 2.632812 -11.394531 2.398438 -11.085938 2.234375 -10.734375 C 2.160156 -10.609375 2.082031 -10.519531 2 -10.46875 C 1.914062 -10.414062 1.820312 -10.390625 1.71875 -10.390625 C 1.5625 -10.390625 1.425781 -10.4375 1.3125 -10.53125 C 1.195312 -10.632812 1.140625 -10.753906 1.140625 -10.890625 C 1.140625 -10.984375 1.160156 -11.070312 1.203125 -11.15625 C 1.242188 -11.25 1.3125 -11.351562 1.40625 -11.46875 C 1.632812 -11.863281 1.953125 -12.226562 2.359375 -12.5625 C 2.773438 -12.90625 3.234375 -13.175781 3.734375 -13.375 C 4.242188 -13.570312 4.742188 -13.671875 5.234375 -13.671875 C 6.054688 -13.671875 6.765625 -13.507812 7.359375 -13.1875 C 7.960938 -12.875 8.425781 -12.429688 8.75 -11.859375 C 9.070312 -11.296875 9.234375 -10.625 9.234375 -9.84375 C 9.234375 -9.164062 9.023438 -8.429688 8.609375 -7.640625 C 8.191406 -6.859375 7.570312 -6.007812 6.75 -5.09375 L 3 -0.890625 L 2.8125 -1.109375 Z M 9.125 -1.109375 "/></g></g></g></g></g><g transform="matrix(1, 0, 0, 1, 380, 301)"><g clip-path="url(#b9cb6e6992)"><g clip-path="url(#79f5a6bec3)"><g fill="#201f1f" fill-opacity="1"><g transform="translate(0.207094, 19.756839)"><g><path d="M 4.34375 0 C 4.164062 0 4.019531 -0.0546875 3.90625 -0.171875 C 3.789062 -0.285156 3.734375 -0.421875 3.734375 -0.578125 L 3.734375 -12.171875 L 3.953125 -11.96875 L 1.390625 -10.265625 C 1.285156 -10.179688 1.175781 -10.140625 1.0625 -10.140625 C 0.90625 -10.140625 0.765625 -10.203125 0.640625 -10.328125 C 0.523438 -10.460938 0.46875 -10.609375 0.46875 -10.765625 C 0.46875 -10.960938 0.566406 -11.117188 0.765625 -11.234375 L 3.984375 -13.375 C 4.054688 -13.425781 4.132812 -13.457031 4.21875 -13.46875 C 4.300781 -13.488281 4.378906 -13.488281 4.453125 -13.46875 C 4.617188 -13.457031 4.742188 -13.394531 4.828125 -13.28125 C 4.921875 -13.175781 4.96875 -13.046875 4.96875 -12.890625 L 4.96875 -0.578125 C 4.96875 -0.421875 4.910156 -0.285156 4.796875 -0.171875 C 4.679688 -0.0546875 4.53125 0 4.34375 0 Z M 4.34375 0 "/></g></g></g></g><g fill="#201f1f" fill-opacity="1"><g transform="translate(7.327671, 19.756839)"><g><path d="M 1.71875 -1.984375 C 1.78125 -1.984375 1.84375 -1.96875 1.90625 -1.9375 C 1.976562 -1.914062 2.066406 -1.859375 2.171875 -1.765625 C 2.441406 -1.484375 2.765625 -1.269531 3.140625 -1.125 C 3.515625 -0.976562 3.9375 -0.90625 4.40625 -0.90625 C 5.03125 -0.90625 5.601562 -1.046875 6.125 -1.328125 C 6.644531 -1.609375 7.054688 -2 7.359375 -2.5 C 7.671875 -3.007812 7.828125 -3.59375 7.828125 -4.25 C 7.828125 -5 7.664062 -5.597656 7.34375 -6.046875 C 7.019531 -6.503906 6.601562 -6.84375 6.09375 -7.0625 C 5.582031 -7.289062 5.066406 -7.40625 4.546875 -7.40625 C 4.398438 -7.40625 4.257812 -7.394531 4.125 -7.375 C 3.988281 -7.363281 3.863281 -7.34375 3.75 -7.3125 C 3.632812 -7.289062 3.546875 -7.28125 3.484375 -7.28125 C 3.316406 -7.28125 3.1875 -7.332031 3.09375 -7.4375 C 3.007812 -7.550781 2.96875 -7.691406 2.96875 -7.859375 C 2.96875 -7.941406 2.984375 -8.019531 3.015625 -8.09375 C 3.054688 -8.164062 3.109375 -8.242188 3.171875 -8.328125 L 7.078125 -12.59375 L 7.3125 -12.28125 L 1.484375 -12.28125 C 1.328125 -12.28125 1.191406 -12.332031 1.078125 -12.4375 C 0.972656 -12.550781 0.921875 -12.6875 0.921875 -12.84375 C 0.921875 -13 0.972656 -13.125 1.078125 -13.21875 C 1.191406 -13.320312 1.328125 -13.375 1.484375 -13.375 L 7.953125 -13.375 C 8.171875 -13.375 8.320312 -13.304688 8.40625 -13.171875 C 8.5 -13.035156 8.546875 -12.90625 8.546875 -12.78125 C 8.546875 -12.707031 8.523438 -12.632812 8.484375 -12.5625 C 8.453125 -12.488281 8.398438 -12.414062 8.328125 -12.34375 L 4.421875 -8.078125 L 4 -8.328125 C 4.039062 -8.367188 4.171875 -8.410156 4.390625 -8.453125 C 4.617188 -8.503906 4.796875 -8.53125 4.921875 -8.53125 C 5.628906 -8.53125 6.296875 -8.363281 6.921875 -8.03125 C 7.546875 -7.695312 8.050781 -7.21875 8.4375 -6.59375 C 8.832031 -5.96875 9.03125 -5.203125 9.03125 -4.296875 C 9.03125 -3.390625 8.816406 -2.597656 8.390625 -1.921875 C 7.960938 -1.253906 7.390625 -0.734375 6.671875 -0.359375 C 5.960938 0.00390625 5.171875 0.1875 4.296875 0.1875 C 3.765625 0.1875 3.242188 0.0976562 2.734375 -0.078125 C 2.222656 -0.253906 1.773438 -0.523438 1.390625 -0.890625 C 1.296875 -0.960938 1.226562 -1.035156 1.1875 -1.109375 C 1.15625 -1.191406 1.140625 -1.269531 1.140625 -1.34375 C 1.140625 -1.5 1.191406 -1.644531 1.296875 -1.78125 C 1.410156 -1.914062 1.550781 -1.984375 1.71875 -1.984375 Z M 1.71875 -1.984375 "/></g></g></g></g></g><g transform="matrix(1, 0, 0, 1, 505, 301)"><g clip-path="url(#69af5fddb6)"><g fill="#201f1f" fill-opacity="1"><g transform="translate(1.024978, 19.756839)"><g><path d="M 4.34375 0 C 4.164062 0 4.019531 -0.0546875 3.90625 -0.171875 C 3.789062 -0.285156 3.734375 -0.421875 3.734375 -0.578125 L 3.734375 -12.171875 L 3.953125 -11.96875 L 1.390625 -10.265625 C 1.285156 -10.179688 1.175781 -10.140625 1.0625 -10.140625 C 0.90625 -10.140625 0.765625 -10.203125 0.640625 -10.328125 C 0.523438 -10.460938 0.46875 -10.609375 0.46875 -10.765625 C 0.46875 -10.960938 0.566406 -11.117188 0.765625 -11.234375 L 3.984375 -13.375 C 4.054688 -13.425781 4.132812 -13.457031 4.21875 -13.46875 C 4.300781 -13.488281 4.378906 -13.488281 4.453125 -13.46875 C 4.617188 -13.457031 4.742188 -13.394531 4.828125 -13.28125 C 4.921875 -13.175781 4.96875 -13.046875 4.96875 -12.890625 L 4.96875 -0.578125 C 4.96875 -0.421875 4.910156 -0.285156 4.796875 -0.171875 C 4.679688 -0.0546875 4.53125 0 4.34375 0 Z M 4.34375 0 "/></g></g></g><g fill="#201f1f" fill-opacity="1"><g transform="translate(8.145555, 19.756839)"><g><path d="M 7.0625 0 C 6.894531 0 6.757812 -0.0546875 6.65625 -0.171875 C 6.550781 -0.285156 6.5 -0.421875 6.5 -0.578125 L 6.5 -11.875 L 6.75 -11.71875 L 1.6875 -5.03125 L 1.640625 -5.234375 L 9.03125 -5.234375 C 9.1875 -5.234375 9.316406 -5.179688 9.421875 -5.078125 C 9.535156 -4.972656 9.59375 -4.847656 9.59375 -4.703125 C 9.59375 -4.546875 9.535156 -4.414062 9.421875 -4.3125 C 9.316406 -4.207031 9.1875 -4.15625 9.03125 -4.15625 L 0.84375 -4.15625 C 0.6875 -4.15625 0.550781 -4.21875 0.4375 -4.34375 C 0.320312 -4.46875 0.265625 -4.601562 0.265625 -4.75 C 0.265625 -4.894531 0.3125 -5.023438 0.40625 -5.140625 L 6.609375 -13.25 C 6.671875 -13.332031 6.75 -13.390625 6.84375 -13.421875 C 6.9375 -13.453125 7.015625 -13.46875 7.078125 -13.46875 C 7.242188 -13.46875 7.378906 -13.410156 7.484375 -13.296875 C 7.597656 -13.179688 7.65625 -13.046875 7.65625 -12.890625 L 7.65625 -0.578125 C 7.65625 -0.421875 7.597656 -0.285156 7.484375 -0.171875 C 7.367188 -0.0546875 7.226562 0 7.0625 0 Z M 7.0625 0 "/></g></g></g></g></g><g transform="matrix(1, 0, 0, 1, 631, 301)"><g clip-path="url(#9968e1efac)"><g fill="#201f1f" fill-opacity="1"><g transform="translate(0.843039, 19.756839)"><g><path d="M 4.34375 0 C 4.164062 0 4.019531 -0.0546875 3.90625 -0.171875 C 3.789062 -0.285156 3.734375 -0.421875 3.734375 -0.578125 L 3.734375 -12.171875 L 3.953125 -11.96875 L 1.390625 -10.265625 C 1.285156 -10.179688 1.175781 -10.140625 1.0625 -10.140625 C 0.90625 -10.140625 0.765625 -10.203125 0.640625 -10.328125 C 0.523438 -10.460938 0.46875 -10.609375 0.46875 -10.765625 C 0.46875 -10.960938 0.566406 -11.117188 0.765625 -11.234375 L 3.984375 -13.375 C 4.054688 -13.425781 4.132812 -13.457031 4.21875 -13.46875 C 4.300781 -13.488281 4.378906 -13.488281 4.453125 -13.46875 C 4.617188 -13.457031 4.742188 -13.394531 4.828125 -13.28125 C 4.921875 -13.175781 4.96875 -13.046875 4.96875 -12.890625 L 4.96875 -0.578125 C 4.96875 -0.421875 4.910156 -0.285156 4.796875 -0.171875 C 4.679688 -0.0546875 4.53125 0 4.34375 0 Z M 4.34375 0 "/></g></g></g><g fill="#201f1f" fill-opacity="1"><g transform="translate(7.963615, 19.756839)"><g><path d="M 4.5 0.03125 C 3.976562 0.03125 3.453125 -0.0507812 2.921875 -0.21875 C 2.390625 -0.394531 1.914062 -0.65625 1.5 -1 C 1.425781 -1.0625 1.363281 -1.132812 1.3125 -1.21875 C 1.269531 -1.3125 1.25 -1.40625 1.25 -1.5 C 1.25 -1.625 1.300781 -1.75 1.40625 -1.875 C 1.507812 -2 1.644531 -2.0625 1.8125 -2.0625 C 1.945312 -2.0625 2.085938 -2.003906 2.234375 -1.890625 C 2.566406 -1.628906 2.925781 -1.425781 3.3125 -1.28125 C 3.707031 -1.144531 4.101562 -1.078125 4.5 -1.078125 C 5.257812 -1.078125 5.921875 -1.21875 6.484375 -1.5 C 7.046875 -1.789062 7.484375 -2.203125 7.796875 -2.734375 C 8.109375 -3.273438 8.265625 -3.894531 8.265625 -4.59375 C 8.265625 -5.25 8.117188 -5.816406 7.828125 -6.296875 C 7.546875 -6.785156 7.144531 -7.164062 6.625 -7.4375 C 6.113281 -7.71875 5.503906 -7.859375 4.796875 -7.859375 C 4.328125 -7.859375 3.90625 -7.785156 3.53125 -7.640625 C 3.15625 -7.503906 2.828125 -7.359375 2.546875 -7.203125 C 2.273438 -7.054688 2.054688 -6.984375 1.890625 -6.984375 C 1.734375 -6.984375 1.601562 -7.019531 1.5 -7.09375 C 1.40625 -7.175781 1.34375 -7.273438 1.3125 -7.390625 C 1.28125 -7.503906 1.28125 -7.625 1.3125 -7.75 L 2.140625 -12.890625 C 2.148438 -13.015625 2.207031 -13.125 2.3125 -13.21875 C 2.425781 -13.3125 2.566406 -13.359375 2.734375 -13.359375 L 8.53125 -13.359375 C 8.6875 -13.359375 8.816406 -13.300781 8.921875 -13.1875 C 9.035156 -13.082031 9.09375 -12.953125 9.09375 -12.796875 C 9.09375 -12.628906 9.035156 -12.488281 8.921875 -12.375 C 8.816406 -12.269531 8.6875 -12.21875 8.53125 -12.21875 L 3 -12.21875 L 3.171875 -12.390625 L 2.390625 -7.828125 L 2.046875 -8.078125 C 2.210938 -8.210938 2.453125 -8.34375 2.765625 -8.46875 C 3.078125 -8.59375 3.425781 -8.703125 3.8125 -8.796875 C 4.207031 -8.898438 4.625 -8.953125 5.0625 -8.953125 C 5.894531 -8.953125 6.640625 -8.769531 7.296875 -8.40625 C 7.953125 -8.039062 8.46875 -7.53125 8.84375 -6.875 C 9.21875 -6.226562 9.40625 -5.484375 9.40625 -4.640625 C 9.40625 -3.703125 9.203125 -2.882812 8.796875 -2.1875 C 8.398438 -1.488281 7.832031 -0.941406 7.09375 -0.546875 C 6.363281 -0.160156 5.5 0.03125 4.5 0.03125 Z M 4.5 0.03125 "/></g></g></g></g></g><g transform="matrix(1, 0, 0, 1, 757, 301)"><g clip-path="url(#7d457c8cae)"><g fill="#201f1f" fill-opacity="1"><g transform="translate(0.660923, 19.756839)"><g><path d="M 4.34375 0 C 4.164062 0 4.019531 -0.0546875 3.90625 -0.171875 C 3.789062 -0.285156 3.734375 -0.421875 3.734375 -0.578125 L 3.734375 -12.171875 L 3.953125 -11.96875 L 1.390625 -10.265625 C 1.285156 -10.179688 1.175781 -10.140625 1.0625 -10.140625 C 0.90625 -10.140625 0.765625 -10.203125 0.640625 -10.328125 C 0.523438 -10.460938 0.46875 -10.609375 0.46875 -10.765625 C 0.46875 -10.960938 0.566406 -11.117188 0.765625 -11.234375 L 3.984375 -13.375 C 4.054688 -13.425781 4.132812 -13.457031 4.21875 -13.46875 C 4.300781 -13.488281 4.378906 -13.488281 4.453125 -13.46875 C 4.617188 -13.457031 4.742188 -13.394531 4.828125 -13.28125 C 4.921875 -13.175781 4.96875 -13.046875 4.96875 -12.890625 L 4.96875 -0.578125 C 4.96875 -0.421875 4.910156 -0.285156 4.796875 -0.171875 C 4.679688 -0.0546875 4.53125 0 4.34375 0 Z M 4.34375 0 "/></g></g></g><g fill="#201f1f" fill-opacity="1"><g transform="translate(7.7815, 19.756839)"><g><path d="M 5.53125 0.1875 C 4.78125 0.1875 4.125 0.0546875 3.5625 -0.203125 C 3.007812 -0.472656 2.550781 -0.835938 2.1875 -1.296875 C 1.820312 -1.753906 1.550781 -2.269531 1.375 -2.84375 C 1.195312 -3.425781 1.109375 -4.019531 1.109375 -4.625 C 1.109375 -5.238281 1.1875 -5.898438 1.34375 -6.609375 C 1.5 -7.328125 1.738281 -8.050781 2.0625 -8.78125 C 2.382812 -9.507812 2.78125 -10.203125 3.25 -10.859375 C 3.71875 -11.515625 4.257812 -12.097656 4.875 -12.609375 C 5.5 -13.128906 6.203125 -13.539062 6.984375 -13.84375 C 7.078125 -13.863281 7.15625 -13.875 7.21875 -13.875 C 7.382812 -13.875 7.523438 -13.828125 7.640625 -13.734375 C 7.765625 -13.648438 7.828125 -13.5 7.828125 -13.28125 C 7.828125 -13.15625 7.785156 -13.039062 7.703125 -12.9375 C 7.617188 -12.84375 7.507812 -12.769531 7.375 -12.71875 C 6.832031 -12.488281 6.296875 -12.160156 5.765625 -11.734375 C 5.242188 -11.316406 4.757812 -10.832031 4.3125 -10.28125 C 3.863281 -9.726562 3.476562 -9.132812 3.15625 -8.5 C 2.84375 -7.863281 2.625 -7.21875 2.5 -6.5625 L 2.078125 -6.3125 C 2.304688 -6.738281 2.601562 -7.113281 2.96875 -7.4375 C 3.332031 -7.769531 3.753906 -8.035156 4.234375 -8.234375 C 4.710938 -8.429688 5.226562 -8.53125 5.78125 -8.53125 C 6.351562 -8.53125 6.882812 -8.40625 7.375 -8.15625 C 7.863281 -7.914062 8.28125 -7.585938 8.625 -7.171875 C 8.976562 -6.753906 9.253906 -6.28125 9.453125 -5.75 C 9.660156 -5.226562 9.765625 -4.6875 9.765625 -4.125 C 9.765625 -3.363281 9.578125 -2.65625 9.203125 -2 C 8.835938 -1.34375 8.335938 -0.8125 7.703125 -0.40625 C 7.066406 -0.0078125 6.34375 0.1875 5.53125 0.1875 Z M 5.5 -0.921875 C 6.09375 -0.921875 6.617188 -1.054688 7.078125 -1.328125 C 7.546875 -1.597656 7.910156 -1.972656 8.171875 -2.453125 C 8.429688 -2.929688 8.5625 -3.488281 8.5625 -4.125 C 8.5625 -4.695312 8.445312 -5.226562 8.21875 -5.71875 C 8 -6.21875 7.664062 -6.625 7.21875 -6.9375 C 6.78125 -7.25 6.234375 -7.40625 5.578125 -7.40625 C 4.898438 -7.40625 4.3125 -7.25 3.8125 -6.9375 C 3.320312 -6.632812 2.945312 -6.226562 2.6875 -5.71875 C 2.425781 -5.21875 2.296875 -4.664062 2.296875 -4.0625 C 2.296875 -3.519531 2.421875 -3.007812 2.671875 -2.53125 C 2.929688 -2.050781 3.300781 -1.660156 3.78125 -1.359375 C 4.257812 -1.066406 4.832031 -0.921875 5.5 -0.921875 Z M 5.5 -0.921875 "/></g></g></g></g></g><g clip-path="url(#8c517c3bb0)"><g transform="matrix(1, 0, 0, 1, 2, 450)"><g clip-path="url(#416fd4c8a6)"><g fill="#201f1f" fill-opacity="1"><g transform="translate(0.753147, 20.514166)"><g><path d="M 4.34375 0 C 4.164062 0 4.019531 -0.0546875 3.90625 -0.171875 C 3.789062 -0.285156 3.734375 -0.421875 3.734375 -0.578125 L 3.734375 -12.171875 L 3.953125 -11.96875 L 1.390625 -10.265625 C 1.285156 -10.179688 1.175781 -10.140625 1.0625 -10.140625 C 0.90625 -10.140625 0.765625 -10.203125 0.640625 -10.328125 C 0.523438 -10.460938 0.46875 -10.609375 0.46875 -10.765625 C 0.46875 -10.960938 0.566406 -11.117188 0.765625 -11.234375 L 3.984375 -13.375 C 4.054688 -13.425781 4.132812 -13.457031 4.21875 -13.46875 C 4.300781 -13.488281 4.378906 -13.488281 4.453125 -13.46875 C 4.617188 -13.457031 4.742188 -13.394531 4.828125 -13.28125 C 4.921875 -13.175781 4.96875 -13.046875 4.96875 -12.890625 L 4.96875 -0.578125 C 4.96875 -0.421875 4.910156 -0.285156 4.796875 -0.171875 C 4.679688 -0.0546875 4.53125 0 4.34375 0 Z M 4.34375 0 "/></g></g></g><g fill="#201f1f" fill-opacity="1"><g transform="translate(7.873723, 20.514166)"><g><path d="M 3.421875 0.0625 C 3.273438 0.0625 3.132812 0.0078125 3 -0.09375 C 2.875 -0.195312 2.8125 -0.328125 2.8125 -0.484375 C 2.8125 -0.566406 2.832031 -0.660156 2.875 -0.765625 L 7.984375 -12.53125 L 8.203125 -12.265625 L 1.6875 -12.265625 C 1.539062 -12.265625 1.410156 -12.316406 1.296875 -12.421875 C 1.191406 -12.535156 1.140625 -12.671875 1.140625 -12.828125 C 1.140625 -12.992188 1.191406 -13.125 1.296875 -13.21875 C 1.410156 -13.320312 1.539062 -13.375 1.6875 -13.375 L 8.765625 -13.375 C 8.953125 -13.375 9.085938 -13.320312 9.171875 -13.21875 C 9.265625 -13.125 9.3125 -13 9.3125 -12.84375 C 9.3125 -12.738281 9.296875 -12.640625 9.265625 -12.546875 L 3.96875 -0.328125 C 3.925781 -0.210938 3.851562 -0.117188 3.75 -0.046875 C 3.644531 0.0234375 3.535156 0.0625 3.421875 0.0625 Z M 3.421875 0.0625 "/></g></g></g></g></g></g><g clip-path="url(#b11e0dec10)"><g transform="matrix(1, 0, 0, 1, 128, 450)"><g clip-path="url(#87ffbf3f79)"><g fill="#201f1f" fill-opacity="1"><g transform="translate(0.57112, 20.514166)"><g><path d="M 4.34375 0 C 4.164062 0 4.019531 -0.0546875 3.90625 -0.171875 C 3.789062 -0.285156 3.734375 -0.421875 3.734375 -0.578125 L 3.734375 -12.171875 L 3.953125 -11.96875 L 1.390625 -10.265625 C 1.285156 -10.179688 1.175781 -10.140625 1.0625 -10.140625 C 0.90625 -10.140625 0.765625 -10.203125 0.640625 -10.328125 C 0.523438 -10.460938 0.46875 -10.609375 0.46875 -10.765625 C 0.46875 -10.960938 0.566406 -11.117188 0.765625 -11.234375 L 3.984375 -13.375 C 4.054688 -13.425781 4.132812 -13.457031 4.21875 -13.46875 C 4.300781 -13.488281 4.378906 -13.488281 4.453125 -13.46875 C 4.617188 -13.457031 4.742188 -13.394531 4.828125 -13.28125 C 4.921875 -13.175781 4.96875 -13.046875 4.96875 -12.890625 L 4.96875 -0.578125 C 4.96875 -0.421875 4.910156 -0.285156 4.796875 -0.171875 C 4.679688 -0.0546875 4.53125 0 4.34375 0 Z M 4.34375 0 "/></g></g></g><g fill="#201f1f" fill-opacity="1"><g transform="translate(7.691697, 20.514166)"><g><path d="M 7 -6.78125 L 6.953125 -6.953125 C 7.390625 -6.785156 7.785156 -6.535156 8.140625 -6.203125 C 8.503906 -5.878906 8.796875 -5.492188 9.015625 -5.046875 C 9.234375 -4.609375 9.34375 -4.125 9.34375 -3.59375 C 9.34375 -2.90625 9.15625 -2.273438 8.78125 -1.703125 C 8.414062 -1.140625 7.921875 -0.691406 7.296875 -0.359375 C 6.671875 -0.0234375 5.972656 0.140625 5.203125 0.140625 C 4.410156 0.140625 3.703125 -0.0234375 3.078125 -0.359375 C 2.460938 -0.691406 1.972656 -1.140625 1.609375 -1.703125 C 1.242188 -2.273438 1.0625 -2.90625 1.0625 -3.59375 C 1.0625 -4.164062 1.171875 -4.671875 1.390625 -5.109375 C 1.617188 -5.554688 1.914062 -5.929688 2.28125 -6.234375 C 2.644531 -6.546875 3.023438 -6.785156 3.421875 -6.953125 L 3.375 -6.75 C 3.019531 -6.914062 2.691406 -7.144531 2.390625 -7.4375 C 2.085938 -7.726562 1.835938 -8.078125 1.640625 -8.484375 C 1.453125 -8.890625 1.359375 -9.332031 1.359375 -9.8125 C 1.359375 -10.507812 1.53125 -11.132812 1.875 -11.6875 C 2.21875 -12.238281 2.679688 -12.671875 3.265625 -12.984375 C 3.847656 -13.304688 4.492188 -13.46875 5.203125 -13.46875 C 5.898438 -13.46875 6.535156 -13.304688 7.109375 -12.984375 C 7.679688 -12.671875 8.132812 -12.238281 8.46875 -11.6875 C 8.8125 -11.132812 8.984375 -10.507812 8.984375 -9.8125 C 8.984375 -9.3125 8.882812 -8.863281 8.6875 -8.46875 C 8.5 -8.070312 8.25 -7.726562 7.9375 -7.4375 C 7.632812 -7.144531 7.320312 -6.925781 7 -6.78125 Z M 2.5625 -9.8125 C 2.5625 -9.300781 2.679688 -8.851562 2.921875 -8.46875 C 3.171875 -8.082031 3.492188 -7.78125 3.890625 -7.5625 C 4.285156 -7.34375 4.722656 -7.234375 5.203125 -7.234375 C 5.660156 -7.234375 6.085938 -7.34375 6.484375 -7.5625 C 6.878906 -7.78125 7.195312 -8.082031 7.4375 -8.46875 C 7.675781 -8.851562 7.796875 -9.300781 7.796875 -9.8125 C 7.796875 -10.570312 7.550781 -11.1875 7.0625 -11.65625 C 6.570312 -12.132812 5.953125 -12.375 5.203125 -12.375 C 4.410156 -12.375 3.769531 -12.132812 3.28125 -11.65625 C 2.800781 -11.1875 2.5625 -10.570312 2.5625 -9.8125 Z M 5.203125 -0.96875 C 6.066406 -0.96875 6.769531 -1.21875 7.3125 -1.71875 C 7.863281 -2.21875 8.140625 -2.84375 8.140625 -3.59375 C 8.140625 -4.113281 8.003906 -4.578125 7.734375 -4.984375 C 7.460938 -5.398438 7.101562 -5.722656 6.65625 -5.953125 C 6.207031 -6.179688 5.722656 -6.296875 5.203125 -6.296875 C 4.671875 -6.296875 4.179688 -6.179688 3.734375 -5.953125 C 3.285156 -5.722656 2.925781 -5.398438 2.65625 -4.984375 C 2.382812 -4.578125 2.25 -4.113281 2.25 -3.59375 C 2.25 -2.84375 2.519531 -2.21875 3.0625 -1.71875 C 3.601562 -1.21875 4.316406 -0.96875 5.203125 -0.96875 Z M 5.203125 -0.96875 "/></g></g></g></g></g></g><g clip-path="url(#8d8eaec3fc)"><g transform="matrix(1, 0, 0, 1, 254, 450)"><g clip-path="url(#4e65b686e3)"><g clip-path="url(#969865b4ae)"><g fill="#201f1f" fill-opacity="1"><g transform="translate(0.389122, 20.514166)"><g><path d="M 4.34375 0 C 4.164062 0 4.019531 -0.0546875 3.90625 -0.171875 C 3.789062 -0.285156 3.734375 -0.421875 3.734375 -0.578125 L 3.734375 -12.171875 L 3.953125 -11.96875 L 1.390625 -10.265625 C 1.285156 -10.179688 1.175781 -10.140625 1.0625 -10.140625 C 0.90625 -10.140625 0.765625 -10.203125 0.640625 -10.328125 C 0.523438 -10.460938 0.46875 -10.609375 0.46875 -10.765625 C 0.46875 -10.960938 0.566406 -11.117188 0.765625 -11.234375 L 3.984375 -13.375 C 4.054688 -13.425781 4.132812 -13.457031 4.21875 -13.46875 C 4.300781 -13.488281 4.378906 -13.488281 4.453125 -13.46875 C 4.617188 -13.457031 4.742188 -13.394531 4.828125 -13.28125 C 4.921875 -13.175781 4.96875 -13.046875 4.96875 -12.890625 L 4.96875 -0.578125 C 4.96875 -0.421875 4.910156 -0.285156 4.796875 -0.171875 C 4.679688 -0.0546875 4.53125 0 4.34375 0 Z M 4.34375 0 "/></g></g></g></g><g fill="#201f1f" fill-opacity="1"><g transform="translate(7.509698, 20.514166)"><g><path d="M 5.328125 -13.6875 C 6.085938 -13.6875 6.742188 -13.550781 7.296875 -13.28125 C 7.859375 -13.007812 8.316406 -12.644531 8.671875 -12.1875 C 9.035156 -11.738281 9.304688 -11.222656 9.484375 -10.640625 C 9.671875 -10.066406 9.765625 -9.476562 9.765625 -8.875 C 9.765625 -8.257812 9.679688 -7.601562 9.515625 -6.90625 C 9.359375 -6.207031 9.117188 -5.5 8.796875 -4.78125 C 8.484375 -4.070312 8.09375 -3.394531 7.625 -2.75 C 7.164062 -2.113281 6.617188 -1.535156 5.984375 -1.015625 C 5.359375 -0.503906 4.660156 -0.109375 3.890625 0.171875 C 3.785156 0.203125 3.703125 0.21875 3.640625 0.21875 C 3.484375 0.21875 3.34375 0.160156 3.21875 0.046875 C 3.101562 -0.0546875 3.046875 -0.203125 3.046875 -0.390625 C 3.046875 -0.515625 3.082031 -0.625 3.15625 -0.71875 C 3.226562 -0.8125 3.34375 -0.882812 3.5 -0.9375 C 4.226562 -1.25 4.929688 -1.707031 5.609375 -2.3125 C 6.296875 -2.925781 6.882812 -3.632812 7.375 -4.4375 C 7.875 -5.238281 8.207031 -6.070312 8.375 -6.9375 L 8.78125 -7.1875 C 8.5625 -6.769531 8.265625 -6.394531 7.890625 -6.0625 C 7.515625 -5.726562 7.09375 -5.46875 6.625 -5.28125 C 6.15625 -5.09375 5.644531 -5 5.09375 -5 C 4.28125 -5 3.570312 -5.203125 2.96875 -5.609375 C 2.375 -6.015625 1.914062 -6.550781 1.59375 -7.21875 C 1.269531 -7.882812 1.109375 -8.601562 1.109375 -9.375 C 1.109375 -10.132812 1.289062 -10.835938 1.65625 -11.484375 C 2.03125 -12.140625 2.535156 -12.671875 3.171875 -13.078125 C 3.804688 -13.484375 4.523438 -13.6875 5.328125 -13.6875 Z M 5.375 -12.5625 C 4.769531 -12.5625 4.234375 -12.425781 3.765625 -12.15625 C 3.304688 -11.894531 2.945312 -11.519531 2.6875 -11.03125 C 2.425781 -10.550781 2.296875 -10 2.296875 -9.375 C 2.296875 -8.8125 2.40625 -8.28125 2.625 -7.78125 C 2.851562 -7.28125 3.191406 -6.878906 3.640625 -6.578125 C 4.085938 -6.273438 4.632812 -6.125 5.28125 -6.125 C 5.96875 -6.125 6.554688 -6.273438 7.046875 -6.578125 C 7.535156 -6.878906 7.910156 -7.28125 8.171875 -7.78125 C 8.441406 -8.28125 8.578125 -8.832031 8.578125 -9.4375 C 8.578125 -9.988281 8.445312 -10.5 8.1875 -10.96875 C 7.9375 -11.445312 7.570312 -11.832031 7.09375 -12.125 C 6.625 -12.414062 6.050781 -12.5625 5.375 -12.5625 Z M 5.375 -12.5625 "/></g></g></g></g></g></g><g clip-path="url(#f9a61bc36f)"><g transform="matrix(1, 0, 0, 1, 380, 450)"><g clip-path="url(#f7b4b23620)"><g fill="#201f1f" fill-opacity="1"><g transform="translate(0.207094, 20.514166)"><g><path d="M 9.125 -1.109375 C 9.28125 -1.109375 9.410156 -1.054688 9.515625 -0.953125 C 9.628906 -0.847656 9.6875 -0.71875 9.6875 -0.5625 C 9.6875 -0.394531 9.628906 -0.257812 9.515625 -0.15625 C 9.410156 -0.0507812 9.28125 0 9.125 0 L 1.90625 0 C 1.738281 0 1.59375 -0.046875 1.46875 -0.140625 C 1.351562 -0.234375 1.296875 -0.378906 1.296875 -0.578125 C 1.296875 -0.722656 1.34375 -0.859375 1.4375 -0.984375 L 5.890625 -5.890625 C 6.597656 -6.660156 7.128906 -7.367188 7.484375 -8.015625 C 7.835938 -8.660156 8.015625 -9.242188 8.015625 -9.765625 C 8.015625 -10.609375 7.753906 -11.285156 7.234375 -11.796875 C 6.722656 -12.304688 6.03125 -12.5625 5.15625 -12.5625 C 4.757812 -12.5625 4.363281 -12.476562 3.96875 -12.3125 C 3.582031 -12.144531 3.238281 -11.925781 2.9375 -11.65625 C 2.632812 -11.394531 2.398438 -11.085938 2.234375 -10.734375 C 2.160156 -10.609375 2.082031 -10.519531 2 -10.46875 C 1.914062 -10.414062 1.820312 -10.390625 1.71875 -10.390625 C 1.5625 -10.390625 1.425781 -10.4375 1.3125 -10.53125 C 1.195312 -10.632812 1.140625 -10.753906 1.140625 -10.890625 C 1.140625 -10.984375 1.160156 -11.070312 1.203125 -11.15625 C 1.242188 -11.25 1.3125 -11.351562 1.40625 -11.46875 C 1.632812 -11.863281 1.953125 -12.226562 2.359375 -12.5625 C 2.773438 -12.90625 3.234375 -13.175781 3.734375 -13.375 C 4.242188 -13.570312 4.742188 -13.671875 5.234375 -13.671875 C 6.054688 -13.671875 6.765625 -13.507812 7.359375 -13.1875 C 7.960938 -12.875 8.425781 -12.429688 8.75 -11.859375 C 9.070312 -11.296875 9.234375 -10.625 9.234375 -9.84375 C 9.234375 -9.164062 9.023438 -8.429688 8.609375 -7.640625 C 8.191406 -6.859375 7.570312 -6.007812 6.75 -5.09375 L 3 -0.890625 L 2.8125 -1.109375 Z M 9.125 -1.109375 "/></g></g></g><g fill="#201f1f" fill-opacity="1"><g transform="translate(10.868711, 20.514166)"><g><path d="M 5.71875 0.1875 C 4.6875 0.1875 3.820312 -0.117188 3.125 -0.734375 C 2.4375 -1.347656 1.921875 -2.175781 1.578125 -3.21875 C 1.234375 -4.269531 1.0625 -5.441406 1.0625 -6.734375 C 1.0625 -8.046875 1.234375 -9.222656 1.578125 -10.265625 C 1.921875 -11.316406 2.4375 -12.144531 3.125 -12.75 C 3.820312 -13.363281 4.6875 -13.671875 5.71875 -13.671875 C 6.769531 -13.671875 7.640625 -13.363281 8.328125 -12.75 C 9.015625 -12.144531 9.53125 -11.316406 9.875 -10.265625 C 10.21875 -9.222656 10.390625 -8.046875 10.390625 -6.734375 C 10.390625 -5.441406 10.21875 -4.269531 9.875 -3.21875 C 9.53125 -2.175781 9.015625 -1.347656 8.328125 -0.734375 C 7.640625 -0.117188 6.769531 0.1875 5.71875 0.1875 Z M 5.71875 -1 C 6.476562 -1 7.109375 -1.234375 7.609375 -1.703125 C 8.117188 -2.179688 8.503906 -2.851562 8.765625 -3.71875 C 9.023438 -4.59375 9.15625 -5.597656 9.15625 -6.734375 C 9.15625 -7.890625 9.023438 -8.898438 8.765625 -9.765625 C 8.503906 -10.628906 8.117188 -11.300781 7.609375 -11.78125 C 7.109375 -12.257812 6.476562 -12.5 5.71875 -12.5 C 4.96875 -12.5 4.335938 -12.257812 3.828125 -11.78125 C 3.328125 -11.300781 2.945312 -10.628906 2.6875 -9.765625 C 2.425781 -8.898438 2.296875 -7.890625 2.296875 -6.734375 C 2.296875 -5.597656 2.425781 -4.59375 2.6875 -3.71875 C 2.945312 -2.851562 3.328125 -2.179688 3.828125 -1.703125 C 4.335938 -1.234375 4.96875 -1 5.71875 -1 Z M 5.71875 -1 "/></g></g></g></g></g></g><g clip-path="url(#a73bc8ea96)"><g transform="matrix(1, 0, 0, 1, 505, 450)"><g clip-path="url(#67e7d57b64)"><g fill="#201f1f" fill-opacity="1"><g transform="translate(1.024978, 20.514166)"><g><path d="M 9.125 -1.109375 C 9.28125 -1.109375 9.410156 -1.054688 9.515625 -0.953125 C 9.628906 -0.847656 9.6875 -0.71875 9.6875 -0.5625 C 9.6875 -0.394531 9.628906 -0.257812 9.515625 -0.15625 C 9.410156 -0.0507812 9.28125 0 9.125 0 L 1.90625 0 C 1.738281 0 1.59375 -0.046875 1.46875 -0.140625 C 1.351562 -0.234375 1.296875 -0.378906 1.296875 -0.578125 C 1.296875 -0.722656 1.34375 -0.859375 1.4375 -0.984375 L 5.890625 -5.890625 C 6.597656 -6.660156 7.128906 -7.367188 7.484375 -8.015625 C 7.835938 -8.660156 8.015625 -9.242188 8.015625 -9.765625 C 8.015625 -10.609375 7.753906 -11.285156 7.234375 -11.796875 C 6.722656 -12.304688 6.03125 -12.5625 5.15625 -12.5625 C 4.757812 -12.5625 4.363281 -12.476562 3.96875 -12.3125 C 3.582031 -12.144531 3.238281 -11.925781 2.9375 -11.65625 C 2.632812 -11.394531 2.398438 -11.085938 2.234375 -10.734375 C 2.160156 -10.609375 2.082031 -10.519531 2 -10.46875 C 1.914062 -10.414062 1.820312 -10.390625 1.71875 -10.390625 C 1.5625 -10.390625 1.425781 -10.4375 1.3125 -10.53125 C 1.195312 -10.632812 1.140625 -10.753906 1.140625 -10.890625 C 1.140625 -10.984375 1.160156 -11.070312 1.203125 -11.15625 C 1.242188 -11.25 1.3125 -11.351562 1.40625 -11.46875 C 1.632812 -11.863281 1.953125 -12.226562 2.359375 -12.5625 C 2.773438 -12.90625 3.234375 -13.175781 3.734375 -13.375 C 4.242188 -13.570312 4.742188 -13.671875 5.234375 -13.671875 C 6.054688 -13.671875 6.765625 -13.507812 7.359375 -13.1875 C 7.960938 -12.875 8.425781 -12.429688 8.75 -11.859375 C 9.070312 -11.296875 9.234375 -10.625 9.234375 -9.84375 C 9.234375 -9.164062 9.023438 -8.429688 8.609375 -7.640625 C 8.191406 -6.859375 7.570312 -6.007812 6.75 -5.09375 L 3 -0.890625 L 2.8125 -1.109375 Z M 9.125 -1.109375 "/></g></g></g><g fill="#201f1f" fill-opacity="1"><g transform="translate(11.686596, 20.514166)"><g><path d="M 4.34375 0 C 4.164062 0 4.019531 -0.0546875 3.90625 -0.171875 C 3.789062 -0.285156 3.734375 -0.421875 3.734375 -0.578125 L 3.734375 -12.171875 L 3.953125 -11.96875 L 1.390625 -10.265625 C 1.285156 -10.179688 1.175781 -10.140625 1.0625 -10.140625 C 0.90625 -10.140625 0.765625 -10.203125 0.640625 -10.328125 C 0.523438 -10.460938 0.46875 -10.609375 0.46875 -10.765625 C 0.46875 -10.960938 0.566406 -11.117188 0.765625 -11.234375 L 3.984375 -13.375 C 4.054688 -13.425781 4.132812 -13.457031 4.21875 -13.46875 C 4.300781 -13.488281 4.378906 -13.488281 4.453125 -13.46875 C 4.617188 -13.457031 4.742188 -13.394531 4.828125 -13.28125 C 4.921875 -13.175781 4.96875 -13.046875 4.96875 -12.890625 L 4.96875 -0.578125 C 4.96875 -0.421875 4.910156 -0.285156 4.796875 -0.171875 C 4.679688 -0.0546875 4.53125 0 4.34375 0 Z M 4.34375 0 "/></g></g></g></g></g></g><g clip-path="url(#7d99571d3a)"><g transform="matrix(1, 0, 0, 1, 631, 450)"><g clip-path="url(#aa44ad43e1)"><g fill="#201f1f" fill-opacity="1"><g transform="translate(0.843039, 20.514166)"><g><path d="M 9.125 -1.109375 C 9.28125 -1.109375 9.410156 -1.054688 9.515625 -0.953125 C 9.628906 -0.847656 9.6875 -0.71875 9.6875 -0.5625 C 9.6875 -0.394531 9.628906 -0.257812 9.515625 -0.15625 C 9.410156 -0.0507812 9.28125 0 9.125 0 L 1.90625 0 C 1.738281 0 1.59375 -0.046875 1.46875 -0.140625 C 1.351562 -0.234375 1.296875 -0.378906 1.296875 -0.578125 C 1.296875 -0.722656 1.34375 -0.859375 1.4375 -0.984375 L 5.890625 -5.890625 C 6.597656 -6.660156 7.128906 -7.367188 7.484375 -8.015625 C 7.835938 -8.660156 8.015625 -9.242188 8.015625 -9.765625 C 8.015625 -10.609375 7.753906 -11.285156 7.234375 -11.796875 C 6.722656 -12.304688 6.03125 -12.5625 5.15625 -12.5625 C 4.757812 -12.5625 4.363281 -12.476562 3.96875 -12.3125 C 3.582031 -12.144531 3.238281 -11.925781 2.9375 -11.65625 C 2.632812 -11.394531 2.398438 -11.085938 2.234375 -10.734375 C 2.160156 -10.609375 2.082031 -10.519531 2 -10.46875 C 1.914062 -10.414062 1.820312 -10.390625 1.71875 -10.390625 C 1.5625 -10.390625 1.425781 -10.4375 1.3125 -10.53125 C 1.195312 -10.632812 1.140625 -10.753906 1.140625 -10.890625 C 1.140625 -10.984375 1.160156 -11.070312 1.203125 -11.15625 C 1.242188 -11.25 1.3125 -11.351562 1.40625 -11.46875 C 1.632812 -11.863281 1.953125 -12.226562 2.359375 -12.5625 C 2.773438 -12.90625 3.234375 -13.175781 3.734375 -13.375 C 4.242188 -13.570312 4.742188 -13.671875 5.234375 -13.671875 C 6.054688 -13.671875 6.765625 -13.507812 7.359375 -13.1875 C 7.960938 -12.875 8.425781 -12.429688 8.75 -11.859375 C 9.070312 -11.296875 9.234375 -10.625 9.234375 -9.84375 C 9.234375 -9.164062 9.023438 -8.429688 8.609375 -7.640625 C 8.191406 -6.859375 7.570312 -6.007812 6.75 -5.09375 L 3 -0.890625 L 2.8125 -1.109375 Z M 9.125 -1.109375 "/></g></g></g><g fill="#201f1f" fill-opacity="1"><g transform="translate(11.504656, 20.514166)"><g><path d="M 9.125 -1.109375 C 9.28125 -1.109375 9.410156 -1.054688 9.515625 -0.953125 C 9.628906 -0.847656 9.6875 -0.71875 9.6875 -0.5625 C 9.6875 -0.394531 9.628906 -0.257812 9.515625 -0.15625 C 9.410156 -0.0507812 9.28125 0 9.125 0 L 1.90625 0 C 1.738281 0 1.59375 -0.046875 1.46875 -0.140625 C 1.351562 -0.234375 1.296875 -0.378906 1.296875 -0.578125 C 1.296875 -0.722656 1.34375 -0.859375 1.4375 -0.984375 L 5.890625 -5.890625 C 6.597656 -6.660156 7.128906 -7.367188 7.484375 -8.015625 C 7.835938 -8.660156 8.015625 -9.242188 8.015625 -9.765625 C 8.015625 -10.609375 7.753906 -11.285156 7.234375 -11.796875 C 6.722656 -12.304688 6.03125 -12.5625 5.15625 -12.5625 C 4.757812 -12.5625 4.363281 -12.476562 3.96875 -12.3125 C 3.582031 -12.144531 3.238281 -11.925781 2.9375 -11.65625 C 2.632812 -11.394531 2.398438 -11.085938 2.234375 -10.734375 C 2.160156 -10.609375 2.082031 -10.519531 2 -10.46875 C 1.914062 -10.414062 1.820312 -10.390625 1.71875 -10.390625 C 1.5625 -10.390625 1.425781 -10.4375 1.3125 -10.53125 C 1.195312 -10.632812 1.140625 -10.753906 1.140625 -10.890625 C 1.140625 -10.984375 1.160156 -11.070312 1.203125 -11.15625 C 1.242188 -11.25 1.3125 -11.351562 1.40625 -11.46875 C 1.632812 -11.863281 1.953125 -12.226562 2.359375 -12.5625 C 2.773438 -12.90625 3.234375 -13.175781 3.734375 -13.375 C 4.242188 -13.570312 4.742188 -13.671875 5.234375 -13.671875 C 6.054688 -13.671875 6.765625 -13.507812 7.359375 -13.1875 C 7.960938 -12.875 8.425781 -12.429688 8.75 -11.859375 C 9.070312 -11.296875 9.234375 -10.625 9.234375 -9.84375 C 9.234375 -9.164062 9.023438 -8.429688 8.609375 -7.640625 C 8.191406 -6.859375 7.570312 -6.007812 6.75 -5.09375 L 3 -0.890625 L 2.8125 -1.109375 Z M 9.125 -1.109375 "/></g></g></g></g></g></g><g clip-path="url(#0e7522e5ae)"><g transform="matrix(1, 0, 0, 1, 757, 450)"><g clip-path="url(#782f0dd4d9)"><g fill="#201f1f" fill-opacity="1"><g transform="translate(0.660923, 20.514166)"><g><path d="M 9.125 -1.109375 C 9.28125 -1.109375 9.410156 -1.054688 9.515625 -0.953125 C 9.628906 -0.847656 9.6875 -0.71875 9.6875 -0.5625 C 9.6875 -0.394531 9.628906 -0.257812 9.515625 -0.15625 C 9.410156 -0.0507812 9.28125 0 9.125 0 L 1.90625 0 C 1.738281 0 1.59375 -0.046875 1.46875 -0.140625 C 1.351562 -0.234375 1.296875 -0.378906 1.296875 -0.578125 C 1.296875 -0.722656 1.34375 -0.859375 1.4375 -0.984375 L 5.890625 -5.890625 C 6.597656 -6.660156 7.128906 -7.367188 7.484375 -8.015625 C 7.835938 -8.660156 8.015625 -9.242188 8.015625 -9.765625 C 8.015625 -10.609375 7.753906 -11.285156 7.234375 -11.796875 C 6.722656 -12.304688 6.03125 -12.5625 5.15625 -12.5625 C 4.757812 -12.5625 4.363281 -12.476562 3.96875 -12.3125 C 3.582031 -12.144531 3.238281 -11.925781 2.9375 -11.65625 C 2.632812 -11.394531 2.398438 -11.085938 2.234375 -10.734375 C 2.160156 -10.609375 2.082031 -10.519531 2 -10.46875 C 1.914062 -10.414062 1.820312 -10.390625 1.71875 -10.390625 C 1.5625 -10.390625 1.425781 -10.4375 1.3125 -10.53125 C 1.195312 -10.632812 1.140625 -10.753906 1.140625 -10.890625 C 1.140625 -10.984375 1.160156 -11.070312 1.203125 -11.15625 C 1.242188 -11.25 1.3125 -11.351562 1.40625 -11.46875 C 1.632812 -11.863281 1.953125 -12.226562 2.359375 -12.5625 C 2.773438 -12.90625 3.234375 -13.175781 3.734375 -13.375 C 4.242188 -13.570312 4.742188 -13.671875 5.234375 -13.671875 C 6.054688 -13.671875 6.765625 -13.507812 7.359375 -13.1875 C 7.960938 -12.875 8.425781 -12.429688 8.75 -11.859375 C 9.070312 -11.296875 9.234375 -10.625 9.234375 -9.84375 C 9.234375 -9.164062 9.023438 -8.429688 8.609375 -7.640625 C 8.191406 -6.859375 7.570312 -6.007812 6.75 -5.09375 L 3 -0.890625 L 2.8125 -1.109375 Z M 9.125 -1.109375 "/></g></g></g><g fill="#201f1f" fill-opacity="1"><g transform="translate(11.322541, 20.514166)"><g><path d="M 1.71875 -1.984375 C 1.78125 -1.984375 1.84375 -1.96875 1.90625 -1.9375 C 1.976562 -1.914062 2.066406 -1.859375 2.171875 -1.765625 C 2.441406 -1.484375 2.765625 -1.269531 3.140625 -1.125 C 3.515625 -0.976562 3.9375 -0.90625 4.40625 -0.90625 C 5.03125 -0.90625 5.601562 -1.046875 6.125 -1.328125 C 6.644531 -1.609375 7.054688 -2 7.359375 -2.5 C 7.671875 -3.007812 7.828125 -3.59375 7.828125 -4.25 C 7.828125 -5 7.664062 -5.597656 7.34375 -6.046875 C 7.019531 -6.503906 6.601562 -6.84375 6.09375 -7.0625 C 5.582031 -7.289062 5.066406 -7.40625 4.546875 -7.40625 C 4.398438 -7.40625 4.257812 -7.394531 4.125 -7.375 C 3.988281 -7.363281 3.863281 -7.34375 3.75 -7.3125 C 3.632812 -7.289062 3.546875 -7.28125 3.484375 -7.28125 C 3.316406 -7.28125 3.1875 -7.332031 3.09375 -7.4375 C 3.007812 -7.550781 2.96875 -7.691406 2.96875 -7.859375 C 2.96875 -7.941406 2.984375 -8.019531 3.015625 -8.09375 C 3.054688 -8.164062 3.109375 -8.242188 3.171875 -8.328125 L 7.078125 -12.59375 L 7.3125 -12.28125 L 1.484375 -12.28125 C 1.328125 -12.28125 1.191406 -12.332031 1.078125 -12.4375 C 0.972656 -12.550781 0.921875 -12.6875 0.921875 -12.84375 C 0.921875 -13 0.972656 -13.125 1.078125 -13.21875 C 1.191406 -13.320312 1.328125 -13.375 1.484375 -13.375 L 7.953125 -13.375 C 8.171875 -13.375 8.320312 -13.304688 8.40625 -13.171875 C 8.5 -13.035156 8.546875 -12.90625 8.546875 -12.78125 C 8.546875 -12.707031 8.523438 -12.632812 8.484375 -12.5625 C 8.453125 -12.488281 8.398438 -12.414062 8.328125 -12.34375 L 4.421875 -8.078125 L 4 -8.328125 C 4.039062 -8.367188 4.171875 -8.410156 4.390625 -8.453125 C 4.617188 -8.503906 4.796875 -8.53125 4.921875 -8.53125 C 5.628906 -8.53125 6.296875 -8.363281 6.921875 -8.03125 C 7.546875 -7.695312 8.050781 -7.21875 8.4375 -6.59375 C 8.832031 -5.96875 9.03125 -5.203125 9.03125 -4.296875 C 9.03125 -3.390625 8.816406 -2.597656 8.390625 -1.921875 C 7.960938 -1.253906 7.390625 -0.734375 6.671875 -0.359375 C 5.960938 0.00390625 5.171875 0.1875 4.296875 0.1875 C 3.765625 0.1875 3.242188 0.0976562 2.734375 -0.078125 C 2.222656 -0.253906 1.773438 -0.523438 1.390625 -0.890625 C 1.296875 -0.960938 1.226562 -1.035156 1.1875 -1.109375 C 1.15625 -1.191406 1.140625 -1.269531 1.140625 -1.34375 C 1.140625 -1.5 1.191406 -1.644531 1.296875 -1.78125 C 1.410156 -1.914062 1.550781 -1.984375 1.71875 -1.984375 Z M 1.71875 -1.984375 "/></g></g></g></g></g></g><g clip-path="url(#cf9fcfa075)"><g transform="matrix(1, 0, 0, 1, 2, 600)"><g clip-path="url(#89be4fd0d2)"><g fill="#201f1f" fill-opacity="1"><g transform="translate(0.753147, 20.271463)"><g><path d="M 9.125 -1.109375 C 9.28125 -1.109375 9.410156 -1.054688 9.515625 -0.953125 C 9.628906 -0.847656 9.6875 -0.71875 9.6875 -0.5625 C 9.6875 -0.394531 9.628906 -0.257812 9.515625 -0.15625 C 9.410156 -0.0507812 9.28125 0 9.125 0 L 1.90625 0 C 1.738281 0 1.59375 -0.046875 1.46875 -0.140625 C 1.351562 -0.234375 1.296875 -0.378906 1.296875 -0.578125 C 1.296875 -0.722656 1.34375 -0.859375 1.4375 -0.984375 L 5.890625 -5.890625 C 6.597656 -6.660156 7.128906 -7.367188 7.484375 -8.015625 C 7.835938 -8.660156 8.015625 -9.242188 8.015625 -9.765625 C 8.015625 -10.609375 7.753906 -11.285156 7.234375 -11.796875 C 6.722656 -12.304688 6.03125 -12.5625 5.15625 -12.5625 C 4.757812 -12.5625 4.363281 -12.476562 3.96875 -12.3125 C 3.582031 -12.144531 3.238281 -11.925781 2.9375 -11.65625 C 2.632812 -11.394531 2.398438 -11.085938 2.234375 -10.734375 C 2.160156 -10.609375 2.082031 -10.519531 2 -10.46875 C 1.914062 -10.414062 1.820312 -10.390625 1.71875 -10.390625 C 1.5625 -10.390625 1.425781 -10.4375 1.3125 -10.53125 C 1.195312 -10.632812 1.140625 -10.753906 1.140625 -10.890625 C 1.140625 -10.984375 1.160156 -11.070312 1.203125 -11.15625 C 1.242188 -11.25 1.3125 -11.351562 1.40625 -11.46875 C 1.632812 -11.863281 1.953125 -12.226562 2.359375 -12.5625 C 2.773438 -12.90625 3.234375 -13.175781 3.734375 -13.375 C 4.242188 -13.570312 4.742188 -13.671875 5.234375 -13.671875 C 6.054688 -13.671875 6.765625 -13.507812 7.359375 -13.1875 C 7.960938 -12.875 8.425781 -12.429688 8.75 -11.859375 C 9.070312 -11.296875 9.234375 -10.625 9.234375 -9.84375 C 9.234375 -9.164062 9.023438 -8.429688 8.609375 -7.640625 C 8.191406 -6.859375 7.570312 -6.007812 6.75 -5.09375 L 3 -0.890625 L 2.8125 -1.109375 Z M 9.125 -1.109375 "/></g></g></g><g fill="#201f1f" fill-opacity="1"><g transform="translate(11.414764, 20.271463)"><g><path d="M 7.0625 0 C 6.894531 0 6.757812 -0.0546875 6.65625 -0.171875 C 6.550781 -0.285156 6.5 -0.421875 6.5 -0.578125 L 6.5 -11.875 L 6.75 -11.71875 L 1.6875 -5.03125 L 1.640625 -5.234375 L 9.03125 -5.234375 C 9.1875 -5.234375 9.316406 -5.179688 9.421875 -5.078125 C 9.535156 -4.972656 9.59375 -4.847656 9.59375 -4.703125 C 9.59375 -4.546875 9.535156 -4.414062 9.421875 -4.3125 C 9.316406 -4.207031 9.1875 -4.15625 9.03125 -4.15625 L 0.84375 -4.15625 C 0.6875 -4.15625 0.550781 -4.21875 0.4375 -4.34375 C 0.320312 -4.46875 0.265625 -4.601562 0.265625 -4.75 C 0.265625 -4.894531 0.3125 -5.023438 0.40625 -5.140625 L 6.609375 -13.25 C 6.671875 -13.332031 6.75 -13.390625 6.84375 -13.421875 C 6.9375 -13.453125 7.015625 -13.46875 7.078125 -13.46875 C 7.242188 -13.46875 7.378906 -13.410156 7.484375 -13.296875 C 7.597656 -13.179688 7.65625 -13.046875 7.65625 -12.890625 L 7.65625 -0.578125 C 7.65625 -0.421875 7.597656 -0.285156 7.484375 -0.171875 C 7.367188 -0.0546875 7.226562 0 7.0625 0 Z M 7.0625 0 "/></g></g></g></g></g></g><g clip-path="url(#57908286cd)"><g transform="matrix(1, 0, 0, 1, 128, 600)"><g clip-path="url(#f138fbd669)"><g fill="#201f1f" fill-opacity="1"><g transform="translate(0.57112, 20.271463)"><g><path d="M 9.125 -1.109375 C 9.28125 -1.109375 9.410156 -1.054688 9.515625 -0.953125 C 9.628906 -0.847656 9.6875 -0.71875 9.6875 -0.5625 C 9.6875 -0.394531 9.628906 -0.257812 9.515625 -0.15625 C 9.410156 -0.0507812 9.28125 0 9.125 0 L 1.90625 0 C 1.738281 0 1.59375 -0.046875 1.46875 -0.140625 C 1.351562 -0.234375 1.296875 -0.378906 1.296875 -0.578125 C 1.296875 -0.722656 1.34375 -0.859375 1.4375 -0.984375 L 5.890625 -5.890625 C 6.597656 -6.660156 7.128906 -7.367188 7.484375 -8.015625 C 7.835938 -8.660156 8.015625 -9.242188 8.015625 -9.765625 C 8.015625 -10.609375 7.753906 -11.285156 7.234375 -11.796875 C 6.722656 -12.304688 6.03125 -12.5625 5.15625 -12.5625 C 4.757812 -12.5625 4.363281 -12.476562 3.96875 -12.3125 C 3.582031 -12.144531 3.238281 -11.925781 2.9375 -11.65625 C 2.632812 -11.394531 2.398438 -11.085938 2.234375 -10.734375 C 2.160156 -10.609375 2.082031 -10.519531 2 -10.46875 C 1.914062 -10.414062 1.820312 -10.390625 1.71875 -10.390625 C 1.5625 -10.390625 1.425781 -10.4375 1.3125 -10.53125 C 1.195312 -10.632812 1.140625 -10.753906 1.140625 -10.890625 C 1.140625 -10.984375 1.160156 -11.070312 1.203125 -11.15625 C 1.242188 -11.25 1.3125 -11.351562 1.40625 -11.46875 C 1.632812 -11.863281 1.953125 -12.226562 2.359375 -12.5625 C 2.773438 -12.90625 3.234375 -13.175781 3.734375 -13.375 C 4.242188 -13.570312 4.742188 -13.671875 5.234375 -13.671875 C 6.054688 -13.671875 6.765625 -13.507812 7.359375 -13.1875 C 7.960938 -12.875 8.425781 -12.429688 8.75 -11.859375 C 9.070312 -11.296875 9.234375 -10.625 9.234375 -9.84375 C 9.234375 -9.164062 9.023438 -8.429688 8.609375 -7.640625 C 8.191406 -6.859375 7.570312 -6.007812 6.75 -5.09375 L 3 -0.890625 L 2.8125 -1.109375 Z M 9.125 -1.109375 "/></g></g></g><g fill="#201f1f" fill-opacity="1"><g transform="translate(11.232737, 20.271463)"><g><path d="M 4.5 0.03125 C 3.976562 0.03125 3.453125 -0.0507812 2.921875 -0.21875 C 2.390625 -0.394531 1.914062 -0.65625 1.5 -1 C 1.425781 -1.0625 1.363281 -1.132812 1.3125 -1.21875 C 1.269531 -1.3125 1.25 -1.40625 1.25 -1.5 C 1.25 -1.625 1.300781 -1.75 1.40625 -1.875 C 1.507812 -2 1.644531 -2.0625 1.8125 -2.0625 C 1.945312 -2.0625 2.085938 -2.003906 2.234375 -1.890625 C 2.566406 -1.628906 2.925781 -1.425781 3.3125 -1.28125 C 3.707031 -1.144531 4.101562 -1.078125 4.5 -1.078125 C 5.257812 -1.078125 5.921875 -1.21875 6.484375 -1.5 C 7.046875 -1.789062 7.484375 -2.203125 7.796875 -2.734375 C 8.109375 -3.273438 8.265625 -3.894531 8.265625 -4.59375 C 8.265625 -5.25 8.117188 -5.816406 7.828125 -6.296875 C 7.546875 -6.785156 7.144531 -7.164062 6.625 -7.4375 C 6.113281 -7.71875 5.503906 -7.859375 4.796875 -7.859375 C 4.328125 -7.859375 3.90625 -7.785156 3.53125 -7.640625 C 3.15625 -7.503906 2.828125 -7.359375 2.546875 -7.203125 C 2.273438 -7.054688 2.054688 -6.984375 1.890625 -6.984375 C 1.734375 -6.984375 1.601562 -7.019531 1.5 -7.09375 C 1.40625 -7.175781 1.34375 -7.273438 1.3125 -7.390625 C 1.28125 -7.503906 1.28125 -7.625 1.3125 -7.75 L 2.140625 -12.890625 C 2.148438 -13.015625 2.207031 -13.125 2.3125 -13.21875 C 2.425781 -13.3125 2.566406 -13.359375 2.734375 -13.359375 L 8.53125 -13.359375 C 8.6875 -13.359375 8.816406 -13.300781 8.921875 -13.1875 C 9.035156 -13.082031 9.09375 -12.953125 9.09375 -12.796875 C 9.09375 -12.628906 9.035156 -12.488281 8.921875 -12.375 C 8.816406 -12.269531 8.6875 -12.21875 8.53125 -12.21875 L 3 -12.21875 L 3.171875 -12.390625 L 2.390625 -7.828125 L 2.046875 -8.078125 C 2.210938 -8.210938 2.453125 -8.34375 2.765625 -8.46875 C 3.078125 -8.59375 3.425781 -8.703125 3.8125 -8.796875 C 4.207031 -8.898438 4.625 -8.953125 5.0625 -8.953125 C 5.894531 -8.953125 6.640625 -8.769531 7.296875 -8.40625 C 7.953125 -8.039062 8.46875 -7.53125 8.84375 -6.875 C 9.21875 -6.226562 9.40625 -5.484375 9.40625 -4.640625 C 9.40625 -3.703125 9.203125 -2.882812 8.796875 -2.1875 C 8.398438 -1.488281 7.832031 -0.941406 7.09375 -0.546875 C 6.363281 -0.160156 5.5 0.03125 4.5 0.03125 Z M 4.5 0.03125 "/></g></g></g></g></g></g><g clip-path="url(#c8e4f69bba)"><g transform="matrix(1, 0, 0, 1, 254, 600)"><g clip-path="url(#d11a2e184a)"><g fill="#201f1f" fill-opacity="1"><g transform="translate(0.389122, 20.271463)"><g><path d="M 9.125 -1.109375 C 9.28125 -1.109375 9.410156 -1.054688 9.515625 -0.953125 C 9.628906 -0.847656 9.6875 -0.71875 9.6875 -0.5625 C 9.6875 -0.394531 9.628906 -0.257812 9.515625 -0.15625 C 9.410156 -0.0507812 9.28125 0 9.125 0 L 1.90625 0 C 1.738281 0 1.59375 -0.046875 1.46875 -0.140625 C 1.351562 -0.234375 1.296875 -0.378906 1.296875 -0.578125 C 1.296875 -0.722656 1.34375 -0.859375 1.4375 -0.984375 L 5.890625 -5.890625 C 6.597656 -6.660156 7.128906 -7.367188 7.484375 -8.015625 C 7.835938 -8.660156 8.015625 -9.242188 8.015625 -9.765625 C 8.015625 -10.609375 7.753906 -11.285156 7.234375 -11.796875 C 6.722656 -12.304688 6.03125 -12.5625 5.15625 -12.5625 C 4.757812 -12.5625 4.363281 -12.476562 3.96875 -12.3125 C 3.582031 -12.144531 3.238281 -11.925781 2.9375 -11.65625 C 2.632812 -11.394531 2.398438 -11.085938 2.234375 -10.734375 C 2.160156 -10.609375 2.082031 -10.519531 2 -10.46875 C 1.914062 -10.414062 1.820312 -10.390625 1.71875 -10.390625 C 1.5625 -10.390625 1.425781 -10.4375 1.3125 -10.53125 C 1.195312 -10.632812 1.140625 -10.753906 1.140625 -10.890625 C 1.140625 -10.984375 1.160156 -11.070312 1.203125 -11.15625 C 1.242188 -11.25 1.3125 -11.351562 1.40625 -11.46875 C 1.632812 -11.863281 1.953125 -12.226562 2.359375 -12.5625 C 2.773438 -12.90625 3.234375 -13.175781 3.734375 -13.375 C 4.242188 -13.570312 4.742188 -13.671875 5.234375 -13.671875 C 6.054688 -13.671875 6.765625 -13.507812 7.359375 -13.1875 C 7.960938 -12.875 8.425781 -12.429688 8.75 -11.859375 C 9.070312 -11.296875 9.234375 -10.625 9.234375 -9.84375 C 9.234375 -9.164062 9.023438 -8.429688 8.609375 -7.640625 C 8.191406 -6.859375 7.570312 -6.007812 6.75 -5.09375 L 3 -0.890625 L 2.8125 -1.109375 Z M 9.125 -1.109375 "/></g></g></g><g fill="#201f1f" fill-opacity="1"><g transform="translate(11.050739, 20.271463)"><g><path d="M 5.53125 0.1875 C 4.78125 0.1875 4.125 0.0546875 3.5625 -0.203125 C 3.007812 -0.472656 2.550781 -0.835938 2.1875 -1.296875 C 1.820312 -1.753906 1.550781 -2.269531 1.375 -2.84375 C 1.195312 -3.425781 1.109375 -4.019531 1.109375 -4.625 C 1.109375 -5.238281 1.1875 -5.898438 1.34375 -6.609375 C 1.5 -7.328125 1.738281 -8.050781 2.0625 -8.78125 C 2.382812 -9.507812 2.78125 -10.203125 3.25 -10.859375 C 3.71875 -11.515625 4.257812 -12.097656 4.875 -12.609375 C 5.5 -13.128906 6.203125 -13.539062 6.984375 -13.84375 C 7.078125 -13.863281 7.15625 -13.875 7.21875 -13.875 C 7.382812 -13.875 7.523438 -13.828125 7.640625 -13.734375 C 7.765625 -13.648438 7.828125 -13.5 7.828125 -13.28125 C 7.828125 -13.15625 7.785156 -13.039062 7.703125 -12.9375 C 7.617188 -12.84375 7.507812 -12.769531 7.375 -12.71875 C 6.832031 -12.488281 6.296875 -12.160156 5.765625 -11.734375 C 5.242188 -11.316406 4.757812 -10.832031 4.3125 -10.28125 C 3.863281 -9.726562 3.476562 -9.132812 3.15625 -8.5 C 2.84375 -7.863281 2.625 -7.21875 2.5 -6.5625 L 2.078125 -6.3125 C 2.304688 -6.738281 2.601562 -7.113281 2.96875 -7.4375 C 3.332031 -7.769531 3.753906 -8.035156 4.234375 -8.234375 C 4.710938 -8.429688 5.226562 -8.53125 5.78125 -8.53125 C 6.351562 -8.53125 6.882812 -8.40625 7.375 -8.15625 C 7.863281 -7.914062 8.28125 -7.585938 8.625 -7.171875 C 8.976562 -6.753906 9.253906 -6.28125 9.453125 -5.75 C 9.660156 -5.226562 9.765625 -4.6875 9.765625 -4.125 C 9.765625 -3.363281 9.578125 -2.65625 9.203125 -2 C 8.835938 -1.34375 8.335938 -0.8125 7.703125 -0.40625 C 7.066406 -0.0078125 6.34375 0.1875 5.53125 0.1875 Z M 5.5 -0.921875 C 6.09375 -0.921875 6.617188 -1.054688 7.078125 -1.328125 C 7.546875 -1.597656 7.910156 -1.972656 8.171875 -2.453125 C 8.429688 -2.929688 8.5625 -3.488281 8.5625 -4.125 C 8.5625 -4.695312 8.445312 -5.226562 8.21875 -5.71875 C 8 -6.21875 7.664062 -6.625 7.21875 -6.9375 C 6.78125 -7.25 6.234375 -7.40625 5.578125 -7.40625 C 4.898438 -7.40625 4.3125 -7.25 3.8125 -6.9375 C 3.320312 -6.632812 2.945312 -6.226562 2.6875 -5.71875 C 2.425781 -5.21875 2.296875 -4.664062 2.296875 -4.0625 C 2.296875 -3.519531 2.421875 -3.007812 2.671875 -2.53125 C 2.929688 -2.050781 3.300781 -1.660156 3.78125 -1.359375 C 4.257812 -1.066406 4.832031 -0.921875 5.5 -0.921875 Z M 5.5 -0.921875 "/></g></g></g></g></g></g><g clip-path="url(#d1e6bd3765)"><g transform="matrix(1, 0, 0, 1, 380, 600)"><g clip-path="url(#290b603bee)"><g fill="#201f1f" fill-opacity="1"><g transform="translate(0.207094, 20.271463)"><g><path d="M 9.125 -1.109375 C 9.28125 -1.109375 9.410156 -1.054688 9.515625 -0.953125 C 9.628906 -0.847656 9.6875 -0.71875 9.6875 -0.5625 C 9.6875 -0.394531 9.628906 -0.257812 9.515625 -0.15625 C 9.410156 -0.0507812 9.28125 0 9.125 0 L 1.90625 0 C 1.738281 0 1.59375 -0.046875 1.46875 -0.140625 C 1.351562 -0.234375 1.296875 -0.378906 1.296875 -0.578125 C 1.296875 -0.722656 1.34375 -0.859375 1.4375 -0.984375 L 5.890625 -5.890625 C 6.597656 -6.660156 7.128906 -7.367188 7.484375 -8.015625 C 7.835938 -8.660156 8.015625 -9.242188 8.015625 -9.765625 C 8.015625 -10.609375 7.753906 -11.285156 7.234375 -11.796875 C 6.722656 -12.304688 6.03125 -12.5625 5.15625 -12.5625 C 4.757812 -12.5625 4.363281 -12.476562 3.96875 -12.3125 C 3.582031 -12.144531 3.238281 -11.925781 2.9375 -11.65625 C 2.632812 -11.394531 2.398438 -11.085938 2.234375 -10.734375 C 2.160156 -10.609375 2.082031 -10.519531 2 -10.46875 C 1.914062 -10.414062 1.820312 -10.390625 1.71875 -10.390625 C 1.5625 -10.390625 1.425781 -10.4375 1.3125 -10.53125 C 1.195312 -10.632812 1.140625 -10.753906 1.140625 -10.890625 C 1.140625 -10.984375 1.160156 -11.070312 1.203125 -11.15625 C 1.242188 -11.25 1.3125 -11.351562 1.40625 -11.46875 C 1.632812 -11.863281 1.953125 -12.226562 2.359375 -12.5625 C 2.773438 -12.90625 3.234375 -13.175781 3.734375 -13.375 C 4.242188 -13.570312 4.742188 -13.671875 5.234375 -13.671875 C 6.054688 -13.671875 6.765625 -13.507812 7.359375 -13.1875 C 7.960938 -12.875 8.425781 -12.429688 8.75 -11.859375 C 9.070312 -11.296875 9.234375 -10.625 9.234375 -9.84375 C 9.234375 -9.164062 9.023438 -8.429688 8.609375 -7.640625 C 8.191406 -6.859375 7.570312 -6.007812 6.75 -5.09375 L 3 -0.890625 L 2.8125 -1.109375 Z M 9.125 -1.109375 "/></g></g></g><g fill="#201f1f" fill-opacity="1"><g transform="translate(10.868711, 20.271463)"><g><path d="M 3.421875 0.0625 C 3.273438 0.0625 3.132812 0.0078125 3 -0.09375 C 2.875 -0.195312 2.8125 -0.328125 2.8125 -0.484375 C 2.8125 -0.566406 2.832031 -0.660156 2.875 -0.765625 L 7.984375 -12.53125 L 8.203125 -12.265625 L 1.6875 -12.265625 C 1.539062 -12.265625 1.410156 -12.316406 1.296875 -12.421875 C 1.191406 -12.535156 1.140625 -12.671875 1.140625 -12.828125 C 1.140625 -12.992188 1.191406 -13.125 1.296875 -13.21875 C 1.410156 -13.320312 1.539062 -13.375 1.6875 -13.375 L 8.765625 -13.375 C 8.953125 -13.375 9.085938 -13.320312 9.171875 -13.21875 C 9.265625 -13.125 9.3125 -13 9.3125 -12.84375 C 9.3125 -12.738281 9.296875 -12.640625 9.265625 -12.546875 L 3.96875 -0.328125 C 3.925781 -0.210938 3.851562 -0.117188 3.75 -0.046875 C 3.644531 0.0234375 3.535156 0.0625 3.421875 0.0625 Z M 3.421875 0.0625 "/></g></g></g></g></g></g><g clip-path="url(#77c4d01f87)"><g transform="matrix(1, 0, 0, 1, 505, 600)"><g clip-path="url(#fe691094f6)"><g fill="#201f1f" fill-opacity="1"><g transform="translate(1.024978, 20.271463)"><g><path d="M 9.125 -1.109375 C 9.28125 -1.109375 9.410156 -1.054688 9.515625 -0.953125 C 9.628906 -0.847656 9.6875 -0.71875 9.6875 -0.5625 C 9.6875 -0.394531 9.628906 -0.257812 9.515625 -0.15625 C 9.410156 -0.0507812 9.28125 0 9.125 0 L 1.90625 0 C 1.738281 0 1.59375 -0.046875 1.46875 -0.140625 C 1.351562 -0.234375 1.296875 -0.378906 1.296875 -0.578125 C 1.296875 -0.722656 1.34375 -0.859375 1.4375 -0.984375 L 5.890625 -5.890625 C 6.597656 -6.660156 7.128906 -7.367188 7.484375 -8.015625 C 7.835938 -8.660156 8.015625 -9.242188 8.015625 -9.765625 C 8.015625 -10.609375 7.753906 -11.285156 7.234375 -11.796875 C 6.722656 -12.304688 6.03125 -12.5625 5.15625 -12.5625 C 4.757812 -12.5625 4.363281 -12.476562 3.96875 -12.3125 C 3.582031 -12.144531 3.238281 -11.925781 2.9375 -11.65625 C 2.632812 -11.394531 2.398438 -11.085938 2.234375 -10.734375 C 2.160156 -10.609375 2.082031 -10.519531 2 -10.46875 C 1.914062 -10.414062 1.820312 -10.390625 1.71875 -10.390625 C 1.5625 -10.390625 1.425781 -10.4375 1.3125 -10.53125 C 1.195312 -10.632812 1.140625 -10.753906 1.140625 -10.890625 C 1.140625 -10.984375 1.160156 -11.070312 1.203125 -11.15625 C 1.242188 -11.25 1.3125 -11.351562 1.40625 -11.46875 C 1.632812 -11.863281 1.953125 -12.226562 2.359375 -12.5625 C 2.773438 -12.90625 3.234375 -13.175781 3.734375 -13.375 C 4.242188 -13.570312 4.742188 -13.671875 5.234375 -13.671875 C 6.054688 -13.671875 6.765625 -13.507812 7.359375 -13.1875 C 7.960938 -12.875 8.425781 -12.429688 8.75 -11.859375 C 9.070312 -11.296875 9.234375 -10.625 9.234375 -9.84375 C 9.234375 -9.164062 9.023438 -8.429688 8.609375 -7.640625 C 8.191406 -6.859375 7.570312 -6.007812 6.75 -5.09375 L 3 -0.890625 L 2.8125 -1.109375 Z M 9.125 -1.109375 "/></g></g></g><g fill="#201f1f" fill-opacity="1"><g transform="translate(11.686596, 20.271463)"><g><path d="M 7 -6.78125 L 6.953125 -6.953125 C 7.390625 -6.785156 7.785156 -6.535156 8.140625 -6.203125 C 8.503906 -5.878906 8.796875 -5.492188 9.015625 -5.046875 C 9.234375 -4.609375 9.34375 -4.125 9.34375 -3.59375 C 9.34375 -2.90625 9.15625 -2.273438 8.78125 -1.703125 C 8.414062 -1.140625 7.921875 -0.691406 7.296875 -0.359375 C 6.671875 -0.0234375 5.972656 0.140625 5.203125 0.140625 C 4.410156 0.140625 3.703125 -0.0234375 3.078125 -0.359375 C 2.460938 -0.691406 1.972656 -1.140625 1.609375 -1.703125 C 1.242188 -2.273438 1.0625 -2.90625 1.0625 -3.59375 C 1.0625 -4.164062 1.171875 -4.671875 1.390625 -5.109375 C 1.617188 -5.554688 1.914062 -5.929688 2.28125 -6.234375 C 2.644531 -6.546875 3.023438 -6.785156 3.421875 -6.953125 L 3.375 -6.75 C 3.019531 -6.914062 2.691406 -7.144531 2.390625 -7.4375 C 2.085938 -7.726562 1.835938 -8.078125 1.640625 -8.484375 C 1.453125 -8.890625 1.359375 -9.332031 1.359375 -9.8125 C 1.359375 -10.507812 1.53125 -11.132812 1.875 -11.6875 C 2.21875 -12.238281 2.679688 -12.671875 3.265625 -12.984375 C 3.847656 -13.304688 4.492188 -13.46875 5.203125 -13.46875 C 5.898438 -13.46875 6.535156 -13.304688 7.109375 -12.984375 C 7.679688 -12.671875 8.132812 -12.238281 8.46875 -11.6875 C 8.8125 -11.132812 8.984375 -10.507812 8.984375 -9.8125 C 8.984375 -9.3125 8.882812 -8.863281 8.6875 -8.46875 C 8.5 -8.070312 8.25 -7.726562 7.9375 -7.4375 C 7.632812 -7.144531 7.320312 -6.925781 7 -6.78125 Z M 2.5625 -9.8125 C 2.5625 -9.300781 2.679688 -8.851562 2.921875 -8.46875 C 3.171875 -8.082031 3.492188 -7.78125 3.890625 -7.5625 C 4.285156 -7.34375 4.722656 -7.234375 5.203125 -7.234375 C 5.660156 -7.234375 6.085938 -7.34375 6.484375 -7.5625 C 6.878906 -7.78125 7.195312 -8.082031 7.4375 -8.46875 C 7.675781 -8.851562 7.796875 -9.300781 7.796875 -9.8125 C 7.796875 -10.570312 7.550781 -11.1875 7.0625 -11.65625 C 6.570312 -12.132812 5.953125 -12.375 5.203125 -12.375 C 4.410156 -12.375 3.769531 -12.132812 3.28125 -11.65625 C 2.800781 -11.1875 2.5625 -10.570312 2.5625 -9.8125 Z M 5.203125 -0.96875 C 6.066406 -0.96875 6.769531 -1.21875 7.3125 -1.71875 C 7.863281 -2.21875 8.140625 -2.84375 8.140625 -3.59375 C 8.140625 -4.113281 8.003906 -4.578125 7.734375 -4.984375 C 7.460938 -5.398438 7.101562 -5.722656 6.65625 -5.953125 C 6.207031 -6.179688 5.722656 -6.296875 5.203125 -6.296875 C 4.671875 -6.296875 4.179688 -6.179688 3.734375 -5.953125 C 3.285156 -5.722656 2.925781 -5.398438 2.65625 -4.984375 C 2.382812 -4.578125 2.25 -4.113281 2.25 -3.59375 C 2.25 -2.84375 2.519531 -2.21875 3.0625 -1.71875 C 3.601562 -1.21875 4.316406 -0.96875 5.203125 -0.96875 Z M 5.203125 -0.96875 "/></g></g></g></g></g></g><g clip-path="url(#0fe0a742ba)"><g transform="matrix(1, 0, 0, 1, 631, 600)"><g clip-path="url(#7b12753e0d)"><g fill="#201f1f" fill-opacity="1"><g transform="translate(0.843039, 20.271463)"><g><path d="M 9.125 -1.109375 C 9.28125 -1.109375 9.410156 -1.054688 9.515625 -0.953125 C 9.628906 -0.847656 9.6875 -0.71875 9.6875 -0.5625 C 9.6875 -0.394531 9.628906 -0.257812 9.515625 -0.15625 C 9.410156 -0.0507812 9.28125 0 9.125 0 L 1.90625 0 C 1.738281 0 1.59375 -0.046875 1.46875 -0.140625 C 1.351562 -0.234375 1.296875 -0.378906 1.296875 -0.578125 C 1.296875 -0.722656 1.34375 -0.859375 1.4375 -0.984375 L 5.890625 -5.890625 C 6.597656 -6.660156 7.128906 -7.367188 7.484375 -8.015625 C 7.835938 -8.660156 8.015625 -9.242188 8.015625 -9.765625 C 8.015625 -10.609375 7.753906 -11.285156 7.234375 -11.796875 C 6.722656 -12.304688 6.03125 -12.5625 5.15625 -12.5625 C 4.757812 -12.5625 4.363281 -12.476562 3.96875 -12.3125 C 3.582031 -12.144531 3.238281 -11.925781 2.9375 -11.65625 C 2.632812 -11.394531 2.398438 -11.085938 2.234375 -10.734375 C 2.160156 -10.609375 2.082031 -10.519531 2 -10.46875 C 1.914062 -10.414062 1.820312 -10.390625 1.71875 -10.390625 C 1.5625 -10.390625 1.425781 -10.4375 1.3125 -10.53125 C 1.195312 -10.632812 1.140625 -10.753906 1.140625 -10.890625 C 1.140625 -10.984375 1.160156 -11.070312 1.203125 -11.15625 C 1.242188 -11.25 1.3125 -11.351562 1.40625 -11.46875 C 1.632812 -11.863281 1.953125 -12.226562 2.359375 -12.5625 C 2.773438 -12.90625 3.234375 -13.175781 3.734375 -13.375 C 4.242188 -13.570312 4.742188 -13.671875 5.234375 -13.671875 C 6.054688 -13.671875 6.765625 -13.507812 7.359375 -13.1875 C 7.960938 -12.875 8.425781 -12.429688 8.75 -11.859375 C 9.070312 -11.296875 9.234375 -10.625 9.234375 -9.84375 C 9.234375 -9.164062 9.023438 -8.429688 8.609375 -7.640625 C 8.191406 -6.859375 7.570312 -6.007812 6.75 -5.09375 L 3 -0.890625 L 2.8125 -1.109375 Z M 9.125 -1.109375 "/></g></g></g><g fill="#201f1f" fill-opacity="1"><g transform="translate(11.504656, 20.271463)"><g><path d="M 5.328125 -13.6875 C 6.085938 -13.6875 6.742188 -13.550781 7.296875 -13.28125 C 7.859375 -13.007812 8.316406 -12.644531 8.671875 -12.1875 C 9.035156 -11.738281 9.304688 -11.222656 9.484375 -10.640625 C 9.671875 -10.066406 9.765625 -9.476562 9.765625 -8.875 C 9.765625 -8.257812 9.679688 -7.601562 9.515625 -6.90625 C 9.359375 -6.207031 9.117188 -5.5 8.796875 -4.78125 C 8.484375 -4.070312 8.09375 -3.394531 7.625 -2.75 C 7.164062 -2.113281 6.617188 -1.535156 5.984375 -1.015625 C 5.359375 -0.503906 4.660156 -0.109375 3.890625 0.171875 C 3.785156 0.203125 3.703125 0.21875 3.640625 0.21875 C 3.484375 0.21875 3.34375 0.160156 3.21875 0.046875 C 3.101562 -0.0546875 3.046875 -0.203125 3.046875 -0.390625 C 3.046875 -0.515625 3.082031 -0.625 3.15625 -0.71875 C 3.226562 -0.8125 3.34375 -0.882812 3.5 -0.9375 C 4.226562 -1.25 4.929688 -1.707031 5.609375 -2.3125 C 6.296875 -2.925781 6.882812 -3.632812 7.375 -4.4375 C 7.875 -5.238281 8.207031 -6.070312 8.375 -6.9375 L 8.78125 -7.1875 C 8.5625 -6.769531 8.265625 -6.394531 7.890625 -6.0625 C 7.515625 -5.726562 7.09375 -5.46875 6.625 -5.28125 C 6.15625 -5.09375 5.644531 -5 5.09375 -5 C 4.28125 -5 3.570312 -5.203125 2.96875 -5.609375 C 2.375 -6.015625 1.914062 -6.550781 1.59375 -7.21875 C 1.269531 -7.882812 1.109375 -8.601562 1.109375 -9.375 C 1.109375 -10.132812 1.289062 -10.835938 1.65625 -11.484375 C 2.03125 -12.140625 2.535156 -12.671875 3.171875 -13.078125 C 3.804688 -13.484375 4.523438 -13.6875 5.328125 -13.6875 Z M 5.375 -12.5625 C 4.769531 -12.5625 4.234375 -12.425781 3.765625 -12.15625 C 3.304688 -11.894531 2.945312 -11.519531 2.6875 -11.03125 C 2.425781 -10.550781 2.296875 -10 2.296875 -9.375 C 2.296875 -8.8125 2.40625 -8.28125 2.625 -7.78125 C 2.851562 -7.28125 3.191406 -6.878906 3.640625 -6.578125 C 4.085938 -6.273438 4.632812 -6.125 5.28125 -6.125 C 5.96875 -6.125 6.554688 -6.273438 7.046875 -6.578125 C 7.535156 -6.878906 7.910156 -7.28125 8.171875 -7.78125 C 8.441406 -8.28125 8.578125 -8.832031 8.578125 -9.4375 C 8.578125 -9.988281 8.445312 -10.5 8.1875 -10.96875 C 7.9375 -11.445312 7.570312 -11.832031 7.09375 -12.125 C 6.625 -12.414062 6.050781 -12.5625 5.375 -12.5625 Z M 5.375 -12.5625 "/></g></g></g></g></g></g><g clip-path="url(#1d9001eb22)"><g transform="matrix(1, 0, 0, 1, 757, 600)"><g clip-path="url(#13c94809d8)"><g fill="#201f1f" fill-opacity="1"><g transform="translate(0.660923, 20.271463)"><g><path d="M 1.71875 -1.984375 C 1.78125 -1.984375 1.84375 -1.96875 1.90625 -1.9375 C 1.976562 -1.914062 2.066406 -1.859375 2.171875 -1.765625 C 2.441406 -1.484375 2.765625 -1.269531 3.140625 -1.125 C 3.515625 -0.976562 3.9375 -0.90625 4.40625 -0.90625 C 5.03125 -0.90625 5.601562 -1.046875 6.125 -1.328125 C 6.644531 -1.609375 7.054688 -2 7.359375 -2.5 C 7.671875 -3.007812 7.828125 -3.59375 7.828125 -4.25 C 7.828125 -5 7.664062 -5.597656 7.34375 -6.046875 C 7.019531 -6.503906 6.601562 -6.84375 6.09375 -7.0625 C 5.582031 -7.289062 5.066406 -7.40625 4.546875 -7.40625 C 4.398438 -7.40625 4.257812 -7.394531 4.125 -7.375 C 3.988281 -7.363281 3.863281 -7.34375 3.75 -7.3125 C 3.632812 -7.289062 3.546875 -7.28125 3.484375 -7.28125 C 3.316406 -7.28125 3.1875 -7.332031 3.09375 -7.4375 C 3.007812 -7.550781 2.96875 -7.691406 2.96875 -7.859375 C 2.96875 -7.941406 2.984375 -8.019531 3.015625 -8.09375 C 3.054688 -8.164062 3.109375 -8.242188 3.171875 -8.328125 L 7.078125 -12.59375 L 7.3125 -12.28125 L 1.484375 -12.28125 C 1.328125 -12.28125 1.191406 -12.332031 1.078125 -12.4375 C 0.972656 -12.550781 0.921875 -12.6875 0.921875 -12.84375 C 0.921875 -13 0.972656 -13.125 1.078125 -13.21875 C 1.191406 -13.320312 1.328125 -13.375 1.484375 -13.375 L 7.953125 -13.375 C 8.171875 -13.375 8.320312 -13.304688 8.40625 -13.171875 C 8.5 -13.035156 8.546875 -12.90625 8.546875 -12.78125 C 8.546875 -12.707031 8.523438 -12.632812 8.484375 -12.5625 C 8.453125 -12.488281 8.398438 -12.414062 8.328125 -12.34375 L 4.421875 -8.078125 L 4 -8.328125 C 4.039062 -8.367188 4.171875 -8.410156 4.390625 -8.453125 C 4.617188 -8.503906 4.796875 -8.53125 4.921875 -8.53125 C 5.628906 -8.53125 6.296875 -8.363281 6.921875 -8.03125 C 7.546875 -7.695312 8.050781 -7.21875 8.4375 -6.59375 C 8.832031 -5.96875 9.03125 -5.203125 9.03125 -4.296875 C 9.03125 -3.390625 8.816406 -2.597656 8.390625 -1.921875 C 7.960938 -1.253906 7.390625 -0.734375 6.671875 -0.359375 C 5.960938 0.00390625 5.171875 0.1875 4.296875 0.1875 C 3.765625 0.1875 3.242188 0.0976562 2.734375 -0.078125 C 2.222656 -0.253906 1.773438 -0.523438 1.390625 -0.890625 C 1.296875 -0.960938 1.226562 -1.035156 1.1875 -1.109375 C 1.15625 -1.191406 1.140625 -1.269531 1.140625 -1.34375 C 1.140625 -1.5 1.191406 -1.644531 1.296875 -1.78125 C 1.410156 -1.914062 1.550781 -1.984375 1.71875 -1.984375 Z M 1.71875 -1.984375 "/></g></g></g><g fill="#201f1f" fill-opacity="1"><g transform="translate(10.745202, 20.271463)"><g><path d="M 5.71875 0.1875 C 4.6875 0.1875 3.820312 -0.117188 3.125 -0.734375 C 2.4375 -1.347656 1.921875 -2.175781 1.578125 -3.21875 C 1.234375 -4.269531 1.0625 -5.441406 1.0625 -6.734375 C 1.0625 -8.046875 1.234375 -9.222656 1.578125 -10.265625 C 1.921875 -11.316406 2.4375 -12.144531 3.125 -12.75 C 3.820312 -13.363281 4.6875 -13.671875 5.71875 -13.671875 C 6.769531 -13.671875 7.640625 -13.363281 8.328125 -12.75 C 9.015625 -12.144531 9.53125 -11.316406 9.875 -10.265625 C 10.21875 -9.222656 10.390625 -8.046875 10.390625 -6.734375 C 10.390625 -5.441406 10.21875 -4.269531 9.875 -3.21875 C 9.53125 -2.175781 9.015625 -1.347656 8.328125 -0.734375 C 7.640625 -0.117188 6.769531 0.1875 5.71875 0.1875 Z M 5.71875 -1 C 6.476562 -1 7.109375 -1.234375 7.609375 -1.703125 C 8.117188 -2.179688 8.503906 -2.851562 8.765625 -3.71875 C 9.023438 -4.59375 9.15625 -5.597656 9.15625 -6.734375 C 9.15625 -7.890625 9.023438 -8.898438 8.765625 -9.765625 C 8.503906 -10.628906 8.117188 -11.300781 7.609375 -11.78125 C 7.109375 -12.257812 6.476562 -12.5 5.71875 -12.5 C 4.96875 -12.5 4.335938 -12.257812 3.828125 -11.78125 C 3.328125 -11.300781 2.945312 -10.628906 2.6875 -9.765625 C 2.425781 -8.898438 2.296875 -7.890625 2.296875 -6.734375 C 2.296875 -5.597656 2.425781 -4.59375 2.6875 -3.71875 C 2.945312 -2.851562 3.328125 -2.179688 3.828125 -1.703125 C 4.335938 -1.234375 4.96875 -1 5.71875 -1 Z M 5.71875 -1 "/></g></g></g></g></g></g><g clip-path="url(#14ab2389eb)"><path stroke-linecap="butt" transform="matrix(0.749954, 0, 0, 0.749954, 0.0397731, 0.00002)" fill-opacity="1" fill="#000000" fill-rule="nonzero" stroke-linejoin="miter" d="M 0.811603 1.619865 L 0.811603 998.441702 M 168.577148 1.619865 L 168.577148 998.441702 M 336.342694 1.619865 L 336.342694 998.441702 M 504.113448 1.619865 L 504.113448 998.441702 M 671.878993 1.619865 L 671.878993 998.441702 M 839.649747 1.619865 L 839.649747 998.441702 M 1007.415293 1.619865 L 1007.415293 998.441702 M 1175.180838 1.619865 L 1175.180838 998.441702 M -0.000947487 0.807315 L 1175.993388 0.807315 M -0.000947487 200.496702 L 1175.993388 200.496702 M -0.000947487 400.18609 L 1175.993388 400.18609 M -0.000947487 599.875477 L 1175.993388 599.875477 M -0.000947487 799.564865 L 1175.993388 799.564865 M -0.000947487 999.254252 L 1175.993388 999.254252 " stroke="#000000" stroke-width="1.618054" stroke-opacity="1" stroke-miterlimit="4"/></g><g clip-path="url(#1ab9113d12)"><path stroke-linecap="butt" transform="matrix(0.487292, -0.570067, 0.570067, 0.487292, -0.000808472, 748.980679)" fill="none" stroke-linejoin="miter" d="M 0.000124171 1.001742 L 262.25435 0.999049 " stroke="#000000" stroke-width="2" stroke-opacity="1" stroke-miterlimit="4"/></g><g fill="#000000" fill-opacity="1"><g transform="translate(90.659813, 733.752635)"><g><path d="M 1.796875 -2.078125 C 1.867188 -2.078125 1.941406 -2.0625 2.015625 -2.03125 C 2.085938 -2.007812 2.175781 -1.953125 2.28125 -1.859375 C 2.570312 -1.566406 2.910156 -1.34375 3.296875 -1.1875 C 3.691406 -1.03125 4.140625 -0.953125 4.640625 -0.953125 C 5.296875 -0.953125 5.894531 -1.097656 6.4375 -1.390625 C 6.988281 -1.691406 7.425781 -2.109375 7.75 -2.640625 C 8.070312 -3.171875 8.234375 -3.78125 8.234375 -4.46875 C 8.234375 -5.257812 8.0625 -5.894531 7.71875 -6.375 C 7.375 -6.851562 6.9375 -7.207031 6.40625 -7.4375 C 5.875 -7.675781 5.332031 -7.796875 4.78125 -7.796875 C 4.632812 -7.796875 4.488281 -7.785156 4.34375 -7.765625 C 4.195312 -7.742188 4.0625 -7.71875 3.9375 -7.6875 C 3.820312 -7.664062 3.734375 -7.65625 3.671875 -7.65625 C 3.492188 -7.65625 3.359375 -7.710938 3.265625 -7.828125 C 3.171875 -7.941406 3.125 -8.085938 3.125 -8.265625 C 3.125 -8.359375 3.140625 -8.441406 3.171875 -8.515625 C 3.210938 -8.585938 3.269531 -8.671875 3.34375 -8.765625 L 7.453125 -13.25 L 7.6875 -12.921875 L 1.5625 -12.921875 C 1.394531 -12.921875 1.253906 -12.976562 1.140625 -13.09375 C 1.023438 -13.207031 0.96875 -13.34375 0.96875 -13.5 C 0.96875 -13.664062 1.023438 -13.800781 1.140625 -13.90625 C 1.253906 -14.019531 1.394531 -14.078125 1.5625 -14.078125 L 8.359375 -14.078125 C 8.585938 -14.078125 8.75 -14.003906 8.84375 -13.859375 C 8.9375 -13.722656 8.984375 -13.585938 8.984375 -13.453125 C 8.984375 -13.367188 8.960938 -13.289062 8.921875 -13.21875 C 8.890625 -13.144531 8.835938 -13.066406 8.765625 -12.984375 L 4.65625 -8.5 L 4.21875 -8.765625 C 4.25 -8.804688 4.382812 -8.847656 4.625 -8.890625 C 4.863281 -8.941406 5.050781 -8.96875 5.1875 -8.96875 C 5.925781 -8.96875 6.625 -8.789062 7.28125 -8.4375 C 7.9375 -8.09375 8.46875 -7.59375 8.875 -6.9375 C 9.289062 -6.28125 9.5 -5.472656 9.5 -4.515625 C 9.5 -3.566406 9.273438 -2.738281 8.828125 -2.03125 C 8.378906 -1.320312 7.773438 -0.769531 7.015625 -0.375 C 6.265625 0.0078125 5.429688 0.203125 4.515625 0.203125 C 3.960938 0.203125 3.414062 0.109375 2.875 -0.078125 C 2.332031 -0.265625 1.859375 -0.550781 1.453125 -0.9375 C 1.359375 -1.007812 1.289062 -1.085938 1.25 -1.171875 C 1.207031 -1.253906 1.1875 -1.335938 1.1875 -1.421875 C 1.1875 -1.578125 1.242188 -1.722656 1.359375 -1.859375 C 1.472656 -2.003906 1.617188 -2.078125 1.796875 -2.078125 Z M 1.796875 -2.078125 "/></g></g></g><g fill="#000000" fill-opacity="1"><g transform="translate(101.270144, 733.752635)"><g><path d="M 4.578125 0 C 4.390625 0 4.234375 -0.0546875 4.109375 -0.171875 C 3.984375 -0.296875 3.921875 -0.441406 3.921875 -0.609375 L 3.921875 -12.796875 L 4.15625 -12.59375 L 1.453125 -10.796875 C 1.347656 -10.710938 1.234375 -10.671875 1.109375 -10.671875 C 0.953125 -10.671875 0.804688 -10.738281 0.671875 -10.875 C 0.546875 -11.007812 0.484375 -11.15625 0.484375 -11.3125 C 0.484375 -11.53125 0.59375 -11.703125 0.8125 -11.828125 L 4.1875 -14.078125 C 4.269531 -14.128906 4.351562 -14.160156 4.4375 -14.171875 C 4.53125 -14.179688 4.609375 -14.179688 4.671875 -14.171875 C 4.847656 -14.160156 4.984375 -14.097656 5.078125 -13.984375 C 5.171875 -13.867188 5.21875 -13.726562 5.21875 -13.5625 L 5.21875 -0.609375 C 5.21875 -0.441406 5.15625 -0.296875 5.03125 -0.171875 C 4.914062 -0.0546875 4.765625 0 4.578125 0 Z M 4.578125 0 "/></g></g></g></g></g></svg>