<svg xmlns="http://www.w3.org/2000/svg" xmlns:xlink="http://www.w3.org/1999/xlink" width="600" zoomAndPan="magnify" viewBox="0 0 450 112.499997" height="150" preserveAspectRatio="xMidYMid meet" version="1.0"><defs><g/></defs><g fill="#000000" fill-opacity="1"><g transform="translate(115.647557, 77.340993)"><g><path d="M 26.359375 -50.046875 L 6.828125 -1.53125 C 6.617188 -0.988281 6.328125 -0.582031 5.953125 -0.3125 C 5.578125 -0.0507812 5.144531 0.078125 4.65625 0.078125 C 3.90625 0.078125 3.34375 -0.117188 2.96875 -0.515625 C 2.59375 -0.921875 2.378906 -1.421875 2.328125 -2.015625 C 2.273438 -2.273438 2.300781 -2.59375 2.40625 -2.96875 L 23.625 -54.875 C 23.882812 -55.46875 24.21875 -55.882812 24.625 -56.125 C 25.03125 -56.363281 25.5 -56.484375 26.03125 -56.484375 C 26.5625 -56.484375 27.03125 -56.332031 27.4375 -56.03125 C 27.84375 -55.738281 28.148438 -55.351562 28.359375 -54.875 L 49.484375 -3.21875 C 49.597656 -2.894531 49.65625 -2.570312 49.65625 -2.25 C 49.65625 -1.5 49.410156 -0.921875 48.921875 -0.515625 C 48.441406 -0.117188 47.878906 0.078125 47.234375 0.078125 C 46.703125 0.078125 46.234375 -0.0664062 45.828125 -0.359375 C 45.429688 -0.648438 45.125 -1.039062 44.90625 -1.53125 L 24.90625 -50.375 Z M 11.484375 -16.234375 L 13.5 -20.96875 L 38.40625 -20.96875 L 39.375 -16.234375 Z M 11.484375 -16.234375 "/></g></g></g><g fill="#000000" fill-opacity="1"><g transform="translate(167.626417, 77.340993)"><g><path d="M 29 -56.234375 C 32 -56.234375 34.648438 -55.550781 36.953125 -54.1875 C 39.253906 -52.820312 41.078125 -50.929688 42.421875 -48.515625 C 43.765625 -46.109375 44.4375 -43.351562 44.4375 -40.25 C 44.4375 -37.144531 43.765625 -34.347656 42.421875 -31.859375 C 41.078125 -29.367188 39.253906 -27.398438 36.953125 -25.953125 C 34.648438 -24.503906 32 -23.78125 29 -23.78125 L 11.96875 -23.78125 L 12.375 -24.578125 L 12.375 -2.40625 C 12.375 -1.769531 12.128906 -1.207031 11.640625 -0.71875 C 11.160156 -0.238281 10.601562 0 9.96875 0 C 9.21875 0 8.625 -0.238281 8.1875 -0.71875 C 7.757812 -1.207031 7.546875 -1.769531 7.546875 -2.40625 L 7.546875 -53.828125 C 7.546875 -54.472656 7.785156 -55.035156 8.265625 -55.515625 C 8.753906 -55.992188 9.320312 -56.234375 9.96875 -56.234375 Z M 29 -28.4375 C 31.09375 -28.4375 32.914062 -28.957031 34.46875 -30 C 36.019531 -31.050781 37.238281 -32.472656 38.125 -34.265625 C 39.007812 -36.054688 39.453125 -38.050781 39.453125 -40.25 C 39.453125 -42.445312 39.007812 -44.390625 38.125 -46.078125 C 37.238281 -47.765625 36.019531 -49.085938 34.46875 -50.046875 C 32.914062 -51.015625 31.09375 -51.5 29 -51.5 L 11.96875 -51.5 L 12.375 -52.21875 L 12.375 -27.953125 L 11.890625 -28.4375 Z M 29 -28.4375 "/></g></g></g><g fill="#000000" fill-opacity="1"><g transform="translate(215.50802, 77.340993)"><g><path d="M 10.28125 0 C 9.476562 0 8.820312 -0.238281 8.3125 -0.71875 C 7.800781 -1.207031 7.546875 -1.769531 7.546875 -2.40625 L 7.546875 -53.828125 C 7.546875 -54.472656 7.785156 -55.035156 8.265625 -55.515625 C 8.753906 -55.992188 9.320312 -56.234375 9.96875 -56.234375 L 31.65625 -56.234375 C 34.707031 -56.234375 37.4375 -55.578125 39.84375 -54.265625 C 42.257812 -52.953125 44.148438 -51.144531 45.515625 -48.84375 C 46.878906 -46.539062 47.5625 -43.945312 47.5625 -41.0625 C 47.5625 -38.695312 47.132812 -36.523438 46.28125 -34.546875 C 45.425781 -32.566406 44.21875 -30.894531 42.65625 -29.53125 C 41.101562 -28.164062 39.363281 -27.160156 37.4375 -26.515625 L 34.625 -27.390625 C 36.601562 -27.234375 38.453125 -26.601562 40.171875 -25.5 C 41.890625 -24.40625 43.269531 -22.90625 44.3125 -21 C 45.351562 -19.101562 45.898438 -16.816406 45.953125 -14.140625 C 46.003906 -11.835938 46.125 -10.039062 46.3125 -8.75 C 46.5 -7.46875 46.78125 -6.503906 47.15625 -5.859375 C 47.53125 -5.222656 48.015625 -4.71875 48.609375 -4.34375 C 49.140625 -4.019531 49.5 -3.5625 49.6875 -2.96875 C 49.875 -2.382812 49.804688 -1.820312 49.484375 -1.28125 C 49.273438 -0.851562 48.96875 -0.546875 48.5625 -0.359375 C 48.164062 -0.171875 47.753906 -0.078125 47.328125 -0.078125 C 46.898438 -0.078125 46.46875 -0.1875 46.03125 -0.40625 C 45.28125 -0.832031 44.515625 -1.5 43.734375 -2.40625 C 42.960938 -3.320312 42.320312 -4.660156 41.8125 -6.421875 C 41.3125 -8.191406 41.0625 -10.65625 41.0625 -13.8125 C 41.0625 -15.90625 40.722656 -17.617188 40.046875 -18.953125 C 39.378906 -20.296875 38.519531 -21.328125 37.46875 -22.046875 C 36.425781 -22.773438 35.273438 -23.285156 34.015625 -23.578125 C 32.765625 -23.867188 31.578125 -24.015625 30.453125 -24.015625 L 11.734375 -24.015625 L 12.609375 -25.140625 L 12.609375 -2.40625 C 12.609375 -1.769531 12.394531 -1.207031 11.96875 -0.71875 C 11.539062 -0.238281 10.976562 0 10.28125 0 Z M 11.734375 -28.4375 L 31.890625 -28.4375 C 33.710938 -28.601562 35.425781 -29.207031 37.03125 -30.25 C 38.644531 -31.289062 39.945312 -32.722656 40.9375 -34.546875 C 41.925781 -36.367188 42.421875 -38.484375 42.421875 -40.890625 C 42.421875 -43.941406 41.390625 -46.472656 39.328125 -48.484375 C 37.265625 -50.492188 34.570312 -51.5 31.25 -51.5 L 12.046875 -51.5 L 12.609375 -52.625 L 12.609375 -27.3125 Z M 11.734375 -28.4375 "/></g></g></g><g fill="#000000" fill-opacity="1"><g transform="translate(269.334659, 77.340993)"><g><path d="M 12.609375 -2.484375 C 12.554688 -1.796875 12.273438 -1.207031 11.765625 -0.71875 C 11.253906 -0.238281 10.679688 0 10.046875 0 C 9.296875 0 8.691406 -0.238281 8.234375 -0.71875 C 7.773438 -1.207031 7.546875 -1.796875 7.546875 -2.484375 L 7.546875 -53.75 C 7.546875 -54.445312 7.785156 -55.035156 8.265625 -55.515625 C 8.753906 -55.992188 9.375 -56.234375 10.125 -56.234375 C 10.769531 -56.234375 11.34375 -55.992188 11.84375 -55.515625 C 12.351562 -55.035156 12.609375 -54.445312 12.609375 -53.75 Z M 12.609375 -2.484375 "/></g></g></g><g fill="#000000" fill-opacity="1"><g transform="translate(289.419221, 77.340993)"><g><path d="M 38.640625 -4.734375 C 39.285156 -4.734375 39.847656 -4.503906 40.328125 -4.046875 C 40.816406 -3.597656 41.0625 -3.050781 41.0625 -2.40625 C 41.0625 -1.707031 40.816406 -1.128906 40.328125 -0.671875 C 39.847656 -0.222656 39.285156 0 38.640625 0 L 9.96875 0 C 9.269531 0 8.691406 -0.238281 8.234375 -0.71875 C 7.773438 -1.207031 7.546875 -1.769531 7.546875 -2.40625 L 7.546875 -53.828125 C 7.546875 -54.472656 7.785156 -55.035156 8.265625 -55.515625 C 8.753906 -55.992188 9.375 -56.234375 10.125 -56.234375 C 10.769531 -56.234375 11.34375 -55.992188 11.84375 -55.515625 C 12.351562 -55.035156 12.609375 -54.472656 12.609375 -53.828125 L 12.609375 -3.375 L 11.09375 -4.734375 Z M 38.640625 -4.734375 "/></g></g></g></svg>