<svg xmlns="http://www.w3.org/2000/svg" xmlns:xlink="http://www.w3.org/1999/xlink" width="1176" zoomAndPan="magnify" viewBox="0 0 882 749.999995" height="1000" preserveAspectRatio="xMidYMid meet" version="1.0"><defs><g/><clipPath id="e22acf1be0"><path d="M 254 1.214844 L 262 1.214844 L 262 27 L 254 27 Z M 254 1.214844 " clip-rule="nonzero"/></clipPath><clipPath id="b14abcfa0a"><path d="M 0.160156 6 L 6 6 L 6 21 L 0.160156 21 Z M 0.160156 6 " clip-rule="nonzero"/></clipPath><clipPath id="c1334664dd"><rect x="0" width="8" y="0" height="26"/></clipPath><clipPath id="0d89dcf55a"><path d="M 380 1.214844 L 392 1.214844 L 392 27 L 380 27 Z M 380 1.214844 " clip-rule="nonzero"/></clipPath><clipPath id="9b84bf0a64"><rect x="0" width="12" y="0" height="26"/></clipPath><clipPath id="4dc4c03aeb"><path d="M 505 1.214844 L 517 1.214844 L 517 27 L 505 27 Z M 505 1.214844 " clip-rule="nonzero"/></clipPath><clipPath id="000802696e"><rect x="0" width="12" y="0" height="26"/></clipPath><clipPath id="41c533d4a7"><path d="M 631 1.214844 L 643 1.214844 L 643 27 L 631 27 Z M 631 1.214844 " clip-rule="nonzero"/></clipPath><clipPath id="37daf6c069"><rect x="0" width="12" y="0" height="26"/></clipPath><clipPath id="f14d900548"><path d="M 757 1.214844 L 769 1.214844 L 769 27 L 757 27 Z M 757 1.214844 " clip-rule="nonzero"/></clipPath><clipPath id="4767162a1f"><rect x="0" width="12" y="0" height="26"/></clipPath><clipPath id="f7cf91d19d"><rect x="0" width="12" y="0" height="25"/></clipPath><clipPath id="1116e90565"><rect x="0" width="11" y="0" height="25"/></clipPath><clipPath id="81628bba34"><rect x="0" width="12" y="0" height="25"/></clipPath><clipPath id="a517c3727e"><rect x="0" width="12" y="0" height="25"/></clipPath><clipPath id="c940674a83"><rect x="0" width="20" y="0" height="25"/></clipPath><clipPath id="0754e1b4df"><rect x="0" width="16" y="0" height="25"/></clipPath><clipPath id="2c0f1c0e92"><rect x="0" width="19" y="0" height="25"/></clipPath><clipPath id="ca4963ac4a"><rect x="0" width="19" y="0" height="25"/></clipPath><clipPath id="727d696213"><path d="M 0.398438 6 L 6 6 L 6 20 L 0.398438 20 Z M 0.398438 6 " clip-rule="nonzero"/></clipPath><clipPath id="c79e678e11"><rect x="0" width="19" y="0" height="25"/></clipPath><clipPath id="b776b0291f"><path d="M 0.160156 6 L 6 6 L 6 20 L 0.160156 20 Z M 0.160156 6 " clip-rule="nonzero"/></clipPath><clipPath id="d119d2617c"><rect x="0" width="19" y="0" height="25"/></clipPath><clipPath id="4af23f411e"><path d="M 0.160156 6 L 6 6 L 6 20 L 0.160156 20 Z M 0.160156 6 " clip-rule="nonzero"/></clipPath><clipPath id="e5b26a1c6c"><path d="M 8 5 L 17.921875 5 L 17.921875 20 L 8 20 Z M 8 5 " clip-rule="nonzero"/></clipPath><clipPath id="844dcf0ae4"><rect x="0" width="18" y="0" height="25"/></clipPath><clipPath id="ca8b5398c4"><rect x="0" width="19" y="0" height="25"/></clipPath><clipPath id="74450f3efb"><rect x="0" width="19" y="0" height="25"/></clipPath><clipPath id="fe2ebdf0e7"><rect x="0" width="19" y="0" height="25"/></clipPath><clipPath id="e26bb751d1"><path d="M 2 450.484375 L 26 450.484375 L 26 476 L 2 476 Z M 2 450.484375 " clip-rule="nonzero"/></clipPath><clipPath id="33e67d063d"><rect x="0" width="24" y="0" height="26"/></clipPath><clipPath id="a74d94858c"><path d="M 128 450.484375 L 147 450.484375 L 147 476 L 128 476 Z M 128 450.484375 " clip-rule="nonzero"/></clipPath><clipPath id="54157e4e4e"><rect x="0" width="19" y="0" height="26"/></clipPath><clipPath id="2c6a83e5d0"><path d="M 254 450.484375 L 277 450.484375 L 277 476 L 254 476 Z M 254 450.484375 " clip-rule="nonzero"/></clipPath><clipPath id="1d1bbee241"><rect x="0" width="23" y="0" height="26"/></clipPath><clipPath id="e08de5988e"><path d="M 380 450.484375 L 402 450.484375 L 402 476 L 380 476 Z M 380 450.484375 " clip-rule="nonzero"/></clipPath><clipPath id="6c9e4affcb"><rect x="0" width="22" y="0" height="26"/></clipPath><clipPath id="3d6c836e62"><path d="M 505 450.484375 L 528 450.484375 L 528 476 L 505 476 Z M 505 450.484375 " clip-rule="nonzero"/></clipPath><clipPath id="1f82b55fbb"><rect x="0" width="23" y="0" height="26"/></clipPath><clipPath id="3f37a16338"><path d="M 631 450.484375 L 654 450.484375 L 654 476 L 631 476 Z M 631 450.484375 " clip-rule="nonzero"/></clipPath><clipPath id="9bac231ef1"><rect x="0" width="23" y="0" height="26"/></clipPath><clipPath id="cc381a4a63"><path d="M 757 450.484375 L 780 450.484375 L 780 476 L 757 476 Z M 757 450.484375 " clip-rule="nonzero"/></clipPath><clipPath id="0218d1014f"><rect x="0" width="23" y="0" height="26"/></clipPath><clipPath id="76ba923a9f"><path d="M 2 600.242188 L 24 600.242188 L 24 626 L 2 626 Z M 2 600.242188 " clip-rule="nonzero"/></clipPath><clipPath id="24ccbc2c84"><rect x="0" width="22" y="0" height="26"/></clipPath><clipPath id="370a52120e"><path d="M 128 600.242188 L 150 600.242188 L 150 626 L 128 626 Z M 128 600.242188 " clip-rule="nonzero"/></clipPath><clipPath id="c796848c18"><rect x="0" width="22" y="0" height="26"/></clipPath><clipPath id="5ffc3ae325"><path d="M 254 600.242188 L 277 600.242188 L 277 626 L 254 626 Z M 254 600.242188 " clip-rule="nonzero"/></clipPath><clipPath id="9f653576cd"><rect x="0" width="23" y="0" height="26"/></clipPath><clipPath id="1fff618a93"><path d="M 380 600.242188 L 403 600.242188 L 403 626 L 380 626 Z M 380 600.242188 " clip-rule="nonzero"/></clipPath><clipPath id="3d84fa6075"><rect x="0" width="23" y="0" height="26"/></clipPath></defs><g clip-path="url(#e22acf1be0)"><g transform="matrix(1, 0, 0, 1, 254, 1)"><g clip-path="url(#c1334664dd)"><g clip-path="url(#b14abcfa0a)"><g fill="#201f1f" fill-opacity="1"><g transform="translate(0.349512, 20.245032)"><g><path d="M 4.34375 0 C 4.164062 0 4.019531 -0.0546875 3.90625 -0.171875 C 3.789062 -0.285156 3.734375 -0.421875 3.734375 -0.578125 L 3.734375 -12.171875 L 3.953125 -11.96875 L 1.390625 -10.265625 C 1.285156 -10.179688 1.175781 -10.140625 1.0625 -10.140625 C 0.90625 -10.140625 0.765625 -10.203125 0.640625 -10.328125 C 0.523438 -10.460938 0.46875 -10.609375 0.46875 -10.765625 C 0.46875 -10.960938 0.566406 -11.117188 0.765625 -11.234375 L 3.984375 -13.375 C 4.054688 -13.425781 4.132812 -13.457031 4.21875 -13.46875 C 4.300781 -13.488281 4.378906 -13.488281 4.453125 -13.46875 C 4.617188 -13.457031 4.742188 -13.394531 4.828125 -13.28125 C 4.921875 -13.175781 4.96875 -13.046875 4.96875 -12.890625 L 4.96875 -0.578125 C 4.96875 -0.421875 4.910156 -0.285156 4.796875 -0.171875 C 4.679688 -0.0546875 4.53125 0 4.34375 0 Z M 4.34375 0 "/></g></g></g></g></g></g></g><g clip-path="url(#0d89dcf55a)"><g transform="matrix(1, 0, 0, 1, 380, 1)"><g clip-path="url(#9b84bf0a64)"><g fill="#201f1f" fill-opacity="1"><g transform="translate(0.167455, 20.245032)"><g><path d="M 9.125 -1.109375 C 9.28125 -1.109375 9.410156 -1.054688 9.515625 -0.953125 C 9.628906 -0.847656 9.6875 -0.71875 9.6875 -0.5625 C 9.6875 -0.394531 9.628906 -0.257812 9.515625 -0.15625 C 9.410156 -0.0507812 9.28125 0 9.125 0 L 1.90625 0 C 1.738281 0 1.59375 -0.046875 1.46875 -0.140625 C 1.351562 -0.234375 1.296875 -0.378906 1.296875 -0.578125 C 1.296875 -0.722656 1.34375 -0.859375 1.4375 -0.984375 L 5.890625 -5.890625 C 6.597656 -6.660156 7.128906 -7.367188 7.484375 -8.015625 C 7.835938 -8.660156 8.015625 -9.242188 8.015625 -9.765625 C 8.015625 -10.609375 7.753906 -11.285156 7.234375 -11.796875 C 6.722656 -12.304688 6.03125 -12.5625 5.15625 -12.5625 C 4.757812 -12.5625 4.363281 -12.476562 3.96875 -12.3125 C 3.582031 -12.144531 3.238281 -11.925781 2.9375 -11.65625 C 2.632812 -11.394531 2.398438 -11.085938 2.234375 -10.734375 C 2.160156 -10.609375 2.082031 -10.519531 2 -10.46875 C 1.914062 -10.414062 1.820312 -10.390625 1.71875 -10.390625 C 1.5625 -10.390625 1.425781 -10.4375 1.3125 -10.53125 C 1.195312 -10.632812 1.140625 -10.753906 1.140625 -10.890625 C 1.140625 -10.984375 1.160156 -11.070312 1.203125 -11.15625 C 1.242188 -11.25 1.3125 -11.351562 1.40625 -11.46875 C 1.632812 -11.863281 1.953125 -12.226562 2.359375 -12.5625 C 2.773438 -12.90625 3.234375 -13.175781 3.734375 -13.375 C 4.242188 -13.570312 4.742188 -13.671875 5.234375 -13.671875 C 6.054688 -13.671875 6.765625 -13.507812 7.359375 -13.1875 C 7.960938 -12.875 8.425781 -12.429688 8.75 -11.859375 C 9.070312 -11.296875 9.234375 -10.625 9.234375 -9.84375 C 9.234375 -9.164062 9.023438 -8.429688 8.609375 -7.640625 C 8.191406 -6.859375 7.570312 -6.007812 6.75 -5.09375 L 3 -0.890625 L 2.8125 -1.109375 Z M 9.125 -1.109375 "/></g></g></g></g></g></g><g clip-path="url(#4dc4c03aeb)"><g transform="matrix(1, 0, 0, 1, 505, 1)"><g clip-path="url(#000802696e)"><g fill="#201f1f" fill-opacity="1"><g transform="translate(0.985369, 20.245032)"><g><path d="M 1.71875 -1.984375 C 1.78125 -1.984375 1.84375 -1.96875 1.90625 -1.9375 C 1.976562 -1.914062 2.066406 -1.859375 2.171875 -1.765625 C 2.441406 -1.484375 2.765625 -1.269531 3.140625 -1.125 C 3.515625 -0.976562 3.9375 -0.90625 4.40625 -0.90625 C 5.03125 -0.90625 5.601562 -1.046875 6.125 -1.328125 C 6.644531 -1.609375 7.054688 -2 7.359375 -2.5 C 7.671875 -3.007812 7.828125 -3.59375 7.828125 -4.25 C 7.828125 -5 7.664062 -5.597656 7.34375 -6.046875 C 7.019531 -6.503906 6.601562 -6.84375 6.09375 -7.0625 C 5.582031 -7.289062 5.066406 -7.40625 4.546875 -7.40625 C 4.398438 -7.40625 4.257812 -7.394531 4.125 -7.375 C 3.988281 -7.363281 3.863281 -7.34375 3.75 -7.3125 C 3.632812 -7.289062 3.546875 -7.28125 3.484375 -7.28125 C 3.316406 -7.28125 3.1875 -7.332031 3.09375 -7.4375 C 3.007812 -7.550781 2.96875 -7.691406 2.96875 -7.859375 C 2.96875 -7.941406 2.984375 -8.019531 3.015625 -8.09375 C 3.054688 -8.164062 3.109375 -8.242188 3.171875 -8.328125 L 7.078125 -12.59375 L 7.3125 -12.28125 L 1.484375 -12.28125 C 1.328125 -12.28125 1.191406 -12.332031 1.078125 -12.4375 C 0.972656 -12.550781 0.921875 -12.6875 0.921875 -12.84375 C 0.921875 -13 0.972656 -13.125 1.078125 -13.21875 C 1.191406 -13.320312 1.328125 -13.375 1.484375 -13.375 L 7.953125 -13.375 C 8.171875 -13.375 8.320312 -13.304688 8.40625 -13.171875 C 8.5 -13.035156 8.546875 -12.90625 8.546875 -12.78125 C 8.546875 -12.707031 8.523438 -12.632812 8.484375 -12.5625 C 8.453125 -12.488281 8.398438 -12.414062 8.328125 -12.34375 L 4.421875 -8.078125 L 4 -8.328125 C 4.039062 -8.367188 4.171875 -8.410156 4.390625 -8.453125 C 4.617188 -8.503906 4.796875 -8.53125 4.921875 -8.53125 C 5.628906 -8.53125 6.296875 -8.363281 6.921875 -8.03125 C 7.546875 -7.695312 8.050781 -7.21875 8.4375 -6.59375 C 8.832031 -5.96875 9.03125 -5.203125 9.03125 -4.296875 C 9.03125 -3.390625 8.816406 -2.597656 8.390625 -1.921875 C 7.960938 -1.253906 7.390625 -0.734375 6.671875 -0.359375 C 5.960938 0.00390625 5.171875 0.1875 4.296875 0.1875 C 3.765625 0.1875 3.242188 0.0976562 2.734375 -0.078125 C 2.222656 -0.253906 1.773438 -0.523438 1.390625 -0.890625 C 1.296875 -0.960938 1.226562 -1.035156 1.1875 -1.109375 C 1.15625 -1.191406 1.140625 -1.269531 1.140625 -1.34375 C 1.140625 -1.5 1.191406 -1.644531 1.296875 -1.78125 C 1.410156 -1.914062 1.550781 -1.984375 1.71875 -1.984375 Z M 1.71875 -1.984375 "/></g></g></g></g></g></g><g clip-path="url(#41c533d4a7)"><g transform="matrix(1, 0, 0, 1, 631, 1)"><g clip-path="url(#37daf6c069)"><g fill="#201f1f" fill-opacity="1"><g transform="translate(0.803312, 20.245032)"><g><path d="M 7.0625 0 C 6.894531 0 6.757812 -0.0546875 6.65625 -0.171875 C 6.550781 -0.285156 6.5 -0.421875 6.5 -0.578125 L 6.5 -11.875 L 6.75 -11.71875 L 1.6875 -5.03125 L 1.640625 -5.234375 L 9.03125 -5.234375 C 9.1875 -5.234375 9.316406 -5.179688 9.421875 -5.078125 C 9.535156 -4.972656 9.59375 -4.847656 9.59375 -4.703125 C 9.59375 -4.546875 9.535156 -4.414062 9.421875 -4.3125 C 9.316406 -4.207031 9.1875 -4.15625 9.03125 -4.15625 L 0.84375 -4.15625 C 0.6875 -4.15625 0.550781 -4.21875 0.4375 -4.34375 C 0.320312 -4.46875 0.265625 -4.601562 0.265625 -4.75 C 0.265625 -4.894531 0.3125 -5.023438 0.40625 -5.140625 L 6.609375 -13.25 C 6.671875 -13.332031 6.75 -13.390625 6.84375 -13.421875 C 6.9375 -13.453125 7.015625 -13.46875 7.078125 -13.46875 C 7.242188 -13.46875 7.378906 -13.410156 7.484375 -13.296875 C 7.597656 -13.179688 7.65625 -13.046875 7.65625 -12.890625 L 7.65625 -0.578125 C 7.65625 -0.421875 7.597656 -0.285156 7.484375 -0.171875 C 7.367188 -0.0546875 7.226562 0 7.0625 0 Z M 7.0625 0 "/></g></g></g></g></g></g><g clip-path="url(#f14d900548)"><g transform="matrix(1, 0, 0, 1, 757, 1)"><g clip-path="url(#4767162a1f)"><g fill="#201f1f" fill-opacity="1"><g transform="translate(0.621255, 20.245032)"><g><path d="M 4.5 0.03125 C 3.976562 0.03125 3.453125 -0.0507812 2.921875 -0.21875 C 2.390625 -0.394531 1.914062 -0.65625 1.5 -1 C 1.425781 -1.0625 1.363281 -1.132812 1.3125 -1.21875 C 1.269531 -1.3125 1.25 -1.40625 1.25 -1.5 C 1.25 -1.625 1.300781 -1.75 1.40625 -1.875 C 1.507812 -2 1.644531 -2.0625 1.8125 -2.0625 C 1.945312 -2.0625 2.085938 -2.003906 2.234375 -1.890625 C 2.566406 -1.628906 2.925781 -1.425781 3.3125 -1.28125 C 3.707031 -1.144531 4.101562 -1.078125 4.5 -1.078125 C 5.257812 -1.078125 5.921875 -1.21875 6.484375 -1.5 C 7.046875 -1.789062 7.484375 -2.203125 7.796875 -2.734375 C 8.109375 -3.273438 8.265625 -3.894531 8.265625 -4.59375 C 8.265625 -5.25 8.117188 -5.816406 7.828125 -6.296875 C 7.546875 -6.785156 7.144531 -7.164062 6.625 -7.4375 C 6.113281 -7.71875 5.503906 -7.859375 4.796875 -7.859375 C 4.328125 -7.859375 3.90625 -7.785156 3.53125 -7.640625 C 3.15625 -7.503906 2.828125 -7.359375 2.546875 -7.203125 C 2.273438 -7.054688 2.054688 -6.984375 1.890625 -6.984375 C 1.734375 -6.984375 1.601562 -7.019531 1.5 -7.09375 C 1.40625 -7.175781 1.34375 -7.273438 1.3125 -7.390625 C 1.28125 -7.503906 1.28125 -7.625 1.3125 -7.75 L 2.140625 -12.890625 C 2.148438 -13.015625 2.207031 -13.125 2.3125 -13.21875 C 2.425781 -13.3125 2.566406 -13.359375 2.734375 -13.359375 L 8.53125 -13.359375 C 8.6875 -13.359375 8.816406 -13.300781 8.921875 -13.1875 C 9.035156 -13.082031 9.09375 -12.953125 9.09375 -12.796875 C 9.09375 -12.628906 9.035156 -12.488281 8.921875 -12.375 C 8.816406 -12.269531 8.6875 -12.21875 8.53125 -12.21875 L 3 -12.21875 L 3.171875 -12.390625 L 2.390625 -7.828125 L 2.046875 -8.078125 C 2.210938 -8.210938 2.453125 -8.34375 2.765625 -8.46875 C 3.078125 -8.59375 3.425781 -8.703125 3.8125 -8.796875 C 4.207031 -8.898438 4.625 -8.953125 5.0625 -8.953125 C 5.894531 -8.953125 6.640625 -8.769531 7.296875 -8.40625 C 7.953125 -8.039062 8.46875 -7.53125 8.84375 -6.875 C 9.21875 -6.226562 9.40625 -5.484375 9.40625 -4.640625 C 9.40625 -3.703125 9.203125 -2.882812 8.796875 -2.1875 C 8.398438 -1.488281 7.832031 -0.941406 7.09375 -0.546875 C 6.363281 -0.160156 5.5 0.03125 4.5 0.03125 Z M 4.5 0.03125 "/></g></g></g></g></g></g><g transform="matrix(1, 0, 0, 1, 2, 151)"><g clip-path="url(#f7cf91d19d)"><g fill="#201f1f" fill-opacity="1"><g transform="translate(0.713639, 20.002325)"><g><path d="M 5.53125 0.1875 C 4.78125 0.1875 4.125 0.0546875 3.5625 -0.203125 C 3.007812 -0.472656 2.550781 -0.835938 2.1875 -1.296875 C 1.820312 -1.753906 1.550781 -2.269531 1.375 -2.84375 C 1.195312 -3.425781 1.109375 -4.019531 1.109375 -4.625 C 1.109375 -5.238281 1.1875 -5.898438 1.34375 -6.609375 C 1.5 -7.328125 1.738281 -8.050781 2.0625 -8.78125 C 2.382812 -9.507812 2.78125 -10.203125 3.25 -10.859375 C 3.71875 -11.515625 4.257812 -12.097656 4.875 -12.609375 C 5.5 -13.128906 6.203125 -13.539062 6.984375 -13.84375 C 7.078125 -13.863281 7.15625 -13.875 7.21875 -13.875 C 7.382812 -13.875 7.523438 -13.828125 7.640625 -13.734375 C 7.765625 -13.648438 7.828125 -13.5 7.828125 -13.28125 C 7.828125 -13.15625 7.785156 -13.039062 7.703125 -12.9375 C 7.617188 -12.84375 7.507812 -12.769531 7.375 -12.71875 C 6.832031 -12.488281 6.296875 -12.160156 5.765625 -11.734375 C 5.242188 -11.316406 4.757812 -10.832031 4.3125 -10.28125 C 3.863281 -9.726562 3.476562 -9.132812 3.15625 -8.5 C 2.84375 -7.863281 2.625 -7.21875 2.5 -6.5625 L 2.078125 -6.3125 C 2.304688 -6.738281 2.601562 -7.113281 2.96875 -7.4375 C 3.332031 -7.769531 3.753906 -8.035156 4.234375 -8.234375 C 4.710938 -8.429688 5.226562 -8.53125 5.78125 -8.53125 C 6.351562 -8.53125 6.882812 -8.40625 7.375 -8.15625 C 7.863281 -7.914062 8.28125 -7.585938 8.625 -7.171875 C 8.976562 -6.753906 9.253906 -6.28125 9.453125 -5.75 C 9.660156 -5.226562 9.765625 -4.6875 9.765625 -4.125 C 9.765625 -3.363281 9.578125 -2.65625 9.203125 -2 C 8.835938 -1.34375 8.335938 -0.8125 7.703125 -0.40625 C 7.066406 -0.0078125 6.34375 0.1875 5.53125 0.1875 Z M 5.5 -0.921875 C 6.09375 -0.921875 6.617188 -1.054688 7.078125 -1.328125 C 7.546875 -1.597656 7.910156 -1.972656 8.171875 -2.453125 C 8.429688 -2.929688 8.5625 -3.488281 8.5625 -4.125 C 8.5625 -4.695312 8.445312 -5.226562 8.21875 -5.71875 C 8 -6.21875 7.664062 -6.625 7.21875 -6.9375 C 6.78125 -7.25 6.234375 -7.40625 5.578125 -7.40625 C 4.898438 -7.40625 4.3125 -7.25 3.8125 -6.9375 C 3.320312 -6.632812 2.945312 -6.226562 2.6875 -5.71875 C 2.425781 -5.21875 2.296875 -4.664062 2.296875 -4.0625 C 2.296875 -3.519531 2.421875 -3.007812 2.671875 -2.53125 C 2.929688 -2.050781 3.300781 -1.660156 3.78125 -1.359375 C 4.257812 -1.066406 4.832031 -0.921875 5.5 -0.921875 Z M 5.5 -0.921875 "/></g></g></g></g></g><g transform="matrix(1, 0, 0, 1, 128, 151)"><g clip-path="url(#1116e90565)"><g fill="#201f1f" fill-opacity="1"><g transform="translate(0.531584, 20.002325)"><g><path d="M 3.421875 0.0625 C 3.273438 0.0625 3.132812 0.0078125 3 -0.09375 C 2.875 -0.195312 2.8125 -0.328125 2.8125 -0.484375 C 2.8125 -0.566406 2.832031 -0.660156 2.875 -0.765625 L 7.984375 -12.53125 L 8.203125 -12.265625 L 1.6875 -12.265625 C 1.539062 -12.265625 1.410156 -12.316406 1.296875 -12.421875 C 1.191406 -12.535156 1.140625 -12.671875 1.140625 -12.828125 C 1.140625 -12.992188 1.191406 -13.125 1.296875 -13.21875 C 1.410156 -13.320312 1.539062 -13.375 1.6875 -13.375 L 8.765625 -13.375 C 8.953125 -13.375 9.085938 -13.320312 9.171875 -13.21875 C 9.265625 -13.125 9.3125 -13 9.3125 -12.84375 C 9.3125 -12.738281 9.296875 -12.640625 9.265625 -12.546875 L 3.96875 -0.328125 C 3.925781 -0.210938 3.851562 -0.117188 3.75 -0.046875 C 3.644531 0.0234375 3.535156 0.0625 3.421875 0.0625 Z M 3.421875 0.0625 "/></g></g></g></g></g><g transform="matrix(1, 0, 0, 1, 254, 151)"><g clip-path="url(#81628bba34)"><g fill="#201f1f" fill-opacity="1"><g transform="translate(0.349512, 20.002325)"><g><path d="M 7 -6.78125 L 6.953125 -6.953125 C 7.390625 -6.785156 7.785156 -6.535156 8.140625 -6.203125 C 8.503906 -5.878906 8.796875 -5.492188 9.015625 -5.046875 C 9.234375 -4.609375 9.34375 -4.125 9.34375 -3.59375 C 9.34375 -2.90625 9.15625 -2.273438 8.78125 -1.703125 C 8.414062 -1.140625 7.921875 -0.691406 7.296875 -0.359375 C 6.671875 -0.0234375 5.972656 0.140625 5.203125 0.140625 C 4.410156 0.140625 3.703125 -0.0234375 3.078125 -0.359375 C 2.460938 -0.691406 1.972656 -1.140625 1.609375 -1.703125 C 1.242188 -2.273438 1.0625 -2.90625 1.0625 -3.59375 C 1.0625 -4.164062 1.171875 -4.671875 1.390625 -5.109375 C 1.617188 -5.554688 1.914062 -5.929688 2.28125 -6.234375 C 2.644531 -6.546875 3.023438 -6.785156 3.421875 -6.953125 L 3.375 -6.75 C 3.019531 -6.914062 2.691406 -7.144531 2.390625 -7.4375 C 2.085938 -7.726562 1.835938 -8.078125 1.640625 -8.484375 C 1.453125 -8.890625 1.359375 -9.332031 1.359375 -9.8125 C 1.359375 -10.507812 1.53125 -11.132812 1.875 -11.6875 C 2.21875 -12.238281 2.679688 -12.671875 3.265625 -12.984375 C 3.847656 -13.304688 4.492188 -13.46875 5.203125 -13.46875 C 5.898438 -13.46875 6.535156 -13.304688 7.109375 -12.984375 C 7.679688 -12.671875 8.132812 -12.238281 8.46875 -11.6875 C 8.8125 -11.132812 8.984375 -10.507812 8.984375 -9.8125 C 8.984375 -9.3125 8.882812 -8.863281 8.6875 -8.46875 C 8.5 -8.070312 8.25 -7.726562 7.9375 -7.4375 C 7.632812 -7.144531 7.320312 -6.925781 7 -6.78125 Z M 2.5625 -9.8125 C 2.5625 -9.300781 2.679688 -8.851562 2.921875 -8.46875 C 3.171875 -8.082031 3.492188 -7.78125 3.890625 -7.5625 C 4.285156 -7.34375 4.722656 -7.234375 5.203125 -7.234375 C 5.660156 -7.234375 6.085938 -7.34375 6.484375 -7.5625 C 6.878906 -7.78125 7.195312 -8.082031 7.4375 -8.46875 C 7.675781 -8.851562 7.796875 -9.300781 7.796875 -9.8125 C 7.796875 -10.570312 7.550781 -11.1875 7.0625 -11.65625 C 6.570312 -12.132812 5.953125 -12.375 5.203125 -12.375 C 4.410156 -12.375 3.769531 -12.132812 3.28125 -11.65625 C 2.800781 -11.1875 2.5625 -10.570312 2.5625 -9.8125 Z M 5.203125 -0.96875 C 6.066406 -0.96875 6.769531 -1.21875 7.3125 -1.71875 C 7.863281 -2.21875 8.140625 -2.84375 8.140625 -3.59375 C 8.140625 -4.113281 8.003906 -4.578125 7.734375 -4.984375 C 7.460938 -5.398438 7.101562 -5.722656 6.65625 -5.953125 C 6.207031 -6.179688 5.722656 -6.296875 5.203125 -6.296875 C 4.671875 -6.296875 4.179688 -6.179688 3.734375 -5.953125 C 3.285156 -5.722656 2.925781 -5.398438 2.65625 -4.984375 C 2.382812 -4.578125 2.25 -4.113281 2.25 -3.59375 C 2.25 -2.84375 2.519531 -2.21875 3.0625 -1.71875 C 3.601562 -1.21875 4.316406 -0.96875 5.203125 -0.96875 Z M 5.203125 -0.96875 "/></g></g></g></g></g><g transform="matrix(1, 0, 0, 1, 380, 151)"><g clip-path="url(#a517c3727e)"><g fill="#201f1f" fill-opacity="1"><g transform="translate(0.167455, 20.002325)"><g><path d="M 5.328125 -13.6875 C 6.085938 -13.6875 6.742188 -13.550781 7.296875 -13.28125 C 7.859375 -13.007812 8.316406 -12.644531 8.671875 -12.1875 C 9.035156 -11.738281 9.304688 -11.222656 9.484375 -10.640625 C 9.671875 -10.066406 9.765625 -9.476562 9.765625 -8.875 C 9.765625 -8.257812 9.679688 -7.601562 9.515625 -6.90625 C 9.359375 -6.207031 9.117188 -5.5 8.796875 -4.78125 C 8.484375 -4.070312 8.09375 -3.394531 7.625 -2.75 C 7.164062 -2.113281 6.617188 -1.535156 5.984375 -1.015625 C 5.359375 -0.503906 4.660156 -0.109375 3.890625 0.171875 C 3.785156 0.203125 3.703125 0.21875 3.640625 0.21875 C 3.484375 0.21875 3.34375 0.160156 3.21875 0.046875 C 3.101562 -0.0546875 3.046875 -0.203125 3.046875 -0.390625 C 3.046875 -0.515625 3.082031 -0.625 3.15625 -0.71875 C 3.226562 -0.8125 3.34375 -0.882812 3.5 -0.9375 C 4.226562 -1.25 4.929688 -1.707031 5.609375 -2.3125 C 6.296875 -2.925781 6.882812 -3.632812 7.375 -4.4375 C 7.875 -5.238281 8.207031 -6.070312 8.375 -6.9375 L 8.78125 -7.1875 C 8.5625 -6.769531 8.265625 -6.394531 7.890625 -6.0625 C 7.515625 -5.726562 7.09375 -5.46875 6.625 -5.28125 C 6.15625 -5.09375 5.644531 -5 5.09375 -5 C 4.28125 -5 3.570312 -5.203125 2.96875 -5.609375 C 2.375 -6.015625 1.914062 -6.550781 1.59375 -7.21875 C 1.269531 -7.882812 1.109375 -8.601562 1.109375 -9.375 C 1.109375 -10.132812 1.289062 -10.835938 1.65625 -11.484375 C 2.03125 -12.140625 2.535156 -12.671875 3.171875 -13.078125 C 3.804688 -13.484375 4.523438 -13.6875 5.328125 -13.6875 Z M 5.375 -12.5625 C 4.769531 -12.5625 4.234375 -12.425781 3.765625 -12.15625 C 3.304688 -11.894531 2.945312 -11.519531 2.6875 -11.03125 C 2.425781 -10.550781 2.296875 -10 2.296875 -9.375 C 2.296875 -8.8125 2.40625 -8.28125 2.625 -7.78125 C 2.851562 -7.28125 3.191406 -6.878906 3.640625 -6.578125 C 4.085938 -6.273438 4.632812 -6.125 5.28125 -6.125 C 5.96875 -6.125 6.554688 -6.273438 7.046875 -6.578125 C 7.535156 -6.878906 7.910156 -7.28125 8.171875 -7.78125 C 8.441406 -8.28125 8.578125 -8.832031 8.578125 -9.4375 C 8.578125 -9.988281 8.445312 -10.5 8.1875 -10.96875 C 7.9375 -11.445312 7.570312 -11.832031 7.09375 -12.125 C 6.625 -12.414062 6.050781 -12.5625 5.375 -12.5625 Z M 5.375 -12.5625 "/></g></g></g></g></g><g transform="matrix(1, 0, 0, 1, 505, 151)"><g clip-path="url(#c940674a83)"><g fill="#201f1f" fill-opacity="1"><g transform="translate(0.985369, 20.002325)"><g><path d="M 4.34375 0 C 4.164062 0 4.019531 -0.0546875 3.90625 -0.171875 C 3.789062 -0.285156 3.734375 -0.421875 3.734375 -0.578125 L 3.734375 -12.171875 L 3.953125 -11.96875 L 1.390625 -10.265625 C 1.285156 -10.179688 1.175781 -10.140625 1.0625 -10.140625 C 0.90625 -10.140625 0.765625 -10.203125 0.640625 -10.328125 C 0.523438 -10.460938 0.46875 -10.609375 0.46875 -10.765625 C 0.46875 -10.960938 0.566406 -11.117188 0.765625 -11.234375 L 3.984375 -13.375 C 4.054688 -13.425781 4.132812 -13.457031 4.21875 -13.46875 C 4.300781 -13.488281 4.378906 -13.488281 4.453125 -13.46875 C 4.617188 -13.457031 4.742188 -13.394531 4.828125 -13.28125 C 4.921875 -13.175781 4.96875 -13.046875 4.96875 -12.890625 L 4.96875 -0.578125 C 4.96875 -0.421875 4.910156 -0.285156 4.796875 -0.171875 C 4.679688 -0.0546875 4.53125 0 4.34375 0 Z M 4.34375 0 "/></g></g></g><g fill="#201f1f" fill-opacity="1"><g transform="translate(8.106946, 20.002325)"><g><path d="M 5.71875 0.1875 C 4.6875 0.1875 3.820312 -0.117188 3.125 -0.734375 C 2.4375 -1.347656 1.921875 -2.175781 1.578125 -3.21875 C 1.234375 -4.269531 1.0625 -5.441406 1.0625 -6.734375 C 1.0625 -8.046875 1.234375 -9.222656 1.578125 -10.265625 C 1.921875 -11.316406 2.4375 -12.144531 3.125 -12.75 C 3.820312 -13.363281 4.6875 -13.671875 5.71875 -13.671875 C 6.769531 -13.671875 7.640625 -13.363281 8.328125 -12.75 C 9.015625 -12.144531 9.53125 -11.316406 9.875 -10.265625 C 10.21875 -9.222656 10.390625 -8.046875 10.390625 -6.734375 C 10.390625 -5.441406 10.21875 -4.269531 9.875 -3.21875 C 9.53125 -2.175781 9.015625 -1.347656 8.328125 -0.734375 C 7.640625 -0.117188 6.769531 0.1875 5.71875 0.1875 Z M 5.71875 -1 C 6.476562 -1 7.109375 -1.234375 7.609375 -1.703125 C 8.117188 -2.179688 8.503906 -2.851562 8.765625 -3.71875 C 9.023438 -4.59375 9.15625 -5.597656 9.15625 -6.734375 C 9.15625 -7.890625 9.023438 -8.898438 8.765625 -9.765625 C 8.503906 -10.628906 8.117188 -11.300781 7.609375 -11.78125 C 7.109375 -12.257812 6.476562 -12.5 5.71875 -12.5 C 4.96875 -12.5 4.335938 -12.257812 3.828125 -11.78125 C 3.328125 -11.300781 2.945312 -10.628906 2.6875 -9.765625 C 2.425781 -8.898438 2.296875 -7.890625 2.296875 -6.734375 C 2.296875 -5.597656 2.425781 -4.59375 2.6875 -3.71875 C 2.945312 -2.851562 3.328125 -2.179688 3.828125 -1.703125 C 4.335938 -1.234375 4.96875 -1 5.71875 -1 Z M 5.71875 -1 "/></g></g></g></g></g><g transform="matrix(1, 0, 0, 1, 631, 151)"><g clip-path="url(#0754e1b4df)"><g fill="#201f1f" fill-opacity="1"><g transform="translate(0.803312, 20.002325)"><g><path d="M 4.34375 0 C 4.164062 0 4.019531 -0.0546875 3.90625 -0.171875 C 3.789062 -0.285156 3.734375 -0.421875 3.734375 -0.578125 L 3.734375 -12.171875 L 3.953125 -11.96875 L 1.390625 -10.265625 C 1.285156 -10.179688 1.175781 -10.140625 1.0625 -10.140625 C 0.90625 -10.140625 0.765625 -10.203125 0.640625 -10.328125 C 0.523438 -10.460938 0.46875 -10.609375 0.46875 -10.765625 C 0.46875 -10.960938 0.566406 -11.117188 0.765625 -11.234375 L 3.984375 -13.375 C 4.054688 -13.425781 4.132812 -13.457031 4.21875 -13.46875 C 4.300781 -13.488281 4.378906 -13.488281 4.453125 -13.46875 C 4.617188 -13.457031 4.742188 -13.394531 4.828125 -13.28125 C 4.921875 -13.175781 4.96875 -13.046875 4.96875 -12.890625 L 4.96875 -0.578125 C 4.96875 -0.421875 4.910156 -0.285156 4.796875 -0.171875 C 4.679688 -0.0546875 4.53125 0 4.34375 0 Z M 4.34375 0 "/></g></g></g><g fill="#201f1f" fill-opacity="1"><g transform="translate(7.92489, 20.002325)"><g><path d="M 4.34375 0 C 4.164062 0 4.019531 -0.0546875 3.90625 -0.171875 C 3.789062 -0.285156 3.734375 -0.421875 3.734375 -0.578125 L 3.734375 -12.171875 L 3.953125 -11.96875 L 1.390625 -10.265625 C 1.285156 -10.179688 1.175781 -10.140625 1.0625 -10.140625 C 0.90625 -10.140625 0.765625 -10.203125 0.640625 -10.328125 C 0.523438 -10.460938 0.46875 -10.609375 0.46875 -10.765625 C 0.46875 -10.960938 0.566406 -11.117188 0.765625 -11.234375 L 3.984375 -13.375 C 4.054688 -13.425781 4.132812 -13.457031 4.21875 -13.46875 C 4.300781 -13.488281 4.378906 -13.488281 4.453125 -13.46875 C 4.617188 -13.457031 4.742188 -13.394531 4.828125 -13.28125 C 4.921875 -13.175781 4.96875 -13.046875 4.96875 -12.890625 L 4.96875 -0.578125 C 4.96875 -0.421875 4.910156 -0.285156 4.796875 -0.171875 C 4.679688 -0.0546875 4.53125 0 4.34375 0 Z M 4.34375 0 "/></g></g></g></g></g><g transform="matrix(1, 0, 0, 1, 757, 151)"><g clip-path="url(#2c0f1c0e92)"><g fill="#201f1f" fill-opacity="1"><g transform="translate(0.621255, 20.002325)"><g><path d="M 4.34375 0 C 4.164062 0 4.019531 -0.0546875 3.90625 -0.171875 C 3.789062 -0.285156 3.734375 -0.421875 3.734375 -0.578125 L 3.734375 -12.171875 L 3.953125 -11.96875 L 1.390625 -10.265625 C 1.285156 -10.179688 1.175781 -10.140625 1.0625 -10.140625 C 0.90625 -10.140625 0.765625 -10.203125 0.640625 -10.328125 C 0.523438 -10.460938 0.46875 -10.609375 0.46875 -10.765625 C 0.46875 -10.960938 0.566406 -11.117188 0.765625 -11.234375 L 3.984375 -13.375 C 4.054688 -13.425781 4.132812 -13.457031 4.21875 -13.46875 C 4.300781 -13.488281 4.378906 -13.488281 4.453125 -13.46875 C 4.617188 -13.457031 4.742188 -13.394531 4.828125 -13.28125 C 4.921875 -13.175781 4.96875 -13.046875 4.96875 -12.890625 L 4.96875 -0.578125 C 4.96875 -0.421875 4.910156 -0.285156 4.796875 -0.171875 C 4.679688 -0.0546875 4.53125 0 4.34375 0 Z M 4.34375 0 "/></g></g></g><g fill="#201f1f" fill-opacity="1"><g transform="translate(7.742833, 20.002325)"><g><path d="M 9.125 -1.109375 C 9.28125 -1.109375 9.410156 -1.054688 9.515625 -0.953125 C 9.628906 -0.847656 9.6875 -0.71875 9.6875 -0.5625 C 9.6875 -0.394531 9.628906 -0.257812 9.515625 -0.15625 C 9.410156 -0.0507812 9.28125 0 9.125 0 L 1.90625 0 C 1.738281 0 1.59375 -0.046875 1.46875 -0.140625 C 1.351562 -0.234375 1.296875 -0.378906 1.296875 -0.578125 C 1.296875 -0.722656 1.34375 -0.859375 1.4375 -0.984375 L 5.890625 -5.890625 C 6.597656 -6.660156 7.128906 -7.367188 7.484375 -8.015625 C 7.835938 -8.660156 8.015625 -9.242188 8.015625 -9.765625 C 8.015625 -10.609375 7.753906 -11.285156 7.234375 -11.796875 C 6.722656 -12.304688 6.03125 -12.5625 5.15625 -12.5625 C 4.757812 -12.5625 4.363281 -12.476562 3.96875 -12.3125 C 3.582031 -12.144531 3.238281 -11.925781 2.9375 -11.65625 C 2.632812 -11.394531 2.398438 -11.085938 2.234375 -10.734375 C 2.160156 -10.609375 2.082031 -10.519531 2 -10.46875 C 1.914062 -10.414062 1.820312 -10.390625 1.71875 -10.390625 C 1.5625 -10.390625 1.425781 -10.4375 1.3125 -10.53125 C 1.195312 -10.632812 1.140625 -10.753906 1.140625 -10.890625 C 1.140625 -10.984375 1.160156 -11.070312 1.203125 -11.15625 C 1.242188 -11.25 1.3125 -11.351562 1.40625 -11.46875 C 1.632812 -11.863281 1.953125 -12.226562 2.359375 -12.5625 C 2.773438 -12.90625 3.234375 -13.175781 3.734375 -13.375 C 4.242188 -13.570312 4.742188 -13.671875 5.234375 -13.671875 C 6.054688 -13.671875 6.765625 -13.507812 7.359375 -13.1875 C 7.960938 -12.875 8.425781 -12.429688 8.75 -11.859375 C 9.070312 -11.296875 9.234375 -10.625 9.234375 -9.84375 C 9.234375 -9.164062 9.023438 -8.429688 8.609375 -7.640625 C 8.191406 -6.859375 7.570312 -6.007812 6.75 -5.09375 L 3 -0.890625 L 2.8125 -1.109375 Z M 9.125 -1.109375 "/></g></g></g></g></g><g transform="matrix(1, 0, 0, 1, 2, 301)"><g clip-path="url(#ca4963ac4a)"><g fill="#201f1f" fill-opacity="1"><g transform="translate(0.713639, 19.759637)"><g><path d="M 4.34375 0 C 4.164062 0 4.019531 -0.0546875 3.90625 -0.171875 C 3.789062 -0.285156 3.734375 -0.421875 3.734375 -0.578125 L 3.734375 -12.171875 L 3.953125 -11.96875 L 1.390625 -10.265625 C 1.285156 -10.179688 1.175781 -10.140625 1.0625 -10.140625 C 0.90625 -10.140625 0.765625 -10.203125 0.640625 -10.328125 C 0.523438 -10.460938 0.46875 -10.609375 0.46875 -10.765625 C 0.46875 -10.960938 0.566406 -11.117188 0.765625 -11.234375 L 3.984375 -13.375 C 4.054688 -13.425781 4.132812 -13.457031 4.21875 -13.46875 C 4.300781 -13.488281 4.378906 -13.488281 4.453125 -13.46875 C 4.617188 -13.457031 4.742188 -13.394531 4.828125 -13.28125 C 4.921875 -13.175781 4.96875 -13.046875 4.96875 -12.890625 L 4.96875 -0.578125 C 4.96875 -0.421875 4.910156 -0.285156 4.796875 -0.171875 C 4.679688 -0.0546875 4.53125 0 4.34375 0 Z M 4.34375 0 "/></g></g></g><g fill="#201f1f" fill-opacity="1"><g transform="translate(7.835217, 19.759637)"><g><path d="M 1.71875 -1.984375 C 1.78125 -1.984375 1.84375 -1.96875 1.90625 -1.9375 C 1.976562 -1.914062 2.066406 -1.859375 2.171875 -1.765625 C 2.441406 -1.484375 2.765625 -1.269531 3.140625 -1.125 C 3.515625 -0.976562 3.9375 -0.90625 4.40625 -0.90625 C 5.03125 -0.90625 5.601562 -1.046875 6.125 -1.328125 C 6.644531 -1.609375 7.054688 -2 7.359375 -2.5 C 7.671875 -3.007812 7.828125 -3.59375 7.828125 -4.25 C 7.828125 -5 7.664062 -5.597656 7.34375 -6.046875 C 7.019531 -6.503906 6.601562 -6.84375 6.09375 -7.0625 C 5.582031 -7.289062 5.066406 -7.40625 4.546875 -7.40625 C 4.398438 -7.40625 4.257812 -7.394531 4.125 -7.375 C 3.988281 -7.363281 3.863281 -7.34375 3.75 -7.3125 C 3.632812 -7.289062 3.546875 -7.28125 3.484375 -7.28125 C 3.316406 -7.28125 3.1875 -7.332031 3.09375 -7.4375 C 3.007812 -7.550781 2.96875 -7.691406 2.96875 -7.859375 C 2.96875 -7.941406 2.984375 -8.019531 3.015625 -8.09375 C 3.054688 -8.164062 3.109375 -8.242188 3.171875 -8.328125 L 7.078125 -12.59375 L 7.3125 -12.28125 L 1.484375 -12.28125 C 1.328125 -12.28125 1.191406 -12.332031 1.078125 -12.4375 C 0.972656 -12.550781 0.921875 -12.6875 0.921875 -12.84375 C 0.921875 -13 0.972656 -13.125 1.078125 -13.21875 C 1.191406 -13.320312 1.328125 -13.375 1.484375 -13.375 L 7.953125 -13.375 C 8.171875 -13.375 8.320312 -13.304688 8.40625 -13.171875 C 8.5 -13.035156 8.546875 -12.90625 8.546875 -12.78125 C 8.546875 -12.707031 8.523438 -12.632812 8.484375 -12.5625 C 8.453125 -12.488281 8.398438 -12.414062 8.328125 -12.34375 L 4.421875 -8.078125 L 4 -8.328125 C 4.039062 -8.367188 4.171875 -8.410156 4.390625 -8.453125 C 4.617188 -8.503906 4.796875 -8.53125 4.921875 -8.53125 C 5.628906 -8.53125 6.296875 -8.363281 6.921875 -8.03125 C 7.546875 -7.695312 8.050781 -7.21875 8.4375 -6.59375 C 8.832031 -5.96875 9.03125 -5.203125 9.03125 -4.296875 C 9.03125 -3.390625 8.816406 -2.597656 8.390625 -1.921875 C 7.960938 -1.253906 7.390625 -0.734375 6.671875 -0.359375 C 5.960938 0.00390625 5.171875 0.1875 4.296875 0.1875 C 3.765625 0.1875 3.242188 0.0976562 2.734375 -0.078125 C 2.222656 -0.253906 1.773438 -0.523438 1.390625 -0.890625 C 1.296875 -0.960938 1.226562 -1.035156 1.1875 -1.109375 C 1.15625 -1.191406 1.140625 -1.269531 1.140625 -1.34375 C 1.140625 -1.5 1.191406 -1.644531 1.296875 -1.78125 C 1.410156 -1.914062 1.550781 -1.984375 1.71875 -1.984375 Z M 1.71875 -1.984375 "/></g></g></g></g></g><g transform="matrix(1, 0, 0, 1, 128, 301)"><g clip-path="url(#c79e678e11)"><g clip-path="url(#727d696213)"><g fill="#201f1f" fill-opacity="1"><g transform="translate(0.531584, 19.759637)"><g><path d="M 4.34375 0 C 4.164062 0 4.019531 -0.0546875 3.90625 -0.171875 C 3.789062 -0.285156 3.734375 -0.421875 3.734375 -0.578125 L 3.734375 -12.171875 L 3.953125 -11.96875 L 1.390625 -10.265625 C 1.285156 -10.179688 1.175781 -10.140625 1.0625 -10.140625 C 0.90625 -10.140625 0.765625 -10.203125 0.640625 -10.328125 C 0.523438 -10.460938 0.46875 -10.609375 0.46875 -10.765625 C 0.46875 -10.960938 0.566406 -11.117188 0.765625 -11.234375 L 3.984375 -13.375 C 4.054688 -13.425781 4.132812 -13.457031 4.21875 -13.46875 C 4.300781 -13.488281 4.378906 -13.488281 4.453125 -13.46875 C 4.617188 -13.457031 4.742188 -13.394531 4.828125 -13.28125 C 4.921875 -13.175781 4.96875 -13.046875 4.96875 -12.890625 L 4.96875 -0.578125 C 4.96875 -0.421875 4.910156 -0.285156 4.796875 -0.171875 C 4.679688 -0.0546875 4.53125 0 4.34375 0 Z M 4.34375 0 "/></g></g></g></g><g fill="#201f1f" fill-opacity="1"><g transform="translate(7.653161, 19.759637)"><g><path d="M 7.0625 0 C 6.894531 0 6.757812 -0.0546875 6.65625 -0.171875 C 6.550781 -0.285156 6.5 -0.421875 6.5 -0.578125 L 6.5 -11.875 L 6.75 -11.71875 L 1.6875 -5.03125 L 1.640625 -5.234375 L 9.03125 -5.234375 C 9.1875 -5.234375 9.316406 -5.179688 9.421875 -5.078125 C 9.535156 -4.972656 9.59375 -4.847656 9.59375 -4.703125 C 9.59375 -4.546875 9.535156 -4.414062 9.421875 -4.3125 C 9.316406 -4.207031 9.1875 -4.15625 9.03125 -4.15625 L 0.84375 -4.15625 C 0.6875 -4.15625 0.550781 -4.21875 0.4375 -4.34375 C 0.320312 -4.46875 0.265625 -4.601562 0.265625 -4.75 C 0.265625 -4.894531 0.3125 -5.023438 0.40625 -5.140625 L 6.609375 -13.25 C 6.671875 -13.332031 6.75 -13.390625 6.84375 -13.421875 C 6.9375 -13.453125 7.015625 -13.46875 7.078125 -13.46875 C 7.242188 -13.46875 7.378906 -13.410156 7.484375 -13.296875 C 7.597656 -13.179688 7.65625 -13.046875 7.65625 -12.890625 L 7.65625 -0.578125 C 7.65625 -0.421875 7.597656 -0.285156 7.484375 -0.171875 C 7.367188 -0.0546875 7.226562 0 7.0625 0 Z M 7.0625 0 "/></g></g></g></g></g><g transform="matrix(1, 0, 0, 1, 254, 301)"><g clip-path="url(#d119d2617c)"><g clip-path="url(#b776b0291f)"><g fill="#201f1f" fill-opacity="1"><g transform="translate(0.349512, 19.759637)"><g><path d="M 4.34375 0 C 4.164062 0 4.019531 -0.0546875 3.90625 -0.171875 C 3.789062 -0.285156 3.734375 -0.421875 3.734375 -0.578125 L 3.734375 -12.171875 L 3.953125 -11.96875 L 1.390625 -10.265625 C 1.285156 -10.179688 1.175781 -10.140625 1.0625 -10.140625 C 0.90625 -10.140625 0.765625 -10.203125 0.640625 -10.328125 C 0.523438 -10.460938 0.46875 -10.609375 0.46875 -10.765625 C 0.46875 -10.960938 0.566406 -11.117188 0.765625 -11.234375 L 3.984375 -13.375 C 4.054688 -13.425781 4.132812 -13.457031 4.21875 -13.46875 C 4.300781 -13.488281 4.378906 -13.488281 4.453125 -13.46875 C 4.617188 -13.457031 4.742188 -13.394531 4.828125 -13.28125 C 4.921875 -13.175781 4.96875 -13.046875 4.96875 -12.890625 L 4.96875 -0.578125 C 4.96875 -0.421875 4.910156 -0.285156 4.796875 -0.171875 C 4.679688 -0.0546875 4.53125 0 4.34375 0 Z M 4.34375 0 "/></g></g></g></g><g fill="#201f1f" fill-opacity="1"><g transform="translate(7.47109, 19.759637)"><g><path d="M 4.5 0.03125 C 3.976562 0.03125 3.453125 -0.0507812 2.921875 -0.21875 C 2.390625 -0.394531 1.914062 -0.65625 1.5 -1 C 1.425781 -1.0625 1.363281 -1.132812 1.3125 -1.21875 C 1.269531 -1.3125 1.25 -1.40625 1.25 -1.5 C 1.25 -1.625 1.300781 -1.75 1.40625 -1.875 C 1.507812 -2 1.644531 -2.0625 1.8125 -2.0625 C 1.945312 -2.0625 2.085938 -2.003906 2.234375 -1.890625 C 2.566406 -1.628906 2.925781 -1.425781 3.3125 -1.28125 C 3.707031 -1.144531 4.101562 -1.078125 4.5 -1.078125 C 5.257812 -1.078125 5.921875 -1.21875 6.484375 -1.5 C 7.046875 -1.789062 7.484375 -2.203125 7.796875 -2.734375 C 8.109375 -3.273438 8.265625 -3.894531 8.265625 -4.59375 C 8.265625 -5.25 8.117188 -5.816406 7.828125 -6.296875 C 7.546875 -6.785156 7.144531 -7.164062 6.625 -7.4375 C 6.113281 -7.71875 5.503906 -7.859375 4.796875 -7.859375 C 4.328125 -7.859375 3.90625 -7.785156 3.53125 -7.640625 C 3.15625 -7.503906 2.828125 -7.359375 2.546875 -7.203125 C 2.273438 -7.054688 2.054688 -6.984375 1.890625 -6.984375 C 1.734375 -6.984375 1.601562 -7.019531 1.5 -7.09375 C 1.40625 -7.175781 1.34375 -7.273438 1.3125 -7.390625 C 1.28125 -7.503906 1.28125 -7.625 1.3125 -7.75 L 2.140625 -12.890625 C 2.148438 -13.015625 2.207031 -13.125 2.3125 -13.21875 C 2.425781 -13.3125 2.566406 -13.359375 2.734375 -13.359375 L 8.53125 -13.359375 C 8.6875 -13.359375 8.816406 -13.300781 8.921875 -13.1875 C 9.035156 -13.082031 9.09375 -12.953125 9.09375 -12.796875 C 9.09375 -12.628906 9.035156 -12.488281 8.921875 -12.375 C 8.816406 -12.269531 8.6875 -12.21875 8.53125 -12.21875 L 3 -12.21875 L 3.171875 -12.390625 L 2.390625 -7.828125 L 2.046875 -8.078125 C 2.210938 -8.210938 2.453125 -8.34375 2.765625 -8.46875 C 3.078125 -8.59375 3.425781 -8.703125 3.8125 -8.796875 C 4.207031 -8.898438 4.625 -8.953125 5.0625 -8.953125 C 5.894531 -8.953125 6.640625 -8.769531 7.296875 -8.40625 C 7.953125 -8.039062 8.46875 -7.53125 8.84375 -6.875 C 9.21875 -6.226562 9.40625 -5.484375 9.40625 -4.640625 C 9.40625 -3.703125 9.203125 -2.882812 8.796875 -2.1875 C 8.398438 -1.488281 7.832031 -0.941406 7.09375 -0.546875 C 6.363281 -0.160156 5.5 0.03125 4.5 0.03125 Z M 4.5 0.03125 "/></g></g></g></g></g><g transform="matrix(1, 0, 0, 1, 380, 301)"><g clip-path="url(#844dcf0ae4)"><g clip-path="url(#4af23f411e)"><g fill="#201f1f" fill-opacity="1"><g transform="translate(0.167455, 19.759637)"><g><path d="M 4.34375 0 C 4.164062 0 4.019531 -0.0546875 3.90625 -0.171875 C 3.789062 -0.285156 3.734375 -0.421875 3.734375 -0.578125 L 3.734375 -12.171875 L 3.953125 -11.96875 L 1.390625 -10.265625 C 1.285156 -10.179688 1.175781 -10.140625 1.0625 -10.140625 C 0.90625 -10.140625 0.765625 -10.203125 0.640625 -10.328125 C 0.523438 -10.460938 0.46875 -10.609375 0.46875 -10.765625 C 0.46875 -10.960938 0.566406 -11.117188 0.765625 -11.234375 L 3.984375 -13.375 C 4.054688 -13.425781 4.132812 -13.457031 4.21875 -13.46875 C 4.300781 -13.488281 4.378906 -13.488281 4.453125 -13.46875 C 4.617188 -13.457031 4.742188 -13.394531 4.828125 -13.28125 C 4.921875 -13.175781 4.96875 -13.046875 4.96875 -12.890625 L 4.96875 -0.578125 C 4.96875 -0.421875 4.910156 -0.285156 4.796875 -0.171875 C 4.679688 -0.0546875 4.53125 0 4.34375 0 Z M 4.34375 0 "/></g></g></g></g><g clip-path="url(#e5b26a1c6c)"><g fill="#201f1f" fill-opacity="1"><g transform="translate(7.289033, 19.759637)"><g><path d="M 5.53125 0.1875 C 4.78125 0.1875 4.125 0.0546875 3.5625 -0.203125 C 3.007812 -0.472656 2.550781 -0.835938 2.1875 -1.296875 C 1.820312 -1.753906 1.550781 -2.269531 1.375 -2.84375 C 1.195312 -3.425781 1.109375 -4.019531 1.109375 -4.625 C 1.109375 -5.238281 1.1875 -5.898438 1.34375 -6.609375 C 1.5 -7.328125 1.738281 -8.050781 2.0625 -8.78125 C 2.382812 -9.507812 2.78125 -10.203125 3.25 -10.859375 C 3.71875 -11.515625 4.257812 -12.097656 4.875 -12.609375 C 5.5 -13.128906 6.203125 -13.539062 6.984375 -13.84375 C 7.078125 -13.863281 7.15625 -13.875 7.21875 -13.875 C 7.382812 -13.875 7.523438 -13.828125 7.640625 -13.734375 C 7.765625 -13.648438 7.828125 -13.5 7.828125 -13.28125 C 7.828125 -13.15625 7.785156 -13.039062 7.703125 -12.9375 C 7.617188 -12.84375 7.507812 -12.769531 7.375 -12.71875 C 6.832031 -12.488281 6.296875 -12.160156 5.765625 -11.734375 C 5.242188 -11.316406 4.757812 -10.832031 4.3125 -10.28125 C 3.863281 -9.726562 3.476562 -9.132812 3.15625 -8.5 C 2.84375 -7.863281 2.625 -7.21875 2.5 -6.5625 L 2.078125 -6.3125 C 2.304688 -6.738281 2.601562 -7.113281 2.96875 -7.4375 C 3.332031 -7.769531 3.753906 -8.035156 4.234375 -8.234375 C 4.710938 -8.429688 5.226562 -8.53125 5.78125 -8.53125 C 6.351562 -8.53125 6.882812 -8.40625 7.375 -8.15625 C 7.863281 -7.914062 8.28125 -7.585938 8.625 -7.171875 C 8.976562 -6.753906 9.253906 -6.28125 9.453125 -5.75 C 9.660156 -5.226562 9.765625 -4.6875 9.765625 -4.125 C 9.765625 -3.363281 9.578125 -2.65625 9.203125 -2 C 8.835938 -1.34375 8.335938 -0.8125 7.703125 -0.40625 C 7.066406 -0.0078125 6.34375 0.1875 5.53125 0.1875 Z M 5.5 -0.921875 C 6.09375 -0.921875 6.617188 -1.054688 7.078125 -1.328125 C 7.546875 -1.597656 7.910156 -1.972656 8.171875 -2.453125 C 8.429688 -2.929688 8.5625 -3.488281 8.5625 -4.125 C 8.5625 -4.695312 8.445312 -5.226562 8.21875 -5.71875 C 8 -6.21875 7.664062 -6.625 7.21875 -6.9375 C 6.78125 -7.25 6.234375 -7.40625 5.578125 -7.40625 C 4.898438 -7.40625 4.3125 -7.25 3.8125 -6.9375 C 3.320312 -6.632812 2.945312 -6.226562 2.6875 -5.71875 C 2.425781 -5.21875 2.296875 -4.664062 2.296875 -4.0625 C 2.296875 -3.519531 2.421875 -3.007812 2.671875 -2.53125 C 2.929688 -2.050781 3.300781 -1.660156 3.78125 -1.359375 C 4.257812 -1.066406 4.832031 -0.921875 5.5 -0.921875 Z M 5.5 -0.921875 "/></g></g></g></g></g></g><g transform="matrix(1, 0, 0, 1, 505, 301)"><g clip-path="url(#ca8b5398c4)"><g fill="#201f1f" fill-opacity="1"><g transform="translate(0.985369, 19.759637)"><g><path d="M 4.34375 0 C 4.164062 0 4.019531 -0.0546875 3.90625 -0.171875 C 3.789062 -0.285156 3.734375 -0.421875 3.734375 -0.578125 L 3.734375 -12.171875 L 3.953125 -11.96875 L 1.390625 -10.265625 C 1.285156 -10.179688 1.175781 -10.140625 1.0625 -10.140625 C 0.90625 -10.140625 0.765625 -10.203125 0.640625 -10.328125 C 0.523438 -10.460938 0.46875 -10.609375 0.46875 -10.765625 C 0.46875 -10.960938 0.566406 -11.117188 0.765625 -11.234375 L 3.984375 -13.375 C 4.054688 -13.425781 4.132812 -13.457031 4.21875 -13.46875 C 4.300781 -13.488281 4.378906 -13.488281 4.453125 -13.46875 C 4.617188 -13.457031 4.742188 -13.394531 4.828125 -13.28125 C 4.921875 -13.175781 4.96875 -13.046875 4.96875 -12.890625 L 4.96875 -0.578125 C 4.96875 -0.421875 4.910156 -0.285156 4.796875 -0.171875 C 4.679688 -0.0546875 4.53125 0 4.34375 0 Z M 4.34375 0 "/></g></g></g><g fill="#201f1f" fill-opacity="1"><g transform="translate(8.106946, 19.759637)"><g><path d="M 3.421875 0.0625 C 3.273438 0.0625 3.132812 0.0078125 3 -0.09375 C 2.875 -0.195312 2.8125 -0.328125 2.8125 -0.484375 C 2.8125 -0.566406 2.832031 -0.660156 2.875 -0.765625 L 7.984375 -12.53125 L 8.203125 -12.265625 L 1.6875 -12.265625 C 1.539062 -12.265625 1.410156 -12.316406 1.296875 -12.421875 C 1.191406 -12.535156 1.140625 -12.671875 1.140625 -12.828125 C 1.140625 -12.992188 1.191406 -13.125 1.296875 -13.21875 C 1.410156 -13.320312 1.539062 -13.375 1.6875 -13.375 L 8.765625 -13.375 C 8.953125 -13.375 9.085938 -13.320312 9.171875 -13.21875 C 9.265625 -13.125 9.3125 -13 9.3125 -12.84375 C 9.3125 -12.738281 9.296875 -12.640625 9.265625 -12.546875 L 3.96875 -0.328125 C 3.925781 -0.210938 3.851562 -0.117188 3.75 -0.046875 C 3.644531 0.0234375 3.535156 0.0625 3.421875 0.0625 Z M 3.421875 0.0625 "/></g></g></g></g></g><g transform="matrix(1, 0, 0, 1, 631, 301)"><g clip-path="url(#74450f3efb)"><g fill="#201f1f" fill-opacity="1"><g transform="translate(0.803312, 19.759637)"><g><path d="M 4.34375 0 C 4.164062 0 4.019531 -0.0546875 3.90625 -0.171875 C 3.789062 -0.285156 3.734375 -0.421875 3.734375 -0.578125 L 3.734375 -12.171875 L 3.953125 -11.96875 L 1.390625 -10.265625 C 1.285156 -10.179688 1.175781 -10.140625 1.0625 -10.140625 C 0.90625 -10.140625 0.765625 -10.203125 0.640625 -10.328125 C 0.523438 -10.460938 0.46875 -10.609375 0.46875 -10.765625 C 0.46875 -10.960938 0.566406 -11.117188 0.765625 -11.234375 L 3.984375 -13.375 C 4.054688 -13.425781 4.132812 -13.457031 4.21875 -13.46875 C 4.300781 -13.488281 4.378906 -13.488281 4.453125 -13.46875 C 4.617188 -13.457031 4.742188 -13.394531 4.828125 -13.28125 C 4.921875 -13.175781 4.96875 -13.046875 4.96875 -12.890625 L 4.96875 -0.578125 C 4.96875 -0.421875 4.910156 -0.285156 4.796875 -0.171875 C 4.679688 -0.0546875 4.53125 0 4.34375 0 Z M 4.34375 0 "/></g></g></g><g fill="#201f1f" fill-opacity="1"><g transform="translate(7.92489, 19.759637)"><g><path d="M 7 -6.78125 L 6.953125 -6.953125 C 7.390625 -6.785156 7.785156 -6.535156 8.140625 -6.203125 C 8.503906 -5.878906 8.796875 -5.492188 9.015625 -5.046875 C 9.234375 -4.609375 9.34375 -4.125 9.34375 -3.59375 C 9.34375 -2.90625 9.15625 -2.273438 8.78125 -1.703125 C 8.414062 -1.140625 7.921875 -0.691406 7.296875 -0.359375 C 6.671875 -0.0234375 5.972656 0.140625 5.203125 0.140625 C 4.410156 0.140625 3.703125 -0.0234375 3.078125 -0.359375 C 2.460938 -0.691406 1.972656 -1.140625 1.609375 -1.703125 C 1.242188 -2.273438 1.0625 -2.90625 1.0625 -3.59375 C 1.0625 -4.164062 1.171875 -4.671875 1.390625 -5.109375 C 1.617188 -5.554688 1.914062 -5.929688 2.28125 -6.234375 C 2.644531 -6.546875 3.023438 -6.785156 3.421875 -6.953125 L 3.375 -6.75 C 3.019531 -6.914062 2.691406 -7.144531 2.390625 -7.4375 C 2.085938 -7.726562 1.835938 -8.078125 1.640625 -8.484375 C 1.453125 -8.890625 1.359375 -9.332031 1.359375 -9.8125 C 1.359375 -10.507812 1.53125 -11.132812 1.875 -11.6875 C 2.21875 -12.238281 2.679688 -12.671875 3.265625 -12.984375 C 3.847656 -13.304688 4.492188 -13.46875 5.203125 -13.46875 C 5.898438 -13.46875 6.535156 -13.304688 7.109375 -12.984375 C 7.679688 -12.671875 8.132812 -12.238281 8.46875 -11.6875 C 8.8125 -11.132812 8.984375 -10.507812 8.984375 -9.8125 C 8.984375 -9.3125 8.882812 -8.863281 8.6875 -8.46875 C 8.5 -8.070312 8.25 -7.726562 7.9375 -7.4375 C 7.632812 -7.144531 7.320312 -6.925781 7 -6.78125 Z M 2.5625 -9.8125 C 2.5625 -9.300781 2.679688 -8.851562 2.921875 -8.46875 C 3.171875 -8.082031 3.492188 -7.78125 3.890625 -7.5625 C 4.285156 -7.34375 4.722656 -7.234375 5.203125 -7.234375 C 5.660156 -7.234375 6.085938 -7.34375 6.484375 -7.5625 C 6.878906 -7.78125 7.195312 -8.082031 7.4375 -8.46875 C 7.675781 -8.851562 7.796875 -9.300781 7.796875 -9.8125 C 7.796875 -10.570312 7.550781 -11.1875 7.0625 -11.65625 C 6.570312 -12.132812 5.953125 -12.375 5.203125 -12.375 C 4.410156 -12.375 3.769531 -12.132812 3.28125 -11.65625 C 2.800781 -11.1875 2.5625 -10.570312 2.5625 -9.8125 Z M 5.203125 -0.96875 C 6.066406 -0.96875 6.769531 -1.21875 7.3125 -1.71875 C 7.863281 -2.21875 8.140625 -2.84375 8.140625 -3.59375 C 8.140625 -4.113281 8.003906 -4.578125 7.734375 -4.984375 C 7.460938 -5.398438 7.101562 -5.722656 6.65625 -5.953125 C 6.207031 -6.179688 5.722656 -6.296875 5.203125 -6.296875 C 4.671875 -6.296875 4.179688 -6.179688 3.734375 -5.953125 C 3.285156 -5.722656 2.925781 -5.398438 2.65625 -4.984375 C 2.382812 -4.578125 2.25 -4.113281 2.25 -3.59375 C 2.25 -2.84375 2.519531 -2.21875 3.0625 -1.71875 C 3.601562 -1.21875 4.316406 -0.96875 5.203125 -0.96875 Z M 5.203125 -0.96875 "/></g></g></g></g></g><g transform="matrix(1, 0, 0, 1, 757, 301)"><g clip-path="url(#fe2ebdf0e7)"><g fill="#201f1f" fill-opacity="1"><g transform="translate(0.621255, 19.759637)"><g><path d="M 4.34375 0 C 4.164062 0 4.019531 -0.0546875 3.90625 -0.171875 C 3.789062 -0.285156 3.734375 -0.421875 3.734375 -0.578125 L 3.734375 -12.171875 L 3.953125 -11.96875 L 1.390625 -10.265625 C 1.285156 -10.179688 1.175781 -10.140625 1.0625 -10.140625 C 0.90625 -10.140625 0.765625 -10.203125 0.640625 -10.328125 C 0.523438 -10.460938 0.46875 -10.609375 0.46875 -10.765625 C 0.46875 -10.960938 0.566406 -11.117188 0.765625 -11.234375 L 3.984375 -13.375 C 4.054688 -13.425781 4.132812 -13.457031 4.21875 -13.46875 C 4.300781 -13.488281 4.378906 -13.488281 4.453125 -13.46875 C 4.617188 -13.457031 4.742188 -13.394531 4.828125 -13.28125 C 4.921875 -13.175781 4.96875 -13.046875 4.96875 -12.890625 L 4.96875 -0.578125 C 4.96875 -0.421875 4.910156 -0.285156 4.796875 -0.171875 C 4.679688 -0.0546875 4.53125 0 4.34375 0 Z M 4.34375 0 "/></g></g></g><g fill="#201f1f" fill-opacity="1"><g transform="translate(7.742833, 19.759637)"><g><path d="M 5.328125 -13.6875 C 6.085938 -13.6875 6.742188 -13.550781 7.296875 -13.28125 C 7.859375 -13.007812 8.316406 -12.644531 8.671875 -12.1875 C 9.035156 -11.738281 9.304688 -11.222656 9.484375 -10.640625 C 9.671875 -10.066406 9.765625 -9.476562 9.765625 -8.875 C 9.765625 -8.257812 9.679688 -7.601562 9.515625 -6.90625 C 9.359375 -6.207031 9.117188 -5.5 8.796875 -4.78125 C 8.484375 -4.070312 8.09375 -3.394531 7.625 -2.75 C 7.164062 -2.113281 6.617188 -1.535156 5.984375 -1.015625 C 5.359375 -0.503906 4.660156 -0.109375 3.890625 0.171875 C 3.785156 0.203125 3.703125 0.21875 3.640625 0.21875 C 3.484375 0.21875 3.34375 0.160156 3.21875 0.046875 C 3.101562 -0.0546875 3.046875 -0.203125 3.046875 -0.390625 C 3.046875 -0.515625 3.082031 -0.625 3.15625 -0.71875 C 3.226562 -0.8125 3.34375 -0.882812 3.5 -0.9375 C 4.226562 -1.25 4.929688 -1.707031 5.609375 -2.3125 C 6.296875 -2.925781 6.882812 -3.632812 7.375 -4.4375 C 7.875 -5.238281 8.207031 -6.070312 8.375 -6.9375 L 8.78125 -7.1875 C 8.5625 -6.769531 8.265625 -6.394531 7.890625 -6.0625 C 7.515625 -5.726562 7.09375 -5.46875 6.625 -5.28125 C 6.15625 -5.09375 5.644531 -5 5.09375 -5 C 4.28125 -5 3.570312 -5.203125 2.96875 -5.609375 C 2.375 -6.015625 1.914062 -6.550781 1.59375 -7.21875 C 1.269531 -7.882812 1.109375 -8.601562 1.109375 -9.375 C 1.109375 -10.132812 1.289062 -10.835938 1.65625 -11.484375 C 2.03125 -12.140625 2.535156 -12.671875 3.171875 -13.078125 C 3.804688 -13.484375 4.523438 -13.6875 5.328125 -13.6875 Z M 5.375 -12.5625 C 4.769531 -12.5625 4.234375 -12.425781 3.765625 -12.15625 C 3.304688 -11.894531 2.945312 -11.519531 2.6875 -11.03125 C 2.425781 -10.550781 2.296875 -10 2.296875 -9.375 C 2.296875 -8.8125 2.40625 -8.28125 2.625 -7.78125 C 2.851562 -7.28125 3.191406 -6.878906 3.640625 -6.578125 C 4.085938 -6.273438 4.632812 -6.125 5.28125 -6.125 C 5.96875 -6.125 6.554688 -6.273438 7.046875 -6.578125 C 7.535156 -6.878906 7.910156 -7.28125 8.171875 -7.78125 C 8.441406 -8.28125 8.578125 -8.832031 8.578125 -9.4375 C 8.578125 -9.988281 8.445312 -10.5 8.1875 -10.96875 C 7.9375 -11.445312 7.570312 -11.832031 7.09375 -12.125 C 6.625 -12.414062 6.050781 -12.5625 5.375 -12.5625 Z M 5.375 -12.5625 "/></g></g></g></g></g><g clip-path="url(#e26bb751d1)"><g transform="matrix(1, 0, 0, 1, 2, 450)"><g clip-path="url(#33e67d063d)"><g fill="#201f1f" fill-opacity="1"><g transform="translate(0.713639, 20.516817)"><g><path d="M 9.125 -1.109375 C 9.28125 -1.109375 9.410156 -1.054688 9.515625 -0.953125 C 9.628906 -0.847656 9.6875 -0.71875 9.6875 -0.5625 C 9.6875 -0.394531 9.628906 -0.257812 9.515625 -0.15625 C 9.410156 -0.0507812 9.28125 0 9.125 0 L 1.90625 0 C 1.738281 0 1.59375 -0.046875 1.46875 -0.140625 C 1.351562 -0.234375 1.296875 -0.378906 1.296875 -0.578125 C 1.296875 -0.722656 1.34375 -0.859375 1.4375 -0.984375 L 5.890625 -5.890625 C 6.597656 -6.660156 7.128906 -7.367188 7.484375 -8.015625 C 7.835938 -8.660156 8.015625 -9.242188 8.015625 -9.765625 C 8.015625 -10.609375 7.753906 -11.285156 7.234375 -11.796875 C 6.722656 -12.304688 6.03125 -12.5625 5.15625 -12.5625 C 4.757812 -12.5625 4.363281 -12.476562 3.96875 -12.3125 C 3.582031 -12.144531 3.238281 -11.925781 2.9375 -11.65625 C 2.632812 -11.394531 2.398438 -11.085938 2.234375 -10.734375 C 2.160156 -10.609375 2.082031 -10.519531 2 -10.46875 C 1.914062 -10.414062 1.820312 -10.390625 1.71875 -10.390625 C 1.5625 -10.390625 1.425781 -10.4375 1.3125 -10.53125 C 1.195312 -10.632812 1.140625 -10.753906 1.140625 -10.890625 C 1.140625 -10.984375 1.160156 -11.070312 1.203125 -11.15625 C 1.242188 -11.25 1.3125 -11.351562 1.40625 -11.46875 C 1.632812 -11.863281 1.953125 -12.226562 2.359375 -12.5625 C 2.773438 -12.90625 3.234375 -13.175781 3.734375 -13.375 C 4.242188 -13.570312 4.742188 -13.671875 5.234375 -13.671875 C 6.054688 -13.671875 6.765625 -13.507812 7.359375 -13.1875 C 7.960938 -12.875 8.425781 -12.429688 8.75 -11.859375 C 9.070312 -11.296875 9.234375 -10.625 9.234375 -9.84375 C 9.234375 -9.164062 9.023438 -8.429688 8.609375 -7.640625 C 8.191406 -6.859375 7.570312 -6.007812 6.75 -5.09375 L 3 -0.890625 L 2.8125 -1.109375 Z M 9.125 -1.109375 "/></g></g></g><g fill="#201f1f" fill-opacity="1"><g transform="translate(11.376755, 20.516817)"><g><path d="M 5.71875 0.1875 C 4.6875 0.1875 3.820312 -0.117188 3.125 -0.734375 C 2.4375 -1.347656 1.921875 -2.175781 1.578125 -3.21875 C 1.234375 -4.269531 1.0625 -5.441406 1.0625 -6.734375 C 1.0625 -8.046875 1.234375 -9.222656 1.578125 -10.265625 C 1.921875 -11.316406 2.4375 -12.144531 3.125 -12.75 C 3.820312 -13.363281 4.6875 -13.671875 5.71875 -13.671875 C 6.769531 -13.671875 7.640625 -13.363281 8.328125 -12.75 C 9.015625 -12.144531 9.53125 -11.316406 9.875 -10.265625 C 10.21875 -9.222656 10.390625 -8.046875 10.390625 -6.734375 C 10.390625 -5.441406 10.21875 -4.269531 9.875 -3.21875 C 9.53125 -2.175781 9.015625 -1.347656 8.328125 -0.734375 C 7.640625 -0.117188 6.769531 0.1875 5.71875 0.1875 Z M 5.71875 -1 C 6.476562 -1 7.109375 -1.234375 7.609375 -1.703125 C 8.117188 -2.179688 8.503906 -2.851562 8.765625 -3.71875 C 9.023438 -4.59375 9.15625 -5.597656 9.15625 -6.734375 C 9.15625 -7.890625 9.023438 -8.898438 8.765625 -9.765625 C 8.503906 -10.628906 8.117188 -11.300781 7.609375 -11.78125 C 7.109375 -12.257812 6.476562 -12.5 5.71875 -12.5 C 4.96875 -12.5 4.335938 -12.257812 3.828125 -11.78125 C 3.328125 -11.300781 2.945312 -10.628906 2.6875 -9.765625 C 2.425781 -8.898438 2.296875 -7.890625 2.296875 -6.734375 C 2.296875 -5.597656 2.425781 -4.59375 2.6875 -3.71875 C 2.945312 -2.851562 3.328125 -2.179688 3.828125 -1.703125 C 4.335938 -1.234375 4.96875 -1 5.71875 -1 Z M 5.71875 -1 "/></g></g></g></g></g></g><g clip-path="url(#a74d94858c)"><g transform="matrix(1, 0, 0, 1, 128, 450)"><g clip-path="url(#54157e4e4e)"><g fill="#201f1f" fill-opacity="1"><g transform="translate(0.531584, 20.516817)"><g><path d="M 9.125 -1.109375 C 9.28125 -1.109375 9.410156 -1.054688 9.515625 -0.953125 C 9.628906 -0.847656 9.6875 -0.71875 9.6875 -0.5625 C 9.6875 -0.394531 9.628906 -0.257812 9.515625 -0.15625 C 9.410156 -0.0507812 9.28125 0 9.125 0 L 1.90625 0 C 1.738281 0 1.59375 -0.046875 1.46875 -0.140625 C 1.351562 -0.234375 1.296875 -0.378906 1.296875 -0.578125 C 1.296875 -0.722656 1.34375 -0.859375 1.4375 -0.984375 L 5.890625 -5.890625 C 6.597656 -6.660156 7.128906 -7.367188 7.484375 -8.015625 C 7.835938 -8.660156 8.015625 -9.242188 8.015625 -9.765625 C 8.015625 -10.609375 7.753906 -11.285156 7.234375 -11.796875 C 6.722656 -12.304688 6.03125 -12.5625 5.15625 -12.5625 C 4.757812 -12.5625 4.363281 -12.476562 3.96875 -12.3125 C 3.582031 -12.144531 3.238281 -11.925781 2.9375 -11.65625 C 2.632812 -11.394531 2.398438 -11.085938 2.234375 -10.734375 C 2.160156 -10.609375 2.082031 -10.519531 2 -10.46875 C 1.914062 -10.414062 1.820312 -10.390625 1.71875 -10.390625 C 1.5625 -10.390625 1.425781 -10.4375 1.3125 -10.53125 C 1.195312 -10.632812 1.140625 -10.753906 1.140625 -10.890625 C 1.140625 -10.984375 1.160156 -11.070312 1.203125 -11.15625 C 1.242188 -11.25 1.3125 -11.351562 1.40625 -11.46875 C 1.632812 -11.863281 1.953125 -12.226562 2.359375 -12.5625 C 2.773438 -12.90625 3.234375 -13.175781 3.734375 -13.375 C 4.242188 -13.570312 4.742188 -13.671875 5.234375 -13.671875 C 6.054688 -13.671875 6.765625 -13.507812 7.359375 -13.1875 C 7.960938 -12.875 8.425781 -12.429688 8.75 -11.859375 C 9.070312 -11.296875 9.234375 -10.625 9.234375 -9.84375 C 9.234375 -9.164062 9.023438 -8.429688 8.609375 -7.640625 C 8.191406 -6.859375 7.570312 -6.007812 6.75 -5.09375 L 3 -0.890625 L 2.8125 -1.109375 Z M 9.125 -1.109375 "/></g></g></g><g fill="#201f1f" fill-opacity="1"><g transform="translate(11.1947, 20.516817)"><g><path d="M 4.34375 0 C 4.164062 0 4.019531 -0.0546875 3.90625 -0.171875 C 3.789062 -0.285156 3.734375 -0.421875 3.734375 -0.578125 L 3.734375 -12.171875 L 3.953125 -11.96875 L 1.390625 -10.265625 C 1.285156 -10.179688 1.175781 -10.140625 1.0625 -10.140625 C 0.90625 -10.140625 0.765625 -10.203125 0.640625 -10.328125 C 0.523438 -10.460938 0.46875 -10.609375 0.46875 -10.765625 C 0.46875 -10.960938 0.566406 -11.117188 0.765625 -11.234375 L 3.984375 -13.375 C 4.054688 -13.425781 4.132812 -13.457031 4.21875 -13.46875 C 4.300781 -13.488281 4.378906 -13.488281 4.453125 -13.46875 C 4.617188 -13.457031 4.742188 -13.394531 4.828125 -13.28125 C 4.921875 -13.175781 4.96875 -13.046875 4.96875 -12.890625 L 4.96875 -0.578125 C 4.96875 -0.421875 4.910156 -0.285156 4.796875 -0.171875 C 4.679688 -0.0546875 4.53125 0 4.34375 0 Z M 4.34375 0 "/></g></g></g></g></g></g><g clip-path="url(#2c6a83e5d0)"><g transform="matrix(1, 0, 0, 1, 254, 450)"><g clip-path="url(#1d1bbee241)"><g fill="#201f1f" fill-opacity="1"><g transform="translate(0.349512, 20.516817)"><g><path d="M 9.125 -1.109375 C 9.28125 -1.109375 9.410156 -1.054688 9.515625 -0.953125 C 9.628906 -0.847656 9.6875 -0.71875 9.6875 -0.5625 C 9.6875 -0.394531 9.628906 -0.257812 9.515625 -0.15625 C 9.410156 -0.0507812 9.28125 0 9.125 0 L 1.90625 0 C 1.738281 0 1.59375 -0.046875 1.46875 -0.140625 C 1.351562 -0.234375 1.296875 -0.378906 1.296875 -0.578125 C 1.296875 -0.722656 1.34375 -0.859375 1.4375 -0.984375 L 5.890625 -5.890625 C 6.597656 -6.660156 7.128906 -7.367188 7.484375 -8.015625 C 7.835938 -8.660156 8.015625 -9.242188 8.015625 -9.765625 C 8.015625 -10.609375 7.753906 -11.285156 7.234375 -11.796875 C 6.722656 -12.304688 6.03125 -12.5625 5.15625 -12.5625 C 4.757812 -12.5625 4.363281 -12.476562 3.96875 -12.3125 C 3.582031 -12.144531 3.238281 -11.925781 2.9375 -11.65625 C 2.632812 -11.394531 2.398438 -11.085938 2.234375 -10.734375 C 2.160156 -10.609375 2.082031 -10.519531 2 -10.46875 C 1.914062 -10.414062 1.820312 -10.390625 1.71875 -10.390625 C 1.5625 -10.390625 1.425781 -10.4375 1.3125 -10.53125 C 1.195312 -10.632812 1.140625 -10.753906 1.140625 -10.890625 C 1.140625 -10.984375 1.160156 -11.070312 1.203125 -11.15625 C 1.242188 -11.25 1.3125 -11.351562 1.40625 -11.46875 C 1.632812 -11.863281 1.953125 -12.226562 2.359375 -12.5625 C 2.773438 -12.90625 3.234375 -13.175781 3.734375 -13.375 C 4.242188 -13.570312 4.742188 -13.671875 5.234375 -13.671875 C 6.054688 -13.671875 6.765625 -13.507812 7.359375 -13.1875 C 7.960938 -12.875 8.425781 -12.429688 8.75 -11.859375 C 9.070312 -11.296875 9.234375 -10.625 9.234375 -9.84375 C 9.234375 -9.164062 9.023438 -8.429688 8.609375 -7.640625 C 8.191406 -6.859375 7.570312 -6.007812 6.75 -5.09375 L 3 -0.890625 L 2.8125 -1.109375 Z M 9.125 -1.109375 "/></g></g></g><g fill="#201f1f" fill-opacity="1"><g transform="translate(11.012628, 20.516817)"><g><path d="M 9.125 -1.109375 C 9.28125 -1.109375 9.410156 -1.054688 9.515625 -0.953125 C 9.628906 -0.847656 9.6875 -0.71875 9.6875 -0.5625 C 9.6875 -0.394531 9.628906 -0.257812 9.515625 -0.15625 C 9.410156 -0.0507812 9.28125 0 9.125 0 L 1.90625 0 C 1.738281 0 1.59375 -0.046875 1.46875 -0.140625 C 1.351562 -0.234375 1.296875 -0.378906 1.296875 -0.578125 C 1.296875 -0.722656 1.34375 -0.859375 1.4375 -0.984375 L 5.890625 -5.890625 C 6.597656 -6.660156 7.128906 -7.367188 7.484375 -8.015625 C 7.835938 -8.660156 8.015625 -9.242188 8.015625 -9.765625 C 8.015625 -10.609375 7.753906 -11.285156 7.234375 -11.796875 C 6.722656 -12.304688 6.03125 -12.5625 5.15625 -12.5625 C 4.757812 -12.5625 4.363281 -12.476562 3.96875 -12.3125 C 3.582031 -12.144531 3.238281 -11.925781 2.9375 -11.65625 C 2.632812 -11.394531 2.398438 -11.085938 2.234375 -10.734375 C 2.160156 -10.609375 2.082031 -10.519531 2 -10.46875 C 1.914062 -10.414062 1.820312 -10.390625 1.71875 -10.390625 C 1.5625 -10.390625 1.425781 -10.4375 1.3125 -10.53125 C 1.195312 -10.632812 1.140625 -10.753906 1.140625 -10.890625 C 1.140625 -10.984375 1.160156 -11.070312 1.203125 -11.15625 C 1.242188 -11.25 1.3125 -11.351562 1.40625 -11.46875 C 1.632812 -11.863281 1.953125 -12.226562 2.359375 -12.5625 C 2.773438 -12.90625 3.234375 -13.175781 3.734375 -13.375 C 4.242188 -13.570312 4.742188 -13.671875 5.234375 -13.671875 C 6.054688 -13.671875 6.765625 -13.507812 7.359375 -13.1875 C 7.960938 -12.875 8.425781 -12.429688 8.75 -11.859375 C 9.070312 -11.296875 9.234375 -10.625 9.234375 -9.84375 C 9.234375 -9.164062 9.023438 -8.429688 8.609375 -7.640625 C 8.191406 -6.859375 7.570312 -6.007812 6.75 -5.09375 L 3 -0.890625 L 2.8125 -1.109375 Z M 9.125 -1.109375 "/></g></g></g></g></g></g><g clip-path="url(#e08de5988e)"><g transform="matrix(1, 0, 0, 1, 380, 450)"><g clip-path="url(#6c9e4affcb)"><g fill="#201f1f" fill-opacity="1"><g transform="translate(0.167455, 20.516817)"><g><path d="M 9.125 -1.109375 C 9.28125 -1.109375 9.410156 -1.054688 9.515625 -0.953125 C 9.628906 -0.847656 9.6875 -0.71875 9.6875 -0.5625 C 9.6875 -0.394531 9.628906 -0.257812 9.515625 -0.15625 C 9.410156 -0.0507812 9.28125 0 9.125 0 L 1.90625 0 C 1.738281 0 1.59375 -0.046875 1.46875 -0.140625 C 1.351562 -0.234375 1.296875 -0.378906 1.296875 -0.578125 C 1.296875 -0.722656 1.34375 -0.859375 1.4375 -0.984375 L 5.890625 -5.890625 C 6.597656 -6.660156 7.128906 -7.367188 7.484375 -8.015625 C 7.835938 -8.660156 8.015625 -9.242188 8.015625 -9.765625 C 8.015625 -10.609375 7.753906 -11.285156 7.234375 -11.796875 C 6.722656 -12.304688 6.03125 -12.5625 5.15625 -12.5625 C 4.757812 -12.5625 4.363281 -12.476562 3.96875 -12.3125 C 3.582031 -12.144531 3.238281 -11.925781 2.9375 -11.65625 C 2.632812 -11.394531 2.398438 -11.085938 2.234375 -10.734375 C 2.160156 -10.609375 2.082031 -10.519531 2 -10.46875 C 1.914062 -10.414062 1.820312 -10.390625 1.71875 -10.390625 C 1.5625 -10.390625 1.425781 -10.4375 1.3125 -10.53125 C 1.195312 -10.632812 1.140625 -10.753906 1.140625 -10.890625 C 1.140625 -10.984375 1.160156 -11.070312 1.203125 -11.15625 C 1.242188 -11.25 1.3125 -11.351562 1.40625 -11.46875 C 1.632812 -11.863281 1.953125 -12.226562 2.359375 -12.5625 C 2.773438 -12.90625 3.234375 -13.175781 3.734375 -13.375 C 4.242188 -13.570312 4.742188 -13.671875 5.234375 -13.671875 C 6.054688 -13.671875 6.765625 -13.507812 7.359375 -13.1875 C 7.960938 -12.875 8.425781 -12.429688 8.75 -11.859375 C 9.070312 -11.296875 9.234375 -10.625 9.234375 -9.84375 C 9.234375 -9.164062 9.023438 -8.429688 8.609375 -7.640625 C 8.191406 -6.859375 7.570312 -6.007812 6.75 -5.09375 L 3 -0.890625 L 2.8125 -1.109375 Z M 9.125 -1.109375 "/></g></g></g><g fill="#201f1f" fill-opacity="1"><g transform="translate(10.830571, 20.516817)"><g><path d="M 1.71875 -1.984375 C 1.78125 -1.984375 1.84375 -1.96875 1.90625 -1.9375 C 1.976562 -1.914062 2.066406 -1.859375 2.171875 -1.765625 C 2.441406 -1.484375 2.765625 -1.269531 3.140625 -1.125 C 3.515625 -0.976562 3.9375 -0.90625 4.40625 -0.90625 C 5.03125 -0.90625 5.601562 -1.046875 6.125 -1.328125 C 6.644531 -1.609375 7.054688 -2 7.359375 -2.5 C 7.671875 -3.007812 7.828125 -3.59375 7.828125 -4.25 C 7.828125 -5 7.664062 -5.597656 7.34375 -6.046875 C 7.019531 -6.503906 6.601562 -6.84375 6.09375 -7.0625 C 5.582031 -7.289062 5.066406 -7.40625 4.546875 -7.40625 C 4.398438 -7.40625 4.257812 -7.394531 4.125 -7.375 C 3.988281 -7.363281 3.863281 -7.34375 3.75 -7.3125 C 3.632812 -7.289062 3.546875 -7.28125 3.484375 -7.28125 C 3.316406 -7.28125 3.1875 -7.332031 3.09375 -7.4375 C 3.007812 -7.550781 2.96875 -7.691406 2.96875 -7.859375 C 2.96875 -7.941406 2.984375 -8.019531 3.015625 -8.09375 C 3.054688 -8.164062 3.109375 -8.242188 3.171875 -8.328125 L 7.078125 -12.59375 L 7.3125 -12.28125 L 1.484375 -12.28125 C 1.328125 -12.28125 1.191406 -12.332031 1.078125 -12.4375 C 0.972656 -12.550781 0.921875 -12.6875 0.921875 -12.84375 C 0.921875 -13 0.972656 -13.125 1.078125 -13.21875 C 1.191406 -13.320312 1.328125 -13.375 1.484375 -13.375 L 7.953125 -13.375 C 8.171875 -13.375 8.320312 -13.304688 8.40625 -13.171875 C 8.5 -13.035156 8.546875 -12.90625 8.546875 -12.78125 C 8.546875 -12.707031 8.523438 -12.632812 8.484375 -12.5625 C 8.453125 -12.488281 8.398438 -12.414062 8.328125 -12.34375 L 4.421875 -8.078125 L 4 -8.328125 C 4.039062 -8.367188 4.171875 -8.410156 4.390625 -8.453125 C 4.617188 -8.503906 4.796875 -8.53125 4.921875 -8.53125 C 5.628906 -8.53125 6.296875 -8.363281 6.921875 -8.03125 C 7.546875 -7.695312 8.050781 -7.21875 8.4375 -6.59375 C 8.832031 -5.96875 9.03125 -5.203125 9.03125 -4.296875 C 9.03125 -3.390625 8.816406 -2.597656 8.390625 -1.921875 C 7.960938 -1.253906 7.390625 -0.734375 6.671875 -0.359375 C 5.960938 0.00390625 5.171875 0.1875 4.296875 0.1875 C 3.765625 0.1875 3.242188 0.0976562 2.734375 -0.078125 C 2.222656 -0.253906 1.773438 -0.523438 1.390625 -0.890625 C 1.296875 -0.960938 1.226562 -1.035156 1.1875 -1.109375 C 1.15625 -1.191406 1.140625 -1.269531 1.140625 -1.34375 C 1.140625 -1.5 1.191406 -1.644531 1.296875 -1.78125 C 1.410156 -1.914062 1.550781 -1.984375 1.71875 -1.984375 Z M 1.71875 -1.984375 "/></g></g></g></g></g></g><g clip-path="url(#3d6c836e62)"><g transform="matrix(1, 0, 0, 1, 505, 450)"><g clip-path="url(#1f82b55fbb)"><g fill="#201f1f" fill-opacity="1"><g transform="translate(0.985369, 20.516817)"><g><path d="M 9.125 -1.109375 C 9.28125 -1.109375 9.410156 -1.054688 9.515625 -0.953125 C 9.628906 -0.847656 9.6875 -0.71875 9.6875 -0.5625 C 9.6875 -0.394531 9.628906 -0.257812 9.515625 -0.15625 C 9.410156 -0.0507812 9.28125 0 9.125 0 L 1.90625 0 C 1.738281 0 1.59375 -0.046875 1.46875 -0.140625 C 1.351562 -0.234375 1.296875 -0.378906 1.296875 -0.578125 C 1.296875 -0.722656 1.34375 -0.859375 1.4375 -0.984375 L 5.890625 -5.890625 C 6.597656 -6.660156 7.128906 -7.367188 7.484375 -8.015625 C 7.835938 -8.660156 8.015625 -9.242188 8.015625 -9.765625 C 8.015625 -10.609375 7.753906 -11.285156 7.234375 -11.796875 C 6.722656 -12.304688 6.03125 -12.5625 5.15625 -12.5625 C 4.757812 -12.5625 4.363281 -12.476562 3.96875 -12.3125 C 3.582031 -12.144531 3.238281 -11.925781 2.9375 -11.65625 C 2.632812 -11.394531 2.398438 -11.085938 2.234375 -10.734375 C 2.160156 -10.609375 2.082031 -10.519531 2 -10.46875 C 1.914062 -10.414062 1.820312 -10.390625 1.71875 -10.390625 C 1.5625 -10.390625 1.425781 -10.4375 1.3125 -10.53125 C 1.195312 -10.632812 1.140625 -10.753906 1.140625 -10.890625 C 1.140625 -10.984375 1.160156 -11.070312 1.203125 -11.15625 C 1.242188 -11.25 1.3125 -11.351562 1.40625 -11.46875 C 1.632812 -11.863281 1.953125 -12.226562 2.359375 -12.5625 C 2.773438 -12.90625 3.234375 -13.175781 3.734375 -13.375 C 4.242188 -13.570312 4.742188 -13.671875 5.234375 -13.671875 C 6.054688 -13.671875 6.765625 -13.507812 7.359375 -13.1875 C 7.960938 -12.875 8.425781 -12.429688 8.75 -11.859375 C 9.070312 -11.296875 9.234375 -10.625 9.234375 -9.84375 C 9.234375 -9.164062 9.023438 -8.429688 8.609375 -7.640625 C 8.191406 -6.859375 7.570312 -6.007812 6.75 -5.09375 L 3 -0.890625 L 2.8125 -1.109375 Z M 9.125 -1.109375 "/></g></g></g><g fill="#201f1f" fill-opacity="1"><g transform="translate(11.648485, 20.516817)"><g><path d="M 7.0625 0 C 6.894531 0 6.757812 -0.0546875 6.65625 -0.171875 C 6.550781 -0.285156 6.5 -0.421875 6.5 -0.578125 L 6.5 -11.875 L 6.75 -11.71875 L 1.6875 -5.03125 L 1.640625 -5.234375 L 9.03125 -5.234375 C 9.1875 -5.234375 9.316406 -5.179688 9.421875 -5.078125 C 9.535156 -4.972656 9.59375 -4.847656 9.59375 -4.703125 C 9.59375 -4.546875 9.535156 -4.414062 9.421875 -4.3125 C 9.316406 -4.207031 9.1875 -4.15625 9.03125 -4.15625 L 0.84375 -4.15625 C 0.6875 -4.15625 0.550781 -4.21875 0.4375 -4.34375 C 0.320312 -4.46875 0.265625 -4.601562 0.265625 -4.75 C 0.265625 -4.894531 0.3125 -5.023438 0.40625 -5.140625 L 6.609375 -13.25 C 6.671875 -13.332031 6.75 -13.390625 6.84375 -13.421875 C 6.9375 -13.453125 7.015625 -13.46875 7.078125 -13.46875 C 7.242188 -13.46875 7.378906 -13.410156 7.484375 -13.296875 C 7.597656 -13.179688 7.65625 -13.046875 7.65625 -12.890625 L 7.65625 -0.578125 C 7.65625 -0.421875 7.597656 -0.285156 7.484375 -0.171875 C 7.367188 -0.0546875 7.226562 0 7.0625 0 Z M 7.0625 0 "/></g></g></g></g></g></g><g clip-path="url(#3f37a16338)"><g transform="matrix(1, 0, 0, 1, 631, 450)"><g clip-path="url(#9bac231ef1)"><g fill="#201f1f" fill-opacity="1"><g transform="translate(0.803312, 20.516817)"><g><path d="M 9.125 -1.109375 C 9.28125 -1.109375 9.410156 -1.054688 9.515625 -0.953125 C 9.628906 -0.847656 9.6875 -0.71875 9.6875 -0.5625 C 9.6875 -0.394531 9.628906 -0.257812 9.515625 -0.15625 C 9.410156 -0.0507812 9.28125 0 9.125 0 L 1.90625 0 C 1.738281 0 1.59375 -0.046875 1.46875 -0.140625 C 1.351562 -0.234375 1.296875 -0.378906 1.296875 -0.578125 C 1.296875 -0.722656 1.34375 -0.859375 1.4375 -0.984375 L 5.890625 -5.890625 C 6.597656 -6.660156 7.128906 -7.367188 7.484375 -8.015625 C 7.835938 -8.660156 8.015625 -9.242188 8.015625 -9.765625 C 8.015625 -10.609375 7.753906 -11.285156 7.234375 -11.796875 C 6.722656 -12.304688 6.03125 -12.5625 5.15625 -12.5625 C 4.757812 -12.5625 4.363281 -12.476562 3.96875 -12.3125 C 3.582031 -12.144531 3.238281 -11.925781 2.9375 -11.65625 C 2.632812 -11.394531 2.398438 -11.085938 2.234375 -10.734375 C 2.160156 -10.609375 2.082031 -10.519531 2 -10.46875 C 1.914062 -10.414062 1.820312 -10.390625 1.71875 -10.390625 C 1.5625 -10.390625 1.425781 -10.4375 1.3125 -10.53125 C 1.195312 -10.632812 1.140625 -10.753906 1.140625 -10.890625 C 1.140625 -10.984375 1.160156 -11.070312 1.203125 -11.15625 C 1.242188 -11.25 1.3125 -11.351562 1.40625 -11.46875 C 1.632812 -11.863281 1.953125 -12.226562 2.359375 -12.5625 C 2.773438 -12.90625 3.234375 -13.175781 3.734375 -13.375 C 4.242188 -13.570312 4.742188 -13.671875 5.234375 -13.671875 C 6.054688 -13.671875 6.765625 -13.507812 7.359375 -13.1875 C 7.960938 -12.875 8.425781 -12.429688 8.75 -11.859375 C 9.070312 -11.296875 9.234375 -10.625 9.234375 -9.84375 C 9.234375 -9.164062 9.023438 -8.429688 8.609375 -7.640625 C 8.191406 -6.859375 7.570312 -6.007812 6.75 -5.09375 L 3 -0.890625 L 2.8125 -1.109375 Z M 9.125 -1.109375 "/></g></g></g><g fill="#201f1f" fill-opacity="1"><g transform="translate(11.466428, 20.516817)"><g><path d="M 4.5 0.03125 C 3.976562 0.03125 3.453125 -0.0507812 2.921875 -0.21875 C 2.390625 -0.394531 1.914062 -0.65625 1.5 -1 C 1.425781 -1.0625 1.363281 -1.132812 1.3125 -1.21875 C 1.269531 -1.3125 1.25 -1.40625 1.25 -1.5 C 1.25 -1.625 1.300781 -1.75 1.40625 -1.875 C 1.507812 -2 1.644531 -2.0625 1.8125 -2.0625 C 1.945312 -2.0625 2.085938 -2.003906 2.234375 -1.890625 C 2.566406 -1.628906 2.925781 -1.425781 3.3125 -1.28125 C 3.707031 -1.144531 4.101562 -1.078125 4.5 -1.078125 C 5.257812 -1.078125 5.921875 -1.21875 6.484375 -1.5 C 7.046875 -1.789062 7.484375 -2.203125 7.796875 -2.734375 C 8.109375 -3.273438 8.265625 -3.894531 8.265625 -4.59375 C 8.265625 -5.25 8.117188 -5.816406 7.828125 -6.296875 C 7.546875 -6.785156 7.144531 -7.164062 6.625 -7.4375 C 6.113281 -7.71875 5.503906 -7.859375 4.796875 -7.859375 C 4.328125 -7.859375 3.90625 -7.785156 3.53125 -7.640625 C 3.15625 -7.503906 2.828125 -7.359375 2.546875 -7.203125 C 2.273438 -7.054688 2.054688 -6.984375 1.890625 -6.984375 C 1.734375 -6.984375 1.601562 -7.019531 1.5 -7.09375 C 1.40625 -7.175781 1.34375 -7.273438 1.3125 -7.390625 C 1.28125 -7.503906 1.28125 -7.625 1.3125 -7.75 L 2.140625 -12.890625 C 2.148438 -13.015625 2.207031 -13.125 2.3125 -13.21875 C 2.425781 -13.3125 2.566406 -13.359375 2.734375 -13.359375 L 8.53125 -13.359375 C 8.6875 -13.359375 8.816406 -13.300781 8.921875 -13.1875 C 9.035156 -13.082031 9.09375 -12.953125 9.09375 -12.796875 C 9.09375 -12.628906 9.035156 -12.488281 8.921875 -12.375 C 8.816406 -12.269531 8.6875 -12.21875 8.53125 -12.21875 L 3 -12.21875 L 3.171875 -12.390625 L 2.390625 -7.828125 L 2.046875 -8.078125 C 2.210938 -8.210938 2.453125 -8.34375 2.765625 -8.46875 C 3.078125 -8.59375 3.425781 -8.703125 3.8125 -8.796875 C 4.207031 -8.898438 4.625 -8.953125 5.0625 -8.953125 C 5.894531 -8.953125 6.640625 -8.769531 7.296875 -8.40625 C 7.953125 -8.039062 8.46875 -7.53125 8.84375 -6.875 C 9.21875 -6.226562 9.40625 -5.484375 9.40625 -4.640625 C 9.40625 -3.703125 9.203125 -2.882812 8.796875 -2.1875 C 8.398438 -1.488281 7.832031 -0.941406 7.09375 -0.546875 C 6.363281 -0.160156 5.5 0.03125 4.5 0.03125 Z M 4.5 0.03125 "/></g></g></g></g></g></g><g clip-path="url(#cc381a4a63)"><g transform="matrix(1, 0, 0, 1, 757, 450)"><g clip-path="url(#0218d1014f)"><g fill="#201f1f" fill-opacity="1"><g transform="translate(0.621255, 20.516817)"><g><path d="M 9.125 -1.109375 C 9.28125 -1.109375 9.410156 -1.054688 9.515625 -0.953125 C 9.628906 -0.847656 9.6875 -0.71875 9.6875 -0.5625 C 9.6875 -0.394531 9.628906 -0.257812 9.515625 -0.15625 C 9.410156 -0.0507812 9.28125 0 9.125 0 L 1.90625 0 C 1.738281 0 1.59375 -0.046875 1.46875 -0.140625 C 1.351562 -0.234375 1.296875 -0.378906 1.296875 -0.578125 C 1.296875 -0.722656 1.34375 -0.859375 1.4375 -0.984375 L 5.890625 -5.890625 C 6.597656 -6.660156 7.128906 -7.367188 7.484375 -8.015625 C 7.835938 -8.660156 8.015625 -9.242188 8.015625 -9.765625 C 8.015625 -10.609375 7.753906 -11.285156 7.234375 -11.796875 C 6.722656 -12.304688 6.03125 -12.5625 5.15625 -12.5625 C 4.757812 -12.5625 4.363281 -12.476562 3.96875 -12.3125 C 3.582031 -12.144531 3.238281 -11.925781 2.9375 -11.65625 C 2.632812 -11.394531 2.398438 -11.085938 2.234375 -10.734375 C 2.160156 -10.609375 2.082031 -10.519531 2 -10.46875 C 1.914062 -10.414062 1.820312 -10.390625 1.71875 -10.390625 C 1.5625 -10.390625 1.425781 -10.4375 1.3125 -10.53125 C 1.195312 -10.632812 1.140625 -10.753906 1.140625 -10.890625 C 1.140625 -10.984375 1.160156 -11.070312 1.203125 -11.15625 C 1.242188 -11.25 1.3125 -11.351562 1.40625 -11.46875 C 1.632812 -11.863281 1.953125 -12.226562 2.359375 -12.5625 C 2.773438 -12.90625 3.234375 -13.175781 3.734375 -13.375 C 4.242188 -13.570312 4.742188 -13.671875 5.234375 -13.671875 C 6.054688 -13.671875 6.765625 -13.507812 7.359375 -13.1875 C 7.960938 -12.875 8.425781 -12.429688 8.75 -11.859375 C 9.070312 -11.296875 9.234375 -10.625 9.234375 -9.84375 C 9.234375 -9.164062 9.023438 -8.429688 8.609375 -7.640625 C 8.191406 -6.859375 7.570312 -6.007812 6.75 -5.09375 L 3 -0.890625 L 2.8125 -1.109375 Z M 9.125 -1.109375 "/></g></g></g><g fill="#201f1f" fill-opacity="1"><g transform="translate(11.284371, 20.516817)"><g><path d="M 5.53125 0.1875 C 4.78125 0.1875 4.125 0.0546875 3.5625 -0.203125 C 3.007812 -0.472656 2.550781 -0.835938 2.1875 -1.296875 C 1.820312 -1.753906 1.550781 -2.269531 1.375 -2.84375 C 1.195312 -3.425781 1.109375 -4.019531 1.109375 -4.625 C 1.109375 -5.238281 1.1875 -5.898438 1.34375 -6.609375 C 1.5 -7.328125 1.738281 -8.050781 2.0625 -8.78125 C 2.382812 -9.507812 2.78125 -10.203125 3.25 -10.859375 C 3.71875 -11.515625 4.257812 -12.097656 4.875 -12.609375 C 5.5 -13.128906 6.203125 -13.539062 6.984375 -13.84375 C 7.078125 -13.863281 7.15625 -13.875 7.21875 -13.875 C 7.382812 -13.875 7.523438 -13.828125 7.640625 -13.734375 C 7.765625 -13.648438 7.828125 -13.5 7.828125 -13.28125 C 7.828125 -13.15625 7.785156 -13.039062 7.703125 -12.9375 C 7.617188 -12.84375 7.507812 -12.769531 7.375 -12.71875 C 6.832031 -12.488281 6.296875 -12.160156 5.765625 -11.734375 C 5.242188 -11.316406 4.757812 -10.832031 4.3125 -10.28125 C 3.863281 -9.726562 3.476562 -9.132812 3.15625 -8.5 C 2.84375 -7.863281 2.625 -7.21875 2.5 -6.5625 L 2.078125 -6.3125 C 2.304688 -6.738281 2.601562 -7.113281 2.96875 -7.4375 C 3.332031 -7.769531 3.753906 -8.035156 4.234375 -8.234375 C 4.710938 -8.429688 5.226562 -8.53125 5.78125 -8.53125 C 6.351562 -8.53125 6.882812 -8.40625 7.375 -8.15625 C 7.863281 -7.914062 8.28125 -7.585938 8.625 -7.171875 C 8.976562 -6.753906 9.253906 -6.28125 9.453125 -5.75 C 9.660156 -5.226562 9.765625 -4.6875 9.765625 -4.125 C 9.765625 -3.363281 9.578125 -2.65625 9.203125 -2 C 8.835938 -1.34375 8.335938 -0.8125 7.703125 -0.40625 C 7.066406 -0.0078125 6.34375 0.1875 5.53125 0.1875 Z M 5.5 -0.921875 C 6.09375 -0.921875 6.617188 -1.054688 7.078125 -1.328125 C 7.546875 -1.597656 7.910156 -1.972656 8.171875 -2.453125 C 8.429688 -2.929688 8.5625 -3.488281 8.5625 -4.125 C 8.5625 -4.695312 8.445312 -5.226562 8.21875 -5.71875 C 8 -6.21875 7.664062 -6.625 7.21875 -6.9375 C 6.78125 -7.25 6.234375 -7.40625 5.578125 -7.40625 C 4.898438 -7.40625 4.3125 -7.25 3.8125 -6.9375 C 3.320312 -6.632812 2.945312 -6.226562 2.6875 -5.71875 C 2.425781 -5.21875 2.296875 -4.664062 2.296875 -4.0625 C 2.296875 -3.519531 2.421875 -3.007812 2.671875 -2.53125 C 2.929688 -2.050781 3.300781 -1.660156 3.78125 -1.359375 C 4.257812 -1.066406 4.832031 -0.921875 5.5 -0.921875 Z M 5.5 -0.921875 "/></g></g></g></g></g></g><g clip-path="url(#76ba923a9f)"><g transform="matrix(1, 0, 0, 1, 2, 600)"><g clip-path="url(#24ccbc2c84)"><g fill="#201f1f" fill-opacity="1"><g transform="translate(0.713639, 20.274085)"><g><path d="M 9.125 -1.109375 C 9.28125 -1.109375 9.410156 -1.054688 9.515625 -0.953125 C 9.628906 -0.847656 9.6875 -0.71875 9.6875 -0.5625 C 9.6875 -0.394531 9.628906 -0.257812 9.515625 -0.15625 C 9.410156 -0.0507812 9.28125 0 9.125 0 L 1.90625 0 C 1.738281 0 1.59375 -0.046875 1.46875 -0.140625 C 1.351562 -0.234375 1.296875 -0.378906 1.296875 -0.578125 C 1.296875 -0.722656 1.34375 -0.859375 1.4375 -0.984375 L 5.890625 -5.890625 C 6.597656 -6.660156 7.128906 -7.367188 7.484375 -8.015625 C 7.835938 -8.660156 8.015625 -9.242188 8.015625 -9.765625 C 8.015625 -10.609375 7.753906 -11.285156 7.234375 -11.796875 C 6.722656 -12.304688 6.03125 -12.5625 5.15625 -12.5625 C 4.757812 -12.5625 4.363281 -12.476562 3.96875 -12.3125 C 3.582031 -12.144531 3.238281 -11.925781 2.9375 -11.65625 C 2.632812 -11.394531 2.398438 -11.085938 2.234375 -10.734375 C 2.160156 -10.609375 2.082031 -10.519531 2 -10.46875 C 1.914062 -10.414062 1.820312 -10.390625 1.71875 -10.390625 C 1.5625 -10.390625 1.425781 -10.4375 1.3125 -10.53125 C 1.195312 -10.632812 1.140625 -10.753906 1.140625 -10.890625 C 1.140625 -10.984375 1.160156 -11.070312 1.203125 -11.15625 C 1.242188 -11.25 1.3125 -11.351562 1.40625 -11.46875 C 1.632812 -11.863281 1.953125 -12.226562 2.359375 -12.5625 C 2.773438 -12.90625 3.234375 -13.175781 3.734375 -13.375 C 4.242188 -13.570312 4.742188 -13.671875 5.234375 -13.671875 C 6.054688 -13.671875 6.765625 -13.507812 7.359375 -13.1875 C 7.960938 -12.875 8.425781 -12.429688 8.75 -11.859375 C 9.070312 -11.296875 9.234375 -10.625 9.234375 -9.84375 C 9.234375 -9.164062 9.023438 -8.429688 8.609375 -7.640625 C 8.191406 -6.859375 7.570312 -6.007812 6.75 -5.09375 L 3 -0.890625 L 2.8125 -1.109375 Z M 9.125 -1.109375 "/></g></g></g><g fill="#201f1f" fill-opacity="1"><g transform="translate(11.376755, 20.274085)"><g><path d="M 3.421875 0.0625 C 3.273438 0.0625 3.132812 0.0078125 3 -0.09375 C 2.875 -0.195312 2.8125 -0.328125 2.8125 -0.484375 C 2.8125 -0.566406 2.832031 -0.660156 2.875 -0.765625 L 7.984375 -12.53125 L 8.203125 -12.265625 L 1.6875 -12.265625 C 1.539062 -12.265625 1.410156 -12.316406 1.296875 -12.421875 C 1.191406 -12.535156 1.140625 -12.671875 1.140625 -12.828125 C 1.140625 -12.992188 1.191406 -13.125 1.296875 -13.21875 C 1.410156 -13.320312 1.539062 -13.375 1.6875 -13.375 L 8.765625 -13.375 C 8.953125 -13.375 9.085938 -13.320312 9.171875 -13.21875 C 9.265625 -13.125 9.3125 -13 9.3125 -12.84375 C 9.3125 -12.738281 9.296875 -12.640625 9.265625 -12.546875 L 3.96875 -0.328125 C 3.925781 -0.210938 3.851562 -0.117188 3.75 -0.046875 C 3.644531 0.0234375 3.535156 0.0625 3.421875 0.0625 Z M 3.421875 0.0625 "/></g></g></g></g></g></g><g clip-path="url(#370a52120e)"><g transform="matrix(1, 0, 0, 1, 128, 600)"><g clip-path="url(#c796848c18)"><g fill="#201f1f" fill-opacity="1"><g transform="translate(0.531584, 20.274085)"><g><path d="M 9.125 -1.109375 C 9.28125 -1.109375 9.410156 -1.054688 9.515625 -0.953125 C 9.628906 -0.847656 9.6875 -0.71875 9.6875 -0.5625 C 9.6875 -0.394531 9.628906 -0.257812 9.515625 -0.15625 C 9.410156 -0.0507812 9.28125 0 9.125 0 L 1.90625 0 C 1.738281 0 1.59375 -0.046875 1.46875 -0.140625 C 1.351562 -0.234375 1.296875 -0.378906 1.296875 -0.578125 C 1.296875 -0.722656 1.34375 -0.859375 1.4375 -0.984375 L 5.890625 -5.890625 C 6.597656 -6.660156 7.128906 -7.367188 7.484375 -8.015625 C 7.835938 -8.660156 8.015625 -9.242188 8.015625 -9.765625 C 8.015625 -10.609375 7.753906 -11.285156 7.234375 -11.796875 C 6.722656 -12.304688 6.03125 -12.5625 5.15625 -12.5625 C 4.757812 -12.5625 4.363281 -12.476562 3.96875 -12.3125 C 3.582031 -12.144531 3.238281 -11.925781 2.9375 -11.65625 C 2.632812 -11.394531 2.398438 -11.085938 2.234375 -10.734375 C 2.160156 -10.609375 2.082031 -10.519531 2 -10.46875 C 1.914062 -10.414062 1.820312 -10.390625 1.71875 -10.390625 C 1.5625 -10.390625 1.425781 -10.4375 1.3125 -10.53125 C 1.195312 -10.632812 1.140625 -10.753906 1.140625 -10.890625 C 1.140625 -10.984375 1.160156 -11.070312 1.203125 -11.15625 C 1.242188 -11.25 1.3125 -11.351562 1.40625 -11.46875 C 1.632812 -11.863281 1.953125 -12.226562 2.359375 -12.5625 C 2.773438 -12.90625 3.234375 -13.175781 3.734375 -13.375 C 4.242188 -13.570312 4.742188 -13.671875 5.234375 -13.671875 C 6.054688 -13.671875 6.765625 -13.507812 7.359375 -13.1875 C 7.960938 -12.875 8.425781 -12.429688 8.75 -11.859375 C 9.070312 -11.296875 9.234375 -10.625 9.234375 -9.84375 C 9.234375 -9.164062 9.023438 -8.429688 8.609375 -7.640625 C 8.191406 -6.859375 7.570312 -6.007812 6.75 -5.09375 L 3 -0.890625 L 2.8125 -1.109375 Z M 9.125 -1.109375 "/></g></g></g><g fill="#201f1f" fill-opacity="1"><g transform="translate(11.1947, 20.274085)"><g><path d="M 7 -6.78125 L 6.953125 -6.953125 C 7.390625 -6.785156 7.785156 -6.535156 8.140625 -6.203125 C 8.503906 -5.878906 8.796875 -5.492188 9.015625 -5.046875 C 9.234375 -4.609375 9.34375 -4.125 9.34375 -3.59375 C 9.34375 -2.90625 9.15625 -2.273438 8.78125 -1.703125 C 8.414062 -1.140625 7.921875 -0.691406 7.296875 -0.359375 C 6.671875 -0.0234375 5.972656 0.140625 5.203125 0.140625 C 4.410156 0.140625 3.703125 -0.0234375 3.078125 -0.359375 C 2.460938 -0.691406 1.972656 -1.140625 1.609375 -1.703125 C 1.242188 -2.273438 1.0625 -2.90625 1.0625 -3.59375 C 1.0625 -4.164062 1.171875 -4.671875 1.390625 -5.109375 C 1.617188 -5.554688 1.914062 -5.929688 2.28125 -6.234375 C 2.644531 -6.546875 3.023438 -6.785156 3.421875 -6.953125 L 3.375 -6.75 C 3.019531 -6.914062 2.691406 -7.144531 2.390625 -7.4375 C 2.085938 -7.726562 1.835938 -8.078125 1.640625 -8.484375 C 1.453125 -8.890625 1.359375 -9.332031 1.359375 -9.8125 C 1.359375 -10.507812 1.53125 -11.132812 1.875 -11.6875 C 2.21875 -12.238281 2.679688 -12.671875 3.265625 -12.984375 C 3.847656 -13.304688 4.492188 -13.46875 5.203125 -13.46875 C 5.898438 -13.46875 6.535156 -13.304688 7.109375 -12.984375 C 7.679688 -12.671875 8.132812 -12.238281 8.46875 -11.6875 C 8.8125 -11.132812 8.984375 -10.507812 8.984375 -9.8125 C 8.984375 -9.3125 8.882812 -8.863281 8.6875 -8.46875 C 8.5 -8.070312 8.25 -7.726562 7.9375 -7.4375 C 7.632812 -7.144531 7.320312 -6.925781 7 -6.78125 Z M 2.5625 -9.8125 C 2.5625 -9.300781 2.679688 -8.851562 2.921875 -8.46875 C 3.171875 -8.082031 3.492188 -7.78125 3.890625 -7.5625 C 4.285156 -7.34375 4.722656 -7.234375 5.203125 -7.234375 C 5.660156 -7.234375 6.085938 -7.34375 6.484375 -7.5625 C 6.878906 -7.78125 7.195312 -8.082031 7.4375 -8.46875 C 7.675781 -8.851562 7.796875 -9.300781 7.796875 -9.8125 C 7.796875 -10.570312 7.550781 -11.1875 7.0625 -11.65625 C 6.570312 -12.132812 5.953125 -12.375 5.203125 -12.375 C 4.410156 -12.375 3.769531 -12.132812 3.28125 -11.65625 C 2.800781 -11.1875 2.5625 -10.570312 2.5625 -9.8125 Z M 5.203125 -0.96875 C 6.066406 -0.96875 6.769531 -1.21875 7.3125 -1.71875 C 7.863281 -2.21875 8.140625 -2.84375 8.140625 -3.59375 C 8.140625 -4.113281 8.003906 -4.578125 7.734375 -4.984375 C 7.460938 -5.398438 7.101562 -5.722656 6.65625 -5.953125 C 6.207031 -6.179688 5.722656 -6.296875 5.203125 -6.296875 C 4.671875 -6.296875 4.179688 -6.179688 3.734375 -5.953125 C 3.285156 -5.722656 2.925781 -5.398438 2.65625 -4.984375 C 2.382812 -4.578125 2.25 -4.113281 2.25 -3.59375 C 2.25 -2.84375 2.519531 -2.21875 3.0625 -1.71875 C 3.601562 -1.21875 4.316406 -0.96875 5.203125 -0.96875 Z M 5.203125 -0.96875 "/></g></g></g></g></g></g><g clip-path="url(#5ffc3ae325)"><g transform="matrix(1, 0, 0, 1, 254, 600)"><g clip-path="url(#9f653576cd)"><g fill="#201f1f" fill-opacity="1"><g transform="translate(0.349512, 20.274085)"><g><path d="M 9.125 -1.109375 C 9.28125 -1.109375 9.410156 -1.054688 9.515625 -0.953125 C 9.628906 -0.847656 9.6875 -0.71875 9.6875 -0.5625 C 9.6875 -0.394531 9.628906 -0.257812 9.515625 -0.15625 C 9.410156 -0.0507812 9.28125 0 9.125 0 L 1.90625 0 C 1.738281 0 1.59375 -0.046875 1.46875 -0.140625 C 1.351562 -0.234375 1.296875 -0.378906 1.296875 -0.578125 C 1.296875 -0.722656 1.34375 -0.859375 1.4375 -0.984375 L 5.890625 -5.890625 C 6.597656 -6.660156 7.128906 -7.367188 7.484375 -8.015625 C 7.835938 -8.660156 8.015625 -9.242188 8.015625 -9.765625 C 8.015625 -10.609375 7.753906 -11.285156 7.234375 -11.796875 C 6.722656 -12.304688 6.03125 -12.5625 5.15625 -12.5625 C 4.757812 -12.5625 4.363281 -12.476562 3.96875 -12.3125 C 3.582031 -12.144531 3.238281 -11.925781 2.9375 -11.65625 C 2.632812 -11.394531 2.398438 -11.085938 2.234375 -10.734375 C 2.160156 -10.609375 2.082031 -10.519531 2 -10.46875 C 1.914062 -10.414062 1.820312 -10.390625 1.71875 -10.390625 C 1.5625 -10.390625 1.425781 -10.4375 1.3125 -10.53125 C 1.195312 -10.632812 1.140625 -10.753906 1.140625 -10.890625 C 1.140625 -10.984375 1.160156 -11.070312 1.203125 -11.15625 C 1.242188 -11.25 1.3125 -11.351562 1.40625 -11.46875 C 1.632812 -11.863281 1.953125 -12.226562 2.359375 -12.5625 C 2.773438 -12.90625 3.234375 -13.175781 3.734375 -13.375 C 4.242188 -13.570312 4.742188 -13.671875 5.234375 -13.671875 C 6.054688 -13.671875 6.765625 -13.507812 7.359375 -13.1875 C 7.960938 -12.875 8.425781 -12.429688 8.75 -11.859375 C 9.070312 -11.296875 9.234375 -10.625 9.234375 -9.84375 C 9.234375 -9.164062 9.023438 -8.429688 8.609375 -7.640625 C 8.191406 -6.859375 7.570312 -6.007812 6.75 -5.09375 L 3 -0.890625 L 2.8125 -1.109375 Z M 9.125 -1.109375 "/></g></g></g><g fill="#201f1f" fill-opacity="1"><g transform="translate(11.012628, 20.274085)"><g><path d="M 5.328125 -13.6875 C 6.085938 -13.6875 6.742188 -13.550781 7.296875 -13.28125 C 7.859375 -13.007812 8.316406 -12.644531 8.671875 -12.1875 C 9.035156 -11.738281 9.304688 -11.222656 9.484375 -10.640625 C 9.671875 -10.066406 9.765625 -9.476562 9.765625 -8.875 C 9.765625 -8.257812 9.679688 -7.601562 9.515625 -6.90625 C 9.359375 -6.207031 9.117188 -5.5 8.796875 -4.78125 C 8.484375 -4.070312 8.09375 -3.394531 7.625 -2.75 C 7.164062 -2.113281 6.617188 -1.535156 5.984375 -1.015625 C 5.359375 -0.503906 4.660156 -0.109375 3.890625 0.171875 C 3.785156 0.203125 3.703125 0.21875 3.640625 0.21875 C 3.484375 0.21875 3.34375 0.160156 3.21875 0.046875 C 3.101562 -0.0546875 3.046875 -0.203125 3.046875 -0.390625 C 3.046875 -0.515625 3.082031 -0.625 3.15625 -0.71875 C 3.226562 -0.8125 3.34375 -0.882812 3.5 -0.9375 C 4.226562 -1.25 4.929688 -1.707031 5.609375 -2.3125 C 6.296875 -2.925781 6.882812 -3.632812 7.375 -4.4375 C 7.875 -5.238281 8.207031 -6.070312 8.375 -6.9375 L 8.78125 -7.1875 C 8.5625 -6.769531 8.265625 -6.394531 7.890625 -6.0625 C 7.515625 -5.726562 7.09375 -5.46875 6.625 -5.28125 C 6.15625 -5.09375 5.644531 -5 5.09375 -5 C 4.28125 -5 3.570312 -5.203125 2.96875 -5.609375 C 2.375 -6.015625 1.914062 -6.550781 1.59375 -7.21875 C 1.269531 -7.882812 1.109375 -8.601562 1.109375 -9.375 C 1.109375 -10.132812 1.289062 -10.835938 1.65625 -11.484375 C 2.03125 -12.140625 2.535156 -12.671875 3.171875 -13.078125 C 3.804688 -13.484375 4.523438 -13.6875 5.328125 -13.6875 Z M 5.375 -12.5625 C 4.769531 -12.5625 4.234375 -12.425781 3.765625 -12.15625 C 3.304688 -11.894531 2.945312 -11.519531 2.6875 -11.03125 C 2.425781 -10.550781 2.296875 -10 2.296875 -9.375 C 2.296875 -8.8125 2.40625 -8.28125 2.625 -7.78125 C 2.851562 -7.28125 3.191406 -6.878906 3.640625 -6.578125 C 4.085938 -6.273438 4.632812 -6.125 5.28125 -6.125 C 5.96875 -6.125 6.554688 -6.273438 7.046875 -6.578125 C 7.535156 -6.878906 7.910156 -7.28125 8.171875 -7.78125 C 8.441406 -8.28125 8.578125 -8.832031 8.578125 -9.4375 C 8.578125 -9.988281 8.445312 -10.5 8.1875 -10.96875 C 7.9375 -11.445312 7.570312 -11.832031 7.09375 -12.125 C 6.625 -12.414062 6.050781 -12.5625 5.375 -12.5625 Z M 5.375 -12.5625 "/></g></g></g></g></g></g><g clip-path="url(#1fff618a93)"><g transform="matrix(1, 0, 0, 1, 380, 600)"><g clip-path="url(#3d84fa6075)"><g fill="#201f1f" fill-opacity="1"><g transform="translate(0.167455, 20.274085)"><g><path d="M 1.71875 -1.984375 C 1.78125 -1.984375 1.84375 -1.96875 1.90625 -1.9375 C 1.976562 -1.914062 2.066406 -1.859375 2.171875 -1.765625 C 2.441406 -1.484375 2.765625 -1.269531 3.140625 -1.125 C 3.515625 -0.976562 3.9375 -0.90625 4.40625 -0.90625 C 5.03125 -0.90625 5.601562 -1.046875 6.125 -1.328125 C 6.644531 -1.609375 7.054688 -2 7.359375 -2.5 C 7.671875 -3.007812 7.828125 -3.59375 7.828125 -4.25 C 7.828125 -5 7.664062 -5.597656 7.34375 -6.046875 C 7.019531 -6.503906 6.601562 -6.84375 6.09375 -7.0625 C 5.582031 -7.289062 5.066406 -7.40625 4.546875 -7.40625 C 4.398438 -7.40625 4.257812 -7.394531 4.125 -7.375 C 3.988281 -7.363281 3.863281 -7.34375 3.75 -7.3125 C 3.632812 -7.289062 3.546875 -7.28125 3.484375 -7.28125 C 3.316406 -7.28125 3.1875 -7.332031 3.09375 -7.4375 C 3.007812 -7.550781 2.96875 -7.691406 2.96875 -7.859375 C 2.96875 -7.941406 2.984375 -8.019531 3.015625 -8.09375 C 3.054688 -8.164062 3.109375 -8.242188 3.171875 -8.328125 L 7.078125 -12.59375 L 7.3125 -12.28125 L 1.484375 -12.28125 C 1.328125 -12.28125 1.191406 -12.332031 1.078125 -12.4375 C 0.972656 -12.550781 0.921875 -12.6875 0.921875 -12.84375 C 0.921875 -13 0.972656 -13.125 1.078125 -13.21875 C 1.191406 -13.320312 1.328125 -13.375 1.484375 -13.375 L 7.953125 -13.375 C 8.171875 -13.375 8.320312 -13.304688 8.40625 -13.171875 C 8.5 -13.035156 8.546875 -12.90625 8.546875 -12.78125 C 8.546875 -12.707031 8.523438 -12.632812 8.484375 -12.5625 C 8.453125 -12.488281 8.398438 -12.414062 8.328125 -12.34375 L 4.421875 -8.078125 L 4 -8.328125 C 4.039062 -8.367188 4.171875 -8.410156 4.390625 -8.453125 C 4.617188 -8.503906 4.796875 -8.53125 4.921875 -8.53125 C 5.628906 -8.53125 6.296875 -8.363281 6.921875 -8.03125 C 7.546875 -7.695312 8.050781 -7.21875 8.4375 -6.59375 C 8.832031 -5.96875 9.03125 -5.203125 9.03125 -4.296875 C 9.03125 -3.390625 8.816406 -2.597656 8.390625 -1.921875 C 7.960938 -1.253906 7.390625 -0.734375 6.671875 -0.359375 C 5.960938 0.00390625 5.171875 0.1875 4.296875 0.1875 C 3.765625 0.1875 3.242188 0.0976562 2.734375 -0.078125 C 2.222656 -0.253906 1.773438 -0.523438 1.390625 -0.890625 C 1.296875 -0.960938 1.226562 -1.035156 1.1875 -1.109375 C 1.15625 -1.191406 1.140625 -1.269531 1.140625 -1.34375 C 1.140625 -1.5 1.191406 -1.644531 1.296875 -1.78125 C 1.410156 -1.914062 1.550781 -1.984375 1.71875 -1.984375 Z M 1.71875 -1.984375 "/></g></g></g><g fill="#201f1f" fill-opacity="1"><g transform="translate(10.253151, 20.274085)"><g><path d="M 5.71875 0.1875 C 4.6875 0.1875 3.820312 -0.117188 3.125 -0.734375 C 2.4375 -1.347656 1.921875 -2.175781 1.578125 -3.21875 C 1.234375 -4.269531 1.0625 -5.441406 1.0625 -6.734375 C 1.0625 -8.046875 1.234375 -9.222656 1.578125 -10.265625 C 1.921875 -11.316406 2.4375 -12.144531 3.125 -12.75 C 3.820312 -13.363281 4.6875 -13.671875 5.71875 -13.671875 C 6.769531 -13.671875 7.640625 -13.363281 8.328125 -12.75 C 9.015625 -12.144531 9.53125 -11.316406 9.875 -10.265625 C 10.21875 -9.222656 10.390625 -8.046875 10.390625 -6.734375 C 10.390625 -5.441406 10.21875 -4.269531 9.875 -3.21875 C 9.53125 -2.175781 9.015625 -1.347656 8.328125 -0.734375 C 7.640625 -0.117188 6.769531 0.1875 5.71875 0.1875 Z M 5.71875 -1 C 6.476562 -1 7.109375 -1.234375 7.609375 -1.703125 C 8.117188 -2.179688 8.503906 -2.851562 8.765625 -3.71875 C 9.023438 -4.59375 9.15625 -5.597656 9.15625 -6.734375 C 9.15625 -7.890625 9.023438 -8.898438 8.765625 -9.765625 C 8.503906 -10.628906 8.117188 -11.300781 7.609375 -11.78125 C 7.109375 -12.257812 6.476562 -12.5 5.71875 -12.5 C 4.96875 -12.5 4.335938 -12.257812 3.828125 -11.78125 C 3.328125 -11.300781 2.945312 -10.628906 2.6875 -9.765625 C 2.425781 -8.898438 2.296875 -7.890625 2.296875 -6.734375 C 2.296875 -5.597656 2.425781 -4.59375 2.6875 -3.71875 C 2.945312 -2.851562 3.328125 -2.179688 3.828125 -1.703125 C 4.335938 -1.234375 4.96875 -1 5.71875 -1 Z M 5.71875 -1 "/></g></g></g></g></g></g><path stroke-linecap="butt" transform="matrix(0.75, 0, 0, 0.75, 0.0000031164, 0.00002)" fill-opacity="1" fill="#000000" fill-rule="nonzero" stroke-linejoin="miter" d="M 0.807288 1.619765 L 0.807288 998.38023 M 168.567712 1.619765 L 168.567712 998.38023 M 336.322929 1.619765 L 336.322929 998.38023 M 504.083354 1.619765 L 504.083354 998.38023 M 671.83857 1.619765 L 671.83857 998.38023 M 839.593787 1.619765 L 839.593787 998.38023 M 1007.354212 1.619765 L 1007.354212 998.38023 M 1175.109428 1.619765 L 1175.109428 998.38023 M -0.0000041552 0.807265 L 1175.91672 0.807265 M -0.0000041552 200.484358 L 1175.91672 200.484358 M -0.0000041552 400.161451 L 1175.91672 400.161451 M -0.0000041552 599.838544 L 1175.91672 599.838544 M -0.0000041552 799.515637 L 1175.91672 799.515637 M -0.0000041552 999.19273 L 1175.91672 999.19273 " stroke="#000000" stroke-width="1.618182" stroke-opacity="1" stroke-miterlimit="4"/></svg>