<svg xmlns="http://www.w3.org/2000/svg" xmlns:xlink="http://www.w3.org/1999/xlink" width="1176" zoomAndPan="magnify" viewBox="0 0 882 749.999995" height="1000" preserveAspectRatio="xMidYMid meet" version="1.0"><defs><g/><clipPath id="f7054adfa8"><path d="M 380 1.210938 L 388 1.210938 L 388 27 L 380 27 Z M 380 1.210938 " clip-rule="nonzero"/></clipPath><clipPath id="0b5843abde"><path d="M 0.160156 6 L 6 6 L 6 21 L 0.160156 21 Z M 0.160156 6 " clip-rule="nonzero"/></clipPath><clipPath id="abf1a2ab51"><rect x="0" width="8" y="0" height="26"/></clipPath><clipPath id="c7cb55723a"><path d="M 505 1.210938 L 517 1.210938 L 517 27 L 505 27 Z M 505 1.210938 " clip-rule="nonzero"/></clipPath><clipPath id="8a2135d357"><rect x="0" width="12" y="0" height="26"/></clipPath><clipPath id="eb42526cf9"><path d="M 631 1.210938 L 643 1.210938 L 643 27 L 631 27 Z M 631 1.210938 " clip-rule="nonzero"/></clipPath><clipPath id="1e3055366e"><rect x="0" width="12" y="0" height="26"/></clipPath><clipPath id="17f8d01e3c"><path d="M 757 1.210938 L 768 1.210938 L 768 27 L 757 27 Z M 757 1.210938 " clip-rule="nonzero"/></clipPath><clipPath id="d6fa44fb71"><path d="M 0.441406 6 L 11 6 L 11 21 L 0.441406 21 Z M 0.441406 6 " clip-rule="nonzero"/></clipPath><clipPath id="7a40715281"><rect x="0" width="11" y="0" height="26"/></clipPath><clipPath id="39d8f1126c"><rect x="0" width="12" y="0" height="25"/></clipPath><clipPath id="e382196576"><rect x="0" width="12" y="0" height="25"/></clipPath><clipPath id="74c290b8a3"><rect x="0" width="11" y="0" height="25"/></clipPath><clipPath id="d7d1db3904"><rect x="0" width="12" y="0" height="25"/></clipPath><clipPath id="58327367bf"><rect x="0" width="12" y="0" height="25"/></clipPath><clipPath id="64561f9b79"><rect x="0" width="20" y="0" height="25"/></clipPath><clipPath id="bc481e4f81"><rect x="0" width="16" y="0" height="25"/></clipPath><clipPath id="24bf8dd3e3"><rect x="0" width="19" y="0" height="25"/></clipPath><clipPath id="d1281ea5a6"><path d="M 0.398438 6 L 6 6 L 6 20 L 0.398438 20 Z M 0.398438 6 " clip-rule="nonzero"/></clipPath><clipPath id="bb53fda17b"><rect x="0" width="19" y="0" height="25"/></clipPath><clipPath id="ff7e1d7740"><path d="M 0.160156 6 L 6 6 L 6 20 L 0.160156 20 Z M 0.160156 6 " clip-rule="nonzero"/></clipPath><clipPath id="daddd2231e"><path d="M 7 6 L 17.921875 6 L 17.921875 20 L 7 20 Z M 7 6 " clip-rule="nonzero"/></clipPath><clipPath id="d5543931ca"><rect x="0" width="18" y="0" height="25"/></clipPath><clipPath id="7914f4fa33"><path d="M 0.160156 6 L 6 6 L 6 20 L 0.160156 20 Z M 0.160156 6 " clip-rule="nonzero"/></clipPath><clipPath id="830853313b"><rect x="0" width="19" y="0" height="25"/></clipPath><clipPath id="3352559b72"><rect x="0" width="19" y="0" height="25"/></clipPath><clipPath id="00d2a010c7"><rect x="0" width="19" y="0" height="25"/></clipPath><clipPath id="928429e6c8"><rect x="0" width="19" y="0" height="25"/></clipPath><clipPath id="5447faaf2d"><path d="M 2 450.484375 L 21 450.484375 L 21 476 L 2 476 Z M 2 450.484375 " clip-rule="nonzero"/></clipPath><clipPath id="e681ffdce8"><rect x="0" width="19" y="0" height="26"/></clipPath><clipPath id="ed4829e661"><path d="M 128 450.484375 L 151 450.484375 L 151 476 L 128 476 Z M 128 450.484375 " clip-rule="nonzero"/></clipPath><clipPath id="25d63abecc"><rect x="0" width="23" y="0" height="26"/></clipPath><clipPath id="0ed3313d50"><path d="M 254 450.484375 L 273 450.484375 L 273 476 L 254 476 Z M 254 450.484375 " clip-rule="nonzero"/></clipPath><clipPath id="ec5bbafed3"><rect x="0" width="19" y="0" height="26"/></clipPath><clipPath id="a6fbd3e795"><path d="M 380 450.484375 L 402 450.484375 L 402 476 L 380 476 Z M 380 450.484375 " clip-rule="nonzero"/></clipPath><clipPath id="564832e8cf"><rect x="0" width="22" y="0" height="26"/></clipPath><clipPath id="8a1d4b3821"><path d="M 505 450.484375 L 528 450.484375 L 528 476 L 505 476 Z M 505 450.484375 " clip-rule="nonzero"/></clipPath><clipPath id="f43ef8867e"><rect x="0" width="23" y="0" height="26"/></clipPath><clipPath id="2c43d77a64"><path d="M 631 450.484375 L 654 450.484375 L 654 476 L 631 476 Z M 631 450.484375 " clip-rule="nonzero"/></clipPath><clipPath id="2b07768fb3"><rect x="0" width="23" y="0" height="26"/></clipPath><clipPath id="b608a6d7b4"><path d="M 757 450.484375 L 780 450.484375 L 780 476 L 757 476 Z M 757 450.484375 " clip-rule="nonzero"/></clipPath><clipPath id="615ed86bb0"><rect x="0" width="23" y="0" height="26"/></clipPath><clipPath id="3906106cdb"><path d="M 2 600.242188 L 24 600.242188 L 24 626 L 2 626 Z M 2 600.242188 " clip-rule="nonzero"/></clipPath><clipPath id="da8c6bc3cc"><rect x="0" width="22" y="0" height="26"/></clipPath><clipPath id="f597749acd"><path d="M 128 600.242188 L 150 600.242188 L 150 626 L 128 626 Z M 128 600.242188 " clip-rule="nonzero"/></clipPath><clipPath id="61669769dd"><rect x="0" width="22" y="0" height="26"/></clipPath><clipPath id="bef10292fe"><path d="M 254 600.242188 L 276 600.242188 L 276 626 L 254 626 Z M 254 600.242188 " clip-rule="nonzero"/></clipPath><clipPath id="414a313a38"><rect x="0" width="22" y="0" height="26"/></clipPath><clipPath id="0059c07900"><path d="M 380 600.242188 L 402 600.242188 L 402 626 L 380 626 Z M 380 600.242188 " clip-rule="nonzero"/></clipPath><clipPath id="31e721f376"><rect x="0" width="22" y="0" height="26"/></clipPath><clipPath id="153b8c27dd"><path d="M 505 600.242188 L 528 600.242188 L 528 626 L 505 626 Z M 505 600.242188 " clip-rule="nonzero"/></clipPath><clipPath id="b9108b6e2c"><rect x="0" width="23" y="0" height="26"/></clipPath></defs><g clip-path="url(#f7054adfa8)"><g transform="matrix(1, 0, 0, 1, 380, 1)"><g clip-path="url(#abf1a2ab51)"><g clip-path="url(#0b5843abde)"><g fill="#201f1f" fill-opacity="1"><g transform="translate(0.165903, 20.201349)"><g><path d="M 4.34375 0 C 4.164062 0 4.019531 -0.0546875 3.90625 -0.171875 C 3.789062 -0.285156 3.734375 -0.421875 3.734375 -0.578125 L 3.734375 -12.140625 L 3.9375 -11.953125 L 1.390625 -10.25 C 1.285156 -10.164062 1.175781 -10.125 1.0625 -10.125 C 0.90625 -10.125 0.765625 -10.1875 0.640625 -10.3125 C 0.523438 -10.445312 0.46875 -10.59375 0.46875 -10.75 C 0.46875 -10.945312 0.566406 -11.101562 0.765625 -11.21875 L 3.984375 -13.359375 C 4.054688 -13.410156 4.132812 -13.441406 4.21875 -13.453125 C 4.300781 -13.460938 4.375 -13.460938 4.4375 -13.453125 C 4.601562 -13.441406 4.726562 -13.378906 4.8125 -13.265625 C 4.90625 -13.160156 4.953125 -13.03125 4.953125 -12.875 L 4.953125 -0.578125 C 4.953125 -0.421875 4.894531 -0.285156 4.78125 -0.171875 C 4.664062 -0.0546875 4.519531 0 4.34375 0 Z M 4.34375 0 "/></g></g></g></g></g></g></g><g clip-path="url(#c7cb55723a)"><g transform="matrix(1, 0, 0, 1, 505, 1)"><g clip-path="url(#8a2135d357)"><g fill="#201f1f" fill-opacity="1"><g transform="translate(0.984256, 20.201349)"><g><path d="M 9.109375 -1.109375 C 9.265625 -1.109375 9.394531 -1.050781 9.5 -0.9375 C 9.613281 -0.832031 9.671875 -0.707031 9.671875 -0.5625 C 9.671875 -0.394531 9.613281 -0.257812 9.5 -0.15625 C 9.394531 -0.0507812 9.265625 0 9.109375 0 L 1.90625 0 C 1.738281 0 1.59375 -0.046875 1.46875 -0.140625 C 1.34375 -0.234375 1.28125 -0.378906 1.28125 -0.578125 C 1.28125 -0.710938 1.332031 -0.847656 1.4375 -0.984375 L 5.875 -5.875 C 6.582031 -6.644531 7.113281 -7.351562 7.46875 -8 C 7.820312 -8.644531 8 -9.226562 8 -9.75 C 8 -10.59375 7.738281 -11.269531 7.21875 -11.78125 C 6.707031 -12.289062 6.019531 -12.546875 5.15625 -12.546875 C 4.757812 -12.546875 4.363281 -12.460938 3.96875 -12.296875 C 3.570312 -12.128906 3.222656 -11.910156 2.921875 -11.640625 C 2.628906 -11.378906 2.398438 -11.070312 2.234375 -10.71875 C 2.148438 -10.59375 2.066406 -10.503906 1.984375 -10.453125 C 1.898438 -10.398438 1.804688 -10.375 1.703125 -10.375 C 1.554688 -10.375 1.425781 -10.421875 1.3125 -10.515625 C 1.195312 -10.617188 1.140625 -10.738281 1.140625 -10.875 C 1.140625 -10.96875 1.160156 -11.054688 1.203125 -11.140625 C 1.242188 -11.234375 1.3125 -11.335938 1.40625 -11.453125 C 1.632812 -11.847656 1.953125 -12.210938 2.359375 -12.546875 C 2.773438 -12.878906 3.234375 -13.144531 3.734375 -13.34375 C 4.242188 -13.539062 4.742188 -13.640625 5.234375 -13.640625 C 6.046875 -13.640625 6.75 -13.484375 7.34375 -13.171875 C 7.945312 -12.859375 8.410156 -12.414062 8.734375 -11.84375 C 9.054688 -11.28125 9.21875 -10.609375 9.21875 -9.828125 C 9.21875 -9.160156 9.007812 -8.429688 8.59375 -7.640625 C 8.175781 -6.847656 7.5625 -6 6.75 -5.09375 L 3 -0.890625 L 2.8125 -1.109375 Z M 9.109375 -1.109375 "/></g></g></g></g></g></g><g clip-path="url(#eb42526cf9)"><g transform="matrix(1, 0, 0, 1, 631, 1)"><g clip-path="url(#1e3055366e)"><g fill="#201f1f" fill-opacity="1"><g transform="translate(0.80255, 20.201349)"><g><path d="M 1.703125 -1.984375 C 1.773438 -1.984375 1.84375 -1.96875 1.90625 -1.9375 C 1.976562 -1.914062 2.066406 -1.859375 2.171875 -1.765625 C 2.441406 -1.484375 2.757812 -1.269531 3.125 -1.125 C 3.5 -0.976562 3.925781 -0.90625 4.40625 -0.90625 C 5.03125 -0.90625 5.601562 -1.046875 6.125 -1.328125 C 6.644531 -1.609375 7.054688 -2 7.359375 -2.5 C 7.671875 -3.007812 7.828125 -3.59375 7.828125 -4.25 C 7.828125 -4.988281 7.660156 -5.582031 7.328125 -6.03125 C 7.003906 -6.488281 6.585938 -6.832031 6.078125 -7.0625 C 5.578125 -7.289062 5.0625 -7.40625 4.53125 -7.40625 C 4.394531 -7.40625 4.257812 -7.394531 4.125 -7.375 C 3.988281 -7.351562 3.863281 -7.328125 3.75 -7.296875 C 3.632812 -7.273438 3.546875 -7.265625 3.484375 -7.265625 C 3.316406 -7.265625 3.1875 -7.316406 3.09375 -7.421875 C 3 -7.535156 2.953125 -7.675781 2.953125 -7.84375 C 2.953125 -7.925781 2.972656 -8.003906 3.015625 -8.078125 C 3.054688 -8.148438 3.109375 -8.234375 3.171875 -8.328125 L 7.078125 -12.5625 L 7.296875 -12.265625 L 1.484375 -12.265625 C 1.328125 -12.265625 1.191406 -12.316406 1.078125 -12.421875 C 0.972656 -12.535156 0.921875 -12.664062 0.921875 -12.8125 C 0.921875 -12.96875 0.972656 -13.097656 1.078125 -13.203125 C 1.191406 -13.304688 1.328125 -13.359375 1.484375 -13.359375 L 7.9375 -13.359375 C 8.15625 -13.359375 8.304688 -13.289062 8.390625 -13.15625 C 8.484375 -13.019531 8.53125 -12.890625 8.53125 -12.765625 C 8.53125 -12.679688 8.507812 -12.601562 8.46875 -12.53125 C 8.4375 -12.46875 8.390625 -12.394531 8.328125 -12.3125 L 4.421875 -8.078125 L 4 -8.328125 C 4.039062 -8.359375 4.171875 -8.394531 4.390625 -8.4375 C 4.617188 -8.488281 4.796875 -8.515625 4.921875 -8.515625 C 5.628906 -8.515625 6.289062 -8.347656 6.90625 -8.015625 C 7.53125 -7.679688 8.035156 -7.203125 8.421875 -6.578125 C 8.816406 -5.960938 9.015625 -5.195312 9.015625 -4.28125 C 9.015625 -3.382812 8.800781 -2.597656 8.375 -1.921875 C 7.957031 -1.253906 7.390625 -0.734375 6.671875 -0.359375 C 5.953125 0.00390625 5.15625 0.1875 4.28125 0.1875 C 3.757812 0.1875 3.238281 0.0976562 2.71875 -0.078125 C 2.207031 -0.253906 1.765625 -0.523438 1.390625 -0.890625 C 1.296875 -0.960938 1.226562 -1.035156 1.1875 -1.109375 C 1.15625 -1.191406 1.140625 -1.269531 1.140625 -1.34375 C 1.140625 -1.5 1.191406 -1.644531 1.296875 -1.78125 C 1.398438 -1.914062 1.535156 -1.984375 1.703125 -1.984375 Z M 1.703125 -1.984375 "/></g></g></g></g></g></g><g clip-path="url(#17f8d01e3c)"><g transform="matrix(1, 0, 0, 1, 757, 1)"><g clip-path="url(#7a40715281)"><g clip-path="url(#d6fa44fb71)"><g fill="#201f1f" fill-opacity="1"><g transform="translate(0.620845, 20.201349)"><g><path d="M 7.046875 0 C 6.878906 0 6.742188 -0.0546875 6.640625 -0.171875 C 6.546875 -0.285156 6.5 -0.421875 6.5 -0.578125 L 6.5 -11.859375 L 6.75 -11.703125 L 1.6875 -5.015625 L 1.640625 -5.234375 L 9.015625 -5.234375 C 9.171875 -5.234375 9.300781 -5.179688 9.40625 -5.078125 C 9.519531 -4.972656 9.578125 -4.84375 9.578125 -4.6875 C 9.578125 -4.53125 9.519531 -4.398438 9.40625 -4.296875 C 9.300781 -4.203125 9.171875 -4.15625 9.015625 -4.15625 L 0.84375 -4.15625 C 0.6875 -4.15625 0.550781 -4.210938 0.4375 -4.328125 C 0.320312 -4.453125 0.265625 -4.59375 0.265625 -4.75 C 0.265625 -4.882812 0.3125 -5.007812 0.40625 -5.125 L 6.59375 -13.21875 C 6.65625 -13.3125 6.734375 -13.375 6.828125 -13.40625 C 6.921875 -13.4375 7.003906 -13.453125 7.078125 -13.453125 C 7.242188 -13.453125 7.378906 -13.394531 7.484375 -13.28125 C 7.597656 -13.164062 7.65625 -13.03125 7.65625 -12.875 L 7.65625 -0.578125 C 7.65625 -0.421875 7.59375 -0.285156 7.46875 -0.171875 C 7.351562 -0.0546875 7.210938 0 7.046875 0 Z M 7.046875 0 "/></g></g></g></g></g></g></g><g transform="matrix(1, 0, 0, 1, 2, 151)"><g clip-path="url(#39d8f1126c)"><g fill="#201f1f" fill-opacity="1"><g transform="translate(0.710947, 19.959115)"><g><path d="M 4.5 0.03125 C 3.96875 0.03125 3.4375 -0.0507812 2.90625 -0.21875 C 2.375 -0.394531 1.90625 -0.65625 1.5 -1 C 1.425781 -1.0625 1.363281 -1.132812 1.3125 -1.21875 C 1.269531 -1.3125 1.25 -1.40625 1.25 -1.5 C 1.25 -1.625 1.300781 -1.75 1.40625 -1.875 C 1.507812 -2 1.644531 -2.0625 1.8125 -2.0625 C 1.945312 -2.0625 2.085938 -2.003906 2.234375 -1.890625 C 2.566406 -1.628906 2.925781 -1.425781 3.3125 -1.28125 C 3.707031 -1.144531 4.101562 -1.078125 4.5 -1.078125 C 5.25 -1.078125 5.90625 -1.21875 6.46875 -1.5 C 7.039062 -1.789062 7.476562 -2.203125 7.78125 -2.734375 C 8.09375 -3.265625 8.25 -3.882812 8.25 -4.59375 C 8.25 -5.25 8.109375 -5.816406 7.828125 -6.296875 C 7.546875 -6.773438 7.144531 -7.148438 6.625 -7.421875 C 6.101562 -7.703125 5.488281 -7.84375 4.78125 -7.84375 C 4.320312 -7.84375 3.898438 -7.769531 3.515625 -7.625 C 3.140625 -7.488281 2.816406 -7.34375 2.546875 -7.1875 C 2.273438 -7.039062 2.054688 -6.96875 1.890625 -6.96875 C 1.734375 -6.96875 1.601562 -7.003906 1.5 -7.078125 C 1.40625 -7.160156 1.34375 -7.257812 1.3125 -7.375 C 1.28125 -7.488281 1.28125 -7.613281 1.3125 -7.75 L 2.140625 -12.875 C 2.148438 -12.988281 2.207031 -13.09375 2.3125 -13.1875 C 2.425781 -13.289062 2.566406 -13.34375 2.734375 -13.34375 L 8.515625 -13.34375 C 8.671875 -13.34375 8.800781 -13.285156 8.90625 -13.171875 C 9.019531 -13.066406 9.078125 -12.9375 9.078125 -12.78125 C 9.078125 -12.613281 9.019531 -12.472656 8.90625 -12.359375 C 8.800781 -12.253906 8.671875 -12.203125 8.515625 -12.203125 L 3 -12.203125 L 3.171875 -12.375 L 2.390625 -7.828125 L 2.03125 -8.078125 C 2.195312 -8.203125 2.4375 -8.328125 2.75 -8.453125 C 3.070312 -8.578125 3.425781 -8.6875 3.8125 -8.78125 C 4.207031 -8.882812 4.617188 -8.9375 5.046875 -8.9375 C 5.878906 -8.9375 6.625 -8.753906 7.28125 -8.390625 C 7.9375 -8.023438 8.453125 -7.519531 8.828125 -6.875 C 9.203125 -6.226562 9.390625 -5.476562 9.390625 -4.625 C 9.390625 -3.695312 9.1875 -2.882812 8.78125 -2.1875 C 8.382812 -1.488281 7.820312 -0.941406 7.09375 -0.546875 C 6.363281 -0.160156 5.5 0.03125 4.5 0.03125 Z M 4.5 0.03125 "/></g></g></g></g></g><g transform="matrix(1, 0, 0, 1, 128, 151)"><g clip-path="url(#e382196576)"><g fill="#201f1f" fill-opacity="1"><g transform="translate(0.529269, 19.959115)"><g><path d="M 5.515625 0.1875 C 4.773438 0.1875 4.125 0.0546875 3.5625 -0.203125 C 3.007812 -0.472656 2.550781 -0.835938 2.1875 -1.296875 C 1.820312 -1.753906 1.550781 -2.269531 1.375 -2.84375 C 1.195312 -3.414062 1.109375 -4.003906 1.109375 -4.609375 C 1.109375 -5.222656 1.1875 -5.882812 1.34375 -6.59375 C 1.5 -7.3125 1.734375 -8.035156 2.046875 -8.765625 C 2.367188 -9.492188 2.765625 -10.179688 3.234375 -10.828125 C 3.703125 -11.484375 4.242188 -12.070312 4.859375 -12.59375 C 5.484375 -13.113281 6.1875 -13.519531 6.96875 -13.8125 C 7.0625 -13.84375 7.140625 -13.859375 7.203125 -13.859375 C 7.367188 -13.859375 7.515625 -13.8125 7.640625 -13.71875 C 7.765625 -13.632812 7.828125 -13.484375 7.828125 -13.265625 C 7.828125 -13.128906 7.785156 -13.015625 7.703125 -12.921875 C 7.617188 -12.828125 7.503906 -12.753906 7.359375 -12.703125 C 6.816406 -12.472656 6.285156 -12.144531 5.765625 -11.71875 C 5.242188 -11.300781 4.753906 -10.816406 4.296875 -10.265625 C 3.847656 -9.710938 3.46875 -9.117188 3.15625 -8.484375 C 2.84375 -7.847656 2.625 -7.203125 2.5 -6.546875 L 2.078125 -6.296875 C 2.304688 -6.722656 2.601562 -7.097656 2.96875 -7.421875 C 3.332031 -7.753906 3.75 -8.019531 4.21875 -8.21875 C 4.695312 -8.414062 5.210938 -8.515625 5.765625 -8.515625 C 6.335938 -8.515625 6.867188 -8.390625 7.359375 -8.140625 C 7.847656 -7.898438 8.265625 -7.570312 8.609375 -7.15625 C 8.960938 -6.738281 9.238281 -6.265625 9.4375 -5.734375 C 9.644531 -5.210938 9.75 -4.671875 9.75 -4.109375 C 9.75 -3.359375 9.5625 -2.65625 9.1875 -2 C 8.820312 -1.34375 8.320312 -0.8125 7.6875 -0.40625 C 7.0625 -0.0078125 6.335938 0.1875 5.515625 0.1875 Z M 5.5 -0.921875 C 6.082031 -0.921875 6.601562 -1.054688 7.0625 -1.328125 C 7.53125 -1.597656 7.894531 -1.972656 8.15625 -2.453125 C 8.414062 -2.929688 8.546875 -3.484375 8.546875 -4.109375 C 8.546875 -4.691406 8.429688 -5.226562 8.203125 -5.71875 C 7.984375 -6.207031 7.648438 -6.609375 7.203125 -6.921875 C 6.765625 -7.242188 6.222656 -7.40625 5.578125 -7.40625 C 4.898438 -7.40625 4.3125 -7.25 3.8125 -6.9375 C 3.320312 -6.632812 2.941406 -6.226562 2.671875 -5.71875 C 2.410156 -5.207031 2.28125 -4.65625 2.28125 -4.0625 C 2.28125 -3.519531 2.410156 -3.007812 2.671875 -2.53125 C 2.929688 -2.050781 3.300781 -1.660156 3.78125 -1.359375 C 4.257812 -1.066406 4.832031 -0.921875 5.5 -0.921875 Z M 5.5 -0.921875 "/></g></g></g></g></g><g transform="matrix(1, 0, 0, 1, 254, 151)"><g clip-path="url(#74c290b8a3)"><g fill="#201f1f" fill-opacity="1"><g transform="translate(0.347579, 19.959115)"><g><path d="M 3.421875 0.0625 C 3.265625 0.0625 3.125 0.0078125 3 -0.09375 C 2.875 -0.195312 2.8125 -0.328125 2.8125 -0.484375 C 2.8125 -0.566406 2.828125 -0.660156 2.859375 -0.765625 L 7.96875 -12.515625 L 8.1875 -12.25 L 1.6875 -12.25 C 1.53125 -12.25 1.398438 -12.300781 1.296875 -12.40625 C 1.191406 -12.507812 1.140625 -12.640625 1.140625 -12.796875 C 1.140625 -12.960938 1.191406 -13.097656 1.296875 -13.203125 C 1.398438 -13.304688 1.53125 -13.359375 1.6875 -13.359375 L 8.75 -13.359375 C 8.9375 -13.359375 9.070312 -13.304688 9.15625 -13.203125 C 9.25 -13.097656 9.296875 -12.96875 9.296875 -12.8125 C 9.296875 -12.71875 9.28125 -12.625 9.25 -12.53125 L 3.953125 -0.328125 C 3.921875 -0.210938 3.851562 -0.117188 3.75 -0.046875 C 3.644531 0.0234375 3.535156 0.0625 3.421875 0.0625 Z M 3.421875 0.0625 "/></g></g></g></g></g><g transform="matrix(1, 0, 0, 1, 380, 151)"><g clip-path="url(#d7d1db3904)"><g fill="#201f1f" fill-opacity="1"><g transform="translate(0.165903, 19.959115)"><g><path d="M 7 -6.765625 L 6.9375 -6.9375 C 7.375 -6.769531 7.769531 -6.519531 8.125 -6.1875 C 8.488281 -5.863281 8.78125 -5.476562 9 -5.03125 C 9.21875 -4.59375 9.328125 -4.113281 9.328125 -3.59375 C 9.328125 -2.90625 9.140625 -2.273438 8.765625 -1.703125 C 8.398438 -1.140625 7.90625 -0.691406 7.28125 -0.359375 C 6.65625 -0.0234375 5.957031 0.140625 5.1875 0.140625 C 4.40625 0.140625 3.703125 -0.0234375 3.078125 -0.359375 C 2.460938 -0.691406 1.972656 -1.140625 1.609375 -1.703125 C 1.242188 -2.273438 1.0625 -2.90625 1.0625 -3.59375 C 1.0625 -4.15625 1.171875 -4.65625 1.390625 -5.09375 C 1.617188 -5.539062 1.914062 -5.914062 2.28125 -6.21875 C 2.644531 -6.53125 3.023438 -6.769531 3.421875 -6.9375 L 3.359375 -6.75 C 3.015625 -6.914062 2.691406 -7.140625 2.390625 -7.421875 C 2.085938 -7.710938 1.835938 -8.0625 1.640625 -8.46875 C 1.453125 -8.875 1.359375 -9.316406 1.359375 -9.796875 C 1.359375 -10.492188 1.53125 -11.113281 1.875 -11.65625 C 2.21875 -12.207031 2.675781 -12.644531 3.25 -12.96875 C 3.832031 -13.289062 4.476562 -13.453125 5.1875 -13.453125 C 5.894531 -13.453125 6.53125 -13.289062 7.09375 -12.96875 C 7.664062 -12.644531 8.117188 -12.207031 8.453125 -11.65625 C 8.796875 -11.113281 8.96875 -10.492188 8.96875 -9.796875 C 8.96875 -9.296875 8.875 -8.847656 8.6875 -8.453125 C 8.5 -8.054688 8.25 -7.710938 7.9375 -7.421875 C 7.625 -7.140625 7.3125 -6.921875 7 -6.765625 Z M 2.5625 -9.796875 C 2.5625 -9.285156 2.679688 -8.835938 2.921875 -8.453125 C 3.160156 -8.066406 3.476562 -7.765625 3.875 -7.546875 C 4.28125 -7.328125 4.71875 -7.21875 5.1875 -7.21875 C 5.644531 -7.21875 6.070312 -7.328125 6.46875 -7.546875 C 6.875 -7.765625 7.191406 -8.066406 7.421875 -8.453125 C 7.660156 -8.835938 7.78125 -9.285156 7.78125 -9.796875 C 7.78125 -10.554688 7.535156 -11.171875 7.046875 -11.640625 C 6.566406 -12.117188 5.945312 -12.359375 5.1875 -12.359375 C 4.40625 -12.359375 3.769531 -12.117188 3.28125 -11.640625 C 2.800781 -11.171875 2.5625 -10.554688 2.5625 -9.796875 Z M 5.1875 -0.953125 C 6.0625 -0.953125 6.769531 -1.203125 7.3125 -1.703125 C 7.851562 -2.203125 8.125 -2.832031 8.125 -3.59375 C 8.125 -4.101562 7.988281 -4.5625 7.71875 -4.96875 C 7.457031 -5.382812 7.101562 -5.707031 6.65625 -5.9375 C 6.207031 -6.164062 5.71875 -6.28125 5.1875 -6.28125 C 4.664062 -6.28125 4.179688 -6.164062 3.734375 -5.9375 C 3.285156 -5.707031 2.925781 -5.382812 2.65625 -4.96875 C 2.382812 -4.5625 2.25 -4.101562 2.25 -3.59375 C 2.25 -2.832031 2.515625 -2.203125 3.046875 -1.703125 C 3.585938 -1.203125 4.300781 -0.953125 5.1875 -0.953125 Z M 5.1875 -0.953125 "/></g></g></g></g></g><g transform="matrix(1, 0, 0, 1, 505, 151)"><g clip-path="url(#58327367bf)"><g fill="#201f1f" fill-opacity="1"><g transform="translate(0.984256, 19.959115)"><g><path d="M 5.328125 -13.671875 C 6.078125 -13.671875 6.726562 -13.535156 7.28125 -13.265625 C 7.84375 -12.992188 8.300781 -12.628906 8.65625 -12.171875 C 9.019531 -11.722656 9.289062 -11.207031 9.46875 -10.625 C 9.65625 -10.050781 9.75 -9.460938 9.75 -8.859375 C 9.75 -8.242188 9.664062 -7.585938 9.5 -6.890625 C 9.34375 -6.191406 9.109375 -5.484375 8.796875 -4.765625 C 8.484375 -4.054688 8.09375 -3.378906 7.625 -2.734375 C 7.15625 -2.097656 6.601562 -1.523438 5.96875 -1.015625 C 5.34375 -0.503906 4.644531 -0.109375 3.875 0.171875 C 3.78125 0.203125 3.695312 0.21875 3.625 0.21875 C 3.476562 0.21875 3.34375 0.160156 3.21875 0.046875 C 3.09375 -0.0546875 3.03125 -0.203125 3.03125 -0.390625 C 3.03125 -0.515625 3.066406 -0.625 3.140625 -0.71875 C 3.222656 -0.8125 3.34375 -0.882812 3.5 -0.9375 C 4.226562 -1.25 4.929688 -1.707031 5.609375 -2.3125 C 6.285156 -2.925781 6.867188 -3.628906 7.359375 -4.421875 C 7.859375 -5.222656 8.191406 -6.054688 8.359375 -6.921875 L 8.765625 -7.171875 C 8.546875 -6.753906 8.25 -6.378906 7.875 -6.046875 C 7.507812 -5.710938 7.09375 -5.453125 6.625 -5.265625 C 6.15625 -5.085938 5.644531 -5 5.09375 -5 C 4.269531 -5 3.5625 -5.195312 2.96875 -5.59375 C 2.375 -6 1.914062 -6.535156 1.59375 -7.203125 C 1.269531 -7.867188 1.109375 -8.585938 1.109375 -9.359375 C 1.109375 -10.117188 1.289062 -10.820312 1.65625 -11.46875 C 2.019531 -12.125 2.519531 -12.65625 3.15625 -13.0625 C 3.789062 -13.46875 4.515625 -13.671875 5.328125 -13.671875 Z M 5.359375 -12.546875 C 4.753906 -12.546875 4.222656 -12.410156 3.765625 -12.140625 C 3.304688 -11.878906 2.941406 -11.503906 2.671875 -11.015625 C 2.410156 -10.535156 2.28125 -9.984375 2.28125 -9.359375 C 2.28125 -8.796875 2.390625 -8.265625 2.609375 -7.765625 C 2.835938 -7.265625 3.175781 -6.863281 3.625 -6.5625 C 4.082031 -6.257812 4.628906 -6.109375 5.265625 -6.109375 C 5.953125 -6.109375 6.539062 -6.257812 7.03125 -6.5625 C 7.519531 -6.863281 7.898438 -7.265625 8.171875 -7.765625 C 8.441406 -8.265625 8.578125 -8.816406 8.578125 -9.421875 C 8.578125 -9.972656 8.445312 -10.484375 8.1875 -10.953125 C 7.925781 -11.429688 7.554688 -11.816406 7.078125 -12.109375 C 6.609375 -12.398438 6.035156 -12.546875 5.359375 -12.546875 Z M 5.359375 -12.546875 "/></g></g></g></g></g><g transform="matrix(1, 0, 0, 1, 631, 151)"><g clip-path="url(#64561f9b79)"><g fill="#201f1f" fill-opacity="1"><g transform="translate(0.80255, 19.959115)"><g><path d="M 4.34375 0 C 4.164062 0 4.019531 -0.0546875 3.90625 -0.171875 C 3.789062 -0.285156 3.734375 -0.421875 3.734375 -0.578125 L 3.734375 -12.140625 L 3.9375 -11.953125 L 1.390625 -10.25 C 1.285156 -10.164062 1.175781 -10.125 1.0625 -10.125 C 0.90625 -10.125 0.765625 -10.1875 0.640625 -10.3125 C 0.523438 -10.445312 0.46875 -10.59375 0.46875 -10.75 C 0.46875 -10.945312 0.566406 -11.101562 0.765625 -11.21875 L 3.984375 -13.359375 C 4.054688 -13.410156 4.132812 -13.441406 4.21875 -13.453125 C 4.300781 -13.460938 4.375 -13.460938 4.4375 -13.453125 C 4.601562 -13.441406 4.726562 -13.378906 4.8125 -13.265625 C 4.90625 -13.160156 4.953125 -13.03125 4.953125 -12.875 L 4.953125 -0.578125 C 4.953125 -0.421875 4.894531 -0.285156 4.78125 -0.171875 C 4.664062 -0.0546875 4.519531 0 4.34375 0 Z M 4.34375 0 "/></g></g></g><g fill="#201f1f" fill-opacity="1"><g transform="translate(7.908331, 19.959115)"><g><path d="M 5.703125 0.1875 C 4.679688 0.1875 3.820312 -0.117188 3.125 -0.734375 C 2.4375 -1.347656 1.921875 -2.175781 1.578125 -3.21875 C 1.234375 -4.257812 1.0625 -5.425781 1.0625 -6.71875 C 1.0625 -8.03125 1.234375 -9.207031 1.578125 -10.25 C 1.921875 -11.289062 2.4375 -12.113281 3.125 -12.71875 C 3.820312 -13.332031 4.679688 -13.640625 5.703125 -13.640625 C 6.753906 -13.640625 7.625 -13.332031 8.3125 -12.71875 C 9 -12.113281 9.515625 -11.289062 9.859375 -10.25 C 10.203125 -9.207031 10.375 -8.03125 10.375 -6.71875 C 10.375 -5.425781 10.203125 -4.257812 9.859375 -3.21875 C 9.515625 -2.175781 9 -1.347656 8.3125 -0.734375 C 7.625 -0.117188 6.753906 0.1875 5.703125 0.1875 Z M 5.703125 -1 C 6.460938 -1 7.09375 -1.234375 7.59375 -1.703125 C 8.101562 -2.179688 8.488281 -2.851562 8.75 -3.71875 C 9.007812 -4.582031 9.140625 -5.582031 9.140625 -6.71875 C 9.140625 -7.875 9.007812 -8.882812 8.75 -9.75 C 8.488281 -10.613281 8.101562 -11.28125 7.59375 -11.75 C 7.09375 -12.226562 6.460938 -12.46875 5.703125 -12.46875 C 4.960938 -12.46875 4.335938 -12.226562 3.828125 -11.75 C 3.328125 -11.28125 2.941406 -10.613281 2.671875 -9.75 C 2.410156 -8.882812 2.28125 -7.875 2.28125 -6.71875 C 2.28125 -5.582031 2.410156 -4.582031 2.671875 -3.71875 C 2.941406 -2.851562 3.328125 -2.179688 3.828125 -1.703125 C 4.335938 -1.234375 4.960938 -1 5.703125 -1 Z M 5.703125 -1 "/></g></g></g></g></g><g transform="matrix(1, 0, 0, 1, 757, 151)"><g clip-path="url(#bc481e4f81)"><g fill="#201f1f" fill-opacity="1"><g transform="translate(0.620845, 19.959115)"><g><path d="M 4.34375 0 C 4.164062 0 4.019531 -0.0546875 3.90625 -0.171875 C 3.789062 -0.285156 3.734375 -0.421875 3.734375 -0.578125 L 3.734375 -12.140625 L 3.9375 -11.953125 L 1.390625 -10.25 C 1.285156 -10.164062 1.175781 -10.125 1.0625 -10.125 C 0.90625 -10.125 0.765625 -10.1875 0.640625 -10.3125 C 0.523438 -10.445312 0.46875 -10.59375 0.46875 -10.75 C 0.46875 -10.945312 0.566406 -11.101562 0.765625 -11.21875 L 3.984375 -13.359375 C 4.054688 -13.410156 4.132812 -13.441406 4.21875 -13.453125 C 4.300781 -13.460938 4.375 -13.460938 4.4375 -13.453125 C 4.601562 -13.441406 4.726562 -13.378906 4.8125 -13.265625 C 4.90625 -13.160156 4.953125 -13.03125 4.953125 -12.875 L 4.953125 -0.578125 C 4.953125 -0.421875 4.894531 -0.285156 4.78125 -0.171875 C 4.664062 -0.0546875 4.519531 0 4.34375 0 Z M 4.34375 0 "/></g></g></g><g fill="#201f1f" fill-opacity="1"><g transform="translate(7.726626, 19.959115)"><g><path d="M 4.34375 0 C 4.164062 0 4.019531 -0.0546875 3.90625 -0.171875 C 3.789062 -0.285156 3.734375 -0.421875 3.734375 -0.578125 L 3.734375 -12.140625 L 3.9375 -11.953125 L 1.390625 -10.25 C 1.285156 -10.164062 1.175781 -10.125 1.0625 -10.125 C 0.90625 -10.125 0.765625 -10.1875 0.640625 -10.3125 C 0.523438 -10.445312 0.46875 -10.59375 0.46875 -10.75 C 0.46875 -10.945312 0.566406 -11.101562 0.765625 -11.21875 L 3.984375 -13.359375 C 4.054688 -13.410156 4.132812 -13.441406 4.21875 -13.453125 C 4.300781 -13.460938 4.375 -13.460938 4.4375 -13.453125 C 4.601562 -13.441406 4.726562 -13.378906 4.8125 -13.265625 C 4.90625 -13.160156 4.953125 -13.03125 4.953125 -12.875 L 4.953125 -0.578125 C 4.953125 -0.421875 4.894531 -0.285156 4.78125 -0.171875 C 4.664062 -0.0546875 4.519531 0 4.34375 0 Z M 4.34375 0 "/></g></g></g></g></g><g transform="matrix(1, 0, 0, 1, 2, 301)"><g clip-path="url(#24bf8dd3e3)"><g fill="#201f1f" fill-opacity="1"><g transform="translate(0.710947, 19.716881)"><g><path d="M 4.34375 0 C 4.164062 0 4.019531 -0.0546875 3.90625 -0.171875 C 3.789062 -0.285156 3.734375 -0.421875 3.734375 -0.578125 L 3.734375 -12.140625 L 3.9375 -11.953125 L 1.390625 -10.25 C 1.285156 -10.164062 1.175781 -10.125 1.0625 -10.125 C 0.90625 -10.125 0.765625 -10.1875 0.640625 -10.3125 C 0.523438 -10.445312 0.46875 -10.59375 0.46875 -10.75 C 0.46875 -10.945312 0.566406 -11.101562 0.765625 -11.21875 L 3.984375 -13.359375 C 4.054688 -13.410156 4.132812 -13.441406 4.21875 -13.453125 C 4.300781 -13.460938 4.375 -13.460938 4.4375 -13.453125 C 4.601562 -13.441406 4.726562 -13.378906 4.8125 -13.265625 C 4.90625 -13.160156 4.953125 -13.03125 4.953125 -12.875 L 4.953125 -0.578125 C 4.953125 -0.421875 4.894531 -0.285156 4.78125 -0.171875 C 4.664062 -0.0546875 4.519531 0 4.34375 0 Z M 4.34375 0 "/></g></g></g><g fill="#201f1f" fill-opacity="1"><g transform="translate(7.816728, 19.716881)"><g><path d="M 9.109375 -1.109375 C 9.265625 -1.109375 9.394531 -1.050781 9.5 -0.9375 C 9.613281 -0.832031 9.671875 -0.707031 9.671875 -0.5625 C 9.671875 -0.394531 9.613281 -0.257812 9.5 -0.15625 C 9.394531 -0.0507812 9.265625 0 9.109375 0 L 1.90625 0 C 1.738281 0 1.59375 -0.046875 1.46875 -0.140625 C 1.34375 -0.234375 1.28125 -0.378906 1.28125 -0.578125 C 1.28125 -0.710938 1.332031 -0.847656 1.4375 -0.984375 L 5.875 -5.875 C 6.582031 -6.644531 7.113281 -7.351562 7.46875 -8 C 7.820312 -8.644531 8 -9.226562 8 -9.75 C 8 -10.59375 7.738281 -11.269531 7.21875 -11.78125 C 6.707031 -12.289062 6.019531 -12.546875 5.15625 -12.546875 C 4.757812 -12.546875 4.363281 -12.460938 3.96875 -12.296875 C 3.570312 -12.128906 3.222656 -11.910156 2.921875 -11.640625 C 2.628906 -11.378906 2.398438 -11.070312 2.234375 -10.71875 C 2.148438 -10.59375 2.066406 -10.503906 1.984375 -10.453125 C 1.898438 -10.398438 1.804688 -10.375 1.703125 -10.375 C 1.554688 -10.375 1.425781 -10.421875 1.3125 -10.515625 C 1.195312 -10.617188 1.140625 -10.738281 1.140625 -10.875 C 1.140625 -10.96875 1.160156 -11.054688 1.203125 -11.140625 C 1.242188 -11.234375 1.3125 -11.335938 1.40625 -11.453125 C 1.632812 -11.847656 1.953125 -12.210938 2.359375 -12.546875 C 2.773438 -12.878906 3.234375 -13.144531 3.734375 -13.34375 C 4.242188 -13.539062 4.742188 -13.640625 5.234375 -13.640625 C 6.046875 -13.640625 6.75 -13.484375 7.34375 -13.171875 C 7.945312 -12.859375 8.410156 -12.414062 8.734375 -11.84375 C 9.054688 -11.28125 9.21875 -10.609375 9.21875 -9.828125 C 9.21875 -9.160156 9.007812 -8.429688 8.59375 -7.640625 C 8.175781 -6.847656 7.5625 -6 6.75 -5.09375 L 3 -0.890625 L 2.8125 -1.109375 Z M 9.109375 -1.109375 "/></g></g></g></g></g><g transform="matrix(1, 0, 0, 1, 128, 301)"><g clip-path="url(#bb53fda17b)"><g clip-path="url(#d1281ea5a6)"><g fill="#201f1f" fill-opacity="1"><g transform="translate(0.529269, 19.716881)"><g><path d="M 4.34375 0 C 4.164062 0 4.019531 -0.0546875 3.90625 -0.171875 C 3.789062 -0.285156 3.734375 -0.421875 3.734375 -0.578125 L 3.734375 -12.140625 L 3.9375 -11.953125 L 1.390625 -10.25 C 1.285156 -10.164062 1.175781 -10.125 1.0625 -10.125 C 0.90625 -10.125 0.765625 -10.1875 0.640625 -10.3125 C 0.523438 -10.445312 0.46875 -10.59375 0.46875 -10.75 C 0.46875 -10.945312 0.566406 -11.101562 0.765625 -11.21875 L 3.984375 -13.359375 C 4.054688 -13.410156 4.132812 -13.441406 4.21875 -13.453125 C 4.300781 -13.460938 4.375 -13.460938 4.4375 -13.453125 C 4.601562 -13.441406 4.726562 -13.378906 4.8125 -13.265625 C 4.90625 -13.160156 4.953125 -13.03125 4.953125 -12.875 L 4.953125 -0.578125 C 4.953125 -0.421875 4.894531 -0.285156 4.78125 -0.171875 C 4.664062 -0.0546875 4.519531 0 4.34375 0 Z M 4.34375 0 "/></g></g></g></g><g fill="#201f1f" fill-opacity="1"><g transform="translate(7.63505, 19.716881)"><g><path d="M 1.703125 -1.984375 C 1.773438 -1.984375 1.84375 -1.96875 1.90625 -1.9375 C 1.976562 -1.914062 2.066406 -1.859375 2.171875 -1.765625 C 2.441406 -1.484375 2.757812 -1.269531 3.125 -1.125 C 3.5 -0.976562 3.925781 -0.90625 4.40625 -0.90625 C 5.03125 -0.90625 5.601562 -1.046875 6.125 -1.328125 C 6.644531 -1.609375 7.054688 -2 7.359375 -2.5 C 7.671875 -3.007812 7.828125 -3.59375 7.828125 -4.25 C 7.828125 -4.988281 7.660156 -5.582031 7.328125 -6.03125 C 7.003906 -6.488281 6.585938 -6.832031 6.078125 -7.0625 C 5.578125 -7.289062 5.0625 -7.40625 4.53125 -7.40625 C 4.394531 -7.40625 4.257812 -7.394531 4.125 -7.375 C 3.988281 -7.351562 3.863281 -7.328125 3.75 -7.296875 C 3.632812 -7.273438 3.546875 -7.265625 3.484375 -7.265625 C 3.316406 -7.265625 3.1875 -7.316406 3.09375 -7.421875 C 3 -7.535156 2.953125 -7.675781 2.953125 -7.84375 C 2.953125 -7.925781 2.972656 -8.003906 3.015625 -8.078125 C 3.054688 -8.148438 3.109375 -8.234375 3.171875 -8.328125 L 7.078125 -12.5625 L 7.296875 -12.265625 L 1.484375 -12.265625 C 1.328125 -12.265625 1.191406 -12.316406 1.078125 -12.421875 C 0.972656 -12.535156 0.921875 -12.664062 0.921875 -12.8125 C 0.921875 -12.96875 0.972656 -13.097656 1.078125 -13.203125 C 1.191406 -13.304688 1.328125 -13.359375 1.484375 -13.359375 L 7.9375 -13.359375 C 8.15625 -13.359375 8.304688 -13.289062 8.390625 -13.15625 C 8.484375 -13.019531 8.53125 -12.890625 8.53125 -12.765625 C 8.53125 -12.679688 8.507812 -12.601562 8.46875 -12.53125 C 8.4375 -12.46875 8.390625 -12.394531 8.328125 -12.3125 L 4.421875 -8.078125 L 4 -8.328125 C 4.039062 -8.359375 4.171875 -8.394531 4.390625 -8.4375 C 4.617188 -8.488281 4.796875 -8.515625 4.921875 -8.515625 C 5.628906 -8.515625 6.289062 -8.347656 6.90625 -8.015625 C 7.53125 -7.679688 8.035156 -7.203125 8.421875 -6.578125 C 8.816406 -5.960938 9.015625 -5.195312 9.015625 -4.28125 C 9.015625 -3.382812 8.800781 -2.597656 8.375 -1.921875 C 7.957031 -1.253906 7.390625 -0.734375 6.671875 -0.359375 C 5.953125 0.00390625 5.15625 0.1875 4.28125 0.1875 C 3.757812 0.1875 3.238281 0.0976562 2.71875 -0.078125 C 2.207031 -0.253906 1.765625 -0.523438 1.390625 -0.890625 C 1.296875 -0.960938 1.226562 -1.035156 1.1875 -1.109375 C 1.15625 -1.191406 1.140625 -1.269531 1.140625 -1.34375 C 1.140625 -1.5 1.191406 -1.644531 1.296875 -1.78125 C 1.398438 -1.914062 1.535156 -1.984375 1.703125 -1.984375 Z M 1.703125 -1.984375 "/></g></g></g></g></g><g transform="matrix(1, 0, 0, 1, 254, 301)"><g clip-path="url(#d5543931ca)"><g clip-path="url(#ff7e1d7740)"><g fill="#201f1f" fill-opacity="1"><g transform="translate(0.347579, 19.716881)"><g><path d="M 4.34375 0 C 4.164062 0 4.019531 -0.0546875 3.90625 -0.171875 C 3.789062 -0.285156 3.734375 -0.421875 3.734375 -0.578125 L 3.734375 -12.140625 L 3.9375 -11.953125 L 1.390625 -10.25 C 1.285156 -10.164062 1.175781 -10.125 1.0625 -10.125 C 0.90625 -10.125 0.765625 -10.1875 0.640625 -10.3125 C 0.523438 -10.445312 0.46875 -10.59375 0.46875 -10.75 C 0.46875 -10.945312 0.566406 -11.101562 0.765625 -11.21875 L 3.984375 -13.359375 C 4.054688 -13.410156 4.132812 -13.441406 4.21875 -13.453125 C 4.300781 -13.460938 4.375 -13.460938 4.4375 -13.453125 C 4.601562 -13.441406 4.726562 -13.378906 4.8125 -13.265625 C 4.90625 -13.160156 4.953125 -13.03125 4.953125 -12.875 L 4.953125 -0.578125 C 4.953125 -0.421875 4.894531 -0.285156 4.78125 -0.171875 C 4.664062 -0.0546875 4.519531 0 4.34375 0 Z M 4.34375 0 "/></g></g></g></g><g clip-path="url(#daddd2231e)"><g fill="#201f1f" fill-opacity="1"><g transform="translate(7.45336, 19.716881)"><g><path d="M 7.046875 0 C 6.878906 0 6.742188 -0.0546875 6.640625 -0.171875 C 6.546875 -0.285156 6.5 -0.421875 6.5 -0.578125 L 6.5 -11.859375 L 6.75 -11.703125 L 1.6875 -5.015625 L 1.640625 -5.234375 L 9.015625 -5.234375 C 9.171875 -5.234375 9.300781 -5.179688 9.40625 -5.078125 C 9.519531 -4.972656 9.578125 -4.84375 9.578125 -4.6875 C 9.578125 -4.53125 9.519531 -4.398438 9.40625 -4.296875 C 9.300781 -4.203125 9.171875 -4.15625 9.015625 -4.15625 L 0.84375 -4.15625 C 0.6875 -4.15625 0.550781 -4.210938 0.4375 -4.328125 C 0.320312 -4.453125 0.265625 -4.59375 0.265625 -4.75 C 0.265625 -4.882812 0.3125 -5.007812 0.40625 -5.125 L 6.59375 -13.21875 C 6.65625 -13.3125 6.734375 -13.375 6.828125 -13.40625 C 6.921875 -13.4375 7.003906 -13.453125 7.078125 -13.453125 C 7.242188 -13.453125 7.378906 -13.394531 7.484375 -13.28125 C 7.597656 -13.164062 7.65625 -13.03125 7.65625 -12.875 L 7.65625 -0.578125 C 7.65625 -0.421875 7.59375 -0.285156 7.46875 -0.171875 C 7.351562 -0.0546875 7.210938 0 7.046875 0 Z M 7.046875 0 "/></g></g></g></g></g></g><g transform="matrix(1, 0, 0, 1, 380, 301)"><g clip-path="url(#830853313b)"><g clip-path="url(#7914f4fa33)"><g fill="#201f1f" fill-opacity="1"><g transform="translate(0.165903, 19.716881)"><g><path d="M 4.34375 0 C 4.164062 0 4.019531 -0.0546875 3.90625 -0.171875 C 3.789062 -0.285156 3.734375 -0.421875 3.734375 -0.578125 L 3.734375 -12.140625 L 3.9375 -11.953125 L 1.390625 -10.25 C 1.285156 -10.164062 1.175781 -10.125 1.0625 -10.125 C 0.90625 -10.125 0.765625 -10.1875 0.640625 -10.3125 C 0.523438 -10.445312 0.46875 -10.59375 0.46875 -10.75 C 0.46875 -10.945312 0.566406 -11.101562 0.765625 -11.21875 L 3.984375 -13.359375 C 4.054688 -13.410156 4.132812 -13.441406 4.21875 -13.453125 C 4.300781 -13.460938 4.375 -13.460938 4.4375 -13.453125 C 4.601562 -13.441406 4.726562 -13.378906 4.8125 -13.265625 C 4.90625 -13.160156 4.953125 -13.03125 4.953125 -12.875 L 4.953125 -0.578125 C 4.953125 -0.421875 4.894531 -0.285156 4.78125 -0.171875 C 4.664062 -0.0546875 4.519531 0 4.34375 0 Z M 4.34375 0 "/></g></g></g></g><g fill="#201f1f" fill-opacity="1"><g transform="translate(7.271683, 19.716881)"><g><path d="M 4.5 0.03125 C 3.96875 0.03125 3.4375 -0.0507812 2.90625 -0.21875 C 2.375 -0.394531 1.90625 -0.65625 1.5 -1 C 1.425781 -1.0625 1.363281 -1.132812 1.3125 -1.21875 C 1.269531 -1.3125 1.25 -1.40625 1.25 -1.5 C 1.25 -1.625 1.300781 -1.75 1.40625 -1.875 C 1.507812 -2 1.644531 -2.0625 1.8125 -2.0625 C 1.945312 -2.0625 2.085938 -2.003906 2.234375 -1.890625 C 2.566406 -1.628906 2.925781 -1.425781 3.3125 -1.28125 C 3.707031 -1.144531 4.101562 -1.078125 4.5 -1.078125 C 5.25 -1.078125 5.90625 -1.21875 6.46875 -1.5 C 7.039062 -1.789062 7.476562 -2.203125 7.78125 -2.734375 C 8.09375 -3.265625 8.25 -3.882812 8.25 -4.59375 C 8.25 -5.25 8.109375 -5.816406 7.828125 -6.296875 C 7.546875 -6.773438 7.144531 -7.148438 6.625 -7.421875 C 6.101562 -7.703125 5.488281 -7.84375 4.78125 -7.84375 C 4.320312 -7.84375 3.898438 -7.769531 3.515625 -7.625 C 3.140625 -7.488281 2.816406 -7.34375 2.546875 -7.1875 C 2.273438 -7.039062 2.054688 -6.96875 1.890625 -6.96875 C 1.734375 -6.96875 1.601562 -7.003906 1.5 -7.078125 C 1.40625 -7.160156 1.34375 -7.257812 1.3125 -7.375 C 1.28125 -7.488281 1.28125 -7.613281 1.3125 -7.75 L 2.140625 -12.875 C 2.148438 -12.988281 2.207031 -13.09375 2.3125 -13.1875 C 2.425781 -13.289062 2.566406 -13.34375 2.734375 -13.34375 L 8.515625 -13.34375 C 8.671875 -13.34375 8.800781 -13.285156 8.90625 -13.171875 C 9.019531 -13.066406 9.078125 -12.9375 9.078125 -12.78125 C 9.078125 -12.613281 9.019531 -12.472656 8.90625 -12.359375 C 8.800781 -12.253906 8.671875 -12.203125 8.515625 -12.203125 L 3 -12.203125 L 3.171875 -12.375 L 2.390625 -7.828125 L 2.03125 -8.078125 C 2.195312 -8.203125 2.4375 -8.328125 2.75 -8.453125 C 3.070312 -8.578125 3.425781 -8.6875 3.8125 -8.78125 C 4.207031 -8.882812 4.617188 -8.9375 5.046875 -8.9375 C 5.878906 -8.9375 6.625 -8.753906 7.28125 -8.390625 C 7.9375 -8.023438 8.453125 -7.519531 8.828125 -6.875 C 9.203125 -6.226562 9.390625 -5.476562 9.390625 -4.625 C 9.390625 -3.695312 9.1875 -2.882812 8.78125 -2.1875 C 8.382812 -1.488281 7.820312 -0.941406 7.09375 -0.546875 C 6.363281 -0.160156 5.5 0.03125 4.5 0.03125 Z M 4.5 0.03125 "/></g></g></g></g></g><g transform="matrix(1, 0, 0, 1, 505, 301)"><g clip-path="url(#3352559b72)"><g fill="#201f1f" fill-opacity="1"><g transform="translate(0.984256, 19.716881)"><g><path d="M 4.34375 0 C 4.164062 0 4.019531 -0.0546875 3.90625 -0.171875 C 3.789062 -0.285156 3.734375 -0.421875 3.734375 -0.578125 L 3.734375 -12.140625 L 3.9375 -11.953125 L 1.390625 -10.25 C 1.285156 -10.164062 1.175781 -10.125 1.0625 -10.125 C 0.90625 -10.125 0.765625 -10.1875 0.640625 -10.3125 C 0.523438 -10.445312 0.46875 -10.59375 0.46875 -10.75 C 0.46875 -10.945312 0.566406 -11.101562 0.765625 -11.21875 L 3.984375 -13.359375 C 4.054688 -13.410156 4.132812 -13.441406 4.21875 -13.453125 C 4.300781 -13.460938 4.375 -13.460938 4.4375 -13.453125 C 4.601562 -13.441406 4.726562 -13.378906 4.8125 -13.265625 C 4.90625 -13.160156 4.953125 -13.03125 4.953125 -12.875 L 4.953125 -0.578125 C 4.953125 -0.421875 4.894531 -0.285156 4.78125 -0.171875 C 4.664062 -0.0546875 4.519531 0 4.34375 0 Z M 4.34375 0 "/></g></g></g><g fill="#201f1f" fill-opacity="1"><g transform="translate(8.090037, 19.716881)"><g><path d="M 5.515625 0.1875 C 4.773438 0.1875 4.125 0.0546875 3.5625 -0.203125 C 3.007812 -0.472656 2.550781 -0.835938 2.1875 -1.296875 C 1.820312 -1.753906 1.550781 -2.269531 1.375 -2.84375 C 1.195312 -3.414062 1.109375 -4.003906 1.109375 -4.609375 C 1.109375 -5.222656 1.1875 -5.882812 1.34375 -6.59375 C 1.5 -7.3125 1.734375 -8.035156 2.046875 -8.765625 C 2.367188 -9.492188 2.765625 -10.179688 3.234375 -10.828125 C 3.703125 -11.484375 4.242188 -12.070312 4.859375 -12.59375 C 5.484375 -13.113281 6.1875 -13.519531 6.96875 -13.8125 C 7.0625 -13.84375 7.140625 -13.859375 7.203125 -13.859375 C 7.367188 -13.859375 7.515625 -13.8125 7.640625 -13.71875 C 7.765625 -13.632812 7.828125 -13.484375 7.828125 -13.265625 C 7.828125 -13.128906 7.785156 -13.015625 7.703125 -12.921875 C 7.617188 -12.828125 7.503906 -12.753906 7.359375 -12.703125 C 6.816406 -12.472656 6.285156 -12.144531 5.765625 -11.71875 C 5.242188 -11.300781 4.753906 -10.816406 4.296875 -10.265625 C 3.847656 -9.710938 3.46875 -9.117188 3.15625 -8.484375 C 2.84375 -7.847656 2.625 -7.203125 2.5 -6.546875 L 2.078125 -6.296875 C 2.304688 -6.722656 2.601562 -7.097656 2.96875 -7.421875 C 3.332031 -7.753906 3.75 -8.019531 4.21875 -8.21875 C 4.695312 -8.414062 5.210938 -8.515625 5.765625 -8.515625 C 6.335938 -8.515625 6.867188 -8.390625 7.359375 -8.140625 C 7.847656 -7.898438 8.265625 -7.570312 8.609375 -7.15625 C 8.960938 -6.738281 9.238281 -6.265625 9.4375 -5.734375 C 9.644531 -5.210938 9.75 -4.671875 9.75 -4.109375 C 9.75 -3.359375 9.5625 -2.65625 9.1875 -2 C 8.820312 -1.34375 8.320312 -0.8125 7.6875 -0.40625 C 7.0625 -0.0078125 6.335938 0.1875 5.515625 0.1875 Z M 5.5 -0.921875 C 6.082031 -0.921875 6.601562 -1.054688 7.0625 -1.328125 C 7.53125 -1.597656 7.894531 -1.972656 8.15625 -2.453125 C 8.414062 -2.929688 8.546875 -3.484375 8.546875 -4.109375 C 8.546875 -4.691406 8.429688 -5.226562 8.203125 -5.71875 C 7.984375 -6.207031 7.648438 -6.609375 7.203125 -6.921875 C 6.765625 -7.242188 6.222656 -7.40625 5.578125 -7.40625 C 4.898438 -7.40625 4.3125 -7.25 3.8125 -6.9375 C 3.320312 -6.632812 2.941406 -6.226562 2.671875 -5.71875 C 2.410156 -5.207031 2.28125 -4.65625 2.28125 -4.0625 C 2.28125 -3.519531 2.410156 -3.007812 2.671875 -2.53125 C 2.929688 -2.050781 3.300781 -1.660156 3.78125 -1.359375 C 4.257812 -1.066406 4.832031 -0.921875 5.5 -0.921875 Z M 5.5 -0.921875 "/></g></g></g></g></g><g transform="matrix(1, 0, 0, 1, 631, 301)"><g clip-path="url(#00d2a010c7)"><g fill="#201f1f" fill-opacity="1"><g transform="translate(0.80255, 19.716881)"><g><path d="M 4.34375 0 C 4.164062 0 4.019531 -0.0546875 3.90625 -0.171875 C 3.789062 -0.285156 3.734375 -0.421875 3.734375 -0.578125 L 3.734375 -12.140625 L 3.9375 -11.953125 L 1.390625 -10.25 C 1.285156 -10.164062 1.175781 -10.125 1.0625 -10.125 C 0.90625 -10.125 0.765625 -10.1875 0.640625 -10.3125 C 0.523438 -10.445312 0.46875 -10.59375 0.46875 -10.75 C 0.46875 -10.945312 0.566406 -11.101562 0.765625 -11.21875 L 3.984375 -13.359375 C 4.054688 -13.410156 4.132812 -13.441406 4.21875 -13.453125 C 4.300781 -13.460938 4.375 -13.460938 4.4375 -13.453125 C 4.601562 -13.441406 4.726562 -13.378906 4.8125 -13.265625 C 4.90625 -13.160156 4.953125 -13.03125 4.953125 -12.875 L 4.953125 -0.578125 C 4.953125 -0.421875 4.894531 -0.285156 4.78125 -0.171875 C 4.664062 -0.0546875 4.519531 0 4.34375 0 Z M 4.34375 0 "/></g></g></g><g fill="#201f1f" fill-opacity="1"><g transform="translate(7.908331, 19.716881)"><g><path d="M 3.421875 0.0625 C 3.265625 0.0625 3.125 0.0078125 3 -0.09375 C 2.875 -0.195312 2.8125 -0.328125 2.8125 -0.484375 C 2.8125 -0.566406 2.828125 -0.660156 2.859375 -0.765625 L 7.96875 -12.515625 L 8.1875 -12.25 L 1.6875 -12.25 C 1.53125 -12.25 1.398438 -12.300781 1.296875 -12.40625 C 1.191406 -12.507812 1.140625 -12.640625 1.140625 -12.796875 C 1.140625 -12.960938 1.191406 -13.097656 1.296875 -13.203125 C 1.398438 -13.304688 1.53125 -13.359375 1.6875 -13.359375 L 8.75 -13.359375 C 8.9375 -13.359375 9.070312 -13.304688 9.15625 -13.203125 C 9.25 -13.097656 9.296875 -12.96875 9.296875 -12.8125 C 9.296875 -12.71875 9.28125 -12.625 9.25 -12.53125 L 3.953125 -0.328125 C 3.921875 -0.210938 3.851562 -0.117188 3.75 -0.046875 C 3.644531 0.0234375 3.535156 0.0625 3.421875 0.0625 Z M 3.421875 0.0625 "/></g></g></g></g></g><g transform="matrix(1, 0, 0, 1, 757, 301)"><g clip-path="url(#928429e6c8)"><g fill="#201f1f" fill-opacity="1"><g transform="translate(0.620845, 19.716881)"><g><path d="M 4.34375 0 C 4.164062 0 4.019531 -0.0546875 3.90625 -0.171875 C 3.789062 -0.285156 3.734375 -0.421875 3.734375 -0.578125 L 3.734375 -12.140625 L 3.9375 -11.953125 L 1.390625 -10.25 C 1.285156 -10.164062 1.175781 -10.125 1.0625 -10.125 C 0.90625 -10.125 0.765625 -10.1875 0.640625 -10.3125 C 0.523438 -10.445312 0.46875 -10.59375 0.46875 -10.75 C 0.46875 -10.945312 0.566406 -11.101562 0.765625 -11.21875 L 3.984375 -13.359375 C 4.054688 -13.410156 4.132812 -13.441406 4.21875 -13.453125 C 4.300781 -13.460938 4.375 -13.460938 4.4375 -13.453125 C 4.601562 -13.441406 4.726562 -13.378906 4.8125 -13.265625 C 4.90625 -13.160156 4.953125 -13.03125 4.953125 -12.875 L 4.953125 -0.578125 C 4.953125 -0.421875 4.894531 -0.285156 4.78125 -0.171875 C 4.664062 -0.0546875 4.519531 0 4.34375 0 Z M 4.34375 0 "/></g></g></g><g fill="#201f1f" fill-opacity="1"><g transform="translate(7.726626, 19.716881)"><g><path d="M 7 -6.765625 L 6.9375 -6.9375 C 7.375 -6.769531 7.769531 -6.519531 8.125 -6.1875 C 8.488281 -5.863281 8.78125 -5.476562 9 -5.03125 C 9.21875 -4.59375 9.328125 -4.113281 9.328125 -3.59375 C 9.328125 -2.90625 9.140625 -2.273438 8.765625 -1.703125 C 8.398438 -1.140625 7.90625 -0.691406 7.28125 -0.359375 C 6.65625 -0.0234375 5.957031 0.140625 5.1875 0.140625 C 4.40625 0.140625 3.703125 -0.0234375 3.078125 -0.359375 C 2.460938 -0.691406 1.972656 -1.140625 1.609375 -1.703125 C 1.242188 -2.273438 1.0625 -2.90625 1.0625 -3.59375 C 1.0625 -4.15625 1.171875 -4.65625 1.390625 -5.09375 C 1.617188 -5.539062 1.914062 -5.914062 2.28125 -6.21875 C 2.644531 -6.53125 3.023438 -6.769531 3.421875 -6.9375 L 3.359375 -6.75 C 3.015625 -6.914062 2.691406 -7.140625 2.390625 -7.421875 C 2.085938 -7.710938 1.835938 -8.0625 1.640625 -8.46875 C 1.453125 -8.875 1.359375 -9.316406 1.359375 -9.796875 C 1.359375 -10.492188 1.53125 -11.113281 1.875 -11.65625 C 2.21875 -12.207031 2.675781 -12.644531 3.25 -12.96875 C 3.832031 -13.289062 4.476562 -13.453125 5.1875 -13.453125 C 5.894531 -13.453125 6.53125 -13.289062 7.09375 -12.96875 C 7.664062 -12.644531 8.117188 -12.207031 8.453125 -11.65625 C 8.796875 -11.113281 8.96875 -10.492188 8.96875 -9.796875 C 8.96875 -9.296875 8.875 -8.847656 8.6875 -8.453125 C 8.5 -8.054688 8.25 -7.710938 7.9375 -7.421875 C 7.625 -7.140625 7.3125 -6.921875 7 -6.765625 Z M 2.5625 -9.796875 C 2.5625 -9.285156 2.679688 -8.835938 2.921875 -8.453125 C 3.160156 -8.066406 3.476562 -7.765625 3.875 -7.546875 C 4.28125 -7.328125 4.71875 -7.21875 5.1875 -7.21875 C 5.644531 -7.21875 6.070312 -7.328125 6.46875 -7.546875 C 6.875 -7.765625 7.191406 -8.066406 7.421875 -8.453125 C 7.660156 -8.835938 7.78125 -9.285156 7.78125 -9.796875 C 7.78125 -10.554688 7.535156 -11.171875 7.046875 -11.640625 C 6.566406 -12.117188 5.945312 -12.359375 5.1875 -12.359375 C 4.40625 -12.359375 3.769531 -12.117188 3.28125 -11.640625 C 2.800781 -11.171875 2.5625 -10.554688 2.5625 -9.796875 Z M 5.1875 -0.953125 C 6.0625 -0.953125 6.769531 -1.203125 7.3125 -1.703125 C 7.851562 -2.203125 8.125 -2.832031 8.125 -3.59375 C 8.125 -4.101562 7.988281 -4.5625 7.71875 -4.96875 C 7.457031 -5.382812 7.101562 -5.707031 6.65625 -5.9375 C 6.207031 -6.164062 5.71875 -6.28125 5.1875 -6.28125 C 4.664062 -6.28125 4.179688 -6.164062 3.734375 -5.9375 C 3.285156 -5.707031 2.925781 -5.382812 2.65625 -4.96875 C 2.382812 -4.5625 2.25 -4.101562 2.25 -3.59375 C 2.25 -2.832031 2.515625 -2.203125 3.046875 -1.703125 C 3.585938 -1.203125 4.300781 -0.953125 5.1875 -0.953125 Z M 5.1875 -0.953125 "/></g></g></g></g></g><g clip-path="url(#5447faaf2d)"><g transform="matrix(1, 0, 0, 1, 2, 450)"><g clip-path="url(#e681ffdce8)"><g fill="#201f1f" fill-opacity="1"><g transform="translate(0.710947, 20.474647)"><g><path d="M 4.34375 0 C 4.164062 0 4.019531 -0.0546875 3.90625 -0.171875 C 3.789062 -0.285156 3.734375 -0.421875 3.734375 -0.578125 L 3.734375 -12.140625 L 3.9375 -11.953125 L 1.390625 -10.25 C 1.285156 -10.164062 1.175781 -10.125 1.0625 -10.125 C 0.90625 -10.125 0.765625 -10.1875 0.640625 -10.3125 C 0.523438 -10.445312 0.46875 -10.59375 0.46875 -10.75 C 0.46875 -10.945312 0.566406 -11.101562 0.765625 -11.21875 L 3.984375 -13.359375 C 4.054688 -13.410156 4.132812 -13.441406 4.21875 -13.453125 C 4.300781 -13.460938 4.375 -13.460938 4.4375 -13.453125 C 4.601562 -13.441406 4.726562 -13.378906 4.8125 -13.265625 C 4.90625 -13.160156 4.953125 -13.03125 4.953125 -12.875 L 4.953125 -0.578125 C 4.953125 -0.421875 4.894531 -0.285156 4.78125 -0.171875 C 4.664062 -0.0546875 4.519531 0 4.34375 0 Z M 4.34375 0 "/></g></g></g><g fill="#201f1f" fill-opacity="1"><g transform="translate(7.816728, 20.474647)"><g><path d="M 5.328125 -13.671875 C 6.078125 -13.671875 6.726562 -13.535156 7.28125 -13.265625 C 7.84375 -12.992188 8.300781 -12.628906 8.65625 -12.171875 C 9.019531 -11.722656 9.289062 -11.207031 9.46875 -10.625 C 9.65625 -10.050781 9.75 -9.460938 9.75 -8.859375 C 9.75 -8.242188 9.664062 -7.585938 9.5 -6.890625 C 9.34375 -6.191406 9.109375 -5.484375 8.796875 -4.765625 C 8.484375 -4.054688 8.09375 -3.378906 7.625 -2.734375 C 7.15625 -2.097656 6.601562 -1.523438 5.96875 -1.015625 C 5.34375 -0.503906 4.644531 -0.109375 3.875 0.171875 C 3.78125 0.203125 3.695312 0.21875 3.625 0.21875 C 3.476562 0.21875 3.34375 0.160156 3.21875 0.046875 C 3.09375 -0.0546875 3.03125 -0.203125 3.03125 -0.390625 C 3.03125 -0.515625 3.066406 -0.625 3.140625 -0.71875 C 3.222656 -0.8125 3.34375 -0.882812 3.5 -0.9375 C 4.226562 -1.25 4.929688 -1.707031 5.609375 -2.3125 C 6.285156 -2.925781 6.867188 -3.628906 7.359375 -4.421875 C 7.859375 -5.222656 8.191406 -6.054688 8.359375 -6.921875 L 8.765625 -7.171875 C 8.546875 -6.753906 8.25 -6.378906 7.875 -6.046875 C 7.507812 -5.710938 7.09375 -5.453125 6.625 -5.265625 C 6.15625 -5.085938 5.644531 -5 5.09375 -5 C 4.269531 -5 3.5625 -5.195312 2.96875 -5.59375 C 2.375 -6 1.914062 -6.535156 1.59375 -7.203125 C 1.269531 -7.867188 1.109375 -8.585938 1.109375 -9.359375 C 1.109375 -10.117188 1.289062 -10.820312 1.65625 -11.46875 C 2.019531 -12.125 2.519531 -12.65625 3.15625 -13.0625 C 3.789062 -13.46875 4.515625 -13.671875 5.328125 -13.671875 Z M 5.359375 -12.546875 C 4.753906 -12.546875 4.222656 -12.410156 3.765625 -12.140625 C 3.304688 -11.878906 2.941406 -11.503906 2.671875 -11.015625 C 2.410156 -10.535156 2.28125 -9.984375 2.28125 -9.359375 C 2.28125 -8.796875 2.390625 -8.265625 2.609375 -7.765625 C 2.835938 -7.265625 3.175781 -6.863281 3.625 -6.5625 C 4.082031 -6.257812 4.628906 -6.109375 5.265625 -6.109375 C 5.953125 -6.109375 6.539062 -6.257812 7.03125 -6.5625 C 7.519531 -6.863281 7.898438 -7.265625 8.171875 -7.765625 C 8.441406 -8.265625 8.578125 -8.816406 8.578125 -9.421875 C 8.578125 -9.972656 8.445312 -10.484375 8.1875 -10.953125 C 7.925781 -11.429688 7.554688 -11.816406 7.078125 -12.109375 C 6.609375 -12.398438 6.035156 -12.546875 5.359375 -12.546875 Z M 5.359375 -12.546875 "/></g></g></g></g></g></g><g clip-path="url(#ed4829e661)"><g transform="matrix(1, 0, 0, 1, 128, 450)"><g clip-path="url(#25d63abecc)"><g fill="#201f1f" fill-opacity="1"><g transform="translate(0.529269, 20.474647)"><g><path d="M 9.109375 -1.109375 C 9.265625 -1.109375 9.394531 -1.050781 9.5 -0.9375 C 9.613281 -0.832031 9.671875 -0.707031 9.671875 -0.5625 C 9.671875 -0.394531 9.613281 -0.257812 9.5 -0.15625 C 9.394531 -0.0507812 9.265625 0 9.109375 0 L 1.90625 0 C 1.738281 0 1.59375 -0.046875 1.46875 -0.140625 C 1.34375 -0.234375 1.28125 -0.378906 1.28125 -0.578125 C 1.28125 -0.710938 1.332031 -0.847656 1.4375 -0.984375 L 5.875 -5.875 C 6.582031 -6.644531 7.113281 -7.351562 7.46875 -8 C 7.820312 -8.644531 8 -9.226562 8 -9.75 C 8 -10.59375 7.738281 -11.269531 7.21875 -11.78125 C 6.707031 -12.289062 6.019531 -12.546875 5.15625 -12.546875 C 4.757812 -12.546875 4.363281 -12.460938 3.96875 -12.296875 C 3.570312 -12.128906 3.222656 -11.910156 2.921875 -11.640625 C 2.628906 -11.378906 2.398438 -11.070312 2.234375 -10.71875 C 2.148438 -10.59375 2.066406 -10.503906 1.984375 -10.453125 C 1.898438 -10.398438 1.804688 -10.375 1.703125 -10.375 C 1.554688 -10.375 1.425781 -10.421875 1.3125 -10.515625 C 1.195312 -10.617188 1.140625 -10.738281 1.140625 -10.875 C 1.140625 -10.96875 1.160156 -11.054688 1.203125 -11.140625 C 1.242188 -11.234375 1.3125 -11.335938 1.40625 -11.453125 C 1.632812 -11.847656 1.953125 -12.210938 2.359375 -12.546875 C 2.773438 -12.878906 3.234375 -13.144531 3.734375 -13.34375 C 4.242188 -13.539062 4.742188 -13.640625 5.234375 -13.640625 C 6.046875 -13.640625 6.75 -13.484375 7.34375 -13.171875 C 7.945312 -12.859375 8.410156 -12.414062 8.734375 -11.84375 C 9.054688 -11.28125 9.21875 -10.609375 9.21875 -9.828125 C 9.21875 -9.160156 9.007812 -8.429688 8.59375 -7.640625 C 8.175781 -6.847656 7.5625 -6 6.75 -5.09375 L 3 -0.890625 L 2.8125 -1.109375 Z M 9.109375 -1.109375 "/></g></g></g><g fill="#201f1f" fill-opacity="1"><g transform="translate(11.168733, 20.474647)"><g><path d="M 5.703125 0.1875 C 4.679688 0.1875 3.820312 -0.117188 3.125 -0.734375 C 2.4375 -1.347656 1.921875 -2.175781 1.578125 -3.21875 C 1.234375 -4.257812 1.0625 -5.425781 1.0625 -6.71875 C 1.0625 -8.03125 1.234375 -9.207031 1.578125 -10.25 C 1.921875 -11.289062 2.4375 -12.113281 3.125 -12.71875 C 3.820312 -13.332031 4.679688 -13.640625 5.703125 -13.640625 C 6.753906 -13.640625 7.625 -13.332031 8.3125 -12.71875 C 9 -12.113281 9.515625 -11.289062 9.859375 -10.25 C 10.203125 -9.207031 10.375 -8.03125 10.375 -6.71875 C 10.375 -5.425781 10.203125 -4.257812 9.859375 -3.21875 C 9.515625 -2.175781 9 -1.347656 8.3125 -0.734375 C 7.625 -0.117188 6.753906 0.1875 5.703125 0.1875 Z M 5.703125 -1 C 6.460938 -1 7.09375 -1.234375 7.59375 -1.703125 C 8.101562 -2.179688 8.488281 -2.851562 8.75 -3.71875 C 9.007812 -4.582031 9.140625 -5.582031 9.140625 -6.71875 C 9.140625 -7.875 9.007812 -8.882812 8.75 -9.75 C 8.488281 -10.613281 8.101562 -11.28125 7.59375 -11.75 C 7.09375 -12.226562 6.460938 -12.46875 5.703125 -12.46875 C 4.960938 -12.46875 4.335938 -12.226562 3.828125 -11.75 C 3.328125 -11.28125 2.941406 -10.613281 2.671875 -9.75 C 2.410156 -8.882812 2.28125 -7.875 2.28125 -6.71875 C 2.28125 -5.582031 2.410156 -4.582031 2.671875 -3.71875 C 2.941406 -2.851562 3.328125 -2.179688 3.828125 -1.703125 C 4.335938 -1.234375 4.960938 -1 5.703125 -1 Z M 5.703125 -1 "/></g></g></g></g></g></g><g clip-path="url(#0ed3313d50)"><g transform="matrix(1, 0, 0, 1, 254, 450)"><g clip-path="url(#ec5bbafed3)"><g fill="#201f1f" fill-opacity="1"><g transform="translate(0.347579, 20.474647)"><g><path d="M 9.109375 -1.109375 C 9.265625 -1.109375 9.394531 -1.050781 9.5 -0.9375 C 9.613281 -0.832031 9.671875 -0.707031 9.671875 -0.5625 C 9.671875 -0.394531 9.613281 -0.257812 9.5 -0.15625 C 9.394531 -0.0507812 9.265625 0 9.109375 0 L 1.90625 0 C 1.738281 0 1.59375 -0.046875 1.46875 -0.140625 C 1.34375 -0.234375 1.28125 -0.378906 1.28125 -0.578125 C 1.28125 -0.710938 1.332031 -0.847656 1.4375 -0.984375 L 5.875 -5.875 C 6.582031 -6.644531 7.113281 -7.351562 7.46875 -8 C 7.820312 -8.644531 8 -9.226562 8 -9.75 C 8 -10.59375 7.738281 -11.269531 7.21875 -11.78125 C 6.707031 -12.289062 6.019531 -12.546875 5.15625 -12.546875 C 4.757812 -12.546875 4.363281 -12.460938 3.96875 -12.296875 C 3.570312 -12.128906 3.222656 -11.910156 2.921875 -11.640625 C 2.628906 -11.378906 2.398438 -11.070312 2.234375 -10.71875 C 2.148438 -10.59375 2.066406 -10.503906 1.984375 -10.453125 C 1.898438 -10.398438 1.804688 -10.375 1.703125 -10.375 C 1.554688 -10.375 1.425781 -10.421875 1.3125 -10.515625 C 1.195312 -10.617188 1.140625 -10.738281 1.140625 -10.875 C 1.140625 -10.96875 1.160156 -11.054688 1.203125 -11.140625 C 1.242188 -11.234375 1.3125 -11.335938 1.40625 -11.453125 C 1.632812 -11.847656 1.953125 -12.210938 2.359375 -12.546875 C 2.773438 -12.878906 3.234375 -13.144531 3.734375 -13.34375 C 4.242188 -13.539062 4.742188 -13.640625 5.234375 -13.640625 C 6.046875 -13.640625 6.75 -13.484375 7.34375 -13.171875 C 7.945312 -12.859375 8.410156 -12.414062 8.734375 -11.84375 C 9.054688 -11.28125 9.21875 -10.609375 9.21875 -9.828125 C 9.21875 -9.160156 9.007812 -8.429688 8.59375 -7.640625 C 8.175781 -6.847656 7.5625 -6 6.75 -5.09375 L 3 -0.890625 L 2.8125 -1.109375 Z M 9.109375 -1.109375 "/></g></g></g><g fill="#201f1f" fill-opacity="1"><g transform="translate(10.987042, 20.474647)"><g><path d="M 4.34375 0 C 4.164062 0 4.019531 -0.0546875 3.90625 -0.171875 C 3.789062 -0.285156 3.734375 -0.421875 3.734375 -0.578125 L 3.734375 -12.140625 L 3.9375 -11.953125 L 1.390625 -10.25 C 1.285156 -10.164062 1.175781 -10.125 1.0625 -10.125 C 0.90625 -10.125 0.765625 -10.1875 0.640625 -10.3125 C 0.523438 -10.445312 0.46875 -10.59375 0.46875 -10.75 C 0.46875 -10.945312 0.566406 -11.101562 0.765625 -11.21875 L 3.984375 -13.359375 C 4.054688 -13.410156 4.132812 -13.441406 4.21875 -13.453125 C 4.300781 -13.460938 4.375 -13.460938 4.4375 -13.453125 C 4.601562 -13.441406 4.726562 -13.378906 4.8125 -13.265625 C 4.90625 -13.160156 4.953125 -13.03125 4.953125 -12.875 L 4.953125 -0.578125 C 4.953125 -0.421875 4.894531 -0.285156 4.78125 -0.171875 C 4.664062 -0.0546875 4.519531 0 4.34375 0 Z M 4.34375 0 "/></g></g></g></g></g></g><g clip-path="url(#a6fbd3e795)"><g transform="matrix(1, 0, 0, 1, 380, 450)"><g clip-path="url(#564832e8cf)"><g fill="#201f1f" fill-opacity="1"><g transform="translate(0.165903, 20.474647)"><g><path d="M 9.109375 -1.109375 C 9.265625 -1.109375 9.394531 -1.050781 9.5 -0.9375 C 9.613281 -0.832031 9.671875 -0.707031 9.671875 -0.5625 C 9.671875 -0.394531 9.613281 -0.257812 9.5 -0.15625 C 9.394531 -0.0507812 9.265625 0 9.109375 0 L 1.90625 0 C 1.738281 0 1.59375 -0.046875 1.46875 -0.140625 C 1.34375 -0.234375 1.28125 -0.378906 1.28125 -0.578125 C 1.28125 -0.710938 1.332031 -0.847656 1.4375 -0.984375 L 5.875 -5.875 C 6.582031 -6.644531 7.113281 -7.351562 7.46875 -8 C 7.820312 -8.644531 8 -9.226562 8 -9.75 C 8 -10.59375 7.738281 -11.269531 7.21875 -11.78125 C 6.707031 -12.289062 6.019531 -12.546875 5.15625 -12.546875 C 4.757812 -12.546875 4.363281 -12.460938 3.96875 -12.296875 C 3.570312 -12.128906 3.222656 -11.910156 2.921875 -11.640625 C 2.628906 -11.378906 2.398438 -11.070312 2.234375 -10.71875 C 2.148438 -10.59375 2.066406 -10.503906 1.984375 -10.453125 C 1.898438 -10.398438 1.804688 -10.375 1.703125 -10.375 C 1.554688 -10.375 1.425781 -10.421875 1.3125 -10.515625 C 1.195312 -10.617188 1.140625 -10.738281 1.140625 -10.875 C 1.140625 -10.96875 1.160156 -11.054688 1.203125 -11.140625 C 1.242188 -11.234375 1.3125 -11.335938 1.40625 -11.453125 C 1.632812 -11.847656 1.953125 -12.210938 2.359375 -12.546875 C 2.773438 -12.878906 3.234375 -13.144531 3.734375 -13.34375 C 4.242188 -13.539062 4.742188 -13.640625 5.234375 -13.640625 C 6.046875 -13.640625 6.75 -13.484375 7.34375 -13.171875 C 7.945312 -12.859375 8.410156 -12.414062 8.734375 -11.84375 C 9.054688 -11.28125 9.21875 -10.609375 9.21875 -9.828125 C 9.21875 -9.160156 9.007812 -8.429688 8.59375 -7.640625 C 8.175781 -6.847656 7.5625 -6 6.75 -5.09375 L 3 -0.890625 L 2.8125 -1.109375 Z M 9.109375 -1.109375 "/></g></g></g><g fill="#201f1f" fill-opacity="1"><g transform="translate(10.805366, 20.474647)"><g><path d="M 9.109375 -1.109375 C 9.265625 -1.109375 9.394531 -1.050781 9.5 -0.9375 C 9.613281 -0.832031 9.671875 -0.707031 9.671875 -0.5625 C 9.671875 -0.394531 9.613281 -0.257812 9.5 -0.15625 C 9.394531 -0.0507812 9.265625 0 9.109375 0 L 1.90625 0 C 1.738281 0 1.59375 -0.046875 1.46875 -0.140625 C 1.34375 -0.234375 1.28125 -0.378906 1.28125 -0.578125 C 1.28125 -0.710938 1.332031 -0.847656 1.4375 -0.984375 L 5.875 -5.875 C 6.582031 -6.644531 7.113281 -7.351562 7.46875 -8 C 7.820312 -8.644531 8 -9.226562 8 -9.75 C 8 -10.59375 7.738281 -11.269531 7.21875 -11.78125 C 6.707031 -12.289062 6.019531 -12.546875 5.15625 -12.546875 C 4.757812 -12.546875 4.363281 -12.460938 3.96875 -12.296875 C 3.570312 -12.128906 3.222656 -11.910156 2.921875 -11.640625 C 2.628906 -11.378906 2.398438 -11.070312 2.234375 -10.71875 C 2.148438 -10.59375 2.066406 -10.503906 1.984375 -10.453125 C 1.898438 -10.398438 1.804688 -10.375 1.703125 -10.375 C 1.554688 -10.375 1.425781 -10.421875 1.3125 -10.515625 C 1.195312 -10.617188 1.140625 -10.738281 1.140625 -10.875 C 1.140625 -10.96875 1.160156 -11.054688 1.203125 -11.140625 C 1.242188 -11.234375 1.3125 -11.335938 1.40625 -11.453125 C 1.632812 -11.847656 1.953125 -12.210938 2.359375 -12.546875 C 2.773438 -12.878906 3.234375 -13.144531 3.734375 -13.34375 C 4.242188 -13.539062 4.742188 -13.640625 5.234375 -13.640625 C 6.046875 -13.640625 6.75 -13.484375 7.34375 -13.171875 C 7.945312 -12.859375 8.410156 -12.414062 8.734375 -11.84375 C 9.054688 -11.28125 9.21875 -10.609375 9.21875 -9.828125 C 9.21875 -9.160156 9.007812 -8.429688 8.59375 -7.640625 C 8.175781 -6.847656 7.5625 -6 6.75 -5.09375 L 3 -0.890625 L 2.8125 -1.109375 Z M 9.109375 -1.109375 "/></g></g></g></g></g></g><g clip-path="url(#8a1d4b3821)"><g transform="matrix(1, 0, 0, 1, 505, 450)"><g clip-path="url(#f43ef8867e)"><g fill="#201f1f" fill-opacity="1"><g transform="translate(0.984256, 20.474647)"><g><path d="M 9.109375 -1.109375 C 9.265625 -1.109375 9.394531 -1.050781 9.5 -0.9375 C 9.613281 -0.832031 9.671875 -0.707031 9.671875 -0.5625 C 9.671875 -0.394531 9.613281 -0.257812 9.5 -0.15625 C 9.394531 -0.0507812 9.265625 0 9.109375 0 L 1.90625 0 C 1.738281 0 1.59375 -0.046875 1.46875 -0.140625 C 1.34375 -0.234375 1.28125 -0.378906 1.28125 -0.578125 C 1.28125 -0.710938 1.332031 -0.847656 1.4375 -0.984375 L 5.875 -5.875 C 6.582031 -6.644531 7.113281 -7.351562 7.46875 -8 C 7.820312 -8.644531 8 -9.226562 8 -9.75 C 8 -10.59375 7.738281 -11.269531 7.21875 -11.78125 C 6.707031 -12.289062 6.019531 -12.546875 5.15625 -12.546875 C 4.757812 -12.546875 4.363281 -12.460938 3.96875 -12.296875 C 3.570312 -12.128906 3.222656 -11.910156 2.921875 -11.640625 C 2.628906 -11.378906 2.398438 -11.070312 2.234375 -10.71875 C 2.148438 -10.59375 2.066406 -10.503906 1.984375 -10.453125 C 1.898438 -10.398438 1.804688 -10.375 1.703125 -10.375 C 1.554688 -10.375 1.425781 -10.421875 1.3125 -10.515625 C 1.195312 -10.617188 1.140625 -10.738281 1.140625 -10.875 C 1.140625 -10.96875 1.160156 -11.054688 1.203125 -11.140625 C 1.242188 -11.234375 1.3125 -11.335938 1.40625 -11.453125 C 1.632812 -11.847656 1.953125 -12.210938 2.359375 -12.546875 C 2.773438 -12.878906 3.234375 -13.144531 3.734375 -13.34375 C 4.242188 -13.539062 4.742188 -13.640625 5.234375 -13.640625 C 6.046875 -13.640625 6.75 -13.484375 7.34375 -13.171875 C 7.945312 -12.859375 8.410156 -12.414062 8.734375 -11.84375 C 9.054688 -11.28125 9.21875 -10.609375 9.21875 -9.828125 C 9.21875 -9.160156 9.007812 -8.429688 8.59375 -7.640625 C 8.175781 -6.847656 7.5625 -6 6.75 -5.09375 L 3 -0.890625 L 2.8125 -1.109375 Z M 9.109375 -1.109375 "/></g></g></g><g fill="#201f1f" fill-opacity="1"><g transform="translate(11.62372, 20.474647)"><g><path d="M 1.703125 -1.984375 C 1.773438 -1.984375 1.84375 -1.96875 1.90625 -1.9375 C 1.976562 -1.914062 2.066406 -1.859375 2.171875 -1.765625 C 2.441406 -1.484375 2.757812 -1.269531 3.125 -1.125 C 3.5 -0.976562 3.925781 -0.90625 4.40625 -0.90625 C 5.03125 -0.90625 5.601562 -1.046875 6.125 -1.328125 C 6.644531 -1.609375 7.054688 -2 7.359375 -2.5 C 7.671875 -3.007812 7.828125 -3.59375 7.828125 -4.25 C 7.828125 -4.988281 7.660156 -5.582031 7.328125 -6.03125 C 7.003906 -6.488281 6.585938 -6.832031 6.078125 -7.0625 C 5.578125 -7.289062 5.0625 -7.40625 4.53125 -7.40625 C 4.394531 -7.40625 4.257812 -7.394531 4.125 -7.375 C 3.988281 -7.351562 3.863281 -7.328125 3.75 -7.296875 C 3.632812 -7.273438 3.546875 -7.265625 3.484375 -7.265625 C 3.316406 -7.265625 3.1875 -7.316406 3.09375 -7.421875 C 3 -7.535156 2.953125 -7.675781 2.953125 -7.84375 C 2.953125 -7.925781 2.972656 -8.003906 3.015625 -8.078125 C 3.054688 -8.148438 3.109375 -8.234375 3.171875 -8.328125 L 7.078125 -12.5625 L 7.296875 -12.265625 L 1.484375 -12.265625 C 1.328125 -12.265625 1.191406 -12.316406 1.078125 -12.421875 C 0.972656 -12.535156 0.921875 -12.664062 0.921875 -12.8125 C 0.921875 -12.96875 0.972656 -13.097656 1.078125 -13.203125 C 1.191406 -13.304688 1.328125 -13.359375 1.484375 -13.359375 L 7.9375 -13.359375 C 8.15625 -13.359375 8.304688 -13.289062 8.390625 -13.15625 C 8.484375 -13.019531 8.53125 -12.890625 8.53125 -12.765625 C 8.53125 -12.679688 8.507812 -12.601562 8.46875 -12.53125 C 8.4375 -12.46875 8.390625 -12.394531 8.328125 -12.3125 L 4.421875 -8.078125 L 4 -8.328125 C 4.039062 -8.359375 4.171875 -8.394531 4.390625 -8.4375 C 4.617188 -8.488281 4.796875 -8.515625 4.921875 -8.515625 C 5.628906 -8.515625 6.289062 -8.347656 6.90625 -8.015625 C 7.53125 -7.679688 8.035156 -7.203125 8.421875 -6.578125 C 8.816406 -5.960938 9.015625 -5.195312 9.015625 -4.28125 C 9.015625 -3.382812 8.800781 -2.597656 8.375 -1.921875 C 7.957031 -1.253906 7.390625 -0.734375 6.671875 -0.359375 C 5.953125 0.00390625 5.15625 0.1875 4.28125 0.1875 C 3.757812 0.1875 3.238281 0.0976562 2.71875 -0.078125 C 2.207031 -0.253906 1.765625 -0.523438 1.390625 -0.890625 C 1.296875 -0.960938 1.226562 -1.035156 1.1875 -1.109375 C 1.15625 -1.191406 1.140625 -1.269531 1.140625 -1.34375 C 1.140625 -1.5 1.191406 -1.644531 1.296875 -1.78125 C 1.398438 -1.914062 1.535156 -1.984375 1.703125 -1.984375 Z M 1.703125 -1.984375 "/></g></g></g></g></g></g><g clip-path="url(#2c43d77a64)"><g transform="matrix(1, 0, 0, 1, 631, 450)"><g clip-path="url(#2b07768fb3)"><g fill="#201f1f" fill-opacity="1"><g transform="translate(0.80255, 20.474647)"><g><path d="M 9.109375 -1.109375 C 9.265625 -1.109375 9.394531 -1.050781 9.5 -0.9375 C 9.613281 -0.832031 9.671875 -0.707031 9.671875 -0.5625 C 9.671875 -0.394531 9.613281 -0.257812 9.5 -0.15625 C 9.394531 -0.0507812 9.265625 0 9.109375 0 L 1.90625 0 C 1.738281 0 1.59375 -0.046875 1.46875 -0.140625 C 1.34375 -0.234375 1.28125 -0.378906 1.28125 -0.578125 C 1.28125 -0.710938 1.332031 -0.847656 1.4375 -0.984375 L 5.875 -5.875 C 6.582031 -6.644531 7.113281 -7.351562 7.46875 -8 C 7.820312 -8.644531 8 -9.226562 8 -9.75 C 8 -10.59375 7.738281 -11.269531 7.21875 -11.78125 C 6.707031 -12.289062 6.019531 -12.546875 5.15625 -12.546875 C 4.757812 -12.546875 4.363281 -12.460938 3.96875 -12.296875 C 3.570312 -12.128906 3.222656 -11.910156 2.921875 -11.640625 C 2.628906 -11.378906 2.398438 -11.070312 2.234375 -10.71875 C 2.148438 -10.59375 2.066406 -10.503906 1.984375 -10.453125 C 1.898438 -10.398438 1.804688 -10.375 1.703125 -10.375 C 1.554688 -10.375 1.425781 -10.421875 1.3125 -10.515625 C 1.195312 -10.617188 1.140625 -10.738281 1.140625 -10.875 C 1.140625 -10.96875 1.160156 -11.054688 1.203125 -11.140625 C 1.242188 -11.234375 1.3125 -11.335938 1.40625 -11.453125 C 1.632812 -11.847656 1.953125 -12.210938 2.359375 -12.546875 C 2.773438 -12.878906 3.234375 -13.144531 3.734375 -13.34375 C 4.242188 -13.539062 4.742188 -13.640625 5.234375 -13.640625 C 6.046875 -13.640625 6.75 -13.484375 7.34375 -13.171875 C 7.945312 -12.859375 8.410156 -12.414062 8.734375 -11.84375 C 9.054688 -11.28125 9.21875 -10.609375 9.21875 -9.828125 C 9.21875 -9.160156 9.007812 -8.429688 8.59375 -7.640625 C 8.175781 -6.847656 7.5625 -6 6.75 -5.09375 L 3 -0.890625 L 2.8125 -1.109375 Z M 9.109375 -1.109375 "/></g></g></g><g fill="#201f1f" fill-opacity="1"><g transform="translate(11.442014, 20.474647)"><g><path d="M 7.046875 0 C 6.878906 0 6.742188 -0.0546875 6.640625 -0.171875 C 6.546875 -0.285156 6.5 -0.421875 6.5 -0.578125 L 6.5 -11.859375 L 6.75 -11.703125 L 1.6875 -5.015625 L 1.640625 -5.234375 L 9.015625 -5.234375 C 9.171875 -5.234375 9.300781 -5.179688 9.40625 -5.078125 C 9.519531 -4.972656 9.578125 -4.84375 9.578125 -4.6875 C 9.578125 -4.53125 9.519531 -4.398438 9.40625 -4.296875 C 9.300781 -4.203125 9.171875 -4.15625 9.015625 -4.15625 L 0.84375 -4.15625 C 0.6875 -4.15625 0.550781 -4.210938 0.4375 -4.328125 C 0.320312 -4.453125 0.265625 -4.59375 0.265625 -4.75 C 0.265625 -4.882812 0.3125 -5.007812 0.40625 -5.125 L 6.59375 -13.21875 C 6.65625 -13.3125 6.734375 -13.375 6.828125 -13.40625 C 6.921875 -13.4375 7.003906 -13.453125 7.078125 -13.453125 C 7.242188 -13.453125 7.378906 -13.394531 7.484375 -13.28125 C 7.597656 -13.164062 7.65625 -13.03125 7.65625 -12.875 L 7.65625 -0.578125 C 7.65625 -0.421875 7.59375 -0.285156 7.46875 -0.171875 C 7.351562 -0.0546875 7.210938 0 7.046875 0 Z M 7.046875 0 "/></g></g></g></g></g></g><g clip-path="url(#b608a6d7b4)"><g transform="matrix(1, 0, 0, 1, 757, 450)"><g clip-path="url(#615ed86bb0)"><g fill="#201f1f" fill-opacity="1"><g transform="translate(0.620845, 20.474647)"><g><path d="M 9.109375 -1.109375 C 9.265625 -1.109375 9.394531 -1.050781 9.5 -0.9375 C 9.613281 -0.832031 9.671875 -0.707031 9.671875 -0.5625 C 9.671875 -0.394531 9.613281 -0.257812 9.5 -0.15625 C 9.394531 -0.0507812 9.265625 0 9.109375 0 L 1.90625 0 C 1.738281 0 1.59375 -0.046875 1.46875 -0.140625 C 1.34375 -0.234375 1.28125 -0.378906 1.28125 -0.578125 C 1.28125 -0.710938 1.332031 -0.847656 1.4375 -0.984375 L 5.875 -5.875 C 6.582031 -6.644531 7.113281 -7.351562 7.46875 -8 C 7.820312 -8.644531 8 -9.226562 8 -9.75 C 8 -10.59375 7.738281 -11.269531 7.21875 -11.78125 C 6.707031 -12.289062 6.019531 -12.546875 5.15625 -12.546875 C 4.757812 -12.546875 4.363281 -12.460938 3.96875 -12.296875 C 3.570312 -12.128906 3.222656 -11.910156 2.921875 -11.640625 C 2.628906 -11.378906 2.398438 -11.070312 2.234375 -10.71875 C 2.148438 -10.59375 2.066406 -10.503906 1.984375 -10.453125 C 1.898438 -10.398438 1.804688 -10.375 1.703125 -10.375 C 1.554688 -10.375 1.425781 -10.421875 1.3125 -10.515625 C 1.195312 -10.617188 1.140625 -10.738281 1.140625 -10.875 C 1.140625 -10.96875 1.160156 -11.054688 1.203125 -11.140625 C 1.242188 -11.234375 1.3125 -11.335938 1.40625 -11.453125 C 1.632812 -11.847656 1.953125 -12.210938 2.359375 -12.546875 C 2.773438 -12.878906 3.234375 -13.144531 3.734375 -13.34375 C 4.242188 -13.539062 4.742188 -13.640625 5.234375 -13.640625 C 6.046875 -13.640625 6.75 -13.484375 7.34375 -13.171875 C 7.945312 -12.859375 8.410156 -12.414062 8.734375 -11.84375 C 9.054688 -11.28125 9.21875 -10.609375 9.21875 -9.828125 C 9.21875 -9.160156 9.007812 -8.429688 8.59375 -7.640625 C 8.175781 -6.847656 7.5625 -6 6.75 -5.09375 L 3 -0.890625 L 2.8125 -1.109375 Z M 9.109375 -1.109375 "/></g></g></g><g fill="#201f1f" fill-opacity="1"><g transform="translate(11.260309, 20.474647)"><g><path d="M 4.5 0.03125 C 3.96875 0.03125 3.4375 -0.0507812 2.90625 -0.21875 C 2.375 -0.394531 1.90625 -0.65625 1.5 -1 C 1.425781 -1.0625 1.363281 -1.132812 1.3125 -1.21875 C 1.269531 -1.3125 1.25 -1.40625 1.25 -1.5 C 1.25 -1.625 1.300781 -1.75 1.40625 -1.875 C 1.507812 -2 1.644531 -2.0625 1.8125 -2.0625 C 1.945312 -2.0625 2.085938 -2.003906 2.234375 -1.890625 C 2.566406 -1.628906 2.925781 -1.425781 3.3125 -1.28125 C 3.707031 -1.144531 4.101562 -1.078125 4.5 -1.078125 C 5.25 -1.078125 5.90625 -1.21875 6.46875 -1.5 C 7.039062 -1.789062 7.476562 -2.203125 7.78125 -2.734375 C 8.09375 -3.265625 8.25 -3.882812 8.25 -4.59375 C 8.25 -5.25 8.109375 -5.816406 7.828125 -6.296875 C 7.546875 -6.773438 7.144531 -7.148438 6.625 -7.421875 C 6.101562 -7.703125 5.488281 -7.84375 4.78125 -7.84375 C 4.320312 -7.84375 3.898438 -7.769531 3.515625 -7.625 C 3.140625 -7.488281 2.816406 -7.34375 2.546875 -7.1875 C 2.273438 -7.039062 2.054688 -6.96875 1.890625 -6.96875 C 1.734375 -6.96875 1.601562 -7.003906 1.5 -7.078125 C 1.40625 -7.160156 1.34375 -7.257812 1.3125 -7.375 C 1.28125 -7.488281 1.28125 -7.613281 1.3125 -7.75 L 2.140625 -12.875 C 2.148438 -12.988281 2.207031 -13.09375 2.3125 -13.1875 C 2.425781 -13.289062 2.566406 -13.34375 2.734375 -13.34375 L 8.515625 -13.34375 C 8.671875 -13.34375 8.800781 -13.285156 8.90625 -13.171875 C 9.019531 -13.066406 9.078125 -12.9375 9.078125 -12.78125 C 9.078125 -12.613281 9.019531 -12.472656 8.90625 -12.359375 C 8.800781 -12.253906 8.671875 -12.203125 8.515625 -12.203125 L 3 -12.203125 L 3.171875 -12.375 L 2.390625 -7.828125 L 2.03125 -8.078125 C 2.195312 -8.203125 2.4375 -8.328125 2.75 -8.453125 C 3.070312 -8.578125 3.425781 -8.6875 3.8125 -8.78125 C 4.207031 -8.882812 4.617188 -8.9375 5.046875 -8.9375 C 5.878906 -8.9375 6.625 -8.753906 7.28125 -8.390625 C 7.9375 -8.023438 8.453125 -7.519531 8.828125 -6.875 C 9.203125 -6.226562 9.390625 -5.476562 9.390625 -4.625 C 9.390625 -3.695312 9.1875 -2.882812 8.78125 -2.1875 C 8.382812 -1.488281 7.820312 -0.941406 7.09375 -0.546875 C 6.363281 -0.160156 5.5 0.03125 4.5 0.03125 Z M 4.5 0.03125 "/></g></g></g></g></g></g><g clip-path="url(#3906106cdb)"><g transform="matrix(1, 0, 0, 1, 2, 600)"><g clip-path="url(#da8c6bc3cc)"><g fill="#201f1f" fill-opacity="1"><g transform="translate(0.710947, 20.232647)"><g><path d="M 9.109375 -1.109375 C 9.265625 -1.109375 9.394531 -1.050781 9.5 -0.9375 C 9.613281 -0.832031 9.671875 -0.707031 9.671875 -0.5625 C 9.671875 -0.394531 9.613281 -0.257812 9.5 -0.15625 C 9.394531 -0.0507812 9.265625 0 9.109375 0 L 1.90625 0 C 1.738281 0 1.59375 -0.046875 1.46875 -0.140625 C 1.34375 -0.234375 1.28125 -0.378906 1.28125 -0.578125 C 1.28125 -0.710938 1.332031 -0.847656 1.4375 -0.984375 L 5.875 -5.875 C 6.582031 -6.644531 7.113281 -7.351562 7.46875 -8 C 7.820312 -8.644531 8 -9.226562 8 -9.75 C 8 -10.59375 7.738281 -11.269531 7.21875 -11.78125 C 6.707031 -12.289062 6.019531 -12.546875 5.15625 -12.546875 C 4.757812 -12.546875 4.363281 -12.460938 3.96875 -12.296875 C 3.570312 -12.128906 3.222656 -11.910156 2.921875 -11.640625 C 2.628906 -11.378906 2.398438 -11.070312 2.234375 -10.71875 C 2.148438 -10.59375 2.066406 -10.503906 1.984375 -10.453125 C 1.898438 -10.398438 1.804688 -10.375 1.703125 -10.375 C 1.554688 -10.375 1.425781 -10.421875 1.3125 -10.515625 C 1.195312 -10.617188 1.140625 -10.738281 1.140625 -10.875 C 1.140625 -10.96875 1.160156 -11.054688 1.203125 -11.140625 C 1.242188 -11.234375 1.3125 -11.335938 1.40625 -11.453125 C 1.632812 -11.847656 1.953125 -12.210938 2.359375 -12.546875 C 2.773438 -12.878906 3.234375 -13.144531 3.734375 -13.34375 C 4.242188 -13.539062 4.742188 -13.640625 5.234375 -13.640625 C 6.046875 -13.640625 6.75 -13.484375 7.34375 -13.171875 C 7.945312 -12.859375 8.410156 -12.414062 8.734375 -11.84375 C 9.054688 -11.28125 9.21875 -10.609375 9.21875 -9.828125 C 9.21875 -9.160156 9.007812 -8.429688 8.59375 -7.640625 C 8.175781 -6.847656 7.5625 -6 6.75 -5.09375 L 3 -0.890625 L 2.8125 -1.109375 Z M 9.109375 -1.109375 "/></g></g></g><g fill="#201f1f" fill-opacity="1"><g transform="translate(11.350411, 20.232647)"><g><path d="M 5.515625 0.1875 C 4.773438 0.1875 4.125 0.0546875 3.5625 -0.203125 C 3.007812 -0.472656 2.550781 -0.835938 2.1875 -1.296875 C 1.820312 -1.753906 1.550781 -2.269531 1.375 -2.84375 C 1.195312 -3.414062 1.109375 -4.003906 1.109375 -4.609375 C 1.109375 -5.222656 1.1875 -5.882812 1.34375 -6.59375 C 1.5 -7.3125 1.734375 -8.035156 2.046875 -8.765625 C 2.367188 -9.492188 2.765625 -10.179688 3.234375 -10.828125 C 3.703125 -11.484375 4.242188 -12.070312 4.859375 -12.59375 C 5.484375 -13.113281 6.1875 -13.519531 6.96875 -13.8125 C 7.0625 -13.84375 7.140625 -13.859375 7.203125 -13.859375 C 7.367188 -13.859375 7.515625 -13.8125 7.640625 -13.71875 C 7.765625 -13.632812 7.828125 -13.484375 7.828125 -13.265625 C 7.828125 -13.128906 7.785156 -13.015625 7.703125 -12.921875 C 7.617188 -12.828125 7.503906 -12.753906 7.359375 -12.703125 C 6.816406 -12.472656 6.285156 -12.144531 5.765625 -11.71875 C 5.242188 -11.300781 4.753906 -10.816406 4.296875 -10.265625 C 3.847656 -9.710938 3.46875 -9.117188 3.15625 -8.484375 C 2.84375 -7.847656 2.625 -7.203125 2.5 -6.546875 L 2.078125 -6.296875 C 2.304688 -6.722656 2.601562 -7.097656 2.96875 -7.421875 C 3.332031 -7.753906 3.75 -8.019531 4.21875 -8.21875 C 4.695312 -8.414062 5.210938 -8.515625 5.765625 -8.515625 C 6.335938 -8.515625 6.867188 -8.390625 7.359375 -8.140625 C 7.847656 -7.898438 8.265625 -7.570312 8.609375 -7.15625 C 8.960938 -6.738281 9.238281 -6.265625 9.4375 -5.734375 C 9.644531 -5.210938 9.75 -4.671875 9.75 -4.109375 C 9.75 -3.359375 9.5625 -2.65625 9.1875 -2 C 8.820312 -1.34375 8.320312 -0.8125 7.6875 -0.40625 C 7.0625 -0.0078125 6.335938 0.1875 5.515625 0.1875 Z M 5.5 -0.921875 C 6.082031 -0.921875 6.601562 -1.054688 7.0625 -1.328125 C 7.53125 -1.597656 7.894531 -1.972656 8.15625 -2.453125 C 8.414062 -2.929688 8.546875 -3.484375 8.546875 -4.109375 C 8.546875 -4.691406 8.429688 -5.226562 8.203125 -5.71875 C 7.984375 -6.207031 7.648438 -6.609375 7.203125 -6.921875 C 6.765625 -7.242188 6.222656 -7.40625 5.578125 -7.40625 C 4.898438 -7.40625 4.3125 -7.25 3.8125 -6.9375 C 3.320312 -6.632812 2.941406 -6.226562 2.671875 -5.71875 C 2.410156 -5.207031 2.28125 -4.65625 2.28125 -4.0625 C 2.28125 -3.519531 2.410156 -3.007812 2.671875 -2.53125 C 2.929688 -2.050781 3.300781 -1.660156 3.78125 -1.359375 C 4.257812 -1.066406 4.832031 -0.921875 5.5 -0.921875 Z M 5.5 -0.921875 "/></g></g></g></g></g></g><g clip-path="url(#f597749acd)"><g transform="matrix(1, 0, 0, 1, 128, 600)"><g clip-path="url(#61669769dd)"><g fill="#201f1f" fill-opacity="1"><g transform="translate(0.529269, 20.232647)"><g><path d="M 9.109375 -1.109375 C 9.265625 -1.109375 9.394531 -1.050781 9.5 -0.9375 C 9.613281 -0.832031 9.671875 -0.707031 9.671875 -0.5625 C 9.671875 -0.394531 9.613281 -0.257812 9.5 -0.15625 C 9.394531 -0.0507812 9.265625 0 9.109375 0 L 1.90625 0 C 1.738281 0 1.59375 -0.046875 1.46875 -0.140625 C 1.34375 -0.234375 1.28125 -0.378906 1.28125 -0.578125 C 1.28125 -0.710938 1.332031 -0.847656 1.4375 -0.984375 L 5.875 -5.875 C 6.582031 -6.644531 7.113281 -7.351562 7.46875 -8 C 7.820312 -8.644531 8 -9.226562 8 -9.75 C 8 -10.59375 7.738281 -11.269531 7.21875 -11.78125 C 6.707031 -12.289062 6.019531 -12.546875 5.15625 -12.546875 C 4.757812 -12.546875 4.363281 -12.460938 3.96875 -12.296875 C 3.570312 -12.128906 3.222656 -11.910156 2.921875 -11.640625 C 2.628906 -11.378906 2.398438 -11.070312 2.234375 -10.71875 C 2.148438 -10.59375 2.066406 -10.503906 1.984375 -10.453125 C 1.898438 -10.398438 1.804688 -10.375 1.703125 -10.375 C 1.554688 -10.375 1.425781 -10.421875 1.3125 -10.515625 C 1.195312 -10.617188 1.140625 -10.738281 1.140625 -10.875 C 1.140625 -10.96875 1.160156 -11.054688 1.203125 -11.140625 C 1.242188 -11.234375 1.3125 -11.335938 1.40625 -11.453125 C 1.632812 -11.847656 1.953125 -12.210938 2.359375 -12.546875 C 2.773438 -12.878906 3.234375 -13.144531 3.734375 -13.34375 C 4.242188 -13.539062 4.742188 -13.640625 5.234375 -13.640625 C 6.046875 -13.640625 6.75 -13.484375 7.34375 -13.171875 C 7.945312 -12.859375 8.410156 -12.414062 8.734375 -11.84375 C 9.054688 -11.28125 9.21875 -10.609375 9.21875 -9.828125 C 9.21875 -9.160156 9.007812 -8.429688 8.59375 -7.640625 C 8.175781 -6.847656 7.5625 -6 6.75 -5.09375 L 3 -0.890625 L 2.8125 -1.109375 Z M 9.109375 -1.109375 "/></g></g></g><g fill="#201f1f" fill-opacity="1"><g transform="translate(11.168733, 20.232647)"><g><path d="M 3.421875 0.0625 C 3.265625 0.0625 3.125 0.0078125 3 -0.09375 C 2.875 -0.195312 2.8125 -0.328125 2.8125 -0.484375 C 2.8125 -0.566406 2.828125 -0.660156 2.859375 -0.765625 L 7.96875 -12.515625 L 8.1875 -12.25 L 1.6875 -12.25 C 1.53125 -12.25 1.398438 -12.300781 1.296875 -12.40625 C 1.191406 -12.507812 1.140625 -12.640625 1.140625 -12.796875 C 1.140625 -12.960938 1.191406 -13.097656 1.296875 -13.203125 C 1.398438 -13.304688 1.53125 -13.359375 1.6875 -13.359375 L 8.75 -13.359375 C 8.9375 -13.359375 9.070312 -13.304688 9.15625 -13.203125 C 9.25 -13.097656 9.296875 -12.96875 9.296875 -12.8125 C 9.296875 -12.71875 9.28125 -12.625 9.25 -12.53125 L 3.953125 -0.328125 C 3.921875 -0.210938 3.851562 -0.117188 3.75 -0.046875 C 3.644531 0.0234375 3.535156 0.0625 3.421875 0.0625 Z M 3.421875 0.0625 "/></g></g></g></g></g></g><g clip-path="url(#bef10292fe)"><g transform="matrix(1, 0, 0, 1, 254, 600)"><g clip-path="url(#414a313a38)"><g fill="#201f1f" fill-opacity="1"><g transform="translate(0.347579, 20.232647)"><g><path d="M 9.109375 -1.109375 C 9.265625 -1.109375 9.394531 -1.050781 9.5 -0.9375 C 9.613281 -0.832031 9.671875 -0.707031 9.671875 -0.5625 C 9.671875 -0.394531 9.613281 -0.257812 9.5 -0.15625 C 9.394531 -0.0507812 9.265625 0 9.109375 0 L 1.90625 0 C 1.738281 0 1.59375 -0.046875 1.46875 -0.140625 C 1.34375 -0.234375 1.28125 -0.378906 1.28125 -0.578125 C 1.28125 -0.710938 1.332031 -0.847656 1.4375 -0.984375 L 5.875 -5.875 C 6.582031 -6.644531 7.113281 -7.351562 7.46875 -8 C 7.820312 -8.644531 8 -9.226562 8 -9.75 C 8 -10.59375 7.738281 -11.269531 7.21875 -11.78125 C 6.707031 -12.289062 6.019531 -12.546875 5.15625 -12.546875 C 4.757812 -12.546875 4.363281 -12.460938 3.96875 -12.296875 C 3.570312 -12.128906 3.222656 -11.910156 2.921875 -11.640625 C 2.628906 -11.378906 2.398438 -11.070312 2.234375 -10.71875 C 2.148438 -10.59375 2.066406 -10.503906 1.984375 -10.453125 C 1.898438 -10.398438 1.804688 -10.375 1.703125 -10.375 C 1.554688 -10.375 1.425781 -10.421875 1.3125 -10.515625 C 1.195312 -10.617188 1.140625 -10.738281 1.140625 -10.875 C 1.140625 -10.96875 1.160156 -11.054688 1.203125 -11.140625 C 1.242188 -11.234375 1.3125 -11.335938 1.40625 -11.453125 C 1.632812 -11.847656 1.953125 -12.210938 2.359375 -12.546875 C 2.773438 -12.878906 3.234375 -13.144531 3.734375 -13.34375 C 4.242188 -13.539062 4.742188 -13.640625 5.234375 -13.640625 C 6.046875 -13.640625 6.75 -13.484375 7.34375 -13.171875 C 7.945312 -12.859375 8.410156 -12.414062 8.734375 -11.84375 C 9.054688 -11.28125 9.21875 -10.609375 9.21875 -9.828125 C 9.21875 -9.160156 9.007812 -8.429688 8.59375 -7.640625 C 8.175781 -6.847656 7.5625 -6 6.75 -5.09375 L 3 -0.890625 L 2.8125 -1.109375 Z M 9.109375 -1.109375 "/></g></g></g><g fill="#201f1f" fill-opacity="1"><g transform="translate(10.987042, 20.232647)"><g><path d="M 7 -6.765625 L 6.9375 -6.9375 C 7.375 -6.769531 7.769531 -6.519531 8.125 -6.1875 C 8.488281 -5.863281 8.78125 -5.476562 9 -5.03125 C 9.21875 -4.59375 9.328125 -4.113281 9.328125 -3.59375 C 9.328125 -2.90625 9.140625 -2.273438 8.765625 -1.703125 C 8.398438 -1.140625 7.90625 -0.691406 7.28125 -0.359375 C 6.65625 -0.0234375 5.957031 0.140625 5.1875 0.140625 C 4.40625 0.140625 3.703125 -0.0234375 3.078125 -0.359375 C 2.460938 -0.691406 1.972656 -1.140625 1.609375 -1.703125 C 1.242188 -2.273438 1.0625 -2.90625 1.0625 -3.59375 C 1.0625 -4.15625 1.171875 -4.65625 1.390625 -5.09375 C 1.617188 -5.539062 1.914062 -5.914062 2.28125 -6.21875 C 2.644531 -6.53125 3.023438 -6.769531 3.421875 -6.9375 L 3.359375 -6.75 C 3.015625 -6.914062 2.691406 -7.140625 2.390625 -7.421875 C 2.085938 -7.710938 1.835938 -8.0625 1.640625 -8.46875 C 1.453125 -8.875 1.359375 -9.316406 1.359375 -9.796875 C 1.359375 -10.492188 1.53125 -11.113281 1.875 -11.65625 C 2.21875 -12.207031 2.675781 -12.644531 3.25 -12.96875 C 3.832031 -13.289062 4.476562 -13.453125 5.1875 -13.453125 C 5.894531 -13.453125 6.53125 -13.289062 7.09375 -12.96875 C 7.664062 -12.644531 8.117188 -12.207031 8.453125 -11.65625 C 8.796875 -11.113281 8.96875 -10.492188 8.96875 -9.796875 C 8.96875 -9.296875 8.875 -8.847656 8.6875 -8.453125 C 8.5 -8.054688 8.25 -7.710938 7.9375 -7.421875 C 7.625 -7.140625 7.3125 -6.921875 7 -6.765625 Z M 2.5625 -9.796875 C 2.5625 -9.285156 2.679688 -8.835938 2.921875 -8.453125 C 3.160156 -8.066406 3.476562 -7.765625 3.875 -7.546875 C 4.28125 -7.328125 4.71875 -7.21875 5.1875 -7.21875 C 5.644531 -7.21875 6.070312 -7.328125 6.46875 -7.546875 C 6.875 -7.765625 7.191406 -8.066406 7.421875 -8.453125 C 7.660156 -8.835938 7.78125 -9.285156 7.78125 -9.796875 C 7.78125 -10.554688 7.535156 -11.171875 7.046875 -11.640625 C 6.566406 -12.117188 5.945312 -12.359375 5.1875 -12.359375 C 4.40625 -12.359375 3.769531 -12.117188 3.28125 -11.640625 C 2.800781 -11.171875 2.5625 -10.554688 2.5625 -9.796875 Z M 5.1875 -0.953125 C 6.0625 -0.953125 6.769531 -1.203125 7.3125 -1.703125 C 7.851562 -2.203125 8.125 -2.832031 8.125 -3.59375 C 8.125 -4.101562 7.988281 -4.5625 7.71875 -4.96875 C 7.457031 -5.382812 7.101562 -5.707031 6.65625 -5.9375 C 6.207031 -6.164062 5.71875 -6.28125 5.1875 -6.28125 C 4.664062 -6.28125 4.179688 -6.164062 3.734375 -5.9375 C 3.285156 -5.707031 2.925781 -5.382812 2.65625 -4.96875 C 2.382812 -4.5625 2.25 -4.101562 2.25 -3.59375 C 2.25 -2.832031 2.515625 -2.203125 3.046875 -1.703125 C 3.585938 -1.203125 4.300781 -0.953125 5.1875 -0.953125 Z M 5.1875 -0.953125 "/></g></g></g></g></g></g><g clip-path="url(#0059c07900)"><g transform="matrix(1, 0, 0, 1, 380, 600)"><g clip-path="url(#31e721f376)"><g fill="#201f1f" fill-opacity="1"><g transform="translate(0.165903, 20.232647)"><g><path d="M 9.109375 -1.109375 C 9.265625 -1.109375 9.394531 -1.050781 9.5 -0.9375 C 9.613281 -0.832031 9.671875 -0.707031 9.671875 -0.5625 C 9.671875 -0.394531 9.613281 -0.257812 9.5 -0.15625 C 9.394531 -0.0507812 9.265625 0 9.109375 0 L 1.90625 0 C 1.738281 0 1.59375 -0.046875 1.46875 -0.140625 C 1.34375 -0.234375 1.28125 -0.378906 1.28125 -0.578125 C 1.28125 -0.710938 1.332031 -0.847656 1.4375 -0.984375 L 5.875 -5.875 C 6.582031 -6.644531 7.113281 -7.351562 7.46875 -8 C 7.820312 -8.644531 8 -9.226562 8 -9.75 C 8 -10.59375 7.738281 -11.269531 7.21875 -11.78125 C 6.707031 -12.289062 6.019531 -12.546875 5.15625 -12.546875 C 4.757812 -12.546875 4.363281 -12.460938 3.96875 -12.296875 C 3.570312 -12.128906 3.222656 -11.910156 2.921875 -11.640625 C 2.628906 -11.378906 2.398438 -11.070312 2.234375 -10.71875 C 2.148438 -10.59375 2.066406 -10.503906 1.984375 -10.453125 C 1.898438 -10.398438 1.804688 -10.375 1.703125 -10.375 C 1.554688 -10.375 1.425781 -10.421875 1.3125 -10.515625 C 1.195312 -10.617188 1.140625 -10.738281 1.140625 -10.875 C 1.140625 -10.96875 1.160156 -11.054688 1.203125 -11.140625 C 1.242188 -11.234375 1.3125 -11.335938 1.40625 -11.453125 C 1.632812 -11.847656 1.953125 -12.210938 2.359375 -12.546875 C 2.773438 -12.878906 3.234375 -13.144531 3.734375 -13.34375 C 4.242188 -13.539062 4.742188 -13.640625 5.234375 -13.640625 C 6.046875 -13.640625 6.75 -13.484375 7.34375 -13.171875 C 7.945312 -12.859375 8.410156 -12.414062 8.734375 -11.84375 C 9.054688 -11.28125 9.21875 -10.609375 9.21875 -9.828125 C 9.21875 -9.160156 9.007812 -8.429688 8.59375 -7.640625 C 8.175781 -6.847656 7.5625 -6 6.75 -5.09375 L 3 -0.890625 L 2.8125 -1.109375 Z M 9.109375 -1.109375 "/></g></g></g><g fill="#201f1f" fill-opacity="1"><g transform="translate(10.805366, 20.232647)"><g><path d="M 5.328125 -13.671875 C 6.078125 -13.671875 6.726562 -13.535156 7.28125 -13.265625 C 7.84375 -12.992188 8.300781 -12.628906 8.65625 -12.171875 C 9.019531 -11.722656 9.289062 -11.207031 9.46875 -10.625 C 9.65625 -10.050781 9.75 -9.460938 9.75 -8.859375 C 9.75 -8.242188 9.664062 -7.585938 9.5 -6.890625 C 9.34375 -6.191406 9.109375 -5.484375 8.796875 -4.765625 C 8.484375 -4.054688 8.09375 -3.378906 7.625 -2.734375 C 7.15625 -2.097656 6.601562 -1.523438 5.96875 -1.015625 C 5.34375 -0.503906 4.644531 -0.109375 3.875 0.171875 C 3.78125 0.203125 3.695312 0.21875 3.625 0.21875 C 3.476562 0.21875 3.34375 0.160156 3.21875 0.046875 C 3.09375 -0.0546875 3.03125 -0.203125 3.03125 -0.390625 C 3.03125 -0.515625 3.066406 -0.625 3.140625 -0.71875 C 3.222656 -0.8125 3.34375 -0.882812 3.5 -0.9375 C 4.226562 -1.25 4.929688 -1.707031 5.609375 -2.3125 C 6.285156 -2.925781 6.867188 -3.628906 7.359375 -4.421875 C 7.859375 -5.222656 8.191406 -6.054688 8.359375 -6.921875 L 8.765625 -7.171875 C 8.546875 -6.753906 8.25 -6.378906 7.875 -6.046875 C 7.507812 -5.710938 7.09375 -5.453125 6.625 -5.265625 C 6.15625 -5.085938 5.644531 -5 5.09375 -5 C 4.269531 -5 3.5625 -5.195312 2.96875 -5.59375 C 2.375 -6 1.914062 -6.535156 1.59375 -7.203125 C 1.269531 -7.867188 1.109375 -8.585938 1.109375 -9.359375 C 1.109375 -10.117188 1.289062 -10.820312 1.65625 -11.46875 C 2.019531 -12.125 2.519531 -12.65625 3.15625 -13.0625 C 3.789062 -13.46875 4.515625 -13.671875 5.328125 -13.671875 Z M 5.359375 -12.546875 C 4.753906 -12.546875 4.222656 -12.410156 3.765625 -12.140625 C 3.304688 -11.878906 2.941406 -11.503906 2.671875 -11.015625 C 2.410156 -10.535156 2.28125 -9.984375 2.28125 -9.359375 C 2.28125 -8.796875 2.390625 -8.265625 2.609375 -7.765625 C 2.835938 -7.265625 3.175781 -6.863281 3.625 -6.5625 C 4.082031 -6.257812 4.628906 -6.109375 5.265625 -6.109375 C 5.953125 -6.109375 6.539062 -6.257812 7.03125 -6.5625 C 7.519531 -6.863281 7.898438 -7.265625 8.171875 -7.765625 C 8.441406 -8.265625 8.578125 -8.816406 8.578125 -9.421875 C 8.578125 -9.972656 8.445312 -10.484375 8.1875 -10.953125 C 7.925781 -11.429688 7.554688 -11.816406 7.078125 -12.109375 C 6.609375 -12.398438 6.035156 -12.546875 5.359375 -12.546875 Z M 5.359375 -12.546875 "/></g></g></g></g></g></g><g clip-path="url(#153b8c27dd)"><g transform="matrix(1, 0, 0, 1, 505, 600)"><g clip-path="url(#b9108b6e2c)"><g fill="#201f1f" fill-opacity="1"><g transform="translate(0.984256, 20.232647)"><g><path d="M 1.703125 -1.984375 C 1.773438 -1.984375 1.84375 -1.96875 1.90625 -1.9375 C 1.976562 -1.914062 2.066406 -1.859375 2.171875 -1.765625 C 2.441406 -1.484375 2.757812 -1.269531 3.125 -1.125 C 3.5 -0.976562 3.925781 -0.90625 4.40625 -0.90625 C 5.03125 -0.90625 5.601562 -1.046875 6.125 -1.328125 C 6.644531 -1.609375 7.054688 -2 7.359375 -2.5 C 7.671875 -3.007812 7.828125 -3.59375 7.828125 -4.25 C 7.828125 -4.988281 7.660156 -5.582031 7.328125 -6.03125 C 7.003906 -6.488281 6.585938 -6.832031 6.078125 -7.0625 C 5.578125 -7.289062 5.0625 -7.40625 4.53125 -7.40625 C 4.394531 -7.40625 4.257812 -7.394531 4.125 -7.375 C 3.988281 -7.351562 3.863281 -7.328125 3.75 -7.296875 C 3.632812 -7.273438 3.546875 -7.265625 3.484375 -7.265625 C 3.316406 -7.265625 3.1875 -7.316406 3.09375 -7.421875 C 3 -7.535156 2.953125 -7.675781 2.953125 -7.84375 C 2.953125 -7.925781 2.972656 -8.003906 3.015625 -8.078125 C 3.054688 -8.148438 3.109375 -8.234375 3.171875 -8.328125 L 7.078125 -12.5625 L 7.296875 -12.265625 L 1.484375 -12.265625 C 1.328125 -12.265625 1.191406 -12.316406 1.078125 -12.421875 C 0.972656 -12.535156 0.921875 -12.664062 0.921875 -12.8125 C 0.921875 -12.96875 0.972656 -13.097656 1.078125 -13.203125 C 1.191406 -13.304688 1.328125 -13.359375 1.484375 -13.359375 L 7.9375 -13.359375 C 8.15625 -13.359375 8.304688 -13.289062 8.390625 -13.15625 C 8.484375 -13.019531 8.53125 -12.890625 8.53125 -12.765625 C 8.53125 -12.679688 8.507812 -12.601562 8.46875 -12.53125 C 8.4375 -12.46875 8.390625 -12.394531 8.328125 -12.3125 L 4.421875 -8.078125 L 4 -8.328125 C 4.039062 -8.359375 4.171875 -8.394531 4.390625 -8.4375 C 4.617188 -8.488281 4.796875 -8.515625 4.921875 -8.515625 C 5.628906 -8.515625 6.289062 -8.347656 6.90625 -8.015625 C 7.53125 -7.679688 8.035156 -7.203125 8.421875 -6.578125 C 8.816406 -5.960938 9.015625 -5.195312 9.015625 -4.28125 C 9.015625 -3.382812 8.800781 -2.597656 8.375 -1.921875 C 7.957031 -1.253906 7.390625 -0.734375 6.671875 -0.359375 C 5.953125 0.00390625 5.15625 0.1875 4.28125 0.1875 C 3.757812 0.1875 3.238281 0.0976562 2.71875 -0.078125 C 2.207031 -0.253906 1.765625 -0.523438 1.390625 -0.890625 C 1.296875 -0.960938 1.226562 -1.035156 1.1875 -1.109375 C 1.15625 -1.191406 1.140625 -1.269531 1.140625 -1.34375 C 1.140625 -1.5 1.191406 -1.644531 1.296875 -1.78125 C 1.398438 -1.914062 1.535156 -1.984375 1.703125 -1.984375 Z M 1.703125 -1.984375 "/></g></g></g><g fill="#201f1f" fill-opacity="1"><g transform="translate(11.047581, 20.232647)"><g><path d="M 5.703125 0.1875 C 4.679688 0.1875 3.820312 -0.117188 3.125 -0.734375 C 2.4375 -1.347656 1.921875 -2.175781 1.578125 -3.21875 C 1.234375 -4.257812 1.0625 -5.425781 1.0625 -6.71875 C 1.0625 -8.03125 1.234375 -9.207031 1.578125 -10.25 C 1.921875 -11.289062 2.4375 -12.113281 3.125 -12.71875 C 3.820312 -13.332031 4.679688 -13.640625 5.703125 -13.640625 C 6.753906 -13.640625 7.625 -13.332031 8.3125 -12.71875 C 9 -12.113281 9.515625 -11.289062 9.859375 -10.25 C 10.203125 -9.207031 10.375 -8.03125 10.375 -6.71875 C 10.375 -5.425781 10.203125 -4.257812 9.859375 -3.21875 C 9.515625 -2.175781 9 -1.347656 8.3125 -0.734375 C 7.625 -0.117188 6.753906 0.1875 5.703125 0.1875 Z M 5.703125 -1 C 6.460938 -1 7.09375 -1.234375 7.59375 -1.703125 C 8.101562 -2.179688 8.488281 -2.851562 8.75 -3.71875 C 9.007812 -4.582031 9.140625 -5.582031 9.140625 -6.71875 C 9.140625 -7.875 9.007812 -8.882812 8.75 -9.75 C 8.488281 -10.613281 8.101562 -11.28125 7.59375 -11.75 C 7.09375 -12.226562 6.460938 -12.46875 5.703125 -12.46875 C 4.960938 -12.46875 4.335938 -12.226562 3.828125 -11.75 C 3.328125 -11.28125 2.941406 -10.613281 2.671875 -9.75 C 2.410156 -8.882812 2.28125 -7.875 2.28125 -6.71875 C 2.28125 -5.582031 2.410156 -4.582031 2.671875 -3.71875 C 2.941406 -2.851562 3.328125 -2.179688 3.828125 -1.703125 C 4.335938 -1.234375 4.960938 -1 5.703125 -1 Z M 5.703125 -1 "/></g></g></g></g></g></g><path stroke-linecap="butt" transform="matrix(0.75, 0, 0, 0.75, 0.0000031164, 0.00002)" fill-opacity="1" fill="#000000" fill-rule="nonzero" stroke-linejoin="miter" d="M 0.807288 1.614557 L 0.807288 998.385439 M 168.562504 1.614557 L 168.562504 998.385439 M 336.322929 1.614557 L 336.322929 998.385439 M 504.078145 1.614557 L 504.078145 998.385439 M 671.83857 1.614557 L 671.83857 998.385439 M 839.593787 1.614557 L 839.593787 998.385439 M 1007.354212 1.614557 L 1007.354212 998.385439 M 1175.109428 1.614557 L 1175.109428 998.385439 M -0.0000041552 0.807265 L 1175.91672 0.807265 M -0.0000041552 200.484358 L 1175.91672 200.484358 M -0.0000041552 400.161451 L 1175.91672 400.161451 M -0.0000041552 599.838544 L 1175.91672 599.838544 M -0.0000041552 799.515637 L 1175.91672 799.515637 M -0.0000041552 999.19273 L 1175.91672 999.19273 " stroke="#000000" stroke-width="1.614593" stroke-opacity="1" stroke-miterlimit="4"/></svg>