<svg xmlns="http://www.w3.org/2000/svg" xmlns:xlink="http://www.w3.org/1999/xlink" width="600" zoomAndPan="magnify" viewBox="0 0 450 112.499997" height="150" preserveAspectRatio="xMidYMid meet" version="1.0"><defs><g/></defs><g fill="#000000" fill-opacity="1"><g transform="translate(66.68159, 77.340993)"><g><path d="M 26.359375 -50.046875 L 6.828125 -1.53125 C 6.617188 -0.988281 6.328125 -0.582031 5.953125 -0.3125 C 5.578125 -0.0507812 5.144531 0.078125 4.65625 0.078125 C 3.90625 0.078125 3.34375 -0.117188 2.96875 -0.515625 C 2.59375 -0.921875 2.378906 -1.421875 2.328125 -2.015625 C 2.273438 -2.273438 2.300781 -2.59375 2.40625 -2.96875 L 23.625 -54.875 C 23.882812 -55.46875 24.21875 -55.882812 24.625 -56.125 C 25.03125 -56.363281 25.5 -56.484375 26.03125 -56.484375 C 26.5625 -56.484375 27.03125 -56.332031 27.4375 -56.03125 C 27.84375 -55.738281 28.148438 -55.351562 28.359375 -54.875 L 49.484375 -3.21875 C 49.597656 -2.894531 49.65625 -2.570312 49.65625 -2.25 C 49.65625 -1.5 49.410156 -0.921875 48.921875 -0.515625 C 48.441406 -0.117188 47.878906 0.078125 47.234375 0.078125 C 46.703125 0.078125 46.234375 -0.0664062 45.828125 -0.359375 C 45.429688 -0.648438 45.125 -1.039062 44.90625 -1.53125 L 24.90625 -50.375 Z M 11.484375 -16.234375 L 13.5 -20.96875 L 38.40625 -20.96875 L 39.375 -16.234375 Z M 11.484375 -16.234375 "/></g></g></g><g fill="#000000" fill-opacity="1"><g transform="translate(117.857017, 77.340993)"><g><path d="M 47.328125 -56.234375 C 48.078125 -56.234375 48.664062 -56.003906 49.09375 -55.546875 C 49.519531 -55.097656 49.734375 -54.523438 49.734375 -53.828125 L 49.734375 -20.5625 C 49.734375 -16.601562 48.796875 -13.015625 46.921875 -9.796875 C 45.046875 -6.585938 42.523438 -4.03125 39.359375 -2.125 C 36.203125 -0.226562 32.644531 0.71875 28.6875 0.71875 C 24.71875 0.71875 21.140625 -0.226562 17.953125 -2.125 C 14.765625 -4.03125 12.234375 -6.585938 10.359375 -9.796875 C 8.484375 -13.015625 7.546875 -16.601562 7.546875 -20.5625 L 7.546875 -53.828125 C 7.546875 -54.523438 7.773438 -55.097656 8.234375 -55.546875 C 8.691406 -56.003906 9.320312 -56.234375 10.125 -56.234375 C 10.769531 -56.234375 11.332031 -56.003906 11.8125 -55.546875 C 12.289062 -55.097656 12.53125 -54.523438 12.53125 -53.828125 L 12.53125 -20.5625 C 12.53125 -17.457031 13.265625 -14.671875 14.734375 -12.203125 C 16.210938 -9.742188 18.179688 -7.773438 20.640625 -6.296875 C 23.109375 -4.828125 25.789062 -4.09375 28.6875 -4.09375 C 31.6875 -4.09375 34.414062 -4.828125 36.875 -6.296875 C 39.34375 -7.773438 41.3125 -9.742188 42.78125 -12.203125 C 44.257812 -14.671875 45 -17.457031 45 -20.5625 L 45 -53.828125 C 45 -54.523438 45.210938 -55.097656 45.640625 -55.546875 C 46.066406 -56.003906 46.628906 -56.234375 47.328125 -56.234375 Z M 47.328125 -56.234375 "/></g></g></g><g fill="#000000" fill-opacity="1"><g transform="translate(175.138196, 77.340993)"><g><path d="M 32.78125 0.796875 C 28.65625 0.796875 24.820312 0.078125 21.28125 -1.359375 C 17.75 -2.804688 14.679688 -4.828125 12.078125 -7.421875 C 9.484375 -10.023438 7.460938 -13.09375 6.015625 -16.625 C 4.578125 -20.164062 3.859375 -24 3.859375 -28.125 C 3.859375 -32.25 4.578125 -36.078125 6.015625 -39.609375 C 7.460938 -43.140625 9.484375 -46.203125 12.078125 -48.796875 C 14.679688 -51.398438 17.75 -53.425781 21.28125 -54.875 C 24.820312 -56.320312 28.65625 -57.046875 32.78125 -57.046875 C 35.613281 -57.046875 38.359375 -56.707031 41.015625 -56.03125 C 43.671875 -55.363281 46.039062 -54.363281 48.125 -53.03125 C 48.5 -52.757812 48.78125 -52.445312 48.96875 -52.09375 C 49.15625 -51.75 49.25 -51.390625 49.25 -51.015625 C 49.25 -50.265625 49.003906 -49.660156 48.515625 -49.203125 C 48.035156 -48.753906 47.53125 -48.53125 47 -48.53125 C 46.726562 -48.53125 46.472656 -48.566406 46.234375 -48.640625 C 45.992188 -48.722656 45.769531 -48.816406 45.5625 -48.921875 C 43.738281 -49.941406 41.753906 -50.742188 39.609375 -51.328125 C 37.460938 -51.921875 35.1875 -52.21875 32.78125 -52.21875 C 28.175781 -52.21875 24.078125 -51.171875 20.484375 -49.078125 C 16.898438 -46.992188 14.085938 -44.128906 12.046875 -40.484375 C 10.015625 -36.847656 9 -32.726562 9 -28.125 C 9 -23.507812 10.015625 -19.378906 12.046875 -15.734375 C 14.085938 -12.097656 16.898438 -9.234375 20.484375 -7.140625 C 24.078125 -5.054688 28.175781 -4.015625 32.78125 -4.015625 C 35.1875 -4.015625 37.609375 -4.363281 40.046875 -5.0625 C 42.484375 -5.757812 44.585938 -6.695312 46.359375 -7.875 L 45.953125 -6.1875 L 45.953125 -24.671875 L 47.15625 -23.546875 L 33.265625 -23.546875 C 32.566406 -23.546875 31.972656 -23.785156 31.484375 -24.265625 C 31.003906 -24.742188 30.765625 -25.304688 30.765625 -25.953125 C 30.765625 -26.703125 31.003906 -27.289062 31.484375 -27.71875 C 31.972656 -28.144531 32.566406 -28.359375 33.265625 -28.359375 L 48.609375 -28.359375 C 49.304688 -28.359375 49.878906 -28.128906 50.328125 -27.671875 C 50.785156 -27.222656 51.015625 -26.648438 51.015625 -25.953125 L 51.015625 -6.59375 C 51.015625 -6.164062 50.90625 -5.765625 50.6875 -5.390625 C 50.476562 -5.015625 50.1875 -4.691406 49.8125 -4.421875 C 47.457031 -2.816406 44.816406 -1.546875 41.890625 -0.609375 C 38.972656 0.328125 35.9375 0.796875 32.78125 0.796875 Z M 32.78125 0.796875 "/></g></g></g><g fill="#000000" fill-opacity="1"><g transform="translate(230.973296, 77.340993)"><g><path d="M 47.328125 -56.234375 C 48.078125 -56.234375 48.664062 -56.003906 49.09375 -55.546875 C 49.519531 -55.097656 49.734375 -54.523438 49.734375 -53.828125 L 49.734375 -20.5625 C 49.734375 -16.601562 48.796875 -13.015625 46.921875 -9.796875 C 45.046875 -6.585938 42.523438 -4.03125 39.359375 -2.125 C 36.203125 -0.226562 32.644531 0.71875 28.6875 0.71875 C 24.71875 0.71875 21.140625 -0.226562 17.953125 -2.125 C 14.765625 -4.03125 12.234375 -6.585938 10.359375 -9.796875 C 8.484375 -13.015625 7.546875 -16.601562 7.546875 -20.5625 L 7.546875 -53.828125 C 7.546875 -54.523438 7.773438 -55.097656 8.234375 -55.546875 C 8.691406 -56.003906 9.320312 -56.234375 10.125 -56.234375 C 10.769531 -56.234375 11.332031 -56.003906 11.8125 -55.546875 C 12.289062 -55.097656 12.53125 -54.523438 12.53125 -53.828125 L 12.53125 -20.5625 C 12.53125 -17.457031 13.265625 -14.671875 14.734375 -12.203125 C 16.210938 -9.742188 18.179688 -7.773438 20.640625 -6.296875 C 23.109375 -4.828125 25.789062 -4.09375 28.6875 -4.09375 C 31.6875 -4.09375 34.414062 -4.828125 36.875 -6.296875 C 39.34375 -7.773438 41.3125 -9.742188 42.78125 -12.203125 C 44.257812 -14.671875 45 -17.457031 45 -20.5625 L 45 -53.828125 C 45 -54.523438 45.210938 -55.097656 45.640625 -55.546875 C 46.066406 -56.003906 46.628906 -56.234375 47.328125 -56.234375 Z M 47.328125 -56.234375 "/></g></g></g><g fill="#000000" fill-opacity="1"><g transform="translate(287.451031, 77.340993)"><g><path d="M 23.0625 0.796875 C 18.988281 0.859375 15.453125 0.21875 12.453125 -1.125 C 9.453125 -2.46875 6.585938 -4.476562 3.859375 -7.15625 C 3.585938 -7.363281 3.359375 -7.628906 3.171875 -7.953125 C 2.984375 -8.273438 2.890625 -8.648438 2.890625 -9.078125 C 2.890625 -9.722656 3.144531 -10.3125 3.65625 -10.84375 C 4.164062 -11.382812 4.742188 -11.65625 5.390625 -11.65625 C 6.023438 -11.65625 6.613281 -11.382812 7.15625 -10.84375 C 9.238281 -8.59375 11.601562 -6.878906 14.25 -5.703125 C 16.90625 -4.523438 19.757812 -3.9375 22.8125 -3.9375 C 25.382812 -3.9375 27.675781 -4.335938 29.6875 -5.140625 C 31.695312 -5.941406 33.289062 -7.09375 34.46875 -8.59375 C 35.644531 -10.09375 36.234375 -11.832031 36.234375 -13.8125 C 36.234375 -16.28125 35.5625 -18.273438 34.21875 -19.796875 C 32.882812 -21.328125 31.117188 -22.585938 28.921875 -23.578125 C 26.722656 -24.566406 24.285156 -25.460938 21.609375 -26.265625 C 19.410156 -26.910156 17.320312 -27.648438 15.34375 -28.484375 C 13.363281 -29.316406 11.597656 -30.332031 10.046875 -31.53125 C 8.492188 -32.738281 7.285156 -34.222656 6.421875 -35.984375 C 5.566406 -37.753906 5.140625 -39.898438 5.140625 -42.421875 C 5.140625 -45.265625 5.890625 -47.78125 7.390625 -49.96875 C 8.890625 -52.164062 11.019531 -53.894531 13.78125 -55.15625 C 16.539062 -56.414062 19.738281 -57.046875 23.375 -57.046875 C 26.539062 -57.046875 29.582031 -56.507812 32.5 -55.4375 C 35.414062 -54.363281 37.734375 -52.785156 39.453125 -50.703125 C 40.253906 -49.835938 40.65625 -49.054688 40.65625 -48.359375 C 40.65625 -47.828125 40.382812 -47.289062 39.84375 -46.75 C 39.3125 -46.21875 38.722656 -45.953125 38.078125 -45.953125 C 37.546875 -45.953125 37.09375 -46.140625 36.71875 -46.515625 C 35.800781 -47.640625 34.644531 -48.644531 33.25 -49.53125 C 31.863281 -50.414062 30.328125 -51.097656 28.640625 -51.578125 C 26.953125 -52.054688 25.195312 -52.296875 23.375 -52.296875 C 20.863281 -52.296875 18.601562 -51.90625 16.59375 -51.125 C 14.582031 -50.351562 13 -49.242188 11.84375 -47.796875 C 10.695312 -46.359375 10.125 -44.617188 10.125 -42.578125 C 10.125 -40.328125 10.765625 -38.476562 12.046875 -37.03125 C 13.335938 -35.59375 15.023438 -34.40625 17.109375 -33.46875 C 19.203125 -32.53125 21.425781 -31.660156 23.78125 -30.859375 C 26.082031 -30.210938 28.289062 -29.472656 30.40625 -28.640625 C 32.519531 -27.804688 34.394531 -26.773438 36.03125 -25.546875 C 37.664062 -24.316406 38.953125 -22.765625 39.890625 -20.890625 C 40.828125 -19.015625 41.296875 -16.65625 41.296875 -13.8125 C 41.296875 -11.082031 40.519531 -8.617188 38.96875 -6.421875 C 37.414062 -4.234375 35.285156 -2.492188 32.578125 -1.203125 C 29.867188 0.078125 26.695312 0.742188 23.0625 0.796875 Z M 23.0625 0.796875 "/></g></g></g><g fill="#000000" fill-opacity="1"><g transform="translate(332.601145, 77.340993)"><g><path d="M 24.265625 0 C 23.515625 0 22.910156 -0.238281 22.453125 -0.71875 C 21.992188 -1.207031 21.765625 -1.769531 21.765625 -2.40625 L 21.765625 -53.59375 L 26.75 -53.59375 L 26.75 -2.40625 C 26.75 -1.769531 26.507812 -1.207031 26.03125 -0.71875 C 25.550781 -0.238281 24.960938 0 24.265625 0 Z M 5.140625 -51.65625 C 4.492188 -51.65625 3.929688 -51.867188 3.453125 -52.296875 C 2.972656 -52.734375 2.734375 -53.296875 2.734375 -53.984375 C 2.734375 -54.628906 2.972656 -55.164062 3.453125 -55.59375 C 3.929688 -56.019531 4.492188 -56.234375 5.140625 -56.234375 L 43.390625 -56.234375 C 44.023438 -56.234375 44.582031 -56.019531 45.0625 -55.59375 C 45.550781 -55.164062 45.796875 -54.601562 45.796875 -53.90625 C 45.796875 -53.207031 45.550781 -52.65625 45.0625 -52.25 C 44.582031 -51.851562 44.023438 -51.65625 43.390625 -51.65625 Z M 5.140625 -51.65625 "/></g></g></g></svg>