<svg xmlns="http://www.w3.org/2000/svg" xmlns:xlink="http://www.w3.org/1999/xlink" width="1176" zoomAndPan="magnify" viewBox="0 0 882 749.999995" height="1000" preserveAspectRatio="xMidYMid meet" version="1.0"><defs><g/><clipPath id="c2dc8fae27"><path d="M 631 1.1875 L 640 1.1875 L 640 26 L 631 26 Z M 631 1.1875 " clip-rule="nonzero"/></clipPath><clipPath id="7399f8eb7d"><rect x="0" width="9" y="0" height="25"/></clipPath><clipPath id="8ef62cb2c0"><path d="M 757 1.1875 L 769 1.1875 L 769 26 L 757 26 Z M 757 1.1875 " clip-rule="nonzero"/></clipPath><clipPath id="1049e67a0a"><rect x="0" width="12" y="0" height="25"/></clipPath><clipPath id="b8ab84340a"><rect x="0" width="11" y="0" height="25"/></clipPath><clipPath id="9d6488026d"><path d="M 0.398438 6 L 10 6 L 10 20 L 0.398438 20 Z M 0.398438 6 " clip-rule="nonzero"/></clipPath><clipPath id="b7e6d5b4ee"><rect x="0" width="11" y="0" height="25"/></clipPath><clipPath id="bd66e0e265"><rect x="0" width="12" y="0" height="25"/></clipPath><clipPath id="1bc4cd30e4"><rect x="0" width="11" y="0" height="25"/></clipPath><clipPath id="d09fe004c7"><rect x="0" width="12" y="0" height="25"/></clipPath><clipPath id="5ecc8281b1"><rect x="0" width="12" y="0" height="25"/></clipPath><clipPath id="d58845e4d2"><rect x="0" width="12" y="0" height="25"/></clipPath><clipPath id="3030f9b33b"><rect x="0" width="20" y="0" height="25"/></clipPath><clipPath id="97f23d2631"><rect x="0" width="16" y="0" height="25"/></clipPath><clipPath id="e2b5f96ef6"><path d="M 0.160156 6 L 6 6 L 6 20 L 0.160156 20 Z M 0.160156 6 " clip-rule="nonzero"/></clipPath><clipPath id="799fc1cfb8"><rect x="0" width="19" y="0" height="25"/></clipPath><clipPath id="59b2dd5a8c"><path d="M 0.160156 6 L 6 6 L 6 20 L 0.160156 20 Z M 0.160156 6 " clip-rule="nonzero"/></clipPath><clipPath id="a492e4f030"><rect x="0" width="18" y="0" height="25"/></clipPath><clipPath id="fa83cbf7e9"><rect x="0" width="19" y="0" height="25"/></clipPath><clipPath id="3bff273f34"><rect x="0" width="19" y="0" height="25"/></clipPath><clipPath id="a10aee0c6b"><path d="M 8 5 L 17.960938 5 L 17.960938 20 L 8 20 Z M 8 5 " clip-rule="nonzero"/></clipPath><clipPath id="8c51027265"><rect x="0" width="18" y="0" height="25"/></clipPath><clipPath id="0bbeee241e"><path d="M 2 450.476562 L 21 450.476562 L 21 475 L 2 475 Z M 2 450.476562 " clip-rule="nonzero"/></clipPath><clipPath id="7228742f0d"><rect x="0" width="19" y="0" height="25"/></clipPath><clipPath id="b90e3e5a67"><path d="M 128 450.476562 L 146 450.476562 L 146 475 L 128 475 Z M 128 450.476562 " clip-rule="nonzero"/></clipPath><clipPath id="c6d7e56d0c"><rect x="0" width="18" y="0" height="25"/></clipPath><clipPath id="e390201ce1"><path d="M 254 450.476562 L 273 450.476562 L 273 475 L 254 475 Z M 254 450.476562 " clip-rule="nonzero"/></clipPath><clipPath id="835bee4435"><path d="M 0.160156 6 L 6 6 L 6 21 L 0.160156 21 Z M 0.160156 6 " clip-rule="nonzero"/></clipPath><clipPath id="3888d6e7fa"><rect x="0" width="19" y="0" height="25"/></clipPath><clipPath id="6a5ef1d3ae"><path d="M 380 450.476562 L 403 450.476562 L 403 475 L 380 475 Z M 380 450.476562 " clip-rule="nonzero"/></clipPath><clipPath id="f11ab5d85c"><rect x="0" width="23" y="0" height="25"/></clipPath><clipPath id="ebaf01f348"><path d="M 505 450.476562 L 524 450.476562 L 524 475 L 505 475 Z M 505 450.476562 " clip-rule="nonzero"/></clipPath><clipPath id="ac6de604ff"><rect x="0" width="19" y="0" height="25"/></clipPath><clipPath id="5ba4deb406"><path d="M 631 450.476562 L 654 450.476562 L 654 475 L 631 475 Z M 631 450.476562 " clip-rule="nonzero"/></clipPath><clipPath id="8bb75bb3f2"><rect x="0" width="23" y="0" height="25"/></clipPath><clipPath id="353a0ab95c"><path d="M 757 450.476562 L 779 450.476562 L 779 475 L 757 475 Z M 757 450.476562 " clip-rule="nonzero"/></clipPath><clipPath id="833ea26cd8"><rect x="0" width="22" y="0" height="25"/></clipPath><clipPath id="ce50957709"><path d="M 2 600.238281 L 24 600.238281 L 24 625 L 2 625 Z M 2 600.238281 " clip-rule="nonzero"/></clipPath><clipPath id="f81f8dc67e"><rect x="0" width="22" y="0" height="25"/></clipPath><clipPath id="8a4568c1e9"><path d="M 128 600.238281 L 150 600.238281 L 150 625 L 128 625 Z M 128 600.238281 " clip-rule="nonzero"/></clipPath><clipPath id="f9b377fbcf"><rect x="0" width="22" y="0" height="25"/></clipPath><clipPath id="b08d34f7fb"><path d="M 254 600.238281 L 276 600.238281 L 276 625 L 254 625 Z M 254 600.238281 " clip-rule="nonzero"/></clipPath><clipPath id="06c625b0f0"><rect x="0" width="22" y="0" height="25"/></clipPath><clipPath id="48e8d30c99"><path d="M 380 600.238281 L 401 600.238281 L 401 625 L 380 625 Z M 380 600.238281 " clip-rule="nonzero"/></clipPath><clipPath id="4d8615b096"><rect x="0" width="21" y="0" height="25"/></clipPath><clipPath id="d1b22fc23f"><path d="M 505 600.238281 L 528 600.238281 L 528 625 L 505 625 Z M 505 600.238281 " clip-rule="nonzero"/></clipPath><clipPath id="5fa77f6fd4"><rect x="0" width="23" y="0" height="25"/></clipPath><clipPath id="5c6c29e83b"><path d="M 631 600.238281 L 654 600.238281 L 654 625 L 631 625 Z M 631 600.238281 " clip-rule="nonzero"/></clipPath><clipPath id="3f77a244e6"><rect x="0" width="23" y="0" height="25"/></clipPath><clipPath id="aa6219a523"><path d="M 757 600.238281 L 780 600.238281 L 780 625 L 757 625 Z M 757 600.238281 " clip-rule="nonzero"/></clipPath><clipPath id="c2bbe172fe"><rect x="0" width="23" y="0" height="25"/></clipPath><clipPath id="49b2d61ea9"><path d="M 0.0390625 0 L 881.984375 0 L 881.984375 750 L 0.0390625 750 Z M 0.0390625 0 " clip-rule="nonzero"/></clipPath><clipPath id="b8c212f4ae"><path d="M 0 593 L 136 593 L 136 750 L 0 750 Z M 0 593 " clip-rule="nonzero"/></clipPath><clipPath id="76cf8c6a5d"><rect x="0" width="882" y="0" height="750"/></clipPath></defs><g transform="matrix(1, 0, 0, 1, 0, -0.000000000000042435)"><g clip-path="url(#76cf8c6a5d)"><g clip-path="url(#c2dc8fae27)"><g transform="matrix(1, 0, 0, 1, 631, 1)"><g clip-path="url(#7399f8eb7d)"><g fill="#201f1f" fill-opacity="1"><g transform="translate(0.835363, 19.847708)"><g><path d="M 4.265625 0 C 4.085938 0 3.941406 -0.0546875 3.828125 -0.171875 C 3.710938 -0.285156 3.65625 -0.414062 3.65625 -0.5625 L 3.65625 -11.921875 L 3.859375 -11.734375 L 1.359375 -10.046875 C 1.253906 -9.972656 1.144531 -9.9375 1.03125 -9.9375 C 0.882812 -9.9375 0.75 -10 0.625 -10.125 C 0.507812 -10.25 0.453125 -10.390625 0.453125 -10.546875 C 0.453125 -10.742188 0.550781 -10.898438 0.75 -11.015625 L 3.90625 -13.109375 C 3.976562 -13.160156 4.054688 -13.191406 4.140625 -13.203125 C 4.222656 -13.210938 4.296875 -13.210938 4.359375 -13.203125 C 4.523438 -13.191406 4.648438 -13.128906 4.734375 -13.015625 C 4.816406 -12.910156 4.859375 -12.785156 4.859375 -12.640625 L 4.859375 -0.5625 C 4.859375 -0.414062 4.800781 -0.285156 4.6875 -0.171875 C 4.582031 -0.0546875 4.441406 0 4.265625 0 Z M 4.265625 0 "/></g></g></g></g></g></g><g clip-path="url(#8ef62cb2c0)"><g transform="matrix(1, 0, 0, 1, 757, 1)"><g clip-path="url(#1049e67a0a)"><g fill="#201f1f" fill-opacity="1"><g transform="translate(0.656763, 19.847708)"><g><path d="M 8.9375 -1.09375 C 9.09375 -1.09375 9.222656 -1.035156 9.328125 -0.921875 C 9.429688 -0.816406 9.484375 -0.691406 9.484375 -0.546875 C 9.484375 -0.378906 9.429688 -0.242188 9.328125 -0.140625 C 9.222656 -0.046875 9.09375 0 8.9375 0 L 1.859375 0 C 1.703125 0 1.5625 -0.046875 1.4375 -0.140625 C 1.320312 -0.234375 1.265625 -0.375 1.265625 -0.5625 C 1.265625 -0.695312 1.316406 -0.832031 1.421875 -0.96875 L 5.765625 -5.765625 C 6.460938 -6.523438 6.984375 -7.222656 7.328125 -7.859375 C 7.671875 -8.492188 7.84375 -9.0625 7.84375 -9.5625 C 7.84375 -10.394531 7.59375 -11.0625 7.09375 -11.5625 C 6.59375 -12.0625 5.910156 -12.3125 5.046875 -12.3125 C 4.660156 -12.3125 4.273438 -12.226562 3.890625 -12.0625 C 3.503906 -11.90625 3.164062 -11.691406 2.875 -11.421875 C 2.582031 -11.160156 2.351562 -10.863281 2.1875 -10.53125 C 2.113281 -10.394531 2.035156 -10.300781 1.953125 -10.25 C 1.867188 -10.207031 1.773438 -10.1875 1.671875 -10.1875 C 1.523438 -10.1875 1.394531 -10.234375 1.28125 -10.328125 C 1.164062 -10.421875 1.109375 -10.535156 1.109375 -10.671875 C 1.109375 -10.765625 1.128906 -10.851562 1.171875 -10.9375 C 1.222656 -11.03125 1.289062 -11.128906 1.375 -11.234375 C 1.601562 -11.628906 1.914062 -11.988281 2.3125 -12.3125 C 2.71875 -12.644531 3.164062 -12.90625 3.65625 -13.09375 C 4.15625 -13.289062 4.644531 -13.390625 5.125 -13.390625 C 5.9375 -13.390625 6.632812 -13.234375 7.21875 -12.921875 C 7.800781 -12.617188 8.25 -12.1875 8.5625 -11.625 C 8.882812 -11.0625 9.046875 -10.398438 9.046875 -9.640625 C 9.046875 -8.984375 8.84375 -8.269531 8.4375 -7.5 C 8.03125 -6.726562 7.425781 -5.894531 6.625 -5 L 2.9375 -0.875 L 2.75 -1.09375 Z M 8.9375 -1.09375 "/></g></g></g></g></g></g><g transform="matrix(1, 0, 0, 1, 2, 151)"><g clip-path="url(#b8ab84340a)"><g fill="#201f1f" fill-opacity="1"><g transform="translate(0.728165, 19.609869)"><g><path d="M 1.671875 -1.9375 C 1.734375 -1.9375 1.800781 -1.921875 1.875 -1.890625 C 1.945312 -1.867188 2.03125 -1.816406 2.125 -1.734375 C 2.394531 -1.453125 2.710938 -1.238281 3.078125 -1.09375 C 3.441406 -0.957031 3.851562 -0.890625 4.3125 -0.890625 C 4.9375 -0.890625 5.5 -1.023438 6 -1.296875 C 6.507812 -1.578125 6.914062 -1.960938 7.21875 -2.453125 C 7.519531 -2.953125 7.671875 -3.523438 7.671875 -4.171875 C 7.671875 -4.898438 7.507812 -5.484375 7.1875 -5.921875 C 6.875 -6.367188 6.46875 -6.703125 5.96875 -6.921875 C 5.46875 -7.148438 4.960938 -7.265625 4.453125 -7.265625 C 4.316406 -7.265625 4.179688 -7.253906 4.046875 -7.234375 C 3.910156 -7.210938 3.785156 -7.1875 3.671875 -7.15625 C 3.566406 -7.132812 3.476562 -7.125 3.40625 -7.125 C 3.25 -7.125 3.125 -7.175781 3.03125 -7.28125 C 2.945312 -7.394531 2.90625 -7.53125 2.90625 -7.6875 C 2.90625 -7.78125 2.921875 -7.859375 2.953125 -7.921875 C 2.992188 -7.992188 3.046875 -8.078125 3.109375 -8.171875 L 6.9375 -12.328125 L 7.171875 -12.03125 L 1.453125 -12.03125 C 1.296875 -12.03125 1.164062 -12.082031 1.0625 -12.1875 C 0.957031 -12.300781 0.90625 -12.429688 0.90625 -12.578125 C 0.90625 -12.734375 0.957031 -12.859375 1.0625 -12.953125 C 1.164062 -13.054688 1.296875 -13.109375 1.453125 -13.109375 L 7.78125 -13.109375 C 8 -13.109375 8.148438 -13.039062 8.234375 -12.90625 C 8.328125 -12.78125 8.375 -12.648438 8.375 -12.515625 C 8.375 -12.441406 8.351562 -12.367188 8.3125 -12.296875 C 8.28125 -12.234375 8.234375 -12.164062 8.171875 -12.09375 L 4.34375 -7.921875 L 3.921875 -8.171875 C 3.960938 -8.203125 4.09375 -8.238281 4.3125 -8.28125 C 4.53125 -8.332031 4.703125 -8.359375 4.828125 -8.359375 C 5.515625 -8.359375 6.160156 -8.191406 6.765625 -7.859375 C 7.378906 -7.535156 7.878906 -7.066406 8.265625 -6.453125 C 8.648438 -5.847656 8.84375 -5.097656 8.84375 -4.203125 C 8.84375 -3.328125 8.632812 -2.554688 8.21875 -1.890625 C 7.800781 -1.234375 7.238281 -0.722656 6.53125 -0.359375 C 5.832031 0.00390625 5.054688 0.1875 4.203125 0.1875 C 3.691406 0.1875 3.179688 0.0976562 2.671875 -0.078125 C 2.171875 -0.253906 1.734375 -0.519531 1.359375 -0.875 C 1.265625 -0.945312 1.195312 -1.019531 1.15625 -1.09375 C 1.125 -1.164062 1.109375 -1.238281 1.109375 -1.3125 C 1.109375 -1.46875 1.160156 -1.609375 1.265625 -1.734375 C 1.378906 -1.867188 1.515625 -1.9375 1.671875 -1.9375 Z M 1.671875 -1.9375 "/></g></g></g></g></g><g transform="matrix(1, 0, 0, 1, 128, 151)"><g clip-path="url(#b7e6d5b4ee)"><g clip-path="url(#9d6488026d)"><g fill="#201f1f" fill-opacity="1"><g transform="translate(0.549587, 19.609869)"><g><path d="M 6.921875 0 C 6.753906 0 6.617188 -0.0546875 6.515625 -0.171875 C 6.421875 -0.285156 6.375 -0.414062 6.375 -0.5625 L 6.375 -11.640625 L 6.625 -11.484375 L 1.65625 -4.921875 L 1.609375 -5.125 L 8.84375 -5.125 C 9 -5.125 9.128906 -5.070312 9.234375 -4.96875 C 9.335938 -4.875 9.390625 -4.753906 9.390625 -4.609375 C 9.390625 -4.453125 9.335938 -4.320312 9.234375 -4.21875 C 9.128906 -4.125 9 -4.078125 8.84375 -4.078125 L 0.828125 -4.078125 C 0.679688 -4.078125 0.550781 -4.132812 0.4375 -4.25 C 0.320312 -4.375 0.265625 -4.507812 0.265625 -4.65625 C 0.265625 -4.789062 0.304688 -4.914062 0.390625 -5.03125 L 6.46875 -12.96875 C 6.53125 -13.0625 6.609375 -13.125 6.703125 -13.15625 C 6.796875 -13.1875 6.875 -13.203125 6.9375 -13.203125 C 7.101562 -13.203125 7.238281 -13.144531 7.34375 -13.03125 C 7.445312 -12.914062 7.5 -12.785156 7.5 -12.640625 L 7.5 -0.5625 C 7.5 -0.414062 7.441406 -0.285156 7.328125 -0.171875 C 7.222656 -0.0546875 7.085938 0 6.921875 0 Z M 6.921875 0 "/></g></g></g></g></g></g><g transform="matrix(1, 0, 0, 1, 254, 151)"><g clip-path="url(#bd66e0e265)"><g fill="#201f1f" fill-opacity="1"><g transform="translate(0.371045, 19.609869)"><g><path d="M 4.40625 0.03125 C 3.894531 0.03125 3.378906 -0.0507812 2.859375 -0.21875 C 2.335938 -0.382812 1.875 -0.640625 1.46875 -0.984375 C 1.394531 -1.046875 1.332031 -1.117188 1.28125 -1.203125 C 1.238281 -1.296875 1.21875 -1.382812 1.21875 -1.46875 C 1.21875 -1.59375 1.269531 -1.710938 1.375 -1.828125 C 1.476562 -1.953125 1.609375 -2.015625 1.765625 -2.015625 C 1.910156 -2.015625 2.050781 -1.957031 2.1875 -1.84375 C 2.507812 -1.59375 2.863281 -1.398438 3.25 -1.265625 C 3.632812 -1.128906 4.019531 -1.0625 4.40625 -1.0625 C 5.15625 -1.0625 5.804688 -1.203125 6.359375 -1.484375 C 6.910156 -1.765625 7.335938 -2.164062 7.640625 -2.6875 C 7.941406 -3.207031 8.09375 -3.8125 8.09375 -4.5 C 8.09375 -5.144531 7.953125 -5.703125 7.671875 -6.171875 C 7.398438 -6.648438 7.007812 -7.019531 6.5 -7.28125 C 5.988281 -7.550781 5.390625 -7.6875 4.703125 -7.6875 C 4.242188 -7.6875 3.828125 -7.617188 3.453125 -7.484375 C 3.085938 -7.347656 2.769531 -7.207031 2.5 -7.0625 C 2.226562 -6.914062 2.007812 -6.84375 1.84375 -6.84375 C 1.695312 -6.84375 1.578125 -6.878906 1.484375 -6.953125 C 1.390625 -7.035156 1.328125 -7.128906 1.296875 -7.234375 C 1.265625 -7.347656 1.257812 -7.46875 1.28125 -7.59375 L 2.09375 -12.640625 C 2.101562 -12.753906 2.160156 -12.859375 2.265625 -12.953125 C 2.378906 -13.046875 2.515625 -13.09375 2.671875 -13.09375 L 8.359375 -13.09375 C 8.503906 -13.09375 8.628906 -13.035156 8.734375 -12.921875 C 8.847656 -12.816406 8.90625 -12.691406 8.90625 -12.546875 C 8.90625 -12.378906 8.847656 -12.238281 8.734375 -12.125 C 8.628906 -12.019531 8.503906 -11.96875 8.359375 -11.96875 L 2.9375 -11.96875 L 3.109375 -12.140625 L 2.34375 -7.671875 L 2 -7.921875 C 2.164062 -8.046875 2.398438 -8.171875 2.703125 -8.296875 C 3.015625 -8.421875 3.359375 -8.53125 3.734375 -8.625 C 4.117188 -8.71875 4.523438 -8.765625 4.953125 -8.765625 C 5.773438 -8.765625 6.503906 -8.582031 7.140625 -8.21875 C 7.785156 -7.863281 8.289062 -7.367188 8.65625 -6.734375 C 9.03125 -6.109375 9.21875 -5.378906 9.21875 -4.546875 C 9.21875 -3.628906 9.019531 -2.828125 8.625 -2.140625 C 8.226562 -1.453125 7.671875 -0.914062 6.953125 -0.53125 C 6.242188 -0.15625 5.394531 0.03125 4.40625 0.03125 Z M 4.40625 0.03125 "/></g></g></g></g></g><g transform="matrix(1, 0, 0, 1, 380, 151)"><g clip-path="url(#1bc4cd30e4)"><g fill="#201f1f" fill-opacity="1"><g transform="translate(0.192475, 19.609869)"><g><path d="M 5.40625 0.1875 C 4.675781 0.1875 4.035156 0.0546875 3.484375 -0.203125 C 2.941406 -0.472656 2.492188 -0.828125 2.140625 -1.265625 C 1.785156 -1.710938 1.519531 -2.21875 1.34375 -2.78125 C 1.175781 -3.351562 1.09375 -3.9375 1.09375 -4.53125 C 1.09375 -5.132812 1.164062 -5.785156 1.3125 -6.484375 C 1.46875 -7.179688 1.703125 -7.882812 2.015625 -8.59375 C 2.328125 -9.3125 2.710938 -9.988281 3.171875 -10.625 C 3.628906 -11.269531 4.164062 -11.847656 4.78125 -12.359375 C 5.394531 -12.867188 6.082031 -13.269531 6.84375 -13.5625 C 6.9375 -13.582031 7.015625 -13.59375 7.078125 -13.59375 C 7.234375 -13.59375 7.367188 -13.546875 7.484375 -13.453125 C 7.609375 -13.367188 7.671875 -13.222656 7.671875 -13.015625 C 7.671875 -12.890625 7.628906 -12.78125 7.546875 -12.6875 C 7.472656 -12.59375 7.363281 -12.519531 7.21875 -12.46875 C 6.695312 -12.238281 6.175781 -11.914062 5.65625 -11.5 C 5.144531 -11.082031 4.664062 -10.601562 4.21875 -10.0625 C 3.78125 -9.53125 3.40625 -8.953125 3.09375 -8.328125 C 2.789062 -7.703125 2.578125 -7.070312 2.453125 -6.4375 L 2.03125 -6.1875 C 2.257812 -6.601562 2.550781 -6.96875 2.90625 -7.28125 C 3.269531 -7.601562 3.679688 -7.863281 4.140625 -8.0625 C 4.609375 -8.257812 5.113281 -8.359375 5.65625 -8.359375 C 6.21875 -8.359375 6.738281 -8.238281 7.21875 -8 C 7.695312 -7.757812 8.109375 -7.429688 8.453125 -7.015625 C 8.804688 -6.609375 9.078125 -6.144531 9.265625 -5.625 C 9.460938 -5.113281 9.5625 -4.582031 9.5625 -4.03125 C 9.5625 -3.289062 9.378906 -2.597656 9.015625 -1.953125 C 8.660156 -1.316406 8.171875 -0.800781 7.546875 -0.40625 C 6.929688 -0.0078125 6.21875 0.1875 5.40625 0.1875 Z M 5.390625 -0.90625 C 5.972656 -0.90625 6.488281 -1.035156 6.9375 -1.296875 C 7.394531 -1.566406 7.75 -1.9375 8 -2.40625 C 8.257812 -2.875 8.390625 -3.414062 8.390625 -4.03125 C 8.390625 -4.601562 8.28125 -5.128906 8.0625 -5.609375 C 7.84375 -6.097656 7.515625 -6.492188 7.078125 -6.796875 C 6.648438 -7.109375 6.113281 -7.265625 5.46875 -7.265625 C 4.800781 -7.265625 4.222656 -7.113281 3.734375 -6.8125 C 3.253906 -6.507812 2.882812 -6.109375 2.625 -5.609375 C 2.375 -5.109375 2.25 -4.566406 2.25 -3.984375 C 2.25 -3.453125 2.375 -2.945312 2.625 -2.46875 C 2.875 -2 3.234375 -1.617188 3.703125 -1.328125 C 4.171875 -1.046875 4.734375 -0.90625 5.390625 -0.90625 Z M 5.390625 -0.90625 "/></g></g></g></g></g><g transform="matrix(1, 0, 0, 1, 505, 151)"><g clip-path="url(#d09fe004c7)"><g fill="#201f1f" fill-opacity="1"><g transform="translate(1.013846, 19.609869)"><g><path d="M 3.359375 0.0625 C 3.203125 0.0625 3.0625 0.0078125 2.9375 -0.09375 C 2.8125 -0.195312 2.75 -0.320312 2.75 -0.46875 C 2.75 -0.5625 2.769531 -0.65625 2.8125 -0.75 L 7.828125 -12.28125 L 8.03125 -12.015625 L 1.65625 -12.015625 C 1.507812 -12.015625 1.378906 -12.066406 1.265625 -12.171875 C 1.160156 -12.273438 1.109375 -12.40625 1.109375 -12.5625 C 1.109375 -12.726562 1.160156 -12.859375 1.265625 -12.953125 C 1.378906 -13.054688 1.507812 -13.109375 1.65625 -13.109375 L 8.578125 -13.109375 C 8.765625 -13.109375 8.898438 -13.054688 8.984375 -12.953125 C 9.078125 -12.859375 9.125 -12.734375 9.125 -12.578125 C 9.125 -12.472656 9.109375 -12.378906 9.078125 -12.296875 L 3.890625 -0.328125 C 3.847656 -0.210938 3.773438 -0.117188 3.671875 -0.046875 C 3.578125 0.0234375 3.472656 0.0625 3.359375 0.0625 Z M 3.359375 0.0625 "/></g></g></g></g></g><g transform="matrix(1, 0, 0, 1, 631, 151)"><g clip-path="url(#5ecc8281b1)"><g fill="#201f1f" fill-opacity="1"><g transform="translate(0.835363, 19.609869)"><g><path d="M 6.859375 -6.640625 L 6.8125 -6.8125 C 7.238281 -6.644531 7.625 -6.398438 7.96875 -6.078125 C 8.320312 -5.753906 8.601562 -5.375 8.8125 -4.9375 C 9.03125 -4.507812 9.140625 -4.039062 9.140625 -3.53125 C 9.140625 -2.851562 8.960938 -2.234375 8.609375 -1.671875 C 8.253906 -1.117188 7.765625 -0.679688 7.140625 -0.359375 C 6.523438 -0.0351562 5.84375 0.125 5.09375 0.125 C 4.320312 0.125 3.628906 -0.0351562 3.015625 -0.359375 C 2.410156 -0.679688 1.925781 -1.117188 1.5625 -1.671875 C 1.207031 -2.234375 1.03125 -2.851562 1.03125 -3.53125 C 1.03125 -4.082031 1.140625 -4.570312 1.359375 -5 C 1.585938 -5.4375 1.878906 -5.804688 2.234375 -6.109375 C 2.585938 -6.410156 2.960938 -6.644531 3.359375 -6.8125 L 3.296875 -6.625 C 2.960938 -6.78125 2.644531 -7 2.34375 -7.28125 C 2.050781 -7.570312 1.8125 -7.914062 1.625 -8.3125 C 1.4375 -8.707031 1.34375 -9.144531 1.34375 -9.625 C 1.34375 -10.300781 1.507812 -10.910156 1.84375 -11.453125 C 2.175781 -11.992188 2.628906 -12.421875 3.203125 -12.734375 C 3.773438 -13.046875 4.40625 -13.203125 5.09375 -13.203125 C 5.78125 -13.203125 6.40625 -13.046875 6.96875 -12.734375 C 7.53125 -12.421875 7.976562 -11.992188 8.3125 -11.453125 C 8.644531 -10.910156 8.8125 -10.300781 8.8125 -9.625 C 8.8125 -9.125 8.710938 -8.679688 8.515625 -8.296875 C 8.328125 -7.910156 8.082031 -7.570312 7.78125 -7.28125 C 7.488281 -7 7.179688 -6.785156 6.859375 -6.640625 Z M 2.515625 -9.625 C 2.515625 -9.113281 2.628906 -8.671875 2.859375 -8.296875 C 3.097656 -7.921875 3.410156 -7.625 3.796875 -7.40625 C 4.191406 -7.195312 4.625 -7.09375 5.09375 -7.09375 C 5.539062 -7.09375 5.957031 -7.195312 6.34375 -7.40625 C 6.738281 -7.625 7.050781 -7.921875 7.28125 -8.296875 C 7.519531 -8.671875 7.640625 -9.113281 7.640625 -9.625 C 7.640625 -10.363281 7.398438 -10.960938 6.921875 -11.421875 C 6.441406 -11.890625 5.832031 -12.125 5.09375 -12.125 C 4.320312 -12.125 3.695312 -11.890625 3.21875 -11.421875 C 2.75 -10.960938 2.515625 -10.363281 2.515625 -9.625 Z M 5.09375 -0.9375 C 5.945312 -0.9375 6.640625 -1.179688 7.171875 -1.671875 C 7.710938 -2.160156 7.984375 -2.78125 7.984375 -3.53125 C 7.984375 -4.03125 7.847656 -4.476562 7.578125 -4.875 C 7.316406 -5.28125 6.960938 -5.597656 6.515625 -5.828125 C 6.078125 -6.054688 5.601562 -6.171875 5.09375 -6.171875 C 4.570312 -6.171875 4.09375 -6.054688 3.65625 -5.828125 C 3.21875 -5.597656 2.863281 -5.28125 2.59375 -4.875 C 2.332031 -4.476562 2.203125 -4.03125 2.203125 -3.53125 C 2.203125 -2.78125 2.46875 -2.160156 3 -1.671875 C 3.53125 -1.179688 4.226562 -0.9375 5.09375 -0.9375 Z M 5.09375 -0.9375 "/></g></g></g></g></g><g transform="matrix(1, 0, 0, 1, 757, 151)"><g clip-path="url(#d58845e4d2)"><g fill="#201f1f" fill-opacity="1"><g transform="translate(0.656763, 19.609869)"><g><path d="M 5.21875 -13.40625 C 5.96875 -13.40625 6.613281 -13.269531 7.15625 -13 C 7.707031 -12.738281 8.15625 -12.382812 8.5 -11.9375 C 8.851562 -11.5 9.117188 -10.992188 9.296875 -10.421875 C 9.472656 -9.859375 9.5625 -9.28125 9.5625 -8.6875 C 9.5625 -8.082031 9.484375 -7.4375 9.328125 -6.75 C 9.171875 -6.070312 8.9375 -5.382812 8.625 -4.6875 C 8.320312 -3.988281 7.941406 -3.320312 7.484375 -2.6875 C 7.023438 -2.0625 6.484375 -1.5 5.859375 -1 C 5.242188 -0.5 4.5625 -0.109375 3.8125 0.171875 C 3.707031 0.191406 3.625 0.203125 3.5625 0.203125 C 3.414062 0.203125 3.28125 0.148438 3.15625 0.046875 C 3.039062 -0.0546875 2.984375 -0.195312 2.984375 -0.375 C 2.984375 -0.5 3.019531 -0.609375 3.09375 -0.703125 C 3.164062 -0.796875 3.28125 -0.867188 3.4375 -0.921875 C 4.144531 -1.222656 4.832031 -1.671875 5.5 -2.265625 C 6.164062 -2.867188 6.738281 -3.5625 7.21875 -4.34375 C 7.707031 -5.132812 8.035156 -5.953125 8.203125 -6.796875 L 8.59375 -7.03125 C 8.382812 -6.632812 8.097656 -6.269531 7.734375 -5.9375 C 7.367188 -5.613281 6.957031 -5.359375 6.5 -5.171875 C 6.039062 -4.992188 5.539062 -4.90625 5 -4.90625 C 4.195312 -4.90625 3.5 -5.101562 2.90625 -5.5 C 2.320312 -5.894531 1.875 -6.414062 1.5625 -7.0625 C 1.25 -7.71875 1.09375 -8.425781 1.09375 -9.1875 C 1.09375 -9.925781 1.269531 -10.613281 1.625 -11.25 C 1.988281 -11.894531 2.476562 -12.414062 3.09375 -12.8125 C 3.71875 -13.207031 4.425781 -13.40625 5.21875 -13.40625 Z M 5.265625 -12.3125 C 4.671875 -12.3125 4.144531 -12.175781 3.6875 -11.90625 C 3.238281 -11.644531 2.882812 -11.28125 2.625 -10.8125 C 2.375 -10.34375 2.25 -9.800781 2.25 -9.1875 C 2.25 -8.632812 2.359375 -8.113281 2.578125 -7.625 C 2.796875 -7.132812 3.125 -6.738281 3.5625 -6.4375 C 4 -6.144531 4.535156 -6 5.171875 -6 C 5.847656 -6 6.425781 -6.144531 6.90625 -6.4375 C 7.382812 -6.738281 7.753906 -7.132812 8.015625 -7.625 C 8.273438 -8.113281 8.40625 -8.648438 8.40625 -9.234375 C 8.40625 -9.773438 8.28125 -10.28125 8.03125 -10.75 C 7.78125 -11.21875 7.421875 -11.59375 6.953125 -11.875 C 6.492188 -12.164062 5.929688 -12.3125 5.265625 -12.3125 Z M 5.265625 -12.3125 "/></g></g></g></g></g><g transform="matrix(1, 0, 0, 1, 2, 301)"><g clip-path="url(#3030f9b33b)"><g fill="#201f1f" fill-opacity="1"><g transform="translate(0.728165, 19.372044)"><g><path d="M 4.265625 0 C 4.085938 0 3.941406 -0.0546875 3.828125 -0.171875 C 3.710938 -0.285156 3.65625 -0.414062 3.65625 -0.5625 L 3.65625 -11.921875 L 3.859375 -11.734375 L 1.359375 -10.046875 C 1.253906 -9.972656 1.144531 -9.9375 1.03125 -9.9375 C 0.882812 -9.9375 0.75 -10 0.625 -10.125 C 0.507812 -10.25 0.453125 -10.390625 0.453125 -10.546875 C 0.453125 -10.742188 0.550781 -10.898438 0.75 -11.015625 L 3.90625 -13.109375 C 3.976562 -13.160156 4.054688 -13.191406 4.140625 -13.203125 C 4.222656 -13.210938 4.296875 -13.210938 4.359375 -13.203125 C 4.523438 -13.191406 4.648438 -13.128906 4.734375 -13.015625 C 4.816406 -12.910156 4.859375 -12.785156 4.859375 -12.640625 L 4.859375 -0.5625 C 4.859375 -0.414062 4.800781 -0.285156 4.6875 -0.171875 C 4.582031 -0.0546875 4.441406 0 4.265625 0 Z M 4.265625 0 "/></g></g></g><g fill="#201f1f" fill-opacity="1"><g transform="translate(7.706455, 19.372044)"><g><path d="M 5.59375 0.1875 C 4.59375 0.1875 3.753906 -0.113281 3.078125 -0.71875 C 2.398438 -1.320312 1.890625 -2.132812 1.546875 -3.15625 C 1.203125 -4.1875 1.03125 -5.332031 1.03125 -6.59375 C 1.03125 -7.882812 1.203125 -9.039062 1.546875 -10.0625 C 1.890625 -11.082031 2.398438 -11.890625 3.078125 -12.484375 C 3.753906 -13.085938 4.59375 -13.390625 5.59375 -13.390625 C 6.625 -13.390625 7.476562 -13.085938 8.15625 -12.484375 C 8.832031 -11.890625 9.335938 -11.082031 9.671875 -10.0625 C 10.015625 -9.039062 10.1875 -7.882812 10.1875 -6.59375 C 10.1875 -5.332031 10.015625 -4.1875 9.671875 -3.15625 C 9.335938 -2.132812 8.832031 -1.320312 8.15625 -0.71875 C 7.476562 -0.113281 6.625 0.1875 5.59375 0.1875 Z M 5.59375 -0.984375 C 6.34375 -0.984375 6.960938 -1.210938 7.453125 -1.671875 C 7.953125 -2.140625 8.332031 -2.796875 8.59375 -3.640625 C 8.851562 -4.492188 8.984375 -5.476562 8.984375 -6.59375 C 8.984375 -7.726562 8.851562 -8.71875 8.59375 -9.5625 C 8.332031 -10.414062 7.953125 -11.070312 7.453125 -11.53125 C 6.960938 -12 6.34375 -12.234375 5.59375 -12.234375 C 4.863281 -12.234375 4.25 -12 3.75 -11.53125 C 3.257812 -11.070312 2.882812 -10.414062 2.625 -9.5625 C 2.375 -8.71875 2.25 -7.726562 2.25 -6.59375 C 2.25 -5.476562 2.375 -4.492188 2.625 -3.640625 C 2.882812 -2.796875 3.257812 -2.140625 3.75 -1.671875 C 4.25 -1.210938 4.863281 -0.984375 5.59375 -0.984375 Z M 5.59375 -0.984375 "/></g></g></g></g></g><g transform="matrix(1, 0, 0, 1, 128, 301)"><g clip-path="url(#97f23d2631)"><g fill="#201f1f" fill-opacity="1"><g transform="translate(0.549587, 19.372044)"><g><path d="M 4.265625 0 C 4.085938 0 3.941406 -0.0546875 3.828125 -0.171875 C 3.710938 -0.285156 3.65625 -0.414062 3.65625 -0.5625 L 3.65625 -11.921875 L 3.859375 -11.734375 L 1.359375 -10.046875 C 1.253906 -9.972656 1.144531 -9.9375 1.03125 -9.9375 C 0.882812 -9.9375 0.75 -10 0.625 -10.125 C 0.507812 -10.25 0.453125 -10.390625 0.453125 -10.546875 C 0.453125 -10.742188 0.550781 -10.898438 0.75 -11.015625 L 3.90625 -13.109375 C 3.976562 -13.160156 4.054688 -13.191406 4.140625 -13.203125 C 4.222656 -13.210938 4.296875 -13.210938 4.359375 -13.203125 C 4.523438 -13.191406 4.648438 -13.128906 4.734375 -13.015625 C 4.816406 -12.910156 4.859375 -12.785156 4.859375 -12.640625 L 4.859375 -0.5625 C 4.859375 -0.414062 4.800781 -0.285156 4.6875 -0.171875 C 4.582031 -0.0546875 4.441406 0 4.265625 0 Z M 4.265625 0 "/></g></g></g><g fill="#201f1f" fill-opacity="1"><g transform="translate(7.527877, 19.372044)"><g><path d="M 4.265625 0 C 4.085938 0 3.941406 -0.0546875 3.828125 -0.171875 C 3.710938 -0.285156 3.65625 -0.414062 3.65625 -0.5625 L 3.65625 -11.921875 L 3.859375 -11.734375 L 1.359375 -10.046875 C 1.253906 -9.972656 1.144531 -9.9375 1.03125 -9.9375 C 0.882812 -9.9375 0.75 -10 0.625 -10.125 C 0.507812 -10.25 0.453125 -10.390625 0.453125 -10.546875 C 0.453125 -10.742188 0.550781 -10.898438 0.75 -11.015625 L 3.90625 -13.109375 C 3.976562 -13.160156 4.054688 -13.191406 4.140625 -13.203125 C 4.222656 -13.210938 4.296875 -13.210938 4.359375 -13.203125 C 4.523438 -13.191406 4.648438 -13.128906 4.734375 -13.015625 C 4.816406 -12.910156 4.859375 -12.785156 4.859375 -12.640625 L 4.859375 -0.5625 C 4.859375 -0.414062 4.800781 -0.285156 4.6875 -0.171875 C 4.582031 -0.0546875 4.441406 0 4.265625 0 Z M 4.265625 0 "/></g></g></g></g></g><g transform="matrix(1, 0, 0, 1, 254, 301)"><g clip-path="url(#799fc1cfb8)"><g clip-path="url(#e2b5f96ef6)"><g fill="#201f1f" fill-opacity="1"><g transform="translate(0.371045, 19.372044)"><g><path d="M 4.265625 0 C 4.085938 0 3.941406 -0.0546875 3.828125 -0.171875 C 3.710938 -0.285156 3.65625 -0.414062 3.65625 -0.5625 L 3.65625 -11.921875 L 3.859375 -11.734375 L 1.359375 -10.046875 C 1.253906 -9.972656 1.144531 -9.9375 1.03125 -9.9375 C 0.882812 -9.9375 0.75 -10 0.625 -10.125 C 0.507812 -10.25 0.453125 -10.390625 0.453125 -10.546875 C 0.453125 -10.742188 0.550781 -10.898438 0.75 -11.015625 L 3.90625 -13.109375 C 3.976562 -13.160156 4.054688 -13.191406 4.140625 -13.203125 C 4.222656 -13.210938 4.296875 -13.210938 4.359375 -13.203125 C 4.523438 -13.191406 4.648438 -13.128906 4.734375 -13.015625 C 4.816406 -12.910156 4.859375 -12.785156 4.859375 -12.640625 L 4.859375 -0.5625 C 4.859375 -0.414062 4.800781 -0.285156 4.6875 -0.171875 C 4.582031 -0.0546875 4.441406 0 4.265625 0 Z M 4.265625 0 "/></g></g></g></g><g fill="#201f1f" fill-opacity="1"><g transform="translate(7.349335, 19.372044)"><g><path d="M 8.9375 -1.09375 C 9.09375 -1.09375 9.222656 -1.035156 9.328125 -0.921875 C 9.429688 -0.816406 9.484375 -0.691406 9.484375 -0.546875 C 9.484375 -0.378906 9.429688 -0.242188 9.328125 -0.140625 C 9.222656 -0.046875 9.09375 0 8.9375 0 L 1.859375 0 C 1.703125 0 1.5625 -0.046875 1.4375 -0.140625 C 1.320312 -0.234375 1.265625 -0.375 1.265625 -0.5625 C 1.265625 -0.695312 1.316406 -0.832031 1.421875 -0.96875 L 5.765625 -5.765625 C 6.460938 -6.523438 6.984375 -7.222656 7.328125 -7.859375 C 7.671875 -8.492188 7.84375 -9.0625 7.84375 -9.5625 C 7.84375 -10.394531 7.59375 -11.0625 7.09375 -11.5625 C 6.59375 -12.0625 5.910156 -12.3125 5.046875 -12.3125 C 4.660156 -12.3125 4.273438 -12.226562 3.890625 -12.0625 C 3.503906 -11.90625 3.164062 -11.691406 2.875 -11.421875 C 2.582031 -11.160156 2.351562 -10.863281 2.1875 -10.53125 C 2.113281 -10.394531 2.035156 -10.300781 1.953125 -10.25 C 1.867188 -10.207031 1.773438 -10.1875 1.671875 -10.1875 C 1.523438 -10.1875 1.394531 -10.234375 1.28125 -10.328125 C 1.164062 -10.421875 1.109375 -10.535156 1.109375 -10.671875 C 1.109375 -10.765625 1.128906 -10.851562 1.171875 -10.9375 C 1.222656 -11.03125 1.289062 -11.128906 1.375 -11.234375 C 1.601562 -11.628906 1.914062 -11.988281 2.3125 -12.3125 C 2.71875 -12.644531 3.164062 -12.90625 3.65625 -13.09375 C 4.15625 -13.289062 4.644531 -13.390625 5.125 -13.390625 C 5.9375 -13.390625 6.632812 -13.234375 7.21875 -12.921875 C 7.800781 -12.617188 8.25 -12.1875 8.5625 -11.625 C 8.882812 -11.0625 9.046875 -10.398438 9.046875 -9.640625 C 9.046875 -8.984375 8.84375 -8.269531 8.4375 -7.5 C 8.03125 -6.726562 7.425781 -5.894531 6.625 -5 L 2.9375 -0.875 L 2.75 -1.09375 Z M 8.9375 -1.09375 "/></g></g></g></g></g><g transform="matrix(1, 0, 0, 1, 380, 301)"><g clip-path="url(#a492e4f030)"><g clip-path="url(#59b2dd5a8c)"><g fill="#201f1f" fill-opacity="1"><g transform="translate(0.192475, 19.372044)"><g><path d="M 4.265625 0 C 4.085938 0 3.941406 -0.0546875 3.828125 -0.171875 C 3.710938 -0.285156 3.65625 -0.414062 3.65625 -0.5625 L 3.65625 -11.921875 L 3.859375 -11.734375 L 1.359375 -10.046875 C 1.253906 -9.972656 1.144531 -9.9375 1.03125 -9.9375 C 0.882812 -9.9375 0.75 -10 0.625 -10.125 C 0.507812 -10.25 0.453125 -10.390625 0.453125 -10.546875 C 0.453125 -10.742188 0.550781 -10.898438 0.75 -11.015625 L 3.90625 -13.109375 C 3.976562 -13.160156 4.054688 -13.191406 4.140625 -13.203125 C 4.222656 -13.210938 4.296875 -13.210938 4.359375 -13.203125 C 4.523438 -13.191406 4.648438 -13.128906 4.734375 -13.015625 C 4.816406 -12.910156 4.859375 -12.785156 4.859375 -12.640625 L 4.859375 -0.5625 C 4.859375 -0.414062 4.800781 -0.285156 4.6875 -0.171875 C 4.582031 -0.0546875 4.441406 0 4.265625 0 Z M 4.265625 0 "/></g></g></g></g><g fill="#201f1f" fill-opacity="1"><g transform="translate(7.170765, 19.372044)"><g><path d="M 1.671875 -1.9375 C 1.734375 -1.9375 1.800781 -1.921875 1.875 -1.890625 C 1.945312 -1.867188 2.03125 -1.816406 2.125 -1.734375 C 2.394531 -1.453125 2.710938 -1.238281 3.078125 -1.09375 C 3.441406 -0.957031 3.851562 -0.890625 4.3125 -0.890625 C 4.9375 -0.890625 5.5 -1.023438 6 -1.296875 C 6.507812 -1.578125 6.914062 -1.960938 7.21875 -2.453125 C 7.519531 -2.953125 7.671875 -3.523438 7.671875 -4.171875 C 7.671875 -4.898438 7.507812 -5.484375 7.1875 -5.921875 C 6.875 -6.367188 6.46875 -6.703125 5.96875 -6.921875 C 5.46875 -7.148438 4.960938 -7.265625 4.453125 -7.265625 C 4.316406 -7.265625 4.179688 -7.253906 4.046875 -7.234375 C 3.910156 -7.210938 3.785156 -7.1875 3.671875 -7.15625 C 3.566406 -7.132812 3.476562 -7.125 3.40625 -7.125 C 3.25 -7.125 3.125 -7.175781 3.03125 -7.28125 C 2.945312 -7.394531 2.90625 -7.53125 2.90625 -7.6875 C 2.90625 -7.78125 2.921875 -7.859375 2.953125 -7.921875 C 2.992188 -7.992188 3.046875 -8.078125 3.109375 -8.171875 L 6.9375 -12.328125 L 7.171875 -12.03125 L 1.453125 -12.03125 C 1.296875 -12.03125 1.164062 -12.082031 1.0625 -12.1875 C 0.957031 -12.300781 0.90625 -12.429688 0.90625 -12.578125 C 0.90625 -12.734375 0.957031 -12.859375 1.0625 -12.953125 C 1.164062 -13.054688 1.296875 -13.109375 1.453125 -13.109375 L 7.78125 -13.109375 C 8 -13.109375 8.148438 -13.039062 8.234375 -12.90625 C 8.328125 -12.78125 8.375 -12.648438 8.375 -12.515625 C 8.375 -12.441406 8.351562 -12.367188 8.3125 -12.296875 C 8.28125 -12.234375 8.234375 -12.164062 8.171875 -12.09375 L 4.34375 -7.921875 L 3.921875 -8.171875 C 3.960938 -8.203125 4.09375 -8.238281 4.3125 -8.28125 C 4.53125 -8.332031 4.703125 -8.359375 4.828125 -8.359375 C 5.515625 -8.359375 6.160156 -8.191406 6.765625 -7.859375 C 7.378906 -7.535156 7.878906 -7.066406 8.265625 -6.453125 C 8.648438 -5.847656 8.84375 -5.097656 8.84375 -4.203125 C 8.84375 -3.328125 8.632812 -2.554688 8.21875 -1.890625 C 7.800781 -1.234375 7.238281 -0.722656 6.53125 -0.359375 C 5.832031 0.00390625 5.054688 0.1875 4.203125 0.1875 C 3.691406 0.1875 3.179688 0.0976562 2.671875 -0.078125 C 2.171875 -0.253906 1.734375 -0.519531 1.359375 -0.875 C 1.265625 -0.945312 1.195312 -1.019531 1.15625 -1.09375 C 1.125 -1.164062 1.109375 -1.238281 1.109375 -1.3125 C 1.109375 -1.46875 1.160156 -1.609375 1.265625 -1.734375 C 1.378906 -1.867188 1.515625 -1.9375 1.671875 -1.9375 Z M 1.671875 -1.9375 "/></g></g></g></g></g><g transform="matrix(1, 0, 0, 1, 505, 301)"><g clip-path="url(#fa83cbf7e9)"><g fill="#201f1f" fill-opacity="1"><g transform="translate(1.013846, 19.372044)"><g><path d="M 4.265625 0 C 4.085938 0 3.941406 -0.0546875 3.828125 -0.171875 C 3.710938 -0.285156 3.65625 -0.414062 3.65625 -0.5625 L 3.65625 -11.921875 L 3.859375 -11.734375 L 1.359375 -10.046875 C 1.253906 -9.972656 1.144531 -9.9375 1.03125 -9.9375 C 0.882812 -9.9375 0.75 -10 0.625 -10.125 C 0.507812 -10.25 0.453125 -10.390625 0.453125 -10.546875 C 0.453125 -10.742188 0.550781 -10.898438 0.75 -11.015625 L 3.90625 -13.109375 C 3.976562 -13.160156 4.054688 -13.191406 4.140625 -13.203125 C 4.222656 -13.210938 4.296875 -13.210938 4.359375 -13.203125 C 4.523438 -13.191406 4.648438 -13.128906 4.734375 -13.015625 C 4.816406 -12.910156 4.859375 -12.785156 4.859375 -12.640625 L 4.859375 -0.5625 C 4.859375 -0.414062 4.800781 -0.285156 4.6875 -0.171875 C 4.582031 -0.0546875 4.441406 0 4.265625 0 Z M 4.265625 0 "/></g></g></g><g fill="#201f1f" fill-opacity="1"><g transform="translate(7.992135, 19.372044)"><g><path d="M 6.921875 0 C 6.753906 0 6.617188 -0.0546875 6.515625 -0.171875 C 6.421875 -0.285156 6.375 -0.414062 6.375 -0.5625 L 6.375 -11.640625 L 6.625 -11.484375 L 1.65625 -4.921875 L 1.609375 -5.125 L 8.84375 -5.125 C 9 -5.125 9.128906 -5.070312 9.234375 -4.96875 C 9.335938 -4.875 9.390625 -4.753906 9.390625 -4.609375 C 9.390625 -4.453125 9.335938 -4.320312 9.234375 -4.21875 C 9.128906 -4.125 9 -4.078125 8.84375 -4.078125 L 0.828125 -4.078125 C 0.679688 -4.078125 0.550781 -4.132812 0.4375 -4.25 C 0.320312 -4.375 0.265625 -4.507812 0.265625 -4.65625 C 0.265625 -4.789062 0.304688 -4.914062 0.390625 -5.03125 L 6.46875 -12.96875 C 6.53125 -13.0625 6.609375 -13.125 6.703125 -13.15625 C 6.796875 -13.1875 6.875 -13.203125 6.9375 -13.203125 C 7.101562 -13.203125 7.238281 -13.144531 7.34375 -13.03125 C 7.445312 -12.914062 7.5 -12.785156 7.5 -12.640625 L 7.5 -0.5625 C 7.5 -0.414062 7.441406 -0.285156 7.328125 -0.171875 C 7.222656 -0.0546875 7.085938 0 6.921875 0 Z M 6.921875 0 "/></g></g></g></g></g><g transform="matrix(1, 0, 0, 1, 631, 301)"><g clip-path="url(#3bff273f34)"><g fill="#201f1f" fill-opacity="1"><g transform="translate(0.835363, 19.372044)"><g><path d="M 4.265625 0 C 4.085938 0 3.941406 -0.0546875 3.828125 -0.171875 C 3.710938 -0.285156 3.65625 -0.414062 3.65625 -0.5625 L 3.65625 -11.921875 L 3.859375 -11.734375 L 1.359375 -10.046875 C 1.253906 -9.972656 1.144531 -9.9375 1.03125 -9.9375 C 0.882812 -9.9375 0.75 -10 0.625 -10.125 C 0.507812 -10.25 0.453125 -10.390625 0.453125 -10.546875 C 0.453125 -10.742188 0.550781 -10.898438 0.75 -11.015625 L 3.90625 -13.109375 C 3.976562 -13.160156 4.054688 -13.191406 4.140625 -13.203125 C 4.222656 -13.210938 4.296875 -13.210938 4.359375 -13.203125 C 4.523438 -13.191406 4.648438 -13.128906 4.734375 -13.015625 C 4.816406 -12.910156 4.859375 -12.785156 4.859375 -12.640625 L 4.859375 -0.5625 C 4.859375 -0.414062 4.800781 -0.285156 4.6875 -0.171875 C 4.582031 -0.0546875 4.441406 0 4.265625 0 Z M 4.265625 0 "/></g></g></g><g fill="#201f1f" fill-opacity="1"><g transform="translate(7.813653, 19.372044)"><g><path d="M 4.40625 0.03125 C 3.894531 0.03125 3.378906 -0.0507812 2.859375 -0.21875 C 2.335938 -0.382812 1.875 -0.640625 1.46875 -0.984375 C 1.394531 -1.046875 1.332031 -1.117188 1.28125 -1.203125 C 1.238281 -1.296875 1.21875 -1.382812 1.21875 -1.46875 C 1.21875 -1.59375 1.269531 -1.710938 1.375 -1.828125 C 1.476562 -1.953125 1.609375 -2.015625 1.765625 -2.015625 C 1.910156 -2.015625 2.050781 -1.957031 2.1875 -1.84375 C 2.507812 -1.59375 2.863281 -1.398438 3.25 -1.265625 C 3.632812 -1.128906 4.019531 -1.0625 4.40625 -1.0625 C 5.15625 -1.0625 5.804688 -1.203125 6.359375 -1.484375 C 6.910156 -1.765625 7.335938 -2.164062 7.640625 -2.6875 C 7.941406 -3.207031 8.09375 -3.8125 8.09375 -4.5 C 8.09375 -5.144531 7.953125 -5.703125 7.671875 -6.171875 C 7.398438 -6.648438 7.007812 -7.019531 6.5 -7.28125 C 5.988281 -7.550781 5.390625 -7.6875 4.703125 -7.6875 C 4.242188 -7.6875 3.828125 -7.617188 3.453125 -7.484375 C 3.085938 -7.347656 2.769531 -7.207031 2.5 -7.0625 C 2.226562 -6.914062 2.007812 -6.84375 1.84375 -6.84375 C 1.695312 -6.84375 1.578125 -6.878906 1.484375 -6.953125 C 1.390625 -7.035156 1.328125 -7.128906 1.296875 -7.234375 C 1.265625 -7.347656 1.257812 -7.46875 1.28125 -7.59375 L 2.09375 -12.640625 C 2.101562 -12.753906 2.160156 -12.859375 2.265625 -12.953125 C 2.378906 -13.046875 2.515625 -13.09375 2.671875 -13.09375 L 8.359375 -13.09375 C 8.503906 -13.09375 8.628906 -13.035156 8.734375 -12.921875 C 8.847656 -12.816406 8.90625 -12.691406 8.90625 -12.546875 C 8.90625 -12.378906 8.847656 -12.238281 8.734375 -12.125 C 8.628906 -12.019531 8.503906 -11.96875 8.359375 -11.96875 L 2.9375 -11.96875 L 3.109375 -12.140625 L 2.34375 -7.671875 L 2 -7.921875 C 2.164062 -8.046875 2.398438 -8.171875 2.703125 -8.296875 C 3.015625 -8.421875 3.359375 -8.53125 3.734375 -8.625 C 4.117188 -8.71875 4.523438 -8.765625 4.953125 -8.765625 C 5.773438 -8.765625 6.503906 -8.582031 7.140625 -8.21875 C 7.785156 -7.863281 8.289062 -7.367188 8.65625 -6.734375 C 9.03125 -6.109375 9.21875 -5.378906 9.21875 -4.546875 C 9.21875 -3.628906 9.019531 -2.828125 8.625 -2.140625 C 8.226562 -1.453125 7.671875 -0.914062 6.953125 -0.53125 C 6.242188 -0.15625 5.394531 0.03125 4.40625 0.03125 Z M 4.40625 0.03125 "/></g></g></g></g></g><g transform="matrix(1, 0, 0, 1, 757, 301)"><g clip-path="url(#8c51027265)"><g fill="#201f1f" fill-opacity="1"><g transform="translate(0.656763, 19.372044)"><g><path d="M 4.265625 0 C 4.085938 0 3.941406 -0.0546875 3.828125 -0.171875 C 3.710938 -0.285156 3.65625 -0.414062 3.65625 -0.5625 L 3.65625 -11.921875 L 3.859375 -11.734375 L 1.359375 -10.046875 C 1.253906 -9.972656 1.144531 -9.9375 1.03125 -9.9375 C 0.882812 -9.9375 0.75 -10 0.625 -10.125 C 0.507812 -10.25 0.453125 -10.390625 0.453125 -10.546875 C 0.453125 -10.742188 0.550781 -10.898438 0.75 -11.015625 L 3.90625 -13.109375 C 3.976562 -13.160156 4.054688 -13.191406 4.140625 -13.203125 C 4.222656 -13.210938 4.296875 -13.210938 4.359375 -13.203125 C 4.523438 -13.191406 4.648438 -13.128906 4.734375 -13.015625 C 4.816406 -12.910156 4.859375 -12.785156 4.859375 -12.640625 L 4.859375 -0.5625 C 4.859375 -0.414062 4.800781 -0.285156 4.6875 -0.171875 C 4.582031 -0.0546875 4.441406 0 4.265625 0 Z M 4.265625 0 "/></g></g></g><g clip-path="url(#a10aee0c6b)"><g fill="#201f1f" fill-opacity="1"><g transform="translate(7.635053, 19.372044)"><g><path d="M 5.40625 0.1875 C 4.675781 0.1875 4.035156 0.0546875 3.484375 -0.203125 C 2.941406 -0.472656 2.492188 -0.828125 2.140625 -1.265625 C 1.785156 -1.710938 1.519531 -2.21875 1.34375 -2.78125 C 1.175781 -3.351562 1.09375 -3.9375 1.09375 -4.53125 C 1.09375 -5.132812 1.164062 -5.785156 1.3125 -6.484375 C 1.46875 -7.179688 1.703125 -7.882812 2.015625 -8.59375 C 2.328125 -9.3125 2.710938 -9.988281 3.171875 -10.625 C 3.628906 -11.269531 4.164062 -11.847656 4.78125 -12.359375 C 5.394531 -12.867188 6.082031 -13.269531 6.84375 -13.5625 C 6.9375 -13.582031 7.015625 -13.59375 7.078125 -13.59375 C 7.234375 -13.59375 7.367188 -13.546875 7.484375 -13.453125 C 7.609375 -13.367188 7.671875 -13.222656 7.671875 -13.015625 C 7.671875 -12.890625 7.628906 -12.78125 7.546875 -12.6875 C 7.472656 -12.59375 7.363281 -12.519531 7.21875 -12.46875 C 6.695312 -12.238281 6.175781 -11.914062 5.65625 -11.5 C 5.144531 -11.082031 4.664062 -10.601562 4.21875 -10.0625 C 3.78125 -9.53125 3.40625 -8.953125 3.09375 -8.328125 C 2.789062 -7.703125 2.578125 -7.070312 2.453125 -6.4375 L 2.03125 -6.1875 C 2.257812 -6.601562 2.550781 -6.96875 2.90625 -7.28125 C 3.269531 -7.601562 3.679688 -7.863281 4.140625 -8.0625 C 4.609375 -8.257812 5.113281 -8.359375 5.65625 -8.359375 C 6.21875 -8.359375 6.738281 -8.238281 7.21875 -8 C 7.695312 -7.757812 8.109375 -7.429688 8.453125 -7.015625 C 8.804688 -6.609375 9.078125 -6.144531 9.265625 -5.625 C 9.460938 -5.113281 9.5625 -4.582031 9.5625 -4.03125 C 9.5625 -3.289062 9.378906 -2.597656 9.015625 -1.953125 C 8.660156 -1.316406 8.171875 -0.800781 7.546875 -0.40625 C 6.929688 -0.0078125 6.21875 0.1875 5.40625 0.1875 Z M 5.390625 -0.90625 C 5.972656 -0.90625 6.488281 -1.035156 6.9375 -1.296875 C 7.394531 -1.566406 7.75 -1.9375 8 -2.40625 C 8.257812 -2.875 8.390625 -3.414062 8.390625 -4.03125 C 8.390625 -4.601562 8.28125 -5.128906 8.0625 -5.609375 C 7.84375 -6.097656 7.515625 -6.492188 7.078125 -6.796875 C 6.648438 -7.109375 6.113281 -7.265625 5.46875 -7.265625 C 4.800781 -7.265625 4.222656 -7.113281 3.734375 -6.8125 C 3.253906 -6.507812 2.882812 -6.109375 2.625 -5.609375 C 2.375 -5.109375 2.25 -4.566406 2.25 -3.984375 C 2.25 -3.453125 2.375 -2.945312 2.625 -2.46875 C 2.875 -2 3.234375 -1.617188 3.703125 -1.328125 C 4.171875 -1.046875 4.734375 -0.90625 5.390625 -0.90625 Z M 5.390625 -0.90625 "/></g></g></g></g></g></g><g clip-path="url(#0bbeee241e)"><g transform="matrix(1, 0, 0, 1, 2, 450)"><g clip-path="url(#7228742f0d)"><g fill="#201f1f" fill-opacity="1"><g transform="translate(0.728165, 20.134234)"><g><path d="M 4.265625 0 C 4.085938 0 3.941406 -0.0546875 3.828125 -0.171875 C 3.710938 -0.285156 3.65625 -0.414062 3.65625 -0.5625 L 3.65625 -11.921875 L 3.859375 -11.734375 L 1.359375 -10.046875 C 1.253906 -9.972656 1.144531 -9.9375 1.03125 -9.9375 C 0.882812 -9.9375 0.75 -10 0.625 -10.125 C 0.507812 -10.25 0.453125 -10.390625 0.453125 -10.546875 C 0.453125 -10.742188 0.550781 -10.898438 0.75 -11.015625 L 3.90625 -13.109375 C 3.976562 -13.160156 4.054688 -13.191406 4.140625 -13.203125 C 4.222656 -13.210938 4.296875 -13.210938 4.359375 -13.203125 C 4.523438 -13.191406 4.648438 -13.128906 4.734375 -13.015625 C 4.816406 -12.910156 4.859375 -12.785156 4.859375 -12.640625 L 4.859375 -0.5625 C 4.859375 -0.414062 4.800781 -0.285156 4.6875 -0.171875 C 4.582031 -0.0546875 4.441406 0 4.265625 0 Z M 4.265625 0 "/></g></g></g><g fill="#201f1f" fill-opacity="1"><g transform="translate(7.706455, 20.134234)"><g><path d="M 3.359375 0.0625 C 3.203125 0.0625 3.0625 0.0078125 2.9375 -0.09375 C 2.8125 -0.195312 2.75 -0.320312 2.75 -0.46875 C 2.75 -0.5625 2.769531 -0.65625 2.8125 -0.75 L 7.828125 -12.28125 L 8.03125 -12.015625 L 1.65625 -12.015625 C 1.507812 -12.015625 1.378906 -12.066406 1.265625 -12.171875 C 1.160156 -12.273438 1.109375 -12.40625 1.109375 -12.5625 C 1.109375 -12.726562 1.160156 -12.859375 1.265625 -12.953125 C 1.378906 -13.054688 1.507812 -13.109375 1.65625 -13.109375 L 8.578125 -13.109375 C 8.765625 -13.109375 8.898438 -13.054688 8.984375 -12.953125 C 9.078125 -12.859375 9.125 -12.734375 9.125 -12.578125 C 9.125 -12.472656 9.109375 -12.378906 9.078125 -12.296875 L 3.890625 -0.328125 C 3.847656 -0.210938 3.773438 -0.117188 3.671875 -0.046875 C 3.578125 0.0234375 3.472656 0.0625 3.359375 0.0625 Z M 3.359375 0.0625 "/></g></g></g></g></g></g><g clip-path="url(#b90e3e5a67)"><g transform="matrix(1, 0, 0, 1, 128, 450)"><g clip-path="url(#c6d7e56d0c)"><g fill="#201f1f" fill-opacity="1"><g transform="translate(0.549587, 20.134234)"><g><path d="M 4.265625 0 C 4.085938 0 3.941406 -0.0546875 3.828125 -0.171875 C 3.710938 -0.285156 3.65625 -0.414062 3.65625 -0.5625 L 3.65625 -11.921875 L 3.859375 -11.734375 L 1.359375 -10.046875 C 1.253906 -9.972656 1.144531 -9.9375 1.03125 -9.9375 C 0.882812 -9.9375 0.75 -10 0.625 -10.125 C 0.507812 -10.25 0.453125 -10.390625 0.453125 -10.546875 C 0.453125 -10.742188 0.550781 -10.898438 0.75 -11.015625 L 3.90625 -13.109375 C 3.976562 -13.160156 4.054688 -13.191406 4.140625 -13.203125 C 4.222656 -13.210938 4.296875 -13.210938 4.359375 -13.203125 C 4.523438 -13.191406 4.648438 -13.128906 4.734375 -13.015625 C 4.816406 -12.910156 4.859375 -12.785156 4.859375 -12.640625 L 4.859375 -0.5625 C 4.859375 -0.414062 4.800781 -0.285156 4.6875 -0.171875 C 4.582031 -0.0546875 4.441406 0 4.265625 0 Z M 4.265625 0 "/></g></g></g><g fill="#201f1f" fill-opacity="1"><g transform="translate(7.527877, 20.134234)"><g><path d="M 6.859375 -6.640625 L 6.8125 -6.8125 C 7.238281 -6.644531 7.625 -6.398438 7.96875 -6.078125 C 8.320312 -5.753906 8.601562 -5.375 8.8125 -4.9375 C 9.03125 -4.507812 9.140625 -4.039062 9.140625 -3.53125 C 9.140625 -2.851562 8.960938 -2.234375 8.609375 -1.671875 C 8.253906 -1.117188 7.765625 -0.679688 7.140625 -0.359375 C 6.523438 -0.0351562 5.84375 0.125 5.09375 0.125 C 4.320312 0.125 3.628906 -0.0351562 3.015625 -0.359375 C 2.410156 -0.679688 1.925781 -1.117188 1.5625 -1.671875 C 1.207031 -2.234375 1.03125 -2.851562 1.03125 -3.53125 C 1.03125 -4.082031 1.140625 -4.570312 1.359375 -5 C 1.585938 -5.4375 1.878906 -5.804688 2.234375 -6.109375 C 2.585938 -6.410156 2.960938 -6.644531 3.359375 -6.8125 L 3.296875 -6.625 C 2.960938 -6.78125 2.644531 -7 2.34375 -7.28125 C 2.050781 -7.570312 1.8125 -7.914062 1.625 -8.3125 C 1.4375 -8.707031 1.34375 -9.144531 1.34375 -9.625 C 1.34375 -10.300781 1.507812 -10.910156 1.84375 -11.453125 C 2.175781 -11.992188 2.628906 -12.421875 3.203125 -12.734375 C 3.773438 -13.046875 4.40625 -13.203125 5.09375 -13.203125 C 5.78125 -13.203125 6.40625 -13.046875 6.96875 -12.734375 C 7.53125 -12.421875 7.976562 -11.992188 8.3125 -11.453125 C 8.644531 -10.910156 8.8125 -10.300781 8.8125 -9.625 C 8.8125 -9.125 8.710938 -8.679688 8.515625 -8.296875 C 8.328125 -7.910156 8.082031 -7.570312 7.78125 -7.28125 C 7.488281 -7 7.179688 -6.785156 6.859375 -6.640625 Z M 2.515625 -9.625 C 2.515625 -9.113281 2.628906 -8.671875 2.859375 -8.296875 C 3.097656 -7.921875 3.410156 -7.625 3.796875 -7.40625 C 4.191406 -7.195312 4.625 -7.09375 5.09375 -7.09375 C 5.539062 -7.09375 5.957031 -7.195312 6.34375 -7.40625 C 6.738281 -7.625 7.050781 -7.921875 7.28125 -8.296875 C 7.519531 -8.671875 7.640625 -9.113281 7.640625 -9.625 C 7.640625 -10.363281 7.398438 -10.960938 6.921875 -11.421875 C 6.441406 -11.890625 5.832031 -12.125 5.09375 -12.125 C 4.320312 -12.125 3.695312 -11.890625 3.21875 -11.421875 C 2.75 -10.960938 2.515625 -10.363281 2.515625 -9.625 Z M 5.09375 -0.9375 C 5.945312 -0.9375 6.640625 -1.179688 7.171875 -1.671875 C 7.710938 -2.160156 7.984375 -2.78125 7.984375 -3.53125 C 7.984375 -4.03125 7.847656 -4.476562 7.578125 -4.875 C 7.316406 -5.28125 6.960938 -5.597656 6.515625 -5.828125 C 6.078125 -6.054688 5.601562 -6.171875 5.09375 -6.171875 C 4.570312 -6.171875 4.09375 -6.054688 3.65625 -5.828125 C 3.21875 -5.597656 2.863281 -5.28125 2.59375 -4.875 C 2.332031 -4.476562 2.203125 -4.03125 2.203125 -3.53125 C 2.203125 -2.78125 2.46875 -2.160156 3 -1.671875 C 3.53125 -1.179688 4.226562 -0.9375 5.09375 -0.9375 Z M 5.09375 -0.9375 "/></g></g></g></g></g></g><g clip-path="url(#e390201ce1)"><g transform="matrix(1, 0, 0, 1, 254, 450)"><g clip-path="url(#3888d6e7fa)"><g clip-path="url(#835bee4435)"><g fill="#201f1f" fill-opacity="1"><g transform="translate(0.371045, 20.134234)"><g><path d="M 4.265625 0 C 4.085938 0 3.941406 -0.0546875 3.828125 -0.171875 C 3.710938 -0.285156 3.65625 -0.414062 3.65625 -0.5625 L 3.65625 -11.921875 L 3.859375 -11.734375 L 1.359375 -10.046875 C 1.253906 -9.972656 1.144531 -9.9375 1.03125 -9.9375 C 0.882812 -9.9375 0.75 -10 0.625 -10.125 C 0.507812 -10.25 0.453125 -10.390625 0.453125 -10.546875 C 0.453125 -10.742188 0.550781 -10.898438 0.75 -11.015625 L 3.90625 -13.109375 C 3.976562 -13.160156 4.054688 -13.191406 4.140625 -13.203125 C 4.222656 -13.210938 4.296875 -13.210938 4.359375 -13.203125 C 4.523438 -13.191406 4.648438 -13.128906 4.734375 -13.015625 C 4.816406 -12.910156 4.859375 -12.785156 4.859375 -12.640625 L 4.859375 -0.5625 C 4.859375 -0.414062 4.800781 -0.285156 4.6875 -0.171875 C 4.582031 -0.0546875 4.441406 0 4.265625 0 Z M 4.265625 0 "/></g></g></g></g><g fill="#201f1f" fill-opacity="1"><g transform="translate(7.349335, 20.134234)"><g><path d="M 5.21875 -13.40625 C 5.96875 -13.40625 6.613281 -13.269531 7.15625 -13 C 7.707031 -12.738281 8.15625 -12.382812 8.5 -11.9375 C 8.851562 -11.5 9.117188 -10.992188 9.296875 -10.421875 C 9.472656 -9.859375 9.5625 -9.28125 9.5625 -8.6875 C 9.5625 -8.082031 9.484375 -7.4375 9.328125 -6.75 C 9.171875 -6.070312 8.9375 -5.382812 8.625 -4.6875 C 8.320312 -3.988281 7.941406 -3.320312 7.484375 -2.6875 C 7.023438 -2.0625 6.484375 -1.5 5.859375 -1 C 5.242188 -0.5 4.5625 -0.109375 3.8125 0.171875 C 3.707031 0.191406 3.625 0.203125 3.5625 0.203125 C 3.414062 0.203125 3.28125 0.148438 3.15625 0.046875 C 3.039062 -0.0546875 2.984375 -0.195312 2.984375 -0.375 C 2.984375 -0.5 3.019531 -0.609375 3.09375 -0.703125 C 3.164062 -0.796875 3.28125 -0.867188 3.4375 -0.921875 C 4.144531 -1.222656 4.832031 -1.671875 5.5 -2.265625 C 6.164062 -2.867188 6.738281 -3.5625 7.21875 -4.34375 C 7.707031 -5.132812 8.035156 -5.953125 8.203125 -6.796875 L 8.59375 -7.03125 C 8.382812 -6.632812 8.097656 -6.269531 7.734375 -5.9375 C 7.367188 -5.613281 6.957031 -5.359375 6.5 -5.171875 C 6.039062 -4.992188 5.539062 -4.90625 5 -4.90625 C 4.195312 -4.90625 3.5 -5.101562 2.90625 -5.5 C 2.320312 -5.894531 1.875 -6.414062 1.5625 -7.0625 C 1.25 -7.71875 1.09375 -8.425781 1.09375 -9.1875 C 1.09375 -9.925781 1.269531 -10.613281 1.625 -11.25 C 1.988281 -11.894531 2.476562 -12.414062 3.09375 -12.8125 C 3.71875 -13.207031 4.425781 -13.40625 5.21875 -13.40625 Z M 5.265625 -12.3125 C 4.671875 -12.3125 4.144531 -12.175781 3.6875 -11.90625 C 3.238281 -11.644531 2.882812 -11.28125 2.625 -10.8125 C 2.375 -10.34375 2.25 -9.800781 2.25 -9.1875 C 2.25 -8.632812 2.359375 -8.113281 2.578125 -7.625 C 2.796875 -7.132812 3.125 -6.738281 3.5625 -6.4375 C 4 -6.144531 4.535156 -6 5.171875 -6 C 5.847656 -6 6.425781 -6.144531 6.90625 -6.4375 C 7.382812 -6.738281 7.753906 -7.132812 8.015625 -7.625 C 8.273438 -8.113281 8.40625 -8.648438 8.40625 -9.234375 C 8.40625 -9.773438 8.28125 -10.28125 8.03125 -10.75 C 7.78125 -11.21875 7.421875 -11.59375 6.953125 -11.875 C 6.492188 -12.164062 5.929688 -12.3125 5.265625 -12.3125 Z M 5.265625 -12.3125 "/></g></g></g></g></g></g><g clip-path="url(#6a5ef1d3ae)"><g transform="matrix(1, 0, 0, 1, 380, 450)"><g clip-path="url(#f11ab5d85c)"><g fill="#201f1f" fill-opacity="1"><g transform="translate(0.192475, 20.134234)"><g><path d="M 8.9375 -1.09375 C 9.09375 -1.09375 9.222656 -1.035156 9.328125 -0.921875 C 9.429688 -0.816406 9.484375 -0.691406 9.484375 -0.546875 C 9.484375 -0.378906 9.429688 -0.242188 9.328125 -0.140625 C 9.222656 -0.046875 9.09375 0 8.9375 0 L 1.859375 0 C 1.703125 0 1.5625 -0.046875 1.4375 -0.140625 C 1.320312 -0.234375 1.265625 -0.375 1.265625 -0.5625 C 1.265625 -0.695312 1.316406 -0.832031 1.421875 -0.96875 L 5.765625 -5.765625 C 6.460938 -6.523438 6.984375 -7.222656 7.328125 -7.859375 C 7.671875 -8.492188 7.84375 -9.0625 7.84375 -9.5625 C 7.84375 -10.394531 7.59375 -11.0625 7.09375 -11.5625 C 6.59375 -12.0625 5.910156 -12.3125 5.046875 -12.3125 C 4.660156 -12.3125 4.273438 -12.226562 3.890625 -12.0625 C 3.503906 -11.90625 3.164062 -11.691406 2.875 -11.421875 C 2.582031 -11.160156 2.351562 -10.863281 2.1875 -10.53125 C 2.113281 -10.394531 2.035156 -10.300781 1.953125 -10.25 C 1.867188 -10.207031 1.773438 -10.1875 1.671875 -10.1875 C 1.523438 -10.1875 1.394531 -10.234375 1.28125 -10.328125 C 1.164062 -10.421875 1.109375 -10.535156 1.109375 -10.671875 C 1.109375 -10.765625 1.128906 -10.851562 1.171875 -10.9375 C 1.222656 -11.03125 1.289062 -11.128906 1.375 -11.234375 C 1.601562 -11.628906 1.914062 -11.988281 2.3125 -12.3125 C 2.71875 -12.644531 3.164062 -12.90625 3.65625 -13.09375 C 4.15625 -13.289062 4.644531 -13.390625 5.125 -13.390625 C 5.9375 -13.390625 6.632812 -13.234375 7.21875 -12.921875 C 7.800781 -12.617188 8.25 -12.1875 8.5625 -11.625 C 8.882812 -11.0625 9.046875 -10.398438 9.046875 -9.640625 C 9.046875 -8.984375 8.84375 -8.269531 8.4375 -7.5 C 8.03125 -6.726562 7.425781 -5.894531 6.625 -5 L 2.9375 -0.875 L 2.75 -1.09375 Z M 8.9375 -1.09375 "/></g></g></g><g fill="#201f1f" fill-opacity="1"><g transform="translate(10.641047, 20.134234)"><g><path d="M 5.59375 0.1875 C 4.59375 0.1875 3.753906 -0.113281 3.078125 -0.71875 C 2.398438 -1.320312 1.890625 -2.132812 1.546875 -3.15625 C 1.203125 -4.1875 1.03125 -5.332031 1.03125 -6.59375 C 1.03125 -7.882812 1.203125 -9.039062 1.546875 -10.0625 C 1.890625 -11.082031 2.398438 -11.890625 3.078125 -12.484375 C 3.753906 -13.085938 4.59375 -13.390625 5.59375 -13.390625 C 6.625 -13.390625 7.476562 -13.085938 8.15625 -12.484375 C 8.832031 -11.890625 9.335938 -11.082031 9.671875 -10.0625 C 10.015625 -9.039062 10.1875 -7.882812 10.1875 -6.59375 C 10.1875 -5.332031 10.015625 -4.1875 9.671875 -3.15625 C 9.335938 -2.132812 8.832031 -1.320312 8.15625 -0.71875 C 7.476562 -0.113281 6.625 0.1875 5.59375 0.1875 Z M 5.59375 -0.984375 C 6.34375 -0.984375 6.960938 -1.210938 7.453125 -1.671875 C 7.953125 -2.140625 8.332031 -2.796875 8.59375 -3.640625 C 8.851562 -4.492188 8.984375 -5.476562 8.984375 -6.59375 C 8.984375 -7.726562 8.851562 -8.71875 8.59375 -9.5625 C 8.332031 -10.414062 7.953125 -11.070312 7.453125 -11.53125 C 6.960938 -12 6.34375 -12.234375 5.59375 -12.234375 C 4.863281 -12.234375 4.25 -12 3.75 -11.53125 C 3.257812 -11.070312 2.882812 -10.414062 2.625 -9.5625 C 2.375 -8.71875 2.25 -7.726562 2.25 -6.59375 C 2.25 -5.476562 2.375 -4.492188 2.625 -3.640625 C 2.882812 -2.796875 3.257812 -2.140625 3.75 -1.671875 C 4.25 -1.210938 4.863281 -0.984375 5.59375 -0.984375 Z M 5.59375 -0.984375 "/></g></g></g></g></g></g><g clip-path="url(#ebaf01f348)"><g transform="matrix(1, 0, 0, 1, 505, 450)"><g clip-path="url(#ac6de604ff)"><g fill="#201f1f" fill-opacity="1"><g transform="translate(1.013846, 20.134234)"><g><path d="M 8.9375 -1.09375 C 9.09375 -1.09375 9.222656 -1.035156 9.328125 -0.921875 C 9.429688 -0.816406 9.484375 -0.691406 9.484375 -0.546875 C 9.484375 -0.378906 9.429688 -0.242188 9.328125 -0.140625 C 9.222656 -0.046875 9.09375 0 8.9375 0 L 1.859375 0 C 1.703125 0 1.5625 -0.046875 1.4375 -0.140625 C 1.320312 -0.234375 1.265625 -0.375 1.265625 -0.5625 C 1.265625 -0.695312 1.316406 -0.832031 1.421875 -0.96875 L 5.765625 -5.765625 C 6.460938 -6.523438 6.984375 -7.222656 7.328125 -7.859375 C 7.671875 -8.492188 7.84375 -9.0625 7.84375 -9.5625 C 7.84375 -10.394531 7.59375 -11.0625 7.09375 -11.5625 C 6.59375 -12.0625 5.910156 -12.3125 5.046875 -12.3125 C 4.660156 -12.3125 4.273438 -12.226562 3.890625 -12.0625 C 3.503906 -11.90625 3.164062 -11.691406 2.875 -11.421875 C 2.582031 -11.160156 2.351562 -10.863281 2.1875 -10.53125 C 2.113281 -10.394531 2.035156 -10.300781 1.953125 -10.25 C 1.867188 -10.207031 1.773438 -10.1875 1.671875 -10.1875 C 1.523438 -10.1875 1.394531 -10.234375 1.28125 -10.328125 C 1.164062 -10.421875 1.109375 -10.535156 1.109375 -10.671875 C 1.109375 -10.765625 1.128906 -10.851562 1.171875 -10.9375 C 1.222656 -11.03125 1.289062 -11.128906 1.375 -11.234375 C 1.601562 -11.628906 1.914062 -11.988281 2.3125 -12.3125 C 2.71875 -12.644531 3.164062 -12.90625 3.65625 -13.09375 C 4.15625 -13.289062 4.644531 -13.390625 5.125 -13.390625 C 5.9375 -13.390625 6.632812 -13.234375 7.21875 -12.921875 C 7.800781 -12.617188 8.25 -12.1875 8.5625 -11.625 C 8.882812 -11.0625 9.046875 -10.398438 9.046875 -9.640625 C 9.046875 -8.984375 8.84375 -8.269531 8.4375 -7.5 C 8.03125 -6.726562 7.425781 -5.894531 6.625 -5 L 2.9375 -0.875 L 2.75 -1.09375 Z M 8.9375 -1.09375 "/></g></g></g><g fill="#201f1f" fill-opacity="1"><g transform="translate(11.462418, 20.134234)"><g><path d="M 4.265625 0 C 4.085938 0 3.941406 -0.0546875 3.828125 -0.171875 C 3.710938 -0.285156 3.65625 -0.414062 3.65625 -0.5625 L 3.65625 -11.921875 L 3.859375 -11.734375 L 1.359375 -10.046875 C 1.253906 -9.972656 1.144531 -9.9375 1.03125 -9.9375 C 0.882812 -9.9375 0.75 -10 0.625 -10.125 C 0.507812 -10.25 0.453125 -10.390625 0.453125 -10.546875 C 0.453125 -10.742188 0.550781 -10.898438 0.75 -11.015625 L 3.90625 -13.109375 C 3.976562 -13.160156 4.054688 -13.191406 4.140625 -13.203125 C 4.222656 -13.210938 4.296875 -13.210938 4.359375 -13.203125 C 4.523438 -13.191406 4.648438 -13.128906 4.734375 -13.015625 C 4.816406 -12.910156 4.859375 -12.785156 4.859375 -12.640625 L 4.859375 -0.5625 C 4.859375 -0.414062 4.800781 -0.285156 4.6875 -0.171875 C 4.582031 -0.0546875 4.441406 0 4.265625 0 Z M 4.265625 0 "/></g></g></g></g></g></g><g clip-path="url(#5ba4deb406)"><g transform="matrix(1, 0, 0, 1, 631, 450)"><g clip-path="url(#8bb75bb3f2)"><g fill="#201f1f" fill-opacity="1"><g transform="translate(0.835363, 20.134234)"><g><path d="M 8.9375 -1.09375 C 9.09375 -1.09375 9.222656 -1.035156 9.328125 -0.921875 C 9.429688 -0.816406 9.484375 -0.691406 9.484375 -0.546875 C 9.484375 -0.378906 9.429688 -0.242188 9.328125 -0.140625 C 9.222656 -0.046875 9.09375 0 8.9375 0 L 1.859375 0 C 1.703125 0 1.5625 -0.046875 1.4375 -0.140625 C 1.320312 -0.234375 1.265625 -0.375 1.265625 -0.5625 C 1.265625 -0.695312 1.316406 -0.832031 1.421875 -0.96875 L 5.765625 -5.765625 C 6.460938 -6.523438 6.984375 -7.222656 7.328125 -7.859375 C 7.671875 -8.492188 7.84375 -9.0625 7.84375 -9.5625 C 7.84375 -10.394531 7.59375 -11.0625 7.09375 -11.5625 C 6.59375 -12.0625 5.910156 -12.3125 5.046875 -12.3125 C 4.660156 -12.3125 4.273438 -12.226562 3.890625 -12.0625 C 3.503906 -11.90625 3.164062 -11.691406 2.875 -11.421875 C 2.582031 -11.160156 2.351562 -10.863281 2.1875 -10.53125 C 2.113281 -10.394531 2.035156 -10.300781 1.953125 -10.25 C 1.867188 -10.207031 1.773438 -10.1875 1.671875 -10.1875 C 1.523438 -10.1875 1.394531 -10.234375 1.28125 -10.328125 C 1.164062 -10.421875 1.109375 -10.535156 1.109375 -10.671875 C 1.109375 -10.765625 1.128906 -10.851562 1.171875 -10.9375 C 1.222656 -11.03125 1.289062 -11.128906 1.375 -11.234375 C 1.601562 -11.628906 1.914062 -11.988281 2.3125 -12.3125 C 2.71875 -12.644531 3.164062 -12.90625 3.65625 -13.09375 C 4.15625 -13.289062 4.644531 -13.390625 5.125 -13.390625 C 5.9375 -13.390625 6.632812 -13.234375 7.21875 -12.921875 C 7.800781 -12.617188 8.25 -12.1875 8.5625 -11.625 C 8.882812 -11.0625 9.046875 -10.398438 9.046875 -9.640625 C 9.046875 -8.984375 8.84375 -8.269531 8.4375 -7.5 C 8.03125 -6.726562 7.425781 -5.894531 6.625 -5 L 2.9375 -0.875 L 2.75 -1.09375 Z M 8.9375 -1.09375 "/></g></g></g><g fill="#201f1f" fill-opacity="1"><g transform="translate(11.283935, 20.134234)"><g><path d="M 8.9375 -1.09375 C 9.09375 -1.09375 9.222656 -1.035156 9.328125 -0.921875 C 9.429688 -0.816406 9.484375 -0.691406 9.484375 -0.546875 C 9.484375 -0.378906 9.429688 -0.242188 9.328125 -0.140625 C 9.222656 -0.046875 9.09375 0 8.9375 0 L 1.859375 0 C 1.703125 0 1.5625 -0.046875 1.4375 -0.140625 C 1.320312 -0.234375 1.265625 -0.375 1.265625 -0.5625 C 1.265625 -0.695312 1.316406 -0.832031 1.421875 -0.96875 L 5.765625 -5.765625 C 6.460938 -6.523438 6.984375 -7.222656 7.328125 -7.859375 C 7.671875 -8.492188 7.84375 -9.0625 7.84375 -9.5625 C 7.84375 -10.394531 7.59375 -11.0625 7.09375 -11.5625 C 6.59375 -12.0625 5.910156 -12.3125 5.046875 -12.3125 C 4.660156 -12.3125 4.273438 -12.226562 3.890625 -12.0625 C 3.503906 -11.90625 3.164062 -11.691406 2.875 -11.421875 C 2.582031 -11.160156 2.351562 -10.863281 2.1875 -10.53125 C 2.113281 -10.394531 2.035156 -10.300781 1.953125 -10.25 C 1.867188 -10.207031 1.773438 -10.1875 1.671875 -10.1875 C 1.523438 -10.1875 1.394531 -10.234375 1.28125 -10.328125 C 1.164062 -10.421875 1.109375 -10.535156 1.109375 -10.671875 C 1.109375 -10.765625 1.128906 -10.851562 1.171875 -10.9375 C 1.222656 -11.03125 1.289062 -11.128906 1.375 -11.234375 C 1.601562 -11.628906 1.914062 -11.988281 2.3125 -12.3125 C 2.71875 -12.644531 3.164062 -12.90625 3.65625 -13.09375 C 4.15625 -13.289062 4.644531 -13.390625 5.125 -13.390625 C 5.9375 -13.390625 6.632812 -13.234375 7.21875 -12.921875 C 7.800781 -12.617188 8.25 -12.1875 8.5625 -11.625 C 8.882812 -11.0625 9.046875 -10.398438 9.046875 -9.640625 C 9.046875 -8.984375 8.84375 -8.269531 8.4375 -7.5 C 8.03125 -6.726562 7.425781 -5.894531 6.625 -5 L 2.9375 -0.875 L 2.75 -1.09375 Z M 8.9375 -1.09375 "/></g></g></g></g></g></g><g clip-path="url(#353a0ab95c)"><g transform="matrix(1, 0, 0, 1, 757, 450)"><g clip-path="url(#833ea26cd8)"><g fill="#201f1f" fill-opacity="1"><g transform="translate(0.656763, 20.134234)"><g><path d="M 8.9375 -1.09375 C 9.09375 -1.09375 9.222656 -1.035156 9.328125 -0.921875 C 9.429688 -0.816406 9.484375 -0.691406 9.484375 -0.546875 C 9.484375 -0.378906 9.429688 -0.242188 9.328125 -0.140625 C 9.222656 -0.046875 9.09375 0 8.9375 0 L 1.859375 0 C 1.703125 0 1.5625 -0.046875 1.4375 -0.140625 C 1.320312 -0.234375 1.265625 -0.375 1.265625 -0.5625 C 1.265625 -0.695312 1.316406 -0.832031 1.421875 -0.96875 L 5.765625 -5.765625 C 6.460938 -6.523438 6.984375 -7.222656 7.328125 -7.859375 C 7.671875 -8.492188 7.84375 -9.0625 7.84375 -9.5625 C 7.84375 -10.394531 7.59375 -11.0625 7.09375 -11.5625 C 6.59375 -12.0625 5.910156 -12.3125 5.046875 -12.3125 C 4.660156 -12.3125 4.273438 -12.226562 3.890625 -12.0625 C 3.503906 -11.90625 3.164062 -11.691406 2.875 -11.421875 C 2.582031 -11.160156 2.351562 -10.863281 2.1875 -10.53125 C 2.113281 -10.394531 2.035156 -10.300781 1.953125 -10.25 C 1.867188 -10.207031 1.773438 -10.1875 1.671875 -10.1875 C 1.523438 -10.1875 1.394531 -10.234375 1.28125 -10.328125 C 1.164062 -10.421875 1.109375 -10.535156 1.109375 -10.671875 C 1.109375 -10.765625 1.128906 -10.851562 1.171875 -10.9375 C 1.222656 -11.03125 1.289062 -11.128906 1.375 -11.234375 C 1.601562 -11.628906 1.914062 -11.988281 2.3125 -12.3125 C 2.71875 -12.644531 3.164062 -12.90625 3.65625 -13.09375 C 4.15625 -13.289062 4.644531 -13.390625 5.125 -13.390625 C 5.9375 -13.390625 6.632812 -13.234375 7.21875 -12.921875 C 7.800781 -12.617188 8.25 -12.1875 8.5625 -11.625 C 8.882812 -11.0625 9.046875 -10.398438 9.046875 -9.640625 C 9.046875 -8.984375 8.84375 -8.269531 8.4375 -7.5 C 8.03125 -6.726562 7.425781 -5.894531 6.625 -5 L 2.9375 -0.875 L 2.75 -1.09375 Z M 8.9375 -1.09375 "/></g></g></g><g fill="#201f1f" fill-opacity="1"><g transform="translate(11.105335, 20.134234)"><g><path d="M 1.671875 -1.9375 C 1.734375 -1.9375 1.800781 -1.921875 1.875 -1.890625 C 1.945312 -1.867188 2.03125 -1.816406 2.125 -1.734375 C 2.394531 -1.453125 2.710938 -1.238281 3.078125 -1.09375 C 3.441406 -0.957031 3.851562 -0.890625 4.3125 -0.890625 C 4.9375 -0.890625 5.5 -1.023438 6 -1.296875 C 6.507812 -1.578125 6.914062 -1.960938 7.21875 -2.453125 C 7.519531 -2.953125 7.671875 -3.523438 7.671875 -4.171875 C 7.671875 -4.898438 7.507812 -5.484375 7.1875 -5.921875 C 6.875 -6.367188 6.46875 -6.703125 5.96875 -6.921875 C 5.46875 -7.148438 4.960938 -7.265625 4.453125 -7.265625 C 4.316406 -7.265625 4.179688 -7.253906 4.046875 -7.234375 C 3.910156 -7.210938 3.785156 -7.1875 3.671875 -7.15625 C 3.566406 -7.132812 3.476562 -7.125 3.40625 -7.125 C 3.25 -7.125 3.125 -7.175781 3.03125 -7.28125 C 2.945312 -7.394531 2.90625 -7.53125 2.90625 -7.6875 C 2.90625 -7.78125 2.921875 -7.859375 2.953125 -7.921875 C 2.992188 -7.992188 3.046875 -8.078125 3.109375 -8.171875 L 6.9375 -12.328125 L 7.171875 -12.03125 L 1.453125 -12.03125 C 1.296875 -12.03125 1.164062 -12.082031 1.0625 -12.1875 C 0.957031 -12.300781 0.90625 -12.429688 0.90625 -12.578125 C 0.90625 -12.734375 0.957031 -12.859375 1.0625 -12.953125 C 1.164062 -13.054688 1.296875 -13.109375 1.453125 -13.109375 L 7.78125 -13.109375 C 8 -13.109375 8.148438 -13.039062 8.234375 -12.90625 C 8.328125 -12.78125 8.375 -12.648438 8.375 -12.515625 C 8.375 -12.441406 8.351562 -12.367188 8.3125 -12.296875 C 8.28125 -12.234375 8.234375 -12.164062 8.171875 -12.09375 L 4.34375 -7.921875 L 3.921875 -8.171875 C 3.960938 -8.203125 4.09375 -8.238281 4.3125 -8.28125 C 4.53125 -8.332031 4.703125 -8.359375 4.828125 -8.359375 C 5.515625 -8.359375 6.160156 -8.191406 6.765625 -7.859375 C 7.378906 -7.535156 7.878906 -7.066406 8.265625 -6.453125 C 8.648438 -5.847656 8.84375 -5.097656 8.84375 -4.203125 C 8.84375 -3.328125 8.632812 -2.554688 8.21875 -1.890625 C 7.800781 -1.234375 7.238281 -0.722656 6.53125 -0.359375 C 5.832031 0.00390625 5.054688 0.1875 4.203125 0.1875 C 3.691406 0.1875 3.179688 0.0976562 2.671875 -0.078125 C 2.171875 -0.253906 1.734375 -0.519531 1.359375 -0.875 C 1.265625 -0.945312 1.195312 -1.019531 1.15625 -1.09375 C 1.125 -1.164062 1.109375 -1.238281 1.109375 -1.3125 C 1.109375 -1.46875 1.160156 -1.609375 1.265625 -1.734375 C 1.378906 -1.867188 1.515625 -1.9375 1.671875 -1.9375 Z M 1.671875 -1.9375 "/></g></g></g></g></g></g><g clip-path="url(#ce50957709)"><g transform="matrix(1, 0, 0, 1, 2, 600)"><g clip-path="url(#f81f8dc67e)"><g fill="#201f1f" fill-opacity="1"><g transform="translate(0.728165, 19.896307)"><g><path d="M 8.9375 -1.09375 C 9.09375 -1.09375 9.222656 -1.035156 9.328125 -0.921875 C 9.429688 -0.816406 9.484375 -0.691406 9.484375 -0.546875 C 9.484375 -0.378906 9.429688 -0.242188 9.328125 -0.140625 C 9.222656 -0.046875 9.09375 0 8.9375 0 L 1.859375 0 C 1.703125 0 1.5625 -0.046875 1.4375 -0.140625 C 1.320312 -0.234375 1.265625 -0.375 1.265625 -0.5625 C 1.265625 -0.695312 1.316406 -0.832031 1.421875 -0.96875 L 5.765625 -5.765625 C 6.460938 -6.523438 6.984375 -7.222656 7.328125 -7.859375 C 7.671875 -8.492188 7.84375 -9.0625 7.84375 -9.5625 C 7.84375 -10.394531 7.59375 -11.0625 7.09375 -11.5625 C 6.59375 -12.0625 5.910156 -12.3125 5.046875 -12.3125 C 4.660156 -12.3125 4.273438 -12.226562 3.890625 -12.0625 C 3.503906 -11.90625 3.164062 -11.691406 2.875 -11.421875 C 2.582031 -11.160156 2.351562 -10.863281 2.1875 -10.53125 C 2.113281 -10.394531 2.035156 -10.300781 1.953125 -10.25 C 1.867188 -10.207031 1.773438 -10.1875 1.671875 -10.1875 C 1.523438 -10.1875 1.394531 -10.234375 1.28125 -10.328125 C 1.164062 -10.421875 1.109375 -10.535156 1.109375 -10.671875 C 1.109375 -10.765625 1.128906 -10.851562 1.171875 -10.9375 C 1.222656 -11.03125 1.289062 -11.128906 1.375 -11.234375 C 1.601562 -11.628906 1.914062 -11.988281 2.3125 -12.3125 C 2.71875 -12.644531 3.164062 -12.90625 3.65625 -13.09375 C 4.15625 -13.289062 4.644531 -13.390625 5.125 -13.390625 C 5.9375 -13.390625 6.632812 -13.234375 7.21875 -12.921875 C 7.800781 -12.617188 8.25 -12.1875 8.5625 -11.625 C 8.882812 -11.0625 9.046875 -10.398438 9.046875 -9.640625 C 9.046875 -8.984375 8.84375 -8.269531 8.4375 -7.5 C 8.03125 -6.726562 7.425781 -5.894531 6.625 -5 L 2.9375 -0.875 L 2.75 -1.09375 Z M 8.9375 -1.09375 "/></g></g></g><g fill="#201f1f" fill-opacity="1"><g transform="translate(11.176737, 19.896307)"><g><path d="M 6.921875 0 C 6.753906 0 6.617188 -0.0546875 6.515625 -0.171875 C 6.421875 -0.285156 6.375 -0.414062 6.375 -0.5625 L 6.375 -11.640625 L 6.625 -11.484375 L 1.65625 -4.921875 L 1.609375 -5.125 L 8.84375 -5.125 C 9 -5.125 9.128906 -5.070312 9.234375 -4.96875 C 9.335938 -4.875 9.390625 -4.753906 9.390625 -4.609375 C 9.390625 -4.453125 9.335938 -4.320312 9.234375 -4.21875 C 9.128906 -4.125 9 -4.078125 8.84375 -4.078125 L 0.828125 -4.078125 C 0.679688 -4.078125 0.550781 -4.132812 0.4375 -4.25 C 0.320312 -4.375 0.265625 -4.507812 0.265625 -4.65625 C 0.265625 -4.789062 0.304688 -4.914062 0.390625 -5.03125 L 6.46875 -12.96875 C 6.53125 -13.0625 6.609375 -13.125 6.703125 -13.15625 C 6.796875 -13.1875 6.875 -13.203125 6.9375 -13.203125 C 7.101562 -13.203125 7.238281 -13.144531 7.34375 -13.03125 C 7.445312 -12.914062 7.5 -12.785156 7.5 -12.640625 L 7.5 -0.5625 C 7.5 -0.414062 7.441406 -0.285156 7.328125 -0.171875 C 7.222656 -0.0546875 7.085938 0 6.921875 0 Z M 6.921875 0 "/></g></g></g></g></g></g><g clip-path="url(#8a4568c1e9)"><g transform="matrix(1, 0, 0, 1, 128, 600)"><g clip-path="url(#f9b377fbcf)"><g fill="#201f1f" fill-opacity="1"><g transform="translate(0.549587, 19.896307)"><g><path d="M 8.9375 -1.09375 C 9.09375 -1.09375 9.222656 -1.035156 9.328125 -0.921875 C 9.429688 -0.816406 9.484375 -0.691406 9.484375 -0.546875 C 9.484375 -0.378906 9.429688 -0.242188 9.328125 -0.140625 C 9.222656 -0.046875 9.09375 0 8.9375 0 L 1.859375 0 C 1.703125 0 1.5625 -0.046875 1.4375 -0.140625 C 1.320312 -0.234375 1.265625 -0.375 1.265625 -0.5625 C 1.265625 -0.695312 1.316406 -0.832031 1.421875 -0.96875 L 5.765625 -5.765625 C 6.460938 -6.523438 6.984375 -7.222656 7.328125 -7.859375 C 7.671875 -8.492188 7.84375 -9.0625 7.84375 -9.5625 C 7.84375 -10.394531 7.59375 -11.0625 7.09375 -11.5625 C 6.59375 -12.0625 5.910156 -12.3125 5.046875 -12.3125 C 4.660156 -12.3125 4.273438 -12.226562 3.890625 -12.0625 C 3.503906 -11.90625 3.164062 -11.691406 2.875 -11.421875 C 2.582031 -11.160156 2.351562 -10.863281 2.1875 -10.53125 C 2.113281 -10.394531 2.035156 -10.300781 1.953125 -10.25 C 1.867188 -10.207031 1.773438 -10.1875 1.671875 -10.1875 C 1.523438 -10.1875 1.394531 -10.234375 1.28125 -10.328125 C 1.164062 -10.421875 1.109375 -10.535156 1.109375 -10.671875 C 1.109375 -10.765625 1.128906 -10.851562 1.171875 -10.9375 C 1.222656 -11.03125 1.289062 -11.128906 1.375 -11.234375 C 1.601562 -11.628906 1.914062 -11.988281 2.3125 -12.3125 C 2.71875 -12.644531 3.164062 -12.90625 3.65625 -13.09375 C 4.15625 -13.289062 4.644531 -13.390625 5.125 -13.390625 C 5.9375 -13.390625 6.632812 -13.234375 7.21875 -12.921875 C 7.800781 -12.617188 8.25 -12.1875 8.5625 -11.625 C 8.882812 -11.0625 9.046875 -10.398438 9.046875 -9.640625 C 9.046875 -8.984375 8.84375 -8.269531 8.4375 -7.5 C 8.03125 -6.726562 7.425781 -5.894531 6.625 -5 L 2.9375 -0.875 L 2.75 -1.09375 Z M 8.9375 -1.09375 "/></g></g></g><g fill="#201f1f" fill-opacity="1"><g transform="translate(10.998159, 19.896307)"><g><path d="M 4.40625 0.03125 C 3.894531 0.03125 3.378906 -0.0507812 2.859375 -0.21875 C 2.335938 -0.382812 1.875 -0.640625 1.46875 -0.984375 C 1.394531 -1.046875 1.332031 -1.117188 1.28125 -1.203125 C 1.238281 -1.296875 1.21875 -1.382812 1.21875 -1.46875 C 1.21875 -1.59375 1.269531 -1.710938 1.375 -1.828125 C 1.476562 -1.953125 1.609375 -2.015625 1.765625 -2.015625 C 1.910156 -2.015625 2.050781 -1.957031 2.1875 -1.84375 C 2.507812 -1.59375 2.863281 -1.398438 3.25 -1.265625 C 3.632812 -1.128906 4.019531 -1.0625 4.40625 -1.0625 C 5.15625 -1.0625 5.804688 -1.203125 6.359375 -1.484375 C 6.910156 -1.765625 7.335938 -2.164062 7.640625 -2.6875 C 7.941406 -3.207031 8.09375 -3.8125 8.09375 -4.5 C 8.09375 -5.144531 7.953125 -5.703125 7.671875 -6.171875 C 7.398438 -6.648438 7.007812 -7.019531 6.5 -7.28125 C 5.988281 -7.550781 5.390625 -7.6875 4.703125 -7.6875 C 4.242188 -7.6875 3.828125 -7.617188 3.453125 -7.484375 C 3.085938 -7.347656 2.769531 -7.207031 2.5 -7.0625 C 2.226562 -6.914062 2.007812 -6.84375 1.84375 -6.84375 C 1.695312 -6.84375 1.578125 -6.878906 1.484375 -6.953125 C 1.390625 -7.035156 1.328125 -7.128906 1.296875 -7.234375 C 1.265625 -7.347656 1.257812 -7.46875 1.28125 -7.59375 L 2.09375 -12.640625 C 2.101562 -12.753906 2.160156 -12.859375 2.265625 -12.953125 C 2.378906 -13.046875 2.515625 -13.09375 2.671875 -13.09375 L 8.359375 -13.09375 C 8.503906 -13.09375 8.628906 -13.035156 8.734375 -12.921875 C 8.847656 -12.816406 8.90625 -12.691406 8.90625 -12.546875 C 8.90625 -12.378906 8.847656 -12.238281 8.734375 -12.125 C 8.628906 -12.019531 8.503906 -11.96875 8.359375 -11.96875 L 2.9375 -11.96875 L 3.109375 -12.140625 L 2.34375 -7.671875 L 2 -7.921875 C 2.164062 -8.046875 2.398438 -8.171875 2.703125 -8.296875 C 3.015625 -8.421875 3.359375 -8.53125 3.734375 -8.625 C 4.117188 -8.71875 4.523438 -8.765625 4.953125 -8.765625 C 5.773438 -8.765625 6.503906 -8.582031 7.140625 -8.21875 C 7.785156 -7.863281 8.289062 -7.367188 8.65625 -6.734375 C 9.03125 -6.109375 9.21875 -5.378906 9.21875 -4.546875 C 9.21875 -3.628906 9.019531 -2.828125 8.625 -2.140625 C 8.226562 -1.453125 7.671875 -0.914062 6.953125 -0.53125 C 6.242188 -0.15625 5.394531 0.03125 4.40625 0.03125 Z M 4.40625 0.03125 "/></g></g></g></g></g></g><g clip-path="url(#b08d34f7fb)"><g transform="matrix(1, 0, 0, 1, 254, 600)"><g clip-path="url(#06c625b0f0)"><g fill="#201f1f" fill-opacity="1"><g transform="translate(0.371045, 19.896307)"><g><path d="M 8.9375 -1.09375 C 9.09375 -1.09375 9.222656 -1.035156 9.328125 -0.921875 C 9.429688 -0.816406 9.484375 -0.691406 9.484375 -0.546875 C 9.484375 -0.378906 9.429688 -0.242188 9.328125 -0.140625 C 9.222656 -0.046875 9.09375 0 8.9375 0 L 1.859375 0 C 1.703125 0 1.5625 -0.046875 1.4375 -0.140625 C 1.320312 -0.234375 1.265625 -0.375 1.265625 -0.5625 C 1.265625 -0.695312 1.316406 -0.832031 1.421875 -0.96875 L 5.765625 -5.765625 C 6.460938 -6.523438 6.984375 -7.222656 7.328125 -7.859375 C 7.671875 -8.492188 7.84375 -9.0625 7.84375 -9.5625 C 7.84375 -10.394531 7.59375 -11.0625 7.09375 -11.5625 C 6.59375 -12.0625 5.910156 -12.3125 5.046875 -12.3125 C 4.660156 -12.3125 4.273438 -12.226562 3.890625 -12.0625 C 3.503906 -11.90625 3.164062 -11.691406 2.875 -11.421875 C 2.582031 -11.160156 2.351562 -10.863281 2.1875 -10.53125 C 2.113281 -10.394531 2.035156 -10.300781 1.953125 -10.25 C 1.867188 -10.207031 1.773438 -10.1875 1.671875 -10.1875 C 1.523438 -10.1875 1.394531 -10.234375 1.28125 -10.328125 C 1.164062 -10.421875 1.109375 -10.535156 1.109375 -10.671875 C 1.109375 -10.765625 1.128906 -10.851562 1.171875 -10.9375 C 1.222656 -11.03125 1.289062 -11.128906 1.375 -11.234375 C 1.601562 -11.628906 1.914062 -11.988281 2.3125 -12.3125 C 2.71875 -12.644531 3.164062 -12.90625 3.65625 -13.09375 C 4.15625 -13.289062 4.644531 -13.390625 5.125 -13.390625 C 5.9375 -13.390625 6.632812 -13.234375 7.21875 -12.921875 C 7.800781 -12.617188 8.25 -12.1875 8.5625 -11.625 C 8.882812 -11.0625 9.046875 -10.398438 9.046875 -9.640625 C 9.046875 -8.984375 8.84375 -8.269531 8.4375 -7.5 C 8.03125 -6.726562 7.425781 -5.894531 6.625 -5 L 2.9375 -0.875 L 2.75 -1.09375 Z M 8.9375 -1.09375 "/></g></g></g><g fill="#201f1f" fill-opacity="1"><g transform="translate(10.819617, 19.896307)"><g><path d="M 5.40625 0.1875 C 4.675781 0.1875 4.035156 0.0546875 3.484375 -0.203125 C 2.941406 -0.472656 2.492188 -0.828125 2.140625 -1.265625 C 1.785156 -1.710938 1.519531 -2.21875 1.34375 -2.78125 C 1.175781 -3.351562 1.09375 -3.9375 1.09375 -4.53125 C 1.09375 -5.132812 1.164062 -5.785156 1.3125 -6.484375 C 1.46875 -7.179688 1.703125 -7.882812 2.015625 -8.59375 C 2.328125 -9.3125 2.710938 -9.988281 3.171875 -10.625 C 3.628906 -11.269531 4.164062 -11.847656 4.78125 -12.359375 C 5.394531 -12.867188 6.082031 -13.269531 6.84375 -13.5625 C 6.9375 -13.582031 7.015625 -13.59375 7.078125 -13.59375 C 7.234375 -13.59375 7.367188 -13.546875 7.484375 -13.453125 C 7.609375 -13.367188 7.671875 -13.222656 7.671875 -13.015625 C 7.671875 -12.890625 7.628906 -12.78125 7.546875 -12.6875 C 7.472656 -12.59375 7.363281 -12.519531 7.21875 -12.46875 C 6.695312 -12.238281 6.175781 -11.914062 5.65625 -11.5 C 5.144531 -11.082031 4.664062 -10.601562 4.21875 -10.0625 C 3.78125 -9.53125 3.40625 -8.953125 3.09375 -8.328125 C 2.789062 -7.703125 2.578125 -7.070312 2.453125 -6.4375 L 2.03125 -6.1875 C 2.257812 -6.601562 2.550781 -6.96875 2.90625 -7.28125 C 3.269531 -7.601562 3.679688 -7.863281 4.140625 -8.0625 C 4.609375 -8.257812 5.113281 -8.359375 5.65625 -8.359375 C 6.21875 -8.359375 6.738281 -8.238281 7.21875 -8 C 7.695312 -7.757812 8.109375 -7.429688 8.453125 -7.015625 C 8.804688 -6.609375 9.078125 -6.144531 9.265625 -5.625 C 9.460938 -5.113281 9.5625 -4.582031 9.5625 -4.03125 C 9.5625 -3.289062 9.378906 -2.597656 9.015625 -1.953125 C 8.660156 -1.316406 8.171875 -0.800781 7.546875 -0.40625 C 6.929688 -0.0078125 6.21875 0.1875 5.40625 0.1875 Z M 5.390625 -0.90625 C 5.972656 -0.90625 6.488281 -1.035156 6.9375 -1.296875 C 7.394531 -1.566406 7.75 -1.9375 8 -2.40625 C 8.257812 -2.875 8.390625 -3.414062 8.390625 -4.03125 C 8.390625 -4.601562 8.28125 -5.128906 8.0625 -5.609375 C 7.84375 -6.097656 7.515625 -6.492188 7.078125 -6.796875 C 6.648438 -7.109375 6.113281 -7.265625 5.46875 -7.265625 C 4.800781 -7.265625 4.222656 -7.113281 3.734375 -6.8125 C 3.253906 -6.507812 2.882812 -6.109375 2.625 -5.609375 C 2.375 -5.109375 2.25 -4.566406 2.25 -3.984375 C 2.25 -3.453125 2.375 -2.945312 2.625 -2.46875 C 2.875 -2 3.234375 -1.617188 3.703125 -1.328125 C 4.171875 -1.046875 4.734375 -0.90625 5.390625 -0.90625 Z M 5.390625 -0.90625 "/></g></g></g></g></g></g><g clip-path="url(#48e8d30c99)"><g transform="matrix(1, 0, 0, 1, 380, 600)"><g clip-path="url(#4d8615b096)"><g fill="#201f1f" fill-opacity="1"><g transform="translate(0.192475, 19.896307)"><g><path d="M 8.9375 -1.09375 C 9.09375 -1.09375 9.222656 -1.035156 9.328125 -0.921875 C 9.429688 -0.816406 9.484375 -0.691406 9.484375 -0.546875 C 9.484375 -0.378906 9.429688 -0.242188 9.328125 -0.140625 C 9.222656 -0.046875 9.09375 0 8.9375 0 L 1.859375 0 C 1.703125 0 1.5625 -0.046875 1.4375 -0.140625 C 1.320312 -0.234375 1.265625 -0.375 1.265625 -0.5625 C 1.265625 -0.695312 1.316406 -0.832031 1.421875 -0.96875 L 5.765625 -5.765625 C 6.460938 -6.523438 6.984375 -7.222656 7.328125 -7.859375 C 7.671875 -8.492188 7.84375 -9.0625 7.84375 -9.5625 C 7.84375 -10.394531 7.59375 -11.0625 7.09375 -11.5625 C 6.59375 -12.0625 5.910156 -12.3125 5.046875 -12.3125 C 4.660156 -12.3125 4.273438 -12.226562 3.890625 -12.0625 C 3.503906 -11.90625 3.164062 -11.691406 2.875 -11.421875 C 2.582031 -11.160156 2.351562 -10.863281 2.1875 -10.53125 C 2.113281 -10.394531 2.035156 -10.300781 1.953125 -10.25 C 1.867188 -10.207031 1.773438 -10.1875 1.671875 -10.1875 C 1.523438 -10.1875 1.394531 -10.234375 1.28125 -10.328125 C 1.164062 -10.421875 1.109375 -10.535156 1.109375 -10.671875 C 1.109375 -10.765625 1.128906 -10.851562 1.171875 -10.9375 C 1.222656 -11.03125 1.289062 -11.128906 1.375 -11.234375 C 1.601562 -11.628906 1.914062 -11.988281 2.3125 -12.3125 C 2.71875 -12.644531 3.164062 -12.90625 3.65625 -13.09375 C 4.15625 -13.289062 4.644531 -13.390625 5.125 -13.390625 C 5.9375 -13.390625 6.632812 -13.234375 7.21875 -12.921875 C 7.800781 -12.617188 8.25 -12.1875 8.5625 -11.625 C 8.882812 -11.0625 9.046875 -10.398438 9.046875 -9.640625 C 9.046875 -8.984375 8.84375 -8.269531 8.4375 -7.5 C 8.03125 -6.726562 7.425781 -5.894531 6.625 -5 L 2.9375 -0.875 L 2.75 -1.09375 Z M 8.9375 -1.09375 "/></g></g></g><g fill="#201f1f" fill-opacity="1"><g transform="translate(10.641047, 19.896307)"><g><path d="M 3.359375 0.0625 C 3.203125 0.0625 3.0625 0.0078125 2.9375 -0.09375 C 2.8125 -0.195312 2.75 -0.320312 2.75 -0.46875 C 2.75 -0.5625 2.769531 -0.65625 2.8125 -0.75 L 7.828125 -12.28125 L 8.03125 -12.015625 L 1.65625 -12.015625 C 1.507812 -12.015625 1.378906 -12.066406 1.265625 -12.171875 C 1.160156 -12.273438 1.109375 -12.40625 1.109375 -12.5625 C 1.109375 -12.726562 1.160156 -12.859375 1.265625 -12.953125 C 1.378906 -13.054688 1.507812 -13.109375 1.65625 -13.109375 L 8.578125 -13.109375 C 8.765625 -13.109375 8.898438 -13.054688 8.984375 -12.953125 C 9.078125 -12.859375 9.125 -12.734375 9.125 -12.578125 C 9.125 -12.472656 9.109375 -12.378906 9.078125 -12.296875 L 3.890625 -0.328125 C 3.847656 -0.210938 3.773438 -0.117188 3.671875 -0.046875 C 3.578125 0.0234375 3.472656 0.0625 3.359375 0.0625 Z M 3.359375 0.0625 "/></g></g></g></g></g></g><g clip-path="url(#d1b22fc23f)"><g transform="matrix(1, 0, 0, 1, 505, 600)"><g clip-path="url(#5fa77f6fd4)"><g fill="#201f1f" fill-opacity="1"><g transform="translate(1.013846, 19.896307)"><g><path d="M 8.9375 -1.09375 C 9.09375 -1.09375 9.222656 -1.035156 9.328125 -0.921875 C 9.429688 -0.816406 9.484375 -0.691406 9.484375 -0.546875 C 9.484375 -0.378906 9.429688 -0.242188 9.328125 -0.140625 C 9.222656 -0.046875 9.09375 0 8.9375 0 L 1.859375 0 C 1.703125 0 1.5625 -0.046875 1.4375 -0.140625 C 1.320312 -0.234375 1.265625 -0.375 1.265625 -0.5625 C 1.265625 -0.695312 1.316406 -0.832031 1.421875 -0.96875 L 5.765625 -5.765625 C 6.460938 -6.523438 6.984375 -7.222656 7.328125 -7.859375 C 7.671875 -8.492188 7.84375 -9.0625 7.84375 -9.5625 C 7.84375 -10.394531 7.59375 -11.0625 7.09375 -11.5625 C 6.59375 -12.0625 5.910156 -12.3125 5.046875 -12.3125 C 4.660156 -12.3125 4.273438 -12.226562 3.890625 -12.0625 C 3.503906 -11.90625 3.164062 -11.691406 2.875 -11.421875 C 2.582031 -11.160156 2.351562 -10.863281 2.1875 -10.53125 C 2.113281 -10.394531 2.035156 -10.300781 1.953125 -10.25 C 1.867188 -10.207031 1.773438 -10.1875 1.671875 -10.1875 C 1.523438 -10.1875 1.394531 -10.234375 1.28125 -10.328125 C 1.164062 -10.421875 1.109375 -10.535156 1.109375 -10.671875 C 1.109375 -10.765625 1.128906 -10.851562 1.171875 -10.9375 C 1.222656 -11.03125 1.289062 -11.128906 1.375 -11.234375 C 1.601562 -11.628906 1.914062 -11.988281 2.3125 -12.3125 C 2.71875 -12.644531 3.164062 -12.90625 3.65625 -13.09375 C 4.15625 -13.289062 4.644531 -13.390625 5.125 -13.390625 C 5.9375 -13.390625 6.632812 -13.234375 7.21875 -12.921875 C 7.800781 -12.617188 8.25 -12.1875 8.5625 -11.625 C 8.882812 -11.0625 9.046875 -10.398438 9.046875 -9.640625 C 9.046875 -8.984375 8.84375 -8.269531 8.4375 -7.5 C 8.03125 -6.726562 7.425781 -5.894531 6.625 -5 L 2.9375 -0.875 L 2.75 -1.09375 Z M 8.9375 -1.09375 "/></g></g></g><g fill="#201f1f" fill-opacity="1"><g transform="translate(11.462418, 19.896307)"><g><path d="M 6.859375 -6.640625 L 6.8125 -6.8125 C 7.238281 -6.644531 7.625 -6.398438 7.96875 -6.078125 C 8.320312 -5.753906 8.601562 -5.375 8.8125 -4.9375 C 9.03125 -4.507812 9.140625 -4.039062 9.140625 -3.53125 C 9.140625 -2.851562 8.960938 -2.234375 8.609375 -1.671875 C 8.253906 -1.117188 7.765625 -0.679688 7.140625 -0.359375 C 6.523438 -0.0351562 5.84375 0.125 5.09375 0.125 C 4.320312 0.125 3.628906 -0.0351562 3.015625 -0.359375 C 2.410156 -0.679688 1.925781 -1.117188 1.5625 -1.671875 C 1.207031 -2.234375 1.03125 -2.851562 1.03125 -3.53125 C 1.03125 -4.082031 1.140625 -4.570312 1.359375 -5 C 1.585938 -5.4375 1.878906 -5.804688 2.234375 -6.109375 C 2.585938 -6.410156 2.960938 -6.644531 3.359375 -6.8125 L 3.296875 -6.625 C 2.960938 -6.78125 2.644531 -7 2.34375 -7.28125 C 2.050781 -7.570312 1.8125 -7.914062 1.625 -8.3125 C 1.4375 -8.707031 1.34375 -9.144531 1.34375 -9.625 C 1.34375 -10.300781 1.507812 -10.910156 1.84375 -11.453125 C 2.175781 -11.992188 2.628906 -12.421875 3.203125 -12.734375 C 3.773438 -13.046875 4.40625 -13.203125 5.09375 -13.203125 C 5.78125 -13.203125 6.40625 -13.046875 6.96875 -12.734375 C 7.53125 -12.421875 7.976562 -11.992188 8.3125 -11.453125 C 8.644531 -10.910156 8.8125 -10.300781 8.8125 -9.625 C 8.8125 -9.125 8.710938 -8.679688 8.515625 -8.296875 C 8.328125 -7.910156 8.082031 -7.570312 7.78125 -7.28125 C 7.488281 -7 7.179688 -6.785156 6.859375 -6.640625 Z M 2.515625 -9.625 C 2.515625 -9.113281 2.628906 -8.671875 2.859375 -8.296875 C 3.097656 -7.921875 3.410156 -7.625 3.796875 -7.40625 C 4.191406 -7.195312 4.625 -7.09375 5.09375 -7.09375 C 5.539062 -7.09375 5.957031 -7.195312 6.34375 -7.40625 C 6.738281 -7.625 7.050781 -7.921875 7.28125 -8.296875 C 7.519531 -8.671875 7.640625 -9.113281 7.640625 -9.625 C 7.640625 -10.363281 7.398438 -10.960938 6.921875 -11.421875 C 6.441406 -11.890625 5.832031 -12.125 5.09375 -12.125 C 4.320312 -12.125 3.695312 -11.890625 3.21875 -11.421875 C 2.75 -10.960938 2.515625 -10.363281 2.515625 -9.625 Z M 5.09375 -0.9375 C 5.945312 -0.9375 6.640625 -1.179688 7.171875 -1.671875 C 7.710938 -2.160156 7.984375 -2.78125 7.984375 -3.53125 C 7.984375 -4.03125 7.847656 -4.476562 7.578125 -4.875 C 7.316406 -5.28125 6.960938 -5.597656 6.515625 -5.828125 C 6.078125 -6.054688 5.601562 -6.171875 5.09375 -6.171875 C 4.570312 -6.171875 4.09375 -6.054688 3.65625 -5.828125 C 3.21875 -5.597656 2.863281 -5.28125 2.59375 -4.875 C 2.332031 -4.476562 2.203125 -4.03125 2.203125 -3.53125 C 2.203125 -2.78125 2.46875 -2.160156 3 -1.671875 C 3.53125 -1.179688 4.226562 -0.9375 5.09375 -0.9375 Z M 5.09375 -0.9375 "/></g></g></g></g></g></g><g clip-path="url(#5c6c29e83b)"><g transform="matrix(1, 0, 0, 1, 631, 600)"><g clip-path="url(#3f77a244e6)"><g fill="#201f1f" fill-opacity="1"><g transform="translate(0.835363, 19.896307)"><g><path d="M 8.9375 -1.09375 C 9.09375 -1.09375 9.222656 -1.035156 9.328125 -0.921875 C 9.429688 -0.816406 9.484375 -0.691406 9.484375 -0.546875 C 9.484375 -0.378906 9.429688 -0.242188 9.328125 -0.140625 C 9.222656 -0.046875 9.09375 0 8.9375 0 L 1.859375 0 C 1.703125 0 1.5625 -0.046875 1.4375 -0.140625 C 1.320312 -0.234375 1.265625 -0.375 1.265625 -0.5625 C 1.265625 -0.695312 1.316406 -0.832031 1.421875 -0.96875 L 5.765625 -5.765625 C 6.460938 -6.523438 6.984375 -7.222656 7.328125 -7.859375 C 7.671875 -8.492188 7.84375 -9.0625 7.84375 -9.5625 C 7.84375 -10.394531 7.59375 -11.0625 7.09375 -11.5625 C 6.59375 -12.0625 5.910156 -12.3125 5.046875 -12.3125 C 4.660156 -12.3125 4.273438 -12.226562 3.890625 -12.0625 C 3.503906 -11.90625 3.164062 -11.691406 2.875 -11.421875 C 2.582031 -11.160156 2.351562 -10.863281 2.1875 -10.53125 C 2.113281 -10.394531 2.035156 -10.300781 1.953125 -10.25 C 1.867188 -10.207031 1.773438 -10.1875 1.671875 -10.1875 C 1.523438 -10.1875 1.394531 -10.234375 1.28125 -10.328125 C 1.164062 -10.421875 1.109375 -10.535156 1.109375 -10.671875 C 1.109375 -10.765625 1.128906 -10.851562 1.171875 -10.9375 C 1.222656 -11.03125 1.289062 -11.128906 1.375 -11.234375 C 1.601562 -11.628906 1.914062 -11.988281 2.3125 -12.3125 C 2.71875 -12.644531 3.164062 -12.90625 3.65625 -13.09375 C 4.15625 -13.289062 4.644531 -13.390625 5.125 -13.390625 C 5.9375 -13.390625 6.632812 -13.234375 7.21875 -12.921875 C 7.800781 -12.617188 8.25 -12.1875 8.5625 -11.625 C 8.882812 -11.0625 9.046875 -10.398438 9.046875 -9.640625 C 9.046875 -8.984375 8.84375 -8.269531 8.4375 -7.5 C 8.03125 -6.726562 7.425781 -5.894531 6.625 -5 L 2.9375 -0.875 L 2.75 -1.09375 Z M 8.9375 -1.09375 "/></g></g></g><g fill="#201f1f" fill-opacity="1"><g transform="translate(11.283935, 19.896307)"><g><path d="M 5.21875 -13.40625 C 5.96875 -13.40625 6.613281 -13.269531 7.15625 -13 C 7.707031 -12.738281 8.15625 -12.382812 8.5 -11.9375 C 8.851562 -11.5 9.117188 -10.992188 9.296875 -10.421875 C 9.472656 -9.859375 9.5625 -9.28125 9.5625 -8.6875 C 9.5625 -8.082031 9.484375 -7.4375 9.328125 -6.75 C 9.171875 -6.070312 8.9375 -5.382812 8.625 -4.6875 C 8.320312 -3.988281 7.941406 -3.320312 7.484375 -2.6875 C 7.023438 -2.0625 6.484375 -1.5 5.859375 -1 C 5.242188 -0.5 4.5625 -0.109375 3.8125 0.171875 C 3.707031 0.191406 3.625 0.203125 3.5625 0.203125 C 3.414062 0.203125 3.28125 0.148438 3.15625 0.046875 C 3.039062 -0.0546875 2.984375 -0.195312 2.984375 -0.375 C 2.984375 -0.5 3.019531 -0.609375 3.09375 -0.703125 C 3.164062 -0.796875 3.28125 -0.867188 3.4375 -0.921875 C 4.144531 -1.222656 4.832031 -1.671875 5.5 -2.265625 C 6.164062 -2.867188 6.738281 -3.5625 7.21875 -4.34375 C 7.707031 -5.132812 8.035156 -5.953125 8.203125 -6.796875 L 8.59375 -7.03125 C 8.382812 -6.632812 8.097656 -6.269531 7.734375 -5.9375 C 7.367188 -5.613281 6.957031 -5.359375 6.5 -5.171875 C 6.039062 -4.992188 5.539062 -4.90625 5 -4.90625 C 4.195312 -4.90625 3.5 -5.101562 2.90625 -5.5 C 2.320312 -5.894531 1.875 -6.414062 1.5625 -7.0625 C 1.25 -7.71875 1.09375 -8.425781 1.09375 -9.1875 C 1.09375 -9.925781 1.269531 -10.613281 1.625 -11.25 C 1.988281 -11.894531 2.476562 -12.414062 3.09375 -12.8125 C 3.71875 -13.207031 4.425781 -13.40625 5.21875 -13.40625 Z M 5.265625 -12.3125 C 4.671875 -12.3125 4.144531 -12.175781 3.6875 -11.90625 C 3.238281 -11.644531 2.882812 -11.28125 2.625 -10.8125 C 2.375 -10.34375 2.25 -9.800781 2.25 -9.1875 C 2.25 -8.632812 2.359375 -8.113281 2.578125 -7.625 C 2.796875 -7.132812 3.125 -6.738281 3.5625 -6.4375 C 4 -6.144531 4.535156 -6 5.171875 -6 C 5.847656 -6 6.425781 -6.144531 6.90625 -6.4375 C 7.382812 -6.738281 7.753906 -7.132812 8.015625 -7.625 C 8.273438 -8.113281 8.40625 -8.648438 8.40625 -9.234375 C 8.40625 -9.773438 8.28125 -10.28125 8.03125 -10.75 C 7.78125 -11.21875 7.421875 -11.59375 6.953125 -11.875 C 6.492188 -12.164062 5.929688 -12.3125 5.265625 -12.3125 Z M 5.265625 -12.3125 "/></g></g></g></g></g></g><g clip-path="url(#aa6219a523)"><g transform="matrix(1, 0, 0, 1, 757, 600)"><g clip-path="url(#c2bbe172fe)"><g fill="#201f1f" fill-opacity="1"><g transform="translate(0.656763, 19.896307)"><g><path d="M 1.671875 -1.9375 C 1.734375 -1.9375 1.800781 -1.921875 1.875 -1.890625 C 1.945312 -1.867188 2.03125 -1.816406 2.125 -1.734375 C 2.394531 -1.453125 2.710938 -1.238281 3.078125 -1.09375 C 3.441406 -0.957031 3.851562 -0.890625 4.3125 -0.890625 C 4.9375 -0.890625 5.5 -1.023438 6 -1.296875 C 6.507812 -1.578125 6.914062 -1.960938 7.21875 -2.453125 C 7.519531 -2.953125 7.671875 -3.523438 7.671875 -4.171875 C 7.671875 -4.898438 7.507812 -5.484375 7.1875 -5.921875 C 6.875 -6.367188 6.46875 -6.703125 5.96875 -6.921875 C 5.46875 -7.148438 4.960938 -7.265625 4.453125 -7.265625 C 4.316406 -7.265625 4.179688 -7.253906 4.046875 -7.234375 C 3.910156 -7.210938 3.785156 -7.1875 3.671875 -7.15625 C 3.566406 -7.132812 3.476562 -7.125 3.40625 -7.125 C 3.25 -7.125 3.125 -7.175781 3.03125 -7.28125 C 2.945312 -7.394531 2.90625 -7.53125 2.90625 -7.6875 C 2.90625 -7.78125 2.921875 -7.859375 2.953125 -7.921875 C 2.992188 -7.992188 3.046875 -8.078125 3.109375 -8.171875 L 6.9375 -12.328125 L 7.171875 -12.03125 L 1.453125 -12.03125 C 1.296875 -12.03125 1.164062 -12.082031 1.0625 -12.1875 C 0.957031 -12.300781 0.90625 -12.429688 0.90625 -12.578125 C 0.90625 -12.734375 0.957031 -12.859375 1.0625 -12.953125 C 1.164062 -13.054688 1.296875 -13.109375 1.453125 -13.109375 L 7.78125 -13.109375 C 8 -13.109375 8.148438 -13.039062 8.234375 -12.90625 C 8.328125 -12.78125 8.375 -12.648438 8.375 -12.515625 C 8.375 -12.441406 8.351562 -12.367188 8.3125 -12.296875 C 8.28125 -12.234375 8.234375 -12.164062 8.171875 -12.09375 L 4.34375 -7.921875 L 3.921875 -8.171875 C 3.960938 -8.203125 4.09375 -8.238281 4.3125 -8.28125 C 4.53125 -8.332031 4.703125 -8.359375 4.828125 -8.359375 C 5.515625 -8.359375 6.160156 -8.191406 6.765625 -7.859375 C 7.378906 -7.535156 7.878906 -7.066406 8.265625 -6.453125 C 8.648438 -5.847656 8.84375 -5.097656 8.84375 -4.203125 C 8.84375 -3.328125 8.632812 -2.554688 8.21875 -1.890625 C 7.800781 -1.234375 7.238281 -0.722656 6.53125 -0.359375 C 5.832031 0.00390625 5.054688 0.1875 4.203125 0.1875 C 3.691406 0.1875 3.179688 0.0976562 2.671875 -0.078125 C 2.171875 -0.253906 1.734375 -0.519531 1.359375 -0.875 C 1.265625 -0.945312 1.195312 -1.019531 1.15625 -1.09375 C 1.125 -1.164062 1.109375 -1.238281 1.109375 -1.3125 C 1.109375 -1.46875 1.160156 -1.609375 1.265625 -1.734375 C 1.378906 -1.867188 1.515625 -1.9375 1.671875 -1.9375 Z M 1.671875 -1.9375 "/></g></g></g><g fill="#201f1f" fill-opacity="1"><g transform="translate(10.539533, 19.896307)"><g><path d="M 5.59375 0.1875 C 4.59375 0.1875 3.753906 -0.113281 3.078125 -0.71875 C 2.398438 -1.320312 1.890625 -2.132812 1.546875 -3.15625 C 1.203125 -4.1875 1.03125 -5.332031 1.03125 -6.59375 C 1.03125 -7.882812 1.203125 -9.039062 1.546875 -10.0625 C 1.890625 -11.082031 2.398438 -11.890625 3.078125 -12.484375 C 3.753906 -13.085938 4.59375 -13.390625 5.59375 -13.390625 C 6.625 -13.390625 7.476562 -13.085938 8.15625 -12.484375 C 8.832031 -11.890625 9.335938 -11.082031 9.671875 -10.0625 C 10.015625 -9.039062 10.1875 -7.882812 10.1875 -6.59375 C 10.1875 -5.332031 10.015625 -4.1875 9.671875 -3.15625 C 9.335938 -2.132812 8.832031 -1.320312 8.15625 -0.71875 C 7.476562 -0.113281 6.625 0.1875 5.59375 0.1875 Z M 5.59375 -0.984375 C 6.34375 -0.984375 6.960938 -1.210938 7.453125 -1.671875 C 7.953125 -2.140625 8.332031 -2.796875 8.59375 -3.640625 C 8.851562 -4.492188 8.984375 -5.476562 8.984375 -6.59375 C 8.984375 -7.726562 8.851562 -8.71875 8.59375 -9.5625 C 8.332031 -10.414062 7.953125 -11.070312 7.453125 -11.53125 C 6.960938 -12 6.34375 -12.234375 5.59375 -12.234375 C 4.863281 -12.234375 4.25 -12 3.75 -11.53125 C 3.257812 -11.070312 2.882812 -10.414062 2.625 -9.5625 C 2.375 -8.71875 2.25 -7.726562 2.25 -6.59375 C 2.25 -5.476562 2.375 -4.492188 2.625 -3.640625 C 2.882812 -2.796875 3.257812 -2.140625 3.75 -1.671875 C 4.25 -1.210938 4.863281 -0.984375 5.59375 -0.984375 Z M 5.59375 -0.984375 "/></g></g></g></g></g></g><g clip-path="url(#49b2d61ea9)"><path stroke-linecap="butt" transform="matrix(0.749954, 0, 0, 0.749954, 0.0390396, 0.00002)" fill-opacity="1" fill="#000000" fill-rule="nonzero" stroke-linejoin="miter" d="M 0.791746 1.583404 L 0.791746 998.478163 M 168.567709 1.583404 L 168.567709 998.478163 M 336.338463 1.583404 L 336.338463 998.478163 M 504.109217 1.583404 L 504.109217 998.478163 M 671.879971 1.583404 L 671.879971 998.478163 M 839.655934 1.583404 L 839.655934 998.478163 M 1007.426688 1.583404 L 1007.426688 998.478163 M 1175.197442 1.583404 L 1175.197442 998.478163 M 0.0000304849 0.791689 L 1175.989158 0.791689 M 0.0000304849 200.486285 L 1175.989158 200.486285 M 0.0000304849 400.180881 L 1175.989158 400.180881 M 0.0000304849 599.880686 L 1175.989158 599.880686 M 0.0000304849 799.575282 L 1175.989158 799.575282 M 0.0000304849 999.269878 L 1175.989158 999.269878 " stroke="#000000" stroke-width="1.585721" stroke-opacity="1" stroke-miterlimit="4"/></g><g clip-path="url(#b8c212f4ae)"><path stroke-linecap="butt" transform="matrix(0.488149, -0.569334, 0.569334, 0.488149, -0.00120644, 748.978975)" fill="none" stroke-linejoin="miter" d="M -0.00313925 0.999668 L 258.323269 0.999221 " stroke="#000000" stroke-width="2" stroke-opacity="1" stroke-miterlimit="4"/></g><g fill="#000000" fill-opacity="1"><g transform="translate(95.766913, 730.129499)"><g><path d="M 1.8125 -2.09375 C 1.875 -2.09375 1.941406 -2.078125 2.015625 -2.046875 C 2.085938 -2.023438 2.179688 -1.96875 2.296875 -1.875 C 2.578125 -1.570312 2.910156 -1.34375 3.296875 -1.1875 C 3.691406 -1.03125 4.140625 -0.953125 4.640625 -0.953125 C 5.304688 -0.953125 5.910156 -1.097656 6.453125 -1.390625 C 7.003906 -1.691406 7.441406 -2.109375 7.765625 -2.640625 C 8.097656 -3.179688 8.265625 -3.796875 8.265625 -4.484375 C 8.265625 -5.265625 8.085938 -5.894531 7.734375 -6.375 C 7.390625 -6.863281 6.953125 -7.222656 6.421875 -7.453125 C 5.890625 -7.691406 5.347656 -7.8125 4.796875 -7.8125 C 4.640625 -7.8125 4.488281 -7.800781 4.34375 -7.78125 C 4.207031 -7.757812 4.078125 -7.734375 3.953125 -7.703125 C 3.835938 -7.679688 3.742188 -7.671875 3.671875 -7.671875 C 3.492188 -7.671875 3.359375 -7.726562 3.265625 -7.84375 C 3.171875 -7.957031 3.125 -8.101562 3.125 -8.28125 C 3.125 -8.375 3.144531 -8.457031 3.1875 -8.53125 C 3.226562 -8.601562 3.28125 -8.6875 3.34375 -8.78125 L 7.46875 -13.28125 L 7.71875 -12.953125 L 1.5625 -12.953125 C 1.394531 -12.953125 1.253906 -13.007812 1.140625 -13.125 C 1.023438 -13.238281 0.96875 -13.375 0.96875 -13.53125 C 0.96875 -13.695312 1.023438 -13.832031 1.140625 -13.9375 C 1.253906 -14.050781 1.394531 -14.109375 1.5625 -14.109375 L 8.375 -14.109375 C 8.613281 -14.109375 8.78125 -14.035156 8.875 -13.890625 C 8.96875 -13.753906 9.015625 -13.617188 9.015625 -13.484375 C 9.015625 -13.398438 8.992188 -13.316406 8.953125 -13.234375 C 8.910156 -13.160156 8.851562 -13.085938 8.78125 -13.015625 L 4.671875 -8.53125 L 4.21875 -8.78125 C 4.257812 -8.820312 4.398438 -8.863281 4.640625 -8.90625 C 4.878906 -8.957031 5.066406 -8.984375 5.203125 -8.984375 C 5.941406 -8.984375 6.640625 -8.804688 7.296875 -8.453125 C 7.953125 -8.109375 8.484375 -7.609375 8.890625 -6.953125 C 9.304688 -6.296875 9.515625 -5.488281 9.515625 -4.53125 C 9.515625 -3.582031 9.289062 -2.75 8.84375 -2.03125 C 8.394531 -1.320312 7.789062 -0.769531 7.03125 -0.375 C 6.28125 0.0078125 5.445312 0.203125 4.53125 0.203125 C 3.96875 0.203125 3.414062 0.109375 2.875 -0.078125 C 2.332031 -0.265625 1.863281 -0.550781 1.46875 -0.9375 C 1.363281 -1.019531 1.289062 -1.097656 1.25 -1.171875 C 1.21875 -1.253906 1.203125 -1.335938 1.203125 -1.421875 C 1.203125 -1.585938 1.257812 -1.738281 1.375 -1.875 C 1.488281 -2.019531 1.632812 -2.09375 1.8125 -2.09375 Z M 1.8125 -2.09375 "/></g></g></g><g fill="#000000" fill-opacity="1"><g transform="translate(106.395702, 730.129499)"><g><path d="M 4.59375 0 C 4.394531 0 4.234375 -0.0546875 4.109375 -0.171875 C 3.992188 -0.296875 3.9375 -0.441406 3.9375 -0.609375 L 3.9375 -12.828125 L 4.15625 -12.625 L 1.46875 -10.8125 C 1.351562 -10.738281 1.234375 -10.703125 1.109375 -10.703125 C 0.953125 -10.703125 0.804688 -10.769531 0.671875 -10.90625 C 0.546875 -11.039062 0.484375 -11.1875 0.484375 -11.34375 C 0.484375 -11.5625 0.59375 -11.734375 0.8125 -11.859375 L 4.203125 -14.109375 C 4.285156 -14.160156 4.367188 -14.191406 4.453125 -14.203125 C 4.546875 -14.222656 4.625 -14.222656 4.6875 -14.203125 C 4.863281 -14.191406 5 -14.128906 5.09375 -14.015625 C 5.1875 -13.898438 5.234375 -13.757812 5.234375 -13.59375 L 5.234375 -0.609375 C 5.234375 -0.441406 5.171875 -0.296875 5.046875 -0.171875 C 4.929688 -0.0546875 4.78125 0 4.59375 0 Z M 4.59375 0 "/></g></g></g></g></g></svg>