<svg xmlns="http://www.w3.org/2000/svg" xmlns:xlink="http://www.w3.org/1999/xlink" width="1167" zoomAndPan="magnify" viewBox="0 0 876 1326.749967" height="1800" preserveAspectRatio="xMidYMid meet" version="1.0"><defs><g/><clipPath id="ea6f4db70b"><path d="M 0.03125 3 L 9 3 L 9 14 L 0.03125 14 Z M 0.03125 3 " clip-rule="nonzero"/></clipPath><clipPath id="a306b762a0"><rect x="0" width="46" y="0" height="17"/></clipPath><clipPath id="716e10d90a"><rect x="0" width="113" y="0" height="17"/></clipPath><clipPath id="7443472112"><rect x="0" width="66" y="0" height="17"/></clipPath><clipPath id="1dc5ec99a8"><rect x="0" width="25" y="0" height="17"/></clipPath><clipPath id="b771fa9cb9"><rect x="0" width="44" y="0" height="17"/></clipPath><clipPath id="2c4bbbbce1"><rect x="0" width="67" y="0" height="17"/></clipPath><clipPath id="bc1dd44fa1"><path d="M 5.761719 116.066406 L 863.601562 116.066406 L 863.601562 1326.5 L 5.761719 1326.5 Z M 5.761719 116.066406 " clip-rule="nonzero"/></clipPath><clipPath id="47c2dcc06c"><rect x="0" width="382" y="0" height="58"/></clipPath></defs><g transform="matrix(1, 0, 0, 1, 55, 142)"><g clip-path="url(#a306b762a0)"><g clip-path="url(#ea6f4db70b)"><g fill="#000000" fill-opacity="1"><g transform="translate(0.217019, 13.065136)"><g><path d="M 8.125 -8.703125 C 8.226562 -8.628906 8.285156 -8.535156 8.296875 -8.421875 C 8.316406 -8.304688 8.296875 -8.195312 8.234375 -8.09375 C 8.171875 -8.007812 8.085938 -7.960938 7.984375 -7.953125 C 7.890625 -7.953125 7.796875 -7.972656 7.703125 -8.015625 C 7.359375 -8.234375 6.992188 -8.40625 6.609375 -8.53125 C 6.222656 -8.65625 5.804688 -8.71875 5.359375 -8.71875 C 4.804688 -8.71875 4.296875 -8.617188 3.828125 -8.421875 C 3.359375 -8.234375 2.945312 -7.957031 2.59375 -7.59375 C 2.25 -7.238281 1.976562 -6.8125 1.78125 -6.3125 C 1.59375 -5.820312 1.5 -5.285156 1.5 -4.703125 C 1.5 -4.085938 1.597656 -3.53125 1.796875 -3.03125 C 1.992188 -2.539062 2.269531 -2.113281 2.625 -1.75 C 2.976562 -1.394531 3.382812 -1.125 3.84375 -0.9375 C 4.3125 -0.75 4.816406 -0.65625 5.359375 -0.65625 C 5.796875 -0.65625 6.207031 -0.71875 6.59375 -0.84375 C 6.988281 -0.96875 7.351562 -1.140625 7.6875 -1.359375 C 7.78125 -1.410156 7.878906 -1.425781 7.984375 -1.40625 C 8.085938 -1.394531 8.171875 -1.347656 8.234375 -1.265625 C 8.304688 -1.160156 8.332031 -1.050781 8.3125 -0.9375 C 8.289062 -0.832031 8.234375 -0.75 8.140625 -0.6875 C 7.910156 -0.539062 7.644531 -0.40625 7.34375 -0.28125 C 7.039062 -0.15625 6.71875 -0.0546875 6.375 0.015625 C 6.03125 0.0976562 5.691406 0.140625 5.359375 0.140625 C 4.710938 0.140625 4.109375 0.0234375 3.546875 -0.203125 C 2.984375 -0.441406 2.476562 -0.773438 2.03125 -1.203125 C 1.59375 -1.628906 1.25 -2.132812 1 -2.71875 C 0.757812 -3.3125 0.640625 -3.972656 0.640625 -4.703125 C 0.640625 -5.398438 0.757812 -6.039062 1 -6.625 C 1.25 -7.207031 1.585938 -7.710938 2.015625 -8.140625 C 2.441406 -8.578125 2.941406 -8.914062 3.515625 -9.15625 C 4.085938 -9.394531 4.703125 -9.515625 5.359375 -9.515625 C 5.867188 -9.515625 6.359375 -9.441406 6.828125 -9.296875 C 7.304688 -9.160156 7.738281 -8.960938 8.125 -8.703125 Z M 8.125 -8.703125 "/></g></g></g></g><g fill="#000000" fill-opacity="1"><g transform="translate(8.975334, 13.065136)"><g><path d="M 6.453125 -0.796875 C 6.554688 -0.796875 6.648438 -0.753906 6.734375 -0.671875 C 6.816406 -0.597656 6.859375 -0.507812 6.859375 -0.40625 C 6.859375 -0.289062 6.816406 -0.191406 6.734375 -0.109375 C 6.648438 -0.0351562 6.554688 0 6.453125 0 L 1.671875 0 C 1.546875 0 1.445312 -0.0351562 1.375 -0.109375 C 1.300781 -0.191406 1.265625 -0.289062 1.265625 -0.40625 L 1.265625 -9 C 1.265625 -9.101562 1.300781 -9.191406 1.375 -9.265625 C 1.457031 -9.347656 1.5625 -9.390625 1.6875 -9.390625 C 1.800781 -9.390625 1.898438 -9.347656 1.984375 -9.265625 C 2.066406 -9.191406 2.109375 -9.101562 2.109375 -9 L 2.109375 -0.5625 L 1.859375 -0.796875 Z M 6.453125 -0.796875 "/></g></g></g><g fill="#000000" fill-opacity="1"><g transform="translate(16.110748, 13.065136)"><g><path d="M 2.109375 -0.421875 C 2.097656 -0.296875 2.050781 -0.191406 1.96875 -0.109375 C 1.882812 -0.0351562 1.785156 0 1.671875 0 C 1.546875 0 1.445312 -0.0351562 1.375 -0.109375 C 1.300781 -0.191406 1.265625 -0.296875 1.265625 -0.421875 L 1.265625 -8.984375 C 1.265625 -9.097656 1.300781 -9.191406 1.375 -9.265625 C 1.457031 -9.347656 1.5625 -9.390625 1.6875 -9.390625 C 1.800781 -9.390625 1.898438 -9.347656 1.984375 -9.265625 C 2.066406 -9.191406 2.109375 -9.097656 2.109375 -8.984375 Z M 2.109375 -0.421875 "/></g></g></g><g fill="#000000" fill-opacity="1"><g transform="translate(19.463854, 13.065136)"><g><path d="M 1.671875 -9.390625 L 6.59375 -9.390625 C 6.695312 -9.390625 6.789062 -9.351562 6.875 -9.28125 C 6.957031 -9.207031 7 -9.113281 7 -9 C 7 -8.875 6.957031 -8.773438 6.875 -8.703125 C 6.789062 -8.640625 6.695312 -8.609375 6.59375 -8.609375 L 1.96875 -8.609375 L 2.109375 -8.828125 L 2.109375 -5.0625 L 1.953125 -5.234375 L 5.984375 -5.234375 C 6.085938 -5.234375 6.179688 -5.191406 6.265625 -5.109375 C 6.347656 -5.035156 6.390625 -4.941406 6.390625 -4.828125 C 6.390625 -4.710938 6.347656 -4.617188 6.265625 -4.546875 C 6.179688 -4.472656 6.085938 -4.4375 5.984375 -4.4375 L 1.984375 -4.4375 L 2.109375 -4.578125 L 2.109375 -0.71875 L 2.046875 -0.796875 L 6.59375 -0.796875 C 6.695312 -0.796875 6.789062 -0.753906 6.875 -0.671875 C 6.957031 -0.585938 7 -0.492188 7 -0.390625 C 7 -0.273438 6.957031 -0.179688 6.875 -0.109375 C 6.789062 -0.0351562 6.695312 0 6.59375 0 L 1.671875 0 C 1.554688 0 1.457031 -0.0351562 1.375 -0.109375 C 1.300781 -0.191406 1.265625 -0.289062 1.265625 -0.40625 L 1.265625 -9 C 1.265625 -9.101562 1.300781 -9.191406 1.375 -9.265625 C 1.457031 -9.347656 1.554688 -9.390625 1.671875 -9.390625 Z M 1.671875 -9.390625 "/></g></g></g><g fill="#000000" fill-opacity="1"><g transform="translate(27.082113, 13.065136)"><g><path d="M 8.140625 -9.390625 C 8.253906 -9.390625 8.34375 -9.351562 8.40625 -9.28125 C 8.476562 -9.21875 8.515625 -9.128906 8.515625 -9.015625 L 8.515625 -0.421875 C 8.515625 -0.296875 8.46875 -0.191406 8.375 -0.109375 C 8.289062 -0.0351562 8.195312 0 8.09375 0 C 8.039062 0 7.984375 -0.0078125 7.921875 -0.03125 C 7.859375 -0.0507812 7.804688 -0.0859375 7.765625 -0.140625 L 1.78125 -8.203125 L 2.015625 -8.328125 L 2.015625 -0.359375 C 2.015625 -0.265625 1.976562 -0.179688 1.90625 -0.109375 C 1.832031 -0.0351562 1.742188 0 1.640625 0 C 1.523438 0 1.429688 -0.0351562 1.359375 -0.109375 C 1.296875 -0.179688 1.265625 -0.265625 1.265625 -0.359375 L 1.265625 -9 C 1.265625 -9.125 1.300781 -9.21875 1.375 -9.28125 C 1.457031 -9.351562 1.550781 -9.390625 1.65625 -9.390625 C 1.707031 -9.390625 1.765625 -9.378906 1.828125 -9.359375 C 1.890625 -9.335938 1.9375 -9.300781 1.96875 -9.25 L 7.890625 -1.28125 L 7.75 -1.03125 L 7.75 -9.015625 C 7.75 -9.128906 7.785156 -9.21875 7.859375 -9.28125 C 7.941406 -9.351562 8.035156 -9.390625 8.140625 -9.390625 Z M 8.140625 -9.390625 "/></g></g></g><g fill="#000000" fill-opacity="1"><g transform="translate(36.846365, 13.065136)"><g><path d="M 4.046875 0 C 3.921875 0 3.820312 -0.0351562 3.75 -0.109375 C 3.675781 -0.191406 3.640625 -0.289062 3.640625 -0.40625 L 3.640625 -8.953125 L 4.46875 -8.953125 L 4.46875 -0.40625 C 4.46875 -0.289062 4.425781 -0.191406 4.34375 -0.109375 C 4.269531 -0.0351562 4.171875 0 4.046875 0 Z M 0.859375 -8.625 C 0.753906 -8.625 0.660156 -8.660156 0.578125 -8.734375 C 0.492188 -8.804688 0.453125 -8.898438 0.453125 -9.015625 C 0.453125 -9.128906 0.492188 -9.21875 0.578125 -9.28125 C 0.660156 -9.351562 0.753906 -9.390625 0.859375 -9.390625 L 7.25 -9.390625 C 7.351562 -9.390625 7.445312 -9.351562 7.53125 -9.28125 C 7.613281 -9.21875 7.65625 -9.125 7.65625 -9 C 7.65625 -8.882812 7.613281 -8.789062 7.53125 -8.71875 C 7.445312 -8.65625 7.351562 -8.625 7.25 -8.625 Z M 0.859375 -8.625 "/></g></g></g></g></g><g transform="matrix(1, 0, 0, 1, 164, 142)"><g clip-path="url(#716e10d90a)"><g fill="#000000" fill-opacity="1"><g transform="translate(0.797411, 13.065136)"><g><path d="M 5.09375 -9.390625 C 5.75 -9.390625 6.320312 -9.265625 6.8125 -9.015625 C 7.3125 -8.765625 7.722656 -8.414062 8.046875 -7.96875 C 8.367188 -7.53125 8.609375 -7.03125 8.765625 -6.46875 C 8.921875 -5.90625 9 -5.316406 9 -4.703125 C 9 -3.835938 8.859375 -3.050781 8.578125 -2.34375 C 8.296875 -1.632812 7.863281 -1.066406 7.28125 -0.640625 C 6.707031 -0.210938 5.976562 0 5.09375 0 L 1.671875 0 C 1.554688 0 1.457031 -0.0351562 1.375 -0.109375 C 1.300781 -0.191406 1.265625 -0.289062 1.265625 -0.40625 L 1.265625 -9 C 1.265625 -9.101562 1.300781 -9.191406 1.375 -9.265625 C 1.457031 -9.347656 1.554688 -9.390625 1.671875 -9.390625 Z M 4.953125 -0.796875 C 5.710938 -0.796875 6.320312 -0.96875 6.78125 -1.3125 C 7.25 -1.664062 7.59375 -2.140625 7.8125 -2.734375 C 8.03125 -3.328125 8.140625 -3.984375 8.140625 -4.703125 C 8.140625 -5.210938 8.078125 -5.703125 7.953125 -6.171875 C 7.835938 -6.648438 7.648438 -7.066406 7.390625 -7.421875 C 7.140625 -7.785156 6.8125 -8.070312 6.40625 -8.28125 C 6 -8.5 5.515625 -8.609375 4.953125 -8.609375 L 2.015625 -8.609375 L 2.109375 -8.71875 L 2.109375 -0.65625 L 2.03125 -0.796875 Z M 4.953125 -0.796875 "/></g></g></g><g fill="#000000" fill-opacity="1"><g transform="translate(10.373871, 13.065136)"><g><path d="M 4.40625 -8.359375 L 1.140625 -0.25 C 1.109375 -0.164062 1.0625 -0.0976562 1 -0.046875 C 0.9375 -0.00390625 0.863281 0.015625 0.78125 0.015625 C 0.65625 0.015625 0.5625 -0.015625 0.5 -0.078125 C 0.4375 -0.148438 0.398438 -0.234375 0.390625 -0.328125 C 0.378906 -0.378906 0.382812 -0.4375 0.40625 -0.5 L 3.953125 -9.171875 C 3.992188 -9.265625 4.046875 -9.332031 4.109375 -9.375 C 4.179688 -9.414062 4.257812 -9.4375 4.34375 -9.4375 C 4.4375 -9.4375 4.515625 -9.410156 4.578125 -9.359375 C 4.648438 -9.304688 4.703125 -9.242188 4.734375 -9.171875 L 8.265625 -0.53125 C 8.285156 -0.476562 8.296875 -0.425781 8.296875 -0.375 C 8.296875 -0.25 8.253906 -0.148438 8.171875 -0.078125 C 8.085938 -0.015625 7.992188 0.015625 7.890625 0.015625 C 7.796875 0.015625 7.71875 -0.0078125 7.65625 -0.0625 C 7.59375 -0.113281 7.539062 -0.175781 7.5 -0.25 L 4.15625 -8.421875 Z M 1.921875 -2.71875 L 2.25 -3.5 L 6.421875 -3.5 L 6.578125 -2.71875 Z M 1.921875 -2.71875 "/></g></g></g><g fill="#000000" fill-opacity="1"><g transform="translate(18.380908, 13.065136)"><g><path d="M 4.046875 0 C 3.921875 0 3.820312 -0.0351562 3.75 -0.109375 C 3.675781 -0.191406 3.640625 -0.289062 3.640625 -0.40625 L 3.640625 -8.953125 L 4.46875 -8.953125 L 4.46875 -0.40625 C 4.46875 -0.289062 4.425781 -0.191406 4.34375 -0.109375 C 4.269531 -0.0351562 4.171875 0 4.046875 0 Z M 0.859375 -8.625 C 0.753906 -8.625 0.660156 -8.660156 0.578125 -8.734375 C 0.492188 -8.804688 0.453125 -8.898438 0.453125 -9.015625 C 0.453125 -9.128906 0.492188 -9.21875 0.578125 -9.28125 C 0.660156 -9.351562 0.753906 -9.390625 0.859375 -9.390625 L 7.25 -9.390625 C 7.351562 -9.390625 7.445312 -9.351562 7.53125 -9.28125 C 7.613281 -9.21875 7.65625 -9.125 7.65625 -9 C 7.65625 -8.882812 7.613281 -8.789062 7.53125 -8.71875 C 7.445312 -8.65625 7.351562 -8.625 7.25 -8.625 Z M 0.859375 -8.625 "/></g></g></g><g fill="#000000" fill-opacity="1"><g transform="translate(26.482019, 13.065136)"><g><path d="M 1.671875 -9.390625 L 6.59375 -9.390625 C 6.695312 -9.390625 6.789062 -9.351562 6.875 -9.28125 C 6.957031 -9.207031 7 -9.113281 7 -9 C 7 -8.875 6.957031 -8.773438 6.875 -8.703125 C 6.789062 -8.640625 6.695312 -8.609375 6.59375 -8.609375 L 1.96875 -8.609375 L 2.109375 -8.828125 L 2.109375 -5.0625 L 1.953125 -5.234375 L 5.984375 -5.234375 C 6.085938 -5.234375 6.179688 -5.191406 6.265625 -5.109375 C 6.347656 -5.035156 6.390625 -4.941406 6.390625 -4.828125 C 6.390625 -4.710938 6.347656 -4.617188 6.265625 -4.546875 C 6.179688 -4.472656 6.085938 -4.4375 5.984375 -4.4375 L 1.984375 -4.4375 L 2.109375 -4.578125 L 2.109375 -0.71875 L 2.046875 -0.796875 L 6.59375 -0.796875 C 6.695312 -0.796875 6.789062 -0.753906 6.875 -0.671875 C 6.957031 -0.585938 7 -0.492188 7 -0.390625 C 7 -0.273438 6.957031 -0.179688 6.875 -0.109375 C 6.789062 -0.0351562 6.695312 0 6.59375 0 L 1.671875 0 C 1.554688 0 1.457031 -0.0351562 1.375 -0.109375 C 1.300781 -0.191406 1.265625 -0.289062 1.265625 -0.40625 L 1.265625 -9 C 1.265625 -9.101562 1.300781 -9.191406 1.375 -9.265625 C 1.457031 -9.347656 1.554688 -9.390625 1.671875 -9.390625 Z M 1.671875 -9.390625 "/></g></g></g><g fill="#000000" fill-opacity="1"><g transform="translate(34.100278, 13.065136)"><g/></g></g><g fill="#000000" fill-opacity="1"><g transform="translate(37.761871, 13.065136)"><g><path d="M 9.640625 -4.703125 C 9.640625 -3.992188 9.53125 -3.34375 9.3125 -2.75 C 9.09375 -2.164062 8.78125 -1.65625 8.375 -1.21875 C 7.96875 -0.789062 7.488281 -0.457031 6.9375 -0.21875 C 6.394531 0.0195312 5.796875 0.140625 5.140625 0.140625 C 4.484375 0.140625 3.878906 0.0195312 3.328125 -0.21875 C 2.785156 -0.457031 2.3125 -0.789062 1.90625 -1.21875 C 1.5 -1.65625 1.1875 -2.164062 0.96875 -2.75 C 0.75 -3.34375 0.640625 -3.992188 0.640625 -4.703125 C 0.640625 -5.410156 0.75 -6.054688 0.96875 -6.640625 C 1.1875 -7.222656 1.5 -7.726562 1.90625 -8.15625 C 2.3125 -8.59375 2.785156 -8.929688 3.328125 -9.171875 C 3.878906 -9.410156 4.484375 -9.53125 5.140625 -9.53125 C 5.796875 -9.53125 6.394531 -9.410156 6.9375 -9.171875 C 7.488281 -8.929688 7.96875 -8.59375 8.375 -8.15625 C 8.78125 -7.726562 9.09375 -7.222656 9.3125 -6.640625 C 9.53125 -6.054688 9.640625 -5.410156 9.640625 -4.703125 Z M 8.78125 -4.703125 C 8.78125 -5.492188 8.625 -6.191406 8.3125 -6.796875 C 8.007812 -7.398438 7.582031 -7.867188 7.03125 -8.203125 C 6.488281 -8.546875 5.859375 -8.71875 5.140625 -8.71875 C 4.429688 -8.71875 3.800781 -8.546875 3.25 -8.203125 C 2.695312 -7.867188 2.265625 -7.398438 1.953125 -6.796875 C 1.648438 -6.191406 1.5 -5.492188 1.5 -4.703125 C 1.5 -3.898438 1.648438 -3.195312 1.953125 -2.59375 C 2.265625 -1.988281 2.695312 -1.515625 3.25 -1.171875 C 3.800781 -0.835938 4.429688 -0.671875 5.140625 -0.671875 C 5.859375 -0.671875 6.488281 -0.835938 7.03125 -1.171875 C 7.582031 -1.515625 8.007812 -1.988281 8.3125 -2.59375 C 8.625 -3.195312 8.78125 -3.898438 8.78125 -4.703125 Z M 8.78125 -4.703125 "/></g></g></g><g fill="#000000" fill-opacity="1"><g transform="translate(48.035793, 13.065136)"><g><path d="M 1.671875 0 C 1.546875 0 1.445312 -0.0351562 1.375 -0.109375 C 1.300781 -0.191406 1.265625 -0.289062 1.265625 -0.40625 L 1.265625 -9 C 1.265625 -9.101562 1.300781 -9.191406 1.375 -9.265625 C 1.457031 -9.347656 1.554688 -9.390625 1.671875 -9.390625 L 6.546875 -9.390625 C 6.660156 -9.390625 6.753906 -9.351562 6.828125 -9.28125 C 6.910156 -9.207031 6.953125 -9.113281 6.953125 -9 C 6.953125 -8.882812 6.910156 -8.789062 6.828125 -8.71875 C 6.753906 -8.644531 6.660156 -8.609375 6.546875 -8.609375 L 2.03125 -8.609375 L 2.078125 -8.6875 L 2.078125 -5.109375 L 2.015625 -5.234375 L 5.953125 -5.234375 C 6.066406 -5.234375 6.160156 -5.191406 6.234375 -5.109375 C 6.304688 -5.035156 6.34375 -4.945312 6.34375 -4.84375 C 6.34375 -4.726562 6.304688 -4.632812 6.234375 -4.5625 C 6.160156 -4.488281 6.066406 -4.453125 5.953125 -4.453125 L 1.984375 -4.453125 L 2.078125 -4.5625 L 2.078125 -0.40625 C 2.078125 -0.289062 2.039062 -0.191406 1.96875 -0.109375 C 1.894531 -0.0351562 1.796875 0 1.671875 0 Z M 1.671875 0 "/></g></g></g><g fill="#000000" fill-opacity="1"><g transform="translate(55.627226, 13.065136)"><g/></g></g><g fill="#000000" fill-opacity="1"><g transform="translate(59.288819, 13.065136)"><g><path d="M 3.859375 0.140625 C 3.171875 0.140625 2.578125 0.03125 2.078125 -0.1875 C 1.578125 -0.414062 1.097656 -0.75 0.640625 -1.1875 C 0.597656 -1.226562 0.5625 -1.273438 0.53125 -1.328125 C 0.5 -1.378906 0.484375 -1.441406 0.484375 -1.515625 C 0.484375 -1.617188 0.523438 -1.71875 0.609375 -1.8125 C 0.691406 -1.90625 0.789062 -1.953125 0.90625 -1.953125 C 1.007812 -1.953125 1.101562 -1.90625 1.1875 -1.8125 C 1.539062 -1.4375 1.9375 -1.148438 2.375 -0.953125 C 2.820312 -0.753906 3.300781 -0.65625 3.8125 -0.65625 C 4.238281 -0.65625 4.617188 -0.722656 4.953125 -0.859375 C 5.296875 -0.992188 5.5625 -1.1875 5.75 -1.4375 C 5.945312 -1.6875 6.046875 -1.976562 6.046875 -2.3125 C 6.046875 -2.71875 5.929688 -3.046875 5.703125 -3.296875 C 5.484375 -3.554688 5.191406 -3.769531 4.828125 -3.9375 C 4.460938 -4.101562 4.054688 -4.253906 3.609375 -4.390625 C 3.242188 -4.492188 2.894531 -4.613281 2.5625 -4.75 C 2.226562 -4.894531 1.929688 -5.066406 1.671875 -5.265625 C 1.410156 -5.460938 1.207031 -5.707031 1.0625 -6 C 0.925781 -6.300781 0.859375 -6.664062 0.859375 -7.09375 C 0.859375 -7.5625 0.984375 -7.976562 1.234375 -8.34375 C 1.484375 -8.71875 1.835938 -9.007812 2.296875 -9.21875 C 2.765625 -9.425781 3.300781 -9.53125 3.90625 -9.53125 C 4.4375 -9.53125 4.941406 -9.441406 5.421875 -9.265625 C 5.910156 -9.085938 6.300781 -8.820312 6.59375 -8.46875 C 6.726562 -8.320312 6.796875 -8.191406 6.796875 -8.078125 C 6.796875 -7.992188 6.75 -7.90625 6.65625 -7.8125 C 6.5625 -7.71875 6.460938 -7.671875 6.359375 -7.671875 C 6.273438 -7.671875 6.203125 -7.703125 6.140625 -7.765625 C 5.984375 -7.953125 5.785156 -8.117188 5.546875 -8.265625 C 5.316406 -8.421875 5.0625 -8.535156 4.78125 -8.609375 C 4.5 -8.691406 4.207031 -8.734375 3.90625 -8.734375 C 3.488281 -8.734375 3.109375 -8.664062 2.765625 -8.53125 C 2.429688 -8.40625 2.164062 -8.222656 1.96875 -7.984375 C 1.78125 -7.742188 1.6875 -7.453125 1.6875 -7.109375 C 1.6875 -6.734375 1.789062 -6.425781 2 -6.1875 C 2.21875 -5.945312 2.5 -5.75 2.84375 -5.59375 C 3.195312 -5.4375 3.570312 -5.289062 3.96875 -5.15625 C 4.351562 -5.050781 4.722656 -4.925781 5.078125 -4.78125 C 5.429688 -4.644531 5.742188 -4.472656 6.015625 -4.265625 C 6.285156 -4.054688 6.5 -3.796875 6.65625 -3.484375 C 6.820312 -3.171875 6.90625 -2.78125 6.90625 -2.3125 C 6.90625 -1.851562 6.773438 -1.441406 6.515625 -1.078125 C 6.253906 -0.710938 5.894531 -0.421875 5.4375 -0.203125 C 4.988281 0.015625 4.460938 0.128906 3.859375 0.140625 Z M 3.859375 0.140625 "/></g></g></g><g fill="#000000" fill-opacity="1"><g transform="translate(66.826608, 13.065136)"><g><path d="M 1.671875 -9.390625 L 6.59375 -9.390625 C 6.695312 -9.390625 6.789062 -9.351562 6.875 -9.28125 C 6.957031 -9.207031 7 -9.113281 7 -9 C 7 -8.875 6.957031 -8.773438 6.875 -8.703125 C 6.789062 -8.640625 6.695312 -8.609375 6.59375 -8.609375 L 1.96875 -8.609375 L 2.109375 -8.828125 L 2.109375 -5.0625 L 1.953125 -5.234375 L 5.984375 -5.234375 C 6.085938 -5.234375 6.179688 -5.191406 6.265625 -5.109375 C 6.347656 -5.035156 6.390625 -4.941406 6.390625 -4.828125 C 6.390625 -4.710938 6.347656 -4.617188 6.265625 -4.546875 C 6.179688 -4.472656 6.085938 -4.4375 5.984375 -4.4375 L 1.984375 -4.4375 L 2.109375 -4.578125 L 2.109375 -0.71875 L 2.046875 -0.796875 L 6.59375 -0.796875 C 6.695312 -0.796875 6.789062 -0.753906 6.875 -0.671875 C 6.957031 -0.585938 7 -0.492188 7 -0.390625 C 7 -0.273438 6.957031 -0.179688 6.875 -0.109375 C 6.789062 -0.0351562 6.695312 0 6.59375 0 L 1.671875 0 C 1.554688 0 1.457031 -0.0351562 1.375 -0.109375 C 1.300781 -0.191406 1.265625 -0.289062 1.265625 -0.40625 L 1.265625 -9 C 1.265625 -9.101562 1.300781 -9.191406 1.375 -9.265625 C 1.457031 -9.347656 1.554688 -9.390625 1.671875 -9.390625 Z M 1.671875 -9.390625 "/></g></g></g><g fill="#000000" fill-opacity="1"><g transform="translate(74.444867, 13.065136)"><g><path d="M 1.71875 0 C 1.582031 0 1.472656 -0.0351562 1.390625 -0.109375 C 1.304688 -0.191406 1.265625 -0.289062 1.265625 -0.40625 L 1.265625 -9 C 1.265625 -9.101562 1.300781 -9.191406 1.375 -9.265625 C 1.457031 -9.347656 1.554688 -9.390625 1.671875 -9.390625 L 5.28125 -9.390625 C 5.789062 -9.390625 6.25 -9.28125 6.65625 -9.0625 C 7.0625 -8.84375 7.378906 -8.539062 7.609375 -8.15625 C 7.835938 -7.769531 7.953125 -7.335938 7.953125 -6.859375 C 7.953125 -6.460938 7.878906 -6.097656 7.734375 -5.765625 C 7.585938 -5.441406 7.382812 -5.164062 7.125 -4.9375 C 6.863281 -4.707031 6.570312 -4.535156 6.25 -4.421875 L 5.78125 -4.578125 C 6.113281 -4.546875 6.421875 -4.4375 6.703125 -4.25 C 6.992188 -4.070312 7.222656 -3.820312 7.390625 -3.5 C 7.566406 -3.1875 7.660156 -2.804688 7.671875 -2.359375 C 7.679688 -1.972656 7.703125 -1.671875 7.734375 -1.453125 C 7.765625 -1.242188 7.8125 -1.082031 7.875 -0.96875 C 7.9375 -0.863281 8.019531 -0.78125 8.125 -0.71875 C 8.207031 -0.664062 8.265625 -0.585938 8.296875 -0.484375 C 8.328125 -0.390625 8.316406 -0.300781 8.265625 -0.21875 C 8.234375 -0.144531 8.179688 -0.09375 8.109375 -0.0625 C 8.046875 -0.03125 7.976562 -0.015625 7.90625 -0.015625 C 7.832031 -0.015625 7.757812 -0.03125 7.6875 -0.0625 C 7.5625 -0.132812 7.429688 -0.242188 7.296875 -0.390625 C 7.171875 -0.546875 7.066406 -0.769531 6.984375 -1.0625 C 6.898438 -1.363281 6.859375 -1.78125 6.859375 -2.3125 C 6.859375 -2.65625 6.800781 -2.9375 6.6875 -3.15625 C 6.570312 -3.382812 6.425781 -3.554688 6.25 -3.671875 C 6.082031 -3.796875 5.894531 -3.882812 5.6875 -3.9375 C 5.476562 -3.988281 5.28125 -4.015625 5.09375 -4.015625 L 1.953125 -4.015625 L 2.109375 -4.203125 L 2.109375 -0.40625 C 2.109375 -0.289062 2.070312 -0.191406 2 -0.109375 C 1.925781 -0.0351562 1.832031 0 1.71875 0 Z M 1.953125 -4.75 L 5.328125 -4.75 C 5.628906 -4.78125 5.914062 -4.878906 6.1875 -5.046875 C 6.457031 -5.222656 6.675781 -5.460938 6.84375 -5.765625 C 7.007812 -6.078125 7.09375 -6.429688 7.09375 -6.828125 C 7.09375 -7.335938 6.914062 -7.757812 6.5625 -8.09375 C 6.21875 -8.4375 5.769531 -8.609375 5.21875 -8.609375 L 2.015625 -8.609375 L 2.109375 -8.796875 L 2.109375 -4.5625 Z M 1.953125 -4.75 "/></g></g></g><g fill="#000000" fill-opacity="1"><g transform="translate(83.22996, 13.065136)"><g><path d="M 8.046875 -9.40625 C 8.171875 -9.40625 8.269531 -9.367188 8.34375 -9.296875 C 8.425781 -9.222656 8.46875 -9.132812 8.46875 -9.03125 C 8.46875 -8.96875 8.453125 -8.898438 8.421875 -8.828125 L 4.84375 -0.265625 C 4.800781 -0.179688 4.742188 -0.113281 4.671875 -0.0625 C 4.597656 -0.0195312 4.523438 0 4.453125 0 C 4.367188 0 4.289062 -0.0195312 4.21875 -0.0625 C 4.15625 -0.113281 4.109375 -0.175781 4.078125 -0.25 L 0.515625 -8.796875 C 0.503906 -8.828125 0.492188 -8.859375 0.484375 -8.890625 C 0.472656 -8.929688 0.46875 -8.972656 0.46875 -9.015625 C 0.46875 -9.128906 0.507812 -9.222656 0.59375 -9.296875 C 0.675781 -9.367188 0.765625 -9.40625 0.859375 -9.40625 C 1.046875 -9.40625 1.179688 -9.304688 1.265625 -9.109375 L 4.609375 -1.09375 L 4.375 -1.09375 L 7.671875 -9.140625 C 7.765625 -9.316406 7.890625 -9.40625 8.046875 -9.40625 Z M 8.046875 -9.40625 "/></g></g></g><g fill="#000000" fill-opacity="1"><g transform="translate(92.149229, 13.065136)"><g><path d="M 2.109375 -0.421875 C 2.097656 -0.296875 2.050781 -0.191406 1.96875 -0.109375 C 1.882812 -0.0351562 1.785156 0 1.671875 0 C 1.546875 0 1.445312 -0.0351562 1.375 -0.109375 C 1.300781 -0.191406 1.265625 -0.296875 1.265625 -0.421875 L 1.265625 -8.984375 C 1.265625 -9.097656 1.300781 -9.191406 1.375 -9.265625 C 1.457031 -9.347656 1.5625 -9.390625 1.6875 -9.390625 C 1.800781 -9.390625 1.898438 -9.347656 1.984375 -9.265625 C 2.066406 -9.191406 2.109375 -9.097656 2.109375 -8.984375 Z M 2.109375 -0.421875 "/></g></g></g><g fill="#000000" fill-opacity="1"><g transform="translate(95.502335, 13.065136)"><g><path d="M 8.125 -8.703125 C 8.226562 -8.628906 8.285156 -8.535156 8.296875 -8.421875 C 8.316406 -8.304688 8.296875 -8.195312 8.234375 -8.09375 C 8.171875 -8.007812 8.085938 -7.960938 7.984375 -7.953125 C 7.890625 -7.953125 7.796875 -7.972656 7.703125 -8.015625 C 7.359375 -8.234375 6.992188 -8.40625 6.609375 -8.53125 C 6.222656 -8.65625 5.804688 -8.71875 5.359375 -8.71875 C 4.804688 -8.71875 4.296875 -8.617188 3.828125 -8.421875 C 3.359375 -8.234375 2.945312 -7.957031 2.59375 -7.59375 C 2.25 -7.238281 1.976562 -6.8125 1.78125 -6.3125 C 1.59375 -5.820312 1.5 -5.285156 1.5 -4.703125 C 1.5 -4.085938 1.597656 -3.53125 1.796875 -3.03125 C 1.992188 -2.539062 2.269531 -2.113281 2.625 -1.75 C 2.976562 -1.394531 3.382812 -1.125 3.84375 -0.9375 C 4.3125 -0.75 4.816406 -0.65625 5.359375 -0.65625 C 5.796875 -0.65625 6.207031 -0.71875 6.59375 -0.84375 C 6.988281 -0.96875 7.351562 -1.140625 7.6875 -1.359375 C 7.78125 -1.410156 7.878906 -1.425781 7.984375 -1.40625 C 8.085938 -1.394531 8.171875 -1.347656 8.234375 -1.265625 C 8.304688 -1.160156 8.332031 -1.050781 8.3125 -0.9375 C 8.289062 -0.832031 8.234375 -0.75 8.140625 -0.6875 C 7.910156 -0.539062 7.644531 -0.40625 7.34375 -0.28125 C 7.039062 -0.15625 6.71875 -0.0546875 6.375 0.015625 C 6.03125 0.0976562 5.691406 0.140625 5.359375 0.140625 C 4.710938 0.140625 4.109375 0.0234375 3.546875 -0.203125 C 2.984375 -0.441406 2.476562 -0.773438 2.03125 -1.203125 C 1.59375 -1.628906 1.25 -2.132812 1 -2.71875 C 0.757812 -3.3125 0.640625 -3.972656 0.640625 -4.703125 C 0.640625 -5.398438 0.757812 -6.039062 1 -6.625 C 1.25 -7.207031 1.585938 -7.710938 2.015625 -8.140625 C 2.441406 -8.578125 2.941406 -8.914062 3.515625 -9.15625 C 4.085938 -9.394531 4.703125 -9.515625 5.359375 -9.515625 C 5.867188 -9.515625 6.359375 -9.441406 6.828125 -9.296875 C 7.304688 -9.160156 7.738281 -8.960938 8.125 -8.703125 Z M 8.125 -8.703125 "/></g></g></g><g fill="#000000" fill-opacity="1"><g transform="translate(104.26065, 13.065136)"><g><path d="M 1.671875 -9.390625 L 6.59375 -9.390625 C 6.695312 -9.390625 6.789062 -9.351562 6.875 -9.28125 C 6.957031 -9.207031 7 -9.113281 7 -9 C 7 -8.875 6.957031 -8.773438 6.875 -8.703125 C 6.789062 -8.640625 6.695312 -8.609375 6.59375 -8.609375 L 1.96875 -8.609375 L 2.109375 -8.828125 L 2.109375 -5.0625 L 1.953125 -5.234375 L 5.984375 -5.234375 C 6.085938 -5.234375 6.179688 -5.191406 6.265625 -5.109375 C 6.347656 -5.035156 6.390625 -4.941406 6.390625 -4.828125 C 6.390625 -4.710938 6.347656 -4.617188 6.265625 -4.546875 C 6.179688 -4.472656 6.085938 -4.4375 5.984375 -4.4375 L 1.984375 -4.4375 L 2.109375 -4.578125 L 2.109375 -0.71875 L 2.046875 -0.796875 L 6.59375 -0.796875 C 6.695312 -0.796875 6.789062 -0.753906 6.875 -0.671875 C 6.957031 -0.585938 7 -0.492188 7 -0.390625 C 7 -0.273438 6.957031 -0.179688 6.875 -0.109375 C 6.789062 -0.0351562 6.695312 0 6.59375 0 L 1.671875 0 C 1.554688 0 1.457031 -0.0351562 1.375 -0.109375 C 1.300781 -0.191406 1.265625 -0.289062 1.265625 -0.40625 L 1.265625 -9 C 1.265625 -9.101562 1.300781 -9.191406 1.375 -9.265625 C 1.457031 -9.347656 1.554688 -9.390625 1.671875 -9.390625 Z M 1.671875 -9.390625 "/></g></g></g></g></g><g transform="matrix(1, 0, 0, 1, 330, 142)"><g clip-path="url(#7443472112)"><g fill="#000000" fill-opacity="1"><g transform="translate(0.689211, 13.065136)"><g><path d="M 8.125 -8.703125 C 8.226562 -8.628906 8.285156 -8.535156 8.296875 -8.421875 C 8.316406 -8.304688 8.296875 -8.195312 8.234375 -8.09375 C 8.171875 -8.007812 8.085938 -7.960938 7.984375 -7.953125 C 7.890625 -7.953125 7.796875 -7.972656 7.703125 -8.015625 C 7.359375 -8.234375 6.992188 -8.40625 6.609375 -8.53125 C 6.222656 -8.65625 5.804688 -8.71875 5.359375 -8.71875 C 4.804688 -8.71875 4.296875 -8.617188 3.828125 -8.421875 C 3.359375 -8.234375 2.945312 -7.957031 2.59375 -7.59375 C 2.25 -7.238281 1.976562 -6.8125 1.78125 -6.3125 C 1.59375 -5.820312 1.5 -5.285156 1.5 -4.703125 C 1.5 -4.085938 1.597656 -3.53125 1.796875 -3.03125 C 1.992188 -2.539062 2.269531 -2.113281 2.625 -1.75 C 2.976562 -1.394531 3.382812 -1.125 3.84375 -0.9375 C 4.3125 -0.75 4.816406 -0.65625 5.359375 -0.65625 C 5.796875 -0.65625 6.207031 -0.71875 6.59375 -0.84375 C 6.988281 -0.96875 7.351562 -1.140625 7.6875 -1.359375 C 7.78125 -1.410156 7.878906 -1.425781 7.984375 -1.40625 C 8.085938 -1.394531 8.171875 -1.347656 8.234375 -1.265625 C 8.304688 -1.160156 8.332031 -1.050781 8.3125 -0.9375 C 8.289062 -0.832031 8.234375 -0.75 8.140625 -0.6875 C 7.910156 -0.539062 7.644531 -0.40625 7.34375 -0.28125 C 7.039062 -0.15625 6.71875 -0.0546875 6.375 0.015625 C 6.03125 0.0976562 5.691406 0.140625 5.359375 0.140625 C 4.710938 0.140625 4.109375 0.0234375 3.546875 -0.203125 C 2.984375 -0.441406 2.476562 -0.773438 2.03125 -1.203125 C 1.59375 -1.628906 1.25 -2.132812 1 -2.71875 C 0.757812 -3.3125 0.640625 -3.972656 0.640625 -4.703125 C 0.640625 -5.398438 0.757812 -6.039062 1 -6.625 C 1.25 -7.207031 1.585938 -7.710938 2.015625 -8.140625 C 2.441406 -8.578125 2.941406 -8.914062 3.515625 -9.15625 C 4.085938 -9.394531 4.703125 -9.515625 5.359375 -9.515625 C 5.867188 -9.515625 6.359375 -9.441406 6.828125 -9.296875 C 7.304688 -9.160156 7.738281 -8.960938 8.125 -8.703125 Z M 8.125 -8.703125 "/></g></g></g><g fill="#000000" fill-opacity="1"><g transform="translate(9.447527, 13.065136)"><g><path d="M 4.84375 -9.390625 C 5.34375 -9.390625 5.785156 -9.273438 6.171875 -9.046875 C 6.554688 -8.816406 6.859375 -8.5 7.078125 -8.09375 C 7.304688 -7.695312 7.421875 -7.238281 7.421875 -6.71875 C 7.421875 -6.207031 7.304688 -5.742188 7.078125 -5.328125 C 6.859375 -4.910156 6.554688 -4.578125 6.171875 -4.328125 C 5.785156 -4.085938 5.34375 -3.96875 4.84375 -3.96875 L 2 -3.96875 L 2.0625 -4.109375 L 2.0625 -0.40625 C 2.0625 -0.289062 2.019531 -0.191406 1.9375 -0.109375 C 1.863281 -0.0351562 1.773438 0 1.671875 0 C 1.535156 0 1.429688 -0.0351562 1.359375 -0.109375 C 1.296875 -0.191406 1.265625 -0.289062 1.265625 -0.40625 L 1.265625 -9 C 1.265625 -9.101562 1.300781 -9.191406 1.375 -9.265625 C 1.457031 -9.347656 1.554688 -9.390625 1.671875 -9.390625 Z M 4.84375 -4.75 C 5.195312 -4.75 5.5 -4.835938 5.75 -5.015625 C 6.007812 -5.191406 6.210938 -5.425781 6.359375 -5.71875 C 6.515625 -6.019531 6.59375 -6.351562 6.59375 -6.71875 C 6.59375 -7.09375 6.515625 -7.421875 6.359375 -7.703125 C 6.210938 -7.984375 6.007812 -8.203125 5.75 -8.359375 C 5.5 -8.523438 5.195312 -8.609375 4.84375 -8.609375 L 2 -8.609375 L 2.0625 -8.71875 L 2.0625 -4.671875 L 1.984375 -4.75 Z M 4.84375 -4.75 "/></g></g></g><g fill="#000000" fill-opacity="1"><g transform="translate(17.441336, 13.065136)"><g><path d="M 4.046875 0 C 3.921875 0 3.820312 -0.0351562 3.75 -0.109375 C 3.675781 -0.191406 3.640625 -0.289062 3.640625 -0.40625 L 3.640625 -8.953125 L 4.46875 -8.953125 L 4.46875 -0.40625 C 4.46875 -0.289062 4.425781 -0.191406 4.34375 -0.109375 C 4.269531 -0.0351562 4.171875 0 4.046875 0 Z M 0.859375 -8.625 C 0.753906 -8.625 0.660156 -8.660156 0.578125 -8.734375 C 0.492188 -8.804688 0.453125 -8.898438 0.453125 -9.015625 C 0.453125 -9.128906 0.492188 -9.21875 0.578125 -9.28125 C 0.660156 -9.351562 0.753906 -9.390625 0.859375 -9.390625 L 7.25 -9.390625 C 7.351562 -9.390625 7.445312 -9.351562 7.53125 -9.28125 C 7.613281 -9.21875 7.65625 -9.125 7.65625 -9 C 7.65625 -8.882812 7.613281 -8.789062 7.53125 -8.71875 C 7.445312 -8.65625 7.351562 -8.625 7.25 -8.625 Z M 0.859375 -8.625 "/></g></g></g><g fill="#000000" fill-opacity="1"><g transform="translate(25.542447, 13.065136)"><g/></g></g><g fill="#000000" fill-opacity="1"><g transform="translate(29.20404, 13.065136)"><g><path d="M 8.125 -8.703125 C 8.226562 -8.628906 8.285156 -8.535156 8.296875 -8.421875 C 8.316406 -8.304688 8.296875 -8.195312 8.234375 -8.09375 C 8.171875 -8.007812 8.085938 -7.960938 7.984375 -7.953125 C 7.890625 -7.953125 7.796875 -7.972656 7.703125 -8.015625 C 7.359375 -8.234375 6.992188 -8.40625 6.609375 -8.53125 C 6.222656 -8.65625 5.804688 -8.71875 5.359375 -8.71875 C 4.804688 -8.71875 4.296875 -8.617188 3.828125 -8.421875 C 3.359375 -8.234375 2.945312 -7.957031 2.59375 -7.59375 C 2.25 -7.238281 1.976562 -6.8125 1.78125 -6.3125 C 1.59375 -5.820312 1.5 -5.285156 1.5 -4.703125 C 1.5 -4.085938 1.597656 -3.53125 1.796875 -3.03125 C 1.992188 -2.539062 2.269531 -2.113281 2.625 -1.75 C 2.976562 -1.394531 3.382812 -1.125 3.84375 -0.9375 C 4.3125 -0.75 4.816406 -0.65625 5.359375 -0.65625 C 5.796875 -0.65625 6.207031 -0.71875 6.59375 -0.84375 C 6.988281 -0.96875 7.351562 -1.140625 7.6875 -1.359375 C 7.78125 -1.410156 7.878906 -1.425781 7.984375 -1.40625 C 8.085938 -1.394531 8.171875 -1.347656 8.234375 -1.265625 C 8.304688 -1.160156 8.332031 -1.050781 8.3125 -0.9375 C 8.289062 -0.832031 8.234375 -0.75 8.140625 -0.6875 C 7.910156 -0.539062 7.644531 -0.40625 7.34375 -0.28125 C 7.039062 -0.15625 6.71875 -0.0546875 6.375 0.015625 C 6.03125 0.0976562 5.691406 0.140625 5.359375 0.140625 C 4.710938 0.140625 4.109375 0.0234375 3.546875 -0.203125 C 2.984375 -0.441406 2.476562 -0.773438 2.03125 -1.203125 C 1.59375 -1.628906 1.25 -2.132812 1 -2.71875 C 0.757812 -3.3125 0.640625 -3.972656 0.640625 -4.703125 C 0.640625 -5.398438 0.757812 -6.039062 1 -6.625 C 1.25 -7.207031 1.585938 -7.710938 2.015625 -8.140625 C 2.441406 -8.578125 2.941406 -8.914062 3.515625 -9.15625 C 4.085938 -9.394531 4.703125 -9.515625 5.359375 -9.515625 C 5.867188 -9.515625 6.359375 -9.441406 6.828125 -9.296875 C 7.304688 -9.160156 7.738281 -8.960938 8.125 -8.703125 Z M 8.125 -8.703125 "/></g></g></g><g fill="#000000" fill-opacity="1"><g transform="translate(37.962355, 13.065136)"><g><path d="M 9.640625 -4.703125 C 9.640625 -3.992188 9.53125 -3.34375 9.3125 -2.75 C 9.09375 -2.164062 8.78125 -1.65625 8.375 -1.21875 C 7.96875 -0.789062 7.488281 -0.457031 6.9375 -0.21875 C 6.394531 0.0195312 5.796875 0.140625 5.140625 0.140625 C 4.484375 0.140625 3.878906 0.0195312 3.328125 -0.21875 C 2.785156 -0.457031 2.3125 -0.789062 1.90625 -1.21875 C 1.5 -1.65625 1.1875 -2.164062 0.96875 -2.75 C 0.75 -3.34375 0.640625 -3.992188 0.640625 -4.703125 C 0.640625 -5.410156 0.75 -6.054688 0.96875 -6.640625 C 1.1875 -7.222656 1.5 -7.726562 1.90625 -8.15625 C 2.3125 -8.59375 2.785156 -8.929688 3.328125 -9.171875 C 3.878906 -9.410156 4.484375 -9.53125 5.140625 -9.53125 C 5.796875 -9.53125 6.394531 -9.410156 6.9375 -9.171875 C 7.488281 -8.929688 7.96875 -8.59375 8.375 -8.15625 C 8.78125 -7.726562 9.09375 -7.222656 9.3125 -6.640625 C 9.53125 -6.054688 9.640625 -5.410156 9.640625 -4.703125 Z M 8.78125 -4.703125 C 8.78125 -5.492188 8.625 -6.191406 8.3125 -6.796875 C 8.007812 -7.398438 7.582031 -7.867188 7.03125 -8.203125 C 6.488281 -8.546875 5.859375 -8.71875 5.140625 -8.71875 C 4.429688 -8.71875 3.800781 -8.546875 3.25 -8.203125 C 2.695312 -7.867188 2.265625 -7.398438 1.953125 -6.796875 C 1.648438 -6.191406 1.5 -5.492188 1.5 -4.703125 C 1.5 -3.898438 1.648438 -3.195312 1.953125 -2.59375 C 2.265625 -1.988281 2.695312 -1.515625 3.25 -1.171875 C 3.800781 -0.835938 4.429688 -0.671875 5.140625 -0.671875 C 5.859375 -0.671875 6.488281 -0.835938 7.03125 -1.171875 C 7.582031 -1.515625 8.007812 -1.988281 8.3125 -2.59375 C 8.625 -3.195312 8.78125 -3.898438 8.78125 -4.703125 Z M 8.78125 -4.703125 "/></g></g></g><g fill="#000000" fill-opacity="1"><g transform="translate(48.236277, 13.065136)"><g><path d="M 5.09375 -9.390625 C 5.75 -9.390625 6.320312 -9.265625 6.8125 -9.015625 C 7.3125 -8.765625 7.722656 -8.414062 8.046875 -7.96875 C 8.367188 -7.53125 8.609375 -7.03125 8.765625 -6.46875 C 8.921875 -5.90625 9 -5.316406 9 -4.703125 C 9 -3.835938 8.859375 -3.050781 8.578125 -2.34375 C 8.296875 -1.632812 7.863281 -1.066406 7.28125 -0.640625 C 6.707031 -0.210938 5.976562 0 5.09375 0 L 1.671875 0 C 1.554688 0 1.457031 -0.0351562 1.375 -0.109375 C 1.300781 -0.191406 1.265625 -0.289062 1.265625 -0.40625 L 1.265625 -9 C 1.265625 -9.101562 1.300781 -9.191406 1.375 -9.265625 C 1.457031 -9.347656 1.554688 -9.390625 1.671875 -9.390625 Z M 4.953125 -0.796875 C 5.710938 -0.796875 6.320312 -0.96875 6.78125 -1.3125 C 7.25 -1.664062 7.59375 -2.140625 7.8125 -2.734375 C 8.03125 -3.328125 8.140625 -3.984375 8.140625 -4.703125 C 8.140625 -5.210938 8.078125 -5.703125 7.953125 -6.171875 C 7.835938 -6.648438 7.648438 -7.066406 7.390625 -7.421875 C 7.140625 -7.785156 6.8125 -8.070312 6.40625 -8.28125 C 6 -8.5 5.515625 -8.609375 4.953125 -8.609375 L 2.015625 -8.609375 L 2.109375 -8.71875 L 2.109375 -0.65625 L 2.03125 -0.796875 Z M 4.953125 -0.796875 "/></g></g></g><g fill="#000000" fill-opacity="1"><g transform="translate(57.879814, 13.065136)"><g><path d="M 1.671875 -9.390625 L 6.59375 -9.390625 C 6.695312 -9.390625 6.789062 -9.351562 6.875 -9.28125 C 6.957031 -9.207031 7 -9.113281 7 -9 C 7 -8.875 6.957031 -8.773438 6.875 -8.703125 C 6.789062 -8.640625 6.695312 -8.609375 6.59375 -8.609375 L 1.96875 -8.609375 L 2.109375 -8.828125 L 2.109375 -5.0625 L 1.953125 -5.234375 L 5.984375 -5.234375 C 6.085938 -5.234375 6.179688 -5.191406 6.265625 -5.109375 C 6.347656 -5.035156 6.390625 -4.941406 6.390625 -4.828125 C 6.390625 -4.710938 6.347656 -4.617188 6.265625 -4.546875 C 6.179688 -4.472656 6.085938 -4.4375 5.984375 -4.4375 L 1.984375 -4.4375 L 2.109375 -4.578125 L 2.109375 -0.71875 L 2.046875 -0.796875 L 6.59375 -0.796875 C 6.695312 -0.796875 6.789062 -0.753906 6.875 -0.671875 C 6.957031 -0.585938 7 -0.492188 7 -0.390625 C 7 -0.273438 6.957031 -0.179688 6.875 -0.109375 C 6.789062 -0.0351562 6.695312 0 6.59375 0 L 1.671875 0 C 1.554688 0 1.457031 -0.0351562 1.375 -0.109375 C 1.300781 -0.191406 1.265625 -0.289062 1.265625 -0.40625 L 1.265625 -9 C 1.265625 -9.101562 1.300781 -9.191406 1.375 -9.265625 C 1.457031 -9.347656 1.554688 -9.390625 1.671875 -9.390625 Z M 1.671875 -9.390625 "/></g></g></g></g></g><g transform="matrix(1, 0, 0, 1, 493, 142)"><g clip-path="url(#1dc5ec99a8)"><g fill="#000000" fill-opacity="1"><g transform="translate(1.437802, 13.065136)"><g><path d="M 1.671875 0 C 1.546875 0 1.445312 -0.0351562 1.375 -0.109375 C 1.300781 -0.191406 1.265625 -0.289062 1.265625 -0.40625 L 1.265625 -9 C 1.265625 -9.101562 1.300781 -9.191406 1.375 -9.265625 C 1.457031 -9.347656 1.554688 -9.390625 1.671875 -9.390625 L 6.546875 -9.390625 C 6.660156 -9.390625 6.753906 -9.351562 6.828125 -9.28125 C 6.910156 -9.207031 6.953125 -9.113281 6.953125 -9 C 6.953125 -8.882812 6.910156 -8.789062 6.828125 -8.71875 C 6.753906 -8.644531 6.660156 -8.609375 6.546875 -8.609375 L 2.03125 -8.609375 L 2.078125 -8.6875 L 2.078125 -5.109375 L 2.015625 -5.234375 L 5.953125 -5.234375 C 6.066406 -5.234375 6.160156 -5.191406 6.234375 -5.109375 C 6.304688 -5.035156 6.34375 -4.945312 6.34375 -4.84375 C 6.34375 -4.726562 6.304688 -4.632812 6.234375 -4.5625 C 6.160156 -4.488281 6.066406 -4.453125 5.953125 -4.453125 L 1.984375 -4.453125 L 2.078125 -4.5625 L 2.078125 -0.40625 C 2.078125 -0.289062 2.039062 -0.191406 1.96875 -0.109375 C 1.894531 -0.0351562 1.796875 0 1.671875 0 Z M 1.671875 0 "/></g></g></g><g fill="#000000" fill-opacity="1"><g transform="translate(9.029236, 13.065136)"><g><path d="M 1.671875 -9.390625 L 6.59375 -9.390625 C 6.695312 -9.390625 6.789062 -9.351562 6.875 -9.28125 C 6.957031 -9.207031 7 -9.113281 7 -9 C 7 -8.875 6.957031 -8.773438 6.875 -8.703125 C 6.789062 -8.640625 6.695312 -8.609375 6.59375 -8.609375 L 1.96875 -8.609375 L 2.109375 -8.828125 L 2.109375 -5.0625 L 1.953125 -5.234375 L 5.984375 -5.234375 C 6.085938 -5.234375 6.179688 -5.191406 6.265625 -5.109375 C 6.347656 -5.035156 6.390625 -4.941406 6.390625 -4.828125 C 6.390625 -4.710938 6.347656 -4.617188 6.265625 -4.546875 C 6.179688 -4.472656 6.085938 -4.4375 5.984375 -4.4375 L 1.984375 -4.4375 L 2.109375 -4.578125 L 2.109375 -0.71875 L 2.046875 -0.796875 L 6.59375 -0.796875 C 6.695312 -0.796875 6.789062 -0.753906 6.875 -0.671875 C 6.957031 -0.585938 7 -0.492188 7 -0.390625 C 7 -0.273438 6.957031 -0.179688 6.875 -0.109375 C 6.789062 -0.0351562 6.695312 0 6.59375 0 L 1.671875 0 C 1.554688 0 1.457031 -0.0351562 1.375 -0.109375 C 1.300781 -0.191406 1.265625 -0.289062 1.265625 -0.40625 L 1.265625 -9 C 1.265625 -9.101562 1.300781 -9.191406 1.375 -9.265625 C 1.457031 -9.347656 1.554688 -9.390625 1.671875 -9.390625 Z M 1.671875 -9.390625 "/></g></g></g><g fill="#000000" fill-opacity="1"><g transform="translate(16.647495, 13.065136)"><g><path d="M 1.671875 -9.390625 L 6.59375 -9.390625 C 6.695312 -9.390625 6.789062 -9.351562 6.875 -9.28125 C 6.957031 -9.207031 7 -9.113281 7 -9 C 7 -8.875 6.957031 -8.773438 6.875 -8.703125 C 6.789062 -8.640625 6.695312 -8.609375 6.59375 -8.609375 L 1.96875 -8.609375 L 2.109375 -8.828125 L 2.109375 -5.0625 L 1.953125 -5.234375 L 5.984375 -5.234375 C 6.085938 -5.234375 6.179688 -5.191406 6.265625 -5.109375 C 6.347656 -5.035156 6.390625 -4.941406 6.390625 -4.828125 C 6.390625 -4.710938 6.347656 -4.617188 6.265625 -4.546875 C 6.179688 -4.472656 6.085938 -4.4375 5.984375 -4.4375 L 1.984375 -4.4375 L 2.109375 -4.578125 L 2.109375 -0.71875 L 2.046875 -0.796875 L 6.59375 -0.796875 C 6.695312 -0.796875 6.789062 -0.753906 6.875 -0.671875 C 6.957031 -0.585938 7 -0.492188 7 -0.390625 C 7 -0.273438 6.957031 -0.179688 6.875 -0.109375 C 6.789062 -0.0351562 6.695312 0 6.59375 0 L 1.671875 0 C 1.554688 0 1.457031 -0.0351562 1.375 -0.109375 C 1.300781 -0.191406 1.265625 -0.289062 1.265625 -0.40625 L 1.265625 -9 C 1.265625 -9.101562 1.300781 -9.191406 1.375 -9.265625 C 1.457031 -9.347656 1.554688 -9.390625 1.671875 -9.390625 Z M 1.671875 -9.390625 "/></g></g></g></g></g><g transform="matrix(1, 0, 0, 1, 627, 142)"><g clip-path="url(#b771fa9cb9)"><g fill="#000000" fill-opacity="1"><g transform="translate(0.565376, 13.065136)"><g><path d="M 8.125 -8.703125 C 8.226562 -8.628906 8.285156 -8.535156 8.296875 -8.421875 C 8.316406 -8.304688 8.296875 -8.195312 8.234375 -8.09375 C 8.171875 -8.007812 8.085938 -7.960938 7.984375 -7.953125 C 7.890625 -7.953125 7.796875 -7.972656 7.703125 -8.015625 C 7.359375 -8.234375 6.992188 -8.40625 6.609375 -8.53125 C 6.222656 -8.65625 5.804688 -8.71875 5.359375 -8.71875 C 4.804688 -8.71875 4.296875 -8.617188 3.828125 -8.421875 C 3.359375 -8.234375 2.945312 -7.957031 2.59375 -7.59375 C 2.25 -7.238281 1.976562 -6.8125 1.78125 -6.3125 C 1.59375 -5.820312 1.5 -5.285156 1.5 -4.703125 C 1.5 -4.085938 1.597656 -3.53125 1.796875 -3.03125 C 1.992188 -2.539062 2.269531 -2.113281 2.625 -1.75 C 2.976562 -1.394531 3.382812 -1.125 3.84375 -0.9375 C 4.3125 -0.75 4.816406 -0.65625 5.359375 -0.65625 C 5.796875 -0.65625 6.207031 -0.71875 6.59375 -0.84375 C 6.988281 -0.96875 7.351562 -1.140625 7.6875 -1.359375 C 7.78125 -1.410156 7.878906 -1.425781 7.984375 -1.40625 C 8.085938 -1.394531 8.171875 -1.347656 8.234375 -1.265625 C 8.304688 -1.160156 8.332031 -1.050781 8.3125 -0.9375 C 8.289062 -0.832031 8.234375 -0.75 8.140625 -0.6875 C 7.910156 -0.539062 7.644531 -0.40625 7.34375 -0.28125 C 7.039062 -0.15625 6.71875 -0.0546875 6.375 0.015625 C 6.03125 0.0976562 5.691406 0.140625 5.359375 0.140625 C 4.710938 0.140625 4.109375 0.0234375 3.546875 -0.203125 C 2.984375 -0.441406 2.476562 -0.773438 2.03125 -1.203125 C 1.59375 -1.628906 1.25 -2.132812 1 -2.71875 C 0.757812 -3.3125 0.640625 -3.972656 0.640625 -4.703125 C 0.640625 -5.398438 0.757812 -6.039062 1 -6.625 C 1.25 -7.207031 1.585938 -7.710938 2.015625 -8.140625 C 2.441406 -8.578125 2.941406 -8.914062 3.515625 -9.15625 C 4.085938 -9.394531 4.703125 -9.515625 5.359375 -9.515625 C 5.867188 -9.515625 6.359375 -9.441406 6.828125 -9.296875 C 7.304688 -9.160156 7.738281 -8.960938 8.125 -8.703125 Z M 8.125 -8.703125 "/></g></g></g><g fill="#000000" fill-opacity="1"><g transform="translate(9.323692, 13.065136)"><g><path d="M 9.640625 -4.703125 C 9.640625 -3.992188 9.53125 -3.34375 9.3125 -2.75 C 9.09375 -2.164062 8.78125 -1.65625 8.375 -1.21875 C 7.96875 -0.789062 7.488281 -0.457031 6.9375 -0.21875 C 6.394531 0.0195312 5.796875 0.140625 5.140625 0.140625 C 4.484375 0.140625 3.878906 0.0195312 3.328125 -0.21875 C 2.785156 -0.457031 2.3125 -0.789062 1.90625 -1.21875 C 1.5 -1.65625 1.1875 -2.164062 0.96875 -2.75 C 0.75 -3.34375 0.640625 -3.992188 0.640625 -4.703125 C 0.640625 -5.410156 0.75 -6.054688 0.96875 -6.640625 C 1.1875 -7.222656 1.5 -7.726562 1.90625 -8.15625 C 2.3125 -8.59375 2.785156 -8.929688 3.328125 -9.171875 C 3.878906 -9.410156 4.484375 -9.53125 5.140625 -9.53125 C 5.796875 -9.53125 6.394531 -9.410156 6.9375 -9.171875 C 7.488281 -8.929688 7.96875 -8.59375 8.375 -8.15625 C 8.78125 -7.726562 9.09375 -7.222656 9.3125 -6.640625 C 9.53125 -6.054688 9.640625 -5.410156 9.640625 -4.703125 Z M 8.78125 -4.703125 C 8.78125 -5.492188 8.625 -6.191406 8.3125 -6.796875 C 8.007812 -7.398438 7.582031 -7.867188 7.03125 -8.203125 C 6.488281 -8.546875 5.859375 -8.71875 5.140625 -8.71875 C 4.429688 -8.71875 3.800781 -8.546875 3.25 -8.203125 C 2.695312 -7.867188 2.265625 -7.398438 1.953125 -6.796875 C 1.648438 -6.191406 1.5 -5.492188 1.5 -4.703125 C 1.5 -3.898438 1.648438 -3.195312 1.953125 -2.59375 C 2.265625 -1.988281 2.695312 -1.515625 3.25 -1.171875 C 3.800781 -0.835938 4.429688 -0.671875 5.140625 -0.671875 C 5.859375 -0.671875 6.488281 -0.835938 7.03125 -1.171875 C 7.582031 -1.515625 8.007812 -1.988281 8.3125 -2.59375 C 8.625 -3.195312 8.78125 -3.898438 8.78125 -4.703125 Z M 8.78125 -4.703125 "/></g></g></g><g fill="#000000" fill-opacity="1"><g transform="translate(19.597614, 13.065136)"><g><path d="M 4.84375 -9.390625 C 5.34375 -9.390625 5.785156 -9.273438 6.171875 -9.046875 C 6.554688 -8.816406 6.859375 -8.5 7.078125 -8.09375 C 7.304688 -7.695312 7.421875 -7.238281 7.421875 -6.71875 C 7.421875 -6.207031 7.304688 -5.742188 7.078125 -5.328125 C 6.859375 -4.910156 6.554688 -4.578125 6.171875 -4.328125 C 5.785156 -4.085938 5.34375 -3.96875 4.84375 -3.96875 L 2 -3.96875 L 2.0625 -4.109375 L 2.0625 -0.40625 C 2.0625 -0.289062 2.019531 -0.191406 1.9375 -0.109375 C 1.863281 -0.0351562 1.773438 0 1.671875 0 C 1.535156 0 1.429688 -0.0351562 1.359375 -0.109375 C 1.296875 -0.191406 1.265625 -0.289062 1.265625 -0.40625 L 1.265625 -9 C 1.265625 -9.101562 1.300781 -9.191406 1.375 -9.265625 C 1.457031 -9.347656 1.554688 -9.390625 1.671875 -9.390625 Z M 4.84375 -4.75 C 5.195312 -4.75 5.5 -4.835938 5.75 -5.015625 C 6.007812 -5.191406 6.210938 -5.425781 6.359375 -5.71875 C 6.515625 -6.019531 6.59375 -6.351562 6.59375 -6.71875 C 6.59375 -7.09375 6.515625 -7.421875 6.359375 -7.703125 C 6.210938 -7.984375 6.007812 -8.203125 5.75 -8.359375 C 5.5 -8.523438 5.195312 -8.609375 4.84375 -8.609375 L 2 -8.609375 L 2.0625 -8.71875 L 2.0625 -4.671875 L 1.984375 -4.75 Z M 4.84375 -4.75 "/></g></g></g><g fill="#000000" fill-opacity="1"><g transform="translate(27.054776, 13.065136)"><g><path d="M 4.40625 -8.359375 L 1.140625 -0.25 C 1.109375 -0.164062 1.0625 -0.0976562 1 -0.046875 C 0.9375 -0.00390625 0.863281 0.015625 0.78125 0.015625 C 0.65625 0.015625 0.5625 -0.015625 0.5 -0.078125 C 0.4375 -0.148438 0.398438 -0.234375 0.390625 -0.328125 C 0.378906 -0.378906 0.382812 -0.4375 0.40625 -0.5 L 3.953125 -9.171875 C 3.992188 -9.265625 4.046875 -9.332031 4.109375 -9.375 C 4.179688 -9.414062 4.257812 -9.4375 4.34375 -9.4375 C 4.4375 -9.4375 4.515625 -9.410156 4.578125 -9.359375 C 4.648438 -9.304688 4.703125 -9.242188 4.734375 -9.171875 L 8.265625 -0.53125 C 8.285156 -0.476562 8.296875 -0.425781 8.296875 -0.375 C 8.296875 -0.25 8.253906 -0.148438 8.171875 -0.078125 C 8.085938 -0.015625 7.992188 0.015625 7.890625 0.015625 C 7.796875 0.015625 7.71875 -0.0078125 7.65625 -0.0625 C 7.59375 -0.113281 7.539062 -0.175781 7.5 -0.25 L 4.15625 -8.421875 Z M 1.921875 -2.71875 L 2.25 -3.5 L 6.421875 -3.5 L 6.578125 -2.71875 Z M 1.921875 -2.71875 "/></g></g></g><g fill="#000000" fill-opacity="1"><g transform="translate(35.15573, 13.065136)"><g><path d="M 6.859375 -9.453125 C 6.972656 -9.453125 7.066406 -9.40625 7.140625 -9.3125 C 7.222656 -9.226562 7.265625 -9.140625 7.265625 -9.046875 C 7.265625 -9.003906 7.253906 -8.960938 7.234375 -8.921875 C 7.222656 -8.878906 7.207031 -8.835938 7.1875 -8.796875 L 4.03125 -4.453125 L 4.1875 -4.984375 L 4.1875 -0.40625 C 4.1875 -0.289062 4.144531 -0.191406 4.0625 -0.109375 C 3.988281 -0.0351562 3.890625 0 3.765625 0 C 3.648438 0 3.554688 -0.0351562 3.484375 -0.109375 C 3.410156 -0.191406 3.375 -0.289062 3.375 -0.40625 L 3.375 -4.890625 L 3.4375 -4.5625 L 0.359375 -8.765625 C 0.328125 -8.804688 0.300781 -8.851562 0.28125 -8.90625 C 0.257812 -8.957031 0.25 -9.003906 0.25 -9.046875 C 0.25 -9.160156 0.296875 -9.253906 0.390625 -9.328125 C 0.484375 -9.410156 0.582031 -9.453125 0.6875 -9.453125 C 0.820312 -9.453125 0.929688 -9.390625 1.015625 -9.265625 L 3.90625 -5.328125 L 3.703125 -5.359375 L 6.515625 -9.265625 C 6.597656 -9.390625 6.710938 -9.453125 6.859375 -9.453125 Z M 6.859375 -9.453125 "/></g></g></g></g></g><g transform="matrix(1, 0, 0, 1, 758, 142)"><g clip-path="url(#2c4bbbbce1)"><g fill="#000000" fill-opacity="1"><g transform="translate(0.318538, 13.065136)"><g><path d="M 5.09375 -9.390625 C 5.75 -9.390625 6.320312 -9.265625 6.8125 -9.015625 C 7.3125 -8.765625 7.722656 -8.414062 8.046875 -7.96875 C 8.367188 -7.53125 8.609375 -7.03125 8.765625 -6.46875 C 8.921875 -5.90625 9 -5.316406 9 -4.703125 C 9 -3.835938 8.859375 -3.050781 8.578125 -2.34375 C 8.296875 -1.632812 7.863281 -1.066406 7.28125 -0.640625 C 6.707031 -0.210938 5.976562 0 5.09375 0 L 1.671875 0 C 1.554688 0 1.457031 -0.0351562 1.375 -0.109375 C 1.300781 -0.191406 1.265625 -0.289062 1.265625 -0.40625 L 1.265625 -9 C 1.265625 -9.101562 1.300781 -9.191406 1.375 -9.265625 C 1.457031 -9.347656 1.554688 -9.390625 1.671875 -9.390625 Z M 4.953125 -0.796875 C 5.710938 -0.796875 6.320312 -0.96875 6.78125 -1.3125 C 7.25 -1.664062 7.59375 -2.140625 7.8125 -2.734375 C 8.03125 -3.328125 8.140625 -3.984375 8.140625 -4.703125 C 8.140625 -5.210938 8.078125 -5.703125 7.953125 -6.171875 C 7.835938 -6.648438 7.648438 -7.066406 7.390625 -7.421875 C 7.140625 -7.785156 6.8125 -8.070312 6.40625 -8.28125 C 6 -8.5 5.515625 -8.609375 4.953125 -8.609375 L 2.015625 -8.609375 L 2.109375 -8.71875 L 2.109375 -0.65625 L 2.03125 -0.796875 Z M 4.953125 -0.796875 "/></g></g></g><g fill="#000000" fill-opacity="1"><g transform="translate(9.894997, 13.065136)"><g><path d="M 4.40625 -8.359375 L 1.140625 -0.25 C 1.109375 -0.164062 1.0625 -0.0976562 1 -0.046875 C 0.9375 -0.00390625 0.863281 0.015625 0.78125 0.015625 C 0.65625 0.015625 0.5625 -0.015625 0.5 -0.078125 C 0.4375 -0.148438 0.398438 -0.234375 0.390625 -0.328125 C 0.378906 -0.378906 0.382812 -0.4375 0.40625 -0.5 L 3.953125 -9.171875 C 3.992188 -9.265625 4.046875 -9.332031 4.109375 -9.375 C 4.179688 -9.414062 4.257812 -9.4375 4.34375 -9.4375 C 4.4375 -9.4375 4.515625 -9.410156 4.578125 -9.359375 C 4.648438 -9.304688 4.703125 -9.242188 4.734375 -9.171875 L 8.265625 -0.53125 C 8.285156 -0.476562 8.296875 -0.425781 8.296875 -0.375 C 8.296875 -0.25 8.253906 -0.148438 8.171875 -0.078125 C 8.085938 -0.015625 7.992188 0.015625 7.890625 0.015625 C 7.796875 0.015625 7.71875 -0.0078125 7.65625 -0.0625 C 7.59375 -0.113281 7.539062 -0.175781 7.5 -0.25 L 4.15625 -8.421875 Z M 1.921875 -2.71875 L 2.25 -3.5 L 6.421875 -3.5 L 6.578125 -2.71875 Z M 1.921875 -2.71875 "/></g></g></g><g fill="#000000" fill-opacity="1"><g transform="translate(17.902034, 13.065136)"><g><path d="M 4.046875 0 C 3.921875 0 3.820312 -0.0351562 3.75 -0.109375 C 3.675781 -0.191406 3.640625 -0.289062 3.640625 -0.40625 L 3.640625 -8.953125 L 4.46875 -8.953125 L 4.46875 -0.40625 C 4.46875 -0.289062 4.425781 -0.191406 4.34375 -0.109375 C 4.269531 -0.0351562 4.171875 0 4.046875 0 Z M 0.859375 -8.625 C 0.753906 -8.625 0.660156 -8.660156 0.578125 -8.734375 C 0.492188 -8.804688 0.453125 -8.898438 0.453125 -9.015625 C 0.453125 -9.128906 0.492188 -9.21875 0.578125 -9.28125 C 0.660156 -9.351562 0.753906 -9.390625 0.859375 -9.390625 L 7.25 -9.390625 C 7.351562 -9.390625 7.445312 -9.351562 7.53125 -9.28125 C 7.613281 -9.21875 7.65625 -9.125 7.65625 -9 C 7.65625 -8.882812 7.613281 -8.789062 7.53125 -8.71875 C 7.445312 -8.65625 7.351562 -8.625 7.25 -8.625 Z M 0.859375 -8.625 "/></g></g></g><g fill="#000000" fill-opacity="1"><g transform="translate(26.003146, 13.065136)"><g><path d="M 1.671875 -9.390625 L 6.59375 -9.390625 C 6.695312 -9.390625 6.789062 -9.351562 6.875 -9.28125 C 6.957031 -9.207031 7 -9.113281 7 -9 C 7 -8.875 6.957031 -8.773438 6.875 -8.703125 C 6.789062 -8.640625 6.695312 -8.609375 6.59375 -8.609375 L 1.96875 -8.609375 L 2.109375 -8.828125 L 2.109375 -5.0625 L 1.953125 -5.234375 L 5.984375 -5.234375 C 6.085938 -5.234375 6.179688 -5.191406 6.265625 -5.109375 C 6.347656 -5.035156 6.390625 -4.941406 6.390625 -4.828125 C 6.390625 -4.710938 6.347656 -4.617188 6.265625 -4.546875 C 6.179688 -4.472656 6.085938 -4.4375 5.984375 -4.4375 L 1.984375 -4.4375 L 2.109375 -4.578125 L 2.109375 -0.71875 L 2.046875 -0.796875 L 6.59375 -0.796875 C 6.695312 -0.796875 6.789062 -0.753906 6.875 -0.671875 C 6.957031 -0.585938 7 -0.492188 7 -0.390625 C 7 -0.273438 6.957031 -0.179688 6.875 -0.109375 C 6.789062 -0.0351562 6.695312 0 6.59375 0 L 1.671875 0 C 1.554688 0 1.457031 -0.0351562 1.375 -0.109375 C 1.300781 -0.191406 1.265625 -0.289062 1.265625 -0.40625 L 1.265625 -9 C 1.265625 -9.101562 1.300781 -9.191406 1.375 -9.265625 C 1.457031 -9.347656 1.554688 -9.390625 1.671875 -9.390625 Z M 1.671875 -9.390625 "/></g></g></g><g fill="#000000" fill-opacity="1"><g transform="translate(33.621405, 13.065136)"><g/></g></g><g fill="#000000" fill-opacity="1"><g transform="translate(37.282997, 13.065136)"><g><path d="M 4.84375 -9.390625 C 5.34375 -9.390625 5.785156 -9.273438 6.171875 -9.046875 C 6.554688 -8.816406 6.859375 -8.5 7.078125 -8.09375 C 7.304688 -7.695312 7.421875 -7.238281 7.421875 -6.71875 C 7.421875 -6.207031 7.304688 -5.742188 7.078125 -5.328125 C 6.859375 -4.910156 6.554688 -4.578125 6.171875 -4.328125 C 5.785156 -4.085938 5.34375 -3.96875 4.84375 -3.96875 L 2 -3.96875 L 2.0625 -4.109375 L 2.0625 -0.40625 C 2.0625 -0.289062 2.019531 -0.191406 1.9375 -0.109375 C 1.863281 -0.0351562 1.773438 0 1.671875 0 C 1.535156 0 1.429688 -0.0351562 1.359375 -0.109375 C 1.296875 -0.191406 1.265625 -0.289062 1.265625 -0.40625 L 1.265625 -9 C 1.265625 -9.101562 1.300781 -9.191406 1.375 -9.265625 C 1.457031 -9.347656 1.554688 -9.390625 1.671875 -9.390625 Z M 4.84375 -4.75 C 5.195312 -4.75 5.5 -4.835938 5.75 -5.015625 C 6.007812 -5.191406 6.210938 -5.425781 6.359375 -5.71875 C 6.515625 -6.019531 6.59375 -6.351562 6.59375 -6.71875 C 6.59375 -7.09375 6.515625 -7.421875 6.359375 -7.703125 C 6.210938 -7.984375 6.007812 -8.203125 5.75 -8.359375 C 5.5 -8.523438 5.195312 -8.609375 4.84375 -8.609375 L 2 -8.609375 L 2.0625 -8.71875 L 2.0625 -4.671875 L 1.984375 -4.75 Z M 4.84375 -4.75 "/></g></g></g><g fill="#000000" fill-opacity="1"><g transform="translate(44.740159, 13.065136)"><g><path d="M 4.40625 -8.359375 L 1.140625 -0.25 C 1.109375 -0.164062 1.0625 -0.0976562 1 -0.046875 C 0.9375 -0.00390625 0.863281 0.015625 0.78125 0.015625 C 0.65625 0.015625 0.5625 -0.015625 0.5 -0.078125 C 0.4375 -0.148438 0.398438 -0.234375 0.390625 -0.328125 C 0.378906 -0.378906 0.382812 -0.4375 0.40625 -0.5 L 3.953125 -9.171875 C 3.992188 -9.265625 4.046875 -9.332031 4.109375 -9.375 C 4.179688 -9.414062 4.257812 -9.4375 4.34375 -9.4375 C 4.4375 -9.4375 4.515625 -9.410156 4.578125 -9.359375 C 4.648438 -9.304688 4.703125 -9.242188 4.734375 -9.171875 L 8.265625 -0.53125 C 8.285156 -0.476562 8.296875 -0.425781 8.296875 -0.375 C 8.296875 -0.25 8.253906 -0.148438 8.171875 -0.078125 C 8.085938 -0.015625 7.992188 0.015625 7.890625 0.015625 C 7.796875 0.015625 7.71875 -0.0078125 7.65625 -0.0625 C 7.59375 -0.113281 7.539062 -0.175781 7.5 -0.25 L 4.15625 -8.421875 Z M 1.921875 -2.71875 L 2.25 -3.5 L 6.421875 -3.5 L 6.578125 -2.71875 Z M 1.921875 -2.71875 "/></g></g></g><g fill="#000000" fill-opacity="1"><g transform="translate(53.418005, 13.065136)"><g><path d="M 2.109375 -0.421875 C 2.097656 -0.296875 2.050781 -0.191406 1.96875 -0.109375 C 1.882812 -0.0351562 1.785156 0 1.671875 0 C 1.546875 0 1.445312 -0.0351562 1.375 -0.109375 C 1.300781 -0.191406 1.265625 -0.296875 1.265625 -0.421875 L 1.265625 -8.984375 C 1.265625 -9.097656 1.300781 -9.191406 1.375 -9.265625 C 1.457031 -9.347656 1.5625 -9.390625 1.6875 -9.390625 C 1.800781 -9.390625 1.898438 -9.347656 1.984375 -9.265625 C 2.066406 -9.191406 2.109375 -9.097656 2.109375 -8.984375 Z M 2.109375 -0.421875 "/></g></g></g><g fill="#000000" fill-opacity="1"><g transform="translate(56.771111, 13.065136)"><g><path d="M 5.09375 -9.390625 C 5.75 -9.390625 6.320312 -9.265625 6.8125 -9.015625 C 7.3125 -8.765625 7.722656 -8.414062 8.046875 -7.96875 C 8.367188 -7.53125 8.609375 -7.03125 8.765625 -6.46875 C 8.921875 -5.90625 9 -5.316406 9 -4.703125 C 9 -3.835938 8.859375 -3.050781 8.578125 -2.34375 C 8.296875 -1.632812 7.863281 -1.066406 7.28125 -0.640625 C 6.707031 -0.210938 5.976562 0 5.09375 0 L 1.671875 0 C 1.554688 0 1.457031 -0.0351562 1.375 -0.109375 C 1.300781 -0.191406 1.265625 -0.289062 1.265625 -0.40625 L 1.265625 -9 C 1.265625 -9.101562 1.300781 -9.191406 1.375 -9.265625 C 1.457031 -9.347656 1.554688 -9.390625 1.671875 -9.390625 Z M 4.953125 -0.796875 C 5.710938 -0.796875 6.320312 -0.96875 6.78125 -1.3125 C 7.25 -1.664062 7.59375 -2.140625 7.8125 -2.734375 C 8.03125 -3.328125 8.140625 -3.984375 8.140625 -4.703125 C 8.140625 -5.210938 8.078125 -5.703125 7.953125 -6.171875 C 7.835938 -6.648438 7.648438 -7.066406 7.390625 -7.421875 C 7.140625 -7.785156 6.8125 -8.070312 6.40625 -8.28125 C 6 -8.5 5.515625 -8.609375 4.953125 -8.609375 L 2.015625 -8.609375 L 2.109375 -8.71875 L 2.109375 -0.65625 L 2.03125 -0.796875 Z M 4.953125 -0.796875 "/></g></g></g></g></g><g clip-path="url(#bc1dd44fa1)"><path stroke-linecap="butt" transform="matrix(0.749859, 0, 0, 0.749859, 5.762443, 116.066873)" fill-opacity="1" fill="#000000" fill-rule="nonzero" stroke-linejoin="miter" d="M 0.598105 1.19752 L 0.598105 1627.352946 M 190.977734 1.19752 L 190.977734 1627.352946 M 381.357363 1.19752 L 381.357363 1627.352946 M 571.736992 1.19752 L 571.736992 1627.352946 M 762.116622 1.19752 L 762.116622 1627.352946 M 952.496251 1.19752 L 952.496251 1627.352946 M 1142.87588 1.19752 L 1142.87588 1627.352946 M -0.000966437 0.598449 L 1143.474951 0.598449 M -0.000966437 90.41225 L 1143.474951 90.41225 M -0.000966437 167.286113 L 1143.474951 167.286113 M -0.000966437 244.165185 L 1143.474951 244.165185 M -0.000966437 321.044257 L 1143.474951 321.044257 M -0.000966437 397.91812 L 1143.474951 397.91812 M -0.000966437 474.797192 L 1143.474951 474.797192 M -0.000966437 551.671055 L 1143.474951 551.671055 M -0.000966437 628.550127 L 1143.474951 628.550127 M -0.000966437 705.42399 L 1143.474951 705.42399 M -0.000966437 782.303062 L 1143.474951 782.303062 M -0.000966437 859.182134 L 1143.474951 859.182134 M -0.000966437 936.055996 L 1143.474951 936.055996 M -0.000966437 1012.935069 L 1143.474951 1012.935069 M -0.000966437 1089.808931 L 1143.474951 1089.808931 M -0.000966437 1166.688003 L 1143.474951 1166.688003 M -0.000966437 1243.567075 L 1143.474951 1243.567075 M -0.000966437 1320.440938 L 1143.474951 1320.440938 M -0.000966437 1397.32001 L 1143.474951 1397.32001 M -0.000966437 1474.193873 L 1143.474951 1474.193873 M -0.000966437 1551.072945 L 1143.474951 1551.072945 M -0.000966437 1627.946808 L 1143.474951 1627.946808 " stroke="#000000" stroke-width="1.195559" stroke-opacity="1" stroke-miterlimit="4"/></g><g transform="matrix(1, 0, 0, 1, 20, 37)"><g clip-path="url(#47c2dcc06c)"><g fill="#23120b" fill-opacity="1"><g transform="translate(1.575285, 45.646451)"><g><path d="M 17.5625 -31.609375 C 20.09375 -31.609375 22.070312 -30.921875 23.5 -29.546875 C 24.9375 -28.179688 25.65625 -26.28125 25.65625 -23.84375 C 25.65625 -22.582031 25.378906 -21.378906 24.828125 -20.234375 C 24.285156 -19.085938 23.488281 -18.160156 22.4375 -17.453125 C 21.382812 -16.742188 20.078125 -16.34375 18.515625 -16.25 L 18.328125 -17.15625 C 19.441406 -17.15625 20.53125 -17 21.59375 -16.6875 C 22.664062 -16.375 23.625 -15.867188 24.46875 -15.171875 C 25.3125 -14.484375 25.988281 -13.617188 26.5 -12.578125 C 27.019531 -11.535156 27.28125 -10.28125 27.28125 -8.8125 C 27.28125 -7.238281 27.015625 -5.890625 26.484375 -4.765625 C 25.953125 -3.640625 25.242188 -2.726562 24.359375 -2.03125 C 23.472656 -1.34375 22.457031 -0.832031 21.3125 -0.5 C 20.164062 -0.164062 18.976562 0 17.75 0 L 5.59375 0 C 5.238281 0 4.925781 -0.132812 4.65625 -0.40625 C 4.382812 -0.675781 4.25 -0.992188 4.25 -1.359375 L 4.25 -30.25 C 4.25 -30.613281 4.382812 -30.929688 4.65625 -31.203125 C 4.925781 -31.472656 5.238281 -31.609375 5.59375 -31.609375 Z M 17.203125 -28.9375 L 6.59375 -28.9375 L 7.140625 -29.765625 L 7.140625 -16.984375 L 6.640625 -17.65625 L 17.203125 -17.65625 C 18.765625 -17.6875 20.082031 -18.195312 21.15625 -19.1875 C 22.226562 -20.1875 22.765625 -21.660156 22.765625 -23.609375 C 22.765625 -25.265625 22.28125 -26.566406 21.3125 -27.515625 C 20.351562 -28.460938 18.984375 -28.9375 17.203125 -28.9375 Z M 17.515625 -14.953125 L 6.90625 -14.953125 L 7.140625 -15.21875 L 7.140625 -2.25 L 6.859375 -2.671875 L 17.609375 -2.671875 C 19.535156 -2.671875 21.144531 -3.15625 22.4375 -4.125 C 23.738281 -5.101562 24.390625 -6.664062 24.390625 -8.8125 C 24.390625 -10.3125 24.070312 -11.507812 23.4375 -12.40625 C 22.800781 -13.3125 21.957031 -13.960938 20.90625 -14.359375 C 19.851562 -14.753906 18.722656 -14.953125 17.515625 -14.953125 Z M 17.515625 -14.953125 "/></g></g></g><g fill="#23120b" fill-opacity="1"><g transform="translate(30.97573, 45.646451)"><g><path d="M 7.09375 -1.40625 C 7.0625 -1.007812 6.898438 -0.675781 6.609375 -0.40625 C 6.328125 -0.132812 6.003906 0 5.640625 0 C 5.222656 0 4.882812 -0.132812 4.625 -0.40625 C 4.375 -0.675781 4.25 -1.007812 4.25 -1.40625 L 4.25 -30.203125 C 4.25 -30.597656 4.382812 -30.929688 4.65625 -31.203125 C 4.925781 -31.472656 5.269531 -31.609375 5.6875 -31.609375 C 6.050781 -31.609375 6.375 -31.472656 6.65625 -31.203125 C 6.945312 -30.929688 7.09375 -30.597656 7.09375 -30.203125 Z M 7.09375 -1.40625 "/></g></g></g><g fill="#23120b" fill-opacity="1"><g transform="translate(42.266221, 45.646451)"><g><path d="M 21.71875 -2.671875 C 22.082031 -2.671875 22.398438 -2.539062 22.671875 -2.28125 C 22.941406 -2.019531 23.078125 -1.710938 23.078125 -1.359375 C 23.078125 -0.960938 22.941406 -0.632812 22.671875 -0.375 C 22.398438 -0.125 22.082031 0 21.71875 0 L 5.59375 0 C 5.207031 0 4.882812 -0.132812 4.625 -0.40625 C 4.375 -0.675781 4.25 -0.992188 4.25 -1.359375 L 4.25 -30.25 C 4.25 -30.613281 4.382812 -30.929688 4.65625 -31.203125 C 4.925781 -31.472656 5.269531 -31.609375 5.6875 -31.609375 C 6.050781 -31.609375 6.375 -31.472656 6.65625 -31.203125 C 6.945312 -30.929688 7.09375 -30.613281 7.09375 -30.25 L 7.09375 -1.890625 L 6.234375 -2.671875 Z M 21.71875 -2.671875 "/></g></g></g><g fill="#23120b" fill-opacity="1"><g transform="translate(66.292387, 45.646451)"><g><path d="M 21.71875 -2.671875 C 22.082031 -2.671875 22.398438 -2.539062 22.671875 -2.28125 C 22.941406 -2.019531 23.078125 -1.710938 23.078125 -1.359375 C 23.078125 -0.960938 22.941406 -0.632812 22.671875 -0.375 C 22.398438 -0.125 22.082031 0 21.71875 0 L 5.59375 0 C 5.207031 0 4.882812 -0.132812 4.625 -0.40625 C 4.375 -0.675781 4.25 -0.992188 4.25 -1.359375 L 4.25 -30.25 C 4.25 -30.613281 4.382812 -30.929688 4.65625 -31.203125 C 4.925781 -31.472656 5.269531 -31.609375 5.6875 -31.609375 C 6.050781 -31.609375 6.375 -31.472656 6.65625 -31.203125 C 6.945312 -30.929688 7.09375 -30.613281 7.09375 -30.25 L 7.09375 -1.890625 L 6.234375 -2.671875 Z M 21.71875 -2.671875 "/></g></g></g><g fill="#23120b" fill-opacity="1"><g transform="translate(90.318553, 45.646451)"><g><path d="M 7.09375 -1.40625 C 7.0625 -1.007812 6.898438 -0.675781 6.609375 -0.40625 C 6.328125 -0.132812 6.003906 0 5.640625 0 C 5.222656 0 4.882812 -0.132812 4.625 -0.40625 C 4.375 -0.675781 4.25 -1.007812 4.25 -1.40625 L 4.25 -30.203125 C 4.25 -30.597656 4.382812 -30.929688 4.65625 -31.203125 C 4.925781 -31.472656 5.269531 -31.609375 5.6875 -31.609375 C 6.050781 -31.609375 6.375 -31.472656 6.65625 -31.203125 C 6.945312 -30.929688 7.09375 -30.597656 7.09375 -30.203125 Z M 7.09375 -1.40625 "/></g></g></g><g fill="#23120b" fill-opacity="1"><g transform="translate(101.609045, 45.646451)"><g><path d="M 27.359375 -31.609375 C 27.753906 -31.609375 28.0625 -31.488281 28.28125 -31.25 C 28.507812 -31.007812 28.625 -30.707031 28.625 -30.34375 L 28.625 -1.4375 C 28.625 -0.988281 28.476562 -0.632812 28.1875 -0.375 C 27.90625 -0.125 27.585938 0 27.234375 0 C 27.046875 0 26.847656 -0.0351562 26.640625 -0.109375 C 26.429688 -0.179688 26.265625 -0.296875 26.140625 -0.453125 L 6 -27.59375 L 6.765625 -28 L 6.765625 -1.21875 C 6.765625 -0.882812 6.644531 -0.597656 6.40625 -0.359375 C 6.164062 -0.117188 5.867188 0 5.515625 0 C 5.117188 0 4.804688 -0.117188 4.578125 -0.359375 C 4.359375 -0.597656 4.25 -0.882812 4.25 -1.21875 L 4.25 -30.25 C 4.25 -30.707031 4.382812 -31.046875 4.65625 -31.265625 C 4.925781 -31.492188 5.222656 -31.609375 5.546875 -31.609375 C 5.734375 -31.609375 5.929688 -31.570312 6.140625 -31.5 C 6.347656 -31.425781 6.515625 -31.296875 6.640625 -31.109375 L 26.546875 -4.296875 L 26.09375 -3.484375 L 26.09375 -30.34375 C 26.09375 -30.707031 26.222656 -31.007812 26.484375 -31.25 C 26.742188 -31.488281 27.035156 -31.609375 27.359375 -31.609375 Z M 27.359375 -31.609375 "/></g></g></g><g fill="#23120b" fill-opacity="1"><g transform="translate(134.486961, 45.646451)"><g><path d="M 18.421875 0.453125 C 16.109375 0.453125 13.957031 0.046875 11.96875 -0.765625 C 9.976562 -1.578125 8.253906 -2.710938 6.796875 -4.171875 C 5.335938 -5.628906 4.203125 -7.351562 3.390625 -9.34375 C 2.578125 -11.332031 2.171875 -13.484375 2.171875 -15.796875 C 2.171875 -18.117188 2.578125 -20.273438 3.390625 -22.265625 C 4.203125 -24.253906 5.335938 -25.976562 6.796875 -27.4375 C 8.253906 -28.894531 9.976562 -30.03125 11.96875 -30.84375 C 13.957031 -31.65625 16.109375 -32.0625 18.421875 -32.0625 C 20.015625 -32.0625 21.554688 -31.875 23.046875 -31.5 C 24.535156 -31.125 25.867188 -30.554688 27.046875 -29.796875 C 27.253906 -29.648438 27.410156 -29.476562 27.515625 -29.28125 C 27.628906 -29.082031 27.6875 -28.878906 27.6875 -28.671875 C 27.6875 -28.253906 27.550781 -27.914062 27.28125 -27.65625 C 27.007812 -27.40625 26.722656 -27.28125 26.421875 -27.28125 C 26.265625 -27.28125 26.117188 -27.300781 25.984375 -27.34375 C 25.847656 -27.382812 25.722656 -27.4375 25.609375 -27.5 C 24.578125 -28.070312 23.457031 -28.519531 22.25 -28.84375 C 21.050781 -29.175781 19.773438 -29.34375 18.421875 -29.34375 C 15.835938 -29.34375 13.535156 -28.753906 11.515625 -27.578125 C 9.492188 -26.410156 7.910156 -24.800781 6.765625 -22.75 C 5.628906 -20.707031 5.0625 -18.390625 5.0625 -15.796875 C 5.0625 -13.210938 5.628906 -10.894531 6.765625 -8.84375 C 7.910156 -6.800781 9.492188 -5.191406 11.515625 -4.015625 C 13.535156 -2.835938 15.835938 -2.25 18.421875 -2.25 C 19.773438 -2.25 21.132812 -2.445312 22.5 -2.84375 C 23.875 -3.238281 25.0625 -3.765625 26.0625 -4.421875 L 25.828125 -3.484375 L 25.828125 -13.859375 L 26.5 -13.234375 L 18.6875 -13.234375 C 18.300781 -13.234375 17.972656 -13.367188 17.703125 -13.640625 C 17.429688 -13.910156 17.296875 -14.222656 17.296875 -14.578125 C 17.296875 -15.003906 17.429688 -15.335938 17.703125 -15.578125 C 17.972656 -15.816406 18.300781 -15.9375 18.6875 -15.9375 L 27.3125 -15.9375 C 27.707031 -15.9375 28.03125 -15.804688 28.28125 -15.546875 C 28.539062 -15.296875 28.671875 -14.972656 28.671875 -14.578125 L 28.671875 -3.703125 C 28.671875 -3.460938 28.609375 -3.234375 28.484375 -3.015625 C 28.367188 -2.804688 28.207031 -2.628906 28 -2.484375 C 26.675781 -1.578125 25.191406 -0.859375 23.546875 -0.328125 C 21.910156 0.191406 20.203125 0.453125 18.421875 0.453125 Z M 18.421875 0.453125 "/></g></g></g><g fill="#23120b" fill-opacity="1"><g transform="translate(165.874534, 45.646451)"><g/></g></g><g fill="#23120b" fill-opacity="1"><g transform="translate(178.203755, 45.646451)"><g><path d="M 13.640625 0 C 13.210938 0 12.867188 -0.132812 12.609375 -0.40625 C 12.359375 -0.675781 12.234375 -0.992188 12.234375 -1.359375 L 12.234375 -30.125 L 15.03125 -30.125 L 15.03125 -1.359375 C 15.03125 -0.992188 14.894531 -0.675781 14.625 -0.40625 C 14.351562 -0.132812 14.023438 0 13.640625 0 Z M 2.890625 -29.03125 C 2.523438 -29.03125 2.207031 -29.148438 1.9375 -29.390625 C 1.664062 -29.640625 1.53125 -29.957031 1.53125 -30.34375 C 1.53125 -30.707031 1.664062 -31.007812 1.9375 -31.25 C 2.207031 -31.488281 2.523438 -31.609375 2.890625 -31.609375 L 24.390625 -31.609375 C 24.742188 -31.609375 25.054688 -31.488281 25.328125 -31.25 C 25.597656 -31.007812 25.734375 -30.691406 25.734375 -30.296875 C 25.734375 -29.910156 25.597656 -29.601562 25.328125 -29.375 C 25.054688 -29.144531 24.742188 -29.03125 24.390625 -29.03125 Z M 2.890625 -29.03125 "/></g></g></g><g fill="#23120b" fill-opacity="1"><g transform="translate(205.48158, 45.646451)"><g><path d="M 5.78125 0 C 5.332031 0 4.960938 -0.132812 4.671875 -0.40625 C 4.390625 -0.675781 4.25 -0.992188 4.25 -1.359375 L 4.25 -30.25 C 4.25 -30.613281 4.382812 -30.929688 4.65625 -31.203125 C 4.925781 -31.472656 5.238281 -31.609375 5.59375 -31.609375 L 17.796875 -31.609375 C 19.503906 -31.609375 21.035156 -31.238281 22.390625 -30.5 C 23.742188 -29.757812 24.804688 -28.742188 25.578125 -27.453125 C 26.347656 -26.160156 26.734375 -24.703125 26.734375 -23.078125 C 26.734375 -21.753906 26.488281 -20.535156 26 -19.421875 C 25.519531 -18.304688 24.84375 -17.363281 23.96875 -16.59375 C 23.101562 -15.820312 22.128906 -15.257812 21.046875 -14.90625 L 19.46875 -15.390625 C 20.582031 -15.304688 21.617188 -14.953125 22.578125 -14.328125 C 23.535156 -13.710938 24.304688 -12.867188 24.890625 -11.796875 C 25.484375 -10.734375 25.796875 -9.453125 25.828125 -7.953125 C 25.859375 -6.648438 25.925781 -5.640625 26.03125 -4.921875 C 26.132812 -4.203125 26.289062 -3.660156 26.5 -3.296875 C 26.71875 -2.929688 26.988281 -2.644531 27.3125 -2.4375 C 27.613281 -2.257812 27.816406 -2.003906 27.921875 -1.671875 C 28.035156 -1.335938 28 -1.019531 27.8125 -0.71875 C 27.695312 -0.476562 27.523438 -0.304688 27.296875 -0.203125 C 27.066406 -0.0976562 26.832031 -0.046875 26.59375 -0.046875 C 26.351562 -0.046875 26.113281 -0.101562 25.875 -0.21875 C 25.457031 -0.46875 25.03125 -0.847656 24.59375 -1.359375 C 24.15625 -1.867188 23.789062 -2.617188 23.5 -3.609375 C 23.21875 -4.609375 23.078125 -5.992188 23.078125 -7.765625 C 23.078125 -8.941406 22.890625 -9.90625 22.515625 -10.65625 C 22.140625 -11.40625 21.65625 -11.984375 21.0625 -12.390625 C 20.476562 -12.796875 19.832031 -13.082031 19.125 -13.25 C 18.414062 -13.414062 17.742188 -13.5 17.109375 -13.5 L 6.59375 -13.5 L 7.09375 -14.140625 L 7.09375 -1.359375 C 7.09375 -0.992188 6.96875 -0.675781 6.71875 -0.40625 C 6.476562 -0.132812 6.164062 0 5.78125 0 Z M 6.59375 -15.984375 L 17.921875 -15.984375 C 18.953125 -16.078125 19.914062 -16.414062 20.8125 -17 C 21.71875 -17.582031 22.445312 -18.382812 23 -19.40625 C 23.5625 -20.4375 23.84375 -21.628906 23.84375 -22.984375 C 23.84375 -24.703125 23.257812 -26.125 22.09375 -27.25 C 20.9375 -28.375 19.425781 -28.9375 17.5625 -28.9375 L 6.765625 -28.9375 L 7.09375 -29.578125 L 7.09375 -15.359375 Z M 6.59375 -15.984375 "/></g></g></g><g fill="#23120b" fill-opacity="1"><g transform="translate(235.740115, 45.646451)"><g><path d="M 14.8125 -28.125 L 3.84375 -0.859375 C 3.71875 -0.554688 3.550781 -0.328125 3.34375 -0.171875 C 3.132812 -0.0234375 2.894531 0.046875 2.625 0.046875 C 2.195312 0.046875 1.878906 -0.0625 1.671875 -0.28125 C 1.460938 -0.507812 1.34375 -0.789062 1.3125 -1.125 C 1.28125 -1.28125 1.296875 -1.460938 1.359375 -1.671875 L 13.28125 -30.84375 C 13.425781 -31.175781 13.609375 -31.410156 13.828125 -31.546875 C 14.054688 -31.679688 14.320312 -31.75 14.625 -31.75 C 14.925781 -31.75 15.191406 -31.664062 15.421875 -31.5 C 15.648438 -31.332031 15.820312 -31.113281 15.9375 -30.84375 L 27.8125 -1.8125 C 27.875 -1.625 27.90625 -1.441406 27.90625 -1.265625 C 27.90625 -0.835938 27.769531 -0.507812 27.5 -0.28125 C 27.226562 -0.0625 26.910156 0.046875 26.546875 0.046875 C 26.242188 0.046875 25.976562 -0.0351562 25.75 -0.203125 C 25.53125 -0.367188 25.363281 -0.585938 25.25 -0.859375 L 14 -28.3125 Z M 6.453125 -9.125 L 7.59375 -11.78125 L 21.578125 -11.78125 L 22.125 -9.125 Z M 6.453125 -9.125 "/></g></g></g><g fill="#23120b" fill-opacity="1"><g transform="translate(264.959896, 45.646451)"><g><path d="M 27.3125 -29.265625 C 27.675781 -29.023438 27.890625 -28.710938 27.953125 -28.328125 C 28.015625 -27.953125 27.925781 -27.585938 27.6875 -27.234375 C 27.46875 -26.960938 27.191406 -26.8125 26.859375 -26.78125 C 26.535156 -26.75 26.222656 -26.804688 25.921875 -26.953125 C 24.773438 -27.710938 23.546875 -28.300781 22.234375 -28.71875 C 20.929688 -29.132812 19.523438 -29.34375 18.015625 -29.34375 C 16.179688 -29.34375 14.472656 -29.019531 12.890625 -28.375 C 11.304688 -27.726562 9.925781 -26.796875 8.75 -25.578125 C 7.582031 -24.359375 6.675781 -22.921875 6.03125 -21.265625 C 5.382812 -19.609375 5.0625 -17.785156 5.0625 -15.796875 C 5.0625 -13.753906 5.390625 -11.894531 6.046875 -10.21875 C 6.710938 -8.550781 7.640625 -7.113281 8.828125 -5.90625 C 10.015625 -4.707031 11.390625 -3.789062 12.953125 -3.15625 C 14.523438 -2.53125 16.210938 -2.21875 18.015625 -2.21875 C 19.492188 -2.21875 20.882812 -2.425781 22.1875 -2.84375 C 23.5 -3.269531 24.726562 -3.84375 25.875 -4.5625 C 26.175781 -4.738281 26.5 -4.804688 26.84375 -4.765625 C 27.1875 -4.722656 27.46875 -4.550781 27.6875 -4.25 C 27.957031 -3.914062 28.050781 -3.5625 27.96875 -3.1875 C 27.894531 -2.8125 27.691406 -2.515625 27.359375 -2.296875 C 26.609375 -1.816406 25.722656 -1.363281 24.703125 -0.9375 C 23.679688 -0.519531 22.597656 -0.1875 21.453125 0.0625 C 20.304688 0.320312 19.160156 0.453125 18.015625 0.453125 C 15.847656 0.453125 13.816406 0.0625 11.921875 -0.71875 C 10.023438 -1.5 8.335938 -2.601562 6.859375 -4.03125 C 5.390625 -5.46875 4.238281 -7.175781 3.40625 -9.15625 C 2.582031 -11.144531 2.171875 -13.359375 2.171875 -15.796875 C 2.171875 -18.148438 2.578125 -20.3125 3.390625 -22.28125 C 4.203125 -24.257812 5.328125 -25.96875 6.765625 -27.40625 C 8.210938 -28.851562 9.898438 -29.984375 11.828125 -30.796875 C 13.753906 -31.609375 15.816406 -32.015625 18.015625 -32.015625 C 19.734375 -32.015625 21.390625 -31.773438 22.984375 -31.296875 C 24.578125 -30.816406 26.019531 -30.140625 27.3125 -29.265625 Z M 27.3125 -29.265625 "/></g></g></g><g fill="#23120b" fill-opacity="1"><g transform="translate(294.450661, 45.646451)"><g><path d="M 26.828125 0.1875 C 26.429688 0.1875 26.097656 0.0195312 25.828125 -0.3125 L 13 -16.4375 L 15.125 -18.5625 L 28.046875 -2.21875 C 28.253906 -1.914062 28.359375 -1.597656 28.359375 -1.265625 C 28.359375 -0.785156 28.179688 -0.421875 27.828125 -0.171875 C 27.484375 0.0664062 27.148438 0.1875 26.828125 0.1875 Z M 26.328125 -31.515625 C 26.691406 -31.515625 27 -31.378906 27.25 -31.109375 C 27.507812 -30.835938 27.640625 -30.535156 27.640625 -30.203125 C 27.640625 -29.847656 27.503906 -29.535156 27.234375 -29.265625 L 6.734375 -10.0625 L 6.359375 -13.140625 L 25.328125 -31.0625 C 25.628906 -31.363281 25.960938 -31.515625 26.328125 -31.515625 Z M 5.640625 0 C 5.222656 0 4.882812 -0.132812 4.625 -0.40625 C 4.375 -0.675781 4.25 -1.007812 4.25 -1.40625 L 4.25 -30.203125 C 4.25 -30.597656 4.382812 -30.929688 4.65625 -31.203125 C 4.925781 -31.472656 5.269531 -31.609375 5.6875 -31.609375 C 6.082031 -31.609375 6.414062 -31.472656 6.6875 -31.203125 C 6.957031 -30.929688 7.09375 -30.597656 7.09375 -30.203125 L 7.09375 -1.40625 C 7.0625 -1.007812 6.910156 -0.675781 6.640625 -0.40625 C 6.367188 -0.132812 6.035156 0 5.640625 0 Z M 5.640625 0 "/></g></g></g><g fill="#23120b" fill-opacity="1"><g transform="translate(324.934996, 45.646451)"><g><path d="M 5.59375 -31.609375 L 22.171875 -31.609375 C 22.535156 -31.609375 22.851562 -31.476562 23.125 -31.21875 C 23.394531 -30.96875 23.53125 -30.644531 23.53125 -30.25 C 23.53125 -29.863281 23.394531 -29.546875 23.125 -29.296875 C 22.851562 -29.054688 22.535156 -28.9375 22.171875 -28.9375 L 6.640625 -28.9375 L 7.09375 -29.71875 L 7.09375 -17.03125 L 6.59375 -17.609375 L 20.140625 -17.609375 C 20.503906 -17.609375 20.820312 -17.472656 21.09375 -17.203125 C 21.363281 -16.929688 21.5 -16.613281 21.5 -16.25 C 21.5 -15.863281 21.363281 -15.550781 21.09375 -15.3125 C 20.820312 -15.070312 20.503906 -14.953125 20.140625 -14.953125 L 6.6875 -14.953125 L 7.09375 -15.390625 L 7.09375 -2.390625 L 6.859375 -2.671875 L 22.171875 -2.671875 C 22.535156 -2.671875 22.851562 -2.53125 23.125 -2.25 C 23.394531 -1.976562 23.53125 -1.664062 23.53125 -1.3125 C 23.53125 -0.914062 23.394531 -0.597656 23.125 -0.359375 C 22.851562 -0.117188 22.535156 0 22.171875 0 L 5.59375 0 C 5.238281 0 4.925781 -0.132812 4.65625 -0.40625 C 4.382812 -0.675781 4.25 -0.992188 4.25 -1.359375 L 4.25 -30.25 C 4.25 -30.613281 4.382812 -30.929688 4.65625 -31.203125 C 4.925781 -31.472656 5.238281 -31.609375 5.59375 -31.609375 Z M 5.59375 -31.609375 "/></g></g></g><g fill="#23120b" fill-opacity="1"><g transform="translate(350.586985, 45.646451)"><g><path d="M 5.78125 0 C 5.332031 0 4.960938 -0.132812 4.671875 -0.40625 C 4.390625 -0.675781 4.25 -0.992188 4.25 -1.359375 L 4.25 -30.25 C 4.25 -30.613281 4.382812 -30.929688 4.65625 -31.203125 C 4.925781 -31.472656 5.238281 -31.609375 5.59375 -31.609375 L 17.796875 -31.609375 C 19.503906 -31.609375 21.035156 -31.238281 22.390625 -30.5 C 23.742188 -29.757812 24.804688 -28.742188 25.578125 -27.453125 C 26.347656 -26.160156 26.734375 -24.703125 26.734375 -23.078125 C 26.734375 -21.753906 26.488281 -20.535156 26 -19.421875 C 25.519531 -18.304688 24.84375 -17.363281 23.96875 -16.59375 C 23.101562 -15.820312 22.128906 -15.257812 21.046875 -14.90625 L 19.46875 -15.390625 C 20.582031 -15.304688 21.617188 -14.953125 22.578125 -14.328125 C 23.535156 -13.710938 24.304688 -12.867188 24.890625 -11.796875 C 25.484375 -10.734375 25.796875 -9.453125 25.828125 -7.953125 C 25.859375 -6.648438 25.925781 -5.640625 26.03125 -4.921875 C 26.132812 -4.203125 26.289062 -3.660156 26.5 -3.296875 C 26.71875 -2.929688 26.988281 -2.644531 27.3125 -2.4375 C 27.613281 -2.257812 27.816406 -2.003906 27.921875 -1.671875 C 28.035156 -1.335938 28 -1.019531 27.8125 -0.71875 C 27.695312 -0.476562 27.523438 -0.304688 27.296875 -0.203125 C 27.066406 -0.0976562 26.832031 -0.046875 26.59375 -0.046875 C 26.351562 -0.046875 26.113281 -0.101562 25.875 -0.21875 C 25.457031 -0.46875 25.03125 -0.847656 24.59375 -1.359375 C 24.15625 -1.867188 23.789062 -2.617188 23.5 -3.609375 C 23.21875 -4.609375 23.078125 -5.992188 23.078125 -7.765625 C 23.078125 -8.941406 22.890625 -9.90625 22.515625 -10.65625 C 22.140625 -11.40625 21.65625 -11.984375 21.0625 -12.390625 C 20.476562 -12.796875 19.832031 -13.082031 19.125 -13.25 C 18.414062 -13.414062 17.742188 -13.5 17.109375 -13.5 L 6.59375 -13.5 L 7.09375 -14.140625 L 7.09375 -1.359375 C 7.09375 -0.992188 6.96875 -0.675781 6.71875 -0.40625 C 6.476562 -0.132812 6.164062 0 5.78125 0 Z M 6.59375 -15.984375 L 17.921875 -15.984375 C 18.953125 -16.078125 19.914062 -16.414062 20.8125 -17 C 21.71875 -17.582031 22.445312 -18.382812 23 -19.40625 C 23.5625 -20.4375 23.84375 -21.628906 23.84375 -22.984375 C 23.84375 -24.703125 23.257812 -26.125 22.09375 -27.25 C 20.9375 -28.375 19.425781 -28.9375 17.5625 -28.9375 L 6.765625 -28.9375 L 7.09375 -29.578125 L 7.09375 -15.359375 Z M 6.59375 -15.984375 "/></g></g></g></g></g></svg>