<svg xmlns="http://www.w3.org/2000/svg" xmlns:xlink="http://www.w3.org/1999/xlink" width="1200" zoomAndPan="magnify" viewBox="0 0 900 675.000002" height="900" preserveAspectRatio="xMidYMid meet" version="1.0"><defs><g/><clipPath id="5b2228fdeb"><path d="M 36 3 L 43.585938 3 L 43.585938 13 L 36 13 Z M 36 3 " clip-rule="nonzero"/></clipPath><clipPath id="51d649d607"><rect x="0" width="44" y="0" height="17"/></clipPath><clipPath id="947f32a2a3"><path d="M 96 3 L 103.742188 3 L 103.742188 13 L 96 13 Z M 96 3 " clip-rule="nonzero"/></clipPath><clipPath id="170052a204"><rect x="0" width="104" y="0" height="17"/></clipPath><clipPath id="1920cf27f4"><path d="M 55 3 L 62.8125 3 L 62.8125 13 L 55 13 Z M 55 3 " clip-rule="nonzero"/></clipPath><clipPath id="520875f365"><rect x="0" width="63" y="0" height="17"/></clipPath><clipPath id="36ebf248da"><rect x="0" width="24" y="0" height="17"/></clipPath><clipPath id="4b6cec8eae"><path d="M 32 3 L 40.910156 3 L 40.910156 13 L 32 13 Z M 32 3 " clip-rule="nonzero"/></clipPath><clipPath id="b63ed3ac75"><rect x="0" width="41" y="0" height="17"/></clipPath><clipPath id="cf9d275366"><path d="M 51 3 L 59.699219 3 L 59.699219 13 L 51 13 Z M 51 3 " clip-rule="nonzero"/></clipPath><clipPath id="446f2eea26"><rect x="0" width="60" y="0" height="17"/></clipPath><clipPath id="4769364b6a"><path d="M 46.308594 93 L 854 93 L 854 581 L 46.308594 581 Z M 46.308594 93 " clip-rule="nonzero"/></clipPath><clipPath id="a21e82781f"><path d="M 46.308594 92.914062 L 854.359375 92.914062 L 854.359375 581.191406 L 46.308594 581.191406 Z M 46.308594 92.914062 " clip-rule="nonzero"/></clipPath></defs><g transform="matrix(1, 0, 0, 1, 92, 104)"><g clip-path="url(#51d649d607)"><g fill="#000000" fill-opacity="1"><g transform="translate(0.52734, 12.10022)"><g><path d="M 4.984375 -0.734375 C 5.503906 -0.734375 6.003906 -0.832031 6.484375 -1.03125 C 6.960938 -1.238281 7.363281 -1.53125 7.6875 -1.90625 L 8.296875 -1.265625 C 7.878906 -0.828125 7.378906 -0.484375 6.796875 -0.234375 C 6.210938 0.015625 5.597656 0.140625 4.953125 0.140625 C 4.335938 0.140625 3.757812 0.0234375 3.21875 -0.203125 C 2.675781 -0.429688 2.207031 -0.742188 1.8125 -1.140625 C 1.414062 -1.535156 1.101562 -2 0.875 -2.53125 C 0.644531 -3.070312 0.53125 -3.648438 0.53125 -4.265625 C 0.53125 -4.867188 0.644531 -5.441406 0.875 -5.984375 C 1.101562 -6.523438 1.414062 -6.988281 1.8125 -7.375 C 2.207031 -7.769531 2.675781 -8.082031 3.21875 -8.3125 C 3.757812 -8.539062 4.335938 -8.65625 4.953125 -8.65625 C 5.609375 -8.65625 6.226562 -8.53125 6.8125 -8.28125 C 7.40625 -8.03125 7.910156 -7.6875 8.328125 -7.25 L 7.703125 -6.59375 C 7.367188 -6.96875 6.957031 -7.257812 6.46875 -7.46875 C 5.976562 -7.6875 5.472656 -7.796875 4.953125 -7.796875 C 4.460938 -7.796875 4.003906 -7.703125 3.578125 -7.515625 C 3.160156 -7.335938 2.796875 -7.09375 2.484375 -6.78125 C 2.171875 -6.46875 1.925781 -6.09375 1.75 -5.65625 C 1.570312 -5.21875 1.484375 -4.753906 1.484375 -4.265625 C 1.484375 -3.765625 1.570312 -3.296875 1.75 -2.859375 C 1.925781 -2.429688 2.171875 -2.0625 2.484375 -1.75 C 2.796875 -1.4375 3.164062 -1.1875 3.59375 -1 C 4.019531 -0.820312 4.484375 -0.734375 4.984375 -0.734375 Z M 4.984375 -0.734375 "/></g></g></g><g fill="#000000" fill-opacity="1"><g transform="translate(9.315275, 12.10022)"><g><path d="M 0.9375 0 L 0.9375 -8.515625 L 1.875 -8.515625 L 1.875 -0.84375 L 6.953125 -0.84375 L 6.953125 0 Z M 0.9375 0 "/></g></g></g><g fill="#000000" fill-opacity="1"><g transform="translate(16.666957, 12.10022)"><g><path d="M 0.9375 0 L 0.9375 -8.515625 L 1.875 -8.515625 L 1.875 0 Z M 0.9375 0 "/></g></g></g><g fill="#000000" fill-opacity="1"><g transform="translate(19.478608, 12.10022)"><g><path d="M 0.9375 0 L 0.9375 -8.515625 L 7.03125 -8.515625 L 7.03125 -7.6875 L 1.875 -7.6875 L 1.875 -4.703125 L 5.25 -4.703125 L 5.25 -3.890625 L 1.875 -3.890625 L 1.875 -0.828125 L 7.078125 -0.828125 L 7.078125 0 Z M 0.9375 0 "/></g></g></g><g fill="#000000" fill-opacity="1"><g transform="translate(26.976347, 12.10022)"><g><path d="M 0.9375 -8.515625 L 1.875 -8.515625 L 7 -1.609375 L 7 -8.515625 L 7.890625 -8.515625 L 7.890625 0 L 7.0625 0 L 1.828125 -7.09375 L 1.828125 0 L 0.9375 0 Z M 0.9375 -8.515625 "/></g></g></g><g clip-path="url(#5b2228fdeb)"><g fill="#000000" fill-opacity="1"><g transform="translate(35.800797, 12.10022)"><g><path d="M 0.203125 -7.6875 L 0.203125 -8.515625 L 7.296875 -8.515625 L 7.296875 -7.6875 L 4.21875 -7.6875 L 4.21875 0 L 3.28125 0 L 3.28125 -7.6875 Z M 0.203125 -7.6875 "/></g></g></g></g></g></g><g transform="matrix(1, 0, 0, 1, 196, 104)"><g clip-path="url(#170052a204)"><g fill="#000000" fill-opacity="1"><g transform="translate(1.210209, 12.10022)"><g><path d="M 0.9375 0 L 0.9375 -8.515625 L 3.75 -8.515625 C 4.382812 -8.515625 4.976562 -8.40625 5.53125 -8.1875 C 6.082031 -7.976562 6.554688 -7.6875 6.953125 -7.3125 C 7.359375 -6.9375 7.671875 -6.488281 7.890625 -5.96875 C 8.117188 -5.445312 8.234375 -4.878906 8.234375 -4.265625 C 8.234375 -3.640625 8.117188 -3.066406 7.890625 -2.546875 C 7.671875 -2.023438 7.363281 -1.578125 6.96875 -1.203125 C 6.570312 -0.828125 6.097656 -0.53125 5.546875 -0.3125 C 4.992188 -0.101562 4.394531 0 3.75 0 Z M 3.796875 -7.671875 L 1.875 -7.671875 L 1.875 -0.859375 L 3.796875 -0.859375 C 4.285156 -0.859375 4.742188 -0.941406 5.171875 -1.109375 C 5.597656 -1.285156 5.96875 -1.523438 6.28125 -1.828125 C 6.59375 -2.128906 6.835938 -2.488281 7.015625 -2.90625 C 7.191406 -3.332031 7.28125 -3.785156 7.28125 -4.265625 C 7.28125 -4.742188 7.191406 -5.191406 7.015625 -5.609375 C 6.835938 -6.023438 6.59375 -6.382812 6.28125 -6.6875 C 5.96875 -6.988281 5.597656 -7.226562 5.171875 -7.40625 C 4.742188 -7.582031 4.285156 -7.671875 3.796875 -7.671875 Z M 3.796875 -7.671875 "/></g></g></g><g fill="#000000" fill-opacity="1"><g transform="translate(9.535498, 12.10022)"><g><path d="M 0.046875 0 L 3.59375 -8.515625 L 4.71875 -8.515625 L 8.21875 0 L 7.1875 0 L 6.125 -2.671875 L 2.109375 -2.671875 L 1.015625 0 Z M 2.4375 -3.484375 L 5.796875 -3.484375 L 4.125 -7.640625 Z M 2.4375 -3.484375 "/></g></g></g><g fill="#000000" fill-opacity="1"><g transform="translate(16.241651, 12.10022)"><g><path d="M 0.203125 -7.6875 L 0.203125 -8.515625 L 7.296875 -8.515625 L 7.296875 -7.6875 L 4.21875 -7.6875 L 4.21875 0 L 3.28125 0 L 3.28125 -7.6875 Z M 0.203125 -7.6875 "/></g></g></g><g fill="#000000" fill-opacity="1"><g transform="translate(23.751562, 12.10022)"><g><path d="M 0.9375 0 L 0.9375 -8.515625 L 7.03125 -8.515625 L 7.03125 -7.6875 L 1.875 -7.6875 L 1.875 -4.703125 L 5.25 -4.703125 L 5.25 -3.890625 L 1.875 -3.890625 L 1.875 -0.828125 L 7.078125 -0.828125 L 7.078125 0 Z M 0.9375 0 "/></g></g></g><g fill="#000000" fill-opacity="1"><g transform="translate(31.249301, 12.10022)"><g/></g></g><g fill="#000000" fill-opacity="1"><g transform="translate(33.866207, 12.10022)"><g><path d="M 9.3125 -4.265625 C 9.3125 -3.648438 9.195312 -3.070312 8.96875 -2.53125 C 8.738281 -2 8.425781 -1.535156 8.03125 -1.140625 C 7.644531 -0.742188 7.179688 -0.429688 6.640625 -0.203125 C 6.109375 0.0234375 5.535156 0.140625 4.921875 0.140625 C 4.316406 0.140625 3.742188 0.0234375 3.203125 -0.203125 C 2.660156 -0.429688 2.191406 -0.742188 1.796875 -1.140625 C 1.410156 -1.535156 1.101562 -2 0.875 -2.53125 C 0.644531 -3.070312 0.53125 -3.648438 0.53125 -4.265625 C 0.53125 -4.867188 0.644531 -5.441406 0.875 -5.984375 C 1.101562 -6.523438 1.410156 -6.988281 1.796875 -7.375 C 2.191406 -7.769531 2.660156 -8.082031 3.203125 -8.3125 C 3.742188 -8.539062 4.316406 -8.65625 4.921875 -8.65625 C 5.535156 -8.65625 6.109375 -8.539062 6.640625 -8.3125 C 7.179688 -8.082031 7.644531 -7.769531 8.03125 -7.375 C 8.425781 -6.988281 8.738281 -6.523438 8.96875 -5.984375 C 9.195312 -5.441406 9.3125 -4.867188 9.3125 -4.265625 Z M 8.359375 -4.265625 C 8.359375 -4.753906 8.269531 -5.21875 8.09375 -5.65625 C 7.914062 -6.09375 7.671875 -6.46875 7.359375 -6.78125 C 7.054688 -7.09375 6.691406 -7.335938 6.265625 -7.515625 C 5.847656 -7.703125 5.398438 -7.796875 4.921875 -7.796875 C 4.441406 -7.796875 3.988281 -7.703125 3.5625 -7.515625 C 3.144531 -7.335938 2.78125 -7.09375 2.46875 -6.78125 C 2.164062 -6.46875 1.925781 -6.09375 1.75 -5.65625 C 1.570312 -5.21875 1.484375 -4.753906 1.484375 -4.265625 C 1.484375 -3.765625 1.570312 -3.300781 1.75 -2.875 C 1.925781 -2.445312 2.164062 -2.070312 2.46875 -1.75 C 2.78125 -1.4375 3.144531 -1.1875 3.5625 -1 C 3.988281 -0.820312 4.441406 -0.734375 4.921875 -0.734375 C 5.398438 -0.734375 5.847656 -0.820312 6.265625 -1 C 6.691406 -1.1875 7.054688 -1.4375 7.359375 -1.75 C 7.671875 -2.070312 7.914062 -2.445312 8.09375 -2.875 C 8.269531 -3.300781 8.359375 -3.765625 8.359375 -4.265625 Z M 8.359375 -4.265625 "/></g></g></g><g fill="#000000" fill-opacity="1"><g transform="translate(43.713076, 12.10022)"><g><path d="M 0.9375 0 L 0.9375 -8.515625 L 7.03125 -8.515625 L 7.03125 -7.6875 L 1.875 -7.6875 L 1.875 -4.65625 L 5.265625 -4.65625 L 5.265625 -3.828125 L 1.875 -3.828125 L 1.875 0 Z M 0.9375 0 "/></g></g></g><g fill="#000000" fill-opacity="1"><g transform="translate(51.101274, 12.10022)"><g/></g></g><g fill="#000000" fill-opacity="1"><g transform="translate(53.71818, 12.10022)"><g><path d="M 0.140625 -1.453125 L 0.75 -2.109375 C 1.1875 -1.640625 1.65625 -1.285156 2.15625 -1.046875 C 2.65625 -0.804688 3.179688 -0.6875 3.734375 -0.6875 C 4.398438 -0.6875 4.945312 -0.84375 5.375 -1.15625 C 5.8125 -1.476562 6.03125 -1.882812 6.03125 -2.375 C 6.03125 -2.8125 5.875 -3.144531 5.5625 -3.375 C 5.257812 -3.613281 4.757812 -3.789062 4.0625 -3.90625 L 2.84375 -4.109375 C 2.019531 -4.234375 1.410156 -4.472656 1.015625 -4.828125 C 0.628906 -5.179688 0.4375 -5.65625 0.4375 -6.25 C 0.4375 -6.957031 0.710938 -7.53125 1.265625 -7.96875 C 1.816406 -8.40625 2.539062 -8.625 3.4375 -8.625 C 4.03125 -8.625 4.617188 -8.523438 5.203125 -8.328125 C 5.785156 -8.140625 6.316406 -7.863281 6.796875 -7.5 L 6.25 -6.765625 C 5.789062 -7.117188 5.320312 -7.382812 4.84375 -7.5625 C 4.363281 -7.738281 3.878906 -7.828125 3.390625 -7.828125 C 2.785156 -7.828125 2.289062 -7.6875 1.90625 -7.40625 C 1.53125 -7.125 1.34375 -6.765625 1.34375 -6.328125 C 1.34375 -5.929688 1.476562 -5.625 1.75 -5.40625 C 2.019531 -5.195312 2.460938 -5.046875 3.078125 -4.953125 L 4.296875 -4.765625 C 5.222656 -4.609375 5.898438 -4.34375 6.328125 -3.96875 C 6.753906 -3.59375 6.96875 -3.078125 6.96875 -2.421875 C 6.96875 -2.046875 6.882812 -1.703125 6.71875 -1.390625 C 6.5625 -1.078125 6.335938 -0.804688 6.046875 -0.578125 C 5.765625 -0.359375 5.421875 -0.1875 5.015625 -0.0625 C 4.617188 0.0625 4.179688 0.125 3.703125 0.125 C 3.023438 0.125 2.375 -0.0078125 1.75 -0.28125 C 1.132812 -0.550781 0.597656 -0.941406 0.140625 -1.453125 Z M 0.140625 -1.453125 "/></g></g></g><g fill="#000000" fill-opacity="1"><g transform="translate(61.021174, 12.10022)"><g><path d="M 0.9375 0 L 0.9375 -8.515625 L 7.03125 -8.515625 L 7.03125 -7.6875 L 1.875 -7.6875 L 1.875 -4.703125 L 5.25 -4.703125 L 5.25 -3.890625 L 1.875 -3.890625 L 1.875 -0.828125 L 7.078125 -0.828125 L 7.078125 0 Z M 0.9375 0 "/></g></g></g><g fill="#000000" fill-opacity="1"><g transform="translate(68.518913, 12.10022)"><g><path d="M 0.9375 0 L 0.9375 -8.515625 L 4.59375 -8.515625 C 5.414062 -8.515625 6.082031 -8.289062 6.59375 -7.84375 C 7.101562 -7.394531 7.359375 -6.804688 7.359375 -6.078125 C 7.359375 -5.515625 7.191406 -5.03125 6.859375 -4.625 C 6.535156 -4.21875 6.097656 -3.9375 5.546875 -3.78125 L 7.46875 0 L 6.421875 0 L 4.59375 -3.65625 L 1.875 -3.65625 L 1.875 0 Z M 4.53125 -7.6875 L 1.875 -7.6875 L 1.875 -4.453125 L 4.53125 -4.453125 C 5.09375 -4.453125 5.546875 -4.597656 5.890625 -4.890625 C 6.242188 -5.191406 6.421875 -5.585938 6.421875 -6.078125 C 6.421875 -6.554688 6.242188 -6.941406 5.890625 -7.234375 C 5.546875 -7.535156 5.09375 -7.6875 4.53125 -7.6875 Z M 4.53125 -7.6875 "/></g></g></g><g fill="#000000" fill-opacity="1"><g transform="translate(76.126132, 12.10022)"><g><path d="M 3.546875 0 L 0.046875 -8.515625 L 1.0625 -8.515625 L 4.140625 -0.875 L 7.265625 -8.515625 L 8.21875 -8.515625 L 4.671875 0 Z M 3.546875 0 "/></g></g></g><g fill="#000000" fill-opacity="1"><g transform="translate(84.390685, 12.10022)"><g><path d="M 0.9375 0 L 0.9375 -8.515625 L 1.875 -8.515625 L 1.875 0 Z M 0.9375 0 "/></g></g></g><g fill="#000000" fill-opacity="1"><g transform="translate(87.202336, 12.10022)"><g><path d="M 4.984375 -0.734375 C 5.503906 -0.734375 6.003906 -0.832031 6.484375 -1.03125 C 6.960938 -1.238281 7.363281 -1.53125 7.6875 -1.90625 L 8.296875 -1.265625 C 7.878906 -0.828125 7.378906 -0.484375 6.796875 -0.234375 C 6.210938 0.015625 5.597656 0.140625 4.953125 0.140625 C 4.335938 0.140625 3.757812 0.0234375 3.21875 -0.203125 C 2.675781 -0.429688 2.207031 -0.742188 1.8125 -1.140625 C 1.414062 -1.535156 1.101562 -2 0.875 -2.53125 C 0.644531 -3.070312 0.53125 -3.648438 0.53125 -4.265625 C 0.53125 -4.867188 0.644531 -5.441406 0.875 -5.984375 C 1.101562 -6.523438 1.414062 -6.988281 1.8125 -7.375 C 2.207031 -7.769531 2.675781 -8.082031 3.21875 -8.3125 C 3.757812 -8.539062 4.335938 -8.65625 4.953125 -8.65625 C 5.609375 -8.65625 6.226562 -8.53125 6.8125 -8.28125 C 7.40625 -8.03125 7.910156 -7.6875 8.328125 -7.25 L 7.703125 -6.59375 C 7.367188 -6.96875 6.957031 -7.257812 6.46875 -7.46875 C 5.976562 -7.6875 5.472656 -7.796875 4.953125 -7.796875 C 4.460938 -7.796875 4.003906 -7.703125 3.578125 -7.515625 C 3.160156 -7.335938 2.796875 -7.09375 2.484375 -6.78125 C 2.171875 -6.46875 1.925781 -6.09375 1.75 -5.65625 C 1.570312 -5.21875 1.484375 -4.753906 1.484375 -4.265625 C 1.484375 -3.765625 1.570312 -3.296875 1.75 -2.859375 C 1.925781 -2.429688 2.171875 -2.0625 2.484375 -1.75 C 2.796875 -1.4375 3.164062 -1.1875 3.59375 -1 C 4.019531 -0.820312 4.484375 -0.734375 4.984375 -0.734375 Z M 4.984375 -0.734375 "/></g></g></g><g clip-path="url(#947f32a2a3)"><g fill="#000000" fill-opacity="1"><g transform="translate(95.990271, 12.10022)"><g><path d="M 0.9375 0 L 0.9375 -8.515625 L 7.03125 -8.515625 L 7.03125 -7.6875 L 1.875 -7.6875 L 1.875 -4.703125 L 5.25 -4.703125 L 5.25 -3.890625 L 1.875 -3.890625 L 1.875 -0.828125 L 7.078125 -0.828125 L 7.078125 0 Z M 0.9375 0 "/></g></g></g></g></g></g><g transform="matrix(1, 0, 0, 1, 351, 104)"><g clip-path="url(#520875f365)"><g fill="#000000" fill-opacity="1"><g transform="translate(1.117985, 12.10022)"><g><path d="M 4.984375 -0.734375 C 5.503906 -0.734375 6.003906 -0.832031 6.484375 -1.03125 C 6.960938 -1.238281 7.363281 -1.53125 7.6875 -1.90625 L 8.296875 -1.265625 C 7.878906 -0.828125 7.378906 -0.484375 6.796875 -0.234375 C 6.210938 0.015625 5.597656 0.140625 4.953125 0.140625 C 4.335938 0.140625 3.757812 0.0234375 3.21875 -0.203125 C 2.675781 -0.429688 2.207031 -0.742188 1.8125 -1.140625 C 1.414062 -1.535156 1.101562 -2 0.875 -2.53125 C 0.644531 -3.070312 0.53125 -3.648438 0.53125 -4.265625 C 0.53125 -4.867188 0.644531 -5.441406 0.875 -5.984375 C 1.101562 -6.523438 1.414062 -6.988281 1.8125 -7.375 C 2.207031 -7.769531 2.675781 -8.082031 3.21875 -8.3125 C 3.757812 -8.539062 4.335938 -8.65625 4.953125 -8.65625 C 5.609375 -8.65625 6.226562 -8.53125 6.8125 -8.28125 C 7.40625 -8.03125 7.910156 -7.6875 8.328125 -7.25 L 7.703125 -6.59375 C 7.367188 -6.96875 6.957031 -7.257812 6.46875 -7.46875 C 5.976562 -7.6875 5.472656 -7.796875 4.953125 -7.796875 C 4.460938 -7.796875 4.003906 -7.703125 3.578125 -7.515625 C 3.160156 -7.335938 2.796875 -7.09375 2.484375 -6.78125 C 2.171875 -6.46875 1.925781 -6.09375 1.75 -5.65625 C 1.570312 -5.21875 1.484375 -4.753906 1.484375 -4.265625 C 1.484375 -3.765625 1.570312 -3.296875 1.75 -2.859375 C 1.925781 -2.429688 2.171875 -2.0625 2.484375 -1.75 C 2.796875 -1.4375 3.164062 -1.1875 3.59375 -1 C 4.019531 -0.820312 4.484375 -0.734375 4.984375 -0.734375 Z M 4.984375 -0.734375 "/></g></g></g><g fill="#000000" fill-opacity="1"><g transform="translate(9.90592, 12.10022)"><g><path d="M 0.9375 0 L 0.9375 -8.515625 L 4.640625 -8.515625 C 5.460938 -8.515625 6.125 -8.289062 6.625 -7.84375 C 7.132812 -7.394531 7.390625 -6.800781 7.390625 -6.0625 C 7.390625 -5.320312 7.132812 -4.722656 6.625 -4.265625 C 6.113281 -3.816406 5.453125 -3.59375 4.640625 -3.59375 L 1.875 -3.59375 L 1.875 0 Z M 4.5625 -7.6875 L 1.875 -7.6875 L 1.875 -4.40625 L 4.5625 -4.40625 C 5.132812 -4.40625 5.59375 -4.550781 5.9375 -4.84375 C 6.28125 -5.144531 6.453125 -5.546875 6.453125 -6.046875 C 6.453125 -6.546875 6.28125 -6.941406 5.9375 -7.234375 C 5.59375 -7.535156 5.132812 -7.6875 4.5625 -7.6875 Z M 4.5625 -7.6875 "/></g></g></g><g fill="#000000" fill-opacity="1"><g transform="translate(17.659233, 12.10022)"><g><path d="M 0.203125 -7.6875 L 0.203125 -8.515625 L 7.296875 -8.515625 L 7.296875 -7.6875 L 4.21875 -7.6875 L 4.21875 0 L 3.28125 0 L 3.28125 -7.6875 Z M 0.203125 -7.6875 "/></g></g></g><g fill="#000000" fill-opacity="1"><g transform="translate(25.169144, 12.10022)"><g/></g></g><g fill="#000000" fill-opacity="1"><g transform="translate(27.78605, 12.10022)"><g><path d="M 4.984375 -0.734375 C 5.503906 -0.734375 6.003906 -0.832031 6.484375 -1.03125 C 6.960938 -1.238281 7.363281 -1.53125 7.6875 -1.90625 L 8.296875 -1.265625 C 7.878906 -0.828125 7.378906 -0.484375 6.796875 -0.234375 C 6.210938 0.015625 5.597656 0.140625 4.953125 0.140625 C 4.335938 0.140625 3.757812 0.0234375 3.21875 -0.203125 C 2.675781 -0.429688 2.207031 -0.742188 1.8125 -1.140625 C 1.414062 -1.535156 1.101562 -2 0.875 -2.53125 C 0.644531 -3.070312 0.53125 -3.648438 0.53125 -4.265625 C 0.53125 -4.867188 0.644531 -5.441406 0.875 -5.984375 C 1.101562 -6.523438 1.414062 -6.988281 1.8125 -7.375 C 2.207031 -7.769531 2.675781 -8.082031 3.21875 -8.3125 C 3.757812 -8.539062 4.335938 -8.65625 4.953125 -8.65625 C 5.609375 -8.65625 6.226562 -8.53125 6.8125 -8.28125 C 7.40625 -8.03125 7.910156 -7.6875 8.328125 -7.25 L 7.703125 -6.59375 C 7.367188 -6.96875 6.957031 -7.257812 6.46875 -7.46875 C 5.976562 -7.6875 5.472656 -7.796875 4.953125 -7.796875 C 4.460938 -7.796875 4.003906 -7.703125 3.578125 -7.515625 C 3.160156 -7.335938 2.796875 -7.09375 2.484375 -6.78125 C 2.171875 -6.46875 1.925781 -6.09375 1.75 -5.65625 C 1.570312 -5.21875 1.484375 -4.753906 1.484375 -4.265625 C 1.484375 -3.765625 1.570312 -3.296875 1.75 -2.859375 C 1.925781 -2.429688 2.171875 -2.0625 2.484375 -1.75 C 2.796875 -1.4375 3.164062 -1.1875 3.59375 -1 C 4.019531 -0.820312 4.484375 -0.734375 4.984375 -0.734375 Z M 4.984375 -0.734375 "/></g></g></g><g fill="#000000" fill-opacity="1"><g transform="translate(36.330483, 12.10022)"><g><path d="M 9.3125 -4.265625 C 9.3125 -3.648438 9.195312 -3.070312 8.96875 -2.53125 C 8.738281 -2 8.425781 -1.535156 8.03125 -1.140625 C 7.644531 -0.742188 7.179688 -0.429688 6.640625 -0.203125 C 6.109375 0.0234375 5.535156 0.140625 4.921875 0.140625 C 4.316406 0.140625 3.742188 0.0234375 3.203125 -0.203125 C 2.660156 -0.429688 2.191406 -0.742188 1.796875 -1.140625 C 1.410156 -1.535156 1.101562 -2 0.875 -2.53125 C 0.644531 -3.070312 0.53125 -3.648438 0.53125 -4.265625 C 0.53125 -4.867188 0.644531 -5.441406 0.875 -5.984375 C 1.101562 -6.523438 1.410156 -6.988281 1.796875 -7.375 C 2.191406 -7.769531 2.660156 -8.082031 3.203125 -8.3125 C 3.742188 -8.539062 4.316406 -8.65625 4.921875 -8.65625 C 5.535156 -8.65625 6.109375 -8.539062 6.640625 -8.3125 C 7.179688 -8.082031 7.644531 -7.769531 8.03125 -7.375 C 8.425781 -6.988281 8.738281 -6.523438 8.96875 -5.984375 C 9.195312 -5.441406 9.3125 -4.867188 9.3125 -4.265625 Z M 8.359375 -4.265625 C 8.359375 -4.753906 8.269531 -5.21875 8.09375 -5.65625 C 7.914062 -6.09375 7.671875 -6.46875 7.359375 -6.78125 C 7.054688 -7.09375 6.691406 -7.335938 6.265625 -7.515625 C 5.847656 -7.703125 5.398438 -7.796875 4.921875 -7.796875 C 4.441406 -7.796875 3.988281 -7.703125 3.5625 -7.515625 C 3.144531 -7.335938 2.78125 -7.09375 2.46875 -6.78125 C 2.164062 -6.46875 1.925781 -6.09375 1.75 -5.65625 C 1.570312 -5.21875 1.484375 -4.753906 1.484375 -4.265625 C 1.484375 -3.765625 1.570312 -3.300781 1.75 -2.875 C 1.925781 -2.445312 2.164062 -2.070312 2.46875 -1.75 C 2.78125 -1.4375 3.144531 -1.1875 3.5625 -1 C 3.988281 -0.820312 4.441406 -0.734375 4.921875 -0.734375 C 5.398438 -0.734375 5.847656 -0.820312 6.265625 -1 C 6.691406 -1.1875 7.054688 -1.4375 7.359375 -1.75 C 7.671875 -2.070312 7.914062 -2.445312 8.09375 -2.875 C 8.269531 -3.300781 8.359375 -3.765625 8.359375 -4.265625 Z M 8.359375 -4.265625 "/></g></g></g><g fill="#000000" fill-opacity="1"><g transform="translate(46.177352, 12.10022)"><g><path d="M 0.9375 0 L 0.9375 -8.515625 L 3.75 -8.515625 C 4.382812 -8.515625 4.976562 -8.40625 5.53125 -8.1875 C 6.082031 -7.976562 6.554688 -7.6875 6.953125 -7.3125 C 7.359375 -6.9375 7.671875 -6.488281 7.890625 -5.96875 C 8.117188 -5.445312 8.234375 -4.878906 8.234375 -4.265625 C 8.234375 -3.640625 8.117188 -3.066406 7.890625 -2.546875 C 7.671875 -2.023438 7.363281 -1.578125 6.96875 -1.203125 C 6.570312 -0.828125 6.097656 -0.53125 5.546875 -0.3125 C 4.992188 -0.101562 4.394531 0 3.75 0 Z M 3.796875 -7.671875 L 1.875 -7.671875 L 1.875 -0.859375 L 3.796875 -0.859375 C 4.285156 -0.859375 4.742188 -0.941406 5.171875 -1.109375 C 5.597656 -1.285156 5.96875 -1.523438 6.28125 -1.828125 C 6.59375 -2.128906 6.835938 -2.488281 7.015625 -2.90625 C 7.191406 -3.332031 7.28125 -3.785156 7.28125 -4.265625 C 7.28125 -4.742188 7.191406 -5.191406 7.015625 -5.609375 C 6.835938 -6.023438 6.59375 -6.382812 6.28125 -6.6875 C 5.96875 -6.988281 5.597656 -7.226562 5.171875 -7.40625 C 4.742188 -7.582031 4.285156 -7.671875 3.796875 -7.671875 Z M 3.796875 -7.671875 "/></g></g></g><g clip-path="url(#1920cf27f4)"><g fill="#000000" fill-opacity="1"><g transform="translate(54.940943, 12.10022)"><g><path d="M 0.9375 0 L 0.9375 -8.515625 L 7.03125 -8.515625 L 7.03125 -7.6875 L 1.875 -7.6875 L 1.875 -4.703125 L 5.25 -4.703125 L 5.25 -3.890625 L 1.875 -3.890625 L 1.875 -0.828125 L 7.078125 -0.828125 L 7.078125 0 Z M 0.9375 0 "/></g></g></g></g></g></g><g transform="matrix(1, 0, 0, 1, 505, 104)"><g clip-path="url(#36ebf248da)"><g fill="#000000" fill-opacity="1"><g transform="translate(1.015235, 12.10022)"><g><path d="M 0.9375 0 L 0.9375 -8.515625 L 7.03125 -8.515625 L 7.03125 -7.6875 L 1.875 -7.6875 L 1.875 -4.65625 L 5.265625 -4.65625 L 5.265625 -3.828125 L 1.875 -3.828125 L 1.875 0 Z M 0.9375 0 "/></g></g></g><g fill="#000000" fill-opacity="1"><g transform="translate(8.403432, 12.10022)"><g><path d="M 0.9375 0 L 0.9375 -8.515625 L 7.03125 -8.515625 L 7.03125 -7.6875 L 1.875 -7.6875 L 1.875 -4.703125 L 5.25 -4.703125 L 5.25 -3.890625 L 1.875 -3.890625 L 1.875 -0.828125 L 7.078125 -0.828125 L 7.078125 0 Z M 0.9375 0 "/></g></g></g><g fill="#000000" fill-opacity="1"><g transform="translate(15.901171, 12.10022)"><g><path d="M 0.9375 0 L 0.9375 -8.515625 L 7.03125 -8.515625 L 7.03125 -7.6875 L 1.875 -7.6875 L 1.875 -4.703125 L 5.25 -4.703125 L 5.25 -3.890625 L 1.875 -3.890625 L 1.875 -0.828125 L 7.078125 -0.828125 L 7.078125 0 Z M 0.9375 0 "/></g></g></g></g></g><g transform="matrix(1, 0, 0, 1, 631, 104)"><g clip-path="url(#b63ed3ac75)"><g fill="#000000" fill-opacity="1"><g transform="translate(0.901629, 12.10022)"><g><path d="M 4.984375 -0.734375 C 5.503906 -0.734375 6.003906 -0.832031 6.484375 -1.03125 C 6.960938 -1.238281 7.363281 -1.53125 7.6875 -1.90625 L 8.296875 -1.265625 C 7.878906 -0.828125 7.378906 -0.484375 6.796875 -0.234375 C 6.210938 0.015625 5.597656 0.140625 4.953125 0.140625 C 4.335938 0.140625 3.757812 0.0234375 3.21875 -0.203125 C 2.675781 -0.429688 2.207031 -0.742188 1.8125 -1.140625 C 1.414062 -1.535156 1.101562 -2 0.875 -2.53125 C 0.644531 -3.070312 0.53125 -3.648438 0.53125 -4.265625 C 0.53125 -4.867188 0.644531 -5.441406 0.875 -5.984375 C 1.101562 -6.523438 1.414062 -6.988281 1.8125 -7.375 C 2.207031 -7.769531 2.675781 -8.082031 3.21875 -8.3125 C 3.757812 -8.539062 4.335938 -8.65625 4.953125 -8.65625 C 5.609375 -8.65625 6.226562 -8.53125 6.8125 -8.28125 C 7.40625 -8.03125 7.910156 -7.6875 8.328125 -7.25 L 7.703125 -6.59375 C 7.367188 -6.96875 6.957031 -7.257812 6.46875 -7.46875 C 5.976562 -7.6875 5.472656 -7.796875 4.953125 -7.796875 C 4.460938 -7.796875 4.003906 -7.703125 3.578125 -7.515625 C 3.160156 -7.335938 2.796875 -7.09375 2.484375 -6.78125 C 2.171875 -6.46875 1.925781 -6.09375 1.75 -5.65625 C 1.570312 -5.21875 1.484375 -4.753906 1.484375 -4.265625 C 1.484375 -3.765625 1.570312 -3.296875 1.75 -2.859375 C 1.925781 -2.429688 2.171875 -2.0625 2.484375 -1.75 C 2.796875 -1.4375 3.164062 -1.1875 3.59375 -1 C 4.019531 -0.820312 4.484375 -0.734375 4.984375 -0.734375 Z M 4.984375 -0.734375 "/></g></g></g><g fill="#000000" fill-opacity="1"><g transform="translate(9.446062, 12.10022)"><g><path d="M 9.3125 -4.265625 C 9.3125 -3.648438 9.195312 -3.070312 8.96875 -2.53125 C 8.738281 -2 8.425781 -1.535156 8.03125 -1.140625 C 7.644531 -0.742188 7.179688 -0.429688 6.640625 -0.203125 C 6.109375 0.0234375 5.535156 0.140625 4.921875 0.140625 C 4.316406 0.140625 3.742188 0.0234375 3.203125 -0.203125 C 2.660156 -0.429688 2.191406 -0.742188 1.796875 -1.140625 C 1.410156 -1.535156 1.101562 -2 0.875 -2.53125 C 0.644531 -3.070312 0.53125 -3.648438 0.53125 -4.265625 C 0.53125 -4.867188 0.644531 -5.441406 0.875 -5.984375 C 1.101562 -6.523438 1.410156 -6.988281 1.796875 -7.375 C 2.191406 -7.769531 2.660156 -8.082031 3.203125 -8.3125 C 3.742188 -8.539062 4.316406 -8.65625 4.921875 -8.65625 C 5.535156 -8.65625 6.109375 -8.539062 6.640625 -8.3125 C 7.179688 -8.082031 7.644531 -7.769531 8.03125 -7.375 C 8.425781 -6.988281 8.738281 -6.523438 8.96875 -5.984375 C 9.195312 -5.441406 9.3125 -4.867188 9.3125 -4.265625 Z M 8.359375 -4.265625 C 8.359375 -4.753906 8.269531 -5.21875 8.09375 -5.65625 C 7.914062 -6.09375 7.671875 -6.46875 7.359375 -6.78125 C 7.054688 -7.09375 6.691406 -7.335938 6.265625 -7.515625 C 5.847656 -7.703125 5.398438 -7.796875 4.921875 -7.796875 C 4.441406 -7.796875 3.988281 -7.703125 3.5625 -7.515625 C 3.144531 -7.335938 2.78125 -7.09375 2.46875 -6.78125 C 2.164062 -6.46875 1.925781 -6.09375 1.75 -5.65625 C 1.570312 -5.21875 1.484375 -4.753906 1.484375 -4.265625 C 1.484375 -3.765625 1.570312 -3.300781 1.75 -2.875 C 1.925781 -2.445312 2.164062 -2.070312 2.46875 -1.75 C 2.78125 -1.4375 3.144531 -1.1875 3.5625 -1 C 3.988281 -0.820312 4.441406 -0.734375 4.921875 -0.734375 C 5.398438 -0.734375 5.847656 -0.820312 6.265625 -1 C 6.691406 -1.1875 7.054688 -1.4375 7.359375 -1.75 C 7.671875 -2.070312 7.914062 -2.445312 8.09375 -2.875 C 8.269531 -3.300781 8.359375 -3.765625 8.359375 -4.265625 Z M 8.359375 -4.265625 "/></g></g></g><g fill="#000000" fill-opacity="1"><g transform="translate(19.292931, 12.10022)"><g><path d="M 0.9375 0 L 0.9375 -8.515625 L 4.640625 -8.515625 C 5.460938 -8.515625 6.125 -8.289062 6.625 -7.84375 C 7.132812 -7.394531 7.390625 -6.800781 7.390625 -6.0625 C 7.390625 -5.320312 7.132812 -4.722656 6.625 -4.265625 C 6.113281 -3.816406 5.453125 -3.59375 4.640625 -3.59375 L 1.875 -3.59375 L 1.875 0 Z M 4.5625 -7.6875 L 1.875 -7.6875 L 1.875 -4.40625 L 4.5625 -4.40625 C 5.132812 -4.40625 5.59375 -4.550781 5.9375 -4.84375 C 6.28125 -5.144531 6.453125 -5.546875 6.453125 -6.046875 C 6.453125 -6.546875 6.28125 -6.941406 5.9375 -7.234375 C 5.59375 -7.535156 5.132812 -7.6875 4.5625 -7.6875 Z M 4.5625 -7.6875 "/></g></g></g><g fill="#000000" fill-opacity="1"><g transform="translate(25.926145, 12.10022)"><g><path d="M 0.046875 0 L 3.59375 -8.515625 L 4.71875 -8.515625 L 8.21875 0 L 7.1875 0 L 6.125 -2.671875 L 2.109375 -2.671875 L 1.015625 0 Z M 2.4375 -3.484375 L 5.796875 -3.484375 L 4.125 -7.640625 Z M 2.4375 -3.484375 "/></g></g></g><g clip-path="url(#4b6cec8eae)"><g fill="#000000" fill-opacity="1"><g transform="translate(32.583598, 12.10022)"><g><path d="M 3.421875 0 L 3.421875 -3.46875 L 0.03125 -8.515625 L 1.125 -8.515625 L 3.921875 -4.296875 L 6.6875 -8.515625 L 7.75 -8.515625 L 4.359375 -3.4375 L 4.359375 0 Z M 3.421875 0 "/></g></g></g></g></g></g><g transform="matrix(1, 0, 0, 1, 756, 104)"><g clip-path="url(#446f2eea26)"><g fill="#000000" fill-opacity="1"><g transform="translate(0.49776, 12.10022)"><g><path d="M 0.9375 0 L 0.9375 -8.515625 L 3.75 -8.515625 C 4.382812 -8.515625 4.976562 -8.40625 5.53125 -8.1875 C 6.082031 -7.976562 6.554688 -7.6875 6.953125 -7.3125 C 7.359375 -6.9375 7.671875 -6.488281 7.890625 -5.96875 C 8.117188 -5.445312 8.234375 -4.878906 8.234375 -4.265625 C 8.234375 -3.640625 8.117188 -3.066406 7.890625 -2.546875 C 7.671875 -2.023438 7.363281 -1.578125 6.96875 -1.203125 C 6.570312 -0.828125 6.097656 -0.53125 5.546875 -0.3125 C 4.992188 -0.101562 4.394531 0 3.75 0 Z M 3.796875 -7.671875 L 1.875 -7.671875 L 1.875 -0.859375 L 3.796875 -0.859375 C 4.285156 -0.859375 4.742188 -0.941406 5.171875 -1.109375 C 5.597656 -1.285156 5.96875 -1.523438 6.28125 -1.828125 C 6.59375 -2.128906 6.835938 -2.488281 7.015625 -2.90625 C 7.191406 -3.332031 7.28125 -3.785156 7.28125 -4.265625 C 7.28125 -4.742188 7.191406 -5.191406 7.015625 -5.609375 C 6.835938 -6.023438 6.59375 -6.382812 6.28125 -6.6875 C 5.96875 -6.988281 5.597656 -7.226562 5.171875 -7.40625 C 4.742188 -7.582031 4.285156 -7.671875 3.796875 -7.671875 Z M 3.796875 -7.671875 "/></g></g></g><g fill="#000000" fill-opacity="1"><g transform="translate(8.823049, 12.10022)"><g><path d="M 0.046875 0 L 3.59375 -8.515625 L 4.71875 -8.515625 L 8.21875 0 L 7.1875 0 L 6.125 -2.671875 L 2.109375 -2.671875 L 1.015625 0 Z M 2.4375 -3.484375 L 5.796875 -3.484375 L 4.125 -7.640625 Z M 2.4375 -3.484375 "/></g></g></g><g fill="#000000" fill-opacity="1"><g transform="translate(15.529202, 12.10022)"><g><path d="M 0.203125 -7.6875 L 0.203125 -8.515625 L 7.296875 -8.515625 L 7.296875 -7.6875 L 4.21875 -7.6875 L 4.21875 0 L 3.28125 0 L 3.28125 -7.6875 Z M 0.203125 -7.6875 "/></g></g></g><g fill="#000000" fill-opacity="1"><g transform="translate(23.039113, 12.10022)"><g><path d="M 0.9375 0 L 0.9375 -8.515625 L 7.03125 -8.515625 L 7.03125 -7.6875 L 1.875 -7.6875 L 1.875 -4.703125 L 5.25 -4.703125 L 5.25 -3.890625 L 1.875 -3.890625 L 1.875 -0.828125 L 7.078125 -0.828125 L 7.078125 0 Z M 0.9375 0 "/></g></g></g><g fill="#000000" fill-opacity="1"><g transform="translate(30.536852, 12.10022)"><g/></g></g><g fill="#000000" fill-opacity="1"><g transform="translate(33.153758, 12.10022)"><g><path d="M 0.9375 0 L 0.9375 -8.515625 L 4.640625 -8.515625 C 5.460938 -8.515625 6.125 -8.289062 6.625 -7.84375 C 7.132812 -7.394531 7.390625 -6.800781 7.390625 -6.0625 C 7.390625 -5.320312 7.132812 -4.722656 6.625 -4.265625 C 6.113281 -3.816406 5.453125 -3.59375 4.640625 -3.59375 L 1.875 -3.59375 L 1.875 0 Z M 4.5625 -7.6875 L 1.875 -7.6875 L 1.875 -4.40625 L 4.5625 -4.40625 C 5.132812 -4.40625 5.59375 -4.550781 5.9375 -4.84375 C 6.28125 -5.144531 6.453125 -5.546875 6.453125 -6.046875 C 6.453125 -6.546875 6.28125 -6.941406 5.9375 -7.234375 C 5.59375 -7.535156 5.132812 -7.6875 4.5625 -7.6875 Z M 4.5625 -7.6875 "/></g></g></g><g fill="#000000" fill-opacity="1"><g transform="translate(39.786973, 12.10022)"><g><path d="M 0.046875 0 L 3.59375 -8.515625 L 4.71875 -8.515625 L 8.21875 0 L 7.1875 0 L 6.125 -2.671875 L 2.109375 -2.671875 L 1.015625 0 Z M 2.4375 -3.484375 L 5.796875 -3.484375 L 4.125 -7.640625 Z M 2.4375 -3.484375 "/></g></g></g><g fill="#000000" fill-opacity="1"><g transform="translate(48.051526, 12.10022)"><g><path d="M 0.9375 0 L 0.9375 -8.515625 L 1.875 -8.515625 L 1.875 0 Z M 0.9375 0 "/></g></g></g><g clip-path="url(#cf9d275366)"><g fill="#000000" fill-opacity="1"><g transform="translate(50.863177, 12.10022)"><g><path d="M 0.9375 0 L 0.9375 -8.515625 L 3.75 -8.515625 C 4.382812 -8.515625 4.976562 -8.40625 5.53125 -8.1875 C 6.082031 -7.976562 6.554688 -7.6875 6.953125 -7.3125 C 7.359375 -6.9375 7.671875 -6.488281 7.890625 -5.96875 C 8.117188 -5.445312 8.234375 -4.878906 8.234375 -4.265625 C 8.234375 -3.640625 8.117188 -3.066406 7.890625 -2.546875 C 7.671875 -2.023438 7.363281 -1.578125 6.96875 -1.203125 C 6.570312 -0.828125 6.097656 -0.53125 5.546875 -0.3125 C 4.992188 -0.101562 4.394531 0 3.75 0 Z M 3.796875 -7.671875 L 1.875 -7.671875 L 1.875 -0.859375 L 3.796875 -0.859375 C 4.285156 -0.859375 4.742188 -0.941406 5.171875 -1.109375 C 5.597656 -1.285156 5.96875 -1.523438 6.28125 -1.828125 C 6.59375 -2.128906 6.835938 -2.488281 7.015625 -2.90625 C 7.191406 -3.332031 7.28125 -3.785156 7.28125 -4.265625 C 7.28125 -4.742188 7.191406 -5.191406 7.015625 -5.609375 C 6.835938 -6.023438 6.59375 -6.382812 6.28125 -6.6875 C 5.96875 -6.988281 5.597656 -7.226562 5.171875 -7.40625 C 4.742188 -7.582031 4.285156 -7.671875 3.796875 -7.671875 Z M 3.796875 -7.671875 "/></g></g></g></g></g></g><g clip-path="url(#4769364b6a)"><path fill="#000000" d="M 46.714844 93.726562 L 46.714844 580.273438 M 181.140625 93.726562 L 181.140625 580.273438 M 315.570312 93.726562 L 315.570312 580.273438 M 450 93.726562 L 450 580.273438 M 584.429688 93.726562 L 584.429688 580.273438 M 718.859375 93.726562 L 718.859375 580.273438 M 853.285156 93.726562 L 853.285156 580.273438 M 46.308594 93.320312 L 853.691406 93.320312 M 46.308594 130.859375 L 853.691406 130.859375 M 46.308594 162.988281 L 853.691406 162.988281 M 46.308594 195.117188 L 853.691406 195.117188 M 46.308594 227.25 L 853.691406 227.25 M 46.308594 259.378906 L 853.691406 259.378906 M 46.308594 291.507812 L 853.691406 291.507812 M 46.308594 323.640625 L 853.691406 323.640625 M 46.308594 355.769531 L 853.691406 355.769531 M 46.308594 387.898438 L 853.691406 387.898438 M 46.308594 420.03125 L 853.691406 420.03125 M 46.308594 452.160156 L 853.691406 452.160156 M 46.308594 484.289062 L 853.691406 484.289062 M 46.308594 516.421875 L 853.691406 516.421875 M 46.308594 548.550781 L 853.691406 548.550781 M 46.308594 580.679688 L 853.691406 580.679688 " fill-opacity="1" fill-rule="nonzero"/></g><g clip-path="url(#a21e82781f)"><path stroke-linecap="butt" transform="matrix(0.748891, 0, 0, 0.748891, 46.306663, 92.913695)" fill="none" stroke-linejoin="miter" d="M 0.545047 1.085429 L 0.545047 650.775701 M 180.044961 1.085429 L 180.044961 650.775701 M 359.550091 1.085429 L 359.550091 650.775701 M 539.055222 1.085429 L 539.055222 650.775701 M 718.560352 1.085429 L 718.560352 650.775701 M 898.065483 1.085429 L 898.065483 650.775701 M 1077.565397 1.085429 L 1077.565397 650.775701 M 0.00257748 0.54296 L 1078.107866 0.54296 M 0.00257748 50.669196 L 1078.107866 50.669196 M 0.00257748 93.571204 L 1078.107866 93.571204 M 0.00257748 136.473212 L 1078.107866 136.473212 M 0.00257748 179.380436 L 1078.107866 179.380436 M 0.00257748 222.282443 L 1078.107866 222.282443 M 0.00257748 265.184451 L 1078.107866 265.184451 M 0.00257748 308.091675 L 1078.107866 308.091675 M 0.00257748 350.993683 L 1078.107866 350.993683 M 0.00257748 393.895691 L 1078.107866 393.895691 M 0.00257748 436.802915 L 1078.107866 436.802915 M 0.00257748 479.704922 L 1078.107866 479.704922 M 0.00257748 522.60693 L 1078.107866 522.60693 M 0.00257748 565.514154 L 1078.107866 565.514154 M 0.00257748 608.416162 L 1078.107866 608.416162 M 0.00257748 651.31817 L 1078.107866 651.31817 " stroke="#000000" stroke-width="1.086361" stroke-opacity="1" stroke-miterlimit="4"/></g></svg>