<svg xmlns="http://www.w3.org/2000/svg" xmlns:xlink="http://www.w3.org/1999/xlink" width="1167" zoomAndPan="magnify" viewBox="0 0 876 1326.749967" height="1800" preserveAspectRatio="xMidYMid meet" version="1.0"><defs><g/><clipPath id="406b2abd2f"><path d="M 0.09375 16.96875 L 875.15625 16.96875 L 875.15625 151.582031 L 0.09375 151.582031 Z M 0.09375 16.96875 " clip-rule="nonzero"/></clipPath><clipPath id="3ed7430899"><path d="M 4.433594 188.53125 L 28.429688 188.53125 L 28.429688 212.523438 L 4.433594 212.523438 Z M 4.433594 188.53125 " clip-rule="nonzero"/></clipPath><clipPath id="76393558f9"><rect x="0" width="75" y="0" height="31"/></clipPath><clipPath id="b879291059"><path d="M 4.433594 288.617188 L 28.429688 288.617188 L 28.429688 312.613281 L 4.433594 312.613281 Z M 4.433594 288.617188 " clip-rule="nonzero"/></clipPath><clipPath id="9d4c7977a1"><path d="M 4.433594 388.707031 L 28.429688 388.707031 L 28.429688 412.703125 L 4.433594 412.703125 Z M 4.433594 388.707031 " clip-rule="nonzero"/></clipPath><clipPath id="5bf9512cab"><path d="M 0.09375 488.765625 L 875.15625 488.765625 L 875.15625 623.378906 L 0.09375 623.378906 Z M 0.09375 488.765625 " clip-rule="nonzero"/></clipPath><clipPath id="ba2c6875de"><rect x="0" width="75" y="0" height="31"/></clipPath><clipPath id="f81cdf9a7c"><path d="M 0.09375 921.371094 L 875.15625 921.371094 L 875.15625 1055.980469 L 0.09375 1055.980469 Z M 0.09375 921.371094 " clip-rule="nonzero"/></clipPath><clipPath id="f88eefcfe8"><rect x="0" width="75" y="0" height="31"/></clipPath><clipPath id="33f9937e86"><path d="M 6.605469 660.125 L 30.601562 660.125 L 30.601562 684.121094 L 6.605469 684.121094 Z M 6.605469 660.125 " clip-rule="nonzero"/></clipPath><clipPath id="da3262a5a6"><path d="M 6.605469 760.214844 L 30.601562 760.214844 L 30.601562 784.210938 L 6.605469 784.210938 Z M 6.605469 760.214844 " clip-rule="nonzero"/></clipPath><clipPath id="c090fa4361"><path d="M 6.605469 860.304688 L 30.601562 860.304688 L 30.601562 884.296875 L 6.605469 884.296875 Z M 6.605469 860.304688 " clip-rule="nonzero"/></clipPath><clipPath id="3fb9c102eb"><path d="M 6.605469 1092.726562 L 30.601562 1092.726562 L 30.601562 1116.722656 L 6.605469 1116.722656 Z M 6.605469 1092.726562 " clip-rule="nonzero"/></clipPath><clipPath id="d1888944de"><path d="M 6.605469 1192.816406 L 30.601562 1192.816406 L 30.601562 1216.8125 L 6.605469 1216.8125 Z M 6.605469 1192.816406 " clip-rule="nonzero"/></clipPath><clipPath id="2614d8b04f"><path d="M 6.605469 1292.90625 L 30.601562 1292.90625 L 30.601562 1316.902344 L 6.605469 1316.902344 Z M 6.605469 1292.90625 " clip-rule="nonzero"/></clipPath></defs><g clip-path="url(#406b2abd2f)"><path stroke-linecap="butt" transform="matrix(0.749859, 0, 0, 0.749859, 0.093963, 16.968853)" fill="none" stroke-linejoin="miter" d="M -0.00028412 -0.000137177 L 1166.969645 -0.000137177 L 1166.969645 179.51807 L -0.00028412 179.51807 Z M -0.00028412 -0.000137177 " stroke="#000000" stroke-width="2" stroke-opacity="1" stroke-miterlimit="4"/></g><g clip-path="url(#3ed7430899)"><path fill="#000000" d="M 28.429688 200.527344 C 28.429688 201.316406 28.351562 202.09375 28.195312 202.867188 C 28.042969 203.640625 27.816406 204.390625 27.515625 205.117188 C 27.214844 205.847656 26.84375 206.539062 26.40625 207.191406 C 25.96875 207.847656 25.472656 208.453125 24.914062 209.011719 C 24.355469 209.566406 23.75 210.066406 23.09375 210.503906 C 22.441406 210.941406 21.75 211.308594 21.019531 211.613281 C 20.292969 211.914062 19.542969 212.140625 18.769531 212.292969 C 17.996094 212.449219 17.21875 212.523438 16.429688 212.523438 C 15.640625 212.523438 14.863281 212.449219 14.089844 212.292969 C 13.316406 212.140625 12.566406 211.914062 11.839844 211.613281 C 11.109375 211.308594 10.417969 210.941406 9.765625 210.503906 C 9.109375 210.066406 8.503906 209.566406 7.945312 209.011719 C 7.390625 208.453125 6.890625 207.847656 6.453125 207.191406 C 6.015625 206.539062 5.648438 205.847656 5.34375 205.117188 C 5.042969 204.390625 4.816406 203.640625 4.664062 202.867188 C 4.507812 202.09375 4.433594 201.316406 4.433594 200.527344 C 4.433594 199.738281 4.507812 198.960938 4.664062 198.1875 C 4.816406 197.414062 5.042969 196.664062 5.34375 195.9375 C 5.648438 195.207031 6.015625 194.515625 6.453125 193.863281 C 6.890625 193.207031 7.390625 192.601562 7.945312 192.042969 C 8.503906 191.488281 9.109375 190.988281 9.765625 190.550781 C 10.417969 190.113281 11.109375 189.746094 11.839844 189.441406 C 12.566406 189.140625 13.316406 188.914062 14.089844 188.761719 C 14.863281 188.605469 15.640625 188.53125 16.429688 188.53125 C 17.21875 188.53125 17.996094 188.605469 18.769531 188.761719 C 19.542969 188.914062 20.292969 189.140625 21.019531 189.441406 C 21.75 189.746094 22.441406 190.113281 23.09375 190.550781 C 23.75 190.988281 24.355469 191.488281 24.914062 192.042969 C 25.472656 192.601562 25.96875 193.207031 26.40625 193.863281 C 26.84375 194.515625 27.214844 195.207031 27.515625 195.9375 C 27.816406 196.664062 28.042969 197.414062 28.195312 198.1875 C 28.351562 198.960938 28.429688 199.738281 28.429688 200.527344 Z M 28.429688 200.527344 " fill-opacity="1" fill-rule="nonzero"/></g><g transform="matrix(1, 0, 0, 1, 18, 40)"><g clip-path="url(#76393558f9)"><g fill="#000000" fill-opacity="1"><g transform="translate(0.768819, 22.787498)"><g><path d="M 7.234375 0 C 7.015625 0 6.832031 -0.0703125 6.6875 -0.21875 C 6.550781 -0.363281 6.484375 -0.53125 6.484375 -0.71875 L 6.484375 -15.984375 L 7.96875 -15.984375 L 7.96875 -0.71875 C 7.96875 -0.53125 7.894531 -0.363281 7.75 -0.21875 C 7.613281 -0.0703125 7.441406 0 7.234375 0 Z M 1.53125 -15.40625 C 1.34375 -15.40625 1.175781 -15.46875 1.03125 -15.59375 C 0.882812 -15.71875 0.8125 -15.882812 0.8125 -16.09375 C 0.8125 -16.289062 0.882812 -16.453125 1.03125 -16.578125 C 1.175781 -16.703125 1.34375 -16.765625 1.53125 -16.765625 L 12.9375 -16.765625 C 13.125 -16.765625 13.289062 -16.703125 13.4375 -16.578125 C 13.582031 -16.453125 13.65625 -16.285156 13.65625 -16.078125 C 13.65625 -15.867188 13.582031 -15.703125 13.4375 -15.578125 C 13.289062 -15.460938 13.125 -15.40625 12.9375 -15.40625 Z M 1.53125 -15.40625 "/></g></g></g><g fill="#000000" fill-opacity="1"><g transform="translate(15.221682, 22.787498)"><g><path d="M 17.203125 -8.390625 C 17.203125 -7.117188 17.003906 -5.960938 16.609375 -4.921875 C 16.222656 -3.878906 15.671875 -2.96875 14.953125 -2.1875 C 14.234375 -1.414062 13.378906 -0.816406 12.390625 -0.390625 C 11.410156 0.0234375 10.335938 0.234375 9.171875 0.234375 C 8.003906 0.234375 6.929688 0.0234375 5.953125 -0.390625 C 4.972656 -0.816406 4.125 -1.414062 3.40625 -2.1875 C 2.6875 -2.96875 2.128906 -3.878906 1.734375 -4.921875 C 1.347656 -5.960938 1.15625 -7.117188 1.15625 -8.390625 C 1.15625 -9.648438 1.347656 -10.800781 1.734375 -11.84375 C 2.128906 -12.882812 2.6875 -13.789062 3.40625 -14.5625 C 4.125 -15.34375 4.972656 -15.941406 5.953125 -16.359375 C 6.929688 -16.785156 8.003906 -17 9.171875 -17 C 10.335938 -17 11.410156 -16.785156 12.390625 -16.359375 C 13.378906 -15.941406 14.234375 -15.34375 14.953125 -14.5625 C 15.671875 -13.789062 16.222656 -12.882812 16.609375 -11.84375 C 17.003906 -10.800781 17.203125 -9.648438 17.203125 -8.390625 Z M 15.671875 -8.390625 C 15.671875 -9.804688 15.394531 -11.050781 14.84375 -12.125 C 14.289062 -13.207031 13.523438 -14.050781 12.546875 -14.65625 C 11.578125 -15.257812 10.453125 -15.5625 9.171875 -15.5625 C 7.910156 -15.5625 6.785156 -15.257812 5.796875 -14.65625 C 4.816406 -14.050781 4.050781 -13.207031 3.5 -12.125 C 2.957031 -11.050781 2.6875 -9.804688 2.6875 -8.390625 C 2.6875 -6.960938 2.957031 -5.707031 3.5 -4.625 C 4.050781 -3.550781 4.816406 -2.710938 5.796875 -2.109375 C 6.785156 -1.503906 7.910156 -1.203125 9.171875 -1.203125 C 10.453125 -1.203125 11.578125 -1.503906 12.546875 -2.109375 C 13.523438 -2.710938 14.289062 -3.550781 14.84375 -4.625 C 15.394531 -5.707031 15.671875 -6.960938 15.671875 -8.390625 Z M 15.671875 -8.390625 "/></g></g></g><g fill="#000000" fill-opacity="1"><g transform="translate(33.550974, 22.787498)"><g><path d="M 8.640625 -16.765625 C 9.535156 -16.765625 10.328125 -16.5625 11.015625 -16.15625 C 11.703125 -15.75 12.242188 -15.1875 12.640625 -14.46875 C 13.046875 -13.75 13.25 -12.925781 13.25 -12 C 13.25 -11.070312 13.046875 -10.238281 12.640625 -9.5 C 12.242188 -8.757812 11.703125 -8.171875 11.015625 -7.734375 C 10.328125 -7.304688 9.535156 -7.09375 8.640625 -7.09375 L 3.5625 -7.09375 L 3.6875 -7.328125 L 3.6875 -0.71875 C 3.6875 -0.53125 3.613281 -0.363281 3.46875 -0.21875 C 3.320312 -0.0703125 3.15625 0 2.96875 0 C 2.75 0 2.570312 -0.0703125 2.4375 -0.21875 C 2.3125 -0.363281 2.25 -0.53125 2.25 -0.71875 L 2.25 -16.046875 C 2.25 -16.242188 2.320312 -16.410156 2.46875 -16.546875 C 2.613281 -16.691406 2.78125 -16.765625 2.96875 -16.765625 Z M 8.640625 -8.484375 C 9.265625 -8.484375 9.804688 -8.632812 10.265625 -8.9375 C 10.734375 -9.25 11.097656 -9.671875 11.359375 -10.203125 C 11.628906 -10.742188 11.765625 -11.34375 11.765625 -12 C 11.765625 -12.65625 11.628906 -13.234375 11.359375 -13.734375 C 11.097656 -14.234375 10.734375 -14.628906 10.265625 -14.921875 C 9.804688 -15.210938 9.265625 -15.359375 8.640625 -15.359375 L 3.5625 -15.359375 L 3.6875 -15.5625 L 3.6875 -8.328125 L 3.546875 -8.484375 Z M 8.640625 -8.484375 "/></g></g></g><g fill="#000000" fill-opacity="1"><g transform="translate(47.812414, 22.787498)"><g><path d="M 3.765625 -0.75 C 3.742188 -0.539062 3.65625 -0.363281 3.5 -0.21875 C 3.351562 -0.0703125 3.1875 0 3 0 C 2.769531 0 2.585938 -0.0703125 2.453125 -0.21875 C 2.316406 -0.363281 2.25 -0.539062 2.25 -0.75 L 2.25 -16.03125 C 2.25 -16.238281 2.320312 -16.410156 2.46875 -16.546875 C 2.613281 -16.691406 2.796875 -16.765625 3.015625 -16.765625 C 3.210938 -16.765625 3.382812 -16.691406 3.53125 -16.546875 C 3.6875 -16.410156 3.765625 -16.238281 3.765625 -16.03125 Z M 3.765625 -0.75 "/></g></g></g><g fill="#000000" fill-opacity="1"><g transform="translate(53.794563, 22.787498)"><g><path d="M 14.484375 -15.515625 C 14.679688 -15.390625 14.796875 -15.226562 14.828125 -15.03125 C 14.859375 -14.832031 14.8125 -14.632812 14.6875 -14.4375 C 14.570312 -14.300781 14.425781 -14.222656 14.25 -14.203125 C 14.070312 -14.191406 13.90625 -14.222656 13.75 -14.296875 C 13.144531 -14.703125 12.492188 -15.015625 11.796875 -15.234375 C 11.097656 -15.453125 10.351562 -15.5625 9.5625 -15.5625 C 8.582031 -15.5625 7.671875 -15.390625 6.828125 -15.046875 C 5.992188 -14.710938 5.265625 -14.21875 4.640625 -13.5625 C 4.023438 -12.914062 3.546875 -12.15625 3.203125 -11.28125 C 2.859375 -10.40625 2.6875 -9.441406 2.6875 -8.390625 C 2.6875 -7.296875 2.859375 -6.304688 3.203125 -5.421875 C 3.554688 -4.535156 4.046875 -3.773438 4.671875 -3.140625 C 5.304688 -2.503906 6.039062 -2.015625 6.875 -1.671875 C 7.707031 -1.335938 8.601562 -1.171875 9.5625 -1.171875 C 10.34375 -1.171875 11.078125 -1.28125 11.765625 -1.5 C 12.460938 -1.726562 13.113281 -2.035156 13.71875 -2.421875 C 13.882812 -2.515625 14.054688 -2.546875 14.234375 -2.515625 C 14.421875 -2.492188 14.570312 -2.40625 14.6875 -2.25 C 14.832031 -2.070312 14.882812 -1.882812 14.84375 -1.6875 C 14.800781 -1.488281 14.691406 -1.332031 14.515625 -1.21875 C 14.117188 -0.96875 13.644531 -0.726562 13.09375 -0.5 C 12.550781 -0.28125 11.976562 -0.101562 11.375 0.03125 C 10.769531 0.164062 10.164062 0.234375 9.5625 0.234375 C 8.40625 0.234375 7.320312 0.03125 6.3125 -0.375 C 5.3125 -0.789062 4.421875 -1.378906 3.640625 -2.140625 C 2.859375 -2.898438 2.25 -3.804688 1.8125 -4.859375 C 1.375 -5.910156 1.15625 -7.085938 1.15625 -8.390625 C 1.15625 -9.628906 1.367188 -10.769531 1.796875 -11.8125 C 2.222656 -12.863281 2.820312 -13.769531 3.59375 -14.53125 C 4.363281 -15.300781 5.257812 -15.898438 6.28125 -16.328125 C 7.300781 -16.765625 8.394531 -16.984375 9.5625 -16.984375 C 10.46875 -16.984375 11.34375 -16.851562 12.1875 -16.59375 C 13.039062 -16.34375 13.804688 -15.984375 14.484375 -15.515625 Z M 14.484375 -15.515625 "/></g></g></g><g fill="#000000" fill-opacity="1"><g transform="translate(69.419915, 22.787498)"><g><path d="M 2.15625 -9.984375 C 1.882812 -9.984375 1.675781 -10.066406 1.53125 -10.234375 C 1.382812 -10.398438 1.3125 -10.625 1.3125 -10.90625 L 1.3125 -11.40625 C 1.3125 -11.6875 1.382812 -11.910156 1.53125 -12.078125 C 1.675781 -12.242188 1.882812 -12.328125 2.15625 -12.328125 L 2.328125 -12.328125 C 2.597656 -12.328125 2.800781 -12.242188 2.9375 -12.078125 C 3.082031 -11.910156 3.15625 -11.6875 3.15625 -11.40625 L 3.15625 -10.90625 C 3.15625 -10.625 3.082031 -10.398438 2.9375 -10.234375 C 2.800781 -10.066406 2.597656 -9.984375 2.328125 -9.984375 Z M 2.15625 0 C 1.882812 0 1.675781 -0.0820312 1.53125 -0.25 C 1.382812 -0.414062 1.3125 -0.632812 1.3125 -0.90625 L 1.3125 -1.4375 C 1.3125 -1.726562 1.382812 -1.953125 1.53125 -2.109375 C 1.675781 -2.265625 1.882812 -2.34375 2.15625 -2.34375 L 2.328125 -2.34375 C 2.597656 -2.34375 2.800781 -2.265625 2.9375 -2.109375 C 3.082031 -1.953125 3.15625 -1.726562 3.15625 -1.4375 L 3.15625 -0.90625 C 3.15625 -0.632812 3.082031 -0.414062 2.9375 -0.25 C 2.800781 -0.0820312 2.597656 0 2.328125 0 Z M 2.15625 0 "/></g></g></g></g></g><g clip-path="url(#b879291059)"><path fill="#000000" d="M 28.429688 300.617188 C 28.429688 301.40625 28.351562 302.183594 28.195312 302.957031 C 28.042969 303.730469 27.816406 304.480469 27.515625 305.207031 C 27.214844 305.9375 26.84375 306.628906 26.40625 307.28125 C 25.96875 307.9375 25.472656 308.542969 24.914062 309.101562 C 24.355469 309.65625 23.75 310.15625 23.09375 310.59375 C 22.441406 311.03125 21.75 311.398438 21.019531 311.699219 C 20.292969 312.003906 19.542969 312.230469 18.769531 312.382812 C 17.996094 312.539062 17.21875 312.613281 16.429688 312.613281 C 15.640625 312.613281 14.863281 312.539062 14.089844 312.382812 C 13.316406 312.230469 12.566406 312.003906 11.839844 311.699219 C 11.109375 311.398438 10.417969 311.03125 9.765625 310.59375 C 9.109375 310.15625 8.503906 309.65625 7.945312 309.101562 C 7.390625 308.542969 6.890625 307.9375 6.453125 307.28125 C 6.015625 306.628906 5.648438 305.9375 5.34375 305.207031 C 5.042969 304.480469 4.816406 303.730469 4.664062 302.957031 C 4.507812 302.183594 4.433594 301.40625 4.433594 300.617188 C 4.433594 299.828125 4.507812 299.046875 4.664062 298.277344 C 4.816406 297.503906 5.042969 296.753906 5.34375 296.023438 C 5.648438 295.296875 6.015625 294.605469 6.453125 293.949219 C 6.890625 293.296875 7.390625 292.691406 7.945312 292.132812 C 8.503906 291.574219 9.109375 291.078125 9.765625 290.640625 C 10.417969 290.203125 11.109375 289.832031 11.839844 289.53125 C 12.566406 289.230469 13.316406 289.003906 14.089844 288.847656 C 14.863281 288.695312 15.640625 288.617188 16.429688 288.617188 C 17.21875 288.617188 17.996094 288.695312 18.769531 288.847656 C 19.542969 289.003906 20.292969 289.230469 21.019531 289.53125 C 21.75 289.832031 22.441406 290.203125 23.09375 290.640625 C 23.75 291.078125 24.355469 291.574219 24.914062 292.132812 C 25.472656 292.691406 25.96875 293.296875 26.40625 293.949219 C 26.84375 294.605469 27.214844 295.296875 27.515625 296.023438 C 27.816406 296.753906 28.042969 297.503906 28.195312 298.277344 C 28.351562 299.046875 28.429688 299.828125 28.429688 300.617188 Z M 28.429688 300.617188 " fill-opacity="1" fill-rule="nonzero"/></g><g clip-path="url(#9d4c7977a1)"><path fill="#000000" d="M 28.429688 400.707031 C 28.429688 401.492188 28.351562 402.273438 28.195312 403.046875 C 28.042969 403.820312 27.816406 404.570312 27.515625 405.296875 C 27.214844 406.023438 26.84375 406.714844 26.40625 407.371094 C 25.96875 408.027344 25.472656 408.632812 24.914062 409.1875 C 24.355469 409.746094 23.75 410.242188 23.09375 410.679688 C 22.441406 411.117188 21.75 411.488281 21.019531 411.789062 C 20.292969 412.089844 19.542969 412.320312 18.769531 412.472656 C 17.996094 412.625 17.21875 412.703125 16.429688 412.703125 C 15.640625 412.703125 14.863281 412.625 14.089844 412.472656 C 13.316406 412.320312 12.566406 412.089844 11.839844 411.789062 C 11.109375 411.488281 10.417969 411.117188 9.765625 410.679688 C 9.109375 410.242188 8.503906 409.746094 7.945312 409.1875 C 7.390625 408.632812 6.890625 408.027344 6.453125 407.371094 C 6.015625 406.714844 5.648438 406.023438 5.34375 405.296875 C 5.042969 404.570312 4.816406 403.820312 4.664062 403.046875 C 4.507812 402.273438 4.433594 401.492188 4.433594 400.707031 C 4.433594 399.917969 4.507812 399.136719 4.664062 398.363281 C 4.816406 397.59375 5.042969 396.84375 5.34375 396.113281 C 5.648438 395.386719 6.015625 394.695312 6.453125 394.039062 C 6.890625 393.386719 7.390625 392.777344 7.945312 392.222656 C 8.503906 391.664062 9.109375 391.167969 9.765625 390.730469 C 10.417969 390.292969 11.109375 389.921875 11.839844 389.621094 C 12.566406 389.320312 13.316406 389.09375 14.089844 388.9375 C 14.863281 388.785156 15.640625 388.707031 16.429688 388.707031 C 17.21875 388.707031 17.996094 388.785156 18.769531 388.9375 C 19.542969 389.09375 20.292969 389.320312 21.019531 389.621094 C 21.75 389.921875 22.441406 390.292969 23.09375 390.730469 C 23.75 391.167969 24.355469 391.664062 24.914062 392.222656 C 25.472656 392.777344 25.96875 393.386719 26.40625 394.039062 C 26.84375 394.695312 27.214844 395.386719 27.515625 396.113281 C 27.816406 396.84375 28.042969 397.59375 28.195312 398.363281 C 28.351562 399.136719 28.429688 399.917969 28.429688 400.707031 Z M 28.429688 400.707031 " fill-opacity="1" fill-rule="nonzero"/></g><g clip-path="url(#5bf9512cab)"><path stroke-linecap="butt" transform="matrix(0.749859, 0, 0, 0.749859, 0.093963, 488.766845)" fill="none" stroke-linejoin="miter" d="M -0.00028412 -0.00162691 L 1166.969645 -0.00162691 L 1166.969645 179.51658 L -0.00028412 179.51658 Z M -0.00028412 -0.00162691 " stroke="#000000" stroke-width="2" stroke-opacity="1" stroke-miterlimit="4"/></g><g transform="matrix(1, 0, 0, 1, 17, 517)"><g clip-path="url(#ba2c6875de)"><g fill="#000000" fill-opacity="1"><g transform="translate(0.681377, 22.638895)"><g><path d="M 7.234375 0 C 7.015625 0 6.832031 -0.0703125 6.6875 -0.21875 C 6.550781 -0.363281 6.484375 -0.53125 6.484375 -0.71875 L 6.484375 -15.984375 L 7.96875 -15.984375 L 7.96875 -0.71875 C 7.96875 -0.53125 7.894531 -0.363281 7.75 -0.21875 C 7.613281 -0.0703125 7.441406 0 7.234375 0 Z M 1.53125 -15.40625 C 1.34375 -15.40625 1.175781 -15.46875 1.03125 -15.59375 C 0.882812 -15.71875 0.8125 -15.882812 0.8125 -16.09375 C 0.8125 -16.289062 0.882812 -16.453125 1.03125 -16.578125 C 1.175781 -16.703125 1.34375 -16.765625 1.53125 -16.765625 L 12.9375 -16.765625 C 13.125 -16.765625 13.289062 -16.703125 13.4375 -16.578125 C 13.582031 -16.453125 13.65625 -16.285156 13.65625 -16.078125 C 13.65625 -15.867188 13.582031 -15.703125 13.4375 -15.578125 C 13.289062 -15.460938 13.125 -15.40625 12.9375 -15.40625 Z M 1.53125 -15.40625 "/></g></g></g><g fill="#000000" fill-opacity="1"><g transform="translate(15.134241, 22.638895)"><g><path d="M 17.203125 -8.390625 C 17.203125 -7.117188 17.003906 -5.960938 16.609375 -4.921875 C 16.222656 -3.878906 15.671875 -2.96875 14.953125 -2.1875 C 14.234375 -1.414062 13.378906 -0.816406 12.390625 -0.390625 C 11.410156 0.0234375 10.335938 0.234375 9.171875 0.234375 C 8.003906 0.234375 6.929688 0.0234375 5.953125 -0.390625 C 4.972656 -0.816406 4.125 -1.414062 3.40625 -2.1875 C 2.6875 -2.96875 2.128906 -3.878906 1.734375 -4.921875 C 1.347656 -5.960938 1.15625 -7.117188 1.15625 -8.390625 C 1.15625 -9.648438 1.347656 -10.800781 1.734375 -11.84375 C 2.128906 -12.882812 2.6875 -13.789062 3.40625 -14.5625 C 4.125 -15.34375 4.972656 -15.941406 5.953125 -16.359375 C 6.929688 -16.785156 8.003906 -17 9.171875 -17 C 10.335938 -17 11.410156 -16.785156 12.390625 -16.359375 C 13.378906 -15.941406 14.234375 -15.34375 14.953125 -14.5625 C 15.671875 -13.789062 16.222656 -12.882812 16.609375 -11.84375 C 17.003906 -10.800781 17.203125 -9.648438 17.203125 -8.390625 Z M 15.671875 -8.390625 C 15.671875 -9.804688 15.394531 -11.050781 14.84375 -12.125 C 14.289062 -13.207031 13.523438 -14.050781 12.546875 -14.65625 C 11.578125 -15.257812 10.453125 -15.5625 9.171875 -15.5625 C 7.910156 -15.5625 6.785156 -15.257812 5.796875 -14.65625 C 4.816406 -14.050781 4.050781 -13.207031 3.5 -12.125 C 2.957031 -11.050781 2.6875 -9.804688 2.6875 -8.390625 C 2.6875 -6.960938 2.957031 -5.707031 3.5 -4.625 C 4.050781 -3.550781 4.816406 -2.710938 5.796875 -2.109375 C 6.785156 -1.503906 7.910156 -1.203125 9.171875 -1.203125 C 10.453125 -1.203125 11.578125 -1.503906 12.546875 -2.109375 C 13.523438 -2.710938 14.289062 -3.550781 14.84375 -4.625 C 15.394531 -5.707031 15.671875 -6.960938 15.671875 -8.390625 Z M 15.671875 -8.390625 "/></g></g></g><g fill="#000000" fill-opacity="1"><g transform="translate(33.463532, 22.638895)"><g><path d="M 8.640625 -16.765625 C 9.535156 -16.765625 10.328125 -16.5625 11.015625 -16.15625 C 11.703125 -15.75 12.242188 -15.1875 12.640625 -14.46875 C 13.046875 -13.75 13.25 -12.925781 13.25 -12 C 13.25 -11.070312 13.046875 -10.238281 12.640625 -9.5 C 12.242188 -8.757812 11.703125 -8.171875 11.015625 -7.734375 C 10.328125 -7.304688 9.535156 -7.09375 8.640625 -7.09375 L 3.5625 -7.09375 L 3.6875 -7.328125 L 3.6875 -0.71875 C 3.6875 -0.53125 3.613281 -0.363281 3.46875 -0.21875 C 3.320312 -0.0703125 3.15625 0 2.96875 0 C 2.75 0 2.570312 -0.0703125 2.4375 -0.21875 C 2.3125 -0.363281 2.25 -0.53125 2.25 -0.71875 L 2.25 -16.046875 C 2.25 -16.242188 2.320312 -16.410156 2.46875 -16.546875 C 2.613281 -16.691406 2.78125 -16.765625 2.96875 -16.765625 Z M 8.640625 -8.484375 C 9.265625 -8.484375 9.804688 -8.632812 10.265625 -8.9375 C 10.734375 -9.25 11.097656 -9.671875 11.359375 -10.203125 C 11.628906 -10.742188 11.765625 -11.34375 11.765625 -12 C 11.765625 -12.65625 11.628906 -13.234375 11.359375 -13.734375 C 11.097656 -14.234375 10.734375 -14.628906 10.265625 -14.921875 C 9.804688 -15.210938 9.265625 -15.359375 8.640625 -15.359375 L 3.5625 -15.359375 L 3.6875 -15.5625 L 3.6875 -8.328125 L 3.546875 -8.484375 Z M 8.640625 -8.484375 "/></g></g></g><g fill="#000000" fill-opacity="1"><g transform="translate(47.724973, 22.638895)"><g><path d="M 3.765625 -0.75 C 3.742188 -0.539062 3.65625 -0.363281 3.5 -0.21875 C 3.351562 -0.0703125 3.1875 0 3 0 C 2.769531 0 2.585938 -0.0703125 2.453125 -0.21875 C 2.316406 -0.363281 2.25 -0.539062 2.25 -0.75 L 2.25 -16.03125 C 2.25 -16.238281 2.320312 -16.410156 2.46875 -16.546875 C 2.613281 -16.691406 2.796875 -16.765625 3.015625 -16.765625 C 3.210938 -16.765625 3.382812 -16.691406 3.53125 -16.546875 C 3.6875 -16.410156 3.765625 -16.238281 3.765625 -16.03125 Z M 3.765625 -0.75 "/></g></g></g><g fill="#000000" fill-opacity="1"><g transform="translate(53.707121, 22.638895)"><g><path d="M 14.484375 -15.515625 C 14.679688 -15.390625 14.796875 -15.226562 14.828125 -15.03125 C 14.859375 -14.832031 14.8125 -14.632812 14.6875 -14.4375 C 14.570312 -14.300781 14.425781 -14.222656 14.25 -14.203125 C 14.070312 -14.191406 13.90625 -14.222656 13.75 -14.296875 C 13.144531 -14.703125 12.492188 -15.015625 11.796875 -15.234375 C 11.097656 -15.453125 10.351562 -15.5625 9.5625 -15.5625 C 8.582031 -15.5625 7.671875 -15.390625 6.828125 -15.046875 C 5.992188 -14.710938 5.265625 -14.21875 4.640625 -13.5625 C 4.023438 -12.914062 3.546875 -12.15625 3.203125 -11.28125 C 2.859375 -10.40625 2.6875 -9.441406 2.6875 -8.390625 C 2.6875 -7.296875 2.859375 -6.304688 3.203125 -5.421875 C 3.554688 -4.535156 4.046875 -3.773438 4.671875 -3.140625 C 5.304688 -2.503906 6.039062 -2.015625 6.875 -1.671875 C 7.707031 -1.335938 8.601562 -1.171875 9.5625 -1.171875 C 10.34375 -1.171875 11.078125 -1.28125 11.765625 -1.5 C 12.460938 -1.726562 13.113281 -2.035156 13.71875 -2.421875 C 13.882812 -2.515625 14.054688 -2.546875 14.234375 -2.515625 C 14.421875 -2.492188 14.570312 -2.40625 14.6875 -2.25 C 14.832031 -2.070312 14.882812 -1.882812 14.84375 -1.6875 C 14.800781 -1.488281 14.691406 -1.332031 14.515625 -1.21875 C 14.117188 -0.96875 13.644531 -0.726562 13.09375 -0.5 C 12.550781 -0.28125 11.976562 -0.101562 11.375 0.03125 C 10.769531 0.164062 10.164062 0.234375 9.5625 0.234375 C 8.40625 0.234375 7.320312 0.03125 6.3125 -0.375 C 5.3125 -0.789062 4.421875 -1.378906 3.640625 -2.140625 C 2.859375 -2.898438 2.25 -3.804688 1.8125 -4.859375 C 1.375 -5.910156 1.15625 -7.085938 1.15625 -8.390625 C 1.15625 -9.628906 1.367188 -10.769531 1.796875 -11.8125 C 2.222656 -12.863281 2.820312 -13.769531 3.59375 -14.53125 C 4.363281 -15.300781 5.257812 -15.898438 6.28125 -16.328125 C 7.300781 -16.765625 8.394531 -16.984375 9.5625 -16.984375 C 10.46875 -16.984375 11.34375 -16.851562 12.1875 -16.59375 C 13.039062 -16.34375 13.804688 -15.984375 14.484375 -15.515625 Z M 14.484375 -15.515625 "/></g></g></g><g fill="#000000" fill-opacity="1"><g transform="translate(69.332473, 22.638895)"><g><path d="M 2.15625 -9.984375 C 1.882812 -9.984375 1.675781 -10.066406 1.53125 -10.234375 C 1.382812 -10.398438 1.3125 -10.625 1.3125 -10.90625 L 1.3125 -11.40625 C 1.3125 -11.6875 1.382812 -11.910156 1.53125 -12.078125 C 1.675781 -12.242188 1.882812 -12.328125 2.15625 -12.328125 L 2.328125 -12.328125 C 2.597656 -12.328125 2.800781 -12.242188 2.9375 -12.078125 C 3.082031 -11.910156 3.15625 -11.6875 3.15625 -11.40625 L 3.15625 -10.90625 C 3.15625 -10.625 3.082031 -10.398438 2.9375 -10.234375 C 2.800781 -10.066406 2.597656 -9.984375 2.328125 -9.984375 Z M 2.15625 0 C 1.882812 0 1.675781 -0.0820312 1.53125 -0.25 C 1.382812 -0.414062 1.3125 -0.632812 1.3125 -0.90625 L 1.3125 -1.4375 C 1.3125 -1.726562 1.382812 -1.953125 1.53125 -2.109375 C 1.675781 -2.265625 1.882812 -2.34375 2.15625 -2.34375 L 2.328125 -2.34375 C 2.597656 -2.34375 2.800781 -2.265625 2.9375 -2.109375 C 3.082031 -1.953125 3.15625 -1.726562 3.15625 -1.4375 L 3.15625 -0.90625 C 3.15625 -0.632812 3.082031 -0.414062 2.9375 -0.25 C 2.800781 -0.0820312 2.597656 0 2.328125 0 Z M 2.15625 0 "/></g></g></g></g></g><g clip-path="url(#f81cdf9a7c)"><path stroke-linecap="butt" transform="matrix(0.749859, 0, 0, 0.749859, 0.093963, 921.369253)" fill="none" stroke-linejoin="miter" d="M -0.00028412 0.00245516 L 1166.969645 0.00245516 L 1166.969645 179.515453 L -0.00028412 179.515453 Z M -0.00028412 0.00245516 " stroke="#000000" stroke-width="2" stroke-opacity="1" stroke-miterlimit="4"/></g><g transform="matrix(1, 0, 0, 1, 18, 936)"><g clip-path="url(#f88eefcfe8)"><g fill="#000000" fill-opacity="1"><g transform="translate(0.768819, 22.679301)"><g><path d="M 7.234375 0 C 7.015625 0 6.832031 -0.0703125 6.6875 -0.21875 C 6.550781 -0.363281 6.484375 -0.53125 6.484375 -0.71875 L 6.484375 -15.984375 L 7.96875 -15.984375 L 7.96875 -0.71875 C 7.96875 -0.53125 7.894531 -0.363281 7.75 -0.21875 C 7.613281 -0.0703125 7.441406 0 7.234375 0 Z M 1.53125 -15.40625 C 1.34375 -15.40625 1.175781 -15.46875 1.03125 -15.59375 C 0.882812 -15.71875 0.8125 -15.882812 0.8125 -16.09375 C 0.8125 -16.289062 0.882812 -16.453125 1.03125 -16.578125 C 1.175781 -16.703125 1.34375 -16.765625 1.53125 -16.765625 L 12.9375 -16.765625 C 13.125 -16.765625 13.289062 -16.703125 13.4375 -16.578125 C 13.582031 -16.453125 13.65625 -16.285156 13.65625 -16.078125 C 13.65625 -15.867188 13.582031 -15.703125 13.4375 -15.578125 C 13.289062 -15.460938 13.125 -15.40625 12.9375 -15.40625 Z M 1.53125 -15.40625 "/></g></g></g><g fill="#000000" fill-opacity="1"><g transform="translate(15.221682, 22.679301)"><g><path d="M 17.203125 -8.390625 C 17.203125 -7.117188 17.003906 -5.960938 16.609375 -4.921875 C 16.222656 -3.878906 15.671875 -2.96875 14.953125 -2.1875 C 14.234375 -1.414062 13.378906 -0.816406 12.390625 -0.390625 C 11.410156 0.0234375 10.335938 0.234375 9.171875 0.234375 C 8.003906 0.234375 6.929688 0.0234375 5.953125 -0.390625 C 4.972656 -0.816406 4.125 -1.414062 3.40625 -2.1875 C 2.6875 -2.96875 2.128906 -3.878906 1.734375 -4.921875 C 1.347656 -5.960938 1.15625 -7.117188 1.15625 -8.390625 C 1.15625 -9.648438 1.347656 -10.800781 1.734375 -11.84375 C 2.128906 -12.882812 2.6875 -13.789062 3.40625 -14.5625 C 4.125 -15.34375 4.972656 -15.941406 5.953125 -16.359375 C 6.929688 -16.785156 8.003906 -17 9.171875 -17 C 10.335938 -17 11.410156 -16.785156 12.390625 -16.359375 C 13.378906 -15.941406 14.234375 -15.34375 14.953125 -14.5625 C 15.671875 -13.789062 16.222656 -12.882812 16.609375 -11.84375 C 17.003906 -10.800781 17.203125 -9.648438 17.203125 -8.390625 Z M 15.671875 -8.390625 C 15.671875 -9.804688 15.394531 -11.050781 14.84375 -12.125 C 14.289062 -13.207031 13.523438 -14.050781 12.546875 -14.65625 C 11.578125 -15.257812 10.453125 -15.5625 9.171875 -15.5625 C 7.910156 -15.5625 6.785156 -15.257812 5.796875 -14.65625 C 4.816406 -14.050781 4.050781 -13.207031 3.5 -12.125 C 2.957031 -11.050781 2.6875 -9.804688 2.6875 -8.390625 C 2.6875 -6.960938 2.957031 -5.707031 3.5 -4.625 C 4.050781 -3.550781 4.816406 -2.710938 5.796875 -2.109375 C 6.785156 -1.503906 7.910156 -1.203125 9.171875 -1.203125 C 10.453125 -1.203125 11.578125 -1.503906 12.546875 -2.109375 C 13.523438 -2.710938 14.289062 -3.550781 14.84375 -4.625 C 15.394531 -5.707031 15.671875 -6.960938 15.671875 -8.390625 Z M 15.671875 -8.390625 "/></g></g></g><g fill="#000000" fill-opacity="1"><g transform="translate(33.550974, 22.679301)"><g><path d="M 8.640625 -16.765625 C 9.535156 -16.765625 10.328125 -16.5625 11.015625 -16.15625 C 11.703125 -15.75 12.242188 -15.1875 12.640625 -14.46875 C 13.046875 -13.75 13.25 -12.925781 13.25 -12 C 13.25 -11.070312 13.046875 -10.238281 12.640625 -9.5 C 12.242188 -8.757812 11.703125 -8.171875 11.015625 -7.734375 C 10.328125 -7.304688 9.535156 -7.09375 8.640625 -7.09375 L 3.5625 -7.09375 L 3.6875 -7.328125 L 3.6875 -0.71875 C 3.6875 -0.53125 3.613281 -0.363281 3.46875 -0.21875 C 3.320312 -0.0703125 3.15625 0 2.96875 0 C 2.75 0 2.570312 -0.0703125 2.4375 -0.21875 C 2.3125 -0.363281 2.25 -0.53125 2.25 -0.71875 L 2.25 -16.046875 C 2.25 -16.242188 2.320312 -16.410156 2.46875 -16.546875 C 2.613281 -16.691406 2.78125 -16.765625 2.96875 -16.765625 Z M 8.640625 -8.484375 C 9.265625 -8.484375 9.804688 -8.632812 10.265625 -8.9375 C 10.734375 -9.25 11.097656 -9.671875 11.359375 -10.203125 C 11.628906 -10.742188 11.765625 -11.34375 11.765625 -12 C 11.765625 -12.65625 11.628906 -13.234375 11.359375 -13.734375 C 11.097656 -14.234375 10.734375 -14.628906 10.265625 -14.921875 C 9.804688 -15.210938 9.265625 -15.359375 8.640625 -15.359375 L 3.5625 -15.359375 L 3.6875 -15.5625 L 3.6875 -8.328125 L 3.546875 -8.484375 Z M 8.640625 -8.484375 "/></g></g></g><g fill="#000000" fill-opacity="1"><g transform="translate(47.812414, 22.679301)"><g><path d="M 3.765625 -0.75 C 3.742188 -0.539062 3.65625 -0.363281 3.5 -0.21875 C 3.351562 -0.0703125 3.1875 0 3 0 C 2.769531 0 2.585938 -0.0703125 2.453125 -0.21875 C 2.316406 -0.363281 2.25 -0.539062 2.25 -0.75 L 2.25 -16.03125 C 2.25 -16.238281 2.320312 -16.410156 2.46875 -16.546875 C 2.613281 -16.691406 2.796875 -16.765625 3.015625 -16.765625 C 3.210938 -16.765625 3.382812 -16.691406 3.53125 -16.546875 C 3.6875 -16.410156 3.765625 -16.238281 3.765625 -16.03125 Z M 3.765625 -0.75 "/></g></g></g><g fill="#000000" fill-opacity="1"><g transform="translate(53.794563, 22.679301)"><g><path d="M 14.484375 -15.515625 C 14.679688 -15.390625 14.796875 -15.226562 14.828125 -15.03125 C 14.859375 -14.832031 14.8125 -14.632812 14.6875 -14.4375 C 14.570312 -14.300781 14.425781 -14.222656 14.25 -14.203125 C 14.070312 -14.191406 13.90625 -14.222656 13.75 -14.296875 C 13.144531 -14.703125 12.492188 -15.015625 11.796875 -15.234375 C 11.097656 -15.453125 10.351562 -15.5625 9.5625 -15.5625 C 8.582031 -15.5625 7.671875 -15.390625 6.828125 -15.046875 C 5.992188 -14.710938 5.265625 -14.21875 4.640625 -13.5625 C 4.023438 -12.914062 3.546875 -12.15625 3.203125 -11.28125 C 2.859375 -10.40625 2.6875 -9.441406 2.6875 -8.390625 C 2.6875 -7.296875 2.859375 -6.304688 3.203125 -5.421875 C 3.554688 -4.535156 4.046875 -3.773438 4.671875 -3.140625 C 5.304688 -2.503906 6.039062 -2.015625 6.875 -1.671875 C 7.707031 -1.335938 8.601562 -1.171875 9.5625 -1.171875 C 10.34375 -1.171875 11.078125 -1.28125 11.765625 -1.5 C 12.460938 -1.726562 13.113281 -2.035156 13.71875 -2.421875 C 13.882812 -2.515625 14.054688 -2.546875 14.234375 -2.515625 C 14.421875 -2.492188 14.570312 -2.40625 14.6875 -2.25 C 14.832031 -2.070312 14.882812 -1.882812 14.84375 -1.6875 C 14.800781 -1.488281 14.691406 -1.332031 14.515625 -1.21875 C 14.117188 -0.96875 13.644531 -0.726562 13.09375 -0.5 C 12.550781 -0.28125 11.976562 -0.101562 11.375 0.03125 C 10.769531 0.164062 10.164062 0.234375 9.5625 0.234375 C 8.40625 0.234375 7.320312 0.03125 6.3125 -0.375 C 5.3125 -0.789062 4.421875 -1.378906 3.640625 -2.140625 C 2.859375 -2.898438 2.25 -3.804688 1.8125 -4.859375 C 1.375 -5.910156 1.15625 -7.085938 1.15625 -8.390625 C 1.15625 -9.628906 1.367188 -10.769531 1.796875 -11.8125 C 2.222656 -12.863281 2.820312 -13.769531 3.59375 -14.53125 C 4.363281 -15.300781 5.257812 -15.898438 6.28125 -16.328125 C 7.300781 -16.765625 8.394531 -16.984375 9.5625 -16.984375 C 10.46875 -16.984375 11.34375 -16.851562 12.1875 -16.59375 C 13.039062 -16.34375 13.804688 -15.984375 14.484375 -15.515625 Z M 14.484375 -15.515625 "/></g></g></g><g fill="#000000" fill-opacity="1"><g transform="translate(69.419915, 22.679301)"><g><path d="M 2.15625 -9.984375 C 1.882812 -9.984375 1.675781 -10.066406 1.53125 -10.234375 C 1.382812 -10.398438 1.3125 -10.625 1.3125 -10.90625 L 1.3125 -11.40625 C 1.3125 -11.6875 1.382812 -11.910156 1.53125 -12.078125 C 1.675781 -12.242188 1.882812 -12.328125 2.15625 -12.328125 L 2.328125 -12.328125 C 2.597656 -12.328125 2.800781 -12.242188 2.9375 -12.078125 C 3.082031 -11.910156 3.15625 -11.6875 3.15625 -11.40625 L 3.15625 -10.90625 C 3.15625 -10.625 3.082031 -10.398438 2.9375 -10.234375 C 2.800781 -10.066406 2.597656 -9.984375 2.328125 -9.984375 Z M 2.15625 0 C 1.882812 0 1.675781 -0.0820312 1.53125 -0.25 C 1.382812 -0.414062 1.3125 -0.632812 1.3125 -0.90625 L 1.3125 -1.4375 C 1.3125 -1.726562 1.382812 -1.953125 1.53125 -2.109375 C 1.675781 -2.265625 1.882812 -2.34375 2.15625 -2.34375 L 2.328125 -2.34375 C 2.597656 -2.34375 2.800781 -2.265625 2.9375 -2.109375 C 3.082031 -1.953125 3.15625 -1.726562 3.15625 -1.4375 L 3.15625 -0.90625 C 3.15625 -0.632812 3.082031 -0.414062 2.9375 -0.25 C 2.800781 -0.0820312 2.597656 0 2.328125 0 Z M 2.15625 0 "/></g></g></g></g></g><g clip-path="url(#33f9937e86)"><path fill="#000000" d="M 30.601562 672.121094 C 30.601562 672.910156 30.527344 673.691406 30.371094 674.464844 C 30.21875 675.234375 29.992188 675.984375 29.6875 676.714844 C 29.386719 677.441406 29.019531 678.132812 28.582031 678.789062 C 28.144531 679.441406 27.644531 680.050781 27.089844 680.605469 C 26.53125 681.164062 25.925781 681.660156 25.269531 682.097656 C 24.617188 682.535156 23.925781 682.90625 23.195312 683.207031 C 22.46875 683.507812 21.71875 683.734375 20.945312 683.890625 C 20.171875 684.042969 19.394531 684.121094 18.605469 684.121094 C 17.816406 684.121094 17.035156 684.042969 16.265625 683.890625 C 15.492188 683.734375 14.742188 683.507812 14.011719 683.207031 C 13.285156 682.90625 12.59375 682.535156 11.9375 682.097656 C 11.285156 681.660156 10.679688 681.164062 10.121094 680.605469 C 9.5625 680.050781 9.066406 679.441406 8.628906 678.789062 C 8.191406 678.132812 7.820312 677.441406 7.519531 676.714844 C 7.21875 675.984375 6.992188 675.234375 6.835938 674.464844 C 6.683594 673.691406 6.605469 672.910156 6.605469 672.121094 C 6.605469 671.335938 6.683594 670.554688 6.835938 669.78125 C 6.992188 669.007812 7.21875 668.257812 7.519531 667.53125 C 7.820312 666.804688 8.191406 666.113281 8.628906 665.457031 C 9.066406 664.800781 9.5625 664.195312 10.121094 663.640625 C 10.679688 663.082031 11.285156 662.585938 11.9375 662.148438 C 12.59375 661.710938 13.285156 661.339844 14.011719 661.039062 C 14.742188 660.738281 15.492188 660.507812 16.265625 660.355469 C 17.035156 660.203125 17.816406 660.125 18.605469 660.125 C 19.394531 660.125 20.171875 660.203125 20.945312 660.355469 C 21.71875 660.507812 22.46875 660.738281 23.195312 661.039062 C 23.925781 661.339844 24.617188 661.710938 25.269531 662.148438 C 25.925781 662.585938 26.53125 663.082031 27.089844 663.640625 C 27.644531 664.195312 28.144531 664.800781 28.582031 665.457031 C 29.019531 666.113281 29.386719 666.804688 29.6875 667.53125 C 29.992188 668.257812 30.21875 669.007812 30.371094 669.78125 C 30.527344 670.554688 30.601562 671.335938 30.601562 672.121094 Z M 30.601562 672.121094 " fill-opacity="1" fill-rule="nonzero"/></g><g clip-path="url(#da3262a5a6)"><path fill="#000000" d="M 30.601562 772.210938 C 30.601562 773 30.527344 773.78125 30.371094 774.550781 C 30.21875 775.324219 29.992188 776.074219 29.6875 776.804688 C 29.386719 777.53125 29.019531 778.222656 28.582031 778.878906 C 28.144531 779.53125 27.644531 780.136719 27.089844 780.695312 C 26.53125 781.253906 25.925781 781.75 25.269531 782.1875 C 24.617188 782.625 23.925781 782.996094 23.195312 783.296875 C 22.46875 783.597656 21.71875 783.824219 20.945312 783.980469 C 20.171875 784.132812 19.394531 784.210938 18.605469 784.210938 C 17.816406 784.210938 17.035156 784.132812 16.265625 783.980469 C 15.492188 783.824219 14.742188 783.597656 14.011719 783.296875 C 13.285156 782.996094 12.59375 782.625 11.9375 782.1875 C 11.285156 781.75 10.679688 781.253906 10.121094 780.695312 C 9.5625 780.136719 9.066406 779.53125 8.628906 778.878906 C 8.191406 778.222656 7.820312 777.53125 7.519531 776.804688 C 7.21875 776.074219 6.992188 775.324219 6.835938 774.550781 C 6.683594 773.78125 6.605469 773 6.605469 772.210938 C 6.605469 771.421875 6.683594 770.644531 6.835938 769.871094 C 6.992188 769.097656 7.21875 768.347656 7.519531 767.621094 C 7.820312 766.890625 8.191406 766.199219 8.628906 765.546875 C 9.066406 764.890625 9.5625 764.285156 10.121094 763.726562 C 10.679688 763.171875 11.285156 762.671875 11.9375 762.234375 C 12.59375 761.796875 13.285156 761.429688 14.011719 761.128906 C 14.742188 760.824219 15.492188 760.597656 16.265625 760.445312 C 17.035156 760.289062 17.816406 760.214844 18.605469 760.214844 C 19.394531 760.214844 20.171875 760.289062 20.945312 760.445312 C 21.71875 760.597656 22.46875 760.824219 23.195312 761.128906 C 23.925781 761.429688 24.617188 761.796875 25.269531 762.234375 C 25.925781 762.671875 26.53125 763.171875 27.089844 763.726562 C 27.644531 764.285156 28.144531 764.890625 28.582031 765.546875 C 29.019531 766.199219 29.386719 766.890625 29.6875 767.621094 C 29.992188 768.347656 30.21875 769.097656 30.371094 769.871094 C 30.527344 770.644531 30.601562 771.421875 30.601562 772.210938 Z M 30.601562 772.210938 " fill-opacity="1" fill-rule="nonzero"/></g><g clip-path="url(#c090fa4361)"><path fill="#000000" d="M 30.601562 872.300781 C 30.601562 873.089844 30.527344 873.867188 30.371094 874.640625 C 30.21875 875.414062 29.992188 876.164062 29.6875 876.890625 C 29.386719 877.621094 29.019531 878.3125 28.582031 878.964844 C 28.144531 879.621094 27.644531 880.226562 27.089844 880.785156 C 26.53125 881.339844 25.925781 881.839844 25.269531 882.277344 C 24.617188 882.714844 23.925781 883.082031 23.195312 883.386719 C 22.46875 883.6875 21.71875 883.914062 20.945312 884.066406 C 20.171875 884.222656 19.394531 884.296875 18.605469 884.296875 C 17.816406 884.296875 17.035156 884.222656 16.265625 884.066406 C 15.492188 883.914062 14.742188 883.6875 14.011719 883.386719 C 13.285156 883.082031 12.59375 882.714844 11.9375 882.277344 C 11.285156 881.839844 10.679688 881.339844 10.121094 880.785156 C 9.5625 880.226562 9.066406 879.621094 8.628906 878.964844 C 8.191406 878.3125 7.820312 877.621094 7.519531 876.890625 C 7.21875 876.164062 6.992188 875.414062 6.835938 874.640625 C 6.683594 873.867188 6.605469 873.089844 6.605469 872.300781 C 6.605469 871.511719 6.683594 870.734375 6.835938 869.960938 C 6.992188 869.1875 7.21875 868.4375 7.519531 867.710938 C 7.820312 866.980469 8.191406 866.289062 8.628906 865.636719 C 9.066406 864.980469 9.5625 864.375 10.121094 863.816406 C 10.679688 863.261719 11.285156 862.761719 11.9375 862.324219 C 12.59375 861.886719 13.285156 861.519531 14.011719 861.214844 C 14.742188 860.914062 15.492188 860.6875 16.265625 860.535156 C 17.035156 860.378906 17.816406 860.304688 18.605469 860.304688 C 19.394531 860.304688 20.171875 860.378906 20.945312 860.535156 C 21.71875 860.6875 22.46875 860.914062 23.195312 861.214844 C 23.925781 861.519531 24.617188 861.886719 25.269531 862.324219 C 25.925781 862.761719 26.53125 863.261719 27.089844 863.816406 C 27.644531 864.375 28.144531 864.980469 28.582031 865.636719 C 29.019531 866.289062 29.386719 866.980469 29.6875 867.710938 C 29.992188 868.4375 30.21875 869.1875 30.371094 869.960938 C 30.527344 870.734375 30.601562 871.511719 30.601562 872.300781 Z M 30.601562 872.300781 " fill-opacity="1" fill-rule="nonzero"/></g><g clip-path="url(#3fb9c102eb)"><path fill="#000000" d="M 30.601562 1104.726562 C 30.601562 1105.511719 30.527344 1106.292969 30.371094 1107.066406 C 30.21875 1107.839844 29.992188 1108.589844 29.6875 1109.316406 C 29.386719 1110.042969 29.019531 1110.734375 28.582031 1111.390625 C 28.144531 1112.046875 27.644531 1112.652344 27.089844 1113.207031 C 26.53125 1113.765625 25.925781 1114.261719 25.269531 1114.699219 C 24.617188 1115.136719 23.925781 1115.507812 23.195312 1115.808594 C 22.46875 1116.109375 21.71875 1116.339844 20.945312 1116.492188 C 20.171875 1116.644531 19.394531 1116.722656 18.605469 1116.722656 C 17.816406 1116.722656 17.035156 1116.644531 16.265625 1116.492188 C 15.492188 1116.339844 14.742188 1116.109375 14.011719 1115.808594 C 13.285156 1115.507812 12.59375 1115.136719 11.9375 1114.699219 C 11.285156 1114.261719 10.679688 1113.765625 10.121094 1113.207031 C 9.5625 1112.652344 9.066406 1112.046875 8.628906 1111.390625 C 8.191406 1110.734375 7.820312 1110.042969 7.519531 1109.316406 C 7.21875 1108.589844 6.992188 1107.839844 6.835938 1107.066406 C 6.683594 1106.292969 6.605469 1105.511719 6.605469 1104.726562 C 6.605469 1103.9375 6.683594 1103.15625 6.835938 1102.382812 C 6.992188 1101.613281 7.21875 1100.859375 7.519531 1100.132812 C 7.820312 1099.40625 8.191406 1098.714844 8.628906 1098.058594 C 9.066406 1097.402344 9.5625 1096.796875 10.121094 1096.242188 C 10.679688 1095.683594 11.285156 1095.1875 11.9375 1094.75 C 12.59375 1094.3125 13.285156 1093.941406 14.011719 1093.640625 C 14.742188 1093.339844 15.492188 1093.109375 16.265625 1092.957031 C 17.035156 1092.804688 17.816406 1092.726562 18.605469 1092.726562 C 19.394531 1092.726562 20.171875 1092.804688 20.945312 1092.957031 C 21.71875 1093.109375 22.46875 1093.339844 23.195312 1093.640625 C 23.925781 1093.941406 24.617188 1094.3125 25.269531 1094.75 C 25.925781 1095.1875 26.53125 1095.683594 27.089844 1096.242188 C 27.644531 1096.796875 28.144531 1097.402344 28.582031 1098.058594 C 29.019531 1098.714844 29.386719 1099.40625 29.6875 1100.132812 C 29.992188 1100.859375 30.21875 1101.613281 30.371094 1102.382812 C 30.527344 1103.15625 30.601562 1103.9375 30.601562 1104.726562 Z M 30.601562 1104.726562 " fill-opacity="1" fill-rule="nonzero"/></g><g clip-path="url(#d1888944de)"><path fill="#000000" d="M 30.601562 1204.8125 C 30.601562 1205.601562 30.527344 1206.382812 30.371094 1207.15625 C 30.21875 1207.925781 29.992188 1208.675781 29.6875 1209.40625 C 29.386719 1210.132812 29.019531 1210.824219 28.582031 1211.480469 C 28.144531 1212.132812 27.644531 1212.742188 27.089844 1213.296875 C 26.53125 1213.855469 25.925781 1214.351562 25.269531 1214.789062 C 24.617188 1215.226562 23.925781 1215.597656 23.195312 1215.898438 C 22.46875 1216.199219 21.71875 1216.425781 20.945312 1216.582031 C 20.171875 1216.734375 19.394531 1216.8125 18.605469 1216.8125 C 17.816406 1216.8125 17.035156 1216.734375 16.265625 1216.582031 C 15.492188 1216.425781 14.742188 1216.199219 14.011719 1215.898438 C 13.285156 1215.597656 12.59375 1215.226562 11.9375 1214.789062 C 11.285156 1214.351562 10.679688 1213.855469 10.121094 1213.296875 C 9.5625 1212.742188 9.066406 1212.132812 8.628906 1211.480469 C 8.191406 1210.824219 7.820312 1210.132812 7.519531 1209.40625 C 7.21875 1208.675781 6.992188 1207.925781 6.835938 1207.15625 C 6.683594 1206.382812 6.605469 1205.601562 6.605469 1204.8125 C 6.605469 1204.027344 6.683594 1203.246094 6.835938 1202.472656 C 6.992188 1201.699219 7.21875 1200.949219 7.519531 1200.222656 C 7.820312 1199.496094 8.191406 1198.804688 8.628906 1198.148438 C 9.066406 1197.492188 9.5625 1196.886719 10.121094 1196.332031 C 10.679688 1195.773438 11.285156 1195.277344 11.9375 1194.839844 C 12.59375 1194.402344 13.285156 1194.03125 14.011719 1193.730469 C 14.742188 1193.429688 15.492188 1193.199219 16.265625 1193.046875 C 17.035156 1192.894531 17.816406 1192.816406 18.605469 1192.816406 C 19.394531 1192.816406 20.171875 1192.894531 20.945312 1193.046875 C 21.71875 1193.199219 22.46875 1193.429688 23.195312 1193.730469 C 23.925781 1194.03125 24.617188 1194.402344 25.269531 1194.839844 C 25.925781 1195.277344 26.53125 1195.773438 27.089844 1196.332031 C 27.644531 1196.886719 28.144531 1197.492188 28.582031 1198.148438 C 29.019531 1198.804688 29.386719 1199.496094 29.6875 1200.222656 C 29.992188 1200.949219 30.21875 1201.699219 30.371094 1202.472656 C 30.527344 1203.246094 30.601562 1204.027344 30.601562 1204.8125 Z M 30.601562 1204.8125 " fill-opacity="1" fill-rule="nonzero"/></g><g clip-path="url(#2614d8b04f)"><path fill="#000000" d="M 30.601562 1304.902344 C 30.601562 1305.691406 30.527344 1306.472656 30.371094 1307.242188 C 30.21875 1308.015625 29.992188 1308.765625 29.6875 1309.496094 C 29.386719 1310.222656 29.019531 1310.914062 28.582031 1311.570312 C 28.144531 1312.222656 27.644531 1312.828125 27.089844 1313.386719 C 26.53125 1313.945312 25.925781 1314.441406 25.269531 1314.878906 C 24.617188 1315.316406 23.925781 1315.6875 23.195312 1315.988281 C 22.46875 1316.289062 21.71875 1316.515625 20.945312 1316.671875 C 20.171875 1316.824219 19.394531 1316.902344 18.605469 1316.902344 C 17.816406 1316.902344 17.035156 1316.824219 16.265625 1316.671875 C 15.492188 1316.515625 14.742188 1316.289062 14.011719 1315.988281 C 13.285156 1315.6875 12.59375 1315.316406 11.9375 1314.878906 C 11.285156 1314.441406 10.679688 1313.945312 10.121094 1313.386719 C 9.5625 1312.828125 9.066406 1312.222656 8.628906 1311.570312 C 8.191406 1310.914062 7.820312 1310.222656 7.519531 1309.496094 C 7.21875 1308.765625 6.992188 1308.015625 6.835938 1307.242188 C 6.683594 1306.472656 6.605469 1305.691406 6.605469 1304.902344 C 6.605469 1304.113281 6.683594 1303.335938 6.835938 1302.5625 C 6.992188 1301.789062 7.21875 1301.039062 7.519531 1300.3125 C 7.820312 1299.582031 8.191406 1298.890625 8.628906 1298.238281 C 9.066406 1297.582031 9.5625 1296.976562 10.121094 1296.417969 C 10.679688 1295.863281 11.285156 1295.363281 11.9375 1294.925781 C 12.59375 1294.488281 13.285156 1294.121094 14.011719 1293.820312 C 14.742188 1293.515625 15.492188 1293.289062 16.265625 1293.136719 C 17.035156 1292.980469 17.816406 1292.90625 18.605469 1292.90625 C 19.394531 1292.90625 20.171875 1292.980469 20.945312 1293.136719 C 21.71875 1293.289062 22.46875 1293.515625 23.195312 1293.820312 C 23.925781 1294.121094 24.617188 1294.488281 25.269531 1294.925781 C 25.925781 1295.363281 26.53125 1295.863281 27.089844 1296.417969 C 27.644531 1296.976562 28.144531 1297.582031 28.582031 1298.238281 C 29.019531 1298.890625 29.386719 1299.582031 29.6875 1300.3125 C 29.992188 1301.039062 30.21875 1301.789062 30.371094 1302.5625 C 30.527344 1303.335938 30.601562 1304.113281 30.601562 1304.902344 Z M 30.601562 1304.902344 " fill-opacity="1" fill-rule="nonzero"/></g></svg>