<svg xmlns="http://www.w3.org/2000/svg" xmlns:xlink="http://www.w3.org/1999/xlink" width="1200" zoomAndPan="magnify" viewBox="0 0 900 675.000002" height="900" preserveAspectRatio="xMidYMid meet" version="1.0"><defs><g/><clipPath id="4a3e27eaa0"><path d="M 6.355469 6.167969 L 455.644531 6.167969 L 455.644531 75.285156 L 6.355469 75.285156 Z M 6.355469 6.167969 " clip-rule="nonzero"/></clipPath><clipPath id="b14418f9e4"><path d="M 8.566406 94.261719 L 21.382812 94.261719 L 21.382812 107.078125 L 8.566406 107.078125 Z M 8.566406 94.261719 " clip-rule="nonzero"/></clipPath><clipPath id="3b8d518912"><path d="M 8.566406 125.601562 L 21.382812 125.601562 L 21.382812 138.417969 L 8.566406 138.417969 Z M 8.566406 125.601562 " clip-rule="nonzero"/></clipPath><clipPath id="27752231f8"><path d="M 8.566406 156.257812 L 21.382812 156.257812 L 21.382812 169.074219 L 8.566406 169.074219 Z M 8.566406 156.257812 " clip-rule="nonzero"/></clipPath><clipPath id="9b8570004e"><path d="M 6.355469 209.597656 L 455.644531 209.597656 L 455.644531 278.710938 L 6.355469 278.710938 Z M 6.355469 209.597656 " clip-rule="nonzero"/></clipPath><clipPath id="2a6a2e9382"><path d="M 8.566406 297.691406 L 21.382812 297.691406 L 21.382812 310.507812 L 8.566406 310.507812 Z M 8.566406 297.691406 " clip-rule="nonzero"/></clipPath><clipPath id="d9031638c0"><path d="M 8.566406 329.027344 L 21.382812 329.027344 L 21.382812 341.84375 L 8.566406 341.84375 Z M 8.566406 329.027344 " clip-rule="nonzero"/></clipPath><clipPath id="51dc82af83"><path d="M 8.566406 359.683594 L 21.382812 359.683594 L 21.382812 372.5 L 8.566406 372.5 Z M 8.566406 359.683594 " clip-rule="nonzero"/></clipPath><clipPath id="50b10e256d"><path d="M 6.355469 413.027344 L 455.644531 413.027344 L 455.644531 482.140625 L 6.355469 482.140625 Z M 6.355469 413.027344 " clip-rule="nonzero"/></clipPath><clipPath id="5448b58838"><path d="M 8.566406 501.117188 L 21.382812 501.117188 L 21.382812 513.933594 L 8.566406 513.933594 Z M 8.566406 501.117188 " clip-rule="nonzero"/></clipPath><clipPath id="3065779a2a"><path d="M 8.566406 532.457031 L 21.382812 532.457031 L 21.382812 545.273438 L 8.566406 545.273438 Z M 8.566406 532.457031 " clip-rule="nonzero"/></clipPath><clipPath id="104599641c"><path d="M 8.566406 563.113281 L 21.382812 563.113281 L 21.382812 575.929688 L 8.566406 575.929688 Z M 8.566406 563.113281 " clip-rule="nonzero"/></clipPath><clipPath id="65c3c33f6b"><rect x="0" width="460" y="0" height="577"/></clipPath></defs><g transform="matrix(1, 0, 0, 1, 219, 31)"><g clip-path="url(#65c3c33f6b)"><g clip-path="url(#4a3e27eaa0)"><path stroke-linecap="butt" transform="matrix(0.753932, 0, 0, 0.753932, 6.354302, 6.169836)" fill="none" stroke-linejoin="miter" d="M 0.00154702 -0.00247676 L 595.929333 -0.00247676 L 595.929333 91.673141 L 0.00154702 91.673141 Z M 0.00154702 -0.00247676 " stroke="#000000" stroke-width="1.986626" stroke-opacity="1" stroke-miterlimit="4"/></g><g clip-path="url(#b14418f9e4)"><path fill="#000000" d="M 21.382812 100.671875 C 21.382812 101.089844 21.34375 101.507812 21.261719 101.921875 C 21.179688 102.332031 21.054688 102.734375 20.894531 103.121094 C 20.734375 103.511719 20.535156 103.882812 20.304688 104.230469 C 20.070312 104.582031 19.804688 104.90625 19.507812 105.203125 C 19.207031 105.5 18.886719 105.765625 18.535156 106 C 18.183594 106.234375 17.816406 106.429688 17.425781 106.589844 C 17.039062 106.753906 16.636719 106.875 16.226562 106.957031 C 15.8125 107.039062 15.394531 107.078125 14.976562 107.078125 C 14.554688 107.078125 14.136719 107.039062 13.722656 106.957031 C 13.3125 106.875 12.910156 106.753906 12.523438 106.589844 C 12.132812 106.429688 11.765625 106.234375 11.414062 106 C 11.066406 105.765625 10.742188 105.5 10.441406 105.203125 C 10.144531 104.90625 9.878906 104.582031 9.644531 104.230469 C 9.414062 103.882812 9.214844 103.511719 9.054688 103.121094 C 8.894531 102.734375 8.773438 102.332031 8.691406 101.921875 C 8.605469 101.507812 8.566406 101.089844 8.566406 100.671875 C 8.566406 100.25 8.605469 99.832031 8.691406 99.421875 C 8.773438 99.007812 8.894531 98.605469 9.054688 98.21875 C 9.214844 97.828125 9.414062 97.460938 9.644531 97.109375 C 9.878906 96.761719 10.144531 96.4375 10.441406 96.140625 C 10.742188 95.839844 11.066406 95.574219 11.414062 95.34375 C 11.765625 95.109375 12.132812 94.910156 12.523438 94.75 C 12.910156 94.589844 13.3125 94.46875 13.722656 94.386719 C 14.136719 94.304688 14.554688 94.261719 14.976562 94.261719 C 15.394531 94.261719 15.8125 94.304688 16.226562 94.386719 C 16.636719 94.46875 17.039062 94.589844 17.425781 94.75 C 17.816406 94.910156 18.183594 95.109375 18.535156 95.34375 C 18.886719 95.574219 19.207031 95.839844 19.507812 96.140625 C 19.804688 96.4375 20.070312 96.761719 20.304688 97.109375 C 20.535156 97.460938 20.734375 97.828125 20.894531 98.21875 C 21.054688 98.605469 21.179688 99.007812 21.261719 99.421875 C 21.34375 99.832031 21.382812 100.25 21.382812 100.671875 Z M 21.382812 100.671875 " fill-opacity="1" fill-rule="nonzero"/></g><g fill="#000000" fill-opacity="1"><g transform="translate(15.92777, 30.450501)"><g><path d="M 0.203125 -7.765625 L 0.203125 -8.609375 L 7.375 -8.609375 L 7.375 -7.765625 L 4.265625 -7.765625 L 4.265625 0 L 3.3125 0 L 3.3125 -7.765625 Z M 0.203125 -7.765625 "/></g></g></g><g fill="#000000" fill-opacity="1"><g transform="translate(23.508678, 30.450501)"><g><path d="M 9.40625 -4.296875 C 9.40625 -3.679688 9.289062 -3.101562 9.0625 -2.5625 C 8.832031 -2.019531 8.519531 -1.546875 8.125 -1.140625 C 7.726562 -0.742188 7.257812 -0.429688 6.71875 -0.203125 C 6.175781 0.0234375 5.597656 0.140625 4.984375 0.140625 C 4.367188 0.140625 3.785156 0.0234375 3.234375 -0.203125 C 2.691406 -0.429688 2.222656 -0.742188 1.828125 -1.140625 C 1.429688 -1.546875 1.117188 -2.019531 0.890625 -2.5625 C 0.660156 -3.101562 0.546875 -3.679688 0.546875 -4.296875 C 0.546875 -4.910156 0.660156 -5.488281 0.890625 -6.03125 C 1.117188 -6.582031 1.429688 -7.054688 1.828125 -7.453125 C 2.222656 -7.847656 2.691406 -8.160156 3.234375 -8.390625 C 3.785156 -8.628906 4.367188 -8.75 4.984375 -8.75 C 5.597656 -8.75 6.175781 -8.628906 6.71875 -8.390625 C 7.257812 -8.160156 7.726562 -7.847656 8.125 -7.453125 C 8.519531 -7.054688 8.832031 -6.582031 9.0625 -6.03125 C 9.289062 -5.488281 9.40625 -4.910156 9.40625 -4.296875 Z M 8.453125 -4.296875 C 8.453125 -4.796875 8.359375 -5.265625 8.171875 -5.703125 C 7.992188 -6.148438 7.75 -6.53125 7.4375 -6.84375 C 7.132812 -7.15625 6.769531 -7.40625 6.34375 -7.59375 C 5.914062 -7.78125 5.460938 -7.875 4.984375 -7.875 C 4.492188 -7.875 4.035156 -7.78125 3.609375 -7.59375 C 3.179688 -7.40625 2.8125 -7.15625 2.5 -6.84375 C 2.195312 -6.53125 1.953125 -6.148438 1.765625 -5.703125 C 1.585938 -5.265625 1.5 -4.796875 1.5 -4.296875 C 1.5 -3.796875 1.585938 -3.328125 1.765625 -2.890625 C 1.953125 -2.460938 2.195312 -2.085938 2.5 -1.765625 C 2.8125 -1.453125 3.179688 -1.203125 3.609375 -1.015625 C 4.035156 -0.828125 4.492188 -0.734375 4.984375 -0.734375 C 5.460938 -0.734375 5.914062 -0.828125 6.34375 -1.015625 C 6.769531 -1.203125 7.132812 -1.453125 7.4375 -1.765625 C 7.75 -2.085938 7.992188 -2.460938 8.171875 -2.890625 C 8.359375 -3.328125 8.453125 -3.796875 8.453125 -4.296875 Z M 8.453125 -4.296875 "/></g></g></g><g fill="#000000" fill-opacity="1"><g transform="translate(33.448638, 30.450501)"><g><path d="M 0.953125 0 L 0.953125 -8.609375 L 4.6875 -8.609375 C 5.519531 -8.609375 6.191406 -8.378906 6.703125 -7.921875 C 7.210938 -7.472656 7.46875 -6.875 7.46875 -6.125 C 7.46875 -5.375 7.207031 -4.769531 6.6875 -4.3125 C 6.175781 -3.851562 5.507812 -3.625 4.6875 -3.625 L 1.890625 -3.625 L 1.890625 0 Z M 4.609375 -7.765625 L 1.890625 -7.765625 L 1.890625 -4.453125 L 4.609375 -4.453125 C 5.191406 -4.453125 5.65625 -4.597656 6 -4.890625 C 6.34375 -5.191406 6.515625 -5.597656 6.515625 -6.109375 C 6.515625 -6.617188 6.34375 -7.019531 6 -7.3125 C 5.65625 -7.613281 5.191406 -7.765625 4.609375 -7.765625 Z M 4.609375 -7.765625 "/></g></g></g><g fill="#000000" fill-opacity="1"><g transform="translate(41.398148, 30.450501)"><g><path d="M 0.953125 0 L 0.953125 -8.609375 L 1.890625 -8.609375 L 1.890625 0 Z M 0.953125 0 "/></g></g></g><g fill="#000000" fill-opacity="1"><g transform="translate(44.23638, 30.450501)"><g><path d="M 5.03125 -0.734375 C 5.5625 -0.734375 6.066406 -0.835938 6.546875 -1.046875 C 7.035156 -1.253906 7.441406 -1.546875 7.765625 -1.921875 L 8.390625 -1.28125 C 7.960938 -0.832031 7.453125 -0.484375 6.859375 -0.234375 C 6.265625 0.015625 5.644531 0.140625 5 0.140625 C 4.375 0.140625 3.789062 0.0234375 3.25 -0.203125 C 2.707031 -0.429688 2.234375 -0.742188 1.828125 -1.140625 C 1.429688 -1.546875 1.117188 -2.019531 0.890625 -2.5625 C 0.660156 -3.101562 0.546875 -3.679688 0.546875 -4.296875 C 0.546875 -4.910156 0.660156 -5.488281 0.890625 -6.03125 C 1.117188 -6.582031 1.429688 -7.054688 1.828125 -7.453125 C 2.234375 -7.847656 2.707031 -8.160156 3.25 -8.390625 C 3.789062 -8.628906 4.375 -8.75 5 -8.75 C 5.664062 -8.75 6.296875 -8.625 6.890625 -8.375 C 7.484375 -8.125 7.988281 -7.773438 8.40625 -7.328125 L 7.78125 -6.671875 C 7.445312 -7.046875 7.03125 -7.335938 6.53125 -7.546875 C 6.039062 -7.765625 5.53125 -7.875 5 -7.875 C 4.507812 -7.875 4.046875 -7.78125 3.609375 -7.59375 C 3.179688 -7.40625 2.8125 -7.15625 2.5 -6.84375 C 2.195312 -6.53125 1.953125 -6.148438 1.765625 -5.703125 C 1.585938 -5.265625 1.5 -4.796875 1.5 -4.296875 C 1.5 -3.796875 1.585938 -3.328125 1.765625 -2.890625 C 1.953125 -2.453125 2.203125 -2.078125 2.515625 -1.765625 C 2.828125 -1.453125 3.195312 -1.203125 3.625 -1.015625 C 4.0625 -0.828125 4.53125 -0.734375 5.03125 -0.734375 Z M 5.03125 -0.734375 "/></g></g></g><g fill="#000000" fill-opacity="1"><g transform="translate(53.107402, 30.450501)"><g><path d="M 0.59375 0 Z M 1.21875 -1.1875 C 1.382812 -1.1875 1.53125 -1.125 1.65625 -1 C 1.78125 -0.875 1.84375 -0.722656 1.84375 -0.546875 C 1.84375 -0.378906 1.78125 -0.234375 1.65625 -0.109375 C 1.53125 0.015625 1.382812 0.078125 1.21875 0.078125 C 1.039062 0.078125 0.890625 0.015625 0.765625 -0.109375 C 0.648438 -0.234375 0.59375 -0.378906 0.59375 -0.546875 C 0.59375 -0.722656 0.648438 -0.875 0.765625 -1 C 0.890625 -1.125 1.039062 -1.1875 1.21875 -1.1875 Z M 1.21875 -6.296875 C 1.382812 -6.296875 1.53125 -6.234375 1.65625 -6.109375 C 1.78125 -5.984375 1.84375 -5.832031 1.84375 -5.65625 C 1.84375 -5.488281 1.78125 -5.34375 1.65625 -5.21875 C 1.53125 -5.09375 1.382812 -5.03125 1.21875 -5.03125 C 1.039062 -5.03125 0.890625 -5.09375 0.765625 -5.21875 C 0.648438 -5.34375 0.59375 -5.488281 0.59375 -5.65625 C 0.59375 -5.832031 0.648438 -5.984375 0.765625 -6.109375 C 0.890625 -6.234375 1.039062 -6.296875 1.21875 -6.296875 Z M 1.21875 -6.296875 "/></g></g></g><g clip-path="url(#3b8d518912)"><path fill="#000000" d="M 21.382812 132.007812 C 21.382812 132.429688 21.34375 132.847656 21.261719 133.257812 C 21.179688 133.671875 21.054688 134.070312 20.894531 134.460938 C 20.734375 134.847656 20.535156 135.21875 20.304688 135.570312 C 20.070312 135.917969 19.804688 136.242188 19.507812 136.539062 C 19.207031 136.835938 18.886719 137.101562 18.535156 137.335938 C 18.183594 137.570312 17.816406 137.769531 17.425781 137.929688 C 17.039062 138.089844 16.636719 138.210938 16.226562 138.292969 C 15.8125 138.375 15.394531 138.417969 14.976562 138.417969 C 14.554688 138.417969 14.136719 138.375 13.722656 138.292969 C 13.3125 138.210938 12.910156 138.089844 12.523438 137.929688 C 12.132812 137.769531 11.765625 137.570312 11.414062 137.335938 C 11.066406 137.101562 10.742188 136.835938 10.441406 136.539062 C 10.144531 136.242188 9.878906 135.917969 9.644531 135.570312 C 9.414062 135.21875 9.214844 134.847656 9.054688 134.460938 C 8.894531 134.070312 8.773438 133.671875 8.691406 133.257812 C 8.605469 132.847656 8.566406 132.429688 8.566406 132.007812 C 8.566406 131.585938 8.605469 131.171875 8.691406 130.757812 C 8.773438 130.34375 8.894531 129.945312 9.054688 129.554688 C 9.214844 129.167969 9.414062 128.796875 9.644531 128.449219 C 9.878906 128.097656 10.144531 127.773438 10.441406 127.476562 C 10.742188 127.179688 11.066406 126.914062 11.414062 126.679688 C 11.765625 126.445312 12.132812 126.25 12.523438 126.085938 C 12.910156 125.925781 13.3125 125.804688 13.722656 125.722656 C 14.136719 125.640625 14.554688 125.601562 14.976562 125.601562 C 15.394531 125.601562 15.8125 125.640625 16.226562 125.722656 C 16.636719 125.804688 17.039062 125.925781 17.425781 126.085938 C 17.816406 126.25 18.183594 126.445312 18.535156 126.679688 C 18.886719 126.914062 19.207031 127.179688 19.507812 127.476562 C 19.804688 127.773438 20.070312 128.097656 20.304688 128.449219 C 20.535156 128.796875 20.734375 129.167969 20.894531 129.554688 C 21.054688 129.945312 21.179688 130.34375 21.261719 130.757812 C 21.34375 131.171875 21.382812 131.585938 21.382812 132.007812 Z M 21.382812 132.007812 " fill-opacity="1" fill-rule="nonzero"/></g><g clip-path="url(#27752231f8)"><path fill="#000000" d="M 21.382812 162.664062 C 21.382812 163.085938 21.34375 163.503906 21.261719 163.914062 C 21.179688 164.328125 21.054688 164.726562 20.894531 165.117188 C 20.734375 165.503906 20.535156 165.875 20.304688 166.226562 C 20.070312 166.574219 19.804688 166.898438 19.507812 167.195312 C 19.207031 167.492188 18.886719 167.757812 18.535156 167.992188 C 18.183594 168.226562 17.816406 168.425781 17.425781 168.585938 C 17.039062 168.746094 16.636719 168.867188 16.226562 168.949219 C 15.8125 169.03125 15.394531 169.074219 14.976562 169.074219 C 14.554688 169.074219 14.136719 169.03125 13.722656 168.949219 C 13.3125 168.867188 12.910156 168.746094 12.523438 168.585938 C 12.132812 168.425781 11.765625 168.226562 11.414062 167.992188 C 11.066406 167.757812 10.742188 167.492188 10.441406 167.195312 C 10.144531 166.898438 9.878906 166.574219 9.644531 166.226562 C 9.414062 165.875 9.214844 165.503906 9.054688 165.117188 C 8.894531 164.726562 8.773438 164.328125 8.691406 163.914062 C 8.605469 163.503906 8.566406 163.085938 8.566406 162.664062 C 8.566406 162.242188 8.605469 161.828125 8.691406 161.414062 C 8.773438 161 8.894531 160.601562 9.054688 160.210938 C 9.214844 159.824219 9.414062 159.453125 9.644531 159.105469 C 9.878906 158.753906 10.144531 158.429688 10.441406 158.132812 C 10.742188 157.835938 11.066406 157.570312 11.414062 157.335938 C 11.765625 157.101562 12.132812 156.90625 12.523438 156.742188 C 12.910156 156.582031 13.3125 156.460938 13.722656 156.378906 C 14.136719 156.296875 14.554688 156.257812 14.976562 156.257812 C 15.394531 156.257812 15.8125 156.296875 16.226562 156.378906 C 16.636719 156.460938 17.039062 156.582031 17.425781 156.742188 C 17.816406 156.90625 18.183594 157.101562 18.535156 157.335938 C 18.886719 157.570312 19.207031 157.835938 19.507812 158.132812 C 19.804688 158.429688 20.070312 158.753906 20.304688 159.105469 C 20.535156 159.453125 20.734375 159.824219 20.894531 160.210938 C 21.054688 160.601562 21.179688 161 21.261719 161.414062 C 21.34375 161.828125 21.382812 162.242188 21.382812 162.664062 Z M 21.382812 162.664062 " fill-opacity="1" fill-rule="nonzero"/></g><g clip-path="url(#9b8570004e)"><path stroke-linecap="butt" transform="matrix(0.753932, 0, 0, 0.753932, 6.354302, 209.597694)" fill="none" stroke-linejoin="miter" d="M 0.00154702 -0.0000506616 L 595.929333 -0.0000506616 L 595.929333 91.670386 L 0.00154702 91.670386 Z M 0.00154702 -0.0000506616 " stroke="#000000" stroke-width="1.986626" stroke-opacity="1" stroke-miterlimit="4"/></g><g clip-path="url(#2a6a2e9382)"><path fill="#000000" d="M 21.382812 304.097656 C 21.382812 304.519531 21.34375 304.9375 21.261719 305.347656 C 21.179688 305.761719 21.054688 306.160156 20.894531 306.550781 C 20.734375 306.941406 20.535156 307.308594 20.304688 307.660156 C 20.070312 308.007812 19.804688 308.332031 19.507812 308.628906 C 19.207031 308.925781 18.886719 309.191406 18.535156 309.425781 C 18.183594 309.660156 17.816406 309.859375 17.425781 310.019531 C 17.039062 310.179688 16.636719 310.300781 16.226562 310.382812 C 15.8125 310.464844 15.394531 310.507812 14.976562 310.507812 C 14.554688 310.507812 14.136719 310.464844 13.722656 310.382812 C 13.3125 310.300781 12.910156 310.179688 12.523438 310.019531 C 12.132812 309.859375 11.765625 309.660156 11.414062 309.425781 C 11.066406 309.191406 10.742188 308.925781 10.441406 308.628906 C 10.144531 308.332031 9.878906 308.007812 9.644531 307.660156 C 9.414062 307.308594 9.214844 306.941406 9.054688 306.550781 C 8.894531 306.160156 8.773438 305.761719 8.691406 305.347656 C 8.605469 304.9375 8.566406 304.519531 8.566406 304.097656 C 8.566406 303.675781 8.605469 303.261719 8.691406 302.847656 C 8.773438 302.433594 8.894531 302.035156 9.054688 301.644531 C 9.214844 301.257812 9.414062 300.886719 9.644531 300.539062 C 9.878906 300.1875 10.144531 299.863281 10.441406 299.566406 C 10.742188 299.269531 11.066406 299.003906 11.414062 298.769531 C 11.765625 298.535156 12.132812 298.339844 12.523438 298.175781 C 12.910156 298.015625 13.3125 297.894531 13.722656 297.8125 C 14.136719 297.730469 14.554688 297.691406 14.976562 297.691406 C 15.394531 297.691406 15.8125 297.730469 16.226562 297.8125 C 16.636719 297.894531 17.039062 298.015625 17.425781 298.175781 C 17.816406 298.339844 18.183594 298.535156 18.535156 298.769531 C 18.886719 299.003906 19.207031 299.269531 19.507812 299.566406 C 19.804688 299.863281 20.070312 300.1875 20.304688 300.539062 C 20.535156 300.886719 20.734375 301.257812 20.894531 301.644531 C 21.054688 302.035156 21.179688 302.433594 21.261719 302.847656 C 21.34375 303.261719 21.382812 303.675781 21.382812 304.097656 Z M 21.382812 304.097656 " fill-opacity="1" fill-rule="nonzero"/></g><g fill="#000000" fill-opacity="1"><g transform="translate(15.92777, 233.878353)"><g><path d="M 0.203125 -7.765625 L 0.203125 -8.609375 L 7.375 -8.609375 L 7.375 -7.765625 L 4.265625 -7.765625 L 4.265625 0 L 3.3125 0 L 3.3125 -7.765625 Z M 0.203125 -7.765625 "/></g></g></g><g fill="#000000" fill-opacity="1"><g transform="translate(23.508678, 233.878353)"><g><path d="M 9.40625 -4.296875 C 9.40625 -3.679688 9.289062 -3.101562 9.0625 -2.5625 C 8.832031 -2.019531 8.519531 -1.546875 8.125 -1.140625 C 7.726562 -0.742188 7.257812 -0.429688 6.71875 -0.203125 C 6.175781 0.0234375 5.597656 0.140625 4.984375 0.140625 C 4.367188 0.140625 3.785156 0.0234375 3.234375 -0.203125 C 2.691406 -0.429688 2.222656 -0.742188 1.828125 -1.140625 C 1.429688 -1.546875 1.117188 -2.019531 0.890625 -2.5625 C 0.660156 -3.101562 0.546875 -3.679688 0.546875 -4.296875 C 0.546875 -4.910156 0.660156 -5.488281 0.890625 -6.03125 C 1.117188 -6.582031 1.429688 -7.054688 1.828125 -7.453125 C 2.222656 -7.847656 2.691406 -8.160156 3.234375 -8.390625 C 3.785156 -8.628906 4.367188 -8.75 4.984375 -8.75 C 5.597656 -8.75 6.175781 -8.628906 6.71875 -8.390625 C 7.257812 -8.160156 7.726562 -7.847656 8.125 -7.453125 C 8.519531 -7.054688 8.832031 -6.582031 9.0625 -6.03125 C 9.289062 -5.488281 9.40625 -4.910156 9.40625 -4.296875 Z M 8.453125 -4.296875 C 8.453125 -4.796875 8.359375 -5.265625 8.171875 -5.703125 C 7.992188 -6.148438 7.75 -6.53125 7.4375 -6.84375 C 7.132812 -7.15625 6.769531 -7.40625 6.34375 -7.59375 C 5.914062 -7.78125 5.460938 -7.875 4.984375 -7.875 C 4.492188 -7.875 4.035156 -7.78125 3.609375 -7.59375 C 3.179688 -7.40625 2.8125 -7.15625 2.5 -6.84375 C 2.195312 -6.53125 1.953125 -6.148438 1.765625 -5.703125 C 1.585938 -5.265625 1.5 -4.796875 1.5 -4.296875 C 1.5 -3.796875 1.585938 -3.328125 1.765625 -2.890625 C 1.953125 -2.460938 2.195312 -2.085938 2.5 -1.765625 C 2.8125 -1.453125 3.179688 -1.203125 3.609375 -1.015625 C 4.035156 -0.828125 4.492188 -0.734375 4.984375 -0.734375 C 5.460938 -0.734375 5.914062 -0.828125 6.34375 -1.015625 C 6.769531 -1.203125 7.132812 -1.453125 7.4375 -1.765625 C 7.75 -2.085938 7.992188 -2.460938 8.171875 -2.890625 C 8.359375 -3.328125 8.453125 -3.796875 8.453125 -4.296875 Z M 8.453125 -4.296875 "/></g></g></g><g fill="#000000" fill-opacity="1"><g transform="translate(33.448638, 233.878353)"><g><path d="M 0.953125 0 L 0.953125 -8.609375 L 4.6875 -8.609375 C 5.519531 -8.609375 6.191406 -8.378906 6.703125 -7.921875 C 7.210938 -7.472656 7.46875 -6.875 7.46875 -6.125 C 7.46875 -5.375 7.207031 -4.769531 6.6875 -4.3125 C 6.175781 -3.851562 5.507812 -3.625 4.6875 -3.625 L 1.890625 -3.625 L 1.890625 0 Z M 4.609375 -7.765625 L 1.890625 -7.765625 L 1.890625 -4.453125 L 4.609375 -4.453125 C 5.191406 -4.453125 5.65625 -4.597656 6 -4.890625 C 6.34375 -5.191406 6.515625 -5.597656 6.515625 -6.109375 C 6.515625 -6.617188 6.34375 -7.019531 6 -7.3125 C 5.65625 -7.613281 5.191406 -7.765625 4.609375 -7.765625 Z M 4.609375 -7.765625 "/></g></g></g><g fill="#000000" fill-opacity="1"><g transform="translate(41.398148, 233.878353)"><g><path d="M 0.953125 0 L 0.953125 -8.609375 L 1.890625 -8.609375 L 1.890625 0 Z M 0.953125 0 "/></g></g></g><g fill="#000000" fill-opacity="1"><g transform="translate(44.23638, 233.878353)"><g><path d="M 5.03125 -0.734375 C 5.5625 -0.734375 6.066406 -0.835938 6.546875 -1.046875 C 7.035156 -1.253906 7.441406 -1.546875 7.765625 -1.921875 L 8.390625 -1.28125 C 7.960938 -0.832031 7.453125 -0.484375 6.859375 -0.234375 C 6.265625 0.015625 5.644531 0.140625 5 0.140625 C 4.375 0.140625 3.789062 0.0234375 3.25 -0.203125 C 2.707031 -0.429688 2.234375 -0.742188 1.828125 -1.140625 C 1.429688 -1.546875 1.117188 -2.019531 0.890625 -2.5625 C 0.660156 -3.101562 0.546875 -3.679688 0.546875 -4.296875 C 0.546875 -4.910156 0.660156 -5.488281 0.890625 -6.03125 C 1.117188 -6.582031 1.429688 -7.054688 1.828125 -7.453125 C 2.234375 -7.847656 2.707031 -8.160156 3.25 -8.390625 C 3.789062 -8.628906 4.375 -8.75 5 -8.75 C 5.664062 -8.75 6.296875 -8.625 6.890625 -8.375 C 7.484375 -8.125 7.988281 -7.773438 8.40625 -7.328125 L 7.78125 -6.671875 C 7.445312 -7.046875 7.03125 -7.335938 6.53125 -7.546875 C 6.039062 -7.765625 5.53125 -7.875 5 -7.875 C 4.507812 -7.875 4.046875 -7.78125 3.609375 -7.59375 C 3.179688 -7.40625 2.8125 -7.15625 2.5 -6.84375 C 2.195312 -6.53125 1.953125 -6.148438 1.765625 -5.703125 C 1.585938 -5.265625 1.5 -4.796875 1.5 -4.296875 C 1.5 -3.796875 1.585938 -3.328125 1.765625 -2.890625 C 1.953125 -2.453125 2.203125 -2.078125 2.515625 -1.765625 C 2.828125 -1.453125 3.195312 -1.203125 3.625 -1.015625 C 4.0625 -0.828125 4.53125 -0.734375 5.03125 -0.734375 Z M 5.03125 -0.734375 "/></g></g></g><g fill="#000000" fill-opacity="1"><g transform="translate(53.107402, 233.878353)"><g><path d="M 0.59375 0 Z M 1.21875 -1.1875 C 1.382812 -1.1875 1.53125 -1.125 1.65625 -1 C 1.78125 -0.875 1.84375 -0.722656 1.84375 -0.546875 C 1.84375 -0.378906 1.78125 -0.234375 1.65625 -0.109375 C 1.53125 0.015625 1.382812 0.078125 1.21875 0.078125 C 1.039062 0.078125 0.890625 0.015625 0.765625 -0.109375 C 0.648438 -0.234375 0.59375 -0.378906 0.59375 -0.546875 C 0.59375 -0.722656 0.648438 -0.875 0.765625 -1 C 0.890625 -1.125 1.039062 -1.1875 1.21875 -1.1875 Z M 1.21875 -6.296875 C 1.382812 -6.296875 1.53125 -6.234375 1.65625 -6.109375 C 1.78125 -5.984375 1.84375 -5.832031 1.84375 -5.65625 C 1.84375 -5.488281 1.78125 -5.34375 1.65625 -5.21875 C 1.53125 -5.09375 1.382812 -5.03125 1.21875 -5.03125 C 1.039062 -5.03125 0.890625 -5.09375 0.765625 -5.21875 C 0.648438 -5.34375 0.59375 -5.488281 0.59375 -5.65625 C 0.59375 -5.832031 0.648438 -5.984375 0.765625 -6.109375 C 0.890625 -6.234375 1.039062 -6.296875 1.21875 -6.296875 Z M 1.21875 -6.296875 "/></g></g></g><g clip-path="url(#d9031638c0)"><path fill="#000000" d="M 21.382812 335.4375 C 21.382812 335.855469 21.34375 336.273438 21.261719 336.6875 C 21.179688 337.097656 21.054688 337.5 20.894531 337.886719 C 20.734375 338.277344 20.535156 338.648438 20.304688 338.996094 C 20.070312 339.347656 19.804688 339.671875 19.507812 339.96875 C 19.207031 340.265625 18.886719 340.53125 18.535156 340.765625 C 18.183594 341 17.816406 341.195312 17.425781 341.355469 C 17.039062 341.519531 16.636719 341.640625 16.226562 341.722656 C 15.8125 341.804688 15.394531 341.84375 14.976562 341.84375 C 14.554688 341.84375 14.136719 341.804688 13.722656 341.722656 C 13.3125 341.640625 12.910156 341.519531 12.523438 341.355469 C 12.132812 341.195312 11.765625 341 11.414062 340.765625 C 11.066406 340.53125 10.742188 340.265625 10.441406 339.96875 C 10.144531 339.671875 9.878906 339.347656 9.644531 338.996094 C 9.414062 338.648438 9.214844 338.277344 9.054688 337.886719 C 8.894531 337.5 8.773438 337.097656 8.691406 336.6875 C 8.605469 336.273438 8.566406 335.855469 8.566406 335.4375 C 8.566406 335.015625 8.605469 334.597656 8.691406 334.1875 C 8.773438 333.773438 8.894531 333.371094 9.054688 332.984375 C 9.214844 332.59375 9.414062 332.226562 9.644531 331.875 C 9.878906 331.527344 10.144531 331.203125 10.441406 330.90625 C 10.742188 330.605469 11.066406 330.339844 11.414062 330.109375 C 11.765625 329.875 12.132812 329.675781 12.523438 329.515625 C 12.910156 329.355469 13.3125 329.234375 13.722656 329.152344 C 14.136719 329.070312 14.554688 329.027344 14.976562 329.027344 C 15.394531 329.027344 15.8125 329.070312 16.226562 329.152344 C 16.636719 329.234375 17.039062 329.355469 17.425781 329.515625 C 17.816406 329.675781 18.183594 329.875 18.535156 330.109375 C 18.886719 330.339844 19.207031 330.605469 19.507812 330.90625 C 19.804688 331.203125 20.070312 331.527344 20.304688 331.875 C 20.535156 332.226562 20.734375 332.59375 20.894531 332.984375 C 21.054688 333.371094 21.179688 333.773438 21.261719 334.1875 C 21.34375 334.597656 21.382812 335.015625 21.382812 335.4375 Z M 21.382812 335.4375 " fill-opacity="1" fill-rule="nonzero"/></g><g clip-path="url(#51dc82af83)"><path fill="#000000" d="M 21.382812 366.09375 C 21.382812 366.511719 21.34375 366.929688 21.261719 367.34375 C 21.179688 367.753906 21.054688 368.15625 20.894531 368.542969 C 20.734375 368.933594 20.535156 369.304688 20.304688 369.652344 C 20.070312 370.003906 19.804688 370.328125 19.507812 370.625 C 19.207031 370.921875 18.886719 371.1875 18.535156 371.421875 C 18.183594 371.65625 17.816406 371.851562 17.425781 372.011719 C 17.039062 372.175781 16.636719 372.296875 16.226562 372.378906 C 15.8125 372.460938 15.394531 372.5 14.976562 372.5 C 14.554688 372.5 14.136719 372.460938 13.722656 372.378906 C 13.3125 372.296875 12.910156 372.175781 12.523438 372.011719 C 12.132812 371.851562 11.765625 371.65625 11.414062 371.421875 C 11.066406 371.1875 10.742188 370.921875 10.441406 370.625 C 10.144531 370.328125 9.878906 370.003906 9.644531 369.652344 C 9.414062 369.304688 9.214844 368.933594 9.054688 368.542969 C 8.894531 368.15625 8.773438 367.753906 8.691406 367.34375 C 8.605469 366.929688 8.566406 366.511719 8.566406 366.09375 C 8.566406 365.671875 8.605469 365.253906 8.691406 364.84375 C 8.773438 364.429688 8.894531 364.027344 9.054688 363.640625 C 9.214844 363.25 9.414062 362.882812 9.644531 362.53125 C 9.878906 362.183594 10.144531 361.859375 10.441406 361.5625 C 10.742188 361.261719 11.066406 360.996094 11.414062 360.765625 C 11.765625 360.53125 12.132812 360.332031 12.523438 360.171875 C 12.910156 360.011719 13.3125 359.890625 13.722656 359.808594 C 14.136719 359.726562 14.554688 359.683594 14.976562 359.683594 C 15.394531 359.683594 15.8125 359.726562 16.226562 359.808594 C 16.636719 359.890625 17.039062 360.011719 17.425781 360.171875 C 17.816406 360.332031 18.183594 360.53125 18.535156 360.765625 C 18.886719 360.996094 19.207031 361.261719 19.507812 361.5625 C 19.804688 361.859375 20.070312 362.183594 20.304688 362.53125 C 20.535156 362.882812 20.734375 363.25 20.894531 363.640625 C 21.054688 364.027344 21.179688 364.429688 21.261719 364.84375 C 21.34375 365.253906 21.382812 365.671875 21.382812 366.09375 Z M 21.382812 366.09375 " fill-opacity="1" fill-rule="nonzero"/></g><g clip-path="url(#50b10e256d)"><path stroke-linecap="butt" transform="matrix(0.753932, 0, 0, 0.753932, 6.354302, 413.025539)" fill="none" stroke-linejoin="miter" d="M 0.00154702 0.00239355 L 595.929333 0.00239355 L 595.929333 91.672831 L 0.00154702 91.672831 Z M 0.00154702 0.00239355 " stroke="#000000" stroke-width="1.986626" stroke-opacity="1" stroke-miterlimit="4"/></g><g clip-path="url(#5448b58838)"><path fill="#000000" d="M 21.382812 507.527344 C 21.382812 507.945312 21.34375 508.363281 21.261719 508.777344 C 21.179688 509.1875 21.054688 509.589844 20.894531 509.980469 C 20.734375 510.367188 20.535156 510.738281 20.304688 511.085938 C 20.070312 511.4375 19.804688 511.761719 19.507812 512.058594 C 19.207031 512.355469 18.886719 512.621094 18.535156 512.855469 C 18.183594 513.089844 17.816406 513.285156 17.425781 513.445312 C 17.039062 513.609375 16.636719 513.730469 16.226562 513.8125 C 15.8125 513.894531 15.394531 513.933594 14.976562 513.933594 C 14.554688 513.933594 14.136719 513.894531 13.722656 513.8125 C 13.3125 513.730469 12.910156 513.609375 12.523438 513.445312 C 12.132812 513.285156 11.765625 513.089844 11.414062 512.855469 C 11.066406 512.621094 10.742188 512.355469 10.441406 512.058594 C 10.144531 511.761719 9.878906 511.4375 9.644531 511.085938 C 9.414062 510.738281 9.214844 510.367188 9.054688 509.980469 C 8.894531 509.589844 8.773438 509.1875 8.691406 508.777344 C 8.605469 508.363281 8.566406 507.945312 8.566406 507.527344 C 8.566406 507.105469 8.605469 506.6875 8.691406 506.277344 C 8.773438 505.863281 8.894531 505.460938 9.054688 505.074219 C 9.214844 504.683594 9.414062 504.316406 9.644531 503.964844 C 9.878906 503.617188 10.144531 503.292969 10.441406 502.996094 C 10.742188 502.699219 11.066406 502.433594 11.414062 502.199219 C 11.765625 501.964844 12.132812 501.765625 12.523438 501.605469 C 12.910156 501.445312 13.3125 501.324219 13.722656 501.242188 C 14.136719 501.160156 14.554688 501.117188 14.976562 501.117188 C 15.394531 501.117188 15.8125 501.160156 16.226562 501.242188 C 16.636719 501.324219 17.039062 501.445312 17.425781 501.605469 C 17.816406 501.765625 18.183594 501.964844 18.535156 502.199219 C 18.886719 502.433594 19.207031 502.699219 19.507812 502.996094 C 19.804688 503.292969 20.070312 503.617188 20.304688 503.964844 C 20.535156 504.316406 20.734375 504.683594 20.894531 505.074219 C 21.054688 505.460938 21.179688 505.863281 21.261719 506.277344 C 21.34375 506.6875 21.382812 507.105469 21.382812 507.527344 Z M 21.382812 507.527344 " fill-opacity="1" fill-rule="nonzero"/></g><g fill="#000000" fill-opacity="1"><g transform="translate(15.92777, 437.306265)"><g><path d="M 0.203125 -7.765625 L 0.203125 -8.609375 L 7.375 -8.609375 L 7.375 -7.765625 L 4.265625 -7.765625 L 4.265625 0 L 3.3125 0 L 3.3125 -7.765625 Z M 0.203125 -7.765625 "/></g></g></g><g fill="#000000" fill-opacity="1"><g transform="translate(23.508678, 437.306265)"><g><path d="M 9.40625 -4.296875 C 9.40625 -3.679688 9.289062 -3.101562 9.0625 -2.5625 C 8.832031 -2.019531 8.519531 -1.546875 8.125 -1.140625 C 7.726562 -0.742188 7.257812 -0.429688 6.71875 -0.203125 C 6.175781 0.0234375 5.597656 0.140625 4.984375 0.140625 C 4.367188 0.140625 3.785156 0.0234375 3.234375 -0.203125 C 2.691406 -0.429688 2.222656 -0.742188 1.828125 -1.140625 C 1.429688 -1.546875 1.117188 -2.019531 0.890625 -2.5625 C 0.660156 -3.101562 0.546875 -3.679688 0.546875 -4.296875 C 0.546875 -4.910156 0.660156 -5.488281 0.890625 -6.03125 C 1.117188 -6.582031 1.429688 -7.054688 1.828125 -7.453125 C 2.222656 -7.847656 2.691406 -8.160156 3.234375 -8.390625 C 3.785156 -8.628906 4.367188 -8.75 4.984375 -8.75 C 5.597656 -8.75 6.175781 -8.628906 6.71875 -8.390625 C 7.257812 -8.160156 7.726562 -7.847656 8.125 -7.453125 C 8.519531 -7.054688 8.832031 -6.582031 9.0625 -6.03125 C 9.289062 -5.488281 9.40625 -4.910156 9.40625 -4.296875 Z M 8.453125 -4.296875 C 8.453125 -4.796875 8.359375 -5.265625 8.171875 -5.703125 C 7.992188 -6.148438 7.75 -6.53125 7.4375 -6.84375 C 7.132812 -7.15625 6.769531 -7.40625 6.34375 -7.59375 C 5.914062 -7.78125 5.460938 -7.875 4.984375 -7.875 C 4.492188 -7.875 4.035156 -7.78125 3.609375 -7.59375 C 3.179688 -7.40625 2.8125 -7.15625 2.5 -6.84375 C 2.195312 -6.53125 1.953125 -6.148438 1.765625 -5.703125 C 1.585938 -5.265625 1.5 -4.796875 1.5 -4.296875 C 1.5 -3.796875 1.585938 -3.328125 1.765625 -2.890625 C 1.953125 -2.460938 2.195312 -2.085938 2.5 -1.765625 C 2.8125 -1.453125 3.179688 -1.203125 3.609375 -1.015625 C 4.035156 -0.828125 4.492188 -0.734375 4.984375 -0.734375 C 5.460938 -0.734375 5.914062 -0.828125 6.34375 -1.015625 C 6.769531 -1.203125 7.132812 -1.453125 7.4375 -1.765625 C 7.75 -2.085938 7.992188 -2.460938 8.171875 -2.890625 C 8.359375 -3.328125 8.453125 -3.796875 8.453125 -4.296875 Z M 8.453125 -4.296875 "/></g></g></g><g fill="#000000" fill-opacity="1"><g transform="translate(33.448638, 437.306265)"><g><path d="M 0.953125 0 L 0.953125 -8.609375 L 4.6875 -8.609375 C 5.519531 -8.609375 6.191406 -8.378906 6.703125 -7.921875 C 7.210938 -7.472656 7.46875 -6.875 7.46875 -6.125 C 7.46875 -5.375 7.207031 -4.769531 6.6875 -4.3125 C 6.175781 -3.851562 5.507812 -3.625 4.6875 -3.625 L 1.890625 -3.625 L 1.890625 0 Z M 4.609375 -7.765625 L 1.890625 -7.765625 L 1.890625 -4.453125 L 4.609375 -4.453125 C 5.191406 -4.453125 5.65625 -4.597656 6 -4.890625 C 6.34375 -5.191406 6.515625 -5.597656 6.515625 -6.109375 C 6.515625 -6.617188 6.34375 -7.019531 6 -7.3125 C 5.65625 -7.613281 5.191406 -7.765625 4.609375 -7.765625 Z M 4.609375 -7.765625 "/></g></g></g><g fill="#000000" fill-opacity="1"><g transform="translate(41.398148, 437.306265)"><g><path d="M 0.953125 0 L 0.953125 -8.609375 L 1.890625 -8.609375 L 1.890625 0 Z M 0.953125 0 "/></g></g></g><g fill="#000000" fill-opacity="1"><g transform="translate(44.23638, 437.306265)"><g><path d="M 5.03125 -0.734375 C 5.5625 -0.734375 6.066406 -0.835938 6.546875 -1.046875 C 7.035156 -1.253906 7.441406 -1.546875 7.765625 -1.921875 L 8.390625 -1.28125 C 7.960938 -0.832031 7.453125 -0.484375 6.859375 -0.234375 C 6.265625 0.015625 5.644531 0.140625 5 0.140625 C 4.375 0.140625 3.789062 0.0234375 3.25 -0.203125 C 2.707031 -0.429688 2.234375 -0.742188 1.828125 -1.140625 C 1.429688 -1.546875 1.117188 -2.019531 0.890625 -2.5625 C 0.660156 -3.101562 0.546875 -3.679688 0.546875 -4.296875 C 0.546875 -4.910156 0.660156 -5.488281 0.890625 -6.03125 C 1.117188 -6.582031 1.429688 -7.054688 1.828125 -7.453125 C 2.234375 -7.847656 2.707031 -8.160156 3.25 -8.390625 C 3.789062 -8.628906 4.375 -8.75 5 -8.75 C 5.664062 -8.75 6.296875 -8.625 6.890625 -8.375 C 7.484375 -8.125 7.988281 -7.773438 8.40625 -7.328125 L 7.78125 -6.671875 C 7.445312 -7.046875 7.03125 -7.335938 6.53125 -7.546875 C 6.039062 -7.765625 5.53125 -7.875 5 -7.875 C 4.507812 -7.875 4.046875 -7.78125 3.609375 -7.59375 C 3.179688 -7.40625 2.8125 -7.15625 2.5 -6.84375 C 2.195312 -6.53125 1.953125 -6.148438 1.765625 -5.703125 C 1.585938 -5.265625 1.5 -4.796875 1.5 -4.296875 C 1.5 -3.796875 1.585938 -3.328125 1.765625 -2.890625 C 1.953125 -2.453125 2.203125 -2.078125 2.515625 -1.765625 C 2.828125 -1.453125 3.195312 -1.203125 3.625 -1.015625 C 4.0625 -0.828125 4.53125 -0.734375 5.03125 -0.734375 Z M 5.03125 -0.734375 "/></g></g></g><g fill="#000000" fill-opacity="1"><g transform="translate(53.107402, 437.306265)"><g><path d="M 0.59375 0 Z M 1.21875 -1.1875 C 1.382812 -1.1875 1.53125 -1.125 1.65625 -1 C 1.78125 -0.875 1.84375 -0.722656 1.84375 -0.546875 C 1.84375 -0.378906 1.78125 -0.234375 1.65625 -0.109375 C 1.53125 0.015625 1.382812 0.078125 1.21875 0.078125 C 1.039062 0.078125 0.890625 0.015625 0.765625 -0.109375 C 0.648438 -0.234375 0.59375 -0.378906 0.59375 -0.546875 C 0.59375 -0.722656 0.648438 -0.875 0.765625 -1 C 0.890625 -1.125 1.039062 -1.1875 1.21875 -1.1875 Z M 1.21875 -6.296875 C 1.382812 -6.296875 1.53125 -6.234375 1.65625 -6.109375 C 1.78125 -5.984375 1.84375 -5.832031 1.84375 -5.65625 C 1.84375 -5.488281 1.78125 -5.34375 1.65625 -5.21875 C 1.53125 -5.09375 1.382812 -5.03125 1.21875 -5.03125 C 1.039062 -5.03125 0.890625 -5.09375 0.765625 -5.21875 C 0.648438 -5.34375 0.59375 -5.488281 0.59375 -5.65625 C 0.59375 -5.832031 0.648438 -5.984375 0.765625 -6.109375 C 0.890625 -6.234375 1.039062 -6.296875 1.21875 -6.296875 Z M 1.21875 -6.296875 "/></g></g></g><g clip-path="url(#3065779a2a)"><path fill="#000000" d="M 21.382812 538.863281 C 21.382812 539.285156 21.34375 539.703125 21.261719 540.113281 C 21.179688 540.527344 21.054688 540.925781 20.894531 541.316406 C 20.734375 541.707031 20.535156 542.074219 20.304688 542.425781 C 20.070312 542.773438 19.804688 543.097656 19.507812 543.394531 C 19.207031 543.691406 18.886719 543.957031 18.535156 544.191406 C 18.183594 544.425781 17.816406 544.625 17.425781 544.785156 C 17.039062 544.945312 16.636719 545.066406 16.226562 545.148438 C 15.8125 545.230469 15.394531 545.273438 14.976562 545.273438 C 14.554688 545.273438 14.136719 545.230469 13.722656 545.148438 C 13.3125 545.066406 12.910156 544.945312 12.523438 544.785156 C 12.132812 544.625 11.765625 544.425781 11.414062 544.191406 C 11.066406 543.957031 10.742188 543.691406 10.441406 543.394531 C 10.144531 543.097656 9.878906 542.773438 9.644531 542.425781 C 9.414062 542.074219 9.214844 541.707031 9.054688 541.316406 C 8.894531 540.925781 8.773438 540.527344 8.691406 540.113281 C 8.605469 539.703125 8.566406 539.285156 8.566406 538.863281 C 8.566406 538.441406 8.605469 538.027344 8.691406 537.613281 C 8.773438 537.199219 8.894531 536.800781 9.054688 536.410156 C 9.214844 536.023438 9.414062 535.652344 9.644531 535.304688 C 9.878906 534.953125 10.144531 534.628906 10.441406 534.332031 C 10.742188 534.035156 11.066406 533.769531 11.414062 533.535156 C 11.765625 533.300781 12.132812 533.105469 12.523438 532.941406 C 12.910156 532.78125 13.3125 532.660156 13.722656 532.578125 C 14.136719 532.496094 14.554688 532.457031 14.976562 532.457031 C 15.394531 532.457031 15.8125 532.496094 16.226562 532.578125 C 16.636719 532.660156 17.039062 532.78125 17.425781 532.941406 C 17.816406 533.105469 18.183594 533.300781 18.535156 533.535156 C 18.886719 533.769531 19.207031 534.035156 19.507812 534.332031 C 19.804688 534.628906 20.070312 534.953125 20.304688 535.304688 C 20.535156 535.652344 20.734375 536.023438 20.894531 536.410156 C 21.054688 536.800781 21.179688 537.199219 21.261719 537.613281 C 21.34375 538.027344 21.382812 538.441406 21.382812 538.863281 Z M 21.382812 538.863281 " fill-opacity="1" fill-rule="nonzero"/></g><g clip-path="url(#104599641c)"><path fill="#000000" d="M 21.382812 569.519531 C 21.382812 569.941406 21.34375 570.359375 21.261719 570.769531 C 21.179688 571.183594 21.054688 571.585938 20.894531 571.972656 C 20.734375 572.363281 20.535156 572.730469 20.304688 573.082031 C 20.070312 573.429688 19.804688 573.753906 19.507812 574.050781 C 19.207031 574.347656 18.886719 574.613281 18.535156 574.847656 C 18.183594 575.082031 17.816406 575.28125 17.425781 575.441406 C 17.039062 575.601562 16.636719 575.722656 16.226562 575.804688 C 15.8125 575.886719 15.394531 575.929688 14.976562 575.929688 C 14.554688 575.929688 14.136719 575.886719 13.722656 575.804688 C 13.3125 575.722656 12.910156 575.601562 12.523438 575.441406 C 12.132812 575.28125 11.765625 575.082031 11.414062 574.847656 C 11.066406 574.613281 10.742188 574.347656 10.441406 574.050781 C 10.144531 573.753906 9.878906 573.429688 9.644531 573.082031 C 9.414062 572.730469 9.214844 572.363281 9.054688 571.972656 C 8.894531 571.585938 8.773438 571.183594 8.691406 570.769531 C 8.605469 570.359375 8.566406 569.941406 8.566406 569.519531 C 8.566406 569.101562 8.605469 568.683594 8.691406 568.269531 C 8.773438 567.859375 8.894531 567.457031 9.054688 567.066406 C 9.214844 566.679688 9.414062 566.308594 9.644531 565.960938 C 9.878906 565.609375 10.144531 565.285156 10.441406 564.988281 C 10.742188 564.691406 11.066406 564.425781 11.414062 564.191406 C 11.765625 563.957031 12.132812 563.761719 12.523438 563.601562 C 12.910156 563.4375 13.3125 563.316406 13.722656 563.234375 C 14.136719 563.152344 14.554688 563.113281 14.976562 563.113281 C 15.394531 563.113281 15.8125 563.152344 16.226562 563.234375 C 16.636719 563.316406 17.039062 563.4375 17.425781 563.601562 C 17.816406 563.761719 18.183594 563.957031 18.535156 564.191406 C 18.886719 564.425781 19.207031 564.691406 19.507812 564.988281 C 19.804688 565.285156 20.070312 565.609375 20.304688 565.960938 C 20.535156 566.308594 20.734375 566.679688 20.894531 567.066406 C 21.054688 567.457031 21.179688 567.859375 21.261719 568.269531 C 21.34375 568.683594 21.382812 569.101562 21.382812 569.519531 Z M 21.382812 569.519531 " fill-opacity="1" fill-rule="nonzero"/></g></g></g></svg>