<svg xmlns="http://www.w3.org/2000/svg" xmlns:xlink="http://www.w3.org/1999/xlink" width="1167" zoomAndPan="magnify" viewBox="0 0 876 1326.749967" height="1800" preserveAspectRatio="xMidYMid meet" version="1.0"><defs><g/><clipPath id="b7515526a9"><rect x="0" width="35" y="0" height="17"/></clipPath><clipPath id="c6c012cf4f"><rect x="0" width="92" y="0" height="17"/></clipPath><clipPath id="c12dc12dd6"><path d="M 0.03125 3 L 9 3 L 9 14 L 0.03125 14 Z M 0.03125 3 " clip-rule="nonzero"/></clipPath><clipPath id="445be48582"><rect x="0" width="55" y="0" height="17"/></clipPath><clipPath id="f9f3049683"><rect x="0" width="62" y="0" height="36"/></clipPath><clipPath id="e1889faeef"><path d="M 12.28125 136.300781 L 863 136.300781 L 863 1278 L 12.28125 1278 Z M 12.28125 136.300781 " clip-rule="nonzero"/></clipPath><clipPath id="9b7249c2d9"><path d="M 12.28125 136.300781 L 863.371094 136.300781 L 863.371094 1278 L 12.28125 1278 Z M 12.28125 136.300781 " clip-rule="nonzero"/></clipPath><clipPath id="6bdf0d739f"><rect x="0" width="299" y="0" height="57"/></clipPath></defs><g transform="matrix(1, 0, 0, 1, 82, 149)"><g clip-path="url(#b7515526a9)"><g fill="#000000" fill-opacity="1"><g transform="translate(1.120209, 13.191458)"><g><path d="M 5.0625 -9.34375 C 5.71875 -9.34375 6.289062 -9.21875 6.78125 -8.96875 C 7.28125 -8.726562 7.691406 -8.382812 8.015625 -7.9375 C 8.335938 -7.5 8.578125 -7 8.734375 -6.4375 C 8.890625 -5.875 8.96875 -5.285156 8.96875 -4.671875 C 8.96875 -3.816406 8.828125 -3.035156 8.546875 -2.328125 C 8.265625 -1.617188 7.835938 -1.050781 7.265625 -0.625 C 6.691406 -0.207031 5.957031 0 5.0625 0 L 1.65625 0 C 1.550781 0 1.457031 -0.0351562 1.375 -0.109375 C 1.289062 -0.191406 1.25 -0.289062 1.25 -0.40625 L 1.25 -8.953125 C 1.25 -9.054688 1.289062 -9.144531 1.375 -9.21875 C 1.457031 -9.300781 1.550781 -9.34375 1.65625 -9.34375 Z M 4.921875 -0.78125 C 5.679688 -0.78125 6.289062 -0.953125 6.75 -1.296875 C 7.21875 -1.648438 7.5625 -2.125 7.78125 -2.71875 C 8 -3.3125 8.109375 -3.960938 8.109375 -4.671875 C 8.109375 -5.191406 8.046875 -5.6875 7.921875 -6.15625 C 7.804688 -6.625 7.617188 -7.035156 7.359375 -7.390625 C 7.109375 -7.753906 6.78125 -8.039062 6.375 -8.25 C 5.96875 -8.457031 5.484375 -8.5625 4.921875 -8.5625 L 2 -8.5625 L 2.09375 -8.6875 L 2.09375 -0.65625 L 2.015625 -0.78125 Z M 4.921875 -0.78125 "/></g></g></g><g fill="#000000" fill-opacity="1"><g transform="translate(10.657179, 13.191458)"><g><path d="M 4.375 -8.328125 L 1.140625 -0.25 C 1.097656 -0.164062 1.046875 -0.0976562 0.984375 -0.046875 C 0.921875 -0.00390625 0.851562 0.015625 0.78125 0.015625 C 0.65625 0.015625 0.5625 -0.015625 0.5 -0.078125 C 0.4375 -0.148438 0.398438 -0.234375 0.390625 -0.328125 C 0.378906 -0.378906 0.382812 -0.4375 0.40625 -0.5 L 3.921875 -9.125 C 3.972656 -9.21875 4.03125 -9.285156 4.09375 -9.328125 C 4.15625 -9.367188 4.234375 -9.390625 4.328125 -9.390625 C 4.421875 -9.390625 4.5 -9.363281 4.5625 -9.3125 C 4.625 -9.269531 4.675781 -9.207031 4.71875 -9.125 L 8.234375 -0.53125 C 8.242188 -0.476562 8.25 -0.425781 8.25 -0.375 C 8.25 -0.25 8.207031 -0.148438 8.125 -0.078125 C 8.050781 -0.015625 7.960938 0.015625 7.859375 0.015625 C 7.765625 0.015625 7.679688 -0.0078125 7.609375 -0.0625 C 7.546875 -0.113281 7.5 -0.175781 7.46875 -0.25 L 4.140625 -8.375 Z M 1.90625 -2.703125 L 2.25 -3.484375 L 6.390625 -3.484375 L 6.546875 -2.703125 Z M 1.90625 -2.703125 "/></g></g></g><g fill="#000000" fill-opacity="1"><g transform="translate(18.6312, 13.191458)"><g><path d="M 4.03125 0 C 3.90625 0 3.804688 -0.0351562 3.734375 -0.109375 C 3.660156 -0.191406 3.625 -0.289062 3.625 -0.40625 L 3.625 -8.90625 L 4.453125 -8.90625 L 4.453125 -0.40625 C 4.453125 -0.289062 4.410156 -0.191406 4.328125 -0.109375 C 4.242188 -0.0351562 4.144531 0 4.03125 0 Z M 0.859375 -8.59375 C 0.742188 -8.59375 0.644531 -8.625 0.5625 -8.6875 C 0.488281 -8.757812 0.453125 -8.859375 0.453125 -8.984375 C 0.453125 -9.085938 0.488281 -9.171875 0.5625 -9.234375 C 0.644531 -9.304688 0.742188 -9.34375 0.859375 -9.34375 L 7.21875 -9.34375 C 7.320312 -9.34375 7.410156 -9.304688 7.484375 -9.234375 C 7.566406 -9.171875 7.609375 -9.082031 7.609375 -8.96875 C 7.609375 -8.851562 7.566406 -8.757812 7.484375 -8.6875 C 7.410156 -8.625 7.320312 -8.59375 7.21875 -8.59375 Z M 0.859375 -8.59375 "/></g></g></g><g fill="#000000" fill-opacity="1"><g transform="translate(26.698906, 13.191458)"><g><path d="M 1.65625 -9.34375 L 6.5625 -9.34375 C 6.664062 -9.34375 6.753906 -9.304688 6.828125 -9.234375 C 6.910156 -9.160156 6.953125 -9.066406 6.953125 -8.953125 C 6.953125 -8.835938 6.910156 -8.742188 6.828125 -8.671875 C 6.753906 -8.597656 6.664062 -8.5625 6.5625 -8.5625 L 1.96875 -8.5625 L 2.09375 -8.796875 L 2.09375 -5.03125 L 1.953125 -5.203125 L 5.953125 -5.203125 C 6.066406 -5.203125 6.160156 -5.160156 6.234375 -5.078125 C 6.316406 -5.003906 6.359375 -4.914062 6.359375 -4.8125 C 6.359375 -4.695312 6.316406 -4.601562 6.234375 -4.53125 C 6.160156 -4.457031 6.066406 -4.421875 5.953125 -4.421875 L 1.984375 -4.421875 L 2.09375 -4.5625 L 2.09375 -0.703125 L 2.03125 -0.78125 L 6.5625 -0.78125 C 6.664062 -0.78125 6.753906 -0.738281 6.828125 -0.65625 C 6.910156 -0.582031 6.953125 -0.492188 6.953125 -0.390625 C 6.953125 -0.273438 6.910156 -0.179688 6.828125 -0.109375 C 6.753906 -0.0351562 6.664062 0 6.5625 0 L 1.65625 0 C 1.550781 0 1.457031 -0.0351562 1.375 -0.109375 C 1.289062 -0.191406 1.25 -0.289062 1.25 -0.40625 L 1.25 -8.953125 C 1.25 -9.054688 1.289062 -9.144531 1.375 -9.21875 C 1.457031 -9.300781 1.550781 -9.34375 1.65625 -9.34375 Z M 1.65625 -9.34375 "/></g></g></g></g></g><g transform="matrix(1, 0, 0, 1, 372, 149)"><g clip-path="url(#c6c012cf4f)"><g fill="#000000" fill-opacity="1"><g transform="translate(0.557371, 13.191458)"><g><path d="M 8.078125 -8.65625 C 8.191406 -8.582031 8.253906 -8.488281 8.265625 -8.375 C 8.285156 -8.269531 8.257812 -8.164062 8.1875 -8.0625 C 8.125 -7.976562 8.039062 -7.929688 7.9375 -7.921875 C 7.84375 -7.910156 7.753906 -7.925781 7.671875 -7.96875 C 7.328125 -8.195312 6.960938 -8.375 6.578125 -8.5 C 6.191406 -8.625 5.773438 -8.6875 5.328125 -8.6875 C 4.785156 -8.6875 4.28125 -8.585938 3.8125 -8.390625 C 3.34375 -8.203125 2.9375 -7.925781 2.59375 -7.5625 C 2.25 -7.207031 1.976562 -6.785156 1.78125 -6.296875 C 1.59375 -5.804688 1.5 -5.265625 1.5 -4.671875 C 1.5 -4.066406 1.59375 -3.515625 1.78125 -3.015625 C 1.976562 -2.523438 2.253906 -2.101562 2.609375 -1.75 C 2.960938 -1.394531 3.367188 -1.125 3.828125 -0.9375 C 4.296875 -0.75 4.796875 -0.65625 5.328125 -0.65625 C 5.765625 -0.65625 6.175781 -0.71875 6.5625 -0.84375 C 6.945312 -0.96875 7.3125 -1.132812 7.65625 -1.34375 C 7.738281 -1.394531 7.832031 -1.414062 7.9375 -1.40625 C 8.039062 -1.394531 8.125 -1.34375 8.1875 -1.25 C 8.269531 -1.15625 8.300781 -1.050781 8.28125 -0.9375 C 8.257812 -0.832031 8.195312 -0.75 8.09375 -0.6875 C 7.875 -0.539062 7.613281 -0.40625 7.3125 -0.28125 C 7.007812 -0.15625 6.6875 -0.0546875 6.34375 0.015625 C 6.007812 0.0976562 5.671875 0.140625 5.328125 0.140625 C 4.691406 0.140625 4.09375 0.0234375 3.53125 -0.203125 C 2.96875 -0.441406 2.46875 -0.769531 2.03125 -1.1875 C 1.59375 -1.613281 1.25 -2.117188 1 -2.703125 C 0.757812 -3.296875 0.640625 -3.953125 0.640625 -4.671875 C 0.640625 -5.367188 0.757812 -6.007812 1 -6.59375 C 1.238281 -7.175781 1.570312 -7.679688 2 -8.109375 C 2.425781 -8.535156 2.925781 -8.867188 3.5 -9.109375 C 4.070312 -9.347656 4.679688 -9.46875 5.328125 -9.46875 C 5.835938 -9.46875 6.328125 -9.394531 6.796875 -9.25 C 7.273438 -9.113281 7.703125 -8.914062 8.078125 -8.65625 Z M 8.078125 -8.65625 "/></g></g></g><g fill="#000000" fill-opacity="1"><g transform="translate(9.279571, 13.191458)"><g><path d="M 9.59375 -4.671875 C 9.59375 -3.972656 9.484375 -3.332031 9.265625 -2.75 C 9.046875 -2.164062 8.734375 -1.65625 8.328125 -1.21875 C 7.929688 -0.789062 7.457031 -0.457031 6.90625 -0.21875 C 6.363281 0.0195312 5.765625 0.140625 5.109375 0.140625 C 4.460938 0.140625 3.863281 0.0195312 3.3125 -0.21875 C 2.769531 -0.457031 2.296875 -0.789062 1.890625 -1.21875 C 1.492188 -1.65625 1.1875 -2.164062 0.96875 -2.75 C 0.75 -3.332031 0.640625 -3.972656 0.640625 -4.671875 C 0.640625 -5.378906 0.75 -6.023438 0.96875 -6.609375 C 1.1875 -7.191406 1.492188 -7.695312 1.890625 -8.125 C 2.296875 -8.5625 2.769531 -8.894531 3.3125 -9.125 C 3.863281 -9.363281 4.460938 -9.484375 5.109375 -9.484375 C 5.765625 -9.484375 6.363281 -9.363281 6.90625 -9.125 C 7.457031 -8.894531 7.929688 -8.5625 8.328125 -8.125 C 8.734375 -7.695312 9.046875 -7.191406 9.265625 -6.609375 C 9.484375 -6.023438 9.59375 -5.378906 9.59375 -4.671875 Z M 8.734375 -4.671875 C 8.734375 -5.460938 8.578125 -6.160156 8.265625 -6.765625 C 7.960938 -7.367188 7.539062 -7.835938 7 -8.171875 C 6.457031 -8.515625 5.828125 -8.6875 5.109375 -8.6875 C 4.410156 -8.6875 3.785156 -8.515625 3.234375 -8.171875 C 2.691406 -7.835938 2.265625 -7.367188 1.953125 -6.765625 C 1.648438 -6.160156 1.5 -5.460938 1.5 -4.671875 C 1.5 -3.878906 1.648438 -3.179688 1.953125 -2.578125 C 2.265625 -1.984375 2.691406 -1.515625 3.234375 -1.171875 C 3.785156 -0.835938 4.410156 -0.671875 5.109375 -0.671875 C 5.828125 -0.671875 6.457031 -0.835938 7 -1.171875 C 7.539062 -1.515625 7.960938 -1.984375 8.265625 -2.578125 C 8.578125 -3.179688 8.734375 -3.878906 8.734375 -4.671875 Z M 8.734375 -4.671875 "/></g></g></g><g fill="#000000" fill-opacity="1"><g transform="translate(19.511129, 13.191458)"><g><path d="M 7.875 -9.34375 C 8 -9.34375 8.09375 -9.304688 8.15625 -9.234375 C 8.226562 -9.160156 8.265625 -9.066406 8.265625 -8.953125 L 8.265625 -3.421875 C 8.265625 -2.765625 8.109375 -2.164062 7.796875 -1.625 C 7.484375 -1.09375 7.066406 -0.664062 6.546875 -0.34375 C 6.023438 -0.03125 5.429688 0.125 4.765625 0.125 C 4.109375 0.125 3.515625 -0.03125 2.984375 -0.34375 C 2.453125 -0.664062 2.03125 -1.09375 1.71875 -1.625 C 1.40625 -2.164062 1.25 -2.765625 1.25 -3.421875 L 1.25 -8.953125 C 1.25 -9.066406 1.285156 -9.160156 1.359375 -9.234375 C 1.441406 -9.304688 1.550781 -9.34375 1.6875 -9.34375 C 1.789062 -9.34375 1.878906 -9.304688 1.953125 -9.234375 C 2.035156 -9.160156 2.078125 -9.066406 2.078125 -8.953125 L 2.078125 -3.421875 C 2.078125 -2.898438 2.195312 -2.4375 2.4375 -2.03125 C 2.6875 -1.625 3.015625 -1.296875 3.421875 -1.046875 C 3.835938 -0.804688 4.285156 -0.6875 4.765625 -0.6875 C 5.265625 -0.6875 5.71875 -0.804688 6.125 -1.046875 C 6.539062 -1.296875 6.867188 -1.625 7.109375 -2.03125 C 7.359375 -2.4375 7.484375 -2.898438 7.484375 -3.421875 L 7.484375 -8.953125 C 7.484375 -9.066406 7.515625 -9.160156 7.578125 -9.234375 C 7.648438 -9.304688 7.75 -9.34375 7.875 -9.34375 Z M 7.875 -9.34375 "/></g></g></g><g fill="#000000" fill-opacity="1"><g transform="translate(29.034763, 13.191458)"><g><path d="M 1.703125 0 C 1.578125 0 1.46875 -0.0351562 1.375 -0.109375 C 1.289062 -0.191406 1.25 -0.289062 1.25 -0.40625 L 1.25 -8.953125 C 1.25 -9.054688 1.289062 -9.144531 1.375 -9.21875 C 1.457031 -9.300781 1.550781 -9.34375 1.65625 -9.34375 L 5.265625 -9.34375 C 5.773438 -9.34375 6.226562 -9.234375 6.625 -9.015625 C 7.03125 -8.804688 7.34375 -8.507812 7.5625 -8.125 C 7.789062 -7.738281 7.90625 -7.304688 7.90625 -6.828125 C 7.90625 -6.429688 7.832031 -6.066406 7.6875 -5.734375 C 7.550781 -5.410156 7.351562 -5.132812 7.09375 -4.90625 C 6.832031 -4.675781 6.539062 -4.507812 6.21875 -4.40625 L 5.765625 -4.5625 C 6.085938 -4.53125 6.390625 -4.421875 6.671875 -4.234375 C 6.960938 -4.054688 7.191406 -3.804688 7.359375 -3.484375 C 7.535156 -3.171875 7.628906 -2.789062 7.640625 -2.34375 C 7.648438 -1.96875 7.671875 -1.671875 7.703125 -1.453125 C 7.734375 -1.242188 7.78125 -1.082031 7.84375 -0.96875 C 7.90625 -0.863281 7.984375 -0.78125 8.078125 -0.71875 C 8.171875 -0.664062 8.234375 -0.585938 8.265625 -0.484375 C 8.296875 -0.390625 8.285156 -0.300781 8.234375 -0.21875 C 8.191406 -0.144531 8.132812 -0.09375 8.0625 -0.0625 C 8 -0.03125 7.929688 -0.015625 7.859375 -0.015625 C 7.796875 -0.015625 7.726562 -0.03125 7.65625 -0.0625 C 7.53125 -0.132812 7.398438 -0.242188 7.265625 -0.390625 C 7.140625 -0.546875 7.035156 -0.769531 6.953125 -1.0625 C 6.867188 -1.363281 6.828125 -1.773438 6.828125 -2.296875 C 6.828125 -2.640625 6.769531 -2.921875 6.65625 -3.140625 C 6.550781 -3.367188 6.410156 -3.539062 6.234375 -3.65625 C 6.054688 -3.78125 5.863281 -3.867188 5.65625 -3.921875 C 5.445312 -3.972656 5.25 -4 5.0625 -4 L 1.953125 -4 L 2.09375 -4.1875 L 2.09375 -0.40625 C 2.09375 -0.289062 2.054688 -0.191406 1.984375 -0.109375 C 1.921875 -0.0351562 1.828125 0 1.703125 0 Z M 1.953125 -4.734375 L 5.296875 -4.734375 C 5.609375 -4.753906 5.894531 -4.851562 6.15625 -5.03125 C 6.425781 -5.207031 6.640625 -5.445312 6.796875 -5.75 C 6.960938 -6.050781 7.046875 -6.398438 7.046875 -6.796875 C 7.046875 -7.304688 6.875 -7.726562 6.53125 -8.0625 C 6.195312 -8.394531 5.753906 -8.5625 5.203125 -8.5625 L 2 -8.5625 L 2.09375 -8.75 L 2.09375 -4.546875 Z M 1.953125 -4.734375 "/></g></g></g><g fill="#000000" fill-opacity="1"><g transform="translate(37.984041, 13.191458)"><g><path d="M 3.828125 0.140625 C 3.148438 0.140625 2.5625 0.03125 2.0625 -0.1875 C 1.570312 -0.40625 1.097656 -0.738281 0.640625 -1.1875 C 0.597656 -1.226562 0.5625 -1.273438 0.53125 -1.328125 C 0.5 -1.378906 0.484375 -1.441406 0.484375 -1.515625 C 0.484375 -1.617188 0.523438 -1.710938 0.609375 -1.796875 C 0.691406 -1.890625 0.785156 -1.9375 0.890625 -1.9375 C 1.003906 -1.9375 1.101562 -1.890625 1.1875 -1.796875 C 1.53125 -1.429688 1.921875 -1.148438 2.359375 -0.953125 C 2.804688 -0.753906 3.285156 -0.65625 3.796875 -0.65625 C 4.222656 -0.65625 4.601562 -0.722656 4.9375 -0.859375 C 5.269531 -0.992188 5.535156 -1.179688 5.734375 -1.421875 C 5.929688 -1.671875 6.03125 -1.960938 6.03125 -2.296875 C 6.03125 -2.703125 5.914062 -3.03125 5.6875 -3.28125 C 5.46875 -3.539062 5.175781 -3.753906 4.8125 -3.921875 C 4.445312 -4.085938 4.039062 -4.238281 3.59375 -4.375 C 3.226562 -4.476562 2.878906 -4.597656 2.546875 -4.734375 C 2.222656 -4.867188 1.929688 -5.035156 1.671875 -5.234375 C 1.410156 -5.441406 1.207031 -5.691406 1.0625 -5.984375 C 0.925781 -6.273438 0.859375 -6.628906 0.859375 -7.046875 C 0.859375 -7.523438 0.984375 -7.945312 1.234375 -8.3125 C 1.484375 -8.675781 1.835938 -8.960938 2.296875 -9.171875 C 2.753906 -9.378906 3.285156 -9.484375 3.890625 -9.484375 C 4.410156 -9.484375 4.910156 -9.394531 5.390625 -9.21875 C 5.878906 -9.039062 6.269531 -8.78125 6.5625 -8.4375 C 6.695312 -8.289062 6.765625 -8.160156 6.765625 -8.046875 C 6.765625 -7.953125 6.71875 -7.859375 6.625 -7.765625 C 6.539062 -7.679688 6.441406 -7.640625 6.328125 -7.640625 C 6.242188 -7.640625 6.171875 -7.671875 6.109375 -7.734375 C 5.953125 -7.921875 5.757812 -8.085938 5.53125 -8.234375 C 5.300781 -8.378906 5.046875 -8.492188 4.765625 -8.578125 C 4.484375 -8.660156 4.191406 -8.703125 3.890625 -8.703125 C 3.472656 -8.703125 3.09375 -8.632812 2.75 -8.5 C 2.414062 -8.375 2.15625 -8.191406 1.96875 -7.953125 C 1.78125 -7.710938 1.6875 -7.421875 1.6875 -7.078125 C 1.6875 -6.703125 1.789062 -6.394531 2 -6.15625 C 2.21875 -5.914062 2.5 -5.71875 2.84375 -5.5625 C 3.1875 -5.40625 3.554688 -5.257812 3.953125 -5.125 C 4.335938 -5.019531 4.703125 -4.898438 5.046875 -4.765625 C 5.398438 -4.628906 5.710938 -4.457031 5.984375 -4.25 C 6.265625 -4.039062 6.476562 -3.78125 6.625 -3.46875 C 6.78125 -3.15625 6.859375 -2.765625 6.859375 -2.296875 C 6.859375 -1.835938 6.726562 -1.425781 6.46875 -1.0625 C 6.21875 -0.695312 5.867188 -0.40625 5.421875 -0.1875 C 4.972656 0.0195312 4.441406 0.128906 3.828125 0.140625 Z M 3.828125 0.140625 "/></g></g></g><g fill="#000000" fill-opacity="1"><g transform="translate(45.490748, 13.191458)"><g><path d="M 1.65625 -9.34375 L 6.5625 -9.34375 C 6.664062 -9.34375 6.753906 -9.304688 6.828125 -9.234375 C 6.910156 -9.160156 6.953125 -9.066406 6.953125 -8.953125 C 6.953125 -8.835938 6.910156 -8.742188 6.828125 -8.671875 C 6.753906 -8.597656 6.664062 -8.5625 6.5625 -8.5625 L 1.96875 -8.5625 L 2.09375 -8.796875 L 2.09375 -5.03125 L 1.953125 -5.203125 L 5.953125 -5.203125 C 6.066406 -5.203125 6.160156 -5.160156 6.234375 -5.078125 C 6.316406 -5.003906 6.359375 -4.914062 6.359375 -4.8125 C 6.359375 -4.695312 6.316406 -4.601562 6.234375 -4.53125 C 6.160156 -4.457031 6.066406 -4.421875 5.953125 -4.421875 L 1.984375 -4.421875 L 2.09375 -4.5625 L 2.09375 -0.703125 L 2.03125 -0.78125 L 6.5625 -0.78125 C 6.664062 -0.78125 6.753906 -0.738281 6.828125 -0.65625 C 6.910156 -0.582031 6.953125 -0.492188 6.953125 -0.390625 C 6.953125 -0.273438 6.910156 -0.179688 6.828125 -0.109375 C 6.753906 -0.0351562 6.664062 0 6.5625 0 L 1.65625 0 C 1.550781 0 1.457031 -0.0351562 1.375 -0.109375 C 1.289062 -0.191406 1.25 -0.289062 1.25 -0.40625 L 1.25 -8.953125 C 1.25 -9.054688 1.289062 -9.144531 1.375 -9.21875 C 1.457031 -9.300781 1.550781 -9.34375 1.65625 -9.34375 Z M 1.65625 -9.34375 "/></g></g></g><g fill="#000000" fill-opacity="1"><g transform="translate(53.077593, 13.191458)"><g/></g></g><g fill="#000000" fill-opacity="1"><g transform="translate(56.724087, 13.191458)"><g><path d="M 4.03125 0 C 3.90625 0 3.804688 -0.0351562 3.734375 -0.109375 C 3.660156 -0.191406 3.625 -0.289062 3.625 -0.40625 L 3.625 -8.90625 L 4.453125 -8.90625 L 4.453125 -0.40625 C 4.453125 -0.289062 4.410156 -0.191406 4.328125 -0.109375 C 4.242188 -0.0351562 4.144531 0 4.03125 0 Z M 0.859375 -8.59375 C 0.742188 -8.59375 0.644531 -8.625 0.5625 -8.6875 C 0.488281 -8.757812 0.453125 -8.859375 0.453125 -8.984375 C 0.453125 -9.085938 0.488281 -9.171875 0.5625 -9.234375 C 0.644531 -9.304688 0.742188 -9.34375 0.859375 -9.34375 L 7.21875 -9.34375 C 7.320312 -9.34375 7.410156 -9.304688 7.484375 -9.234375 C 7.566406 -9.171875 7.609375 -9.082031 7.609375 -8.96875 C 7.609375 -8.851562 7.566406 -8.757812 7.484375 -8.6875 C 7.410156 -8.625 7.320312 -8.59375 7.21875 -8.59375 Z M 0.859375 -8.59375 "/></g></g></g><g fill="#000000" fill-opacity="1"><g transform="translate(64.791794, 13.191458)"><g><path d="M 2.09375 -0.421875 C 2.082031 -0.296875 2.035156 -0.191406 1.953125 -0.109375 C 1.867188 -0.0351562 1.773438 0 1.671875 0 C 1.546875 0 1.441406 -0.0351562 1.359375 -0.109375 C 1.285156 -0.191406 1.25 -0.296875 1.25 -0.421875 L 1.25 -8.9375 C 1.25 -9.050781 1.289062 -9.144531 1.375 -9.21875 C 1.457031 -9.300781 1.5625 -9.34375 1.6875 -9.34375 C 1.789062 -9.34375 1.882812 -9.300781 1.96875 -9.21875 C 2.050781 -9.144531 2.09375 -9.050781 2.09375 -8.9375 Z M 2.09375 -0.421875 "/></g></g></g><g fill="#000000" fill-opacity="1"><g transform="translate(68.131073, 13.191458)"><g><path d="M 4.03125 0 C 3.90625 0 3.804688 -0.0351562 3.734375 -0.109375 C 3.660156 -0.191406 3.625 -0.289062 3.625 -0.40625 L 3.625 -8.90625 L 4.453125 -8.90625 L 4.453125 -0.40625 C 4.453125 -0.289062 4.410156 -0.191406 4.328125 -0.109375 C 4.242188 -0.0351562 4.144531 0 4.03125 0 Z M 0.859375 -8.59375 C 0.742188 -8.59375 0.644531 -8.625 0.5625 -8.6875 C 0.488281 -8.757812 0.453125 -8.859375 0.453125 -8.984375 C 0.453125 -9.085938 0.488281 -9.171875 0.5625 -9.234375 C 0.644531 -9.304688 0.742188 -9.34375 0.859375 -9.34375 L 7.21875 -9.34375 C 7.320312 -9.34375 7.410156 -9.304688 7.484375 -9.234375 C 7.566406 -9.171875 7.609375 -9.082031 7.609375 -8.96875 C 7.609375 -8.851562 7.566406 -8.757812 7.484375 -8.6875 C 7.410156 -8.625 7.320312 -8.59375 7.21875 -8.59375 Z M 0.859375 -8.59375 "/></g></g></g><g fill="#000000" fill-opacity="1"><g transform="translate(76.19878, 13.191458)"><g><path d="M 6.421875 -0.78125 C 6.535156 -0.78125 6.628906 -0.742188 6.703125 -0.671875 C 6.785156 -0.597656 6.828125 -0.507812 6.828125 -0.40625 C 6.828125 -0.289062 6.785156 -0.191406 6.703125 -0.109375 C 6.628906 -0.0351562 6.535156 0 6.421875 0 L 1.65625 0 C 1.539062 0 1.441406 -0.0351562 1.359375 -0.109375 C 1.285156 -0.191406 1.25 -0.289062 1.25 -0.40625 L 1.25 -8.953125 C 1.25 -9.054688 1.289062 -9.144531 1.375 -9.21875 C 1.457031 -9.300781 1.5625 -9.34375 1.6875 -9.34375 C 1.789062 -9.34375 1.882812 -9.300781 1.96875 -9.21875 C 2.050781 -9.144531 2.09375 -9.054688 2.09375 -8.953125 L 2.09375 -0.5625 L 1.84375 -0.78125 Z M 6.421875 -0.78125 "/></g></g></g><g fill="#000000" fill-opacity="1"><g transform="translate(83.30477, 13.191458)"><g><path d="M 1.65625 -9.34375 L 6.5625 -9.34375 C 6.664062 -9.34375 6.753906 -9.304688 6.828125 -9.234375 C 6.910156 -9.160156 6.953125 -9.066406 6.953125 -8.953125 C 6.953125 -8.835938 6.910156 -8.742188 6.828125 -8.671875 C 6.753906 -8.597656 6.664062 -8.5625 6.5625 -8.5625 L 1.96875 -8.5625 L 2.09375 -8.796875 L 2.09375 -5.03125 L 1.953125 -5.203125 L 5.953125 -5.203125 C 6.066406 -5.203125 6.160156 -5.160156 6.234375 -5.078125 C 6.316406 -5.003906 6.359375 -4.914062 6.359375 -4.8125 C 6.359375 -4.695312 6.316406 -4.601562 6.234375 -4.53125 C 6.160156 -4.457031 6.066406 -4.421875 5.953125 -4.421875 L 1.984375 -4.421875 L 2.09375 -4.5625 L 2.09375 -0.703125 L 2.03125 -0.78125 L 6.5625 -0.78125 C 6.664062 -0.78125 6.753906 -0.738281 6.828125 -0.65625 C 6.910156 -0.582031 6.953125 -0.492188 6.953125 -0.390625 C 6.953125 -0.273438 6.910156 -0.179688 6.828125 -0.109375 C 6.753906 -0.0351562 6.664062 0 6.5625 0 L 1.65625 0 C 1.550781 0 1.457031 -0.0351562 1.375 -0.109375 C 1.289062 -0.191406 1.25 -0.289062 1.25 -0.40625 L 1.25 -8.953125 C 1.25 -9.054688 1.289062 -9.144531 1.375 -9.21875 C 1.457031 -9.300781 1.550781 -9.34375 1.65625 -9.34375 Z M 1.65625 -9.34375 "/></g></g></g></g></g><g transform="matrix(1, 0, 0, 1, 688, 149)"><g clip-path="url(#445be48582)"><g clip-path="url(#c12dc12dd6)"><g fill="#000000" fill-opacity="1"><g transform="translate(0.113435, 13.191458)"><g><path d="M 8.078125 -8.65625 C 8.191406 -8.582031 8.253906 -8.488281 8.265625 -8.375 C 8.285156 -8.269531 8.257812 -8.164062 8.1875 -8.0625 C 8.125 -7.976562 8.039062 -7.929688 7.9375 -7.921875 C 7.84375 -7.910156 7.753906 -7.925781 7.671875 -7.96875 C 7.328125 -8.195312 6.960938 -8.375 6.578125 -8.5 C 6.191406 -8.625 5.773438 -8.6875 5.328125 -8.6875 C 4.785156 -8.6875 4.28125 -8.585938 3.8125 -8.390625 C 3.34375 -8.203125 2.9375 -7.925781 2.59375 -7.5625 C 2.25 -7.207031 1.976562 -6.785156 1.78125 -6.296875 C 1.59375 -5.804688 1.5 -5.265625 1.5 -4.671875 C 1.5 -4.066406 1.59375 -3.515625 1.78125 -3.015625 C 1.976562 -2.523438 2.253906 -2.101562 2.609375 -1.75 C 2.960938 -1.394531 3.367188 -1.125 3.828125 -0.9375 C 4.296875 -0.75 4.796875 -0.65625 5.328125 -0.65625 C 5.765625 -0.65625 6.175781 -0.71875 6.5625 -0.84375 C 6.945312 -0.96875 7.3125 -1.132812 7.65625 -1.34375 C 7.738281 -1.394531 7.832031 -1.414062 7.9375 -1.40625 C 8.039062 -1.394531 8.125 -1.34375 8.1875 -1.25 C 8.269531 -1.15625 8.300781 -1.050781 8.28125 -0.9375 C 8.257812 -0.832031 8.195312 -0.75 8.09375 -0.6875 C 7.875 -0.539062 7.613281 -0.40625 7.3125 -0.28125 C 7.007812 -0.15625 6.6875 -0.0546875 6.34375 0.015625 C 6.007812 0.0976562 5.671875 0.140625 5.328125 0.140625 C 4.691406 0.140625 4.09375 0.0234375 3.53125 -0.203125 C 2.96875 -0.441406 2.46875 -0.769531 2.03125 -1.1875 C 1.59375 -1.613281 1.25 -2.117188 1 -2.703125 C 0.757812 -3.296875 0.640625 -3.953125 0.640625 -4.671875 C 0.640625 -5.367188 0.757812 -6.007812 1 -6.59375 C 1.238281 -7.175781 1.570312 -7.679688 2 -8.109375 C 2.425781 -8.535156 2.925781 -8.867188 3.5 -9.109375 C 4.070312 -9.347656 4.679688 -9.46875 5.328125 -9.46875 C 5.835938 -9.46875 6.328125 -9.394531 6.796875 -9.25 C 7.273438 -9.113281 7.703125 -8.914062 8.078125 -8.65625 Z M 8.078125 -8.65625 "/></g></g></g></g><g fill="#000000" fill-opacity="1"><g transform="translate(8.835635, 13.191458)"><g><path d="M 1.703125 0 C 1.578125 0 1.46875 -0.0351562 1.375 -0.109375 C 1.289062 -0.191406 1.25 -0.289062 1.25 -0.40625 L 1.25 -8.953125 C 1.25 -9.054688 1.289062 -9.144531 1.375 -9.21875 C 1.457031 -9.300781 1.550781 -9.34375 1.65625 -9.34375 L 5.265625 -9.34375 C 5.773438 -9.34375 6.226562 -9.234375 6.625 -9.015625 C 7.03125 -8.804688 7.34375 -8.507812 7.5625 -8.125 C 7.789062 -7.738281 7.90625 -7.304688 7.90625 -6.828125 C 7.90625 -6.429688 7.832031 -6.066406 7.6875 -5.734375 C 7.550781 -5.410156 7.351562 -5.132812 7.09375 -4.90625 C 6.832031 -4.675781 6.539062 -4.507812 6.21875 -4.40625 L 5.765625 -4.5625 C 6.085938 -4.53125 6.390625 -4.421875 6.671875 -4.234375 C 6.960938 -4.054688 7.191406 -3.804688 7.359375 -3.484375 C 7.535156 -3.171875 7.628906 -2.789062 7.640625 -2.34375 C 7.648438 -1.96875 7.671875 -1.671875 7.703125 -1.453125 C 7.734375 -1.242188 7.78125 -1.082031 7.84375 -0.96875 C 7.90625 -0.863281 7.984375 -0.78125 8.078125 -0.71875 C 8.171875 -0.664062 8.234375 -0.585938 8.265625 -0.484375 C 8.296875 -0.390625 8.285156 -0.300781 8.234375 -0.21875 C 8.191406 -0.144531 8.132812 -0.09375 8.0625 -0.0625 C 8 -0.03125 7.929688 -0.015625 7.859375 -0.015625 C 7.796875 -0.015625 7.726562 -0.03125 7.65625 -0.0625 C 7.53125 -0.132812 7.398438 -0.242188 7.265625 -0.390625 C 7.140625 -0.546875 7.035156 -0.769531 6.953125 -1.0625 C 6.867188 -1.363281 6.828125 -1.773438 6.828125 -2.296875 C 6.828125 -2.640625 6.769531 -2.921875 6.65625 -3.140625 C 6.550781 -3.367188 6.410156 -3.539062 6.234375 -3.65625 C 6.054688 -3.78125 5.863281 -3.867188 5.65625 -3.921875 C 5.445312 -3.972656 5.25 -4 5.0625 -4 L 1.953125 -4 L 2.09375 -4.1875 L 2.09375 -0.40625 C 2.09375 -0.289062 2.054688 -0.191406 1.984375 -0.109375 C 1.921875 -0.0351562 1.828125 0 1.703125 0 Z M 1.953125 -4.734375 L 5.296875 -4.734375 C 5.609375 -4.753906 5.894531 -4.851562 6.15625 -5.03125 C 6.425781 -5.207031 6.640625 -5.445312 6.796875 -5.75 C 6.960938 -6.050781 7.046875 -6.398438 7.046875 -6.796875 C 7.046875 -7.304688 6.875 -7.726562 6.53125 -8.0625 C 6.195312 -8.394531 5.753906 -8.5625 5.203125 -8.5625 L 2 -8.5625 L 2.09375 -8.75 L 2.09375 -4.546875 Z M 1.953125 -4.734375 "/></g></g></g><g fill="#000000" fill-opacity="1"><g transform="translate(17.784913, 13.191458)"><g><path d="M 1.65625 -9.34375 L 6.5625 -9.34375 C 6.664062 -9.34375 6.753906 -9.304688 6.828125 -9.234375 C 6.910156 -9.160156 6.953125 -9.066406 6.953125 -8.953125 C 6.953125 -8.835938 6.910156 -8.742188 6.828125 -8.671875 C 6.753906 -8.597656 6.664062 -8.5625 6.5625 -8.5625 L 1.96875 -8.5625 L 2.09375 -8.796875 L 2.09375 -5.03125 L 1.953125 -5.203125 L 5.953125 -5.203125 C 6.066406 -5.203125 6.160156 -5.160156 6.234375 -5.078125 C 6.316406 -5.003906 6.359375 -4.914062 6.359375 -4.8125 C 6.359375 -4.695312 6.316406 -4.601562 6.234375 -4.53125 C 6.160156 -4.457031 6.066406 -4.421875 5.953125 -4.421875 L 1.984375 -4.421875 L 2.09375 -4.5625 L 2.09375 -0.703125 L 2.03125 -0.78125 L 6.5625 -0.78125 C 6.664062 -0.78125 6.753906 -0.738281 6.828125 -0.65625 C 6.910156 -0.582031 6.953125 -0.492188 6.953125 -0.390625 C 6.953125 -0.273438 6.910156 -0.179688 6.828125 -0.109375 C 6.753906 -0.0351562 6.664062 0 6.5625 0 L 1.65625 0 C 1.550781 0 1.457031 -0.0351562 1.375 -0.109375 C 1.289062 -0.191406 1.25 -0.289062 1.25 -0.40625 L 1.25 -8.953125 C 1.25 -9.054688 1.289062 -9.144531 1.375 -9.21875 C 1.457031 -9.300781 1.550781 -9.34375 1.65625 -9.34375 Z M 1.65625 -9.34375 "/></g></g></g><g fill="#000000" fill-opacity="1"><g transform="translate(25.371758, 13.191458)"><g><path d="M 5.0625 -9.34375 C 5.71875 -9.34375 6.289062 -9.21875 6.78125 -8.96875 C 7.28125 -8.726562 7.691406 -8.382812 8.015625 -7.9375 C 8.335938 -7.5 8.578125 -7 8.734375 -6.4375 C 8.890625 -5.875 8.96875 -5.285156 8.96875 -4.671875 C 8.96875 -3.816406 8.828125 -3.035156 8.546875 -2.328125 C 8.265625 -1.617188 7.835938 -1.050781 7.265625 -0.625 C 6.691406 -0.207031 5.957031 0 5.0625 0 L 1.65625 0 C 1.550781 0 1.457031 -0.0351562 1.375 -0.109375 C 1.289062 -0.191406 1.25 -0.289062 1.25 -0.40625 L 1.25 -8.953125 C 1.25 -9.054688 1.289062 -9.144531 1.375 -9.21875 C 1.457031 -9.300781 1.550781 -9.34375 1.65625 -9.34375 Z M 4.921875 -0.78125 C 5.679688 -0.78125 6.289062 -0.953125 6.75 -1.296875 C 7.21875 -1.648438 7.5625 -2.125 7.78125 -2.71875 C 8 -3.3125 8.109375 -3.960938 8.109375 -4.671875 C 8.109375 -5.191406 8.046875 -5.6875 7.921875 -6.15625 C 7.804688 -6.625 7.617188 -7.035156 7.359375 -7.390625 C 7.109375 -7.753906 6.78125 -8.039062 6.375 -8.25 C 5.96875 -8.457031 5.484375 -8.5625 4.921875 -8.5625 L 2 -8.5625 L 2.09375 -8.6875 L 2.09375 -0.65625 L 2.015625 -0.78125 Z M 4.921875 -0.78125 "/></g></g></g><g fill="#000000" fill-opacity="1"><g transform="translate(34.97553, 13.191458)"><g><path d="M 2.09375 -0.421875 C 2.082031 -0.296875 2.035156 -0.191406 1.953125 -0.109375 C 1.867188 -0.0351562 1.773438 0 1.671875 0 C 1.546875 0 1.441406 -0.0351562 1.359375 -0.109375 C 1.285156 -0.191406 1.25 -0.296875 1.25 -0.421875 L 1.25 -8.9375 C 1.25 -9.050781 1.289062 -9.144531 1.375 -9.21875 C 1.457031 -9.300781 1.5625 -9.34375 1.6875 -9.34375 C 1.789062 -9.34375 1.882812 -9.300781 1.96875 -9.21875 C 2.050781 -9.144531 2.09375 -9.050781 2.09375 -8.9375 Z M 2.09375 -0.421875 "/></g></g></g><g fill="#000000" fill-opacity="1"><g transform="translate(38.314809, 13.191458)"><g><path d="M 4.03125 0 C 3.90625 0 3.804688 -0.0351562 3.734375 -0.109375 C 3.660156 -0.191406 3.625 -0.289062 3.625 -0.40625 L 3.625 -8.90625 L 4.453125 -8.90625 L 4.453125 -0.40625 C 4.453125 -0.289062 4.410156 -0.191406 4.328125 -0.109375 C 4.242188 -0.0351562 4.144531 0 4.03125 0 Z M 0.859375 -8.59375 C 0.742188 -8.59375 0.644531 -8.625 0.5625 -8.6875 C 0.488281 -8.757812 0.453125 -8.859375 0.453125 -8.984375 C 0.453125 -9.085938 0.488281 -9.171875 0.5625 -9.234375 C 0.644531 -9.304688 0.742188 -9.34375 0.859375 -9.34375 L 7.21875 -9.34375 C 7.320312 -9.34375 7.410156 -9.304688 7.484375 -9.234375 C 7.566406 -9.171875 7.609375 -9.082031 7.609375 -8.96875 C 7.609375 -8.851562 7.566406 -8.757812 7.484375 -8.6875 C 7.410156 -8.625 7.320312 -8.59375 7.21875 -8.59375 Z M 0.859375 -8.59375 "/></g></g></g><g fill="#000000" fill-opacity="1"><g transform="translate(46.382516, 13.191458)"><g><path d="M 3.828125 0.140625 C 3.148438 0.140625 2.5625 0.03125 2.0625 -0.1875 C 1.570312 -0.40625 1.097656 -0.738281 0.640625 -1.1875 C 0.597656 -1.226562 0.5625 -1.273438 0.53125 -1.328125 C 0.5 -1.378906 0.484375 -1.441406 0.484375 -1.515625 C 0.484375 -1.617188 0.523438 -1.710938 0.609375 -1.796875 C 0.691406 -1.890625 0.785156 -1.9375 0.890625 -1.9375 C 1.003906 -1.9375 1.101562 -1.890625 1.1875 -1.796875 C 1.53125 -1.429688 1.921875 -1.148438 2.359375 -0.953125 C 2.804688 -0.753906 3.285156 -0.65625 3.796875 -0.65625 C 4.222656 -0.65625 4.601562 -0.722656 4.9375 -0.859375 C 5.269531 -0.992188 5.535156 -1.179688 5.734375 -1.421875 C 5.929688 -1.671875 6.03125 -1.960938 6.03125 -2.296875 C 6.03125 -2.703125 5.914062 -3.03125 5.6875 -3.28125 C 5.46875 -3.539062 5.175781 -3.753906 4.8125 -3.921875 C 4.445312 -4.085938 4.039062 -4.238281 3.59375 -4.375 C 3.226562 -4.476562 2.878906 -4.597656 2.546875 -4.734375 C 2.222656 -4.867188 1.929688 -5.035156 1.671875 -5.234375 C 1.410156 -5.441406 1.207031 -5.691406 1.0625 -5.984375 C 0.925781 -6.273438 0.859375 -6.628906 0.859375 -7.046875 C 0.859375 -7.523438 0.984375 -7.945312 1.234375 -8.3125 C 1.484375 -8.675781 1.835938 -8.960938 2.296875 -9.171875 C 2.753906 -9.378906 3.285156 -9.484375 3.890625 -9.484375 C 4.410156 -9.484375 4.910156 -9.394531 5.390625 -9.21875 C 5.878906 -9.039062 6.269531 -8.78125 6.5625 -8.4375 C 6.695312 -8.289062 6.765625 -8.160156 6.765625 -8.046875 C 6.765625 -7.953125 6.71875 -7.859375 6.625 -7.765625 C 6.539062 -7.679688 6.441406 -7.640625 6.328125 -7.640625 C 6.242188 -7.640625 6.171875 -7.671875 6.109375 -7.734375 C 5.953125 -7.921875 5.757812 -8.085938 5.53125 -8.234375 C 5.300781 -8.378906 5.046875 -8.492188 4.765625 -8.578125 C 4.484375 -8.660156 4.191406 -8.703125 3.890625 -8.703125 C 3.472656 -8.703125 3.09375 -8.632812 2.75 -8.5 C 2.414062 -8.375 2.15625 -8.191406 1.96875 -7.953125 C 1.78125 -7.710938 1.6875 -7.421875 1.6875 -7.078125 C 1.6875 -6.703125 1.789062 -6.394531 2 -6.15625 C 2.21875 -5.914062 2.5 -5.71875 2.84375 -5.5625 C 3.1875 -5.40625 3.554688 -5.257812 3.953125 -5.125 C 4.335938 -5.019531 4.703125 -4.898438 5.046875 -4.765625 C 5.398438 -4.628906 5.710938 -4.457031 5.984375 -4.25 C 6.265625 -4.039062 6.476562 -3.78125 6.625 -3.46875 C 6.78125 -3.15625 6.859375 -2.765625 6.859375 -2.296875 C 6.859375 -1.835938 6.726562 -1.425781 6.46875 -1.0625 C 6.21875 -0.695312 5.867188 -0.40625 5.421875 -0.1875 C 4.972656 0.0195312 4.441406 0.128906 3.828125 0.140625 Z M 3.828125 0.140625 "/></g></g></g></g></g><g transform="matrix(1, 0, 0, 1, 791, 139)"><g clip-path="url(#f9f3049683)"><g fill="#000000" fill-opacity="1"><g transform="translate(0.739275, 13.817024)"><g><path d="M 1.703125 0 C 1.578125 0 1.46875 -0.0351562 1.375 -0.109375 C 1.289062 -0.191406 1.25 -0.289062 1.25 -0.40625 L 1.25 -8.953125 C 1.25 -9.054688 1.289062 -9.144531 1.375 -9.21875 C 1.457031 -9.300781 1.550781 -9.34375 1.65625 -9.34375 L 5.265625 -9.34375 C 5.773438 -9.34375 6.226562 -9.234375 6.625 -9.015625 C 7.03125 -8.804688 7.34375 -8.507812 7.5625 -8.125 C 7.789062 -7.738281 7.90625 -7.304688 7.90625 -6.828125 C 7.90625 -6.429688 7.832031 -6.066406 7.6875 -5.734375 C 7.550781 -5.410156 7.351562 -5.132812 7.09375 -4.90625 C 6.832031 -4.675781 6.539062 -4.507812 6.21875 -4.40625 L 5.765625 -4.5625 C 6.085938 -4.53125 6.390625 -4.421875 6.671875 -4.234375 C 6.960938 -4.054688 7.191406 -3.804688 7.359375 -3.484375 C 7.535156 -3.171875 7.628906 -2.789062 7.640625 -2.34375 C 7.648438 -1.96875 7.671875 -1.671875 7.703125 -1.453125 C 7.734375 -1.242188 7.78125 -1.082031 7.84375 -0.96875 C 7.90625 -0.863281 7.984375 -0.78125 8.078125 -0.71875 C 8.171875 -0.664062 8.234375 -0.585938 8.265625 -0.484375 C 8.296875 -0.390625 8.285156 -0.300781 8.234375 -0.21875 C 8.191406 -0.144531 8.132812 -0.09375 8.0625 -0.0625 C 8 -0.03125 7.929688 -0.015625 7.859375 -0.015625 C 7.796875 -0.015625 7.726562 -0.03125 7.65625 -0.0625 C 7.53125 -0.132812 7.398438 -0.242188 7.265625 -0.390625 C 7.140625 -0.546875 7.035156 -0.769531 6.953125 -1.0625 C 6.867188 -1.363281 6.828125 -1.773438 6.828125 -2.296875 C 6.828125 -2.640625 6.769531 -2.921875 6.65625 -3.140625 C 6.550781 -3.367188 6.410156 -3.539062 6.234375 -3.65625 C 6.054688 -3.78125 5.863281 -3.867188 5.65625 -3.921875 C 5.445312 -3.972656 5.25 -4 5.0625 -4 L 1.953125 -4 L 2.09375 -4.1875 L 2.09375 -0.40625 C 2.09375 -0.289062 2.054688 -0.191406 1.984375 -0.109375 C 1.921875 -0.0351562 1.828125 0 1.703125 0 Z M 1.953125 -4.734375 L 5.296875 -4.734375 C 5.609375 -4.753906 5.894531 -4.851562 6.15625 -5.03125 C 6.425781 -5.207031 6.640625 -5.445312 6.796875 -5.75 C 6.960938 -6.050781 7.046875 -6.398438 7.046875 -6.796875 C 7.046875 -7.304688 6.875 -7.726562 6.53125 -8.0625 C 6.195312 -8.394531 5.753906 -8.5625 5.203125 -8.5625 L 2 -8.5625 L 2.09375 -8.75 L 2.09375 -4.546875 Z M 1.953125 -4.734375 "/></g></g></g><g fill="#000000" fill-opacity="1"><g transform="translate(9.688552, 13.817024)"><g><path d="M 7.875 -9.34375 C 8 -9.34375 8.09375 -9.304688 8.15625 -9.234375 C 8.226562 -9.160156 8.265625 -9.066406 8.265625 -8.953125 L 8.265625 -3.421875 C 8.265625 -2.765625 8.109375 -2.164062 7.796875 -1.625 C 7.484375 -1.09375 7.066406 -0.664062 6.546875 -0.34375 C 6.023438 -0.03125 5.429688 0.125 4.765625 0.125 C 4.109375 0.125 3.515625 -0.03125 2.984375 -0.34375 C 2.453125 -0.664062 2.03125 -1.09375 1.71875 -1.625 C 1.40625 -2.164062 1.25 -2.765625 1.25 -3.421875 L 1.25 -8.953125 C 1.25 -9.066406 1.285156 -9.160156 1.359375 -9.234375 C 1.441406 -9.304688 1.550781 -9.34375 1.6875 -9.34375 C 1.789062 -9.34375 1.878906 -9.304688 1.953125 -9.234375 C 2.035156 -9.160156 2.078125 -9.066406 2.078125 -8.953125 L 2.078125 -3.421875 C 2.078125 -2.898438 2.195312 -2.4375 2.4375 -2.03125 C 2.6875 -1.625 3.015625 -1.296875 3.421875 -1.046875 C 3.835938 -0.804688 4.285156 -0.6875 4.765625 -0.6875 C 5.265625 -0.6875 5.71875 -0.804688 6.125 -1.046875 C 6.539062 -1.296875 6.867188 -1.625 7.109375 -2.03125 C 7.359375 -2.4375 7.484375 -2.898438 7.484375 -3.421875 L 7.484375 -8.953125 C 7.484375 -9.066406 7.515625 -9.160156 7.578125 -9.234375 C 7.648438 -9.304688 7.75 -9.34375 7.875 -9.34375 Z M 7.875 -9.34375 "/></g></g></g><g fill="#000000" fill-opacity="1"><g transform="translate(19.212186, 13.817024)"><g><path d="M 8.09375 -9.34375 C 8.207031 -9.34375 8.296875 -9.304688 8.359375 -9.234375 C 8.429688 -9.171875 8.46875 -9.085938 8.46875 -8.984375 L 8.46875 -0.421875 C 8.46875 -0.296875 8.425781 -0.191406 8.34375 -0.109375 C 8.257812 -0.0351562 8.164062 0 8.0625 0 C 8 0 7.9375 -0.0078125 7.875 -0.03125 C 7.8125 -0.0507812 7.765625 -0.0859375 7.734375 -0.140625 L 1.78125 -8.15625 L 2 -8.28125 L 2 -0.359375 C 2 -0.265625 1.960938 -0.179688 1.890625 -0.109375 C 1.828125 -0.0351562 1.738281 0 1.625 0 C 1.507812 0 1.414062 -0.0351562 1.34375 -0.109375 C 1.28125 -0.179688 1.25 -0.265625 1.25 -0.359375 L 1.25 -8.953125 C 1.25 -9.085938 1.289062 -9.1875 1.375 -9.25 C 1.457031 -9.3125 1.546875 -9.34375 1.640625 -9.34375 C 1.691406 -9.34375 1.75 -9.332031 1.8125 -9.3125 C 1.875 -9.289062 1.925781 -9.253906 1.96875 -9.203125 L 7.859375 -1.265625 L 7.71875 -1.03125 L 7.71875 -8.984375 C 7.71875 -9.085938 7.753906 -9.171875 7.828125 -9.234375 C 7.910156 -9.304688 8 -9.34375 8.09375 -9.34375 Z M 8.09375 -9.34375 "/></g></g></g><g fill="#000000" fill-opacity="1"><g transform="translate(28.936175, 13.817024)"><g><path d="M 8.09375 -9.34375 C 8.207031 -9.34375 8.296875 -9.304688 8.359375 -9.234375 C 8.429688 -9.171875 8.46875 -9.085938 8.46875 -8.984375 L 8.46875 -0.421875 C 8.46875 -0.296875 8.425781 -0.191406 8.34375 -0.109375 C 8.257812 -0.0351562 8.164062 0 8.0625 0 C 8 0 7.9375 -0.0078125 7.875 -0.03125 C 7.8125 -0.0507812 7.765625 -0.0859375 7.734375 -0.140625 L 1.78125 -8.15625 L 2 -8.28125 L 2 -0.359375 C 2 -0.265625 1.960938 -0.179688 1.890625 -0.109375 C 1.828125 -0.0351562 1.738281 0 1.625 0 C 1.507812 0 1.414062 -0.0351562 1.34375 -0.109375 C 1.28125 -0.179688 1.25 -0.265625 1.25 -0.359375 L 1.25 -8.953125 C 1.25 -9.085938 1.289062 -9.1875 1.375 -9.25 C 1.457031 -9.3125 1.546875 -9.34375 1.640625 -9.34375 C 1.691406 -9.34375 1.75 -9.332031 1.8125 -9.3125 C 1.875 -9.289062 1.925781 -9.253906 1.96875 -9.203125 L 7.859375 -1.265625 L 7.71875 -1.03125 L 7.71875 -8.984375 C 7.71875 -9.085938 7.753906 -9.171875 7.828125 -9.234375 C 7.910156 -9.304688 8 -9.34375 8.09375 -9.34375 Z M 8.09375 -9.34375 "/></g></g></g><g fill="#000000" fill-opacity="1"><g transform="translate(38.660164, 13.817024)"><g><path d="M 2.09375 -0.421875 C 2.082031 -0.296875 2.035156 -0.191406 1.953125 -0.109375 C 1.867188 -0.0351562 1.773438 0 1.671875 0 C 1.546875 0 1.441406 -0.0351562 1.359375 -0.109375 C 1.285156 -0.191406 1.25 -0.296875 1.25 -0.421875 L 1.25 -8.9375 C 1.25 -9.050781 1.289062 -9.144531 1.375 -9.21875 C 1.457031 -9.300781 1.5625 -9.34375 1.6875 -9.34375 C 1.789062 -9.34375 1.882812 -9.300781 1.96875 -9.21875 C 2.050781 -9.144531 2.09375 -9.050781 2.09375 -8.9375 Z M 2.09375 -0.421875 "/></g></g></g><g fill="#000000" fill-opacity="1"><g transform="translate(41.999444, 13.817024)"><g><path d="M 8.09375 -9.34375 C 8.207031 -9.34375 8.296875 -9.304688 8.359375 -9.234375 C 8.429688 -9.171875 8.46875 -9.085938 8.46875 -8.984375 L 8.46875 -0.421875 C 8.46875 -0.296875 8.425781 -0.191406 8.34375 -0.109375 C 8.257812 -0.0351562 8.164062 0 8.0625 0 C 8 0 7.9375 -0.0078125 7.875 -0.03125 C 7.8125 -0.0507812 7.765625 -0.0859375 7.734375 -0.140625 L 1.78125 -8.15625 L 2 -8.28125 L 2 -0.359375 C 2 -0.265625 1.960938 -0.179688 1.890625 -0.109375 C 1.828125 -0.0351562 1.738281 0 1.625 0 C 1.507812 0 1.414062 -0.0351562 1.34375 -0.109375 C 1.28125 -0.179688 1.25 -0.265625 1.25 -0.359375 L 1.25 -8.953125 C 1.25 -9.085938 1.289062 -9.1875 1.375 -9.25 C 1.457031 -9.3125 1.546875 -9.34375 1.640625 -9.34375 C 1.691406 -9.34375 1.75 -9.332031 1.8125 -9.3125 C 1.875 -9.289062 1.925781 -9.253906 1.96875 -9.203125 L 7.859375 -1.265625 L 7.71875 -1.03125 L 7.71875 -8.984375 C 7.71875 -9.085938 7.753906 -9.171875 7.828125 -9.234375 C 7.910156 -9.304688 8 -9.34375 8.09375 -9.34375 Z M 8.09375 -9.34375 "/></g></g></g><g fill="#000000" fill-opacity="1"><g transform="translate(51.723433, 13.817024)"><g><path d="M 5.453125 0.140625 C 4.765625 0.140625 4.125 0.0195312 3.53125 -0.21875 C 2.945312 -0.46875 2.4375 -0.804688 2 -1.234375 C 1.570312 -1.671875 1.238281 -2.179688 1 -2.765625 C 0.757812 -3.347656 0.640625 -3.984375 0.640625 -4.671875 C 0.640625 -5.359375 0.757812 -5.992188 1 -6.578125 C 1.238281 -7.171875 1.570312 -7.679688 2 -8.109375 C 2.4375 -8.546875 2.945312 -8.882812 3.53125 -9.125 C 4.125 -9.363281 4.765625 -9.484375 5.453125 -9.484375 C 5.921875 -9.484375 6.375 -9.425781 6.8125 -9.3125 C 7.257812 -9.207031 7.65625 -9.039062 8 -8.8125 C 8.0625 -8.769531 8.109375 -8.71875 8.140625 -8.65625 C 8.171875 -8.601562 8.1875 -8.546875 8.1875 -8.484375 C 8.1875 -8.359375 8.144531 -8.253906 8.0625 -8.171875 C 7.988281 -8.097656 7.90625 -8.0625 7.8125 -8.0625 C 7.769531 -8.0625 7.726562 -8.066406 7.6875 -8.078125 C 7.644531 -8.097656 7.609375 -8.117188 7.578125 -8.140625 C 7.273438 -8.304688 6.941406 -8.4375 6.578125 -8.53125 C 6.222656 -8.632812 5.847656 -8.6875 5.453125 -8.6875 C 4.679688 -8.6875 4 -8.507812 3.40625 -8.15625 C 2.8125 -7.8125 2.34375 -7.335938 2 -6.734375 C 1.664062 -6.128906 1.5 -5.441406 1.5 -4.671875 C 1.5 -3.910156 1.664062 -3.222656 2 -2.609375 C 2.34375 -2.003906 2.8125 -1.53125 3.40625 -1.1875 C 4 -0.84375 4.679688 -0.671875 5.453125 -0.671875 C 5.847656 -0.671875 6.25 -0.726562 6.65625 -0.84375 C 7.0625 -0.957031 7.410156 -1.113281 7.703125 -1.3125 L 7.640625 -1.03125 L 7.640625 -4.09375 L 7.84375 -3.921875 L 5.53125 -3.921875 C 5.414062 -3.921875 5.316406 -3.957031 5.234375 -4.03125 C 5.148438 -4.113281 5.109375 -4.207031 5.109375 -4.3125 C 5.109375 -4.4375 5.148438 -4.535156 5.234375 -4.609375 C 5.316406 -4.679688 5.414062 -4.71875 5.53125 -4.71875 L 8.078125 -4.71875 C 8.191406 -4.71875 8.285156 -4.675781 8.359375 -4.59375 C 8.441406 -4.519531 8.484375 -4.425781 8.484375 -4.3125 L 8.484375 -1.09375 C 8.484375 -1.019531 8.460938 -0.953125 8.421875 -0.890625 C 8.390625 -0.828125 8.34375 -0.773438 8.28125 -0.734375 C 7.882812 -0.460938 7.441406 -0.25 6.953125 -0.09375 C 6.472656 0.0625 5.972656 0.140625 5.453125 0.140625 Z M 5.453125 0.140625 "/></g></g></g><g fill="#000000" fill-opacity="1"><g transform="translate(9.813783, 32.11949)"><g><path d="M 4.03125 0 C 3.90625 0 3.804688 -0.0351562 3.734375 -0.109375 C 3.660156 -0.191406 3.625 -0.289062 3.625 -0.40625 L 3.625 -8.90625 L 4.453125 -8.90625 L 4.453125 -0.40625 C 4.453125 -0.289062 4.410156 -0.191406 4.328125 -0.109375 C 4.242188 -0.0351562 4.144531 0 4.03125 0 Z M 0.859375 -8.59375 C 0.742188 -8.59375 0.644531 -8.625 0.5625 -8.6875 C 0.488281 -8.757812 0.453125 -8.859375 0.453125 -8.984375 C 0.453125 -9.085938 0.488281 -9.171875 0.5625 -9.234375 C 0.644531 -9.304688 0.742188 -9.34375 0.859375 -9.34375 L 7.21875 -9.34375 C 7.320312 -9.34375 7.410156 -9.304688 7.484375 -9.234375 C 7.566406 -9.171875 7.609375 -9.082031 7.609375 -8.96875 C 7.609375 -8.851562 7.566406 -8.757812 7.484375 -8.6875 C 7.410156 -8.625 7.320312 -8.59375 7.21875 -8.59375 Z M 0.859375 -8.59375 "/></g></g></g><g fill="#000000" fill-opacity="1"><g transform="translate(17.881489, 32.11949)"><g><path d="M 9.59375 -4.671875 C 9.59375 -3.972656 9.484375 -3.332031 9.265625 -2.75 C 9.046875 -2.164062 8.734375 -1.65625 8.328125 -1.21875 C 7.929688 -0.789062 7.457031 -0.457031 6.90625 -0.21875 C 6.363281 0.0195312 5.765625 0.140625 5.109375 0.140625 C 4.460938 0.140625 3.863281 0.0195312 3.3125 -0.21875 C 2.769531 -0.457031 2.296875 -0.789062 1.890625 -1.21875 C 1.492188 -1.65625 1.1875 -2.164062 0.96875 -2.75 C 0.75 -3.332031 0.640625 -3.972656 0.640625 -4.671875 C 0.640625 -5.378906 0.75 -6.023438 0.96875 -6.609375 C 1.1875 -7.191406 1.492188 -7.695312 1.890625 -8.125 C 2.296875 -8.5625 2.769531 -8.894531 3.3125 -9.125 C 3.863281 -9.363281 4.460938 -9.484375 5.109375 -9.484375 C 5.765625 -9.484375 6.363281 -9.363281 6.90625 -9.125 C 7.457031 -8.894531 7.929688 -8.5625 8.328125 -8.125 C 8.734375 -7.695312 9.046875 -7.191406 9.265625 -6.609375 C 9.484375 -6.023438 9.59375 -5.378906 9.59375 -4.671875 Z M 8.734375 -4.671875 C 8.734375 -5.460938 8.578125 -6.160156 8.265625 -6.765625 C 7.960938 -7.367188 7.539062 -7.835938 7 -8.171875 C 6.457031 -8.515625 5.828125 -8.6875 5.109375 -8.6875 C 4.410156 -8.6875 3.785156 -8.515625 3.234375 -8.171875 C 2.691406 -7.835938 2.265625 -7.367188 1.953125 -6.765625 C 1.648438 -6.160156 1.5 -5.460938 1.5 -4.671875 C 1.5 -3.878906 1.648438 -3.179688 1.953125 -2.578125 C 2.265625 -1.984375 2.691406 -1.515625 3.234375 -1.171875 C 3.785156 -0.835938 4.410156 -0.671875 5.109375 -0.671875 C 5.828125 -0.671875 6.457031 -0.835938 7 -1.171875 C 7.539062 -1.515625 7.960938 -1.984375 8.265625 -2.578125 C 8.578125 -3.179688 8.734375 -3.878906 8.734375 -4.671875 Z M 8.734375 -4.671875 "/></g></g></g><g fill="#000000" fill-opacity="1"><g transform="translate(28.113047, 32.11949)"><g><path d="M 4.03125 0 C 3.90625 0 3.804688 -0.0351562 3.734375 -0.109375 C 3.660156 -0.191406 3.625 -0.289062 3.625 -0.40625 L 3.625 -8.90625 L 4.453125 -8.90625 L 4.453125 -0.40625 C 4.453125 -0.289062 4.410156 -0.191406 4.328125 -0.109375 C 4.242188 -0.0351562 4.144531 0 4.03125 0 Z M 0.859375 -8.59375 C 0.742188 -8.59375 0.644531 -8.625 0.5625 -8.6875 C 0.488281 -8.757812 0.453125 -8.859375 0.453125 -8.984375 C 0.453125 -9.085938 0.488281 -9.171875 0.5625 -9.234375 C 0.644531 -9.304688 0.742188 -9.34375 0.859375 -9.34375 L 7.21875 -9.34375 C 7.320312 -9.34375 7.410156 -9.304688 7.484375 -9.234375 C 7.566406 -9.171875 7.609375 -9.082031 7.609375 -8.96875 C 7.609375 -8.851562 7.566406 -8.757812 7.484375 -8.6875 C 7.410156 -8.625 7.320312 -8.59375 7.21875 -8.59375 Z M 0.859375 -8.59375 "/></g></g></g><g fill="#000000" fill-opacity="1"><g transform="translate(36.180753, 32.11949)"><g><path d="M 4.375 -8.328125 L 1.140625 -0.25 C 1.097656 -0.164062 1.046875 -0.0976562 0.984375 -0.046875 C 0.921875 -0.00390625 0.851562 0.015625 0.78125 0.015625 C 0.65625 0.015625 0.5625 -0.015625 0.5 -0.078125 C 0.4375 -0.148438 0.398438 -0.234375 0.390625 -0.328125 C 0.378906 -0.378906 0.382812 -0.4375 0.40625 -0.5 L 3.921875 -9.125 C 3.972656 -9.21875 4.03125 -9.285156 4.09375 -9.328125 C 4.15625 -9.367188 4.234375 -9.390625 4.328125 -9.390625 C 4.421875 -9.390625 4.5 -9.363281 4.5625 -9.3125 C 4.625 -9.269531 4.675781 -9.207031 4.71875 -9.125 L 8.234375 -0.53125 C 8.242188 -0.476562 8.25 -0.425781 8.25 -0.375 C 8.25 -0.25 8.207031 -0.148438 8.125 -0.078125 C 8.050781 -0.015625 7.960938 0.015625 7.859375 0.015625 C 7.765625 0.015625 7.679688 -0.0078125 7.609375 -0.0625 C 7.546875 -0.113281 7.5 -0.175781 7.46875 -0.25 L 4.140625 -8.375 Z M 1.90625 -2.703125 L 2.25 -3.484375 L 6.390625 -3.484375 L 6.546875 -2.703125 Z M 1.90625 -2.703125 "/></g></g></g><g fill="#000000" fill-opacity="1"><g transform="translate(44.822816, 32.11949)"><g><path d="M 6.421875 -0.78125 C 6.535156 -0.78125 6.628906 -0.742188 6.703125 -0.671875 C 6.785156 -0.597656 6.828125 -0.507812 6.828125 -0.40625 C 6.828125 -0.289062 6.785156 -0.191406 6.703125 -0.109375 C 6.628906 -0.0351562 6.535156 0 6.421875 0 L 1.65625 0 C 1.539062 0 1.441406 -0.0351562 1.359375 -0.109375 C 1.285156 -0.191406 1.25 -0.289062 1.25 -0.40625 L 1.25 -8.953125 C 1.25 -9.054688 1.289062 -9.144531 1.375 -9.21875 C 1.457031 -9.300781 1.5625 -9.34375 1.6875 -9.34375 C 1.789062 -9.34375 1.882812 -9.300781 1.96875 -9.21875 C 2.050781 -9.144531 2.09375 -9.054688 2.09375 -8.953125 L 2.09375 -0.5625 L 1.84375 -0.78125 Z M 6.421875 -0.78125 "/></g></g></g></g></g><g clip-path="url(#e1889faeef)"><path fill="#000000" d="M 12.726562 137.191406 L 12.726562 1277.019531 M 186.695312 137.191406 L 186.695312 1277.019531 M 648.773438 137.191406 L 648.773438 1277.019531 M 781.242188 137.191406 L 781.242188 1277.019531 M 862.523438 137.191406 L 862.523438 1277.019531 M 12.28125 136.746094 L 862.96875 136.746094 M 12.28125 178.207031 L 862.96875 178.207031 M 12.28125 242.867188 L 862.96875 242.867188 M 12.28125 307.53125 L 862.96875 307.53125 M 12.28125 372.191406 L 862.96875 372.191406 M 12.28125 436.855469 L 862.96875 436.855469 M 12.28125 501.519531 L 862.96875 501.519531 M 12.28125 566.179688 L 862.96875 566.179688 M 12.28125 630.84375 L 862.96875 630.84375 M 12.28125 695.503906 L 862.96875 695.503906 M 12.28125 760.167969 L 862.96875 760.167969 M 12.28125 824.828125 L 862.96875 824.828125 M 12.28125 889.492188 L 862.96875 889.492188 M 12.28125 954.15625 L 862.96875 954.15625 M 12.28125 1018.816406 L 862.96875 1018.816406 M 12.28125 1083.480469 L 862.96875 1083.480469 M 12.28125 1148.140625 L 862.96875 1148.140625 M 12.28125 1212.804688 L 862.96875 1212.804688 M 12.28125 1277.464844 L 862.96875 1277.464844 " fill-opacity="1" fill-rule="nonzero"/></g><g clip-path="url(#9b7249c2d9)"><path stroke-linecap="butt" transform="matrix(0.749859, 0, 0, 0.749859, 12.281855, 136.300166)" fill="none" stroke-linejoin="miter" d="M 0.593055 1.188544 L 0.593055 1521.245849 M 232.595112 1.188544 L 232.595112 1521.245849 M 848.815412 1.188544 L 848.815412 1521.245849 M 1025.473706 1.188544 L 1025.473706 1521.245849 M 1133.869134 1.188544 L 1133.869134 1521.245849 M -0.000806755 0.594682 L 1134.462996 0.594682 M -0.000806755 55.886352 L 1134.462996 55.886352 M -0.000806755 142.116145 L 1134.462996 142.116145 M -0.000806755 228.351147 L 1134.462996 228.351147 M -0.000806755 314.58094 L 1134.462996 314.58094 M -0.000806755 400.815942 L 1134.462996 400.815942 M -0.000806755 487.050944 L 1134.462996 487.050944 M -0.000806755 573.280736 L 1134.462996 573.280736 M -0.000806755 659.515738 L 1134.462996 659.515738 M -0.000806755 745.745531 L 1134.462996 745.745531 M -0.000806755 831.980533 L 1134.462996 831.980533 M -0.000806755 918.210326 L 1134.462996 918.210326 M -0.000806755 1004.445328 L 1134.462996 1004.445328 M -0.000806755 1090.680329 L 1134.462996 1090.680329 M -0.000806755 1176.910122 L 1134.462996 1176.910122 M -0.000806755 1263.145124 L 1134.462996 1263.145124 M -0.000806755 1349.374917 L 1134.462996 1349.374917 M -0.000806755 1435.609919 L 1134.462996 1435.609919 M -0.000806755 1521.839711 L 1134.462996 1521.839711 " stroke="#000000" stroke-width="1.190629" stroke-opacity="1" stroke-miterlimit="4"/></g><g transform="matrix(1, 0, 0, 1, 17, 63)"><g clip-path="url(#6bdf0d739f)"><g fill="#23120b" fill-opacity="1"><g transform="translate(0.764677, 45.202183)"><g><path d="M 26.875 -28.78125 C 27.226562 -28.550781 27.4375 -28.25 27.5 -27.875 C 27.5625 -27.5 27.472656 -27.132812 27.234375 -26.78125 C 27.023438 -26.519531 26.753906 -26.375 26.421875 -26.34375 C 26.097656 -26.3125 25.789062 -26.367188 25.5 -26.515625 C 24.375 -27.253906 23.164062 -27.832031 21.875 -28.25 C 20.59375 -28.664062 19.207031 -28.875 17.71875 -28.875 C 15.914062 -28.875 14.234375 -28.554688 12.671875 -27.921875 C 11.117188 -27.285156 9.765625 -26.363281 8.609375 -25.15625 C 7.460938 -23.957031 6.566406 -22.546875 5.921875 -20.921875 C 5.285156 -19.296875 4.96875 -17.503906 4.96875 -15.546875 C 4.96875 -13.535156 5.296875 -11.707031 5.953125 -10.0625 C 6.609375 -8.414062 7.519531 -7 8.6875 -5.8125 C 9.851562 -4.632812 11.207031 -3.734375 12.75 -3.109375 C 14.289062 -2.484375 15.945312 -2.171875 17.71875 -2.171875 C 19.175781 -2.171875 20.546875 -2.378906 21.828125 -2.796875 C 23.117188 -3.210938 24.328125 -3.773438 25.453125 -4.484375 C 25.742188 -4.660156 26.0625 -4.726562 26.40625 -4.6875 C 26.75 -4.644531 27.023438 -4.472656 27.234375 -4.171875 C 27.492188 -3.847656 27.585938 -3.5 27.515625 -3.125 C 27.441406 -2.757812 27.242188 -2.472656 26.921875 -2.265625 C 26.179688 -1.796875 25.304688 -1.351562 24.296875 -0.9375 C 23.285156 -0.519531 22.21875 -0.1875 21.09375 0.0625 C 19.96875 0.3125 18.84375 0.4375 17.71875 0.4375 C 15.59375 0.4375 13.59375 0.0546875 11.71875 -0.703125 C 9.851562 -1.472656 8.195312 -2.5625 6.75 -3.96875 C 5.300781 -5.375 4.164062 -7.054688 3.34375 -9.015625 C 2.53125 -10.972656 2.125 -13.148438 2.125 -15.546875 C 2.125 -17.859375 2.523438 -19.984375 3.328125 -21.921875 C 4.128906 -23.859375 5.238281 -25.535156 6.65625 -26.953125 C 8.082031 -28.378906 9.742188 -29.492188 11.640625 -30.296875 C 13.535156 -31.097656 15.5625 -31.5 17.71875 -31.5 C 19.40625 -31.5 21.035156 -31.257812 22.609375 -30.78125 C 24.179688 -30.3125 25.601562 -29.644531 26.875 -28.78125 Z M 26.875 -28.78125 "/></g></g></g><g fill="#23120b" fill-opacity="1"><g transform="translate(29.771275, 45.202183)"><g><path d="M 5.515625 -31.09375 L 21.8125 -31.09375 C 22.164062 -31.09375 22.472656 -30.96875 22.734375 -30.71875 C 23.003906 -30.46875 23.140625 -30.148438 23.140625 -29.765625 C 23.140625 -29.378906 23.003906 -29.066406 22.734375 -28.828125 C 22.472656 -28.585938 22.164062 -28.46875 21.8125 -28.46875 L 6.53125 -28.46875 L 6.96875 -29.234375 L 6.96875 -16.75 L 6.484375 -17.328125 L 19.8125 -17.328125 C 20.164062 -17.328125 20.472656 -17.191406 20.734375 -16.921875 C 21.003906 -16.660156 21.140625 -16.347656 21.140625 -15.984375 C 21.140625 -15.609375 21.003906 -15.300781 20.734375 -15.0625 C 20.472656 -14.820312 20.164062 -14.703125 19.8125 -14.703125 L 6.578125 -14.703125 L 6.96875 -15.140625 L 6.96875 -2.359375 L 6.75 -2.625 L 21.8125 -2.625 C 22.164062 -2.625 22.472656 -2.488281 22.734375 -2.21875 C 23.003906 -1.957031 23.140625 -1.644531 23.140625 -1.28125 C 23.140625 -0.894531 23.003906 -0.582031 22.734375 -0.34375 C 22.472656 -0.113281 22.164062 0 21.8125 0 L 5.515625 0 C 5.148438 0 4.832031 -0.128906 4.5625 -0.390625 C 4.300781 -0.660156 4.171875 -0.972656 4.171875 -1.328125 L 4.171875 -29.765625 C 4.171875 -30.117188 4.300781 -30.425781 4.5625 -30.6875 C 4.832031 -30.957031 5.148438 -31.09375 5.515625 -31.09375 Z M 5.515625 -31.09375 "/></g></g></g><g fill="#23120b" fill-opacity="1"><g transform="translate(55.002132, 45.202183)"><g><path d="M 26.171875 -31.09375 C 26.578125 -31.09375 26.898438 -30.96875 27.140625 -30.71875 C 27.378906 -30.46875 27.5 -30.148438 27.5 -29.765625 L 27.5 -11.375 C 27.5 -9.175781 26.976562 -7.1875 25.9375 -5.40625 C 24.90625 -3.632812 23.515625 -2.222656 21.765625 -1.171875 C 20.015625 -0.117188 18.046875 0.40625 15.859375 0.40625 C 13.671875 0.40625 11.691406 -0.117188 9.921875 -1.171875 C 8.160156 -2.222656 6.757812 -3.632812 5.71875 -5.40625 C 4.6875 -7.1875 4.171875 -9.175781 4.171875 -11.375 L 4.171875 -29.765625 C 4.171875 -30.148438 4.296875 -30.46875 4.546875 -30.71875 C 4.804688 -30.96875 5.15625 -31.09375 5.59375 -31.09375 C 5.945312 -31.09375 6.257812 -30.96875 6.53125 -30.71875 C 6.800781 -30.46875 6.9375 -30.148438 6.9375 -29.765625 L 6.9375 -11.375 C 6.9375 -9.65625 7.34375 -8.113281 8.15625 -6.75 C 8.96875 -5.382812 10.050781 -4.296875 11.40625 -3.484375 C 12.769531 -2.671875 14.253906 -2.265625 15.859375 -2.265625 C 17.515625 -2.265625 19.023438 -2.671875 20.390625 -3.484375 C 21.753906 -4.296875 22.84375 -5.382812 23.65625 -6.75 C 24.46875 -8.113281 24.875 -9.65625 24.875 -11.375 L 24.875 -29.765625 C 24.875 -30.148438 24.992188 -30.46875 25.234375 -30.71875 C 25.472656 -30.96875 25.785156 -31.09375 26.171875 -31.09375 Z M 26.171875 -31.09375 "/></g></g></g><g fill="#23120b" fill-opacity="1"><g transform="translate(86.673956, 45.202183)"><g/></g></g><g fill="#23120b" fill-opacity="1"><g transform="translate(98.800762, 45.202183)"><g><path d="M 13.421875 0 C 13.003906 0 12.664062 -0.128906 12.40625 -0.390625 C 12.15625 -0.660156 12.03125 -0.972656 12.03125 -1.328125 L 12.03125 -29.625 L 14.796875 -29.625 L 14.796875 -1.328125 C 14.796875 -0.972656 14.660156 -0.660156 14.390625 -0.390625 C 14.128906 -0.128906 13.804688 0 13.421875 0 Z M 2.84375 -28.5625 C 2.488281 -28.5625 2.175781 -28.679688 1.90625 -28.921875 C 1.644531 -29.160156 1.515625 -29.46875 1.515625 -29.84375 C 1.515625 -30.207031 1.644531 -30.503906 1.90625 -30.734375 C 2.175781 -30.972656 2.488281 -31.09375 2.84375 -31.09375 L 23.984375 -31.09375 C 24.335938 -31.09375 24.648438 -30.972656 24.921875 -30.734375 C 25.191406 -30.503906 25.328125 -30.195312 25.328125 -29.8125 C 25.328125 -29.425781 25.191406 -29.117188 24.921875 -28.890625 C 24.648438 -28.671875 24.335938 -28.5625 23.984375 -28.5625 Z M 2.84375 -28.5625 "/></g></g></g><g fill="#23120b" fill-opacity="1"><g transform="translate(125.63075, 45.202183)"><g><path d="M 5.6875 0 C 5.238281 0 4.875 -0.128906 4.59375 -0.390625 C 4.3125 -0.660156 4.171875 -0.972656 4.171875 -1.328125 L 4.171875 -29.765625 C 4.171875 -30.117188 4.300781 -30.425781 4.5625 -30.6875 C 4.832031 -30.957031 5.148438 -31.09375 5.515625 -31.09375 L 17.5 -31.09375 C 19.1875 -31.09375 20.695312 -30.726562 22.03125 -30 C 23.363281 -29.28125 24.40625 -28.28125 25.15625 -27 C 25.914062 -25.726562 26.296875 -24.296875 26.296875 -22.703125 C 26.296875 -21.398438 26.054688 -20.195312 25.578125 -19.09375 C 25.109375 -18 24.441406 -17.070312 23.578125 -16.3125 C 22.722656 -15.5625 21.765625 -15.007812 20.703125 -14.65625 L 19.140625 -15.140625 C 20.242188 -15.054688 21.265625 -14.707031 22.203125 -14.09375 C 23.148438 -13.488281 23.910156 -12.660156 24.484375 -11.609375 C 25.066406 -10.566406 25.375 -9.300781 25.40625 -7.8125 C 25.4375 -6.539062 25.503906 -5.550781 25.609375 -4.84375 C 25.710938 -4.132812 25.867188 -3.597656 26.078125 -3.234375 C 26.285156 -2.878906 26.550781 -2.601562 26.875 -2.40625 C 27.164062 -2.21875 27.363281 -1.960938 27.46875 -1.640625 C 27.570312 -1.316406 27.535156 -1.003906 27.359375 -0.703125 C 27.242188 -0.472656 27.070312 -0.304688 26.84375 -0.203125 C 26.625 -0.0976562 26.394531 -0.046875 26.15625 -0.046875 C 25.925781 -0.046875 25.691406 -0.101562 25.453125 -0.21875 C 25.035156 -0.457031 24.613281 -0.828125 24.1875 -1.328125 C 23.757812 -1.835938 23.40625 -2.578125 23.125 -3.546875 C 22.84375 -4.523438 22.703125 -5.890625 22.703125 -7.640625 C 22.703125 -8.796875 22.515625 -9.742188 22.140625 -10.484375 C 21.773438 -11.222656 21.300781 -11.789062 20.71875 -12.1875 C 20.144531 -12.59375 19.507812 -12.875 18.8125 -13.03125 C 18.113281 -13.195312 17.453125 -13.28125 16.828125 -13.28125 L 6.484375 -13.28125 L 6.96875 -13.90625 L 6.96875 -1.328125 C 6.96875 -0.972656 6.847656 -0.660156 6.609375 -0.390625 C 6.378906 -0.128906 6.070312 0 5.6875 0 Z M 6.484375 -15.71875 L 17.640625 -15.71875 C 18.640625 -15.8125 19.582031 -16.144531 20.46875 -16.71875 C 21.363281 -17.300781 22.082031 -18.09375 22.625 -19.09375 C 23.175781 -20.101562 23.453125 -21.273438 23.453125 -22.609375 C 23.453125 -24.296875 22.878906 -25.691406 21.734375 -26.796875 C 20.597656 -27.910156 19.113281 -28.46875 17.28125 -28.46875 L 6.65625 -28.46875 L 6.96875 -29.09375 L 6.96875 -15.109375 Z M 6.484375 -15.71875 "/></g></g></g><g fill="#23120b" fill-opacity="1"><g transform="translate(155.392501, 45.202183)"><g><path d="M 14.578125 -27.671875 L 3.78125 -0.84375 C 3.65625 -0.550781 3.488281 -0.328125 3.28125 -0.171875 C 3.070312 -0.0234375 2.835938 0.046875 2.578125 0.046875 C 2.160156 0.046875 1.847656 -0.0625 1.640625 -0.28125 C 1.429688 -0.507812 1.3125 -0.785156 1.28125 -1.109375 C 1.257812 -1.253906 1.273438 -1.429688 1.328125 -1.640625 L 13.0625 -30.34375 C 13.207031 -30.664062 13.390625 -30.894531 13.609375 -31.03125 C 13.835938 -31.164062 14.097656 -31.234375 14.390625 -31.234375 C 14.691406 -31.234375 14.953125 -31.148438 15.171875 -30.984375 C 15.390625 -30.816406 15.5625 -30.601562 15.6875 -30.34375 L 27.359375 -1.78125 C 27.421875 -1.601562 27.453125 -1.425781 27.453125 -1.25 C 27.453125 -0.832031 27.316406 -0.507812 27.046875 -0.28125 C 26.785156 -0.0625 26.476562 0.046875 26.125 0.046875 C 25.820312 0.046875 25.5625 -0.03125 25.34375 -0.1875 C 25.125 -0.351562 24.953125 -0.570312 24.828125 -0.84375 L 13.765625 -27.859375 Z M 6.359375 -8.96875 L 7.46875 -11.59375 L 21.234375 -11.59375 L 21.765625 -8.96875 Z M 6.359375 -8.96875 "/></g></g></g><g fill="#23120b" fill-opacity="1"><g transform="translate(184.132575, 45.202183)"><g><path d="M 26.875 -28.78125 C 27.226562 -28.550781 27.4375 -28.25 27.5 -27.875 C 27.5625 -27.5 27.472656 -27.132812 27.234375 -26.78125 C 27.023438 -26.519531 26.753906 -26.375 26.421875 -26.34375 C 26.097656 -26.3125 25.789062 -26.367188 25.5 -26.515625 C 24.375 -27.253906 23.164062 -27.832031 21.875 -28.25 C 20.59375 -28.664062 19.207031 -28.875 17.71875 -28.875 C 15.914062 -28.875 14.234375 -28.554688 12.671875 -27.921875 C 11.117188 -27.285156 9.765625 -26.363281 8.609375 -25.15625 C 7.460938 -23.957031 6.566406 -22.546875 5.921875 -20.921875 C 5.285156 -19.296875 4.96875 -17.503906 4.96875 -15.546875 C 4.96875 -13.535156 5.296875 -11.707031 5.953125 -10.0625 C 6.609375 -8.414062 7.519531 -7 8.6875 -5.8125 C 9.851562 -4.632812 11.207031 -3.734375 12.75 -3.109375 C 14.289062 -2.484375 15.945312 -2.171875 17.71875 -2.171875 C 19.175781 -2.171875 20.546875 -2.378906 21.828125 -2.796875 C 23.117188 -3.210938 24.328125 -3.773438 25.453125 -4.484375 C 25.742188 -4.660156 26.0625 -4.726562 26.40625 -4.6875 C 26.75 -4.644531 27.023438 -4.472656 27.234375 -4.171875 C 27.492188 -3.847656 27.585938 -3.5 27.515625 -3.125 C 27.441406 -2.757812 27.242188 -2.472656 26.921875 -2.265625 C 26.179688 -1.796875 25.304688 -1.351562 24.296875 -0.9375 C 23.285156 -0.519531 22.21875 -0.1875 21.09375 0.0625 C 19.96875 0.3125 18.84375 0.4375 17.71875 0.4375 C 15.59375 0.4375 13.59375 0.0546875 11.71875 -0.703125 C 9.851562 -1.472656 8.195312 -2.5625 6.75 -3.96875 C 5.300781 -5.375 4.164062 -7.054688 3.34375 -9.015625 C 2.53125 -10.972656 2.125 -13.148438 2.125 -15.546875 C 2.125 -17.859375 2.523438 -19.984375 3.328125 -21.921875 C 4.128906 -23.859375 5.238281 -25.535156 6.65625 -26.953125 C 8.082031 -28.378906 9.742188 -29.492188 11.640625 -30.296875 C 13.535156 -31.097656 15.5625 -31.5 17.71875 -31.5 C 19.40625 -31.5 21.035156 -31.257812 22.609375 -30.78125 C 24.179688 -30.3125 25.601562 -29.644531 26.875 -28.78125 Z M 26.875 -28.78125 "/></g></g></g><g fill="#23120b" fill-opacity="1"><g transform="translate(213.139184, 45.202183)"><g><path d="M 26.390625 0.171875 C 26.003906 0.171875 25.675781 0.0078125 25.40625 -0.3125 L 12.796875 -16.171875 L 14.875 -18.25 L 27.59375 -2.171875 C 27.789062 -1.878906 27.890625 -1.570312 27.890625 -1.25 C 27.890625 -0.769531 27.71875 -0.410156 27.375 -0.171875 C 27.039062 0.0546875 26.710938 0.171875 26.390625 0.171875 Z M 25.890625 -31 C 26.253906 -31 26.5625 -30.863281 26.8125 -30.59375 C 27.0625 -30.332031 27.1875 -30.039062 27.1875 -29.71875 C 27.1875 -29.363281 27.050781 -29.050781 26.78125 -28.78125 L 6.625 -9.90625 L 6.265625 -12.921875 L 24.921875 -30.5625 C 25.210938 -30.851562 25.535156 -31 25.890625 -31 Z M 5.546875 0 C 5.140625 0 4.804688 -0.128906 4.546875 -0.390625 C 4.296875 -0.660156 4.171875 -0.988281 4.171875 -1.375 L 4.171875 -29.71875 C 4.171875 -30.101562 4.300781 -30.425781 4.5625 -30.6875 C 4.832031 -30.957031 5.175781 -31.09375 5.59375 -31.09375 C 5.976562 -31.09375 6.300781 -30.957031 6.5625 -30.6875 C 6.832031 -30.425781 6.96875 -30.101562 6.96875 -29.71875 L 6.96875 -1.375 C 6.945312 -0.988281 6.800781 -0.660156 6.53125 -0.390625 C 6.257812 -0.128906 5.929688 0 5.546875 0 Z M 5.546875 0 "/></g></g></g><g fill="#23120b" fill-opacity="1"><g transform="translate(243.123017, 45.202183)"><g><path d="M 5.515625 -31.09375 L 21.8125 -31.09375 C 22.164062 -31.09375 22.472656 -30.96875 22.734375 -30.71875 C 23.003906 -30.46875 23.140625 -30.148438 23.140625 -29.765625 C 23.140625 -29.378906 23.003906 -29.066406 22.734375 -28.828125 C 22.472656 -28.585938 22.164062 -28.46875 21.8125 -28.46875 L 6.53125 -28.46875 L 6.96875 -29.234375 L 6.96875 -16.75 L 6.484375 -17.328125 L 19.8125 -17.328125 C 20.164062 -17.328125 20.472656 -17.191406 20.734375 -16.921875 C 21.003906 -16.660156 21.140625 -16.347656 21.140625 -15.984375 C 21.140625 -15.609375 21.003906 -15.300781 20.734375 -15.0625 C 20.472656 -14.820312 20.164062 -14.703125 19.8125 -14.703125 L 6.578125 -14.703125 L 6.96875 -15.140625 L 6.96875 -2.359375 L 6.75 -2.625 L 21.8125 -2.625 C 22.164062 -2.625 22.472656 -2.488281 22.734375 -2.21875 C 23.003906 -1.957031 23.140625 -1.644531 23.140625 -1.28125 C 23.140625 -0.894531 23.003906 -0.582031 22.734375 -0.34375 C 22.472656 -0.113281 22.164062 0 21.8125 0 L 5.515625 0 C 5.148438 0 4.832031 -0.128906 4.5625 -0.390625 C 4.300781 -0.660156 4.171875 -0.972656 4.171875 -1.328125 L 4.171875 -29.765625 C 4.171875 -30.117188 4.300781 -30.425781 4.5625 -30.6875 C 4.832031 -30.957031 5.148438 -31.09375 5.515625 -31.09375 Z M 5.515625 -31.09375 "/></g></g></g><g fill="#23120b" fill-opacity="1"><g transform="translate(268.353863, 45.202183)"><g><path d="M 5.6875 0 C 5.238281 0 4.875 -0.128906 4.59375 -0.390625 C 4.3125 -0.660156 4.171875 -0.972656 4.171875 -1.328125 L 4.171875 -29.765625 C 4.171875 -30.117188 4.300781 -30.425781 4.5625 -30.6875 C 4.832031 -30.957031 5.148438 -31.09375 5.515625 -31.09375 L 17.5 -31.09375 C 19.1875 -31.09375 20.695312 -30.726562 22.03125 -30 C 23.363281 -29.28125 24.40625 -28.28125 25.15625 -27 C 25.914062 -25.726562 26.296875 -24.296875 26.296875 -22.703125 C 26.296875 -21.398438 26.054688 -20.195312 25.578125 -19.09375 C 25.109375 -18 24.441406 -17.070312 23.578125 -16.3125 C 22.722656 -15.5625 21.765625 -15.007812 20.703125 -14.65625 L 19.140625 -15.140625 C 20.242188 -15.054688 21.265625 -14.707031 22.203125 -14.09375 C 23.148438 -13.488281 23.910156 -12.660156 24.484375 -11.609375 C 25.066406 -10.566406 25.375 -9.300781 25.40625 -7.8125 C 25.4375 -6.539062 25.503906 -5.550781 25.609375 -4.84375 C 25.710938 -4.132812 25.867188 -3.597656 26.078125 -3.234375 C 26.285156 -2.878906 26.550781 -2.601562 26.875 -2.40625 C 27.164062 -2.21875 27.363281 -1.960938 27.46875 -1.640625 C 27.570312 -1.316406 27.535156 -1.003906 27.359375 -0.703125 C 27.242188 -0.472656 27.070312 -0.304688 26.84375 -0.203125 C 26.625 -0.0976562 26.394531 -0.046875 26.15625 -0.046875 C 25.925781 -0.046875 25.691406 -0.101562 25.453125 -0.21875 C 25.035156 -0.457031 24.613281 -0.828125 24.1875 -1.328125 C 23.757812 -1.835938 23.40625 -2.578125 23.125 -3.546875 C 22.84375 -4.523438 22.703125 -5.890625 22.703125 -7.640625 C 22.703125 -8.796875 22.515625 -9.742188 22.140625 -10.484375 C 21.773438 -11.222656 21.300781 -11.789062 20.71875 -12.1875 C 20.144531 -12.59375 19.507812 -12.875 18.8125 -13.03125 C 18.113281 -13.195312 17.453125 -13.28125 16.828125 -13.28125 L 6.484375 -13.28125 L 6.96875 -13.90625 L 6.96875 -1.328125 C 6.96875 -0.972656 6.847656 -0.660156 6.609375 -0.390625 C 6.378906 -0.128906 6.070312 0 5.6875 0 Z M 6.484375 -15.71875 L 17.640625 -15.71875 C 18.640625 -15.8125 19.582031 -16.144531 20.46875 -16.71875 C 21.363281 -17.300781 22.082031 -18.09375 22.625 -19.09375 C 23.175781 -20.101562 23.453125 -21.273438 23.453125 -22.609375 C 23.453125 -24.296875 22.878906 -25.691406 21.734375 -26.796875 C 20.597656 -27.910156 19.113281 -28.46875 17.28125 -28.46875 L 6.65625 -28.46875 L 6.96875 -29.09375 L 6.96875 -15.109375 Z M 6.484375 -15.71875 "/></g></g></g></g></g></svg>