<svg xmlns="http://www.w3.org/2000/svg" xmlns:xlink="http://www.w3.org/1999/xlink" width="1200" zoomAndPan="magnify" viewBox="0 0 900 675.000002" height="900" preserveAspectRatio="xMidYMid meet" version="1.0"><defs><g/><clipPath id="90ef5fe15d"><path d="M 25 3 L 32.824219 3 L 32.824219 13 L 25 13 Z M 25 3 " clip-rule="nonzero"/></clipPath><clipPath id="058fe056ba"><rect x="0" width="33" y="0" height="17"/></clipPath><clipPath id="4b6e96bd3d"><path d="M 0.253906 3 L 9 3 L 9 13 L 0.253906 13 Z M 0.253906 3 " clip-rule="nonzero"/></clipPath><clipPath id="e406107bf0"><path d="M 81 3 L 88.921875 3 L 88.921875 13 L 81 13 Z M 81 3 " clip-rule="nonzero"/></clipPath><clipPath id="4d4d6e99bf"><rect x="0" width="89" y="0" height="17"/></clipPath><clipPath id="553a51008c"><rect x="0" width="55" y="0" height="17"/></clipPath><clipPath id="51436a5039"><rect x="0" width="59" y="0" height="35"/></clipPath><clipPath id="195219f0e8"><path d="M 34.367188 93.214844 L 865.632812 93.214844 L 865.632812 581 L 34.367188 581 Z M 34.367188 93.214844 " clip-rule="nonzero"/></clipPath></defs><g transform="matrix(1, 0, 0, 1, 103, 104)"><g clip-path="url(#058fe056ba)"><g fill="#000000" fill-opacity="1"><g transform="translate(1.121924, 12.53887)"><g><path d="M 0.984375 0 L 0.984375 -8.875 L 3.90625 -8.875 C 4.570312 -8.875 5.191406 -8.757812 5.765625 -8.53125 C 6.347656 -8.3125 6.84375 -8.007812 7.25 -7.625 C 7.664062 -7.238281 7.988281 -6.769531 8.21875 -6.21875 C 8.457031 -5.675781 8.578125 -5.082031 8.578125 -4.4375 C 8.578125 -3.789062 8.457031 -3.195312 8.21875 -2.65625 C 7.988281 -2.113281 7.664062 -1.644531 7.25 -1.25 C 6.84375 -0.863281 6.351562 -0.554688 5.78125 -0.328125 C 5.207031 -0.109375 4.582031 0 3.90625 0 Z M 3.953125 -8 L 1.953125 -8 L 1.953125 -0.890625 L 3.953125 -0.890625 C 4.460938 -0.890625 4.941406 -0.976562 5.390625 -1.15625 C 5.835938 -1.34375 6.222656 -1.59375 6.546875 -1.90625 C 6.867188 -2.226562 7.125 -2.601562 7.3125 -3.03125 C 7.5 -3.46875 7.59375 -3.9375 7.59375 -4.4375 C 7.59375 -4.9375 7.5 -5.40625 7.3125 -5.84375 C 7.125 -6.28125 6.867188 -6.65625 6.546875 -6.96875 C 6.222656 -7.289062 5.835938 -7.539062 5.390625 -7.71875 C 4.941406 -7.90625 4.460938 -8 3.953125 -8 Z M 3.953125 -8 "/></g></g></g><g fill="#000000" fill-opacity="1"><g transform="translate(9.800604, 12.53887)"><g><path d="M 0.046875 0 L 3.75 -8.875 L 4.921875 -8.875 L 8.5625 0 L 7.5 0 L 6.375 -2.796875 L 2.1875 -2.796875 L 1.0625 0 Z M 2.53125 -3.625 L 6.046875 -3.625 L 4.296875 -7.96875 Z M 2.53125 -3.625 "/></g></g></g><g fill="#000000" fill-opacity="1"><g transform="translate(16.79142, 12.53887)"><g><path d="M 0.21875 -8 L 0.21875 -8.875 L 7.609375 -8.875 L 7.609375 -8 L 4.40625 -8 L 4.40625 0 L 3.421875 0 L 3.421875 -8 Z M 0.21875 -8 "/></g></g></g><g clip-path="url(#90ef5fe15d)"><g fill="#000000" fill-opacity="1"><g transform="translate(24.620111, 12.53887)"><g><path d="M 0.984375 0 L 0.984375 -8.875 L 7.328125 -8.875 L 7.328125 -8.015625 L 1.953125 -8.015625 L 1.953125 -4.90625 L 5.46875 -4.90625 L 5.46875 -4.0625 L 1.953125 -4.0625 L 1.953125 -0.859375 L 7.390625 -0.859375 L 7.390625 0 Z M 0.984375 0 "/></g></g></g></g></g></g><g transform="matrix(1, 0, 0, 1, 386, 104)"><g clip-path="url(#4d4d6e99bf)"><g clip-path="url(#4b6e96bd3d)"><g fill="#000000" fill-opacity="1"><g transform="translate(0.282699, 12.53887)"><g><path d="M 5.1875 -0.765625 C 5.738281 -0.765625 6.265625 -0.867188 6.765625 -1.078125 C 7.265625 -1.296875 7.679688 -1.597656 8.015625 -1.984375 L 8.65625 -1.3125 C 8.21875 -0.863281 7.691406 -0.507812 7.078125 -0.25 C 6.472656 0.0078125 5.832031 0.140625 5.15625 0.140625 C 4.519531 0.140625 3.921875 0.0195312 3.359375 -0.21875 C 2.796875 -0.457031 2.304688 -0.78125 1.890625 -1.1875 C 1.472656 -1.59375 1.144531 -2.078125 0.90625 -2.640625 C 0.675781 -3.203125 0.5625 -3.800781 0.5625 -4.4375 C 0.5625 -5.070312 0.675781 -5.671875 0.90625 -6.234375 C 1.144531 -6.796875 1.472656 -7.28125 1.890625 -7.6875 C 2.304688 -8.101562 2.796875 -8.425781 3.359375 -8.65625 C 3.921875 -8.894531 4.519531 -9.015625 5.15625 -9.015625 C 5.84375 -9.015625 6.492188 -8.882812 7.109375 -8.625 C 7.722656 -8.375 8.242188 -8.019531 8.671875 -7.5625 L 8.03125 -6.875 C 7.6875 -7.257812 7.253906 -7.5625 6.734375 -7.78125 C 6.222656 -8.007812 5.695312 -8.125 5.15625 -8.125 C 4.65625 -8.125 4.179688 -8.023438 3.734375 -7.828125 C 3.296875 -7.640625 2.914062 -7.382812 2.59375 -7.0625 C 2.269531 -6.738281 2.015625 -6.347656 1.828125 -5.890625 C 1.640625 -5.441406 1.546875 -4.957031 1.546875 -4.4375 C 1.546875 -3.925781 1.640625 -3.441406 1.828125 -2.984375 C 2.015625 -2.535156 2.269531 -2.144531 2.59375 -1.8125 C 2.914062 -1.488281 3.300781 -1.234375 3.75 -1.046875 C 4.195312 -0.859375 4.675781 -0.765625 5.1875 -0.765625 Z M 5.1875 -0.765625 "/></g></g></g></g><g fill="#000000" fill-opacity="1"><g transform="translate(9.189826, 12.53887)"><g><path d="M 9.703125 -4.4375 C 9.703125 -3.800781 9.582031 -3.203125 9.34375 -2.640625 C 9.113281 -2.078125 8.789062 -1.59375 8.375 -1.1875 C 7.96875 -0.78125 7.484375 -0.457031 6.921875 -0.21875 C 6.367188 0.0195312 5.773438 0.140625 5.140625 0.140625 C 4.503906 0.140625 3.90625 0.0195312 3.34375 -0.21875 C 2.78125 -0.457031 2.289062 -0.78125 1.875 -1.1875 C 1.46875 -1.59375 1.144531 -2.078125 0.90625 -2.640625 C 0.675781 -3.203125 0.5625 -3.800781 0.5625 -4.4375 C 0.5625 -5.070312 0.675781 -5.671875 0.90625 -6.234375 C 1.144531 -6.796875 1.46875 -7.28125 1.875 -7.6875 C 2.289062 -8.101562 2.78125 -8.425781 3.34375 -8.65625 C 3.90625 -8.894531 4.503906 -9.015625 5.140625 -9.015625 C 5.773438 -9.015625 6.367188 -8.894531 6.921875 -8.65625 C 7.484375 -8.425781 7.96875 -8.101562 8.375 -7.6875 C 8.789062 -7.28125 9.113281 -6.796875 9.34375 -6.234375 C 9.582031 -5.671875 9.703125 -5.070312 9.703125 -4.4375 Z M 8.71875 -4.4375 C 8.71875 -4.957031 8.625 -5.441406 8.4375 -5.890625 C 8.25 -6.347656 7.992188 -6.738281 7.671875 -7.0625 C 7.359375 -7.382812 6.984375 -7.640625 6.546875 -7.828125 C 6.109375 -8.023438 5.640625 -8.125 5.140625 -8.125 C 4.628906 -8.125 4.15625 -8.023438 3.71875 -7.828125 C 3.28125 -7.640625 2.898438 -7.382812 2.578125 -7.0625 C 2.265625 -6.738281 2.015625 -6.347656 1.828125 -5.890625 C 1.640625 -5.441406 1.546875 -4.957031 1.546875 -4.4375 C 1.546875 -3.925781 1.640625 -3.445312 1.828125 -3 C 2.015625 -2.550781 2.265625 -2.160156 2.578125 -1.828125 C 2.898438 -1.492188 3.28125 -1.234375 3.71875 -1.046875 C 4.15625 -0.859375 4.628906 -0.765625 5.140625 -0.765625 C 5.640625 -0.765625 6.109375 -0.859375 6.546875 -1.046875 C 6.984375 -1.234375 7.359375 -1.492188 7.671875 -1.828125 C 7.992188 -2.160156 8.25 -2.550781 8.4375 -3 C 8.625 -3.445312 8.71875 -3.925781 8.71875 -4.4375 Z M 8.71875 -4.4375 "/></g></g></g><g fill="#000000" fill-opacity="1"><g transform="translate(19.454675, 12.53887)"><g><path d="M 8.125 -3.75 C 8.125 -2.570312 7.789062 -1.628906 7.125 -0.921875 C 6.46875 -0.210938 5.582031 0.140625 4.46875 0.140625 C 3.34375 0.140625 2.445312 -0.207031 1.78125 -0.90625 C 1.125 -1.613281 0.796875 -2.5625 0.796875 -3.75 L 0.796875 -8.875 L 1.78125 -8.875 L 1.78125 -3.75 C 1.78125 -2.84375 2.023438 -2.117188 2.515625 -1.578125 C 3.003906 -1.035156 3.65625 -0.765625 4.46875 -0.765625 C 5.28125 -0.765625 5.929688 -1.035156 6.421875 -1.578125 C 6.910156 -2.117188 7.15625 -2.84375 7.15625 -3.75 L 7.15625 -8.875 L 8.125 -8.875 Z M 8.125 -3.75 "/></g></g></g><g fill="#000000" fill-opacity="1"><g transform="translate(28.38725, 12.53887)"><g><path d="M 0.984375 0 L 0.984375 -8.875 L 4.78125 -8.875 C 5.644531 -8.875 6.34375 -8.640625 6.875 -8.171875 C 7.40625 -7.703125 7.671875 -7.085938 7.671875 -6.328125 C 7.671875 -5.742188 7.5 -5.238281 7.15625 -4.8125 C 6.8125 -4.394531 6.351562 -4.109375 5.78125 -3.953125 L 7.78125 0 L 6.703125 0 L 4.796875 -3.8125 L 1.953125 -3.8125 L 1.953125 0 Z M 4.71875 -8 L 1.953125 -8 L 1.953125 -4.640625 L 4.71875 -4.640625 C 5.3125 -4.640625 5.789062 -4.789062 6.15625 -5.09375 C 6.519531 -5.40625 6.703125 -5.816406 6.703125 -6.328125 C 6.703125 -6.835938 6.519531 -7.242188 6.15625 -7.546875 C 5.789062 -7.847656 5.3125 -8 4.71875 -8 Z M 4.71875 -8 "/></g></g></g><g fill="#000000" fill-opacity="1"><g transform="translate(36.5966, 12.53887)"><g><path d="M 0.140625 -1.515625 L 0.78125 -2.1875 C 1.238281 -1.707031 1.726562 -1.34375 2.25 -1.09375 C 2.769531 -0.84375 3.316406 -0.71875 3.890625 -0.71875 C 4.585938 -0.71875 5.160156 -0.882812 5.609375 -1.21875 C 6.054688 -1.550781 6.28125 -1.96875 6.28125 -2.46875 C 6.28125 -2.925781 6.117188 -3.273438 5.796875 -3.515625 C 5.484375 -3.765625 4.960938 -3.953125 4.234375 -4.078125 L 2.953125 -4.28125 C 2.097656 -4.414062 1.46875 -4.664062 1.0625 -5.03125 C 0.65625 -5.394531 0.453125 -5.890625 0.453125 -6.515625 C 0.453125 -7.253906 0.738281 -7.851562 1.3125 -8.3125 C 1.894531 -8.769531 2.648438 -9 3.578125 -9 C 4.191406 -9 4.800781 -8.894531 5.40625 -8.6875 C 6.019531 -8.488281 6.578125 -8.195312 7.078125 -7.8125 L 6.515625 -7.046875 C 6.035156 -7.410156 5.546875 -7.6875 5.046875 -7.875 C 4.546875 -8.0625 4.046875 -8.15625 3.546875 -8.15625 C 2.910156 -8.15625 2.394531 -8.007812 2 -7.71875 C 1.601562 -7.425781 1.40625 -7.050781 1.40625 -6.59375 C 1.40625 -6.175781 1.546875 -5.859375 1.828125 -5.640625 C 2.109375 -5.421875 2.566406 -5.257812 3.203125 -5.15625 L 4.484375 -4.953125 C 5.441406 -4.796875 6.140625 -4.519531 6.578125 -4.125 C 7.023438 -3.738281 7.25 -3.207031 7.25 -2.53125 C 7.25 -2.132812 7.164062 -1.773438 7 -1.453125 C 6.84375 -1.128906 6.613281 -0.847656 6.3125 -0.609375 C 6.007812 -0.378906 5.648438 -0.195312 5.234375 -0.0625 C 4.816406 0.0625 4.359375 0.125 3.859375 0.125 C 3.148438 0.125 2.472656 -0.015625 1.828125 -0.296875 C 1.179688 -0.578125 0.617188 -0.984375 0.140625 -1.515625 Z M 0.140625 -1.515625 "/></g></g></g><g fill="#000000" fill-opacity="1"><g transform="translate(44.209592, 12.53887)"><g><path d="M 0.984375 0 L 0.984375 -8.875 L 7.328125 -8.875 L 7.328125 -8.015625 L 1.953125 -8.015625 L 1.953125 -4.90625 L 5.46875 -4.90625 L 5.46875 -4.0625 L 1.953125 -4.0625 L 1.953125 -0.859375 L 7.390625 -0.859375 L 7.390625 0 Z M 0.984375 0 "/></g></g></g><g fill="#000000" fill-opacity="1"><g transform="translate(52.025594, 12.53887)"><g/></g></g><g fill="#000000" fill-opacity="1"><g transform="translate(54.753583, 12.53887)"><g><path d="M 0.21875 -8 L 0.21875 -8.875 L 7.609375 -8.875 L 7.609375 -8 L 4.40625 -8 L 4.40625 0 L 3.421875 0 L 3.421875 -8 Z M 0.21875 -8 "/></g></g></g><g fill="#000000" fill-opacity="1"><g transform="translate(62.582275, 12.53887)"><g><path d="M 0.984375 0 L 0.984375 -8.875 L 1.953125 -8.875 L 1.953125 0 Z M 0.984375 0 "/></g></g></g><g fill="#000000" fill-opacity="1"><g transform="translate(65.513275, 12.53887)"><g><path d="M 0.21875 -8 L 0.21875 -8.875 L 7.609375 -8.875 L 7.609375 -8 L 4.40625 -8 L 4.40625 0 L 3.421875 0 L 3.421875 -8 Z M 0.21875 -8 "/></g></g></g><g fill="#000000" fill-opacity="1"><g transform="translate(73.341966, 12.53887)"><g><path d="M 0.984375 0 L 0.984375 -8.875 L 1.953125 -8.875 L 1.953125 -0.875 L 7.25 -0.875 L 7.25 0 Z M 0.984375 0 "/></g></g></g><g clip-path="url(#e406107bf0)"><g fill="#000000" fill-opacity="1"><g transform="translate(81.005712, 12.53887)"><g><path d="M 0.984375 0 L 0.984375 -8.875 L 7.328125 -8.875 L 7.328125 -8.015625 L 1.953125 -8.015625 L 1.953125 -4.90625 L 5.46875 -4.90625 L 5.46875 -4.0625 L 1.953125 -4.0625 L 1.953125 -0.859375 L 7.390625 -0.859375 L 7.390625 0 Z M 0.984375 0 "/></g></g></g></g></g></g><g transform="matrix(1, 0, 0, 1, 694, 104)"><g clip-path="url(#553a51008c)"><g fill="#000000" fill-opacity="1"><g transform="translate(0.652397, 12.53887)"><g><path d="M 5.1875 -0.765625 C 5.738281 -0.765625 6.265625 -0.867188 6.765625 -1.078125 C 7.265625 -1.296875 7.679688 -1.597656 8.015625 -1.984375 L 8.65625 -1.3125 C 8.21875 -0.863281 7.691406 -0.507812 7.078125 -0.25 C 6.472656 0.0078125 5.832031 0.140625 5.15625 0.140625 C 4.519531 0.140625 3.921875 0.0195312 3.359375 -0.21875 C 2.796875 -0.457031 2.304688 -0.78125 1.890625 -1.1875 C 1.472656 -1.59375 1.144531 -2.078125 0.90625 -2.640625 C 0.675781 -3.203125 0.5625 -3.800781 0.5625 -4.4375 C 0.5625 -5.070312 0.675781 -5.671875 0.90625 -6.234375 C 1.144531 -6.796875 1.472656 -7.28125 1.890625 -7.6875 C 2.304688 -8.101562 2.796875 -8.425781 3.359375 -8.65625 C 3.921875 -8.894531 4.519531 -9.015625 5.15625 -9.015625 C 5.84375 -9.015625 6.492188 -8.882812 7.109375 -8.625 C 7.722656 -8.375 8.242188 -8.019531 8.671875 -7.5625 L 8.03125 -6.875 C 7.6875 -7.257812 7.253906 -7.5625 6.734375 -7.78125 C 6.222656 -8.007812 5.695312 -8.125 5.15625 -8.125 C 4.65625 -8.125 4.179688 -8.023438 3.734375 -7.828125 C 3.296875 -7.640625 2.914062 -7.382812 2.59375 -7.0625 C 2.269531 -6.738281 2.015625 -6.347656 1.828125 -5.890625 C 1.640625 -5.441406 1.546875 -4.957031 1.546875 -4.4375 C 1.546875 -3.925781 1.640625 -3.441406 1.828125 -2.984375 C 2.015625 -2.535156 2.269531 -2.144531 2.59375 -1.8125 C 2.914062 -1.488281 3.300781 -1.234375 3.75 -1.046875 C 4.195312 -0.859375 4.675781 -0.765625 5.1875 -0.765625 Z M 5.1875 -0.765625 "/></g></g></g><g fill="#000000" fill-opacity="1"><g transform="translate(9.813361, 12.53887)"><g><path d="M 0.984375 0 L 0.984375 -8.875 L 4.78125 -8.875 C 5.644531 -8.875 6.34375 -8.640625 6.875 -8.171875 C 7.40625 -7.703125 7.671875 -7.085938 7.671875 -6.328125 C 7.671875 -5.742188 7.5 -5.238281 7.15625 -4.8125 C 6.8125 -4.394531 6.351562 -4.109375 5.78125 -3.953125 L 7.78125 0 L 6.703125 0 L 4.796875 -3.8125 L 1.953125 -3.8125 L 1.953125 0 Z M 4.71875 -8 L 1.953125 -8 L 1.953125 -4.640625 L 4.71875 -4.640625 C 5.3125 -4.640625 5.789062 -4.789062 6.15625 -5.09375 C 6.519531 -5.40625 6.703125 -5.816406 6.703125 -6.328125 C 6.703125 -6.835938 6.519531 -7.242188 6.15625 -7.546875 C 5.789062 -7.847656 5.3125 -8 4.71875 -8 Z M 4.71875 -8 "/></g></g></g><g fill="#000000" fill-opacity="1"><g transform="translate(17.997327, 12.53887)"><g><path d="M 0.984375 0 L 0.984375 -8.875 L 7.328125 -8.875 L 7.328125 -8.015625 L 1.953125 -8.015625 L 1.953125 -4.90625 L 5.46875 -4.90625 L 5.46875 -4.0625 L 1.953125 -4.0625 L 1.953125 -0.859375 L 7.390625 -0.859375 L 7.390625 0 Z M 0.984375 0 "/></g></g></g><g fill="#000000" fill-opacity="1"><g transform="translate(25.81333, 12.53887)"><g><path d="M 0.984375 0 L 0.984375 -8.875 L 3.90625 -8.875 C 4.570312 -8.875 5.191406 -8.757812 5.765625 -8.53125 C 6.347656 -8.3125 6.84375 -8.007812 7.25 -7.625 C 7.664062 -7.238281 7.988281 -6.769531 8.21875 -6.21875 C 8.457031 -5.675781 8.578125 -5.082031 8.578125 -4.4375 C 8.578125 -3.789062 8.457031 -3.195312 8.21875 -2.65625 C 7.988281 -2.113281 7.664062 -1.644531 7.25 -1.25 C 6.84375 -0.863281 6.351562 -0.554688 5.78125 -0.328125 C 5.207031 -0.109375 4.582031 0 3.90625 0 Z M 3.953125 -8 L 1.953125 -8 L 1.953125 -0.890625 L 3.953125 -0.890625 C 4.460938 -0.890625 4.941406 -0.976562 5.390625 -1.15625 C 5.835938 -1.34375 6.222656 -1.59375 6.546875 -1.90625 C 6.867188 -2.226562 7.125 -2.601562 7.3125 -3.03125 C 7.5 -3.46875 7.59375 -3.9375 7.59375 -4.4375 C 7.59375 -4.9375 7.5 -5.40625 7.3125 -5.84375 C 7.125 -6.28125 6.867188 -6.65625 6.546875 -6.96875 C 6.222656 -7.289062 5.835938 -7.539062 5.390625 -7.71875 C 4.941406 -7.90625 4.460938 -8 3.953125 -8 Z M 3.953125 -8 "/></g></g></g><g fill="#000000" fill-opacity="1"><g transform="translate(34.948917, 12.53887)"><g><path d="M 0.984375 0 L 0.984375 -8.875 L 1.953125 -8.875 L 1.953125 0 Z M 0.984375 0 "/></g></g></g><g fill="#000000" fill-opacity="1"><g transform="translate(37.879917, 12.53887)"><g><path d="M 0.21875 -8 L 0.21875 -8.875 L 7.609375 -8.875 L 7.609375 -8 L 4.40625 -8 L 4.40625 0 L 3.421875 0 L 3.421875 -8 Z M 0.21875 -8 "/></g></g></g><g fill="#000000" fill-opacity="1"><g transform="translate(45.835527, 12.53887)"><g><path d="M 0.140625 -1.515625 L 0.78125 -2.1875 C 1.238281 -1.707031 1.726562 -1.34375 2.25 -1.09375 C 2.769531 -0.84375 3.316406 -0.71875 3.890625 -0.71875 C 4.585938 -0.71875 5.160156 -0.882812 5.609375 -1.21875 C 6.054688 -1.550781 6.28125 -1.96875 6.28125 -2.46875 C 6.28125 -2.925781 6.117188 -3.273438 5.796875 -3.515625 C 5.484375 -3.765625 4.960938 -3.953125 4.234375 -4.078125 L 2.953125 -4.28125 C 2.097656 -4.414062 1.46875 -4.664062 1.0625 -5.03125 C 0.65625 -5.394531 0.453125 -5.890625 0.453125 -6.515625 C 0.453125 -7.253906 0.738281 -7.851562 1.3125 -8.3125 C 1.894531 -8.769531 2.648438 -9 3.578125 -9 C 4.191406 -9 4.800781 -8.894531 5.40625 -8.6875 C 6.019531 -8.488281 6.578125 -8.195312 7.078125 -7.8125 L 6.515625 -7.046875 C 6.035156 -7.410156 5.546875 -7.6875 5.046875 -7.875 C 4.546875 -8.0625 4.046875 -8.15625 3.546875 -8.15625 C 2.910156 -8.15625 2.394531 -8.007812 2 -7.71875 C 1.601562 -7.425781 1.40625 -7.050781 1.40625 -6.59375 C 1.40625 -6.175781 1.546875 -5.859375 1.828125 -5.640625 C 2.109375 -5.421875 2.566406 -5.257812 3.203125 -5.15625 L 4.484375 -4.953125 C 5.441406 -4.796875 6.140625 -4.519531 6.578125 -4.125 C 7.023438 -3.738281 7.25 -3.207031 7.25 -2.53125 C 7.25 -2.132812 7.164062 -1.773438 7 -1.453125 C 6.84375 -1.128906 6.613281 -0.847656 6.3125 -0.609375 C 6.007812 -0.378906 5.648438 -0.195312 5.234375 -0.0625 C 4.816406 0.0625 4.359375 0.125 3.859375 0.125 C 3.148438 0.125 2.472656 -0.015625 1.828125 -0.296875 C 1.179688 -0.578125 0.617188 -0.984375 0.140625 -1.515625 Z M 0.140625 -1.515625 "/></g></g></g></g></g><g transform="matrix(1, 0, 0, 1, 796, 95)"><g clip-path="url(#51436a5039)"><g fill="#000000" fill-opacity="1"><g transform="translate(0.669395, 12.633826)"><g><path d="M 0.984375 0 L 0.984375 -8.875 L 4.78125 -8.875 C 5.644531 -8.875 6.34375 -8.640625 6.875 -8.171875 C 7.40625 -7.703125 7.671875 -7.085938 7.671875 -6.328125 C 7.671875 -5.742188 7.5 -5.238281 7.15625 -4.8125 C 6.8125 -4.394531 6.351562 -4.109375 5.78125 -3.953125 L 7.78125 0 L 6.703125 0 L 4.796875 -3.8125 L 1.953125 -3.8125 L 1.953125 0 Z M 4.71875 -8 L 1.953125 -8 L 1.953125 -4.640625 L 4.71875 -4.640625 C 5.3125 -4.640625 5.789062 -4.789062 6.15625 -5.09375 C 6.519531 -5.40625 6.703125 -5.816406 6.703125 -6.328125 C 6.703125 -6.835938 6.519531 -7.242188 6.15625 -7.546875 C 5.789062 -7.847656 5.3125 -8 4.71875 -8 Z M 4.71875 -8 "/></g></g></g><g fill="#000000" fill-opacity="1"><g transform="translate(8.853361, 12.633826)"><g><path d="M 8.125 -3.75 C 8.125 -2.570312 7.789062 -1.628906 7.125 -0.921875 C 6.46875 -0.210938 5.582031 0.140625 4.46875 0.140625 C 3.34375 0.140625 2.445312 -0.207031 1.78125 -0.90625 C 1.125 -1.613281 0.796875 -2.5625 0.796875 -3.75 L 0.796875 -8.875 L 1.78125 -8.875 L 1.78125 -3.75 C 1.78125 -2.84375 2.023438 -2.117188 2.515625 -1.578125 C 3.003906 -1.035156 3.65625 -0.765625 4.46875 -0.765625 C 5.28125 -0.765625 5.929688 -1.035156 6.421875 -1.578125 C 6.910156 -2.117188 7.15625 -2.84375 7.15625 -3.75 L 7.15625 -8.875 L 8.125 -8.875 Z M 8.125 -3.75 "/></g></g></g><g fill="#000000" fill-opacity="1"><g transform="translate(17.785936, 12.633826)"><g><path d="M 0.984375 -8.875 L 1.953125 -8.875 L 7.296875 -1.671875 L 7.296875 -8.875 L 8.21875 -8.875 L 8.21875 0 L 7.359375 0 L 1.90625 -7.390625 L 1.90625 0 L 0.984375 0 Z M 0.984375 -8.875 "/></g></g></g><g fill="#000000" fill-opacity="1"><g transform="translate(26.984966, 12.633826)"><g><path d="M 0.984375 -8.875 L 1.953125 -8.875 L 7.296875 -1.671875 L 7.296875 -8.875 L 8.21875 -8.875 L 8.21875 0 L 7.359375 0 L 1.90625 -7.390625 L 1.90625 0 L 0.984375 0 Z M 0.984375 -8.875 "/></g></g></g><g fill="#000000" fill-opacity="1"><g transform="translate(36.183997, 12.633826)"><g><path d="M 0.984375 0 L 0.984375 -8.875 L 1.953125 -8.875 L 1.953125 0 Z M 0.984375 0 "/></g></g></g><g fill="#000000" fill-opacity="1"><g transform="translate(39.114997, 12.633826)"><g><path d="M 0.984375 -8.875 L 1.953125 -8.875 L 7.296875 -1.671875 L 7.296875 -8.875 L 8.21875 -8.875 L 8.21875 0 L 7.359375 0 L 1.90625 -7.390625 L 1.90625 0 L 0.984375 0 Z M 0.984375 -8.875 "/></g></g></g><g fill="#000000" fill-opacity="1"><g transform="translate(48.314027, 12.633826)"><g><path d="M 9.46875 -4.25 C 9.46875 -3.632812 9.359375 -3.054688 9.140625 -2.515625 C 8.921875 -1.984375 8.613281 -1.519531 8.21875 -1.125 C 7.832031 -0.738281 7.375 -0.429688 6.84375 -0.203125 C 6.320312 0.0234375 5.757812 0.140625 5.15625 0.140625 C 4.519531 0.140625 3.921875 0.0195312 3.359375 -0.21875 C 2.796875 -0.457031 2.304688 -0.78125 1.890625 -1.1875 C 1.484375 -1.601562 1.160156 -2.085938 0.921875 -2.640625 C 0.679688 -3.203125 0.5625 -3.800781 0.5625 -4.4375 C 0.5625 -5.070312 0.675781 -5.664062 0.90625 -6.21875 C 1.144531 -6.78125 1.46875 -7.265625 1.875 -7.671875 C 2.289062 -8.085938 2.78125 -8.414062 3.34375 -8.65625 C 3.90625 -8.894531 4.503906 -9.015625 5.140625 -9.015625 C 5.828125 -9.015625 6.472656 -8.882812 7.078125 -8.625 C 7.691406 -8.375 8.210938 -8.019531 8.640625 -7.5625 L 7.984375 -6.890625 C 7.640625 -7.273438 7.210938 -7.578125 6.703125 -7.796875 C 6.203125 -8.015625 5.679688 -8.125 5.140625 -8.125 C 4.628906 -8.125 4.15625 -8.023438 3.71875 -7.828125 C 3.28125 -7.640625 2.898438 -7.382812 2.578125 -7.0625 C 2.265625 -6.738281 2.015625 -6.347656 1.828125 -5.890625 C 1.640625 -5.441406 1.546875 -4.957031 1.546875 -4.4375 C 1.546875 -3.925781 1.640625 -3.441406 1.828125 -2.984375 C 2.015625 -2.535156 2.265625 -2.144531 2.578125 -1.8125 C 2.898438 -1.488281 3.28125 -1.234375 3.71875 -1.046875 C 4.15625 -0.859375 4.628906 -0.765625 5.140625 -0.765625 C 5.585938 -0.765625 6.003906 -0.835938 6.390625 -0.984375 C 6.785156 -1.140625 7.128906 -1.347656 7.421875 -1.609375 C 7.710938 -1.878906 7.953125 -2.203125 8.140625 -2.578125 C 8.328125 -2.953125 8.4375 -3.351562 8.46875 -3.78125 L 5.296875 -3.78125 L 5.296875 -4.640625 L 9.46875 -4.640625 Z M 9.46875 -4.25 "/></g></g></g><g fill="#000000" fill-opacity="1"><g transform="translate(8.388424, 30.019864)"><g><path d="M 0.21875 -8 L 0.21875 -8.875 L 7.609375 -8.875 L 7.609375 -8 L 4.40625 -8 L 4.40625 0 L 3.421875 0 L 3.421875 -8 Z M 0.21875 -8 "/></g></g></g><g fill="#000000" fill-opacity="1"><g transform="translate(16.217116, 30.019864)"><g><path d="M 9.703125 -4.4375 C 9.703125 -3.800781 9.582031 -3.203125 9.34375 -2.640625 C 9.113281 -2.078125 8.789062 -1.59375 8.375 -1.1875 C 7.96875 -0.78125 7.484375 -0.457031 6.921875 -0.21875 C 6.367188 0.0195312 5.773438 0.140625 5.140625 0.140625 C 4.503906 0.140625 3.90625 0.0195312 3.34375 -0.21875 C 2.78125 -0.457031 2.289062 -0.78125 1.875 -1.1875 C 1.46875 -1.59375 1.144531 -2.078125 0.90625 -2.640625 C 0.675781 -3.203125 0.5625 -3.800781 0.5625 -4.4375 C 0.5625 -5.070312 0.675781 -5.671875 0.90625 -6.234375 C 1.144531 -6.796875 1.46875 -7.28125 1.875 -7.6875 C 2.289062 -8.101562 2.78125 -8.425781 3.34375 -8.65625 C 3.90625 -8.894531 4.503906 -9.015625 5.140625 -9.015625 C 5.773438 -9.015625 6.367188 -8.894531 6.921875 -8.65625 C 7.484375 -8.425781 7.96875 -8.101562 8.375 -7.6875 C 8.789062 -7.28125 9.113281 -6.796875 9.34375 -6.234375 C 9.582031 -5.671875 9.703125 -5.070312 9.703125 -4.4375 Z M 8.71875 -4.4375 C 8.71875 -4.957031 8.625 -5.441406 8.4375 -5.890625 C 8.25 -6.347656 7.992188 -6.738281 7.671875 -7.0625 C 7.359375 -7.382812 6.984375 -7.640625 6.546875 -7.828125 C 6.109375 -8.023438 5.640625 -8.125 5.140625 -8.125 C 4.628906 -8.125 4.15625 -8.023438 3.71875 -7.828125 C 3.28125 -7.640625 2.898438 -7.382812 2.578125 -7.0625 C 2.265625 -6.738281 2.015625 -6.347656 1.828125 -5.890625 C 1.640625 -5.441406 1.546875 -4.957031 1.546875 -4.4375 C 1.546875 -3.925781 1.640625 -3.445312 1.828125 -3 C 2.015625 -2.550781 2.265625 -2.160156 2.578125 -1.828125 C 2.898438 -1.492188 3.28125 -1.234375 3.71875 -1.046875 C 4.15625 -0.859375 4.628906 -0.765625 5.140625 -0.765625 C 5.640625 -0.765625 6.109375 -0.859375 6.546875 -1.046875 C 6.984375 -1.234375 7.359375 -1.492188 7.671875 -1.828125 C 7.992188 -2.160156 8.25 -2.550781 8.4375 -3 C 8.625 -3.445312 8.71875 -3.925781 8.71875 -4.4375 Z M 8.71875 -4.4375 "/></g></g></g><g fill="#000000" fill-opacity="1"><g transform="translate(26.481964, 30.019864)"><g><path d="M 0.21875 -8 L 0.21875 -8.875 L 7.609375 -8.875 L 7.609375 -8 L 4.40625 -8 L 4.40625 0 L 3.421875 0 L 3.421875 -8 Z M 0.21875 -8 "/></g></g></g><g fill="#000000" fill-opacity="1"><g transform="translate(34.310656, 30.019864)"><g><path d="M 0.046875 0 L 3.75 -8.875 L 4.921875 -8.875 L 8.5625 0 L 7.5 0 L 6.375 -2.796875 L 2.1875 -2.796875 L 1.0625 0 Z M 2.53125 -3.625 L 6.046875 -3.625 L 4.296875 -7.96875 Z M 2.53125 -3.625 "/></g></g></g><g fill="#000000" fill-opacity="1"><g transform="translate(42.926022, 30.019864)"><g><path d="M 0.984375 0 L 0.984375 -8.875 L 1.953125 -8.875 L 1.953125 -0.875 L 7.25 -0.875 L 7.25 0 Z M 0.984375 0 "/></g></g></g></g></g><g clip-path="url(#195219f0e8)"><path stroke-linecap="butt" transform="matrix(0.748891, 0, 0, 0.748891, 34.365752, 93.216118)" fill-opacity="1" fill="#000000" fill-rule="nonzero" stroke-linejoin="miter" d="M 0.56525 1.130182 L 0.56525 649.923293 M 227.567728 1.130182 L 227.567728 649.923293 M 830.522196 1.130182 L 830.522196 649.923293 M 1003.376863 1.130182 L 1003.376863 649.923293 M 1109.4348 1.130182 L 1109.4348 649.923293 M 0.0019171 0.566848 L 1109.998133 0.566848 M 0.0019171 50.5679 L 1109.998133 50.5679 M 0.0019171 96.71429 L 1109.998133 96.71429 M 0.0019171 142.860681 L 1109.998133 142.860681 M 0.0019171 189.012288 L 1109.998133 189.012288 M 0.0019171 235.158678 L 1109.998133 235.158678 M 0.0019171 281.305069 L 1109.998133 281.305069 M 0.0019171 327.45146 L 1109.998133 327.45146 M 0.0019171 373.603067 L 1109.998133 373.603067 M 0.0019171 419.749457 L 1109.998133 419.749457 M 0.0019171 465.895848 L 1109.998133 465.895848 M 0.0019171 512.047455 L 1109.998133 512.047455 M 0.0019171 558.193845 L 1109.998133 558.193845 M 0.0019171 604.340236 L 1109.998133 604.340236 M 0.0019171 650.486627 L 1109.998133 650.486627 " stroke="#000000" stroke-width="1.132475" stroke-opacity="1" stroke-miterlimit="4"/></g></svg>