<svg xmlns="http://www.w3.org/2000/svg" xmlns:xlink="http://www.w3.org/1999/xlink" width="1200" zoomAndPan="magnify" viewBox="0 0 900 675.000002" height="900" preserveAspectRatio="xMidYMid meet" version="1.0"><defs><g/><clipPath id="733697e2c8"><rect x="0" width="75" y="0" height="19"/></clipPath><clipPath id="34eecd7c77"><rect x="0" width="54" y="0" height="19"/></clipPath><clipPath id="38d5f16b11"><path d="M 0.65625 4 L 8 4 L 8 15 L 0.65625 15 Z M 0.65625 4 " clip-rule="nonzero"/></clipPath><clipPath id="1567c473bb"><rect x="0" width="65" y="0" height="18"/></clipPath></defs><path stroke-linecap="butt" transform="matrix(0.748891, -0.000000000000000186, 0.000000000000000186, 0.748891, 68.065824, 544.378592)" fill="none" stroke-linejoin="miter" d="M 0.000776866 0.50116 L 1037.295694 0.50116 " stroke="#000000" stroke-width="1" stroke-opacity="1" stroke-miterlimit="4"/><path stroke-linecap="butt" transform="matrix(0.748891, -0.000000000000000186, 0.000000000000000186, 0.748891, 68.065824, 573.718013)" fill="none" stroke-linejoin="miter" d="M 0.000776866 0.501725 L 1037.295694 0.501725 " stroke="#443d34" stroke-width="1" stroke-opacity="1" stroke-miterlimit="4"/><path stroke-linecap="butt" transform="matrix(0.748891, -0.000000000000000186, 0.000000000000000186, 0.748891, 68.065824, 515.039411)" fill="none" stroke-linejoin="miter" d="M 0.000776866 0.500276 L 1037.295694 0.500276 " stroke="#494746" stroke-width="1" stroke-opacity="1" stroke-miterlimit="4"/><path stroke-linecap="butt" transform="matrix(0, 0.748891, -0.748891, 0, 330.217198, 40.858316)" fill="none" stroke-linejoin="miter" d="M 0.00141359 0.498668 L 672.81965 0.498668 " stroke="#000000" stroke-width="1" stroke-opacity="1" stroke-miterlimit="4"/><path stroke-linecap="butt" transform="matrix(0.748891, -0.000000000000000186, 0.000000000000000186, 0.748891, 68.065824, 485.699966)" fill="none" stroke-linejoin="miter" d="M 0.000776866 0.499743 L 1037.295694 0.499743 " stroke="#494746" stroke-width="1" stroke-opacity="1" stroke-miterlimit="4"/><path stroke-linecap="butt" transform="matrix(0.748891, 0, 0, 0.748891, 68.065824, 456.360545)" fill="none" stroke-linejoin="miter" d="M 0.000776866 0.499179 L 1037.295694 0.499179 " stroke="#494746" stroke-width="1" stroke-opacity="1" stroke-miterlimit="4"/><path stroke-linecap="butt" transform="matrix(0.748891, 0, 0, 0.748891, 68.065824, 427.021363)" fill="none" stroke-linejoin="miter" d="M 0.000776866 0.498295 L 1037.295694 0.498295 " stroke="#494746" stroke-width="1" stroke-opacity="1" stroke-miterlimit="4"/><path stroke-linecap="butt" transform="matrix(0.748891, -0.000000000000000186, 0.000000000000000186, 0.748891, 68.065824, 397.682175)" fill="none" stroke-linejoin="miter" d="M 0.000776866 0.49742 L 1037.295694 0.49742 " stroke="#494746" stroke-width="1" stroke-opacity="1" stroke-miterlimit="4"/><path stroke-linecap="butt" transform="matrix(0.748891, -0.000000000000000093, 0.000000000000000093, 0.748891, 68.065824, 368.342516)" fill="none" stroke-linejoin="miter" d="M 0.000776866 0.502388 L 1037.295694 0.502388 " stroke="#494746" stroke-width="1" stroke-opacity="1" stroke-miterlimit="4"/><path stroke-linecap="butt" transform="matrix(0.748891, -0.000000000000000093, 0.000000000000000093, 0.748891, 68.065824, 339.003328)" fill="none" stroke-linejoin="miter" d="M 0.000776866 0.501513 L 1037.295694 0.501513 " stroke="#494746" stroke-width="1" stroke-opacity="1" stroke-miterlimit="4"/><path stroke-linecap="butt" transform="matrix(0.748891, -0.000000000000000093, 0.000000000000000093, 0.748891, 68.065824, 309.664137)" fill="none" stroke-linejoin="miter" d="M 0.000776866 0.500642 L 1037.295694 0.500642 " stroke="#494746" stroke-width="1" stroke-opacity="1" stroke-miterlimit="4"/><path stroke-linecap="butt" transform="matrix(0.748891, 0, 0, 0.748891, 68.065824, 280.324713)" fill="none" stroke-linejoin="miter" d="M 0.000776866 0.50008 L 1037.295694 0.50008 " stroke="#494746" stroke-width="1" stroke-opacity="1" stroke-miterlimit="4"/><path stroke-linecap="butt" transform="matrix(0.748891, 0, 0, 0.748891, 68.065824, 250.98529)" fill="none" stroke-linejoin="miter" d="M 0.000776866 0.499519 L 1037.295694 0.499519 " stroke="#494746" stroke-width="1" stroke-opacity="1" stroke-miterlimit="4"/><path stroke-linecap="butt" transform="matrix(0.748891, -0.000000000000000186, 0.000000000000000186, 0.748891, 68.065824, 221.646099)" fill="none" stroke-linejoin="miter" d="M 0.000776866 0.498648 L 1037.295694 0.498648 " stroke="#494746" stroke-width="1" stroke-opacity="1" stroke-miterlimit="4"/><path stroke-linecap="butt" transform="matrix(0.748891, -0.000000000000000093, 0.000000000000000093, 0.748891, 68.065824, 192.306675)" fill="none" stroke-linejoin="miter" d="M 0.000776866 0.498086 L 1037.295694 0.498086 " stroke="#494746" stroke-width="1" stroke-opacity="1" stroke-miterlimit="4"/><path stroke-linecap="butt" transform="matrix(0.748891, 0, 0, 0.748891, 68.065824, 162.967487)" fill="none" stroke-linejoin="miter" d="M 0.000776866 0.502428 L 1037.295694 0.502428 " stroke="#494746" stroke-width="1" stroke-opacity="1" stroke-miterlimit="4"/><path stroke-linecap="butt" transform="matrix(0.748891, -0.000000000000000093, 0.000000000000000093, 0.748891, 68.065824, 133.628063)" fill="none" stroke-linejoin="miter" d="M 0.000776866 0.501866 L 1037.295694 0.501866 " stroke="#494746" stroke-width="1" stroke-opacity="1" stroke-miterlimit="4"/><path stroke-linecap="butt" transform="matrix(0.748891, -0.000000000000000093, 0.000000000000000093, 0.748891, 68.065824, 104.28864)" fill="none" stroke-linejoin="miter" d="M 0.000776866 0.501305 L 1037.295694 0.501305 " stroke="#494746" stroke-width="1" stroke-opacity="1" stroke-miterlimit="4"/><path stroke-linecap="butt" transform="matrix(0.748891, -0.000000000000000093, 0.000000000000000093, 0.748891, 68.065824, 74.949449)" fill="none" stroke-linejoin="miter" d="M 0.000776866 0.500433 L 1037.295694 0.500433 " stroke="#494746" stroke-width="1" stroke-opacity="1" stroke-miterlimit="4"/><path stroke-linecap="butt" transform="matrix(0.748891, 0, 0, 0.748891, 68.065824, 603.057195)" fill="none" stroke-linejoin="miter" d="M 0.000776866 0.497393 L 1037.295694 0.497393 " stroke="#443d34" stroke-width="1" stroke-opacity="1" stroke-miterlimit="4"/><path stroke-linecap="butt" transform="matrix(0.748891, 0, 0, 0.748891, 68.065824, 632.396616)" fill="none" stroke-linejoin="miter" d="M 0.000776866 0.497957 L 1037.295694 0.497957 " stroke="#443d34" stroke-width="1" stroke-opacity="1" stroke-miterlimit="4"/><g transform="matrix(1, 0, 0, 1, 132, 50)"><g clip-path="url(#733697e2c8)"><g fill="#000000" fill-opacity="1"><g transform="translate(0.492772, 14.242374)"><g><path d="M 0.984375 0 L 0.984375 -8.921875 L 1.96875 -8.921875 L 1.96875 -4.6875 L 6.578125 -8.921875 L 7.859375 -8.921875 L 3.015625 -4.546875 L 7.96875 0 L 6.59375 0 L 1.96875 -4.28125 L 1.96875 0 Z M 0.984375 0 "/></g></g></g><g fill="#000000" fill-opacity="1"><g transform="translate(8.348805, 14.242374)"><g><path d="M 0.984375 0 L 0.984375 -8.921875 L 7.375 -8.921875 L 7.375 -8.0625 L 1.96875 -8.0625 L 1.96875 -4.9375 L 5.5 -4.9375 L 5.5 -4.078125 L 1.96875 -4.078125 L 1.96875 -0.859375 L 7.421875 -0.859375 L 7.421875 0 Z M 0.984375 0 "/></g></g></g><g fill="#000000" fill-opacity="1"><g transform="translate(16.192106, 14.242374)"><g><path d="M 3.578125 0 L 3.578125 -3.640625 L 0.03125 -8.921875 L 1.1875 -8.921875 L 4.109375 -4.5 L 7.015625 -8.921875 L 8.125 -8.921875 L 4.5625 -3.59375 L 4.5625 0 Z M 3.578125 0 "/></g></g></g><g fill="#000000" fill-opacity="1"><g transform="translate(24.32826, 14.242374)"><g/></g></g><g fill="#000000" fill-opacity="1"><g transform="translate(27.065781, 14.242374)"><g><path d="M 0.984375 0 L 0.984375 -8.921875 L 4.859375 -8.921875 C 5.722656 -8.921875 6.414062 -8.6875 6.9375 -8.21875 C 7.46875 -7.75 7.734375 -7.125 7.734375 -6.34375 C 7.734375 -5.570312 7.46875 -4.945312 6.9375 -4.46875 C 6.40625 -4 5.710938 -3.765625 4.859375 -3.765625 L 1.96875 -3.765625 L 1.96875 0 Z M 4.78125 -8.046875 L 1.96875 -8.046875 L 1.96875 -4.609375 L 4.78125 -4.609375 C 5.382812 -4.609375 5.863281 -4.765625 6.21875 -5.078125 C 6.570312 -5.390625 6.75 -5.8125 6.75 -6.34375 C 6.75 -6.863281 6.570312 -7.273438 6.21875 -7.578125 C 5.863281 -7.890625 5.382812 -8.046875 4.78125 -8.046875 Z M 4.78125 -8.046875 "/></g></g></g><g fill="#000000" fill-opacity="1"><g transform="translate(35.303793, 14.242374)"><g><path d="M 9.75 -4.46875 C 9.75 -3.820312 9.628906 -3.21875 9.390625 -2.65625 C 9.160156 -2.09375 8.835938 -1.601562 8.421875 -1.1875 C 8.003906 -0.78125 7.515625 -0.457031 6.953125 -0.21875 C 6.398438 0.0195312 5.800781 0.140625 5.15625 0.140625 C 4.519531 0.140625 3.921875 0.0195312 3.359375 -0.21875 C 2.796875 -0.457031 2.304688 -0.78125 1.890625 -1.1875 C 1.484375 -1.601562 1.160156 -2.09375 0.921875 -2.65625 C 0.679688 -3.21875 0.5625 -3.820312 0.5625 -4.46875 C 0.5625 -5.101562 0.679688 -5.703125 0.921875 -6.265625 C 1.160156 -6.828125 1.484375 -7.3125 1.890625 -7.71875 C 2.304688 -8.132812 2.796875 -8.460938 3.359375 -8.703125 C 3.921875 -8.941406 4.519531 -9.0625 5.15625 -9.0625 C 5.800781 -9.0625 6.398438 -8.941406 6.953125 -8.703125 C 7.515625 -8.460938 8.003906 -8.132812 8.421875 -7.71875 C 8.835938 -7.3125 9.160156 -6.828125 9.390625 -6.265625 C 9.628906 -5.703125 9.75 -5.101562 9.75 -4.46875 Z M 8.765625 -4.46875 C 8.765625 -4.976562 8.671875 -5.460938 8.484375 -5.921875 C 8.296875 -6.378906 8.039062 -6.769531 7.71875 -7.09375 C 7.394531 -7.425781 7.015625 -7.6875 6.578125 -7.875 C 6.140625 -8.0625 5.664062 -8.15625 5.15625 -8.15625 C 4.65625 -8.15625 4.179688 -8.0625 3.734375 -7.875 C 3.296875 -7.6875 2.914062 -7.425781 2.59375 -7.09375 C 2.269531 -6.769531 2.015625 -6.378906 1.828125 -5.921875 C 1.648438 -5.460938 1.5625 -4.976562 1.5625 -4.46875 C 1.5625 -3.945312 1.648438 -3.457031 1.828125 -3 C 2.015625 -2.550781 2.269531 -2.160156 2.59375 -1.828125 C 2.914062 -1.503906 3.296875 -1.242188 3.734375 -1.046875 C 4.179688 -0.859375 4.65625 -0.765625 5.15625 -0.765625 C 5.664062 -0.765625 6.140625 -0.859375 6.578125 -1.046875 C 7.015625 -1.242188 7.394531 -1.503906 7.71875 -1.828125 C 8.039062 -2.160156 8.296875 -2.550781 8.484375 -3 C 8.671875 -3.457031 8.765625 -3.945312 8.765625 -4.46875 Z M 8.765625 -4.46875 "/></g></g></g><g fill="#000000" fill-opacity="1"><g transform="translate(45.604492, 14.242374)"><g><path d="M 0.984375 0 L 0.984375 -8.921875 L 1.96875 -8.921875 L 1.96875 0 Z M 0.984375 0 "/></g></g></g><g fill="#000000" fill-opacity="1"><g transform="translate(48.545729, 14.242374)"><g><path d="M 0.984375 -8.921875 L 1.96875 -8.921875 L 7.328125 -1.6875 L 7.328125 -8.921875 L 8.265625 -8.921875 L 8.265625 0 L 7.390625 0 L 1.90625 -7.4375 L 1.90625 0 L 0.984375 0 Z M 0.984375 -8.921875 "/></g></g></g><g fill="#000000" fill-opacity="1"><g transform="translate(57.776894, 14.242374)"><g><path d="M 0.21875 -8.046875 L 0.21875 -8.921875 L 7.65625 -8.921875 L 7.65625 -8.046875 L 4.421875 -8.046875 L 4.421875 0 L 3.4375 0 L 3.4375 -8.046875 Z M 0.21875 -8.046875 "/></g></g></g><g fill="#000000" fill-opacity="1"><g transform="translate(65.632927, 14.242374)"><g><path d="M 0.140625 -1.53125 L 0.796875 -2.203125 C 1.253906 -1.722656 1.742188 -1.359375 2.265625 -1.109375 C 2.785156 -0.859375 3.335938 -0.734375 3.921875 -0.734375 C 4.609375 -0.734375 5.175781 -0.894531 5.625 -1.21875 C 6.082031 -1.550781 6.3125 -1.972656 6.3125 -2.484375 C 6.3125 -2.941406 6.148438 -3.296875 5.828125 -3.546875 C 5.515625 -3.796875 4.992188 -3.976562 4.265625 -4.09375 L 2.96875 -4.296875 C 2.113281 -4.429688 1.476562 -4.679688 1.0625 -5.046875 C 0.65625 -5.421875 0.453125 -5.921875 0.453125 -6.546875 C 0.453125 -7.285156 0.738281 -7.882812 1.3125 -8.34375 C 1.894531 -8.8125 2.65625 -9.046875 3.59375 -9.046875 C 4.21875 -9.046875 4.832031 -8.941406 5.4375 -8.734375 C 6.050781 -8.523438 6.609375 -8.234375 7.109375 -7.859375 L 6.546875 -7.09375 C 6.066406 -7.457031 5.578125 -7.734375 5.078125 -7.921875 C 4.578125 -8.109375 4.070312 -8.203125 3.5625 -8.203125 C 2.914062 -8.203125 2.394531 -8.050781 2 -7.75 C 1.613281 -7.457031 1.421875 -7.082031 1.421875 -6.625 C 1.421875 -6.207031 1.554688 -5.890625 1.828125 -5.671875 C 2.109375 -5.453125 2.570312 -5.289062 3.21875 -5.1875 L 4.5 -4.984375 C 5.46875 -4.828125 6.175781 -4.550781 6.625 -4.15625 C 7.070312 -3.757812 7.296875 -3.21875 7.296875 -2.53125 C 7.296875 -2.144531 7.210938 -1.785156 7.046875 -1.453125 C 6.878906 -1.128906 6.644531 -0.847656 6.34375 -0.609375 C 6.039062 -0.378906 5.675781 -0.195312 5.25 -0.0625 C 4.832031 0.0625 4.375 0.125 3.875 0.125 C 3.164062 0.125 2.484375 -0.015625 1.828125 -0.296875 C 1.179688 -0.585938 0.617188 -1 0.140625 -1.53125 Z M 0.140625 -1.53125 "/></g></g></g></g></g><g transform="matrix(1, 0, 0, 1, 560, 50)"><g clip-path="url(#34eecd7c77)"><g fill="#000000" fill-opacity="1"><g transform="translate(1.077469, 14.242374)"><g><path d="M 0.984375 0 L 0.984375 -8.921875 L 3.921875 -8.921875 C 4.597656 -8.921875 5.222656 -8.804688 5.796875 -8.578125 C 6.378906 -8.359375 6.878906 -8.050781 7.296875 -7.65625 C 7.710938 -7.269531 8.035156 -6.800781 8.265625 -6.25 C 8.503906 -5.707031 8.625 -5.113281 8.625 -4.46875 C 8.625 -3.820312 8.503906 -3.222656 8.265625 -2.671875 C 8.035156 -2.117188 7.710938 -1.644531 7.296875 -1.25 C 6.890625 -0.863281 6.394531 -0.554688 5.8125 -0.328125 C 5.238281 -0.109375 4.609375 0 3.921875 0 Z M 3.984375 -8.03125 L 1.96875 -8.03125 L 1.96875 -0.890625 L 3.984375 -0.890625 C 4.492188 -0.890625 4.972656 -0.976562 5.421875 -1.15625 C 5.867188 -1.34375 6.253906 -1.59375 6.578125 -1.90625 C 6.898438 -2.226562 7.15625 -2.609375 7.34375 -3.046875 C 7.53125 -3.484375 7.625 -3.957031 7.625 -4.46875 C 7.625 -4.96875 7.53125 -5.4375 7.34375 -5.875 C 7.15625 -6.3125 6.898438 -6.6875 6.578125 -7 C 6.253906 -7.320312 5.867188 -7.570312 5.421875 -7.75 C 4.972656 -7.9375 4.492188 -8.03125 3.984375 -8.03125 Z M 3.984375 -8.03125 "/></g></g></g><g fill="#000000" fill-opacity="1"><g transform="translate(10.244972, 14.242374)"><g><path d="M 0.984375 0 L 0.984375 -8.921875 L 7.375 -8.921875 L 7.375 -8.0625 L 1.96875 -8.0625 L 1.96875 -4.9375 L 5.5 -4.9375 L 5.5 -4.078125 L 1.96875 -4.078125 L 1.96875 -0.859375 L 7.421875 -0.859375 L 7.421875 0 Z M 0.984375 0 "/></g></g></g><g fill="#000000" fill-opacity="1"><g transform="translate(18.088273, 14.242374)"><g><path d="M 0.21875 -8.046875 L 0.21875 -8.921875 L 7.65625 -8.921875 L 7.65625 -8.046875 L 4.421875 -8.046875 L 4.421875 0 L 3.4375 0 L 3.4375 -8.046875 Z M 0.21875 -8.046875 "/></g></g></g><g fill="#000000" fill-opacity="1"><g transform="translate(25.944306, 14.242374)"><g><path d="M 0.046875 0 L 3.765625 -8.921875 L 4.953125 -8.921875 L 8.609375 0 L 7.53125 0 L 6.40625 -2.8125 L 2.203125 -2.8125 L 1.078125 0 Z M 2.546875 -3.640625 L 6.0625 -3.640625 L 4.328125 -8 Z M 2.546875 -3.640625 "/></g></g></g><g fill="#000000" fill-opacity="1"><g transform="translate(34.589763, 14.242374)"><g><path d="M 0.984375 0 L 0.984375 -8.921875 L 1.96875 -8.921875 L 1.96875 0 Z M 0.984375 0 "/></g></g></g><g fill="#000000" fill-opacity="1"><g transform="translate(37.530999, 14.242374)"><g><path d="M 0.984375 0 L 0.984375 -8.921875 L 1.96875 -8.921875 L 1.96875 -0.875 L 7.28125 -0.875 L 7.28125 0 Z M 0.984375 0 "/></g></g></g><g fill="#000000" fill-opacity="1"><g transform="translate(45.221513, 14.242374)"><g><path d="M 0.140625 -1.53125 L 0.796875 -2.203125 C 1.253906 -1.722656 1.742188 -1.359375 2.265625 -1.109375 C 2.785156 -0.859375 3.335938 -0.734375 3.921875 -0.734375 C 4.609375 -0.734375 5.175781 -0.894531 5.625 -1.21875 C 6.082031 -1.550781 6.3125 -1.972656 6.3125 -2.484375 C 6.3125 -2.941406 6.148438 -3.296875 5.828125 -3.546875 C 5.515625 -3.796875 4.992188 -3.976562 4.265625 -4.09375 L 2.96875 -4.296875 C 2.113281 -4.429688 1.476562 -4.679688 1.0625 -5.046875 C 0.65625 -5.421875 0.453125 -5.921875 0.453125 -6.546875 C 0.453125 -7.285156 0.738281 -7.882812 1.3125 -8.34375 C 1.894531 -8.8125 2.65625 -9.046875 3.59375 -9.046875 C 4.21875 -9.046875 4.832031 -8.941406 5.4375 -8.734375 C 6.050781 -8.523438 6.609375 -8.234375 7.109375 -7.859375 L 6.546875 -7.09375 C 6.066406 -7.457031 5.578125 -7.734375 5.078125 -7.921875 C 4.578125 -8.109375 4.070312 -8.203125 3.5625 -8.203125 C 2.914062 -8.203125 2.394531 -8.050781 2 -7.75 C 1.613281 -7.457031 1.421875 -7.082031 1.421875 -6.625 C 1.421875 -6.207031 1.554688 -5.890625 1.828125 -5.671875 C 2.109375 -5.453125 2.570312 -5.289062 3.21875 -5.1875 L 4.5 -4.984375 C 5.46875 -4.828125 6.175781 -4.550781 6.625 -4.15625 C 7.070312 -3.757812 7.296875 -3.21875 7.296875 -2.53125 C 7.296875 -2.144531 7.210938 -1.785156 7.046875 -1.453125 C 6.878906 -1.128906 6.644531 -0.847656 6.34375 -0.609375 C 6.039062 -0.378906 5.675781 -0.195312 5.25 -0.0625 C 4.832031 0.0625 4.375 0.125 3.875 0.125 C 3.164062 0.125 2.484375 -0.015625 1.828125 -0.296875 C 1.179688 -0.585938 0.617188 -1 0.140625 -1.53125 Z M 0.140625 -1.53125 "/></g></g></g></g></g><g transform="matrix(1, 0, 0, 1, 87, 551)"><g clip-path="url(#1567c473bb)"><g clip-path="url(#38d5f16b11)"><g fill="#000000" fill-opacity="1"><g transform="translate(0.684174, 13.980275)"><g><path d="M 0.140625 -1.53125 L 0.796875 -2.203125 C 1.253906 -1.722656 1.742188 -1.359375 2.265625 -1.109375 C 2.785156 -0.859375 3.335938 -0.734375 3.921875 -0.734375 C 4.609375 -0.734375 5.175781 -0.894531 5.625 -1.21875 C 6.082031 -1.550781 6.3125 -1.972656 6.3125 -2.484375 C 6.3125 -2.941406 6.148438 -3.296875 5.828125 -3.546875 C 5.515625 -3.796875 4.992188 -3.976562 4.265625 -4.09375 L 2.96875 -4.296875 C 2.113281 -4.429688 1.476562 -4.679688 1.0625 -5.046875 C 0.65625 -5.421875 0.453125 -5.921875 0.453125 -6.546875 C 0.453125 -7.285156 0.738281 -7.882812 1.3125 -8.34375 C 1.894531 -8.8125 2.65625 -9.046875 3.59375 -9.046875 C 4.21875 -9.046875 4.832031 -8.941406 5.4375 -8.734375 C 6.050781 -8.523438 6.609375 -8.234375 7.109375 -7.859375 L 6.546875 -7.09375 C 6.066406 -7.457031 5.578125 -7.734375 5.078125 -7.921875 C 4.578125 -8.109375 4.070312 -8.203125 3.5625 -8.203125 C 2.914062 -8.203125 2.394531 -8.050781 2 -7.75 C 1.613281 -7.457031 1.421875 -7.082031 1.421875 -6.625 C 1.421875 -6.207031 1.554688 -5.890625 1.828125 -5.671875 C 2.109375 -5.453125 2.570312 -5.289062 3.21875 -5.1875 L 4.5 -4.984375 C 5.46875 -4.828125 6.175781 -4.550781 6.625 -4.15625 C 7.070312 -3.757812 7.296875 -3.21875 7.296875 -2.53125 C 7.296875 -2.144531 7.210938 -1.785156 7.046875 -1.453125 C 6.878906 -1.128906 6.644531 -0.847656 6.34375 -0.609375 C 6.039062 -0.378906 5.675781 -0.195312 5.25 -0.0625 C 4.832031 0.0625 4.375 0.125 3.875 0.125 C 3.164062 0.125 2.484375 -0.015625 1.828125 -0.296875 C 1.179688 -0.585938 0.617188 -1 0.140625 -1.53125 Z M 0.140625 -1.53125 "/></g></g></g></g><g fill="#000000" fill-opacity="1"><g transform="translate(8.323758, 13.980275)"><g><path d="M 8.171875 -3.78125 C 8.171875 -2.582031 7.835938 -1.628906 7.171875 -0.921875 C 6.503906 -0.210938 5.609375 0.140625 4.484375 0.140625 C 3.359375 0.140625 2.460938 -0.207031 1.796875 -0.90625 C 1.128906 -1.613281 0.796875 -2.570312 0.796875 -3.78125 L 0.796875 -8.921875 L 1.78125 -8.921875 L 1.78125 -3.78125 C 1.78125 -2.863281 2.023438 -2.128906 2.515625 -1.578125 C 3.015625 -1.035156 3.671875 -0.765625 4.484375 -0.765625 C 5.304688 -0.765625 5.960938 -1.035156 6.453125 -1.578125 C 6.941406 -2.128906 7.1875 -2.863281 7.1875 -3.78125 L 7.1875 -8.921875 L 8.171875 -8.921875 Z M 8.171875 -3.78125 "/></g></g></g><g fill="#000000" fill-opacity="1"><g transform="translate(17.287534, 13.980275)"><g><path d="M 5.390625 -0.640625 L 1.90625 -7.796875 L 1.90625 0 L 0.984375 0 L 0.984375 -8.921875 L 2.359375 -8.921875 L 5.40625 -2.59375 L 8.4375 -8.921875 L 9.8125 -8.921875 L 9.8125 0 L 8.890625 0 L 8.890625 -7.796875 Z M 5.390625 -0.640625 "/></g></g></g><g fill="#000000" fill-opacity="1"><g transform="translate(28.072071, 13.980275)"><g><path d="M 5.390625 -0.640625 L 1.90625 -7.796875 L 1.90625 0 L 0.984375 0 L 0.984375 -8.921875 L 2.359375 -8.921875 L 5.40625 -2.59375 L 8.4375 -8.921875 L 9.8125 -8.921875 L 9.8125 0 L 8.890625 0 L 8.890625 -7.796875 Z M 5.390625 -0.640625 "/></g></g></g><g fill="#000000" fill-opacity="1"><g transform="translate(38.856608, 13.980275)"><g><path d="M 0.046875 0 L 3.765625 -8.921875 L 4.953125 -8.921875 L 8.609375 0 L 7.53125 0 L 6.40625 -2.8125 L 2.203125 -2.8125 L 1.078125 0 Z M 2.546875 -3.640625 L 6.0625 -3.640625 L 4.328125 -8 Z M 2.546875 -3.640625 "/></g></g></g><g fill="#000000" fill-opacity="1"><g transform="translate(47.502065, 13.980275)"><g><path d="M 0.984375 0 L 0.984375 -8.921875 L 4.8125 -8.921875 C 5.675781 -8.921875 6.375 -8.6875 6.90625 -8.21875 C 7.445312 -7.75 7.71875 -7.128906 7.71875 -6.359375 C 7.71875 -5.773438 7.546875 -5.269531 7.203125 -4.84375 C 6.859375 -4.414062 6.394531 -4.125 5.8125 -3.96875 L 7.8125 0 L 6.734375 0 L 4.8125 -3.84375 L 1.96875 -3.84375 L 1.96875 0 Z M 4.75 -8.046875 L 1.96875 -8.046875 L 1.96875 -4.671875 L 4.75 -4.671875 C 5.34375 -4.671875 5.820312 -4.820312 6.1875 -5.125 C 6.550781 -5.4375 6.734375 -5.847656 6.734375 -6.359375 C 6.734375 -6.867188 6.550781 -7.273438 6.1875 -7.578125 C 5.820312 -7.890625 5.34375 -8.046875 4.75 -8.046875 Z M 4.75 -8.046875 "/></g></g></g><g fill="#000000" fill-opacity="1"><g transform="translate(55.714614, 13.980275)"><g><path d="M 3.578125 0 L 3.578125 -3.640625 L 0.03125 -8.921875 L 1.1875 -8.921875 L 4.109375 -4.5 L 7.015625 -8.921875 L 8.125 -8.921875 L 4.5625 -3.59375 L 4.5625 0 Z M 3.578125 0 "/></g></g></g></g></g></svg>