<svg xmlns="http://www.w3.org/2000/svg" xmlns:xlink="http://www.w3.org/1999/xlink" width="1167" zoomAndPan="magnify" viewBox="0 0 876 1326.749967" height="1800" preserveAspectRatio="xMidYMid meet" version="1.0"><defs><g/><clipPath id="feed84edc7"><path d="M 0.0820312 1191 L 875.167969 1191 L 875.167969 1193 L 0.0820312 1193 Z M 0.0820312 1191 " clip-rule="nonzero"/></clipPath><clipPath id="1bfbd48e58"><path d="M 0.0820312 1224 L 875.167969 1224 L 875.167969 1226 L 0.0820312 1226 Z M 0.0820312 1224 " clip-rule="nonzero"/></clipPath><clipPath id="2684e7873d"><path d="M 0.0820312 113 L 875.167969 113 L 875.167969 578 L 0.0820312 578 Z M 0.0820312 113 " clip-rule="nonzero"/></clipPath><clipPath id="9a79977439"><path d="M 0.0820312 463 L 875.167969 463 L 875.167969 464.332031 L 0.0820312 464.332031 Z M 0.0820312 463 " clip-rule="nonzero"/></clipPath><clipPath id="2635ef2a3b"><path d="M 0.0820312 430 L 875.167969 430 L 875.167969 432 L 0.0820312 432 Z M 0.0820312 430 " clip-rule="nonzero"/></clipPath><clipPath id="bd03b7dc34"><path d="M 0.0820312 397 L 875.167969 397 L 875.167969 399 L 0.0820312 399 Z M 0.0820312 397 " clip-rule="nonzero"/></clipPath><clipPath id="cb247a9fff"><path d="M 0.0820312 364 L 875.167969 364 L 875.167969 366 L 0.0820312 366 Z M 0.0820312 364 " clip-rule="nonzero"/></clipPath><clipPath id="07b299c23e"><path d="M 0.0820312 331 L 875.167969 331 L 875.167969 333 L 0.0820312 333 Z M 0.0820312 331 " clip-rule="nonzero"/></clipPath><clipPath id="2099c70045"><path d="M 0.0820312 298 L 875.167969 298 L 875.167969 300 L 0.0820312 300 Z M 0.0820312 298 " clip-rule="nonzero"/></clipPath><clipPath id="fe3e7d4961"><path d="M 0.0820312 265 L 875.167969 265 L 875.167969 266 L 0.0820312 266 Z M 0.0820312 265 " clip-rule="nonzero"/></clipPath><clipPath id="a5ffac4f6a"><path d="M 0.0820312 232 L 875.167969 232 L 875.167969 233 L 0.0820312 233 Z M 0.0820312 232 " clip-rule="nonzero"/></clipPath><clipPath id="ba67f65017"><path d="M 0.0820312 199 L 875.167969 199 L 875.167969 200 L 0.0820312 200 Z M 0.0820312 199 " clip-rule="nonzero"/></clipPath><clipPath id="e3c7f27344"><path d="M 0.0820312 166 L 875.167969 166 L 875.167969 167 L 0.0820312 167 Z M 0.0820312 166 " clip-rule="nonzero"/></clipPath><clipPath id="c1cc39640e"><path d="M 0.0820312 133 L 875.167969 133 L 875.167969 134 L 0.0820312 134 Z M 0.0820312 133 " clip-rule="nonzero"/></clipPath><clipPath id="8a82958ed2"><path d="M 0.0820312 99 L 875.167969 99 L 875.167969 101 L 0.0820312 101 Z M 0.0820312 99 " clip-rule="nonzero"/></clipPath><clipPath id="1ce3300339"><path d="M 0.0820312 66 L 875.167969 66 L 875.167969 68 L 0.0820312 68 Z M 0.0820312 66 " clip-rule="nonzero"/></clipPath><clipPath id="eafeb9d3b5"><path d="M 0.0820312 33 L 875.167969 33 L 875.167969 35 L 0.0820312 35 Z M 0.0820312 33 " clip-rule="nonzero"/></clipPath><clipPath id="28116b1973"><path d="M 0.0820312 0.738281 L 875.167969 0.738281 L 875.167969 2 L 0.0820312 2 Z M 0.0820312 0.738281 " clip-rule="nonzero"/></clipPath><clipPath id="12d68486db"><rect x="0" width="876" y="0" height="465"/></clipPath><clipPath id="04888d58c2"><path d="M 0.0820312 43 L 875.167969 43 L 875.167969 45 L 0.0820312 45 Z M 0.0820312 43 " clip-rule="nonzero"/></clipPath><clipPath id="41b3927866"><path d="M 0.0820312 1127 L 875.167969 1127 L 875.167969 1129 L 0.0820312 1129 Z M 0.0820312 1127 " clip-rule="nonzero"/></clipPath><clipPath id="f5faedf4be"><path d="M 0.0820312 1160 L 875.167969 1160 L 875.167969 1162 L 0.0820312 1162 Z M 0.0820312 1160 " clip-rule="nonzero"/></clipPath><clipPath id="76db37df54"><rect x="0" width="142" y="0" height="32"/></clipPath><clipPath id="c0c01a0144"><rect x="0" width="99" y="0" height="32"/></clipPath><clipPath id="20b7080b8c"><rect x="0" width="123" y="0" height="33"/></clipPath><clipPath id="27f923fdf6"><path d="M 0.0820312 633 L 875.167969 633 L 875.167969 1098 L 0.0820312 1098 Z M 0.0820312 633 " clip-rule="nonzero"/></clipPath><clipPath id="abd31333e3"><path d="M 0.0820312 463 L 875.167969 463 L 875.167969 464.3125 L 0.0820312 464.3125 Z M 0.0820312 463 " clip-rule="nonzero"/></clipPath><clipPath id="6ef850bf34"><path d="M 0.0820312 430 L 875.167969 430 L 875.167969 432 L 0.0820312 432 Z M 0.0820312 430 " clip-rule="nonzero"/></clipPath><clipPath id="9577b3adf1"><path d="M 0.0820312 397 L 875.167969 397 L 875.167969 399 L 0.0820312 399 Z M 0.0820312 397 " clip-rule="nonzero"/></clipPath><clipPath id="87bd5f4799"><path d="M 0.0820312 364 L 875.167969 364 L 875.167969 365 L 0.0820312 365 Z M 0.0820312 364 " clip-rule="nonzero"/></clipPath><clipPath id="2d33ee579b"><path d="M 0.0820312 331 L 875.167969 331 L 875.167969 332 L 0.0820312 332 Z M 0.0820312 331 " clip-rule="nonzero"/></clipPath><clipPath id="732753b2d7"><path d="M 0.0820312 298 L 875.167969 298 L 875.167969 299 L 0.0820312 299 Z M 0.0820312 298 " clip-rule="nonzero"/></clipPath><clipPath id="47ef50ebce"><path d="M 0.0820312 265 L 875.167969 265 L 875.167969 266 L 0.0820312 266 Z M 0.0820312 265 " clip-rule="nonzero"/></clipPath><clipPath id="32f8cf84b5"><path d="M 0.0820312 232 L 875.167969 232 L 875.167969 233 L 0.0820312 233 Z M 0.0820312 232 " clip-rule="nonzero"/></clipPath><clipPath id="bc55abc360"><path d="M 0.0820312 198 L 875.167969 198 L 875.167969 200 L 0.0820312 200 Z M 0.0820312 198 " clip-rule="nonzero"/></clipPath><clipPath id="d6976f0bef"><path d="M 0.0820312 165 L 875.167969 165 L 875.167969 167 L 0.0820312 167 Z M 0.0820312 165 " clip-rule="nonzero"/></clipPath><clipPath id="b0baf5f2ce"><path d="M 0.0820312 132 L 875.167969 132 L 875.167969 134 L 0.0820312 134 Z M 0.0820312 132 " clip-rule="nonzero"/></clipPath><clipPath id="eebd006722"><path d="M 0.0820312 99 L 875.167969 99 L 875.167969 101 L 0.0820312 101 Z M 0.0820312 99 " clip-rule="nonzero"/></clipPath><clipPath id="596fe1e462"><path d="M 0.0820312 66 L 875.167969 66 L 875.167969 68 L 0.0820312 68 Z M 0.0820312 66 " clip-rule="nonzero"/></clipPath><clipPath id="70a3de0fa2"><path d="M 0.0820312 33 L 875.167969 33 L 875.167969 35 L 0.0820312 35 Z M 0.0820312 33 " clip-rule="nonzero"/></clipPath><clipPath id="2a71e7e060"><path d="M 0.0820312 0.480469 L 875.167969 0.480469 L 875.167969 2 L 0.0820312 2 Z M 0.0820312 0.480469 " clip-rule="nonzero"/></clipPath><clipPath id="730582d9c3"><rect x="0" width="876" y="0" height="465"/></clipPath><clipPath id="ef4df082df"><path d="M 0.0820312 1257 L 875.167969 1257 L 875.167969 1259 L 0.0820312 1259 Z M 0.0820312 1257 " clip-rule="nonzero"/></clipPath><clipPath id="d16ba9e135"><path d="M 0.0820312 1290 L 875.167969 1290 L 875.167969 1292 L 0.0820312 1292 Z M 0.0820312 1290 " clip-rule="nonzero"/></clipPath><clipPath id="d798c3dfab"><path d="M 0.0820312 1323 L 875.167969 1323 L 875.167969 1325 L 0.0820312 1325 Z M 0.0820312 1323 " clip-rule="nonzero"/></clipPath></defs><g clip-path="url(#feed84edc7)"><path stroke-linecap="butt" transform="matrix(0.749859, 0, 0, 0.749859, 0.0825278, 1191.404944)" fill="none" stroke-linejoin="miter" d="M -0.000662255 0.501836 L 1167.000522 0.501836 " stroke="#000000" stroke-width="1" stroke-opacity="1" stroke-miterlimit="4"/></g><g clip-path="url(#1bfbd48e58)"><path stroke-linecap="butt" transform="matrix(0.749859, -0.000000000000000186, 0.000000000000000186, 0.749859, 0.0825278, 1224.45545)" fill="none" stroke-linejoin="miter" d="M -0.000662255 0.502203 L 1167.000522 0.502203 " stroke="#443d34" stroke-width="1" stroke-opacity="1" stroke-miterlimit="4"/></g><path stroke-linecap="butt" transform="matrix(0, 0.749859, -0.749859, 0, 325.375694, 5.342274)" fill="none" stroke-linejoin="miter" d="M 0.001968 0.50102 L 1373.526449 0.50102 " stroke="#000000" stroke-width="1" stroke-opacity="1" stroke-miterlimit="4"/><g clip-path="url(#2684e7873d)"><g transform="matrix(1, 0, 0, 1, 0, 113)"><g clip-path="url(#12d68486db)"><g clip-path="url(#9a79977439)"><path stroke-linecap="butt" transform="matrix(0.740343, -0.000000000000000184, 0.000000000000000184, 0.740343, 0.0825278, 463.514657)" fill="none" stroke-linejoin="miter" d="M -0.000670767 0.502554 L 1182.000544 0.502554 " stroke="#494746" stroke-width="1" stroke-opacity="1" stroke-miterlimit="4"/></g><g clip-path="url(#2635ef2a3b)"><path stroke-linecap="butt" transform="matrix(0.740343, -0.000000000000000184, 0.000000000000000184, 0.740343, 0.0825278, 430.463935)" fill="none" stroke-linejoin="miter" d="M -0.000670767 0.502474 L 1182.000544 0.502474 " stroke="#494746" stroke-width="1" stroke-opacity="1" stroke-miterlimit="4"/></g><g clip-path="url(#bd03b7dc34)"><path stroke-linecap="butt" transform="matrix(0.740343, 0, 0, 0.740343, 0.0825278, 397.413321)" fill="none" stroke-linejoin="miter" d="M -0.000670767 0.502248 L 1182.000544 0.502248 " stroke="#494746" stroke-width="1" stroke-opacity="1" stroke-miterlimit="4"/></g><g clip-path="url(#cb247a9fff)"><path stroke-linecap="butt" transform="matrix(0.740343, 0, 0, 0.740343, 0.0825278, 364.362625)" fill="none" stroke-linejoin="miter" d="M -0.000670767 0.502132 L 1182.000544 0.502132 " stroke="#494746" stroke-width="1" stroke-opacity="1" stroke-miterlimit="4"/></g><g clip-path="url(#07b299c23e)"><path stroke-linecap="butt" transform="matrix(0.740343, -0.000000000000000184, 0.000000000000000184, 0.740343, 0.0825278, 331.311932)" fill="none" stroke-linejoin="miter" d="M -0.000670767 0.502013 L 1182.000544 0.502013 " stroke="#494746" stroke-width="1" stroke-opacity="1" stroke-miterlimit="4"/></g><g clip-path="url(#2099c70045)"><path stroke-linecap="butt" transform="matrix(0.740343, -0.000000000000000092, 0.000000000000000092, 0.740343, 0.0825278, 298.261267)" fill="none" stroke-linejoin="miter" d="M -0.000670767 0.501856 L 1182.000544 0.501856 " stroke="#494746" stroke-width="1" stroke-opacity="1" stroke-miterlimit="4"/></g><g clip-path="url(#fe3e7d4961)"><path stroke-linecap="butt" transform="matrix(0.740343, -0.000000000000000092, 0.000000000000000092, 0.740343, 0.0825278, 265.210574)" fill="none" stroke-linejoin="miter" d="M -0.000670767 0.501737 L 1182.000544 0.501737 " stroke="#494746" stroke-width="1" stroke-opacity="1" stroke-miterlimit="4"/></g><g clip-path="url(#a5ffac4f6a)"><path stroke-linecap="butt" transform="matrix(0.740343, -0.000000000000000092, 0.000000000000000092, 0.740343, 0.0825278, 232.159881)" fill="none" stroke-linejoin="miter" d="M -0.000670767 0.501618 L 1182.000544 0.501618 " stroke="#494746" stroke-width="1" stroke-opacity="1" stroke-miterlimit="4"/></g><g clip-path="url(#ba67f65017)"><path stroke-linecap="butt" transform="matrix(0.740343, -0.000000000000000092, 0.000000000000000092, 0.740343, 0.0825278, 199.109216)" fill="none" stroke-linejoin="miter" d="M -0.000670767 0.50146 L 1182.000544 0.50146 " stroke="#494746" stroke-width="1" stroke-opacity="1" stroke-miterlimit="4"/></g><g clip-path="url(#e3c7f27344)"><path stroke-linecap="butt" transform="matrix(0.740343, 0, 0, 0.740343, 0.0825278, 166.058521)" fill="none" stroke-linejoin="miter" d="M -0.000670767 0.501345 L 1182.000544 0.501345 " stroke="#494746" stroke-width="1" stroke-opacity="1" stroke-miterlimit="4"/></g><g clip-path="url(#c1cc39640e)"><path stroke-linecap="butt" transform="matrix(0.740343, -0.000000000000000184, 0.000000000000000184, 0.740343, 0.0825278, 133.007827)" fill="none" stroke-linejoin="miter" d="M -0.000670767 0.501226 L 1182.000544 0.501226 " stroke="#494746" stroke-width="1" stroke-opacity="1" stroke-miterlimit="4"/></g><g clip-path="url(#8a82958ed2)"><path stroke-linecap="butt" transform="matrix(0.740343, -0.000000000000000092, 0.000000000000000092, 0.740343, 0.0825278, 99.957163)" fill="none" stroke-linejoin="miter" d="M -0.000670767 0.501068 L 1182.000544 0.501068 " stroke="#494746" stroke-width="1" stroke-opacity="1" stroke-miterlimit="4"/></g><g clip-path="url(#1ce3300339)"><path stroke-linecap="butt" transform="matrix(0.740343, 0, 0, 0.740343, 0.0825278, 66.90647)" fill="none" stroke-linejoin="miter" d="M -0.000670767 0.500949 L 1182.000544 0.500949 " stroke="#494746" stroke-width="1" stroke-opacity="1" stroke-miterlimit="4"/></g><g clip-path="url(#eafeb9d3b5)"><path stroke-linecap="butt" transform="matrix(0.740343, -0.000000000000000092, 0.000000000000000092, 0.740343, 0.0825278, 33.85579)" fill="none" stroke-linejoin="miter" d="M -0.000670767 0.500812 L 1182.000544 0.500812 " stroke="#494746" stroke-width="1" stroke-opacity="1" stroke-miterlimit="4"/></g><g clip-path="url(#28116b1973)"><path stroke-linecap="butt" transform="matrix(0.740343, -0.000000000000000092, 0.000000000000000092, 0.740343, 0.0825278, 0.805111)" fill="none" stroke-linejoin="miter" d="M -0.000670767 0.500674 L 1182.000544 0.500674 " stroke="#494746" stroke-width="1" stroke-opacity="1" stroke-miterlimit="4"/></g></g></g></g><g clip-path="url(#04888d58c2)"><path stroke-linecap="butt" transform="matrix(0.749859, -0.000000000000000093, 0.000000000000000093, 0.749859, 0.0825278, 43.792213)" fill="none" stroke-linejoin="miter" d="M -0.000662255 0.501102 L 1167.000522 0.501102 " stroke="#494746" stroke-width="1" stroke-opacity="1" stroke-miterlimit="4"/></g><g clip-path="url(#41b3927866)"><path stroke-linecap="butt" transform="matrix(0.749859, 0, 0, 0.749859, 0.0825278, 1127.259707)" fill="none" stroke-linejoin="miter" d="M -0.000662255 0.497568 L 1167.000522 0.497568 " stroke="#443d34" stroke-width="1" stroke-opacity="1" stroke-miterlimit="4"/></g><g clip-path="url(#f5faedf4be)"><path stroke-linecap="butt" transform="matrix(0.749859, 0, 0, 0.749859, 0.0825278, 1160.310669)" fill="none" stroke-linejoin="miter" d="M -0.000662255 0.502536 L 1167.000522 0.502536 " stroke="#443d34" stroke-width="1" stroke-opacity="1" stroke-miterlimit="4"/></g><g transform="matrix(1, 0, 0, 1, 72, 17)"><g clip-path="url(#76db37df54)"><g fill="#000000" fill-opacity="1"><g transform="translate(0.659319, 25.245107)"><g><path d="M 14.953125 0.09375 C 14.734375 0.09375 14.546875 0.00390625 14.390625 -0.171875 L 7.25 -9.15625 L 8.4375 -10.34375 L 15.625 -1.234375 C 15.75 -1.066406 15.8125 -0.890625 15.8125 -0.703125 C 15.8125 -0.429688 15.710938 -0.226562 15.515625 -0.09375 C 15.328125 0.03125 15.140625 0.09375 14.953125 0.09375 Z M 14.671875 -17.5625 C 14.878906 -17.5625 15.050781 -17.484375 15.1875 -17.328125 C 15.332031 -17.179688 15.40625 -17.019531 15.40625 -16.84375 C 15.40625 -16.632812 15.328125 -16.457031 15.171875 -16.3125 L 3.75 -5.609375 L 3.546875 -7.328125 L 14.125 -17.3125 C 14.289062 -17.476562 14.472656 -17.5625 14.671875 -17.5625 Z M 3.140625 0 C 2.910156 0 2.722656 -0.0703125 2.578125 -0.21875 C 2.429688 -0.375 2.359375 -0.5625 2.359375 -0.78125 L 2.359375 -16.84375 C 2.359375 -17.0625 2.429688 -17.242188 2.578125 -17.390625 C 2.734375 -17.546875 2.929688 -17.625 3.171875 -17.625 C 3.390625 -17.625 3.570312 -17.546875 3.71875 -17.390625 C 3.875 -17.242188 3.953125 -17.0625 3.953125 -16.84375 L 3.953125 -0.78125 C 3.929688 -0.5625 3.84375 -0.375 3.6875 -0.21875 C 3.539062 -0.0703125 3.359375 0 3.140625 0 Z M 3.140625 0 "/></g></g></g><g fill="#000000" fill-opacity="1"><g transform="translate(17.650147, 25.245107)"><g><path d="M 3.125 -17.625 L 12.359375 -17.625 C 12.554688 -17.625 12.726562 -17.550781 12.875 -17.40625 C 13.03125 -17.257812 13.109375 -17.078125 13.109375 -16.859375 C 13.109375 -16.640625 13.03125 -16.460938 12.875 -16.328125 C 12.726562 -16.203125 12.554688 -16.140625 12.359375 -16.140625 L 3.703125 -16.140625 L 3.953125 -16.5625 L 3.953125 -9.484375 L 3.671875 -9.8125 L 11.234375 -9.8125 C 11.429688 -9.8125 11.601562 -9.734375 11.75 -9.578125 C 11.90625 -9.429688 11.984375 -9.257812 11.984375 -9.0625 C 11.984375 -8.84375 11.90625 -8.664062 11.75 -8.53125 C 11.601562 -8.394531 11.429688 -8.328125 11.234375 -8.328125 L 3.71875 -8.328125 L 3.953125 -8.578125 L 3.953125 -1.328125 L 3.828125 -1.484375 L 12.359375 -1.484375 C 12.554688 -1.484375 12.726562 -1.40625 12.875 -1.25 C 13.03125 -1.101562 13.109375 -0.929688 13.109375 -0.734375 C 13.109375 -0.515625 13.03125 -0.335938 12.875 -0.203125 C 12.726562 -0.0664062 12.554688 0 12.359375 0 L 3.125 0 C 2.914062 0 2.734375 -0.0703125 2.578125 -0.21875 C 2.429688 -0.375 2.359375 -0.550781 2.359375 -0.75 L 2.359375 -16.859375 C 2.359375 -17.066406 2.429688 -17.242188 2.578125 -17.390625 C 2.734375 -17.546875 2.914062 -17.625 3.125 -17.625 Z M 3.125 -17.625 "/></g></g></g><g fill="#000000" fill-opacity="1"><g transform="translate(31.947608, 25.245107)"><g><path d="M 12.859375 -17.71875 C 13.078125 -17.71875 13.257812 -17.640625 13.40625 -17.484375 C 13.550781 -17.328125 13.625 -17.15625 13.625 -16.96875 C 13.625 -16.882812 13.609375 -16.800781 13.578125 -16.71875 C 13.554688 -16.644531 13.519531 -16.566406 13.46875 -16.484375 L 7.546875 -8.359375 L 7.859375 -9.34375 L 7.859375 -0.75 C 7.859375 -0.550781 7.78125 -0.375 7.625 -0.21875 C 7.476562 -0.0703125 7.296875 0 7.078125 0 C 6.859375 0 6.675781 -0.0703125 6.53125 -0.21875 C 6.382812 -0.375 6.3125 -0.550781 6.3125 -0.75 L 6.3125 -9.15625 L 6.4375 -8.5625 L 0.671875 -16.4375 C 0.609375 -16.519531 0.5625 -16.609375 0.53125 -16.703125 C 0.5 -16.796875 0.484375 -16.882812 0.484375 -16.96875 C 0.484375 -17.1875 0.566406 -17.363281 0.734375 -17.5 C 0.910156 -17.644531 1.09375 -17.71875 1.28125 -17.71875 C 1.53125 -17.71875 1.738281 -17.601562 1.90625 -17.375 L 7.328125 -10 L 6.953125 -10.046875 L 12.203125 -17.375 C 12.367188 -17.601562 12.585938 -17.71875 12.859375 -17.71875 Z M 12.859375 -17.71875 "/></g></g></g><g fill="#000000" fill-opacity="1"><g transform="translate(46.018525, 25.245107)"><g/></g></g><g fill="#000000" fill-opacity="1"><g transform="translate(52.890372, 25.245107)"><g><path d="M 9.09375 -17.625 C 10.03125 -17.625 10.859375 -17.410156 11.578125 -16.984375 C 12.296875 -16.554688 12.863281 -15.960938 13.28125 -15.203125 C 13.707031 -14.453125 13.921875 -13.585938 13.921875 -12.609375 C 13.921875 -11.640625 13.707031 -10.765625 13.28125 -9.984375 C 12.863281 -9.203125 12.296875 -8.582031 11.578125 -8.125 C 10.859375 -7.675781 10.03125 -7.453125 9.09375 -7.453125 L 3.75 -7.453125 L 3.875 -7.703125 L 3.875 -0.75 C 3.875 -0.550781 3.796875 -0.375 3.640625 -0.21875 C 3.492188 -0.0703125 3.320312 0 3.125 0 C 2.882812 0 2.695312 -0.0703125 2.5625 -0.21875 C 2.425781 -0.375 2.359375 -0.550781 2.359375 -0.75 L 2.359375 -16.859375 C 2.359375 -17.066406 2.429688 -17.242188 2.578125 -17.390625 C 2.734375 -17.546875 2.914062 -17.625 3.125 -17.625 Z M 9.09375 -8.90625 C 9.738281 -8.90625 10.304688 -9.066406 10.796875 -9.390625 C 11.285156 -9.722656 11.664062 -10.171875 11.9375 -10.734375 C 12.21875 -11.296875 12.359375 -11.921875 12.359375 -12.609375 C 12.359375 -13.296875 12.21875 -13.90625 11.9375 -14.4375 C 11.664062 -14.96875 11.285156 -15.382812 10.796875 -15.6875 C 10.304688 -15.988281 9.738281 -16.140625 9.09375 -16.140625 L 3.75 -16.140625 L 3.875 -16.359375 L 3.875 -8.765625 L 3.71875 -8.90625 Z M 9.09375 -8.90625 "/></g></g></g><g fill="#000000" fill-opacity="1"><g transform="translate(67.892637, 25.245107)"><g><path d="M 18.078125 -8.8125 C 18.078125 -7.488281 17.867188 -6.273438 17.453125 -5.171875 C 17.046875 -4.078125 16.460938 -3.117188 15.703125 -2.296875 C 14.953125 -1.484375 14.0625 -0.851562 13.03125 -0.40625 C 12 0.03125 10.867188 0.25 9.640625 0.25 C 8.410156 0.25 7.28125 0.03125 6.25 -0.40625 C 5.21875 -0.851562 4.320312 -1.484375 3.5625 -2.296875 C 2.8125 -3.117188 2.226562 -4.078125 1.8125 -5.171875 C 1.40625 -6.273438 1.203125 -7.488281 1.203125 -8.8125 C 1.203125 -10.132812 1.40625 -11.34375 1.8125 -12.4375 C 2.226562 -13.539062 2.8125 -14.5 3.5625 -15.3125 C 4.320312 -16.125 5.21875 -16.753906 6.25 -17.203125 C 7.28125 -17.648438 8.410156 -17.875 9.640625 -17.875 C 10.867188 -17.875 12 -17.648438 13.03125 -17.203125 C 14.0625 -16.753906 14.953125 -16.125 15.703125 -15.3125 C 16.460938 -14.5 17.046875 -13.539062 17.453125 -12.4375 C 17.867188 -11.34375 18.078125 -10.132812 18.078125 -8.8125 Z M 16.46875 -8.8125 C 16.46875 -10.300781 16.175781 -11.613281 15.59375 -12.75 C 15.007812 -13.882812 14.207031 -14.769531 13.1875 -15.40625 C 12.164062 -16.039062 10.984375 -16.359375 9.640625 -16.359375 C 8.316406 -16.359375 7.140625 -16.039062 6.109375 -15.40625 C 5.078125 -14.769531 4.269531 -13.882812 3.6875 -12.75 C 3.101562 -11.613281 2.8125 -10.300781 2.8125 -8.8125 C 2.8125 -7.3125 3.101562 -5.992188 3.6875 -4.859375 C 4.269531 -3.734375 5.078125 -2.851562 6.109375 -2.21875 C 7.140625 -1.582031 8.316406 -1.265625 9.640625 -1.265625 C 10.984375 -1.265625 12.164062 -1.582031 13.1875 -2.21875 C 14.207031 -2.851562 15.007812 -3.734375 15.59375 -4.859375 C 16.175781 -5.992188 16.46875 -7.3125 16.46875 -8.8125 Z M 16.46875 -8.8125 "/></g></g></g><g fill="#000000" fill-opacity="1"><g transform="translate(87.174081, 25.245107)"><g><path d="M 3.953125 -0.78125 C 3.929688 -0.5625 3.84375 -0.375 3.6875 -0.21875 C 3.53125 -0.0703125 3.347656 0 3.140625 0 C 2.910156 0 2.722656 -0.0703125 2.578125 -0.21875 C 2.429688 -0.375 2.359375 -0.5625 2.359375 -0.78125 L 2.359375 -16.84375 C 2.359375 -17.0625 2.429688 -17.242188 2.578125 -17.390625 C 2.734375 -17.546875 2.929688 -17.625 3.171875 -17.625 C 3.367188 -17.625 3.546875 -17.546875 3.703125 -17.390625 C 3.867188 -17.242188 3.953125 -17.0625 3.953125 -16.84375 Z M 3.953125 -0.78125 "/></g></g></g><g fill="#000000" fill-opacity="1"><g transform="translate(93.466982, 25.245107)"><g><path d="M 15.25 -17.625 C 15.46875 -17.625 15.640625 -17.554688 15.765625 -17.421875 C 15.890625 -17.285156 15.953125 -17.117188 15.953125 -16.921875 L 15.953125 -0.8125 C 15.953125 -0.550781 15.875 -0.347656 15.71875 -0.203125 C 15.5625 -0.0664062 15.378906 0 15.171875 0 C 15.078125 0 14.96875 -0.0195312 14.84375 -0.0625 C 14.726562 -0.101562 14.640625 -0.164062 14.578125 -0.25 L 3.34375 -15.375 L 3.78125 -15.609375 L 3.78125 -0.671875 C 3.78125 -0.492188 3.710938 -0.335938 3.578125 -0.203125 C 3.441406 -0.0664062 3.273438 0 3.078125 0 C 2.859375 0 2.679688 -0.0664062 2.546875 -0.203125 C 2.421875 -0.335938 2.359375 -0.492188 2.359375 -0.671875 L 2.359375 -16.859375 C 2.359375 -17.117188 2.429688 -17.3125 2.578125 -17.4375 C 2.734375 -17.5625 2.90625 -17.625 3.09375 -17.625 C 3.195312 -17.625 3.304688 -17.601562 3.421875 -17.5625 C 3.535156 -17.519531 3.628906 -17.445312 3.703125 -17.34375 L 14.796875 -2.390625 L 14.546875 -1.9375 L 14.546875 -16.921875 C 14.546875 -17.117188 14.617188 -17.285156 14.765625 -17.421875 C 14.910156 -17.554688 15.070312 -17.625 15.25 -17.625 Z M 15.25 -17.625 "/></g></g></g><g fill="#000000" fill-opacity="1"><g transform="translate(111.791898, 25.245107)"><g><path d="M 7.609375 0 C 7.367188 0 7.175781 -0.0703125 7.03125 -0.21875 C 6.894531 -0.375 6.828125 -0.550781 6.828125 -0.75 L 6.828125 -16.796875 L 8.375 -16.796875 L 8.375 -0.75 C 8.375 -0.550781 8.296875 -0.375 8.140625 -0.21875 C 7.992188 -0.0703125 7.816406 0 7.609375 0 Z M 1.609375 -16.1875 C 1.410156 -16.1875 1.234375 -16.253906 1.078125 -16.390625 C 0.929688 -16.523438 0.859375 -16.703125 0.859375 -16.921875 C 0.859375 -17.117188 0.929688 -17.285156 1.078125 -17.421875 C 1.234375 -17.554688 1.410156 -17.625 1.609375 -17.625 L 13.59375 -17.625 C 13.789062 -17.625 13.960938 -17.554688 14.109375 -17.421875 C 14.265625 -17.285156 14.34375 -17.109375 14.34375 -16.890625 C 14.34375 -16.671875 14.265625 -16.5 14.109375 -16.375 C 13.960938 -16.25 13.789062 -16.1875 13.59375 -16.1875 Z M 1.609375 -16.1875 "/></g></g></g><g fill="#000000" fill-opacity="1"><g transform="translate(126.995538, 25.245107)"><g><path d="M 7.21875 0.25 C 5.945312 0.269531 4.835938 0.0703125 3.890625 -0.34375 C 2.953125 -0.769531 2.054688 -1.398438 1.203125 -2.234375 C 1.117188 -2.304688 1.046875 -2.390625 0.984375 -2.484375 C 0.929688 -2.585938 0.90625 -2.707031 0.90625 -2.84375 C 0.90625 -3.039062 0.984375 -3.222656 1.140625 -3.390625 C 1.304688 -3.566406 1.488281 -3.65625 1.6875 -3.65625 C 1.882812 -3.65625 2.066406 -3.566406 2.234375 -3.390625 C 2.890625 -2.691406 3.632812 -2.15625 4.46875 -1.78125 C 5.300781 -1.414062 6.195312 -1.234375 7.15625 -1.234375 C 7.957031 -1.234375 8.671875 -1.359375 9.296875 -1.609375 C 9.929688 -1.859375 10.429688 -2.21875 10.796875 -2.6875 C 11.171875 -3.15625 11.359375 -3.703125 11.359375 -4.328125 C 11.359375 -5.097656 11.144531 -5.722656 10.71875 -6.203125 C 10.300781 -6.679688 9.75 -7.078125 9.0625 -7.390625 C 8.375 -7.703125 7.609375 -7.984375 6.765625 -8.234375 C 6.078125 -8.429688 5.421875 -8.660156 4.796875 -8.921875 C 4.179688 -9.179688 3.628906 -9.5 3.140625 -9.875 C 2.660156 -10.257812 2.285156 -10.726562 2.015625 -11.28125 C 1.742188 -11.832031 1.609375 -12.503906 1.609375 -13.296875 C 1.609375 -14.179688 1.84375 -14.96875 2.3125 -15.65625 C 2.78125 -16.34375 3.445312 -16.882812 4.3125 -17.28125 C 5.175781 -17.675781 6.179688 -17.875 7.328125 -17.875 C 8.316406 -17.875 9.265625 -17.703125 10.171875 -17.359375 C 11.085938 -17.023438 11.816406 -16.535156 12.359375 -15.890625 C 12.609375 -15.617188 12.734375 -15.375 12.734375 -15.15625 C 12.734375 -14.988281 12.648438 -14.816406 12.484375 -14.640625 C 12.316406 -14.472656 12.132812 -14.390625 11.9375 -14.390625 C 11.769531 -14.390625 11.625 -14.453125 11.5 -14.578125 C 11.21875 -14.929688 10.859375 -15.242188 10.421875 -15.515625 C 9.984375 -15.796875 9.5 -16.007812 8.96875 -16.15625 C 8.445312 -16.3125 7.898438 -16.390625 7.328125 -16.390625 C 6.535156 -16.390625 5.820312 -16.265625 5.1875 -16.015625 C 4.5625 -15.773438 4.066406 -15.425781 3.703125 -14.96875 C 3.347656 -14.519531 3.171875 -13.976562 3.171875 -13.34375 C 3.171875 -12.632812 3.367188 -12.050781 3.765625 -11.59375 C 4.171875 -11.144531 4.703125 -10.773438 5.359375 -10.484375 C 6.015625 -10.191406 6.710938 -9.921875 7.453125 -9.671875 C 8.171875 -9.460938 8.859375 -9.226562 9.515625 -8.96875 C 10.179688 -8.707031 10.769531 -8.382812 11.28125 -8 C 11.800781 -7.613281 12.207031 -7.125 12.5 -6.53125 C 12.789062 -5.945312 12.9375 -5.210938 12.9375 -4.328125 C 12.9375 -3.472656 12.691406 -2.703125 12.203125 -2.015625 C 11.722656 -1.328125 11.054688 -0.78125 10.203125 -0.375 C 9.359375 0.0195312 8.363281 0.226562 7.21875 0.25 Z M 7.21875 0.25 "/></g></g></g></g></g><g transform="matrix(1, 0, 0, 1, 555, 17)"><g clip-path="url(#c0c01a0144)"><g fill="#000000" fill-opacity="1"><g transform="translate(0.458837, 25.245107)"><g><path d="M 9.546875 -17.625 C 10.785156 -17.625 11.867188 -17.382812 12.796875 -16.90625 C 13.734375 -16.4375 14.503906 -15.785156 15.109375 -14.953125 C 15.710938 -14.128906 16.160156 -13.1875 16.453125 -12.125 C 16.742188 -11.070312 16.890625 -9.96875 16.890625 -8.8125 C 16.890625 -7.195312 16.625 -5.722656 16.09375 -4.390625 C 15.5625 -3.054688 14.753906 -1.988281 13.671875 -1.1875 C 12.597656 -0.394531 11.222656 0 9.546875 0 L 3.125 0 C 2.914062 0 2.734375 -0.0703125 2.578125 -0.21875 C 2.429688 -0.375 2.359375 -0.550781 2.359375 -0.75 L 2.359375 -16.859375 C 2.359375 -17.066406 2.429688 -17.242188 2.578125 -17.390625 C 2.734375 -17.546875 2.914062 -17.625 3.125 -17.625 Z M 9.28125 -1.484375 C 10.707031 -1.484375 11.859375 -1.8125 12.734375 -2.46875 C 13.609375 -3.125 14.25 -4.007812 14.65625 -5.125 C 15.070312 -6.238281 15.28125 -7.46875 15.28125 -8.8125 C 15.28125 -9.78125 15.164062 -10.703125 14.9375 -11.578125 C 14.707031 -12.460938 14.351562 -13.242188 13.875 -13.921875 C 13.40625 -14.609375 12.785156 -15.148438 12.015625 -15.546875 C 11.253906 -15.941406 10.34375 -16.140625 9.28125 -16.140625 L 3.78125 -16.140625 L 3.953125 -16.359375 L 3.953125 -1.234375 L 3.796875 -1.484375 Z M 9.28125 -1.484375 "/></g></g></g><g fill="#000000" fill-opacity="1"><g transform="translate(18.557208, 25.245107)"><g><path d="M 3.125 -17.625 L 12.359375 -17.625 C 12.554688 -17.625 12.726562 -17.550781 12.875 -17.40625 C 13.03125 -17.257812 13.109375 -17.078125 13.109375 -16.859375 C 13.109375 -16.640625 13.03125 -16.460938 12.875 -16.328125 C 12.726562 -16.203125 12.554688 -16.140625 12.359375 -16.140625 L 3.703125 -16.140625 L 3.953125 -16.5625 L 3.953125 -9.484375 L 3.671875 -9.8125 L 11.234375 -9.8125 C 11.429688 -9.8125 11.601562 -9.734375 11.75 -9.578125 C 11.90625 -9.429688 11.984375 -9.257812 11.984375 -9.0625 C 11.984375 -8.84375 11.90625 -8.664062 11.75 -8.53125 C 11.601562 -8.394531 11.429688 -8.328125 11.234375 -8.328125 L 3.71875 -8.328125 L 3.953125 -8.578125 L 3.953125 -1.328125 L 3.828125 -1.484375 L 12.359375 -1.484375 C 12.554688 -1.484375 12.726562 -1.40625 12.875 -1.25 C 13.03125 -1.101562 13.109375 -0.929688 13.109375 -0.734375 C 13.109375 -0.515625 13.03125 -0.335938 12.875 -0.203125 C 12.726562 -0.0664062 12.554688 0 12.359375 0 L 3.125 0 C 2.914062 0 2.734375 -0.0703125 2.578125 -0.21875 C 2.429688 -0.375 2.359375 -0.550781 2.359375 -0.75 L 2.359375 -16.859375 C 2.359375 -17.066406 2.429688 -17.242188 2.578125 -17.390625 C 2.734375 -17.546875 2.914062 -17.625 3.125 -17.625 Z M 3.125 -17.625 "/></g></g></g><g fill="#000000" fill-opacity="1"><g transform="translate(32.85467, 25.245107)"><g><path d="M 7.609375 0 C 7.367188 0 7.175781 -0.0703125 7.03125 -0.21875 C 6.894531 -0.375 6.828125 -0.550781 6.828125 -0.75 L 6.828125 -16.796875 L 8.375 -16.796875 L 8.375 -0.75 C 8.375 -0.550781 8.296875 -0.375 8.140625 -0.21875 C 7.992188 -0.0703125 7.816406 0 7.609375 0 Z M 1.609375 -16.1875 C 1.410156 -16.1875 1.234375 -16.253906 1.078125 -16.390625 C 0.929688 -16.523438 0.859375 -16.703125 0.859375 -16.921875 C 0.859375 -17.117188 0.929688 -17.285156 1.078125 -17.421875 C 1.234375 -17.554688 1.410156 -17.625 1.609375 -17.625 L 13.59375 -17.625 C 13.789062 -17.625 13.960938 -17.554688 14.109375 -17.421875 C 14.265625 -17.285156 14.34375 -17.109375 14.34375 -16.890625 C 14.34375 -16.671875 14.265625 -16.5 14.109375 -16.375 C 13.960938 -16.25 13.789062 -16.1875 13.59375 -16.1875 Z M 1.609375 -16.1875 "/></g></g></g><g fill="#000000" fill-opacity="1"><g transform="translate(48.05831, 25.245107)"><g><path d="M 8.25 -15.6875 L 2.140625 -0.484375 C 2.066406 -0.304688 1.972656 -0.175781 1.859375 -0.09375 C 1.742188 -0.0078125 1.609375 0.03125 1.453125 0.03125 C 1.222656 0.03125 1.046875 -0.03125 0.921875 -0.15625 C 0.804688 -0.289062 0.742188 -0.445312 0.734375 -0.625 C 0.710938 -0.707031 0.71875 -0.8125 0.75 -0.9375 L 7.40625 -17.1875 C 7.488281 -17.375 7.59375 -17.503906 7.71875 -17.578125 C 7.84375 -17.660156 7.988281 -17.703125 8.15625 -17.703125 C 8.320312 -17.703125 8.46875 -17.65625 8.59375 -17.5625 C 8.71875 -17.46875 8.816406 -17.34375 8.890625 -17.1875 L 15.5 -1 C 15.539062 -0.90625 15.5625 -0.804688 15.5625 -0.703125 C 15.5625 -0.472656 15.484375 -0.289062 15.328125 -0.15625 C 15.179688 -0.03125 15.003906 0.03125 14.796875 0.03125 C 14.628906 0.03125 14.484375 -0.015625 14.359375 -0.109375 C 14.234375 -0.203125 14.140625 -0.328125 14.078125 -0.484375 L 7.796875 -15.78125 Z M 3.59375 -5.078125 L 4.234375 -6.5625 L 12.03125 -6.5625 L 12.328125 -5.078125 Z M 3.59375 -5.078125 "/></g></g></g><g fill="#000000" fill-opacity="1"><g transform="translate(64.344335, 25.245107)"><g><path d="M 3.953125 -0.78125 C 3.929688 -0.5625 3.84375 -0.375 3.6875 -0.21875 C 3.53125 -0.0703125 3.347656 0 3.140625 0 C 2.910156 0 2.722656 -0.0703125 2.578125 -0.21875 C 2.429688 -0.375 2.359375 -0.5625 2.359375 -0.78125 L 2.359375 -16.84375 C 2.359375 -17.0625 2.429688 -17.242188 2.578125 -17.390625 C 2.734375 -17.546875 2.929688 -17.625 3.171875 -17.625 C 3.367188 -17.625 3.546875 -17.546875 3.703125 -17.390625 C 3.867188 -17.242188 3.953125 -17.0625 3.953125 -16.84375 Z M 3.953125 -0.78125 "/></g></g></g><g fill="#000000" fill-opacity="1"><g transform="translate(70.637236, 25.245107)"><g><path d="M 12.109375 -1.484375 C 12.304688 -1.484375 12.476562 -1.410156 12.625 -1.265625 C 12.78125 -1.128906 12.859375 -0.957031 12.859375 -0.75 C 12.859375 -0.53125 12.78125 -0.347656 12.625 -0.203125 C 12.476562 -0.0664062 12.304688 0 12.109375 0 L 3.125 0 C 2.90625 0 2.722656 -0.0703125 2.578125 -0.21875 C 2.429688 -0.375 2.359375 -0.550781 2.359375 -0.75 L 2.359375 -16.859375 C 2.359375 -17.066406 2.429688 -17.242188 2.578125 -17.390625 C 2.734375 -17.546875 2.929688 -17.625 3.171875 -17.625 C 3.367188 -17.625 3.546875 -17.546875 3.703125 -17.390625 C 3.867188 -17.242188 3.953125 -17.066406 3.953125 -16.859375 L 3.953125 -1.0625 L 3.46875 -1.484375 Z M 12.109375 -1.484375 "/></g></g></g><g fill="#000000" fill-opacity="1"><g transform="translate(84.028519, 25.245107)"><g><path d="M 7.21875 0.25 C 5.945312 0.269531 4.835938 0.0703125 3.890625 -0.34375 C 2.953125 -0.769531 2.054688 -1.398438 1.203125 -2.234375 C 1.117188 -2.304688 1.046875 -2.390625 0.984375 -2.484375 C 0.929688 -2.585938 0.90625 -2.707031 0.90625 -2.84375 C 0.90625 -3.039062 0.984375 -3.222656 1.140625 -3.390625 C 1.304688 -3.566406 1.488281 -3.65625 1.6875 -3.65625 C 1.882812 -3.65625 2.066406 -3.566406 2.234375 -3.390625 C 2.890625 -2.691406 3.632812 -2.15625 4.46875 -1.78125 C 5.300781 -1.414062 6.195312 -1.234375 7.15625 -1.234375 C 7.957031 -1.234375 8.671875 -1.359375 9.296875 -1.609375 C 9.929688 -1.859375 10.429688 -2.21875 10.796875 -2.6875 C 11.171875 -3.15625 11.359375 -3.703125 11.359375 -4.328125 C 11.359375 -5.097656 11.144531 -5.722656 10.71875 -6.203125 C 10.300781 -6.679688 9.75 -7.078125 9.0625 -7.390625 C 8.375 -7.703125 7.609375 -7.984375 6.765625 -8.234375 C 6.078125 -8.429688 5.421875 -8.660156 4.796875 -8.921875 C 4.179688 -9.179688 3.628906 -9.5 3.140625 -9.875 C 2.660156 -10.257812 2.285156 -10.726562 2.015625 -11.28125 C 1.742188 -11.832031 1.609375 -12.503906 1.609375 -13.296875 C 1.609375 -14.179688 1.84375 -14.96875 2.3125 -15.65625 C 2.78125 -16.34375 3.445312 -16.882812 4.3125 -17.28125 C 5.175781 -17.675781 6.179688 -17.875 7.328125 -17.875 C 8.316406 -17.875 9.265625 -17.703125 10.171875 -17.359375 C 11.085938 -17.023438 11.816406 -16.535156 12.359375 -15.890625 C 12.609375 -15.617188 12.734375 -15.375 12.734375 -15.15625 C 12.734375 -14.988281 12.648438 -14.816406 12.484375 -14.640625 C 12.316406 -14.472656 12.132812 -14.390625 11.9375 -14.390625 C 11.769531 -14.390625 11.625 -14.453125 11.5 -14.578125 C 11.21875 -14.929688 10.859375 -15.242188 10.421875 -15.515625 C 9.984375 -15.796875 9.5 -16.007812 8.96875 -16.15625 C 8.445312 -16.3125 7.898438 -16.390625 7.328125 -16.390625 C 6.535156 -16.390625 5.820312 -16.265625 5.1875 -16.015625 C 4.5625 -15.773438 4.066406 -15.425781 3.703125 -14.96875 C 3.347656 -14.519531 3.171875 -13.976562 3.171875 -13.34375 C 3.171875 -12.632812 3.367188 -12.050781 3.765625 -11.59375 C 4.171875 -11.144531 4.703125 -10.773438 5.359375 -10.484375 C 6.015625 -10.191406 6.710938 -9.921875 7.453125 -9.671875 C 8.171875 -9.460938 8.859375 -9.226562 9.515625 -8.96875 C 10.179688 -8.707031 10.769531 -8.382812 11.28125 -8 C 11.800781 -7.613281 12.207031 -7.125 12.5 -6.53125 C 12.789062 -5.945312 12.9375 -5.210938 12.9375 -4.328125 C 12.9375 -3.472656 12.691406 -2.703125 12.203125 -2.015625 C 11.722656 -1.328125 11.054688 -0.78125 10.203125 -0.375 C 9.359375 0.0195312 8.363281 0.226562 7.21875 0.25 Z M 7.21875 0.25 "/></g></g></g></g></g><g transform="matrix(1, 0, 0, 1, 4, 1060)"><g clip-path="url(#20b7080b8c)"><g fill="#000000" fill-opacity="1"><g transform="translate(0.495333, 25.631264)"><g><path d="M 7.234375 0.25 C 5.960938 0.269531 4.851562 0.0703125 3.90625 -0.34375 C 2.96875 -0.769531 2.066406 -1.40625 1.203125 -2.25 C 1.117188 -2.3125 1.046875 -2.390625 0.984375 -2.484375 C 0.929688 -2.585938 0.90625 -2.707031 0.90625 -2.84375 C 0.90625 -3.050781 0.984375 -3.238281 1.140625 -3.40625 C 1.304688 -3.570312 1.488281 -3.65625 1.6875 -3.65625 C 1.894531 -3.65625 2.082031 -3.570312 2.25 -3.40625 C 2.90625 -2.695312 3.644531 -2.15625 4.46875 -1.78125 C 5.300781 -1.414062 6.195312 -1.234375 7.15625 -1.234375 C 7.96875 -1.234375 8.6875 -1.359375 9.3125 -1.609375 C 9.945312 -1.867188 10.445312 -2.234375 10.8125 -2.703125 C 11.1875 -3.171875 11.375 -3.71875 11.375 -4.34375 C 11.375 -5.113281 11.160156 -5.738281 10.734375 -6.21875 C 10.316406 -6.695312 9.765625 -7.09375 9.078125 -7.40625 C 8.390625 -7.71875 7.625 -8 6.78125 -8.25 C 6.09375 -8.445312 5.4375 -8.675781 4.8125 -8.9375 C 4.195312 -9.195312 3.644531 -9.515625 3.15625 -9.890625 C 2.664062 -10.273438 2.285156 -10.742188 2.015625 -11.296875 C 1.742188 -11.847656 1.609375 -12.519531 1.609375 -13.3125 C 1.609375 -14.207031 1.84375 -15 2.3125 -15.6875 C 2.789062 -16.375 3.460938 -16.914062 4.328125 -17.3125 C 5.191406 -17.707031 6.195312 -17.90625 7.34375 -17.90625 C 8.332031 -17.90625 9.285156 -17.734375 10.203125 -17.390625 C 11.117188 -17.054688 11.84375 -16.5625 12.375 -15.90625 C 12.632812 -15.644531 12.765625 -15.40625 12.765625 -15.1875 C 12.765625 -15.007812 12.675781 -14.835938 12.5 -14.671875 C 12.332031 -14.503906 12.148438 -14.421875 11.953125 -14.421875 C 11.785156 -14.421875 11.644531 -14.484375 11.53125 -14.609375 C 11.238281 -14.953125 10.875 -15.265625 10.4375 -15.546875 C 10 -15.828125 9.515625 -16.039062 8.984375 -16.1875 C 8.460938 -16.34375 7.914062 -16.421875 7.34375 -16.421875 C 6.550781 -16.421875 5.835938 -16.296875 5.203125 -16.046875 C 4.578125 -15.804688 4.082031 -15.457031 3.71875 -15 C 3.351562 -14.550781 3.171875 -14.003906 3.171875 -13.359375 C 3.171875 -12.660156 3.375 -12.082031 3.78125 -11.625 C 4.1875 -11.164062 4.71875 -10.789062 5.375 -10.5 C 6.03125 -10.207031 6.726562 -9.9375 7.46875 -9.6875 C 8.1875 -9.476562 8.878906 -9.242188 9.546875 -8.984375 C 10.210938 -8.722656 10.800781 -8.398438 11.3125 -8.015625 C 11.820312 -7.628906 12.222656 -7.140625 12.515625 -6.546875 C 12.816406 -5.960938 12.96875 -5.226562 12.96875 -4.34375 C 12.96875 -3.476562 12.722656 -2.703125 12.234375 -2.015625 C 11.742188 -1.328125 11.070312 -0.78125 10.21875 -0.375 C 9.375 0.03125 8.378906 0.238281 7.234375 0.25 Z M 7.234375 0.25 "/></g></g></g><g fill="#000000" fill-opacity="1"><g transform="translate(14.661312, 25.631264)"><g><path d="M 14.859375 -17.65625 C 15.085938 -17.65625 15.269531 -17.582031 15.40625 -17.4375 C 15.539062 -17.289062 15.609375 -17.109375 15.609375 -16.890625 L 15.609375 -6.453125 C 15.609375 -5.210938 15.3125 -4.085938 14.71875 -3.078125 C 14.132812 -2.066406 13.347656 -1.257812 12.359375 -0.65625 C 11.367188 -0.0625 10.25 0.234375 9 0.234375 C 7.757812 0.234375 6.640625 -0.0625 5.640625 -0.65625 C 4.640625 -1.257812 3.84375 -2.066406 3.25 -3.078125 C 2.664062 -4.085938 2.375 -5.210938 2.375 -6.453125 L 2.375 -16.890625 C 2.375 -17.109375 2.441406 -17.289062 2.578125 -17.4375 C 2.722656 -17.582031 2.921875 -17.65625 3.171875 -17.65625 C 3.378906 -17.65625 3.554688 -17.582031 3.703125 -17.4375 C 3.859375 -17.289062 3.9375 -17.109375 3.9375 -16.890625 L 3.9375 -6.453125 C 3.9375 -5.484375 4.164062 -4.609375 4.625 -3.828125 C 5.09375 -3.054688 5.710938 -2.4375 6.484375 -1.96875 C 7.253906 -1.507812 8.09375 -1.28125 9 -1.28125 C 9.945312 -1.28125 10.804688 -1.507812 11.578125 -1.96875 C 12.347656 -2.4375 12.960938 -3.054688 13.421875 -3.828125 C 13.890625 -4.609375 14.125 -5.484375 14.125 -6.453125 L 14.125 -16.890625 C 14.125 -17.109375 14.191406 -17.289062 14.328125 -17.4375 C 14.460938 -17.582031 14.640625 -17.65625 14.859375 -17.65625 Z M 14.859375 -17.65625 "/></g></g></g><g fill="#000000" fill-opacity="1"><g transform="translate(32.633453, 25.631264)"><g><path d="M 3.125 -17.65625 C 3.238281 -17.65625 3.359375 -17.628906 3.484375 -17.578125 C 3.617188 -17.523438 3.726562 -17.441406 3.8125 -17.328125 L 10.765625 -6.890625 L 10.09375 -6.90625 L 17.078125 -17.328125 C 17.253906 -17.578125 17.476562 -17.6875 17.75 -17.65625 C 17.957031 -17.65625 18.128906 -17.582031 18.265625 -17.4375 C 18.410156 -17.289062 18.484375 -17.109375 18.484375 -16.890625 L 18.484375 -0.75 C 18.484375 -0.550781 18.40625 -0.375 18.25 -0.21875 C 18.101562 -0.0703125 17.921875 0 17.703125 0 C 17.460938 0 17.265625 -0.0703125 17.109375 -0.21875 C 16.960938 -0.375 16.890625 -0.550781 16.890625 -0.75 L 16.890625 -15.359375 L 17.34375 -15.3125 L 10.96875 -5.65625 C 10.914062 -5.550781 10.835938 -5.46875 10.734375 -5.40625 C 10.640625 -5.351562 10.523438 -5.332031 10.390625 -5.34375 C 10.273438 -5.332031 10.160156 -5.351562 10.046875 -5.40625 C 9.941406 -5.46875 9.851562 -5.550781 9.78125 -5.65625 L 3.375 -15.40625 L 3.859375 -15.734375 L 3.859375 -0.75 C 3.859375 -0.550781 3.785156 -0.375 3.640625 -0.21875 C 3.503906 -0.0703125 3.328125 0 3.109375 0 C 2.890625 0 2.710938 -0.0703125 2.578125 -0.21875 C 2.441406 -0.375 2.375 -0.550781 2.375 -0.75 L 2.375 -16.890625 C 2.375 -17.097656 2.441406 -17.273438 2.578125 -17.421875 C 2.722656 -17.578125 2.90625 -17.65625 3.125 -17.65625 Z M 3.125 -17.65625 "/></g></g></g><g fill="#000000" fill-opacity="1"><g transform="translate(53.479122, 25.631264)"><g><path d="M 3.125 -17.65625 C 3.238281 -17.65625 3.359375 -17.628906 3.484375 -17.578125 C 3.617188 -17.523438 3.726562 -17.441406 3.8125 -17.328125 L 10.765625 -6.890625 L 10.09375 -6.90625 L 17.078125 -17.328125 C 17.253906 -17.578125 17.476562 -17.6875 17.75 -17.65625 C 17.957031 -17.65625 18.128906 -17.582031 18.265625 -17.4375 C 18.410156 -17.289062 18.484375 -17.109375 18.484375 -16.890625 L 18.484375 -0.75 C 18.484375 -0.550781 18.40625 -0.375 18.25 -0.21875 C 18.101562 -0.0703125 17.921875 0 17.703125 0 C 17.460938 0 17.265625 -0.0703125 17.109375 -0.21875 C 16.960938 -0.375 16.890625 -0.550781 16.890625 -0.75 L 16.890625 -15.359375 L 17.34375 -15.3125 L 10.96875 -5.65625 C 10.914062 -5.550781 10.835938 -5.46875 10.734375 -5.40625 C 10.640625 -5.351562 10.523438 -5.332031 10.390625 -5.34375 C 10.273438 -5.332031 10.160156 -5.351562 10.046875 -5.40625 C 9.941406 -5.46875 9.851562 -5.550781 9.78125 -5.65625 L 3.375 -15.40625 L 3.859375 -15.734375 L 3.859375 -0.75 C 3.859375 -0.550781 3.785156 -0.375 3.640625 -0.21875 C 3.503906 -0.0703125 3.328125 0 3.109375 0 C 2.890625 0 2.710938 -0.0703125 2.578125 -0.21875 C 2.441406 -0.375 2.375 -0.550781 2.375 -0.75 L 2.375 -16.890625 C 2.375 -17.097656 2.441406 -17.273438 2.578125 -17.421875 C 2.722656 -17.578125 2.90625 -17.65625 3.125 -17.65625 Z M 3.125 -17.65625 "/></g></g></g><g fill="#000000" fill-opacity="1"><g transform="translate(74.32479, 25.631264)"><g><path d="M 8.265625 -15.71875 L 2.140625 -0.484375 C 2.078125 -0.316406 1.984375 -0.1875 1.859375 -0.09375 C 1.742188 -0.0078125 1.613281 0.03125 1.46875 0.03125 C 1.226562 0.03125 1.046875 -0.03125 0.921875 -0.15625 C 0.804688 -0.289062 0.742188 -0.445312 0.734375 -0.625 C 0.710938 -0.707031 0.71875 -0.8125 0.75 -0.9375 L 7.421875 -17.21875 C 7.503906 -17.40625 7.609375 -17.535156 7.734375 -17.609375 C 7.859375 -17.691406 8.003906 -17.734375 8.171875 -17.734375 C 8.335938 -17.734375 8.484375 -17.6875 8.609375 -17.59375 C 8.734375 -17.5 8.832031 -17.375 8.90625 -17.21875 L 15.53125 -1.015625 C 15.5625 -0.910156 15.578125 -0.804688 15.578125 -0.703125 C 15.578125 -0.472656 15.5 -0.289062 15.34375 -0.15625 C 15.195312 -0.03125 15.023438 0.03125 14.828125 0.03125 C 14.660156 0.03125 14.515625 -0.015625 14.390625 -0.109375 C 14.265625 -0.203125 14.164062 -0.328125 14.09375 -0.484375 L 7.8125 -15.8125 Z M 3.609375 -5.09375 L 4.234375 -6.578125 L 12.046875 -6.578125 L 12.359375 -5.09375 Z M 3.609375 -5.09375 "/></g></g></g><g fill="#000000" fill-opacity="1"><g transform="translate(90.633307, 25.631264)"><g><path d="M 3.234375 0 C 2.972656 0 2.765625 -0.0703125 2.609375 -0.21875 C 2.453125 -0.375 2.375 -0.550781 2.375 -0.75 L 2.375 -16.890625 C 2.375 -17.097656 2.445312 -17.273438 2.59375 -17.421875 C 2.75 -17.578125 2.925781 -17.65625 3.125 -17.65625 L 9.9375 -17.65625 C 10.894531 -17.65625 11.75 -17.445312 12.5 -17.03125 C 13.257812 -16.625 13.851562 -16.054688 14.28125 -15.328125 C 14.707031 -14.609375 14.921875 -13.796875 14.921875 -12.890625 C 14.921875 -12.148438 14.785156 -11.46875 14.515625 -10.84375 C 14.253906 -10.21875 13.878906 -9.691406 13.390625 -9.265625 C 12.898438 -8.835938 12.351562 -8.523438 11.75 -8.328125 L 10.875 -8.59375 C 11.488281 -8.550781 12.066406 -8.351562 12.609375 -8 C 13.148438 -7.65625 13.582031 -7.1875 13.90625 -6.59375 C 14.238281 -6 14.410156 -5.28125 14.421875 -4.4375 C 14.441406 -3.71875 14.476562 -3.15625 14.53125 -2.75 C 14.59375 -2.34375 14.679688 -2.035156 14.796875 -1.828125 C 14.921875 -1.628906 15.070312 -1.472656 15.25 -1.359375 C 15.425781 -1.253906 15.539062 -1.109375 15.59375 -0.921875 C 15.65625 -0.742188 15.632812 -0.570312 15.53125 -0.40625 C 15.46875 -0.269531 15.375 -0.171875 15.25 -0.109375 C 15.125 -0.0546875 14.992188 -0.03125 14.859375 -0.03125 C 14.722656 -0.03125 14.585938 -0.0625 14.453125 -0.125 C 14.210938 -0.257812 13.96875 -0.46875 13.71875 -0.75 C 13.476562 -1.039062 13.28125 -1.460938 13.125 -2.015625 C 12.96875 -2.566406 12.890625 -3.34375 12.890625 -4.34375 C 12.890625 -5 12.78125 -5.535156 12.5625 -5.953125 C 12.351562 -6.367188 12.082031 -6.691406 11.75 -6.921875 C 11.425781 -7.148438 11.066406 -7.3125 10.671875 -7.40625 C 10.285156 -7.5 9.914062 -7.546875 9.5625 -7.546875 L 3.6875 -7.546875 L 3.953125 -7.890625 L 3.953125 -0.75 C 3.953125 -0.550781 3.882812 -0.375 3.75 -0.21875 C 3.625 -0.0703125 3.453125 0 3.234375 0 Z M 3.6875 -8.921875 L 10.015625 -8.921875 C 10.585938 -8.972656 11.125 -9.160156 11.625 -9.484375 C 12.125 -9.816406 12.53125 -10.269531 12.84375 -10.84375 C 13.15625 -11.414062 13.3125 -12.082031 13.3125 -12.84375 C 13.3125 -13.800781 12.988281 -14.59375 12.34375 -15.21875 C 11.695312 -15.851562 10.851562 -16.171875 9.8125 -16.171875 L 3.78125 -16.171875 L 3.953125 -16.515625 L 3.953125 -8.578125 Z M 3.6875 -8.921875 "/></g></g></g><g fill="#000000" fill-opacity="1"><g transform="translate(107.521573, 25.631264)"><g><path d="M 12.890625 -17.75 C 13.109375 -17.75 13.285156 -17.671875 13.421875 -17.515625 C 13.566406 -17.359375 13.640625 -17.1875 13.640625 -17 C 13.640625 -16.914062 13.625 -16.832031 13.59375 -16.75 C 13.570312 -16.675781 13.535156 -16.597656 13.484375 -16.515625 L 7.5625 -8.375 L 7.875 -9.359375 L 7.875 -0.75 C 7.875 -0.550781 7.796875 -0.375 7.640625 -0.21875 C 7.492188 -0.0703125 7.3125 0 7.09375 0 C 6.875 0 6.691406 -0.0703125 6.546875 -0.21875 C 6.398438 -0.375 6.328125 -0.550781 6.328125 -0.75 L 6.328125 -9.171875 L 6.453125 -8.578125 L 0.6875 -16.46875 C 0.613281 -16.550781 0.5625 -16.640625 0.53125 -16.734375 C 0.5 -16.828125 0.484375 -16.914062 0.484375 -17 C 0.484375 -17.21875 0.570312 -17.394531 0.75 -17.53125 C 0.925781 -17.675781 1.101562 -17.75 1.28125 -17.75 C 1.539062 -17.75 1.753906 -17.632812 1.921875 -17.40625 L 7.34375 -10.015625 L 6.953125 -10.0625 L 12.234375 -17.40625 C 12.398438 -17.632812 12.617188 -17.75 12.890625 -17.75 Z M 12.890625 -17.75 "/></g></g></g></g></g><g clip-path="url(#27f923fdf6)"><g transform="matrix(1, 0, 0, 1, 0, 633)"><g clip-path="url(#730582d9c3)"><g clip-path="url(#abd31333e3)"><path stroke-linecap="butt" transform="matrix(0.740343, -0.000000000000000184, 0.000000000000000184, 0.740343, 0.0825278, 463.366826)" fill="none" stroke-linejoin="miter" d="M -0.000670767 0.501734 L 1182.000544 0.501734 " stroke="#494746" stroke-width="1" stroke-opacity="1" stroke-miterlimit="4"/></g><g clip-path="url(#6ef850bf34)"><path stroke-linecap="butt" transform="matrix(0.740343, -0.000000000000000184, 0.000000000000000184, 0.740343, 0.0825278, 430.31608)" fill="none" stroke-linejoin="miter" d="M -0.000670767 0.501686 L 1182.000544 0.501686 " stroke="#494746" stroke-width="1" stroke-opacity="1" stroke-miterlimit="4"/></g><g clip-path="url(#9577b3adf1)"><path stroke-linecap="butt" transform="matrix(0.740343, 0, 0, 0.740343, 0.0825278, 397.265485)" fill="none" stroke-linejoin="miter" d="M -0.000670767 0.501435 L 1182.000544 0.501435 " stroke="#494746" stroke-width="1" stroke-opacity="1" stroke-miterlimit="4"/></g><g clip-path="url(#87bd5f4799)"><path stroke-linecap="butt" transform="matrix(0.740343, 0, 0, 0.740343, 0.0825278, 364.214763)" fill="none" stroke-linejoin="miter" d="M -0.000670767 0.501355 L 1182.000544 0.501355 " stroke="#494746" stroke-width="1" stroke-opacity="1" stroke-miterlimit="4"/></g><g clip-path="url(#2d33ee579b)"><path stroke-linecap="butt" transform="matrix(0.740343, -0.000000000000000184, 0.000000000000000184, 0.740343, 0.0825278, 331.164099)" fill="none" stroke-linejoin="miter" d="M -0.000670767 0.501197 L 1182.000544 0.501197 " stroke="#494746" stroke-width="1" stroke-opacity="1" stroke-miterlimit="4"/></g><g clip-path="url(#732753b2d7)"><path stroke-linecap="butt" transform="matrix(0.740343, -0.000000000000000092, 0.000000000000000092, 0.740343, 0.0825278, 298.113434)" fill="none" stroke-linejoin="miter" d="M -0.000670767 0.501039 L 1182.000544 0.501039 " stroke="#494746" stroke-width="1" stroke-opacity="1" stroke-miterlimit="4"/></g><g clip-path="url(#47ef50ebce)"><path stroke-linecap="butt" transform="matrix(0.740343, -0.000000000000000092, 0.000000000000000092, 0.740343, 0.0825278, 265.06271)" fill="none" stroke-linejoin="miter" d="M -0.000670767 0.500962 L 1182.000544 0.500962 " stroke="#494746" stroke-width="1" stroke-opacity="1" stroke-miterlimit="4"/></g><g clip-path="url(#32f8cf84b5)"><path stroke-linecap="butt" transform="matrix(0.740343, -0.000000000000000092, 0.000000000000000092, 0.740343, 0.0825278, 232.012045)" fill="none" stroke-linejoin="miter" d="M -0.000670767 0.500805 L 1182.000544 0.500805 " stroke="#494746" stroke-width="1" stroke-opacity="1" stroke-miterlimit="4"/></g><g clip-path="url(#bc55abc360)"><path stroke-linecap="butt" transform="matrix(0.740343, -0.000000000000000092, 0.000000000000000092, 0.740343, 0.0825278, 198.961381)" fill="none" stroke-linejoin="miter" d="M -0.000670767 0.500647 L 1182.000544 0.500647 " stroke="#494746" stroke-width="1" stroke-opacity="1" stroke-miterlimit="4"/></g><g clip-path="url(#d6976f0bef)"><path stroke-linecap="butt" transform="matrix(0.740343, 0, 0, 0.740343, 0.0825278, 165.910659)" fill="none" stroke-linejoin="miter" d="M -0.000670767 0.500567 L 1182.000544 0.500567 " stroke="#494746" stroke-width="1" stroke-opacity="1" stroke-miterlimit="4"/></g><g clip-path="url(#b0baf5f2ce)"><path stroke-linecap="butt" transform="matrix(0.740343, -0.000000000000000184, 0.000000000000000184, 0.740343, 0.0825278, 132.859992)" fill="none" stroke-linejoin="miter" d="M -0.000670767 0.500412 L 1182.000544 0.500412 " stroke="#494746" stroke-width="1" stroke-opacity="1" stroke-miterlimit="4"/></g><g clip-path="url(#eebd006722)"><path stroke-linecap="butt" transform="matrix(0.740343, -0.000000000000000092, 0.000000000000000092, 0.740343, 0.0825278, 99.809328)" fill="none" stroke-linejoin="miter" d="M -0.000670767 0.500255 L 1182.000544 0.500255 " stroke="#494746" stroke-width="1" stroke-opacity="1" stroke-miterlimit="4"/></g><g clip-path="url(#596fe1e462)"><path stroke-linecap="butt" transform="matrix(0.740343, 0, 0, 0.740343, 0.0825278, 66.758663)" fill="none" stroke-linejoin="miter" d="M -0.000670767 0.500097 L 1182.000544 0.500097 " stroke="#494746" stroke-width="1" stroke-opacity="1" stroke-miterlimit="4"/></g><g clip-path="url(#70a3de0fa2)"><path stroke-linecap="butt" transform="matrix(0.740343, -0.000000000000000092, 0.000000000000000092, 0.740343, 0.0825278, 33.707941)" fill="none" stroke-linejoin="miter" d="M -0.000670767 0.500017 L 1182.000544 0.500017 " stroke="#494746" stroke-width="1" stroke-opacity="1" stroke-miterlimit="4"/></g><g clip-path="url(#2a71e7e060)"><path stroke-linecap="butt" transform="matrix(0.740343, -0.000000000000000092, 0.000000000000000092, 0.740343, 0.0825278, 0.657276)" fill="none" stroke-linejoin="miter" d="M -0.000670767 0.49986 L 1182.000544 0.49986 " stroke="#494746" stroke-width="1" stroke-opacity="1" stroke-miterlimit="4"/></g></g></g></g><g clip-path="url(#ef4df082df)"><path stroke-linecap="butt" transform="matrix(0.749859, -0.000000000000000186, 0.000000000000000186, 0.749859, 0.0825278, 1257.449231)" fill="none" stroke-linejoin="miter" d="M -0.000662255 0.500078 L 1167.000522 0.500078 " stroke="#443d34" stroke-width="1" stroke-opacity="1" stroke-miterlimit="4"/></g><g clip-path="url(#d16ba9e135)"><path stroke-linecap="butt" transform="matrix(0.749859, -0.000000000000000186, 0.000000000000000186, 0.749859, 0.0825278, 1290.443011)" fill="none" stroke-linejoin="miter" d="M -0.000662255 0.497954 L 1167.000522 0.497954 " stroke="#443d34" stroke-width="1" stroke-opacity="1" stroke-miterlimit="4"/></g><g clip-path="url(#d798c3dfab)"><path stroke-linecap="butt" transform="matrix(0.749859, -0.000000000000000186, 0.000000000000000186, 0.749859, 0.0825278, 1323.436792)" fill="none" stroke-linejoin="miter" d="M -0.000662255 0.501038 L 1167.000522 0.501038 " stroke="#443d34" stroke-width="1" stroke-opacity="1" stroke-miterlimit="4"/></g></svg>