<svg xmlns="http://www.w3.org/2000/svg" xmlns:xlink="http://www.w3.org/1999/xlink" width="1200" zoomAndPan="magnify" viewBox="0 0 900 675.000002" height="900" preserveAspectRatio="xMidYMid meet" version="1.0"><defs><g/><clipPath id="87747732ea"><path d="M 41 5 L 49.824219 5 L 49.824219 15 L 41 15 Z M 41 5 " clip-rule="nonzero"/></clipPath><clipPath id="dd2e2a708a"><rect x="0" width="50" y="0" height="20"/></clipPath><clipPath id="d94e5b6384"><rect x="0" width="97" y="0" height="20"/></clipPath><clipPath id="44588f33e7"><path d="M 225.332031 40.402344 L 674.667969 40.402344 L 674.667969 634 L 225.332031 634 Z M 225.332031 40.402344 " clip-rule="nonzero"/></clipPath><clipPath id="e888578ba8"><path d="M 271.316406 51.566406 L 312.507812 51.566406 L 312.507812 92.753906 L 271.316406 92.753906 Z M 271.316406 51.566406 " clip-rule="nonzero"/></clipPath></defs><g transform="matrix(1, 0, 0, 1, 410, 61)"><g clip-path="url(#dd2e2a708a)"><g fill="#000000" fill-opacity="1"><g transform="translate(1.426574, 14.796279)"><g><path d="M 5.578125 -0.8125 C 6.171875 -0.8125 6.734375 -0.925781 7.265625 -1.15625 C 7.804688 -1.394531 8.257812 -1.71875 8.625 -2.125 L 9.296875 -1.421875 C 8.828125 -0.929688 8.265625 -0.546875 7.609375 -0.265625 C 6.953125 0.015625 6.265625 0.15625 5.546875 0.15625 C 4.859375 0.15625 4.210938 0.03125 3.609375 -0.21875 C 3.003906 -0.476562 2.476562 -0.828125 2.03125 -1.265625 C 1.582031 -1.710938 1.226562 -2.238281 0.96875 -2.84375 C 0.71875 -3.445312 0.59375 -4.09375 0.59375 -4.78125 C 0.59375 -5.457031 0.71875 -6.097656 0.96875 -6.703125 C 1.226562 -7.304688 1.582031 -7.828125 2.03125 -8.265625 C 2.476562 -8.710938 3.003906 -9.0625 3.609375 -9.3125 C 4.210938 -9.570312 4.859375 -9.703125 5.546875 -9.703125 C 6.285156 -9.703125 6.984375 -9.5625 7.640625 -9.28125 C 8.304688 -9 8.867188 -8.613281 9.328125 -8.125 L 8.640625 -7.390625 C 8.265625 -7.804688 7.800781 -8.132812 7.25 -8.375 C 6.695312 -8.613281 6.128906 -8.734375 5.546875 -8.734375 C 5.003906 -8.734375 4.492188 -8.628906 4.015625 -8.421875 C 3.535156 -8.210938 3.125 -7.929688 2.78125 -7.578125 C 2.4375 -7.234375 2.164062 -6.816406 1.96875 -6.328125 C 1.769531 -5.847656 1.671875 -5.332031 1.671875 -4.78125 C 1.671875 -4.21875 1.769531 -3.691406 1.96875 -3.203125 C 2.164062 -2.722656 2.4375 -2.304688 2.78125 -1.953125 C 3.132812 -1.609375 3.550781 -1.332031 4.03125 -1.125 C 4.507812 -0.914062 5.023438 -0.8125 5.578125 -0.8125 Z M 5.578125 -0.8125 "/></g></g></g><g fill="#000000" fill-opacity="1"><g transform="translate(11.27175, 14.796279)"><g><path d="M 1.046875 0 L 1.046875 -9.546875 L 2.09375 -9.546875 L 2.09375 -0.9375 L 7.78125 -0.9375 L 7.78125 0 Z M 1.046875 0 "/></g></g></g><g fill="#000000" fill-opacity="1"><g transform="translate(19.507886, 14.796279)"><g><path d="M 1.046875 0 L 1.046875 -9.546875 L 2.09375 -9.546875 L 2.09375 0 Z M 1.046875 0 "/></g></g></g><g fill="#000000" fill-opacity="1"><g transform="translate(22.657795, 14.796279)"><g><path d="M 1.046875 0 L 1.046875 -9.546875 L 7.890625 -9.546875 L 7.890625 -8.625 L 2.09375 -8.625 L 2.09375 -5.28125 L 5.875 -5.28125 L 5.875 -4.359375 L 2.09375 -4.359375 L 2.09375 -0.921875 L 7.9375 -0.921875 L 7.9375 0 Z M 1.046875 0 "/></g></g></g><g fill="#000000" fill-opacity="1"><g transform="translate(31.057559, 14.796279)"><g><path d="M 1.046875 -9.546875 L 2.09375 -9.546875 L 7.84375 -1.796875 L 7.84375 -9.546875 L 8.84375 -9.546875 L 8.84375 0 L 7.90625 0 L 2.046875 -7.953125 L 2.046875 0 L 1.046875 0 Z M 1.046875 -9.546875 "/></g></g></g><g clip-path="url(#87747732ea)"><g fill="#000000" fill-opacity="1"><g transform="translate(40.943643, 14.796279)"><g><path d="M 0.234375 -8.609375 L 0.234375 -9.546875 L 8.1875 -9.546875 L 8.1875 -8.609375 L 4.734375 -8.609375 L 4.734375 0 L 3.6875 0 L 3.6875 -8.609375 Z M 0.234375 -8.609375 "/></g></g></g></g></g></g><g transform="matrix(1, 0, 0, 1, 546, 61)"><g clip-path="url(#d94e5b6384)"><g fill="#000000" fill-opacity="1"><g transform="translate(0.616983, 14.796279)"><g><path d="M 1.046875 -9.578125 L 2.109375 -9.578125 L 7.859375 -1.8125 L 7.859375 -9.578125 L 8.859375 -9.578125 L 8.859375 0 L 7.9375 0 L 2.046875 -7.96875 L 2.046875 0 L 1.046875 0 Z M 1.046875 -9.578125 "/></g></g></g><g fill="#000000" fill-opacity="1"><g transform="translate(10.522576, 14.796279)"><g><path d="M 1.046875 0 L 1.046875 -9.578125 L 7.90625 -9.578125 L 7.90625 -8.640625 L 2.109375 -8.640625 L 2.109375 -5.296875 L 5.890625 -5.296875 L 5.890625 -4.375 L 2.109375 -4.375 L 2.109375 -0.9375 L 7.953125 -0.9375 L 7.953125 0 Z M 1.046875 0 "/></g></g></g><g fill="#000000" fill-opacity="1"><g transform="translate(18.938916, 14.796279)"><g><path d="M 1.265625 0 L 0.046875 0 L 3.734375 -4.96875 L 0.28125 -9.578125 L 1.5625 -9.578125 L 4.359375 -5.765625 L 7.171875 -9.578125 L 8.390625 -9.578125 L 4.984375 -4.984375 L 8.6875 0 L 7.40625 0 L 4.34375 -4.171875 Z M 1.265625 0 "/></g></g></g><g fill="#000000" fill-opacity="1"><g transform="translate(27.519161, 14.796279)"><g><path d="M 0.234375 -8.625 L 0.234375 -9.578125 L 8.203125 -9.578125 L 8.203125 -8.625 L 4.75 -8.625 L 4.75 0 L 3.6875 0 L 3.6875 -8.625 Z M 0.234375 -8.625 "/></g></g></g><g fill="#000000" fill-opacity="1"><g transform="translate(35.949159, 14.796279)"><g/></g></g><g fill="#000000" fill-opacity="1"><g transform="translate(38.886683, 14.796279)"><g><path d="M 0.15625 -1.640625 L 0.84375 -2.359375 C 1.34375 -1.847656 1.867188 -1.457031 2.421875 -1.1875 C 2.984375 -0.914062 3.578125 -0.78125 4.203125 -0.78125 C 4.941406 -0.78125 5.550781 -0.957031 6.03125 -1.3125 C 6.519531 -1.664062 6.765625 -2.117188 6.765625 -2.671875 C 6.765625 -3.160156 6.59375 -3.535156 6.25 -3.796875 C 5.914062 -4.066406 5.351562 -4.265625 4.5625 -4.390625 L 3.1875 -4.609375 C 2.269531 -4.753906 1.59375 -5.023438 1.15625 -5.421875 C 0.71875 -5.816406 0.5 -6.351562 0.5 -7.03125 C 0.5 -7.820312 0.804688 -8.460938 1.421875 -8.953125 C 2.046875 -9.441406 2.859375 -9.6875 3.859375 -9.6875 C 4.523438 -9.6875 5.1875 -9.578125 5.84375 -9.359375 C 6.5 -9.140625 7.09375 -8.828125 7.625 -8.421875 L 7.03125 -7.609375 C 6.507812 -7.992188 5.976562 -8.285156 5.4375 -8.484375 C 4.90625 -8.691406 4.363281 -8.796875 3.8125 -8.796875 C 3.132812 -8.796875 2.582031 -8.632812 2.15625 -8.3125 C 1.726562 -8 1.515625 -7.597656 1.515625 -7.109375 C 1.515625 -6.660156 1.664062 -6.316406 1.96875 -6.078125 C 2.269531 -5.847656 2.765625 -5.675781 3.453125 -5.5625 L 4.828125 -5.34375 C 5.867188 -5.175781 6.628906 -4.878906 7.109375 -4.453125 C 7.585938 -4.035156 7.828125 -3.457031 7.828125 -2.71875 C 7.828125 -2.300781 7.734375 -1.914062 7.546875 -1.5625 C 7.367188 -1.21875 7.117188 -0.914062 6.796875 -0.65625 C 6.472656 -0.40625 6.085938 -0.207031 5.640625 -0.0625 C 5.191406 0.0703125 4.695312 0.140625 4.15625 0.140625 C 3.394531 0.140625 2.664062 -0.0078125 1.96875 -0.3125 C 1.28125 -0.625 0.675781 -1.066406 0.15625 -1.640625 Z M 0.15625 -1.640625 "/></g></g></g><g fill="#000000" fill-opacity="1"><g transform="translate(47.084414, 14.796279)"><g><path d="M 1.046875 0 L 1.046875 -9.578125 L 7.90625 -9.578125 L 7.90625 -8.640625 L 2.109375 -8.640625 L 2.109375 -5.296875 L 5.890625 -5.296875 L 5.890625 -4.375 L 2.109375 -4.375 L 2.109375 -0.9375 L 7.953125 -0.9375 L 7.953125 0 Z M 1.046875 0 "/></g></g></g><g fill="#000000" fill-opacity="1"><g transform="translate(55.500755, 14.796279)"><g><path d="M 0.15625 -1.640625 L 0.84375 -2.359375 C 1.34375 -1.847656 1.867188 -1.457031 2.421875 -1.1875 C 2.984375 -0.914062 3.578125 -0.78125 4.203125 -0.78125 C 4.941406 -0.78125 5.550781 -0.957031 6.03125 -1.3125 C 6.519531 -1.664062 6.765625 -2.117188 6.765625 -2.671875 C 6.765625 -3.160156 6.59375 -3.535156 6.25 -3.796875 C 5.914062 -4.066406 5.351562 -4.265625 4.5625 -4.390625 L 3.1875 -4.609375 C 2.269531 -4.753906 1.59375 -5.023438 1.15625 -5.421875 C 0.71875 -5.816406 0.5 -6.351562 0.5 -7.03125 C 0.5 -7.820312 0.804688 -8.460938 1.421875 -8.953125 C 2.046875 -9.441406 2.859375 -9.6875 3.859375 -9.6875 C 4.523438 -9.6875 5.1875 -9.578125 5.84375 -9.359375 C 6.5 -9.140625 7.09375 -8.828125 7.625 -8.421875 L 7.03125 -7.609375 C 6.507812 -7.992188 5.976562 -8.285156 5.4375 -8.484375 C 4.90625 -8.691406 4.363281 -8.796875 3.8125 -8.796875 C 3.132812 -8.796875 2.582031 -8.632812 2.15625 -8.3125 C 1.726562 -8 1.515625 -7.597656 1.515625 -7.109375 C 1.515625 -6.660156 1.664062 -6.316406 1.96875 -6.078125 C 2.269531 -5.847656 2.765625 -5.675781 3.453125 -5.5625 L 4.828125 -5.34375 C 5.867188 -5.175781 6.628906 -4.878906 7.109375 -4.453125 C 7.585938 -4.035156 7.828125 -3.457031 7.828125 -2.71875 C 7.828125 -2.300781 7.734375 -1.914062 7.546875 -1.5625 C 7.367188 -1.21875 7.117188 -0.914062 6.796875 -0.65625 C 6.472656 -0.40625 6.085938 -0.207031 5.640625 -0.0625 C 5.191406 0.0703125 4.695312 0.140625 4.15625 0.140625 C 3.394531 0.140625 2.664062 -0.0078125 1.96875 -0.3125 C 1.28125 -0.625 0.675781 -1.066406 0.15625 -1.640625 Z M 0.15625 -1.640625 "/></g></g></g><g fill="#000000" fill-opacity="1"><g transform="translate(63.835166, 14.796279)"><g><path d="M 0.15625 -1.640625 L 0.84375 -2.359375 C 1.34375 -1.847656 1.867188 -1.457031 2.421875 -1.1875 C 2.984375 -0.914062 3.578125 -0.78125 4.203125 -0.78125 C 4.941406 -0.78125 5.550781 -0.957031 6.03125 -1.3125 C 6.519531 -1.664062 6.765625 -2.117188 6.765625 -2.671875 C 6.765625 -3.160156 6.59375 -3.535156 6.25 -3.796875 C 5.914062 -4.066406 5.351562 -4.265625 4.5625 -4.390625 L 3.1875 -4.609375 C 2.269531 -4.753906 1.59375 -5.023438 1.15625 -5.421875 C 0.71875 -5.816406 0.5 -6.351562 0.5 -7.03125 C 0.5 -7.820312 0.804688 -8.460938 1.421875 -8.953125 C 2.046875 -9.441406 2.859375 -9.6875 3.859375 -9.6875 C 4.523438 -9.6875 5.1875 -9.578125 5.84375 -9.359375 C 6.5 -9.140625 7.09375 -8.828125 7.625 -8.421875 L 7.03125 -7.609375 C 6.507812 -7.992188 5.976562 -8.285156 5.4375 -8.484375 C 4.90625 -8.691406 4.363281 -8.796875 3.8125 -8.796875 C 3.132812 -8.796875 2.582031 -8.632812 2.15625 -8.3125 C 1.726562 -8 1.515625 -7.597656 1.515625 -7.109375 C 1.515625 -6.660156 1.664062 -6.316406 1.96875 -6.078125 C 2.269531 -5.847656 2.765625 -5.675781 3.453125 -5.5625 L 4.828125 -5.34375 C 5.867188 -5.175781 6.628906 -4.878906 7.109375 -4.453125 C 7.585938 -4.035156 7.828125 -3.457031 7.828125 -2.71875 C 7.828125 -2.300781 7.734375 -1.914062 7.546875 -1.5625 C 7.367188 -1.21875 7.117188 -0.914062 6.796875 -0.65625 C 6.472656 -0.40625 6.085938 -0.207031 5.640625 -0.0625 C 5.191406 0.0703125 4.695312 0.140625 4.15625 0.140625 C 3.394531 0.140625 2.664062 -0.0078125 1.96875 -0.3125 C 1.28125 -0.625 0.675781 -1.066406 0.15625 -1.640625 Z M 0.15625 -1.640625 "/></g></g></g><g fill="#000000" fill-opacity="1"><g transform="translate(72.032897, 14.796279)"><g><path d="M 1.046875 0 L 1.046875 -9.578125 L 2.109375 -9.578125 L 2.109375 0 Z M 1.046875 0 "/></g></g></g><g fill="#000000" fill-opacity="1"><g transform="translate(75.189024, 14.796279)"><g><path d="M 10.453125 -4.78125 C 10.453125 -4.101562 10.320312 -3.457031 10.0625 -2.84375 C 9.8125 -2.238281 9.46875 -1.710938 9.03125 -1.265625 C 8.59375 -0.828125 8.070312 -0.476562 7.46875 -0.21875 C 6.863281 0.03125 6.21875 0.15625 5.53125 0.15625 C 4.851562 0.15625 4.207031 0.03125 3.59375 -0.21875 C 2.988281 -0.476562 2.46875 -0.828125 2.03125 -1.265625 C 1.59375 -1.710938 1.242188 -2.238281 0.984375 -2.84375 C 0.734375 -3.457031 0.609375 -4.101562 0.609375 -4.78125 C 0.609375 -5.46875 0.734375 -6.113281 0.984375 -6.71875 C 1.242188 -7.320312 1.59375 -7.84375 2.03125 -8.28125 C 2.46875 -8.726562 2.988281 -9.078125 3.59375 -9.328125 C 4.207031 -9.585938 4.851562 -9.71875 5.53125 -9.71875 C 6.21875 -9.71875 6.863281 -9.585938 7.46875 -9.328125 C 8.070312 -9.078125 8.59375 -8.726562 9.03125 -8.28125 C 9.46875 -7.84375 9.8125 -7.320312 10.0625 -6.71875 C 10.320312 -6.113281 10.453125 -5.46875 10.453125 -4.78125 Z M 9.390625 -4.78125 C 9.390625 -5.34375 9.289062 -5.863281 9.09375 -6.34375 C 8.894531 -6.832031 8.625 -7.253906 8.28125 -7.609375 C 7.9375 -7.960938 7.523438 -8.238281 7.046875 -8.4375 C 6.578125 -8.644531 6.070312 -8.75 5.53125 -8.75 C 4.988281 -8.75 4.476562 -8.644531 4 -8.4375 C 3.53125 -8.238281 3.125 -7.960938 2.78125 -7.609375 C 2.4375 -7.253906 2.164062 -6.832031 1.96875 -6.34375 C 1.769531 -5.863281 1.671875 -5.34375 1.671875 -4.78125 C 1.671875 -4.226562 1.769531 -3.707031 1.96875 -3.21875 C 2.164062 -2.738281 2.4375 -2.320312 2.78125 -1.96875 C 3.125 -1.613281 3.53125 -1.332031 4 -1.125 C 4.476562 -0.925781 4.988281 -0.828125 5.53125 -0.828125 C 6.070312 -0.828125 6.578125 -0.925781 7.046875 -1.125 C 7.523438 -1.332031 7.9375 -1.613281 8.28125 -1.96875 C 8.625 -2.320312 8.894531 -2.738281 9.09375 -3.21875 C 9.289062 -3.707031 9.390625 -4.226562 9.390625 -4.78125 Z M 9.390625 -4.78125 "/></g></g></g><g fill="#000000" fill-opacity="1"><g transform="translate(86.242296, 14.796279)"><g><path d="M 1.046875 -9.578125 L 2.109375 -9.578125 L 7.859375 -1.8125 L 7.859375 -9.578125 L 8.859375 -9.578125 L 8.859375 0 L 7.9375 0 L 2.046875 -7.96875 L 2.046875 0 L 1.046875 0 Z M 1.046875 -9.578125 "/></g></g></g></g></g><g clip-path="url(#44588f33e7)"><path stroke-linecap="butt" transform="matrix(0.748891, 0, 0, 0.748891, 225.33283, 40.401433)" fill-opacity="1" fill="#000000" fill-rule="nonzero" stroke-linejoin="miter" d="M 0.572699 1.148747 L 0.572699 790.952543 M 174.825267 1.148747 L 174.825267 790.952543 M 387.123701 1.148747 L 387.123701 790.952543 M 599.427351 1.148747 L 599.427351 790.952543 M -0.00106686 0.574981 L 600.001117 0.574981 M -0.00106686 82.712114 L 600.001117 82.712114 M -0.00106686 161.469247 L 600.001117 161.469247 M -0.00106686 240.226379 L 600.001117 240.226379 M -0.00106686 318.983512 L 600.001117 318.983512 M -0.00106686 397.740645 L 600.001117 397.740645 M -0.00106686 476.497777 L 600.001117 476.497777 M -0.00106686 555.25491 L 600.001117 555.25491 M -0.00106686 634.012043 L 600.001117 634.012043 M -0.00106686 712.769175 L 600.001117 712.769175 M -0.00106686 791.526308 L 600.001117 791.526308 " stroke="#000000" stroke-width="1.150372" stroke-opacity="1" stroke-miterlimit="4"/></g><g clip-path="url(#e888578ba8)"><path fill="#000000" d="M 291.910156 51.566406 C 280.519531 51.566406 271.316406 60.832031 271.316406 72.160156 C 271.316406 83.492188 280.519531 92.753906 291.910156 92.753906 C 303.304688 92.753906 312.507812 83.554688 312.507812 72.160156 C 312.507812 60.769531 303.304688 51.566406 291.910156 51.566406 Z M 291.910156 90.3125 C 281.894531 90.3125 273.757812 82.175781 273.757812 72.160156 C 273.757812 62.144531 281.894531 54.007812 291.910156 54.007812 C 301.925781 54.007812 310.066406 62.144531 310.066406 72.160156 C 310.066406 82.175781 301.925781 90.3125 291.910156 90.3125 Z M 291.910156 90.3125 " fill-opacity="1" fill-rule="nonzero"/></g><path fill="#000000" d="M 299.484375 72.914062 C 299.925781 72.914062 300.238281 72.535156 300.238281 72.160156 C 300.238281 71.722656 299.863281 71.410156 299.484375 71.410156 L 293.539062 71.410156 C 293.351562 71.035156 293.039062 70.660156 292.601562 70.535156 L 292.601562 60.832031 C 292.601562 60.394531 292.289062 60.078125 291.847656 60.078125 C 291.410156 60.078125 291.097656 60.394531 291.097656 60.832031 L 291.097656 70.472656 C 290.472656 70.785156 290.035156 71.410156 290.035156 72.160156 C 290.035156 73.164062 290.847656 73.976562 291.847656 73.976562 C 292.601562 73.976562 293.226562 73.539062 293.476562 72.914062 Z M 299.484375 72.914062 " fill-opacity="1" fill-rule="nonzero"/><path fill="#000000" d="M 292.039062 57.828125 C 292.351562 57.828125 292.601562 57.574219 292.601562 57.261719 L 292.601562 55.449219 C 292.601562 55.132812 292.351562 54.882812 292.039062 54.882812 C 291.722656 54.882812 291.472656 55.132812 291.472656 55.449219 L 291.472656 57.261719 C 291.472656 57.574219 291.722656 57.828125 292.039062 57.828125 Z M 292.039062 57.828125 " fill-opacity="1" fill-rule="nonzero"/><path fill="#000000" d="M 284.148438 57.261719 C 283.960938 57.011719 283.648438 56.886719 283.398438 57.074219 C 283.148438 57.261719 283.023438 57.574219 283.210938 57.828125 L 284.148438 59.390625 C 284.335938 59.640625 284.652344 59.765625 284.902344 59.578125 C 285.152344 59.390625 285.277344 59.078125 285.089844 58.828125 Z M 284.148438 57.261719 " fill-opacity="1" fill-rule="nonzero"/><path fill="#000000" d="M 279.328125 64.085938 L 277.765625 63.148438 C 277.515625 62.960938 277.140625 63.085938 277.015625 63.335938 C 276.824219 63.585938 276.953125 63.960938 277.203125 64.085938 L 278.765625 65.023438 C 279.015625 65.210938 279.390625 65.085938 279.519531 64.835938 C 279.707031 64.585938 279.644531 64.210938 279.328125 64.085938 Z M 279.328125 64.085938 " fill-opacity="1" fill-rule="nonzero"/><path fill="#000000" d="M 277.578125 72.035156 C 277.578125 71.722656 277.328125 71.472656 277.015625 71.472656 L 275.199219 71.472656 C 274.886719 71.472656 274.636719 71.722656 274.636719 72.035156 C 274.636719 72.347656 274.886719 72.597656 275.199219 72.597656 L 277.015625 72.597656 C 277.328125 72.597656 277.578125 72.347656 277.578125 72.035156 Z M 277.578125 72.035156 " fill-opacity="1" fill-rule="nonzero"/><path fill="#000000" d="M 278.640625 78.984375 L 277.078125 79.921875 C 276.824219 80.109375 276.699219 80.425781 276.886719 80.675781 C 277.078125 80.925781 277.390625 81.050781 277.640625 80.863281 L 279.203125 79.921875 C 279.457031 79.734375 279.582031 79.421875 279.390625 79.171875 C 279.265625 78.921875 278.890625 78.859375 278.640625 78.984375 Z M 278.640625 78.984375 " fill-opacity="1" fill-rule="nonzero"/><path fill="#000000" d="M 284.589844 84.492188 C 284.335938 84.304688 283.960938 84.429688 283.835938 84.679688 L 282.898438 86.246094 C 282.710938 86.496094 282.835938 86.871094 283.085938 86.996094 C 283.335938 87.183594 283.710938 87.058594 283.835938 86.808594 L 284.777344 85.242188 C 284.964844 84.992188 284.902344 84.679688 284.589844 84.492188 Z M 284.589844 84.492188 " fill-opacity="1" fill-rule="nonzero"/><path fill="#000000" d="M 291.785156 86.496094 C 291.472656 86.496094 291.222656 86.746094 291.222656 87.058594 L 291.222656 88.875 C 291.222656 89.1875 291.472656 89.4375 291.785156 89.4375 C 292.101562 89.4375 292.351562 89.1875 292.351562 88.875 L 292.351562 87.058594 C 292.351562 86.746094 292.101562 86.496094 291.785156 86.496094 Z M 291.785156 86.496094 " fill-opacity="1" fill-rule="nonzero"/><path fill="#000000" d="M 299.738281 84.867188 C 299.546875 84.617188 299.234375 84.492188 298.984375 84.679688 C 298.734375 84.867188 298.609375 85.179688 298.796875 85.429688 L 299.738281 86.996094 C 299.925781 87.246094 300.238281 87.371094 300.488281 87.183594 C 300.738281 86.996094 300.863281 86.683594 300.675781 86.433594 Z M 299.738281 84.867188 " fill-opacity="1" fill-rule="nonzero"/><path fill="#000000" d="M 306.621094 80.171875 L 305.058594 79.234375 C 304.808594 79.046875 304.429688 79.171875 304.304688 79.421875 C 304.117188 79.671875 304.242188 80.046875 304.492188 80.171875 L 306.058594 81.113281 C 306.308594 81.300781 306.683594 81.175781 306.808594 80.925781 C 306.996094 80.675781 306.871094 80.296875 306.621094 80.171875 Z M 306.621094 80.171875 " fill-opacity="1" fill-rule="nonzero"/><path fill="#000000" d="M 308.6875 71.722656 L 306.871094 71.722656 C 306.558594 71.722656 306.308594 71.972656 306.308594 72.285156 C 306.308594 72.597656 306.558594 72.847656 306.871094 72.847656 L 308.6875 72.847656 C 309 72.847656 309.25 72.597656 309.25 72.285156 C 309.25 71.972656 309 71.722656 308.6875 71.722656 Z M 308.6875 71.722656 " fill-opacity="1" fill-rule="nonzero"/><path fill="#000000" d="M 305.183594 65.339844 L 306.746094 64.398438 C 306.996094 64.210938 307.125 63.898438 306.933594 63.648438 C 306.746094 63.398438 306.433594 63.273438 306.183594 63.460938 L 304.621094 64.398438 C 304.367188 64.585938 304.242188 64.898438 304.429688 65.148438 C 304.554688 65.402344 304.933594 65.464844 305.183594 65.339844 Z M 305.183594 65.339844 " fill-opacity="1" fill-rule="nonzero"/><path fill="#000000" d="M 300.675781 57.261719 C 300.425781 57.074219 300.050781 57.199219 299.925781 57.449219 L 298.984375 59.015625 C 298.796875 59.265625 298.921875 59.640625 299.171875 59.765625 C 299.421875 59.953125 299.800781 59.828125 299.925781 59.578125 L 300.863281 58.015625 C 301.050781 57.761719 300.988281 57.386719 300.675781 57.261719 Z M 300.675781 57.261719 " fill-opacity="1" fill-rule="nonzero"/></svg>