<svg xmlns="http://www.w3.org/2000/svg" xmlns:xlink="http://www.w3.org/1999/xlink" width="600" zoomAndPan="magnify" viewBox="0 0 450 112.499997" height="150" preserveAspectRatio="xMidYMid meet" version="1.0"><defs><g/></defs><g fill="#000000" fill-opacity="1"><g transform="translate(15.179926, 77.834138)"><g><path d="M 30.4375 -56.234375 C 34.40625 -56.234375 37.875 -55.484375 40.84375 -53.984375 C 43.820312 -52.484375 46.273438 -50.40625 48.203125 -47.75 C 50.128906 -45.101562 51.5625 -42.09375 52.5 -38.71875 C 53.4375 -35.34375 53.90625 -31.804688 53.90625 -28.109375 C 53.90625 -22.972656 53.0625 -18.273438 51.375 -14.015625 C 49.6875 -9.753906 47.113281 -6.351562 43.65625 -3.8125 C 40.207031 -1.269531 35.800781 0 30.4375 0 L 9.953125 0 C 9.316406 0 8.753906 -0.238281 8.265625 -0.71875 C 7.785156 -1.207031 7.546875 -1.769531 7.546875 -2.40625 L 7.546875 -53.8125 C 7.546875 -54.457031 7.785156 -55.019531 8.265625 -55.5 C 8.753906 -55.988281 9.316406 -56.234375 9.953125 -56.234375 Z M 29.640625 -4.734375 C 34.191406 -4.734375 37.859375 -5.773438 40.640625 -7.859375 C 43.429688 -9.953125 45.484375 -12.78125 46.796875 -16.34375 C 48.109375 -19.90625 48.765625 -23.828125 48.765625 -28.109375 C 48.765625 -31.222656 48.398438 -34.179688 47.671875 -36.984375 C 46.953125 -39.796875 45.828125 -42.285156 44.296875 -44.453125 C 42.773438 -46.628906 40.796875 -48.34375 38.359375 -49.59375 C 35.921875 -50.851562 33.015625 -51.484375 29.640625 -51.484375 L 12.046875 -51.484375 L 12.609375 -52.21875 L 12.609375 -3.9375 L 12.125 -4.734375 Z M 29.640625 -4.734375 "/></g></g></g><g fill="#000000" fill-opacity="1"><g transform="translate(72.934698, 77.834138)"><g><path d="M 9.953125 -56.234375 L 39.4375 -56.234375 C 40.082031 -56.234375 40.644531 -56.003906 41.125 -55.546875 C 41.601562 -55.085938 41.84375 -54.507812 41.84375 -53.8125 C 41.84375 -53.125 41.601562 -52.5625 41.125 -52.125 C 40.644531 -51.695312 40.082031 -51.484375 39.4375 -51.484375 L 11.8125 -51.484375 L 12.609375 -52.859375 L 12.609375 -30.28125 L 11.734375 -31.328125 L 35.828125 -31.328125 C 36.472656 -31.328125 37.035156 -31.082031 37.515625 -30.59375 C 37.992188 -30.113281 38.234375 -29.554688 38.234375 -28.921875 C 38.234375 -28.222656 37.992188 -27.660156 37.515625 -27.234375 C 37.035156 -26.804688 36.472656 -26.59375 35.828125 -26.59375 L 11.890625 -26.59375 L 12.609375 -27.390625 L 12.609375 -4.25 L 12.203125 -4.734375 L 39.4375 -4.734375 C 40.082031 -4.734375 40.644531 -4.492188 41.125 -4.015625 C 41.601562 -3.535156 41.84375 -2.972656 41.84375 -2.328125 C 41.84375 -1.628906 41.601562 -1.066406 41.125 -0.640625 C 40.644531 -0.210938 40.082031 0 39.4375 0 L 9.953125 0 C 9.316406 0 8.753906 -0.238281 8.265625 -0.71875 C 7.785156 -1.207031 7.546875 -1.769531 7.546875 -2.40625 L 7.546875 -53.8125 C 7.546875 -54.457031 7.785156 -55.019531 8.265625 -55.5 C 8.753906 -55.988281 9.316406 -56.234375 9.953125 -56.234375 Z M 9.953125 -56.234375 "/></g></g></g><g fill="#000000" fill-opacity="1"><g transform="translate(118.560158, 77.834138)"><g><path d="M 48.59375 -52.046875 C 49.238281 -51.617188 49.613281 -51.070312 49.71875 -50.40625 C 49.832031 -49.738281 49.671875 -49.082031 49.234375 -48.4375 C 48.859375 -47.957031 48.375 -47.6875 47.78125 -47.625 C 47.195312 -47.570312 46.640625 -47.679688 46.109375 -47.953125 C 44.078125 -49.296875 41.894531 -50.34375 39.5625 -51.09375 C 37.226562 -51.84375 34.722656 -52.21875 32.046875 -52.21875 C 28.785156 -52.21875 25.75 -51.640625 22.9375 -50.484375 C 20.125 -49.335938 17.671875 -47.675781 15.578125 -45.5 C 13.492188 -43.332031 11.875 -40.773438 10.71875 -37.828125 C 9.570312 -34.890625 9 -31.648438 9 -28.109375 C 9 -24.472656 9.585938 -21.164062 10.765625 -18.1875 C 11.941406 -15.21875 13.585938 -12.660156 15.703125 -10.515625 C 17.816406 -8.378906 20.265625 -6.75 23.046875 -5.625 C 25.835938 -4.5 28.835938 -3.9375 32.046875 -3.9375 C 34.671875 -3.9375 37.144531 -4.3125 39.46875 -5.0625 C 41.800781 -5.8125 43.988281 -6.828125 46.03125 -8.109375 C 46.5625 -8.429688 47.132812 -8.550781 47.75 -8.46875 C 48.363281 -8.394531 48.859375 -8.085938 49.234375 -7.546875 C 49.722656 -6.960938 49.898438 -6.332031 49.765625 -5.65625 C 49.628906 -4.988281 49.265625 -4.46875 48.671875 -4.09375 C 47.335938 -3.238281 45.757812 -2.4375 43.9375 -1.6875 C 42.113281 -0.9375 40.1875 -0.335938 38.15625 0.109375 C 36.125 0.566406 34.085938 0.796875 32.046875 0.796875 C 28.191406 0.796875 24.578125 0.101562 21.203125 -1.28125 C 17.828125 -2.675781 14.828125 -4.644531 12.203125 -7.1875 C 9.585938 -9.726562 7.539062 -12.765625 6.0625 -16.296875 C 4.59375 -19.835938 3.859375 -23.773438 3.859375 -28.109375 C 3.859375 -32.285156 4.578125 -36.128906 6.015625 -39.640625 C 7.460938 -43.148438 9.472656 -46.1875 12.046875 -48.75 C 14.617188 -51.320312 17.617188 -53.332031 21.046875 -54.78125 C 24.472656 -56.226562 28.140625 -56.953125 32.046875 -56.953125 C 35.097656 -56.953125 38.039062 -56.519531 40.875 -55.65625 C 43.71875 -54.800781 46.289062 -53.597656 48.59375 -52.046875 Z M 48.59375 -52.046875 "/></g></g></g><g fill="#000000" fill-opacity="1"><g transform="translate(171.013373, 77.834138)"><g><path d="M 9.953125 -56.234375 L 39.4375 -56.234375 C 40.082031 -56.234375 40.644531 -56.003906 41.125 -55.546875 C 41.601562 -55.085938 41.84375 -54.507812 41.84375 -53.8125 C 41.84375 -53.125 41.601562 -52.5625 41.125 -52.125 C 40.644531 -51.695312 40.082031 -51.484375 39.4375 -51.484375 L 11.8125 -51.484375 L 12.609375 -52.859375 L 12.609375 -30.28125 L 11.734375 -31.328125 L 35.828125 -31.328125 C 36.472656 -31.328125 37.035156 -31.082031 37.515625 -30.59375 C 37.992188 -30.113281 38.234375 -29.554688 38.234375 -28.921875 C 38.234375 -28.222656 37.992188 -27.660156 37.515625 -27.234375 C 37.035156 -26.804688 36.472656 -26.59375 35.828125 -26.59375 L 11.890625 -26.59375 L 12.609375 -27.390625 L 12.609375 -4.25 L 12.203125 -4.734375 L 39.4375 -4.734375 C 40.082031 -4.734375 40.644531 -4.492188 41.125 -4.015625 C 41.601562 -3.535156 41.84375 -2.972656 41.84375 -2.328125 C 41.84375 -1.628906 41.601562 -1.066406 41.125 -0.640625 C 40.644531 -0.210938 40.082031 0 39.4375 0 L 9.953125 0 C 9.316406 0 8.753906 -0.238281 8.265625 -0.71875 C 7.785156 -1.207031 7.546875 -1.769531 7.546875 -2.40625 L 7.546875 -53.8125 C 7.546875 -54.457031 7.785156 -55.019531 8.265625 -55.5 C 8.753906 -55.988281 9.316406 -56.234375 9.953125 -56.234375 Z M 9.953125 -56.234375 "/></g></g></g><g fill="#000000" fill-opacity="1"><g transform="translate(216.638833, 77.834138)"><g><path d="M 9.953125 -56.234375 C 10.328125 -56.234375 10.71875 -56.148438 11.125 -55.984375 C 11.53125 -55.828125 11.863281 -55.5625 12.125 -55.1875 L 34.296875 -21.921875 L 32.125 -22.015625 L 54.375 -55.1875 C 54.96875 -55.988281 55.691406 -56.335938 56.546875 -56.234375 C 57.191406 -56.234375 57.738281 -56.003906 58.1875 -55.546875 C 58.644531 -55.085938 58.875 -54.507812 58.875 -53.8125 L 58.875 -2.40625 C 58.875 -1.769531 58.632812 -1.207031 58.15625 -0.71875 C 57.675781 -0.238281 57.085938 0 56.390625 0 C 55.640625 0 55.019531 -0.238281 54.53125 -0.71875 C 54.050781 -1.207031 53.8125 -1.769531 53.8125 -2.40625 L 53.8125 -48.921875 L 55.265625 -48.765625 L 34.9375 -18 C 34.78125 -17.675781 34.539062 -17.421875 34.21875 -17.234375 C 33.894531 -17.046875 33.519531 -16.976562 33.09375 -17.03125 C 32.71875 -16.976562 32.351562 -17.046875 32 -17.234375 C 31.65625 -17.421875 31.378906 -17.675781 31.171875 -18 L 10.765625 -49.078125 L 12.296875 -50.125 L 12.296875 -2.40625 C 12.296875 -1.769531 12.066406 -1.207031 11.609375 -0.71875 C 11.148438 -0.238281 10.570312 0 9.875 0 C 9.1875 0 8.625 -0.238281 8.1875 -0.71875 C 7.757812 -1.207031 7.546875 -1.769531 7.546875 -2.40625 L 7.546875 -53.8125 C 7.546875 -54.457031 7.773438 -55.019531 8.234375 -55.5 C 8.691406 -55.988281 9.265625 -56.234375 9.953125 -56.234375 Z M 9.953125 -56.234375 "/></g></g></g><g fill="#000000" fill-opacity="1"><g transform="translate(283.068864, 77.834138)"><g><path d="M 31.25 -56.234375 C 35.75 -56.234375 39.269531 -55.015625 41.8125 -52.578125 C 44.351562 -50.140625 45.625 -46.75 45.625 -42.40625 C 45.625 -40.164062 45.140625 -38.023438 44.171875 -35.984375 C 43.210938 -33.953125 41.796875 -32.304688 39.921875 -31.046875 C 38.046875 -29.785156 35.71875 -29.078125 32.9375 -28.921875 L 32.609375 -30.53125 C 34.585938 -30.53125 36.523438 -30.25 38.421875 -29.6875 C 40.328125 -29.125 42.03125 -28.222656 43.53125 -26.984375 C 45.03125 -25.753906 46.234375 -24.210938 47.140625 -22.359375 C 48.054688 -20.515625 48.515625 -18.28125 48.515625 -15.65625 C 48.515625 -12.875 48.046875 -10.476562 47.109375 -8.46875 C 46.171875 -6.46875 44.910156 -4.847656 43.328125 -3.609375 C 41.753906 -2.378906 39.945312 -1.46875 37.90625 -0.875 C 35.875 -0.289062 33.757812 0 31.5625 0 L 9.953125 0 C 9.316406 0 8.753906 -0.238281 8.265625 -0.71875 C 7.785156 -1.207031 7.546875 -1.769531 7.546875 -2.40625 L 7.546875 -53.8125 C 7.546875 -54.457031 7.785156 -55.019531 8.265625 -55.5 C 8.753906 -55.988281 9.316406 -56.234375 9.953125 -56.234375 Z M 30.609375 -51.484375 L 11.734375 -51.484375 L 12.6875 -52.9375 L 12.6875 -30.203125 L 11.8125 -31.40625 L 30.609375 -31.40625 C 33.390625 -31.457031 35.726562 -32.367188 37.625 -34.140625 C 39.53125 -35.910156 40.484375 -38.535156 40.484375 -42.015625 C 40.484375 -44.960938 39.625 -47.273438 37.90625 -48.953125 C 36.195312 -50.640625 33.765625 -51.484375 30.609375 -51.484375 Z M 31.171875 -26.59375 L 12.296875 -26.59375 L 12.6875 -27.078125 L 12.6875 -4.015625 L 12.203125 -4.734375 L 31.328125 -4.734375 C 34.753906 -4.734375 37.617188 -5.601562 39.921875 -7.34375 C 42.222656 -9.082031 43.375 -11.851562 43.375 -15.65625 C 43.375 -18.34375 42.8125 -20.488281 41.6875 -22.09375 C 40.5625 -23.695312 39.0625 -24.847656 37.1875 -25.546875 C 35.3125 -26.242188 33.304688 -26.59375 31.171875 -26.59375 Z M 31.171875 -26.59375 "/></g></g></g><g fill="#000000" fill-opacity="1"><g transform="translate(335.361443, 77.834138)"><g><path d="M 9.953125 -56.234375 L 39.4375 -56.234375 C 40.082031 -56.234375 40.644531 -56.003906 41.125 -55.546875 C 41.601562 -55.085938 41.84375 -54.507812 41.84375 -53.8125 C 41.84375 -53.125 41.601562 -52.5625 41.125 -52.125 C 40.644531 -51.695312 40.082031 -51.484375 39.4375 -51.484375 L 11.8125 -51.484375 L 12.609375 -52.859375 L 12.609375 -30.28125 L 11.734375 -31.328125 L 35.828125 -31.328125 C 36.472656 -31.328125 37.035156 -31.082031 37.515625 -30.59375 C 37.992188 -30.113281 38.234375 -29.554688 38.234375 -28.921875 C 38.234375 -28.222656 37.992188 -27.660156 37.515625 -27.234375 C 37.035156 -26.804688 36.472656 -26.59375 35.828125 -26.59375 L 11.890625 -26.59375 L 12.609375 -27.390625 L 12.609375 -4.25 L 12.203125 -4.734375 L 39.4375 -4.734375 C 40.082031 -4.734375 40.644531 -4.492188 41.125 -4.015625 C 41.601562 -3.535156 41.84375 -2.972656 41.84375 -2.328125 C 41.84375 -1.628906 41.601562 -1.066406 41.125 -0.640625 C 40.644531 -0.210938 40.082031 0 39.4375 0 L 9.953125 0 C 9.316406 0 8.753906 -0.238281 8.265625 -0.71875 C 7.785156 -1.207031 7.546875 -1.769531 7.546875 -2.40625 L 7.546875 -53.8125 C 7.546875 -54.457031 7.785156 -55.019531 8.265625 -55.5 C 8.753906 -55.988281 9.316406 -56.234375 9.953125 -56.234375 Z M 9.953125 -56.234375 "/></g></g></g><g fill="#000000" fill-opacity="1"><g transform="translate(380.986892, 77.834138)"><g><path d="M 10.28125 0 C 9.476562 0 8.820312 -0.238281 8.3125 -0.71875 C 7.800781 -1.207031 7.546875 -1.769531 7.546875 -2.40625 L 7.546875 -53.8125 C 7.546875 -54.457031 7.785156 -55.019531 8.265625 -55.5 C 8.753906 -55.988281 9.316406 -56.234375 9.953125 -56.234375 L 31.65625 -56.234375 C 34.707031 -56.234375 37.4375 -55.578125 39.84375 -54.265625 C 42.25 -52.953125 44.132812 -51.144531 45.5 -48.84375 C 46.863281 -46.539062 47.546875 -43.941406 47.546875 -41.046875 C 47.546875 -38.691406 47.117188 -36.519531 46.265625 -34.53125 C 45.410156 -32.550781 44.207031 -30.878906 42.65625 -29.515625 C 41.101562 -28.148438 39.363281 -27.148438 37.4375 -26.515625 L 34.625 -27.390625 C 36.601562 -27.234375 38.445312 -26.601562 40.15625 -25.5 C 41.875 -24.40625 43.253906 -22.90625 44.296875 -21 C 45.347656 -19.101562 45.898438 -16.816406 45.953125 -14.140625 C 46.003906 -11.835938 46.125 -10.039062 46.3125 -8.75 C 46.5 -7.46875 46.78125 -6.503906 47.15625 -5.859375 C 47.53125 -5.222656 48.007812 -4.71875 48.59375 -4.34375 C 49.132812 -4.019531 49.5 -3.5625 49.6875 -2.96875 C 49.875 -2.382812 49.804688 -1.820312 49.484375 -1.28125 C 49.265625 -0.851562 48.953125 -0.546875 48.546875 -0.359375 C 48.148438 -0.171875 47.738281 -0.078125 47.3125 -0.078125 C 46.882812 -0.078125 46.457031 -0.1875 46.03125 -0.40625 C 45.28125 -0.832031 44.515625 -1.5 43.734375 -2.40625 C 42.960938 -3.320312 42.320312 -4.660156 41.8125 -6.421875 C 41.300781 -8.191406 41.046875 -10.65625 41.046875 -13.8125 C 41.046875 -15.90625 40.710938 -17.617188 40.046875 -18.953125 C 39.378906 -20.296875 38.519531 -21.328125 37.46875 -22.046875 C 36.425781 -22.773438 35.273438 -23.285156 34.015625 -23.578125 C 32.753906 -23.867188 31.5625 -24.015625 30.4375 -24.015625 L 11.734375 -24.015625 L 12.609375 -25.140625 L 12.609375 -2.40625 C 12.609375 -1.769531 12.394531 -1.207031 11.96875 -0.71875 C 11.539062 -0.238281 10.976562 0 10.28125 0 Z M 11.734375 -28.4375 L 31.890625 -28.4375 C 33.710938 -28.59375 35.425781 -29.191406 37.03125 -30.234375 C 38.632812 -31.285156 39.929688 -32.71875 40.921875 -34.53125 C 41.910156 -36.351562 42.40625 -38.472656 42.40625 -40.890625 C 42.40625 -43.941406 41.375 -46.46875 39.3125 -48.46875 C 37.257812 -50.476562 34.570312 -51.484375 31.25 -51.484375 L 12.046875 -51.484375 L 12.609375 -52.609375 L 12.609375 -27.3125 Z M 11.734375 -28.4375 "/></g></g></g></svg>