<svg xmlns="http://www.w3.org/2000/svg" xmlns:xlink="http://www.w3.org/1999/xlink" width="600" zoomAndPan="magnify" viewBox="0 0 450 299.999988" height="400" preserveAspectRatio="xMidYMid meet" version="1.0"><defs><g/><clipPath id="1910f93868"><path d="M 65 63.171875 L 111 63.171875 L 111 151.558594 L 65 151.558594 Z M 65 63.171875 " clip-rule="nonzero"/></clipPath><clipPath id="7e065f552f"><path d="M 259 63.171875 L 304.773438 63.171875 L 304.773438 151.558594 L 259 151.558594 Z M 259 63.171875 " clip-rule="nonzero"/></clipPath><clipPath id="318e76c577"><path d="M 195 63.171875 L 241 63.171875 L 241 151.558594 L 195 151.558594 Z M 195 63.171875 " clip-rule="nonzero"/></clipPath><clipPath id="3f627ca3c8"><path d="M 130 63.171875 L 176 63.171875 L 176 151.558594 L 130 151.558594 Z M 130 63.171875 " clip-rule="nonzero"/></clipPath><clipPath id="6b1ef065ab"><path d="M 1.058594 63.171875 L 47 63.171875 L 47 151.558594 L 1.058594 151.558594 Z M 1.058594 63.171875 " clip-rule="nonzero"/></clipPath><clipPath id="344fcfc3d5"><path d="M 50 0.601562 L 256 0.601562 L 256 31 L 50 31 Z M 50 0.601562 " clip-rule="nonzero"/></clipPath><clipPath id="5346d5b90d"><rect x="0" width="206" y="0" height="31"/></clipPath><clipPath id="c1f1e805db"><rect x="0" width="306" y="0" height="152"/></clipPath></defs><g transform="matrix(1, 0, 0, 1, 72, 63)"><g clip-path="url(#c1f1e805db)"><path fill="#ffcc11" d="M 104.082031 145.789062 L 72.46875 145.789062 C 71.386719 145.789062 70.511719 144.742188 70.511719 143.449219 L 70.511719 136.214844 C 70.511719 134.917969 71.386719 133.871094 72.46875 133.871094 L 104.082031 133.871094 C 105.164062 133.871094 106.042969 134.917969 106.042969 136.214844 L 106.042969 143.449219 C 106.042969 144.742188 105.164062 145.789062 104.082031 145.789062 Z M 104.082031 145.789062 " fill-opacity="1" fill-rule="nonzero"/><path fill="#ffcc11" d="M 104.082031 131.160156 L 72.46875 131.160156 C 71.386719 131.160156 70.511719 130.113281 70.511719 128.816406 L 70.511719 121.582031 C 70.511719 120.289062 71.386719 119.242188 72.46875 119.242188 L 104.082031 119.242188 C 105.164062 119.242188 106.042969 120.289062 106.042969 121.582031 L 106.042969 128.816406 C 106.042969 130.113281 105.164062 131.160156 104.082031 131.160156 Z M 104.082031 131.160156 " fill-opacity="1" fill-rule="nonzero"/><g clip-path="url(#1910f93868)"><path fill="#ffcc11" d="M 101.636719 69.539062 L 97.285156 69.539062 C 97.3125 69.410156 97.324219 69.277344 97.324219 69.144531 L 97.324219 65.164062 C 97.324219 64.078125 96.449219 63.199219 95.367188 63.199219 L 81.1875 63.199219 C 80.105469 63.199219 79.226562 64.078125 79.226562 65.164062 L 79.226562 69.144531 C 79.226562 69.277344 79.242188 69.410156 79.265625 69.539062 L 74.914062 69.539062 C 69.859375 69.539062 65.75 73.34375 65.75 78.023438 L 65.75 143.117188 C 65.75 147.796875 69.859375 151.605469 74.914062 151.605469 L 101.636719 151.605469 C 106.691406 151.605469 110.800781 147.796875 110.800781 143.117188 L 110.800781 78.023438 C 110.800781 73.34375 106.691406 69.539062 101.636719 69.539062 Z M 108.84375 143.117188 C 108.84375 146.714844 105.609375 149.640625 101.636719 149.640625 L 74.914062 149.640625 C 70.941406 149.640625 67.707031 146.714844 67.707031 143.117188 L 67.707031 78.023438 C 67.707031 74.429688 70.941406 71.503906 74.914062 71.503906 L 101.636719 71.503906 C 105.609375 71.503906 108.84375 74.429688 108.84375 78.023438 Z M 108.84375 143.117188 " fill-opacity="1" fill-rule="nonzero"/></g><path fill="#51be4b" d="M 298.003906 145.789062 L 266.390625 145.789062 C 265.308594 145.789062 264.433594 144.742188 264.433594 143.449219 L 264.433594 136.214844 C 264.433594 134.917969 265.308594 133.871094 266.390625 133.871094 L 298.003906 133.871094 C 299.085938 133.871094 299.960938 134.917969 299.960938 136.214844 L 299.960938 143.449219 C 299.960938 144.742188 299.085938 145.789062 298.003906 145.789062 Z M 298.003906 145.789062 " fill-opacity="1" fill-rule="nonzero"/><path fill="#51be4b" d="M 298.003906 131.160156 L 266.390625 131.160156 C 265.308594 131.160156 264.433594 130.113281 264.433594 128.816406 L 264.433594 121.582031 C 264.433594 120.289062 265.308594 119.242188 266.390625 119.242188 L 298.003906 119.242188 C 299.085938 119.242188 299.960938 120.289062 299.960938 121.582031 L 299.960938 128.816406 C 299.960938 130.113281 299.085938 131.160156 298.003906 131.160156 Z M 298.003906 131.160156 " fill-opacity="1" fill-rule="nonzero"/><path fill="#51be4b" d="M 298.003906 116.53125 L 266.390625 116.53125 C 265.308594 116.53125 264.433594 115.480469 264.433594 114.1875 L 264.433594 106.953125 C 264.433594 105.660156 265.308594 104.613281 266.390625 104.613281 L 298.003906 104.613281 C 299.085938 104.613281 299.960938 105.660156 299.960938 106.953125 L 299.960938 114.1875 C 299.960938 115.480469 299.085938 116.53125 298.003906 116.53125 Z M 298.003906 116.53125 " fill-opacity="1" fill-rule="nonzero"/><path fill="#51be4b" d="M 298.003906 101.902344 L 266.390625 101.902344 C 265.308594 101.902344 264.433594 100.851562 264.433594 99.558594 L 264.433594 92.324219 C 264.433594 91.03125 265.308594 89.984375 266.390625 89.984375 L 298.003906 89.984375 C 299.085938 89.984375 299.960938 91.03125 299.960938 92.324219 L 299.960938 99.558594 C 299.960938 100.851562 299.085938 101.902344 298.003906 101.902344 Z M 298.003906 101.902344 " fill-opacity="1" fill-rule="nonzero"/><path fill="#51be4b" d="M 298.003906 87.273438 L 266.390625 87.273438 C 265.308594 87.273438 264.433594 86.222656 264.433594 84.929688 L 264.433594 77.695312 C 264.433594 76.402344 265.308594 75.355469 266.390625 75.355469 L 298.003906 75.355469 C 299.085938 75.355469 299.960938 76.402344 299.960938 77.695312 L 299.960938 84.929688 C 299.960938 86.222656 299.085938 87.273438 298.003906 87.273438 Z M 298.003906 87.273438 " fill-opacity="1" fill-rule="nonzero"/><g clip-path="url(#7e065f552f)"><path fill="#51be4b" d="M 295.558594 69.539062 L 291.207031 69.539062 C 291.234375 69.410156 291.246094 69.277344 291.246094 69.144531 L 291.246094 65.164062 C 291.246094 64.078125 290.371094 63.199219 289.289062 63.199219 L 275.105469 63.199219 C 274.023438 63.199219 273.148438 64.078125 273.148438 65.164062 L 273.148438 69.144531 C 273.148438 69.277344 273.160156 69.410156 273.1875 69.539062 L 268.835938 69.539062 C 263.78125 69.539062 259.671875 73.34375 259.671875 78.023438 L 259.671875 143.117188 C 259.671875 147.796875 263.78125 151.605469 268.835938 151.605469 L 295.558594 151.605469 C 300.613281 151.605469 304.722656 147.796875 304.722656 143.117188 L 304.722656 78.023438 C 304.722656 73.34375 300.613281 69.539062 295.558594 69.539062 Z M 302.765625 143.117188 C 302.765625 146.714844 299.53125 149.640625 295.558594 149.640625 L 268.835938 149.640625 C 264.863281 149.640625 261.628906 146.714844 261.628906 143.117188 L 261.628906 78.023438 C 261.628906 74.429688 264.863281 71.503906 268.835938 71.503906 L 295.558594 71.503906 C 299.53125 71.503906 302.765625 74.429688 302.765625 78.023438 Z M 302.765625 143.117188 " fill-opacity="1" fill-rule="nonzero"/></g><path fill="#88cb46" d="M 233.363281 145.789062 L 201.75 145.789062 C 200.667969 145.789062 199.792969 144.742188 199.792969 143.449219 L 199.792969 136.214844 C 199.792969 134.917969 200.667969 133.871094 201.75 133.871094 L 233.363281 133.871094 C 234.445312 133.871094 235.320312 134.917969 235.320312 136.214844 L 235.320312 143.449219 C 235.320312 144.742188 234.445312 145.789062 233.363281 145.789062 Z M 233.363281 145.789062 " fill-opacity="1" fill-rule="nonzero"/><path fill="#88cb46" d="M 233.363281 131.160156 L 201.75 131.160156 C 200.667969 131.160156 199.792969 130.113281 199.792969 128.816406 L 199.792969 121.582031 C 199.792969 120.289062 200.667969 119.242188 201.75 119.242188 L 233.363281 119.242188 C 234.445312 119.242188 235.320312 120.289062 235.320312 121.582031 L 235.320312 128.816406 C 235.320312 130.113281 234.445312 131.160156 233.363281 131.160156 Z M 233.363281 131.160156 " fill-opacity="1" fill-rule="nonzero"/><path fill="#88cb46" d="M 233.363281 116.53125 L 201.75 116.53125 C 200.667969 116.53125 199.792969 115.480469 199.792969 114.1875 L 199.792969 106.953125 C 199.792969 105.660156 200.667969 104.613281 201.75 104.613281 L 233.363281 104.613281 C 234.445312 104.613281 235.320312 105.660156 235.320312 106.953125 L 235.320312 114.1875 C 235.320312 115.480469 234.445312 116.53125 233.363281 116.53125 Z M 233.363281 116.53125 " fill-opacity="1" fill-rule="nonzero"/><path fill="#88cb46" d="M 233.363281 101.902344 L 201.75 101.902344 C 200.667969 101.902344 199.792969 100.851562 199.792969 99.558594 L 199.792969 92.324219 C 199.792969 91.03125 200.667969 89.984375 201.75 89.984375 L 233.363281 89.984375 C 234.445312 89.984375 235.320312 91.03125 235.320312 92.324219 L 235.320312 99.558594 C 235.320312 100.851562 234.445312 101.902344 233.363281 101.902344 Z M 233.363281 101.902344 " fill-opacity="1" fill-rule="nonzero"/><g clip-path="url(#318e76c577)"><path fill="#88cb46" d="M 230.917969 69.539062 L 226.566406 69.539062 C 226.59375 69.410156 226.605469 69.277344 226.605469 69.144531 L 226.605469 65.164062 C 226.605469 64.078125 225.730469 63.199219 224.648438 63.199219 L 210.464844 63.199219 C 209.382812 63.199219 208.507812 64.078125 208.507812 65.164062 L 208.507812 69.144531 C 208.507812 69.277344 208.519531 69.410156 208.546875 69.539062 L 204.195312 69.539062 C 199.140625 69.539062 195.03125 73.34375 195.03125 78.023438 L 195.03125 143.117188 C 195.03125 147.796875 199.140625 151.605469 204.195312 151.605469 L 230.917969 151.605469 C 235.972656 151.605469 240.082031 147.796875 240.082031 143.117188 L 240.082031 78.023438 C 240.082031 73.34375 235.972656 69.539062 230.917969 69.539062 Z M 238.125 143.117188 C 238.125 146.714844 234.890625 149.640625 230.917969 149.640625 L 204.195312 149.640625 C 200.222656 149.640625 196.988281 146.714844 196.988281 143.117188 L 196.988281 78.023438 C 196.988281 74.429688 200.222656 71.503906 204.195312 71.503906 L 230.917969 71.503906 C 234.890625 71.503906 238.125 74.429688 238.125 78.023438 Z M 238.125 143.117188 " fill-opacity="1" fill-rule="nonzero"/></g><path fill="#fdf31c" d="M 168.722656 145.789062 L 137.109375 145.789062 C 136.027344 145.789062 135.152344 144.742188 135.152344 143.449219 L 135.152344 136.214844 C 135.152344 134.917969 136.027344 133.871094 137.109375 133.871094 L 168.722656 133.871094 C 169.804688 133.871094 170.679688 134.917969 170.679688 136.214844 L 170.679688 143.449219 C 170.679688 144.742188 169.804688 145.789062 168.722656 145.789062 Z M 168.722656 145.789062 " fill-opacity="1" fill-rule="nonzero"/><path fill="#fdf31c" d="M 168.722656 131.160156 L 137.109375 131.160156 C 136.027344 131.160156 135.152344 130.113281 135.152344 128.816406 L 135.152344 121.582031 C 135.152344 120.289062 136.027344 119.242188 137.109375 119.242188 L 168.722656 119.242188 C 169.804688 119.242188 170.679688 120.289062 170.679688 121.582031 L 170.679688 128.816406 C 170.679688 130.113281 169.804688 131.160156 168.722656 131.160156 Z M 168.722656 131.160156 " fill-opacity="1" fill-rule="nonzero"/><path fill="#fdf31c" d="M 168.722656 116.53125 L 137.109375 116.53125 C 136.027344 116.53125 135.152344 115.480469 135.152344 114.1875 L 135.152344 106.953125 C 135.152344 105.660156 136.027344 104.613281 137.109375 104.613281 L 168.722656 104.613281 C 169.804688 104.613281 170.679688 105.660156 170.679688 106.953125 L 170.679688 114.1875 C 170.679688 115.480469 169.804688 116.53125 168.722656 116.53125 Z M 168.722656 116.53125 " fill-opacity="1" fill-rule="nonzero"/><g clip-path="url(#3f627ca3c8)"><path fill="#fdf31c" d="M 166.277344 69.539062 L 161.925781 69.539062 C 161.953125 69.410156 161.964844 69.277344 161.964844 69.144531 L 161.964844 65.164062 C 161.964844 64.078125 161.089844 63.199219 160.007812 63.199219 L 145.824219 63.199219 C 144.742188 63.199219 143.867188 64.078125 143.867188 65.164062 L 143.867188 69.144531 C 143.867188 69.277344 143.878906 69.410156 143.90625 69.539062 L 139.554688 69.539062 C 134.5 69.539062 130.390625 73.34375 130.390625 78.023438 L 130.390625 143.117188 C 130.390625 147.796875 134.5 151.605469 139.554688 151.605469 L 166.277344 151.605469 C 171.332031 151.605469 175.441406 147.796875 175.441406 143.117188 L 175.441406 78.023438 C 175.441406 73.34375 171.332031 69.539062 166.277344 69.539062 Z M 173.484375 143.117188 C 173.484375 146.714844 170.25 149.640625 166.277344 149.640625 L 139.554688 149.640625 C 135.582031 149.640625 132.347656 146.714844 132.347656 143.117188 L 132.347656 78.023438 C 132.347656 74.429688 135.582031 71.503906 139.554688 71.503906 L 166.277344 71.503906 C 170.25 71.503906 173.484375 74.429688 173.484375 78.023438 Z M 173.484375 143.117188 " fill-opacity="1" fill-rule="nonzero"/></g><path fill="#de5e20" d="M 39.441406 145.789062 L 7.828125 145.789062 C 6.746094 145.789062 5.871094 144.742188 5.871094 143.449219 L 5.871094 136.214844 C 5.871094 134.917969 6.746094 133.871094 7.828125 133.871094 L 39.441406 133.871094 C 40.523438 133.871094 41.402344 134.917969 41.402344 136.214844 L 41.402344 143.449219 C 41.402344 144.742188 40.523438 145.789062 39.441406 145.789062 Z M 39.441406 145.789062 " fill-opacity="1" fill-rule="nonzero"/><g clip-path="url(#6b1ef065ab)"><path fill="#de5e20" d="M 36.996094 69.539062 L 32.644531 69.539062 C 32.671875 69.410156 32.683594 69.277344 32.683594 69.144531 L 32.683594 65.164062 C 32.683594 64.078125 31.808594 63.199219 30.726562 63.199219 L 16.546875 63.199219 C 15.464844 63.199219 14.585938 64.078125 14.585938 65.164062 L 14.585938 69.144531 C 14.585938 69.277344 14.601562 69.410156 14.625 69.539062 L 10.273438 69.539062 C 5.222656 69.539062 1.109375 73.34375 1.109375 78.023438 L 1.109375 143.117188 C 1.109375 147.796875 5.222656 151.605469 10.273438 151.605469 L 36.996094 151.605469 C 42.050781 151.605469 46.160156 147.796875 46.160156 143.117188 L 46.160156 78.023438 C 46.160156 73.34375 42.050781 69.539062 36.996094 69.539062 Z M 44.203125 143.117188 C 44.203125 146.714844 40.96875 149.640625 36.996094 149.640625 L 10.273438 149.640625 C 6.300781 149.640625 3.070312 146.714844 3.070312 143.117188 L 3.070312 78.023438 C 3.070312 74.429688 6.300781 71.503906 10.273438 71.503906 L 36.996094 71.503906 C 40.96875 71.503906 44.203125 74.429688 44.203125 78.023438 Z M 44.203125 143.117188 " fill-opacity="1" fill-rule="nonzero"/></g><g clip-path="url(#344fcfc3d5)"><g transform="matrix(1, 0, 0, 1, 50, 0)"><g clip-path="url(#5346d5b90d)"><g fill="#000000" fill-opacity="1"><g transform="translate(1.386033, 23.185938)"><g><path d="M 1.78125 0 L 1.78125 -16.203125 L 13.375 -16.203125 L 13.375 -14.625 L 3.5625 -14.625 L 3.5625 -8.953125 L 9.96875 -8.953125 L 9.96875 -7.40625 L 3.5625 -7.40625 L 3.5625 -1.578125 L 13.46875 -1.578125 L 13.46875 0 Z M 1.78125 0 "/></g></g></g><g fill="#000000" fill-opacity="1"><g transform="translate(15.63486, 23.185938)"><g><path d="M 1.78125 -16.203125 L 3.5625 -16.203125 L 13.3125 -3.046875 L 13.3125 -16.203125 L 15 -16.203125 L 15 0 L 13.421875 0 L 3.46875 -13.484375 L 3.46875 0 L 1.78125 0 Z M 1.78125 -16.203125 "/></g></g></g><g fill="#000000" fill-opacity="1"><g transform="translate(32.404992, 23.185938)"><g><path d="M 1.78125 0 L 1.78125 -16.203125 L 13.375 -16.203125 L 13.375 -14.625 L 3.5625 -14.625 L 3.5625 -8.953125 L 9.96875 -8.953125 L 9.96875 -7.40625 L 3.5625 -7.40625 L 3.5625 -1.578125 L 13.46875 -1.578125 L 13.46875 0 Z M 1.78125 0 "/></g></g></g><g fill="#000000" fill-opacity="1"><g transform="translate(46.653819, 23.185938)"><g><path d="M 1.78125 0 L 1.78125 -16.203125 L 8.71875 -16.203125 C 10.289062 -16.203125 11.5625 -15.769531 12.53125 -14.90625 C 13.507812 -14.050781 14 -12.929688 14 -11.546875 C 14 -10.484375 13.6875 -9.566406 13.0625 -8.796875 C 12.4375 -8.023438 11.597656 -7.492188 10.546875 -7.203125 L 14.1875 0 L 12.21875 0 L 8.75 -6.96875 L 3.5625 -6.96875 L 3.5625 0 Z M 8.609375 -14.609375 L 3.5625 -14.609375 L 3.5625 -8.46875 L 8.609375 -8.46875 C 9.691406 -8.46875 10.5625 -8.75 11.21875 -9.3125 C 11.882812 -9.875 12.21875 -10.617188 12.21875 -11.546875 C 12.21875 -12.472656 11.882812 -13.210938 11.21875 -13.765625 C 10.5625 -14.328125 9.691406 -14.609375 8.609375 -14.609375 Z M 8.609375 -14.609375 "/></g></g></g><g fill="#000000" fill-opacity="1"><g transform="translate(61.573451, 23.185938)"><g><path d="M 17.265625 -7.75 C 17.265625 -6.625 17.0625 -5.570312 16.65625 -4.59375 C 16.257812 -3.613281 15.707031 -2.769531 15 -2.0625 C 14.289062 -1.351562 13.457031 -0.789062 12.5 -0.375 C 11.539062 0.0390625 10.503906 0.25 9.390625 0.25 C 8.234375 0.25 7.140625 0.03125 6.109375 -0.40625 C 5.085938 -0.84375 4.203125 -1.4375 3.453125 -2.1875 C 2.710938 -2.9375 2.117188 -3.816406 1.671875 -4.828125 C 1.234375 -5.847656 1.015625 -6.9375 1.015625 -8.09375 C 1.015625 -9.25 1.226562 -10.335938 1.65625 -11.359375 C 2.09375 -12.378906 2.6875 -13.265625 3.4375 -14.015625 C 4.1875 -14.765625 5.070312 -15.359375 6.09375 -15.796875 C 7.125 -16.234375 8.21875 -16.453125 9.375 -16.453125 C 10.625 -16.453125 11.800781 -16.21875 12.90625 -15.75 C 14.019531 -15.28125 14.972656 -14.628906 15.765625 -13.796875 L 14.5625 -12.5625 C 13.9375 -13.269531 13.160156 -13.820312 12.234375 -14.21875 C 11.316406 -14.613281 10.363281 -14.8125 9.375 -14.8125 C 8.445312 -14.8125 7.582031 -14.632812 6.78125 -14.28125 C 5.976562 -13.9375 5.285156 -13.46875 4.703125 -12.875 C 4.128906 -12.28125 3.671875 -11.570312 3.328125 -10.75 C 2.992188 -9.925781 2.828125 -9.039062 2.828125 -8.09375 C 2.828125 -7.15625 2.992188 -6.273438 3.328125 -5.453125 C 3.671875 -4.628906 4.128906 -3.921875 4.703125 -3.328125 C 5.285156 -2.734375 5.976562 -2.257812 6.78125 -1.90625 C 7.582031 -1.5625 8.445312 -1.390625 9.375 -1.390625 C 10.1875 -1.390625 10.953125 -1.523438 11.671875 -1.796875 C 12.390625 -2.078125 13.015625 -2.457031 13.546875 -2.9375 C 14.078125 -3.425781 14.507812 -4.007812 14.84375 -4.6875 C 15.1875 -5.375 15.390625 -6.109375 15.453125 -6.890625 L 9.65625 -6.890625 L 9.65625 -8.46875 L 17.265625 -8.46875 Z M 17.265625 -7.75 "/></g></g></g><g fill="#000000" fill-opacity="1"><g transform="translate(79.800856, 23.185938)"><g><path d="M 6.5 0 L 6.5 -6.59375 L 0.0625 -16.203125 L 2.15625 -16.203125 L 7.453125 -8.171875 L 12.734375 -16.203125 L 14.734375 -16.203125 L 8.28125 -6.53125 L 8.28125 0 Z M 6.5 0 "/></g></g></g><g fill="#000000" fill-opacity="1"><g transform="translate(94.581712, 23.185938)"><g/></g></g><g fill="#000000" fill-opacity="1"><g transform="translate(99.554923, 23.185938)"><g><path d="M 0.390625 -14.609375 L 0.390625 -16.203125 L 13.890625 -16.203125 L 13.890625 -14.609375 L 8.03125 -14.609375 L 8.03125 0 L 6.25 0 L 6.25 -14.609375 Z M 0.390625 -14.609375 "/></g></g></g><g fill="#000000" fill-opacity="1"><g transform="translate(113.826888, 23.185938)"><g><path d="M 1.78125 0 L 1.78125 -16.203125 L 8.71875 -16.203125 C 10.289062 -16.203125 11.5625 -15.769531 12.53125 -14.90625 C 13.507812 -14.050781 14 -12.929688 14 -11.546875 C 14 -10.484375 13.6875 -9.566406 13.0625 -8.796875 C 12.4375 -8.023438 11.597656 -7.492188 10.546875 -7.203125 L 14.1875 0 L 12.21875 0 L 8.75 -6.96875 L 3.5625 -6.96875 L 3.5625 0 Z M 8.609375 -14.609375 L 3.5625 -14.609375 L 3.5625 -8.46875 L 8.609375 -8.46875 C 9.691406 -8.46875 10.5625 -8.75 11.21875 -9.3125 C 11.882812 -9.875 12.21875 -10.617188 12.21875 -11.546875 C 12.21875 -12.472656 11.882812 -13.210938 11.21875 -13.765625 C 10.5625 -14.328125 9.691406 -14.609375 8.609375 -14.609375 Z M 8.609375 -14.609375 "/></g></g></g><g fill="#000000" fill-opacity="1"><g transform="translate(128.74652, 23.185938)"><g><path d="M 0.09375 0 L 6.828125 -16.203125 L 8.984375 -16.203125 L 15.625 0 L 13.671875 0 L 11.640625 -5.09375 L 4 -5.09375 L 1.9375 0 Z M 4.625 -6.625 L 11.015625 -6.625 L 7.84375 -14.53125 Z M 4.625 -6.625 "/></g></g></g><g fill="#000000" fill-opacity="1"><g transform="translate(144.45262, 23.185938)"><g><path d="M 9.46875 -1.390625 C 10.46875 -1.390625 11.421875 -1.582031 12.328125 -1.96875 C 13.242188 -2.363281 14.007812 -2.910156 14.625 -3.609375 L 15.78125 -2.40625 C 14.976562 -1.570312 14.019531 -0.921875 12.90625 -0.453125 C 11.800781 0.015625 10.640625 0.25 9.421875 0.25 C 8.242188 0.25 7.140625 0.0351562 6.109375 -0.390625 C 5.085938 -0.828125 4.195312 -1.414062 3.4375 -2.15625 C 2.6875 -2.90625 2.09375 -3.789062 1.65625 -4.8125 C 1.226562 -5.84375 1.015625 -6.9375 1.015625 -8.09375 C 1.015625 -9.25 1.226562 -10.335938 1.65625 -11.359375 C 2.09375 -12.390625 2.6875 -13.28125 3.4375 -14.03125 C 4.195312 -14.78125 5.085938 -15.367188 6.109375 -15.796875 C 7.140625 -16.234375 8.242188 -16.453125 9.421875 -16.453125 C 10.671875 -16.453125 11.851562 -16.21875 12.96875 -15.75 C 14.082031 -15.28125 15.035156 -14.628906 15.828125 -13.796875 L 14.640625 -12.546875 C 14.015625 -13.253906 13.234375 -13.804688 12.296875 -14.203125 C 11.367188 -14.609375 10.410156 -14.8125 9.421875 -14.8125 C 8.492188 -14.8125 7.625 -14.632812 6.8125 -14.28125 C 6 -13.9375 5.300781 -13.46875 4.71875 -12.875 C 4.132812 -12.28125 3.671875 -11.570312 3.328125 -10.75 C 2.992188 -9.925781 2.828125 -9.039062 2.828125 -8.09375 C 2.828125 -7.15625 2.992188 -6.273438 3.328125 -5.453125 C 3.671875 -4.628906 4.140625 -3.921875 4.734375 -3.328125 C 5.328125 -2.734375 6.023438 -2.257812 6.828125 -1.90625 C 7.640625 -1.5625 8.519531 -1.390625 9.46875 -1.390625 Z M 9.46875 -1.390625 "/></g></g></g><g fill="#000000" fill-opacity="1"><g transform="translate(161.153365, 23.185938)"><g><path d="M 1.78125 0 L 1.78125 -16.203125 L 3.5625 -16.203125 L 3.5625 -8.515625 L 11.9375 -16.203125 L 14.28125 -16.203125 L 5.484375 -8.265625 L 14.46875 0 L 11.96875 0 L 3.5625 -7.78125 L 3.5625 0 Z M 1.78125 0 "/></g></g></g><g fill="#000000" fill-opacity="1"><g transform="translate(175.42533, 23.185938)"><g><path d="M 1.78125 0 L 1.78125 -16.203125 L 13.375 -16.203125 L 13.375 -14.625 L 3.5625 -14.625 L 3.5625 -8.953125 L 9.96875 -8.953125 L 9.96875 -7.40625 L 3.5625 -7.40625 L 3.5625 -1.578125 L 13.46875 -1.578125 L 13.46875 0 Z M 1.78125 0 "/></g></g></g><g fill="#000000" fill-opacity="1"><g transform="translate(189.674157, 23.185938)"><g><path d="M 1.78125 0 L 1.78125 -16.203125 L 8.71875 -16.203125 C 10.289062 -16.203125 11.5625 -15.769531 12.53125 -14.90625 C 13.507812 -14.050781 14 -12.929688 14 -11.546875 C 14 -10.484375 13.6875 -9.566406 13.0625 -8.796875 C 12.4375 -8.023438 11.597656 -7.492188 10.546875 -7.203125 L 14.1875 0 L 12.21875 0 L 8.75 -6.96875 L 3.5625 -6.96875 L 3.5625 0 Z M 8.609375 -14.609375 L 3.5625 -14.609375 L 3.5625 -8.46875 L 8.609375 -8.46875 C 9.691406 -8.46875 10.5625 -8.75 11.21875 -9.3125 C 11.882812 -9.875 12.21875 -10.617188 12.21875 -11.546875 C 12.21875 -12.472656 11.882812 -13.210938 11.21875 -13.765625 C 10.5625 -14.328125 9.691406 -14.609375 8.609375 -14.609375 Z M 8.609375 -14.609375 "/></g></g></g></g></g></g></g></g></svg>