<svg xmlns="http://www.w3.org/2000/svg" xmlns:xlink="http://www.w3.org/1999/xlink" width="600" zoomAndPan="magnify" viewBox="0 0 450 112.499997" height="150" preserveAspectRatio="xMidYMid meet" version="1.0"><defs><g/></defs><g fill="#000000" fill-opacity="1"><g transform="translate(22.697391, 77.340986)"><g><path d="M 10.046875 0 C 9.296875 0 8.691406 -0.238281 8.234375 -0.71875 C 7.773438 -1.207031 7.546875 -1.769531 7.546875 -2.40625 L 7.546875 -53.828125 C 7.546875 -54.472656 7.785156 -55.035156 8.265625 -55.515625 C 8.753906 -55.992188 9.320312 -56.234375 9.96875 -56.234375 L 39.203125 -56.234375 C 39.898438 -56.234375 40.476562 -56.003906 40.9375 -55.546875 C 41.394531 -55.097656 41.625 -54.523438 41.625 -53.828125 C 41.625 -53.179688 41.394531 -52.628906 40.9375 -52.171875 C 40.476562 -51.722656 39.898438 -51.5 39.203125 -51.5 L 12.125 -51.5 L 12.453125 -51.984375 L 12.453125 -30.609375 L 12.046875 -31.328125 L 35.59375 -31.328125 C 36.289062 -31.328125 36.863281 -31.097656 37.3125 -30.640625 C 37.769531 -30.191406 38 -29.644531 38 -29 C 38 -28.300781 37.769531 -27.738281 37.3125 -27.3125 C 36.863281 -26.882812 36.289062 -26.671875 35.59375 -26.671875 L 11.890625 -26.671875 L 12.453125 -27.3125 L 12.453125 -2.40625 C 12.453125 -1.769531 12.222656 -1.207031 11.765625 -0.71875 C 11.316406 -0.238281 10.742188 0 10.046875 0 Z M 10.046875 0 "/></g></g></g><g fill="#000000" fill-opacity="1"><g transform="translate(68.168845, 77.340986)"><g><path d="M 9.96875 -56.234375 L 39.453125 -56.234375 C 40.085938 -56.234375 40.644531 -56.003906 41.125 -55.546875 C 41.613281 -55.097656 41.859375 -54.523438 41.859375 -53.828125 C 41.859375 -53.128906 41.613281 -52.566406 41.125 -52.140625 C 40.644531 -51.710938 40.085938 -51.5 39.453125 -51.5 L 11.8125 -51.5 L 12.609375 -52.859375 L 12.609375 -30.296875 L 11.734375 -31.328125 L 35.828125 -31.328125 C 36.472656 -31.328125 37.035156 -31.085938 37.515625 -30.609375 C 38.003906 -30.128906 38.25 -29.566406 38.25 -28.921875 C 38.25 -28.222656 38.003906 -27.660156 37.515625 -27.234375 C 37.035156 -26.804688 36.472656 -26.59375 35.828125 -26.59375 L 11.890625 -26.59375 L 12.609375 -27.390625 L 12.609375 -4.265625 L 12.21875 -4.734375 L 39.453125 -4.734375 C 40.085938 -4.734375 40.644531 -4.492188 41.125 -4.015625 C 41.613281 -3.535156 41.859375 -2.972656 41.859375 -2.328125 C 41.859375 -1.628906 41.613281 -1.066406 41.125 -0.640625 C 40.644531 -0.210938 40.085938 0 39.453125 0 L 9.96875 0 C 9.320312 0 8.753906 -0.238281 8.265625 -0.71875 C 7.785156 -1.207031 7.546875 -1.769531 7.546875 -2.40625 L 7.546875 -53.828125 C 7.546875 -54.472656 7.785156 -55.035156 8.265625 -55.515625 C 8.753906 -55.992188 9.320312 -56.234375 9.96875 -56.234375 Z M 9.96875 -56.234375 "/></g></g></g><g fill="#000000" fill-opacity="1"><g transform="translate(113.800982, 77.340986)"><g><path d="M 31.25 -56.234375 C 35.75 -56.234375 39.269531 -55.015625 41.8125 -52.578125 C 44.363281 -50.140625 45.640625 -46.753906 45.640625 -42.421875 C 45.640625 -40.171875 45.15625 -38.023438 44.1875 -35.984375 C 43.226562 -33.953125 41.8125 -32.304688 39.9375 -31.046875 C 38.0625 -29.796875 35.726562 -29.085938 32.9375 -28.921875 L 32.625 -30.53125 C 34.601562 -30.53125 36.539062 -30.25 38.4375 -29.6875 C 40.34375 -29.125 42.046875 -28.222656 43.546875 -26.984375 C 45.046875 -25.753906 46.25 -24.21875 47.15625 -22.375 C 48.070312 -20.53125 48.53125 -18.296875 48.53125 -15.671875 C 48.53125 -12.878906 48.0625 -10.476562 47.125 -8.46875 C 46.1875 -6.46875 44.925781 -4.847656 43.34375 -3.609375 C 41.757812 -2.378906 39.953125 -1.46875 37.921875 -0.875 C 35.890625 -0.289062 33.773438 0 31.578125 0 L 9.96875 0 C 9.320312 0 8.753906 -0.238281 8.265625 -0.71875 C 7.785156 -1.207031 7.546875 -1.769531 7.546875 -2.40625 L 7.546875 -53.828125 C 7.546875 -54.472656 7.785156 -55.035156 8.265625 -55.515625 C 8.753906 -55.992188 9.320312 -56.234375 9.96875 -56.234375 Z M 30.609375 -51.5 L 11.734375 -51.5 L 12.6875 -52.953125 L 12.6875 -30.203125 L 11.8125 -31.421875 L 30.609375 -31.421875 C 33.390625 -31.472656 35.734375 -32.378906 37.640625 -34.140625 C 39.546875 -35.910156 40.5 -38.535156 40.5 -42.015625 C 40.5 -44.960938 39.640625 -47.28125 37.921875 -48.96875 C 36.203125 -50.65625 33.765625 -51.5 30.609375 -51.5 Z M 31.171875 -26.59375 L 12.296875 -26.59375 L 12.6875 -27.078125 L 12.6875 -4.015625 L 12.21875 -4.734375 L 31.328125 -4.734375 C 34.753906 -4.734375 37.617188 -5.601562 39.921875 -7.34375 C 42.234375 -9.09375 43.390625 -11.867188 43.390625 -15.671875 C 43.390625 -18.347656 42.828125 -20.488281 41.703125 -22.09375 C 40.578125 -23.695312 39.078125 -24.847656 37.203125 -25.546875 C 35.328125 -26.242188 33.316406 -26.59375 31.171875 -26.59375 Z M 31.171875 -26.59375 "/></g></g></g><g fill="#000000" fill-opacity="1"><g transform="translate(166.101195, 77.340986)"><g><path d="M 10.28125 0 C 9.476562 0 8.820312 -0.238281 8.3125 -0.71875 C 7.800781 -1.207031 7.546875 -1.769531 7.546875 -2.40625 L 7.546875 -53.828125 C 7.546875 -54.472656 7.785156 -55.035156 8.265625 -55.515625 C 8.753906 -55.992188 9.320312 -56.234375 9.96875 -56.234375 L 31.65625 -56.234375 C 34.707031 -56.234375 37.4375 -55.578125 39.84375 -54.265625 C 42.257812 -52.953125 44.148438 -51.144531 45.515625 -48.84375 C 46.878906 -46.539062 47.5625 -43.945312 47.5625 -41.0625 C 47.5625 -38.695312 47.132812 -36.523438 46.28125 -34.546875 C 45.425781 -32.566406 44.21875 -30.894531 42.65625 -29.53125 C 41.101562 -28.164062 39.363281 -27.160156 37.4375 -26.515625 L 34.625 -27.390625 C 36.601562 -27.234375 38.453125 -26.601562 40.171875 -25.5 C 41.890625 -24.40625 43.269531 -22.90625 44.3125 -21 C 45.351562 -19.101562 45.898438 -16.816406 45.953125 -14.140625 C 46.003906 -11.835938 46.125 -10.039062 46.3125 -8.75 C 46.5 -7.46875 46.78125 -6.503906 47.15625 -5.859375 C 47.53125 -5.222656 48.015625 -4.71875 48.609375 -4.34375 C 49.140625 -4.019531 49.5 -3.5625 49.6875 -2.96875 C 49.875 -2.382812 49.804688 -1.820312 49.484375 -1.28125 C 49.273438 -0.851562 48.96875 -0.546875 48.5625 -0.359375 C 48.164062 -0.171875 47.753906 -0.078125 47.328125 -0.078125 C 46.898438 -0.078125 46.46875 -0.1875 46.03125 -0.40625 C 45.28125 -0.832031 44.515625 -1.5 43.734375 -2.40625 C 42.960938 -3.320312 42.320312 -4.660156 41.8125 -6.421875 C 41.3125 -8.191406 41.0625 -10.65625 41.0625 -13.8125 C 41.0625 -15.90625 40.722656 -17.617188 40.046875 -18.953125 C 39.378906 -20.296875 38.519531 -21.328125 37.46875 -22.046875 C 36.425781 -22.773438 35.273438 -23.285156 34.015625 -23.578125 C 32.765625 -23.867188 31.578125 -24.015625 30.453125 -24.015625 L 11.734375 -24.015625 L 12.609375 -25.140625 L 12.609375 -2.40625 C 12.609375 -1.769531 12.394531 -1.207031 11.96875 -0.71875 C 11.539062 -0.238281 10.976562 0 10.28125 0 Z M 11.734375 -28.4375 L 31.890625 -28.4375 C 33.710938 -28.601562 35.425781 -29.207031 37.03125 -30.25 C 38.644531 -31.289062 39.945312 -32.722656 40.9375 -34.546875 C 41.925781 -36.367188 42.421875 -38.484375 42.421875 -40.890625 C 42.421875 -43.941406 41.390625 -46.472656 39.328125 -48.484375 C 37.265625 -50.492188 34.570312 -51.5 31.25 -51.5 L 12.046875 -51.5 L 12.609375 -52.625 L 12.609375 -27.3125 Z M 11.734375 -28.4375 "/></g></g></g><g fill="#000000" fill-opacity="1"><g transform="translate(219.526134, 77.340986)"><g><path d="M 47.328125 -56.234375 C 48.078125 -56.234375 48.664062 -56.003906 49.09375 -55.546875 C 49.519531 -55.097656 49.734375 -54.523438 49.734375 -53.828125 L 49.734375 -20.5625 C 49.734375 -16.601562 48.796875 -13.015625 46.921875 -9.796875 C 45.046875 -6.585938 42.523438 -4.03125 39.359375 -2.125 C 36.203125 -0.226562 32.644531 0.71875 28.6875 0.71875 C 24.71875 0.71875 21.140625 -0.226562 17.953125 -2.125 C 14.765625 -4.03125 12.234375 -6.585938 10.359375 -9.796875 C 8.484375 -13.015625 7.546875 -16.601562 7.546875 -20.5625 L 7.546875 -53.828125 C 7.546875 -54.523438 7.773438 -55.097656 8.234375 -55.546875 C 8.691406 -56.003906 9.320312 -56.234375 10.125 -56.234375 C 10.769531 -56.234375 11.332031 -56.003906 11.8125 -55.546875 C 12.289062 -55.097656 12.53125 -54.523438 12.53125 -53.828125 L 12.53125 -20.5625 C 12.53125 -17.457031 13.265625 -14.671875 14.734375 -12.203125 C 16.210938 -9.742188 18.179688 -7.773438 20.640625 -6.296875 C 23.109375 -4.828125 25.789062 -4.09375 28.6875 -4.09375 C 31.6875 -4.09375 34.414062 -4.828125 36.875 -6.296875 C 39.34375 -7.773438 41.3125 -9.742188 42.78125 -12.203125 C 44.257812 -14.671875 45 -17.457031 45 -20.5625 L 45 -53.828125 C 45 -54.523438 45.210938 -55.097656 45.640625 -55.546875 C 46.066406 -56.003906 46.628906 -56.234375 47.328125 -56.234375 Z M 47.328125 -56.234375 "/></g></g></g><g fill="#000000" fill-opacity="1"><g transform="translate(276.00387, 77.340986)"><g><path d="M 26.359375 -50.046875 L 6.828125 -1.53125 C 6.617188 -0.988281 6.328125 -0.582031 5.953125 -0.3125 C 5.578125 -0.0507812 5.144531 0.078125 4.65625 0.078125 C 3.90625 0.078125 3.34375 -0.117188 2.96875 -0.515625 C 2.59375 -0.921875 2.378906 -1.421875 2.328125 -2.015625 C 2.273438 -2.273438 2.300781 -2.59375 2.40625 -2.96875 L 23.625 -54.875 C 23.882812 -55.46875 24.21875 -55.882812 24.625 -56.125 C 25.03125 -56.363281 25.5 -56.484375 26.03125 -56.484375 C 26.5625 -56.484375 27.03125 -56.332031 27.4375 -56.03125 C 27.84375 -55.738281 28.148438 -55.351562 28.359375 -54.875 L 49.484375 -3.21875 C 49.597656 -2.894531 49.65625 -2.570312 49.65625 -2.25 C 49.65625 -1.5 49.410156 -0.921875 48.921875 -0.515625 C 48.441406 -0.117188 47.878906 0.078125 47.234375 0.078125 C 46.703125 0.078125 46.234375 -0.0664062 45.828125 -0.359375 C 45.429688 -0.648438 45.125 -1.039062 44.90625 -1.53125 L 24.90625 -50.375 Z M 11.484375 -16.234375 L 13.5 -20.96875 L 38.40625 -20.96875 L 39.375 -16.234375 Z M 11.484375 -16.234375 "/></g></g></g><g fill="#000000" fill-opacity="1"><g transform="translate(327.982742, 77.340986)"><g><path d="M 10.28125 0 C 9.476562 0 8.820312 -0.238281 8.3125 -0.71875 C 7.800781 -1.207031 7.546875 -1.769531 7.546875 -2.40625 L 7.546875 -53.828125 C 7.546875 -54.472656 7.785156 -55.035156 8.265625 -55.515625 C 8.753906 -55.992188 9.320312 -56.234375 9.96875 -56.234375 L 31.65625 -56.234375 C 34.707031 -56.234375 37.4375 -55.578125 39.84375 -54.265625 C 42.257812 -52.953125 44.148438 -51.144531 45.515625 -48.84375 C 46.878906 -46.539062 47.5625 -43.945312 47.5625 -41.0625 C 47.5625 -38.695312 47.132812 -36.523438 46.28125 -34.546875 C 45.425781 -32.566406 44.21875 -30.894531 42.65625 -29.53125 C 41.101562 -28.164062 39.363281 -27.160156 37.4375 -26.515625 L 34.625 -27.390625 C 36.601562 -27.234375 38.453125 -26.601562 40.171875 -25.5 C 41.890625 -24.40625 43.269531 -22.90625 44.3125 -21 C 45.351562 -19.101562 45.898438 -16.816406 45.953125 -14.140625 C 46.003906 -11.835938 46.125 -10.039062 46.3125 -8.75 C 46.5 -7.46875 46.78125 -6.503906 47.15625 -5.859375 C 47.53125 -5.222656 48.015625 -4.71875 48.609375 -4.34375 C 49.140625 -4.019531 49.5 -3.5625 49.6875 -2.96875 C 49.875 -2.382812 49.804688 -1.820312 49.484375 -1.28125 C 49.273438 -0.851562 48.96875 -0.546875 48.5625 -0.359375 C 48.164062 -0.171875 47.753906 -0.078125 47.328125 -0.078125 C 46.898438 -0.078125 46.46875 -0.1875 46.03125 -0.40625 C 45.28125 -0.832031 44.515625 -1.5 43.734375 -2.40625 C 42.960938 -3.320312 42.320312 -4.660156 41.8125 -6.421875 C 41.3125 -8.191406 41.0625 -10.65625 41.0625 -13.8125 C 41.0625 -15.90625 40.722656 -17.617188 40.046875 -18.953125 C 39.378906 -20.296875 38.519531 -21.328125 37.46875 -22.046875 C 36.425781 -22.773438 35.273438 -23.285156 34.015625 -23.578125 C 32.765625 -23.867188 31.578125 -24.015625 30.453125 -24.015625 L 11.734375 -24.015625 L 12.609375 -25.140625 L 12.609375 -2.40625 C 12.609375 -1.769531 12.394531 -1.207031 11.96875 -0.71875 C 11.539062 -0.238281 10.976562 0 10.28125 0 Z M 11.734375 -28.4375 L 31.890625 -28.4375 C 33.710938 -28.601562 35.425781 -29.207031 37.03125 -30.25 C 38.644531 -31.289062 39.945312 -32.722656 40.9375 -34.546875 C 41.925781 -36.367188 42.421875 -38.484375 42.421875 -40.890625 C 42.421875 -43.941406 41.390625 -46.472656 39.328125 -48.484375 C 37.265625 -50.492188 34.570312 -51.5 31.25 -51.5 L 12.046875 -51.5 L 12.609375 -52.625 L 12.609375 -27.3125 Z M 11.734375 -28.4375 "/></g></g></g><g fill="#000000" fill-opacity="1"><g transform="translate(380.202516, 77.340986)"><g><path d="M 41.0625 -56.5625 C 41.75 -56.5625 42.320312 -56.304688 42.78125 -55.796875 C 43.238281 -55.285156 43.46875 -54.738281 43.46875 -54.15625 C 43.46875 -53.882812 43.425781 -53.628906 43.34375 -53.390625 C 43.257812 -53.148438 43.140625 -52.894531 42.984375 -52.625 L 24.109375 -26.671875 L 25.0625 -29.8125 L 25.0625 -2.40625 C 25.0625 -1.769531 24.820312 -1.207031 24.34375 -0.71875 C 23.863281 -0.238281 23.273438 0 22.578125 0 C 21.878906 0 21.300781 -0.238281 20.84375 -0.71875 C 20.394531 -1.207031 20.171875 -1.769531 20.171875 -2.40625 L 20.171875 -29.25 L 20.5625 -27.3125 L 2.171875 -52.46875 C 1.953125 -52.726562 1.789062 -53.003906 1.6875 -53.296875 C 1.582031 -53.597656 1.53125 -53.882812 1.53125 -54.15625 C 1.53125 -54.851562 1.8125 -55.425781 2.375 -55.875 C 2.9375 -56.332031 3.507812 -56.5625 4.09375 -56.5625 C 4.894531 -56.5625 5.566406 -56.1875 6.109375 -55.4375 L 23.375 -31.890625 L 22.171875 -32.0625 L 38.96875 -55.4375 C 39.5 -56.1875 40.195312 -56.5625 41.0625 -56.5625 Z M 41.0625 -56.5625 "/></g></g></g></svg>