<svg xmlns="http://www.w3.org/2000/svg" xmlns:xlink="http://www.w3.org/1999/xlink" width="1176" zoomAndPan="magnify" viewBox="0 0 882 749.999995" height="1000" preserveAspectRatio="xMidYMid meet" version="1.0"><defs><g/><clipPath id="2130ee28e3"><path d="M 757 1.199219 L 765 1.199219 L 765 26 L 757 26 Z M 757 1.199219 " clip-rule="nonzero"/></clipPath><clipPath id="0e87f8efc1"><rect x="0" width="8" y="0" height="25"/></clipPath><clipPath id="8bfc393385"><rect x="0" width="12" y="0" height="25"/></clipPath><clipPath id="9633c33d7c"><rect x="0" width="11" y="0" height="25"/></clipPath><clipPath id="ac5752126c"><path d="M 0.160156 6 L 10 6 L 10 20 L 0.160156 20 Z M 0.160156 6 " clip-rule="nonzero"/></clipPath><clipPath id="8e5e79af20"><rect x="0" width="11" y="0" height="25"/></clipPath><clipPath id="6f3e8ee777"><rect x="0" width="12" y="0" height="25"/></clipPath><clipPath id="a7e48d6cde"><rect x="0" width="12" y="0" height="25"/></clipPath><clipPath id="fa6748226a"><rect x="0" width="11" y="0" height="25"/></clipPath><clipPath id="b344ac874c"><rect x="0" width="12" y="0" height="25"/></clipPath><clipPath id="6beda7c9d2"><rect x="0" width="12" y="0" height="25"/></clipPath><clipPath id="8767fb671d"><path d="M 0.398438 6 L 6 6 L 6 20 L 0.398438 20 Z M 0.398438 6 " clip-rule="nonzero"/></clipPath><clipPath id="3fa9f47649"><rect x="0" width="20" y="0" height="25"/></clipPath><clipPath id="2a9b7ff0db"><path d="M 0.160156 6 L 6 6 L 6 20 L 0.160156 20 Z M 0.160156 6 " clip-rule="nonzero"/></clipPath><clipPath id="0635a75c51"><rect x="0" width="15" y="0" height="25"/></clipPath><clipPath id="2faaf00d28"><rect x="0" width="20" y="0" height="25"/></clipPath><clipPath id="b8a2b30236"><rect x="0" width="19" y="0" height="25"/></clipPath><clipPath id="28a8d8fbd4"><rect x="0" width="19" y="0" height="25"/></clipPath><clipPath id="1afa9c08c7"><rect x="0" width="19" y="0" height="25"/></clipPath><clipPath id="46242aff13"><path d="M 2 450.480469 L 21 450.480469 L 21 476 L 2 476 Z M 2 450.480469 " clip-rule="nonzero"/></clipPath><clipPath id="35fce4fdb1"><rect x="0" width="19" y="0" height="26"/></clipPath><clipPath id="84c344741b"><path d="M 128 450.480469 L 146 450.480469 L 146 476 L 128 476 Z M 128 450.480469 " clip-rule="nonzero"/></clipPath><clipPath id="4d4b25f483"><path d="M 0.398438 6 L 6 6 L 6 21 L 0.398438 21 Z M 0.398438 6 " clip-rule="nonzero"/></clipPath><clipPath id="96ebc7823f"><rect x="0" width="18" y="0" height="26"/></clipPath><clipPath id="9611169538"><path d="M 254 450.480469 L 272 450.480469 L 272 476 L 254 476 Z M 254 450.480469 " clip-rule="nonzero"/></clipPath><clipPath id="bf9e88bebd"><path d="M 0.160156 6 L 6 6 L 6 21 L 0.160156 21 Z M 0.160156 6 " clip-rule="nonzero"/></clipPath><clipPath id="a4ad9dd9f2"><rect x="0" width="18" y="0" height="26"/></clipPath><clipPath id="3c8bf74f30"><path d="M 379 450.480469 L 399 450.480469 L 399 476 L 379 476 Z M 379 450.480469 " clip-rule="nonzero"/></clipPath><clipPath id="8f5f3a15b3"><rect x="0" width="20" y="0" height="26"/></clipPath><clipPath id="eeb0bf9760"><path d="M 505 450.480469 L 529 450.480469 L 529 476 L 505 476 Z M 505 450.480469 " clip-rule="nonzero"/></clipPath><clipPath id="6bcbc8a141"><rect x="0" width="24" y="0" height="26"/></clipPath><clipPath id="1edfed14c5"><path d="M 631 450.480469 L 650 450.480469 L 650 476 L 631 476 Z M 631 450.480469 " clip-rule="nonzero"/></clipPath><clipPath id="a74e91aeb3"><rect x="0" width="19" y="0" height="26"/></clipPath><clipPath id="3e9d4f2164"><path d="M 757 450.480469 L 780 450.480469 L 780 476 L 757 476 Z M 757 450.480469 " clip-rule="nonzero"/></clipPath><clipPath id="f027b78c1d"><rect x="0" width="23" y="0" height="26"/></clipPath><clipPath id="276a44ff90"><path d="M 2 600.238281 L 24 600.238281 L 24 625 L 2 625 Z M 2 600.238281 " clip-rule="nonzero"/></clipPath><clipPath id="67ce6ed9f3"><rect x="0" width="22" y="0" height="25"/></clipPath><clipPath id="1127c1433e"><path d="M 128 600.238281 L 150 600.238281 L 150 625 L 128 625 Z M 128 600.238281 " clip-rule="nonzero"/></clipPath><clipPath id="23b59d1948"><rect x="0" width="22" y="0" height="25"/></clipPath><clipPath id="3defca8b96"><path d="M 254 600.238281 L 276 600.238281 L 276 625 L 254 625 Z M 254 600.238281 " clip-rule="nonzero"/></clipPath><clipPath id="1259f30adb"><rect x="0" width="22" y="0" height="25"/></clipPath><clipPath id="34c55bf7b8"><path d="M 379 600.238281 L 402 600.238281 L 402 625 L 379 625 Z M 379 600.238281 " clip-rule="nonzero"/></clipPath><clipPath id="54859f3850"><rect x="0" width="23" y="0" height="25"/></clipPath><clipPath id="7991ac8479"><path d="M 505 600.238281 L 527 600.238281 L 527 625 L 505 625 Z M 505 600.238281 " clip-rule="nonzero"/></clipPath><clipPath id="eb9138f15d"><rect x="0" width="22" y="0" height="25"/></clipPath><clipPath id="c9572416ea"><path d="M 631 600.238281 L 653 600.238281 L 653 625 L 631 625 Z M 631 600.238281 " clip-rule="nonzero"/></clipPath><clipPath id="42312576ca"><rect x="0" width="22" y="0" height="25"/></clipPath></defs><g clip-path="url(#2130ee28e3)"><g transform="matrix(1, 0, 0, 1, 757, 1)"><g clip-path="url(#0e87f8efc1)"><g fill="#201f1f" fill-opacity="1"><g transform="translate(0.619204, 20.009822)"><g><path d="M 4.296875 0 C 4.117188 0 3.972656 -0.0546875 3.859375 -0.171875 C 3.742188 -0.285156 3.6875 -0.421875 3.6875 -0.578125 L 3.6875 -12.03125 L 3.90625 -11.84375 L 1.375 -10.140625 C 1.269531 -10.066406 1.160156 -10.03125 1.046875 -10.03125 C 0.890625 -10.03125 0.75 -10.09375 0.625 -10.21875 C 0.507812 -10.34375 0.453125 -10.484375 0.453125 -10.640625 C 0.453125 -10.835938 0.554688 -10.992188 0.765625 -11.109375 L 3.9375 -13.234375 C 4.007812 -13.273438 4.085938 -13.300781 4.171875 -13.3125 C 4.253906 -13.332031 4.328125 -13.335938 4.390625 -13.328125 C 4.554688 -13.304688 4.679688 -13.242188 4.765625 -13.140625 C 4.859375 -13.035156 4.90625 -12.90625 4.90625 -12.75 L 4.90625 -0.578125 C 4.90625 -0.421875 4.847656 -0.285156 4.734375 -0.171875 C 4.617188 -0.0546875 4.472656 0 4.296875 0 Z M 4.296875 0 "/></g></g></g></g></g></g><g transform="matrix(1, 0, 0, 1, 2, 151)"><g clip-path="url(#8bfc393385)"><g fill="#201f1f" fill-opacity="1"><g transform="translate(0.699179, 19.769927)"><g><path d="M 9.015625 -1.109375 C 9.171875 -1.109375 9.300781 -1.050781 9.40625 -0.9375 C 9.519531 -0.832031 9.578125 -0.703125 9.578125 -0.546875 C 9.578125 -0.378906 9.519531 -0.242188 9.40625 -0.140625 C 9.300781 -0.046875 9.171875 0 9.015625 0 L 1.890625 0 C 1.722656 0 1.578125 -0.046875 1.453125 -0.140625 C 1.335938 -0.234375 1.28125 -0.378906 1.28125 -0.578125 C 1.28125 -0.710938 1.328125 -0.84375 1.421875 -0.96875 L 5.828125 -5.828125 C 6.523438 -6.585938 7.046875 -7.285156 7.390625 -7.921875 C 7.742188 -8.566406 7.921875 -9.144531 7.921875 -9.65625 C 7.921875 -10.488281 7.664062 -11.15625 7.15625 -11.65625 C 6.644531 -12.164062 5.957031 -12.421875 5.09375 -12.421875 C 4.707031 -12.421875 4.316406 -12.335938 3.921875 -12.171875 C 3.535156 -12.015625 3.191406 -11.800781 2.890625 -11.53125 C 2.597656 -11.269531 2.367188 -10.96875 2.203125 -10.625 C 2.128906 -10.488281 2.050781 -10.394531 1.96875 -10.34375 C 1.882812 -10.300781 1.789062 -10.28125 1.6875 -10.28125 C 1.539062 -10.28125 1.410156 -10.328125 1.296875 -10.421875 C 1.179688 -10.515625 1.125 -10.628906 1.125 -10.765625 C 1.125 -10.859375 1.144531 -10.945312 1.1875 -11.03125 C 1.226562 -11.125 1.296875 -11.226562 1.390625 -11.34375 C 1.617188 -11.738281 1.9375 -12.097656 2.34375 -12.421875 C 2.75 -12.753906 3.203125 -13.019531 3.703125 -13.21875 C 4.203125 -13.414062 4.691406 -13.515625 5.171875 -13.515625 C 5.984375 -13.515625 6.6875 -13.359375 7.28125 -13.046875 C 7.875 -12.734375 8.332031 -12.296875 8.65625 -11.734375 C 8.976562 -11.171875 9.140625 -10.5 9.140625 -9.71875 C 9.140625 -9.0625 8.929688 -8.34375 8.515625 -7.5625 C 8.097656 -6.78125 7.488281 -5.941406 6.6875 -5.046875 L 2.96875 -0.875 L 2.78125 -1.109375 Z M 9.015625 -1.109375 "/></g></g></g></g></g><g transform="matrix(1, 0, 0, 1, 128, 151)"><g clip-path="url(#9633c33d7c)"><g fill="#201f1f" fill-opacity="1"><g transform="translate(0.519191, 19.769927)"><g><path d="M 1.6875 -1.953125 C 1.75 -1.953125 1.816406 -1.941406 1.890625 -1.921875 C 1.960938 -1.898438 2.050781 -1.84375 2.15625 -1.75 C 2.414062 -1.46875 2.726562 -1.253906 3.09375 -1.109375 C 3.46875 -0.960938 3.890625 -0.890625 4.359375 -0.890625 C 4.984375 -0.890625 5.550781 -1.03125 6.0625 -1.3125 C 6.570312 -1.59375 6.976562 -1.984375 7.28125 -2.484375 C 7.59375 -2.984375 7.75 -3.554688 7.75 -4.203125 C 7.75 -4.941406 7.585938 -5.535156 7.265625 -5.984375 C 6.941406 -6.429688 6.523438 -6.765625 6.015625 -6.984375 C 5.515625 -7.210938 5.003906 -7.328125 4.484375 -7.328125 C 4.347656 -7.328125 4.210938 -7.316406 4.078125 -7.296875 C 3.941406 -7.273438 3.816406 -7.25 3.703125 -7.21875 C 3.597656 -7.195312 3.507812 -7.1875 3.4375 -7.1875 C 3.28125 -7.1875 3.15625 -7.238281 3.0625 -7.34375 C 2.976562 -7.457031 2.9375 -7.597656 2.9375 -7.765625 C 2.9375 -7.847656 2.953125 -7.925781 2.984375 -8 C 3.023438 -8.070312 3.078125 -8.148438 3.140625 -8.234375 L 7 -12.453125 L 7.234375 -12.140625 L 1.46875 -12.140625 C 1.3125 -12.140625 1.175781 -12.191406 1.0625 -12.296875 C 0.957031 -12.410156 0.90625 -12.539062 0.90625 -12.6875 C 0.90625 -12.84375 0.957031 -12.972656 1.0625 -13.078125 C 1.175781 -13.179688 1.3125 -13.234375 1.46875 -13.234375 L 7.859375 -13.234375 C 8.078125 -13.234375 8.226562 -13.164062 8.3125 -13.03125 C 8.40625 -12.894531 8.453125 -12.765625 8.453125 -12.640625 C 8.453125 -12.554688 8.429688 -12.476562 8.390625 -12.40625 C 8.347656 -12.34375 8.296875 -12.273438 8.234375 -12.203125 L 4.375 -8 L 3.953125 -8.234375 C 3.992188 -8.273438 4.125 -8.316406 4.34375 -8.359375 C 4.570312 -8.410156 4.75 -8.4375 4.875 -8.4375 C 5.570312 -8.4375 6.226562 -8.269531 6.84375 -7.9375 C 7.457031 -7.601562 7.957031 -7.128906 8.34375 -6.515625 C 8.726562 -5.898438 8.921875 -5.144531 8.921875 -4.25 C 8.921875 -3.351562 8.710938 -2.570312 8.296875 -1.90625 C 7.878906 -1.238281 7.3125 -0.722656 6.59375 -0.359375 C 5.882812 0.00390625 5.101562 0.1875 4.25 0.1875 C 3.726562 0.1875 3.210938 0.0976562 2.703125 -0.078125 C 2.191406 -0.253906 1.75 -0.519531 1.375 -0.875 C 1.28125 -0.945312 1.210938 -1.019531 1.171875 -1.09375 C 1.140625 -1.175781 1.125 -1.253906 1.125 -1.328125 C 1.125 -1.484375 1.175781 -1.625 1.28125 -1.75 C 1.394531 -1.882812 1.53125 -1.953125 1.6875 -1.953125 Z M 1.6875 -1.953125 "/></g></g></g></g></g><g transform="matrix(1, 0, 0, 1, 254, 151)"><g clip-path="url(#8e5e79af20)"><g clip-path="url(#ac5752126c)"><g fill="#201f1f" fill-opacity="1"><g transform="translate(0.3392, 19.769927)"><g><path d="M 6.984375 0 C 6.816406 0 6.679688 -0.0546875 6.578125 -0.171875 C 6.484375 -0.285156 6.4375 -0.421875 6.4375 -0.578125 L 6.4375 -11.75 L 6.6875 -11.59375 L 1.671875 -4.96875 L 1.625 -5.171875 L 8.921875 -5.171875 C 9.078125 -5.171875 9.207031 -5.117188 9.3125 -5.015625 C 9.425781 -4.921875 9.484375 -4.796875 9.484375 -4.640625 C 9.484375 -4.492188 9.425781 -4.367188 9.3125 -4.265625 C 9.207031 -4.160156 9.078125 -4.109375 8.921875 -4.109375 L 0.84375 -4.109375 C 0.6875 -4.109375 0.550781 -4.164062 0.4375 -4.28125 C 0.320312 -4.40625 0.265625 -4.546875 0.265625 -4.703125 C 0.265625 -4.835938 0.3125 -4.960938 0.40625 -5.078125 L 6.53125 -13.09375 C 6.59375 -13.1875 6.671875 -13.25 6.765625 -13.28125 C 6.859375 -13.3125 6.9375 -13.328125 7 -13.328125 C 7.164062 -13.328125 7.300781 -13.269531 7.40625 -13.15625 C 7.519531 -13.039062 7.578125 -12.90625 7.578125 -12.75 L 7.578125 -0.578125 C 7.578125 -0.421875 7.519531 -0.285156 7.40625 -0.171875 C 7.289062 -0.0546875 7.148438 0 6.984375 0 Z M 6.984375 0 "/></g></g></g></g></g></g><g transform="matrix(1, 0, 0, 1, 379, 151)"><g clip-path="url(#6f3e8ee777)"><g fill="#201f1f" fill-opacity="1"><g transform="translate(1.159194, 19.769927)"><g><path d="M 4.453125 0.03125 C 3.929688 0.03125 3.40625 -0.0507812 2.875 -0.21875 C 2.351562 -0.382812 1.890625 -0.640625 1.484375 -0.984375 C 1.410156 -1.046875 1.347656 -1.117188 1.296875 -1.203125 C 1.253906 -1.296875 1.234375 -1.390625 1.234375 -1.484375 C 1.234375 -1.609375 1.285156 -1.726562 1.390625 -1.84375 C 1.492188 -1.96875 1.625 -2.03125 1.78125 -2.03125 C 1.925781 -2.03125 2.066406 -1.972656 2.203125 -1.859375 C 2.535156 -1.609375 2.894531 -1.410156 3.28125 -1.265625 C 3.664062 -1.128906 4.054688 -1.0625 4.453125 -1.0625 C 5.203125 -1.0625 5.851562 -1.203125 6.40625 -1.484375 C 6.96875 -1.773438 7.398438 -2.179688 7.703125 -2.703125 C 8.015625 -3.234375 8.171875 -3.847656 8.171875 -4.546875 C 8.171875 -5.191406 8.03125 -5.753906 7.75 -6.234375 C 7.46875 -6.710938 7.066406 -7.085938 6.546875 -7.359375 C 6.035156 -7.628906 5.429688 -7.765625 4.734375 -7.765625 C 4.273438 -7.765625 3.859375 -7.691406 3.484375 -7.546875 C 3.117188 -7.410156 2.796875 -7.269531 2.515625 -7.125 C 2.242188 -6.976562 2.023438 -6.90625 1.859375 -6.90625 C 1.710938 -6.90625 1.585938 -6.941406 1.484375 -7.015625 C 1.390625 -7.097656 1.328125 -7.195312 1.296875 -7.3125 C 1.265625 -7.425781 1.265625 -7.546875 1.296875 -7.671875 L 2.109375 -12.75 C 2.117188 -12.863281 2.175781 -12.96875 2.28125 -13.0625 C 2.394531 -13.15625 2.535156 -13.203125 2.703125 -13.203125 L 8.4375 -13.203125 C 8.582031 -13.203125 8.707031 -13.148438 8.8125 -13.046875 C 8.925781 -12.941406 8.984375 -12.8125 8.984375 -12.65625 C 8.984375 -12.488281 8.925781 -12.347656 8.8125 -12.234375 C 8.707031 -12.128906 8.582031 -12.078125 8.4375 -12.078125 L 2.96875 -12.078125 L 3.140625 -12.25 L 2.359375 -7.75 L 2.015625 -8 C 2.179688 -8.125 2.421875 -8.25 2.734375 -8.375 C 3.046875 -8.5 3.394531 -8.609375 3.78125 -8.703125 C 4.164062 -8.796875 4.570312 -8.84375 5 -8.84375 C 5.832031 -8.84375 6.570312 -8.660156 7.21875 -8.296875 C 7.863281 -7.941406 8.375 -7.441406 8.75 -6.796875 C 9.125 -6.160156 9.3125 -5.425781 9.3125 -4.59375 C 9.3125 -3.664062 9.109375 -2.851562 8.703125 -2.15625 C 8.304688 -1.46875 7.742188 -0.929688 7.015625 -0.546875 C 6.296875 -0.160156 5.441406 0.03125 4.453125 0.03125 Z M 4.453125 0.03125 "/></g></g></g></g></g><g transform="matrix(1, 0, 0, 1, 505, 151)"><g clip-path="url(#a7e48d6cde)"><g fill="#201f1f" fill-opacity="1"><g transform="translate(0.979217, 19.769927)"><g><path d="M 5.46875 0.1875 C 4.726562 0.1875 4.082031 0.0546875 3.53125 -0.203125 C 2.976562 -0.472656 2.519531 -0.832031 2.15625 -1.28125 C 1.800781 -1.726562 1.535156 -2.238281 1.359375 -2.8125 C 1.191406 -3.382812 1.109375 -3.96875 1.109375 -4.5625 C 1.109375 -5.175781 1.179688 -5.832031 1.328125 -6.53125 C 1.484375 -7.238281 1.71875 -7.953125 2.03125 -8.671875 C 2.351562 -9.398438 2.742188 -10.085938 3.203125 -10.734375 C 3.671875 -11.378906 4.210938 -11.957031 4.828125 -12.46875 C 5.441406 -12.988281 6.132812 -13.394531 6.90625 -13.6875 C 7 -13.707031 7.078125 -13.71875 7.140625 -13.71875 C 7.304688 -13.71875 7.445312 -13.671875 7.5625 -13.578125 C 7.6875 -13.492188 7.75 -13.34375 7.75 -13.125 C 7.75 -13 7.707031 -12.890625 7.625 -12.796875 C 7.539062 -12.703125 7.425781 -12.628906 7.28125 -12.578125 C 6.75 -12.347656 6.222656 -12.023438 5.703125 -11.609375 C 5.179688 -11.191406 4.695312 -10.707031 4.25 -10.15625 C 3.8125 -9.613281 3.4375 -9.023438 3.125 -8.390625 C 2.820312 -7.765625 2.601562 -7.128906 2.46875 -6.484375 L 2.0625 -6.25 C 2.28125 -6.664062 2.570312 -7.035156 2.9375 -7.359375 C 3.300781 -7.679688 3.71875 -7.941406 4.1875 -8.140625 C 4.65625 -8.335938 5.160156 -8.4375 5.703125 -8.4375 C 6.273438 -8.4375 6.800781 -8.3125 7.28125 -8.0625 C 7.769531 -7.820312 8.1875 -7.492188 8.53125 -7.078125 C 8.882812 -6.671875 9.160156 -6.207031 9.359375 -5.6875 C 9.554688 -5.164062 9.65625 -4.628906 9.65625 -4.078125 C 9.65625 -3.328125 9.472656 -2.628906 9.109375 -1.984375 C 8.742188 -1.335938 8.25 -0.8125 7.625 -0.40625 C 7 -0.0078125 6.28125 0.1875 5.46875 0.1875 Z M 5.4375 -0.90625 C 6.019531 -0.90625 6.539062 -1.039062 7 -1.3125 C 7.457031 -1.582031 7.816406 -1.953125 8.078125 -2.421875 C 8.335938 -2.898438 8.46875 -3.453125 8.46875 -4.078125 C 8.46875 -4.640625 8.351562 -5.164062 8.125 -5.65625 C 7.90625 -6.144531 7.578125 -6.546875 7.140625 -6.859375 C 6.703125 -7.171875 6.160156 -7.328125 5.515625 -7.328125 C 4.847656 -7.328125 4.269531 -7.171875 3.78125 -6.859375 C 3.289062 -6.554688 2.914062 -6.15625 2.65625 -5.65625 C 2.394531 -5.15625 2.265625 -4.609375 2.265625 -4.015625 C 2.265625 -3.484375 2.390625 -2.976562 2.640625 -2.5 C 2.898438 -2.019531 3.265625 -1.632812 3.734375 -1.34375 C 4.210938 -1.050781 4.78125 -0.90625 5.4375 -0.90625 Z M 5.4375 -0.90625 "/></g></g></g></g></g><g transform="matrix(1, 0, 0, 1, 631, 151)"><g clip-path="url(#fa6748226a)"><g fill="#201f1f" fill-opacity="1"><g transform="translate(0.799211, 19.769927)"><g><path d="M 3.390625 0.0625 C 3.234375 0.0625 3.09375 0.0078125 2.96875 -0.09375 C 2.84375 -0.195312 2.78125 -0.320312 2.78125 -0.46875 C 2.78125 -0.5625 2.796875 -0.660156 2.828125 -0.765625 L 7.890625 -12.390625 L 8.109375 -12.125 L 1.671875 -12.125 C 1.523438 -12.125 1.394531 -12.175781 1.28125 -12.28125 C 1.175781 -12.394531 1.125 -12.523438 1.125 -12.671875 C 1.125 -12.835938 1.175781 -12.972656 1.28125 -13.078125 C 1.394531 -13.179688 1.523438 -13.234375 1.671875 -13.234375 L 8.65625 -13.234375 C 8.84375 -13.234375 8.984375 -13.179688 9.078125 -13.078125 C 9.171875 -12.972656 9.21875 -12.84375 9.21875 -12.6875 C 9.21875 -12.59375 9.195312 -12.5 9.15625 -12.40625 L 3.921875 -0.328125 C 3.878906 -0.210938 3.804688 -0.117188 3.703125 -0.046875 C 3.609375 0.0234375 3.503906 0.0625 3.390625 0.0625 Z M 3.390625 0.0625 "/></g></g></g></g></g><g transform="matrix(1, 0, 0, 1, 757, 151)"><g clip-path="url(#b344ac874c)"><g fill="#201f1f" fill-opacity="1"><g transform="translate(0.619204, 19.769927)"><g><path d="M 6.921875 -6.703125 L 6.875 -6.875 C 7.300781 -6.707031 7.691406 -6.460938 8.046875 -6.140625 C 8.398438 -5.816406 8.6875 -5.4375 8.90625 -5 C 9.125 -4.5625 9.234375 -4.082031 9.234375 -3.5625 C 9.234375 -2.875 9.050781 -2.25 8.6875 -1.6875 C 8.320312 -1.132812 7.828125 -0.691406 7.203125 -0.359375 C 6.585938 -0.0234375 5.898438 0.140625 5.140625 0.140625 C 4.367188 0.140625 3.671875 -0.0234375 3.046875 -0.359375 C 2.429688 -0.691406 1.941406 -1.132812 1.578125 -1.6875 C 1.222656 -2.25 1.046875 -2.875 1.046875 -3.5625 C 1.046875 -4.113281 1.15625 -4.609375 1.375 -5.046875 C 1.601562 -5.484375 1.894531 -5.851562 2.25 -6.15625 C 2.613281 -6.46875 2.992188 -6.707031 3.390625 -6.875 L 3.328125 -6.6875 C 2.984375 -6.84375 2.660156 -7.0625 2.359375 -7.34375 C 2.066406 -7.632812 1.820312 -7.976562 1.625 -8.375 C 1.4375 -8.78125 1.34375 -9.222656 1.34375 -9.703125 C 1.34375 -10.390625 1.507812 -11.003906 1.84375 -11.546875 C 2.1875 -12.097656 2.644531 -12.53125 3.21875 -12.84375 C 3.800781 -13.164062 4.441406 -13.328125 5.140625 -13.328125 C 5.835938 -13.328125 6.46875 -13.164062 7.03125 -12.84375 C 7.59375 -12.53125 8.039062 -12.097656 8.375 -11.546875 C 8.71875 -11.003906 8.890625 -10.390625 8.890625 -9.703125 C 8.890625 -9.210938 8.789062 -8.769531 8.59375 -8.375 C 8.40625 -7.976562 8.160156 -7.632812 7.859375 -7.34375 C 7.554688 -7.0625 7.242188 -6.847656 6.921875 -6.703125 Z M 2.53125 -9.703125 C 2.53125 -9.191406 2.648438 -8.742188 2.890625 -8.359375 C 3.128906 -7.984375 3.445312 -7.6875 3.84375 -7.46875 C 4.238281 -7.257812 4.671875 -7.15625 5.140625 -7.15625 C 5.597656 -7.15625 6.019531 -7.257812 6.40625 -7.46875 C 6.800781 -7.6875 7.113281 -7.984375 7.34375 -8.359375 C 7.582031 -8.742188 7.703125 -9.191406 7.703125 -9.703125 C 7.703125 -10.453125 7.460938 -11.0625 6.984375 -11.53125 C 6.503906 -12 5.890625 -12.234375 5.140625 -12.234375 C 4.367188 -12.234375 3.738281 -12 3.25 -11.53125 C 2.769531 -11.0625 2.53125 -10.453125 2.53125 -9.703125 Z M 5.140625 -0.953125 C 6.003906 -0.953125 6.703125 -1.195312 7.234375 -1.6875 C 7.773438 -2.1875 8.046875 -2.8125 8.046875 -3.5625 C 8.046875 -4.0625 7.910156 -4.515625 7.640625 -4.921875 C 7.378906 -5.328125 7.023438 -5.644531 6.578125 -5.875 C 6.140625 -6.101562 5.660156 -6.21875 5.140625 -6.21875 C 4.617188 -6.21875 4.132812 -6.101562 3.6875 -5.875 C 3.25 -5.644531 2.894531 -5.328125 2.625 -4.921875 C 2.363281 -4.515625 2.234375 -4.0625 2.234375 -3.5625 C 2.234375 -2.8125 2.5 -2.1875 3.03125 -1.6875 C 3.5625 -1.195312 4.265625 -0.953125 5.140625 -0.953125 Z M 5.140625 -0.953125 "/></g></g></g></g></g><g transform="matrix(1, 0, 0, 1, 2, 301)"><g clip-path="url(#6beda7c9d2)"><g fill="#201f1f" fill-opacity="1"><g transform="translate(0.699179, 19.530272)"><g><path d="M 5.265625 -13.53125 C 6.015625 -13.53125 6.664062 -13.394531 7.21875 -13.125 C 7.769531 -12.863281 8.222656 -12.503906 8.578125 -12.046875 C 8.929688 -11.597656 9.195312 -11.085938 9.375 -10.515625 C 9.5625 -9.953125 9.65625 -9.367188 9.65625 -8.765625 C 9.65625 -8.160156 9.570312 -7.507812 9.40625 -6.8125 C 9.25 -6.125 9.015625 -5.425781 8.703125 -4.71875 C 8.390625 -4.019531 8 -3.351562 7.53125 -2.71875 C 7.070312 -2.082031 6.53125 -1.507812 5.90625 -1 C 5.289062 -0.5 4.601562 -0.109375 3.84375 0.171875 C 3.738281 0.191406 3.65625 0.203125 3.59375 0.203125 C 3.445312 0.203125 3.3125 0.148438 3.1875 0.046875 C 3.0625 -0.0546875 3 -0.195312 3 -0.375 C 3 -0.507812 3.035156 -0.625 3.109375 -0.71875 C 3.191406 -0.8125 3.3125 -0.882812 3.46875 -0.9375 C 4.1875 -1.238281 4.878906 -1.691406 5.546875 -2.296875 C 6.222656 -2.898438 6.804688 -3.597656 7.296875 -4.390625 C 7.785156 -5.179688 8.113281 -6 8.28125 -6.84375 L 8.671875 -7.09375 C 8.460938 -6.6875 8.171875 -6.316406 7.796875 -5.984375 C 7.429688 -5.660156 7.015625 -5.40625 6.546875 -5.21875 C 6.085938 -5.039062 5.585938 -4.953125 5.046875 -4.953125 C 4.234375 -4.953125 3.53125 -5.148438 2.9375 -5.546875 C 2.351562 -5.941406 1.898438 -6.46875 1.578125 -7.125 C 1.265625 -7.789062 1.109375 -8.503906 1.109375 -9.265625 C 1.109375 -10.015625 1.285156 -10.710938 1.640625 -11.359375 C 2.003906 -12.003906 2.5 -12.523438 3.125 -12.921875 C 3.757812 -13.328125 4.472656 -13.53125 5.265625 -13.53125 Z M 5.3125 -12.421875 C 4.71875 -12.421875 4.191406 -12.285156 3.734375 -12.015625 C 3.273438 -11.753906 2.914062 -11.382812 2.65625 -10.90625 C 2.394531 -10.4375 2.265625 -9.890625 2.265625 -9.265625 C 2.265625 -8.710938 2.375 -8.1875 2.59375 -7.6875 C 2.820312 -7.195312 3.15625 -6.800781 3.59375 -6.5 C 4.039062 -6.195312 4.582031 -6.046875 5.21875 -6.046875 C 5.90625 -6.046875 6.488281 -6.195312 6.96875 -6.5 C 7.445312 -6.800781 7.816406 -7.195312 8.078125 -7.6875 C 8.347656 -8.1875 8.484375 -8.734375 8.484375 -9.328125 C 8.484375 -9.867188 8.359375 -10.375 8.109375 -10.84375 C 7.859375 -11.3125 7.492188 -11.691406 7.015625 -11.984375 C 6.546875 -12.273438 5.976562 -12.421875 5.3125 -12.421875 Z M 5.3125 -12.421875 "/></g></g></g></g></g><g transform="matrix(1, 0, 0, 1, 128, 301)"><g clip-path="url(#3fa9f47649)"><g clip-path="url(#8767fb671d)"><g fill="#201f1f" fill-opacity="1"><g transform="translate(0.519191, 19.530272)"><g><path d="M 4.296875 0 C 4.117188 0 3.972656 -0.0546875 3.859375 -0.171875 C 3.742188 -0.285156 3.6875 -0.421875 3.6875 -0.578125 L 3.6875 -12.03125 L 3.90625 -11.84375 L 1.375 -10.140625 C 1.269531 -10.066406 1.160156 -10.03125 1.046875 -10.03125 C 0.890625 -10.03125 0.75 -10.09375 0.625 -10.21875 C 0.507812 -10.34375 0.453125 -10.484375 0.453125 -10.640625 C 0.453125 -10.835938 0.554688 -10.992188 0.765625 -11.109375 L 3.9375 -13.234375 C 4.007812 -13.273438 4.085938 -13.300781 4.171875 -13.3125 C 4.253906 -13.332031 4.328125 -13.335938 4.390625 -13.328125 C 4.554688 -13.304688 4.679688 -13.242188 4.765625 -13.140625 C 4.859375 -13.035156 4.90625 -12.90625 4.90625 -12.75 L 4.90625 -0.578125 C 4.90625 -0.421875 4.847656 -0.285156 4.734375 -0.171875 C 4.617188 -0.0546875 4.472656 0 4.296875 0 Z M 4.296875 0 "/></g></g></g></g><g fill="#201f1f" fill-opacity="1"><g transform="translate(7.555917, 19.530272)"><g><path d="M 5.65625 0.1875 C 4.632812 0.1875 3.78125 -0.113281 3.09375 -0.71875 C 2.414062 -1.332031 1.90625 -2.15625 1.5625 -3.1875 C 1.21875 -4.21875 1.046875 -5.375 1.046875 -6.65625 C 1.046875 -7.957031 1.21875 -9.125 1.5625 -10.15625 C 1.90625 -11.1875 2.414062 -12.003906 3.09375 -12.609375 C 3.78125 -13.210938 4.632812 -13.515625 5.65625 -13.515625 C 6.695312 -13.515625 7.554688 -13.210938 8.234375 -12.609375 C 8.910156 -12.003906 9.421875 -11.1875 9.765625 -10.15625 C 10.109375 -9.125 10.28125 -7.957031 10.28125 -6.65625 C 10.28125 -5.375 10.109375 -4.21875 9.765625 -3.1875 C 9.421875 -2.15625 8.910156 -1.332031 8.234375 -0.71875 C 7.554688 -0.113281 6.695312 0.1875 5.65625 0.1875 Z M 5.65625 -0.984375 C 6.40625 -0.984375 7.03125 -1.21875 7.53125 -1.6875 C 8.03125 -2.15625 8.410156 -2.816406 8.671875 -3.671875 C 8.929688 -4.535156 9.0625 -5.53125 9.0625 -6.65625 C 9.0625 -7.800781 8.929688 -8.800781 8.671875 -9.65625 C 8.410156 -10.507812 8.03125 -11.171875 7.53125 -11.640625 C 7.03125 -12.109375 6.40625 -12.34375 5.65625 -12.34375 C 4.914062 -12.34375 4.296875 -12.109375 3.796875 -11.640625 C 3.296875 -11.171875 2.914062 -10.507812 2.65625 -9.65625 C 2.394531 -8.800781 2.265625 -7.800781 2.265625 -6.65625 C 2.265625 -5.53125 2.394531 -4.535156 2.65625 -3.671875 C 2.914062 -2.816406 3.296875 -2.15625 3.796875 -1.6875 C 4.296875 -1.21875 4.914062 -0.984375 5.65625 -0.984375 Z M 5.65625 -0.984375 "/></g></g></g></g></g><g transform="matrix(1, 0, 0, 1, 254, 301)"><g clip-path="url(#0635a75c51)"><g clip-path="url(#2a9b7ff0db)"><g fill="#201f1f" fill-opacity="1"><g transform="translate(0.3392, 19.530272)"><g><path d="M 4.296875 0 C 4.117188 0 3.972656 -0.0546875 3.859375 -0.171875 C 3.742188 -0.285156 3.6875 -0.421875 3.6875 -0.578125 L 3.6875 -12.03125 L 3.90625 -11.84375 L 1.375 -10.140625 C 1.269531 -10.066406 1.160156 -10.03125 1.046875 -10.03125 C 0.890625 -10.03125 0.75 -10.09375 0.625 -10.21875 C 0.507812 -10.34375 0.453125 -10.484375 0.453125 -10.640625 C 0.453125 -10.835938 0.554688 -10.992188 0.765625 -11.109375 L 3.9375 -13.234375 C 4.007812 -13.273438 4.085938 -13.300781 4.171875 -13.3125 C 4.253906 -13.332031 4.328125 -13.335938 4.390625 -13.328125 C 4.554688 -13.304688 4.679688 -13.242188 4.765625 -13.140625 C 4.859375 -13.035156 4.90625 -12.90625 4.90625 -12.75 L 4.90625 -0.578125 C 4.90625 -0.421875 4.847656 -0.285156 4.734375 -0.171875 C 4.617188 -0.0546875 4.472656 0 4.296875 0 Z M 4.296875 0 "/></g></g></g></g><g fill="#201f1f" fill-opacity="1"><g transform="translate(7.375926, 19.530272)"><g><path d="M 4.296875 0 C 4.117188 0 3.972656 -0.0546875 3.859375 -0.171875 C 3.742188 -0.285156 3.6875 -0.421875 3.6875 -0.578125 L 3.6875 -12.03125 L 3.90625 -11.84375 L 1.375 -10.140625 C 1.269531 -10.066406 1.160156 -10.03125 1.046875 -10.03125 C 0.890625 -10.03125 0.75 -10.09375 0.625 -10.21875 C 0.507812 -10.34375 0.453125 -10.484375 0.453125 -10.640625 C 0.453125 -10.835938 0.554688 -10.992188 0.765625 -11.109375 L 3.9375 -13.234375 C 4.007812 -13.273438 4.085938 -13.300781 4.171875 -13.3125 C 4.253906 -13.332031 4.328125 -13.335938 4.390625 -13.328125 C 4.554688 -13.304688 4.679688 -13.242188 4.765625 -13.140625 C 4.859375 -13.035156 4.90625 -12.90625 4.90625 -12.75 L 4.90625 -0.578125 C 4.90625 -0.421875 4.847656 -0.285156 4.734375 -0.171875 C 4.617188 -0.0546875 4.472656 0 4.296875 0 Z M 4.296875 0 "/></g></g></g></g></g><g transform="matrix(1, 0, 0, 1, 379, 301)"><g clip-path="url(#2faaf00d28)"><g fill="#201f1f" fill-opacity="1"><g transform="translate(1.159194, 19.530272)"><g><path d="M 4.296875 0 C 4.117188 0 3.972656 -0.0546875 3.859375 -0.171875 C 3.742188 -0.285156 3.6875 -0.421875 3.6875 -0.578125 L 3.6875 -12.03125 L 3.90625 -11.84375 L 1.375 -10.140625 C 1.269531 -10.066406 1.160156 -10.03125 1.046875 -10.03125 C 0.890625 -10.03125 0.75 -10.09375 0.625 -10.21875 C 0.507812 -10.34375 0.453125 -10.484375 0.453125 -10.640625 C 0.453125 -10.835938 0.554688 -10.992188 0.765625 -11.109375 L 3.9375 -13.234375 C 4.007812 -13.273438 4.085938 -13.300781 4.171875 -13.3125 C 4.253906 -13.332031 4.328125 -13.335938 4.390625 -13.328125 C 4.554688 -13.304688 4.679688 -13.242188 4.765625 -13.140625 C 4.859375 -13.035156 4.90625 -12.90625 4.90625 -12.75 L 4.90625 -0.578125 C 4.90625 -0.421875 4.847656 -0.285156 4.734375 -0.171875 C 4.617188 -0.0546875 4.472656 0 4.296875 0 Z M 4.296875 0 "/></g></g></g><g fill="#201f1f" fill-opacity="1"><g transform="translate(8.19592, 19.530272)"><g><path d="M 9.015625 -1.109375 C 9.171875 -1.109375 9.300781 -1.050781 9.40625 -0.9375 C 9.519531 -0.832031 9.578125 -0.703125 9.578125 -0.546875 C 9.578125 -0.378906 9.519531 -0.242188 9.40625 -0.140625 C 9.300781 -0.046875 9.171875 0 9.015625 0 L 1.890625 0 C 1.722656 0 1.578125 -0.046875 1.453125 -0.140625 C 1.335938 -0.234375 1.28125 -0.378906 1.28125 -0.578125 C 1.28125 -0.710938 1.328125 -0.84375 1.421875 -0.96875 L 5.828125 -5.828125 C 6.523438 -6.585938 7.046875 -7.285156 7.390625 -7.921875 C 7.742188 -8.566406 7.921875 -9.144531 7.921875 -9.65625 C 7.921875 -10.488281 7.664062 -11.15625 7.15625 -11.65625 C 6.644531 -12.164062 5.957031 -12.421875 5.09375 -12.421875 C 4.707031 -12.421875 4.316406 -12.335938 3.921875 -12.171875 C 3.535156 -12.015625 3.191406 -11.800781 2.890625 -11.53125 C 2.597656 -11.269531 2.367188 -10.96875 2.203125 -10.625 C 2.128906 -10.488281 2.050781 -10.394531 1.96875 -10.34375 C 1.882812 -10.300781 1.789062 -10.28125 1.6875 -10.28125 C 1.539062 -10.28125 1.410156 -10.328125 1.296875 -10.421875 C 1.179688 -10.515625 1.125 -10.628906 1.125 -10.765625 C 1.125 -10.859375 1.144531 -10.945312 1.1875 -11.03125 C 1.226562 -11.125 1.296875 -11.226562 1.390625 -11.34375 C 1.617188 -11.738281 1.9375 -12.097656 2.34375 -12.421875 C 2.75 -12.753906 3.203125 -13.019531 3.703125 -13.21875 C 4.203125 -13.414062 4.691406 -13.515625 5.171875 -13.515625 C 5.984375 -13.515625 6.6875 -13.359375 7.28125 -13.046875 C 7.875 -12.734375 8.332031 -12.296875 8.65625 -11.734375 C 8.976562 -11.171875 9.140625 -10.5 9.140625 -9.71875 C 9.140625 -9.0625 8.929688 -8.34375 8.515625 -7.5625 C 8.097656 -6.78125 7.488281 -5.941406 6.6875 -5.046875 L 2.96875 -0.875 L 2.78125 -1.109375 Z M 9.015625 -1.109375 "/></g></g></g></g></g><g transform="matrix(1, 0, 0, 1, 505, 301)"><g clip-path="url(#b8a2b30236)"><g fill="#201f1f" fill-opacity="1"><g transform="translate(0.979217, 19.530272)"><g><path d="M 4.296875 0 C 4.117188 0 3.972656 -0.0546875 3.859375 -0.171875 C 3.742188 -0.285156 3.6875 -0.421875 3.6875 -0.578125 L 3.6875 -12.03125 L 3.90625 -11.84375 L 1.375 -10.140625 C 1.269531 -10.066406 1.160156 -10.03125 1.046875 -10.03125 C 0.890625 -10.03125 0.75 -10.09375 0.625 -10.21875 C 0.507812 -10.34375 0.453125 -10.484375 0.453125 -10.640625 C 0.453125 -10.835938 0.554688 -10.992188 0.765625 -11.109375 L 3.9375 -13.234375 C 4.007812 -13.273438 4.085938 -13.300781 4.171875 -13.3125 C 4.253906 -13.332031 4.328125 -13.335938 4.390625 -13.328125 C 4.554688 -13.304688 4.679688 -13.242188 4.765625 -13.140625 C 4.859375 -13.035156 4.90625 -12.90625 4.90625 -12.75 L 4.90625 -0.578125 C 4.90625 -0.421875 4.847656 -0.285156 4.734375 -0.171875 C 4.617188 -0.0546875 4.472656 0 4.296875 0 Z M 4.296875 0 "/></g></g></g><g fill="#201f1f" fill-opacity="1"><g transform="translate(8.015943, 19.530272)"><g><path d="M 1.6875 -1.953125 C 1.75 -1.953125 1.816406 -1.941406 1.890625 -1.921875 C 1.960938 -1.898438 2.050781 -1.84375 2.15625 -1.75 C 2.414062 -1.46875 2.726562 -1.253906 3.09375 -1.109375 C 3.46875 -0.960938 3.890625 -0.890625 4.359375 -0.890625 C 4.984375 -0.890625 5.550781 -1.03125 6.0625 -1.3125 C 6.570312 -1.59375 6.976562 -1.984375 7.28125 -2.484375 C 7.59375 -2.984375 7.75 -3.554688 7.75 -4.203125 C 7.75 -4.941406 7.585938 -5.535156 7.265625 -5.984375 C 6.941406 -6.429688 6.523438 -6.765625 6.015625 -6.984375 C 5.515625 -7.210938 5.003906 -7.328125 4.484375 -7.328125 C 4.347656 -7.328125 4.210938 -7.316406 4.078125 -7.296875 C 3.941406 -7.273438 3.816406 -7.25 3.703125 -7.21875 C 3.597656 -7.195312 3.507812 -7.1875 3.4375 -7.1875 C 3.28125 -7.1875 3.15625 -7.238281 3.0625 -7.34375 C 2.976562 -7.457031 2.9375 -7.597656 2.9375 -7.765625 C 2.9375 -7.847656 2.953125 -7.925781 2.984375 -8 C 3.023438 -8.070312 3.078125 -8.148438 3.140625 -8.234375 L 7 -12.453125 L 7.234375 -12.140625 L 1.46875 -12.140625 C 1.3125 -12.140625 1.175781 -12.191406 1.0625 -12.296875 C 0.957031 -12.410156 0.90625 -12.539062 0.90625 -12.6875 C 0.90625 -12.84375 0.957031 -12.972656 1.0625 -13.078125 C 1.175781 -13.179688 1.3125 -13.234375 1.46875 -13.234375 L 7.859375 -13.234375 C 8.078125 -13.234375 8.226562 -13.164062 8.3125 -13.03125 C 8.40625 -12.894531 8.453125 -12.765625 8.453125 -12.640625 C 8.453125 -12.554688 8.429688 -12.476562 8.390625 -12.40625 C 8.347656 -12.34375 8.296875 -12.273438 8.234375 -12.203125 L 4.375 -8 L 3.953125 -8.234375 C 3.992188 -8.273438 4.125 -8.316406 4.34375 -8.359375 C 4.570312 -8.410156 4.75 -8.4375 4.875 -8.4375 C 5.570312 -8.4375 6.226562 -8.269531 6.84375 -7.9375 C 7.457031 -7.601562 7.957031 -7.128906 8.34375 -6.515625 C 8.726562 -5.898438 8.921875 -5.144531 8.921875 -4.25 C 8.921875 -3.351562 8.710938 -2.570312 8.296875 -1.90625 C 7.878906 -1.238281 7.3125 -0.722656 6.59375 -0.359375 C 5.882812 0.00390625 5.101562 0.1875 4.25 0.1875 C 3.726562 0.1875 3.210938 0.0976562 2.703125 -0.078125 C 2.191406 -0.253906 1.75 -0.519531 1.375 -0.875 C 1.28125 -0.945312 1.210938 -1.019531 1.171875 -1.09375 C 1.140625 -1.175781 1.125 -1.253906 1.125 -1.328125 C 1.125 -1.484375 1.175781 -1.625 1.28125 -1.75 C 1.394531 -1.882812 1.53125 -1.953125 1.6875 -1.953125 Z M 1.6875 -1.953125 "/></g></g></g></g></g><g transform="matrix(1, 0, 0, 1, 631, 301)"><g clip-path="url(#28a8d8fbd4)"><g fill="#201f1f" fill-opacity="1"><g transform="translate(0.799211, 19.530272)"><g><path d="M 4.296875 0 C 4.117188 0 3.972656 -0.0546875 3.859375 -0.171875 C 3.742188 -0.285156 3.6875 -0.421875 3.6875 -0.578125 L 3.6875 -12.03125 L 3.90625 -11.84375 L 1.375 -10.140625 C 1.269531 -10.066406 1.160156 -10.03125 1.046875 -10.03125 C 0.890625 -10.03125 0.75 -10.09375 0.625 -10.21875 C 0.507812 -10.34375 0.453125 -10.484375 0.453125 -10.640625 C 0.453125 -10.835938 0.554688 -10.992188 0.765625 -11.109375 L 3.9375 -13.234375 C 4.007812 -13.273438 4.085938 -13.300781 4.171875 -13.3125 C 4.253906 -13.332031 4.328125 -13.335938 4.390625 -13.328125 C 4.554688 -13.304688 4.679688 -13.242188 4.765625 -13.140625 C 4.859375 -13.035156 4.90625 -12.90625 4.90625 -12.75 L 4.90625 -0.578125 C 4.90625 -0.421875 4.847656 -0.285156 4.734375 -0.171875 C 4.617188 -0.0546875 4.472656 0 4.296875 0 Z M 4.296875 0 "/></g></g></g><g fill="#201f1f" fill-opacity="1"><g transform="translate(7.835937, 19.530272)"><g><path d="M 6.984375 0 C 6.816406 0 6.679688 -0.0546875 6.578125 -0.171875 C 6.484375 -0.285156 6.4375 -0.421875 6.4375 -0.578125 L 6.4375 -11.75 L 6.6875 -11.59375 L 1.671875 -4.96875 L 1.625 -5.171875 L 8.921875 -5.171875 C 9.078125 -5.171875 9.207031 -5.117188 9.3125 -5.015625 C 9.425781 -4.921875 9.484375 -4.796875 9.484375 -4.640625 C 9.484375 -4.492188 9.425781 -4.367188 9.3125 -4.265625 C 9.207031 -4.160156 9.078125 -4.109375 8.921875 -4.109375 L 0.84375 -4.109375 C 0.6875 -4.109375 0.550781 -4.164062 0.4375 -4.28125 C 0.320312 -4.40625 0.265625 -4.546875 0.265625 -4.703125 C 0.265625 -4.835938 0.3125 -4.960938 0.40625 -5.078125 L 6.53125 -13.09375 C 6.59375 -13.1875 6.671875 -13.25 6.765625 -13.28125 C 6.859375 -13.3125 6.9375 -13.328125 7 -13.328125 C 7.164062 -13.328125 7.300781 -13.269531 7.40625 -13.15625 C 7.519531 -13.039062 7.578125 -12.90625 7.578125 -12.75 L 7.578125 -0.578125 C 7.578125 -0.421875 7.519531 -0.285156 7.40625 -0.171875 C 7.289062 -0.0546875 7.148438 0 6.984375 0 Z M 6.984375 0 "/></g></g></g></g></g><g transform="matrix(1, 0, 0, 1, 757, 301)"><g clip-path="url(#1afa9c08c7)"><g fill="#201f1f" fill-opacity="1"><g transform="translate(0.619204, 19.530272)"><g><path d="M 4.296875 0 C 4.117188 0 3.972656 -0.0546875 3.859375 -0.171875 C 3.742188 -0.285156 3.6875 -0.421875 3.6875 -0.578125 L 3.6875 -12.03125 L 3.90625 -11.84375 L 1.375 -10.140625 C 1.269531 -10.066406 1.160156 -10.03125 1.046875 -10.03125 C 0.890625 -10.03125 0.75 -10.09375 0.625 -10.21875 C 0.507812 -10.34375 0.453125 -10.484375 0.453125 -10.640625 C 0.453125 -10.835938 0.554688 -10.992188 0.765625 -11.109375 L 3.9375 -13.234375 C 4.007812 -13.273438 4.085938 -13.300781 4.171875 -13.3125 C 4.253906 -13.332031 4.328125 -13.335938 4.390625 -13.328125 C 4.554688 -13.304688 4.679688 -13.242188 4.765625 -13.140625 C 4.859375 -13.035156 4.90625 -12.90625 4.90625 -12.75 L 4.90625 -0.578125 C 4.90625 -0.421875 4.847656 -0.285156 4.734375 -0.171875 C 4.617188 -0.0546875 4.472656 0 4.296875 0 Z M 4.296875 0 "/></g></g></g><g fill="#201f1f" fill-opacity="1"><g transform="translate(7.65593, 19.530272)"><g><path d="M 4.453125 0.03125 C 3.929688 0.03125 3.40625 -0.0507812 2.875 -0.21875 C 2.351562 -0.382812 1.890625 -0.640625 1.484375 -0.984375 C 1.410156 -1.046875 1.347656 -1.117188 1.296875 -1.203125 C 1.253906 -1.296875 1.234375 -1.390625 1.234375 -1.484375 C 1.234375 -1.609375 1.285156 -1.726562 1.390625 -1.84375 C 1.492188 -1.96875 1.625 -2.03125 1.78125 -2.03125 C 1.925781 -2.03125 2.066406 -1.972656 2.203125 -1.859375 C 2.535156 -1.609375 2.894531 -1.410156 3.28125 -1.265625 C 3.664062 -1.128906 4.054688 -1.0625 4.453125 -1.0625 C 5.203125 -1.0625 5.851562 -1.203125 6.40625 -1.484375 C 6.96875 -1.773438 7.398438 -2.179688 7.703125 -2.703125 C 8.015625 -3.234375 8.171875 -3.847656 8.171875 -4.546875 C 8.171875 -5.191406 8.03125 -5.753906 7.75 -6.234375 C 7.46875 -6.710938 7.066406 -7.085938 6.546875 -7.359375 C 6.035156 -7.628906 5.429688 -7.765625 4.734375 -7.765625 C 4.273438 -7.765625 3.859375 -7.691406 3.484375 -7.546875 C 3.117188 -7.410156 2.796875 -7.269531 2.515625 -7.125 C 2.242188 -6.976562 2.023438 -6.90625 1.859375 -6.90625 C 1.710938 -6.90625 1.585938 -6.941406 1.484375 -7.015625 C 1.390625 -7.097656 1.328125 -7.195312 1.296875 -7.3125 C 1.265625 -7.425781 1.265625 -7.546875 1.296875 -7.671875 L 2.109375 -12.75 C 2.117188 -12.863281 2.175781 -12.96875 2.28125 -13.0625 C 2.394531 -13.15625 2.535156 -13.203125 2.703125 -13.203125 L 8.4375 -13.203125 C 8.582031 -13.203125 8.707031 -13.148438 8.8125 -13.046875 C 8.925781 -12.941406 8.984375 -12.8125 8.984375 -12.65625 C 8.984375 -12.488281 8.925781 -12.347656 8.8125 -12.234375 C 8.707031 -12.128906 8.582031 -12.078125 8.4375 -12.078125 L 2.96875 -12.078125 L 3.140625 -12.25 L 2.359375 -7.75 L 2.015625 -8 C 2.179688 -8.125 2.421875 -8.25 2.734375 -8.375 C 3.046875 -8.5 3.394531 -8.609375 3.78125 -8.703125 C 4.164062 -8.796875 4.570312 -8.84375 5 -8.84375 C 5.832031 -8.84375 6.570312 -8.660156 7.21875 -8.296875 C 7.863281 -7.941406 8.375 -7.441406 8.75 -6.796875 C 9.125 -6.160156 9.3125 -5.425781 9.3125 -4.59375 C 9.3125 -3.664062 9.109375 -2.851562 8.703125 -2.15625 C 8.304688 -1.46875 7.742188 -0.929688 7.015625 -0.546875 C 6.296875 -0.160156 5.441406 0.03125 4.453125 0.03125 Z M 4.453125 0.03125 "/></g></g></g></g></g><g clip-path="url(#46242aff13)"><g transform="matrix(1, 0, 0, 1, 2, 450)"><g clip-path="url(#35fce4fdb1)"><g fill="#201f1f" fill-opacity="1"><g transform="translate(0.699179, 20.290382)"><g><path d="M 4.296875 0 C 4.117188 0 3.972656 -0.0546875 3.859375 -0.171875 C 3.742188 -0.285156 3.6875 -0.421875 3.6875 -0.578125 L 3.6875 -12.03125 L 3.90625 -11.84375 L 1.375 -10.140625 C 1.269531 -10.066406 1.160156 -10.03125 1.046875 -10.03125 C 0.890625 -10.03125 0.75 -10.09375 0.625 -10.21875 C 0.507812 -10.34375 0.453125 -10.484375 0.453125 -10.640625 C 0.453125 -10.835938 0.554688 -10.992188 0.765625 -11.109375 L 3.9375 -13.234375 C 4.007812 -13.273438 4.085938 -13.300781 4.171875 -13.3125 C 4.253906 -13.332031 4.328125 -13.335938 4.390625 -13.328125 C 4.554688 -13.304688 4.679688 -13.242188 4.765625 -13.140625 C 4.859375 -13.035156 4.90625 -12.90625 4.90625 -12.75 L 4.90625 -0.578125 C 4.90625 -0.421875 4.847656 -0.285156 4.734375 -0.171875 C 4.617188 -0.0546875 4.472656 0 4.296875 0 Z M 4.296875 0 "/></g></g></g><g fill="#201f1f" fill-opacity="1"><g transform="translate(7.735905, 20.290382)"><g><path d="M 5.46875 0.1875 C 4.726562 0.1875 4.082031 0.0546875 3.53125 -0.203125 C 2.976562 -0.472656 2.519531 -0.832031 2.15625 -1.28125 C 1.800781 -1.726562 1.535156 -2.238281 1.359375 -2.8125 C 1.191406 -3.382812 1.109375 -3.96875 1.109375 -4.5625 C 1.109375 -5.175781 1.179688 -5.832031 1.328125 -6.53125 C 1.484375 -7.238281 1.71875 -7.953125 2.03125 -8.671875 C 2.351562 -9.398438 2.742188 -10.085938 3.203125 -10.734375 C 3.671875 -11.378906 4.210938 -11.957031 4.828125 -12.46875 C 5.441406 -12.988281 6.132812 -13.394531 6.90625 -13.6875 C 7 -13.707031 7.078125 -13.71875 7.140625 -13.71875 C 7.304688 -13.71875 7.445312 -13.671875 7.5625 -13.578125 C 7.6875 -13.492188 7.75 -13.34375 7.75 -13.125 C 7.75 -13 7.707031 -12.890625 7.625 -12.796875 C 7.539062 -12.703125 7.425781 -12.628906 7.28125 -12.578125 C 6.75 -12.347656 6.222656 -12.023438 5.703125 -11.609375 C 5.179688 -11.191406 4.695312 -10.707031 4.25 -10.15625 C 3.8125 -9.613281 3.4375 -9.023438 3.125 -8.390625 C 2.820312 -7.765625 2.601562 -7.128906 2.46875 -6.484375 L 2.0625 -6.25 C 2.28125 -6.664062 2.570312 -7.035156 2.9375 -7.359375 C 3.300781 -7.679688 3.71875 -7.941406 4.1875 -8.140625 C 4.65625 -8.335938 5.160156 -8.4375 5.703125 -8.4375 C 6.273438 -8.4375 6.800781 -8.3125 7.28125 -8.0625 C 7.769531 -7.820312 8.1875 -7.492188 8.53125 -7.078125 C 8.882812 -6.671875 9.160156 -6.207031 9.359375 -5.6875 C 9.554688 -5.164062 9.65625 -4.628906 9.65625 -4.078125 C 9.65625 -3.328125 9.472656 -2.628906 9.109375 -1.984375 C 8.742188 -1.335938 8.25 -0.8125 7.625 -0.40625 C 7 -0.0078125 6.28125 0.1875 5.46875 0.1875 Z M 5.4375 -0.90625 C 6.019531 -0.90625 6.539062 -1.039062 7 -1.3125 C 7.457031 -1.582031 7.816406 -1.953125 8.078125 -2.421875 C 8.335938 -2.898438 8.46875 -3.453125 8.46875 -4.078125 C 8.46875 -4.640625 8.351562 -5.164062 8.125 -5.65625 C 7.90625 -6.144531 7.578125 -6.546875 7.140625 -6.859375 C 6.703125 -7.171875 6.160156 -7.328125 5.515625 -7.328125 C 4.847656 -7.328125 4.269531 -7.171875 3.78125 -6.859375 C 3.289062 -6.554688 2.914062 -6.15625 2.65625 -5.65625 C 2.394531 -5.15625 2.265625 -4.609375 2.265625 -4.015625 C 2.265625 -3.484375 2.390625 -2.976562 2.640625 -2.5 C 2.898438 -2.019531 3.265625 -1.632812 3.734375 -1.34375 C 4.210938 -1.050781 4.78125 -0.90625 5.4375 -0.90625 Z M 5.4375 -0.90625 "/></g></g></g></g></g></g><g clip-path="url(#84c344741b)"><g transform="matrix(1, 0, 0, 1, 128, 450)"><g clip-path="url(#96ebc7823f)"><g clip-path="url(#4d4b25f483)"><g fill="#201f1f" fill-opacity="1"><g transform="translate(0.519191, 20.290382)"><g><path d="M 4.296875 0 C 4.117188 0 3.972656 -0.0546875 3.859375 -0.171875 C 3.742188 -0.285156 3.6875 -0.421875 3.6875 -0.578125 L 3.6875 -12.03125 L 3.90625 -11.84375 L 1.375 -10.140625 C 1.269531 -10.066406 1.160156 -10.03125 1.046875 -10.03125 C 0.890625 -10.03125 0.75 -10.09375 0.625 -10.21875 C 0.507812 -10.34375 0.453125 -10.484375 0.453125 -10.640625 C 0.453125 -10.835938 0.554688 -10.992188 0.765625 -11.109375 L 3.9375 -13.234375 C 4.007812 -13.273438 4.085938 -13.300781 4.171875 -13.3125 C 4.253906 -13.332031 4.328125 -13.335938 4.390625 -13.328125 C 4.554688 -13.304688 4.679688 -13.242188 4.765625 -13.140625 C 4.859375 -13.035156 4.90625 -12.90625 4.90625 -12.75 L 4.90625 -0.578125 C 4.90625 -0.421875 4.847656 -0.285156 4.734375 -0.171875 C 4.617188 -0.0546875 4.472656 0 4.296875 0 Z M 4.296875 0 "/></g></g></g></g><g fill="#201f1f" fill-opacity="1"><g transform="translate(7.555917, 20.290382)"><g><path d="M 3.390625 0.0625 C 3.234375 0.0625 3.09375 0.0078125 2.96875 -0.09375 C 2.84375 -0.195312 2.78125 -0.320312 2.78125 -0.46875 C 2.78125 -0.5625 2.796875 -0.660156 2.828125 -0.765625 L 7.890625 -12.390625 L 8.109375 -12.125 L 1.671875 -12.125 C 1.523438 -12.125 1.394531 -12.175781 1.28125 -12.28125 C 1.175781 -12.394531 1.125 -12.523438 1.125 -12.671875 C 1.125 -12.835938 1.175781 -12.972656 1.28125 -13.078125 C 1.394531 -13.179688 1.523438 -13.234375 1.671875 -13.234375 L 8.65625 -13.234375 C 8.84375 -13.234375 8.984375 -13.179688 9.078125 -13.078125 C 9.171875 -12.972656 9.21875 -12.84375 9.21875 -12.6875 C 9.21875 -12.59375 9.195312 -12.5 9.15625 -12.40625 L 3.921875 -0.328125 C 3.878906 -0.210938 3.804688 -0.117188 3.703125 -0.046875 C 3.609375 0.0234375 3.503906 0.0625 3.390625 0.0625 Z M 3.390625 0.0625 "/></g></g></g></g></g></g><g clip-path="url(#9611169538)"><g transform="matrix(1, 0, 0, 1, 254, 450)"><g clip-path="url(#a4ad9dd9f2)"><g clip-path="url(#bf9e88bebd)"><g fill="#201f1f" fill-opacity="1"><g transform="translate(0.3392, 20.290382)"><g><path d="M 4.296875 0 C 4.117188 0 3.972656 -0.0546875 3.859375 -0.171875 C 3.742188 -0.285156 3.6875 -0.421875 3.6875 -0.578125 L 3.6875 -12.03125 L 3.90625 -11.84375 L 1.375 -10.140625 C 1.269531 -10.066406 1.160156 -10.03125 1.046875 -10.03125 C 0.890625 -10.03125 0.75 -10.09375 0.625 -10.21875 C 0.507812 -10.34375 0.453125 -10.484375 0.453125 -10.640625 C 0.453125 -10.835938 0.554688 -10.992188 0.765625 -11.109375 L 3.9375 -13.234375 C 4.007812 -13.273438 4.085938 -13.300781 4.171875 -13.3125 C 4.253906 -13.332031 4.328125 -13.335938 4.390625 -13.328125 C 4.554688 -13.304688 4.679688 -13.242188 4.765625 -13.140625 C 4.859375 -13.035156 4.90625 -12.90625 4.90625 -12.75 L 4.90625 -0.578125 C 4.90625 -0.421875 4.847656 -0.285156 4.734375 -0.171875 C 4.617188 -0.0546875 4.472656 0 4.296875 0 Z M 4.296875 0 "/></g></g></g></g><g fill="#201f1f" fill-opacity="1"><g transform="translate(7.375926, 20.290382)"><g><path d="M 6.921875 -6.703125 L 6.875 -6.875 C 7.300781 -6.707031 7.691406 -6.460938 8.046875 -6.140625 C 8.398438 -5.816406 8.6875 -5.4375 8.90625 -5 C 9.125 -4.5625 9.234375 -4.082031 9.234375 -3.5625 C 9.234375 -2.875 9.050781 -2.25 8.6875 -1.6875 C 8.320312 -1.132812 7.828125 -0.691406 7.203125 -0.359375 C 6.585938 -0.0234375 5.898438 0.140625 5.140625 0.140625 C 4.367188 0.140625 3.671875 -0.0234375 3.046875 -0.359375 C 2.429688 -0.691406 1.941406 -1.132812 1.578125 -1.6875 C 1.222656 -2.25 1.046875 -2.875 1.046875 -3.5625 C 1.046875 -4.113281 1.15625 -4.609375 1.375 -5.046875 C 1.601562 -5.484375 1.894531 -5.851562 2.25 -6.15625 C 2.613281 -6.46875 2.992188 -6.707031 3.390625 -6.875 L 3.328125 -6.6875 C 2.984375 -6.84375 2.660156 -7.0625 2.359375 -7.34375 C 2.066406 -7.632812 1.820312 -7.976562 1.625 -8.375 C 1.4375 -8.78125 1.34375 -9.222656 1.34375 -9.703125 C 1.34375 -10.390625 1.507812 -11.003906 1.84375 -11.546875 C 2.1875 -12.097656 2.644531 -12.53125 3.21875 -12.84375 C 3.800781 -13.164062 4.441406 -13.328125 5.140625 -13.328125 C 5.835938 -13.328125 6.46875 -13.164062 7.03125 -12.84375 C 7.59375 -12.53125 8.039062 -12.097656 8.375 -11.546875 C 8.71875 -11.003906 8.890625 -10.390625 8.890625 -9.703125 C 8.890625 -9.210938 8.789062 -8.769531 8.59375 -8.375 C 8.40625 -7.976562 8.160156 -7.632812 7.859375 -7.34375 C 7.554688 -7.0625 7.242188 -6.847656 6.921875 -6.703125 Z M 2.53125 -9.703125 C 2.53125 -9.191406 2.648438 -8.742188 2.890625 -8.359375 C 3.128906 -7.984375 3.445312 -7.6875 3.84375 -7.46875 C 4.238281 -7.257812 4.671875 -7.15625 5.140625 -7.15625 C 5.597656 -7.15625 6.019531 -7.257812 6.40625 -7.46875 C 6.800781 -7.6875 7.113281 -7.984375 7.34375 -8.359375 C 7.582031 -8.742188 7.703125 -9.191406 7.703125 -9.703125 C 7.703125 -10.453125 7.460938 -11.0625 6.984375 -11.53125 C 6.503906 -12 5.890625 -12.234375 5.140625 -12.234375 C 4.367188 -12.234375 3.738281 -12 3.25 -11.53125 C 2.769531 -11.0625 2.53125 -10.453125 2.53125 -9.703125 Z M 5.140625 -0.953125 C 6.003906 -0.953125 6.703125 -1.195312 7.234375 -1.6875 C 7.773438 -2.1875 8.046875 -2.8125 8.046875 -3.5625 C 8.046875 -4.0625 7.910156 -4.515625 7.640625 -4.921875 C 7.378906 -5.328125 7.023438 -5.644531 6.578125 -5.875 C 6.140625 -6.101562 5.660156 -6.21875 5.140625 -6.21875 C 4.617188 -6.21875 4.132812 -6.101562 3.6875 -5.875 C 3.25 -5.644531 2.894531 -5.328125 2.625 -4.921875 C 2.363281 -4.515625 2.234375 -4.0625 2.234375 -3.5625 C 2.234375 -2.8125 2.5 -2.1875 3.03125 -1.6875 C 3.5625 -1.195312 4.265625 -0.953125 5.140625 -0.953125 Z M 5.140625 -0.953125 "/></g></g></g></g></g></g><g clip-path="url(#3c8bf74f30)"><g transform="matrix(1, 0, 0, 1, 379, 450)"><g clip-path="url(#8f5f3a15b3)"><g fill="#201f1f" fill-opacity="1"><g transform="translate(1.159194, 20.290382)"><g><path d="M 4.296875 0 C 4.117188 0 3.972656 -0.0546875 3.859375 -0.171875 C 3.742188 -0.285156 3.6875 -0.421875 3.6875 -0.578125 L 3.6875 -12.03125 L 3.90625 -11.84375 L 1.375 -10.140625 C 1.269531 -10.066406 1.160156 -10.03125 1.046875 -10.03125 C 0.890625 -10.03125 0.75 -10.09375 0.625 -10.21875 C 0.507812 -10.34375 0.453125 -10.484375 0.453125 -10.640625 C 0.453125 -10.835938 0.554688 -10.992188 0.765625 -11.109375 L 3.9375 -13.234375 C 4.007812 -13.273438 4.085938 -13.300781 4.171875 -13.3125 C 4.253906 -13.332031 4.328125 -13.335938 4.390625 -13.328125 C 4.554688 -13.304688 4.679688 -13.242188 4.765625 -13.140625 C 4.859375 -13.035156 4.90625 -12.90625 4.90625 -12.75 L 4.90625 -0.578125 C 4.90625 -0.421875 4.847656 -0.285156 4.734375 -0.171875 C 4.617188 -0.0546875 4.472656 0 4.296875 0 Z M 4.296875 0 "/></g></g></g><g fill="#201f1f" fill-opacity="1"><g transform="translate(8.19592, 20.290382)"><g><path d="M 5.265625 -13.53125 C 6.015625 -13.53125 6.664062 -13.394531 7.21875 -13.125 C 7.769531 -12.863281 8.222656 -12.503906 8.578125 -12.046875 C 8.929688 -11.597656 9.195312 -11.085938 9.375 -10.515625 C 9.5625 -9.953125 9.65625 -9.367188 9.65625 -8.765625 C 9.65625 -8.160156 9.570312 -7.507812 9.40625 -6.8125 C 9.25 -6.125 9.015625 -5.425781 8.703125 -4.71875 C 8.390625 -4.019531 8 -3.351562 7.53125 -2.71875 C 7.070312 -2.082031 6.53125 -1.507812 5.90625 -1 C 5.289062 -0.5 4.601562 -0.109375 3.84375 0.171875 C 3.738281 0.191406 3.65625 0.203125 3.59375 0.203125 C 3.445312 0.203125 3.3125 0.148438 3.1875 0.046875 C 3.0625 -0.0546875 3 -0.195312 3 -0.375 C 3 -0.507812 3.035156 -0.625 3.109375 -0.71875 C 3.191406 -0.8125 3.3125 -0.882812 3.46875 -0.9375 C 4.1875 -1.238281 4.878906 -1.691406 5.546875 -2.296875 C 6.222656 -2.898438 6.804688 -3.597656 7.296875 -4.390625 C 7.785156 -5.179688 8.113281 -6 8.28125 -6.84375 L 8.671875 -7.09375 C 8.460938 -6.6875 8.171875 -6.316406 7.796875 -5.984375 C 7.429688 -5.660156 7.015625 -5.40625 6.546875 -5.21875 C 6.085938 -5.039062 5.585938 -4.953125 5.046875 -4.953125 C 4.234375 -4.953125 3.53125 -5.148438 2.9375 -5.546875 C 2.351562 -5.941406 1.898438 -6.46875 1.578125 -7.125 C 1.265625 -7.789062 1.109375 -8.503906 1.109375 -9.265625 C 1.109375 -10.015625 1.285156 -10.710938 1.640625 -11.359375 C 2.003906 -12.003906 2.5 -12.523438 3.125 -12.921875 C 3.757812 -13.328125 4.472656 -13.53125 5.265625 -13.53125 Z M 5.3125 -12.421875 C 4.71875 -12.421875 4.191406 -12.285156 3.734375 -12.015625 C 3.273438 -11.753906 2.914062 -11.382812 2.65625 -10.90625 C 2.394531 -10.4375 2.265625 -9.890625 2.265625 -9.265625 C 2.265625 -8.710938 2.375 -8.1875 2.59375 -7.6875 C 2.820312 -7.195312 3.15625 -6.800781 3.59375 -6.5 C 4.039062 -6.195312 4.582031 -6.046875 5.21875 -6.046875 C 5.90625 -6.046875 6.488281 -6.195312 6.96875 -6.5 C 7.445312 -6.800781 7.816406 -7.195312 8.078125 -7.6875 C 8.347656 -8.1875 8.484375 -8.734375 8.484375 -9.328125 C 8.484375 -9.867188 8.359375 -10.375 8.109375 -10.84375 C 7.859375 -11.3125 7.492188 -11.691406 7.015625 -11.984375 C 6.546875 -12.273438 5.976562 -12.421875 5.3125 -12.421875 Z M 5.3125 -12.421875 "/></g></g></g></g></g></g><g clip-path="url(#eeb0bf9760)"><g transform="matrix(1, 0, 0, 1, 505, 450)"><g clip-path="url(#6bcbc8a141)"><g fill="#201f1f" fill-opacity="1"><g transform="translate(0.979217, 20.290382)"><g><path d="M 9.015625 -1.109375 C 9.171875 -1.109375 9.300781 -1.050781 9.40625 -0.9375 C 9.519531 -0.832031 9.578125 -0.703125 9.578125 -0.546875 C 9.578125 -0.378906 9.519531 -0.242188 9.40625 -0.140625 C 9.300781 -0.046875 9.171875 0 9.015625 0 L 1.890625 0 C 1.722656 0 1.578125 -0.046875 1.453125 -0.140625 C 1.335938 -0.234375 1.28125 -0.378906 1.28125 -0.578125 C 1.28125 -0.710938 1.328125 -0.84375 1.421875 -0.96875 L 5.828125 -5.828125 C 6.523438 -6.585938 7.046875 -7.285156 7.390625 -7.921875 C 7.742188 -8.566406 7.921875 -9.144531 7.921875 -9.65625 C 7.921875 -10.488281 7.664062 -11.15625 7.15625 -11.65625 C 6.644531 -12.164062 5.957031 -12.421875 5.09375 -12.421875 C 4.707031 -12.421875 4.316406 -12.335938 3.921875 -12.171875 C 3.535156 -12.015625 3.191406 -11.800781 2.890625 -11.53125 C 2.597656 -11.269531 2.367188 -10.96875 2.203125 -10.625 C 2.128906 -10.488281 2.050781 -10.394531 1.96875 -10.34375 C 1.882812 -10.300781 1.789062 -10.28125 1.6875 -10.28125 C 1.539062 -10.28125 1.410156 -10.328125 1.296875 -10.421875 C 1.179688 -10.515625 1.125 -10.628906 1.125 -10.765625 C 1.125 -10.859375 1.144531 -10.945312 1.1875 -11.03125 C 1.226562 -11.125 1.296875 -11.226562 1.390625 -11.34375 C 1.617188 -11.738281 1.9375 -12.097656 2.34375 -12.421875 C 2.75 -12.753906 3.203125 -13.019531 3.703125 -13.21875 C 4.203125 -13.414062 4.691406 -13.515625 5.171875 -13.515625 C 5.984375 -13.515625 6.6875 -13.359375 7.28125 -13.046875 C 7.875 -12.734375 8.332031 -12.296875 8.65625 -11.734375 C 8.976562 -11.171875 9.140625 -10.5 9.140625 -9.71875 C 9.140625 -9.0625 8.929688 -8.34375 8.515625 -7.5625 C 8.097656 -6.78125 7.488281 -5.941406 6.6875 -5.046875 L 2.96875 -0.875 L 2.78125 -1.109375 Z M 9.015625 -1.109375 "/></g></g></g><g fill="#201f1f" fill-opacity="1"><g transform="translate(11.515285, 20.290382)"><g><path d="M 5.65625 0.1875 C 4.632812 0.1875 3.78125 -0.113281 3.09375 -0.71875 C 2.414062 -1.332031 1.90625 -2.15625 1.5625 -3.1875 C 1.21875 -4.21875 1.046875 -5.375 1.046875 -6.65625 C 1.046875 -7.957031 1.21875 -9.125 1.5625 -10.15625 C 1.90625 -11.1875 2.414062 -12.003906 3.09375 -12.609375 C 3.78125 -13.210938 4.632812 -13.515625 5.65625 -13.515625 C 6.695312 -13.515625 7.554688 -13.210938 8.234375 -12.609375 C 8.910156 -12.003906 9.421875 -11.1875 9.765625 -10.15625 C 10.109375 -9.125 10.28125 -7.957031 10.28125 -6.65625 C 10.28125 -5.375 10.109375 -4.21875 9.765625 -3.1875 C 9.421875 -2.15625 8.910156 -1.332031 8.234375 -0.71875 C 7.554688 -0.113281 6.695312 0.1875 5.65625 0.1875 Z M 5.65625 -0.984375 C 6.40625 -0.984375 7.03125 -1.21875 7.53125 -1.6875 C 8.03125 -2.15625 8.410156 -2.816406 8.671875 -3.671875 C 8.929688 -4.535156 9.0625 -5.53125 9.0625 -6.65625 C 9.0625 -7.800781 8.929688 -8.800781 8.671875 -9.65625 C 8.410156 -10.507812 8.03125 -11.171875 7.53125 -11.640625 C 7.03125 -12.109375 6.40625 -12.34375 5.65625 -12.34375 C 4.914062 -12.34375 4.296875 -12.109375 3.796875 -11.640625 C 3.296875 -11.171875 2.914062 -10.507812 2.65625 -9.65625 C 2.394531 -8.800781 2.265625 -7.800781 2.265625 -6.65625 C 2.265625 -5.53125 2.394531 -4.535156 2.65625 -3.671875 C 2.914062 -2.816406 3.296875 -2.15625 3.796875 -1.6875 C 4.296875 -1.21875 4.914062 -0.984375 5.65625 -0.984375 Z M 5.65625 -0.984375 "/></g></g></g></g></g></g><g clip-path="url(#1edfed14c5)"><g transform="matrix(1, 0, 0, 1, 631, 450)"><g clip-path="url(#a74e91aeb3)"><g fill="#201f1f" fill-opacity="1"><g transform="translate(0.799211, 20.290382)"><g><path d="M 9.015625 -1.109375 C 9.171875 -1.109375 9.300781 -1.050781 9.40625 -0.9375 C 9.519531 -0.832031 9.578125 -0.703125 9.578125 -0.546875 C 9.578125 -0.378906 9.519531 -0.242188 9.40625 -0.140625 C 9.300781 -0.046875 9.171875 0 9.015625 0 L 1.890625 0 C 1.722656 0 1.578125 -0.046875 1.453125 -0.140625 C 1.335938 -0.234375 1.28125 -0.378906 1.28125 -0.578125 C 1.28125 -0.710938 1.328125 -0.84375 1.421875 -0.96875 L 5.828125 -5.828125 C 6.523438 -6.585938 7.046875 -7.285156 7.390625 -7.921875 C 7.742188 -8.566406 7.921875 -9.144531 7.921875 -9.65625 C 7.921875 -10.488281 7.664062 -11.15625 7.15625 -11.65625 C 6.644531 -12.164062 5.957031 -12.421875 5.09375 -12.421875 C 4.707031 -12.421875 4.316406 -12.335938 3.921875 -12.171875 C 3.535156 -12.015625 3.191406 -11.800781 2.890625 -11.53125 C 2.597656 -11.269531 2.367188 -10.96875 2.203125 -10.625 C 2.128906 -10.488281 2.050781 -10.394531 1.96875 -10.34375 C 1.882812 -10.300781 1.789062 -10.28125 1.6875 -10.28125 C 1.539062 -10.28125 1.410156 -10.328125 1.296875 -10.421875 C 1.179688 -10.515625 1.125 -10.628906 1.125 -10.765625 C 1.125 -10.859375 1.144531 -10.945312 1.1875 -11.03125 C 1.226562 -11.125 1.296875 -11.226562 1.390625 -11.34375 C 1.617188 -11.738281 1.9375 -12.097656 2.34375 -12.421875 C 2.75 -12.753906 3.203125 -13.019531 3.703125 -13.21875 C 4.203125 -13.414062 4.691406 -13.515625 5.171875 -13.515625 C 5.984375 -13.515625 6.6875 -13.359375 7.28125 -13.046875 C 7.875 -12.734375 8.332031 -12.296875 8.65625 -11.734375 C 8.976562 -11.171875 9.140625 -10.5 9.140625 -9.71875 C 9.140625 -9.0625 8.929688 -8.34375 8.515625 -7.5625 C 8.097656 -6.78125 7.488281 -5.941406 6.6875 -5.046875 L 2.96875 -0.875 L 2.78125 -1.109375 Z M 9.015625 -1.109375 "/></g></g></g><g fill="#201f1f" fill-opacity="1"><g transform="translate(11.335279, 20.290382)"><g><path d="M 4.296875 0 C 4.117188 0 3.972656 -0.0546875 3.859375 -0.171875 C 3.742188 -0.285156 3.6875 -0.421875 3.6875 -0.578125 L 3.6875 -12.03125 L 3.90625 -11.84375 L 1.375 -10.140625 C 1.269531 -10.066406 1.160156 -10.03125 1.046875 -10.03125 C 0.890625 -10.03125 0.75 -10.09375 0.625 -10.21875 C 0.507812 -10.34375 0.453125 -10.484375 0.453125 -10.640625 C 0.453125 -10.835938 0.554688 -10.992188 0.765625 -11.109375 L 3.9375 -13.234375 C 4.007812 -13.273438 4.085938 -13.300781 4.171875 -13.3125 C 4.253906 -13.332031 4.328125 -13.335938 4.390625 -13.328125 C 4.554688 -13.304688 4.679688 -13.242188 4.765625 -13.140625 C 4.859375 -13.035156 4.90625 -12.90625 4.90625 -12.75 L 4.90625 -0.578125 C 4.90625 -0.421875 4.847656 -0.285156 4.734375 -0.171875 C 4.617188 -0.0546875 4.472656 0 4.296875 0 Z M 4.296875 0 "/></g></g></g></g></g></g><g clip-path="url(#3e9d4f2164)"><g transform="matrix(1, 0, 0, 1, 757, 450)"><g clip-path="url(#f027b78c1d)"><g fill="#201f1f" fill-opacity="1"><g transform="translate(0.619204, 20.290382)"><g><path d="M 9.015625 -1.109375 C 9.171875 -1.109375 9.300781 -1.050781 9.40625 -0.9375 C 9.519531 -0.832031 9.578125 -0.703125 9.578125 -0.546875 C 9.578125 -0.378906 9.519531 -0.242188 9.40625 -0.140625 C 9.300781 -0.046875 9.171875 0 9.015625 0 L 1.890625 0 C 1.722656 0 1.578125 -0.046875 1.453125 -0.140625 C 1.335938 -0.234375 1.28125 -0.378906 1.28125 -0.578125 C 1.28125 -0.710938 1.328125 -0.84375 1.421875 -0.96875 L 5.828125 -5.828125 C 6.523438 -6.585938 7.046875 -7.285156 7.390625 -7.921875 C 7.742188 -8.566406 7.921875 -9.144531 7.921875 -9.65625 C 7.921875 -10.488281 7.664062 -11.15625 7.15625 -11.65625 C 6.644531 -12.164062 5.957031 -12.421875 5.09375 -12.421875 C 4.707031 -12.421875 4.316406 -12.335938 3.921875 -12.171875 C 3.535156 -12.015625 3.191406 -11.800781 2.890625 -11.53125 C 2.597656 -11.269531 2.367188 -10.96875 2.203125 -10.625 C 2.128906 -10.488281 2.050781 -10.394531 1.96875 -10.34375 C 1.882812 -10.300781 1.789062 -10.28125 1.6875 -10.28125 C 1.539062 -10.28125 1.410156 -10.328125 1.296875 -10.421875 C 1.179688 -10.515625 1.125 -10.628906 1.125 -10.765625 C 1.125 -10.859375 1.144531 -10.945312 1.1875 -11.03125 C 1.226562 -11.125 1.296875 -11.226562 1.390625 -11.34375 C 1.617188 -11.738281 1.9375 -12.097656 2.34375 -12.421875 C 2.75 -12.753906 3.203125 -13.019531 3.703125 -13.21875 C 4.203125 -13.414062 4.691406 -13.515625 5.171875 -13.515625 C 5.984375 -13.515625 6.6875 -13.359375 7.28125 -13.046875 C 7.875 -12.734375 8.332031 -12.296875 8.65625 -11.734375 C 8.976562 -11.171875 9.140625 -10.5 9.140625 -9.71875 C 9.140625 -9.0625 8.929688 -8.34375 8.515625 -7.5625 C 8.097656 -6.78125 7.488281 -5.941406 6.6875 -5.046875 L 2.96875 -0.875 L 2.78125 -1.109375 Z M 9.015625 -1.109375 "/></g></g></g><g fill="#201f1f" fill-opacity="1"><g transform="translate(11.155273, 20.290382)"><g><path d="M 9.015625 -1.109375 C 9.171875 -1.109375 9.300781 -1.050781 9.40625 -0.9375 C 9.519531 -0.832031 9.578125 -0.703125 9.578125 -0.546875 C 9.578125 -0.378906 9.519531 -0.242188 9.40625 -0.140625 C 9.300781 -0.046875 9.171875 0 9.015625 0 L 1.890625 0 C 1.722656 0 1.578125 -0.046875 1.453125 -0.140625 C 1.335938 -0.234375 1.28125 -0.378906 1.28125 -0.578125 C 1.28125 -0.710938 1.328125 -0.84375 1.421875 -0.96875 L 5.828125 -5.828125 C 6.523438 -6.585938 7.046875 -7.285156 7.390625 -7.921875 C 7.742188 -8.566406 7.921875 -9.144531 7.921875 -9.65625 C 7.921875 -10.488281 7.664062 -11.15625 7.15625 -11.65625 C 6.644531 -12.164062 5.957031 -12.421875 5.09375 -12.421875 C 4.707031 -12.421875 4.316406 -12.335938 3.921875 -12.171875 C 3.535156 -12.015625 3.191406 -11.800781 2.890625 -11.53125 C 2.597656 -11.269531 2.367188 -10.96875 2.203125 -10.625 C 2.128906 -10.488281 2.050781 -10.394531 1.96875 -10.34375 C 1.882812 -10.300781 1.789062 -10.28125 1.6875 -10.28125 C 1.539062 -10.28125 1.410156 -10.328125 1.296875 -10.421875 C 1.179688 -10.515625 1.125 -10.628906 1.125 -10.765625 C 1.125 -10.859375 1.144531 -10.945312 1.1875 -11.03125 C 1.226562 -11.125 1.296875 -11.226562 1.390625 -11.34375 C 1.617188 -11.738281 1.9375 -12.097656 2.34375 -12.421875 C 2.75 -12.753906 3.203125 -13.019531 3.703125 -13.21875 C 4.203125 -13.414062 4.691406 -13.515625 5.171875 -13.515625 C 5.984375 -13.515625 6.6875 -13.359375 7.28125 -13.046875 C 7.875 -12.734375 8.332031 -12.296875 8.65625 -11.734375 C 8.976562 -11.171875 9.140625 -10.5 9.140625 -9.71875 C 9.140625 -9.0625 8.929688 -8.34375 8.515625 -7.5625 C 8.097656 -6.78125 7.488281 -5.941406 6.6875 -5.046875 L 2.96875 -0.875 L 2.78125 -1.109375 Z M 9.015625 -1.109375 "/></g></g></g></g></g></g><g clip-path="url(#276a44ff90)"><g transform="matrix(1, 0, 0, 1, 2, 600)"><g clip-path="url(#67ce6ed9f3)"><g fill="#201f1f" fill-opacity="1"><g transform="translate(0.699179, 20.050374)"><g><path d="M 9.015625 -1.109375 C 9.171875 -1.109375 9.300781 -1.050781 9.40625 -0.9375 C 9.519531 -0.832031 9.578125 -0.703125 9.578125 -0.546875 C 9.578125 -0.378906 9.519531 -0.242188 9.40625 -0.140625 C 9.300781 -0.046875 9.171875 0 9.015625 0 L 1.890625 0 C 1.722656 0 1.578125 -0.046875 1.453125 -0.140625 C 1.335938 -0.234375 1.28125 -0.378906 1.28125 -0.578125 C 1.28125 -0.710938 1.328125 -0.84375 1.421875 -0.96875 L 5.828125 -5.828125 C 6.523438 -6.585938 7.046875 -7.285156 7.390625 -7.921875 C 7.742188 -8.566406 7.921875 -9.144531 7.921875 -9.65625 C 7.921875 -10.488281 7.664062 -11.15625 7.15625 -11.65625 C 6.644531 -12.164062 5.957031 -12.421875 5.09375 -12.421875 C 4.707031 -12.421875 4.316406 -12.335938 3.921875 -12.171875 C 3.535156 -12.015625 3.191406 -11.800781 2.890625 -11.53125 C 2.597656 -11.269531 2.367188 -10.96875 2.203125 -10.625 C 2.128906 -10.488281 2.050781 -10.394531 1.96875 -10.34375 C 1.882812 -10.300781 1.789062 -10.28125 1.6875 -10.28125 C 1.539062 -10.28125 1.410156 -10.328125 1.296875 -10.421875 C 1.179688 -10.515625 1.125 -10.628906 1.125 -10.765625 C 1.125 -10.859375 1.144531 -10.945312 1.1875 -11.03125 C 1.226562 -11.125 1.296875 -11.226562 1.390625 -11.34375 C 1.617188 -11.738281 1.9375 -12.097656 2.34375 -12.421875 C 2.75 -12.753906 3.203125 -13.019531 3.703125 -13.21875 C 4.203125 -13.414062 4.691406 -13.515625 5.171875 -13.515625 C 5.984375 -13.515625 6.6875 -13.359375 7.28125 -13.046875 C 7.875 -12.734375 8.332031 -12.296875 8.65625 -11.734375 C 8.976562 -11.171875 9.140625 -10.5 9.140625 -9.71875 C 9.140625 -9.0625 8.929688 -8.34375 8.515625 -7.5625 C 8.097656 -6.78125 7.488281 -5.941406 6.6875 -5.046875 L 2.96875 -0.875 L 2.78125 -1.109375 Z M 9.015625 -1.109375 "/></g></g></g><g fill="#201f1f" fill-opacity="1"><g transform="translate(11.235248, 20.050374)"><g><path d="M 1.6875 -1.953125 C 1.75 -1.953125 1.816406 -1.941406 1.890625 -1.921875 C 1.960938 -1.898438 2.050781 -1.84375 2.15625 -1.75 C 2.414062 -1.46875 2.726562 -1.253906 3.09375 -1.109375 C 3.46875 -0.960938 3.890625 -0.890625 4.359375 -0.890625 C 4.984375 -0.890625 5.550781 -1.03125 6.0625 -1.3125 C 6.570312 -1.59375 6.976562 -1.984375 7.28125 -2.484375 C 7.59375 -2.984375 7.75 -3.554688 7.75 -4.203125 C 7.75 -4.941406 7.585938 -5.535156 7.265625 -5.984375 C 6.941406 -6.429688 6.523438 -6.765625 6.015625 -6.984375 C 5.515625 -7.210938 5.003906 -7.328125 4.484375 -7.328125 C 4.347656 -7.328125 4.210938 -7.316406 4.078125 -7.296875 C 3.941406 -7.273438 3.816406 -7.25 3.703125 -7.21875 C 3.597656 -7.195312 3.507812 -7.1875 3.4375 -7.1875 C 3.28125 -7.1875 3.15625 -7.238281 3.0625 -7.34375 C 2.976562 -7.457031 2.9375 -7.597656 2.9375 -7.765625 C 2.9375 -7.847656 2.953125 -7.925781 2.984375 -8 C 3.023438 -8.070312 3.078125 -8.148438 3.140625 -8.234375 L 7 -12.453125 L 7.234375 -12.140625 L 1.46875 -12.140625 C 1.3125 -12.140625 1.175781 -12.191406 1.0625 -12.296875 C 0.957031 -12.410156 0.90625 -12.539062 0.90625 -12.6875 C 0.90625 -12.84375 0.957031 -12.972656 1.0625 -13.078125 C 1.175781 -13.179688 1.3125 -13.234375 1.46875 -13.234375 L 7.859375 -13.234375 C 8.078125 -13.234375 8.226562 -13.164062 8.3125 -13.03125 C 8.40625 -12.894531 8.453125 -12.765625 8.453125 -12.640625 C 8.453125 -12.554688 8.429688 -12.476562 8.390625 -12.40625 C 8.347656 -12.34375 8.296875 -12.273438 8.234375 -12.203125 L 4.375 -8 L 3.953125 -8.234375 C 3.992188 -8.273438 4.125 -8.316406 4.34375 -8.359375 C 4.570312 -8.410156 4.75 -8.4375 4.875 -8.4375 C 5.570312 -8.4375 6.226562 -8.269531 6.84375 -7.9375 C 7.457031 -7.601562 7.957031 -7.128906 8.34375 -6.515625 C 8.726562 -5.898438 8.921875 -5.144531 8.921875 -4.25 C 8.921875 -3.351562 8.710938 -2.570312 8.296875 -1.90625 C 7.878906 -1.238281 7.3125 -0.722656 6.59375 -0.359375 C 5.882812 0.00390625 5.101562 0.1875 4.25 0.1875 C 3.726562 0.1875 3.210938 0.0976562 2.703125 -0.078125 C 2.191406 -0.253906 1.75 -0.519531 1.375 -0.875 C 1.28125 -0.945312 1.210938 -1.019531 1.171875 -1.09375 C 1.140625 -1.175781 1.125 -1.253906 1.125 -1.328125 C 1.125 -1.484375 1.175781 -1.625 1.28125 -1.75 C 1.394531 -1.882812 1.53125 -1.953125 1.6875 -1.953125 Z M 1.6875 -1.953125 "/></g></g></g></g></g></g><g clip-path="url(#1127c1433e)"><g transform="matrix(1, 0, 0, 1, 128, 600)"><g clip-path="url(#23b59d1948)"><g fill="#201f1f" fill-opacity="1"><g transform="translate(0.519191, 20.050374)"><g><path d="M 9.015625 -1.109375 C 9.171875 -1.109375 9.300781 -1.050781 9.40625 -0.9375 C 9.519531 -0.832031 9.578125 -0.703125 9.578125 -0.546875 C 9.578125 -0.378906 9.519531 -0.242188 9.40625 -0.140625 C 9.300781 -0.046875 9.171875 0 9.015625 0 L 1.890625 0 C 1.722656 0 1.578125 -0.046875 1.453125 -0.140625 C 1.335938 -0.234375 1.28125 -0.378906 1.28125 -0.578125 C 1.28125 -0.710938 1.328125 -0.84375 1.421875 -0.96875 L 5.828125 -5.828125 C 6.523438 -6.585938 7.046875 -7.285156 7.390625 -7.921875 C 7.742188 -8.566406 7.921875 -9.144531 7.921875 -9.65625 C 7.921875 -10.488281 7.664062 -11.15625 7.15625 -11.65625 C 6.644531 -12.164062 5.957031 -12.421875 5.09375 -12.421875 C 4.707031 -12.421875 4.316406 -12.335938 3.921875 -12.171875 C 3.535156 -12.015625 3.191406 -11.800781 2.890625 -11.53125 C 2.597656 -11.269531 2.367188 -10.96875 2.203125 -10.625 C 2.128906 -10.488281 2.050781 -10.394531 1.96875 -10.34375 C 1.882812 -10.300781 1.789062 -10.28125 1.6875 -10.28125 C 1.539062 -10.28125 1.410156 -10.328125 1.296875 -10.421875 C 1.179688 -10.515625 1.125 -10.628906 1.125 -10.765625 C 1.125 -10.859375 1.144531 -10.945312 1.1875 -11.03125 C 1.226562 -11.125 1.296875 -11.226562 1.390625 -11.34375 C 1.617188 -11.738281 1.9375 -12.097656 2.34375 -12.421875 C 2.75 -12.753906 3.203125 -13.019531 3.703125 -13.21875 C 4.203125 -13.414062 4.691406 -13.515625 5.171875 -13.515625 C 5.984375 -13.515625 6.6875 -13.359375 7.28125 -13.046875 C 7.875 -12.734375 8.332031 -12.296875 8.65625 -11.734375 C 8.976562 -11.171875 9.140625 -10.5 9.140625 -9.71875 C 9.140625 -9.0625 8.929688 -8.34375 8.515625 -7.5625 C 8.097656 -6.78125 7.488281 -5.941406 6.6875 -5.046875 L 2.96875 -0.875 L 2.78125 -1.109375 Z M 9.015625 -1.109375 "/></g></g></g><g fill="#201f1f" fill-opacity="1"><g transform="translate(11.055259, 20.050374)"><g><path d="M 6.984375 0 C 6.816406 0 6.679688 -0.0546875 6.578125 -0.171875 C 6.484375 -0.285156 6.4375 -0.421875 6.4375 -0.578125 L 6.4375 -11.75 L 6.6875 -11.59375 L 1.671875 -4.96875 L 1.625 -5.171875 L 8.921875 -5.171875 C 9.078125 -5.171875 9.207031 -5.117188 9.3125 -5.015625 C 9.425781 -4.921875 9.484375 -4.796875 9.484375 -4.640625 C 9.484375 -4.492188 9.425781 -4.367188 9.3125 -4.265625 C 9.207031 -4.160156 9.078125 -4.109375 8.921875 -4.109375 L 0.84375 -4.109375 C 0.6875 -4.109375 0.550781 -4.164062 0.4375 -4.28125 C 0.320312 -4.40625 0.265625 -4.546875 0.265625 -4.703125 C 0.265625 -4.835938 0.3125 -4.960938 0.40625 -5.078125 L 6.53125 -13.09375 C 6.59375 -13.1875 6.671875 -13.25 6.765625 -13.28125 C 6.859375 -13.3125 6.9375 -13.328125 7 -13.328125 C 7.164062 -13.328125 7.300781 -13.269531 7.40625 -13.15625 C 7.519531 -13.039062 7.578125 -12.90625 7.578125 -12.75 L 7.578125 -0.578125 C 7.578125 -0.421875 7.519531 -0.285156 7.40625 -0.171875 C 7.289062 -0.0546875 7.148438 0 6.984375 0 Z M 6.984375 0 "/></g></g></g></g></g></g><g clip-path="url(#3defca8b96)"><g transform="matrix(1, 0, 0, 1, 254, 600)"><g clip-path="url(#1259f30adb)"><g fill="#201f1f" fill-opacity="1"><g transform="translate(0.3392, 20.050374)"><g><path d="M 9.015625 -1.109375 C 9.171875 -1.109375 9.300781 -1.050781 9.40625 -0.9375 C 9.519531 -0.832031 9.578125 -0.703125 9.578125 -0.546875 C 9.578125 -0.378906 9.519531 -0.242188 9.40625 -0.140625 C 9.300781 -0.046875 9.171875 0 9.015625 0 L 1.890625 0 C 1.722656 0 1.578125 -0.046875 1.453125 -0.140625 C 1.335938 -0.234375 1.28125 -0.378906 1.28125 -0.578125 C 1.28125 -0.710938 1.328125 -0.84375 1.421875 -0.96875 L 5.828125 -5.828125 C 6.523438 -6.585938 7.046875 -7.285156 7.390625 -7.921875 C 7.742188 -8.566406 7.921875 -9.144531 7.921875 -9.65625 C 7.921875 -10.488281 7.664062 -11.15625 7.15625 -11.65625 C 6.644531 -12.164062 5.957031 -12.421875 5.09375 -12.421875 C 4.707031 -12.421875 4.316406 -12.335938 3.921875 -12.171875 C 3.535156 -12.015625 3.191406 -11.800781 2.890625 -11.53125 C 2.597656 -11.269531 2.367188 -10.96875 2.203125 -10.625 C 2.128906 -10.488281 2.050781 -10.394531 1.96875 -10.34375 C 1.882812 -10.300781 1.789062 -10.28125 1.6875 -10.28125 C 1.539062 -10.28125 1.410156 -10.328125 1.296875 -10.421875 C 1.179688 -10.515625 1.125 -10.628906 1.125 -10.765625 C 1.125 -10.859375 1.144531 -10.945312 1.1875 -11.03125 C 1.226562 -11.125 1.296875 -11.226562 1.390625 -11.34375 C 1.617188 -11.738281 1.9375 -12.097656 2.34375 -12.421875 C 2.75 -12.753906 3.203125 -13.019531 3.703125 -13.21875 C 4.203125 -13.414062 4.691406 -13.515625 5.171875 -13.515625 C 5.984375 -13.515625 6.6875 -13.359375 7.28125 -13.046875 C 7.875 -12.734375 8.332031 -12.296875 8.65625 -11.734375 C 8.976562 -11.171875 9.140625 -10.5 9.140625 -9.71875 C 9.140625 -9.0625 8.929688 -8.34375 8.515625 -7.5625 C 8.097656 -6.78125 7.488281 -5.941406 6.6875 -5.046875 L 2.96875 -0.875 L 2.78125 -1.109375 Z M 9.015625 -1.109375 "/></g></g></g><g fill="#201f1f" fill-opacity="1"><g transform="translate(10.875268, 20.050374)"><g><path d="M 4.453125 0.03125 C 3.929688 0.03125 3.40625 -0.0507812 2.875 -0.21875 C 2.351562 -0.382812 1.890625 -0.640625 1.484375 -0.984375 C 1.410156 -1.046875 1.347656 -1.117188 1.296875 -1.203125 C 1.253906 -1.296875 1.234375 -1.390625 1.234375 -1.484375 C 1.234375 -1.609375 1.285156 -1.726562 1.390625 -1.84375 C 1.492188 -1.96875 1.625 -2.03125 1.78125 -2.03125 C 1.925781 -2.03125 2.066406 -1.972656 2.203125 -1.859375 C 2.535156 -1.609375 2.894531 -1.410156 3.28125 -1.265625 C 3.664062 -1.128906 4.054688 -1.0625 4.453125 -1.0625 C 5.203125 -1.0625 5.851562 -1.203125 6.40625 -1.484375 C 6.96875 -1.773438 7.398438 -2.179688 7.703125 -2.703125 C 8.015625 -3.234375 8.171875 -3.847656 8.171875 -4.546875 C 8.171875 -5.191406 8.03125 -5.753906 7.75 -6.234375 C 7.46875 -6.710938 7.066406 -7.085938 6.546875 -7.359375 C 6.035156 -7.628906 5.429688 -7.765625 4.734375 -7.765625 C 4.273438 -7.765625 3.859375 -7.691406 3.484375 -7.546875 C 3.117188 -7.410156 2.796875 -7.269531 2.515625 -7.125 C 2.242188 -6.976562 2.023438 -6.90625 1.859375 -6.90625 C 1.710938 -6.90625 1.585938 -6.941406 1.484375 -7.015625 C 1.390625 -7.097656 1.328125 -7.195312 1.296875 -7.3125 C 1.265625 -7.425781 1.265625 -7.546875 1.296875 -7.671875 L 2.109375 -12.75 C 2.117188 -12.863281 2.175781 -12.96875 2.28125 -13.0625 C 2.394531 -13.15625 2.535156 -13.203125 2.703125 -13.203125 L 8.4375 -13.203125 C 8.582031 -13.203125 8.707031 -13.148438 8.8125 -13.046875 C 8.925781 -12.941406 8.984375 -12.8125 8.984375 -12.65625 C 8.984375 -12.488281 8.925781 -12.347656 8.8125 -12.234375 C 8.707031 -12.128906 8.582031 -12.078125 8.4375 -12.078125 L 2.96875 -12.078125 L 3.140625 -12.25 L 2.359375 -7.75 L 2.015625 -8 C 2.179688 -8.125 2.421875 -8.25 2.734375 -8.375 C 3.046875 -8.5 3.394531 -8.609375 3.78125 -8.703125 C 4.164062 -8.796875 4.570312 -8.84375 5 -8.84375 C 5.832031 -8.84375 6.570312 -8.660156 7.21875 -8.296875 C 7.863281 -7.941406 8.375 -7.441406 8.75 -6.796875 C 9.125 -6.160156 9.3125 -5.425781 9.3125 -4.59375 C 9.3125 -3.664062 9.109375 -2.851562 8.703125 -2.15625 C 8.304688 -1.46875 7.742188 -0.929688 7.015625 -0.546875 C 6.296875 -0.160156 5.441406 0.03125 4.453125 0.03125 Z M 4.453125 0.03125 "/></g></g></g></g></g></g><g clip-path="url(#34c55bf7b8)"><g transform="matrix(1, 0, 0, 1, 379, 600)"><g clip-path="url(#54859f3850)"><g fill="#201f1f" fill-opacity="1"><g transform="translate(1.159194, 20.050374)"><g><path d="M 9.015625 -1.109375 C 9.171875 -1.109375 9.300781 -1.050781 9.40625 -0.9375 C 9.519531 -0.832031 9.578125 -0.703125 9.578125 -0.546875 C 9.578125 -0.378906 9.519531 -0.242188 9.40625 -0.140625 C 9.300781 -0.046875 9.171875 0 9.015625 0 L 1.890625 0 C 1.722656 0 1.578125 -0.046875 1.453125 -0.140625 C 1.335938 -0.234375 1.28125 -0.378906 1.28125 -0.578125 C 1.28125 -0.710938 1.328125 -0.84375 1.421875 -0.96875 L 5.828125 -5.828125 C 6.523438 -6.585938 7.046875 -7.285156 7.390625 -7.921875 C 7.742188 -8.566406 7.921875 -9.144531 7.921875 -9.65625 C 7.921875 -10.488281 7.664062 -11.15625 7.15625 -11.65625 C 6.644531 -12.164062 5.957031 -12.421875 5.09375 -12.421875 C 4.707031 -12.421875 4.316406 -12.335938 3.921875 -12.171875 C 3.535156 -12.015625 3.191406 -11.800781 2.890625 -11.53125 C 2.597656 -11.269531 2.367188 -10.96875 2.203125 -10.625 C 2.128906 -10.488281 2.050781 -10.394531 1.96875 -10.34375 C 1.882812 -10.300781 1.789062 -10.28125 1.6875 -10.28125 C 1.539062 -10.28125 1.410156 -10.328125 1.296875 -10.421875 C 1.179688 -10.515625 1.125 -10.628906 1.125 -10.765625 C 1.125 -10.859375 1.144531 -10.945312 1.1875 -11.03125 C 1.226562 -11.125 1.296875 -11.226562 1.390625 -11.34375 C 1.617188 -11.738281 1.9375 -12.097656 2.34375 -12.421875 C 2.75 -12.753906 3.203125 -13.019531 3.703125 -13.21875 C 4.203125 -13.414062 4.691406 -13.515625 5.171875 -13.515625 C 5.984375 -13.515625 6.6875 -13.359375 7.28125 -13.046875 C 7.875 -12.734375 8.332031 -12.296875 8.65625 -11.734375 C 8.976562 -11.171875 9.140625 -10.5 9.140625 -9.71875 C 9.140625 -9.0625 8.929688 -8.34375 8.515625 -7.5625 C 8.097656 -6.78125 7.488281 -5.941406 6.6875 -5.046875 L 2.96875 -0.875 L 2.78125 -1.109375 Z M 9.015625 -1.109375 "/></g></g></g><g fill="#201f1f" fill-opacity="1"><g transform="translate(11.695262, 20.050374)"><g><path d="M 5.46875 0.1875 C 4.726562 0.1875 4.082031 0.0546875 3.53125 -0.203125 C 2.976562 -0.472656 2.519531 -0.832031 2.15625 -1.28125 C 1.800781 -1.726562 1.535156 -2.238281 1.359375 -2.8125 C 1.191406 -3.382812 1.109375 -3.96875 1.109375 -4.5625 C 1.109375 -5.175781 1.179688 -5.832031 1.328125 -6.53125 C 1.484375 -7.238281 1.71875 -7.953125 2.03125 -8.671875 C 2.351562 -9.398438 2.742188 -10.085938 3.203125 -10.734375 C 3.671875 -11.378906 4.210938 -11.957031 4.828125 -12.46875 C 5.441406 -12.988281 6.132812 -13.394531 6.90625 -13.6875 C 7 -13.707031 7.078125 -13.71875 7.140625 -13.71875 C 7.304688 -13.71875 7.445312 -13.671875 7.5625 -13.578125 C 7.6875 -13.492188 7.75 -13.34375 7.75 -13.125 C 7.75 -13 7.707031 -12.890625 7.625 -12.796875 C 7.539062 -12.703125 7.425781 -12.628906 7.28125 -12.578125 C 6.75 -12.347656 6.222656 -12.023438 5.703125 -11.609375 C 5.179688 -11.191406 4.695312 -10.707031 4.25 -10.15625 C 3.8125 -9.613281 3.4375 -9.023438 3.125 -8.390625 C 2.820312 -7.765625 2.601562 -7.128906 2.46875 -6.484375 L 2.0625 -6.25 C 2.28125 -6.664062 2.570312 -7.035156 2.9375 -7.359375 C 3.300781 -7.679688 3.71875 -7.941406 4.1875 -8.140625 C 4.65625 -8.335938 5.160156 -8.4375 5.703125 -8.4375 C 6.273438 -8.4375 6.800781 -8.3125 7.28125 -8.0625 C 7.769531 -7.820312 8.1875 -7.492188 8.53125 -7.078125 C 8.882812 -6.671875 9.160156 -6.207031 9.359375 -5.6875 C 9.554688 -5.164062 9.65625 -4.628906 9.65625 -4.078125 C 9.65625 -3.328125 9.472656 -2.628906 9.109375 -1.984375 C 8.742188 -1.335938 8.25 -0.8125 7.625 -0.40625 C 7 -0.0078125 6.28125 0.1875 5.46875 0.1875 Z M 5.4375 -0.90625 C 6.019531 -0.90625 6.539062 -1.039062 7 -1.3125 C 7.457031 -1.582031 7.816406 -1.953125 8.078125 -2.421875 C 8.335938 -2.898438 8.46875 -3.453125 8.46875 -4.078125 C 8.46875 -4.640625 8.351562 -5.164062 8.125 -5.65625 C 7.90625 -6.144531 7.578125 -6.546875 7.140625 -6.859375 C 6.703125 -7.171875 6.160156 -7.328125 5.515625 -7.328125 C 4.847656 -7.328125 4.269531 -7.171875 3.78125 -6.859375 C 3.289062 -6.554688 2.914062 -6.15625 2.65625 -5.65625 C 2.394531 -5.15625 2.265625 -4.609375 2.265625 -4.015625 C 2.265625 -3.484375 2.390625 -2.976562 2.640625 -2.5 C 2.898438 -2.019531 3.265625 -1.632812 3.734375 -1.34375 C 4.210938 -1.050781 4.78125 -0.90625 5.4375 -0.90625 Z M 5.4375 -0.90625 "/></g></g></g></g></g></g><g clip-path="url(#7991ac8479)"><g transform="matrix(1, 0, 0, 1, 505, 600)"><g clip-path="url(#eb9138f15d)"><g fill="#201f1f" fill-opacity="1"><g transform="translate(0.979217, 20.050374)"><g><path d="M 9.015625 -1.109375 C 9.171875 -1.109375 9.300781 -1.050781 9.40625 -0.9375 C 9.519531 -0.832031 9.578125 -0.703125 9.578125 -0.546875 C 9.578125 -0.378906 9.519531 -0.242188 9.40625 -0.140625 C 9.300781 -0.046875 9.171875 0 9.015625 0 L 1.890625 0 C 1.722656 0 1.578125 -0.046875 1.453125 -0.140625 C 1.335938 -0.234375 1.28125 -0.378906 1.28125 -0.578125 C 1.28125 -0.710938 1.328125 -0.84375 1.421875 -0.96875 L 5.828125 -5.828125 C 6.523438 -6.585938 7.046875 -7.285156 7.390625 -7.921875 C 7.742188 -8.566406 7.921875 -9.144531 7.921875 -9.65625 C 7.921875 -10.488281 7.664062 -11.15625 7.15625 -11.65625 C 6.644531 -12.164062 5.957031 -12.421875 5.09375 -12.421875 C 4.707031 -12.421875 4.316406 -12.335938 3.921875 -12.171875 C 3.535156 -12.015625 3.191406 -11.800781 2.890625 -11.53125 C 2.597656 -11.269531 2.367188 -10.96875 2.203125 -10.625 C 2.128906 -10.488281 2.050781 -10.394531 1.96875 -10.34375 C 1.882812 -10.300781 1.789062 -10.28125 1.6875 -10.28125 C 1.539062 -10.28125 1.410156 -10.328125 1.296875 -10.421875 C 1.179688 -10.515625 1.125 -10.628906 1.125 -10.765625 C 1.125 -10.859375 1.144531 -10.945312 1.1875 -11.03125 C 1.226562 -11.125 1.296875 -11.226562 1.390625 -11.34375 C 1.617188 -11.738281 1.9375 -12.097656 2.34375 -12.421875 C 2.75 -12.753906 3.203125 -13.019531 3.703125 -13.21875 C 4.203125 -13.414062 4.691406 -13.515625 5.171875 -13.515625 C 5.984375 -13.515625 6.6875 -13.359375 7.28125 -13.046875 C 7.875 -12.734375 8.332031 -12.296875 8.65625 -11.734375 C 8.976562 -11.171875 9.140625 -10.5 9.140625 -9.71875 C 9.140625 -9.0625 8.929688 -8.34375 8.515625 -7.5625 C 8.097656 -6.78125 7.488281 -5.941406 6.6875 -5.046875 L 2.96875 -0.875 L 2.78125 -1.109375 Z M 9.015625 -1.109375 "/></g></g></g><g fill="#201f1f" fill-opacity="1"><g transform="translate(11.515285, 20.050374)"><g><path d="M 3.390625 0.0625 C 3.234375 0.0625 3.09375 0.0078125 2.96875 -0.09375 C 2.84375 -0.195312 2.78125 -0.320312 2.78125 -0.46875 C 2.78125 -0.5625 2.796875 -0.660156 2.828125 -0.765625 L 7.890625 -12.390625 L 8.109375 -12.125 L 1.671875 -12.125 C 1.523438 -12.125 1.394531 -12.175781 1.28125 -12.28125 C 1.175781 -12.394531 1.125 -12.523438 1.125 -12.671875 C 1.125 -12.835938 1.175781 -12.972656 1.28125 -13.078125 C 1.394531 -13.179688 1.523438 -13.234375 1.671875 -13.234375 L 8.65625 -13.234375 C 8.84375 -13.234375 8.984375 -13.179688 9.078125 -13.078125 C 9.171875 -12.972656 9.21875 -12.84375 9.21875 -12.6875 C 9.21875 -12.59375 9.195312 -12.5 9.15625 -12.40625 L 3.921875 -0.328125 C 3.878906 -0.210938 3.804688 -0.117188 3.703125 -0.046875 C 3.609375 0.0234375 3.503906 0.0625 3.390625 0.0625 Z M 3.390625 0.0625 "/></g></g></g></g></g></g><g clip-path="url(#c9572416ea)"><g transform="matrix(1, 0, 0, 1, 631, 600)"><g clip-path="url(#42312576ca)"><g fill="#201f1f" fill-opacity="1"><g transform="translate(0.799211, 20.050374)"><g><path d="M 9.015625 -1.109375 C 9.171875 -1.109375 9.300781 -1.050781 9.40625 -0.9375 C 9.519531 -0.832031 9.578125 -0.703125 9.578125 -0.546875 C 9.578125 -0.378906 9.519531 -0.242188 9.40625 -0.140625 C 9.300781 -0.046875 9.171875 0 9.015625 0 L 1.890625 0 C 1.722656 0 1.578125 -0.046875 1.453125 -0.140625 C 1.335938 -0.234375 1.28125 -0.378906 1.28125 -0.578125 C 1.28125 -0.710938 1.328125 -0.84375 1.421875 -0.96875 L 5.828125 -5.828125 C 6.523438 -6.585938 7.046875 -7.285156 7.390625 -7.921875 C 7.742188 -8.566406 7.921875 -9.144531 7.921875 -9.65625 C 7.921875 -10.488281 7.664062 -11.15625 7.15625 -11.65625 C 6.644531 -12.164062 5.957031 -12.421875 5.09375 -12.421875 C 4.707031 -12.421875 4.316406 -12.335938 3.921875 -12.171875 C 3.535156 -12.015625 3.191406 -11.800781 2.890625 -11.53125 C 2.597656 -11.269531 2.367188 -10.96875 2.203125 -10.625 C 2.128906 -10.488281 2.050781 -10.394531 1.96875 -10.34375 C 1.882812 -10.300781 1.789062 -10.28125 1.6875 -10.28125 C 1.539062 -10.28125 1.410156 -10.328125 1.296875 -10.421875 C 1.179688 -10.515625 1.125 -10.628906 1.125 -10.765625 C 1.125 -10.859375 1.144531 -10.945312 1.1875 -11.03125 C 1.226562 -11.125 1.296875 -11.226562 1.390625 -11.34375 C 1.617188 -11.738281 1.9375 -12.097656 2.34375 -12.421875 C 2.75 -12.753906 3.203125 -13.019531 3.703125 -13.21875 C 4.203125 -13.414062 4.691406 -13.515625 5.171875 -13.515625 C 5.984375 -13.515625 6.6875 -13.359375 7.28125 -13.046875 C 7.875 -12.734375 8.332031 -12.296875 8.65625 -11.734375 C 8.976562 -11.171875 9.140625 -10.5 9.140625 -9.71875 C 9.140625 -9.0625 8.929688 -8.34375 8.515625 -7.5625 C 8.097656 -6.78125 7.488281 -5.941406 6.6875 -5.046875 L 2.96875 -0.875 L 2.78125 -1.109375 Z M 9.015625 -1.109375 "/></g></g></g><g fill="#201f1f" fill-opacity="1"><g transform="translate(11.335279, 20.050374)"><g><path d="M 6.921875 -6.703125 L 6.875 -6.875 C 7.300781 -6.707031 7.691406 -6.460938 8.046875 -6.140625 C 8.398438 -5.816406 8.6875 -5.4375 8.90625 -5 C 9.125 -4.5625 9.234375 -4.082031 9.234375 -3.5625 C 9.234375 -2.875 9.050781 -2.25 8.6875 -1.6875 C 8.320312 -1.132812 7.828125 -0.691406 7.203125 -0.359375 C 6.585938 -0.0234375 5.898438 0.140625 5.140625 0.140625 C 4.367188 0.140625 3.671875 -0.0234375 3.046875 -0.359375 C 2.429688 -0.691406 1.941406 -1.132812 1.578125 -1.6875 C 1.222656 -2.25 1.046875 -2.875 1.046875 -3.5625 C 1.046875 -4.113281 1.15625 -4.609375 1.375 -5.046875 C 1.601562 -5.484375 1.894531 -5.851562 2.25 -6.15625 C 2.613281 -6.46875 2.992188 -6.707031 3.390625 -6.875 L 3.328125 -6.6875 C 2.984375 -6.84375 2.660156 -7.0625 2.359375 -7.34375 C 2.066406 -7.632812 1.820312 -7.976562 1.625 -8.375 C 1.4375 -8.78125 1.34375 -9.222656 1.34375 -9.703125 C 1.34375 -10.390625 1.507812 -11.003906 1.84375 -11.546875 C 2.1875 -12.097656 2.644531 -12.53125 3.21875 -12.84375 C 3.800781 -13.164062 4.441406 -13.328125 5.140625 -13.328125 C 5.835938 -13.328125 6.46875 -13.164062 7.03125 -12.84375 C 7.59375 -12.53125 8.039062 -12.097656 8.375 -11.546875 C 8.71875 -11.003906 8.890625 -10.390625 8.890625 -9.703125 C 8.890625 -9.210938 8.789062 -8.769531 8.59375 -8.375 C 8.40625 -7.976562 8.160156 -7.632812 7.859375 -7.34375 C 7.554688 -7.0625 7.242188 -6.847656 6.921875 -6.703125 Z M 2.53125 -9.703125 C 2.53125 -9.191406 2.648438 -8.742188 2.890625 -8.359375 C 3.128906 -7.984375 3.445312 -7.6875 3.84375 -7.46875 C 4.238281 -7.257812 4.671875 -7.15625 5.140625 -7.15625 C 5.597656 -7.15625 6.019531 -7.257812 6.40625 -7.46875 C 6.800781 -7.6875 7.113281 -7.984375 7.34375 -8.359375 C 7.582031 -8.742188 7.703125 -9.191406 7.703125 -9.703125 C 7.703125 -10.453125 7.460938 -11.0625 6.984375 -11.53125 C 6.503906 -12 5.890625 -12.234375 5.140625 -12.234375 C 4.367188 -12.234375 3.738281 -12 3.25 -11.53125 C 2.769531 -11.0625 2.53125 -10.453125 2.53125 -9.703125 Z M 5.140625 -0.953125 C 6.003906 -0.953125 6.703125 -1.195312 7.234375 -1.6875 C 7.773438 -2.1875 8.046875 -2.8125 8.046875 -3.5625 C 8.046875 -4.0625 7.910156 -4.515625 7.640625 -4.921875 C 7.378906 -5.328125 7.023438 -5.644531 6.578125 -5.875 C 6.140625 -6.101562 5.660156 -6.21875 5.140625 -6.21875 C 4.617188 -6.21875 4.132812 -6.101562 3.6875 -5.875 C 3.25 -5.644531 2.894531 -5.328125 2.625 -4.921875 C 2.363281 -4.515625 2.234375 -4.0625 2.234375 -3.5625 C 2.234375 -2.8125 2.5 -2.1875 3.03125 -1.6875 C 3.5625 -1.195312 4.265625 -0.953125 5.140625 -0.953125 Z M 5.140625 -0.953125 "/></g></g></g></g></g></g><path stroke-linecap="butt" transform="matrix(0.75, 0, 0, 0.75, 0.0000031164, 0.00002)" fill-opacity="1" fill="#000000" fill-rule="nonzero" stroke-linejoin="miter" d="M 0.796871 1.598932 L 0.796871 998.401064 M 168.557296 1.598932 L 168.557296 998.401064 M 336.317721 1.598932 L 336.317721 998.401064 M 504.078145 1.598932 L 504.078145 998.401064 M 671.83857 1.598932 L 671.83857 998.401064 M 839.598995 1.598932 L 839.598995 998.401064 M 1007.35942 1.598932 L 1007.35942 998.401064 M 1175.119845 1.598932 L 1175.119845 998.401064 M -0.0000041552 0.796848 L 1175.91672 0.796848 M -0.0000041552 200.47915 L 1175.91672 200.47915 M -0.0000041552 400.161451 L 1175.91672 400.161451 M -0.0000041552 599.838544 L 1175.91672 599.838544 M -0.0000041552 799.520846 L 1175.91672 799.520846 M -0.0000041552 999.203147 L 1175.91672 999.203147 " stroke="#000000" stroke-width="1.598902" stroke-opacity="1" stroke-miterlimit="4"/></svg>