<svg xmlns="http://www.w3.org/2000/svg" xmlns:xlink="http://www.w3.org/1999/xlink" width="600" zoomAndPan="magnify" viewBox="0 0 450 299.999988" height="400" preserveAspectRatio="xMidYMid meet" version="1.0"><defs><clipPath id="fcda8c619d"><path d="M 87.300781 18.386719 L 350.550781 18.386719 L 350.550781 281.636719 L 87.300781 281.636719 Z M 87.300781 18.386719 " clip-rule="nonzero"/></clipPath></defs><g clip-path="url(#fcda8c619d)"><path fill="#000000" d="M 345.613281 259.328125 L 345.613281 281.613281 L 344.957031 281.613281 L 344.957031 40.671875 L 345.613281 40.671875 Z M 335.085938 40.671875 L 334.429688 40.671875 L 334.429688 281.613281 L 335.085938 281.613281 Z M 324.558594 40.671875 L 323.898438 40.671875 L 323.898438 281.613281 L 324.558594 281.613281 Z M 314.027344 40.671875 L 313.371094 40.671875 L 313.371094 281.613281 L 314.027344 281.613281 Z M 303.5 40.671875 L 302.839844 40.671875 L 302.839844 281.613281 L 303.5 281.613281 Z M 292.96875 40.671875 L 292.3125 40.671875 L 292.3125 281.613281 L 292.96875 281.613281 Z M 282.441406 40.671875 L 281.78125 40.671875 L 281.78125 281.613281 L 282.441406 281.613281 Z M 271.910156 40.671875 L 271.253906 40.671875 L 271.253906 281.613281 L 271.910156 281.613281 Z M 261.382812 40.671875 L 260.722656 40.671875 L 260.722656 281.613281 L 261.382812 281.613281 Z M 250.851562 40.671875 L 250.195312 40.671875 L 250.195312 281.613281 L 250.851562 281.613281 Z M 240.324219 40.671875 L 239.667969 40.671875 L 239.667969 281.613281 L 240.324219 281.613281 Z M 229.796875 40.671875 L 229.136719 40.671875 L 229.136719 281.613281 L 229.796875 281.613281 Z M 219.265625 40.671875 L 218.609375 40.671875 L 218.609375 281.613281 L 219.265625 281.613281 Z M 208.738281 40.671875 L 208.078125 40.671875 L 208.078125 281.613281 L 208.738281 281.613281 Z M 198.207031 40.671875 L 197.550781 40.671875 L 197.550781 281.613281 L 198.207031 281.613281 Z M 187.679688 40.671875 L 187.019531 40.671875 L 187.019531 281.613281 L 187.679688 281.613281 Z M 177.148438 40.671875 L 176.492188 40.671875 L 176.492188 281.613281 L 177.148438 281.613281 Z M 166.621094 40.671875 L 165.960938 40.671875 L 165.960938 281.613281 L 166.621094 281.613281 Z M 156.089844 40.671875 L 155.433594 40.671875 L 155.433594 281.613281 L 156.089844 281.613281 Z M 145.5625 40.671875 L 144.90625 40.671875 L 144.90625 281.613281 L 145.5625 281.613281 Z M 135.035156 40.671875 L 134.375 40.671875 L 134.375 281.613281 L 135.035156 281.613281 Z M 124.503906 40.671875 L 123.847656 40.671875 L 123.847656 281.613281 L 124.503906 281.613281 Z M 113.976562 40.671875 L 113.316406 40.671875 L 113.316406 281.613281 L 113.976562 281.613281 Z M 103.445312 40.671875 L 102.789062 40.671875 L 102.789062 281.613281 L 103.445312 281.613281 Z M 92.917969 40.671875 L 92.257812 40.671875 L 92.257812 281.613281 L 92.917969 281.613281 Z M 345.613281 40.671875 L 345.613281 18.386719 L 344.957031 18.386719 L 344.957031 40.671875 Z M 335.085938 40.671875 L 335.085938 18.386719 L 334.429688 18.386719 L 334.429688 40.671875 Z M 324.558594 40.671875 L 324.558594 18.386719 L 323.898438 18.386719 L 323.898438 40.671875 Z M 314.027344 40.671875 L 314.027344 18.386719 L 313.371094 18.386719 L 313.371094 40.671875 Z M 303.5 40.671875 L 303.5 18.386719 L 302.839844 18.386719 L 302.839844 40.671875 Z M 292.96875 40.671875 L 292.96875 18.386719 L 292.3125 18.386719 L 292.3125 40.671875 Z M 282.441406 40.671875 L 282.441406 18.386719 L 281.78125 18.386719 L 281.78125 40.671875 Z M 271.910156 40.671875 L 271.910156 18.386719 L 271.253906 18.386719 L 271.253906 40.671875 Z M 261.382812 40.671875 L 261.382812 18.386719 L 260.722656 18.386719 L 260.722656 40.671875 Z M 250.851562 40.671875 L 250.851562 18.386719 L 250.195312 18.386719 L 250.195312 40.671875 Z M 240.324219 40.671875 L 240.324219 18.386719 L 239.667969 18.386719 L 239.667969 40.671875 Z M 229.796875 40.671875 L 229.796875 18.386719 L 229.136719 18.386719 L 229.136719 40.671875 Z M 219.265625 40.671875 L 219.265625 18.386719 L 218.609375 18.386719 L 218.609375 40.671875 Z M 208.738281 40.671875 L 208.738281 18.386719 L 208.078125 18.386719 L 208.078125 40.671875 Z M 198.207031 40.671875 L 198.207031 18.386719 L 197.550781 18.386719 L 197.550781 40.671875 Z M 187.679688 40.671875 L 187.679688 18.386719 L 187.019531 18.386719 L 187.019531 40.671875 Z M 177.148438 40.671875 L 177.148438 18.386719 L 176.492188 18.386719 L 176.492188 40.671875 Z M 166.621094 40.671875 L 166.621094 18.386719 L 165.960938 18.386719 L 165.960938 40.671875 Z M 156.089844 40.671875 L 156.089844 18.386719 L 155.433594 18.386719 L 155.433594 40.671875 Z M 145.5625 40.671875 L 145.5625 18.386719 L 144.90625 18.386719 L 144.90625 40.671875 Z M 135.035156 40.671875 L 135.035156 18.386719 L 134.375 18.386719 L 134.375 40.671875 Z M 124.503906 40.671875 L 124.503906 18.386719 L 123.847656 18.386719 L 123.847656 40.671875 Z M 113.976562 40.671875 L 113.976562 18.386719 L 113.316406 18.386719 L 113.316406 40.671875 Z M 103.445312 40.671875 L 103.445312 18.386719 L 102.789062 18.386719 L 102.789062 40.671875 Z M 92.917969 40.671875 L 92.917969 18.386719 L 92.257812 18.386719 L 92.257812 40.671875 Z M 328.242188 276.699219 L 328.242188 276.042969 L 87.300781 276.042969 L 87.300781 276.699219 Z M 328.242188 266.171875 L 328.242188 265.511719 L 87.300781 265.511719 L 87.300781 266.171875 Z M 328.242188 255.640625 L 328.242188 254.984375 L 87.300781 254.984375 L 87.300781 255.640625 Z M 328.242188 245.113281 L 328.242188 244.453125 L 87.300781 244.453125 L 87.300781 245.113281 Z M 328.242188 234.582031 L 328.242188 233.925781 L 87.300781 233.925781 L 87.300781 234.582031 Z M 328.242188 224.054688 L 328.242188 223.394531 L 87.300781 223.394531 L 87.300781 224.054688 Z M 328.242188 213.523438 L 328.242188 212.867188 L 87.300781 212.867188 L 87.300781 213.523438 Z M 328.242188 202.996094 L 328.242188 202.335938 L 87.300781 202.335938 L 87.300781 202.996094 Z M 328.242188 192.464844 L 328.242188 191.808594 L 87.300781 191.808594 L 87.300781 192.464844 Z M 328.242188 181.9375 L 328.242188 181.28125 L 87.300781 181.28125 L 87.300781 181.9375 Z M 328.242188 171.410156 L 328.242188 170.75 L 87.300781 170.75 L 87.300781 171.410156 Z M 328.242188 160.878906 L 328.242188 160.222656 L 87.300781 160.222656 L 87.300781 160.878906 Z M 328.242188 150.351562 L 328.242188 149.691406 L 87.300781 149.691406 L 87.300781 150.351562 Z M 328.242188 139.820312 L 328.242188 139.164062 L 87.300781 139.164062 L 87.300781 139.820312 Z M 328.242188 129.292969 L 328.242188 128.632812 L 87.300781 128.632812 L 87.300781 129.292969 Z M 328.242188 118.761719 L 328.242188 118.105469 L 87.300781 118.105469 L 87.300781 118.761719 Z M 328.242188 108.234375 L 328.242188 107.578125 L 87.300781 107.578125 L 87.300781 108.234375 Z M 328.242188 97.707031 L 328.242188 97.046875 L 87.300781 97.046875 L 87.300781 97.707031 Z M 328.242188 87.175781 L 328.242188 86.519531 L 87.300781 86.519531 L 87.300781 87.175781 Z M 328.242188 76.648438 L 328.242188 75.988281 L 87.300781 75.988281 L 87.300781 76.648438 Z M 328.242188 66.117188 L 328.242188 65.460938 L 87.300781 65.460938 L 87.300781 66.117188 Z M 328.242188 55.589844 L 328.242188 54.929688 L 87.300781 54.929688 L 87.300781 55.589844 Z M 328.242188 45.058594 L 328.242188 44.402344 L 87.300781 44.402344 L 87.300781 45.058594 Z M 328.242188 34.53125 L 328.242188 33.871094 L 87.300781 33.871094 L 87.300781 34.53125 Z M 328.242188 24 L 328.242188 23.34375 L 87.300781 23.34375 L 87.300781 24 Z M 328.242188 276.699219 L 350.527344 276.699219 L 350.527344 276.042969 L 328.242188 276.042969 Z M 328.242188 266.171875 L 350.527344 266.171875 L 350.527344 265.511719 L 328.242188 265.511719 Z M 328.242188 255.640625 L 350.527344 255.640625 L 350.527344 254.984375 L 328.242188 254.984375 Z M 328.242188 245.113281 L 350.527344 245.113281 L 350.527344 244.453125 L 328.242188 244.453125 Z M 328.242188 234.582031 L 350.527344 234.582031 L 350.527344 233.925781 L 328.242188 233.925781 Z M 328.242188 224.054688 L 350.527344 224.054688 L 350.527344 223.394531 L 328.242188 223.394531 Z M 328.242188 213.523438 L 350.527344 213.523438 L 350.527344 212.867188 L 328.242188 212.867188 Z M 328.242188 202.996094 L 350.527344 202.996094 L 350.527344 202.335938 L 328.242188 202.335938 Z M 328.242188 192.464844 L 350.527344 192.464844 L 350.527344 191.808594 L 328.242188 191.808594 Z M 328.242188 181.9375 L 350.527344 181.9375 L 350.527344 181.28125 L 328.242188 181.28125 Z M 328.242188 171.410156 L 350.527344 171.410156 L 350.527344 170.75 L 328.242188 170.75 Z M 328.242188 160.878906 L 350.527344 160.878906 L 350.527344 160.222656 L 328.242188 160.222656 Z M 328.242188 150.351562 L 350.527344 150.351562 L 350.527344 149.691406 L 328.242188 149.691406 Z M 328.242188 139.820312 L 350.527344 139.820312 L 350.527344 139.164062 L 328.242188 139.164062 Z M 328.242188 129.292969 L 350.527344 129.292969 L 350.527344 128.632812 L 328.242188 128.632812 Z M 328.242188 118.761719 L 350.527344 118.761719 L 350.527344 118.105469 L 328.242188 118.105469 Z M 328.242188 108.234375 L 350.527344 108.234375 L 350.527344 107.578125 L 328.242188 107.578125 Z M 328.242188 97.707031 L 350.527344 97.707031 L 350.527344 97.046875 L 328.242188 97.046875 Z M 328.242188 87.175781 L 350.527344 87.175781 L 350.527344 86.519531 L 328.242188 86.519531 Z M 328.242188 76.648438 L 350.527344 76.648438 L 350.527344 75.988281 L 328.242188 75.988281 Z M 328.242188 66.117188 L 350.527344 66.117188 L 350.527344 65.460938 L 328.242188 65.460938 Z M 328.242188 55.589844 L 350.527344 55.589844 L 350.527344 54.929688 L 328.242188 54.929688 Z M 328.242188 45.058594 L 350.527344 45.058594 L 350.527344 44.402344 L 328.242188 44.402344 Z M 328.242188 34.53125 L 350.527344 34.53125 L 350.527344 33.871094 L 328.242188 33.871094 Z M 328.242188 24 L 350.527344 24 L 350.527344 23.34375 L 328.242188 23.34375 Z M 328.242188 24 " fill-opacity="1" fill-rule="nonzero"/></g></svg>