<svg xmlns="http://www.w3.org/2000/svg" xmlns:xlink="http://www.w3.org/1999/xlink" width="600" zoomAndPan="magnify" viewBox="0 0 450 299.999988" height="400" preserveAspectRatio="xMidYMid meet" version="1.0"><defs><g/><clipPath id="25778d9684"><path d="M 242 135 L 265.722656 135 L 265.722656 159 L 242 159 Z M 242 135 " clip-rule="nonzero"/></clipPath><clipPath id="e1b83bb768"><path d="M 126 242 L 150 242 L 150 265.722656 L 126 265.722656 Z M 126 242 " clip-rule="nonzero"/></clipPath><clipPath id="ad9a0d4d22"><path d="M 0.195312 120 L 23 120 L 23 144 L 0.195312 144 Z M 0.195312 120 " clip-rule="nonzero"/></clipPath><clipPath id="b178c9a53a"><path d="M 103 0.195312 L 128 0.195312 L 128 25 L 103 25 Z M 103 0.195312 " clip-rule="nonzero"/></clipPath><clipPath id="d12b01294b"><path d="M 129 0.195312 L 153 0.195312 L 153 24 L 129 24 Z M 129 0.195312 " clip-rule="nonzero"/></clipPath><clipPath id="a735cfc14e"><path d="M 242 109 L 265.722656 109 L 265.722656 134 L 242 134 Z M 242 109 " clip-rule="nonzero"/></clipPath><clipPath id="b4808753ac"><path d="M 135 45 L 144.878906 45 L 144.878906 47 L 135 47 Z M 135 45 " clip-rule="nonzero"/></clipPath><clipPath id="e6e7604767"><rect x="0" width="145" y="0" height="50"/></clipPath><clipPath id="dee302990c"><rect x="0" width="267" y="0" height="267"/></clipPath></defs><g transform="matrix(1, 0, 0, 1, 92, 17)"><g clip-path="url(#dee302990c)"><g clip-path="url(#25778d9684)"><path fill="#000000" d="M 258.953125 158.742188 C 258.640625 158.742188 258.328125 158.691406 258.015625 158.636719 L 246.296875 156.292969 C 243.535156 155.722656 241.660156 153.167969 242.128906 150.617188 C 242.234375 149.992188 242.339844 149.417969 242.390625 148.742188 C 242.441406 148.480469 242.441406 148.222656 242.496094 147.960938 L 242.859375 145.253906 C 242.964844 144.523438 243.015625 143.847656 243.066406 143.117188 L 243.328125 139.835938 C 243.433594 138.535156 244.058594 137.386719 244.996094 136.554688 C 245.984375 135.667969 247.285156 135.199219 248.640625 135.25 L 260.621094 135.5625 C 262.027344 135.617188 263.277344 136.191406 264.214844 137.285156 C 265.203125 138.378906 265.671875 139.835938 265.515625 141.242188 L 265.203125 145.097656 C 265.152344 145.980469 265.046875 146.867188 264.941406 147.753906 L 264.527344 150.980469 C 264.472656 151.292969 264.421875 151.605469 264.421875 151.867188 C 264.316406 152.648438 264.214844 153.429688 264.058594 154.210938 C 263.796875 155.722656 262.910156 157.074219 261.714844 157.910156 C 260.828125 158.429688 259.890625 158.742188 258.953125 158.742188 Z M 243.171875 150.878906 C 242.808594 152.804688 244.316406 154.730469 246.453125 155.199219 L 258.171875 157.542969 C 259.160156 157.753906 260.152344 157.542969 260.984375 156.972656 C 261.972656 156.292969 262.652344 155.253906 262.859375 154.003906 C 263.015625 153.222656 263.121094 152.492188 263.222656 151.710938 C 263.277344 151.398438 263.277344 151.085938 263.328125 150.773438 L 263.746094 147.542969 C 263.847656 146.660156 263.953125 145.773438 264.003906 144.941406 L 264.316406 141.085938 C 264.421875 139.992188 264.058594 138.847656 263.277344 137.960938 C 262.546875 137.128906 261.558594 136.660156 260.515625 136.660156 L 248.535156 136.347656 C 247.496094 136.292969 246.453125 136.660156 245.671875 137.386719 C 244.941406 138.011719 244.472656 138.898438 244.371094 139.886719 L 244.109375 143.167969 C 244.058594 143.898438 244.003906 144.628906 243.902344 145.355469 L 243.589844 148.117188 C 243.535156 148.378906 243.535156 148.636719 243.484375 148.898438 C 243.378906 149.523438 243.328125 150.199219 243.171875 150.878906 Z M 243.171875 150.878906 " fill-opacity="1" fill-rule="nonzero"/></g><path fill="#000000" d="M 252.128906 183.691406 C 251.503906 183.691406 250.878906 183.585938 250.253906 183.328125 L 239.214844 178.636719 C 236.609375 177.492188 235.308594 174.628906 236.246094 172.230469 C 237.546875 168.847656 238.640625 165.410156 239.578125 161.917969 C 239.734375 161.347656 239.996094 160.824219 240.464844 160.253906 C 240.828125 159.785156 241.296875 159.367188 241.871094 159.054688 C 243.015625 158.378906 244.371094 158.222656 245.671875 158.535156 L 257.339844 161.242188 C 258.691406 161.554688 259.839844 162.386719 260.515625 163.636719 C 260.878906 164.261719 261.089844 164.886719 261.191406 165.617188 C 261.296875 166.292969 261.246094 167.023438 261.035156 167.804688 C 259.890625 172.023438 258.535156 176.191406 257.027344 180.253906 C 256.453125 181.710938 255.359375 182.859375 254.003906 183.429688 C 253.433594 183.535156 252.808594 183.691406 252.128906 183.691406 Z M 244.527344 159.472656 C 243.796875 159.472656 243.121094 159.628906 242.496094 159.992188 C 242.078125 160.253906 241.714844 160.566406 241.402344 160.929688 C 241.035156 161.398438 240.828125 161.761719 240.722656 162.179688 C 239.785156 165.722656 238.640625 169.210938 237.339844 172.597656 C 236.609375 174.417969 237.703125 176.660156 239.683594 177.492188 L 250.722656 182.179688 C 251.609375 182.597656 252.652344 182.597656 253.589844 182.179688 C 254.683594 181.710938 255.515625 180.828125 255.984375 179.679688 C 257.496094 175.667969 258.847656 171.503906 259.996094 167.335938 C 260.152344 166.710938 260.203125 166.136719 260.152344 165.617188 C 260.046875 165.042969 259.890625 164.523438 259.628906 164.054688 C 259.109375 163.117188 258.222656 162.441406 257.183594 162.179688 L 245.515625 159.472656 C 245.203125 159.523438 244.839844 159.472656 244.527344 159.472656 Z M 244.527344 159.472656 " fill-opacity="1" fill-rule="nonzero"/><path fill="#000000" d="M 240.515625 206.710938 C 239.527344 206.710938 238.535156 206.398438 237.703125 205.828125 L 227.859375 199.003906 C 226.765625 198.222656 225.984375 197.128906 225.671875 195.828125 C 225.359375 194.523438 225.566406 193.222656 226.246094 192.179688 C 226.402344 191.921875 226.609375 191.609375 226.765625 191.347656 C 227.078125 190.878906 227.390625 190.410156 227.652344 189.890625 L 229.003906 187.492188 C 229.160156 187.234375 229.316406 186.921875 229.527344 186.609375 C 229.785156 186.140625 230.097656 185.617188 230.359375 185.097656 L 231.609375 182.648438 C 232.859375 180.304688 235.777344 179.421875 238.328125 180.566406 L 249.214844 185.566406 C 250.410156 186.085938 251.402344 187.179688 251.816406 188.484375 C 252.285156 189.890625 252.183594 191.398438 251.453125 192.703125 L 249.996094 195.566406 C 249.683594 196.191406 249.316406 196.816406 248.953125 197.441406 C 248.746094 197.753906 248.589844 198.066406 248.378906 198.429688 L 246.765625 201.242188 C 246.402344 201.867188 245.984375 202.492188 245.621094 203.066406 C 245.410156 203.378906 245.203125 203.691406 245.046875 204.003906 C 244.265625 205.253906 243.015625 206.140625 241.714844 206.453125 C 241.296875 206.660156 240.878906 206.710938 240.515625 206.710938 Z M 236.089844 181.296875 C 234.683594 181.296875 233.328125 182.023438 232.652344 183.273438 L 231.402344 185.722656 C 231.140625 186.242188 230.828125 186.765625 230.515625 187.285156 C 230.359375 187.546875 230.203125 187.859375 230.046875 188.117188 L 228.691406 190.515625 C 228.378906 191.035156 228.066406 191.503906 227.753906 192.023438 C 227.597656 192.285156 227.390625 192.597656 227.234375 192.859375 C 226.714844 193.640625 226.609375 194.628906 226.816406 195.617188 C 227.078125 196.660156 227.652344 197.546875 228.535156 198.117188 L 238.378906 204.890625 C 239.265625 205.515625 240.359375 205.671875 241.402344 205.460938 C 242.441406 205.203125 243.433594 204.472656 244.058594 203.535156 C 244.265625 203.222656 244.472656 202.910156 244.683594 202.597656 C 245.046875 202.023438 245.464844 201.398438 245.777344 200.828125 L 247.390625 198.015625 C 247.546875 197.703125 247.753906 197.335938 247.964844 197.023438 C 248.328125 196.453125 248.691406 195.828125 249.003906 195.203125 L 250.515625 192.285156 C 251.089844 191.242188 251.191406 190.046875 250.777344 188.953125 C 250.410156 187.960938 249.683594 187.128906 248.796875 186.710938 L 237.910156 181.710938 C 237.285156 181.398438 236.660156 181.296875 236.089844 181.296875 Z M 236.089844 181.296875 " fill-opacity="1" fill-rule="nonzero"/><path fill="#000000" d="M 224.472656 226.921875 C 223.066406 226.921875 221.816406 226.402344 220.878906 225.410156 L 212.597656 216.765625 C 211.660156 215.773438 211.140625 214.523438 211.085938 213.222656 C 211.085938 212.648438 211.191406 212.023438 211.398438 211.398438 C 211.609375 210.773438 211.921875 210.253906 212.390625 209.785156 L 213.117188 209.054688 C 214.109375 208.015625 215.148438 206.921875 216.085938 205.828125 L 217.910156 203.742188 C 218.273438 203.328125 218.640625 202.859375 219.003906 202.390625 C 219.210938 202.128906 219.421875 201.867188 219.628906 201.609375 C 220.410156 200.617188 221.554688 199.992188 222.910156 199.890625 C 224.210938 199.785156 225.566406 200.097656 226.609375 200.878906 L 236.246094 207.960938 C 237.339844 208.796875 238.066406 210.046875 238.222656 211.453125 C 238.378906 212.859375 237.910156 214.265625 237.027344 215.410156 C 236.765625 215.722656 236.558594 215.984375 236.347656 216.296875 C 235.933594 216.867188 235.464844 217.441406 234.996094 217.960938 L 232.859375 220.410156 C 231.660156 221.816406 230.359375 223.222656 229.109375 224.527344 L 228.433594 225.203125 C 227.910156 225.722656 227.339844 226.140625 226.660156 226.453125 C 226.035156 226.714844 225.359375 226.871094 224.628906 226.921875 C 224.578125 226.921875 224.523438 226.921875 224.472656 226.921875 Z M 223.378906 200.984375 C 223.222656 200.984375 223.117188 200.984375 222.960938 200.984375 C 221.921875 201.085938 221.035156 201.554688 220.460938 202.285156 C 220.253906 202.546875 220.046875 202.804688 219.835938 203.066406 C 219.472656 203.535156 219.109375 204.003906 218.691406 204.472656 L 216.921875 206.554688 C 215.984375 207.703125 214.941406 208.796875 213.898438 209.835938 L 213.171875 210.566406 C 212.859375 210.929688 212.597656 211.296875 212.441406 211.765625 C 212.285156 212.285156 212.179688 212.753906 212.179688 213.171875 C 212.179688 214.210938 212.597656 215.203125 213.378906 215.984375 L 221.660156 224.628906 C 222.390625 225.410156 223.378906 225.828125 224.527344 225.777344 C 225.097656 225.777344 225.671875 225.621094 226.089844 225.410156 C 226.609375 225.152344 227.078125 224.839844 227.496094 224.421875 L 228.171875 223.746094 C 229.421875 222.441406 230.722656 221.085938 231.871094 219.679688 L 234.003906 217.234375 C 234.472656 216.710938 234.890625 216.140625 235.308594 215.617188 C 235.515625 215.304688 235.777344 214.992188 236.035156 214.734375 C 236.765625 213.847656 237.128906 212.648438 237.027344 211.609375 C 236.921875 210.566406 236.347656 209.578125 235.515625 208.953125 L 225.878906 201.765625 C 225.152344 201.242188 224.265625 200.984375 223.378906 200.984375 Z M 223.378906 200.984375 " fill-opacity="1" fill-rule="nonzero"/><path fill="#000000" d="M 204.785156 243.535156 C 204.472656 243.535156 204.160156 243.484375 203.847656 243.433594 C 202.441406 243.171875 201.296875 242.390625 200.515625 241.246094 L 194.109375 231.140625 C 193.378906 229.996094 193.117188 228.640625 193.328125 227.339844 C 193.429688 226.714844 193.640625 226.140625 194.003906 225.566406 C 194.316406 225.046875 194.785156 224.628906 195.304688 224.214844 L 197.546875 222.652344 C 197.753906 222.496094 198.015625 222.339844 198.222656 222.179688 C 198.742188 221.816406 199.265625 221.453125 199.734375 221.085938 L 202.390625 219.003906 C 202.910156 218.585938 203.484375 218.117188 204.003906 217.703125 C 205.984375 215.984375 209.109375 216.296875 211.035156 218.378906 L 219.054688 227.234375 C 219.941406 228.171875 220.359375 229.421875 220.304688 230.777344 C 220.203125 232.234375 219.523438 233.640625 218.328125 234.683594 C 217.703125 235.253906 216.972656 235.828125 216.296875 236.347656 L 213.222656 238.746094 C 212.597656 239.214844 211.972656 239.683594 211.347656 240.152344 C 211.085938 240.308594 210.828125 240.515625 210.566406 240.671875 L 207.910156 242.546875 C 207.335938 242.964844 206.660156 243.277344 205.878906 243.433594 C 205.515625 243.484375 205.148438 243.535156 204.785156 243.535156 Z M 195.984375 225.152344 C 195.566406 225.464844 195.253906 225.828125 194.992188 226.191406 C 194.734375 226.609375 194.578125 227.027344 194.472656 227.546875 C 194.316406 228.589844 194.523438 229.628906 195.046875 230.515625 L 201.453125 240.621094 C 202.023438 241.503906 202.910156 242.128906 204.003906 242.285156 C 204.523438 242.390625 205.097656 242.390625 205.671875 242.285156 C 206.242188 242.183594 206.816406 241.921875 207.234375 241.609375 L 209.890625 239.734375 C 210.148438 239.527344 210.410156 239.371094 210.671875 239.160156 C 211.296875 238.746094 211.921875 238.277344 212.492188 237.808594 L 215.566406 235.359375 C 216.242188 234.839844 216.921875 234.316406 217.546875 233.746094 C 218.484375 232.910156 219.054688 231.816406 219.109375 230.621094 C 219.160156 229.578125 218.847656 228.640625 218.171875 227.910156 L 210.148438 219.054688 C 208.640625 217.441406 206.242188 217.128906 204.734375 218.429688 C 204.210938 218.898438 203.640625 219.367188 203.066406 219.785156 L 200.460938 221.871094 C 199.992188 222.285156 199.421875 222.652344 198.898438 223.015625 C 198.691406 223.171875 198.429688 223.328125 198.222656 223.484375 Z M 195.984375 225.152344 " fill-opacity="1" fill-rule="nonzero"/><path fill="#000000" d="M 182.128906 255.828125 C 181.347656 255.828125 180.617188 255.671875 179.886719 255.359375 C 178.691406 254.839844 177.753906 253.847656 177.285156 252.652344 L 173.066406 241.453125 C 172.074219 238.796875 173.273438 235.878906 175.667969 234.941406 C 176.660156 234.527344 177.648438 234.058594 178.636719 233.589844 C 179.316406 233.277344 179.941406 232.964844 180.617188 232.703125 L 185.460938 230.253906 C 187.703125 229.003906 190.722656 229.890625 192.128906 232.339844 L 198.222656 242.652344 C 198.898438 243.746094 199.054688 245.097656 198.742188 246.402344 C 198.378906 247.808594 197.390625 249.058594 196.035156 249.839844 C 195.460938 250.152344 194.890625 250.410156 194.316406 250.722656 C 192.960938 251.402344 191.609375 252.128906 190.203125 252.808594 C 189.578125 253.066406 189.003906 253.378906 188.378906 253.640625 C 187.023438 254.265625 185.617188 254.890625 184.210938 255.515625 C 183.585938 255.722656 182.859375 255.828125 182.128906 255.828125 Z M 187.703125 230.777344 C 187.128906 230.777344 186.554688 230.933594 186.035156 231.191406 L 181.140625 233.691406 C 180.460938 234.003906 179.785156 234.316406 179.105469 234.578125 C 178.117188 235.046875 177.128906 235.464844 176.085938 235.933594 C 174.261719 236.660156 173.378906 238.902344 174.160156 240.984375 L 178.378906 252.183594 C 178.742188 253.121094 179.417969 253.847656 180.355469 254.265625 C 181.453125 254.734375 182.703125 254.734375 183.847656 254.316406 C 185.203125 253.746094 186.609375 253.121094 187.960938 252.496094 C 188.585938 252.234375 189.160156 251.921875 189.785156 251.660156 C 191.140625 250.984375 192.492188 250.308594 193.847656 249.578125 C 194.421875 249.265625 194.992188 249.003906 195.566406 248.691406 C 196.609375 248.121094 197.390625 247.128906 197.703125 245.984375 C 197.960938 244.996094 197.804688 243.953125 197.335938 243.121094 L 191.242188 232.808594 C 190.410156 231.558594 189.054688 230.777344 187.703125 230.777344 Z M 187.703125 230.777344 " fill-opacity="1" fill-rule="nonzero"/><path fill="#000000" d="M 157.542969 263.328125 C 156.398438 263.328125 155.253906 262.964844 154.316406 262.339844 C 153.222656 261.558594 152.542969 260.410156 152.335938 259.160156 L 150.460938 247.339844 C 150.042969 244.527344 151.761719 241.921875 154.316406 241.453125 C 154.992188 241.347656 155.667969 241.191406 156.347656 241.035156 L 159.628906 240.308594 C 160.355469 240.152344 161.085938 239.941406 161.761719 239.734375 L 164.886719 238.847656 C 166.191406 238.535156 167.441406 238.640625 168.535156 239.265625 C 169.679688 239.890625 170.566406 240.933594 171.035156 242.234375 L 174.941406 253.589844 C 175.410156 254.890625 175.253906 256.296875 174.574219 257.546875 C 173.847656 258.847656 172.648438 259.785156 171.292969 260.152344 L 167.699219 261.191406 C 166.816406 261.453125 165.929688 261.714844 164.992188 261.871094 L 161.191406 262.753906 C 160.355469 262.964844 159.472656 263.171875 158.585938 263.277344 C 158.222656 263.277344 157.855469 263.328125 157.542969 263.328125 Z M 154.523438 242.546875 C 152.597656 242.910156 151.292969 244.941406 151.605469 247.128906 L 153.480469 258.953125 C 153.636719 259.941406 154.160156 260.777344 154.992188 261.402344 C 155.929688 262.078125 157.179688 262.339844 158.378906 262.128906 C 159.210938 261.972656 160.097656 261.816406 160.878906 261.609375 L 164.679688 260.722656 C 165.566406 260.515625 166.449219 260.308594 167.335938 260.046875 L 170.980469 259.003906 C 172.074219 258.746094 172.960938 257.964844 173.535156 256.921875 C 174.054688 255.984375 174.160156 254.890625 173.792969 253.847656 L 169.886719 242.496094 C 169.523438 241.503906 168.847656 240.671875 167.960938 240.152344 C 167.128906 239.683594 166.136719 239.578125 165.148438 239.839844 L 162.074219 240.722656 C 161.347656 240.933594 160.617188 241.140625 159.886719 241.296875 L 156.660156 242.027344 C 155.929688 242.234375 155.253906 242.390625 154.523438 242.546875 Z M 154.523438 242.546875 " fill-opacity="1" fill-rule="nonzero"/><g clip-path="url(#e1b83bb768)"><path fill="#000000" d="M 132.855469 265.722656 C 132.542969 265.722656 132.179688 265.722656 131.867188 265.722656 C 130.355469 265.671875 128.898438 265.046875 127.90625 263.953125 C 127.023438 262.964844 126.554688 261.714844 126.605469 260.410156 L 127.125 248.433594 C 127.28125 245.621094 129.523438 243.378906 132.074219 243.433594 C 132.75 243.484375 133.429688 243.433594 134.105469 243.433594 L 137.492188 243.328125 C 137.648438 243.328125 137.804688 243.328125 138.011719 243.328125 C 138.273438 243.328125 138.585938 243.328125 138.847656 243.277344 L 142.910156 242.964844 C 143.480469 242.910156 144.105469 243.015625 144.785156 243.222656 C 145.355469 243.433594 145.929688 243.691406 146.398438 244.160156 C 147.386719 244.996094 148.066406 246.246094 148.222656 247.546875 L 149.730469 259.421875 C 149.886719 260.777344 149.523438 262.128906 148.585938 263.222656 C 148.117188 263.746094 147.597656 264.214844 146.972656 264.527344 C 146.398438 264.839844 145.667969 265.046875 144.886719 265.097656 L 139.992188 265.464844 C 139.628906 265.464844 139.261719 265.515625 138.898438 265.515625 C 138.691406 265.515625 138.535156 265.515625 138.324219 265.515625 L 134.367188 265.621094 C 133.898438 265.722656 133.375 265.722656 132.855469 265.722656 Z M 131.917969 244.578125 C 129.992188 244.578125 128.324219 246.296875 128.21875 248.484375 L 127.699219 260.464844 C 127.648438 261.453125 128.011719 262.390625 128.6875 263.171875 C 129.46875 264.003906 130.667969 264.527344 131.867188 264.578125 C 132.699219 264.628906 133.53125 264.578125 134.367188 264.578125 L 138.324219 264.472656 C 138.535156 264.472656 138.691406 264.472656 138.898438 264.472656 C 139.261719 264.472656 139.574219 264.472656 139.941406 264.421875 L 144.785156 264.058594 C 145.410156 264.003906 145.980469 263.847656 146.449219 263.589844 C 146.972656 263.328125 147.386719 262.964844 147.753906 262.546875 C 148.480469 261.714844 148.792969 260.671875 148.636719 259.628906 L 147.128906 247.753906 C 146.972656 246.714844 146.503906 245.777344 145.667969 245.097656 C 145.304688 244.785156 144.886719 244.527344 144.417969 244.421875 C 143.898438 244.265625 143.429688 244.160156 143.011719 244.214844 L 138.898438 244.527344 C 138.585938 244.527344 138.273438 244.527344 138.011719 244.578125 C 137.855469 244.578125 137.699219 244.578125 137.542969 244.578125 L 134.15625 244.683594 C 133.480469 244.683594 132.75 244.734375 132.023438 244.683594 C 131.96875 244.578125 131.96875 244.578125 131.917969 244.578125 Z M 131.917969 244.578125 " fill-opacity="1" fill-rule="nonzero"/></g><path fill="#000000" d="M 118.742188 264.941406 C 118.480469 264.941406 118.273438 264.941406 118.011719 264.890625 L 114.3125 264.421875 C 113.429688 264.316406 112.492188 264.214844 111.554688 264.003906 L 108.375 263.433594 C 108.117188 263.378906 107.855469 263.328125 107.59375 263.277344 C 106.761719 263.121094 105.929688 262.964844 105.148438 262.753906 C 103.636719 262.390625 102.335938 261.503906 101.605469 260.253906 C 100.929688 259.109375 100.71875 257.808594 101.03125 256.558594 L 103.949219 244.941406 C 104.679688 242.183594 107.28125 240.464844 109.78125 241.035156 C 110.40625 241.191406 111.085938 241.296875 111.710938 241.453125 C 111.917969 241.503906 112.179688 241.558594 112.386719 241.558594 L 115.09375 242.027344 C 115.824219 242.183594 116.554688 242.285156 117.28125 242.339844 L 120.460938 242.753906 C 121.761719 242.964844 122.90625 243.589844 123.636719 244.578125 C 124.46875 245.621094 124.835938 246.921875 124.730469 248.277344 L 123.84375 260.203125 C 123.742188 261.609375 123.0625 262.808594 121.96875 263.691406 C 121.136719 264.527344 119.9375 264.941406 118.742188 264.941406 Z M 108.84375 242.078125 C 107.179688 242.078125 105.5625 243.378906 105.09375 245.253906 L 102.179688 256.871094 C 101.917969 257.808594 102.074219 258.847656 102.59375 259.683594 C 103.21875 260.671875 104.261719 261.402344 105.460938 261.714844 C 106.242188 261.921875 107.074219 262.078125 107.855469 262.183594 C 108.117188 262.234375 108.375 262.285156 108.636719 262.339844 L 111.8125 262.910156 C 112.699219 263.066406 113.636719 263.222656 114.523438 263.328125 L 118.273438 263.796875 C 119.367188 263.953125 120.511719 263.640625 121.449219 262.910156 C 122.335938 262.234375 122.855469 261.296875 122.90625 260.203125 L 123.792969 248.277344 C 123.84375 247.234375 123.585938 246.191406 122.90625 245.359375 C 122.335938 244.578125 121.449219 244.109375 120.460938 243.953125 L 117.28125 243.535156 C 116.554688 243.433594 115.773438 243.328125 114.992188 243.171875 L 112.335938 242.703125 C 112.125 242.652344 111.867188 242.597656 111.65625 242.597656 C 110.980469 242.496094 110.304688 242.339844 109.625 242.183594 C 109.3125 242.078125 109.054688 242.078125 108.84375 242.078125 Z M 108.84375 242.078125 " fill-opacity="1" fill-rule="nonzero"/><path fill="#000000" d="M 93.585938 259.472656 C 93.011719 259.472656 92.386719 259.371094 91.761719 259.160156 L 88.6875 258.121094 C 88.53125 258.066406 88.324219 258.015625 88.167969 257.964844 C 87.800781 257.859375 87.488281 257.753906 87.125 257.597656 L 82.59375 255.828125 C 82.4375 255.777344 82.230469 255.671875 82.074219 255.621094 C 81.761719 255.464844 81.394531 255.359375 81.082031 255.203125 L 79.574219 254.527344 C 78.167969 253.902344 77.074219 252.703125 76.550781 251.347656 C 76.082031 250.097656 76.1875 248.746094 76.761719 247.597656 L 81.96875 236.816406 C 83.21875 234.265625 86.136719 233.121094 88.480469 234.160156 L 89.730469 234.734375 C 89.988281 234.839844 90.25 234.941406 90.511719 235.046875 C 90.667969 235.097656 90.824219 235.152344 90.980469 235.253906 L 94.78125 236.765625 C 95.042969 236.871094 95.304688 236.972656 95.5625 237.027344 C 95.71875 237.078125 95.875 237.128906 96.03125 237.183594 L 98.636719 238.066406 C 99.210938 238.277344 99.78125 238.589844 100.25 239.058594 C 100.71875 239.472656 101.085938 239.941406 101.398438 240.515625 C 101.96875 241.714844 102.125 243.066406 101.761719 244.371094 L 98.480469 255.878906 C 98.117188 257.234375 97.179688 258.277344 95.929688 258.953125 C 95.304688 259.265625 94.625 259.472656 93.949219 259.527344 C 93.84375 259.472656 93.742188 259.472656 93.585938 259.472656 Z M 86.761719 234.890625 C 85.300781 234.890625 83.792969 235.828125 83.0625 237.285156 L 77.855469 248.066406 C 77.4375 248.953125 77.332031 249.996094 77.699219 250.933594 C 78.0625 252.027344 78.949219 252.964844 80.09375 253.484375 L 81.550781 254.160156 C 81.863281 254.316406 82.175781 254.421875 82.488281 254.527344 C 82.644531 254.578125 82.855469 254.683594 83.011719 254.734375 L 87.542969 256.503906 C 87.855469 256.609375 88.167969 256.714844 88.53125 256.871094 C 88.6875 256.921875 88.894531 256.972656 89.050781 257.078125 L 92.125 258.121094 C 92.699219 258.328125 93.273438 258.378906 93.84375 258.378906 C 94.417969 258.328125 94.9375 258.171875 95.40625 257.910156 C 96.398438 257.390625 97.074219 256.558594 97.386719 255.566406 L 100.667969 244.058594 C 100.980469 243.015625 100.875 241.972656 100.40625 241.035156 C 100.199219 240.621094 99.886719 240.203125 99.523438 239.890625 C 99.105469 239.527344 98.742188 239.265625 98.273438 239.160156 L 95.667969 238.277344 C 95.511719 238.222656 95.355469 238.171875 95.199219 238.121094 C 94.9375 238.015625 94.625 237.910156 94.367188 237.808594 L 90.5625 236.296875 C 90.40625 236.246094 90.25 236.191406 90.09375 236.140625 C 89.832031 236.035156 89.519531 235.933594 89.261719 235.777344 L 88.011719 235.203125 C 87.644531 234.996094 87.230469 234.890625 86.761719 234.890625 Z M 86.761719 234.890625 " fill-opacity="1" fill-rule="nonzero"/><path fill="#000000" d="M 70.042969 249.058594 C 69.105469 249.058594 68.167969 248.796875 67.230469 248.277344 L 64.417969 246.660156 C 63.792969 246.296875 63.167969 245.878906 62.59375 245.515625 C 62.28125 245.308594 61.96875 245.097656 61.65625 244.941406 L 58.894531 243.171875 C 58.269531 242.753906 57.699219 242.339844 57.125 241.921875 L 56.238281 241.296875 C 55.042969 240.410156 54.207031 239.214844 53.949219 237.808594 C 53.6875 236.402344 54.050781 234.996094 54.886719 233.902344 L 62.175781 224.421875 C 63.011719 223.328125 64.15625 222.648438 65.457031 222.441406 C 66.8125 222.179688 68.0625 222.441406 69.105469 223.171875 C 69.363281 223.378906 69.675781 223.585938 69.9375 223.796875 C 70.40625 224.109375 70.875 224.472656 71.292969 224.785156 L 73.582031 226.246094 C 73.84375 226.402344 74.15625 226.609375 74.417969 226.765625 C 74.886719 227.078125 75.355469 227.390625 75.875 227.703125 L 78.21875 229.058594 C 79.261719 229.628906 80.042969 230.671875 80.40625 232.027344 C 80.769531 233.328125 80.613281 234.683594 79.988281 235.878906 L 74.46875 246.503906 C 73.84375 247.753906 72.699219 248.589844 71.34375 249.003906 C 70.925781 249.003906 70.511719 249.058594 70.042969 249.058594 Z M 66.449219 223.429688 C 66.1875 223.429688 65.925781 223.429688 65.667969 223.484375 C 64.625 223.640625 63.738281 224.214844 63.0625 225.046875 L 55.769531 234.527344 C 55.144531 235.359375 54.886719 236.453125 55.042969 237.546875 C 55.25 238.640625 55.875 239.578125 56.863281 240.308594 L 57.75 240.933594 C 58.324219 241.347656 58.894531 241.765625 59.519531 242.183594 L 62.230469 243.953125 C 62.542969 244.160156 62.855469 244.371094 63.167969 244.527344 C 63.738281 244.890625 64.363281 245.308594 64.988281 245.671875 L 67.800781 247.285156 C 68.894531 247.910156 70.042969 248.066406 71.03125 247.753906 C 72.125 247.441406 72.957031 246.765625 73.480469 245.828125 L 79 235.203125 C 79.46875 234.265625 79.625 233.171875 79.363281 232.183594 C 79.050781 231.140625 78.480469 230.359375 77.699219 229.890625 L 75.300781 228.535156 C 74.78125 228.222656 74.3125 227.910156 73.792969 227.597656 C 73.53125 227.441406 73.21875 227.234375 72.957031 227.078125 L 70.667969 225.621094 C 70.199219 225.308594 69.730469 224.941406 69.261719 224.628906 C 69 224.421875 68.6875 224.214844 68.425781 224.003906 C 67.90625 223.640625 67.175781 223.429688 66.449219 223.429688 Z M 66.449219 223.429688 " fill-opacity="1" fill-rule="nonzero"/><path fill="#000000" d="M 49.050781 234.109375 C 47.75 234.109375 46.394531 233.589844 45.40625 232.703125 C 44.101562 231.609375 42.851562 230.410156 41.65625 229.265625 C 41.289062 228.953125 40.976562 228.589844 40.613281 228.277344 C 39.414062 227.183594 38.320312 226.035156 37.226562 224.890625 C 36.8125 224.472656 36.445312 224.058594 36.03125 223.640625 C 35.507812 223.066406 35.09375 222.492188 34.832031 221.816406 C 34.570312 221.140625 34.46875 220.460938 34.519531 219.734375 C 34.570312 218.328125 35.144531 217.023438 36.1875 216.140625 L 45.25 208.273438 C 46.289062 207.390625 47.539062 206.921875 48.894531 206.972656 C 49.519531 206.972656 50.144531 207.128906 50.71875 207.390625 C 51.292969 207.648438 51.863281 207.960938 52.28125 208.429688 C 52.644531 208.847656 53.0625 209.210938 53.425781 209.628906 C 54.261719 210.515625 55.144531 211.453125 56.082031 212.335938 C 56.449219 212.648438 56.761719 213.015625 57.125 213.328125 C 58.0625 214.265625 59.050781 215.203125 60.09375 216.035156 C 61.03125 216.867188 61.605469 218.066406 61.65625 219.421875 C 61.707031 220.773438 61.292969 222.078125 60.457031 223.066406 L 52.90625 232.339844 C 52.019531 233.433594 50.71875 234.109375 49.3125 234.109375 C 49.207031 234.109375 49.15625 234.109375 49.050781 234.109375 Z M 48.738281 208.066406 C 47.75 208.066406 46.757812 208.429688 45.976562 209.109375 L 36.914062 216.972656 C 36.132812 217.648438 35.664062 218.640625 35.613281 219.734375 C 35.613281 220.304688 35.664062 220.828125 35.875 221.347656 C 36.082031 221.867188 36.394531 222.335938 36.8125 222.804688 C 37.226562 223.222656 37.59375 223.640625 38.007812 224.054688 C 39.050781 225.203125 40.195312 226.347656 41.34375 227.390625 C 41.707031 227.703125 42.070312 228.066406 42.382812 228.378906 C 43.582031 229.527344 44.78125 230.722656 46.082031 231.765625 C 46.96875 232.546875 48.113281 232.964844 49.207031 232.910156 C 50.25 232.859375 51.292969 232.339844 51.917969 231.558594 L 59.46875 222.285156 C 60.144531 221.453125 60.457031 220.460938 60.40625 219.367188 C 60.355469 218.328125 59.9375 217.441406 59.261719 216.816406 C 58.21875 215.929688 57.230469 214.992188 56.238281 214.054688 C 55.925781 213.742188 55.5625 213.429688 55.25 213.066406 C 54.3125 212.179688 53.375 211.242188 52.542969 210.304688 C 52.175781 209.890625 51.8125 209.523438 51.394531 209.109375 C 51.082031 208.742188 50.667969 208.484375 50.199219 208.328125 C 49.730469 208.117188 49.3125 208.015625 48.792969 208.015625 C 48.789062 208.066406 48.789062 208.066406 48.738281 208.066406 Z M 48.738281 208.066406 " fill-opacity="1" fill-rule="nonzero"/><path fill="#000000" d="M 31.445312 215.253906 C 31.289062 215.253906 31.082031 215.253906 30.875 215.203125 C 29.414062 215.046875 28.007812 214.265625 27.070312 213.066406 L 26.550781 212.441406 L 23.21875 207.804688 C 22.382812 206.554688 21.601562 205.304688 20.820312 204.109375 C 20.457031 203.535156 20.039062 202.910156 19.675781 202.335938 C 18.945312 201.140625 18.6875 199.628906 19 198.222656 C 19.3125 196.816406 20.144531 195.722656 21.34375 195.046875 L 31.757812 189.160156 C 34.207031 187.804688 37.28125 188.535156 38.582031 190.722656 C 38.945312 191.296875 39.3125 191.867188 39.726562 192.492188 C 40.300781 193.429688 40.925781 194.367188 41.550781 195.304688 L 44.3125 199.210938 L 44.726562 199.734375 C 46.34375 201.765625 45.875 204.890625 43.6875 206.710938 L 34.414062 214.316406 C 33.6875 214.835938 32.59375 215.253906 31.445312 215.253906 Z M 34.519531 189.523438 C 33.789062 189.523438 33.0625 189.679688 32.4375 190.097656 L 22.019531 195.984375 C 21.082031 196.503906 20.457031 197.390625 20.195312 198.429688 C 19.9375 199.578125 20.144531 200.722656 20.71875 201.710938 C 21.082031 202.285156 21.5 202.910156 21.863281 203.484375 C 22.644531 204.679688 23.425781 205.929688 24.257812 207.128906 L 27.539062 211.765625 L 28.007812 212.390625 C 28.789062 213.378906 29.882812 214.003906 31.03125 214.109375 C 32.070312 214.210938 33.007812 213.953125 33.789062 213.328125 L 43.0625 205.722656 C 44.78125 204.316406 45.144531 201.921875 43.945312 200.359375 L 43.53125 199.835938 L 40.71875 195.929688 C 40.09375 194.992188 39.46875 194.003906 38.84375 193.066406 C 38.476562 192.492188 38.113281 191.867188 37.695312 191.296875 C 37.070312 190.097656 35.820312 189.523438 34.519531 189.523438 Z M 34.519531 189.523438 " fill-opacity="1" fill-rule="nonzero"/><path fill="#000000" d="M 17.957031 193.222656 C 17.4375 193.222656 16.914062 193.117188 16.394531 192.960938 C 14.988281 192.492188 13.789062 191.453125 13.113281 190.097656 C 12.800781 189.421875 12.539062 188.796875 12.226562 188.171875 C 11.601562 186.867188 10.976562 185.460938 10.40625 184.109375 C 10.144531 183.429688 9.882812 182.804688 9.625 182.128906 C 9.101562 180.773438 8.53125 179.367188 8.007812 178.011719 C 7.488281 176.554688 7.59375 174.941406 8.269531 173.636719 C 8.894531 172.441406 9.882812 171.554688 11.132812 171.191406 L 22.539062 167.542969 C 25.25 166.710938 28.113281 168.011719 28.945312 170.460938 C 29.3125 171.503906 29.726562 172.542969 30.144531 173.585938 C 30.40625 174.261719 30.664062 174.886719 30.925781 175.566406 C 31.34375 176.554688 31.8125 177.597656 32.28125 178.585938 C 32.59375 179.210938 32.851562 179.886719 33.164062 180.515625 C 34.3125 182.804688 33.21875 185.773438 30.769531 187.078125 L 20.144531 192.648438 C 19.519531 193.015625 18.738281 193.222656 17.957031 193.222656 Z M 24.3125 168.480469 C 23.894531 168.480469 23.425781 168.535156 22.957031 168.691406 L 11.550781 172.335938 C 10.613281 172.648438 9.832031 173.273438 9.363281 174.210938 C 8.84375 175.253906 8.738281 176.503906 9.15625 177.699219 C 9.625 179.054688 10.195312 180.460938 10.71875 181.765625 C 10.976562 182.441406 11.238281 183.066406 11.5 183.742188 C 12.070312 185.097656 12.695312 186.453125 13.269531 187.753906 C 13.582031 188.378906 13.84375 189.003906 14.15625 189.679688 C 14.675781 190.773438 15.613281 191.609375 16.757812 191.921875 C 17.75 192.234375 18.789062 192.179688 19.675781 191.710938 L 30.300781 186.140625 C 32.226562 185.097656 33.0625 182.859375 32.226562 181.085938 C 31.914062 180.410156 31.65625 179.785156 31.34375 179.160156 C 30.875 178.167969 30.40625 177.128906 29.988281 176.085938 C 29.726562 175.410156 29.46875 174.785156 29.207031 174.105469 C 28.789062 173.066406 28.375 172.023438 28.007812 170.929688 C 27.4375 169.367188 25.976562 168.480469 24.3125 168.480469 Z M 24.3125 168.480469 " fill-opacity="1" fill-rule="nonzero"/><path fill="#000000" d="M 9.15625 168.949219 C 8.269531 168.949219 7.382812 168.691406 6.550781 168.222656 C 5.300781 167.441406 4.414062 166.191406 4.101562 164.835938 L 3.007812 160.097656 C 2.902344 159.730469 2.851562 159.367188 2.800781 159.054688 C 2.746094 158.847656 2.746094 158.691406 2.695312 158.480469 L 2.070312 154.886719 C 1.914062 153.949219 1.707031 153.011719 1.601562 152.023438 C 1.394531 150.511719 1.808594 148.949219 2.746094 147.804688 C 3.582031 146.761719 4.726562 146.136719 6.03125 145.980469 L 17.957031 144.730469 C 20.769531 144.472656 23.320312 146.292969 23.632812 148.898438 C 23.6875 149.628906 23.84375 150.410156 24 151.136719 L 24.570312 154.210938 C 24.625 154.367188 24.625 154.523438 24.675781 154.679688 C 24.726562 154.941406 24.78125 155.253906 24.832031 155.511719 L 25.769531 159.523438 C 26.03125 160.824219 25.820312 162.074219 25.144531 163.167969 C 24.46875 164.316406 23.375 165.148438 22.070312 165.511719 L 10.5625 168.792969 C 10.039062 168.847656 9.570312 168.949219 9.15625 168.949219 Z M 18.476562 145.773438 C 18.320312 145.773438 18.164062 145.773438 18.007812 145.773438 L 6.132812 147.074219 C 5.144531 147.179688 4.257812 147.648438 3.632812 148.480469 C 2.902344 149.417969 2.589844 150.617188 2.746094 151.867188 C 2.851562 152.804688 3.007812 153.742188 3.164062 154.679688 L 3.789062 158.273438 C 3.839844 158.480469 3.839844 158.636719 3.894531 158.847656 C 3.945312 159.160156 3.996094 159.523438 4.101562 159.835938 L 5.195312 164.574219 C 5.40625 165.667969 6.132812 166.660156 7.125 167.230469 C 8.0625 167.804688 9.15625 167.960938 10.144531 167.648438 L 21.65625 164.367188 C 22.695312 164.054688 23.53125 163.429688 24.101562 162.542969 C 24.625 161.710938 24.78125 160.773438 24.570312 159.785156 L 23.632812 155.824219 C 23.582031 155.511719 23.53125 155.253906 23.476562 154.941406 C 23.425781 154.785156 23.425781 154.628906 23.375 154.472656 L 22.800781 151.398438 C 22.644531 150.617188 22.539062 149.835938 22.4375 149.054688 C 22.28125 147.128906 20.507812 145.773438 18.476562 145.773438 Z M 18.476562 145.773438 " fill-opacity="1" fill-rule="nonzero"/><g clip-path="url(#ad9a0d4d22)"><path fill="#000000" d="M 5.457031 143.378906 C 4.207031 143.378906 3.007812 142.910156 2.070312 142.023438 C 1.550781 141.554688 1.132812 140.980469 0.871094 140.355469 C 0.558594 139.730469 0.402344 139.054688 0.402344 138.222656 L 0.300781 134.886719 C 0.246094 133.84375 0.246094 132.75 0.300781 131.65625 L 0.402344 128.429688 C 0.402344 128.117188 0.402344 127.804688 0.402344 127.542969 C 0.402344 126.761719 0.457031 125.980469 0.507812 125.148438 C 0.613281 123.636719 1.339844 122.179688 2.488281 121.242188 C 3.527344 120.40625 4.777344 119.992188 6.082031 120.09375 L 18.007812 121.242188 C 20.820312 121.554688 22.957031 123.84375 22.75 126.449219 C 22.695312 127.074219 22.695312 127.699219 22.644531 128.324219 C 22.644531 128.585938 22.644531 128.84375 22.644531 129.15625 L 22.59375 131.867188 C 22.539062 132.75 22.59375 133.585938 22.59375 134.46875 L 22.644531 137.335938 C 22.644531 137.910156 22.539062 138.535156 22.28125 139.210938 C 22.070312 139.785156 21.707031 140.304688 21.289062 140.773438 C 20.40625 141.761719 19.15625 142.335938 17.800781 142.441406 L 5.875 143.324219 C 5.71875 143.378906 5.5625 143.378906 5.457031 143.378906 Z M 5.5625 121.242188 C 4.726562 121.242188 3.894531 121.554688 3.164062 122.125 C 2.277344 122.855469 1.707031 124 1.601562 125.25 C 1.550781 126.03125 1.496094 126.8125 1.496094 127.542969 C 1.496094 127.855469 1.496094 128.167969 1.496094 128.480469 L 1.394531 131.710938 C 1.339844 132.75 1.394531 133.84375 1.394531 134.886719 L 1.496094 138.222656 C 1.496094 138.898438 1.652344 139.417969 1.863281 139.886719 C 2.121094 140.410156 2.433594 140.824219 2.851562 141.242188 C 3.632812 141.972656 4.675781 142.386719 5.71875 142.285156 L 17.644531 141.398438 C 18.6875 141.292969 19.675781 140.878906 20.40625 140.097656 C 20.71875 139.730469 20.976562 139.316406 21.1875 138.898438 C 21.394531 138.378906 21.445312 137.910156 21.445312 137.492188 L 21.394531 134.625 C 21.34375 133.742188 21.34375 132.855469 21.394531 131.96875 L 21.445312 129.261719 C 21.445312 129 21.445312 128.742188 21.445312 128.480469 C 21.445312 127.855469 21.445312 127.179688 21.550781 126.5 C 21.707031 124.523438 20.039062 122.75 17.851562 122.542969 L 5.925781 121.398438 C 5.820312 121.242188 5.664062 121.242188 5.5625 121.242188 Z M 5.5625 121.242188 " fill-opacity="1" fill-rule="nonzero"/></g><path fill="#000000" d="M 18.894531 119.054688 C 18.6875 119.054688 18.425781 119.054688 18.21875 119 L 6.34375 117.492188 C 4.988281 117.335938 3.738281 116.605469 2.957031 115.40625 C 2.121094 114.210938 1.757812 112.699219 2.070312 111.34375 L 2.695312 107.960938 C 2.851562 106.96875 3.058594 105.929688 3.320312 104.9375 L 4.152344 101.398438 C 4.363281 100.460938 4.570312 99.523438 4.882812 98.585938 C 5.300781 97.125 6.289062 95.875 7.59375 95.148438 C 8.789062 94.523438 10.09375 94.367188 11.34375 94.78125 L 22.800781 98.324219 C 25.507812 99.15625 27.125 101.867188 26.394531 104.367188 C 26.1875 105.09375 25.976562 105.824219 25.820312 106.554688 L 25.09375 109.625 C 24.882812 110.40625 24.726562 111.242188 24.625 112.074219 L 24.101562 114.992188 C 23.84375 116.292969 23.113281 117.386719 22.125 118.0625 C 21.082031 118.742188 19.988281 119.054688 18.894531 119.054688 Z M 9.78125 95.71875 C 9.15625 95.71875 8.582031 95.875 8.007812 96.1875 C 6.96875 96.761719 6.1875 97.75 5.875 98.949219 C 5.613281 99.835938 5.40625 100.773438 5.195312 101.65625 L 4.363281 105.25 C 4.101562 106.242188 3.945312 107.230469 3.789062 108.21875 L 3.164062 111.605469 C 2.957031 112.699219 3.214844 113.84375 3.894531 114.835938 C 4.519531 115.71875 5.457031 116.292969 6.5 116.449219 L 18.375 117.960938 C 19.414062 118.0625 20.457031 117.855469 21.34375 117.230469 C 22.125 116.65625 22.644531 115.824219 22.851562 114.835938 L 23.375 111.917969 C 23.53125 111.085938 23.6875 110.25 23.894531 109.417969 L 24.570312 106.398438 C 24.726562 105.667969 24.9375 104.886719 25.144531 104.105469 C 25.664062 102.230469 24.414062 100.148438 22.28125 99.46875 L 10.820312 95.929688 C 10.507812 95.773438 10.144531 95.71875 9.78125 95.71875 Z M 9.78125 95.71875 " fill-opacity="1" fill-rule="nonzero"/><path fill="#000000" d="M 25.09375 96.5 C 24.519531 96.5 23.894531 96.398438 23.375 96.1875 L 12.019531 92.335938 C 10.71875 91.867188 9.675781 90.925781 9.101562 89.625 C 8.84375 89 8.6875 88.269531 8.632812 87.59375 C 8.632812 86.863281 8.789062 86.136719 9.050781 85.457031 C 9.257812 84.9375 9.46875 84.363281 9.675781 83.84375 C 10.25 82.386719 10.820312 80.875 11.550781 79.417969 C 11.757812 78.949219 11.96875 78.480469 12.175781 78.011719 C 12.851562 76.5 13.53125 74.988281 14.3125 73.53125 C 14.988281 72.230469 16.082031 71.238281 17.382812 70.769531 C 18.6875 70.300781 20.144531 70.40625 21.34375 71.082031 L 31.8125 76.863281 C 32.957031 77.488281 33.84375 78.53125 34.3125 79.832031 C 34.78125 81.082031 34.675781 82.4375 34.101562 83.53125 C 33.476562 84.675781 32.957031 85.875 32.4375 87.074219 C 32.226562 87.542969 32.019531 88.011719 31.8125 88.425781 C 31.238281 89.574219 30.769531 90.769531 30.351562 91.96875 C 30.144531 92.492188 29.9375 92.960938 29.78125 93.480469 C 29.570312 94.054688 29.207031 94.625 28.6875 95.042969 C 28.269531 95.460938 27.75 95.824219 27.175781 96.085938 C 26.550781 96.34375 25.820312 96.5 25.09375 96.5 Z M 19.050781 71.605469 C 18.632812 71.605469 18.21875 71.65625 17.800781 71.8125 C 16.757812 72.175781 15.875 72.957031 15.351562 74 C 14.570312 75.457031 13.894531 76.96875 13.21875 78.425781 C 13.007812 78.894531 12.800781 79.363281 12.59375 79.886719 C 11.914062 81.292969 11.34375 82.800781 10.769531 84.261719 C 10.5625 84.78125 10.351562 85.355469 10.144531 85.875 C 9.9375 86.449219 9.832031 87.019531 9.832031 87.59375 C 9.832031 88.113281 9.988281 88.6875 10.195312 89.15625 C 10.664062 90.144531 11.445312 90.925781 12.4375 91.238281 L 23.789062 95.09375 C 24.78125 95.460938 25.875 95.40625 26.8125 94.992188 C 27.226562 94.78125 27.644531 94.523438 27.957031 94.15625 C 28.320312 93.792969 28.582031 93.429688 28.789062 92.960938 C 29 92.4375 29.207031 91.96875 29.363281 91.449219 C 29.832031 90.25 30.300781 89.050781 30.875 87.855469 C 31.082031 87.386719 31.289062 86.96875 31.5 86.5 C 32.019531 85.300781 32.59375 84.050781 33.21875 82.90625 C 33.632812 82.074219 33.6875 81.082031 33.320312 80.09375 C 32.957031 79.050781 32.28125 78.269531 31.34375 77.75 L 20.820312 72.074219 C 20.300781 71.761719 19.675781 71.605469 19.050781 71.605469 Z M 19.050781 71.605469 " fill-opacity="1" fill-rule="nonzero"/><path fill="#000000" d="M 35.71875 75.667969 C 34.78125 75.667969 33.84375 75.40625 33.007812 74.9375 L 22.695312 68.84375 C 21.5 68.167969 20.664062 66.96875 20.351562 65.613281 C 20.039062 64.261719 20.351562 62.800781 21.132812 61.550781 L 22.90625 58.792969 L 25.40625 55.25 C 25.820312 54.675781 26.238281 54.050781 26.707031 53.480469 L 28.738281 50.925781 C 29.675781 49.730469 30.976562 49 32.332031 48.84375 C 33.738281 48.6875 35.09375 49.050781 36.1875 49.988281 L 45.300781 57.75 C 46.34375 58.636719 46.96875 59.832031 47.125 61.136719 C 47.28125 62.488281 46.96875 63.792969 46.1875 64.730469 L 44.519531 66.863281 L 41.34375 71.292969 L 39.882812 73.582031 C 39.207031 74.625 38.113281 75.355469 36.8125 75.613281 C 36.445312 75.613281 36.082031 75.667969 35.71875 75.667969 Z M 32.957031 49.886719 C 32.800781 49.886719 32.644531 49.886719 32.488281 49.9375 C 31.445312 50.042969 30.40625 50.667969 29.675781 51.605469 L 27.695312 54.15625 C 27.28125 54.730469 26.863281 55.300781 26.445312 55.925781 L 23.945312 59.46875 L 22.226562 62.175781 C 21.601562 63.21875 21.34375 64.363281 21.601562 65.40625 C 21.863281 66.5 22.488281 67.386719 23.375 67.90625 L 33.6875 74 C 34.625 74.519531 35.664062 74.730469 36.65625 74.46875 C 37.695312 74.261719 38.53125 73.6875 39 72.90625 L 40.457031 70.613281 L 43.632812 66.136719 L 45.351562 63.949219 C 45.925781 63.269531 46.132812 62.28125 46.03125 61.1875 C 45.925781 60.144531 45.40625 59.207031 44.570312 58.53125 L 35.457031 50.769531 C 34.726562 50.199219 33.894531 49.886719 32.957031 49.886719 Z M 32.957031 49.886719 " fill-opacity="1" fill-rule="nonzero"/><path fill="#000000" d="M 50.40625 57.386719 C 49.15625 57.386719 47.800781 56.917969 46.757812 55.980469 L 37.851562 47.957031 C 36.863281 47.070312 36.289062 45.875 36.238281 44.570312 C 36.1875 43.113281 36.757812 41.601562 37.800781 40.507812 C 40.71875 37.488281 43.945312 34.46875 47.332031 31.601562 C 48.375 30.664062 49.832031 30.195312 51.292969 30.300781 C 52.699219 30.40625 53.949219 31.082031 54.832031 32.175781 L 62.230469 41.601562 C 63.0625 42.644531 63.480469 44 63.375 45.300781 C 63.269531 46.550781 62.699219 47.75 61.761719 48.582031 C 58.894531 50.980469 56.238281 53.480469 53.792969 56.03125 C 52.90625 56.917969 51.65625 57.386719 50.40625 57.386719 Z M 50.925781 31.394531 C 49.886719 31.394531 48.894531 31.757812 48.164062 32.4375 C 44.78125 35.300781 41.601562 38.269531 38.6875 41.289062 C 37.851562 42.175781 37.382812 43.375 37.4375 44.519531 C 37.488281 45.5625 37.90625 46.445312 38.632812 47.125 L 47.539062 55.144531 C 49.15625 56.605469 51.65625 56.605469 53.011719 55.199219 C 55.457031 52.644531 58.167969 50.144531 61.03125 47.695312 C 61.761719 47.019531 62.175781 46.132812 62.28125 45.144531 C 62.332031 44.101562 62.019531 43.0625 61.394531 42.226562 L 54 32.800781 C 53.324219 31.96875 52.386719 31.445312 51.292969 31.394531 C 51.136719 31.394531 51.03125 31.394531 50.925781 31.394531 Z M 50.925781 31.394531 " fill-opacity="1" fill-rule="nonzero"/><path fill="#000000" d="M 68.269531 42.382812 C 66.707031 42.382812 65.042969 41.601562 64 40.195312 L 56.917969 30.5625 C 56.136719 29.519531 55.824219 28.21875 56.03125 26.914062 C 56.238281 25.457031 57.125 24.101562 58.375 23.21875 C 59.625 22.382812 60.925781 21.550781 62.125 20.769531 C 62.699219 20.40625 63.269531 20.039062 63.84375 19.675781 C 65.199219 18.894531 66.5 18.113281 67.800781 17.382812 C 68.375 17.070312 68.949219 16.757812 69.46875 16.394531 C 70.875 15.664062 72.4375 15.507812 73.84375 15.976562 C 75.144531 16.394531 76.136719 17.28125 76.707031 18.425781 L 82.019531 29.15625 C 83.269531 31.707031 82.386719 34.726562 80.09375 35.875 C 79.46875 36.238281 78.792969 36.601562 78.167969 37.019531 C 77.230469 37.539062 76.292969 38.0625 75.40625 38.632812 C 74.832031 39 74.207031 39.414062 73.582031 39.78125 C 72.644531 40.351562 71.707031 40.976562 70.824219 41.550781 C 70.144531 42.125 69.207031 42.382812 68.269531 42.382812 Z M 72.230469 16.863281 C 71.5 16.863281 70.769531 17.019531 70.09375 17.382812 C 69.574219 17.695312 69 18.007812 68.425781 18.320312 C 67.125 19.050781 65.769531 19.832031 64.46875 20.613281 C 63.894531 20.976562 63.324219 21.34375 62.75 21.707031 C 61.5 22.488281 60.25 23.320312 59 24.101562 C 58.011719 24.832031 57.332031 25.875 57.125 27.019531 C 56.96875 28.007812 57.175781 29.050781 57.800781 29.832031 L 64.886719 39.46875 C 66.1875 41.238281 68.582031 41.757812 70.199219 40.613281 C 71.136719 39.988281 72.074219 39.363281 73.011719 38.789062 C 73.636719 38.425781 74.207031 38.007812 74.832031 37.644531 C 75.769531 37.070312 76.707031 36.550781 77.644531 36.03125 C 78.269531 35.664062 78.949219 35.300781 79.574219 34.882812 C 81.34375 34 81.96875 31.601562 80.980469 29.675781 L 75.71875 18.945312 C 75.300781 18.0625 74.519531 17.382812 73.53125 17.070312 C 73.113281 16.914062 72.644531 16.863281 72.230469 16.863281 Z M 72.230469 16.863281 " fill-opacity="1" fill-rule="nonzero"/><path fill="#000000" d="M 88.738281 31.289062 C 88.738281 31.289062 88.6875 31.289062 88.6875 31.289062 C 88.0625 31.289062 87.4375 31.132812 86.863281 30.875 C 85.667969 30.351562 84.675781 29.414062 84.105469 28.164062 L 79.105469 17.28125 C 78.53125 16.03125 78.53125 14.625 79.050781 13.320312 C 79.3125 12.695312 79.730469 12.125 80.199219 11.601562 C 80.769531 11.03125 81.34375 10.613281 82.019531 10.351562 L 87.332031 8.269531 L 93.53125 6.1875 L 94.3125 5.976562 C 95.824219 5.5625 97.386719 5.71875 98.636719 6.445312 C 99.78125 7.125 100.617188 8.164062 100.929688 9.414062 L 104 21.03125 C 104.679688 23.789062 103.273438 26.550781 100.773438 27.28125 L 100.09375 27.488281 L 94.9375 29.207031 L 90.511719 30.976562 C 89.886719 31.1875 89.3125 31.289062 88.738281 31.289062 Z M 95.929688 6.914062 C 95.511719 6.914062 95.042969 6.96875 94.625 7.125 L 93.84375 7.332031 L 87.699219 9.414062 L 82.4375 11.5 C 81.917969 11.707031 81.449219 12.019531 81.03125 12.4375 C 80.613281 12.851562 80.355469 13.320312 80.09375 13.789062 C 79.675781 14.78125 79.675781 15.875 80.144531 16.863281 L 85.144531 27.75 C 85.613281 28.6875 86.34375 29.46875 87.332031 29.882812 C 87.800781 30.09375 88.269531 30.195312 88.738281 30.195312 C 89.207031 30.195312 89.625 30.09375 90.144531 29.9375 L 94.574219 28.164062 L 99.78125 26.394531 L 100.460938 26.1875 C 102.335938 25.664062 103.429688 23.476562 102.90625 21.34375 L 99.835938 9.78125 C 99.574219 8.84375 98.949219 8.007812 98.0625 7.488281 C 97.4375 7.070312 96.710938 6.914062 95.929688 6.914062 Z M 95.929688 6.914062 " fill-opacity="1" fill-rule="nonzero"/><g clip-path="url(#b178c9a53a)"><path fill="#000000" d="M 111.136719 24.570312 C 110.148438 24.570312 109.15625 24.257812 108.324219 23.6875 C 107.230469 22.957031 106.449219 21.8125 106.136719 20.507812 L 103.429688 8.84375 C 103.117188 7.488281 103.375 6.082031 104.210938 4.9375 C 105.042969 3.738281 106.292969 2.902344 107.75 2.695312 L 112.542969 1.863281 C 112.90625 1.808594 113.273438 1.757812 113.636719 1.707031 C 113.84375 1.707031 114 1.652344 114.210938 1.652344 L 117.75 1.183594 C 118.742188 1.082031 119.730469 0.925781 120.71875 0.871094 C 122.230469 0.769531 123.742188 1.238281 124.886719 2.226562 C 125.875 3.113281 126.449219 4.3125 126.554688 5.613281 L 127.230469 17.59375 C 127.386719 20.40625 125.355469 22.851562 122.804688 23.0625 C 122.023438 23.113281 121.1875 23.21875 120.460938 23.320312 L 117.4375 23.6875 C 117.28125 23.6875 117.125 23.738281 116.96875 23.738281 C 116.710938 23.789062 116.398438 23.789062 116.136719 23.84375 L 112.125 24.570312 C 111.65625 24.570312 111.398438 24.570312 111.136719 24.570312 Z M 121.136719 1.964844 C 121.03125 1.964844 120.875 1.964844 120.773438 1.964844 C 119.78125 2.019531 118.792969 2.175781 117.855469 2.277344 L 114.3125 2.746094 C 114.105469 2.746094 113.949219 2.800781 113.742188 2.800781 C 113.375 2.851562 113.0625 2.902344 112.699219 2.957031 L 107.90625 3.789062 C 106.8125 3.945312 105.773438 4.625 105.148438 5.5625 C 104.523438 6.445312 104.3125 7.539062 104.574219 8.582031 L 107.28125 20.25 C 107.542969 21.289062 108.117188 22.175781 109 22.75 C 109.78125 23.320312 110.773438 23.53125 111.761719 23.375 L 115.773438 22.644531 C 116.085938 22.59375 116.398438 22.539062 116.65625 22.539062 C 116.8125 22.539062 116.96875 22.488281 117.125 22.488281 L 120.148438 22.125 C 120.929688 22.019531 121.761719 21.914062 122.59375 21.863281 C 124.574219 21.707031 126.085938 19.78125 125.980469 17.59375 L 125.304688 5.613281 C 125.25 4.625 124.78125 3.6875 124.054688 3.007812 C 123.324219 2.332031 122.230469 1.964844 121.136719 1.964844 Z M 121.136719 1.964844 " fill-opacity="1" fill-rule="nonzero"/></g><g clip-path="url(#d12b01294b)"><path fill="#000000" d="M 145.667969 23.21875 C 145.460938 23.21875 145.304688 23.21875 145.097656 23.164062 C 144.472656 23.0625 143.898438 23.007812 143.273438 23.007812 C 143.011719 23.007812 142.699219 22.957031 142.441406 22.957031 L 139.730469 22.75 C 139.003906 22.695312 138.222656 22.644531 137.492188 22.644531 L 134.261719 22.539062 C 132.960938 22.488281 131.761719 21.96875 130.875 21.03125 C 129.9375 20.09375 129.417969 18.789062 129.417969 17.4375 L 129.105469 5.457031 C 129.054688 4.050781 129.625 2.746094 130.617188 1.757812 C 131.65625 0.714844 133.0625 0.195312 134.523438 0.246094 L 138.273438 0.351562 C 139.160156 0.351562 140.148438 0.402344 141.035156 0.507812 L 144.261719 0.769531 C 144.574219 0.820312 144.886719 0.820312 145.199219 0.820312 C 145.980469 0.871094 146.761719 0.925781 147.542969 1.027344 C 149.054688 1.238281 150.460938 2.019531 151.347656 3.164062 C 152.128906 4.207031 152.492188 5.507812 152.285156 6.8125 L 150.566406 18.632812 C 150.148438 21.289062 148.011719 23.21875 145.667969 23.21875 Z M 145.253906 22.019531 C 147.230469 22.28125 149.054688 20.71875 149.417969 18.53125 L 151.136719 6.707031 C 151.292969 5.71875 151.035156 4.726562 150.410156 3.945312 C 149.730469 3.007812 148.585938 2.382812 147.386719 2.226562 C 146.660156 2.121094 145.878906 2.070312 145.148438 2.019531 C 144.835938 2.019531 144.523438 1.964844 144.210938 1.964844 L 140.980469 1.707031 C 140.097656 1.601562 139.160156 1.601562 138.273438 1.601562 L 134.523438 1.496094 C 133.429688 1.445312 132.28125 1.863281 131.449219 2.695312 C 130.667969 3.476562 130.25 4.46875 130.25 5.507812 L 130.5625 17.488281 C 130.617188 18.53125 130.980469 19.570312 131.710938 20.300781 C 132.386719 21.03125 133.273438 21.394531 134.3125 21.445312 L 137.492188 21.550781 C 138.222656 21.550781 139.003906 21.601562 139.785156 21.65625 L 142.492188 21.863281 C 142.753906 21.863281 143.066406 21.914062 143.324219 21.914062 C 143.949219 21.863281 144.574219 21.914062 145.253906 22.019531 Z M 145.253906 22.019531 " fill-opacity="1" fill-rule="nonzero"/></g><path fill="#000000" d="M 168.378906 28.0625 C 167.910156 28.0625 167.441406 28.007812 166.972656 27.851562 C 166.816406 27.800781 166.660156 27.75 166.503906 27.695312 C 166.242188 27.59375 165.980469 27.488281 165.722656 27.4375 L 161.761719 26.34375 C 161.605469 26.289062 161.449219 26.238281 161.292969 26.1875 C 161.035156 26.082031 160.773438 26.03125 160.460938 25.976562 L 156.449219 25.039062 C 155.199219 24.726562 154.160156 23.945312 153.480469 22.90625 C 152.753906 21.757812 152.492188 20.457031 152.753906 19.101562 L 154.835938 7.332031 C 155.097656 5.976562 155.878906 4.78125 157.074219 4.050781 C 158.324219 3.269531 159.835938 3.007812 161.191406 3.371094 L 165.929688 4.46875 C 166.292969 4.570312 166.660156 4.675781 166.972656 4.78125 C 167.128906 4.832031 167.335938 4.882812 167.492188 4.9375 L 172.179688 6.289062 C 172.542969 6.394531 172.855469 6.5 173.222656 6.601562 C 173.378906 6.65625 173.585938 6.707031 173.742188 6.757812 C 175.199219 7.28125 176.398438 8.320312 177.023438 9.625 C 177.597656 10.820312 177.648438 12.175781 177.230469 13.375 L 173.117188 24.625 C 172.386719 26.707031 170.410156 28.0625 168.378906 28.0625 Z M 159.941406 4.257812 C 159.160156 4.257812 158.378906 4.46875 157.648438 4.9375 C 156.710938 5.507812 156.085938 6.445312 155.929688 7.488281 L 153.847656 19.257812 C 153.636719 20.300781 153.847656 21.34375 154.417969 22.226562 C 154.941406 23.0625 155.722656 23.632812 156.710938 23.894531 L 160.667969 24.832031 C 160.980469 24.882812 161.242188 24.988281 161.554688 25.09375 C 161.710938 25.144531 161.867188 25.195312 162.023438 25.25 L 165.980469 26.34375 C 166.292969 26.445312 166.554688 26.550781 166.867188 26.601562 C 167.023438 26.65625 167.179688 26.707031 167.335938 26.757812 C 169.210938 27.382812 171.347656 26.238281 172.128906 24.15625 L 176.242188 12.90625 C 176.605469 11.96875 176.554688 10.976562 176.085938 10.039062 C 175.566406 9 174.628906 8.164062 173.429688 7.75 C 173.273438 7.695312 173.066406 7.644531 172.910156 7.59375 C 172.597656 7.488281 172.230469 7.382812 171.917969 7.28125 L 167.230469 5.925781 C 167.074219 5.875 166.867188 5.820312 166.710938 5.769531 C 166.398438 5.664062 166.035156 5.5625 165.722656 5.507812 L 160.980469 4.414062 C 160.617188 4.3125 160.253906 4.257812 159.941406 4.257812 Z M 159.941406 4.257812 " fill-opacity="1" fill-rule="nonzero"/><path fill="#000000" d="M 189.628906 37.4375 C 188.847656 37.4375 188.066406 37.226562 187.390625 36.863281 L 185.617188 35.820312 L 182.597656 34.257812 C 181.347656 33.582031 180.042969 33.007812 178.742188 32.4375 C 178.378906 32.28125 178.011719 32.125 177.648438 31.96875 C 177.074219 31.707031 176.554688 31.34375 176.136719 30.820312 C 175.667969 30.300781 175.355469 29.78125 175.199219 29.257812 C 174.730469 28.007812 174.730469 26.65625 175.253906 25.40625 L 179.679688 14.257812 C 180.203125 12.957031 181.191406 11.96875 182.546875 11.5 C 183.273438 11.238281 183.953125 11.132812 184.628906 11.132812 C 185.359375 11.1875 186.035156 11.34375 186.710938 11.65625 L 187.753906 12.125 C 189.367188 12.851562 191.035156 13.582031 192.648438 14.46875 L 196.242188 16.34375 L 198.378906 17.59375 C 199.628906 18.320312 200.566406 19.519531 200.984375 20.820312 C 201.398438 22.175781 201.191406 23.582031 200.460938 24.78125 L 194.160156 34.988281 C 193.484375 36.132812 192.390625 36.914062 191.085938 37.332031 C 190.617188 37.332031 190.097656 37.4375 189.628906 37.4375 Z M 187.960938 35.820312 C 188.796875 36.289062 189.785156 36.394531 190.773438 36.082031 C 191.816406 35.769531 192.648438 35.144531 193.222656 34.257812 L 199.523438 24.050781 C 200.097656 23.164062 200.253906 22.019531 199.941406 21.03125 C 199.628906 19.988281 198.847656 19.050781 197.859375 18.476562 L 195.722656 17.28125 L 192.128906 15.457031 C 190.566406 14.625 188.898438 13.894531 187.335938 13.164062 L 186.296875 12.695312 C 185.773438 12.4375 185.203125 12.332031 184.628906 12.28125 C 184.109375 12.28125 183.585938 12.332031 183.015625 12.539062 C 181.972656 12.957031 181.191406 13.6875 180.824219 14.675781 L 176.398438 25.820312 C 175.980469 26.8125 175.980469 27.90625 176.347656 28.84375 C 176.503906 29.257812 176.761719 29.675781 177.128906 30.09375 C 177.441406 30.457031 177.804688 30.769531 178.273438 30.925781 C 178.636719 31.082031 179.003906 31.238281 179.367188 31.394531 C 180.667969 31.96875 181.972656 32.59375 183.273438 33.269531 L 186.296875 34.832031 Z M 187.960938 35.820312 " fill-opacity="1" fill-rule="nonzero"/><path fill="#000000" d="M 208.742188 50.875 C 207.648438 50.875 206.503906 50.511719 205.617188 49.78125 L 203.535156 47.957031 C 203.117188 47.59375 202.648438 47.226562 202.179688 46.863281 C 201.921875 46.65625 201.660156 46.445312 201.398438 46.238281 L 199.265625 44.570312 C 198.796875 44.207031 198.328125 43.894531 197.910156 43.582031 C 197.648438 43.375 197.335938 43.21875 197.078125 43.007812 C 196.035156 42.28125 195.410156 41.132812 195.203125 39.832031 C 194.992188 38.53125 195.253906 37.226562 196.035156 36.082031 L 202.648438 26.082031 C 203.429688 24.9375 204.628906 24.15625 206.035156 23.945312 C 207.390625 23.738281 208.898438 24.101562 210.046875 24.9375 C 210.359375 25.144531 210.671875 25.351562 210.929688 25.5625 C 211.503906 25.976562 212.128906 26.394531 212.703125 26.8125 L 215.253906 28.84375 C 215.566406 29.101562 215.828125 29.3125 216.140625 29.519531 C 216.710938 29.9375 217.285156 30.40625 217.804688 30.875 L 220.253906 33.007812 C 221.398438 33.945312 222.078125 35.351562 222.179688 36.8125 C 222.234375 38.164062 221.765625 39.519531 220.878906 40.507812 L 212.648438 49.207031 C 211.609375 50.300781 210.148438 50.875 208.742188 50.875 Z M 206.398438 48.894531 C 207.960938 50.199219 210.359375 49.988281 211.816406 48.425781 L 220.046875 39.726562 C 220.773438 39 221.140625 37.957031 221.035156 36.914062 C 220.984375 35.769531 220.410156 34.675781 219.523438 33.945312 L 217.078125 31.8125 C 216.554688 31.34375 215.984375 30.925781 215.460938 30.507812 C 215.148438 30.300781 214.890625 30.039062 214.578125 29.832031 L 212.023438 27.851562 C 211.453125 27.4375 210.878906 27.019531 210.304688 26.601562 C 209.992188 26.394531 209.679688 26.1875 209.421875 25.976562 C 208.484375 25.300781 207.285156 24.988281 206.242188 25.144531 C 205.148438 25.300781 204.210938 25.925781 203.640625 26.8125 L 197.023438 36.8125 C 196.453125 37.695312 196.191406 38.738281 196.398438 39.78125 C 196.554688 40.820312 197.078125 41.707031 197.804688 42.226562 C 198.066406 42.4375 198.328125 42.59375 198.640625 42.800781 C 199.109375 43.113281 199.578125 43.476562 200.046875 43.84375 L 202.179688 45.5625 C 202.441406 45.769531 202.703125 45.976562 202.960938 46.1875 C 203.429688 46.550781 203.898438 46.914062 204.316406 47.28125 Z M 206.398438 48.894531 " fill-opacity="1" fill-rule="nonzero"/><path fill="#000000" d="M 224.785156 67.957031 C 224.578125 67.957031 224.367188 67.957031 224.109375 67.90625 C 222.859375 67.75 221.765625 67.125 220.929688 66.136719 L 218.378906 62.90625 C 218.222656 62.699219 218.015625 62.488281 217.859375 62.28125 C 217.753906 62.175781 217.648438 62.019531 217.546875 61.917969 L 214.890625 58.792969 C 214.734375 58.582031 214.523438 58.375 214.316406 58.167969 L 213.953125 57.800781 C 212.179688 55.925781 212.335938 52.800781 214.316406 50.769531 L 222.804688 42.28125 C 223.691406 41.34375 224.941406 40.875 226.296875 40.875 C 227.753906 40.875 229.214844 41.550781 230.308594 42.644531 L 230.671875 43.0625 C 230.933594 43.320312 231.191406 43.582031 231.402344 43.84375 L 234.628906 47.539062 C 234.734375 47.695312 234.890625 47.851562 234.996094 47.957031 C 235.253906 48.21875 235.464844 48.476562 235.671875 48.789062 L 238.691406 52.644531 C 239.578125 53.738281 239.996094 55.199219 239.785156 56.65625 C 239.628906 58.0625 238.902344 59.3125 237.753906 60.09375 L 227.964844 66.96875 C 226.972656 67.59375 225.878906 67.957031 224.785156 67.957031 Z M 221.816406 65.40625 C 222.492188 66.1875 223.328125 66.65625 224.265625 66.761719 C 225.308594 66.917969 226.347656 66.605469 227.234375 66.03125 L 237.027344 59.15625 C 237.910156 58.53125 238.433594 57.59375 238.589844 56.5 C 238.746094 55.355469 238.433594 54.15625 237.703125 53.324219 L 234.683594 49.46875 C 234.472656 49.207031 234.265625 48.949219 234.003906 48.6875 C 233.902344 48.53125 233.746094 48.375 233.640625 48.269531 L 230.464844 44.570312 C 230.253906 44.3125 229.996094 44.050781 229.734375 43.789062 L 229.371094 43.375 C 228.535156 42.488281 227.339844 41.96875 226.191406 41.96875 C 226.191406 41.96875 226.191406 41.96875 226.140625 41.96875 C 225.152344 41.96875 224.210938 42.332031 223.535156 43.0625 L 215.046875 51.550781 C 213.484375 53.113281 213.328125 55.5625 214.734375 57.019531 L 215.097656 57.386719 C 215.304688 57.59375 215.515625 57.800781 215.722656 58.011719 L 218.429688 61.136719 C 218.535156 61.238281 218.640625 61.394531 218.742188 61.5 C 218.953125 61.707031 219.160156 61.96875 219.316406 62.175781 Z M 221.816406 65.40625 " fill-opacity="1" fill-rule="nonzero"/><path fill="#000000" d="M 237.078125 87.855469 C 235.152344 87.855469 233.378906 86.863281 232.652344 85.144531 L 230.152344 80.300781 L 227.441406 75.613281 C 226.035156 73.480469 226.816406 70.40625 229.160156 68.84375 L 239.160156 62.230469 C 240.253906 61.5 241.558594 61.238281 242.859375 61.550781 C 244.316406 61.863281 245.621094 62.75 246.453125 64.050781 L 249.734375 69.730469 L 252.703125 75.5625 C 253.328125 76.96875 253.433594 78.582031 252.859375 79.9375 C 252.390625 81.1875 251.453125 82.175781 250.253906 82.644531 L 239.265625 87.4375 C 238.535156 87.699219 237.808594 87.855469 237.078125 87.855469 Z M 241.816406 62.542969 C 241.089844 62.542969 240.410156 62.75 239.785156 63.167969 L 229.785156 69.78125 C 227.964844 71.03125 227.339844 73.375 228.378906 75.042969 L 231.140625 79.78125 L 233.640625 84.675781 C 234.421875 86.449219 236.765625 87.230469 238.796875 86.34375 L 249.785156 81.550781 C 250.671875 81.1875 251.402344 80.40625 251.765625 79.46875 C 252.183594 78.375 252.128906 77.125 251.609375 75.980469 L 248.640625 70.199219 L 245.410156 64.574219 C 244.734375 63.53125 243.746094 62.800781 242.597656 62.59375 C 242.339844 62.542969 242.078125 62.542969 241.816406 62.542969 Z M 241.816406 62.542969 " fill-opacity="1" fill-rule="nonzero"/><path fill="#000000" d="M 245.152344 109.835938 C 242.808594 109.835938 240.671875 108.324219 240.203125 106.1875 C 240.097656 105.5625 239.890625 104.992188 239.734375 104.367188 C 239.683594 104.105469 239.578125 103.84375 239.527344 103.585938 L 238.796875 100.980469 C 238.640625 100.355469 238.433594 99.78125 238.222656 99.15625 C 238.121094 98.898438 238.066406 98.636719 237.964844 98.375 L 237.078125 95.773438 C 236.972656 95.460938 236.921875 95.148438 236.871094 94.835938 C 236.816406 94.574219 236.816406 94.210938 236.816406 93.898438 C 236.871094 93.273438 237.027344 92.699219 237.285156 92.074219 C 237.859375 90.875 238.902344 89.9375 240.097656 89.417969 L 251.191406 84.9375 C 252.496094 84.417969 253.902344 84.46875 255.152344 85.09375 C 255.777344 85.40625 256.347656 85.824219 256.816406 86.34375 C 257.078125 86.605469 257.285156 86.917969 257.496094 87.175781 C 257.703125 87.542969 257.859375 87.855469 257.964844 88.21875 L 259.003906 91.292969 C 259.109375 91.605469 259.214844 91.867188 259.316406 92.125 C 259.578125 92.855469 259.839844 93.636719 260.046875 94.417969 L 260.933594 97.542969 C 261.035156 97.855469 261.089844 98.117188 261.191406 98.429688 C 261.402344 99.15625 261.609375 99.9375 261.816406 100.71875 C 262.183594 102.230469 261.921875 103.792969 261.089844 105.042969 C 260.359375 106.1875 259.265625 106.917969 258.015625 107.179688 L 246.296875 109.625 C 245.878906 109.78125 245.515625 109.835938 245.152344 109.835938 Z M 241.296875 105.929688 C 241.765625 107.855469 243.847656 109.054688 246.035156 108.636719 L 257.753906 106.1875 C 258.746094 105.980469 259.578125 105.40625 260.097656 104.574219 C 260.722656 103.585938 260.933594 102.335938 260.671875 101.136719 C 260.515625 100.40625 260.308594 99.625 260.097656 98.898438 C 259.996094 98.585938 259.941406 98.324219 259.839844 98.011719 L 258.953125 94.886719 C 258.746094 94.15625 258.484375 93.375 258.277344 92.648438 C 258.171875 92.386719 258.066406 92.074219 257.964844 91.761719 L 256.921875 88.6875 C 256.816406 88.425781 256.714844 88.113281 256.558594 87.855469 C 256.402344 87.644531 256.246094 87.386719 256.035156 87.175781 C 255.671875 86.761719 255.203125 86.449219 254.734375 86.1875 C 253.746094 85.71875 252.652344 85.667969 251.660156 86.082031 L 240.566406 90.5625 C 239.578125 90.980469 238.796875 91.710938 238.328125 92.648438 C 238.121094 93.117188 237.964844 93.53125 237.964844 94 C 237.964844 94.210938 237.964844 94.46875 238.015625 94.679688 C 238.066406 94.9375 238.121094 95.199219 238.171875 95.40625 L 239.058594 98.011719 C 239.160156 98.273438 239.214844 98.53125 239.316406 98.742188 C 239.527344 99.367188 239.734375 99.992188 239.890625 100.617188 L 240.621094 103.21875 C 240.671875 103.480469 240.777344 103.742188 240.828125 104 C 240.984375 104.625 241.140625 105.25 241.296875 105.929688 Z M 241.296875 105.929688 " fill-opacity="1" fill-rule="nonzero"/><g clip-path="url(#a735cfc14e)"><path fill="#000000" d="M 248.589844 133.011719 C 245.777344 133.011719 243.433594 130.875 243.328125 128.324219 C 243.328125 127.59375 243.277344 126.8125 243.222656 126.03125 L 242.964844 122.90625 C 242.964844 122.75 242.964844 122.59375 242.910156 122.386719 C 242.910156 122.125 242.859375 121.8125 242.859375 121.554688 L 242.339844 117.492188 C 242.234375 116.917969 242.285156 116.292969 242.496094 115.617188 C 242.652344 115.042969 242.910156 114.46875 243.328125 113.949219 C 244.109375 112.90625 245.308594 112.179688 246.609375 111.96875 L 258.378906 109.835938 C 259.734375 109.574219 261.140625 109.9375 262.234375 110.773438 C 262.808594 111.1875 263.277344 111.710938 263.640625 112.335938 C 264.003906 112.90625 264.214844 113.585938 264.316406 114.417969 L 264.941406 119.261719 C 264.996094 119.625 264.996094 119.992188 265.046875 120.355469 C 265.046875 120.5625 265.097656 120.71875 265.097656 120.929688 L 265.359375 124.574219 C 265.410156 125.511719 265.515625 126.5 265.515625 127.4375 C 265.566406 128.949219 264.996094 130.460938 263.953125 131.5 C 263.015625 132.4375 261.816406 132.960938 260.515625 132.960938 Z M 244.472656 128.273438 C 244.527344 130.25 246.347656 131.867188 248.589844 131.867188 L 260.566406 131.8125 C 261.558594 131.8125 262.496094 131.398438 263.222656 130.667969 C 264.058594 129.835938 264.472656 128.636719 264.472656 127.4375 C 264.472656 126.5 264.371094 125.5625 264.316406 124.625 L 264.058594 120.980469 C 264.058594 120.773438 264.003906 120.617188 264.003906 120.40625 C 264.003906 120.042969 263.953125 119.730469 263.902344 119.367188 L 263.277344 114.523438 C 263.171875 113.898438 263.015625 113.324219 262.753906 112.90625 C 262.441406 112.4375 262.078125 112.023438 261.660156 111.65625 C 260.777344 110.980469 259.734375 110.71875 258.691406 110.929688 L 246.921875 113.0625 C 245.878906 113.273438 244.941406 113.792969 244.316406 114.625 C 244.003906 115.042969 243.796875 115.460938 243.691406 115.875 C 243.535156 116.398438 243.484375 116.867188 243.589844 117.335938 L 244.109375 121.398438 C 244.160156 121.710938 244.160156 122.023438 244.160156 122.28125 C 244.160156 122.4375 244.160156 122.59375 244.214844 122.75 L 244.472656 125.875 C 244.421875 126.710938 244.472656 127.492188 244.472656 128.273438 Z M 244.472656 128.273438 " fill-opacity="1" fill-rule="nonzero"/></g><g transform="matrix(1, 0, 0, 1, 60, 108)"><g clip-path="url(#e6e7604767)"><g fill="#000000" fill-opacity="1"><g transform="translate(2.618943, 18.330809)"><g><path d="M 1.421875 0 L 1.421875 -12.921875 L 2.84375 -12.921875 L 2.84375 -7.140625 L 10.359375 -7.140625 L 10.359375 -12.921875 L 11.765625 -12.921875 L 11.765625 0 L 10.359375 0 L 10.359375 -5.875 L 2.84375 -5.875 L 2.84375 0 Z M 1.421875 0 "/></g></g></g><g fill="#000000" fill-opacity="1"><g transform="translate(15.810547, 18.330809)"><g><path d="M 0.078125 0 L 5.4375 -12.921875 L 7.15625 -12.921875 L 12.453125 0 L 10.90625 0 L 9.28125 -4.0625 L 3.1875 -4.0625 L 1.546875 0 Z M 3.6875 -5.28125 L 8.78125 -5.28125 L 6.25 -11.59375 Z M 3.6875 -5.28125 "/></g></g></g><g fill="#000000" fill-opacity="1"><g transform="translate(28.337964, 18.330809)"><g><path d="M 1.421875 -12.921875 L 6.65625 -12.921875 C 7.90625 -12.921875 8.894531 -12.617188 9.625 -12.015625 C 10.363281 -11.410156 10.734375 -10.601562 10.734375 -9.59375 C 10.734375 -8.925781 10.554688 -8.347656 10.203125 -7.859375 C 9.859375 -7.367188 9.378906 -6.992188 8.765625 -6.734375 C 9.535156 -6.503906 10.144531 -6.113281 10.59375 -5.5625 C 11.050781 -5.019531 11.28125 -4.378906 11.28125 -3.640625 C 11.28125 -2.523438 10.875 -1.640625 10.0625 -0.984375 C 9.257812 -0.328125 8.203125 0 6.890625 0 L 1.421875 0 Z M 6.59375 -11.6875 L 2.84375 -11.6875 L 2.84375 -7.28125 L 6.59375 -7.28125 C 7.425781 -7.28125 8.09375 -7.476562 8.59375 -7.875 C 9.09375 -8.28125 9.34375 -8.816406 9.34375 -9.484375 C 9.34375 -10.148438 9.09375 -10.679688 8.59375 -11.078125 C 8.09375 -11.484375 7.425781 -11.6875 6.59375 -11.6875 Z M 6.765625 -1.234375 C 7.691406 -1.234375 8.429688 -1.453125 8.984375 -1.890625 C 9.546875 -2.335938 9.828125 -2.929688 9.828125 -3.671875 C 9.828125 -4.410156 9.546875 -5 8.984375 -5.4375 C 8.429688 -5.882812 7.691406 -6.109375 6.765625 -6.109375 L 2.84375 -6.109375 L 2.84375 -1.234375 Z M 6.765625 -1.234375 "/></g></g></g><g fill="#000000" fill-opacity="1"><g transform="translate(40.459482, 18.330809)"><g><path d="M 1.421875 0 L 1.421875 -12.921875 L 2.84375 -12.921875 L 2.84375 0 Z M 1.421875 0 "/></g></g></g><g fill="#000000" fill-opacity="1"><g transform="translate(44.721387, 18.330809)"><g><path d="M 0.3125 -11.640625 L 0.3125 -12.921875 L 11.078125 -12.921875 L 11.078125 -11.640625 L 6.40625 -11.640625 L 6.40625 0 L 4.984375 0 L 4.984375 -11.640625 Z M 0.3125 -11.640625 "/></g></g></g><g fill="#000000" fill-opacity="1"><g transform="translate(56.104917, 18.330809)"><g/></g></g><g fill="#000000" fill-opacity="1"><g transform="translate(60.071623, 18.330809)"><g><path d="M 0.3125 -11.640625 L 0.3125 -12.921875 L 11.078125 -12.921875 L 11.078125 -11.640625 L 6.40625 -11.640625 L 6.40625 0 L 4.984375 0 L 4.984375 -11.640625 Z M 0.3125 -11.640625 "/></g></g></g><g fill="#000000" fill-opacity="1"><g transform="translate(71.455153, 18.330809)"><g><path d="M 1.421875 0 L 1.421875 -12.921875 L 6.953125 -12.921875 C 8.210938 -12.921875 9.226562 -12.578125 10 -11.890625 C 10.78125 -11.210938 11.171875 -10.316406 11.171875 -9.203125 C 11.171875 -8.359375 10.921875 -7.628906 10.421875 -7.015625 C 9.921875 -6.398438 9.253906 -5.972656 8.421875 -5.734375 L 11.3125 0 L 9.75 0 L 6.96875 -5.546875 L 2.84375 -5.546875 L 2.84375 0 Z M 6.859375 -11.640625 L 2.84375 -11.640625 L 2.84375 -6.75 L 6.859375 -6.75 C 7.722656 -6.75 8.421875 -6.972656 8.953125 -7.421875 C 9.484375 -7.867188 9.75 -8.460938 9.75 -9.203125 C 9.75 -9.941406 9.484375 -10.53125 8.953125 -10.96875 C 8.421875 -11.414062 7.722656 -11.640625 6.859375 -11.640625 Z M 6.859375 -11.640625 "/></g></g></g><g fill="#000000" fill-opacity="1"><g transform="translate(83.53979, 18.330809)"><g><path d="M 0.078125 0 L 5.4375 -12.921875 L 7.15625 -12.921875 L 12.453125 0 L 10.90625 0 L 9.28125 -4.0625 L 3.1875 -4.0625 L 1.546875 0 Z M 3.6875 -5.28125 L 8.78125 -5.28125 L 6.25 -11.59375 Z M 3.6875 -5.28125 "/></g></g></g><g fill="#000000" fill-opacity="1"><g transform="translate(95.402927, 18.330809)"><g><path d="M 7.546875 -1.109375 C 8.347656 -1.109375 9.109375 -1.265625 9.828125 -1.578125 C 10.554688 -1.890625 11.164062 -2.320312 11.65625 -2.875 L 12.578125 -1.921875 C 11.941406 -1.253906 11.179688 -0.734375 10.296875 -0.359375 C 9.410156 0.015625 8.484375 0.203125 7.515625 0.203125 C 6.578125 0.203125 5.695312 0.03125 4.875 -0.3125 C 4.0625 -0.65625 3.351562 -1.125 2.75 -1.71875 C 2.144531 -2.320312 1.671875 -3.03125 1.328125 -3.84375 C 0.984375 -4.664062 0.8125 -5.535156 0.8125 -6.453125 C 0.8125 -7.378906 0.984375 -8.25 1.328125 -9.0625 C 1.671875 -9.882812 2.144531 -10.59375 2.75 -11.1875 C 3.351562 -11.789062 4.0625 -12.265625 4.875 -12.609375 C 5.695312 -12.953125 6.578125 -13.125 7.515625 -13.125 C 8.503906 -13.125 9.445312 -12.9375 10.34375 -12.5625 C 11.238281 -12.1875 12 -11.664062 12.625 -11 L 11.6875 -10 C 11.175781 -10.5625 10.546875 -11.003906 9.796875 -11.328125 C 9.054688 -11.648438 8.296875 -11.8125 7.515625 -11.8125 C 6.773438 -11.8125 6.082031 -11.671875 5.4375 -11.390625 C 4.789062 -11.117188 4.234375 -10.742188 3.765625 -10.265625 C 3.296875 -9.796875 2.925781 -9.226562 2.65625 -8.5625 C 2.382812 -7.90625 2.25 -7.203125 2.25 -6.453125 C 2.25 -5.703125 2.382812 -5 2.65625 -4.34375 C 2.925781 -3.6875 3.296875 -3.117188 3.765625 -2.640625 C 4.242188 -2.171875 4.804688 -1.796875 5.453125 -1.515625 C 6.097656 -1.242188 6.796875 -1.109375 7.546875 -1.109375 Z M 7.546875 -1.109375 "/></g></g></g><g fill="#000000" fill-opacity="1"><g transform="translate(108.723687, 18.330809)"><g><path d="M 1.421875 0 L 1.421875 -12.921875 L 2.84375 -12.921875 L 2.84375 -6.796875 L 9.515625 -12.921875 L 11.390625 -12.921875 L 4.375 -6.59375 L 11.53125 0 L 9.546875 0 L 2.84375 -6.203125 L 2.84375 0 Z M 1.421875 0 "/></g></g></g><g fill="#000000" fill-opacity="1"><g transform="translate(120.107217, 18.330809)"><g><path d="M 1.421875 0 L 1.421875 -12.921875 L 10.671875 -12.921875 L 10.671875 -11.65625 L 2.84375 -11.65625 L 2.84375 -7.140625 L 7.953125 -7.140625 L 7.953125 -5.90625 L 2.84375 -5.90625 L 2.84375 -1.25 L 10.734375 -1.25 L 10.734375 0 Z M 1.421875 0 "/></g></g></g><g fill="#000000" fill-opacity="1"><g transform="translate(131.472291, 18.330809)"><g><path d="M 1.421875 0 L 1.421875 -12.921875 L 6.953125 -12.921875 C 8.210938 -12.921875 9.226562 -12.578125 10 -11.890625 C 10.78125 -11.210938 11.171875 -10.316406 11.171875 -9.203125 C 11.171875 -8.359375 10.921875 -7.628906 10.421875 -7.015625 C 9.921875 -6.398438 9.253906 -5.972656 8.421875 -5.734375 L 11.3125 0 L 9.75 0 L 6.96875 -5.546875 L 2.84375 -5.546875 L 2.84375 0 Z M 6.859375 -11.640625 L 2.84375 -11.640625 L 2.84375 -6.75 L 6.859375 -6.75 C 7.722656 -6.75 8.421875 -6.972656 8.953125 -7.421875 C 9.484375 -7.867188 9.75 -8.460938 9.75 -9.203125 C 9.75 -9.941406 9.484375 -10.53125 8.953125 -10.96875 C 8.421875 -11.414062 7.722656 -11.640625 6.859375 -11.640625 Z M 6.859375 -11.640625 "/></g></g></g><g fill="#000000" fill-opacity="1"><g transform="translate(1.847597, 43.680985)"><g><path d="M 8.90625 1.46875 L 8.90625 2.53125 L -0.015625 2.53125 L -0.015625 1.46875 Z M 8.90625 1.46875 "/></g></g></g><g fill="#000000" fill-opacity="1"><g transform="translate(10.740397, 43.680985)"><g><path d="M 8.90625 1.46875 L 8.90625 2.53125 L -0.015625 2.53125 L -0.015625 1.46875 Z M 8.90625 1.46875 "/></g></g></g><g fill="#000000" fill-opacity="1"><g transform="translate(19.633196, 43.680985)"><g><path d="M 8.90625 1.46875 L 8.90625 2.53125 L -0.015625 2.53125 L -0.015625 1.46875 Z M 8.90625 1.46875 "/></g></g></g><g fill="#000000" fill-opacity="1"><g transform="translate(28.525996, 43.680985)"><g><path d="M 8.90625 1.46875 L 8.90625 2.53125 L -0.015625 2.53125 L -0.015625 1.46875 Z M 8.90625 1.46875 "/></g></g></g><g fill="#000000" fill-opacity="1"><g transform="translate(37.418796, 43.680985)"><g><path d="M 8.90625 1.46875 L 8.90625 2.53125 L -0.015625 2.53125 L -0.015625 1.46875 Z M 8.90625 1.46875 "/></g></g></g><g fill="#000000" fill-opacity="1"><g transform="translate(46.311596, 43.680985)"><g><path d="M 8.90625 1.46875 L 8.90625 2.53125 L -0.015625 2.53125 L -0.015625 1.46875 Z M 8.90625 1.46875 "/></g></g></g><g fill="#000000" fill-opacity="1"><g transform="translate(55.204395, 43.680985)"><g><path d="M 8.90625 1.46875 L 8.90625 2.53125 L -0.015625 2.53125 L -0.015625 1.46875 Z M 8.90625 1.46875 "/></g></g></g><g fill="#000000" fill-opacity="1"><g transform="translate(64.097195, 43.680985)"><g><path d="M 8.90625 1.46875 L 8.90625 2.53125 L -0.015625 2.53125 L -0.015625 1.46875 Z M 8.90625 1.46875 "/></g></g></g><g fill="#000000" fill-opacity="1"><g transform="translate(72.989995, 43.680985)"><g><path d="M 8.90625 1.46875 L 8.90625 2.53125 L -0.015625 2.53125 L -0.015625 1.46875 Z M 8.90625 1.46875 "/></g></g></g><g fill="#000000" fill-opacity="1"><g transform="translate(81.882795, 43.680985)"><g><path d="M 8.90625 1.46875 L 8.90625 2.53125 L -0.015625 2.53125 L -0.015625 1.46875 Z M 8.90625 1.46875 "/></g></g></g><g fill="#000000" fill-opacity="1"><g transform="translate(90.775595, 43.680985)"><g><path d="M 8.90625 1.46875 L 8.90625 2.53125 L -0.015625 2.53125 L -0.015625 1.46875 Z M 8.90625 1.46875 "/></g></g></g><g fill="#000000" fill-opacity="1"><g transform="translate(99.668394, 43.680985)"><g><path d="M 8.90625 1.46875 L 8.90625 2.53125 L -0.015625 2.53125 L -0.015625 1.46875 Z M 8.90625 1.46875 "/></g></g></g><g fill="#000000" fill-opacity="1"><g transform="translate(108.561194, 43.680985)"><g><path d="M 8.90625 1.46875 L 8.90625 2.53125 L -0.015625 2.53125 L -0.015625 1.46875 Z M 8.90625 1.46875 "/></g></g></g><g fill="#000000" fill-opacity="1"><g transform="translate(117.453994, 43.680985)"><g><path d="M 8.90625 1.46875 L 8.90625 2.53125 L -0.015625 2.53125 L -0.015625 1.46875 Z M 8.90625 1.46875 "/></g></g></g><g fill="#000000" fill-opacity="1"><g transform="translate(126.346794, 43.680985)"><g><path d="M 8.90625 1.46875 L 8.90625 2.53125 L -0.015625 2.53125 L -0.015625 1.46875 Z M 8.90625 1.46875 "/></g></g></g><g clip-path="url(#b4808753ac)"><g fill="#000000" fill-opacity="1"><g transform="translate(135.239593, 43.680985)"><g><path d="M 8.90625 1.46875 L 8.90625 2.53125 L -0.015625 2.53125 L -0.015625 1.46875 Z M 8.90625 1.46875 "/></g></g></g></g></g></g></g></g></svg>