<svg xmlns="http://www.w3.org/2000/svg" xmlns:xlink="http://www.w3.org/1999/xlink" width="583" zoomAndPan="magnify" viewBox="0 0 438 300.000006" height="450" preserveAspectRatio="xMidYMid meet" version="1.0"><defs><g/><clipPath id="55e5ad2413"><path d="M 0.730469 0 L 436.523438 0 L 436.523438 299.003906 L 0.730469 299.003906 Z M 0.730469 0 " clip-rule="nonzero"/></clipPath><clipPath id="00288fc165"><path d="M 0.726562 54 L 436.523438 54 L 436.523438 57 L 0.726562 57 Z M 0.726562 54 " clip-rule="nonzero"/></clipPath></defs><g clip-path="url(#55e5ad2413)"><path stroke-linecap="butt" transform="matrix(0.747508, 0, 0, 0.747508, 0.729998, 0.00000996678)" fill="none" stroke-linejoin="miter" d="M 0.000629824 -0.0000133333 L 582.994829 -0.0000133333 L 582.994829 449.608324 L 0.000629824 449.608324 Z M 0.000629824 -0.0000133333 " stroke="#000000" stroke-width="4" stroke-opacity="1" stroke-miterlimit="4"/></g><g clip-path="url(#00288fc165)"><path stroke-linecap="butt" transform="matrix(0.747508, 0.000000000000000036, -0.000000000000000036, 0.747508, 0.72757, 54.674285)" fill="none" stroke-linejoin="miter" d="M -0.00134833 1.000109 L 582.998039 1.000109 " stroke="#000000" stroke-width="2" stroke-opacity="1" stroke-miterlimit="4"/></g><g fill="#000000" fill-opacity="1"><g transform="translate(7.846757, 39.50045)"><g><path d="M 2.734375 0 L 2.734375 -24.921875 L 5.484375 -24.921875 L 5.484375 -13.78125 L 19.96875 -13.78125 L 19.96875 -24.921875 L 22.703125 -24.921875 L 22.703125 0 L 19.96875 0 L 19.96875 -11.3125 L 5.484375 -11.3125 L 5.484375 0 Z M 2.734375 0 "/></g></g></g><g fill="#000000" fill-opacity="1"><g transform="translate(33.292436, 39.50045)"><g><path d="M 27.234375 -12.453125 C 27.234375 -10.671875 26.898438 -8.988281 26.234375 -7.40625 C 25.566406 -5.832031 24.65625 -4.472656 23.5 -3.328125 C 22.351562 -2.179688 20.992188 -1.273438 19.421875 -0.609375 C 17.859375 0.0546875 16.191406 0.390625 14.421875 0.390625 C 12.640625 0.390625 10.957031 0.0546875 9.375 -0.609375 C 7.800781 -1.273438 6.4375 -2.179688 5.28125 -3.328125 C 4.132812 -4.472656 3.226562 -5.832031 2.5625 -7.40625 C 1.894531 -8.988281 1.5625 -10.671875 1.5625 -12.453125 C 1.5625 -14.234375 1.894531 -15.910156 2.5625 -17.484375 C 3.226562 -19.066406 4.132812 -20.429688 5.28125 -21.578125 C 6.4375 -22.734375 7.800781 -23.644531 9.375 -24.3125 C 10.957031 -24.976562 12.640625 -25.3125 14.421875 -25.3125 C 16.191406 -25.3125 17.859375 -24.976562 19.421875 -24.3125 C 20.992188 -23.644531 22.351562 -22.734375 23.5 -21.578125 C 24.65625 -20.429688 25.566406 -19.066406 26.234375 -17.484375 C 26.898438 -15.910156 27.234375 -14.234375 27.234375 -12.453125 Z M 24.453125 -12.453125 C 24.453125 -13.898438 24.191406 -15.257812 23.671875 -16.53125 C 23.148438 -17.800781 22.441406 -18.890625 21.546875 -19.796875 C 20.660156 -20.710938 19.597656 -21.4375 18.359375 -21.96875 C 17.128906 -22.507812 15.816406 -22.78125 14.421875 -22.78125 C 12.992188 -22.78125 11.660156 -22.507812 10.421875 -21.96875 C 9.191406 -21.4375 8.128906 -20.710938 7.234375 -19.796875 C 6.347656 -18.890625 5.644531 -17.800781 5.125 -16.53125 C 4.601562 -15.257812 4.34375 -13.898438 4.34375 -12.453125 C 4.34375 -11.003906 4.601562 -9.648438 5.125 -8.390625 C 5.644531 -7.140625 6.347656 -6.050781 7.234375 -5.125 C 8.128906 -4.195312 9.191406 -3.46875 10.421875 -2.9375 C 11.660156 -2.40625 12.992188 -2.140625 14.421875 -2.140625 C 15.816406 -2.140625 17.128906 -2.40625 18.359375 -2.9375 C 19.597656 -3.46875 20.660156 -4.195312 21.546875 -5.125 C 22.441406 -6.050781 23.148438 -7.140625 23.671875 -8.390625 C 24.191406 -9.648438 24.453125 -11.003906 24.453125 -12.453125 Z M 24.453125 -12.453125 "/></g></g></g><g fill="#000000" fill-opacity="1"><g transform="translate(62.083424, 39.50045)"><g><path d="M 15.0625 -1.78125 L 5.296875 -21.75 L 5.296875 0 L 2.734375 0 L 2.734375 -24.921875 L 6.578125 -24.921875 L 15.09375 -7.21875 L 23.5625 -24.921875 L 27.40625 -24.921875 L 27.40625 0 L 24.8125 0 L 24.8125 -21.78125 Z M 15.0625 -1.78125 "/></g></g></g><g fill="#000000" fill-opacity="1"><g transform="translate(92.226774, 39.50045)"><g><path d="M 2.734375 0 L 2.734375 -24.921875 L 20.578125 -24.921875 L 20.578125 -22.5 L 5.484375 -22.5 L 5.484375 -13.78125 L 15.34375 -13.78125 L 15.34375 -11.390625 L 5.484375 -11.390625 L 5.484375 -2.421875 L 20.71875 -2.421875 L 20.71875 0 Z M 2.734375 0 "/></g></g></g><g fill="#000000" fill-opacity="1"><g transform="translate(114.149209, 39.50045)"><g/></g></g><g fill="#000000" fill-opacity="1"><g transform="translate(121.80071, 39.50045)"><g><path d="M 0.609375 -22.453125 L 0.609375 -24.921875 L 21.359375 -24.921875 L 21.359375 -22.453125 L 12.34375 -22.453125 L 12.34375 0 L 9.609375 0 L 9.609375 -22.453125 Z M 0.609375 -22.453125 "/></g></g></g><g fill="#000000" fill-opacity="1"><g transform="translate(143.758731, 39.50045)"><g><path d="M 27.234375 -12.453125 C 27.234375 -10.671875 26.898438 -8.988281 26.234375 -7.40625 C 25.566406 -5.832031 24.65625 -4.472656 23.5 -3.328125 C 22.351562 -2.179688 20.992188 -1.273438 19.421875 -0.609375 C 17.859375 0.0546875 16.191406 0.390625 14.421875 0.390625 C 12.640625 0.390625 10.957031 0.0546875 9.375 -0.609375 C 7.800781 -1.273438 6.4375 -2.179688 5.28125 -3.328125 C 4.132812 -4.472656 3.226562 -5.832031 2.5625 -7.40625 C 1.894531 -8.988281 1.5625 -10.671875 1.5625 -12.453125 C 1.5625 -14.234375 1.894531 -15.910156 2.5625 -17.484375 C 3.226562 -19.066406 4.132812 -20.429688 5.28125 -21.578125 C 6.4375 -22.734375 7.800781 -23.644531 9.375 -24.3125 C 10.957031 -24.976562 12.640625 -25.3125 14.421875 -25.3125 C 16.191406 -25.3125 17.859375 -24.976562 19.421875 -24.3125 C 20.992188 -23.644531 22.351562 -22.734375 23.5 -21.578125 C 24.65625 -20.429688 25.566406 -19.066406 26.234375 -17.484375 C 26.898438 -15.910156 27.234375 -14.234375 27.234375 -12.453125 Z M 24.453125 -12.453125 C 24.453125 -13.898438 24.191406 -15.257812 23.671875 -16.53125 C 23.148438 -17.800781 22.441406 -18.890625 21.546875 -19.796875 C 20.660156 -20.710938 19.597656 -21.4375 18.359375 -21.96875 C 17.128906 -22.507812 15.816406 -22.78125 14.421875 -22.78125 C 12.992188 -22.78125 11.660156 -22.507812 10.421875 -21.96875 C 9.191406 -21.4375 8.128906 -20.710938 7.234375 -19.796875 C 6.347656 -18.890625 5.644531 -17.800781 5.125 -16.53125 C 4.601562 -15.257812 4.34375 -13.898438 4.34375 -12.453125 C 4.34375 -11.003906 4.601562 -9.648438 5.125 -8.390625 C 5.644531 -7.140625 6.347656 -6.050781 7.234375 -5.125 C 8.128906 -4.195312 9.191406 -3.46875 10.421875 -2.9375 C 11.660156 -2.40625 12.992188 -2.140625 14.421875 -2.140625 C 15.816406 -2.140625 17.128906 -2.40625 18.359375 -2.9375 C 19.597656 -3.46875 20.660156 -4.195312 21.546875 -5.125 C 22.441406 -6.050781 23.148438 -7.140625 23.671875 -8.390625 C 24.191406 -9.648438 24.453125 -11.003906 24.453125 -12.453125 Z M 24.453125 -12.453125 "/></g></g></g><g fill="#000000" fill-opacity="1"><g transform="translate(172.549719, 39.50045)"><g><path d="M 1.75 -11.171875 L 14.171875 -11.171875 L 14.171875 -8.828125 L 1.75 -8.828125 Z M 1.75 -11.171875 "/></g></g></g><g fill="#000000" fill-opacity="1"><g transform="translate(188.457721, 39.50045)"><g><path d="M 2.734375 0 L 2.734375 -24.921875 L 10.96875 -24.921875 C 12.84375 -24.921875 14.582031 -24.601562 16.1875 -23.96875 C 17.800781 -23.34375 19.191406 -22.484375 20.359375 -21.390625 C 21.523438 -20.296875 22.429688 -18.984375 23.078125 -17.453125 C 23.734375 -15.921875 24.0625 -14.253906 24.0625 -12.453125 C 24.0625 -10.648438 23.734375 -8.984375 23.078125 -7.453125 C 22.429688 -5.921875 21.53125 -4.609375 20.375 -3.515625 C 19.226562 -2.429688 17.847656 -1.570312 16.234375 -0.9375 C 14.617188 -0.3125 12.863281 0 10.96875 0 Z M 11.109375 -22.421875 L 5.484375 -22.421875 L 5.484375 -2.484375 L 11.109375 -2.484375 C 12.523438 -2.484375 13.863281 -2.738281 15.125 -3.25 C 16.382812 -3.757812 17.460938 -4.457031 18.359375 -5.34375 C 19.265625 -6.238281 19.976562 -7.296875 20.5 -8.515625 C 21.019531 -9.742188 21.28125 -11.054688 21.28125 -12.453125 C 21.28125 -13.859375 21.019531 -15.171875 20.5 -16.390625 C 19.976562 -17.609375 19.265625 -18.660156 18.359375 -19.546875 C 17.460938 -20.441406 16.382812 -21.144531 15.125 -21.65625 C 13.863281 -22.164062 12.523438 -22.421875 11.109375 -22.421875 Z M 11.109375 -22.421875 "/></g></g></g><g fill="#000000" fill-opacity="1"><g transform="translate(214.081346, 39.50045)"><g><path d="M 27.234375 -12.453125 C 27.234375 -10.671875 26.898438 -8.988281 26.234375 -7.40625 C 25.566406 -5.832031 24.65625 -4.472656 23.5 -3.328125 C 22.351562 -2.179688 20.992188 -1.273438 19.421875 -0.609375 C 17.859375 0.0546875 16.191406 0.390625 14.421875 0.390625 C 12.640625 0.390625 10.957031 0.0546875 9.375 -0.609375 C 7.800781 -1.273438 6.4375 -2.179688 5.28125 -3.328125 C 4.132812 -4.472656 3.226562 -5.832031 2.5625 -7.40625 C 1.894531 -8.988281 1.5625 -10.671875 1.5625 -12.453125 C 1.5625 -14.234375 1.894531 -15.910156 2.5625 -17.484375 C 3.226562 -19.066406 4.132812 -20.429688 5.28125 -21.578125 C 6.4375 -22.734375 7.800781 -23.644531 9.375 -24.3125 C 10.957031 -24.976562 12.640625 -25.3125 14.421875 -25.3125 C 16.191406 -25.3125 17.859375 -24.976562 19.421875 -24.3125 C 20.992188 -23.644531 22.351562 -22.734375 23.5 -21.578125 C 24.65625 -20.429688 25.566406 -19.066406 26.234375 -17.484375 C 26.898438 -15.910156 27.234375 -14.234375 27.234375 -12.453125 Z M 24.453125 -12.453125 C 24.453125 -13.898438 24.191406 -15.257812 23.671875 -16.53125 C 23.148438 -17.800781 22.441406 -18.890625 21.546875 -19.796875 C 20.660156 -20.710938 19.597656 -21.4375 18.359375 -21.96875 C 17.128906 -22.507812 15.816406 -22.78125 14.421875 -22.78125 C 12.992188 -22.78125 11.660156 -22.507812 10.421875 -21.96875 C 9.191406 -21.4375 8.128906 -20.710938 7.234375 -19.796875 C 6.347656 -18.890625 5.644531 -17.800781 5.125 -16.53125 C 4.601562 -15.257812 4.34375 -13.898438 4.34375 -12.453125 C 4.34375 -11.003906 4.601562 -9.648438 5.125 -8.390625 C 5.644531 -7.140625 6.347656 -6.050781 7.234375 -5.125 C 8.128906 -4.195312 9.191406 -3.46875 10.421875 -2.9375 C 11.660156 -2.40625 12.992188 -2.140625 14.421875 -2.140625 C 15.816406 -2.140625 17.128906 -2.40625 18.359375 -2.9375 C 19.597656 -3.46875 20.660156 -4.195312 21.546875 -5.125 C 22.441406 -6.050781 23.148438 -7.140625 23.671875 -8.390625 C 24.191406 -9.648438 24.453125 -11.003906 24.453125 -12.453125 Z M 24.453125 -12.453125 "/></g></g></g></svg>