<svg xmlns="http://www.w3.org/2000/svg" xmlns:xlink="http://www.w3.org/1999/xlink" width="1200" zoomAndPan="magnify" viewBox="0 0 900 675.000002" height="900" preserveAspectRatio="xMidYMid meet" version="1.0"><defs><g/><clipPath id="104af00761"><path d="M 36 4 L 43.585938 4 L 43.585938 13 L 36 13 Z M 36 4 " clip-rule="nonzero"/></clipPath><clipPath id="ba72693cff"><rect x="0" width="44" y="0" height="17"/></clipPath><clipPath id="6478db06c1"><path d="M 63 4 L 69.96875 4 L 69.96875 13 L 63 13 Z M 63 4 " clip-rule="nonzero"/></clipPath><clipPath id="a1d13addfc"><rect x="0" width="70" y="0" height="17"/></clipPath><clipPath id="f3142162ad"><rect x="0" width="96" y="0" height="17"/></clipPath><clipPath id="7514e3a701"><rect x="0" width="42" y="0" height="17"/></clipPath><clipPath id="928b4d10fd"><path d="M 69 4 L 76.882812 4 L 76.882812 13 L 69 13 Z M 69 4 " clip-rule="nonzero"/></clipPath><clipPath id="ecebcb8f30"><rect x="0" width="77" y="0" height="17"/></clipPath><clipPath id="2ba1755c10"><path d="M 66 4 L 73.648438 4 L 73.648438 13 L 66 13 Z M 66 4 " clip-rule="nonzero"/></clipPath><clipPath id="bfcd1a2ad7"><rect x="0" width="74" y="0" height="17"/></clipPath><clipPath id="775aa731ca"><path d="M 46.308594 88.191406 L 854 88.191406 L 854 586 L 46.308594 586 Z M 46.308594 88.191406 " clip-rule="nonzero"/></clipPath><clipPath id="8990a32e55"><path d="M 46.308594 88.191406 L 854.359375 88.191406 L 854.359375 586 L 46.308594 586 Z M 46.308594 88.191406 " clip-rule="nonzero"/></clipPath></defs><g transform="matrix(1, 0, 0, 1, 92, 99)"><g clip-path="url(#ba72693cff)"><g fill="#000000" fill-opacity="1"><g transform="translate(0.52734, 12.785482)"><g><path d="M 4.984375 -0.734375 C 5.503906 -0.734375 6.003906 -0.832031 6.484375 -1.03125 C 6.960938 -1.238281 7.363281 -1.53125 7.6875 -1.90625 L 8.296875 -1.265625 C 7.878906 -0.828125 7.378906 -0.484375 6.796875 -0.234375 C 6.210938 0.015625 5.597656 0.140625 4.953125 0.140625 C 4.335938 0.140625 3.757812 0.0234375 3.21875 -0.203125 C 2.675781 -0.429688 2.207031 -0.742188 1.8125 -1.140625 C 1.414062 -1.535156 1.101562 -2 0.875 -2.53125 C 0.644531 -3.070312 0.53125 -3.648438 0.53125 -4.265625 C 0.53125 -4.867188 0.644531 -5.441406 0.875 -5.984375 C 1.101562 -6.523438 1.414062 -6.988281 1.8125 -7.375 C 2.207031 -7.769531 2.675781 -8.082031 3.21875 -8.3125 C 3.757812 -8.539062 4.335938 -8.65625 4.953125 -8.65625 C 5.609375 -8.65625 6.226562 -8.53125 6.8125 -8.28125 C 7.40625 -8.03125 7.910156 -7.6875 8.328125 -7.25 L 7.703125 -6.59375 C 7.367188 -6.96875 6.957031 -7.257812 6.46875 -7.46875 C 5.976562 -7.6875 5.472656 -7.796875 4.953125 -7.796875 C 4.460938 -7.796875 4.003906 -7.703125 3.578125 -7.515625 C 3.160156 -7.335938 2.796875 -7.09375 2.484375 -6.78125 C 2.171875 -6.46875 1.925781 -6.09375 1.75 -5.65625 C 1.570312 -5.21875 1.484375 -4.753906 1.484375 -4.265625 C 1.484375 -3.765625 1.570312 -3.296875 1.75 -2.859375 C 1.925781 -2.429688 2.171875 -2.0625 2.484375 -1.75 C 2.796875 -1.4375 3.164062 -1.1875 3.59375 -1 C 4.019531 -0.820312 4.484375 -0.734375 4.984375 -0.734375 Z M 4.984375 -0.734375 "/></g></g></g><g fill="#000000" fill-opacity="1"><g transform="translate(9.315275, 12.785482)"><g><path d="M 0.9375 0 L 0.9375 -8.515625 L 1.875 -8.515625 L 1.875 -0.84375 L 6.953125 -0.84375 L 6.953125 0 Z M 0.9375 0 "/></g></g></g><g fill="#000000" fill-opacity="1"><g transform="translate(16.666957, 12.785482)"><g><path d="M 0.9375 0 L 0.9375 -8.515625 L 1.875 -8.515625 L 1.875 0 Z M 0.9375 0 "/></g></g></g><g fill="#000000" fill-opacity="1"><g transform="translate(19.478608, 12.785482)"><g><path d="M 0.9375 0 L 0.9375 -8.515625 L 7.03125 -8.515625 L 7.03125 -7.6875 L 1.875 -7.6875 L 1.875 -4.703125 L 5.25 -4.703125 L 5.25 -3.890625 L 1.875 -3.890625 L 1.875 -0.828125 L 7.078125 -0.828125 L 7.078125 0 Z M 0.9375 0 "/></g></g></g><g fill="#000000" fill-opacity="1"><g transform="translate(26.976347, 12.785482)"><g><path d="M 0.9375 -8.515625 L 1.875 -8.515625 L 7 -1.609375 L 7 -8.515625 L 7.890625 -8.515625 L 7.890625 0 L 7.0625 0 L 1.828125 -7.09375 L 1.828125 0 L 0.9375 0 Z M 0.9375 -8.515625 "/></g></g></g><g clip-path="url(#104af00761)"><g fill="#000000" fill-opacity="1"><g transform="translate(35.800797, 12.785482)"><g><path d="M 0.203125 -7.6875 L 0.203125 -8.515625 L 7.296875 -8.515625 L 7.296875 -7.6875 L 4.21875 -7.6875 L 4.21875 0 L 3.28125 0 L 3.28125 -7.6875 Z M 0.203125 -7.6875 "/></g></g></g></g></g></g><g transform="matrix(1, 0, 0, 1, 213, 99)"><g clip-path="url(#a1d13addfc)"><g fill="#000000" fill-opacity="1"><g transform="translate(0.920076, 12.785482)"><g><path d="M 0.9375 0 L 0.9375 -8.515625 L 1.875 -8.515625 L 1.875 0 Z M 0.9375 0 "/></g></g></g><g fill="#000000" fill-opacity="1"><g transform="translate(3.731727, 12.785482)"><g><path d="M 0.9375 -8.515625 L 1.875 -8.515625 L 7 -1.609375 L 7 -8.515625 L 7.890625 -8.515625 L 7.890625 0 L 7.0625 0 L 1.828125 -7.09375 L 1.828125 0 L 0.9375 0 Z M 0.9375 -8.515625 "/></g></g></g><g fill="#000000" fill-opacity="1"><g transform="translate(12.556177, 12.785482)"><g><path d="M 0.140625 -1.453125 L 0.75 -2.109375 C 1.1875 -1.640625 1.65625 -1.285156 2.15625 -1.046875 C 2.65625 -0.804688 3.179688 -0.6875 3.734375 -0.6875 C 4.398438 -0.6875 4.945312 -0.84375 5.375 -1.15625 C 5.8125 -1.476562 6.03125 -1.882812 6.03125 -2.375 C 6.03125 -2.8125 5.875 -3.144531 5.5625 -3.375 C 5.257812 -3.613281 4.757812 -3.789062 4.0625 -3.90625 L 2.84375 -4.109375 C 2.019531 -4.234375 1.410156 -4.472656 1.015625 -4.828125 C 0.628906 -5.179688 0.4375 -5.65625 0.4375 -6.25 C 0.4375 -6.957031 0.710938 -7.53125 1.265625 -7.96875 C 1.816406 -8.40625 2.539062 -8.625 3.4375 -8.625 C 4.03125 -8.625 4.617188 -8.523438 5.203125 -8.328125 C 5.785156 -8.140625 6.316406 -7.863281 6.796875 -7.5 L 6.25 -6.765625 C 5.789062 -7.117188 5.320312 -7.382812 4.84375 -7.5625 C 4.363281 -7.738281 3.878906 -7.828125 3.390625 -7.828125 C 2.785156 -7.828125 2.289062 -7.6875 1.90625 -7.40625 C 1.53125 -7.125 1.34375 -6.765625 1.34375 -6.328125 C 1.34375 -5.929688 1.476562 -5.625 1.75 -5.40625 C 2.019531 -5.195312 2.460938 -5.046875 3.078125 -4.953125 L 4.296875 -4.765625 C 5.222656 -4.609375 5.898438 -4.34375 6.328125 -3.96875 C 6.753906 -3.59375 6.96875 -3.078125 6.96875 -2.421875 C 6.96875 -2.046875 6.882812 -1.703125 6.71875 -1.390625 C 6.5625 -1.078125 6.335938 -0.804688 6.046875 -0.578125 C 5.765625 -0.359375 5.421875 -0.1875 5.015625 -0.0625 C 4.617188 0.0625 4.179688 0.125 3.703125 0.125 C 3.023438 0.125 2.375 -0.0078125 1.75 -0.28125 C 1.132812 -0.550781 0.597656 -0.941406 0.140625 -1.453125 Z M 0.140625 -1.453125 "/></g></g></g><g fill="#000000" fill-opacity="1"><g transform="translate(19.859171, 12.785482)"><g><path d="M 7.796875 -3.609375 C 7.796875 -2.472656 7.476562 -1.5625 6.84375 -0.875 C 6.207031 -0.195312 5.351562 0.140625 4.28125 0.140625 C 3.207031 0.140625 2.351562 -0.195312 1.71875 -0.875 C 1.082031 -1.550781 0.765625 -2.460938 0.765625 -3.609375 L 0.765625 -8.515625 L 1.703125 -8.515625 L 1.703125 -3.609375 C 1.703125 -2.734375 1.9375 -2.035156 2.40625 -1.515625 C 2.875 -0.992188 3.5 -0.734375 4.28125 -0.734375 C 5.0625 -0.734375 5.6875 -0.992188 6.15625 -1.515625 C 6.625 -2.035156 6.859375 -2.734375 6.859375 -3.609375 L 6.859375 -8.515625 L 7.796875 -8.515625 Z M 7.796875 -3.609375 "/></g></g></g><g fill="#000000" fill-opacity="1"><g transform="translate(28.428017, 12.785482)"><g><path d="M 0.9375 0 L 0.9375 -8.515625 L 4.59375 -8.515625 C 5.414062 -8.515625 6.082031 -8.289062 6.59375 -7.84375 C 7.101562 -7.394531 7.359375 -6.804688 7.359375 -6.078125 C 7.359375 -5.515625 7.191406 -5.03125 6.859375 -4.625 C 6.535156 -4.21875 6.097656 -3.9375 5.546875 -3.78125 L 7.46875 0 L 6.421875 0 L 4.59375 -3.65625 L 1.875 -3.65625 L 1.875 0 Z M 4.53125 -7.6875 L 1.875 -7.6875 L 1.875 -4.453125 L 4.53125 -4.453125 C 5.09375 -4.453125 5.546875 -4.597656 5.890625 -4.890625 C 6.242188 -5.191406 6.421875 -5.585938 6.421875 -6.078125 C 6.421875 -6.554688 6.242188 -6.941406 5.890625 -7.234375 C 5.546875 -7.535156 5.09375 -7.6875 4.53125 -7.6875 Z M 4.53125 -7.6875 "/></g></g></g><g fill="#000000" fill-opacity="1"><g transform="translate(36.400487, 12.785482)"><g><path d="M 0.046875 0 L 3.59375 -8.515625 L 4.71875 -8.515625 L 8.21875 0 L 7.1875 0 L 6.125 -2.671875 L 2.109375 -2.671875 L 1.015625 0 Z M 2.4375 -3.484375 L 5.796875 -3.484375 L 4.125 -7.640625 Z M 2.4375 -3.484375 "/></g></g></g><g fill="#000000" fill-opacity="1"><g transform="translate(44.66504, 12.785482)"><g><path d="M 0.9375 -8.515625 L 1.875 -8.515625 L 7 -1.609375 L 7 -8.515625 L 7.890625 -8.515625 L 7.890625 0 L 7.0625 0 L 1.828125 -7.09375 L 1.828125 0 L 0.9375 0 Z M 0.9375 -8.515625 "/></g></g></g><g fill="#000000" fill-opacity="1"><g transform="translate(53.48949, 12.785482)"><g><path d="M 4.984375 -0.734375 C 5.503906 -0.734375 6.003906 -0.832031 6.484375 -1.03125 C 6.960938 -1.238281 7.363281 -1.53125 7.6875 -1.90625 L 8.296875 -1.265625 C 7.878906 -0.828125 7.378906 -0.484375 6.796875 -0.234375 C 6.210938 0.015625 5.597656 0.140625 4.953125 0.140625 C 4.335938 0.140625 3.757812 0.0234375 3.21875 -0.203125 C 2.675781 -0.429688 2.207031 -0.742188 1.8125 -1.140625 C 1.414062 -1.535156 1.101562 -2 0.875 -2.53125 C 0.644531 -3.070312 0.53125 -3.648438 0.53125 -4.265625 C 0.53125 -4.867188 0.644531 -5.441406 0.875 -5.984375 C 1.101562 -6.523438 1.414062 -6.988281 1.8125 -7.375 C 2.207031 -7.769531 2.675781 -8.082031 3.21875 -8.3125 C 3.757812 -8.539062 4.335938 -8.65625 4.953125 -8.65625 C 5.609375 -8.65625 6.226562 -8.53125 6.8125 -8.28125 C 7.40625 -8.03125 7.910156 -7.6875 8.328125 -7.25 L 7.703125 -6.59375 C 7.367188 -6.96875 6.957031 -7.257812 6.46875 -7.46875 C 5.976562 -7.6875 5.472656 -7.796875 4.953125 -7.796875 C 4.460938 -7.796875 4.003906 -7.703125 3.578125 -7.515625 C 3.160156 -7.335938 2.796875 -7.09375 2.484375 -6.78125 C 2.171875 -6.46875 1.925781 -6.09375 1.75 -5.65625 C 1.570312 -5.21875 1.484375 -4.753906 1.484375 -4.265625 C 1.484375 -3.765625 1.570312 -3.296875 1.75 -2.859375 C 1.925781 -2.429688 2.171875 -2.0625 2.484375 -1.75 C 2.796875 -1.4375 3.164062 -1.1875 3.59375 -1 C 4.019531 -0.820312 4.484375 -0.734375 4.984375 -0.734375 Z M 4.984375 -0.734375 "/></g></g></g><g clip-path="url(#6478db06c1)"><g fill="#000000" fill-opacity="1"><g transform="translate(62.277424, 12.785482)"><g><path d="M 0.9375 0 L 0.9375 -8.515625 L 7.03125 -8.515625 L 7.03125 -7.6875 L 1.875 -7.6875 L 1.875 -4.703125 L 5.25 -4.703125 L 5.25 -3.890625 L 1.875 -3.890625 L 1.875 -0.828125 L 7.078125 -0.828125 L 7.078125 0 Z M 0.9375 0 "/></g></g></g></g></g></g><g transform="matrix(1, 0, 0, 1, 335, 99)"><g clip-path="url(#f3142162ad)"><g fill="#000000" fill-opacity="1"><g transform="translate(1.056428, 12.785482)"><g><path d="M 0.9375 0 L 0.9375 -8.515625 L 4.640625 -8.515625 C 5.460938 -8.515625 6.125 -8.289062 6.625 -7.84375 C 7.132812 -7.394531 7.390625 -6.800781 7.390625 -6.0625 C 7.390625 -5.320312 7.132812 -4.722656 6.625 -4.265625 C 6.113281 -3.816406 5.453125 -3.59375 4.640625 -3.59375 L 1.875 -3.59375 L 1.875 0 Z M 4.5625 -7.6875 L 1.875 -7.6875 L 1.875 -4.40625 L 4.5625 -4.40625 C 5.132812 -4.40625 5.59375 -4.550781 5.9375 -4.84375 C 6.28125 -5.144531 6.453125 -5.546875 6.453125 -6.046875 C 6.453125 -6.546875 6.28125 -6.941406 5.9375 -7.234375 C 5.59375 -7.535156 5.132812 -7.6875 4.5625 -7.6875 Z M 4.5625 -7.6875 "/></g></g></g><g fill="#000000" fill-opacity="1"><g transform="translate(8.931491, 12.785482)"><g><path d="M 0.9375 0 L 0.9375 -8.515625 L 1.875 -8.515625 L 1.875 -0.84375 L 6.953125 -0.84375 L 6.953125 0 Z M 0.9375 0 "/></g></g></g><g fill="#000000" fill-opacity="1"><g transform="translate(16.599725, 12.785482)"><g><path d="M 0.046875 0 L 3.59375 -8.515625 L 4.71875 -8.515625 L 8.21875 0 L 7.1875 0 L 6.125 -2.671875 L 2.109375 -2.671875 L 1.015625 0 Z M 2.4375 -3.484375 L 5.796875 -3.484375 L 4.125 -7.640625 Z M 2.4375 -3.484375 "/></g></g></g><g fill="#000000" fill-opacity="1"><g transform="translate(24.864278, 12.785482)"><g><path d="M 0.9375 -8.515625 L 1.875 -8.515625 L 7 -1.609375 L 7 -8.515625 L 7.890625 -8.515625 L 7.890625 0 L 7.0625 0 L 1.828125 -7.09375 L 1.828125 0 L 0.9375 0 Z M 0.9375 -8.515625 "/></g></g></g><g fill="#000000" fill-opacity="1"><g transform="translate(33.688728, 12.785482)"><g><path d="M -0.8125 2.5 L 4.3125 -8.515625 L 5.21875 -8.515625 L 0.078125 2.5 Z M -0.8125 2.5 "/></g></g></g><g fill="#000000" fill-opacity="1"><g transform="translate(39.251177, 12.785482)"><g><path d="M 0.9375 0 L 0.9375 -8.515625 L 4.640625 -8.515625 C 5.460938 -8.515625 6.125 -8.289062 6.625 -7.84375 C 7.132812 -7.394531 7.390625 -6.800781 7.390625 -6.0625 C 7.390625 -5.320312 7.132812 -4.722656 6.625 -4.265625 C 6.113281 -3.816406 5.453125 -3.59375 4.640625 -3.59375 L 1.875 -3.59375 L 1.875 0 Z M 4.5625 -7.6875 L 1.875 -7.6875 L 1.875 -4.40625 L 4.5625 -4.40625 C 5.132812 -4.40625 5.59375 -4.550781 5.9375 -4.84375 C 6.28125 -5.144531 6.453125 -5.546875 6.453125 -6.046875 C 6.453125 -6.546875 6.28125 -6.941406 5.9375 -7.234375 C 5.59375 -7.535156 5.132812 -7.6875 4.5625 -7.6875 Z M 4.5625 -7.6875 "/></g></g></g><g fill="#000000" fill-opacity="1"><g transform="translate(47.12624, 12.785482)"><g><path d="M 9.3125 -4.265625 C 9.3125 -3.648438 9.195312 -3.070312 8.96875 -2.53125 C 8.738281 -2 8.425781 -1.535156 8.03125 -1.140625 C 7.644531 -0.742188 7.179688 -0.429688 6.640625 -0.203125 C 6.109375 0.0234375 5.535156 0.140625 4.921875 0.140625 C 4.316406 0.140625 3.742188 0.0234375 3.203125 -0.203125 C 2.660156 -0.429688 2.191406 -0.742188 1.796875 -1.140625 C 1.410156 -1.535156 1.101562 -2 0.875 -2.53125 C 0.644531 -3.070312 0.53125 -3.648438 0.53125 -4.265625 C 0.53125 -4.867188 0.644531 -5.441406 0.875 -5.984375 C 1.101562 -6.523438 1.410156 -6.988281 1.796875 -7.375 C 2.191406 -7.769531 2.660156 -8.082031 3.203125 -8.3125 C 3.742188 -8.539062 4.316406 -8.65625 4.921875 -8.65625 C 5.535156 -8.65625 6.109375 -8.539062 6.640625 -8.3125 C 7.179688 -8.082031 7.644531 -7.769531 8.03125 -7.375 C 8.425781 -6.988281 8.738281 -6.523438 8.96875 -5.984375 C 9.195312 -5.441406 9.3125 -4.867188 9.3125 -4.265625 Z M 8.359375 -4.265625 C 8.359375 -4.753906 8.269531 -5.21875 8.09375 -5.65625 C 7.914062 -6.09375 7.671875 -6.46875 7.359375 -6.78125 C 7.054688 -7.09375 6.691406 -7.335938 6.265625 -7.515625 C 5.847656 -7.703125 5.398438 -7.796875 4.921875 -7.796875 C 4.441406 -7.796875 3.988281 -7.703125 3.5625 -7.515625 C 3.144531 -7.335938 2.78125 -7.09375 2.46875 -6.78125 C 2.164062 -6.46875 1.925781 -6.09375 1.75 -5.65625 C 1.570312 -5.21875 1.484375 -4.753906 1.484375 -4.265625 C 1.484375 -3.765625 1.570312 -3.300781 1.75 -2.875 C 1.925781 -2.445312 2.164062 -2.070312 2.46875 -1.75 C 2.78125 -1.4375 3.144531 -1.1875 3.5625 -1 C 3.988281 -0.820312 4.441406 -0.734375 4.921875 -0.734375 C 5.398438 -0.734375 5.847656 -0.820312 6.265625 -1 C 6.691406 -1.1875 7.054688 -1.4375 7.359375 -1.75 C 7.671875 -2.070312 7.914062 -2.445312 8.09375 -2.875 C 8.269531 -3.300781 8.359375 -3.765625 8.359375 -4.265625 Z M 8.359375 -4.265625 "/></g></g></g><g fill="#000000" fill-opacity="1"><g transform="translate(56.973109, 12.785482)"><g><path d="M 0.9375 0 L 0.9375 -8.515625 L 1.875 -8.515625 L 1.875 -0.84375 L 6.953125 -0.84375 L 6.953125 0 Z M 0.9375 0 "/></g></g></g><g fill="#000000" fill-opacity="1"><g transform="translate(64.324791, 12.785482)"><g><path d="M 0.9375 0 L 0.9375 -8.515625 L 1.875 -8.515625 L 1.875 0 Z M 0.9375 0 "/></g></g></g><g fill="#000000" fill-opacity="1"><g transform="translate(67.136443, 12.785482)"><g><path d="M 4.984375 -0.734375 C 5.503906 -0.734375 6.003906 -0.832031 6.484375 -1.03125 C 6.960938 -1.238281 7.363281 -1.53125 7.6875 -1.90625 L 8.296875 -1.265625 C 7.878906 -0.828125 7.378906 -0.484375 6.796875 -0.234375 C 6.210938 0.015625 5.597656 0.140625 4.953125 0.140625 C 4.335938 0.140625 3.757812 0.0234375 3.21875 -0.203125 C 2.675781 -0.429688 2.207031 -0.742188 1.8125 -1.140625 C 1.414062 -1.535156 1.101562 -2 0.875 -2.53125 C 0.644531 -3.070312 0.53125 -3.648438 0.53125 -4.265625 C 0.53125 -4.867188 0.644531 -5.441406 0.875 -5.984375 C 1.101562 -6.523438 1.414062 -6.988281 1.8125 -7.375 C 2.207031 -7.769531 2.675781 -8.082031 3.21875 -8.3125 C 3.757812 -8.539062 4.335938 -8.65625 4.953125 -8.65625 C 5.609375 -8.65625 6.226562 -8.53125 6.8125 -8.28125 C 7.40625 -8.03125 7.910156 -7.6875 8.328125 -7.25 L 7.703125 -6.59375 C 7.367188 -6.96875 6.957031 -7.257812 6.46875 -7.46875 C 5.976562 -7.6875 5.472656 -7.796875 4.953125 -7.796875 C 4.460938 -7.796875 4.003906 -7.703125 3.578125 -7.515625 C 3.160156 -7.335938 2.796875 -7.09375 2.484375 -6.78125 C 2.171875 -6.46875 1.925781 -6.09375 1.75 -5.65625 C 1.570312 -5.21875 1.484375 -4.753906 1.484375 -4.265625 C 1.484375 -3.765625 1.570312 -3.296875 1.75 -2.859375 C 1.925781 -2.429688 2.171875 -2.0625 2.484375 -1.75 C 2.796875 -1.4375 3.164062 -1.1875 3.59375 -1 C 4.019531 -0.820312 4.484375 -0.734375 4.984375 -0.734375 Z M 4.984375 -0.734375 "/></g></g></g><g fill="#000000" fill-opacity="1"><g transform="translate(75.680876, 12.785482)"><g><path d="M 3.421875 0 L 3.421875 -3.46875 L 0.03125 -8.515625 L 1.125 -8.515625 L 3.921875 -4.296875 L 6.6875 -8.515625 L 7.75 -8.515625 L 4.359375 -3.4375 L 4.359375 0 Z M 3.421875 0 "/></g></g></g><g fill="#000000" fill-opacity="1"><g transform="translate(83.458564, 12.785482)"><g/></g></g><g fill="#000000" fill-opacity="1"><g transform="translate(86.07547, 12.785482)"><g><path d="M 0.96875 0 L 1.734375 -2.671875 L 0.359375 -2.671875 L 0.359375 -3.375 L 1.921875 -3.375 L 2.4375 -5.15625 L 0.96875 -5.15625 L 0.96875 -5.859375 L 2.625 -5.859375 L 3.390625 -8.515625 L 4.21875 -8.515625 L 3.453125 -5.859375 L 5.859375 -5.859375 L 6.640625 -8.515625 L 7.46875 -8.515625 L 6.6875 -5.859375 L 8.0625 -5.859375 L 8.0625 -5.15625 L 6.5 -5.15625 L 5.984375 -3.375 L 7.453125 -3.375 L 7.453125 -2.671875 L 5.796875 -2.671875 L 5.03125 0 L 4.203125 0 L 4.96875 -2.671875 L 2.5625 -2.671875 L 1.796875 0 Z M 2.75 -3.375 L 5.15625 -3.375 L 5.671875 -5.15625 L 3.265625 -5.15625 Z M 2.75 -3.375 "/></g></g></g></g></g><g transform="matrix(1, 0, 0, 1, 496, 99)"><g clip-path="url(#7514e3a701)"><g fill="#000000" fill-opacity="1"><g transform="translate(1.4728, 12.785482)"><g><path d="M 4.984375 -0.734375 C 5.503906 -0.734375 6.003906 -0.832031 6.484375 -1.03125 C 6.960938 -1.238281 7.363281 -1.53125 7.6875 -1.90625 L 8.296875 -1.265625 C 7.878906 -0.828125 7.378906 -0.484375 6.796875 -0.234375 C 6.210938 0.015625 5.597656 0.140625 4.953125 0.140625 C 4.335938 0.140625 3.757812 0.0234375 3.21875 -0.203125 C 2.675781 -0.429688 2.207031 -0.742188 1.8125 -1.140625 C 1.414062 -1.535156 1.101562 -2 0.875 -2.53125 C 0.644531 -3.070312 0.53125 -3.648438 0.53125 -4.265625 C 0.53125 -4.867188 0.644531 -5.441406 0.875 -5.984375 C 1.101562 -6.523438 1.414062 -6.988281 1.8125 -7.375 C 2.207031 -7.769531 2.675781 -8.082031 3.21875 -8.3125 C 3.757812 -8.539062 4.335938 -8.65625 4.953125 -8.65625 C 5.609375 -8.65625 6.226562 -8.53125 6.8125 -8.28125 C 7.40625 -8.03125 7.910156 -7.6875 8.328125 -7.25 L 7.703125 -6.59375 C 7.367188 -6.96875 6.957031 -7.257812 6.46875 -7.46875 C 5.976562 -7.6875 5.472656 -7.796875 4.953125 -7.796875 C 4.460938 -7.796875 4.003906 -7.703125 3.578125 -7.515625 C 3.160156 -7.335938 2.796875 -7.09375 2.484375 -6.78125 C 2.171875 -6.46875 1.925781 -6.09375 1.75 -5.65625 C 1.570312 -5.21875 1.484375 -4.753906 1.484375 -4.265625 C 1.484375 -3.765625 1.570312 -3.296875 1.75 -2.859375 C 1.925781 -2.429688 2.171875 -2.0625 2.484375 -1.75 C 2.796875 -1.4375 3.164062 -1.1875 3.59375 -1 C 4.019531 -0.820312 4.484375 -0.734375 4.984375 -0.734375 Z M 4.984375 -0.734375 "/></g></g></g><g fill="#000000" fill-opacity="1"><g transform="translate(10.017233, 12.785482)"><g><path d="M 9.3125 -4.265625 C 9.3125 -3.648438 9.195312 -3.070312 8.96875 -2.53125 C 8.738281 -2 8.425781 -1.535156 8.03125 -1.140625 C 7.644531 -0.742188 7.179688 -0.429688 6.640625 -0.203125 C 6.109375 0.0234375 5.535156 0.140625 4.921875 0.140625 C 4.316406 0.140625 3.742188 0.0234375 3.203125 -0.203125 C 2.660156 -0.429688 2.191406 -0.742188 1.796875 -1.140625 C 1.410156 -1.535156 1.101562 -2 0.875 -2.53125 C 0.644531 -3.070312 0.53125 -3.648438 0.53125 -4.265625 C 0.53125 -4.867188 0.644531 -5.441406 0.875 -5.984375 C 1.101562 -6.523438 1.410156 -6.988281 1.796875 -7.375 C 2.191406 -7.769531 2.660156 -8.082031 3.203125 -8.3125 C 3.742188 -8.539062 4.316406 -8.65625 4.921875 -8.65625 C 5.535156 -8.65625 6.109375 -8.539062 6.640625 -8.3125 C 7.179688 -8.082031 7.644531 -7.769531 8.03125 -7.375 C 8.425781 -6.988281 8.738281 -6.523438 8.96875 -5.984375 C 9.195312 -5.441406 9.3125 -4.867188 9.3125 -4.265625 Z M 8.359375 -4.265625 C 8.359375 -4.753906 8.269531 -5.21875 8.09375 -5.65625 C 7.914062 -6.09375 7.671875 -6.46875 7.359375 -6.78125 C 7.054688 -7.09375 6.691406 -7.335938 6.265625 -7.515625 C 5.847656 -7.703125 5.398438 -7.796875 4.921875 -7.796875 C 4.441406 -7.796875 3.988281 -7.703125 3.5625 -7.515625 C 3.144531 -7.335938 2.78125 -7.09375 2.46875 -6.78125 C 2.164062 -6.46875 1.925781 -6.09375 1.75 -5.65625 C 1.570312 -5.21875 1.484375 -4.753906 1.484375 -4.265625 C 1.484375 -3.765625 1.570312 -3.300781 1.75 -2.875 C 1.925781 -2.445312 2.164062 -2.070312 2.46875 -1.75 C 2.78125 -1.4375 3.144531 -1.1875 3.5625 -1 C 3.988281 -0.820312 4.441406 -0.734375 4.921875 -0.734375 C 5.398438 -0.734375 5.847656 -0.820312 6.265625 -1 C 6.691406 -1.1875 7.054688 -1.4375 7.359375 -1.75 C 7.671875 -2.070312 7.914062 -2.445312 8.09375 -2.875 C 8.269531 -3.300781 8.359375 -3.765625 8.359375 -4.265625 Z M 8.359375 -4.265625 "/></g></g></g><g fill="#000000" fill-opacity="1"><g transform="translate(19.864102, 12.785482)"><g><path d="M 0.9375 0 L 0.9375 -8.515625 L 4.640625 -8.515625 C 5.460938 -8.515625 6.125 -8.289062 6.625 -7.84375 C 7.132812 -7.394531 7.390625 -6.800781 7.390625 -6.0625 C 7.390625 -5.320312 7.132812 -4.722656 6.625 -4.265625 C 6.113281 -3.816406 5.453125 -3.59375 4.640625 -3.59375 L 1.875 -3.59375 L 1.875 0 Z M 4.5625 -7.6875 L 1.875 -7.6875 L 1.875 -4.40625 L 4.5625 -4.40625 C 5.132812 -4.40625 5.59375 -4.550781 5.9375 -4.84375 C 6.28125 -5.144531 6.453125 -5.546875 6.453125 -6.046875 C 6.453125 -6.546875 6.28125 -6.941406 5.9375 -7.234375 C 5.59375 -7.535156 5.132812 -7.6875 4.5625 -7.6875 Z M 4.5625 -7.6875 "/></g></g></g><g fill="#000000" fill-opacity="1"><g transform="translate(26.497316, 12.785482)"><g><path d="M 0.046875 0 L 3.59375 -8.515625 L 4.71875 -8.515625 L 8.21875 0 L 7.1875 0 L 6.125 -2.671875 L 2.109375 -2.671875 L 1.015625 0 Z M 2.4375 -3.484375 L 5.796875 -3.484375 L 4.125 -7.640625 Z M 2.4375 -3.484375 "/></g></g></g><g fill="#000000" fill-opacity="1"><g transform="translate(33.154769, 12.785482)"><g><path d="M 3.421875 0 L 3.421875 -3.46875 L 0.03125 -8.515625 L 1.125 -8.515625 L 3.921875 -4.296875 L 6.6875 -8.515625 L 7.75 -8.515625 L 4.359375 -3.4375 L 4.359375 0 Z M 3.421875 0 "/></g></g></g></g></g><g transform="matrix(1, 0, 0, 1, 613, 99)"><g clip-path="url(#ecebcb8f30)"><g fill="#000000" fill-opacity="1"><g transform="translate(0.799803, 12.785482)"><g><path d="M 0.9375 0 L 0.9375 -8.515625 L 3.75 -8.515625 C 4.382812 -8.515625 4.976562 -8.40625 5.53125 -8.1875 C 6.082031 -7.976562 6.554688 -7.6875 6.953125 -7.3125 C 7.359375 -6.9375 7.671875 -6.488281 7.890625 -5.96875 C 8.117188 -5.445312 8.234375 -4.878906 8.234375 -4.265625 C 8.234375 -3.640625 8.117188 -3.066406 7.890625 -2.546875 C 7.671875 -2.023438 7.363281 -1.578125 6.96875 -1.203125 C 6.570312 -0.828125 6.097656 -0.53125 5.546875 -0.3125 C 4.992188 -0.101562 4.394531 0 3.75 0 Z M 3.796875 -7.671875 L 1.875 -7.671875 L 1.875 -0.859375 L 3.796875 -0.859375 C 4.285156 -0.859375 4.742188 -0.941406 5.171875 -1.109375 C 5.597656 -1.285156 5.96875 -1.523438 6.28125 -1.828125 C 6.59375 -2.128906 6.835938 -2.488281 7.015625 -2.90625 C 7.191406 -3.332031 7.28125 -3.785156 7.28125 -4.265625 C 7.28125 -4.742188 7.191406 -5.191406 7.015625 -5.609375 C 6.835938 -6.023438 6.59375 -6.382812 6.28125 -6.6875 C 5.96875 -6.988281 5.597656 -7.226562 5.171875 -7.40625 C 4.742188 -7.582031 4.285156 -7.671875 3.796875 -7.671875 Z M 3.796875 -7.671875 "/></g></g></g><g fill="#000000" fill-opacity="1"><g transform="translate(9.563394, 12.785482)"><g><path d="M 0.9375 0 L 0.9375 -8.515625 L 7.03125 -8.515625 L 7.03125 -7.6875 L 1.875 -7.6875 L 1.875 -4.703125 L 5.25 -4.703125 L 5.25 -3.890625 L 1.875 -3.890625 L 1.875 -0.828125 L 7.078125 -0.828125 L 7.078125 0 Z M 0.9375 0 "/></g></g></g><g fill="#000000" fill-opacity="1"><g transform="translate(17.061133, 12.785482)"><g><path d="M 0.9375 0 L 0.9375 -8.515625 L 3.75 -8.515625 C 4.382812 -8.515625 4.976562 -8.40625 5.53125 -8.1875 C 6.082031 -7.976562 6.554688 -7.6875 6.953125 -7.3125 C 7.359375 -6.9375 7.671875 -6.488281 7.890625 -5.96875 C 8.117188 -5.445312 8.234375 -4.878906 8.234375 -4.265625 C 8.234375 -3.640625 8.117188 -3.066406 7.890625 -2.546875 C 7.671875 -2.023438 7.363281 -1.578125 6.96875 -1.203125 C 6.570312 -0.828125 6.097656 -0.53125 5.546875 -0.3125 C 4.992188 -0.101562 4.394531 0 3.75 0 Z M 3.796875 -7.671875 L 1.875 -7.671875 L 1.875 -0.859375 L 3.796875 -0.859375 C 4.285156 -0.859375 4.742188 -0.941406 5.171875 -1.109375 C 5.597656 -1.285156 5.96875 -1.523438 6.28125 -1.828125 C 6.59375 -2.128906 6.835938 -2.488281 7.015625 -2.90625 C 7.191406 -3.332031 7.28125 -3.785156 7.28125 -4.265625 C 7.28125 -4.742188 7.191406 -5.191406 7.015625 -5.609375 C 6.835938 -6.023438 6.59375 -6.382812 6.28125 -6.6875 C 5.96875 -6.988281 5.597656 -7.226562 5.171875 -7.40625 C 4.742188 -7.582031 4.285156 -7.671875 3.796875 -7.671875 Z M 3.796875 -7.671875 "/></g></g></g><g fill="#000000" fill-opacity="1"><g transform="translate(25.824723, 12.785482)"><g><path d="M 7.796875 -3.609375 C 7.796875 -2.472656 7.476562 -1.5625 6.84375 -0.875 C 6.207031 -0.195312 5.351562 0.140625 4.28125 0.140625 C 3.207031 0.140625 2.351562 -0.195312 1.71875 -0.875 C 1.082031 -1.550781 0.765625 -2.460938 0.765625 -3.609375 L 0.765625 -8.515625 L 1.703125 -8.515625 L 1.703125 -3.609375 C 1.703125 -2.734375 1.9375 -2.035156 2.40625 -1.515625 C 2.875 -0.992188 3.5 -0.734375 4.28125 -0.734375 C 5.0625 -0.734375 5.6875 -0.992188 6.15625 -1.515625 C 6.625 -2.035156 6.859375 -2.734375 6.859375 -3.609375 L 6.859375 -8.515625 L 7.796875 -8.515625 Z M 7.796875 -3.609375 "/></g></g></g><g fill="#000000" fill-opacity="1"><g transform="translate(34.393569, 12.785482)"><g><path d="M 4.984375 -0.734375 C 5.503906 -0.734375 6.003906 -0.832031 6.484375 -1.03125 C 6.960938 -1.238281 7.363281 -1.53125 7.6875 -1.90625 L 8.296875 -1.265625 C 7.878906 -0.828125 7.378906 -0.484375 6.796875 -0.234375 C 6.210938 0.015625 5.597656 0.140625 4.953125 0.140625 C 4.335938 0.140625 3.757812 0.0234375 3.21875 -0.203125 C 2.675781 -0.429688 2.207031 -0.742188 1.8125 -1.140625 C 1.414062 -1.535156 1.101562 -2 0.875 -2.53125 C 0.644531 -3.070312 0.53125 -3.648438 0.53125 -4.265625 C 0.53125 -4.867188 0.644531 -5.441406 0.875 -5.984375 C 1.101562 -6.523438 1.414062 -6.988281 1.8125 -7.375 C 2.207031 -7.769531 2.675781 -8.082031 3.21875 -8.3125 C 3.757812 -8.539062 4.335938 -8.65625 4.953125 -8.65625 C 5.609375 -8.65625 6.226562 -8.53125 6.8125 -8.28125 C 7.40625 -8.03125 7.910156 -7.6875 8.328125 -7.25 L 7.703125 -6.59375 C 7.367188 -6.96875 6.957031 -7.257812 6.46875 -7.46875 C 5.976562 -7.6875 5.472656 -7.796875 4.953125 -7.796875 C 4.460938 -7.796875 4.003906 -7.703125 3.578125 -7.515625 C 3.160156 -7.335938 2.796875 -7.09375 2.484375 -6.78125 C 2.171875 -6.46875 1.925781 -6.09375 1.75 -5.65625 C 1.570312 -5.21875 1.484375 -4.753906 1.484375 -4.265625 C 1.484375 -3.765625 1.570312 -3.296875 1.75 -2.859375 C 1.925781 -2.429688 2.171875 -2.0625 2.484375 -1.75 C 2.796875 -1.4375 3.164062 -1.1875 3.59375 -1 C 4.019531 -0.820312 4.484375 -0.734375 4.984375 -0.734375 Z M 4.984375 -0.734375 "/></g></g></g><g fill="#000000" fill-opacity="1"><g transform="translate(43.303254, 12.785482)"><g><path d="M 0.203125 -7.6875 L 0.203125 -8.515625 L 7.296875 -8.515625 L 7.296875 -7.6875 L 4.21875 -7.6875 L 4.21875 0 L 3.28125 0 L 3.28125 -7.6875 Z M 0.203125 -7.6875 "/></g></g></g><g fill="#000000" fill-opacity="1"><g transform="translate(50.813165, 12.785482)"><g><path d="M 0.9375 0 L 0.9375 -8.515625 L 1.875 -8.515625 L 1.875 0 Z M 0.9375 0 "/></g></g></g><g fill="#000000" fill-opacity="1"><g transform="translate(53.624816, 12.785482)"><g><path d="M 0.9375 -8.515625 L 4.390625 -8.515625 C 5.210938 -8.515625 5.863281 -8.316406 6.34375 -7.921875 C 6.832031 -7.523438 7.078125 -6.992188 7.078125 -6.328125 C 7.078125 -5.890625 6.960938 -5.507812 6.734375 -5.1875 C 6.503906 -4.863281 6.1875 -4.613281 5.78125 -4.4375 C 6.289062 -4.289062 6.691406 -4.035156 6.984375 -3.671875 C 7.285156 -3.304688 7.4375 -2.878906 7.4375 -2.390625 C 7.4375 -1.660156 7.171875 -1.078125 6.640625 -0.640625 C 6.109375 -0.210938 5.410156 0 4.546875 0 L 0.9375 0 Z M 4.34375 -7.703125 L 1.875 -7.703125 L 1.875 -4.8125 L 4.34375 -4.8125 C 4.894531 -4.8125 5.332031 -4.941406 5.65625 -5.203125 C 5.988281 -5.460938 6.15625 -5.8125 6.15625 -6.25 C 6.15625 -6.6875 5.988281 -7.035156 5.65625 -7.296875 C 5.332031 -7.566406 4.894531 -7.703125 4.34375 -7.703125 Z M 4.46875 -0.8125 C 5.070312 -0.8125 5.554688 -0.957031 5.921875 -1.25 C 6.296875 -1.539062 6.484375 -1.929688 6.484375 -2.421875 C 6.484375 -2.910156 6.296875 -3.300781 5.921875 -3.59375 C 5.554688 -3.882812 5.070312 -4.03125 4.46875 -4.03125 L 1.875 -4.03125 L 1.875 -0.8125 Z M 4.46875 -0.8125 "/></g></g></g><g fill="#000000" fill-opacity="1"><g transform="translate(61.621593, 12.785482)"><g><path d="M 0.9375 0 L 0.9375 -8.515625 L 1.875 -8.515625 L 1.875 -0.84375 L 6.953125 -0.84375 L 6.953125 0 Z M 0.9375 0 "/></g></g></g><g clip-path="url(#928b4d10fd)"><g fill="#000000" fill-opacity="1"><g transform="translate(68.973275, 12.785482)"><g><path d="M 0.9375 0 L 0.9375 -8.515625 L 7.03125 -8.515625 L 7.03125 -7.6875 L 1.875 -7.6875 L 1.875 -4.703125 L 5.25 -4.703125 L 5.25 -3.890625 L 1.875 -3.890625 L 1.875 -0.828125 L 7.078125 -0.828125 L 7.078125 0 Z M 0.9375 0 "/></g></g></g></g></g></g><g transform="matrix(1, 0, 0, 1, 749, 99)"><g clip-path="url(#bfcd1a2ad7)"><g fill="#000000" fill-opacity="1"><g transform="translate(0.766779, 12.785482)"><g><path d="M 0.9375 0 L 0.9375 -8.515625 L 4.640625 -8.515625 C 5.460938 -8.515625 6.125 -8.289062 6.625 -7.84375 C 7.132812 -7.394531 7.390625 -6.800781 7.390625 -6.0625 C 7.390625 -5.320312 7.132812 -4.722656 6.625 -4.265625 C 6.113281 -3.816406 5.453125 -3.59375 4.640625 -3.59375 L 1.875 -3.59375 L 1.875 0 Z M 4.5625 -7.6875 L 1.875 -7.6875 L 1.875 -4.40625 L 4.5625 -4.40625 C 5.132812 -4.40625 5.59375 -4.550781 5.9375 -4.84375 C 6.28125 -5.144531 6.453125 -5.546875 6.453125 -6.046875 C 6.453125 -6.546875 6.28125 -6.941406 5.9375 -7.234375 C 5.59375 -7.535156 5.132812 -7.6875 4.5625 -7.6875 Z M 4.5625 -7.6875 "/></g></g></g><g fill="#000000" fill-opacity="1"><g transform="translate(8.641842, 12.785482)"><g><path d="M 0.9375 0 L 0.9375 -8.515625 L 1.875 -8.515625 L 1.875 -0.84375 L 6.953125 -0.84375 L 6.953125 0 Z M 0.9375 0 "/></g></g></g><g fill="#000000" fill-opacity="1"><g transform="translate(16.310075, 12.785482)"><g><path d="M 0.046875 0 L 3.59375 -8.515625 L 4.71875 -8.515625 L 8.21875 0 L 7.1875 0 L 6.125 -2.671875 L 2.109375 -2.671875 L 1.015625 0 Z M 2.4375 -3.484375 L 5.796875 -3.484375 L 4.125 -7.640625 Z M 2.4375 -3.484375 "/></g></g></g><g fill="#000000" fill-opacity="1"><g transform="translate(24.574628, 12.785482)"><g><path d="M 0.9375 -8.515625 L 1.875 -8.515625 L 7 -1.609375 L 7 -8.515625 L 7.890625 -8.515625 L 7.890625 0 L 7.0625 0 L 1.828125 -7.09375 L 1.828125 0 L 0.9375 0 Z M 0.9375 -8.515625 "/></g></g></g><g fill="#000000" fill-opacity="1"><g transform="translate(33.399079, 12.785482)"><g/></g></g><g fill="#000000" fill-opacity="1"><g transform="translate(36.015985, 12.785482)"><g><path d="M 0.9375 0 L 0.9375 -8.515625 L 3.75 -8.515625 C 4.382812 -8.515625 4.976562 -8.40625 5.53125 -8.1875 C 6.082031 -7.976562 6.554688 -7.6875 6.953125 -7.3125 C 7.359375 -6.9375 7.671875 -6.488281 7.890625 -5.96875 C 8.117188 -5.445312 8.234375 -4.878906 8.234375 -4.265625 C 8.234375 -3.640625 8.117188 -3.066406 7.890625 -2.546875 C 7.671875 -2.023438 7.363281 -1.578125 6.96875 -1.203125 C 6.570312 -0.828125 6.097656 -0.53125 5.546875 -0.3125 C 4.992188 -0.101562 4.394531 0 3.75 0 Z M 3.796875 -7.671875 L 1.875 -7.671875 L 1.875 -0.859375 L 3.796875 -0.859375 C 4.285156 -0.859375 4.742188 -0.941406 5.171875 -1.109375 C 5.597656 -1.285156 5.96875 -1.523438 6.28125 -1.828125 C 6.59375 -2.128906 6.835938 -2.488281 7.015625 -2.90625 C 7.191406 -3.332031 7.28125 -3.785156 7.28125 -4.265625 C 7.28125 -4.742188 7.191406 -5.191406 7.015625 -5.609375 C 6.835938 -6.023438 6.59375 -6.382812 6.28125 -6.6875 C 5.96875 -6.988281 5.597656 -7.226562 5.171875 -7.40625 C 4.742188 -7.582031 4.285156 -7.671875 3.796875 -7.671875 Z M 3.796875 -7.671875 "/></g></g></g><g fill="#000000" fill-opacity="1"><g transform="translate(44.341274, 12.785482)"><g><path d="M 0.046875 0 L 3.59375 -8.515625 L 4.71875 -8.515625 L 8.21875 0 L 7.1875 0 L 6.125 -2.671875 L 2.109375 -2.671875 L 1.015625 0 Z M 2.4375 -3.484375 L 5.796875 -3.484375 L 4.125 -7.640625 Z M 2.4375 -3.484375 "/></g></g></g><g fill="#000000" fill-opacity="1"><g transform="translate(51.047427, 12.785482)"><g><path d="M 0.203125 -7.6875 L 0.203125 -8.515625 L 7.296875 -8.515625 L 7.296875 -7.6875 L 4.21875 -7.6875 L 4.21875 0 L 3.28125 0 L 3.28125 -7.6875 Z M 0.203125 -7.6875 "/></g></g></g><g fill="#000000" fill-opacity="1"><g transform="translate(58.557338, 12.785482)"><g><path d="M 0.9375 0 L 0.9375 -8.515625 L 7.03125 -8.515625 L 7.03125 -7.6875 L 1.875 -7.6875 L 1.875 -4.703125 L 5.25 -4.703125 L 5.25 -3.890625 L 1.875 -3.890625 L 1.875 -0.828125 L 7.078125 -0.828125 L 7.078125 0 Z M 0.9375 0 "/></g></g></g><g clip-path="url(#2ba1755c10)"><g fill="#000000" fill-opacity="1"><g transform="translate(66.055077, 12.785482)"><g><path d="M 0.140625 -1.453125 L 0.75 -2.109375 C 1.1875 -1.640625 1.65625 -1.285156 2.15625 -1.046875 C 2.65625 -0.804688 3.179688 -0.6875 3.734375 -0.6875 C 4.398438 -0.6875 4.945312 -0.84375 5.375 -1.15625 C 5.8125 -1.476562 6.03125 -1.882812 6.03125 -2.375 C 6.03125 -2.8125 5.875 -3.144531 5.5625 -3.375 C 5.257812 -3.613281 4.757812 -3.789062 4.0625 -3.90625 L 2.84375 -4.109375 C 2.019531 -4.234375 1.410156 -4.472656 1.015625 -4.828125 C 0.628906 -5.179688 0.4375 -5.65625 0.4375 -6.25 C 0.4375 -6.957031 0.710938 -7.53125 1.265625 -7.96875 C 1.816406 -8.40625 2.539062 -8.625 3.4375 -8.625 C 4.03125 -8.625 4.617188 -8.523438 5.203125 -8.328125 C 5.785156 -8.140625 6.316406 -7.863281 6.796875 -7.5 L 6.25 -6.765625 C 5.789062 -7.117188 5.320312 -7.382812 4.84375 -7.5625 C 4.363281 -7.738281 3.878906 -7.828125 3.390625 -7.828125 C 2.785156 -7.828125 2.289062 -7.6875 1.90625 -7.40625 C 1.53125 -7.125 1.34375 -6.765625 1.34375 -6.328125 C 1.34375 -5.929688 1.476562 -5.625 1.75 -5.40625 C 2.019531 -5.195312 2.460938 -5.046875 3.078125 -4.953125 L 4.296875 -4.765625 C 5.222656 -4.609375 5.898438 -4.34375 6.328125 -3.96875 C 6.753906 -3.59375 6.96875 -3.078125 6.96875 -2.421875 C 6.96875 -2.046875 6.882812 -1.703125 6.71875 -1.390625 C 6.5625 -1.078125 6.335938 -0.804688 6.046875 -0.578125 C 5.765625 -0.359375 5.421875 -0.1875 5.015625 -0.0625 C 4.617188 0.0625 4.179688 0.125 3.703125 0.125 C 3.023438 0.125 2.375 -0.0078125 1.75 -0.28125 C 1.132812 -0.550781 0.597656 -0.941406 0.140625 -1.453125 Z M 0.140625 -1.453125 "/></g></g></g></g></g></g><g clip-path="url(#775aa731ca)"><path fill="#000000" d="M 46.714844 89.003906 L 46.714844 584.996094 M 181.140625 89.003906 L 181.140625 584.996094 M 315.570312 89.003906 L 315.570312 584.996094 M 450 89.003906 L 450 584.996094 M 584.429688 89.003906 L 584.429688 584.996094 M 718.859375 89.003906 L 718.859375 584.996094 M 853.285156 89.003906 L 853.285156 584.996094 M 46.308594 88.597656 L 853.691406 88.597656 M 46.308594 126.863281 L 853.691406 126.863281 M 46.308594 159.617188 L 853.691406 159.617188 M 46.308594 192.367188 L 853.691406 192.367188 M 46.308594 225.121094 L 853.691406 225.121094 M 46.308594 257.875 L 853.691406 257.875 M 46.308594 290.628906 L 853.691406 290.628906 M 46.308594 323.378906 L 853.691406 323.378906 M 46.308594 356.132812 L 853.691406 356.132812 M 46.308594 388.886719 L 853.691406 388.886719 M 46.308594 421.636719 L 853.691406 421.636719 M 46.308594 454.390625 L 853.691406 454.390625 M 46.308594 487.144531 L 853.691406 487.144531 M 46.308594 519.898438 L 853.691406 519.898438 M 46.308594 552.648438 L 853.691406 552.648438 M 46.308594 585.402344 L 853.691406 585.402344 " fill-opacity="1" fill-rule="nonzero"/></g><g clip-path="url(#8990a32e55)"><path stroke-linecap="butt" transform="matrix(0.748891, 0, 0, 0.748891, 46.306663, 88.192174)" fill="none" stroke-linejoin="miter" d="M 0.545047 1.083913 L 0.545047 663.386593 M 180.044961 1.083913 L 180.044961 663.386593 M 359.550091 1.083913 L 359.550091 663.386593 M 539.055222 1.083913 L 539.055222 663.386593 M 718.560352 1.083913 L 718.560352 663.386593 M 898.065483 1.083913 L 898.065483 663.386593 M 1077.565397 1.083913 L 1077.565397 663.386593 M 0.00257748 0.541444 L 1078.107866 0.541444 M 0.00257748 51.637865 L 1078.107866 51.637865 M 0.00257748 95.374441 L 1078.107866 95.374441 M 0.00257748 139.105801 L 1078.107866 139.105801 M 0.00257748 182.842377 L 1078.107866 182.842377 M 0.00257748 226.578952 L 1078.107866 226.578952 M 0.00257748 270.315528 L 1078.107866 270.315528 M 0.00257748 314.046888 L 1078.107866 314.046888 M 0.00257748 357.783464 L 1078.107866 357.783464 M 0.00257748 401.520039 L 1078.107866 401.520039 M 0.00257748 445.251399 L 1078.107866 445.251399 M 0.00257748 488.987975 L 1078.107866 488.987975 M 0.00257748 532.724551 L 1078.107866 532.724551 M 0.00257748 576.461126 L 1078.107866 576.461126 M 0.00257748 620.192486 L 1078.107866 620.192486 M 0.00257748 663.929062 L 1078.107866 663.929062 " stroke="#000000" stroke-width="1.086361" stroke-opacity="1" stroke-miterlimit="4"/></g></svg>