<svg xmlns="http://www.w3.org/2000/svg" xmlns:xlink="http://www.w3.org/1999/xlink" width="1167" zoomAndPan="magnify" viewBox="0 0 876 1326.749967" height="1800" preserveAspectRatio="xMidYMid meet" version="1.0"><defs><g/><clipPath id="3f75ed0456"><path d="M 0.03125 4 L 9 4 L 9 14 L 0.03125 14 Z M 0.03125 4 " clip-rule="nonzero"/></clipPath><clipPath id="d33ef5c473"><rect x="0" width="45" y="0" height="18"/></clipPath><clipPath id="880fe1ef4d"><rect x="0" width="75" y="0" height="18"/></clipPath><clipPath id="b10a978b64"><rect x="0" width="99" y="0" height="18"/></clipPath><clipPath id="10e2db894f"><rect x="0" width="44" y="0" height="18"/></clipPath><clipPath id="79f31c13b2"><rect x="0" width="81" y="0" height="18"/></clipPath><clipPath id="343492e301"><rect x="0" width="78" y="0" height="18"/></clipPath><clipPath id="e41d610ff7"><path d="M 4.835938 123.222656 L 870.921875 123.222656 L 870.921875 1325 L 4.835938 1325 Z M 4.835938 123.222656 " clip-rule="nonzero"/></clipPath><clipPath id="4a7df114e8"><path d="M 4.835938 123.222656 L 870.921875 123.222656 L 870.921875 1325.996094 L 4.835938 1325.996094 Z M 4.835938 123.222656 " clip-rule="nonzero"/></clipPath><clipPath id="e6c877ec42"><rect x="0" width="459" y="0" height="57"/></clipPath></defs><g transform="matrix(1, 0, 0, 1, 55, 151)"><g clip-path="url(#d33ef5c473)"><g clip-path="url(#3f75ed0456)"><g fill="#000000" fill-opacity="1"><g transform="translate(0.301125, 13.71241)"><g><path d="M 7.984375 -8.5625 C 8.085938 -8.488281 8.148438 -8.394531 8.171875 -8.28125 C 8.191406 -8.175781 8.164062 -8.070312 8.09375 -7.96875 C 8.03125 -7.882812 7.945312 -7.835938 7.84375 -7.828125 C 7.75 -7.816406 7.660156 -7.832031 7.578125 -7.875 C 7.242188 -8.101562 6.882812 -8.273438 6.5 -8.390625 C 6.113281 -8.515625 5.703125 -8.578125 5.265625 -8.578125 C 4.734375 -8.578125 4.234375 -8.484375 3.765625 -8.296875 C 3.304688 -8.109375 2.90625 -7.832031 2.5625 -7.46875 C 2.21875 -7.113281 1.953125 -6.695312 1.765625 -6.21875 C 1.578125 -5.738281 1.484375 -5.207031 1.484375 -4.625 C 1.484375 -4.019531 1.578125 -3.472656 1.765625 -2.984375 C 1.960938 -2.492188 2.234375 -2.070312 2.578125 -1.71875 C 2.929688 -1.375 3.332031 -1.109375 3.78125 -0.921875 C 4.238281 -0.734375 4.734375 -0.640625 5.265625 -0.640625 C 5.703125 -0.640625 6.109375 -0.703125 6.484375 -0.828125 C 6.867188 -0.953125 7.226562 -1.117188 7.5625 -1.328125 C 7.65625 -1.378906 7.75 -1.398438 7.84375 -1.390625 C 7.945312 -1.378906 8.03125 -1.328125 8.09375 -1.234375 C 8.175781 -1.140625 8.203125 -1.035156 8.171875 -0.921875 C 8.148438 -0.816406 8.09375 -0.734375 8 -0.671875 C 7.78125 -0.535156 7.519531 -0.40625 7.21875 -0.28125 C 6.914062 -0.15625 6.597656 -0.0546875 6.265625 0.015625 C 5.929688 0.0859375 5.597656 0.125 5.265625 0.125 C 4.628906 0.125 4.035156 0.015625 3.484375 -0.203125 C 2.929688 -0.429688 2.4375 -0.753906 2 -1.171875 C 1.570312 -1.597656 1.238281 -2.097656 1 -2.671875 C 0.757812 -3.253906 0.640625 -3.90625 0.640625 -4.625 C 0.640625 -5.3125 0.753906 -5.941406 0.984375 -6.515625 C 1.222656 -7.085938 1.550781 -7.582031 1.96875 -8 C 2.394531 -8.425781 2.890625 -8.757812 3.453125 -9 C 4.015625 -9.238281 4.617188 -9.359375 5.265625 -9.359375 C 5.765625 -9.359375 6.25 -9.285156 6.71875 -9.140625 C 7.1875 -9.003906 7.609375 -8.8125 7.984375 -8.5625 Z M 7.984375 -8.5625 "/></g></g></g></g><g fill="#000000" fill-opacity="1"><g transform="translate(8.924831, 13.71241)"><g><path d="M 6.34375 -0.78125 C 6.457031 -0.78125 6.550781 -0.738281 6.625 -0.65625 C 6.707031 -0.582031 6.75 -0.492188 6.75 -0.390625 C 6.75 -0.273438 6.707031 -0.179688 6.625 -0.109375 C 6.550781 -0.0351562 6.457031 0 6.34375 0 L 1.640625 0 C 1.523438 0 1.425781 -0.0351562 1.34375 -0.109375 C 1.269531 -0.191406 1.234375 -0.285156 1.234375 -0.390625 L 1.234375 -8.84375 C 1.234375 -8.945312 1.273438 -9.039062 1.359375 -9.125 C 1.441406 -9.207031 1.539062 -9.25 1.65625 -9.25 C 1.769531 -9.25 1.867188 -9.207031 1.953125 -9.125 C 2.035156 -9.039062 2.078125 -8.945312 2.078125 -8.84375 L 2.078125 -0.546875 L 1.828125 -0.78125 Z M 6.34375 -0.78125 "/></g></g></g><g fill="#000000" fill-opacity="1"><g transform="translate(15.950578, 13.71241)"><g><path d="M 2.078125 -0.40625 C 2.066406 -0.289062 2.019531 -0.191406 1.9375 -0.109375 C 1.851562 -0.0351562 1.757812 0 1.65625 0 C 1.53125 0 1.425781 -0.0351562 1.34375 -0.109375 C 1.269531 -0.191406 1.234375 -0.289062 1.234375 -0.40625 L 1.234375 -8.828125 C 1.234375 -8.941406 1.273438 -9.039062 1.359375 -9.125 C 1.441406 -9.207031 1.539062 -9.25 1.65625 -9.25 C 1.769531 -9.25 1.867188 -9.207031 1.953125 -9.125 C 2.035156 -9.039062 2.078125 -8.941406 2.078125 -8.828125 Z M 2.078125 -0.40625 "/></g></g></g><g fill="#000000" fill-opacity="1"><g transform="translate(19.252149, 13.71241)"><g><path d="M 1.640625 -9.25 L 6.484375 -9.25 C 6.585938 -9.25 6.675781 -9.207031 6.75 -9.125 C 6.832031 -9.050781 6.875 -8.957031 6.875 -8.84375 C 6.875 -8.726562 6.832031 -8.632812 6.75 -8.5625 C 6.675781 -8.5 6.585938 -8.46875 6.484375 -8.46875 L 1.9375 -8.46875 L 2.078125 -8.6875 L 2.078125 -4.984375 L 1.921875 -5.15625 L 5.890625 -5.15625 C 5.992188 -5.15625 6.082031 -5.113281 6.15625 -5.03125 C 6.238281 -4.945312 6.28125 -4.851562 6.28125 -4.75 C 6.28125 -4.632812 6.238281 -4.539062 6.15625 -4.46875 C 6.082031 -4.40625 5.992188 -4.375 5.890625 -4.375 L 1.953125 -4.375 L 2.078125 -4.5 L 2.078125 -0.703125 L 2 -0.78125 L 6.484375 -0.78125 C 6.585938 -0.78125 6.675781 -0.738281 6.75 -0.65625 C 6.832031 -0.582031 6.875 -0.492188 6.875 -0.390625 C 6.875 -0.273438 6.832031 -0.179688 6.75 -0.109375 C 6.675781 -0.0351562 6.585938 0 6.484375 0 L 1.640625 0 C 1.535156 0 1.441406 -0.0351562 1.359375 -0.109375 C 1.273438 -0.191406 1.234375 -0.285156 1.234375 -0.390625 L 1.234375 -8.84375 C 1.234375 -8.945312 1.273438 -9.039062 1.359375 -9.125 C 1.441406 -9.207031 1.535156 -9.25 1.640625 -9.25 Z M 1.640625 -9.25 "/></g></g></g><g fill="#000000" fill-opacity="1"><g transform="translate(26.75332, 13.71241)"><g><path d="M 8 -9.25 C 8.113281 -9.25 8.203125 -9.210938 8.265625 -9.140625 C 8.335938 -9.066406 8.375 -8.976562 8.375 -8.875 L 8.375 -0.421875 C 8.375 -0.285156 8.332031 -0.179688 8.25 -0.109375 C 8.164062 -0.0351562 8.070312 0 7.96875 0 C 7.90625 0 7.84375 -0.0078125 7.78125 -0.03125 C 7.726562 -0.0507812 7.679688 -0.0820312 7.640625 -0.125 L 1.75 -8.0625 L 1.984375 -8.1875 L 1.984375 -0.359375 C 1.984375 -0.265625 1.945312 -0.179688 1.875 -0.109375 C 1.800781 -0.0351562 1.710938 0 1.609375 0 C 1.492188 0 1.398438 -0.0351562 1.328125 -0.109375 C 1.265625 -0.179688 1.234375 -0.265625 1.234375 -0.359375 L 1.234375 -8.84375 C 1.234375 -8.976562 1.273438 -9.078125 1.359375 -9.140625 C 1.441406 -9.210938 1.53125 -9.25 1.625 -9.25 C 1.675781 -9.25 1.734375 -9.234375 1.796875 -9.203125 C 1.859375 -9.179688 1.90625 -9.144531 1.9375 -9.09375 L 7.765625 -1.25 L 7.625 -1.015625 L 7.625 -8.875 C 7.625 -8.976562 7.660156 -9.066406 7.734375 -9.140625 C 7.816406 -9.210938 7.90625 -9.25 8 -9.25 Z M 8 -9.25 "/></g></g></g><g fill="#000000" fill-opacity="1"><g transform="translate(36.367501, 13.71241)"><g><path d="M 3.984375 0 C 3.859375 0 3.757812 -0.0351562 3.6875 -0.109375 C 3.613281 -0.191406 3.578125 -0.285156 3.578125 -0.390625 L 3.578125 -8.8125 L 4.390625 -8.8125 L 4.390625 -0.390625 C 4.390625 -0.285156 4.347656 -0.191406 4.265625 -0.109375 C 4.191406 -0.0351562 4.097656 0 3.984375 0 Z M 0.84375 -8.484375 C 0.738281 -8.484375 0.644531 -8.519531 0.5625 -8.59375 C 0.488281 -8.664062 0.453125 -8.757812 0.453125 -8.875 C 0.453125 -8.976562 0.488281 -9.066406 0.5625 -9.140625 C 0.644531 -9.210938 0.738281 -9.25 0.84375 -9.25 L 7.125 -9.25 C 7.226562 -9.25 7.320312 -9.210938 7.40625 -9.140625 C 7.488281 -9.066406 7.53125 -8.972656 7.53125 -8.859375 C 7.53125 -8.742188 7.488281 -8.648438 7.40625 -8.578125 C 7.320312 -8.515625 7.226562 -8.484375 7.125 -8.484375 Z M 0.84375 -8.484375 "/></g></g></g></g></g><g transform="matrix(1, 0, 0, 1, 184, 151)"><g clip-path="url(#880fe1ef4d)"><g fill="#000000" fill-opacity="1"><g transform="translate(0.997519, 13.71241)"><g><path d="M 2.078125 -0.40625 C 2.066406 -0.289062 2.019531 -0.191406 1.9375 -0.109375 C 1.851562 -0.0351562 1.757812 0 1.65625 0 C 1.53125 0 1.425781 -0.0351562 1.34375 -0.109375 C 1.269531 -0.191406 1.234375 -0.289062 1.234375 -0.40625 L 1.234375 -8.828125 C 1.234375 -8.941406 1.273438 -9.039062 1.359375 -9.125 C 1.441406 -9.207031 1.539062 -9.25 1.65625 -9.25 C 1.769531 -9.25 1.867188 -9.207031 1.953125 -9.125 C 2.035156 -9.039062 2.078125 -8.941406 2.078125 -8.828125 Z M 2.078125 -0.40625 "/></g></g></g><g fill="#000000" fill-opacity="1"><g transform="translate(4.29909, 13.71241)"><g><path d="M 8 -9.25 C 8.113281 -9.25 8.203125 -9.210938 8.265625 -9.140625 C 8.335938 -9.066406 8.375 -8.976562 8.375 -8.875 L 8.375 -0.421875 C 8.375 -0.285156 8.332031 -0.179688 8.25 -0.109375 C 8.164062 -0.0351562 8.070312 0 7.96875 0 C 7.90625 0 7.84375 -0.0078125 7.78125 -0.03125 C 7.726562 -0.0507812 7.679688 -0.0820312 7.640625 -0.125 L 1.75 -8.0625 L 1.984375 -8.1875 L 1.984375 -0.359375 C 1.984375 -0.265625 1.945312 -0.179688 1.875 -0.109375 C 1.800781 -0.0351562 1.710938 0 1.609375 0 C 1.492188 0 1.398438 -0.0351562 1.328125 -0.109375 C 1.265625 -0.179688 1.234375 -0.265625 1.234375 -0.359375 L 1.234375 -8.84375 C 1.234375 -8.976562 1.273438 -9.078125 1.359375 -9.140625 C 1.441406 -9.210938 1.53125 -9.25 1.625 -9.25 C 1.675781 -9.25 1.734375 -9.234375 1.796875 -9.203125 C 1.859375 -9.179688 1.90625 -9.144531 1.9375 -9.09375 L 7.765625 -1.25 L 7.625 -1.015625 L 7.625 -8.875 C 7.625 -8.976562 7.660156 -9.066406 7.734375 -9.140625 C 7.816406 -9.210938 7.90625 -9.25 8 -9.25 Z M 8 -9.25 "/></g></g></g><g fill="#000000" fill-opacity="1"><g transform="translate(13.913271, 13.71241)"><g><path d="M 3.796875 0.125 C 3.117188 0.132812 2.535156 0.03125 2.046875 -0.1875 C 1.554688 -0.40625 1.085938 -0.734375 0.640625 -1.171875 C 0.585938 -1.210938 0.546875 -1.257812 0.515625 -1.3125 C 0.484375 -1.363281 0.46875 -1.421875 0.46875 -1.484375 C 0.46875 -1.597656 0.507812 -1.695312 0.59375 -1.78125 C 0.675781 -1.875 0.773438 -1.921875 0.890625 -1.921875 C 0.992188 -1.921875 1.085938 -1.875 1.171875 -1.78125 C 1.515625 -1.414062 1.90625 -1.132812 2.34375 -0.9375 C 2.78125 -0.738281 3.25 -0.640625 3.75 -0.640625 C 4.175781 -0.640625 4.550781 -0.707031 4.875 -0.84375 C 5.207031 -0.976562 5.46875 -1.164062 5.65625 -1.40625 C 5.851562 -1.65625 5.953125 -1.941406 5.953125 -2.265625 C 5.953125 -2.671875 5.84375 -3 5.625 -3.25 C 5.40625 -3.5 5.113281 -3.707031 4.75 -3.875 C 4.394531 -4.039062 3.992188 -4.1875 3.546875 -4.3125 C 3.191406 -4.414062 2.847656 -4.535156 2.515625 -4.671875 C 2.191406 -4.816406 1.898438 -4.988281 1.640625 -5.1875 C 1.390625 -5.382812 1.191406 -5.625 1.046875 -5.90625 C 0.910156 -6.195312 0.84375 -6.550781 0.84375 -6.96875 C 0.84375 -7.4375 0.960938 -7.847656 1.203125 -8.203125 C 1.453125 -8.566406 1.800781 -8.851562 2.25 -9.0625 C 2.707031 -9.269531 3.238281 -9.375 3.84375 -9.375 C 4.363281 -9.375 4.863281 -9.285156 5.34375 -9.109375 C 5.820312 -8.929688 6.203125 -8.671875 6.484375 -8.328125 C 6.617188 -8.191406 6.6875 -8.066406 6.6875 -7.953125 C 6.6875 -7.859375 6.640625 -7.765625 6.546875 -7.671875 C 6.460938 -7.585938 6.367188 -7.546875 6.265625 -7.546875 C 6.171875 -7.546875 6.09375 -7.578125 6.03125 -7.640625 C 5.882812 -7.828125 5.695312 -7.992188 5.46875 -8.140625 C 5.238281 -8.285156 4.984375 -8.394531 4.703125 -8.46875 C 4.429688 -8.550781 4.144531 -8.59375 3.84375 -8.59375 C 3.425781 -8.59375 3.050781 -8.53125 2.71875 -8.40625 C 2.394531 -8.28125 2.132812 -8.097656 1.9375 -7.859375 C 1.75 -7.617188 1.65625 -7.332031 1.65625 -7 C 1.65625 -6.625 1.757812 -6.316406 1.96875 -6.078125 C 2.1875 -5.847656 2.46875 -5.65625 2.8125 -5.5 C 3.15625 -5.34375 3.519531 -5.195312 3.90625 -5.0625 C 4.28125 -4.957031 4.640625 -4.835938 4.984375 -4.703125 C 5.335938 -4.566406 5.648438 -4.394531 5.921875 -4.1875 C 6.191406 -3.988281 6.398438 -3.734375 6.546875 -3.421875 C 6.703125 -3.117188 6.78125 -2.734375 6.78125 -2.265625 C 6.78125 -1.816406 6.648438 -1.410156 6.390625 -1.046875 C 6.140625 -0.691406 5.789062 -0.40625 5.34375 -0.1875 C 4.90625 0.0195312 4.390625 0.125 3.796875 0.125 Z M 3.796875 0.125 "/></g></g></g><g fill="#000000" fill-opacity="1"><g transform="translate(21.33521, 13.71241)"><g><path d="M 7.78125 -9.25 C 7.90625 -9.25 8 -9.207031 8.0625 -9.125 C 8.132812 -9.050781 8.171875 -8.957031 8.171875 -8.84375 L 8.171875 -3.375 C 8.171875 -2.726562 8.015625 -2.140625 7.703125 -1.609375 C 7.398438 -1.078125 6.988281 -0.65625 6.46875 -0.34375 C 5.945312 -0.03125 5.363281 0.125 4.71875 0.125 C 4.0625 0.125 3.472656 -0.03125 2.953125 -0.34375 C 2.429688 -0.65625 2.015625 -1.078125 1.703125 -1.609375 C 1.390625 -2.140625 1.234375 -2.726562 1.234375 -3.375 L 1.234375 -8.84375 C 1.234375 -8.957031 1.269531 -9.050781 1.34375 -9.125 C 1.425781 -9.207031 1.53125 -9.25 1.65625 -9.25 C 1.769531 -9.25 1.863281 -9.207031 1.9375 -9.125 C 2.019531 -9.050781 2.0625 -8.957031 2.0625 -8.84375 L 2.0625 -3.375 C 2.0625 -2.863281 2.179688 -2.40625 2.421875 -2 C 2.660156 -1.601562 2.984375 -1.28125 3.390625 -1.03125 C 3.796875 -0.789062 4.238281 -0.671875 4.71875 -0.671875 C 5.207031 -0.671875 5.65625 -0.789062 6.0625 -1.03125 C 6.46875 -1.28125 6.789062 -1.601562 7.03125 -2 C 7.269531 -2.40625 7.390625 -2.863281 7.390625 -3.375 L 7.390625 -8.84375 C 7.390625 -8.957031 7.425781 -9.050781 7.5 -9.125 C 7.570312 -9.207031 7.664062 -9.25 7.78125 -9.25 Z M 7.78125 -9.25 "/></g></g></g><g fill="#000000" fill-opacity="1"><g transform="translate(30.751298, 13.71241)"><g><path d="M 1.6875 0 C 1.550781 0 1.441406 -0.0351562 1.359375 -0.109375 C 1.273438 -0.191406 1.234375 -0.285156 1.234375 -0.390625 L 1.234375 -8.84375 C 1.234375 -8.945312 1.273438 -9.039062 1.359375 -9.125 C 1.441406 -9.207031 1.535156 -9.25 1.640625 -9.25 L 5.203125 -9.25 C 5.703125 -9.25 6.148438 -9.140625 6.546875 -8.921875 C 6.941406 -8.703125 7.25 -8.398438 7.46875 -8.015625 C 7.695312 -7.640625 7.8125 -7.21875 7.8125 -6.75 C 7.8125 -6.363281 7.738281 -6.003906 7.59375 -5.671875 C 7.457031 -5.347656 7.257812 -5.070312 7 -4.84375 C 6.75 -4.625 6.46875 -4.460938 6.15625 -4.359375 L 5.6875 -4.5 C 6.007812 -4.476562 6.3125 -4.375 6.59375 -4.1875 C 6.882812 -4.007812 7.113281 -3.765625 7.28125 -3.453125 C 7.445312 -3.140625 7.535156 -2.765625 7.546875 -2.328125 C 7.554688 -1.941406 7.578125 -1.644531 7.609375 -1.4375 C 7.640625 -1.226562 7.6875 -1.070312 7.75 -0.96875 C 7.8125 -0.863281 7.890625 -0.78125 7.984375 -0.71875 C 8.078125 -0.664062 8.140625 -0.585938 8.171875 -0.484375 C 8.203125 -0.390625 8.191406 -0.300781 8.140625 -0.21875 C 8.097656 -0.144531 8.039062 -0.09375 7.96875 -0.0625 C 7.90625 -0.03125 7.835938 -0.015625 7.765625 -0.015625 C 7.703125 -0.015625 7.632812 -0.03125 7.5625 -0.0625 C 7.4375 -0.132812 7.3125 -0.242188 7.1875 -0.390625 C 7.0625 -0.546875 6.957031 -0.765625 6.875 -1.046875 C 6.789062 -1.335938 6.75 -1.742188 6.75 -2.265625 C 6.75 -2.609375 6.691406 -2.890625 6.578125 -3.109375 C 6.472656 -3.335938 6.332031 -3.507812 6.15625 -3.625 C 5.988281 -3.738281 5.800781 -3.820312 5.59375 -3.875 C 5.382812 -3.925781 5.1875 -3.953125 5 -3.953125 L 1.921875 -3.953125 L 2.078125 -4.125 L 2.078125 -0.390625 C 2.078125 -0.285156 2.039062 -0.191406 1.96875 -0.109375 C 1.894531 -0.0351562 1.800781 0 1.6875 0 Z M 1.921875 -4.671875 L 5.234375 -4.671875 C 5.535156 -4.703125 5.816406 -4.800781 6.078125 -4.96875 C 6.347656 -5.144531 6.5625 -5.378906 6.71875 -5.671875 C 6.882812 -5.972656 6.96875 -6.320312 6.96875 -6.71875 C 6.96875 -7.21875 6.796875 -7.632812 6.453125 -7.96875 C 6.117188 -8.300781 5.679688 -8.46875 5.140625 -8.46875 L 1.984375 -8.46875 L 2.078125 -8.640625 L 2.078125 -4.484375 Z M 1.921875 -4.671875 "/></g></g></g><g fill="#000000" fill-opacity="1"><g transform="translate(39.599516, 13.71241)"><g><path d="M 4.328125 -8.21875 L 1.125 -0.25 C 1.082031 -0.164062 1.03125 -0.0976562 0.96875 -0.046875 C 0.914062 -0.00390625 0.847656 0.015625 0.765625 0.015625 C 0.640625 0.015625 0.546875 -0.015625 0.484375 -0.078125 C 0.421875 -0.148438 0.390625 -0.234375 0.390625 -0.328125 C 0.378906 -0.367188 0.378906 -0.421875 0.390625 -0.484375 L 3.875 -9.015625 C 3.925781 -9.109375 3.984375 -9.175781 4.046875 -9.21875 C 4.109375 -9.257812 4.1875 -9.28125 4.28125 -9.28125 C 4.363281 -9.28125 4.4375 -9.253906 4.5 -9.203125 C 4.570312 -9.160156 4.625 -9.097656 4.65625 -9.015625 L 8.140625 -0.53125 C 8.148438 -0.476562 8.15625 -0.425781 8.15625 -0.375 C 8.15625 -0.25 8.113281 -0.148438 8.03125 -0.078125 C 7.957031 -0.015625 7.867188 0.015625 7.765625 0.015625 C 7.671875 0.015625 7.59375 -0.00390625 7.53125 -0.046875 C 7.46875 -0.0976562 7.414062 -0.164062 7.375 -0.25 L 4.09375 -8.28125 Z M 1.890625 -2.671875 L 2.21875 -3.453125 L 6.3125 -3.453125 L 6.46875 -2.671875 Z M 1.890625 -2.671875 "/></g></g></g><g fill="#000000" fill-opacity="1"><g transform="translate(48.143989, 13.71241)"><g><path d="M 8 -9.25 C 8.113281 -9.25 8.203125 -9.210938 8.265625 -9.140625 C 8.335938 -9.066406 8.375 -8.976562 8.375 -8.875 L 8.375 -0.421875 C 8.375 -0.285156 8.332031 -0.179688 8.25 -0.109375 C 8.164062 -0.0351562 8.070312 0 7.96875 0 C 7.90625 0 7.84375 -0.0078125 7.78125 -0.03125 C 7.726562 -0.0507812 7.679688 -0.0820312 7.640625 -0.125 L 1.75 -8.0625 L 1.984375 -8.1875 L 1.984375 -0.359375 C 1.984375 -0.265625 1.945312 -0.179688 1.875 -0.109375 C 1.800781 -0.0351562 1.710938 0 1.609375 0 C 1.492188 0 1.398438 -0.0351562 1.328125 -0.109375 C 1.265625 -0.179688 1.234375 -0.265625 1.234375 -0.359375 L 1.234375 -8.84375 C 1.234375 -8.976562 1.273438 -9.078125 1.359375 -9.140625 C 1.441406 -9.210938 1.53125 -9.25 1.625 -9.25 C 1.675781 -9.25 1.734375 -9.234375 1.796875 -9.203125 C 1.859375 -9.179688 1.90625 -9.144531 1.9375 -9.09375 L 7.765625 -1.25 L 7.625 -1.015625 L 7.625 -8.875 C 7.625 -8.976562 7.660156 -9.066406 7.734375 -9.140625 C 7.816406 -9.210938 7.90625 -9.25 8 -9.25 Z M 8 -9.25 "/></g></g></g><g fill="#000000" fill-opacity="1"><g transform="translate(57.75817, 13.71241)"><g><path d="M 7.984375 -8.5625 C 8.085938 -8.488281 8.148438 -8.394531 8.171875 -8.28125 C 8.191406 -8.175781 8.164062 -8.070312 8.09375 -7.96875 C 8.03125 -7.882812 7.945312 -7.835938 7.84375 -7.828125 C 7.75 -7.816406 7.660156 -7.832031 7.578125 -7.875 C 7.242188 -8.101562 6.882812 -8.273438 6.5 -8.390625 C 6.113281 -8.515625 5.703125 -8.578125 5.265625 -8.578125 C 4.734375 -8.578125 4.234375 -8.484375 3.765625 -8.296875 C 3.304688 -8.109375 2.90625 -7.832031 2.5625 -7.46875 C 2.21875 -7.113281 1.953125 -6.695312 1.765625 -6.21875 C 1.578125 -5.738281 1.484375 -5.207031 1.484375 -4.625 C 1.484375 -4.019531 1.578125 -3.472656 1.765625 -2.984375 C 1.960938 -2.492188 2.234375 -2.070312 2.578125 -1.71875 C 2.929688 -1.375 3.332031 -1.109375 3.78125 -0.921875 C 4.238281 -0.734375 4.734375 -0.640625 5.265625 -0.640625 C 5.703125 -0.640625 6.109375 -0.703125 6.484375 -0.828125 C 6.867188 -0.953125 7.226562 -1.117188 7.5625 -1.328125 C 7.65625 -1.378906 7.75 -1.398438 7.84375 -1.390625 C 7.945312 -1.378906 8.03125 -1.328125 8.09375 -1.234375 C 8.175781 -1.140625 8.203125 -1.035156 8.171875 -0.921875 C 8.148438 -0.816406 8.09375 -0.734375 8 -0.671875 C 7.78125 -0.535156 7.519531 -0.40625 7.21875 -0.28125 C 6.914062 -0.15625 6.597656 -0.0546875 6.265625 0.015625 C 5.929688 0.0859375 5.597656 0.125 5.265625 0.125 C 4.628906 0.125 4.035156 0.015625 3.484375 -0.203125 C 2.929688 -0.429688 2.4375 -0.753906 2 -1.171875 C 1.570312 -1.597656 1.238281 -2.097656 1 -2.671875 C 0.757812 -3.253906 0.640625 -3.90625 0.640625 -4.625 C 0.640625 -5.3125 0.753906 -5.941406 0.984375 -6.515625 C 1.222656 -7.085938 1.550781 -7.582031 1.96875 -8 C 2.394531 -8.425781 2.890625 -8.757812 3.453125 -9 C 4.015625 -9.238281 4.617188 -9.359375 5.265625 -9.359375 C 5.765625 -9.359375 6.25 -9.285156 6.71875 -9.140625 C 7.1875 -9.003906 7.609375 -8.8125 7.984375 -8.5625 Z M 7.984375 -8.5625 "/></g></g></g><g fill="#000000" fill-opacity="1"><g transform="translate(66.381876, 13.71241)"><g><path d="M 1.640625 -9.25 L 6.484375 -9.25 C 6.585938 -9.25 6.675781 -9.207031 6.75 -9.125 C 6.832031 -9.050781 6.875 -8.957031 6.875 -8.84375 C 6.875 -8.726562 6.832031 -8.632812 6.75 -8.5625 C 6.675781 -8.5 6.585938 -8.46875 6.484375 -8.46875 L 1.9375 -8.46875 L 2.078125 -8.6875 L 2.078125 -4.984375 L 1.921875 -5.15625 L 5.890625 -5.15625 C 5.992188 -5.15625 6.082031 -5.113281 6.15625 -5.03125 C 6.238281 -4.945312 6.28125 -4.851562 6.28125 -4.75 C 6.28125 -4.632812 6.238281 -4.539062 6.15625 -4.46875 C 6.082031 -4.40625 5.992188 -4.375 5.890625 -4.375 L 1.953125 -4.375 L 2.078125 -4.5 L 2.078125 -0.703125 L 2 -0.78125 L 6.484375 -0.78125 C 6.585938 -0.78125 6.675781 -0.738281 6.75 -0.65625 C 6.832031 -0.582031 6.875 -0.492188 6.875 -0.390625 C 6.875 -0.273438 6.832031 -0.179688 6.75 -0.109375 C 6.675781 -0.0351562 6.585938 0 6.484375 0 L 1.640625 0 C 1.535156 0 1.441406 -0.0351562 1.359375 -0.109375 C 1.273438 -0.191406 1.234375 -0.285156 1.234375 -0.390625 L 1.234375 -8.84375 C 1.234375 -8.945312 1.273438 -9.039062 1.359375 -9.125 C 1.441406 -9.207031 1.535156 -9.25 1.640625 -9.25 Z M 1.640625 -9.25 "/></g></g></g></g></g><g transform="matrix(1, 0, 0, 1, 316, 151)"><g clip-path="url(#b10a978b64)"><g fill="#000000" fill-opacity="1"><g transform="translate(1.300703, 13.71241)"><g><path d="M 4.765625 -9.25 C 5.253906 -9.25 5.6875 -9.132812 6.0625 -8.90625 C 6.445312 -8.675781 6.75 -8.363281 6.96875 -7.96875 C 7.1875 -7.570312 7.296875 -7.117188 7.296875 -6.609375 C 7.296875 -6.097656 7.1875 -5.640625 6.96875 -5.234375 C 6.75 -4.828125 6.445312 -4.503906 6.0625 -4.265625 C 5.6875 -4.023438 5.253906 -3.90625 4.765625 -3.90625 L 1.96875 -3.90625 L 2.03125 -4.046875 L 2.03125 -0.390625 C 2.03125 -0.285156 1.988281 -0.191406 1.90625 -0.109375 C 1.832031 -0.0351562 1.742188 0 1.640625 0 C 1.515625 0 1.414062 -0.0351562 1.34375 -0.109375 C 1.269531 -0.191406 1.234375 -0.285156 1.234375 -0.390625 L 1.234375 -8.84375 C 1.234375 -8.945312 1.273438 -9.039062 1.359375 -9.125 C 1.441406 -9.207031 1.535156 -9.25 1.640625 -9.25 Z M 4.765625 -4.671875 C 5.109375 -4.671875 5.40625 -4.753906 5.65625 -4.921875 C 5.914062 -5.097656 6.117188 -5.332031 6.265625 -5.625 C 6.410156 -5.925781 6.484375 -6.253906 6.484375 -6.609375 C 6.484375 -6.972656 6.410156 -7.289062 6.265625 -7.5625 C 6.117188 -7.84375 5.914062 -8.0625 5.65625 -8.21875 C 5.40625 -8.382812 5.109375 -8.46875 4.765625 -8.46875 L 1.96875 -8.46875 L 2.03125 -8.578125 L 2.03125 -4.59375 L 1.953125 -4.671875 Z M 4.765625 -4.671875 "/></g></g></g><g fill="#000000" fill-opacity="1"><g transform="translate(9.171652, 13.71241)"><g><path d="M 6.34375 -0.78125 C 6.457031 -0.78125 6.550781 -0.738281 6.625 -0.65625 C 6.707031 -0.582031 6.75 -0.492188 6.75 -0.390625 C 6.75 -0.273438 6.707031 -0.179688 6.625 -0.109375 C 6.550781 -0.0351562 6.457031 0 6.34375 0 L 1.640625 0 C 1.523438 0 1.425781 -0.0351562 1.34375 -0.109375 C 1.269531 -0.191406 1.234375 -0.285156 1.234375 -0.390625 L 1.234375 -8.84375 C 1.234375 -8.945312 1.273438 -9.039062 1.359375 -9.125 C 1.441406 -9.207031 1.539062 -9.25 1.65625 -9.25 C 1.769531 -9.25 1.867188 -9.207031 1.953125 -9.125 C 2.035156 -9.039062 2.078125 -8.945312 2.078125 -8.84375 L 2.078125 -0.546875 L 1.828125 -0.78125 Z M 6.34375 -0.78125 "/></g></g></g><g fill="#000000" fill-opacity="1"><g transform="translate(16.197399, 13.71241)"><g><path d="M 4.328125 -8.21875 L 1.125 -0.25 C 1.082031 -0.164062 1.03125 -0.0976562 0.96875 -0.046875 C 0.914062 -0.00390625 0.847656 0.015625 0.765625 0.015625 C 0.640625 0.015625 0.546875 -0.015625 0.484375 -0.078125 C 0.421875 -0.148438 0.390625 -0.234375 0.390625 -0.328125 C 0.378906 -0.367188 0.378906 -0.421875 0.390625 -0.484375 L 3.875 -9.015625 C 3.925781 -9.109375 3.984375 -9.175781 4.046875 -9.21875 C 4.109375 -9.257812 4.1875 -9.28125 4.28125 -9.28125 C 4.363281 -9.28125 4.4375 -9.253906 4.5 -9.203125 C 4.570312 -9.160156 4.625 -9.097656 4.65625 -9.015625 L 8.140625 -0.53125 C 8.148438 -0.476562 8.15625 -0.425781 8.15625 -0.375 C 8.15625 -0.25 8.113281 -0.148438 8.03125 -0.078125 C 7.957031 -0.015625 7.867188 0.015625 7.765625 0.015625 C 7.671875 0.015625 7.59375 -0.00390625 7.53125 -0.046875 C 7.46875 -0.0976562 7.414062 -0.164062 7.375 -0.25 L 4.09375 -8.28125 Z M 1.890625 -2.671875 L 2.21875 -3.453125 L 6.3125 -3.453125 L 6.46875 -2.671875 Z M 1.890625 -2.671875 "/></g></g></g><g fill="#000000" fill-opacity="1"><g transform="translate(24.741872, 13.71241)"><g><path d="M 8 -9.25 C 8.113281 -9.25 8.203125 -9.210938 8.265625 -9.140625 C 8.335938 -9.066406 8.375 -8.976562 8.375 -8.875 L 8.375 -0.421875 C 8.375 -0.285156 8.332031 -0.179688 8.25 -0.109375 C 8.164062 -0.0351562 8.070312 0 7.96875 0 C 7.90625 0 7.84375 -0.0078125 7.78125 -0.03125 C 7.726562 -0.0507812 7.679688 -0.0820312 7.640625 -0.125 L 1.75 -8.0625 L 1.984375 -8.1875 L 1.984375 -0.359375 C 1.984375 -0.265625 1.945312 -0.179688 1.875 -0.109375 C 1.800781 -0.0351562 1.710938 0 1.609375 0 C 1.492188 0 1.398438 -0.0351562 1.328125 -0.109375 C 1.265625 -0.179688 1.234375 -0.265625 1.234375 -0.359375 L 1.234375 -8.84375 C 1.234375 -8.976562 1.273438 -9.078125 1.359375 -9.140625 C 1.441406 -9.210938 1.53125 -9.25 1.625 -9.25 C 1.675781 -9.25 1.734375 -9.234375 1.796875 -9.203125 C 1.859375 -9.179688 1.90625 -9.144531 1.9375 -9.09375 L 7.765625 -1.25 L 7.625 -1.015625 L 7.625 -8.875 C 7.625 -8.976562 7.660156 -9.066406 7.734375 -9.140625 C 7.816406 -9.210938 7.90625 -9.25 8 -9.25 Z M 8 -9.25 "/></g></g></g><g fill="#000000" fill-opacity="1"><g transform="translate(34.356053, 13.71241)"><g><path d="M 0.46875 1.703125 C 0.363281 1.703125 0.273438 1.664062 0.203125 1.59375 C 0.140625 1.519531 0.109375 1.429688 0.109375 1.328125 C 0.109375 1.265625 0.125 1.203125 0.15625 1.140625 L 5.90625 -10.234375 C 5.96875 -10.359375 6.03125 -10.441406 6.09375 -10.484375 C 6.15625 -10.523438 6.238281 -10.546875 6.34375 -10.546875 C 6.414062 -10.546875 6.488281 -10.515625 6.5625 -10.453125 C 6.644531 -10.390625 6.6875 -10.300781 6.6875 -10.1875 C 6.6875 -10.113281 6.664062 -10.035156 6.625 -9.953125 L 0.890625 1.421875 C 0.828125 1.523438 0.765625 1.597656 0.703125 1.640625 C 0.640625 1.679688 0.5625 1.703125 0.46875 1.703125 Z M 0.46875 1.703125 "/></g></g></g><g fill="#000000" fill-opacity="1"><g transform="translate(41.24974, 13.71241)"><g><path d="M 4.765625 -9.25 C 5.253906 -9.25 5.6875 -9.132812 6.0625 -8.90625 C 6.445312 -8.675781 6.75 -8.363281 6.96875 -7.96875 C 7.1875 -7.570312 7.296875 -7.117188 7.296875 -6.609375 C 7.296875 -6.097656 7.1875 -5.640625 6.96875 -5.234375 C 6.75 -4.828125 6.445312 -4.503906 6.0625 -4.265625 C 5.6875 -4.023438 5.253906 -3.90625 4.765625 -3.90625 L 1.96875 -3.90625 L 2.03125 -4.046875 L 2.03125 -0.390625 C 2.03125 -0.285156 1.988281 -0.191406 1.90625 -0.109375 C 1.832031 -0.0351562 1.742188 0 1.640625 0 C 1.515625 0 1.414062 -0.0351562 1.34375 -0.109375 C 1.269531 -0.191406 1.234375 -0.285156 1.234375 -0.390625 L 1.234375 -8.84375 C 1.234375 -8.945312 1.273438 -9.039062 1.359375 -9.125 C 1.441406 -9.207031 1.535156 -9.25 1.640625 -9.25 Z M 4.765625 -4.671875 C 5.109375 -4.671875 5.40625 -4.753906 5.65625 -4.921875 C 5.914062 -5.097656 6.117188 -5.332031 6.265625 -5.625 C 6.410156 -5.925781 6.484375 -6.253906 6.484375 -6.609375 C 6.484375 -6.972656 6.410156 -7.289062 6.265625 -7.5625 C 6.117188 -7.84375 5.914062 -8.0625 5.65625 -8.21875 C 5.40625 -8.382812 5.109375 -8.46875 4.765625 -8.46875 L 1.96875 -8.46875 L 2.03125 -8.578125 L 2.03125 -4.59375 L 1.953125 -4.671875 Z M 4.765625 -4.671875 "/></g></g></g><g fill="#000000" fill-opacity="1"><g transform="translate(49.12069, 13.71241)"><g><path d="M 9.484375 -4.625 C 9.484375 -3.925781 9.375 -3.285156 9.15625 -2.703125 C 8.9375 -2.128906 8.628906 -1.628906 8.234375 -1.203125 C 7.835938 -0.773438 7.367188 -0.445312 6.828125 -0.21875 C 6.285156 0.0078125 5.695312 0.125 5.0625 0.125 C 4.414062 0.125 3.820312 0.0078125 3.28125 -0.21875 C 2.738281 -0.445312 2.269531 -0.773438 1.875 -1.203125 C 1.476562 -1.628906 1.171875 -2.128906 0.953125 -2.703125 C 0.742188 -3.285156 0.640625 -3.925781 0.640625 -4.625 C 0.640625 -5.320312 0.742188 -5.957031 0.953125 -6.53125 C 1.171875 -7.101562 1.476562 -7.601562 1.875 -8.03125 C 2.269531 -8.457031 2.738281 -8.785156 3.28125 -9.015625 C 3.820312 -9.253906 4.414062 -9.375 5.0625 -9.375 C 5.695312 -9.375 6.285156 -9.253906 6.828125 -9.015625 C 7.367188 -8.785156 7.835938 -8.457031 8.234375 -8.03125 C 8.628906 -7.601562 8.9375 -7.101562 9.15625 -6.53125 C 9.375 -5.957031 9.484375 -5.320312 9.484375 -4.625 Z M 8.640625 -4.625 C 8.640625 -5.40625 8.484375 -6.09375 8.171875 -6.6875 C 7.867188 -7.28125 7.445312 -7.742188 6.90625 -8.078125 C 6.375 -8.410156 5.757812 -8.578125 5.0625 -8.578125 C 4.363281 -8.578125 3.742188 -8.410156 3.203125 -8.078125 C 2.660156 -7.742188 2.238281 -7.28125 1.9375 -6.6875 C 1.632812 -6.09375 1.484375 -5.40625 1.484375 -4.625 C 1.484375 -3.84375 1.632812 -3.148438 1.9375 -2.546875 C 2.238281 -1.953125 2.660156 -1.488281 3.203125 -1.15625 C 3.742188 -0.820312 4.363281 -0.65625 5.0625 -0.65625 C 5.757812 -0.65625 6.375 -0.820312 6.90625 -1.15625 C 7.445312 -1.488281 7.867188 -1.953125 8.171875 -2.546875 C 8.484375 -3.148438 8.640625 -3.84375 8.640625 -4.625 Z M 8.640625 -4.625 "/></g></g></g><g fill="#000000" fill-opacity="1"><g transform="translate(59.236708, 13.71241)"><g><path d="M 6.34375 -0.78125 C 6.457031 -0.78125 6.550781 -0.738281 6.625 -0.65625 C 6.707031 -0.582031 6.75 -0.492188 6.75 -0.390625 C 6.75 -0.273438 6.707031 -0.179688 6.625 -0.109375 C 6.550781 -0.0351562 6.457031 0 6.34375 0 L 1.640625 0 C 1.523438 0 1.425781 -0.0351562 1.34375 -0.109375 C 1.269531 -0.191406 1.234375 -0.285156 1.234375 -0.390625 L 1.234375 -8.84375 C 1.234375 -8.945312 1.273438 -9.039062 1.359375 -9.125 C 1.441406 -9.207031 1.539062 -9.25 1.65625 -9.25 C 1.769531 -9.25 1.867188 -9.207031 1.953125 -9.125 C 2.035156 -9.039062 2.078125 -8.945312 2.078125 -8.84375 L 2.078125 -0.546875 L 1.828125 -0.78125 Z M 6.34375 -0.78125 "/></g></g></g><g fill="#000000" fill-opacity="1"><g transform="translate(66.262455, 13.71241)"><g><path d="M 2.078125 -0.40625 C 2.066406 -0.289062 2.019531 -0.191406 1.9375 -0.109375 C 1.851562 -0.0351562 1.757812 0 1.65625 0 C 1.53125 0 1.425781 -0.0351562 1.34375 -0.109375 C 1.269531 -0.191406 1.234375 -0.289062 1.234375 -0.40625 L 1.234375 -8.828125 C 1.234375 -8.941406 1.273438 -9.039062 1.359375 -9.125 C 1.441406 -9.207031 1.539062 -9.25 1.65625 -9.25 C 1.769531 -9.25 1.867188 -9.207031 1.953125 -9.125 C 2.035156 -9.039062 2.078125 -8.941406 2.078125 -8.828125 Z M 2.078125 -0.40625 "/></g></g></g><g fill="#000000" fill-opacity="1"><g transform="translate(69.564026, 13.71241)"><g><path d="M 7.984375 -8.5625 C 8.085938 -8.488281 8.148438 -8.394531 8.171875 -8.28125 C 8.191406 -8.175781 8.164062 -8.070312 8.09375 -7.96875 C 8.03125 -7.882812 7.945312 -7.835938 7.84375 -7.828125 C 7.75 -7.816406 7.660156 -7.832031 7.578125 -7.875 C 7.242188 -8.101562 6.882812 -8.273438 6.5 -8.390625 C 6.113281 -8.515625 5.703125 -8.578125 5.265625 -8.578125 C 4.734375 -8.578125 4.234375 -8.484375 3.765625 -8.296875 C 3.304688 -8.109375 2.90625 -7.832031 2.5625 -7.46875 C 2.21875 -7.113281 1.953125 -6.695312 1.765625 -6.21875 C 1.578125 -5.738281 1.484375 -5.207031 1.484375 -4.625 C 1.484375 -4.019531 1.578125 -3.472656 1.765625 -2.984375 C 1.960938 -2.492188 2.234375 -2.070312 2.578125 -1.71875 C 2.929688 -1.375 3.332031 -1.109375 3.78125 -0.921875 C 4.238281 -0.734375 4.734375 -0.640625 5.265625 -0.640625 C 5.703125 -0.640625 6.109375 -0.703125 6.484375 -0.828125 C 6.867188 -0.953125 7.226562 -1.117188 7.5625 -1.328125 C 7.65625 -1.378906 7.75 -1.398438 7.84375 -1.390625 C 7.945312 -1.378906 8.03125 -1.328125 8.09375 -1.234375 C 8.175781 -1.140625 8.203125 -1.035156 8.171875 -0.921875 C 8.148438 -0.816406 8.09375 -0.734375 8 -0.671875 C 7.78125 -0.535156 7.519531 -0.40625 7.21875 -0.28125 C 6.914062 -0.15625 6.597656 -0.0546875 6.265625 0.015625 C 5.929688 0.0859375 5.597656 0.125 5.265625 0.125 C 4.628906 0.125 4.035156 0.015625 3.484375 -0.203125 C 2.929688 -0.429688 2.4375 -0.753906 2 -1.171875 C 1.570312 -1.597656 1.238281 -2.097656 1 -2.671875 C 0.757812 -3.253906 0.640625 -3.90625 0.640625 -4.625 C 0.640625 -5.3125 0.753906 -5.941406 0.984375 -6.515625 C 1.222656 -7.085938 1.550781 -7.582031 1.96875 -8 C 2.394531 -8.425781 2.890625 -8.757812 3.453125 -9 C 4.015625 -9.238281 4.617188 -9.359375 5.265625 -9.359375 C 5.765625 -9.359375 6.25 -9.285156 6.71875 -9.140625 C 7.1875 -9.003906 7.609375 -8.8125 7.984375 -8.5625 Z M 7.984375 -8.5625 "/></g></g></g><g fill="#000000" fill-opacity="1"><g transform="translate(78.187731, 13.71241)"><g><path d="M 6.75 -9.296875 C 6.863281 -9.296875 6.957031 -9.253906 7.03125 -9.171875 C 7.101562 -9.085938 7.140625 -9 7.140625 -8.90625 C 7.140625 -8.851562 7.132812 -8.804688 7.125 -8.765625 C 7.113281 -8.734375 7.09375 -8.691406 7.0625 -8.640625 L 3.96875 -4.390625 L 4.125 -4.890625 L 4.125 -0.390625 C 4.125 -0.285156 4.082031 -0.191406 4 -0.109375 C 3.914062 -0.0351562 3.816406 0 3.703125 0 C 3.585938 0 3.492188 -0.0351562 3.421875 -0.109375 C 3.347656 -0.191406 3.3125 -0.285156 3.3125 -0.390625 L 3.3125 -4.8125 L 3.375 -4.484375 L 0.359375 -8.625 C 0.316406 -8.664062 0.285156 -8.707031 0.265625 -8.75 C 0.253906 -8.800781 0.25 -8.851562 0.25 -8.90625 C 0.25 -9.019531 0.296875 -9.113281 0.390625 -9.1875 C 0.484375 -9.257812 0.578125 -9.296875 0.671875 -9.296875 C 0.804688 -9.296875 0.914062 -9.234375 1 -9.109375 L 3.84375 -5.234375 L 3.640625 -5.265625 L 6.40625 -9.109375 C 6.488281 -9.234375 6.601562 -9.296875 6.75 -9.296875 Z M 6.75 -9.296875 "/></g></g></g><g fill="#000000" fill-opacity="1"><g transform="translate(85.57005, 13.71241)"><g/></g></g><g fill="#000000" fill-opacity="1"><g transform="translate(89.175366, 13.71241)"><g><path d="M 1.890625 0 C 1.753906 0 1.648438 -0.0507812 1.578125 -0.15625 C 1.503906 -0.257812 1.472656 -0.390625 1.484375 -0.546875 L 2.9375 -8.90625 C 2.957031 -9.007812 3.003906 -9.09375 3.078125 -9.15625 C 3.148438 -9.21875 3.234375 -9.25 3.328125 -9.25 C 3.460938 -9.25 3.566406 -9.195312 3.640625 -9.09375 C 3.722656 -8.988281 3.75 -8.863281 3.71875 -8.71875 L 2.28125 -0.34375 C 2.269531 -0.238281 2.226562 -0.15625 2.15625 -0.09375 C 2.082031 -0.03125 1.992188 0 1.890625 0 Z M 1.265625 -6.09375 C 1.140625 -6.09375 1.035156 -6.132812 0.953125 -6.21875 C 0.867188 -6.300781 0.828125 -6.40625 0.828125 -6.53125 C 0.828125 -6.644531 0.867188 -6.738281 0.953125 -6.8125 C 1.035156 -6.882812 1.140625 -6.921875 1.265625 -6.921875 L 7.890625 -6.921875 C 8.015625 -6.921875 8.113281 -6.878906 8.1875 -6.796875 C 8.269531 -6.710938 8.3125 -6.609375 8.3125 -6.484375 C 8.3125 -6.367188 8.269531 -6.273438 8.1875 -6.203125 C 8.113281 -6.128906 8.015625 -6.09375 7.890625 -6.09375 Z M 5.3125 0 C 5.164062 0 5.054688 -0.0507812 4.984375 -0.15625 C 4.910156 -0.257812 4.882812 -0.390625 4.90625 -0.546875 L 6.34375 -8.90625 C 6.363281 -9.007812 6.410156 -9.09375 6.484375 -9.15625 C 6.554688 -9.21875 6.644531 -9.25 6.75 -9.25 C 6.882812 -9.25 6.988281 -9.195312 7.0625 -9.09375 C 7.144531 -8.988281 7.171875 -8.863281 7.140625 -8.71875 L 5.703125 -0.34375 C 5.679688 -0.238281 5.632812 -0.15625 5.5625 -0.09375 C 5.5 -0.03125 5.414062 0 5.3125 0 Z M 0.734375 -2.390625 C 0.617188 -2.390625 0.519531 -2.429688 0.4375 -2.515625 C 0.351562 -2.597656 0.3125 -2.695312 0.3125 -2.8125 C 0.3125 -2.925781 0.351562 -3.015625 0.4375 -3.078125 C 0.519531 -3.148438 0.617188 -3.1875 0.734375 -3.1875 L 7.375 -3.1875 C 7.5 -3.1875 7.597656 -3.144531 7.671875 -3.0625 C 7.753906 -2.988281 7.796875 -2.890625 7.796875 -2.765625 C 7.796875 -2.648438 7.753906 -2.554688 7.671875 -2.484375 C 7.597656 -2.421875 7.5 -2.390625 7.375 -2.390625 Z M 0.734375 -2.390625 "/></g></g></g></g></g><g transform="matrix(1, 0, 0, 1, 488, 151)"><g clip-path="url(#10e2db894f)"><g fill="#000000" fill-opacity="1"><g transform="translate(0.953887, 13.71241)"><g><path d="M 7.984375 -8.5625 C 8.085938 -8.488281 8.148438 -8.394531 8.171875 -8.28125 C 8.191406 -8.175781 8.164062 -8.070312 8.09375 -7.96875 C 8.03125 -7.882812 7.945312 -7.835938 7.84375 -7.828125 C 7.75 -7.816406 7.660156 -7.832031 7.578125 -7.875 C 7.242188 -8.101562 6.882812 -8.273438 6.5 -8.390625 C 6.113281 -8.515625 5.703125 -8.578125 5.265625 -8.578125 C 4.734375 -8.578125 4.234375 -8.484375 3.765625 -8.296875 C 3.304688 -8.109375 2.90625 -7.832031 2.5625 -7.46875 C 2.21875 -7.113281 1.953125 -6.695312 1.765625 -6.21875 C 1.578125 -5.738281 1.484375 -5.207031 1.484375 -4.625 C 1.484375 -4.019531 1.578125 -3.472656 1.765625 -2.984375 C 1.960938 -2.492188 2.234375 -2.070312 2.578125 -1.71875 C 2.929688 -1.375 3.332031 -1.109375 3.78125 -0.921875 C 4.238281 -0.734375 4.734375 -0.640625 5.265625 -0.640625 C 5.703125 -0.640625 6.109375 -0.703125 6.484375 -0.828125 C 6.867188 -0.953125 7.226562 -1.117188 7.5625 -1.328125 C 7.65625 -1.378906 7.75 -1.398438 7.84375 -1.390625 C 7.945312 -1.378906 8.03125 -1.328125 8.09375 -1.234375 C 8.175781 -1.140625 8.203125 -1.035156 8.171875 -0.921875 C 8.148438 -0.816406 8.09375 -0.734375 8 -0.671875 C 7.78125 -0.535156 7.519531 -0.40625 7.21875 -0.28125 C 6.914062 -0.15625 6.597656 -0.0546875 6.265625 0.015625 C 5.929688 0.0859375 5.597656 0.125 5.265625 0.125 C 4.628906 0.125 4.035156 0.015625 3.484375 -0.203125 C 2.929688 -0.429688 2.4375 -0.753906 2 -1.171875 C 1.570312 -1.597656 1.238281 -2.097656 1 -2.671875 C 0.757812 -3.253906 0.640625 -3.90625 0.640625 -4.625 C 0.640625 -5.3125 0.753906 -5.941406 0.984375 -6.515625 C 1.222656 -7.085938 1.550781 -7.582031 1.96875 -8 C 2.394531 -8.425781 2.890625 -8.757812 3.453125 -9 C 4.015625 -9.238281 4.617188 -9.359375 5.265625 -9.359375 C 5.765625 -9.359375 6.25 -9.285156 6.71875 -9.140625 C 7.1875 -9.003906 7.609375 -8.8125 7.984375 -8.5625 Z M 7.984375 -8.5625 "/></g></g></g><g fill="#000000" fill-opacity="1"><g transform="translate(9.577592, 13.71241)"><g><path d="M 9.484375 -4.625 C 9.484375 -3.925781 9.375 -3.285156 9.15625 -2.703125 C 8.9375 -2.128906 8.628906 -1.628906 8.234375 -1.203125 C 7.835938 -0.773438 7.367188 -0.445312 6.828125 -0.21875 C 6.285156 0.0078125 5.695312 0.125 5.0625 0.125 C 4.414062 0.125 3.820312 0.0078125 3.28125 -0.21875 C 2.738281 -0.445312 2.269531 -0.773438 1.875 -1.203125 C 1.476562 -1.628906 1.171875 -2.128906 0.953125 -2.703125 C 0.742188 -3.285156 0.640625 -3.925781 0.640625 -4.625 C 0.640625 -5.320312 0.742188 -5.957031 0.953125 -6.53125 C 1.171875 -7.101562 1.476562 -7.601562 1.875 -8.03125 C 2.269531 -8.457031 2.738281 -8.785156 3.28125 -9.015625 C 3.820312 -9.253906 4.414062 -9.375 5.0625 -9.375 C 5.695312 -9.375 6.285156 -9.253906 6.828125 -9.015625 C 7.367188 -8.785156 7.835938 -8.457031 8.234375 -8.03125 C 8.628906 -7.601562 8.9375 -7.101562 9.15625 -6.53125 C 9.375 -5.957031 9.484375 -5.320312 9.484375 -4.625 Z M 8.640625 -4.625 C 8.640625 -5.40625 8.484375 -6.09375 8.171875 -6.6875 C 7.867188 -7.28125 7.445312 -7.742188 6.90625 -8.078125 C 6.375 -8.410156 5.757812 -8.578125 5.0625 -8.578125 C 4.363281 -8.578125 3.742188 -8.410156 3.203125 -8.078125 C 2.660156 -7.742188 2.238281 -7.28125 1.9375 -6.6875 C 1.632812 -6.09375 1.484375 -5.40625 1.484375 -4.625 C 1.484375 -3.84375 1.632812 -3.148438 1.9375 -2.546875 C 2.238281 -1.953125 2.660156 -1.488281 3.203125 -1.15625 C 3.742188 -0.820312 4.363281 -0.65625 5.0625 -0.65625 C 5.757812 -0.65625 6.375 -0.820312 6.90625 -1.15625 C 7.445312 -1.488281 7.867188 -1.953125 8.171875 -2.546875 C 8.484375 -3.148438 8.640625 -3.84375 8.640625 -4.625 Z M 8.640625 -4.625 "/></g></g></g><g fill="#000000" fill-opacity="1"><g transform="translate(19.693611, 13.71241)"><g><path d="M 4.765625 -9.25 C 5.253906 -9.25 5.6875 -9.132812 6.0625 -8.90625 C 6.445312 -8.675781 6.75 -8.363281 6.96875 -7.96875 C 7.1875 -7.570312 7.296875 -7.117188 7.296875 -6.609375 C 7.296875 -6.097656 7.1875 -5.640625 6.96875 -5.234375 C 6.75 -4.828125 6.445312 -4.503906 6.0625 -4.265625 C 5.6875 -4.023438 5.253906 -3.90625 4.765625 -3.90625 L 1.96875 -3.90625 L 2.03125 -4.046875 L 2.03125 -0.390625 C 2.03125 -0.285156 1.988281 -0.191406 1.90625 -0.109375 C 1.832031 -0.0351562 1.742188 0 1.640625 0 C 1.515625 0 1.414062 -0.0351562 1.34375 -0.109375 C 1.269531 -0.191406 1.234375 -0.285156 1.234375 -0.390625 L 1.234375 -8.84375 C 1.234375 -8.945312 1.273438 -9.039062 1.359375 -9.125 C 1.441406 -9.207031 1.535156 -9.25 1.640625 -9.25 Z M 4.765625 -4.671875 C 5.109375 -4.671875 5.40625 -4.753906 5.65625 -4.921875 C 5.914062 -5.097656 6.117188 -5.332031 6.265625 -5.625 C 6.410156 -5.925781 6.484375 -6.253906 6.484375 -6.609375 C 6.484375 -6.972656 6.410156 -7.289062 6.265625 -7.5625 C 6.117188 -7.84375 5.914062 -8.0625 5.65625 -8.21875 C 5.40625 -8.382812 5.109375 -8.46875 4.765625 -8.46875 L 1.96875 -8.46875 L 2.03125 -8.578125 L 2.03125 -4.59375 L 1.953125 -4.671875 Z M 4.765625 -4.671875 "/></g></g></g><g fill="#000000" fill-opacity="1"><g transform="translate(27.036161, 13.71241)"><g><path d="M 4.328125 -8.21875 L 1.125 -0.25 C 1.082031 -0.164062 1.03125 -0.0976562 0.96875 -0.046875 C 0.914062 -0.00390625 0.847656 0.015625 0.765625 0.015625 C 0.640625 0.015625 0.546875 -0.015625 0.484375 -0.078125 C 0.421875 -0.148438 0.390625 -0.234375 0.390625 -0.328125 C 0.378906 -0.367188 0.378906 -0.421875 0.390625 -0.484375 L 3.875 -9.015625 C 3.925781 -9.109375 3.984375 -9.175781 4.046875 -9.21875 C 4.109375 -9.257812 4.1875 -9.28125 4.28125 -9.28125 C 4.363281 -9.28125 4.4375 -9.253906 4.5 -9.203125 C 4.570312 -9.160156 4.625 -9.097656 4.65625 -9.015625 L 8.140625 -0.53125 C 8.148438 -0.476562 8.15625 -0.425781 8.15625 -0.375 C 8.15625 -0.25 8.113281 -0.148438 8.03125 -0.078125 C 7.957031 -0.015625 7.867188 0.015625 7.765625 0.015625 C 7.671875 0.015625 7.59375 -0.00390625 7.53125 -0.046875 C 7.46875 -0.0976562 7.414062 -0.164062 7.375 -0.25 L 4.09375 -8.28125 Z M 1.890625 -2.671875 L 2.21875 -3.453125 L 6.3125 -3.453125 L 6.46875 -2.671875 Z M 1.890625 -2.671875 "/></g></g></g><g fill="#000000" fill-opacity="1"><g transform="translate(35.012608, 13.71241)"><g><path d="M 6.75 -9.296875 C 6.863281 -9.296875 6.957031 -9.253906 7.03125 -9.171875 C 7.101562 -9.085938 7.140625 -9 7.140625 -8.90625 C 7.140625 -8.851562 7.132812 -8.804688 7.125 -8.765625 C 7.113281 -8.734375 7.09375 -8.691406 7.0625 -8.640625 L 3.96875 -4.390625 L 4.125 -4.890625 L 4.125 -0.390625 C 4.125 -0.285156 4.082031 -0.191406 4 -0.109375 C 3.914062 -0.0351562 3.816406 0 3.703125 0 C 3.585938 0 3.492188 -0.0351562 3.421875 -0.109375 C 3.347656 -0.191406 3.3125 -0.285156 3.3125 -0.390625 L 3.3125 -4.8125 L 3.375 -4.484375 L 0.359375 -8.625 C 0.316406 -8.664062 0.285156 -8.707031 0.265625 -8.75 C 0.253906 -8.800781 0.25 -8.851562 0.25 -8.90625 C 0.25 -9.019531 0.296875 -9.113281 0.390625 -9.1875 C 0.484375 -9.257812 0.578125 -9.296875 0.671875 -9.296875 C 0.804688 -9.296875 0.914062 -9.234375 1 -9.109375 L 3.84375 -5.234375 L 3.640625 -5.265625 L 6.40625 -9.109375 C 6.488281 -9.234375 6.601562 -9.296875 6.75 -9.296875 Z M 6.75 -9.296875 "/></g></g></g></g></g><g transform="matrix(1, 0, 0, 1, 613, 151)"><g clip-path="url(#79f31c13b2)"><g fill="#000000" fill-opacity="1"><g transform="translate(1.32633, 13.71241)"><g><path d="M 5 -9.25 C 5.65625 -9.25 6.226562 -9.125 6.71875 -8.875 C 7.207031 -8.625 7.609375 -8.28125 7.921875 -7.84375 C 8.234375 -7.414062 8.46875 -6.921875 8.625 -6.359375 C 8.78125 -5.804688 8.859375 -5.226562 8.859375 -4.625 C 8.859375 -3.78125 8.71875 -3.003906 8.4375 -2.296875 C 8.164062 -1.597656 7.742188 -1.039062 7.171875 -0.625 C 6.609375 -0.207031 5.882812 0 5 0 L 1.640625 0 C 1.535156 0 1.441406 -0.0351562 1.359375 -0.109375 C 1.273438 -0.191406 1.234375 -0.285156 1.234375 -0.390625 L 1.234375 -8.84375 C 1.234375 -8.945312 1.273438 -9.039062 1.359375 -9.125 C 1.441406 -9.207031 1.535156 -9.25 1.640625 -9.25 Z M 4.875 -0.78125 C 5.625 -0.78125 6.226562 -0.953125 6.6875 -1.296875 C 7.144531 -1.640625 7.476562 -2.101562 7.6875 -2.6875 C 7.90625 -3.269531 8.015625 -3.914062 8.015625 -4.625 C 8.015625 -5.132812 7.953125 -5.617188 7.828125 -6.078125 C 7.710938 -6.535156 7.53125 -6.941406 7.28125 -7.296875 C 7.03125 -7.660156 6.703125 -7.945312 6.296875 -8.15625 C 5.898438 -8.363281 5.425781 -8.46875 4.875 -8.46875 L 1.984375 -8.46875 L 2.078125 -8.578125 L 2.078125 -0.640625 L 2 -0.78125 Z M 4.875 -0.78125 "/></g></g></g><g fill="#000000" fill-opacity="1"><g transform="translate(10.821651, 13.71241)"><g><path d="M 1.640625 -9.25 L 6.484375 -9.25 C 6.585938 -9.25 6.675781 -9.207031 6.75 -9.125 C 6.832031 -9.050781 6.875 -8.957031 6.875 -8.84375 C 6.875 -8.726562 6.832031 -8.632812 6.75 -8.5625 C 6.675781 -8.5 6.585938 -8.46875 6.484375 -8.46875 L 1.9375 -8.46875 L 2.078125 -8.6875 L 2.078125 -4.984375 L 1.921875 -5.15625 L 5.890625 -5.15625 C 5.992188 -5.15625 6.082031 -5.113281 6.15625 -5.03125 C 6.238281 -4.945312 6.28125 -4.851562 6.28125 -4.75 C 6.28125 -4.632812 6.238281 -4.539062 6.15625 -4.46875 C 6.082031 -4.40625 5.992188 -4.375 5.890625 -4.375 L 1.953125 -4.375 L 2.078125 -4.5 L 2.078125 -0.703125 L 2 -0.78125 L 6.484375 -0.78125 C 6.585938 -0.78125 6.675781 -0.738281 6.75 -0.65625 C 6.832031 -0.582031 6.875 -0.492188 6.875 -0.390625 C 6.875 -0.273438 6.832031 -0.179688 6.75 -0.109375 C 6.675781 -0.0351562 6.585938 0 6.484375 0 L 1.640625 0 C 1.535156 0 1.441406 -0.0351562 1.359375 -0.109375 C 1.273438 -0.191406 1.234375 -0.285156 1.234375 -0.390625 L 1.234375 -8.84375 C 1.234375 -8.945312 1.273438 -9.039062 1.359375 -9.125 C 1.441406 -9.207031 1.535156 -9.25 1.640625 -9.25 Z M 1.640625 -9.25 "/></g></g></g><g fill="#000000" fill-opacity="1"><g transform="translate(18.322823, 13.71241)"><g><path d="M 5 -9.25 C 5.65625 -9.25 6.226562 -9.125 6.71875 -8.875 C 7.207031 -8.625 7.609375 -8.28125 7.921875 -7.84375 C 8.234375 -7.414062 8.46875 -6.921875 8.625 -6.359375 C 8.78125 -5.804688 8.859375 -5.226562 8.859375 -4.625 C 8.859375 -3.78125 8.71875 -3.003906 8.4375 -2.296875 C 8.164062 -1.597656 7.742188 -1.039062 7.171875 -0.625 C 6.609375 -0.207031 5.882812 0 5 0 L 1.640625 0 C 1.535156 0 1.441406 -0.0351562 1.359375 -0.109375 C 1.273438 -0.191406 1.234375 -0.285156 1.234375 -0.390625 L 1.234375 -8.84375 C 1.234375 -8.945312 1.273438 -9.039062 1.359375 -9.125 C 1.441406 -9.207031 1.535156 -9.25 1.640625 -9.25 Z M 4.875 -0.78125 C 5.625 -0.78125 6.226562 -0.953125 6.6875 -1.296875 C 7.144531 -1.640625 7.476562 -2.101562 7.6875 -2.6875 C 7.90625 -3.269531 8.015625 -3.914062 8.015625 -4.625 C 8.015625 -5.132812 7.953125 -5.617188 7.828125 -6.078125 C 7.710938 -6.535156 7.53125 -6.941406 7.28125 -7.296875 C 7.03125 -7.660156 6.703125 -7.945312 6.296875 -8.15625 C 5.898438 -8.363281 5.425781 -8.46875 4.875 -8.46875 L 1.984375 -8.46875 L 2.078125 -8.578125 L 2.078125 -0.640625 L 2 -0.78125 Z M 4.875 -0.78125 "/></g></g></g><g fill="#000000" fill-opacity="1"><g transform="translate(27.818144, 13.71241)"><g><path d="M 7.78125 -9.25 C 7.90625 -9.25 8 -9.207031 8.0625 -9.125 C 8.132812 -9.050781 8.171875 -8.957031 8.171875 -8.84375 L 8.171875 -3.375 C 8.171875 -2.726562 8.015625 -2.140625 7.703125 -1.609375 C 7.398438 -1.078125 6.988281 -0.65625 6.46875 -0.34375 C 5.945312 -0.03125 5.363281 0.125 4.71875 0.125 C 4.0625 0.125 3.472656 -0.03125 2.953125 -0.34375 C 2.429688 -0.65625 2.015625 -1.078125 1.703125 -1.609375 C 1.390625 -2.140625 1.234375 -2.726562 1.234375 -3.375 L 1.234375 -8.84375 C 1.234375 -8.957031 1.269531 -9.050781 1.34375 -9.125 C 1.425781 -9.207031 1.53125 -9.25 1.65625 -9.25 C 1.769531 -9.25 1.863281 -9.207031 1.9375 -9.125 C 2.019531 -9.050781 2.0625 -8.957031 2.0625 -8.84375 L 2.0625 -3.375 C 2.0625 -2.863281 2.179688 -2.40625 2.421875 -2 C 2.660156 -1.601562 2.984375 -1.28125 3.390625 -1.03125 C 3.796875 -0.789062 4.238281 -0.671875 4.71875 -0.671875 C 5.207031 -0.671875 5.65625 -0.789062 6.0625 -1.03125 C 6.46875 -1.28125 6.789062 -1.601562 7.03125 -2 C 7.269531 -2.40625 7.390625 -2.863281 7.390625 -3.375 L 7.390625 -8.84375 C 7.390625 -8.957031 7.425781 -9.050781 7.5 -9.125 C 7.570312 -9.207031 7.664062 -9.25 7.78125 -9.25 Z M 7.78125 -9.25 "/></g></g></g><g fill="#000000" fill-opacity="1"><g transform="translate(37.234233, 13.71241)"><g><path d="M 7.984375 -8.5625 C 8.085938 -8.488281 8.148438 -8.394531 8.171875 -8.28125 C 8.191406 -8.175781 8.164062 -8.070312 8.09375 -7.96875 C 8.03125 -7.882812 7.945312 -7.835938 7.84375 -7.828125 C 7.75 -7.816406 7.660156 -7.832031 7.578125 -7.875 C 7.242188 -8.101562 6.882812 -8.273438 6.5 -8.390625 C 6.113281 -8.515625 5.703125 -8.578125 5.265625 -8.578125 C 4.734375 -8.578125 4.234375 -8.484375 3.765625 -8.296875 C 3.304688 -8.109375 2.90625 -7.832031 2.5625 -7.46875 C 2.21875 -7.113281 1.953125 -6.695312 1.765625 -6.21875 C 1.578125 -5.738281 1.484375 -5.207031 1.484375 -4.625 C 1.484375 -4.019531 1.578125 -3.472656 1.765625 -2.984375 C 1.960938 -2.492188 2.234375 -2.070312 2.578125 -1.71875 C 2.929688 -1.375 3.332031 -1.109375 3.78125 -0.921875 C 4.238281 -0.734375 4.734375 -0.640625 5.265625 -0.640625 C 5.703125 -0.640625 6.109375 -0.703125 6.484375 -0.828125 C 6.867188 -0.953125 7.226562 -1.117188 7.5625 -1.328125 C 7.65625 -1.378906 7.75 -1.398438 7.84375 -1.390625 C 7.945312 -1.378906 8.03125 -1.328125 8.09375 -1.234375 C 8.175781 -1.140625 8.203125 -1.035156 8.171875 -0.921875 C 8.148438 -0.816406 8.09375 -0.734375 8 -0.671875 C 7.78125 -0.535156 7.519531 -0.40625 7.21875 -0.28125 C 6.914062 -0.15625 6.597656 -0.0546875 6.265625 0.015625 C 5.929688 0.0859375 5.597656 0.125 5.265625 0.125 C 4.628906 0.125 4.035156 0.015625 3.484375 -0.203125 C 2.929688 -0.429688 2.4375 -0.753906 2 -1.171875 C 1.570312 -1.597656 1.238281 -2.097656 1 -2.671875 C 0.757812 -3.253906 0.640625 -3.90625 0.640625 -4.625 C 0.640625 -5.3125 0.753906 -5.941406 0.984375 -6.515625 C 1.222656 -7.085938 1.550781 -7.582031 1.96875 -8 C 2.394531 -8.425781 2.890625 -8.757812 3.453125 -9 C 4.015625 -9.238281 4.617188 -9.359375 5.265625 -9.359375 C 5.765625 -9.359375 6.25 -9.285156 6.71875 -9.140625 C 7.1875 -9.003906 7.609375 -8.8125 7.984375 -8.5625 Z M 7.984375 -8.5625 "/></g></g></g><g fill="#000000" fill-opacity="1"><g transform="translate(45.857939, 13.71241)"><g><path d="M 3.984375 0 C 3.859375 0 3.757812 -0.0351562 3.6875 -0.109375 C 3.613281 -0.191406 3.578125 -0.285156 3.578125 -0.390625 L 3.578125 -8.8125 L 4.390625 -8.8125 L 4.390625 -0.390625 C 4.390625 -0.285156 4.347656 -0.191406 4.265625 -0.109375 C 4.191406 -0.0351562 4.097656 0 3.984375 0 Z M 0.84375 -8.484375 C 0.738281 -8.484375 0.644531 -8.519531 0.5625 -8.59375 C 0.488281 -8.664062 0.453125 -8.757812 0.453125 -8.875 C 0.453125 -8.976562 0.488281 -9.066406 0.5625 -9.140625 C 0.644531 -9.210938 0.738281 -9.25 0.84375 -9.25 L 7.125 -9.25 C 7.226562 -9.25 7.320312 -9.210938 7.40625 -9.140625 C 7.488281 -9.066406 7.53125 -8.972656 7.53125 -8.859375 C 7.53125 -8.742188 7.488281 -8.648438 7.40625 -8.578125 C 7.320312 -8.515625 7.226562 -8.484375 7.125 -8.484375 Z M 0.84375 -8.484375 "/></g></g></g><g fill="#000000" fill-opacity="1"><g transform="translate(53.834541, 13.71241)"><g><path d="M 2.078125 -0.40625 C 2.066406 -0.289062 2.019531 -0.191406 1.9375 -0.109375 C 1.851562 -0.0351562 1.757812 0 1.65625 0 C 1.53125 0 1.425781 -0.0351562 1.34375 -0.109375 C 1.269531 -0.191406 1.234375 -0.289062 1.234375 -0.40625 L 1.234375 -8.828125 C 1.234375 -8.941406 1.273438 -9.039062 1.359375 -9.125 C 1.441406 -9.207031 1.539062 -9.25 1.65625 -9.25 C 1.769531 -9.25 1.867188 -9.207031 1.953125 -9.125 C 2.035156 -9.039062 2.078125 -8.941406 2.078125 -8.828125 Z M 2.078125 -0.40625 "/></g></g></g><g fill="#000000" fill-opacity="1"><g transform="translate(57.136112, 13.71241)"><g><path d="M 5.140625 -9.25 C 5.878906 -9.25 6.457031 -9.046875 6.875 -8.640625 C 7.289062 -8.242188 7.5 -7.6875 7.5 -6.96875 C 7.5 -6.601562 7.421875 -6.25 7.265625 -5.90625 C 7.109375 -5.570312 6.875 -5.300781 6.5625 -5.09375 C 6.25 -4.894531 5.863281 -4.78125 5.40625 -4.75 L 5.359375 -5.015625 C 5.679688 -5.015625 6 -4.96875 6.3125 -4.875 C 6.625 -4.78125 6.90625 -4.628906 7.15625 -4.421875 C 7.40625 -4.222656 7.601562 -3.972656 7.75 -3.671875 C 7.894531 -3.367188 7.96875 -3.003906 7.96875 -2.578125 C 7.96875 -2.117188 7.890625 -1.722656 7.734375 -1.390625 C 7.585938 -1.054688 7.382812 -0.789062 7.125 -0.59375 C 6.863281 -0.394531 6.566406 -0.242188 6.234375 -0.140625 C 5.898438 -0.046875 5.550781 0 5.1875 0 L 1.640625 0 C 1.535156 0 1.441406 -0.0351562 1.359375 -0.109375 C 1.273438 -0.191406 1.234375 -0.285156 1.234375 -0.390625 L 1.234375 -8.84375 C 1.234375 -8.945312 1.273438 -9.039062 1.359375 -9.125 C 1.441406 -9.207031 1.535156 -9.25 1.640625 -9.25 Z M 5.03125 -8.46875 L 1.921875 -8.46875 L 2.09375 -8.703125 L 2.09375 -4.96875 L 1.9375 -5.15625 L 5.03125 -5.15625 C 5.488281 -5.164062 5.875 -5.316406 6.1875 -5.609375 C 6.5 -5.898438 6.65625 -6.332031 6.65625 -6.90625 C 6.65625 -7.382812 6.515625 -7.765625 6.234375 -8.046875 C 5.953125 -8.328125 5.550781 -8.46875 5.03125 -8.46875 Z M 5.125 -4.375 L 2.015625 -4.375 L 2.09375 -4.453125 L 2.09375 -0.65625 L 2 -0.78125 L 5.15625 -0.78125 C 5.71875 -0.78125 6.1875 -0.921875 6.5625 -1.203125 C 6.9375 -1.492188 7.125 -1.953125 7.125 -2.578125 C 7.125 -3.015625 7.03125 -3.363281 6.84375 -3.625 C 6.664062 -3.894531 6.421875 -4.085938 6.109375 -4.203125 C 5.804688 -4.316406 5.476562 -4.375 5.125 -4.375 Z M 5.125 -4.375 "/></g></g></g><g fill="#000000" fill-opacity="1"><g transform="translate(65.733405, 13.71241)"><g><path d="M 6.34375 -0.78125 C 6.457031 -0.78125 6.550781 -0.738281 6.625 -0.65625 C 6.707031 -0.582031 6.75 -0.492188 6.75 -0.390625 C 6.75 -0.273438 6.707031 -0.179688 6.625 -0.109375 C 6.550781 -0.0351562 6.457031 0 6.34375 0 L 1.640625 0 C 1.523438 0 1.425781 -0.0351562 1.34375 -0.109375 C 1.269531 -0.191406 1.234375 -0.285156 1.234375 -0.390625 L 1.234375 -8.84375 C 1.234375 -8.945312 1.273438 -9.039062 1.359375 -9.125 C 1.441406 -9.207031 1.539062 -9.25 1.65625 -9.25 C 1.769531 -9.25 1.867188 -9.207031 1.953125 -9.125 C 2.035156 -9.039062 2.078125 -8.945312 2.078125 -8.84375 L 2.078125 -0.546875 L 1.828125 -0.78125 Z M 6.34375 -0.78125 "/></g></g></g><g fill="#000000" fill-opacity="1"><g transform="translate(72.759151, 13.71241)"><g><path d="M 1.640625 -9.25 L 6.484375 -9.25 C 6.585938 -9.25 6.675781 -9.207031 6.75 -9.125 C 6.832031 -9.050781 6.875 -8.957031 6.875 -8.84375 C 6.875 -8.726562 6.832031 -8.632812 6.75 -8.5625 C 6.675781 -8.5 6.585938 -8.46875 6.484375 -8.46875 L 1.9375 -8.46875 L 2.078125 -8.6875 L 2.078125 -4.984375 L 1.921875 -5.15625 L 5.890625 -5.15625 C 5.992188 -5.15625 6.082031 -5.113281 6.15625 -5.03125 C 6.238281 -4.945312 6.28125 -4.851562 6.28125 -4.75 C 6.28125 -4.632812 6.238281 -4.539062 6.15625 -4.46875 C 6.082031 -4.40625 5.992188 -4.375 5.890625 -4.375 L 1.953125 -4.375 L 2.078125 -4.5 L 2.078125 -0.703125 L 2 -0.78125 L 6.484375 -0.78125 C 6.585938 -0.78125 6.675781 -0.738281 6.75 -0.65625 C 6.832031 -0.582031 6.875 -0.492188 6.875 -0.390625 C 6.875 -0.273438 6.832031 -0.179688 6.75 -0.109375 C 6.675781 -0.0351562 6.585938 0 6.484375 0 L 1.640625 0 C 1.535156 0 1.441406 -0.0351562 1.359375 -0.109375 C 1.273438 -0.191406 1.234375 -0.285156 1.234375 -0.390625 L 1.234375 -8.84375 C 1.234375 -8.945312 1.273438 -9.039062 1.359375 -9.125 C 1.441406 -9.207031 1.535156 -9.25 1.640625 -9.25 Z M 1.640625 -9.25 "/></g></g></g></g></g><g transform="matrix(1, 0, 0, 1, 759, 151)"><g clip-path="url(#343492e301)"><g fill="#000000" fill-opacity="1"><g transform="translate(0.470321, 13.71241)"><g><path d="M 4.765625 -9.25 C 5.253906 -9.25 5.6875 -9.132812 6.0625 -8.90625 C 6.445312 -8.675781 6.75 -8.363281 6.96875 -7.96875 C 7.1875 -7.570312 7.296875 -7.117188 7.296875 -6.609375 C 7.296875 -6.097656 7.1875 -5.640625 6.96875 -5.234375 C 6.75 -4.828125 6.445312 -4.503906 6.0625 -4.265625 C 5.6875 -4.023438 5.253906 -3.90625 4.765625 -3.90625 L 1.96875 -3.90625 L 2.03125 -4.046875 L 2.03125 -0.390625 C 2.03125 -0.285156 1.988281 -0.191406 1.90625 -0.109375 C 1.832031 -0.0351562 1.742188 0 1.640625 0 C 1.515625 0 1.414062 -0.0351562 1.34375 -0.109375 C 1.269531 -0.191406 1.234375 -0.285156 1.234375 -0.390625 L 1.234375 -8.84375 C 1.234375 -8.945312 1.273438 -9.039062 1.359375 -9.125 C 1.441406 -9.207031 1.535156 -9.25 1.640625 -9.25 Z M 4.765625 -4.671875 C 5.109375 -4.671875 5.40625 -4.753906 5.65625 -4.921875 C 5.914062 -5.097656 6.117188 -5.332031 6.265625 -5.625 C 6.410156 -5.925781 6.484375 -6.253906 6.484375 -6.609375 C 6.484375 -6.972656 6.410156 -7.289062 6.265625 -7.5625 C 6.117188 -7.84375 5.914062 -8.0625 5.65625 -8.21875 C 5.40625 -8.382812 5.109375 -8.46875 4.765625 -8.46875 L 1.96875 -8.46875 L 2.03125 -8.578125 L 2.03125 -4.59375 L 1.953125 -4.671875 Z M 4.765625 -4.671875 "/></g></g></g><g fill="#000000" fill-opacity="1"><g transform="translate(8.34127, 13.71241)"><g><path d="M 6.34375 -0.78125 C 6.457031 -0.78125 6.550781 -0.738281 6.625 -0.65625 C 6.707031 -0.582031 6.75 -0.492188 6.75 -0.390625 C 6.75 -0.273438 6.707031 -0.179688 6.625 -0.109375 C 6.550781 -0.0351562 6.457031 0 6.34375 0 L 1.640625 0 C 1.523438 0 1.425781 -0.0351562 1.34375 -0.109375 C 1.269531 -0.191406 1.234375 -0.285156 1.234375 -0.390625 L 1.234375 -8.84375 C 1.234375 -8.945312 1.273438 -9.039062 1.359375 -9.125 C 1.441406 -9.207031 1.539062 -9.25 1.65625 -9.25 C 1.769531 -9.25 1.867188 -9.207031 1.953125 -9.125 C 2.035156 -9.039062 2.078125 -8.945312 2.078125 -8.84375 L 2.078125 -0.546875 L 1.828125 -0.78125 Z M 6.34375 -0.78125 "/></g></g></g><g fill="#000000" fill-opacity="1"><g transform="translate(15.367016, 13.71241)"><g><path d="M 4.328125 -8.21875 L 1.125 -0.25 C 1.082031 -0.164062 1.03125 -0.0976562 0.96875 -0.046875 C 0.914062 -0.00390625 0.847656 0.015625 0.765625 0.015625 C 0.640625 0.015625 0.546875 -0.015625 0.484375 -0.078125 C 0.421875 -0.148438 0.390625 -0.234375 0.390625 -0.328125 C 0.378906 -0.367188 0.378906 -0.421875 0.390625 -0.484375 L 3.875 -9.015625 C 3.925781 -9.109375 3.984375 -9.175781 4.046875 -9.21875 C 4.109375 -9.257812 4.1875 -9.28125 4.28125 -9.28125 C 4.363281 -9.28125 4.4375 -9.253906 4.5 -9.203125 C 4.570312 -9.160156 4.625 -9.097656 4.65625 -9.015625 L 8.140625 -0.53125 C 8.148438 -0.476562 8.15625 -0.425781 8.15625 -0.375 C 8.15625 -0.25 8.113281 -0.148438 8.03125 -0.078125 C 7.957031 -0.015625 7.867188 0.015625 7.765625 0.015625 C 7.671875 0.015625 7.59375 -0.00390625 7.53125 -0.046875 C 7.46875 -0.0976562 7.414062 -0.164062 7.375 -0.25 L 4.09375 -8.28125 Z M 1.890625 -2.671875 L 2.21875 -3.453125 L 6.3125 -3.453125 L 6.46875 -2.671875 Z M 1.890625 -2.671875 "/></g></g></g><g fill="#000000" fill-opacity="1"><g transform="translate(23.911489, 13.71241)"><g><path d="M 8 -9.25 C 8.113281 -9.25 8.203125 -9.210938 8.265625 -9.140625 C 8.335938 -9.066406 8.375 -8.976562 8.375 -8.875 L 8.375 -0.421875 C 8.375 -0.285156 8.332031 -0.179688 8.25 -0.109375 C 8.164062 -0.0351562 8.070312 0 7.96875 0 C 7.90625 0 7.84375 -0.0078125 7.78125 -0.03125 C 7.726562 -0.0507812 7.679688 -0.0820312 7.640625 -0.125 L 1.75 -8.0625 L 1.984375 -8.1875 L 1.984375 -0.359375 C 1.984375 -0.265625 1.945312 -0.179688 1.875 -0.109375 C 1.800781 -0.0351562 1.710938 0 1.609375 0 C 1.492188 0 1.398438 -0.0351562 1.328125 -0.109375 C 1.265625 -0.179688 1.234375 -0.265625 1.234375 -0.359375 L 1.234375 -8.84375 C 1.234375 -8.976562 1.273438 -9.078125 1.359375 -9.140625 C 1.441406 -9.210938 1.53125 -9.25 1.625 -9.25 C 1.675781 -9.25 1.734375 -9.234375 1.796875 -9.203125 C 1.859375 -9.179688 1.90625 -9.144531 1.9375 -9.09375 L 7.765625 -1.25 L 7.625 -1.015625 L 7.625 -8.875 C 7.625 -8.976562 7.660156 -9.066406 7.734375 -9.140625 C 7.816406 -9.210938 7.90625 -9.25 8 -9.25 Z M 8 -9.25 "/></g></g></g><g fill="#000000" fill-opacity="1"><g transform="translate(33.52567, 13.71241)"><g/></g></g><g fill="#000000" fill-opacity="1"><g transform="translate(37.130987, 13.71241)"><g><path d="M 5 -9.25 C 5.65625 -9.25 6.226562 -9.125 6.71875 -8.875 C 7.207031 -8.625 7.609375 -8.28125 7.921875 -7.84375 C 8.234375 -7.414062 8.46875 -6.921875 8.625 -6.359375 C 8.78125 -5.804688 8.859375 -5.226562 8.859375 -4.625 C 8.859375 -3.78125 8.71875 -3.003906 8.4375 -2.296875 C 8.164062 -1.597656 7.742188 -1.039062 7.171875 -0.625 C 6.609375 -0.207031 5.882812 0 5 0 L 1.640625 0 C 1.535156 0 1.441406 -0.0351562 1.359375 -0.109375 C 1.273438 -0.191406 1.234375 -0.285156 1.234375 -0.390625 L 1.234375 -8.84375 C 1.234375 -8.945312 1.273438 -9.039062 1.359375 -9.125 C 1.441406 -9.207031 1.535156 -9.25 1.640625 -9.25 Z M 4.875 -0.78125 C 5.625 -0.78125 6.226562 -0.953125 6.6875 -1.296875 C 7.144531 -1.640625 7.476562 -2.101562 7.6875 -2.6875 C 7.90625 -3.269531 8.015625 -3.914062 8.015625 -4.625 C 8.015625 -5.132812 7.953125 -5.617188 7.828125 -6.078125 C 7.710938 -6.535156 7.53125 -6.941406 7.28125 -7.296875 C 7.03125 -7.660156 6.703125 -7.945312 6.296875 -8.15625 C 5.898438 -8.363281 5.425781 -8.46875 4.875 -8.46875 L 1.984375 -8.46875 L 2.078125 -8.578125 L 2.078125 -0.640625 L 2 -0.78125 Z M 4.875 -0.78125 "/></g></g></g><g fill="#000000" fill-opacity="1"><g transform="translate(46.560262, 13.71241)"><g><path d="M 4.328125 -8.21875 L 1.125 -0.25 C 1.082031 -0.164062 1.03125 -0.0976562 0.96875 -0.046875 C 0.914062 -0.00390625 0.847656 0.015625 0.765625 0.015625 C 0.640625 0.015625 0.546875 -0.015625 0.484375 -0.078125 C 0.421875 -0.148438 0.390625 -0.234375 0.390625 -0.328125 C 0.378906 -0.367188 0.378906 -0.421875 0.390625 -0.484375 L 3.875 -9.015625 C 3.925781 -9.109375 3.984375 -9.175781 4.046875 -9.21875 C 4.109375 -9.257812 4.1875 -9.28125 4.28125 -9.28125 C 4.363281 -9.28125 4.4375 -9.253906 4.5 -9.203125 C 4.570312 -9.160156 4.625 -9.097656 4.65625 -9.015625 L 8.140625 -0.53125 C 8.148438 -0.476562 8.15625 -0.425781 8.15625 -0.375 C 8.15625 -0.25 8.113281 -0.148438 8.03125 -0.078125 C 7.957031 -0.015625 7.867188 0.015625 7.765625 0.015625 C 7.671875 0.015625 7.59375 -0.00390625 7.53125 -0.046875 C 7.46875 -0.0976562 7.414062 -0.164062 7.375 -0.25 L 4.09375 -8.28125 Z M 1.890625 -2.671875 L 2.21875 -3.453125 L 6.3125 -3.453125 L 6.46875 -2.671875 Z M 1.890625 -2.671875 "/></g></g></g><g fill="#000000" fill-opacity="1"><g transform="translate(54.444236, 13.71241)"><g><path d="M 3.984375 0 C 3.859375 0 3.757812 -0.0351562 3.6875 -0.109375 C 3.613281 -0.191406 3.578125 -0.285156 3.578125 -0.390625 L 3.578125 -8.8125 L 4.390625 -8.8125 L 4.390625 -0.390625 C 4.390625 -0.285156 4.347656 -0.191406 4.265625 -0.109375 C 4.191406 -0.0351562 4.097656 0 3.984375 0 Z M 0.84375 -8.484375 C 0.738281 -8.484375 0.644531 -8.519531 0.5625 -8.59375 C 0.488281 -8.664062 0.453125 -8.757812 0.453125 -8.875 C 0.453125 -8.976562 0.488281 -9.066406 0.5625 -9.140625 C 0.644531 -9.210938 0.738281 -9.25 0.84375 -9.25 L 7.125 -9.25 C 7.226562 -9.25 7.320312 -9.210938 7.40625 -9.140625 C 7.488281 -9.066406 7.53125 -8.972656 7.53125 -8.859375 C 7.53125 -8.742188 7.488281 -8.648438 7.40625 -8.578125 C 7.320312 -8.515625 7.226562 -8.484375 7.125 -8.484375 Z M 0.84375 -8.484375 "/></g></g></g><g fill="#000000" fill-opacity="1"><g transform="translate(62.420838, 13.71241)"><g><path d="M 1.640625 -9.25 L 6.484375 -9.25 C 6.585938 -9.25 6.675781 -9.207031 6.75 -9.125 C 6.832031 -9.050781 6.875 -8.957031 6.875 -8.84375 C 6.875 -8.726562 6.832031 -8.632812 6.75 -8.5625 C 6.675781 -8.5 6.585938 -8.46875 6.484375 -8.46875 L 1.9375 -8.46875 L 2.078125 -8.6875 L 2.078125 -4.984375 L 1.921875 -5.15625 L 5.890625 -5.15625 C 5.992188 -5.15625 6.082031 -5.113281 6.15625 -5.03125 C 6.238281 -4.945312 6.28125 -4.851562 6.28125 -4.75 C 6.28125 -4.632812 6.238281 -4.539062 6.15625 -4.46875 C 6.082031 -4.40625 5.992188 -4.375 5.890625 -4.375 L 1.953125 -4.375 L 2.078125 -4.5 L 2.078125 -0.703125 L 2 -0.78125 L 6.484375 -0.78125 C 6.585938 -0.78125 6.675781 -0.738281 6.75 -0.65625 C 6.832031 -0.582031 6.875 -0.492188 6.875 -0.390625 C 6.875 -0.273438 6.832031 -0.179688 6.75 -0.109375 C 6.675781 -0.0351562 6.585938 0 6.484375 0 L 1.640625 0 C 1.535156 0 1.441406 -0.0351562 1.359375 -0.109375 C 1.273438 -0.191406 1.234375 -0.285156 1.234375 -0.390625 L 1.234375 -8.84375 C 1.234375 -8.945312 1.273438 -9.039062 1.359375 -9.125 C 1.441406 -9.207031 1.535156 -9.25 1.640625 -9.25 Z M 1.640625 -9.25 "/></g></g></g><g fill="#000000" fill-opacity="1"><g transform="translate(69.922009, 13.71241)"><g><path d="M 3.796875 0.125 C 3.117188 0.132812 2.535156 0.03125 2.046875 -0.1875 C 1.554688 -0.40625 1.085938 -0.734375 0.640625 -1.171875 C 0.585938 -1.210938 0.546875 -1.257812 0.515625 -1.3125 C 0.484375 -1.363281 0.46875 -1.421875 0.46875 -1.484375 C 0.46875 -1.597656 0.507812 -1.695312 0.59375 -1.78125 C 0.675781 -1.875 0.773438 -1.921875 0.890625 -1.921875 C 0.992188 -1.921875 1.085938 -1.875 1.171875 -1.78125 C 1.515625 -1.414062 1.90625 -1.132812 2.34375 -0.9375 C 2.78125 -0.738281 3.25 -0.640625 3.75 -0.640625 C 4.175781 -0.640625 4.550781 -0.707031 4.875 -0.84375 C 5.207031 -0.976562 5.46875 -1.164062 5.65625 -1.40625 C 5.851562 -1.65625 5.953125 -1.941406 5.953125 -2.265625 C 5.953125 -2.671875 5.84375 -3 5.625 -3.25 C 5.40625 -3.5 5.113281 -3.707031 4.75 -3.875 C 4.394531 -4.039062 3.992188 -4.1875 3.546875 -4.3125 C 3.191406 -4.414062 2.847656 -4.535156 2.515625 -4.671875 C 2.191406 -4.816406 1.898438 -4.988281 1.640625 -5.1875 C 1.390625 -5.382812 1.191406 -5.625 1.046875 -5.90625 C 0.910156 -6.195312 0.84375 -6.550781 0.84375 -6.96875 C 0.84375 -7.4375 0.960938 -7.847656 1.203125 -8.203125 C 1.453125 -8.566406 1.800781 -8.851562 2.25 -9.0625 C 2.707031 -9.269531 3.238281 -9.375 3.84375 -9.375 C 4.363281 -9.375 4.863281 -9.285156 5.34375 -9.109375 C 5.820312 -8.929688 6.203125 -8.671875 6.484375 -8.328125 C 6.617188 -8.191406 6.6875 -8.066406 6.6875 -7.953125 C 6.6875 -7.859375 6.640625 -7.765625 6.546875 -7.671875 C 6.460938 -7.585938 6.367188 -7.546875 6.265625 -7.546875 C 6.171875 -7.546875 6.09375 -7.578125 6.03125 -7.640625 C 5.882812 -7.828125 5.695312 -7.992188 5.46875 -8.140625 C 5.238281 -8.285156 4.984375 -8.394531 4.703125 -8.46875 C 4.429688 -8.550781 4.144531 -8.59375 3.84375 -8.59375 C 3.425781 -8.59375 3.050781 -8.53125 2.71875 -8.40625 C 2.394531 -8.28125 2.132812 -8.097656 1.9375 -7.859375 C 1.75 -7.617188 1.65625 -7.332031 1.65625 -7 C 1.65625 -6.625 1.757812 -6.316406 1.96875 -6.078125 C 2.1875 -5.847656 2.46875 -5.65625 2.8125 -5.5 C 3.15625 -5.34375 3.519531 -5.195312 3.90625 -5.0625 C 4.28125 -4.957031 4.640625 -4.835938 4.984375 -4.703125 C 5.335938 -4.566406 5.648438 -4.394531 5.921875 -4.1875 C 6.191406 -3.988281 6.398438 -3.734375 6.546875 -3.421875 C 6.703125 -3.117188 6.78125 -2.734375 6.78125 -2.265625 C 6.78125 -1.816406 6.648438 -1.410156 6.390625 -1.046875 C 6.140625 -0.691406 5.789062 -0.40625 5.34375 -0.1875 C 4.90625 0.0195312 4.390625 0.125 3.796875 0.125 Z M 3.796875 0.125 "/></g></g></g></g></g><g clip-path="url(#e41d610ff7)"><path fill="#000000" d="M 5.277344 124.105469 L 5.277344 1324.492188 M 149.390625 124.105469 L 149.390625 1324.492188 M 293.507812 124.105469 L 293.507812 1324.492188 M 437.625 124.105469 L 437.625 1324.492188 M 581.742188 124.105469 L 581.742188 1324.492188 M 725.859375 124.105469 L 725.859375 1324.492188 M 869.972656 124.105469 L 869.972656 1324.492188 M 4.835938 123.664062 L 870.414062 123.664062 M 4.835938 196.882812 L 870.414062 196.882812 M 4.835938 259.550781 L 870.414062 259.550781 M 4.835938 322.21875 L 870.414062 322.21875 M 4.835938 384.890625 L 870.414062 384.890625 M 4.835938 447.558594 L 870.414062 447.558594 M 4.835938 510.230469 L 870.414062 510.230469 M 4.835938 572.898438 L 870.414062 572.898438 M 4.835938 635.566406 L 870.414062 635.566406 M 4.835938 698.238281 L 870.414062 698.238281 M 4.835938 760.90625 L 870.414062 760.90625 M 4.835938 823.578125 L 870.414062 823.578125 M 4.835938 886.246094 L 870.414062 886.246094 M 4.835938 948.914062 L 870.414062 948.914062 M 4.835938 1011.585938 L 870.414062 1011.585938 M 4.835938 1074.253906 L 870.414062 1074.253906 M 4.835938 1136.925781 L 870.414062 1136.925781 M 4.835938 1199.59375 L 870.414062 1199.59375 M 4.835938 1262.261719 L 870.414062 1262.261719 M 4.835938 1324.933594 L 870.414062 1324.933594 " fill-opacity="1" fill-rule="nonzero"/></g><g clip-path="url(#4a7df114e8)"><path stroke-linecap="butt" transform="matrix(0.749859, 0, 0, 0.749859, 4.834293, 123.224273)" fill="none" stroke-linejoin="miter" d="M 0.590845 1.17515 L 0.590845 1601.992467 M 192.778107 1.17515 L 192.778107 1601.992467 M 384.970578 1.17515 L 384.970578 1601.992467 M 577.163048 1.17515 L 577.163048 1601.992467 M 769.355519 1.17515 L 769.355519 1601.992467 M 961.54799 1.17515 L 961.54799 1601.992467 M 1153.735252 1.17515 L 1153.735252 1601.992467 M 0.00219261 0.586497 L 1154.323904 0.586497 M 0.00219261 98.229899 L 1154.323904 98.229899 M 0.00219261 181.802941 L 1154.323904 181.802941 M 0.00219261 265.375983 L 1154.323904 265.375983 M 0.00219261 348.954234 L 1154.323904 348.954234 M 0.00219261 432.527276 L 1154.323904 432.527276 M 0.00219261 516.105528 L 1154.323904 516.105528 M 0.00219261 599.678569 L 1154.323904 599.678569 M 0.00219261 683.251611 L 1154.323904 683.251611 M 0.00219261 766.829863 L 1154.323904 766.829863 M 0.00219261 850.402905 L 1154.323904 850.402905 M 0.00219261 933.981156 L 1154.323904 933.981156 M 0.00219261 1017.554198 L 1154.323904 1017.554198 M 0.00219261 1101.12724 L 1154.323904 1101.12724 M 0.00219261 1184.705491 L 1154.323904 1184.705491 M 0.00219261 1268.278533 L 1154.323904 1268.278533 M 0.00219261 1351.856784 L 1154.323904 1351.856784 M 0.00219261 1435.429826 L 1154.323904 1435.429826 M 0.00219261 1519.002868 L 1154.323904 1519.002868 M 0.00219261 1602.58112 L 1154.323904 1602.58112 " stroke="#000000" stroke-width="1.177184" stroke-opacity="1" stroke-miterlimit="4"/></g><g transform="matrix(1, 0, 0, 1, 17, 52)"><g clip-path="url(#e6c877ec42)"><g fill="#23120b" fill-opacity="1"><g transform="translate(1.208973, 44.99373)"><g><path d="M 6.984375 -1.375 C 6.953125 -0.988281 6.796875 -0.660156 6.515625 -0.390625 C 6.234375 -0.128906 5.914062 0 5.5625 0 C 5.144531 0 4.8125 -0.128906 4.5625 -0.390625 C 4.3125 -0.660156 4.1875 -0.988281 4.1875 -1.375 L 4.1875 -29.75 C 4.1875 -30.132812 4.316406 -30.457031 4.578125 -30.71875 C 4.847656 -30.988281 5.191406 -31.125 5.609375 -31.125 C 5.960938 -31.125 6.28125 -30.988281 6.5625 -30.71875 C 6.84375 -30.457031 6.984375 -30.132812 6.984375 -29.75 Z M 6.984375 -1.375 "/></g></g></g><g fill="#23120b" fill-opacity="1"><g transform="translate(12.325935, 44.99373)"><g><path d="M 26.953125 -31.125 C 27.335938 -31.125 27.640625 -31.003906 27.859375 -30.765625 C 28.078125 -30.535156 28.1875 -30.242188 28.1875 -29.890625 L 28.1875 -1.421875 C 28.1875 -0.972656 28.046875 -0.625 27.765625 -0.375 C 27.484375 -0.125 27.164062 0 26.8125 0 C 26.632812 0 26.441406 -0.0351562 26.234375 -0.109375 C 26.023438 -0.179688 25.863281 -0.289062 25.75 -0.4375 L 5.921875 -27.171875 L 6.671875 -27.578125 L 6.671875 -1.203125 C 6.671875 -0.878906 6.550781 -0.597656 6.3125 -0.359375 C 6.070312 -0.117188 5.773438 0 5.421875 0 C 5.035156 0 4.734375 -0.117188 4.515625 -0.359375 C 4.296875 -0.597656 4.1875 -0.878906 4.1875 -1.203125 L 4.1875 -29.796875 C 4.1875 -30.242188 4.316406 -30.578125 4.578125 -30.796875 C 4.847656 -31.015625 5.144531 -31.125 5.46875 -31.125 C 5.644531 -31.125 5.835938 -31.085938 6.046875 -31.015625 C 6.253906 -30.941406 6.414062 -30.816406 6.53125 -30.640625 L 26.140625 -4.21875 L 25.703125 -3.421875 L 25.703125 -29.890625 C 25.703125 -30.242188 25.828125 -30.535156 26.078125 -30.765625 C 26.328125 -31.003906 26.617188 -31.125 26.953125 -31.125 Z M 26.953125 -31.125 "/></g></g></g><g fill="#23120b" fill-opacity="1"><g transform="translate(44.698533, 44.99373)"><g><path d="M 12.765625 0.4375 C 10.515625 0.46875 8.554688 0.113281 6.890625 -0.625 C 5.234375 -1.363281 3.648438 -2.472656 2.140625 -3.953125 C 1.984375 -4.078125 1.851562 -4.226562 1.75 -4.40625 C 1.644531 -4.582031 1.59375 -4.789062 1.59375 -5.03125 C 1.59375 -5.382812 1.734375 -5.707031 2.015625 -6 C 2.304688 -6.300781 2.628906 -6.453125 2.984375 -6.453125 C 3.335938 -6.453125 3.660156 -6.300781 3.953125 -6 C 5.109375 -4.757812 6.421875 -3.8125 7.890625 -3.15625 C 9.359375 -2.5 10.9375 -2.171875 12.625 -2.171875 C 14.050781 -2.171875 15.316406 -2.394531 16.421875 -2.84375 C 17.535156 -3.289062 18.421875 -3.925781 19.078125 -4.75 C 19.734375 -5.582031 20.0625 -6.550781 20.0625 -7.65625 C 20.0625 -9.007812 19.6875 -10.109375 18.9375 -10.953125 C 18.195312 -11.804688 17.21875 -12.503906 16 -13.046875 C 14.789062 -13.597656 13.445312 -14.097656 11.96875 -14.546875 C 10.75 -14.898438 9.585938 -15.304688 8.484375 -15.765625 C 7.390625 -16.222656 6.410156 -16.785156 5.546875 -17.453125 C 4.691406 -18.117188 4.023438 -18.941406 3.546875 -19.921875 C 3.078125 -20.898438 2.84375 -22.085938 2.84375 -23.484375 C 2.84375 -25.054688 3.257812 -26.445312 4.09375 -27.65625 C 4.925781 -28.875 6.101562 -29.832031 7.625 -30.53125 C 9.15625 -31.226562 10.925781 -31.578125 12.9375 -31.578125 C 14.6875 -31.578125 16.367188 -31.28125 17.984375 -30.6875 C 19.597656 -30.09375 20.878906 -29.21875 21.828125 -28.0625 C 22.273438 -27.582031 22.5 -27.148438 22.5 -26.765625 C 22.5 -26.472656 22.347656 -26.175781 22.046875 -25.875 C 21.753906 -25.582031 21.429688 -25.4375 21.078125 -25.4375 C 20.785156 -25.4375 20.535156 -25.539062 20.328125 -25.75 C 19.816406 -26.375 19.175781 -26.929688 18.40625 -27.421875 C 17.632812 -27.910156 16.78125 -28.285156 15.84375 -28.546875 C 14.914062 -28.816406 13.945312 -28.953125 12.9375 -28.953125 C 11.539062 -28.953125 10.285156 -28.734375 9.171875 -28.296875 C 8.066406 -27.867188 7.195312 -27.253906 6.5625 -26.453125 C 5.925781 -25.660156 5.609375 -24.695312 5.609375 -23.5625 C 5.609375 -22.320312 5.960938 -21.300781 6.671875 -20.5 C 7.378906 -19.695312 8.3125 -19.035156 9.46875 -18.515625 C 10.625 -18.003906 11.851562 -17.523438 13.15625 -17.078125 C 14.4375 -16.722656 15.660156 -16.3125 16.828125 -15.84375 C 18.003906 -15.382812 19.039062 -14.816406 19.9375 -14.140625 C 20.84375 -13.460938 21.554688 -12.601562 22.078125 -11.5625 C 22.597656 -10.519531 22.859375 -9.21875 22.859375 -7.65625 C 22.859375 -6.132812 22.425781 -4.765625 21.5625 -3.546875 C 20.707031 -2.335938 19.53125 -1.375 18.03125 -0.65625 C 16.53125 0.0507812 14.773438 0.414062 12.765625 0.4375 Z M 12.765625 0.4375 "/></g></g></g><g fill="#23120b" fill-opacity="1"><g transform="translate(69.689467, 44.99373)"><g><path d="M 26.1875 -31.125 C 26.601562 -31.125 26.929688 -31 27.171875 -30.75 C 27.410156 -30.5 27.53125 -30.179688 27.53125 -29.796875 L 27.53125 -11.390625 C 27.53125 -9.191406 27.007812 -7.203125 25.96875 -5.421875 C 24.925781 -3.640625 23.53125 -2.222656 21.78125 -1.171875 C 20.039062 -0.117188 18.070312 0.40625 15.875 0.40625 C 13.675781 0.40625 11.695312 -0.117188 9.9375 -1.171875 C 8.175781 -2.222656 6.773438 -3.640625 5.734375 -5.421875 C 4.703125 -7.203125 4.1875 -9.191406 4.1875 -11.390625 L 4.1875 -29.796875 C 4.1875 -30.179688 4.3125 -30.5 4.5625 -30.75 C 4.8125 -31 5.160156 -31.125 5.609375 -31.125 C 5.960938 -31.125 6.269531 -31 6.53125 -30.75 C 6.800781 -30.5 6.9375 -30.179688 6.9375 -29.796875 L 6.9375 -11.390625 C 6.9375 -9.671875 7.34375 -8.128906 8.15625 -6.765625 C 8.976562 -5.398438 10.066406 -4.304688 11.421875 -3.484375 C 12.785156 -2.671875 14.269531 -2.265625 15.875 -2.265625 C 17.53125 -2.265625 19.039062 -2.671875 20.40625 -3.484375 C 21.769531 -4.304688 22.859375 -5.398438 23.671875 -6.765625 C 24.492188 -8.128906 24.90625 -9.671875 24.90625 -11.390625 L 24.90625 -29.796875 C 24.90625 -30.179688 25.019531 -30.5 25.25 -30.75 C 25.488281 -31 25.800781 -31.125 26.1875 -31.125 Z M 26.1875 -31.125 "/></g></g></g><g fill="#23120b" fill-opacity="1"><g transform="translate(101.39504, 44.99373)"><g><path d="M 5.6875 0 C 5.25 0 4.890625 -0.128906 4.609375 -0.390625 C 4.328125 -0.660156 4.1875 -0.972656 4.1875 -1.328125 L 4.1875 -29.796875 C 4.1875 -30.148438 4.316406 -30.457031 4.578125 -30.71875 C 4.847656 -30.988281 5.160156 -31.125 5.515625 -31.125 L 17.515625 -31.125 C 19.210938 -31.125 20.726562 -30.757812 22.0625 -30.03125 C 23.394531 -29.3125 24.4375 -28.3125 25.1875 -27.03125 C 25.945312 -25.757812 26.328125 -24.320312 26.328125 -22.71875 C 26.328125 -21.414062 26.085938 -20.210938 25.609375 -19.109375 C 25.140625 -18.015625 24.472656 -17.085938 23.609375 -16.328125 C 22.753906 -15.578125 21.789062 -15.023438 20.71875 -14.671875 L 19.171875 -15.15625 C 20.265625 -15.070312 21.285156 -14.722656 22.234375 -14.109375 C 23.179688 -13.503906 23.941406 -12.675781 24.515625 -11.625 C 25.097656 -10.570312 25.40625 -9.304688 25.4375 -7.828125 C 25.46875 -6.554688 25.535156 -5.5625 25.640625 -4.84375 C 25.742188 -4.132812 25.898438 -3.601562 26.109375 -3.25 C 26.316406 -2.894531 26.582031 -2.613281 26.90625 -2.40625 C 27.195312 -2.226562 27.394531 -1.972656 27.5 -1.640625 C 27.601562 -1.316406 27.566406 -1.007812 27.390625 -0.71875 C 27.273438 -0.476562 27.101562 -0.304688 26.875 -0.203125 C 26.65625 -0.0976562 26.425781 -0.046875 26.1875 -0.046875 C 25.957031 -0.046875 25.722656 -0.101562 25.484375 -0.21875 C 25.066406 -0.457031 24.640625 -0.828125 24.203125 -1.328125 C 23.773438 -1.835938 23.421875 -2.582031 23.140625 -3.5625 C 22.859375 -4.539062 22.71875 -5.90625 22.71875 -7.65625 C 22.71875 -8.8125 22.53125 -9.757812 22.15625 -10.5 C 21.789062 -11.238281 21.316406 -11.804688 20.734375 -12.203125 C 20.160156 -12.609375 19.523438 -12.890625 18.828125 -13.046875 C 18.128906 -13.210938 17.472656 -13.296875 16.859375 -13.296875 L 6.5 -13.296875 L 6.984375 -13.921875 L 6.984375 -1.328125 C 6.984375 -0.972656 6.863281 -0.660156 6.625 -0.390625 C 6.382812 -0.128906 6.070312 0 5.6875 0 Z M 6.5 -15.734375 L 17.65625 -15.734375 C 18.664062 -15.828125 19.613281 -16.160156 20.5 -16.734375 C 21.382812 -17.316406 22.101562 -18.113281 22.65625 -19.125 C 23.207031 -20.132812 23.484375 -21.304688 23.484375 -22.640625 C 23.484375 -24.328125 22.910156 -25.722656 21.765625 -26.828125 C 20.628906 -27.941406 19.140625 -28.5 17.296875 -28.5 L 6.671875 -28.5 L 6.984375 -29.125 L 6.984375 -15.125 Z M 6.5 -15.734375 "/></g></g></g><g fill="#23120b" fill-opacity="1"><g transform="translate(131.188503, 44.99373)"><g><path d="M 14.578125 -27.703125 L 3.78125 -0.84375 C 3.664062 -0.550781 3.503906 -0.328125 3.296875 -0.171875 C 3.085938 -0.0234375 2.847656 0.046875 2.578125 0.046875 C 2.160156 0.046875 1.847656 -0.0625 1.640625 -0.28125 C 1.429688 -0.507812 1.316406 -0.785156 1.296875 -1.109375 C 1.265625 -1.253906 1.273438 -1.429688 1.328125 -1.640625 L 13.078125 -30.375 C 13.222656 -30.695312 13.40625 -30.925781 13.625 -31.0625 C 13.851562 -31.195312 14.113281 -31.265625 14.40625 -31.265625 C 14.707031 -31.265625 14.96875 -31.179688 15.1875 -31.015625 C 15.40625 -30.847656 15.578125 -30.632812 15.703125 -30.375 L 27.390625 -1.78125 C 27.453125 -1.601562 27.484375 -1.425781 27.484375 -1.25 C 27.484375 -0.832031 27.347656 -0.507812 27.078125 -0.28125 C 26.816406 -0.0625 26.503906 0.046875 26.140625 0.046875 C 25.847656 0.046875 25.585938 -0.03125 25.359375 -0.1875 C 25.140625 -0.351562 24.972656 -0.570312 24.859375 -0.84375 L 13.78125 -27.875 Z M 6.359375 -8.984375 L 7.46875 -11.609375 L 21.25 -11.609375 L 21.796875 -8.984375 Z M 6.359375 -8.984375 "/></g></g></g><g fill="#23120b" fill-opacity="1"><g transform="translate(159.959201, 44.99373)"><g><path d="M 26.953125 -31.125 C 27.335938 -31.125 27.640625 -31.003906 27.859375 -30.765625 C 28.078125 -30.535156 28.1875 -30.242188 28.1875 -29.890625 L 28.1875 -1.421875 C 28.1875 -0.972656 28.046875 -0.625 27.765625 -0.375 C 27.484375 -0.125 27.164062 0 26.8125 0 C 26.632812 0 26.441406 -0.0351562 26.234375 -0.109375 C 26.023438 -0.179688 25.863281 -0.289062 25.75 -0.4375 L 5.921875 -27.171875 L 6.671875 -27.578125 L 6.671875 -1.203125 C 6.671875 -0.878906 6.550781 -0.597656 6.3125 -0.359375 C 6.070312 -0.117188 5.773438 0 5.421875 0 C 5.035156 0 4.734375 -0.117188 4.515625 -0.359375 C 4.296875 -0.597656 4.1875 -0.878906 4.1875 -1.203125 L 4.1875 -29.796875 C 4.1875 -30.242188 4.316406 -30.578125 4.578125 -30.796875 C 4.847656 -31.015625 5.144531 -31.125 5.46875 -31.125 C 5.644531 -31.125 5.835938 -31.085938 6.046875 -31.015625 C 6.253906 -30.941406 6.414062 -30.816406 6.53125 -30.640625 L 26.140625 -4.21875 L 25.703125 -3.421875 L 25.703125 -29.890625 C 25.703125 -30.242188 25.828125 -30.535156 26.078125 -30.765625 C 26.328125 -31.003906 26.617188 -31.125 26.953125 -31.125 Z M 26.953125 -31.125 "/></g></g></g><g fill="#23120b" fill-opacity="1"><g transform="translate(192.331799, 44.99373)"><g><path d="M 26.90625 -28.8125 C 27.257812 -28.570312 27.460938 -28.265625 27.515625 -27.890625 C 27.578125 -27.523438 27.492188 -27.164062 27.265625 -26.8125 C 27.054688 -26.550781 26.785156 -26.40625 26.453125 -26.375 C 26.128906 -26.34375 25.820312 -26.398438 25.53125 -26.546875 C 24.394531 -27.285156 23.179688 -27.863281 21.890625 -28.28125 C 20.609375 -28.695312 19.226562 -28.90625 17.75 -28.90625 C 15.9375 -28.90625 14.25 -28.585938 12.6875 -27.953125 C 11.132812 -27.316406 9.78125 -26.394531 8.625 -25.1875 C 7.46875 -23.988281 6.570312 -22.570312 5.9375 -20.9375 C 5.300781 -19.3125 4.984375 -17.519531 4.984375 -15.5625 C 4.984375 -13.550781 5.304688 -11.722656 5.953125 -10.078125 C 6.609375 -8.429688 7.519531 -7.015625 8.6875 -5.828125 C 9.863281 -4.640625 11.222656 -3.734375 12.765625 -3.109375 C 14.304688 -2.484375 15.96875 -2.171875 17.75 -2.171875 C 19.195312 -2.171875 20.566406 -2.378906 21.859375 -2.796875 C 23.148438 -3.210938 24.359375 -3.773438 25.484375 -4.484375 C 25.773438 -4.671875 26.09375 -4.738281 26.4375 -4.6875 C 26.78125 -4.644531 27.054688 -4.476562 27.265625 -4.1875 C 27.523438 -3.851562 27.617188 -3.5 27.546875 -3.125 C 27.472656 -2.757812 27.273438 -2.472656 26.953125 -2.265625 C 26.210938 -1.796875 25.335938 -1.351562 24.328125 -0.9375 C 23.316406 -0.519531 22.25 -0.1875 21.125 0.0625 C 20 0.3125 18.875 0.4375 17.75 0.4375 C 15.613281 0.4375 13.609375 0.0507812 11.734375 -0.71875 C 9.867188 -1.488281 8.207031 -2.578125 6.75 -3.984375 C 5.300781 -5.390625 4.171875 -7.070312 3.359375 -9.03125 C 2.546875 -10.988281 2.140625 -13.164062 2.140625 -15.5625 C 2.140625 -17.875 2.535156 -20 3.328125 -21.9375 C 4.128906 -23.882812 5.242188 -25.566406 6.671875 -26.984375 C 8.097656 -28.410156 9.757812 -29.523438 11.65625 -30.328125 C 13.550781 -31.128906 15.582031 -31.53125 17.75 -31.53125 C 19.4375 -31.53125 21.0625 -31.289062 22.625 -30.8125 C 24.195312 -30.34375 25.625 -29.675781 26.90625 -28.8125 Z M 26.90625 -28.8125 "/></g></g></g><g fill="#23120b" fill-opacity="1"><g transform="translate(221.369305, 44.99373)"><g><path d="M 5.515625 -31.125 L 21.828125 -31.125 C 22.191406 -31.125 22.503906 -31 22.765625 -30.75 C 23.035156 -30.5 23.171875 -30.179688 23.171875 -29.796875 C 23.171875 -29.410156 23.035156 -29.097656 22.765625 -28.859375 C 22.503906 -28.617188 22.191406 -28.5 21.828125 -28.5 L 6.53125 -28.5 L 6.984375 -29.265625 L 6.984375 -16.765625 L 6.5 -17.34375 L 19.828125 -17.34375 C 20.179688 -17.34375 20.492188 -17.207031 20.765625 -16.9375 C 21.035156 -16.675781 21.171875 -16.367188 21.171875 -16.015625 C 21.171875 -15.628906 21.035156 -15.316406 20.765625 -15.078125 C 20.492188 -14.835938 20.179688 -14.71875 19.828125 -14.71875 L 6.578125 -14.71875 L 6.984375 -15.15625 L 6.984375 -2.359375 L 6.765625 -2.625 L 21.828125 -2.625 C 22.191406 -2.625 22.503906 -2.488281 22.765625 -2.21875 C 23.035156 -1.957031 23.171875 -1.648438 23.171875 -1.296875 C 23.171875 -0.910156 23.035156 -0.597656 22.765625 -0.359375 C 22.503906 -0.117188 22.191406 0 21.828125 0 L 5.515625 0 C 5.160156 0 4.847656 -0.128906 4.578125 -0.390625 C 4.316406 -0.660156 4.1875 -0.972656 4.1875 -1.328125 L 4.1875 -29.796875 C 4.1875 -30.148438 4.316406 -30.457031 4.578125 -30.71875 C 4.847656 -30.988281 5.160156 -31.125 5.515625 -31.125 Z M 5.515625 -31.125 "/></g></g></g><g fill="#23120b" fill-opacity="1"><g transform="translate(246.627059, 44.99373)"><g/></g></g><g fill="#23120b" fill-opacity="1"><g transform="translate(258.766774, 44.99373)"><g><path d="M 13.421875 0 C 13.015625 0 12.679688 -0.128906 12.421875 -0.390625 C 12.171875 -0.660156 12.046875 -0.972656 12.046875 -1.328125 L 12.046875 -29.65625 L 14.8125 -29.65625 L 14.8125 -1.328125 C 14.8125 -0.972656 14.675781 -0.660156 14.40625 -0.390625 C 14.132812 -0.128906 13.804688 0 13.421875 0 Z M 2.84375 -28.59375 C 2.488281 -28.59375 2.175781 -28.710938 1.90625 -28.953125 C 1.644531 -29.191406 1.515625 -29.503906 1.515625 -29.890625 C 1.515625 -30.242188 1.644531 -30.535156 1.90625 -30.765625 C 2.175781 -31.003906 2.488281 -31.125 2.84375 -31.125 L 24.015625 -31.125 C 24.367188 -31.125 24.675781 -31.003906 24.9375 -30.765625 C 25.207031 -30.535156 25.34375 -30.226562 25.34375 -29.84375 C 25.34375 -29.457031 25.207031 -29.148438 24.9375 -28.921875 C 24.675781 -28.703125 24.367188 -28.59375 24.015625 -28.59375 Z M 2.84375 -28.59375 "/></g></g></g><g fill="#23120b" fill-opacity="1"><g transform="translate(285.625352, 44.99373)"><g><path d="M 5.6875 0 C 5.25 0 4.890625 -0.128906 4.609375 -0.390625 C 4.328125 -0.660156 4.1875 -0.972656 4.1875 -1.328125 L 4.1875 -29.796875 C 4.1875 -30.148438 4.316406 -30.457031 4.578125 -30.71875 C 4.847656 -30.988281 5.160156 -31.125 5.515625 -31.125 L 17.515625 -31.125 C 19.210938 -31.125 20.726562 -30.757812 22.0625 -30.03125 C 23.394531 -29.3125 24.4375 -28.3125 25.1875 -27.03125 C 25.945312 -25.757812 26.328125 -24.320312 26.328125 -22.71875 C 26.328125 -21.414062 26.085938 -20.210938 25.609375 -19.109375 C 25.140625 -18.015625 24.472656 -17.085938 23.609375 -16.328125 C 22.753906 -15.578125 21.789062 -15.023438 20.71875 -14.671875 L 19.171875 -15.15625 C 20.265625 -15.070312 21.285156 -14.722656 22.234375 -14.109375 C 23.179688 -13.503906 23.941406 -12.675781 24.515625 -11.625 C 25.097656 -10.570312 25.40625 -9.304688 25.4375 -7.828125 C 25.46875 -6.554688 25.535156 -5.5625 25.640625 -4.84375 C 25.742188 -4.132812 25.898438 -3.601562 26.109375 -3.25 C 26.316406 -2.894531 26.582031 -2.613281 26.90625 -2.40625 C 27.195312 -2.226562 27.394531 -1.972656 27.5 -1.640625 C 27.601562 -1.316406 27.566406 -1.007812 27.390625 -0.71875 C 27.273438 -0.476562 27.101562 -0.304688 26.875 -0.203125 C 26.65625 -0.0976562 26.425781 -0.046875 26.1875 -0.046875 C 25.957031 -0.046875 25.722656 -0.101562 25.484375 -0.21875 C 25.066406 -0.457031 24.640625 -0.828125 24.203125 -1.328125 C 23.773438 -1.835938 23.421875 -2.582031 23.140625 -3.5625 C 22.859375 -4.539062 22.71875 -5.90625 22.71875 -7.65625 C 22.71875 -8.8125 22.53125 -9.757812 22.15625 -10.5 C 21.789062 -11.238281 21.316406 -11.804688 20.734375 -12.203125 C 20.160156 -12.609375 19.523438 -12.890625 18.828125 -13.046875 C 18.128906 -13.210938 17.472656 -13.296875 16.859375 -13.296875 L 6.5 -13.296875 L 6.984375 -13.921875 L 6.984375 -1.328125 C 6.984375 -0.972656 6.863281 -0.660156 6.625 -0.390625 C 6.382812 -0.128906 6.070312 0 5.6875 0 Z M 6.5 -15.734375 L 17.65625 -15.734375 C 18.664062 -15.828125 19.613281 -16.160156 20.5 -16.734375 C 21.382812 -17.316406 22.101562 -18.113281 22.65625 -19.125 C 23.207031 -20.132812 23.484375 -21.304688 23.484375 -22.640625 C 23.484375 -24.328125 22.910156 -25.722656 21.765625 -26.828125 C 20.628906 -27.941406 19.140625 -28.5 17.296875 -28.5 L 6.671875 -28.5 L 6.984375 -29.125 L 6.984375 -15.125 Z M 6.5 -15.734375 "/></g></g></g><g fill="#23120b" fill-opacity="1"><g transform="translate(315.418804, 44.99373)"><g><path d="M 14.578125 -27.703125 L 3.78125 -0.84375 C 3.664062 -0.550781 3.503906 -0.328125 3.296875 -0.171875 C 3.085938 -0.0234375 2.847656 0.046875 2.578125 0.046875 C 2.160156 0.046875 1.847656 -0.0625 1.640625 -0.28125 C 1.429688 -0.507812 1.316406 -0.785156 1.296875 -1.109375 C 1.265625 -1.253906 1.273438 -1.429688 1.328125 -1.640625 L 13.078125 -30.375 C 13.222656 -30.695312 13.40625 -30.925781 13.625 -31.0625 C 13.851562 -31.195312 14.113281 -31.265625 14.40625 -31.265625 C 14.707031 -31.265625 14.96875 -31.179688 15.1875 -31.015625 C 15.40625 -30.847656 15.578125 -30.632812 15.703125 -30.375 L 27.390625 -1.78125 C 27.453125 -1.601562 27.484375 -1.425781 27.484375 -1.25 C 27.484375 -0.832031 27.347656 -0.507812 27.078125 -0.28125 C 26.816406 -0.0625 26.503906 0.046875 26.140625 0.046875 C 25.847656 0.046875 25.585938 -0.03125 25.359375 -0.1875 C 25.140625 -0.351562 24.972656 -0.570312 24.859375 -0.84375 L 13.78125 -27.875 Z M 6.359375 -8.984375 L 7.46875 -11.609375 L 21.25 -11.609375 L 21.796875 -8.984375 Z M 6.359375 -8.984375 "/></g></g></g><g fill="#23120b" fill-opacity="1"><g transform="translate(344.189513, 44.99373)"><g><path d="M 26.90625 -28.8125 C 27.257812 -28.570312 27.460938 -28.265625 27.515625 -27.890625 C 27.578125 -27.523438 27.492188 -27.164062 27.265625 -26.8125 C 27.054688 -26.550781 26.785156 -26.40625 26.453125 -26.375 C 26.128906 -26.34375 25.820312 -26.398438 25.53125 -26.546875 C 24.394531 -27.285156 23.179688 -27.863281 21.890625 -28.28125 C 20.609375 -28.695312 19.226562 -28.90625 17.75 -28.90625 C 15.9375 -28.90625 14.25 -28.585938 12.6875 -27.953125 C 11.132812 -27.316406 9.78125 -26.394531 8.625 -25.1875 C 7.46875 -23.988281 6.570312 -22.570312 5.9375 -20.9375 C 5.300781 -19.3125 4.984375 -17.519531 4.984375 -15.5625 C 4.984375 -13.550781 5.304688 -11.722656 5.953125 -10.078125 C 6.609375 -8.429688 7.519531 -7.015625 8.6875 -5.828125 C 9.863281 -4.640625 11.222656 -3.734375 12.765625 -3.109375 C 14.304688 -2.484375 15.96875 -2.171875 17.75 -2.171875 C 19.195312 -2.171875 20.566406 -2.378906 21.859375 -2.796875 C 23.148438 -3.210938 24.359375 -3.773438 25.484375 -4.484375 C 25.773438 -4.671875 26.09375 -4.738281 26.4375 -4.6875 C 26.78125 -4.644531 27.054688 -4.476562 27.265625 -4.1875 C 27.523438 -3.851562 27.617188 -3.5 27.546875 -3.125 C 27.472656 -2.757812 27.273438 -2.472656 26.953125 -2.265625 C 26.210938 -1.796875 25.335938 -1.351562 24.328125 -0.9375 C 23.316406 -0.519531 22.25 -0.1875 21.125 0.0625 C 20 0.3125 18.875 0.4375 17.75 0.4375 C 15.613281 0.4375 13.609375 0.0507812 11.734375 -0.71875 C 9.867188 -1.488281 8.207031 -2.578125 6.75 -3.984375 C 5.300781 -5.390625 4.171875 -7.070312 3.359375 -9.03125 C 2.546875 -10.988281 2.140625 -13.164062 2.140625 -15.5625 C 2.140625 -17.875 2.535156 -20 3.328125 -21.9375 C 4.128906 -23.882812 5.242188 -25.566406 6.671875 -26.984375 C 8.097656 -28.410156 9.757812 -29.523438 11.65625 -30.328125 C 13.550781 -31.128906 15.582031 -31.53125 17.75 -31.53125 C 19.4375 -31.53125 21.0625 -31.289062 22.625 -30.8125 C 24.195312 -30.34375 25.625 -29.675781 26.90625 -28.8125 Z M 26.90625 -28.8125 "/></g></g></g><g fill="#23120b" fill-opacity="1"><g transform="translate(373.227019, 44.99373)"><g><path d="M 26.421875 0.171875 C 26.035156 0.171875 25.707031 0.0078125 25.4375 -0.3125 L 12.8125 -16.1875 L 14.890625 -18.28125 L 27.609375 -2.171875 C 27.816406 -1.878906 27.921875 -1.570312 27.921875 -1.25 C 27.921875 -0.769531 27.75 -0.410156 27.40625 -0.171875 C 27.070312 0.0546875 26.742188 0.171875 26.421875 0.171875 Z M 25.921875 -31.046875 C 26.273438 -31.046875 26.578125 -30.910156 26.828125 -30.640625 C 27.085938 -30.367188 27.21875 -30.070312 27.21875 -29.75 C 27.21875 -29.394531 27.082031 -29.082031 26.8125 -28.8125 L 6.625 -9.921875 L 6.265625 -12.9375 L 24.953125 -30.59375 C 25.242188 -30.894531 25.566406 -31.046875 25.921875 -31.046875 Z M 5.5625 0 C 5.144531 0 4.8125 -0.128906 4.5625 -0.390625 C 4.3125 -0.660156 4.1875 -0.988281 4.1875 -1.375 L 4.1875 -29.75 C 4.1875 -30.132812 4.316406 -30.457031 4.578125 -30.71875 C 4.847656 -30.988281 5.191406 -31.125 5.609375 -31.125 C 5.992188 -31.125 6.316406 -30.988281 6.578125 -30.71875 C 6.847656 -30.457031 6.984375 -30.132812 6.984375 -29.75 L 6.984375 -1.375 C 6.953125 -0.988281 6.800781 -0.660156 6.53125 -0.390625 C 6.269531 -0.128906 5.945312 0 5.5625 0 Z M 5.5625 0 "/></g></g></g><g fill="#23120b" fill-opacity="1"><g transform="translate(403.242802, 44.99373)"><g><path d="M 5.515625 -31.125 L 21.828125 -31.125 C 22.191406 -31.125 22.503906 -31 22.765625 -30.75 C 23.035156 -30.5 23.171875 -30.179688 23.171875 -29.796875 C 23.171875 -29.410156 23.035156 -29.097656 22.765625 -28.859375 C 22.503906 -28.617188 22.191406 -28.5 21.828125 -28.5 L 6.53125 -28.5 L 6.984375 -29.265625 L 6.984375 -16.765625 L 6.5 -17.34375 L 19.828125 -17.34375 C 20.179688 -17.34375 20.492188 -17.207031 20.765625 -16.9375 C 21.035156 -16.675781 21.171875 -16.367188 21.171875 -16.015625 C 21.171875 -15.628906 21.035156 -15.316406 20.765625 -15.078125 C 20.492188 -14.835938 20.179688 -14.71875 19.828125 -14.71875 L 6.578125 -14.71875 L 6.984375 -15.15625 L 6.984375 -2.359375 L 6.765625 -2.625 L 21.828125 -2.625 C 22.191406 -2.625 22.503906 -2.488281 22.765625 -2.21875 C 23.035156 -1.957031 23.171875 -1.648438 23.171875 -1.296875 C 23.171875 -0.910156 23.035156 -0.597656 22.765625 -0.359375 C 22.503906 -0.117188 22.191406 0 21.828125 0 L 5.515625 0 C 5.160156 0 4.847656 -0.128906 4.578125 -0.390625 C 4.316406 -0.660156 4.1875 -0.972656 4.1875 -1.328125 L 4.1875 -29.796875 C 4.1875 -30.148438 4.316406 -30.457031 4.578125 -30.71875 C 4.847656 -30.988281 5.160156 -31.125 5.515625 -31.125 Z M 5.515625 -31.125 "/></g></g></g><g fill="#23120b" fill-opacity="1"><g transform="translate(428.500532, 44.99373)"><g><path d="M 5.6875 0 C 5.25 0 4.890625 -0.128906 4.609375 -0.390625 C 4.328125 -0.660156 4.1875 -0.972656 4.1875 -1.328125 L 4.1875 -29.796875 C 4.1875 -30.148438 4.316406 -30.457031 4.578125 -30.71875 C 4.847656 -30.988281 5.160156 -31.125 5.515625 -31.125 L 17.515625 -31.125 C 19.210938 -31.125 20.726562 -30.757812 22.0625 -30.03125 C 23.394531 -29.3125 24.4375 -28.3125 25.1875 -27.03125 C 25.945312 -25.757812 26.328125 -24.320312 26.328125 -22.71875 C 26.328125 -21.414062 26.085938 -20.210938 25.609375 -19.109375 C 25.140625 -18.015625 24.472656 -17.085938 23.609375 -16.328125 C 22.753906 -15.578125 21.789062 -15.023438 20.71875 -14.671875 L 19.171875 -15.15625 C 20.265625 -15.070312 21.285156 -14.722656 22.234375 -14.109375 C 23.179688 -13.503906 23.941406 -12.675781 24.515625 -11.625 C 25.097656 -10.570312 25.40625 -9.304688 25.4375 -7.828125 C 25.46875 -6.554688 25.535156 -5.5625 25.640625 -4.84375 C 25.742188 -4.132812 25.898438 -3.601562 26.109375 -3.25 C 26.316406 -2.894531 26.582031 -2.613281 26.90625 -2.40625 C 27.195312 -2.226562 27.394531 -1.972656 27.5 -1.640625 C 27.601562 -1.316406 27.566406 -1.007812 27.390625 -0.71875 C 27.273438 -0.476562 27.101562 -0.304688 26.875 -0.203125 C 26.65625 -0.0976562 26.425781 -0.046875 26.1875 -0.046875 C 25.957031 -0.046875 25.722656 -0.101562 25.484375 -0.21875 C 25.066406 -0.457031 24.640625 -0.828125 24.203125 -1.328125 C 23.773438 -1.835938 23.421875 -2.582031 23.140625 -3.5625 C 22.859375 -4.539062 22.71875 -5.90625 22.71875 -7.65625 C 22.71875 -8.8125 22.53125 -9.757812 22.15625 -10.5 C 21.789062 -11.238281 21.316406 -11.804688 20.734375 -12.203125 C 20.160156 -12.609375 19.523438 -12.890625 18.828125 -13.046875 C 18.128906 -13.210938 17.472656 -13.296875 16.859375 -13.296875 L 6.5 -13.296875 L 6.984375 -13.921875 L 6.984375 -1.328125 C 6.984375 -0.972656 6.863281 -0.660156 6.625 -0.390625 C 6.382812 -0.128906 6.070312 0 5.6875 0 Z M 6.5 -15.734375 L 17.65625 -15.734375 C 18.664062 -15.828125 19.613281 -16.160156 20.5 -16.734375 C 21.382812 -17.316406 22.101562 -18.113281 22.65625 -19.125 C 23.207031 -20.132812 23.484375 -21.304688 23.484375 -22.640625 C 23.484375 -24.328125 22.910156 -25.722656 21.765625 -26.828125 C 20.628906 -27.941406 19.140625 -28.5 17.296875 -28.5 L 6.671875 -28.5 L 6.984375 -29.125 L 6.984375 -15.125 Z M 6.5 -15.734375 "/></g></g></g></g></g></svg>