<svg xmlns="http://www.w3.org/2000/svg" xmlns:xlink="http://www.w3.org/1999/xlink" width="600" zoomAndPan="magnify" viewBox="0 0 450 112.499997" height="150" preserveAspectRatio="xMidYMid meet" version="1.0"><defs><g/></defs><g fill="#000000" fill-opacity="1"><g transform="translate(44.594773, 77.340987)"><g><path d="M 20.890625 0.796875 C 17.515625 0.796875 14.488281 -0.140625 11.8125 -2.015625 C 9.132812 -3.890625 7.097656 -6.351562 5.703125 -9.40625 C 5.429688 -9.882812 5.296875 -10.3125 5.296875 -10.6875 C 5.296875 -11.382812 5.5625 -11.929688 6.09375 -12.328125 C 6.632812 -12.734375 7.175781 -12.9375 7.71875 -12.9375 C 8.25 -12.9375 8.6875 -12.800781 9.03125 -12.53125 C 9.382812 -12.257812 9.695312 -11.9375 9.96875 -11.5625 C 10.976562 -9.3125 12.445312 -7.488281 14.375 -6.09375 C 16.3125 -4.707031 18.484375 -4.015625 20.890625 -4.015625 C 23.347656 -4.015625 25.515625 -4.535156 27.390625 -5.578125 C 29.265625 -6.628906 30.722656 -8.09375 31.765625 -9.96875 C 32.816406 -11.84375 33.34375 -13.984375 33.34375 -16.390625 L 33.34375 -53.828125 C 33.34375 -54.472656 33.597656 -55.035156 34.109375 -55.515625 C 34.617188 -55.992188 35.21875 -56.234375 35.90625 -56.234375 C 36.65625 -56.234375 37.257812 -55.992188 37.71875 -55.515625 C 38.175781 -55.035156 38.40625 -54.472656 38.40625 -53.828125 L 38.40625 -16.390625 C 38.40625 -13.066406 37.65625 -10.101562 36.15625 -7.5 C 34.65625 -4.90625 32.59375 -2.875 29.96875 -1.40625 C 27.34375 0.0625 24.316406 0.796875 20.890625 0.796875 Z M 20.890625 0.796875 "/></g></g></g><g fill="#000000" fill-opacity="1"><g transform="translate(89.34312, 77.340987)"><g><path d="M 26.359375 -50.046875 L 6.828125 -1.53125 C 6.617188 -0.988281 6.328125 -0.582031 5.953125 -0.3125 C 5.578125 -0.0507812 5.144531 0.078125 4.65625 0.078125 C 3.90625 0.078125 3.34375 -0.117188 2.96875 -0.515625 C 2.59375 -0.921875 2.378906 -1.421875 2.328125 -2.015625 C 2.273438 -2.273438 2.300781 -2.59375 2.40625 -2.96875 L 23.625 -54.875 C 23.882812 -55.46875 24.21875 -55.882812 24.625 -56.125 C 25.03125 -56.363281 25.5 -56.484375 26.03125 -56.484375 C 26.5625 -56.484375 27.03125 -56.332031 27.4375 -56.03125 C 27.84375 -55.738281 28.148438 -55.351562 28.359375 -54.875 L 49.484375 -3.21875 C 49.597656 -2.894531 49.65625 -2.570312 49.65625 -2.25 C 49.65625 -1.5 49.410156 -0.921875 48.921875 -0.515625 C 48.441406 -0.117188 47.878906 0.078125 47.234375 0.078125 C 46.703125 0.078125 46.234375 -0.0664062 45.828125 -0.359375 C 45.429688 -0.648438 45.125 -1.039062 44.90625 -1.53125 L 24.90625 -50.375 Z M 11.484375 -16.234375 L 13.5 -20.96875 L 38.40625 -20.96875 L 39.375 -16.234375 Z M 11.484375 -16.234375 "/></g></g></g><g fill="#000000" fill-opacity="1"><g transform="translate(141.32198, 77.340987)"><g><path d="M 48.6875 -56.234375 C 49.382812 -56.234375 49.929688 -56.019531 50.328125 -55.59375 C 50.734375 -55.164062 50.9375 -54.628906 50.9375 -53.984375 L 50.9375 -2.578125 C 50.9375 -1.765625 50.679688 -1.128906 50.171875 -0.671875 C 49.660156 -0.222656 49.085938 0 48.453125 0 C 48.128906 0 47.78125 -0.0664062 47.40625 -0.203125 C 47.03125 -0.335938 46.734375 -0.535156 46.515625 -0.796875 L 10.6875 -49.09375 L 12.046875 -49.8125 L 12.046875 -2.171875 C 12.046875 -1.578125 11.832031 -1.066406 11.40625 -0.640625 C 10.976562 -0.210938 10.441406 0 9.796875 0 C 9.097656 0 8.546875 -0.210938 8.140625 -0.640625 C 7.742188 -1.066406 7.546875 -1.578125 7.546875 -2.171875 L 7.546875 -53.828125 C 7.546875 -54.628906 7.785156 -55.226562 8.265625 -55.625 C 8.753906 -56.03125 9.289062 -56.234375 9.875 -56.234375 C 10.195312 -56.234375 10.546875 -56.164062 10.921875 -56.03125 C 11.296875 -55.90625 11.59375 -55.679688 11.8125 -55.359375 L 47.234375 -7.625 L 46.4375 -6.1875 L 46.4375 -53.984375 C 46.4375 -54.628906 46.660156 -55.164062 47.109375 -55.59375 C 47.566406 -56.019531 48.09375 -56.234375 48.6875 -56.234375 Z M 48.6875 -56.234375 "/></g></g></g><g fill="#000000" fill-opacity="1"><g transform="translate(199.808233, 77.340987)"><g><path d="M 47.328125 -56.234375 C 48.078125 -56.234375 48.664062 -56.003906 49.09375 -55.546875 C 49.519531 -55.097656 49.734375 -54.523438 49.734375 -53.828125 L 49.734375 -20.5625 C 49.734375 -16.601562 48.796875 -13.015625 46.921875 -9.796875 C 45.046875 -6.585938 42.523438 -4.03125 39.359375 -2.125 C 36.203125 -0.226562 32.644531 0.71875 28.6875 0.71875 C 24.71875 0.71875 21.140625 -0.226562 17.953125 -2.125 C 14.765625 -4.03125 12.234375 -6.585938 10.359375 -9.796875 C 8.484375 -13.015625 7.546875 -16.601562 7.546875 -20.5625 L 7.546875 -53.828125 C 7.546875 -54.523438 7.773438 -55.097656 8.234375 -55.546875 C 8.691406 -56.003906 9.320312 -56.234375 10.125 -56.234375 C 10.769531 -56.234375 11.332031 -56.003906 11.8125 -55.546875 C 12.289062 -55.097656 12.53125 -54.523438 12.53125 -53.828125 L 12.53125 -20.5625 C 12.53125 -17.457031 13.265625 -14.671875 14.734375 -12.203125 C 16.210938 -9.742188 18.179688 -7.773438 20.640625 -6.296875 C 23.109375 -4.828125 25.789062 -4.09375 28.6875 -4.09375 C 31.6875 -4.09375 34.414062 -4.828125 36.875 -6.296875 C 39.34375 -7.773438 41.3125 -9.742188 42.78125 -12.203125 C 44.257812 -14.671875 45 -17.457031 45 -20.5625 L 45 -53.828125 C 45 -54.523438 45.210938 -55.097656 45.640625 -55.546875 C 46.066406 -56.003906 46.628906 -56.234375 47.328125 -56.234375 Z M 47.328125 -56.234375 "/></g></g></g><g fill="#000000" fill-opacity="1"><g transform="translate(256.28598, 77.340987)"><g><path d="M 26.359375 -50.046875 L 6.828125 -1.53125 C 6.617188 -0.988281 6.328125 -0.582031 5.953125 -0.3125 C 5.578125 -0.0507812 5.144531 0.078125 4.65625 0.078125 C 3.90625 0.078125 3.34375 -0.117188 2.96875 -0.515625 C 2.59375 -0.921875 2.378906 -1.421875 2.328125 -2.015625 C 2.273438 -2.273438 2.300781 -2.59375 2.40625 -2.96875 L 23.625 -54.875 C 23.882812 -55.46875 24.21875 -55.882812 24.625 -56.125 C 25.03125 -56.363281 25.5 -56.484375 26.03125 -56.484375 C 26.5625 -56.484375 27.03125 -56.332031 27.4375 -56.03125 C 27.84375 -55.738281 28.148438 -55.351562 28.359375 -54.875 L 49.484375 -3.21875 C 49.597656 -2.894531 49.65625 -2.570312 49.65625 -2.25 C 49.65625 -1.5 49.410156 -0.921875 48.921875 -0.515625 C 48.441406 -0.117188 47.878906 0.078125 47.234375 0.078125 C 46.703125 0.078125 46.234375 -0.0664062 45.828125 -0.359375 C 45.429688 -0.648438 45.125 -1.039062 44.90625 -1.53125 L 24.90625 -50.375 Z M 11.484375 -16.234375 L 13.5 -20.96875 L 38.40625 -20.96875 L 39.375 -16.234375 Z M 11.484375 -16.234375 "/></g></g></g><g fill="#000000" fill-opacity="1"><g transform="translate(308.264852, 77.340987)"><g><path d="M 10.28125 0 C 9.476562 0 8.820312 -0.238281 8.3125 -0.71875 C 7.800781 -1.207031 7.546875 -1.769531 7.546875 -2.40625 L 7.546875 -53.828125 C 7.546875 -54.472656 7.785156 -55.035156 8.265625 -55.515625 C 8.753906 -55.992188 9.320312 -56.234375 9.96875 -56.234375 L 31.65625 -56.234375 C 34.707031 -56.234375 37.4375 -55.578125 39.84375 -54.265625 C 42.257812 -52.953125 44.148438 -51.144531 45.515625 -48.84375 C 46.878906 -46.539062 47.5625 -43.945312 47.5625 -41.0625 C 47.5625 -38.695312 47.132812 -36.523438 46.28125 -34.546875 C 45.425781 -32.566406 44.21875 -30.894531 42.65625 -29.53125 C 41.101562 -28.164062 39.363281 -27.160156 37.4375 -26.515625 L 34.625 -27.390625 C 36.601562 -27.234375 38.453125 -26.601562 40.171875 -25.5 C 41.890625 -24.40625 43.269531 -22.90625 44.3125 -21 C 45.351562 -19.101562 45.898438 -16.816406 45.953125 -14.140625 C 46.003906 -11.835938 46.125 -10.039062 46.3125 -8.75 C 46.5 -7.46875 46.78125 -6.503906 47.15625 -5.859375 C 47.53125 -5.222656 48.015625 -4.71875 48.609375 -4.34375 C 49.140625 -4.019531 49.5 -3.5625 49.6875 -2.96875 C 49.875 -2.382812 49.804688 -1.820312 49.484375 -1.28125 C 49.273438 -0.851562 48.96875 -0.546875 48.5625 -0.359375 C 48.164062 -0.171875 47.753906 -0.078125 47.328125 -0.078125 C 46.898438 -0.078125 46.46875 -0.1875 46.03125 -0.40625 C 45.28125 -0.832031 44.515625 -1.5 43.734375 -2.40625 C 42.960938 -3.320312 42.320312 -4.660156 41.8125 -6.421875 C 41.3125 -8.191406 41.0625 -10.65625 41.0625 -13.8125 C 41.0625 -15.90625 40.722656 -17.617188 40.046875 -18.953125 C 39.378906 -20.296875 38.519531 -21.328125 37.46875 -22.046875 C 36.425781 -22.773438 35.273438 -23.285156 34.015625 -23.578125 C 32.765625 -23.867188 31.578125 -24.015625 30.453125 -24.015625 L 11.734375 -24.015625 L 12.609375 -25.140625 L 12.609375 -2.40625 C 12.609375 -1.769531 12.394531 -1.207031 11.96875 -0.71875 C 11.539062 -0.238281 10.976562 0 10.28125 0 Z M 11.734375 -28.4375 L 31.890625 -28.4375 C 33.710938 -28.601562 35.425781 -29.207031 37.03125 -30.25 C 38.644531 -31.289062 39.945312 -32.722656 40.9375 -34.546875 C 41.925781 -36.367188 42.421875 -38.484375 42.421875 -40.890625 C 42.421875 -43.941406 41.390625 -46.472656 39.328125 -48.484375 C 37.265625 -50.492188 34.570312 -51.5 31.25 -51.5 L 12.046875 -51.5 L 12.609375 -52.625 L 12.609375 -27.3125 Z M 11.734375 -28.4375 "/></g></g></g><g fill="#000000" fill-opacity="1"><g transform="translate(360.484627, 77.340987)"><g><path d="M 41.0625 -56.5625 C 41.75 -56.5625 42.320312 -56.304688 42.78125 -55.796875 C 43.238281 -55.285156 43.46875 -54.738281 43.46875 -54.15625 C 43.46875 -53.882812 43.425781 -53.628906 43.34375 -53.390625 C 43.257812 -53.148438 43.140625 -52.894531 42.984375 -52.625 L 24.109375 -26.671875 L 25.0625 -29.8125 L 25.0625 -2.40625 C 25.0625 -1.769531 24.820312 -1.207031 24.34375 -0.71875 C 23.863281 -0.238281 23.273438 0 22.578125 0 C 21.878906 0 21.300781 -0.238281 20.84375 -0.71875 C 20.394531 -1.207031 20.171875 -1.769531 20.171875 -2.40625 L 20.171875 -29.25 L 20.5625 -27.3125 L 2.171875 -52.46875 C 1.953125 -52.726562 1.789062 -53.003906 1.6875 -53.296875 C 1.582031 -53.597656 1.53125 -53.882812 1.53125 -54.15625 C 1.53125 -54.851562 1.8125 -55.425781 2.375 -55.875 C 2.9375 -56.332031 3.507812 -56.5625 4.09375 -56.5625 C 4.894531 -56.5625 5.566406 -56.1875 6.109375 -55.4375 L 23.375 -31.890625 L 22.171875 -32.0625 L 38.96875 -55.4375 C 39.5 -56.1875 40.195312 -56.5625 41.0625 -56.5625 Z M 41.0625 -56.5625 "/></g></g></g></svg>