<svg xmlns="http://www.w3.org/2000/svg" xmlns:xlink="http://www.w3.org/1999/xlink" width="1176" zoomAndPan="magnify" viewBox="0 0 882 749.999995" height="1000" preserveAspectRatio="xMidYMid meet" version="1.0"><defs><g/><clipPath id="5821543ca1"><path d="M 505 1.207031 L 514 1.207031 L 514 27 L 505 27 Z M 505 1.207031 " clip-rule="nonzero"/></clipPath><clipPath id="d45f98aa93"><rect x="0" width="9" y="0" height="26"/></clipPath><clipPath id="70cc21d2cb"><path d="M 631 1.207031 L 643 1.207031 L 643 27 L 631 27 Z M 631 1.207031 " clip-rule="nonzero"/></clipPath><clipPath id="2f8096344e"><rect x="0" width="12" y="0" height="26"/></clipPath><clipPath id="954f8578aa"><path d="M 757 1.207031 L 768 1.207031 L 768 27 L 757 27 Z M 757 1.207031 " clip-rule="nonzero"/></clipPath><clipPath id="83925d8718"><rect x="0" width="11" y="0" height="26"/></clipPath><clipPath id="badd1508e0"><path d="M 0.640625 6 L 11 6 L 11 20 L 0.640625 20 Z M 0.640625 6 " clip-rule="nonzero"/></clipPath><clipPath id="09770c8e51"><rect x="0" width="12" y="0" height="25"/></clipPath><clipPath id="29c85bba95"><rect x="0" width="12" y="0" height="25"/></clipPath><clipPath id="cb3e2793f5"><rect x="0" width="12" y="0" height="25"/></clipPath><clipPath id="0b6b0b7752"><rect x="0" width="11" y="0" height="25"/></clipPath><clipPath id="8a791f925d"><rect x="0" width="12" y="0" height="25"/></clipPath><clipPath id="67c704fed7"><rect x="0" width="12" y="0" height="25"/></clipPath><clipPath id="b575128845"><rect x="0" width="20" y="0" height="25"/></clipPath><clipPath id="0cd58e3616"><rect x="0" width="16" y="0" height="25"/></clipPath><clipPath id="a326e5ce46"><path d="M 0.398438 6 L 6 6 L 6 20 L 0.398438 20 Z M 0.398438 6 " clip-rule="nonzero"/></clipPath><clipPath id="4a98b48eae"><rect x="0" width="19" y="0" height="25"/></clipPath><clipPath id="1be5ad1aa4"><path d="M 0.160156 6 L 6 6 L 6 20 L 0.160156 20 Z M 0.160156 6 " clip-rule="nonzero"/></clipPath><clipPath id="eec7924022"><rect x="0" width="18" y="0" height="25"/></clipPath><clipPath id="16921a50fc"><path d="M 0.160156 6 L 6 6 L 6 20 L 0.160156 20 Z M 0.160156 6 " clip-rule="nonzero"/></clipPath><clipPath id="2819153689"><rect x="0" width="18" y="0" height="25"/></clipPath><clipPath id="591f223daf"><rect x="0" width="20" y="0" height="25"/></clipPath><clipPath id="77a9742161"><rect x="0" width="19" y="0" height="25"/></clipPath><clipPath id="cdf31bd450"><rect x="0" width="19" y="0" height="25"/></clipPath><clipPath id="e1e000e84e"><path d="M 2 450.484375 L 21 450.484375 L 21 476 L 2 476 Z M 2 450.484375 " clip-rule="nonzero"/></clipPath><clipPath id="ad14616a3e"><rect x="0" width="19" y="0" height="26"/></clipPath><clipPath id="17ea92752d"><path d="M 128 450.484375 L 147 450.484375 L 147 476 L 128 476 Z M 128 450.484375 " clip-rule="nonzero"/></clipPath><clipPath id="1e58215da8"><path d="M 0.398438 6 L 6 6 L 6 21 L 0.398438 21 Z M 0.398438 6 " clip-rule="nonzero"/></clipPath><clipPath id="c0cc95b68b"><rect x="0" width="19" y="0" height="26"/></clipPath><clipPath id="420fd19b0e"><path d="M 254 450.484375 L 277 450.484375 L 277 476 L 254 476 Z M 254 450.484375 " clip-rule="nonzero"/></clipPath><clipPath id="340ff491cb"><rect x="0" width="23" y="0" height="26"/></clipPath><clipPath id="06e20a1f60"><path d="M 380 450.484375 L 399 450.484375 L 399 476 L 380 476 Z M 380 450.484375 " clip-rule="nonzero"/></clipPath><clipPath id="b43de93a7b"><rect x="0" width="19" y="0" height="26"/></clipPath><clipPath id="f52290e253"><path d="M 505 450.484375 L 528 450.484375 L 528 476 L 505 476 Z M 505 450.484375 " clip-rule="nonzero"/></clipPath><clipPath id="1b3622abce"><rect x="0" width="23" y="0" height="26"/></clipPath><clipPath id="2f3db20755"><path d="M 631 450.484375 L 654 450.484375 L 654 476 L 631 476 Z M 631 450.484375 " clip-rule="nonzero"/></clipPath><clipPath id="7512388f2a"><rect x="0" width="23" y="0" height="26"/></clipPath><clipPath id="abc7124a79"><path d="M 757 450.484375 L 779 450.484375 L 779 476 L 757 476 Z M 757 450.484375 " clip-rule="nonzero"/></clipPath><clipPath id="7375519ae0"><rect x="0" width="22" y="0" height="26"/></clipPath><clipPath id="400ebf5219"><path d="M 2 600.242188 L 24 600.242188 L 24 626 L 2 626 Z M 2 600.242188 " clip-rule="nonzero"/></clipPath><clipPath id="4cf6f2fd6b"><rect x="0" width="22" y="0" height="26"/></clipPath><clipPath id="8f9d413e9f"><path d="M 128 600.242188 L 150 600.242188 L 150 626 L 128 626 Z M 128 600.242188 " clip-rule="nonzero"/></clipPath><clipPath id="dad5d5a899"><rect x="0" width="22" y="0" height="26"/></clipPath><clipPath id="0c578f8977"><path d="M 254 600.242188 L 276 600.242188 L 276 626 L 254 626 Z M 254 600.242188 " clip-rule="nonzero"/></clipPath><clipPath id="a01a97980e"><rect x="0" width="22" y="0" height="26"/></clipPath><clipPath id="3cd8f35866"><path d="M 380 600.242188 L 402 600.242188 L 402 626 L 380 626 Z M 380 600.242188 " clip-rule="nonzero"/></clipPath><clipPath id="409fb30888"><rect x="0" width="22" y="0" height="26"/></clipPath><clipPath id="f067e800c3"><path d="M 505 600.242188 L 528 600.242188 L 528 626 L 505 626 Z M 505 600.242188 " clip-rule="nonzero"/></clipPath><clipPath id="b9f1a33f3b"><rect x="0" width="23" y="0" height="26"/></clipPath><clipPath id="0e149150f8"><path d="M 631 600.242188 L 654 600.242188 L 654 626 L 631 626 Z M 631 600.242188 " clip-rule="nonzero"/></clipPath><clipPath id="df883c685b"><rect x="0" width="23" y="0" height="26"/></clipPath><clipPath id="83c89c354f"><path d="M 757 600.242188 L 776 600.242188 L 776 626 L 757 626 Z M 757 600.242188 " clip-rule="nonzero"/></clipPath><clipPath id="9d6564a8a8"><rect x="0" width="19" y="0" height="26"/></clipPath></defs><g clip-path="url(#5821543ca1)"><g transform="matrix(1, 0, 0, 1, 505, 1)"><g clip-path="url(#d45f98aa93)"><g fill="#201f1f" fill-opacity="1"><g transform="translate(0.982381, 20.130019)"><g><path d="M 4.328125 0 C 4.148438 0 4.003906 -0.0546875 3.890625 -0.171875 C 3.773438 -0.285156 3.71875 -0.421875 3.71875 -0.578125 L 3.71875 -12.09375 L 3.921875 -11.90625 L 1.375 -10.203125 C 1.269531 -10.128906 1.160156 -10.09375 1.046875 -10.09375 C 0.898438 -10.09375 0.765625 -10.15625 0.640625 -10.28125 C 0.515625 -10.40625 0.453125 -10.546875 0.453125 -10.703125 C 0.453125 -10.898438 0.554688 -11.054688 0.765625 -11.171875 L 3.96875 -13.296875 C 4.039062 -13.347656 4.117188 -13.378906 4.203125 -13.390625 C 4.285156 -13.410156 4.359375 -13.414062 4.421875 -13.40625 C 4.585938 -13.382812 4.710938 -13.316406 4.796875 -13.203125 C 4.890625 -13.097656 4.9375 -12.972656 4.9375 -12.828125 L 4.9375 -0.578125 C 4.9375 -0.421875 4.878906 -0.285156 4.765625 -0.171875 C 4.648438 -0.0546875 4.503906 0 4.328125 0 Z M 4.328125 0 "/></g></g></g></g></g></g><g clip-path="url(#70cc21d2cb)"><g transform="matrix(1, 0, 0, 1, 631, 1)"><g clip-path="url(#2f8096344e)"><g fill="#201f1f" fill-opacity="1"><g transform="translate(0.80132, 20.130019)"><g><path d="M 9.078125 -1.109375 C 9.222656 -1.109375 9.347656 -1.050781 9.453125 -0.9375 C 9.566406 -0.832031 9.625 -0.707031 9.625 -0.5625 C 9.625 -0.394531 9.566406 -0.257812 9.453125 -0.15625 C 9.347656 -0.0507812 9.222656 0 9.078125 0 L 1.890625 0 C 1.722656 0 1.578125 -0.046875 1.453125 -0.140625 C 1.335938 -0.234375 1.28125 -0.378906 1.28125 -0.578125 C 1.28125 -0.710938 1.332031 -0.84375 1.4375 -0.96875 L 5.859375 -5.859375 C 6.554688 -6.617188 7.082031 -7.320312 7.4375 -7.96875 C 7.789062 -8.613281 7.96875 -9.191406 7.96875 -9.703125 C 7.96875 -10.546875 7.710938 -11.222656 7.203125 -11.734375 C 6.691406 -12.242188 6 -12.5 5.125 -12.5 C 4.726562 -12.5 4.335938 -12.414062 3.953125 -12.25 C 3.566406 -12.082031 3.222656 -11.863281 2.921875 -11.59375 C 2.617188 -11.332031 2.382812 -11.03125 2.21875 -10.6875 C 2.144531 -10.550781 2.066406 -10.457031 1.984375 -10.40625 C 1.898438 -10.363281 1.804688 -10.34375 1.703125 -10.34375 C 1.546875 -10.34375 1.410156 -10.390625 1.296875 -10.484375 C 1.179688 -10.578125 1.125 -10.691406 1.125 -10.828125 C 1.125 -10.921875 1.144531 -11.007812 1.1875 -11.09375 C 1.238281 -11.1875 1.304688 -11.289062 1.390625 -11.40625 C 1.617188 -11.800781 1.9375 -12.164062 2.34375 -12.5 C 2.757812 -12.832031 3.21875 -13.097656 3.71875 -13.296875 C 4.226562 -13.492188 4.722656 -13.59375 5.203125 -13.59375 C 6.023438 -13.59375 6.734375 -13.4375 7.328125 -13.125 C 7.921875 -12.8125 8.378906 -12.367188 8.703125 -11.796875 C 9.023438 -11.234375 9.1875 -10.5625 9.1875 -9.78125 C 9.1875 -9.113281 8.976562 -8.390625 8.5625 -7.609375 C 8.144531 -6.828125 7.53125 -5.984375 6.71875 -5.078125 L 2.984375 -0.875 L 2.796875 -1.109375 Z M 9.078125 -1.109375 "/></g></g></g></g></g></g><g clip-path="url(#954f8578aa)"><g transform="matrix(1, 0, 0, 1, 757, 1)"><g clip-path="url(#83925d8718)"><g fill="#201f1f" fill-opacity="1"><g transform="translate(0.620259, 20.130019)"><g><path d="M 1.703125 -1.96875 C 1.765625 -1.96875 1.832031 -1.953125 1.90625 -1.921875 C 1.976562 -1.898438 2.0625 -1.847656 2.15625 -1.765625 C 2.425781 -1.484375 2.742188 -1.269531 3.109375 -1.125 C 3.484375 -0.976562 3.910156 -0.90625 4.390625 -0.90625 C 5.015625 -0.90625 5.582031 -1.039062 6.09375 -1.3125 C 6.613281 -1.59375 7.023438 -1.984375 7.328125 -2.484375 C 7.640625 -2.992188 7.796875 -3.578125 7.796875 -4.234375 C 7.796875 -4.972656 7.628906 -5.566406 7.296875 -6.015625 C 6.972656 -6.472656 6.554688 -6.8125 6.046875 -7.03125 C 5.546875 -7.257812 5.035156 -7.375 4.515625 -7.375 C 4.378906 -7.375 4.242188 -7.363281 4.109375 -7.34375 C 3.972656 -7.320312 3.847656 -7.296875 3.734375 -7.265625 C 3.617188 -7.242188 3.53125 -7.234375 3.46875 -7.234375 C 3.300781 -7.234375 3.171875 -7.285156 3.078125 -7.390625 C 2.992188 -7.503906 2.953125 -7.644531 2.953125 -7.8125 C 2.953125 -7.894531 2.96875 -7.972656 3 -8.046875 C 3.039062 -8.117188 3.09375 -8.195312 3.15625 -8.28125 L 7.046875 -12.515625 L 7.28125 -12.21875 L 1.46875 -12.21875 C 1.320312 -12.21875 1.191406 -12.269531 1.078125 -12.375 C 0.972656 -12.476562 0.921875 -12.609375 0.921875 -12.765625 C 0.921875 -12.921875 0.972656 -13.046875 1.078125 -13.140625 C 1.191406 -13.242188 1.320312 -13.296875 1.46875 -13.296875 L 7.90625 -13.296875 C 8.125 -13.296875 8.273438 -13.226562 8.359375 -13.09375 C 8.453125 -12.96875 8.5 -12.835938 8.5 -12.703125 C 8.5 -12.628906 8.476562 -12.554688 8.4375 -12.484375 C 8.40625 -12.421875 8.351562 -12.347656 8.28125 -12.265625 L 4.40625 -8.046875 L 3.984375 -8.28125 C 4.015625 -8.320312 4.140625 -8.363281 4.359375 -8.40625 C 4.585938 -8.457031 4.769531 -8.484375 4.90625 -8.484375 C 5.601562 -8.484375 6.257812 -8.316406 6.875 -7.984375 C 7.5 -7.648438 8.003906 -7.171875 8.390625 -6.546875 C 8.785156 -5.929688 8.984375 -5.171875 8.984375 -4.265625 C 8.984375 -3.367188 8.769531 -2.585938 8.34375 -1.921875 C 7.925781 -1.253906 7.359375 -0.734375 6.640625 -0.359375 C 5.921875 0.00390625 5.128906 0.1875 4.265625 0.1875 C 3.742188 0.1875 3.226562 0.0976562 2.71875 -0.078125 C 2.207031 -0.253906 1.757812 -0.519531 1.375 -0.875 C 1.289062 -0.957031 1.226562 -1.035156 1.1875 -1.109375 C 1.144531 -1.179688 1.125 -1.257812 1.125 -1.34375 C 1.125 -1.488281 1.175781 -1.628906 1.28125 -1.765625 C 1.394531 -1.898438 1.535156 -1.96875 1.703125 -1.96875 Z M 1.703125 -1.96875 "/></g></g></g></g></g></g><g transform="matrix(1, 0, 0, 1, 2, 151)"><g clip-path="url(#09770c8e51)"><g clip-path="url(#badd1508e0)"><g fill="#201f1f" fill-opacity="1"><g transform="translate(0.706568, 19.888671)"><g><path d="M 7.03125 0 C 6.863281 0 6.726562 -0.0546875 6.625 -0.171875 C 6.519531 -0.285156 6.46875 -0.421875 6.46875 -0.578125 L 6.46875 -11.8125 L 6.71875 -11.65625 L 1.6875 -5 L 1.625 -5.203125 L 8.984375 -5.203125 C 9.128906 -5.203125 9.253906 -5.148438 9.359375 -5.046875 C 9.472656 -4.953125 9.53125 -4.828125 9.53125 -4.671875 C 9.53125 -4.515625 9.472656 -4.382812 9.359375 -4.28125 C 9.253906 -4.1875 9.128906 -4.140625 8.984375 -4.140625 L 0.84375 -4.140625 C 0.6875 -4.140625 0.550781 -4.195312 0.4375 -4.3125 C 0.320312 -4.4375 0.265625 -4.578125 0.265625 -4.734375 C 0.265625 -4.867188 0.3125 -4.992188 0.40625 -5.109375 L 6.5625 -13.171875 C 6.625 -13.253906 6.703125 -13.3125 6.796875 -13.34375 C 6.898438 -13.382812 6.984375 -13.40625 7.046875 -13.40625 C 7.210938 -13.40625 7.347656 -13.34375 7.453125 -13.21875 C 7.566406 -13.101562 7.625 -12.972656 7.625 -12.828125 L 7.625 -0.578125 C 7.625 -0.421875 7.566406 -0.285156 7.453125 -0.171875 C 7.335938 -0.0546875 7.195312 0 7.03125 0 Z M 7.03125 0 "/></g></g></g></g></g></g><g transform="matrix(1, 0, 0, 1, 128, 151)"><g clip-path="url(#29c85bba95)"><g fill="#201f1f" fill-opacity="1"><g transform="translate(0.525519, 19.888671)"><g><path d="M 4.484375 0.03125 C 3.953125 0.03125 3.421875 -0.0507812 2.890625 -0.21875 C 2.367188 -0.394531 1.90625 -0.65625 1.5 -1 C 1.414062 -1.0625 1.351562 -1.132812 1.3125 -1.21875 C 1.269531 -1.3125 1.25 -1.40625 1.25 -1.5 C 1.25 -1.625 1.296875 -1.742188 1.390625 -1.859375 C 1.492188 -1.984375 1.628906 -2.046875 1.796875 -2.046875 C 1.941406 -2.046875 2.082031 -1.988281 2.21875 -1.875 C 2.550781 -1.625 2.910156 -1.425781 3.296875 -1.28125 C 3.691406 -1.144531 4.085938 -1.078125 4.484375 -1.078125 C 5.234375 -1.078125 5.890625 -1.21875 6.453125 -1.5 C 7.015625 -1.789062 7.445312 -2.195312 7.75 -2.71875 C 8.0625 -3.25 8.21875 -3.867188 8.21875 -4.578125 C 8.21875 -5.222656 8.078125 -5.785156 7.796875 -6.265625 C 7.515625 -6.742188 7.113281 -7.117188 6.59375 -7.390625 C 6.070312 -7.671875 5.460938 -7.8125 4.765625 -7.8125 C 4.304688 -7.8125 3.890625 -7.738281 3.515625 -7.59375 C 3.140625 -7.457031 2.8125 -7.316406 2.53125 -7.171875 C 2.257812 -7.023438 2.039062 -6.953125 1.875 -6.953125 C 1.71875 -6.953125 1.59375 -6.988281 1.5 -7.0625 C 1.40625 -7.132812 1.34375 -7.226562 1.3125 -7.34375 C 1.28125 -7.457031 1.273438 -7.582031 1.296875 -7.71875 L 2.125 -12.828125 C 2.132812 -12.941406 2.191406 -13.046875 2.296875 -13.140625 C 2.410156 -13.234375 2.550781 -13.28125 2.71875 -13.28125 L 8.484375 -13.28125 C 8.628906 -13.28125 8.753906 -13.222656 8.859375 -13.109375 C 8.972656 -13.003906 9.03125 -12.878906 9.03125 -12.734375 C 9.03125 -12.566406 8.972656 -12.425781 8.859375 -12.3125 C 8.753906 -12.207031 8.628906 -12.15625 8.484375 -12.15625 L 2.984375 -12.15625 L 3.15625 -12.328125 L 2.375 -7.796875 L 2.03125 -8.046875 C 2.195312 -8.171875 2.4375 -8.296875 2.75 -8.421875 C 3.0625 -8.546875 3.410156 -8.65625 3.796875 -8.75 C 4.191406 -8.851562 4.601562 -8.90625 5.03125 -8.90625 C 5.863281 -8.90625 6.601562 -8.722656 7.25 -8.359375 C 7.90625 -7.992188 8.421875 -7.488281 8.796875 -6.84375 C 9.171875 -6.195312 9.359375 -5.453125 9.359375 -4.609375 C 9.359375 -3.679688 9.15625 -2.867188 8.75 -2.171875 C 8.351562 -1.472656 7.789062 -0.929688 7.0625 -0.546875 C 6.332031 -0.160156 5.472656 0.03125 4.484375 0.03125 Z M 4.484375 0.03125 "/></g></g></g></g></g><g transform="matrix(1, 0, 0, 1, 254, 151)"><g clip-path="url(#cb3e2793f5)"><g fill="#201f1f" fill-opacity="1"><g transform="translate(0.344473, 19.888671)"><g><path d="M 5.5 0.1875 C 4.757812 0.1875 4.109375 0.0546875 3.546875 -0.203125 C 2.992188 -0.472656 2.535156 -0.832031 2.171875 -1.28125 C 1.804688 -1.738281 1.535156 -2.253906 1.359375 -2.828125 C 1.191406 -3.398438 1.109375 -3.988281 1.109375 -4.59375 C 1.109375 -5.207031 1.179688 -5.867188 1.328125 -6.578125 C 1.484375 -7.285156 1.722656 -8 2.046875 -8.71875 C 2.367188 -9.445312 2.757812 -10.132812 3.21875 -10.78125 C 3.6875 -11.4375 4.226562 -12.023438 4.84375 -12.546875 C 5.46875 -13.066406 6.171875 -13.472656 6.953125 -13.765625 C 7.035156 -13.785156 7.109375 -13.796875 7.171875 -13.796875 C 7.335938 -13.796875 7.484375 -13.75 7.609375 -13.65625 C 7.734375 -13.570312 7.796875 -13.421875 7.796875 -13.203125 C 7.796875 -13.078125 7.753906 -12.96875 7.671875 -12.875 C 7.585938 -12.78125 7.472656 -12.707031 7.328125 -12.65625 C 6.796875 -12.425781 6.265625 -12.097656 5.734375 -11.671875 C 5.210938 -11.253906 4.726562 -10.769531 4.28125 -10.21875 C 3.84375 -9.664062 3.46875 -9.070312 3.15625 -8.4375 C 2.84375 -7.8125 2.617188 -7.175781 2.484375 -6.53125 L 2.0625 -6.28125 C 2.289062 -6.695312 2.585938 -7.066406 2.953125 -7.390625 C 3.316406 -7.722656 3.734375 -7.988281 4.203125 -8.1875 C 4.679688 -8.382812 5.195312 -8.484375 5.75 -8.484375 C 6.320312 -8.484375 6.847656 -8.359375 7.328125 -8.109375 C 7.816406 -7.867188 8.234375 -7.539062 8.578125 -7.125 C 8.929688 -6.71875 9.207031 -6.25 9.40625 -5.71875 C 9.601562 -5.195312 9.703125 -4.65625 9.703125 -4.09375 C 9.703125 -3.34375 9.519531 -2.640625 9.15625 -1.984375 C 8.789062 -1.335938 8.289062 -0.8125 7.65625 -0.40625 C 7.03125 -0.0078125 6.3125 0.1875 5.5 0.1875 Z M 5.46875 -0.921875 C 6.0625 -0.921875 6.585938 -1.050781 7.046875 -1.3125 C 7.503906 -1.582031 7.863281 -1.957031 8.125 -2.4375 C 8.382812 -2.914062 8.515625 -3.46875 8.515625 -4.09375 C 8.515625 -4.664062 8.398438 -5.195312 8.171875 -5.6875 C 7.953125 -6.1875 7.625 -6.59375 7.1875 -6.90625 C 6.75 -7.21875 6.203125 -7.375 5.546875 -7.375 C 4.867188 -7.375 4.285156 -7.21875 3.796875 -6.90625 C 3.304688 -6.601562 2.929688 -6.195312 2.671875 -5.6875 C 2.410156 -5.1875 2.28125 -4.632812 2.28125 -4.03125 C 2.28125 -3.5 2.40625 -2.992188 2.65625 -2.515625 C 2.914062 -2.035156 3.285156 -1.648438 3.765625 -1.359375 C 4.242188 -1.066406 4.8125 -0.921875 5.46875 -0.921875 Z M 5.46875 -0.921875 "/></g></g></g></g></g><g transform="matrix(1, 0, 0, 1, 380, 151)"><g clip-path="url(#0b6b0b7752)"><g fill="#201f1f" fill-opacity="1"><g transform="translate(0.163412, 19.888671)"><g><path d="M 3.40625 0.0625 C 3.25 0.0625 3.109375 0.0078125 2.984375 -0.09375 C 2.859375 -0.195312 2.796875 -0.328125 2.796875 -0.484375 C 2.796875 -0.566406 2.816406 -0.660156 2.859375 -0.765625 L 7.9375 -12.453125 L 8.15625 -12.1875 L 1.6875 -12.1875 C 1.53125 -12.1875 1.394531 -12.238281 1.28125 -12.34375 C 1.175781 -12.457031 1.125 -12.59375 1.125 -12.75 C 1.125 -12.914062 1.175781 -13.046875 1.28125 -13.140625 C 1.394531 -13.242188 1.53125 -13.296875 1.6875 -13.296875 L 8.703125 -13.296875 C 8.898438 -13.296875 9.039062 -13.242188 9.125 -13.140625 C 9.21875 -13.046875 9.265625 -12.921875 9.265625 -12.765625 C 9.265625 -12.660156 9.242188 -12.566406 9.203125 -12.484375 L 3.9375 -0.328125 C 3.90625 -0.210938 3.835938 -0.117188 3.734375 -0.046875 C 3.628906 0.0234375 3.519531 0.0625 3.40625 0.0625 Z M 3.40625 0.0625 "/></g></g></g></g></g><g transform="matrix(1, 0, 0, 1, 505, 151)"><g clip-path="url(#8a791f925d)"><g fill="#201f1f" fill-opacity="1"><g transform="translate(0.982381, 19.888671)"><g><path d="M 6.96875 -6.734375 L 6.90625 -6.90625 C 7.34375 -6.738281 7.738281 -6.492188 8.09375 -6.171875 C 8.445312 -5.847656 8.734375 -5.460938 8.953125 -5.015625 C 9.171875 -4.578125 9.28125 -4.097656 9.28125 -3.578125 C 9.28125 -2.890625 9.097656 -2.265625 8.734375 -1.703125 C 8.367188 -1.140625 7.875 -0.691406 7.25 -0.359375 C 6.625 -0.0234375 5.929688 0.140625 5.171875 0.140625 C 4.390625 0.140625 3.6875 -0.0234375 3.0625 -0.359375 C 2.445312 -0.691406 1.957031 -1.140625 1.59375 -1.703125 C 1.226562 -2.265625 1.046875 -2.890625 1.046875 -3.578125 C 1.046875 -4.140625 1.15625 -4.640625 1.375 -5.078125 C 1.601562 -5.523438 1.898438 -5.898438 2.265625 -6.203125 C 2.628906 -6.503906 3.007812 -6.738281 3.40625 -6.90625 L 3.34375 -6.71875 C 3 -6.882812 2.675781 -7.109375 2.375 -7.390625 C 2.082031 -7.679688 1.835938 -8.023438 1.640625 -8.421875 C 1.453125 -8.828125 1.359375 -9.273438 1.359375 -9.765625 C 1.359375 -10.453125 1.523438 -11.066406 1.859375 -11.609375 C 2.203125 -12.160156 2.660156 -12.597656 3.234375 -12.921875 C 3.816406 -13.242188 4.460938 -13.40625 5.171875 -13.40625 C 5.867188 -13.40625 6.5 -13.242188 7.0625 -12.921875 C 7.632812 -12.597656 8.085938 -12.160156 8.421875 -11.609375 C 8.765625 -11.066406 8.9375 -10.453125 8.9375 -9.765625 C 8.9375 -9.265625 8.835938 -8.816406 8.640625 -8.421875 C 8.453125 -8.023438 8.207031 -7.679688 7.90625 -7.390625 C 7.601562 -7.109375 7.289062 -6.890625 6.96875 -6.734375 Z M 2.546875 -9.765625 C 2.546875 -9.253906 2.664062 -8.804688 2.90625 -8.421875 C 3.144531 -8.035156 3.460938 -7.734375 3.859375 -7.515625 C 4.253906 -7.304688 4.691406 -7.203125 5.171875 -7.203125 C 5.628906 -7.203125 6.054688 -7.304688 6.453125 -7.515625 C 6.847656 -7.734375 7.160156 -8.035156 7.390625 -8.421875 C 7.628906 -8.804688 7.75 -9.253906 7.75 -9.765625 C 7.75 -10.515625 7.503906 -11.125 7.015625 -11.59375 C 6.535156 -12.070312 5.921875 -12.3125 5.171875 -12.3125 C 4.390625 -12.3125 3.753906 -12.070312 3.265625 -11.59375 C 2.785156 -11.125 2.546875 -10.515625 2.546875 -9.765625 Z M 5.171875 -0.953125 C 6.035156 -0.953125 6.738281 -1.203125 7.28125 -1.703125 C 7.820312 -2.203125 8.09375 -2.828125 8.09375 -3.578125 C 8.09375 -4.085938 7.957031 -4.546875 7.6875 -4.953125 C 7.425781 -5.359375 7.070312 -5.675781 6.625 -5.90625 C 6.175781 -6.144531 5.691406 -6.265625 5.171875 -6.265625 C 4.648438 -6.265625 4.164062 -6.144531 3.71875 -5.90625 C 3.269531 -5.675781 2.910156 -5.359375 2.640625 -4.953125 C 2.367188 -4.546875 2.234375 -4.085938 2.234375 -3.578125 C 2.234375 -2.828125 2.5 -2.203125 3.03125 -1.703125 C 3.570312 -1.203125 4.285156 -0.953125 5.171875 -0.953125 Z M 5.171875 -0.953125 "/></g></g></g></g></g><g transform="matrix(1, 0, 0, 1, 631, 151)"><g clip-path="url(#67c704fed7)"><g fill="#201f1f" fill-opacity="1"><g transform="translate(0.80132, 19.888671)"><g><path d="M 5.296875 -13.609375 C 6.054688 -13.609375 6.710938 -13.472656 7.265625 -13.203125 C 7.816406 -12.941406 8.269531 -12.582031 8.625 -12.125 C 8.988281 -11.675781 9.257812 -11.160156 9.4375 -10.578125 C 9.613281 -10.003906 9.703125 -9.421875 9.703125 -8.828125 C 9.703125 -8.210938 9.617188 -7.554688 9.453125 -6.859375 C 9.296875 -6.160156 9.0625 -5.457031 8.75 -4.75 C 8.4375 -4.039062 8.046875 -3.367188 7.578125 -2.734375 C 7.117188 -2.097656 6.578125 -1.523438 5.953125 -1.015625 C 5.328125 -0.503906 4.628906 -0.109375 3.859375 0.171875 C 3.765625 0.191406 3.6875 0.203125 3.625 0.203125 C 3.46875 0.203125 3.328125 0.148438 3.203125 0.046875 C 3.085938 -0.0546875 3.03125 -0.203125 3.03125 -0.390625 C 3.03125 -0.515625 3.066406 -0.625 3.140625 -0.71875 C 3.210938 -0.8125 3.328125 -0.882812 3.484375 -0.9375 C 4.210938 -1.238281 4.914062 -1.691406 5.59375 -2.296875 C 6.269531 -2.910156 6.851562 -3.613281 7.34375 -4.40625 C 7.832031 -5.207031 8.160156 -6.035156 8.328125 -6.890625 L 8.734375 -7.140625 C 8.515625 -6.734375 8.21875 -6.363281 7.84375 -6.03125 C 7.476562 -5.695312 7.0625 -5.4375 6.59375 -5.25 C 6.125 -5.070312 5.617188 -4.984375 5.078125 -4.984375 C 4.253906 -4.984375 3.546875 -5.179688 2.953125 -5.578125 C 2.359375 -5.984375 1.898438 -6.515625 1.578125 -7.171875 C 1.265625 -7.835938 1.109375 -8.554688 1.109375 -9.328125 C 1.109375 -10.078125 1.289062 -10.773438 1.65625 -11.421875 C 2.019531 -12.078125 2.515625 -12.601562 3.140625 -13 C 3.773438 -13.40625 4.492188 -13.609375 5.296875 -13.609375 Z M 5.34375 -12.5 C 4.738281 -12.5 4.207031 -12.363281 3.75 -12.09375 C 3.289062 -11.820312 2.929688 -11.445312 2.671875 -10.96875 C 2.410156 -10.5 2.28125 -9.953125 2.28125 -9.328125 C 2.28125 -8.765625 2.390625 -8.234375 2.609375 -7.734375 C 2.835938 -7.234375 3.171875 -6.832031 3.609375 -6.53125 C 4.054688 -6.238281 4.601562 -6.09375 5.25 -6.09375 C 5.9375 -6.09375 6.519531 -6.238281 7 -6.53125 C 7.488281 -6.832031 7.863281 -7.234375 8.125 -7.734375 C 8.394531 -8.234375 8.53125 -8.78125 8.53125 -9.375 C 8.53125 -9.925781 8.398438 -10.4375 8.140625 -10.90625 C 7.890625 -11.382812 7.53125 -11.769531 7.0625 -12.0625 C 6.59375 -12.351562 6.019531 -12.5 5.34375 -12.5 Z M 5.34375 -12.5 "/></g></g></g></g></g><g transform="matrix(1, 0, 0, 1, 757, 151)"><g clip-path="url(#b575128845)"><g fill="#201f1f" fill-opacity="1"><g transform="translate(0.620259, 19.888671)"><g><path d="M 4.328125 0 C 4.148438 0 4.003906 -0.0546875 3.890625 -0.171875 C 3.773438 -0.285156 3.71875 -0.421875 3.71875 -0.578125 L 3.71875 -12.09375 L 3.921875 -11.90625 L 1.375 -10.203125 C 1.269531 -10.128906 1.160156 -10.09375 1.046875 -10.09375 C 0.898438 -10.09375 0.765625 -10.15625 0.640625 -10.28125 C 0.515625 -10.40625 0.453125 -10.546875 0.453125 -10.703125 C 0.453125 -10.898438 0.554688 -11.054688 0.765625 -11.171875 L 3.96875 -13.296875 C 4.039062 -13.347656 4.117188 -13.378906 4.203125 -13.390625 C 4.285156 -13.410156 4.359375 -13.414062 4.421875 -13.40625 C 4.585938 -13.382812 4.710938 -13.316406 4.796875 -13.203125 C 4.890625 -13.097656 4.9375 -12.972656 4.9375 -12.828125 L 4.9375 -0.578125 C 4.9375 -0.421875 4.878906 -0.285156 4.765625 -0.171875 C 4.648438 -0.0546875 4.503906 0 4.328125 0 Z M 4.328125 0 "/></g></g></g><g fill="#201f1f" fill-opacity="1"><g transform="translate(7.700339, 19.888671)"><g><path d="M 5.6875 0.1875 C 4.664062 0.1875 3.8125 -0.113281 3.125 -0.71875 C 2.4375 -1.332031 1.914062 -2.160156 1.5625 -3.203125 C 1.21875 -4.242188 1.046875 -5.410156 1.046875 -6.703125 C 1.046875 -8.003906 1.21875 -9.171875 1.5625 -10.203125 C 1.914062 -11.242188 2.4375 -12.066406 3.125 -12.671875 C 3.8125 -13.285156 4.664062 -13.59375 5.6875 -13.59375 C 6.726562 -13.59375 7.585938 -13.285156 8.265625 -12.671875 C 8.953125 -12.066406 9.46875 -11.242188 9.8125 -10.203125 C 10.164062 -9.171875 10.34375 -8.003906 10.34375 -6.703125 C 10.34375 -5.410156 10.164062 -4.242188 9.8125 -3.203125 C 9.46875 -2.160156 8.953125 -1.332031 8.265625 -0.71875 C 7.585938 -0.113281 6.726562 0.1875 5.6875 0.1875 Z M 5.6875 -1 C 6.4375 -1 7.0625 -1.234375 7.5625 -1.703125 C 8.070312 -2.171875 8.457031 -2.835938 8.71875 -3.703125 C 8.976562 -4.566406 9.109375 -5.566406 9.109375 -6.703125 C 9.109375 -7.847656 8.976562 -8.847656 8.71875 -9.703125 C 8.457031 -10.566406 8.070312 -11.234375 7.5625 -11.703125 C 7.0625 -12.179688 6.4375 -12.421875 5.6875 -12.421875 C 4.945312 -12.421875 4.320312 -12.179688 3.8125 -11.703125 C 3.3125 -11.234375 2.929688 -10.566406 2.671875 -9.703125 C 2.410156 -8.847656 2.28125 -7.847656 2.28125 -6.703125 C 2.28125 -5.566406 2.410156 -4.566406 2.671875 -3.703125 C 2.929688 -2.835938 3.3125 -2.171875 3.8125 -1.703125 C 4.320312 -1.234375 4.945312 -1 5.6875 -1 Z M 5.6875 -1 "/></g></g></g></g></g><g transform="matrix(1, 0, 0, 1, 2, 301)"><g clip-path="url(#0cd58e3616)"><g fill="#201f1f" fill-opacity="1"><g transform="translate(0.706568, 19.647302)"><g><path d="M 4.328125 0 C 4.148438 0 4.003906 -0.0546875 3.890625 -0.171875 C 3.773438 -0.285156 3.71875 -0.421875 3.71875 -0.578125 L 3.71875 -12.09375 L 3.921875 -11.90625 L 1.375 -10.203125 C 1.269531 -10.128906 1.160156 -10.09375 1.046875 -10.09375 C 0.898438 -10.09375 0.765625 -10.15625 0.640625 -10.28125 C 0.515625 -10.40625 0.453125 -10.546875 0.453125 -10.703125 C 0.453125 -10.898438 0.554688 -11.054688 0.765625 -11.171875 L 3.96875 -13.296875 C 4.039062 -13.347656 4.117188 -13.378906 4.203125 -13.390625 C 4.285156 -13.410156 4.359375 -13.414062 4.421875 -13.40625 C 4.585938 -13.382812 4.710938 -13.316406 4.796875 -13.203125 C 4.890625 -13.097656 4.9375 -12.972656 4.9375 -12.828125 L 4.9375 -0.578125 C 4.9375 -0.421875 4.878906 -0.285156 4.765625 -0.171875 C 4.648438 -0.0546875 4.503906 0 4.328125 0 Z M 4.328125 0 "/></g></g></g><g fill="#201f1f" fill-opacity="1"><g transform="translate(7.786648, 19.647302)"><g><path d="M 4.328125 0 C 4.148438 0 4.003906 -0.0546875 3.890625 -0.171875 C 3.773438 -0.285156 3.71875 -0.421875 3.71875 -0.578125 L 3.71875 -12.09375 L 3.921875 -11.90625 L 1.375 -10.203125 C 1.269531 -10.128906 1.160156 -10.09375 1.046875 -10.09375 C 0.898438 -10.09375 0.765625 -10.15625 0.640625 -10.28125 C 0.515625 -10.40625 0.453125 -10.546875 0.453125 -10.703125 C 0.453125 -10.898438 0.554688 -11.054688 0.765625 -11.171875 L 3.96875 -13.296875 C 4.039062 -13.347656 4.117188 -13.378906 4.203125 -13.390625 C 4.285156 -13.410156 4.359375 -13.414062 4.421875 -13.40625 C 4.585938 -13.382812 4.710938 -13.316406 4.796875 -13.203125 C 4.890625 -13.097656 4.9375 -12.972656 4.9375 -12.828125 L 4.9375 -0.578125 C 4.9375 -0.421875 4.878906 -0.285156 4.765625 -0.171875 C 4.648438 -0.0546875 4.503906 0 4.328125 0 Z M 4.328125 0 "/></g></g></g></g></g><g transform="matrix(1, 0, 0, 1, 128, 301)"><g clip-path="url(#4a98b48eae)"><g clip-path="url(#a326e5ce46)"><g fill="#201f1f" fill-opacity="1"><g transform="translate(0.525519, 19.647302)"><g><path d="M 4.328125 0 C 4.148438 0 4.003906 -0.0546875 3.890625 -0.171875 C 3.773438 -0.285156 3.71875 -0.421875 3.71875 -0.578125 L 3.71875 -12.09375 L 3.921875 -11.90625 L 1.375 -10.203125 C 1.269531 -10.128906 1.160156 -10.09375 1.046875 -10.09375 C 0.898438 -10.09375 0.765625 -10.15625 0.640625 -10.28125 C 0.515625 -10.40625 0.453125 -10.546875 0.453125 -10.703125 C 0.453125 -10.898438 0.554688 -11.054688 0.765625 -11.171875 L 3.96875 -13.296875 C 4.039062 -13.347656 4.117188 -13.378906 4.203125 -13.390625 C 4.285156 -13.410156 4.359375 -13.414062 4.421875 -13.40625 C 4.585938 -13.382812 4.710938 -13.316406 4.796875 -13.203125 C 4.890625 -13.097656 4.9375 -12.972656 4.9375 -12.828125 L 4.9375 -0.578125 C 4.9375 -0.421875 4.878906 -0.285156 4.765625 -0.171875 C 4.648438 -0.0546875 4.503906 0 4.328125 0 Z M 4.328125 0 "/></g></g></g></g><g fill="#201f1f" fill-opacity="1"><g transform="translate(7.6056, 19.647302)"><g><path d="M 9.078125 -1.109375 C 9.222656 -1.109375 9.347656 -1.050781 9.453125 -0.9375 C 9.566406 -0.832031 9.625 -0.707031 9.625 -0.5625 C 9.625 -0.394531 9.566406 -0.257812 9.453125 -0.15625 C 9.347656 -0.0507812 9.222656 0 9.078125 0 L 1.890625 0 C 1.722656 0 1.578125 -0.046875 1.453125 -0.140625 C 1.335938 -0.234375 1.28125 -0.378906 1.28125 -0.578125 C 1.28125 -0.710938 1.332031 -0.84375 1.4375 -0.96875 L 5.859375 -5.859375 C 6.554688 -6.617188 7.082031 -7.320312 7.4375 -7.96875 C 7.789062 -8.613281 7.96875 -9.191406 7.96875 -9.703125 C 7.96875 -10.546875 7.710938 -11.222656 7.203125 -11.734375 C 6.691406 -12.242188 6 -12.5 5.125 -12.5 C 4.726562 -12.5 4.335938 -12.414062 3.953125 -12.25 C 3.566406 -12.082031 3.222656 -11.863281 2.921875 -11.59375 C 2.617188 -11.332031 2.382812 -11.03125 2.21875 -10.6875 C 2.144531 -10.550781 2.066406 -10.457031 1.984375 -10.40625 C 1.898438 -10.363281 1.804688 -10.34375 1.703125 -10.34375 C 1.546875 -10.34375 1.410156 -10.390625 1.296875 -10.484375 C 1.179688 -10.578125 1.125 -10.691406 1.125 -10.828125 C 1.125 -10.921875 1.144531 -11.007812 1.1875 -11.09375 C 1.238281 -11.1875 1.304688 -11.289062 1.390625 -11.40625 C 1.617188 -11.800781 1.9375 -12.164062 2.34375 -12.5 C 2.757812 -12.832031 3.21875 -13.097656 3.71875 -13.296875 C 4.226562 -13.492188 4.722656 -13.59375 5.203125 -13.59375 C 6.023438 -13.59375 6.734375 -13.4375 7.328125 -13.125 C 7.921875 -12.8125 8.378906 -12.367188 8.703125 -11.796875 C 9.023438 -11.234375 9.1875 -10.5625 9.1875 -9.78125 C 9.1875 -9.113281 8.976562 -8.390625 8.5625 -7.609375 C 8.144531 -6.828125 7.53125 -5.984375 6.71875 -5.078125 L 2.984375 -0.875 L 2.796875 -1.109375 Z M 9.078125 -1.109375 "/></g></g></g></g></g><g transform="matrix(1, 0, 0, 1, 254, 301)"><g clip-path="url(#eec7924022)"><g clip-path="url(#1be5ad1aa4)"><g fill="#201f1f" fill-opacity="1"><g transform="translate(0.344473, 19.647302)"><g><path d="M 4.328125 0 C 4.148438 0 4.003906 -0.0546875 3.890625 -0.171875 C 3.773438 -0.285156 3.71875 -0.421875 3.71875 -0.578125 L 3.71875 -12.09375 L 3.921875 -11.90625 L 1.375 -10.203125 C 1.269531 -10.128906 1.160156 -10.09375 1.046875 -10.09375 C 0.898438 -10.09375 0.765625 -10.15625 0.640625 -10.28125 C 0.515625 -10.40625 0.453125 -10.546875 0.453125 -10.703125 C 0.453125 -10.898438 0.554688 -11.054688 0.765625 -11.171875 L 3.96875 -13.296875 C 4.039062 -13.347656 4.117188 -13.378906 4.203125 -13.390625 C 4.285156 -13.410156 4.359375 -13.414062 4.421875 -13.40625 C 4.585938 -13.382812 4.710938 -13.316406 4.796875 -13.203125 C 4.890625 -13.097656 4.9375 -12.972656 4.9375 -12.828125 L 4.9375 -0.578125 C 4.9375 -0.421875 4.878906 -0.285156 4.765625 -0.171875 C 4.648438 -0.0546875 4.503906 0 4.328125 0 Z M 4.328125 0 "/></g></g></g></g><g fill="#201f1f" fill-opacity="1"><g transform="translate(7.424553, 19.647302)"><g><path d="M 1.703125 -1.96875 C 1.765625 -1.96875 1.832031 -1.953125 1.90625 -1.921875 C 1.976562 -1.898438 2.0625 -1.847656 2.15625 -1.765625 C 2.425781 -1.484375 2.742188 -1.269531 3.109375 -1.125 C 3.484375 -0.976562 3.910156 -0.90625 4.390625 -0.90625 C 5.015625 -0.90625 5.582031 -1.039062 6.09375 -1.3125 C 6.613281 -1.59375 7.023438 -1.984375 7.328125 -2.484375 C 7.640625 -2.992188 7.796875 -3.578125 7.796875 -4.234375 C 7.796875 -4.972656 7.628906 -5.566406 7.296875 -6.015625 C 6.972656 -6.472656 6.554688 -6.8125 6.046875 -7.03125 C 5.546875 -7.257812 5.035156 -7.375 4.515625 -7.375 C 4.378906 -7.375 4.242188 -7.363281 4.109375 -7.34375 C 3.972656 -7.320312 3.847656 -7.296875 3.734375 -7.265625 C 3.617188 -7.242188 3.53125 -7.234375 3.46875 -7.234375 C 3.300781 -7.234375 3.171875 -7.285156 3.078125 -7.390625 C 2.992188 -7.503906 2.953125 -7.644531 2.953125 -7.8125 C 2.953125 -7.894531 2.96875 -7.972656 3 -8.046875 C 3.039062 -8.117188 3.09375 -8.195312 3.15625 -8.28125 L 7.046875 -12.515625 L 7.28125 -12.21875 L 1.46875 -12.21875 C 1.320312 -12.21875 1.191406 -12.269531 1.078125 -12.375 C 0.972656 -12.476562 0.921875 -12.609375 0.921875 -12.765625 C 0.921875 -12.921875 0.972656 -13.046875 1.078125 -13.140625 C 1.191406 -13.242188 1.320312 -13.296875 1.46875 -13.296875 L 7.90625 -13.296875 C 8.125 -13.296875 8.273438 -13.226562 8.359375 -13.09375 C 8.453125 -12.96875 8.5 -12.835938 8.5 -12.703125 C 8.5 -12.628906 8.476562 -12.554688 8.4375 -12.484375 C 8.40625 -12.421875 8.351562 -12.347656 8.28125 -12.265625 L 4.40625 -8.046875 L 3.984375 -8.28125 C 4.015625 -8.320312 4.140625 -8.363281 4.359375 -8.40625 C 4.585938 -8.457031 4.769531 -8.484375 4.90625 -8.484375 C 5.601562 -8.484375 6.257812 -8.316406 6.875 -7.984375 C 7.5 -7.648438 8.003906 -7.171875 8.390625 -6.546875 C 8.785156 -5.929688 8.984375 -5.171875 8.984375 -4.265625 C 8.984375 -3.367188 8.769531 -2.585938 8.34375 -1.921875 C 7.925781 -1.253906 7.359375 -0.734375 6.640625 -0.359375 C 5.921875 0.00390625 5.128906 0.1875 4.265625 0.1875 C 3.742188 0.1875 3.226562 0.0976562 2.71875 -0.078125 C 2.207031 -0.253906 1.757812 -0.519531 1.375 -0.875 C 1.289062 -0.957031 1.226562 -1.035156 1.1875 -1.109375 C 1.144531 -1.179688 1.125 -1.257812 1.125 -1.34375 C 1.125 -1.488281 1.175781 -1.628906 1.28125 -1.765625 C 1.394531 -1.898438 1.535156 -1.96875 1.703125 -1.96875 Z M 1.703125 -1.96875 "/></g></g></g></g></g><g transform="matrix(1, 0, 0, 1, 380, 301)"><g clip-path="url(#2819153689)"><g clip-path="url(#16921a50fc)"><g fill="#201f1f" fill-opacity="1"><g transform="translate(0.163412, 19.647302)"><g><path d="M 4.328125 0 C 4.148438 0 4.003906 -0.0546875 3.890625 -0.171875 C 3.773438 -0.285156 3.71875 -0.421875 3.71875 -0.578125 L 3.71875 -12.09375 L 3.921875 -11.90625 L 1.375 -10.203125 C 1.269531 -10.128906 1.160156 -10.09375 1.046875 -10.09375 C 0.898438 -10.09375 0.765625 -10.15625 0.640625 -10.28125 C 0.515625 -10.40625 0.453125 -10.546875 0.453125 -10.703125 C 0.453125 -10.898438 0.554688 -11.054688 0.765625 -11.171875 L 3.96875 -13.296875 C 4.039062 -13.347656 4.117188 -13.378906 4.203125 -13.390625 C 4.285156 -13.410156 4.359375 -13.414062 4.421875 -13.40625 C 4.585938 -13.382812 4.710938 -13.316406 4.796875 -13.203125 C 4.890625 -13.097656 4.9375 -12.972656 4.9375 -12.828125 L 4.9375 -0.578125 C 4.9375 -0.421875 4.878906 -0.285156 4.765625 -0.171875 C 4.648438 -0.0546875 4.503906 0 4.328125 0 Z M 4.328125 0 "/></g></g></g></g><g fill="#201f1f" fill-opacity="1"><g transform="translate(7.243493, 19.647302)"><g><path d="M 7.03125 0 C 6.863281 0 6.726562 -0.0546875 6.625 -0.171875 C 6.519531 -0.285156 6.46875 -0.421875 6.46875 -0.578125 L 6.46875 -11.8125 L 6.71875 -11.65625 L 1.6875 -5 L 1.625 -5.203125 L 8.984375 -5.203125 C 9.128906 -5.203125 9.253906 -5.148438 9.359375 -5.046875 C 9.472656 -4.953125 9.53125 -4.828125 9.53125 -4.671875 C 9.53125 -4.515625 9.472656 -4.382812 9.359375 -4.28125 C 9.253906 -4.1875 9.128906 -4.140625 8.984375 -4.140625 L 0.84375 -4.140625 C 0.6875 -4.140625 0.550781 -4.195312 0.4375 -4.3125 C 0.320312 -4.4375 0.265625 -4.578125 0.265625 -4.734375 C 0.265625 -4.867188 0.3125 -4.992188 0.40625 -5.109375 L 6.5625 -13.171875 C 6.625 -13.253906 6.703125 -13.3125 6.796875 -13.34375 C 6.898438 -13.382812 6.984375 -13.40625 7.046875 -13.40625 C 7.210938 -13.40625 7.347656 -13.34375 7.453125 -13.21875 C 7.566406 -13.101562 7.625 -12.972656 7.625 -12.828125 L 7.625 -0.578125 C 7.625 -0.421875 7.566406 -0.285156 7.453125 -0.171875 C 7.335938 -0.0546875 7.195312 0 7.03125 0 Z M 7.03125 0 "/></g></g></g></g></g><g transform="matrix(1, 0, 0, 1, 505, 301)"><g clip-path="url(#591f223daf)"><g fill="#201f1f" fill-opacity="1"><g transform="translate(0.982381, 19.647302)"><g><path d="M 4.328125 0 C 4.148438 0 4.003906 -0.0546875 3.890625 -0.171875 C 3.773438 -0.285156 3.71875 -0.421875 3.71875 -0.578125 L 3.71875 -12.09375 L 3.921875 -11.90625 L 1.375 -10.203125 C 1.269531 -10.128906 1.160156 -10.09375 1.046875 -10.09375 C 0.898438 -10.09375 0.765625 -10.15625 0.640625 -10.28125 C 0.515625 -10.40625 0.453125 -10.546875 0.453125 -10.703125 C 0.453125 -10.898438 0.554688 -11.054688 0.765625 -11.171875 L 3.96875 -13.296875 C 4.039062 -13.347656 4.117188 -13.378906 4.203125 -13.390625 C 4.285156 -13.410156 4.359375 -13.414062 4.421875 -13.40625 C 4.585938 -13.382812 4.710938 -13.316406 4.796875 -13.203125 C 4.890625 -13.097656 4.9375 -12.972656 4.9375 -12.828125 L 4.9375 -0.578125 C 4.9375 -0.421875 4.878906 -0.285156 4.765625 -0.171875 C 4.648438 -0.0546875 4.503906 0 4.328125 0 Z M 4.328125 0 "/></g></g></g><g fill="#201f1f" fill-opacity="1"><g transform="translate(8.062461, 19.647302)"><g><path d="M 4.484375 0.03125 C 3.953125 0.03125 3.421875 -0.0507812 2.890625 -0.21875 C 2.367188 -0.394531 1.90625 -0.65625 1.5 -1 C 1.414062 -1.0625 1.351562 -1.132812 1.3125 -1.21875 C 1.269531 -1.3125 1.25 -1.40625 1.25 -1.5 C 1.25 -1.625 1.296875 -1.742188 1.390625 -1.859375 C 1.492188 -1.984375 1.628906 -2.046875 1.796875 -2.046875 C 1.941406 -2.046875 2.082031 -1.988281 2.21875 -1.875 C 2.550781 -1.625 2.910156 -1.425781 3.296875 -1.28125 C 3.691406 -1.144531 4.085938 -1.078125 4.484375 -1.078125 C 5.234375 -1.078125 5.890625 -1.21875 6.453125 -1.5 C 7.015625 -1.789062 7.445312 -2.195312 7.75 -2.71875 C 8.0625 -3.25 8.21875 -3.867188 8.21875 -4.578125 C 8.21875 -5.222656 8.078125 -5.785156 7.796875 -6.265625 C 7.515625 -6.742188 7.113281 -7.117188 6.59375 -7.390625 C 6.070312 -7.671875 5.460938 -7.8125 4.765625 -7.8125 C 4.304688 -7.8125 3.890625 -7.738281 3.515625 -7.59375 C 3.140625 -7.457031 2.8125 -7.316406 2.53125 -7.171875 C 2.257812 -7.023438 2.039062 -6.953125 1.875 -6.953125 C 1.71875 -6.953125 1.59375 -6.988281 1.5 -7.0625 C 1.40625 -7.132812 1.34375 -7.226562 1.3125 -7.34375 C 1.28125 -7.457031 1.273438 -7.582031 1.296875 -7.71875 L 2.125 -12.828125 C 2.132812 -12.941406 2.191406 -13.046875 2.296875 -13.140625 C 2.410156 -13.234375 2.550781 -13.28125 2.71875 -13.28125 L 8.484375 -13.28125 C 8.628906 -13.28125 8.753906 -13.222656 8.859375 -13.109375 C 8.972656 -13.003906 9.03125 -12.878906 9.03125 -12.734375 C 9.03125 -12.566406 8.972656 -12.425781 8.859375 -12.3125 C 8.753906 -12.207031 8.628906 -12.15625 8.484375 -12.15625 L 2.984375 -12.15625 L 3.15625 -12.328125 L 2.375 -7.796875 L 2.03125 -8.046875 C 2.195312 -8.171875 2.4375 -8.296875 2.75 -8.421875 C 3.0625 -8.546875 3.410156 -8.65625 3.796875 -8.75 C 4.191406 -8.851562 4.601562 -8.90625 5.03125 -8.90625 C 5.863281 -8.90625 6.601562 -8.722656 7.25 -8.359375 C 7.90625 -7.992188 8.421875 -7.488281 8.796875 -6.84375 C 9.171875 -6.195312 9.359375 -5.453125 9.359375 -4.609375 C 9.359375 -3.679688 9.15625 -2.867188 8.75 -2.171875 C 8.351562 -1.472656 7.789062 -0.929688 7.0625 -0.546875 C 6.332031 -0.160156 5.472656 0.03125 4.484375 0.03125 Z M 4.484375 0.03125 "/></g></g></g></g></g><g transform="matrix(1, 0, 0, 1, 631, 301)"><g clip-path="url(#77a9742161)"><g fill="#201f1f" fill-opacity="1"><g transform="translate(0.80132, 19.647302)"><g><path d="M 4.328125 0 C 4.148438 0 4.003906 -0.0546875 3.890625 -0.171875 C 3.773438 -0.285156 3.71875 -0.421875 3.71875 -0.578125 L 3.71875 -12.09375 L 3.921875 -11.90625 L 1.375 -10.203125 C 1.269531 -10.128906 1.160156 -10.09375 1.046875 -10.09375 C 0.898438 -10.09375 0.765625 -10.15625 0.640625 -10.28125 C 0.515625 -10.40625 0.453125 -10.546875 0.453125 -10.703125 C 0.453125 -10.898438 0.554688 -11.054688 0.765625 -11.171875 L 3.96875 -13.296875 C 4.039062 -13.347656 4.117188 -13.378906 4.203125 -13.390625 C 4.285156 -13.410156 4.359375 -13.414062 4.421875 -13.40625 C 4.585938 -13.382812 4.710938 -13.316406 4.796875 -13.203125 C 4.890625 -13.097656 4.9375 -12.972656 4.9375 -12.828125 L 4.9375 -0.578125 C 4.9375 -0.421875 4.878906 -0.285156 4.765625 -0.171875 C 4.648438 -0.0546875 4.503906 0 4.328125 0 Z M 4.328125 0 "/></g></g></g><g fill="#201f1f" fill-opacity="1"><g transform="translate(7.8814, 19.647302)"><g><path d="M 5.5 0.1875 C 4.757812 0.1875 4.109375 0.0546875 3.546875 -0.203125 C 2.992188 -0.472656 2.535156 -0.832031 2.171875 -1.28125 C 1.804688 -1.738281 1.535156 -2.253906 1.359375 -2.828125 C 1.191406 -3.398438 1.109375 -3.988281 1.109375 -4.59375 C 1.109375 -5.207031 1.179688 -5.867188 1.328125 -6.578125 C 1.484375 -7.285156 1.722656 -8 2.046875 -8.71875 C 2.367188 -9.445312 2.757812 -10.132812 3.21875 -10.78125 C 3.6875 -11.4375 4.226562 -12.023438 4.84375 -12.546875 C 5.46875 -13.066406 6.171875 -13.472656 6.953125 -13.765625 C 7.035156 -13.785156 7.109375 -13.796875 7.171875 -13.796875 C 7.335938 -13.796875 7.484375 -13.75 7.609375 -13.65625 C 7.734375 -13.570312 7.796875 -13.421875 7.796875 -13.203125 C 7.796875 -13.078125 7.753906 -12.96875 7.671875 -12.875 C 7.585938 -12.78125 7.472656 -12.707031 7.328125 -12.65625 C 6.796875 -12.425781 6.265625 -12.097656 5.734375 -11.671875 C 5.210938 -11.253906 4.726562 -10.769531 4.28125 -10.21875 C 3.84375 -9.664062 3.46875 -9.070312 3.15625 -8.4375 C 2.84375 -7.8125 2.617188 -7.175781 2.484375 -6.53125 L 2.0625 -6.28125 C 2.289062 -6.695312 2.585938 -7.066406 2.953125 -7.390625 C 3.316406 -7.722656 3.734375 -7.988281 4.203125 -8.1875 C 4.679688 -8.382812 5.195312 -8.484375 5.75 -8.484375 C 6.320312 -8.484375 6.847656 -8.359375 7.328125 -8.109375 C 7.816406 -7.867188 8.234375 -7.539062 8.578125 -7.125 C 8.929688 -6.71875 9.207031 -6.25 9.40625 -5.71875 C 9.601562 -5.195312 9.703125 -4.65625 9.703125 -4.09375 C 9.703125 -3.34375 9.519531 -2.640625 9.15625 -1.984375 C 8.789062 -1.335938 8.289062 -0.8125 7.65625 -0.40625 C 7.03125 -0.0078125 6.3125 0.1875 5.5 0.1875 Z M 5.46875 -0.921875 C 6.0625 -0.921875 6.585938 -1.050781 7.046875 -1.3125 C 7.503906 -1.582031 7.863281 -1.957031 8.125 -2.4375 C 8.382812 -2.914062 8.515625 -3.46875 8.515625 -4.09375 C 8.515625 -4.664062 8.398438 -5.195312 8.171875 -5.6875 C 7.953125 -6.1875 7.625 -6.59375 7.1875 -6.90625 C 6.75 -7.21875 6.203125 -7.375 5.546875 -7.375 C 4.867188 -7.375 4.285156 -7.21875 3.796875 -6.90625 C 3.304688 -6.601562 2.929688 -6.195312 2.671875 -5.6875 C 2.410156 -5.1875 2.28125 -4.632812 2.28125 -4.03125 C 2.28125 -3.5 2.40625 -2.992188 2.65625 -2.515625 C 2.914062 -2.035156 3.285156 -1.648438 3.765625 -1.359375 C 4.242188 -1.066406 4.8125 -0.921875 5.46875 -0.921875 Z M 5.46875 -0.921875 "/></g></g></g></g></g><g transform="matrix(1, 0, 0, 1, 757, 301)"><g clip-path="url(#cdf31bd450)"><g fill="#201f1f" fill-opacity="1"><g transform="translate(0.620259, 19.647302)"><g><path d="M 4.328125 0 C 4.148438 0 4.003906 -0.0546875 3.890625 -0.171875 C 3.773438 -0.285156 3.71875 -0.421875 3.71875 -0.578125 L 3.71875 -12.09375 L 3.921875 -11.90625 L 1.375 -10.203125 C 1.269531 -10.128906 1.160156 -10.09375 1.046875 -10.09375 C 0.898438 -10.09375 0.765625 -10.15625 0.640625 -10.28125 C 0.515625 -10.40625 0.453125 -10.546875 0.453125 -10.703125 C 0.453125 -10.898438 0.554688 -11.054688 0.765625 -11.171875 L 3.96875 -13.296875 C 4.039062 -13.347656 4.117188 -13.378906 4.203125 -13.390625 C 4.285156 -13.410156 4.359375 -13.414062 4.421875 -13.40625 C 4.585938 -13.382812 4.710938 -13.316406 4.796875 -13.203125 C 4.890625 -13.097656 4.9375 -12.972656 4.9375 -12.828125 L 4.9375 -0.578125 C 4.9375 -0.421875 4.878906 -0.285156 4.765625 -0.171875 C 4.648438 -0.0546875 4.503906 0 4.328125 0 Z M 4.328125 0 "/></g></g></g><g fill="#201f1f" fill-opacity="1"><g transform="translate(7.700339, 19.647302)"><g><path d="M 3.40625 0.0625 C 3.25 0.0625 3.109375 0.0078125 2.984375 -0.09375 C 2.859375 -0.195312 2.796875 -0.328125 2.796875 -0.484375 C 2.796875 -0.566406 2.816406 -0.660156 2.859375 -0.765625 L 7.9375 -12.453125 L 8.15625 -12.1875 L 1.6875 -12.1875 C 1.53125 -12.1875 1.394531 -12.238281 1.28125 -12.34375 C 1.175781 -12.457031 1.125 -12.59375 1.125 -12.75 C 1.125 -12.914062 1.175781 -13.046875 1.28125 -13.140625 C 1.394531 -13.242188 1.53125 -13.296875 1.6875 -13.296875 L 8.703125 -13.296875 C 8.898438 -13.296875 9.039062 -13.242188 9.125 -13.140625 C 9.21875 -13.046875 9.265625 -12.921875 9.265625 -12.765625 C 9.265625 -12.660156 9.242188 -12.566406 9.203125 -12.484375 L 3.9375 -0.328125 C 3.90625 -0.210938 3.835938 -0.117188 3.734375 -0.046875 C 3.628906 0.0234375 3.519531 0.0625 3.40625 0.0625 Z M 3.40625 0.0625 "/></g></g></g></g></g><g clip-path="url(#e1e000e84e)"><g transform="matrix(1, 0, 0, 1, 2, 450)"><g clip-path="url(#ad14616a3e)"><g fill="#201f1f" fill-opacity="1"><g transform="translate(0.706568, 20.406123)"><g><path d="M 4.328125 0 C 4.148438 0 4.003906 -0.0546875 3.890625 -0.171875 C 3.773438 -0.285156 3.71875 -0.421875 3.71875 -0.578125 L 3.71875 -12.09375 L 3.921875 -11.90625 L 1.375 -10.203125 C 1.269531 -10.128906 1.160156 -10.09375 1.046875 -10.09375 C 0.898438 -10.09375 0.765625 -10.15625 0.640625 -10.28125 C 0.515625 -10.40625 0.453125 -10.546875 0.453125 -10.703125 C 0.453125 -10.898438 0.554688 -11.054688 0.765625 -11.171875 L 3.96875 -13.296875 C 4.039062 -13.347656 4.117188 -13.378906 4.203125 -13.390625 C 4.285156 -13.410156 4.359375 -13.414062 4.421875 -13.40625 C 4.585938 -13.382812 4.710938 -13.316406 4.796875 -13.203125 C 4.890625 -13.097656 4.9375 -12.972656 4.9375 -12.828125 L 4.9375 -0.578125 C 4.9375 -0.421875 4.878906 -0.285156 4.765625 -0.171875 C 4.648438 -0.0546875 4.503906 0 4.328125 0 Z M 4.328125 0 "/></g></g></g><g fill="#201f1f" fill-opacity="1"><g transform="translate(7.786648, 20.406123)"><g><path d="M 6.96875 -6.734375 L 6.90625 -6.90625 C 7.34375 -6.738281 7.738281 -6.492188 8.09375 -6.171875 C 8.445312 -5.847656 8.734375 -5.460938 8.953125 -5.015625 C 9.171875 -4.578125 9.28125 -4.097656 9.28125 -3.578125 C 9.28125 -2.890625 9.097656 -2.265625 8.734375 -1.703125 C 8.367188 -1.140625 7.875 -0.691406 7.25 -0.359375 C 6.625 -0.0234375 5.929688 0.140625 5.171875 0.140625 C 4.390625 0.140625 3.6875 -0.0234375 3.0625 -0.359375 C 2.445312 -0.691406 1.957031 -1.140625 1.59375 -1.703125 C 1.226562 -2.265625 1.046875 -2.890625 1.046875 -3.578125 C 1.046875 -4.140625 1.15625 -4.640625 1.375 -5.078125 C 1.601562 -5.523438 1.898438 -5.898438 2.265625 -6.203125 C 2.628906 -6.503906 3.007812 -6.738281 3.40625 -6.90625 L 3.34375 -6.71875 C 3 -6.882812 2.675781 -7.109375 2.375 -7.390625 C 2.082031 -7.679688 1.835938 -8.023438 1.640625 -8.421875 C 1.453125 -8.828125 1.359375 -9.273438 1.359375 -9.765625 C 1.359375 -10.453125 1.523438 -11.066406 1.859375 -11.609375 C 2.203125 -12.160156 2.660156 -12.597656 3.234375 -12.921875 C 3.816406 -13.242188 4.460938 -13.40625 5.171875 -13.40625 C 5.867188 -13.40625 6.5 -13.242188 7.0625 -12.921875 C 7.632812 -12.597656 8.085938 -12.160156 8.421875 -11.609375 C 8.765625 -11.066406 8.9375 -10.453125 8.9375 -9.765625 C 8.9375 -9.265625 8.835938 -8.816406 8.640625 -8.421875 C 8.453125 -8.023438 8.207031 -7.679688 7.90625 -7.390625 C 7.601562 -7.109375 7.289062 -6.890625 6.96875 -6.734375 Z M 2.546875 -9.765625 C 2.546875 -9.253906 2.664062 -8.804688 2.90625 -8.421875 C 3.144531 -8.035156 3.460938 -7.734375 3.859375 -7.515625 C 4.253906 -7.304688 4.691406 -7.203125 5.171875 -7.203125 C 5.628906 -7.203125 6.054688 -7.304688 6.453125 -7.515625 C 6.847656 -7.734375 7.160156 -8.035156 7.390625 -8.421875 C 7.628906 -8.804688 7.75 -9.253906 7.75 -9.765625 C 7.75 -10.515625 7.503906 -11.125 7.015625 -11.59375 C 6.535156 -12.070312 5.921875 -12.3125 5.171875 -12.3125 C 4.390625 -12.3125 3.753906 -12.070312 3.265625 -11.59375 C 2.785156 -11.125 2.546875 -10.515625 2.546875 -9.765625 Z M 5.171875 -0.953125 C 6.035156 -0.953125 6.738281 -1.203125 7.28125 -1.703125 C 7.820312 -2.203125 8.09375 -2.828125 8.09375 -3.578125 C 8.09375 -4.085938 7.957031 -4.546875 7.6875 -4.953125 C 7.425781 -5.359375 7.070312 -5.675781 6.625 -5.90625 C 6.175781 -6.144531 5.691406 -6.265625 5.171875 -6.265625 C 4.648438 -6.265625 4.164062 -6.144531 3.71875 -5.90625 C 3.269531 -5.675781 2.910156 -5.359375 2.640625 -4.953125 C 2.367188 -4.546875 2.234375 -4.085938 2.234375 -3.578125 C 2.234375 -2.828125 2.5 -2.203125 3.03125 -1.703125 C 3.570312 -1.203125 4.285156 -0.953125 5.171875 -0.953125 Z M 5.171875 -0.953125 "/></g></g></g></g></g></g><g clip-path="url(#17ea92752d)"><g transform="matrix(1, 0, 0, 1, 128, 450)"><g clip-path="url(#c0cc95b68b)"><g clip-path="url(#1e58215da8)"><g fill="#201f1f" fill-opacity="1"><g transform="translate(0.525519, 20.406123)"><g><path d="M 4.328125 0 C 4.148438 0 4.003906 -0.0546875 3.890625 -0.171875 C 3.773438 -0.285156 3.71875 -0.421875 3.71875 -0.578125 L 3.71875 -12.09375 L 3.921875 -11.90625 L 1.375 -10.203125 C 1.269531 -10.128906 1.160156 -10.09375 1.046875 -10.09375 C 0.898438 -10.09375 0.765625 -10.15625 0.640625 -10.28125 C 0.515625 -10.40625 0.453125 -10.546875 0.453125 -10.703125 C 0.453125 -10.898438 0.554688 -11.054688 0.765625 -11.171875 L 3.96875 -13.296875 C 4.039062 -13.347656 4.117188 -13.378906 4.203125 -13.390625 C 4.285156 -13.410156 4.359375 -13.414062 4.421875 -13.40625 C 4.585938 -13.382812 4.710938 -13.316406 4.796875 -13.203125 C 4.890625 -13.097656 4.9375 -12.972656 4.9375 -12.828125 L 4.9375 -0.578125 C 4.9375 -0.421875 4.878906 -0.285156 4.765625 -0.171875 C 4.648438 -0.0546875 4.503906 0 4.328125 0 Z M 4.328125 0 "/></g></g></g></g><g fill="#201f1f" fill-opacity="1"><g transform="translate(7.6056, 20.406123)"><g><path d="M 5.296875 -13.609375 C 6.054688 -13.609375 6.710938 -13.472656 7.265625 -13.203125 C 7.816406 -12.941406 8.269531 -12.582031 8.625 -12.125 C 8.988281 -11.675781 9.257812 -11.160156 9.4375 -10.578125 C 9.613281 -10.003906 9.703125 -9.421875 9.703125 -8.828125 C 9.703125 -8.210938 9.617188 -7.554688 9.453125 -6.859375 C 9.296875 -6.160156 9.0625 -5.457031 8.75 -4.75 C 8.4375 -4.039062 8.046875 -3.367188 7.578125 -2.734375 C 7.117188 -2.097656 6.578125 -1.523438 5.953125 -1.015625 C 5.328125 -0.503906 4.628906 -0.109375 3.859375 0.171875 C 3.765625 0.191406 3.6875 0.203125 3.625 0.203125 C 3.46875 0.203125 3.328125 0.148438 3.203125 0.046875 C 3.085938 -0.0546875 3.03125 -0.203125 3.03125 -0.390625 C 3.03125 -0.515625 3.066406 -0.625 3.140625 -0.71875 C 3.210938 -0.8125 3.328125 -0.882812 3.484375 -0.9375 C 4.210938 -1.238281 4.914062 -1.691406 5.59375 -2.296875 C 6.269531 -2.910156 6.851562 -3.613281 7.34375 -4.40625 C 7.832031 -5.207031 8.160156 -6.035156 8.328125 -6.890625 L 8.734375 -7.140625 C 8.515625 -6.734375 8.21875 -6.363281 7.84375 -6.03125 C 7.476562 -5.695312 7.0625 -5.4375 6.59375 -5.25 C 6.125 -5.070312 5.617188 -4.984375 5.078125 -4.984375 C 4.253906 -4.984375 3.546875 -5.179688 2.953125 -5.578125 C 2.359375 -5.984375 1.898438 -6.515625 1.578125 -7.171875 C 1.265625 -7.835938 1.109375 -8.554688 1.109375 -9.328125 C 1.109375 -10.078125 1.289062 -10.773438 1.65625 -11.421875 C 2.019531 -12.078125 2.515625 -12.601562 3.140625 -13 C 3.773438 -13.40625 4.492188 -13.609375 5.296875 -13.609375 Z M 5.34375 -12.5 C 4.738281 -12.5 4.207031 -12.363281 3.75 -12.09375 C 3.289062 -11.820312 2.929688 -11.445312 2.671875 -10.96875 C 2.410156 -10.5 2.28125 -9.953125 2.28125 -9.328125 C 2.28125 -8.765625 2.390625 -8.234375 2.609375 -7.734375 C 2.835938 -7.234375 3.171875 -6.832031 3.609375 -6.53125 C 4.054688 -6.238281 4.601562 -6.09375 5.25 -6.09375 C 5.9375 -6.09375 6.519531 -6.238281 7 -6.53125 C 7.488281 -6.832031 7.863281 -7.234375 8.125 -7.734375 C 8.394531 -8.234375 8.53125 -8.78125 8.53125 -9.375 C 8.53125 -9.925781 8.398438 -10.4375 8.140625 -10.90625 C 7.890625 -11.382812 7.53125 -11.769531 7.0625 -12.0625 C 6.59375 -12.351562 6.019531 -12.5 5.34375 -12.5 Z M 5.34375 -12.5 "/></g></g></g></g></g></g><g clip-path="url(#420fd19b0e)"><g transform="matrix(1, 0, 0, 1, 254, 450)"><g clip-path="url(#340ff491cb)"><g fill="#201f1f" fill-opacity="1"><g transform="translate(0.344473, 20.406123)"><g><path d="M 9.078125 -1.109375 C 9.222656 -1.109375 9.347656 -1.050781 9.453125 -0.9375 C 9.566406 -0.832031 9.625 -0.707031 9.625 -0.5625 C 9.625 -0.394531 9.566406 -0.257812 9.453125 -0.15625 C 9.347656 -0.0507812 9.222656 0 9.078125 0 L 1.890625 0 C 1.722656 0 1.578125 -0.046875 1.453125 -0.140625 C 1.335938 -0.234375 1.28125 -0.378906 1.28125 -0.578125 C 1.28125 -0.710938 1.332031 -0.84375 1.4375 -0.96875 L 5.859375 -5.859375 C 6.554688 -6.617188 7.082031 -7.320312 7.4375 -7.96875 C 7.789062 -8.613281 7.96875 -9.191406 7.96875 -9.703125 C 7.96875 -10.546875 7.710938 -11.222656 7.203125 -11.734375 C 6.691406 -12.242188 6 -12.5 5.125 -12.5 C 4.726562 -12.5 4.335938 -12.414062 3.953125 -12.25 C 3.566406 -12.082031 3.222656 -11.863281 2.921875 -11.59375 C 2.617188 -11.332031 2.382812 -11.03125 2.21875 -10.6875 C 2.144531 -10.550781 2.066406 -10.457031 1.984375 -10.40625 C 1.898438 -10.363281 1.804688 -10.34375 1.703125 -10.34375 C 1.546875 -10.34375 1.410156 -10.390625 1.296875 -10.484375 C 1.179688 -10.578125 1.125 -10.691406 1.125 -10.828125 C 1.125 -10.921875 1.144531 -11.007812 1.1875 -11.09375 C 1.238281 -11.1875 1.304688 -11.289062 1.390625 -11.40625 C 1.617188 -11.800781 1.9375 -12.164062 2.34375 -12.5 C 2.757812 -12.832031 3.21875 -13.097656 3.71875 -13.296875 C 4.226562 -13.492188 4.722656 -13.59375 5.203125 -13.59375 C 6.023438 -13.59375 6.734375 -13.4375 7.328125 -13.125 C 7.921875 -12.8125 8.378906 -12.367188 8.703125 -11.796875 C 9.023438 -11.234375 9.1875 -10.5625 9.1875 -9.78125 C 9.1875 -9.113281 8.976562 -8.390625 8.5625 -7.609375 C 8.144531 -6.828125 7.53125 -5.984375 6.71875 -5.078125 L 2.984375 -0.875 L 2.796875 -1.109375 Z M 9.078125 -1.109375 "/></g></g></g><g fill="#201f1f" fill-opacity="1"><g transform="translate(10.945456, 20.406123)"><g><path d="M 5.6875 0.1875 C 4.664062 0.1875 3.8125 -0.113281 3.125 -0.71875 C 2.4375 -1.332031 1.914062 -2.160156 1.5625 -3.203125 C 1.21875 -4.242188 1.046875 -5.410156 1.046875 -6.703125 C 1.046875 -8.003906 1.21875 -9.171875 1.5625 -10.203125 C 1.914062 -11.242188 2.4375 -12.066406 3.125 -12.671875 C 3.8125 -13.285156 4.664062 -13.59375 5.6875 -13.59375 C 6.726562 -13.59375 7.585938 -13.285156 8.265625 -12.671875 C 8.953125 -12.066406 9.46875 -11.242188 9.8125 -10.203125 C 10.164062 -9.171875 10.34375 -8.003906 10.34375 -6.703125 C 10.34375 -5.410156 10.164062 -4.242188 9.8125 -3.203125 C 9.46875 -2.160156 8.953125 -1.332031 8.265625 -0.71875 C 7.585938 -0.113281 6.726562 0.1875 5.6875 0.1875 Z M 5.6875 -1 C 6.4375 -1 7.0625 -1.234375 7.5625 -1.703125 C 8.070312 -2.171875 8.457031 -2.835938 8.71875 -3.703125 C 8.976562 -4.566406 9.109375 -5.566406 9.109375 -6.703125 C 9.109375 -7.847656 8.976562 -8.847656 8.71875 -9.703125 C 8.457031 -10.566406 8.070312 -11.234375 7.5625 -11.703125 C 7.0625 -12.179688 6.4375 -12.421875 5.6875 -12.421875 C 4.945312 -12.421875 4.320312 -12.179688 3.8125 -11.703125 C 3.3125 -11.234375 2.929688 -10.566406 2.671875 -9.703125 C 2.410156 -8.847656 2.28125 -7.847656 2.28125 -6.703125 C 2.28125 -5.566406 2.410156 -4.566406 2.671875 -3.703125 C 2.929688 -2.835938 3.3125 -2.171875 3.8125 -1.703125 C 4.320312 -1.234375 4.945312 -1 5.6875 -1 Z M 5.6875 -1 "/></g></g></g></g></g></g><g clip-path="url(#06e20a1f60)"><g transform="matrix(1, 0, 0, 1, 380, 450)"><g clip-path="url(#b43de93a7b)"><g fill="#201f1f" fill-opacity="1"><g transform="translate(0.163412, 20.406123)"><g><path d="M 9.078125 -1.109375 C 9.222656 -1.109375 9.347656 -1.050781 9.453125 -0.9375 C 9.566406 -0.832031 9.625 -0.707031 9.625 -0.5625 C 9.625 -0.394531 9.566406 -0.257812 9.453125 -0.15625 C 9.347656 -0.0507812 9.222656 0 9.078125 0 L 1.890625 0 C 1.722656 0 1.578125 -0.046875 1.453125 -0.140625 C 1.335938 -0.234375 1.28125 -0.378906 1.28125 -0.578125 C 1.28125 -0.710938 1.332031 -0.84375 1.4375 -0.96875 L 5.859375 -5.859375 C 6.554688 -6.617188 7.082031 -7.320312 7.4375 -7.96875 C 7.789062 -8.613281 7.96875 -9.191406 7.96875 -9.703125 C 7.96875 -10.546875 7.710938 -11.222656 7.203125 -11.734375 C 6.691406 -12.242188 6 -12.5 5.125 -12.5 C 4.726562 -12.5 4.335938 -12.414062 3.953125 -12.25 C 3.566406 -12.082031 3.222656 -11.863281 2.921875 -11.59375 C 2.617188 -11.332031 2.382812 -11.03125 2.21875 -10.6875 C 2.144531 -10.550781 2.066406 -10.457031 1.984375 -10.40625 C 1.898438 -10.363281 1.804688 -10.34375 1.703125 -10.34375 C 1.546875 -10.34375 1.410156 -10.390625 1.296875 -10.484375 C 1.179688 -10.578125 1.125 -10.691406 1.125 -10.828125 C 1.125 -10.921875 1.144531 -11.007812 1.1875 -11.09375 C 1.238281 -11.1875 1.304688 -11.289062 1.390625 -11.40625 C 1.617188 -11.800781 1.9375 -12.164062 2.34375 -12.5 C 2.757812 -12.832031 3.21875 -13.097656 3.71875 -13.296875 C 4.226562 -13.492188 4.722656 -13.59375 5.203125 -13.59375 C 6.023438 -13.59375 6.734375 -13.4375 7.328125 -13.125 C 7.921875 -12.8125 8.378906 -12.367188 8.703125 -11.796875 C 9.023438 -11.234375 9.1875 -10.5625 9.1875 -9.78125 C 9.1875 -9.113281 8.976562 -8.390625 8.5625 -7.609375 C 8.144531 -6.828125 7.53125 -5.984375 6.71875 -5.078125 L 2.984375 -0.875 L 2.796875 -1.109375 Z M 9.078125 -1.109375 "/></g></g></g><g fill="#201f1f" fill-opacity="1"><g transform="translate(10.764395, 20.406123)"><g><path d="M 4.328125 0 C 4.148438 0 4.003906 -0.0546875 3.890625 -0.171875 C 3.773438 -0.285156 3.71875 -0.421875 3.71875 -0.578125 L 3.71875 -12.09375 L 3.921875 -11.90625 L 1.375 -10.203125 C 1.269531 -10.128906 1.160156 -10.09375 1.046875 -10.09375 C 0.898438 -10.09375 0.765625 -10.15625 0.640625 -10.28125 C 0.515625 -10.40625 0.453125 -10.546875 0.453125 -10.703125 C 0.453125 -10.898438 0.554688 -11.054688 0.765625 -11.171875 L 3.96875 -13.296875 C 4.039062 -13.347656 4.117188 -13.378906 4.203125 -13.390625 C 4.285156 -13.410156 4.359375 -13.414062 4.421875 -13.40625 C 4.585938 -13.382812 4.710938 -13.316406 4.796875 -13.203125 C 4.890625 -13.097656 4.9375 -12.972656 4.9375 -12.828125 L 4.9375 -0.578125 C 4.9375 -0.421875 4.878906 -0.285156 4.765625 -0.171875 C 4.648438 -0.0546875 4.503906 0 4.328125 0 Z M 4.328125 0 "/></g></g></g></g></g></g><g clip-path="url(#f52290e253)"><g transform="matrix(1, 0, 0, 1, 505, 450)"><g clip-path="url(#1b3622abce)"><g fill="#201f1f" fill-opacity="1"><g transform="translate(0.982381, 20.406123)"><g><path d="M 9.078125 -1.109375 C 9.222656 -1.109375 9.347656 -1.050781 9.453125 -0.9375 C 9.566406 -0.832031 9.625 -0.707031 9.625 -0.5625 C 9.625 -0.394531 9.566406 -0.257812 9.453125 -0.15625 C 9.347656 -0.0507812 9.222656 0 9.078125 0 L 1.890625 0 C 1.722656 0 1.578125 -0.046875 1.453125 -0.140625 C 1.335938 -0.234375 1.28125 -0.378906 1.28125 -0.578125 C 1.28125 -0.710938 1.332031 -0.84375 1.4375 -0.96875 L 5.859375 -5.859375 C 6.554688 -6.617188 7.082031 -7.320312 7.4375 -7.96875 C 7.789062 -8.613281 7.96875 -9.191406 7.96875 -9.703125 C 7.96875 -10.546875 7.710938 -11.222656 7.203125 -11.734375 C 6.691406 -12.242188 6 -12.5 5.125 -12.5 C 4.726562 -12.5 4.335938 -12.414062 3.953125 -12.25 C 3.566406 -12.082031 3.222656 -11.863281 2.921875 -11.59375 C 2.617188 -11.332031 2.382812 -11.03125 2.21875 -10.6875 C 2.144531 -10.550781 2.066406 -10.457031 1.984375 -10.40625 C 1.898438 -10.363281 1.804688 -10.34375 1.703125 -10.34375 C 1.546875 -10.34375 1.410156 -10.390625 1.296875 -10.484375 C 1.179688 -10.578125 1.125 -10.691406 1.125 -10.828125 C 1.125 -10.921875 1.144531 -11.007812 1.1875 -11.09375 C 1.238281 -11.1875 1.304688 -11.289062 1.390625 -11.40625 C 1.617188 -11.800781 1.9375 -12.164062 2.34375 -12.5 C 2.757812 -12.832031 3.21875 -13.097656 3.71875 -13.296875 C 4.226562 -13.492188 4.722656 -13.59375 5.203125 -13.59375 C 6.023438 -13.59375 6.734375 -13.4375 7.328125 -13.125 C 7.921875 -12.8125 8.378906 -12.367188 8.703125 -11.796875 C 9.023438 -11.234375 9.1875 -10.5625 9.1875 -9.78125 C 9.1875 -9.113281 8.976562 -8.390625 8.5625 -7.609375 C 8.144531 -6.828125 7.53125 -5.984375 6.71875 -5.078125 L 2.984375 -0.875 L 2.796875 -1.109375 Z M 9.078125 -1.109375 "/></g></g></g><g fill="#201f1f" fill-opacity="1"><g transform="translate(11.583363, 20.406123)"><g><path d="M 9.078125 -1.109375 C 9.222656 -1.109375 9.347656 -1.050781 9.453125 -0.9375 C 9.566406 -0.832031 9.625 -0.707031 9.625 -0.5625 C 9.625 -0.394531 9.566406 -0.257812 9.453125 -0.15625 C 9.347656 -0.0507812 9.222656 0 9.078125 0 L 1.890625 0 C 1.722656 0 1.578125 -0.046875 1.453125 -0.140625 C 1.335938 -0.234375 1.28125 -0.378906 1.28125 -0.578125 C 1.28125 -0.710938 1.332031 -0.84375 1.4375 -0.96875 L 5.859375 -5.859375 C 6.554688 -6.617188 7.082031 -7.320312 7.4375 -7.96875 C 7.789062 -8.613281 7.96875 -9.191406 7.96875 -9.703125 C 7.96875 -10.546875 7.710938 -11.222656 7.203125 -11.734375 C 6.691406 -12.242188 6 -12.5 5.125 -12.5 C 4.726562 -12.5 4.335938 -12.414062 3.953125 -12.25 C 3.566406 -12.082031 3.222656 -11.863281 2.921875 -11.59375 C 2.617188 -11.332031 2.382812 -11.03125 2.21875 -10.6875 C 2.144531 -10.550781 2.066406 -10.457031 1.984375 -10.40625 C 1.898438 -10.363281 1.804688 -10.34375 1.703125 -10.34375 C 1.546875 -10.34375 1.410156 -10.390625 1.296875 -10.484375 C 1.179688 -10.578125 1.125 -10.691406 1.125 -10.828125 C 1.125 -10.921875 1.144531 -11.007812 1.1875 -11.09375 C 1.238281 -11.1875 1.304688 -11.289062 1.390625 -11.40625 C 1.617188 -11.800781 1.9375 -12.164062 2.34375 -12.5 C 2.757812 -12.832031 3.21875 -13.097656 3.71875 -13.296875 C 4.226562 -13.492188 4.722656 -13.59375 5.203125 -13.59375 C 6.023438 -13.59375 6.734375 -13.4375 7.328125 -13.125 C 7.921875 -12.8125 8.378906 -12.367188 8.703125 -11.796875 C 9.023438 -11.234375 9.1875 -10.5625 9.1875 -9.78125 C 9.1875 -9.113281 8.976562 -8.390625 8.5625 -7.609375 C 8.144531 -6.828125 7.53125 -5.984375 6.71875 -5.078125 L 2.984375 -0.875 L 2.796875 -1.109375 Z M 9.078125 -1.109375 "/></g></g></g></g></g></g><g clip-path="url(#2f3db20755)"><g transform="matrix(1, 0, 0, 1, 631, 450)"><g clip-path="url(#7512388f2a)"><g fill="#201f1f" fill-opacity="1"><g transform="translate(0.80132, 20.406123)"><g><path d="M 9.078125 -1.109375 C 9.222656 -1.109375 9.347656 -1.050781 9.453125 -0.9375 C 9.566406 -0.832031 9.625 -0.707031 9.625 -0.5625 C 9.625 -0.394531 9.566406 -0.257812 9.453125 -0.15625 C 9.347656 -0.0507812 9.222656 0 9.078125 0 L 1.890625 0 C 1.722656 0 1.578125 -0.046875 1.453125 -0.140625 C 1.335938 -0.234375 1.28125 -0.378906 1.28125 -0.578125 C 1.28125 -0.710938 1.332031 -0.84375 1.4375 -0.96875 L 5.859375 -5.859375 C 6.554688 -6.617188 7.082031 -7.320312 7.4375 -7.96875 C 7.789062 -8.613281 7.96875 -9.191406 7.96875 -9.703125 C 7.96875 -10.546875 7.710938 -11.222656 7.203125 -11.734375 C 6.691406 -12.242188 6 -12.5 5.125 -12.5 C 4.726562 -12.5 4.335938 -12.414062 3.953125 -12.25 C 3.566406 -12.082031 3.222656 -11.863281 2.921875 -11.59375 C 2.617188 -11.332031 2.382812 -11.03125 2.21875 -10.6875 C 2.144531 -10.550781 2.066406 -10.457031 1.984375 -10.40625 C 1.898438 -10.363281 1.804688 -10.34375 1.703125 -10.34375 C 1.546875 -10.34375 1.410156 -10.390625 1.296875 -10.484375 C 1.179688 -10.578125 1.125 -10.691406 1.125 -10.828125 C 1.125 -10.921875 1.144531 -11.007812 1.1875 -11.09375 C 1.238281 -11.1875 1.304688 -11.289062 1.390625 -11.40625 C 1.617188 -11.800781 1.9375 -12.164062 2.34375 -12.5 C 2.757812 -12.832031 3.21875 -13.097656 3.71875 -13.296875 C 4.226562 -13.492188 4.722656 -13.59375 5.203125 -13.59375 C 6.023438 -13.59375 6.734375 -13.4375 7.328125 -13.125 C 7.921875 -12.8125 8.378906 -12.367188 8.703125 -11.796875 C 9.023438 -11.234375 9.1875 -10.5625 9.1875 -9.78125 C 9.1875 -9.113281 8.976562 -8.390625 8.5625 -7.609375 C 8.144531 -6.828125 7.53125 -5.984375 6.71875 -5.078125 L 2.984375 -0.875 L 2.796875 -1.109375 Z M 9.078125 -1.109375 "/></g></g></g><g fill="#201f1f" fill-opacity="1"><g transform="translate(11.402302, 20.406123)"><g><path d="M 1.703125 -1.96875 C 1.765625 -1.96875 1.832031 -1.953125 1.90625 -1.921875 C 1.976562 -1.898438 2.0625 -1.847656 2.15625 -1.765625 C 2.425781 -1.484375 2.742188 -1.269531 3.109375 -1.125 C 3.484375 -0.976562 3.910156 -0.90625 4.390625 -0.90625 C 5.015625 -0.90625 5.582031 -1.039062 6.09375 -1.3125 C 6.613281 -1.59375 7.023438 -1.984375 7.328125 -2.484375 C 7.640625 -2.992188 7.796875 -3.578125 7.796875 -4.234375 C 7.796875 -4.972656 7.628906 -5.566406 7.296875 -6.015625 C 6.972656 -6.472656 6.554688 -6.8125 6.046875 -7.03125 C 5.546875 -7.257812 5.035156 -7.375 4.515625 -7.375 C 4.378906 -7.375 4.242188 -7.363281 4.109375 -7.34375 C 3.972656 -7.320312 3.847656 -7.296875 3.734375 -7.265625 C 3.617188 -7.242188 3.53125 -7.234375 3.46875 -7.234375 C 3.300781 -7.234375 3.171875 -7.285156 3.078125 -7.390625 C 2.992188 -7.503906 2.953125 -7.644531 2.953125 -7.8125 C 2.953125 -7.894531 2.96875 -7.972656 3 -8.046875 C 3.039062 -8.117188 3.09375 -8.195312 3.15625 -8.28125 L 7.046875 -12.515625 L 7.28125 -12.21875 L 1.46875 -12.21875 C 1.320312 -12.21875 1.191406 -12.269531 1.078125 -12.375 C 0.972656 -12.476562 0.921875 -12.609375 0.921875 -12.765625 C 0.921875 -12.921875 0.972656 -13.046875 1.078125 -13.140625 C 1.191406 -13.242188 1.320312 -13.296875 1.46875 -13.296875 L 7.90625 -13.296875 C 8.125 -13.296875 8.273438 -13.226562 8.359375 -13.09375 C 8.453125 -12.96875 8.5 -12.835938 8.5 -12.703125 C 8.5 -12.628906 8.476562 -12.554688 8.4375 -12.484375 C 8.40625 -12.421875 8.351562 -12.347656 8.28125 -12.265625 L 4.40625 -8.046875 L 3.984375 -8.28125 C 4.015625 -8.320312 4.140625 -8.363281 4.359375 -8.40625 C 4.585938 -8.457031 4.769531 -8.484375 4.90625 -8.484375 C 5.601562 -8.484375 6.257812 -8.316406 6.875 -7.984375 C 7.5 -7.648438 8.003906 -7.171875 8.390625 -6.546875 C 8.785156 -5.929688 8.984375 -5.171875 8.984375 -4.265625 C 8.984375 -3.367188 8.769531 -2.585938 8.34375 -1.921875 C 7.925781 -1.253906 7.359375 -0.734375 6.640625 -0.359375 C 5.921875 0.00390625 5.128906 0.1875 4.265625 0.1875 C 3.742188 0.1875 3.226562 0.0976562 2.71875 -0.078125 C 2.207031 -0.253906 1.757812 -0.519531 1.375 -0.875 C 1.289062 -0.957031 1.226562 -1.035156 1.1875 -1.109375 C 1.144531 -1.179688 1.125 -1.257812 1.125 -1.34375 C 1.125 -1.488281 1.175781 -1.628906 1.28125 -1.765625 C 1.394531 -1.898438 1.535156 -1.96875 1.703125 -1.96875 Z M 1.703125 -1.96875 "/></g></g></g></g></g></g><g clip-path="url(#abc7124a79)"><g transform="matrix(1, 0, 0, 1, 757, 450)"><g clip-path="url(#7375519ae0)"><g fill="#201f1f" fill-opacity="1"><g transform="translate(0.620259, 20.406123)"><g><path d="M 9.078125 -1.109375 C 9.222656 -1.109375 9.347656 -1.050781 9.453125 -0.9375 C 9.566406 -0.832031 9.625 -0.707031 9.625 -0.5625 C 9.625 -0.394531 9.566406 -0.257812 9.453125 -0.15625 C 9.347656 -0.0507812 9.222656 0 9.078125 0 L 1.890625 0 C 1.722656 0 1.578125 -0.046875 1.453125 -0.140625 C 1.335938 -0.234375 1.28125 -0.378906 1.28125 -0.578125 C 1.28125 -0.710938 1.332031 -0.84375 1.4375 -0.96875 L 5.859375 -5.859375 C 6.554688 -6.617188 7.082031 -7.320312 7.4375 -7.96875 C 7.789062 -8.613281 7.96875 -9.191406 7.96875 -9.703125 C 7.96875 -10.546875 7.710938 -11.222656 7.203125 -11.734375 C 6.691406 -12.242188 6 -12.5 5.125 -12.5 C 4.726562 -12.5 4.335938 -12.414062 3.953125 -12.25 C 3.566406 -12.082031 3.222656 -11.863281 2.921875 -11.59375 C 2.617188 -11.332031 2.382812 -11.03125 2.21875 -10.6875 C 2.144531 -10.550781 2.066406 -10.457031 1.984375 -10.40625 C 1.898438 -10.363281 1.804688 -10.34375 1.703125 -10.34375 C 1.546875 -10.34375 1.410156 -10.390625 1.296875 -10.484375 C 1.179688 -10.578125 1.125 -10.691406 1.125 -10.828125 C 1.125 -10.921875 1.144531 -11.007812 1.1875 -11.09375 C 1.238281 -11.1875 1.304688 -11.289062 1.390625 -11.40625 C 1.617188 -11.800781 1.9375 -12.164062 2.34375 -12.5 C 2.757812 -12.832031 3.21875 -13.097656 3.71875 -13.296875 C 4.226562 -13.492188 4.722656 -13.59375 5.203125 -13.59375 C 6.023438 -13.59375 6.734375 -13.4375 7.328125 -13.125 C 7.921875 -12.8125 8.378906 -12.367188 8.703125 -11.796875 C 9.023438 -11.234375 9.1875 -10.5625 9.1875 -9.78125 C 9.1875 -9.113281 8.976562 -8.390625 8.5625 -7.609375 C 8.144531 -6.828125 7.53125 -5.984375 6.71875 -5.078125 L 2.984375 -0.875 L 2.796875 -1.109375 Z M 9.078125 -1.109375 "/></g></g></g><g fill="#201f1f" fill-opacity="1"><g transform="translate(11.221242, 20.406123)"><g><path d="M 7.03125 0 C 6.863281 0 6.726562 -0.0546875 6.625 -0.171875 C 6.519531 -0.285156 6.46875 -0.421875 6.46875 -0.578125 L 6.46875 -11.8125 L 6.71875 -11.65625 L 1.6875 -5 L 1.625 -5.203125 L 8.984375 -5.203125 C 9.128906 -5.203125 9.253906 -5.148438 9.359375 -5.046875 C 9.472656 -4.953125 9.53125 -4.828125 9.53125 -4.671875 C 9.53125 -4.515625 9.472656 -4.382812 9.359375 -4.28125 C 9.253906 -4.1875 9.128906 -4.140625 8.984375 -4.140625 L 0.84375 -4.140625 C 0.6875 -4.140625 0.550781 -4.195312 0.4375 -4.3125 C 0.320312 -4.4375 0.265625 -4.578125 0.265625 -4.734375 C 0.265625 -4.867188 0.3125 -4.992188 0.40625 -5.109375 L 6.5625 -13.171875 C 6.625 -13.253906 6.703125 -13.3125 6.796875 -13.34375 C 6.898438 -13.382812 6.984375 -13.40625 7.046875 -13.40625 C 7.210938 -13.40625 7.347656 -13.34375 7.453125 -13.21875 C 7.566406 -13.101562 7.625 -12.972656 7.625 -12.828125 L 7.625 -0.578125 C 7.625 -0.421875 7.566406 -0.285156 7.453125 -0.171875 C 7.335938 -0.0546875 7.195312 0 7.03125 0 Z M 7.03125 0 "/></g></g></g></g></g></g><g clip-path="url(#400ebf5219)"><g transform="matrix(1, 0, 0, 1, 2, 600)"><g clip-path="url(#4cf6f2fd6b)"><g fill="#201f1f" fill-opacity="1"><g transform="translate(0.706568, 20.164709)"><g><path d="M 9.078125 -1.109375 C 9.222656 -1.109375 9.347656 -1.050781 9.453125 -0.9375 C 9.566406 -0.832031 9.625 -0.707031 9.625 -0.5625 C 9.625 -0.394531 9.566406 -0.257812 9.453125 -0.15625 C 9.347656 -0.0507812 9.222656 0 9.078125 0 L 1.890625 0 C 1.722656 0 1.578125 -0.046875 1.453125 -0.140625 C 1.335938 -0.234375 1.28125 -0.378906 1.28125 -0.578125 C 1.28125 -0.710938 1.332031 -0.84375 1.4375 -0.96875 L 5.859375 -5.859375 C 6.554688 -6.617188 7.082031 -7.320312 7.4375 -7.96875 C 7.789062 -8.613281 7.96875 -9.191406 7.96875 -9.703125 C 7.96875 -10.546875 7.710938 -11.222656 7.203125 -11.734375 C 6.691406 -12.242188 6 -12.5 5.125 -12.5 C 4.726562 -12.5 4.335938 -12.414062 3.953125 -12.25 C 3.566406 -12.082031 3.222656 -11.863281 2.921875 -11.59375 C 2.617188 -11.332031 2.382812 -11.03125 2.21875 -10.6875 C 2.144531 -10.550781 2.066406 -10.457031 1.984375 -10.40625 C 1.898438 -10.363281 1.804688 -10.34375 1.703125 -10.34375 C 1.546875 -10.34375 1.410156 -10.390625 1.296875 -10.484375 C 1.179688 -10.578125 1.125 -10.691406 1.125 -10.828125 C 1.125 -10.921875 1.144531 -11.007812 1.1875 -11.09375 C 1.238281 -11.1875 1.304688 -11.289062 1.390625 -11.40625 C 1.617188 -11.800781 1.9375 -12.164062 2.34375 -12.5 C 2.757812 -12.832031 3.21875 -13.097656 3.71875 -13.296875 C 4.226562 -13.492188 4.722656 -13.59375 5.203125 -13.59375 C 6.023438 -13.59375 6.734375 -13.4375 7.328125 -13.125 C 7.921875 -12.8125 8.378906 -12.367188 8.703125 -11.796875 C 9.023438 -11.234375 9.1875 -10.5625 9.1875 -9.78125 C 9.1875 -9.113281 8.976562 -8.390625 8.5625 -7.609375 C 8.144531 -6.828125 7.53125 -5.984375 6.71875 -5.078125 L 2.984375 -0.875 L 2.796875 -1.109375 Z M 9.078125 -1.109375 "/></g></g></g><g fill="#201f1f" fill-opacity="1"><g transform="translate(11.30755, 20.164709)"><g><path d="M 4.484375 0.03125 C 3.953125 0.03125 3.421875 -0.0507812 2.890625 -0.21875 C 2.367188 -0.394531 1.90625 -0.65625 1.5 -1 C 1.414062 -1.0625 1.351562 -1.132812 1.3125 -1.21875 C 1.269531 -1.3125 1.25 -1.40625 1.25 -1.5 C 1.25 -1.625 1.296875 -1.742188 1.390625 -1.859375 C 1.492188 -1.984375 1.628906 -2.046875 1.796875 -2.046875 C 1.941406 -2.046875 2.082031 -1.988281 2.21875 -1.875 C 2.550781 -1.625 2.910156 -1.425781 3.296875 -1.28125 C 3.691406 -1.144531 4.085938 -1.078125 4.484375 -1.078125 C 5.234375 -1.078125 5.890625 -1.21875 6.453125 -1.5 C 7.015625 -1.789062 7.445312 -2.195312 7.75 -2.71875 C 8.0625 -3.25 8.21875 -3.867188 8.21875 -4.578125 C 8.21875 -5.222656 8.078125 -5.785156 7.796875 -6.265625 C 7.515625 -6.742188 7.113281 -7.117188 6.59375 -7.390625 C 6.070312 -7.671875 5.460938 -7.8125 4.765625 -7.8125 C 4.304688 -7.8125 3.890625 -7.738281 3.515625 -7.59375 C 3.140625 -7.457031 2.8125 -7.316406 2.53125 -7.171875 C 2.257812 -7.023438 2.039062 -6.953125 1.875 -6.953125 C 1.71875 -6.953125 1.59375 -6.988281 1.5 -7.0625 C 1.40625 -7.132812 1.34375 -7.226562 1.3125 -7.34375 C 1.28125 -7.457031 1.273438 -7.582031 1.296875 -7.71875 L 2.125 -12.828125 C 2.132812 -12.941406 2.191406 -13.046875 2.296875 -13.140625 C 2.410156 -13.234375 2.550781 -13.28125 2.71875 -13.28125 L 8.484375 -13.28125 C 8.628906 -13.28125 8.753906 -13.222656 8.859375 -13.109375 C 8.972656 -13.003906 9.03125 -12.878906 9.03125 -12.734375 C 9.03125 -12.566406 8.972656 -12.425781 8.859375 -12.3125 C 8.753906 -12.207031 8.628906 -12.15625 8.484375 -12.15625 L 2.984375 -12.15625 L 3.15625 -12.328125 L 2.375 -7.796875 L 2.03125 -8.046875 C 2.195312 -8.171875 2.4375 -8.296875 2.75 -8.421875 C 3.0625 -8.546875 3.410156 -8.65625 3.796875 -8.75 C 4.191406 -8.851562 4.601562 -8.90625 5.03125 -8.90625 C 5.863281 -8.90625 6.601562 -8.722656 7.25 -8.359375 C 7.90625 -7.992188 8.421875 -7.488281 8.796875 -6.84375 C 9.171875 -6.195312 9.359375 -5.453125 9.359375 -4.609375 C 9.359375 -3.679688 9.15625 -2.867188 8.75 -2.171875 C 8.351562 -1.472656 7.789062 -0.929688 7.0625 -0.546875 C 6.332031 -0.160156 5.472656 0.03125 4.484375 0.03125 Z M 4.484375 0.03125 "/></g></g></g></g></g></g><g clip-path="url(#8f9d413e9f)"><g transform="matrix(1, 0, 0, 1, 128, 600)"><g clip-path="url(#dad5d5a899)"><g fill="#201f1f" fill-opacity="1"><g transform="translate(0.525519, 20.164709)"><g><path d="M 9.078125 -1.109375 C 9.222656 -1.109375 9.347656 -1.050781 9.453125 -0.9375 C 9.566406 -0.832031 9.625 -0.707031 9.625 -0.5625 C 9.625 -0.394531 9.566406 -0.257812 9.453125 -0.15625 C 9.347656 -0.0507812 9.222656 0 9.078125 0 L 1.890625 0 C 1.722656 0 1.578125 -0.046875 1.453125 -0.140625 C 1.335938 -0.234375 1.28125 -0.378906 1.28125 -0.578125 C 1.28125 -0.710938 1.332031 -0.84375 1.4375 -0.96875 L 5.859375 -5.859375 C 6.554688 -6.617188 7.082031 -7.320312 7.4375 -7.96875 C 7.789062 -8.613281 7.96875 -9.191406 7.96875 -9.703125 C 7.96875 -10.546875 7.710938 -11.222656 7.203125 -11.734375 C 6.691406 -12.242188 6 -12.5 5.125 -12.5 C 4.726562 -12.5 4.335938 -12.414062 3.953125 -12.25 C 3.566406 -12.082031 3.222656 -11.863281 2.921875 -11.59375 C 2.617188 -11.332031 2.382812 -11.03125 2.21875 -10.6875 C 2.144531 -10.550781 2.066406 -10.457031 1.984375 -10.40625 C 1.898438 -10.363281 1.804688 -10.34375 1.703125 -10.34375 C 1.546875 -10.34375 1.410156 -10.390625 1.296875 -10.484375 C 1.179688 -10.578125 1.125 -10.691406 1.125 -10.828125 C 1.125 -10.921875 1.144531 -11.007812 1.1875 -11.09375 C 1.238281 -11.1875 1.304688 -11.289062 1.390625 -11.40625 C 1.617188 -11.800781 1.9375 -12.164062 2.34375 -12.5 C 2.757812 -12.832031 3.21875 -13.097656 3.71875 -13.296875 C 4.226562 -13.492188 4.722656 -13.59375 5.203125 -13.59375 C 6.023438 -13.59375 6.734375 -13.4375 7.328125 -13.125 C 7.921875 -12.8125 8.378906 -12.367188 8.703125 -11.796875 C 9.023438 -11.234375 9.1875 -10.5625 9.1875 -9.78125 C 9.1875 -9.113281 8.976562 -8.390625 8.5625 -7.609375 C 8.144531 -6.828125 7.53125 -5.984375 6.71875 -5.078125 L 2.984375 -0.875 L 2.796875 -1.109375 Z M 9.078125 -1.109375 "/></g></g></g><g fill="#201f1f" fill-opacity="1"><g transform="translate(11.126502, 20.164709)"><g><path d="M 5.5 0.1875 C 4.757812 0.1875 4.109375 0.0546875 3.546875 -0.203125 C 2.992188 -0.472656 2.535156 -0.832031 2.171875 -1.28125 C 1.804688 -1.738281 1.535156 -2.253906 1.359375 -2.828125 C 1.191406 -3.398438 1.109375 -3.988281 1.109375 -4.59375 C 1.109375 -5.207031 1.179688 -5.867188 1.328125 -6.578125 C 1.484375 -7.285156 1.722656 -8 2.046875 -8.71875 C 2.367188 -9.445312 2.757812 -10.132812 3.21875 -10.78125 C 3.6875 -11.4375 4.226562 -12.023438 4.84375 -12.546875 C 5.46875 -13.066406 6.171875 -13.472656 6.953125 -13.765625 C 7.035156 -13.785156 7.109375 -13.796875 7.171875 -13.796875 C 7.335938 -13.796875 7.484375 -13.75 7.609375 -13.65625 C 7.734375 -13.570312 7.796875 -13.421875 7.796875 -13.203125 C 7.796875 -13.078125 7.753906 -12.96875 7.671875 -12.875 C 7.585938 -12.78125 7.472656 -12.707031 7.328125 -12.65625 C 6.796875 -12.425781 6.265625 -12.097656 5.734375 -11.671875 C 5.210938 -11.253906 4.726562 -10.769531 4.28125 -10.21875 C 3.84375 -9.664062 3.46875 -9.070312 3.15625 -8.4375 C 2.84375 -7.8125 2.617188 -7.175781 2.484375 -6.53125 L 2.0625 -6.28125 C 2.289062 -6.695312 2.585938 -7.066406 2.953125 -7.390625 C 3.316406 -7.722656 3.734375 -7.988281 4.203125 -8.1875 C 4.679688 -8.382812 5.195312 -8.484375 5.75 -8.484375 C 6.320312 -8.484375 6.847656 -8.359375 7.328125 -8.109375 C 7.816406 -7.867188 8.234375 -7.539062 8.578125 -7.125 C 8.929688 -6.71875 9.207031 -6.25 9.40625 -5.71875 C 9.601562 -5.195312 9.703125 -4.65625 9.703125 -4.09375 C 9.703125 -3.34375 9.519531 -2.640625 9.15625 -1.984375 C 8.789062 -1.335938 8.289062 -0.8125 7.65625 -0.40625 C 7.03125 -0.0078125 6.3125 0.1875 5.5 0.1875 Z M 5.46875 -0.921875 C 6.0625 -0.921875 6.585938 -1.050781 7.046875 -1.3125 C 7.503906 -1.582031 7.863281 -1.957031 8.125 -2.4375 C 8.382812 -2.914062 8.515625 -3.46875 8.515625 -4.09375 C 8.515625 -4.664062 8.398438 -5.195312 8.171875 -5.6875 C 7.953125 -6.1875 7.625 -6.59375 7.1875 -6.90625 C 6.75 -7.21875 6.203125 -7.375 5.546875 -7.375 C 4.867188 -7.375 4.285156 -7.21875 3.796875 -6.90625 C 3.304688 -6.601562 2.929688 -6.195312 2.671875 -5.6875 C 2.410156 -5.1875 2.28125 -4.632812 2.28125 -4.03125 C 2.28125 -3.5 2.40625 -2.992188 2.65625 -2.515625 C 2.914062 -2.035156 3.285156 -1.648438 3.765625 -1.359375 C 4.242188 -1.066406 4.8125 -0.921875 5.46875 -0.921875 Z M 5.46875 -0.921875 "/></g></g></g></g></g></g><g clip-path="url(#0c578f8977)"><g transform="matrix(1, 0, 0, 1, 254, 600)"><g clip-path="url(#a01a97980e)"><g fill="#201f1f" fill-opacity="1"><g transform="translate(0.344473, 20.164709)"><g><path d="M 9.078125 -1.109375 C 9.222656 -1.109375 9.347656 -1.050781 9.453125 -0.9375 C 9.566406 -0.832031 9.625 -0.707031 9.625 -0.5625 C 9.625 -0.394531 9.566406 -0.257812 9.453125 -0.15625 C 9.347656 -0.0507812 9.222656 0 9.078125 0 L 1.890625 0 C 1.722656 0 1.578125 -0.046875 1.453125 -0.140625 C 1.335938 -0.234375 1.28125 -0.378906 1.28125 -0.578125 C 1.28125 -0.710938 1.332031 -0.84375 1.4375 -0.96875 L 5.859375 -5.859375 C 6.554688 -6.617188 7.082031 -7.320312 7.4375 -7.96875 C 7.789062 -8.613281 7.96875 -9.191406 7.96875 -9.703125 C 7.96875 -10.546875 7.710938 -11.222656 7.203125 -11.734375 C 6.691406 -12.242188 6 -12.5 5.125 -12.5 C 4.726562 -12.5 4.335938 -12.414062 3.953125 -12.25 C 3.566406 -12.082031 3.222656 -11.863281 2.921875 -11.59375 C 2.617188 -11.332031 2.382812 -11.03125 2.21875 -10.6875 C 2.144531 -10.550781 2.066406 -10.457031 1.984375 -10.40625 C 1.898438 -10.363281 1.804688 -10.34375 1.703125 -10.34375 C 1.546875 -10.34375 1.410156 -10.390625 1.296875 -10.484375 C 1.179688 -10.578125 1.125 -10.691406 1.125 -10.828125 C 1.125 -10.921875 1.144531 -11.007812 1.1875 -11.09375 C 1.238281 -11.1875 1.304688 -11.289062 1.390625 -11.40625 C 1.617188 -11.800781 1.9375 -12.164062 2.34375 -12.5 C 2.757812 -12.832031 3.21875 -13.097656 3.71875 -13.296875 C 4.226562 -13.492188 4.722656 -13.59375 5.203125 -13.59375 C 6.023438 -13.59375 6.734375 -13.4375 7.328125 -13.125 C 7.921875 -12.8125 8.378906 -12.367188 8.703125 -11.796875 C 9.023438 -11.234375 9.1875 -10.5625 9.1875 -9.78125 C 9.1875 -9.113281 8.976562 -8.390625 8.5625 -7.609375 C 8.144531 -6.828125 7.53125 -5.984375 6.71875 -5.078125 L 2.984375 -0.875 L 2.796875 -1.109375 Z M 9.078125 -1.109375 "/></g></g></g><g fill="#201f1f" fill-opacity="1"><g transform="translate(10.945456, 20.164709)"><g><path d="M 3.40625 0.0625 C 3.25 0.0625 3.109375 0.0078125 2.984375 -0.09375 C 2.859375 -0.195312 2.796875 -0.328125 2.796875 -0.484375 C 2.796875 -0.566406 2.816406 -0.660156 2.859375 -0.765625 L 7.9375 -12.453125 L 8.15625 -12.1875 L 1.6875 -12.1875 C 1.53125 -12.1875 1.394531 -12.238281 1.28125 -12.34375 C 1.175781 -12.457031 1.125 -12.59375 1.125 -12.75 C 1.125 -12.914062 1.175781 -13.046875 1.28125 -13.140625 C 1.394531 -13.242188 1.53125 -13.296875 1.6875 -13.296875 L 8.703125 -13.296875 C 8.898438 -13.296875 9.039062 -13.242188 9.125 -13.140625 C 9.21875 -13.046875 9.265625 -12.921875 9.265625 -12.765625 C 9.265625 -12.660156 9.242188 -12.566406 9.203125 -12.484375 L 3.9375 -0.328125 C 3.90625 -0.210938 3.835938 -0.117188 3.734375 -0.046875 C 3.628906 0.0234375 3.519531 0.0625 3.40625 0.0625 Z M 3.40625 0.0625 "/></g></g></g></g></g></g><g clip-path="url(#3cd8f35866)"><g transform="matrix(1, 0, 0, 1, 380, 600)"><g clip-path="url(#409fb30888)"><g fill="#201f1f" fill-opacity="1"><g transform="translate(0.163412, 20.164709)"><g><path d="M 9.078125 -1.109375 C 9.222656 -1.109375 9.347656 -1.050781 9.453125 -0.9375 C 9.566406 -0.832031 9.625 -0.707031 9.625 -0.5625 C 9.625 -0.394531 9.566406 -0.257812 9.453125 -0.15625 C 9.347656 -0.0507812 9.222656 0 9.078125 0 L 1.890625 0 C 1.722656 0 1.578125 -0.046875 1.453125 -0.140625 C 1.335938 -0.234375 1.28125 -0.378906 1.28125 -0.578125 C 1.28125 -0.710938 1.332031 -0.84375 1.4375 -0.96875 L 5.859375 -5.859375 C 6.554688 -6.617188 7.082031 -7.320312 7.4375 -7.96875 C 7.789062 -8.613281 7.96875 -9.191406 7.96875 -9.703125 C 7.96875 -10.546875 7.710938 -11.222656 7.203125 -11.734375 C 6.691406 -12.242188 6 -12.5 5.125 -12.5 C 4.726562 -12.5 4.335938 -12.414062 3.953125 -12.25 C 3.566406 -12.082031 3.222656 -11.863281 2.921875 -11.59375 C 2.617188 -11.332031 2.382812 -11.03125 2.21875 -10.6875 C 2.144531 -10.550781 2.066406 -10.457031 1.984375 -10.40625 C 1.898438 -10.363281 1.804688 -10.34375 1.703125 -10.34375 C 1.546875 -10.34375 1.410156 -10.390625 1.296875 -10.484375 C 1.179688 -10.578125 1.125 -10.691406 1.125 -10.828125 C 1.125 -10.921875 1.144531 -11.007812 1.1875 -11.09375 C 1.238281 -11.1875 1.304688 -11.289062 1.390625 -11.40625 C 1.617188 -11.800781 1.9375 -12.164062 2.34375 -12.5 C 2.757812 -12.832031 3.21875 -13.097656 3.71875 -13.296875 C 4.226562 -13.492188 4.722656 -13.59375 5.203125 -13.59375 C 6.023438 -13.59375 6.734375 -13.4375 7.328125 -13.125 C 7.921875 -12.8125 8.378906 -12.367188 8.703125 -11.796875 C 9.023438 -11.234375 9.1875 -10.5625 9.1875 -9.78125 C 9.1875 -9.113281 8.976562 -8.390625 8.5625 -7.609375 C 8.144531 -6.828125 7.53125 -5.984375 6.71875 -5.078125 L 2.984375 -0.875 L 2.796875 -1.109375 Z M 9.078125 -1.109375 "/></g></g></g><g fill="#201f1f" fill-opacity="1"><g transform="translate(10.764395, 20.164709)"><g><path d="M 6.96875 -6.734375 L 6.90625 -6.90625 C 7.34375 -6.738281 7.738281 -6.492188 8.09375 -6.171875 C 8.445312 -5.847656 8.734375 -5.460938 8.953125 -5.015625 C 9.171875 -4.578125 9.28125 -4.097656 9.28125 -3.578125 C 9.28125 -2.890625 9.097656 -2.265625 8.734375 -1.703125 C 8.367188 -1.140625 7.875 -0.691406 7.25 -0.359375 C 6.625 -0.0234375 5.929688 0.140625 5.171875 0.140625 C 4.390625 0.140625 3.6875 -0.0234375 3.0625 -0.359375 C 2.445312 -0.691406 1.957031 -1.140625 1.59375 -1.703125 C 1.226562 -2.265625 1.046875 -2.890625 1.046875 -3.578125 C 1.046875 -4.140625 1.15625 -4.640625 1.375 -5.078125 C 1.601562 -5.523438 1.898438 -5.898438 2.265625 -6.203125 C 2.628906 -6.503906 3.007812 -6.738281 3.40625 -6.90625 L 3.34375 -6.71875 C 3 -6.882812 2.675781 -7.109375 2.375 -7.390625 C 2.082031 -7.679688 1.835938 -8.023438 1.640625 -8.421875 C 1.453125 -8.828125 1.359375 -9.273438 1.359375 -9.765625 C 1.359375 -10.453125 1.523438 -11.066406 1.859375 -11.609375 C 2.203125 -12.160156 2.660156 -12.597656 3.234375 -12.921875 C 3.816406 -13.242188 4.460938 -13.40625 5.171875 -13.40625 C 5.867188 -13.40625 6.5 -13.242188 7.0625 -12.921875 C 7.632812 -12.597656 8.085938 -12.160156 8.421875 -11.609375 C 8.765625 -11.066406 8.9375 -10.453125 8.9375 -9.765625 C 8.9375 -9.265625 8.835938 -8.816406 8.640625 -8.421875 C 8.453125 -8.023438 8.207031 -7.679688 7.90625 -7.390625 C 7.601562 -7.109375 7.289062 -6.890625 6.96875 -6.734375 Z M 2.546875 -9.765625 C 2.546875 -9.253906 2.664062 -8.804688 2.90625 -8.421875 C 3.144531 -8.035156 3.460938 -7.734375 3.859375 -7.515625 C 4.253906 -7.304688 4.691406 -7.203125 5.171875 -7.203125 C 5.628906 -7.203125 6.054688 -7.304688 6.453125 -7.515625 C 6.847656 -7.734375 7.160156 -8.035156 7.390625 -8.421875 C 7.628906 -8.804688 7.75 -9.253906 7.75 -9.765625 C 7.75 -10.515625 7.503906 -11.125 7.015625 -11.59375 C 6.535156 -12.070312 5.921875 -12.3125 5.171875 -12.3125 C 4.390625 -12.3125 3.753906 -12.070312 3.265625 -11.59375 C 2.785156 -11.125 2.546875 -10.515625 2.546875 -9.765625 Z M 5.171875 -0.953125 C 6.035156 -0.953125 6.738281 -1.203125 7.28125 -1.703125 C 7.820312 -2.203125 8.09375 -2.828125 8.09375 -3.578125 C 8.09375 -4.085938 7.957031 -4.546875 7.6875 -4.953125 C 7.425781 -5.359375 7.070312 -5.675781 6.625 -5.90625 C 6.175781 -6.144531 5.691406 -6.265625 5.171875 -6.265625 C 4.648438 -6.265625 4.164062 -6.144531 3.71875 -5.90625 C 3.269531 -5.675781 2.910156 -5.359375 2.640625 -4.953125 C 2.367188 -4.546875 2.234375 -4.085938 2.234375 -3.578125 C 2.234375 -2.828125 2.5 -2.203125 3.03125 -1.703125 C 3.570312 -1.203125 4.285156 -0.953125 5.171875 -0.953125 Z M 5.171875 -0.953125 "/></g></g></g></g></g></g><g clip-path="url(#f067e800c3)"><g transform="matrix(1, 0, 0, 1, 505, 600)"><g clip-path="url(#b9f1a33f3b)"><g fill="#201f1f" fill-opacity="1"><g transform="translate(0.982381, 20.164709)"><g><path d="M 9.078125 -1.109375 C 9.222656 -1.109375 9.347656 -1.050781 9.453125 -0.9375 C 9.566406 -0.832031 9.625 -0.707031 9.625 -0.5625 C 9.625 -0.394531 9.566406 -0.257812 9.453125 -0.15625 C 9.347656 -0.0507812 9.222656 0 9.078125 0 L 1.890625 0 C 1.722656 0 1.578125 -0.046875 1.453125 -0.140625 C 1.335938 -0.234375 1.28125 -0.378906 1.28125 -0.578125 C 1.28125 -0.710938 1.332031 -0.84375 1.4375 -0.96875 L 5.859375 -5.859375 C 6.554688 -6.617188 7.082031 -7.320312 7.4375 -7.96875 C 7.789062 -8.613281 7.96875 -9.191406 7.96875 -9.703125 C 7.96875 -10.546875 7.710938 -11.222656 7.203125 -11.734375 C 6.691406 -12.242188 6 -12.5 5.125 -12.5 C 4.726562 -12.5 4.335938 -12.414062 3.953125 -12.25 C 3.566406 -12.082031 3.222656 -11.863281 2.921875 -11.59375 C 2.617188 -11.332031 2.382812 -11.03125 2.21875 -10.6875 C 2.144531 -10.550781 2.066406 -10.457031 1.984375 -10.40625 C 1.898438 -10.363281 1.804688 -10.34375 1.703125 -10.34375 C 1.546875 -10.34375 1.410156 -10.390625 1.296875 -10.484375 C 1.179688 -10.578125 1.125 -10.691406 1.125 -10.828125 C 1.125 -10.921875 1.144531 -11.007812 1.1875 -11.09375 C 1.238281 -11.1875 1.304688 -11.289062 1.390625 -11.40625 C 1.617188 -11.800781 1.9375 -12.164062 2.34375 -12.5 C 2.757812 -12.832031 3.21875 -13.097656 3.71875 -13.296875 C 4.226562 -13.492188 4.722656 -13.59375 5.203125 -13.59375 C 6.023438 -13.59375 6.734375 -13.4375 7.328125 -13.125 C 7.921875 -12.8125 8.378906 -12.367188 8.703125 -11.796875 C 9.023438 -11.234375 9.1875 -10.5625 9.1875 -9.78125 C 9.1875 -9.113281 8.976562 -8.390625 8.5625 -7.609375 C 8.144531 -6.828125 7.53125 -5.984375 6.71875 -5.078125 L 2.984375 -0.875 L 2.796875 -1.109375 Z M 9.078125 -1.109375 "/></g></g></g><g fill="#201f1f" fill-opacity="1"><g transform="translate(11.583363, 20.164709)"><g><path d="M 5.296875 -13.609375 C 6.054688 -13.609375 6.710938 -13.472656 7.265625 -13.203125 C 7.816406 -12.941406 8.269531 -12.582031 8.625 -12.125 C 8.988281 -11.675781 9.257812 -11.160156 9.4375 -10.578125 C 9.613281 -10.003906 9.703125 -9.421875 9.703125 -8.828125 C 9.703125 -8.210938 9.617188 -7.554688 9.453125 -6.859375 C 9.296875 -6.160156 9.0625 -5.457031 8.75 -4.75 C 8.4375 -4.039062 8.046875 -3.367188 7.578125 -2.734375 C 7.117188 -2.097656 6.578125 -1.523438 5.953125 -1.015625 C 5.328125 -0.503906 4.628906 -0.109375 3.859375 0.171875 C 3.765625 0.191406 3.6875 0.203125 3.625 0.203125 C 3.46875 0.203125 3.328125 0.148438 3.203125 0.046875 C 3.085938 -0.0546875 3.03125 -0.203125 3.03125 -0.390625 C 3.03125 -0.515625 3.066406 -0.625 3.140625 -0.71875 C 3.210938 -0.8125 3.328125 -0.882812 3.484375 -0.9375 C 4.210938 -1.238281 4.914062 -1.691406 5.59375 -2.296875 C 6.269531 -2.910156 6.851562 -3.613281 7.34375 -4.40625 C 7.832031 -5.207031 8.160156 -6.035156 8.328125 -6.890625 L 8.734375 -7.140625 C 8.515625 -6.734375 8.21875 -6.363281 7.84375 -6.03125 C 7.476562 -5.695312 7.0625 -5.4375 6.59375 -5.25 C 6.125 -5.070312 5.617188 -4.984375 5.078125 -4.984375 C 4.253906 -4.984375 3.546875 -5.179688 2.953125 -5.578125 C 2.359375 -5.984375 1.898438 -6.515625 1.578125 -7.171875 C 1.265625 -7.835938 1.109375 -8.554688 1.109375 -9.328125 C 1.109375 -10.078125 1.289062 -10.773438 1.65625 -11.421875 C 2.019531 -12.078125 2.515625 -12.601562 3.140625 -13 C 3.773438 -13.40625 4.492188 -13.609375 5.296875 -13.609375 Z M 5.34375 -12.5 C 4.738281 -12.5 4.207031 -12.363281 3.75 -12.09375 C 3.289062 -11.820312 2.929688 -11.445312 2.671875 -10.96875 C 2.410156 -10.5 2.28125 -9.953125 2.28125 -9.328125 C 2.28125 -8.765625 2.390625 -8.234375 2.609375 -7.734375 C 2.835938 -7.234375 3.171875 -6.832031 3.609375 -6.53125 C 4.054688 -6.238281 4.601562 -6.09375 5.25 -6.09375 C 5.9375 -6.09375 6.519531 -6.238281 7 -6.53125 C 7.488281 -6.832031 7.863281 -7.234375 8.125 -7.734375 C 8.394531 -8.234375 8.53125 -8.78125 8.53125 -9.375 C 8.53125 -9.925781 8.398438 -10.4375 8.140625 -10.90625 C 7.890625 -11.382812 7.53125 -11.769531 7.0625 -12.0625 C 6.59375 -12.351562 6.019531 -12.5 5.34375 -12.5 Z M 5.34375 -12.5 "/></g></g></g></g></g></g><g clip-path="url(#0e149150f8)"><g transform="matrix(1, 0, 0, 1, 631, 600)"><g clip-path="url(#df883c685b)"><g fill="#201f1f" fill-opacity="1"><g transform="translate(0.80132, 20.164709)"><g><path d="M 1.703125 -1.96875 C 1.765625 -1.96875 1.832031 -1.953125 1.90625 -1.921875 C 1.976562 -1.898438 2.0625 -1.847656 2.15625 -1.765625 C 2.425781 -1.484375 2.742188 -1.269531 3.109375 -1.125 C 3.484375 -0.976562 3.910156 -0.90625 4.390625 -0.90625 C 5.015625 -0.90625 5.582031 -1.039062 6.09375 -1.3125 C 6.613281 -1.59375 7.023438 -1.984375 7.328125 -2.484375 C 7.640625 -2.992188 7.796875 -3.578125 7.796875 -4.234375 C 7.796875 -4.972656 7.628906 -5.566406 7.296875 -6.015625 C 6.972656 -6.472656 6.554688 -6.8125 6.046875 -7.03125 C 5.546875 -7.257812 5.035156 -7.375 4.515625 -7.375 C 4.378906 -7.375 4.242188 -7.363281 4.109375 -7.34375 C 3.972656 -7.320312 3.847656 -7.296875 3.734375 -7.265625 C 3.617188 -7.242188 3.53125 -7.234375 3.46875 -7.234375 C 3.300781 -7.234375 3.171875 -7.285156 3.078125 -7.390625 C 2.992188 -7.503906 2.953125 -7.644531 2.953125 -7.8125 C 2.953125 -7.894531 2.96875 -7.972656 3 -8.046875 C 3.039062 -8.117188 3.09375 -8.195312 3.15625 -8.28125 L 7.046875 -12.515625 L 7.28125 -12.21875 L 1.46875 -12.21875 C 1.320312 -12.21875 1.191406 -12.269531 1.078125 -12.375 C 0.972656 -12.476562 0.921875 -12.609375 0.921875 -12.765625 C 0.921875 -12.921875 0.972656 -13.046875 1.078125 -13.140625 C 1.191406 -13.242188 1.320312 -13.296875 1.46875 -13.296875 L 7.90625 -13.296875 C 8.125 -13.296875 8.273438 -13.226562 8.359375 -13.09375 C 8.453125 -12.96875 8.5 -12.835938 8.5 -12.703125 C 8.5 -12.628906 8.476562 -12.554688 8.4375 -12.484375 C 8.40625 -12.421875 8.351562 -12.347656 8.28125 -12.265625 L 4.40625 -8.046875 L 3.984375 -8.28125 C 4.015625 -8.320312 4.140625 -8.363281 4.359375 -8.40625 C 4.585938 -8.457031 4.769531 -8.484375 4.90625 -8.484375 C 5.601562 -8.484375 6.257812 -8.316406 6.875 -7.984375 C 7.5 -7.648438 8.003906 -7.171875 8.390625 -6.546875 C 8.785156 -5.929688 8.984375 -5.171875 8.984375 -4.265625 C 8.984375 -3.367188 8.769531 -2.585938 8.34375 -1.921875 C 7.925781 -1.253906 7.359375 -0.734375 6.640625 -0.359375 C 5.921875 0.00390625 5.128906 0.1875 4.265625 0.1875 C 3.742188 0.1875 3.226562 0.0976562 2.71875 -0.078125 C 2.207031 -0.253906 1.757812 -0.519531 1.375 -0.875 C 1.289062 -0.957031 1.226562 -1.035156 1.1875 -1.109375 C 1.144531 -1.179688 1.125 -1.257812 1.125 -1.34375 C 1.125 -1.488281 1.175781 -1.628906 1.28125 -1.765625 C 1.394531 -1.898438 1.535156 -1.96875 1.703125 -1.96875 Z M 1.703125 -1.96875 "/></g></g></g><g fill="#201f1f" fill-opacity="1"><g transform="translate(10.828247, 20.164709)"><g><path d="M 5.6875 0.1875 C 4.664062 0.1875 3.8125 -0.113281 3.125 -0.71875 C 2.4375 -1.332031 1.914062 -2.160156 1.5625 -3.203125 C 1.21875 -4.242188 1.046875 -5.410156 1.046875 -6.703125 C 1.046875 -8.003906 1.21875 -9.171875 1.5625 -10.203125 C 1.914062 -11.242188 2.4375 -12.066406 3.125 -12.671875 C 3.8125 -13.285156 4.664062 -13.59375 5.6875 -13.59375 C 6.726562 -13.59375 7.585938 -13.285156 8.265625 -12.671875 C 8.953125 -12.066406 9.46875 -11.242188 9.8125 -10.203125 C 10.164062 -9.171875 10.34375 -8.003906 10.34375 -6.703125 C 10.34375 -5.410156 10.164062 -4.242188 9.8125 -3.203125 C 9.46875 -2.160156 8.953125 -1.332031 8.265625 -0.71875 C 7.585938 -0.113281 6.726562 0.1875 5.6875 0.1875 Z M 5.6875 -1 C 6.4375 -1 7.0625 -1.234375 7.5625 -1.703125 C 8.070312 -2.171875 8.457031 -2.835938 8.71875 -3.703125 C 8.976562 -4.566406 9.109375 -5.566406 9.109375 -6.703125 C 9.109375 -7.847656 8.976562 -8.847656 8.71875 -9.703125 C 8.457031 -10.566406 8.070312 -11.234375 7.5625 -11.703125 C 7.0625 -12.179688 6.4375 -12.421875 5.6875 -12.421875 C 4.945312 -12.421875 4.320312 -12.179688 3.8125 -11.703125 C 3.3125 -11.234375 2.929688 -10.566406 2.671875 -9.703125 C 2.410156 -8.847656 2.28125 -7.847656 2.28125 -6.703125 C 2.28125 -5.566406 2.410156 -4.566406 2.671875 -3.703125 C 2.929688 -2.835938 3.3125 -2.171875 3.8125 -1.703125 C 4.320312 -1.234375 4.945312 -1 5.6875 -1 Z M 5.6875 -1 "/></g></g></g></g></g></g><g clip-path="url(#83c89c354f)"><g transform="matrix(1, 0, 0, 1, 757, 600)"><g clip-path="url(#9d6564a8a8)"><g fill="#201f1f" fill-opacity="1"><g transform="translate(0.620259, 20.164709)"><g><path d="M 1.703125 -1.96875 C 1.765625 -1.96875 1.832031 -1.953125 1.90625 -1.921875 C 1.976562 -1.898438 2.0625 -1.847656 2.15625 -1.765625 C 2.425781 -1.484375 2.742188 -1.269531 3.109375 -1.125 C 3.484375 -0.976562 3.910156 -0.90625 4.390625 -0.90625 C 5.015625 -0.90625 5.582031 -1.039062 6.09375 -1.3125 C 6.613281 -1.59375 7.023438 -1.984375 7.328125 -2.484375 C 7.640625 -2.992188 7.796875 -3.578125 7.796875 -4.234375 C 7.796875 -4.972656 7.628906 -5.566406 7.296875 -6.015625 C 6.972656 -6.472656 6.554688 -6.8125 6.046875 -7.03125 C 5.546875 -7.257812 5.035156 -7.375 4.515625 -7.375 C 4.378906 -7.375 4.242188 -7.363281 4.109375 -7.34375 C 3.972656 -7.320312 3.847656 -7.296875 3.734375 -7.265625 C 3.617188 -7.242188 3.53125 -7.234375 3.46875 -7.234375 C 3.300781 -7.234375 3.171875 -7.285156 3.078125 -7.390625 C 2.992188 -7.503906 2.953125 -7.644531 2.953125 -7.8125 C 2.953125 -7.894531 2.96875 -7.972656 3 -8.046875 C 3.039062 -8.117188 3.09375 -8.195312 3.15625 -8.28125 L 7.046875 -12.515625 L 7.28125 -12.21875 L 1.46875 -12.21875 C 1.320312 -12.21875 1.191406 -12.269531 1.078125 -12.375 C 0.972656 -12.476562 0.921875 -12.609375 0.921875 -12.765625 C 0.921875 -12.921875 0.972656 -13.046875 1.078125 -13.140625 C 1.191406 -13.242188 1.320312 -13.296875 1.46875 -13.296875 L 7.90625 -13.296875 C 8.125 -13.296875 8.273438 -13.226562 8.359375 -13.09375 C 8.453125 -12.96875 8.5 -12.835938 8.5 -12.703125 C 8.5 -12.628906 8.476562 -12.554688 8.4375 -12.484375 C 8.40625 -12.421875 8.351562 -12.347656 8.28125 -12.265625 L 4.40625 -8.046875 L 3.984375 -8.28125 C 4.015625 -8.320312 4.140625 -8.363281 4.359375 -8.40625 C 4.585938 -8.457031 4.769531 -8.484375 4.90625 -8.484375 C 5.601562 -8.484375 6.257812 -8.316406 6.875 -7.984375 C 7.5 -7.648438 8.003906 -7.171875 8.390625 -6.546875 C 8.785156 -5.929688 8.984375 -5.171875 8.984375 -4.265625 C 8.984375 -3.367188 8.769531 -2.585938 8.34375 -1.921875 C 7.925781 -1.253906 7.359375 -0.734375 6.640625 -0.359375 C 5.921875 0.00390625 5.128906 0.1875 4.265625 0.1875 C 3.742188 0.1875 3.226562 0.0976562 2.71875 -0.078125 C 2.207031 -0.253906 1.757812 -0.519531 1.375 -0.875 C 1.289062 -0.957031 1.226562 -1.035156 1.1875 -1.109375 C 1.144531 -1.179688 1.125 -1.257812 1.125 -1.34375 C 1.125 -1.488281 1.175781 -1.628906 1.28125 -1.765625 C 1.394531 -1.898438 1.535156 -1.96875 1.703125 -1.96875 Z M 1.703125 -1.96875 "/></g></g></g><g fill="#201f1f" fill-opacity="1"><g transform="translate(10.647186, 20.164709)"><g><path d="M 4.328125 0 C 4.148438 0 4.003906 -0.0546875 3.890625 -0.171875 C 3.773438 -0.285156 3.71875 -0.421875 3.71875 -0.578125 L 3.71875 -12.09375 L 3.921875 -11.90625 L 1.375 -10.203125 C 1.269531 -10.128906 1.160156 -10.09375 1.046875 -10.09375 C 0.898438 -10.09375 0.765625 -10.15625 0.640625 -10.28125 C 0.515625 -10.40625 0.453125 -10.546875 0.453125 -10.703125 C 0.453125 -10.898438 0.554688 -11.054688 0.765625 -11.171875 L 3.96875 -13.296875 C 4.039062 -13.347656 4.117188 -13.378906 4.203125 -13.390625 C 4.285156 -13.410156 4.359375 -13.414062 4.421875 -13.40625 C 4.585938 -13.382812 4.710938 -13.316406 4.796875 -13.203125 C 4.890625 -13.097656 4.9375 -12.972656 4.9375 -12.828125 L 4.9375 -0.578125 C 4.9375 -0.421875 4.878906 -0.285156 4.765625 -0.171875 C 4.648438 -0.0546875 4.503906 0 4.328125 0 Z M 4.328125 0 "/></g></g></g></g></g></g><path stroke-linecap="butt" transform="matrix(0.75, 0, 0, 0.75, 0.0000031164, 0.00002)" fill-opacity="1" fill="#000000" fill-rule="nonzero" stroke-linejoin="miter" d="M 0.802079 1.609348 L 0.802079 998.390647 M 168.562504 1.609348 L 168.562504 998.390647 M 336.322929 1.609348 L 336.322929 998.390647 M 504.078145 1.609348 L 504.078145 998.390647 M 671.83857 1.609348 L 671.83857 998.390647 M 839.598995 1.609348 L 839.598995 998.390647 M 1007.354212 1.609348 L 1007.354212 998.390647 M 1175.114636 1.609348 L 1175.114636 998.390647 M -0.0000041552 0.802057 L 1175.91672 0.802057 M -0.0000041552 200.484358 L 1175.91672 200.484358 M -0.0000041552 400.161451 L 1175.91672 400.161451 M -0.0000041552 599.838544 L 1175.91672 599.838544 M -0.0000041552 799.515637 L 1175.91672 799.515637 M -0.0000041552 999.197939 L 1175.91672 999.197939 " stroke="#000000" stroke-width="1.608753" stroke-opacity="1" stroke-miterlimit="4"/></svg>