<svg xmlns="http://www.w3.org/2000/svg" xmlns:xlink="http://www.w3.org/1999/xlink" width="600" zoomAndPan="magnify" viewBox="0 0 450 112.499997" height="150" preserveAspectRatio="xMidYMid meet" version="1.0"><defs><g/></defs><g fill="#000000" fill-opacity="1"><g transform="translate(130.872853, 77.340986)"><g><path d="M 20.890625 0.796875 C 17.515625 0.796875 14.488281 -0.140625 11.8125 -2.015625 C 9.132812 -3.890625 7.097656 -6.351562 5.703125 -9.40625 C 5.429688 -9.882812 5.296875 -10.3125 5.296875 -10.6875 C 5.296875 -11.382812 5.5625 -11.929688 6.09375 -12.328125 C 6.632812 -12.734375 7.175781 -12.9375 7.71875 -12.9375 C 8.25 -12.9375 8.6875 -12.800781 9.03125 -12.53125 C 9.382812 -12.257812 9.695312 -11.9375 9.96875 -11.5625 C 10.976562 -9.3125 12.445312 -7.488281 14.375 -6.09375 C 16.3125 -4.707031 18.484375 -4.015625 20.890625 -4.015625 C 23.347656 -4.015625 25.515625 -4.535156 27.390625 -5.578125 C 29.265625 -6.628906 30.722656 -8.09375 31.765625 -9.96875 C 32.816406 -11.84375 33.34375 -13.984375 33.34375 -16.390625 L 33.34375 -53.828125 C 33.34375 -54.472656 33.597656 -55.035156 34.109375 -55.515625 C 34.617188 -55.992188 35.21875 -56.234375 35.90625 -56.234375 C 36.65625 -56.234375 37.257812 -55.992188 37.71875 -55.515625 C 38.175781 -55.035156 38.40625 -54.472656 38.40625 -53.828125 L 38.40625 -16.390625 C 38.40625 -13.066406 37.65625 -10.101562 36.15625 -7.5 C 34.65625 -4.90625 32.59375 -2.875 29.96875 -1.40625 C 27.34375 0.0625 24.316406 0.796875 20.890625 0.796875 Z M 20.890625 0.796875 "/></g></g></g><g fill="#000000" fill-opacity="1"><g transform="translate(176.826342, 77.340986)"><g><path d="M 47.328125 -56.234375 C 48.078125 -56.234375 48.664062 -56.003906 49.09375 -55.546875 C 49.519531 -55.097656 49.734375 -54.523438 49.734375 -53.828125 L 49.734375 -20.5625 C 49.734375 -16.601562 48.796875 -13.015625 46.921875 -9.796875 C 45.046875 -6.585938 42.523438 -4.03125 39.359375 -2.125 C 36.203125 -0.226562 32.644531 0.71875 28.6875 0.71875 C 24.71875 0.71875 21.140625 -0.226562 17.953125 -2.125 C 14.765625 -4.03125 12.234375 -6.585938 10.359375 -9.796875 C 8.484375 -13.015625 7.546875 -16.601562 7.546875 -20.5625 L 7.546875 -53.828125 C 7.546875 -54.523438 7.773438 -55.097656 8.234375 -55.546875 C 8.691406 -56.003906 9.320312 -56.234375 10.125 -56.234375 C 10.769531 -56.234375 11.332031 -56.003906 11.8125 -55.546875 C 12.289062 -55.097656 12.53125 -54.523438 12.53125 -53.828125 L 12.53125 -20.5625 C 12.53125 -17.457031 13.265625 -14.671875 14.734375 -12.203125 C 16.210938 -9.742188 18.179688 -7.773438 20.640625 -6.296875 C 23.109375 -4.828125 25.789062 -4.09375 28.6875 -4.09375 C 31.6875 -4.09375 34.414062 -4.828125 36.875 -6.296875 C 39.34375 -7.773438 41.3125 -9.742188 42.78125 -12.203125 C 44.257812 -14.671875 45 -17.457031 45 -20.5625 L 45 -53.828125 C 45 -54.523438 45.210938 -55.097656 45.640625 -55.546875 C 46.066406 -56.003906 46.628906 -56.234375 47.328125 -56.234375 Z M 47.328125 -56.234375 "/></g></g></g><g fill="#000000" fill-opacity="1"><g transform="translate(234.107521, 77.340986)"><g><path d="M 38.640625 -4.734375 C 39.285156 -4.734375 39.847656 -4.503906 40.328125 -4.046875 C 40.816406 -3.597656 41.0625 -3.050781 41.0625 -2.40625 C 41.0625 -1.707031 40.816406 -1.128906 40.328125 -0.671875 C 39.847656 -0.222656 39.285156 0 38.640625 0 L 9.96875 0 C 9.269531 0 8.691406 -0.238281 8.234375 -0.71875 C 7.773438 -1.207031 7.546875 -1.769531 7.546875 -2.40625 L 7.546875 -53.828125 C 7.546875 -54.472656 7.785156 -55.035156 8.265625 -55.515625 C 8.753906 -55.992188 9.375 -56.234375 10.125 -56.234375 C 10.769531 -56.234375 11.34375 -55.992188 11.84375 -55.515625 C 12.351562 -55.035156 12.609375 -54.472656 12.609375 -53.828125 L 12.609375 -3.375 L 11.09375 -4.734375 Z M 38.640625 -4.734375 "/></g></g></g><g fill="#000000" fill-opacity="1"><g transform="translate(272.026905, 77.340986)"><g><path d="M 41.0625 -56.5625 C 41.75 -56.5625 42.320312 -56.304688 42.78125 -55.796875 C 43.238281 -55.285156 43.46875 -54.738281 43.46875 -54.15625 C 43.46875 -53.882812 43.425781 -53.628906 43.34375 -53.390625 C 43.257812 -53.148438 43.140625 -52.894531 42.984375 -52.625 L 24.109375 -26.671875 L 25.0625 -29.8125 L 25.0625 -2.40625 C 25.0625 -1.769531 24.820312 -1.207031 24.34375 -0.71875 C 23.863281 -0.238281 23.273438 0 22.578125 0 C 21.878906 0 21.300781 -0.238281 20.84375 -0.71875 C 20.394531 -1.207031 20.171875 -1.769531 20.171875 -2.40625 L 20.171875 -29.25 L 20.5625 -27.3125 L 2.171875 -52.46875 C 1.953125 -52.726562 1.789062 -53.003906 1.6875 -53.296875 C 1.582031 -53.597656 1.53125 -53.882812 1.53125 -54.15625 C 1.53125 -54.851562 1.8125 -55.425781 2.375 -55.875 C 2.9375 -56.332031 3.507812 -56.5625 4.09375 -56.5625 C 4.894531 -56.5625 5.566406 -56.1875 6.109375 -55.4375 L 23.375 -31.890625 L 22.171875 -32.0625 L 38.96875 -55.4375 C 39.5 -56.1875 40.195312 -56.5625 41.0625 -56.5625 Z M 41.0625 -56.5625 "/></g></g></g></svg>