<svg xmlns="http://www.w3.org/2000/svg" xmlns:xlink="http://www.w3.org/1999/xlink" width="1176" zoomAndPan="magnify" viewBox="0 0 882 749.999995" height="1000" preserveAspectRatio="xMidYMid meet" version="1.0"><defs><g/><clipPath id="c2038dfa9c"><path d="M 254 1.214844 L 262 1.214844 L 262 27 L 254 27 Z M 254 1.214844 " clip-rule="nonzero"/></clipPath><clipPath id="414c821f82"><path d="M 0.160156 6 L 6 6 L 6 21 L 0.160156 21 Z M 0.160156 6 " clip-rule="nonzero"/></clipPath><clipPath id="a7414d02ce"><rect x="0" width="8" y="0" height="26"/></clipPath><clipPath id="75e7ee4ccb"><path d="M 380 1.214844 L 392 1.214844 L 392 27 L 380 27 Z M 380 1.214844 " clip-rule="nonzero"/></clipPath><clipPath id="099e3043d4"><rect x="0" width="12" y="0" height="26"/></clipPath><clipPath id="581766ea3c"><path d="M 505 1.214844 L 517 1.214844 L 517 27 L 505 27 Z M 505 1.214844 " clip-rule="nonzero"/></clipPath><clipPath id="766baff2d0"><rect x="0" width="12" y="0" height="26"/></clipPath><clipPath id="045ef8204d"><path d="M 631 1.214844 L 643 1.214844 L 643 27 L 631 27 Z M 631 1.214844 " clip-rule="nonzero"/></clipPath><clipPath id="41a949f027"><rect x="0" width="12" y="0" height="26"/></clipPath><clipPath id="784fd03bc2"><path d="M 757 1.214844 L 769 1.214844 L 769 27 L 757 27 Z M 757 1.214844 " clip-rule="nonzero"/></clipPath><clipPath id="c58d2f2e77"><rect x="0" width="12" y="0" height="26"/></clipPath><clipPath id="0b63d528a4"><rect x="0" width="12" y="0" height="25"/></clipPath><clipPath id="2d80124613"><rect x="0" width="11" y="0" height="25"/></clipPath><clipPath id="a14783062d"><rect x="0" width="12" y="0" height="25"/></clipPath><clipPath id="c852aee536"><rect x="0" width="12" y="0" height="25"/></clipPath><clipPath id="f9719e991a"><rect x="0" width="20" y="0" height="25"/></clipPath><clipPath id="306d69641f"><rect x="0" width="16" y="0" height="25"/></clipPath><clipPath id="42218d4244"><rect x="0" width="19" y="0" height="25"/></clipPath><clipPath id="fbeca70b73"><rect x="0" width="19" y="0" height="25"/></clipPath><clipPath id="701532b3f9"><path d="M 0.398438 6 L 6 6 L 6 20 L 0.398438 20 Z M 0.398438 6 " clip-rule="nonzero"/></clipPath><clipPath id="660f7d0e8b"><rect x="0" width="19" y="0" height="25"/></clipPath><clipPath id="b2010feca1"><path d="M 0.160156 6 L 6 6 L 6 20 L 0.160156 20 Z M 0.160156 6 " clip-rule="nonzero"/></clipPath><clipPath id="5cc7dd8dd0"><rect x="0" width="19" y="0" height="25"/></clipPath><clipPath id="a3645404ca"><path d="M 0.160156 6 L 6 6 L 6 20 L 0.160156 20 Z M 0.160156 6 " clip-rule="nonzero"/></clipPath><clipPath id="e5971ee4cc"><path d="M 8 5 L 17.921875 5 L 17.921875 20 L 8 20 Z M 8 5 " clip-rule="nonzero"/></clipPath><clipPath id="50e6cfe20b"><rect x="0" width="18" y="0" height="25"/></clipPath><clipPath id="2d04b4c101"><rect x="0" width="19" y="0" height="25"/></clipPath><clipPath id="9d4e5e7e77"><rect x="0" width="19" y="0" height="25"/></clipPath><clipPath id="c0bfd0200c"><rect x="0" width="19" y="0" height="25"/></clipPath><clipPath id="d08946cc95"><path d="M 2 450.484375 L 26 450.484375 L 26 476 L 2 476 Z M 2 450.484375 " clip-rule="nonzero"/></clipPath><clipPath id="7997336b65"><rect x="0" width="24" y="0" height="26"/></clipPath><clipPath id="832a750f7b"><path d="M 128 450.484375 L 147 450.484375 L 147 476 L 128 476 Z M 128 450.484375 " clip-rule="nonzero"/></clipPath><clipPath id="10e7d82fc9"><rect x="0" width="19" y="0" height="26"/></clipPath><clipPath id="81997c61fd"><path d="M 254 450.484375 L 277 450.484375 L 277 476 L 254 476 Z M 254 450.484375 " clip-rule="nonzero"/></clipPath><clipPath id="f9b66a74d3"><rect x="0" width="23" y="0" height="26"/></clipPath><clipPath id="2660e6ef2b"><path d="M 380 450.484375 L 402 450.484375 L 402 476 L 380 476 Z M 380 450.484375 " clip-rule="nonzero"/></clipPath><clipPath id="cd7326baed"><rect x="0" width="22" y="0" height="26"/></clipPath><clipPath id="ef4360ce64"><path d="M 505 450.484375 L 528 450.484375 L 528 476 L 505 476 Z M 505 450.484375 " clip-rule="nonzero"/></clipPath><clipPath id="112e1691a6"><rect x="0" width="23" y="0" height="26"/></clipPath><clipPath id="ed17665b4d"><path d="M 631 450.484375 L 654 450.484375 L 654 476 L 631 476 Z M 631 450.484375 " clip-rule="nonzero"/></clipPath><clipPath id="866cb45f7c"><rect x="0" width="23" y="0" height="26"/></clipPath><clipPath id="0cfc2307c5"><path d="M 757 450.484375 L 780 450.484375 L 780 476 L 757 476 Z M 757 450.484375 " clip-rule="nonzero"/></clipPath><clipPath id="af2aca1f20"><rect x="0" width="23" y="0" height="26"/></clipPath><clipPath id="28422479b2"><path d="M 2 600.242188 L 24 600.242188 L 24 626 L 2 626 Z M 2 600.242188 " clip-rule="nonzero"/></clipPath><clipPath id="dd56fce071"><rect x="0" width="22" y="0" height="26"/></clipPath><clipPath id="bad79bb504"><path d="M 128 600.242188 L 150 600.242188 L 150 626 L 128 626 Z M 128 600.242188 " clip-rule="nonzero"/></clipPath><clipPath id="50baa02bc1"><rect x="0" width="22" y="0" height="26"/></clipPath><clipPath id="cc8f2babc2"><path d="M 254 600.242188 L 277 600.242188 L 277 626 L 254 626 Z M 254 600.242188 " clip-rule="nonzero"/></clipPath><clipPath id="b399dd29cd"><rect x="0" width="23" y="0" height="26"/></clipPath><clipPath id="8d62fb1c1c"><path d="M 380 600.242188 L 403 600.242188 L 403 626 L 380 626 Z M 380 600.242188 " clip-rule="nonzero"/></clipPath><clipPath id="03d0896696"><rect x="0" width="23" y="0" height="26"/></clipPath><clipPath id="209e4543f8"><path d="M 505 600.242188 L 524 600.242188 L 524 626 L 505 626 Z M 505 600.242188 " clip-rule="nonzero"/></clipPath><clipPath id="444da3c6cc"><rect x="0" width="19" y="0" height="26"/></clipPath></defs><g clip-path="url(#c2038dfa9c)"><g transform="matrix(1, 0, 0, 1, 254, 1)"><g clip-path="url(#a7414d02ce)"><g clip-path="url(#414c821f82)"><g fill="#201f1f" fill-opacity="1"><g transform="translate(0.349952, 20.25471)"><g><path d="M 4.359375 0 C 4.171875 0 4.019531 -0.0546875 3.90625 -0.171875 C 3.789062 -0.285156 3.734375 -0.421875 3.734375 -0.578125 L 3.734375 -12.171875 L 3.953125 -11.984375 L 1.390625 -10.265625 C 1.285156 -10.191406 1.175781 -10.15625 1.0625 -10.15625 C 0.90625 -10.15625 0.765625 -10.21875 0.640625 -10.34375 C 0.523438 -10.46875 0.46875 -10.609375 0.46875 -10.765625 C 0.46875 -10.972656 0.566406 -11.132812 0.765625 -11.25 L 3.984375 -13.390625 C 4.066406 -13.441406 4.148438 -13.472656 4.234375 -13.484375 C 4.316406 -13.492188 4.390625 -13.492188 4.453125 -13.484375 C 4.617188 -13.472656 4.742188 -13.410156 4.828125 -13.296875 C 4.921875 -13.191406 4.96875 -13.0625 4.96875 -12.90625 L 4.96875 -0.578125 C 4.96875 -0.421875 4.910156 -0.285156 4.796875 -0.171875 C 4.679688 -0.0546875 4.535156 0 4.359375 0 Z M 4.359375 0 "/></g></g></g></g></g></g></g><g clip-path="url(#75e7ee4ccb)"><g transform="matrix(1, 0, 0, 1, 380, 1)"><g clip-path="url(#099e3043d4)"><g fill="#201f1f" fill-opacity="1"><g transform="translate(0.167807, 20.25471)"><g><path d="M 9.125 -1.125 C 9.28125 -1.125 9.410156 -1.066406 9.515625 -0.953125 C 9.628906 -0.847656 9.6875 -0.71875 9.6875 -0.5625 C 9.6875 -0.394531 9.628906 -0.257812 9.515625 -0.15625 C 9.410156 -0.0507812 9.28125 0 9.125 0 L 1.90625 0 C 1.738281 0 1.59375 -0.046875 1.46875 -0.140625 C 1.351562 -0.234375 1.296875 -0.378906 1.296875 -0.578125 C 1.296875 -0.722656 1.34375 -0.859375 1.4375 -0.984375 L 5.890625 -5.890625 C 6.597656 -6.660156 7.128906 -7.367188 7.484375 -8.015625 C 7.835938 -8.671875 8.015625 -9.253906 8.015625 -9.765625 C 8.015625 -10.617188 7.753906 -11.300781 7.234375 -11.8125 C 6.722656 -12.320312 6.03125 -12.578125 5.15625 -12.578125 C 4.757812 -12.578125 4.363281 -12.492188 3.96875 -12.328125 C 3.582031 -12.160156 3.238281 -11.941406 2.9375 -11.671875 C 2.632812 -11.398438 2.398438 -11.09375 2.234375 -10.75 C 2.160156 -10.625 2.082031 -10.535156 2 -10.484375 C 1.914062 -10.429688 1.820312 -10.40625 1.71875 -10.40625 C 1.5625 -10.40625 1.425781 -10.453125 1.3125 -10.546875 C 1.195312 -10.640625 1.140625 -10.757812 1.140625 -10.90625 C 1.140625 -11 1.160156 -11.085938 1.203125 -11.171875 C 1.242188 -11.265625 1.3125 -11.367188 1.40625 -11.484375 C 1.632812 -11.878906 1.953125 -12.242188 2.359375 -12.578125 C 2.773438 -12.910156 3.238281 -13.175781 3.75 -13.375 C 4.257812 -13.570312 4.753906 -13.671875 5.234375 -13.671875 C 6.054688 -13.671875 6.765625 -13.515625 7.359375 -13.203125 C 7.960938 -12.890625 8.425781 -12.445312 8.75 -11.875 C 9.082031 -11.300781 9.25 -10.625 9.25 -9.84375 C 9.25 -9.175781 9.039062 -8.445312 8.625 -7.65625 C 8.207031 -6.863281 7.585938 -6.015625 6.765625 -5.109375 L 3 -0.890625 L 2.8125 -1.125 Z M 9.125 -1.125 "/></g></g></g></g></g></g><g clip-path="url(#581766ea3c)"><g transform="matrix(1, 0, 0, 1, 505, 1)"><g clip-path="url(#766baff2d0)"><g fill="#201f1f" fill-opacity="1"><g transform="translate(0.985603, 20.25471)"><g><path d="M 1.71875 -1.984375 C 1.78125 -1.984375 1.84375 -1.96875 1.90625 -1.9375 C 1.976562 -1.914062 2.066406 -1.859375 2.171875 -1.765625 C 2.441406 -1.484375 2.765625 -1.269531 3.140625 -1.125 C 3.515625 -0.976562 3.9375 -0.90625 4.40625 -0.90625 C 5.039062 -0.90625 5.617188 -1.046875 6.140625 -1.328125 C 6.660156 -1.609375 7.070312 -2.003906 7.375 -2.515625 C 7.6875 -3.023438 7.84375 -3.601562 7.84375 -4.25 C 7.84375 -5 7.675781 -5.601562 7.34375 -6.0625 C 7.019531 -6.519531 6.601562 -6.859375 6.09375 -7.078125 C 5.59375 -7.304688 5.078125 -7.421875 4.546875 -7.421875 C 4.398438 -7.421875 4.257812 -7.410156 4.125 -7.390625 C 4 -7.367188 3.875 -7.34375 3.75 -7.3125 C 3.632812 -7.289062 3.546875 -7.28125 3.484375 -7.28125 C 3.316406 -7.28125 3.1875 -7.332031 3.09375 -7.4375 C 3.007812 -7.550781 2.96875 -7.691406 2.96875 -7.859375 C 2.96875 -7.953125 2.984375 -8.03125 3.015625 -8.09375 C 3.054688 -8.164062 3.109375 -8.25 3.171875 -8.34375 L 7.09375 -12.59375 L 7.328125 -12.296875 L 1.484375 -12.296875 C 1.328125 -12.296875 1.191406 -12.347656 1.078125 -12.453125 C 0.972656 -12.566406 0.921875 -12.695312 0.921875 -12.84375 C 0.921875 -13 0.972656 -13.128906 1.078125 -13.234375 C 1.191406 -13.335938 1.328125 -13.390625 1.484375 -13.390625 L 7.953125 -13.390625 C 8.171875 -13.390625 8.320312 -13.320312 8.40625 -13.1875 C 8.5 -13.050781 8.546875 -12.921875 8.546875 -12.796875 C 8.546875 -12.710938 8.523438 -12.632812 8.484375 -12.5625 C 8.453125 -12.5 8.40625 -12.425781 8.34375 -12.34375 L 4.4375 -8.09375 L 4 -8.34375 C 4.039062 -8.382812 4.171875 -8.425781 4.390625 -8.46875 C 4.617188 -8.507812 4.800781 -8.53125 4.9375 -8.53125 C 5.632812 -8.53125 6.296875 -8.363281 6.921875 -8.03125 C 7.546875 -7.695312 8.050781 -7.21875 8.4375 -6.59375 C 8.832031 -5.976562 9.03125 -5.210938 9.03125 -4.296875 C 9.03125 -3.398438 8.816406 -2.613281 8.390625 -1.9375 C 7.972656 -1.257812 7.40625 -0.734375 6.6875 -0.359375 C 5.96875 0.00390625 5.171875 0.1875 4.296875 0.1875 C 3.765625 0.1875 3.242188 0.0976562 2.734375 -0.078125 C 2.222656 -0.253906 1.773438 -0.523438 1.390625 -0.890625 C 1.296875 -0.960938 1.226562 -1.035156 1.1875 -1.109375 C 1.15625 -1.191406 1.140625 -1.269531 1.140625 -1.34375 C 1.140625 -1.5 1.191406 -1.644531 1.296875 -1.78125 C 1.410156 -1.914062 1.550781 -1.984375 1.71875 -1.984375 Z M 1.71875 -1.984375 "/></g></g></g></g></g></g><g clip-path="url(#045ef8204d)"><g transform="matrix(1, 0, 0, 1, 631, 1)"><g clip-path="url(#41a949f027)"><g fill="#201f1f" fill-opacity="1"><g transform="translate(0.803488, 20.25471)"><g><path d="M 7.078125 0 C 6.898438 0 6.757812 -0.0546875 6.65625 -0.171875 C 6.5625 -0.285156 6.515625 -0.421875 6.515625 -0.578125 L 6.515625 -11.890625 L 6.765625 -11.734375 L 1.703125 -5.03125 L 1.640625 -5.234375 L 9.03125 -5.234375 C 9.1875 -5.234375 9.316406 -5.179688 9.421875 -5.078125 C 9.535156 -4.984375 9.59375 -4.859375 9.59375 -4.703125 C 9.59375 -4.546875 9.535156 -4.414062 9.421875 -4.3125 C 9.316406 -4.207031 9.1875 -4.15625 9.03125 -4.15625 L 0.84375 -4.15625 C 0.6875 -4.15625 0.550781 -4.21875 0.4375 -4.34375 C 0.320312 -4.46875 0.265625 -4.609375 0.265625 -4.765625 C 0.265625 -4.898438 0.3125 -5.023438 0.40625 -5.140625 L 6.609375 -13.25 C 6.671875 -13.34375 6.75 -13.40625 6.84375 -13.4375 C 6.945312 -13.46875 7.03125 -13.484375 7.09375 -13.484375 C 7.257812 -13.484375 7.394531 -13.425781 7.5 -13.3125 C 7.613281 -13.195312 7.671875 -13.0625 7.671875 -12.90625 L 7.671875 -0.578125 C 7.671875 -0.421875 7.613281 -0.285156 7.5 -0.171875 C 7.382812 -0.0546875 7.242188 0 7.078125 0 Z M 7.078125 0 "/></g></g></g></g></g></g><g clip-path="url(#784fd03bc2)"><g transform="matrix(1, 0, 0, 1, 757, 1)"><g clip-path="url(#c58d2f2e77)"><g fill="#201f1f" fill-opacity="1"><g transform="translate(0.621372, 20.25471)"><g><path d="M 4.515625 0.03125 C 3.984375 0.03125 3.453125 -0.0507812 2.921875 -0.21875 C 2.390625 -0.394531 1.914062 -0.65625 1.5 -1 C 1.425781 -1.0625 1.363281 -1.140625 1.3125 -1.234375 C 1.269531 -1.328125 1.25 -1.414062 1.25 -1.5 C 1.25 -1.632812 1.300781 -1.757812 1.40625 -1.875 C 1.507812 -2 1.644531 -2.0625 1.8125 -2.0625 C 1.945312 -2.0625 2.085938 -2.003906 2.234375 -1.890625 C 2.566406 -1.628906 2.925781 -1.425781 3.3125 -1.28125 C 3.707031 -1.144531 4.109375 -1.078125 4.515625 -1.078125 C 5.265625 -1.078125 5.921875 -1.222656 6.484375 -1.515625 C 7.054688 -1.804688 7.492188 -2.21875 7.796875 -2.75 C 8.109375 -3.28125 8.265625 -3.898438 8.265625 -4.609375 C 8.265625 -5.265625 8.125 -5.832031 7.84375 -6.3125 C 7.5625 -6.789062 7.160156 -7.164062 6.640625 -7.4375 C 6.117188 -7.71875 5.503906 -7.859375 4.796875 -7.859375 C 4.335938 -7.859375 3.914062 -7.785156 3.53125 -7.640625 C 3.15625 -7.503906 2.828125 -7.363281 2.546875 -7.21875 C 2.273438 -7.070312 2.054688 -7 1.890625 -7 C 1.734375 -7 1.609375 -7.035156 1.515625 -7.109375 C 1.421875 -7.179688 1.351562 -7.273438 1.3125 -7.390625 C 1.28125 -7.515625 1.28125 -7.640625 1.3125 -7.765625 L 2.140625 -12.90625 C 2.148438 -13.019531 2.207031 -13.125 2.3125 -13.21875 C 2.425781 -13.320312 2.566406 -13.375 2.734375 -13.375 L 8.53125 -13.375 C 8.6875 -13.375 8.816406 -13.316406 8.921875 -13.203125 C 9.035156 -13.097656 9.09375 -12.96875 9.09375 -12.8125 C 9.09375 -12.644531 9.035156 -12.503906 8.921875 -12.390625 C 8.816406 -12.285156 8.6875 -12.234375 8.53125 -12.234375 L 3 -12.234375 L 3.171875 -12.40625 L 2.390625 -7.84375 L 2.046875 -8.09375 C 2.210938 -8.21875 2.453125 -8.34375 2.765625 -8.46875 C 3.078125 -8.601562 3.425781 -8.71875 3.8125 -8.8125 C 4.207031 -8.90625 4.625 -8.953125 5.0625 -8.953125 C 5.894531 -8.953125 6.640625 -8.769531 7.296875 -8.40625 C 7.953125 -8.039062 8.46875 -7.535156 8.84375 -6.890625 C 9.226562 -6.242188 9.421875 -5.492188 9.421875 -4.640625 C 9.421875 -3.703125 9.21875 -2.882812 8.8125 -2.1875 C 8.40625 -1.488281 7.835938 -0.941406 7.109375 -0.546875 C 6.378906 -0.160156 5.515625 0.03125 4.515625 0.03125 Z M 4.515625 0.03125 "/></g></g></g></g></g></g><g transform="matrix(1, 0, 0, 1, 2, 151)"><g clip-path="url(#0b63d528a4)"><g fill="#201f1f" fill-opacity="1"><g transform="translate(0.714227, 20.011769)"><g><path d="M 5.53125 0.1875 C 4.78125 0.1875 4.125 0.0546875 3.5625 -0.203125 C 3.007812 -0.472656 2.550781 -0.835938 2.1875 -1.296875 C 1.820312 -1.753906 1.550781 -2.269531 1.375 -2.84375 C 1.207031 -3.425781 1.125 -4.019531 1.125 -4.625 C 1.125 -5.238281 1.195312 -5.898438 1.34375 -6.609375 C 1.5 -7.328125 1.738281 -8.050781 2.0625 -8.78125 C 2.382812 -9.519531 2.78125 -10.210938 3.25 -10.859375 C 3.71875 -11.515625 4.257812 -12.101562 4.875 -12.625 C 5.5 -13.144531 6.207031 -13.554688 7 -13.859375 C 7.082031 -13.878906 7.15625 -13.890625 7.21875 -13.890625 C 7.382812 -13.890625 7.53125 -13.84375 7.65625 -13.75 C 7.78125 -13.664062 7.84375 -13.515625 7.84375 -13.296875 C 7.84375 -13.160156 7.800781 -13.046875 7.71875 -12.953125 C 7.632812 -12.859375 7.519531 -12.785156 7.375 -12.734375 C 6.832031 -12.503906 6.296875 -12.175781 5.765625 -11.75 C 5.242188 -11.320312 4.757812 -10.832031 4.3125 -10.28125 C 3.863281 -9.726562 3.484375 -9.132812 3.171875 -8.5 C 2.859375 -7.863281 2.632812 -7.21875 2.5 -6.5625 L 2.078125 -6.3125 C 2.304688 -6.738281 2.601562 -7.113281 2.96875 -7.4375 C 3.34375 -7.769531 3.765625 -8.035156 4.234375 -8.234375 C 4.710938 -8.429688 5.226562 -8.53125 5.78125 -8.53125 C 6.351562 -8.53125 6.882812 -8.40625 7.375 -8.15625 C 7.863281 -7.914062 8.285156 -7.585938 8.640625 -7.171875 C 8.992188 -6.753906 9.269531 -6.28125 9.46875 -5.75 C 9.664062 -5.226562 9.765625 -4.6875 9.765625 -4.125 C 9.765625 -3.363281 9.582031 -2.65625 9.21875 -2 C 8.851562 -1.34375 8.351562 -0.8125 7.71875 -0.40625 C 7.082031 -0.0078125 6.351562 0.1875 5.53125 0.1875 Z M 5.515625 -0.921875 C 6.097656 -0.921875 6.617188 -1.054688 7.078125 -1.328125 C 7.546875 -1.597656 7.910156 -1.972656 8.171875 -2.453125 C 8.441406 -2.929688 8.578125 -3.488281 8.578125 -4.125 C 8.578125 -4.695312 8.460938 -5.226562 8.234375 -5.71875 C 8.015625 -6.21875 7.679688 -6.625 7.234375 -6.9375 C 6.785156 -7.257812 6.238281 -7.421875 5.59375 -7.421875 C 4.90625 -7.421875 4.3125 -7.265625 3.8125 -6.953125 C 3.320312 -6.648438 2.945312 -6.242188 2.6875 -5.734375 C 2.425781 -5.222656 2.296875 -4.664062 2.296875 -4.0625 C 2.296875 -3.519531 2.421875 -3.007812 2.671875 -2.53125 C 2.929688 -2.050781 3.300781 -1.660156 3.78125 -1.359375 C 4.269531 -1.066406 4.847656 -0.921875 5.515625 -0.921875 Z M 5.515625 -0.921875 "/></g></g></g></g></g><g transform="matrix(1, 0, 0, 1, 128, 151)"><g clip-path="url(#2d80124613)"><g fill="#201f1f" fill-opacity="1"><g transform="translate(0.532082, 20.011769)"><g><path d="M 3.421875 0.0625 C 3.273438 0.0625 3.132812 0.0078125 3 -0.09375 C 2.875 -0.195312 2.8125 -0.328125 2.8125 -0.484375 C 2.8125 -0.566406 2.832031 -0.660156 2.875 -0.765625 L 8 -12.546875 L 8.203125 -12.265625 L 1.703125 -12.265625 C 1.546875 -12.265625 1.410156 -12.316406 1.296875 -12.421875 C 1.191406 -12.535156 1.140625 -12.671875 1.140625 -12.828125 C 1.140625 -12.992188 1.191406 -13.128906 1.296875 -13.234375 C 1.410156 -13.335938 1.546875 -13.390625 1.703125 -13.390625 L 8.765625 -13.390625 C 8.960938 -13.390625 9.101562 -13.335938 9.1875 -13.234375 C 9.28125 -13.128906 9.328125 -13 9.328125 -12.84375 C 9.328125 -12.75 9.304688 -12.65625 9.265625 -12.5625 L 3.96875 -0.328125 C 3.925781 -0.210938 3.851562 -0.117188 3.75 -0.046875 C 3.65625 0.0234375 3.546875 0.0625 3.421875 0.0625 Z M 3.421875 0.0625 "/></g></g></g></g></g><g transform="matrix(1, 0, 0, 1, 254, 151)"><g clip-path="url(#a14783062d)"><g fill="#201f1f" fill-opacity="1"><g transform="translate(0.349952, 20.011769)"><g><path d="M 7.015625 -6.78125 L 6.953125 -6.953125 C 7.390625 -6.785156 7.785156 -6.535156 8.140625 -6.203125 C 8.503906 -5.878906 8.796875 -5.492188 9.015625 -5.046875 C 9.234375 -4.609375 9.34375 -4.128906 9.34375 -3.609375 C 9.34375 -2.910156 9.160156 -2.273438 8.796875 -1.703125 C 8.429688 -1.140625 7.929688 -0.691406 7.296875 -0.359375 C 6.671875 -0.0234375 5.972656 0.140625 5.203125 0.140625 C 4.421875 0.140625 3.71875 -0.0234375 3.09375 -0.359375 C 2.46875 -0.691406 1.972656 -1.140625 1.609375 -1.703125 C 1.242188 -2.273438 1.0625 -2.910156 1.0625 -3.609375 C 1.0625 -4.171875 1.171875 -4.671875 1.390625 -5.109375 C 1.617188 -5.554688 1.914062 -5.929688 2.28125 -6.234375 C 2.644531 -6.546875 3.023438 -6.785156 3.421875 -6.953125 L 3.375 -6.765625 C 3.019531 -6.929688 2.691406 -7.15625 2.390625 -7.4375 C 2.097656 -7.726562 1.851562 -8.078125 1.65625 -8.484375 C 1.46875 -8.890625 1.375 -9.335938 1.375 -9.828125 C 1.375 -10.515625 1.539062 -11.132812 1.875 -11.6875 C 2.21875 -12.238281 2.679688 -12.675781 3.265625 -13 C 3.847656 -13.320312 4.492188 -13.484375 5.203125 -13.484375 C 5.910156 -13.484375 6.546875 -13.320312 7.109375 -13 C 7.679688 -12.675781 8.140625 -12.238281 8.484375 -11.6875 C 8.828125 -11.132812 9 -10.515625 9 -9.828125 C 9 -9.328125 8.898438 -8.875 8.703125 -8.46875 C 8.515625 -8.070312 8.265625 -7.726562 7.953125 -7.4375 C 7.648438 -7.15625 7.335938 -6.9375 7.015625 -6.78125 Z M 2.5625 -9.828125 C 2.5625 -9.316406 2.679688 -8.867188 2.921875 -8.484375 C 3.171875 -8.097656 3.492188 -7.796875 3.890625 -7.578125 C 4.285156 -7.359375 4.722656 -7.25 5.203125 -7.25 C 5.660156 -7.25 6.085938 -7.359375 6.484375 -7.578125 C 6.890625 -7.796875 7.207031 -8.097656 7.4375 -8.484375 C 7.675781 -8.867188 7.796875 -9.316406 7.796875 -9.828125 C 7.796875 -10.585938 7.550781 -11.203125 7.0625 -11.671875 C 6.582031 -12.148438 5.960938 -12.390625 5.203125 -12.390625 C 4.421875 -12.390625 3.785156 -12.148438 3.296875 -11.671875 C 2.804688 -11.203125 2.5625 -10.585938 2.5625 -9.828125 Z M 5.203125 -0.96875 C 6.078125 -0.96875 6.785156 -1.21875 7.328125 -1.71875 C 7.878906 -2.21875 8.15625 -2.847656 8.15625 -3.609375 C 8.15625 -4.117188 8.019531 -4.578125 7.75 -4.984375 C 7.476562 -5.398438 7.113281 -5.722656 6.65625 -5.953125 C 6.207031 -6.179688 5.722656 -6.296875 5.203125 -6.296875 C 4.671875 -6.296875 4.179688 -6.179688 3.734375 -5.953125 C 3.285156 -5.722656 2.925781 -5.398438 2.65625 -4.984375 C 2.382812 -4.578125 2.25 -4.117188 2.25 -3.609375 C 2.25 -2.847656 2.519531 -2.21875 3.0625 -1.71875 C 3.601562 -1.21875 4.316406 -0.96875 5.203125 -0.96875 Z M 5.203125 -0.96875 "/></g></g></g></g></g><g transform="matrix(1, 0, 0, 1, 380, 151)"><g clip-path="url(#c852aee536)"><g fill="#201f1f" fill-opacity="1"><g transform="translate(0.167807, 20.011769)"><g><path d="M 5.34375 -13.703125 C 6.09375 -13.703125 6.75 -13.566406 7.3125 -13.296875 C 7.875 -13.023438 8.332031 -12.660156 8.6875 -12.203125 C 9.050781 -11.742188 9.320312 -11.222656 9.5 -10.640625 C 9.675781 -10.066406 9.765625 -9.476562 9.765625 -8.875 C 9.765625 -8.257812 9.679688 -7.601562 9.515625 -6.90625 C 9.359375 -6.207031 9.125 -5.5 8.8125 -4.78125 C 8.5 -4.070312 8.109375 -3.394531 7.640625 -2.75 C 7.171875 -2.113281 6.617188 -1.535156 5.984375 -1.015625 C 5.359375 -0.503906 4.660156 -0.109375 3.890625 0.171875 C 3.785156 0.203125 3.703125 0.21875 3.640625 0.21875 C 3.484375 0.21875 3.34375 0.160156 3.21875 0.046875 C 3.101562 -0.0546875 3.046875 -0.203125 3.046875 -0.390625 C 3.046875 -0.515625 3.082031 -0.625 3.15625 -0.71875 C 3.238281 -0.8125 3.351562 -0.882812 3.5 -0.9375 C 4.238281 -1.25 4.945312 -1.707031 5.625 -2.3125 C 6.300781 -2.925781 6.882812 -3.632812 7.375 -4.4375 C 7.875 -5.238281 8.207031 -6.070312 8.375 -6.9375 L 8.78125 -7.1875 C 8.5625 -6.769531 8.265625 -6.394531 7.890625 -6.0625 C 7.523438 -5.726562 7.109375 -5.46875 6.640625 -5.28125 C 6.171875 -5.101562 5.660156 -5.015625 5.109375 -5.015625 C 4.285156 -5.015625 3.570312 -5.210938 2.96875 -5.609375 C 2.375 -6.015625 1.914062 -6.550781 1.59375 -7.21875 C 1.28125 -7.882812 1.125 -8.601562 1.125 -9.375 C 1.125 -10.132812 1.304688 -10.84375 1.671875 -11.5 C 2.035156 -12.15625 2.535156 -12.6875 3.171875 -13.09375 C 3.804688 -13.5 4.53125 -13.703125 5.34375 -13.703125 Z M 5.375 -12.578125 C 4.769531 -12.578125 4.234375 -12.441406 3.765625 -12.171875 C 3.304688 -11.898438 2.945312 -11.523438 2.6875 -11.046875 C 2.425781 -10.566406 2.296875 -10.007812 2.296875 -9.375 C 2.296875 -8.8125 2.40625 -8.28125 2.625 -7.78125 C 2.851562 -7.28125 3.191406 -6.878906 3.640625 -6.578125 C 4.085938 -6.273438 4.632812 -6.125 5.28125 -6.125 C 5.96875 -6.125 6.554688 -6.273438 7.046875 -6.578125 C 7.535156 -6.878906 7.914062 -7.28125 8.1875 -7.78125 C 8.457031 -8.28125 8.59375 -8.832031 8.59375 -9.4375 C 8.59375 -9.988281 8.460938 -10.5 8.203125 -10.96875 C 7.953125 -11.445312 7.585938 -11.832031 7.109375 -12.125 C 6.628906 -12.425781 6.050781 -12.578125 5.375 -12.578125 Z M 5.375 -12.578125 "/></g></g></g></g></g><g transform="matrix(1, 0, 0, 1, 505, 151)"><g clip-path="url(#f9719e991a)"><g fill="#201f1f" fill-opacity="1"><g transform="translate(0.985603, 20.011769)"><g><path d="M 4.359375 0 C 4.171875 0 4.019531 -0.0546875 3.90625 -0.171875 C 3.789062 -0.285156 3.734375 -0.421875 3.734375 -0.578125 L 3.734375 -12.171875 L 3.953125 -11.984375 L 1.390625 -10.265625 C 1.285156 -10.191406 1.175781 -10.15625 1.0625 -10.15625 C 0.90625 -10.15625 0.765625 -10.21875 0.640625 -10.34375 C 0.523438 -10.46875 0.46875 -10.609375 0.46875 -10.765625 C 0.46875 -10.972656 0.566406 -11.132812 0.765625 -11.25 L 3.984375 -13.390625 C 4.066406 -13.441406 4.148438 -13.472656 4.234375 -13.484375 C 4.316406 -13.492188 4.390625 -13.492188 4.453125 -13.484375 C 4.617188 -13.472656 4.742188 -13.410156 4.828125 -13.296875 C 4.921875 -13.191406 4.96875 -13.0625 4.96875 -12.90625 L 4.96875 -0.578125 C 4.96875 -0.421875 4.910156 -0.285156 4.796875 -0.171875 C 4.679688 -0.0546875 4.535156 0 4.359375 0 Z M 4.359375 0 "/></g></g></g><g fill="#201f1f" fill-opacity="1"><g transform="translate(8.11063, 20.011769)"><g><path d="M 5.71875 0.1875 C 4.695312 0.1875 3.835938 -0.117188 3.140625 -0.734375 C 2.441406 -1.347656 1.921875 -2.175781 1.578125 -3.21875 C 1.234375 -4.269531 1.0625 -5.445312 1.0625 -6.75 C 1.0625 -8.050781 1.234375 -9.222656 1.578125 -10.265625 C 1.921875 -11.316406 2.441406 -12.144531 3.140625 -12.75 C 3.835938 -13.363281 4.695312 -13.671875 5.71875 -13.671875 C 6.769531 -13.671875 7.640625 -13.363281 8.328125 -12.75 C 9.015625 -12.144531 9.53125 -11.316406 9.875 -10.265625 C 10.226562 -9.222656 10.40625 -8.050781 10.40625 -6.75 C 10.40625 -5.445312 10.226562 -4.269531 9.875 -3.21875 C 9.53125 -2.175781 9.015625 -1.347656 8.328125 -0.734375 C 7.640625 -0.117188 6.769531 0.1875 5.71875 0.1875 Z M 5.71875 -1 C 6.476562 -1 7.109375 -1.234375 7.609375 -1.703125 C 8.117188 -2.179688 8.503906 -2.851562 8.765625 -3.71875 C 9.035156 -4.59375 9.171875 -5.601562 9.171875 -6.75 C 9.171875 -7.90625 9.035156 -8.914062 8.765625 -9.78125 C 8.503906 -10.644531 8.117188 -11.3125 7.609375 -11.78125 C 7.109375 -12.257812 6.476562 -12.5 5.71875 -12.5 C 4.976562 -12.5 4.351562 -12.257812 3.84375 -11.78125 C 3.332031 -11.3125 2.945312 -10.644531 2.6875 -9.78125 C 2.425781 -8.914062 2.296875 -7.90625 2.296875 -6.75 C 2.296875 -5.601562 2.425781 -4.59375 2.6875 -3.71875 C 2.945312 -2.851562 3.332031 -2.179688 3.84375 -1.703125 C 4.351562 -1.234375 4.976562 -1 5.71875 -1 Z M 5.71875 -1 "/></g></g></g></g></g><g transform="matrix(1, 0, 0, 1, 631, 151)"><g clip-path="url(#306d69641f)"><g fill="#201f1f" fill-opacity="1"><g transform="translate(0.803488, 20.011769)"><g><path d="M 4.359375 0 C 4.171875 0 4.019531 -0.0546875 3.90625 -0.171875 C 3.789062 -0.285156 3.734375 -0.421875 3.734375 -0.578125 L 3.734375 -12.171875 L 3.953125 -11.984375 L 1.390625 -10.265625 C 1.285156 -10.191406 1.175781 -10.15625 1.0625 -10.15625 C 0.90625 -10.15625 0.765625 -10.21875 0.640625 -10.34375 C 0.523438 -10.46875 0.46875 -10.609375 0.46875 -10.765625 C 0.46875 -10.972656 0.566406 -11.132812 0.765625 -11.25 L 3.984375 -13.390625 C 4.066406 -13.441406 4.148438 -13.472656 4.234375 -13.484375 C 4.316406 -13.492188 4.390625 -13.492188 4.453125 -13.484375 C 4.617188 -13.472656 4.742188 -13.410156 4.828125 -13.296875 C 4.921875 -13.191406 4.96875 -13.0625 4.96875 -12.90625 L 4.96875 -0.578125 C 4.96875 -0.421875 4.910156 -0.285156 4.796875 -0.171875 C 4.679688 -0.0546875 4.535156 0 4.359375 0 Z M 4.359375 0 "/></g></g></g><g fill="#201f1f" fill-opacity="1"><g transform="translate(7.928514, 20.011769)"><g><path d="M 4.359375 0 C 4.171875 0 4.019531 -0.0546875 3.90625 -0.171875 C 3.789062 -0.285156 3.734375 -0.421875 3.734375 -0.578125 L 3.734375 -12.171875 L 3.953125 -11.984375 L 1.390625 -10.265625 C 1.285156 -10.191406 1.175781 -10.15625 1.0625 -10.15625 C 0.90625 -10.15625 0.765625 -10.21875 0.640625 -10.34375 C 0.523438 -10.46875 0.46875 -10.609375 0.46875 -10.765625 C 0.46875 -10.972656 0.566406 -11.132812 0.765625 -11.25 L 3.984375 -13.390625 C 4.066406 -13.441406 4.148438 -13.472656 4.234375 -13.484375 C 4.316406 -13.492188 4.390625 -13.492188 4.453125 -13.484375 C 4.617188 -13.472656 4.742188 -13.410156 4.828125 -13.296875 C 4.921875 -13.191406 4.96875 -13.0625 4.96875 -12.90625 L 4.96875 -0.578125 C 4.96875 -0.421875 4.910156 -0.285156 4.796875 -0.171875 C 4.679688 -0.0546875 4.535156 0 4.359375 0 Z M 4.359375 0 "/></g></g></g></g></g><g transform="matrix(1, 0, 0, 1, 757, 151)"><g clip-path="url(#42218d4244)"><g fill="#201f1f" fill-opacity="1"><g transform="translate(0.621372, 20.011769)"><g><path d="M 4.359375 0 C 4.171875 0 4.019531 -0.0546875 3.90625 -0.171875 C 3.789062 -0.285156 3.734375 -0.421875 3.734375 -0.578125 L 3.734375 -12.171875 L 3.953125 -11.984375 L 1.390625 -10.265625 C 1.285156 -10.191406 1.175781 -10.15625 1.0625 -10.15625 C 0.90625 -10.15625 0.765625 -10.21875 0.640625 -10.34375 C 0.523438 -10.46875 0.46875 -10.609375 0.46875 -10.765625 C 0.46875 -10.972656 0.566406 -11.132812 0.765625 -11.25 L 3.984375 -13.390625 C 4.066406 -13.441406 4.148438 -13.472656 4.234375 -13.484375 C 4.316406 -13.492188 4.390625 -13.492188 4.453125 -13.484375 C 4.617188 -13.472656 4.742188 -13.410156 4.828125 -13.296875 C 4.921875 -13.191406 4.96875 -13.0625 4.96875 -12.90625 L 4.96875 -0.578125 C 4.96875 -0.421875 4.910156 -0.285156 4.796875 -0.171875 C 4.679688 -0.0546875 4.535156 0 4.359375 0 Z M 4.359375 0 "/></g></g></g><g fill="#201f1f" fill-opacity="1"><g transform="translate(7.746399, 20.011769)"><g><path d="M 9.125 -1.125 C 9.28125 -1.125 9.410156 -1.066406 9.515625 -0.953125 C 9.628906 -0.847656 9.6875 -0.71875 9.6875 -0.5625 C 9.6875 -0.394531 9.628906 -0.257812 9.515625 -0.15625 C 9.410156 -0.0507812 9.28125 0 9.125 0 L 1.90625 0 C 1.738281 0 1.59375 -0.046875 1.46875 -0.140625 C 1.351562 -0.234375 1.296875 -0.378906 1.296875 -0.578125 C 1.296875 -0.722656 1.34375 -0.859375 1.4375 -0.984375 L 5.890625 -5.890625 C 6.597656 -6.660156 7.128906 -7.367188 7.484375 -8.015625 C 7.835938 -8.671875 8.015625 -9.253906 8.015625 -9.765625 C 8.015625 -10.617188 7.753906 -11.300781 7.234375 -11.8125 C 6.722656 -12.320312 6.03125 -12.578125 5.15625 -12.578125 C 4.757812 -12.578125 4.363281 -12.492188 3.96875 -12.328125 C 3.582031 -12.160156 3.238281 -11.941406 2.9375 -11.671875 C 2.632812 -11.398438 2.398438 -11.09375 2.234375 -10.75 C 2.160156 -10.625 2.082031 -10.535156 2 -10.484375 C 1.914062 -10.429688 1.820312 -10.40625 1.71875 -10.40625 C 1.5625 -10.40625 1.425781 -10.453125 1.3125 -10.546875 C 1.195312 -10.640625 1.140625 -10.757812 1.140625 -10.90625 C 1.140625 -11 1.160156 -11.085938 1.203125 -11.171875 C 1.242188 -11.265625 1.3125 -11.367188 1.40625 -11.484375 C 1.632812 -11.878906 1.953125 -12.242188 2.359375 -12.578125 C 2.773438 -12.910156 3.238281 -13.175781 3.75 -13.375 C 4.257812 -13.570312 4.753906 -13.671875 5.234375 -13.671875 C 6.054688 -13.671875 6.765625 -13.515625 7.359375 -13.203125 C 7.960938 -12.890625 8.425781 -12.445312 8.75 -11.875 C 9.082031 -11.300781 9.25 -10.625 9.25 -9.84375 C 9.25 -9.175781 9.039062 -8.445312 8.625 -7.65625 C 8.207031 -6.863281 7.585938 -6.015625 6.765625 -5.109375 L 3 -0.890625 L 2.8125 -1.125 Z M 9.125 -1.125 "/></g></g></g></g></g><g transform="matrix(1, 0, 0, 1, 2, 301)"><g clip-path="url(#fbeca70b73)"><g fill="#201f1f" fill-opacity="1"><g transform="translate(0.714227, 19.76895)"><g><path d="M 4.359375 0 C 4.171875 0 4.019531 -0.0546875 3.90625 -0.171875 C 3.789062 -0.285156 3.734375 -0.421875 3.734375 -0.578125 L 3.734375 -12.171875 L 3.953125 -11.984375 L 1.390625 -10.265625 C 1.285156 -10.191406 1.175781 -10.15625 1.0625 -10.15625 C 0.90625 -10.15625 0.765625 -10.21875 0.640625 -10.34375 C 0.523438 -10.46875 0.46875 -10.609375 0.46875 -10.765625 C 0.46875 -10.972656 0.566406 -11.132812 0.765625 -11.25 L 3.984375 -13.390625 C 4.066406 -13.441406 4.148438 -13.472656 4.234375 -13.484375 C 4.316406 -13.492188 4.390625 -13.492188 4.453125 -13.484375 C 4.617188 -13.472656 4.742188 -13.410156 4.828125 -13.296875 C 4.921875 -13.191406 4.96875 -13.0625 4.96875 -12.90625 L 4.96875 -0.578125 C 4.96875 -0.421875 4.910156 -0.285156 4.796875 -0.171875 C 4.679688 -0.0546875 4.535156 0 4.359375 0 Z M 4.359375 0 "/></g></g></g><g fill="#201f1f" fill-opacity="1"><g transform="translate(7.839253, 19.76895)"><g><path d="M 1.71875 -1.984375 C 1.78125 -1.984375 1.84375 -1.96875 1.90625 -1.9375 C 1.976562 -1.914062 2.066406 -1.859375 2.171875 -1.765625 C 2.441406 -1.484375 2.765625 -1.269531 3.140625 -1.125 C 3.515625 -0.976562 3.9375 -0.90625 4.40625 -0.90625 C 5.039062 -0.90625 5.617188 -1.046875 6.140625 -1.328125 C 6.660156 -1.609375 7.070312 -2.003906 7.375 -2.515625 C 7.6875 -3.023438 7.84375 -3.601562 7.84375 -4.25 C 7.84375 -5 7.675781 -5.601562 7.34375 -6.0625 C 7.019531 -6.519531 6.601562 -6.859375 6.09375 -7.078125 C 5.59375 -7.304688 5.078125 -7.421875 4.546875 -7.421875 C 4.398438 -7.421875 4.257812 -7.410156 4.125 -7.390625 C 4 -7.367188 3.875 -7.34375 3.75 -7.3125 C 3.632812 -7.289062 3.546875 -7.28125 3.484375 -7.28125 C 3.316406 -7.28125 3.1875 -7.332031 3.09375 -7.4375 C 3.007812 -7.550781 2.96875 -7.691406 2.96875 -7.859375 C 2.96875 -7.953125 2.984375 -8.03125 3.015625 -8.09375 C 3.054688 -8.164062 3.109375 -8.25 3.171875 -8.34375 L 7.09375 -12.59375 L 7.328125 -12.296875 L 1.484375 -12.296875 C 1.328125 -12.296875 1.191406 -12.347656 1.078125 -12.453125 C 0.972656 -12.566406 0.921875 -12.695312 0.921875 -12.84375 C 0.921875 -13 0.972656 -13.128906 1.078125 -13.234375 C 1.191406 -13.335938 1.328125 -13.390625 1.484375 -13.390625 L 7.953125 -13.390625 C 8.171875 -13.390625 8.320312 -13.320312 8.40625 -13.1875 C 8.5 -13.050781 8.546875 -12.921875 8.546875 -12.796875 C 8.546875 -12.710938 8.523438 -12.632812 8.484375 -12.5625 C 8.453125 -12.5 8.40625 -12.425781 8.34375 -12.34375 L 4.4375 -8.09375 L 4 -8.34375 C 4.039062 -8.382812 4.171875 -8.425781 4.390625 -8.46875 C 4.617188 -8.507812 4.800781 -8.53125 4.9375 -8.53125 C 5.632812 -8.53125 6.296875 -8.363281 6.921875 -8.03125 C 7.546875 -7.695312 8.050781 -7.21875 8.4375 -6.59375 C 8.832031 -5.976562 9.03125 -5.210938 9.03125 -4.296875 C 9.03125 -3.398438 8.816406 -2.613281 8.390625 -1.9375 C 7.972656 -1.257812 7.40625 -0.734375 6.6875 -0.359375 C 5.96875 0.00390625 5.171875 0.1875 4.296875 0.1875 C 3.765625 0.1875 3.242188 0.0976562 2.734375 -0.078125 C 2.222656 -0.253906 1.773438 -0.523438 1.390625 -0.890625 C 1.296875 -0.960938 1.226562 -1.035156 1.1875 -1.109375 C 1.15625 -1.191406 1.140625 -1.269531 1.140625 -1.34375 C 1.140625 -1.5 1.191406 -1.644531 1.296875 -1.78125 C 1.410156 -1.914062 1.550781 -1.984375 1.71875 -1.984375 Z M 1.71875 -1.984375 "/></g></g></g></g></g><g transform="matrix(1, 0, 0, 1, 128, 301)"><g clip-path="url(#660f7d0e8b)"><g clip-path="url(#701532b3f9)"><g fill="#201f1f" fill-opacity="1"><g transform="translate(0.532082, 19.76895)"><g><path d="M 4.359375 0 C 4.171875 0 4.019531 -0.0546875 3.90625 -0.171875 C 3.789062 -0.285156 3.734375 -0.421875 3.734375 -0.578125 L 3.734375 -12.171875 L 3.953125 -11.984375 L 1.390625 -10.265625 C 1.285156 -10.191406 1.175781 -10.15625 1.0625 -10.15625 C 0.90625 -10.15625 0.765625 -10.21875 0.640625 -10.34375 C 0.523438 -10.46875 0.46875 -10.609375 0.46875 -10.765625 C 0.46875 -10.972656 0.566406 -11.132812 0.765625 -11.25 L 3.984375 -13.390625 C 4.066406 -13.441406 4.148438 -13.472656 4.234375 -13.484375 C 4.316406 -13.492188 4.390625 -13.492188 4.453125 -13.484375 C 4.617188 -13.472656 4.742188 -13.410156 4.828125 -13.296875 C 4.921875 -13.191406 4.96875 -13.0625 4.96875 -12.90625 L 4.96875 -0.578125 C 4.96875 -0.421875 4.910156 -0.285156 4.796875 -0.171875 C 4.679688 -0.0546875 4.535156 0 4.359375 0 Z M 4.359375 0 "/></g></g></g></g><g fill="#201f1f" fill-opacity="1"><g transform="translate(7.657108, 19.76895)"><g><path d="M 7.078125 0 C 6.898438 0 6.757812 -0.0546875 6.65625 -0.171875 C 6.5625 -0.285156 6.515625 -0.421875 6.515625 -0.578125 L 6.515625 -11.890625 L 6.765625 -11.734375 L 1.703125 -5.03125 L 1.640625 -5.234375 L 9.03125 -5.234375 C 9.1875 -5.234375 9.316406 -5.179688 9.421875 -5.078125 C 9.535156 -4.984375 9.59375 -4.859375 9.59375 -4.703125 C 9.59375 -4.546875 9.535156 -4.414062 9.421875 -4.3125 C 9.316406 -4.207031 9.1875 -4.15625 9.03125 -4.15625 L 0.84375 -4.15625 C 0.6875 -4.15625 0.550781 -4.21875 0.4375 -4.34375 C 0.320312 -4.46875 0.265625 -4.609375 0.265625 -4.765625 C 0.265625 -4.898438 0.3125 -5.023438 0.40625 -5.140625 L 6.609375 -13.25 C 6.671875 -13.34375 6.75 -13.40625 6.84375 -13.4375 C 6.945312 -13.46875 7.03125 -13.484375 7.09375 -13.484375 C 7.257812 -13.484375 7.394531 -13.425781 7.5 -13.3125 C 7.613281 -13.195312 7.671875 -13.0625 7.671875 -12.90625 L 7.671875 -0.578125 C 7.671875 -0.421875 7.613281 -0.285156 7.5 -0.171875 C 7.382812 -0.0546875 7.242188 0 7.078125 0 Z M 7.078125 0 "/></g></g></g></g></g><g transform="matrix(1, 0, 0, 1, 254, 301)"><g clip-path="url(#5cc7dd8dd0)"><g clip-path="url(#b2010feca1)"><g fill="#201f1f" fill-opacity="1"><g transform="translate(0.349952, 19.76895)"><g><path d="M 4.359375 0 C 4.171875 0 4.019531 -0.0546875 3.90625 -0.171875 C 3.789062 -0.285156 3.734375 -0.421875 3.734375 -0.578125 L 3.734375 -12.171875 L 3.953125 -11.984375 L 1.390625 -10.265625 C 1.285156 -10.191406 1.175781 -10.15625 1.0625 -10.15625 C 0.90625 -10.15625 0.765625 -10.21875 0.640625 -10.34375 C 0.523438 -10.46875 0.46875 -10.609375 0.46875 -10.765625 C 0.46875 -10.972656 0.566406 -11.132812 0.765625 -11.25 L 3.984375 -13.390625 C 4.066406 -13.441406 4.148438 -13.472656 4.234375 -13.484375 C 4.316406 -13.492188 4.390625 -13.492188 4.453125 -13.484375 C 4.617188 -13.472656 4.742188 -13.410156 4.828125 -13.296875 C 4.921875 -13.191406 4.96875 -13.0625 4.96875 -12.90625 L 4.96875 -0.578125 C 4.96875 -0.421875 4.910156 -0.285156 4.796875 -0.171875 C 4.679688 -0.0546875 4.535156 0 4.359375 0 Z M 4.359375 0 "/></g></g></g></g><g fill="#201f1f" fill-opacity="1"><g transform="translate(7.474978, 19.76895)"><g><path d="M 4.515625 0.03125 C 3.984375 0.03125 3.453125 -0.0507812 2.921875 -0.21875 C 2.390625 -0.394531 1.914062 -0.65625 1.5 -1 C 1.425781 -1.0625 1.363281 -1.140625 1.3125 -1.234375 C 1.269531 -1.328125 1.25 -1.414062 1.25 -1.5 C 1.25 -1.632812 1.300781 -1.757812 1.40625 -1.875 C 1.507812 -2 1.644531 -2.0625 1.8125 -2.0625 C 1.945312 -2.0625 2.085938 -2.003906 2.234375 -1.890625 C 2.566406 -1.628906 2.925781 -1.425781 3.3125 -1.28125 C 3.707031 -1.144531 4.109375 -1.078125 4.515625 -1.078125 C 5.265625 -1.078125 5.921875 -1.222656 6.484375 -1.515625 C 7.054688 -1.804688 7.492188 -2.21875 7.796875 -2.75 C 8.109375 -3.28125 8.265625 -3.898438 8.265625 -4.609375 C 8.265625 -5.265625 8.125 -5.832031 7.84375 -6.3125 C 7.5625 -6.789062 7.160156 -7.164062 6.640625 -7.4375 C 6.117188 -7.71875 5.503906 -7.859375 4.796875 -7.859375 C 4.335938 -7.859375 3.914062 -7.785156 3.53125 -7.640625 C 3.15625 -7.503906 2.828125 -7.363281 2.546875 -7.21875 C 2.273438 -7.070312 2.054688 -7 1.890625 -7 C 1.734375 -7 1.609375 -7.035156 1.515625 -7.109375 C 1.421875 -7.179688 1.351562 -7.273438 1.3125 -7.390625 C 1.28125 -7.515625 1.28125 -7.640625 1.3125 -7.765625 L 2.140625 -12.90625 C 2.148438 -13.019531 2.207031 -13.125 2.3125 -13.21875 C 2.425781 -13.320312 2.566406 -13.375 2.734375 -13.375 L 8.53125 -13.375 C 8.6875 -13.375 8.816406 -13.316406 8.921875 -13.203125 C 9.035156 -13.097656 9.09375 -12.96875 9.09375 -12.8125 C 9.09375 -12.644531 9.035156 -12.503906 8.921875 -12.390625 C 8.816406 -12.285156 8.6875 -12.234375 8.53125 -12.234375 L 3 -12.234375 L 3.171875 -12.40625 L 2.390625 -7.84375 L 2.046875 -8.09375 C 2.210938 -8.21875 2.453125 -8.34375 2.765625 -8.46875 C 3.078125 -8.601562 3.425781 -8.71875 3.8125 -8.8125 C 4.207031 -8.90625 4.625 -8.953125 5.0625 -8.953125 C 5.894531 -8.953125 6.640625 -8.769531 7.296875 -8.40625 C 7.953125 -8.039062 8.46875 -7.535156 8.84375 -6.890625 C 9.226562 -6.242188 9.421875 -5.492188 9.421875 -4.640625 C 9.421875 -3.703125 9.21875 -2.882812 8.8125 -2.1875 C 8.40625 -1.488281 7.835938 -0.941406 7.109375 -0.546875 C 6.378906 -0.160156 5.515625 0.03125 4.515625 0.03125 Z M 4.515625 0.03125 "/></g></g></g></g></g><g transform="matrix(1, 0, 0, 1, 380, 301)"><g clip-path="url(#50e6cfe20b)"><g clip-path="url(#a3645404ca)"><g fill="#201f1f" fill-opacity="1"><g transform="translate(0.167807, 19.76895)"><g><path d="M 4.359375 0 C 4.171875 0 4.019531 -0.0546875 3.90625 -0.171875 C 3.789062 -0.285156 3.734375 -0.421875 3.734375 -0.578125 L 3.734375 -12.171875 L 3.953125 -11.984375 L 1.390625 -10.265625 C 1.285156 -10.191406 1.175781 -10.15625 1.0625 -10.15625 C 0.90625 -10.15625 0.765625 -10.21875 0.640625 -10.34375 C 0.523438 -10.46875 0.46875 -10.609375 0.46875 -10.765625 C 0.46875 -10.972656 0.566406 -11.132812 0.765625 -11.25 L 3.984375 -13.390625 C 4.066406 -13.441406 4.148438 -13.472656 4.234375 -13.484375 C 4.316406 -13.492188 4.390625 -13.492188 4.453125 -13.484375 C 4.617188 -13.472656 4.742188 -13.410156 4.828125 -13.296875 C 4.921875 -13.191406 4.96875 -13.0625 4.96875 -12.90625 L 4.96875 -0.578125 C 4.96875 -0.421875 4.910156 -0.285156 4.796875 -0.171875 C 4.679688 -0.0546875 4.535156 0 4.359375 0 Z M 4.359375 0 "/></g></g></g></g><g clip-path="url(#e5971ee4cc)"><g fill="#201f1f" fill-opacity="1"><g transform="translate(7.292833, 19.76895)"><g><path d="M 5.53125 0.1875 C 4.78125 0.1875 4.125 0.0546875 3.5625 -0.203125 C 3.007812 -0.472656 2.550781 -0.835938 2.1875 -1.296875 C 1.820312 -1.753906 1.550781 -2.269531 1.375 -2.84375 C 1.207031 -3.425781 1.125 -4.019531 1.125 -4.625 C 1.125 -5.238281 1.195312 -5.898438 1.34375 -6.609375 C 1.5 -7.328125 1.738281 -8.050781 2.0625 -8.78125 C 2.382812 -9.519531 2.78125 -10.210938 3.25 -10.859375 C 3.71875 -11.515625 4.257812 -12.101562 4.875 -12.625 C 5.5 -13.144531 6.207031 -13.554688 7 -13.859375 C 7.082031 -13.878906 7.15625 -13.890625 7.21875 -13.890625 C 7.382812 -13.890625 7.53125 -13.84375 7.65625 -13.75 C 7.78125 -13.664062 7.84375 -13.515625 7.84375 -13.296875 C 7.84375 -13.160156 7.800781 -13.046875 7.71875 -12.953125 C 7.632812 -12.859375 7.519531 -12.785156 7.375 -12.734375 C 6.832031 -12.503906 6.296875 -12.175781 5.765625 -11.75 C 5.242188 -11.320312 4.757812 -10.832031 4.3125 -10.28125 C 3.863281 -9.726562 3.484375 -9.132812 3.171875 -8.5 C 2.859375 -7.863281 2.632812 -7.21875 2.5 -6.5625 L 2.078125 -6.3125 C 2.304688 -6.738281 2.601562 -7.113281 2.96875 -7.4375 C 3.34375 -7.769531 3.765625 -8.035156 4.234375 -8.234375 C 4.710938 -8.429688 5.226562 -8.53125 5.78125 -8.53125 C 6.351562 -8.53125 6.882812 -8.40625 7.375 -8.15625 C 7.863281 -7.914062 8.285156 -7.585938 8.640625 -7.171875 C 8.992188 -6.753906 9.269531 -6.28125 9.46875 -5.75 C 9.664062 -5.226562 9.765625 -4.6875 9.765625 -4.125 C 9.765625 -3.363281 9.582031 -2.65625 9.21875 -2 C 8.851562 -1.34375 8.351562 -0.8125 7.71875 -0.40625 C 7.082031 -0.0078125 6.351562 0.1875 5.53125 0.1875 Z M 5.515625 -0.921875 C 6.097656 -0.921875 6.617188 -1.054688 7.078125 -1.328125 C 7.546875 -1.597656 7.910156 -1.972656 8.171875 -2.453125 C 8.441406 -2.929688 8.578125 -3.488281 8.578125 -4.125 C 8.578125 -4.695312 8.460938 -5.226562 8.234375 -5.71875 C 8.015625 -6.21875 7.679688 -6.625 7.234375 -6.9375 C 6.785156 -7.257812 6.238281 -7.421875 5.59375 -7.421875 C 4.90625 -7.421875 4.3125 -7.265625 3.8125 -6.953125 C 3.320312 -6.648438 2.945312 -6.242188 2.6875 -5.734375 C 2.425781 -5.222656 2.296875 -4.664062 2.296875 -4.0625 C 2.296875 -3.519531 2.421875 -3.007812 2.671875 -2.53125 C 2.929688 -2.050781 3.300781 -1.660156 3.78125 -1.359375 C 4.269531 -1.066406 4.847656 -0.921875 5.515625 -0.921875 Z M 5.515625 -0.921875 "/></g></g></g></g></g></g><g transform="matrix(1, 0, 0, 1, 505, 301)"><g clip-path="url(#2d04b4c101)"><g fill="#201f1f" fill-opacity="1"><g transform="translate(0.985603, 19.76895)"><g><path d="M 4.359375 0 C 4.171875 0 4.019531 -0.0546875 3.90625 -0.171875 C 3.789062 -0.285156 3.734375 -0.421875 3.734375 -0.578125 L 3.734375 -12.171875 L 3.953125 -11.984375 L 1.390625 -10.265625 C 1.285156 -10.191406 1.175781 -10.15625 1.0625 -10.15625 C 0.90625 -10.15625 0.765625 -10.21875 0.640625 -10.34375 C 0.523438 -10.46875 0.46875 -10.609375 0.46875 -10.765625 C 0.46875 -10.972656 0.566406 -11.132812 0.765625 -11.25 L 3.984375 -13.390625 C 4.066406 -13.441406 4.148438 -13.472656 4.234375 -13.484375 C 4.316406 -13.492188 4.390625 -13.492188 4.453125 -13.484375 C 4.617188 -13.472656 4.742188 -13.410156 4.828125 -13.296875 C 4.921875 -13.191406 4.96875 -13.0625 4.96875 -12.90625 L 4.96875 -0.578125 C 4.96875 -0.421875 4.910156 -0.285156 4.796875 -0.171875 C 4.679688 -0.0546875 4.535156 0 4.359375 0 Z M 4.359375 0 "/></g></g></g><g fill="#201f1f" fill-opacity="1"><g transform="translate(8.11063, 19.76895)"><g><path d="M 3.421875 0.0625 C 3.273438 0.0625 3.132812 0.0078125 3 -0.09375 C 2.875 -0.195312 2.8125 -0.328125 2.8125 -0.484375 C 2.8125 -0.566406 2.832031 -0.660156 2.875 -0.765625 L 8 -12.546875 L 8.203125 -12.265625 L 1.703125 -12.265625 C 1.546875 -12.265625 1.410156 -12.316406 1.296875 -12.421875 C 1.191406 -12.535156 1.140625 -12.671875 1.140625 -12.828125 C 1.140625 -12.992188 1.191406 -13.128906 1.296875 -13.234375 C 1.410156 -13.335938 1.546875 -13.390625 1.703125 -13.390625 L 8.765625 -13.390625 C 8.960938 -13.390625 9.101562 -13.335938 9.1875 -13.234375 C 9.28125 -13.128906 9.328125 -13 9.328125 -12.84375 C 9.328125 -12.75 9.304688 -12.65625 9.265625 -12.5625 L 3.96875 -0.328125 C 3.925781 -0.210938 3.851562 -0.117188 3.75 -0.046875 C 3.65625 0.0234375 3.546875 0.0625 3.421875 0.0625 Z M 3.421875 0.0625 "/></g></g></g></g></g><g transform="matrix(1, 0, 0, 1, 631, 301)"><g clip-path="url(#9d4e5e7e77)"><g fill="#201f1f" fill-opacity="1"><g transform="translate(0.803488, 19.76895)"><g><path d="M 4.359375 0 C 4.171875 0 4.019531 -0.0546875 3.90625 -0.171875 C 3.789062 -0.285156 3.734375 -0.421875 3.734375 -0.578125 L 3.734375 -12.171875 L 3.953125 -11.984375 L 1.390625 -10.265625 C 1.285156 -10.191406 1.175781 -10.15625 1.0625 -10.15625 C 0.90625 -10.15625 0.765625 -10.21875 0.640625 -10.34375 C 0.523438 -10.46875 0.46875 -10.609375 0.46875 -10.765625 C 0.46875 -10.972656 0.566406 -11.132812 0.765625 -11.25 L 3.984375 -13.390625 C 4.066406 -13.441406 4.148438 -13.472656 4.234375 -13.484375 C 4.316406 -13.492188 4.390625 -13.492188 4.453125 -13.484375 C 4.617188 -13.472656 4.742188 -13.410156 4.828125 -13.296875 C 4.921875 -13.191406 4.96875 -13.0625 4.96875 -12.90625 L 4.96875 -0.578125 C 4.96875 -0.421875 4.910156 -0.285156 4.796875 -0.171875 C 4.679688 -0.0546875 4.535156 0 4.359375 0 Z M 4.359375 0 "/></g></g></g><g fill="#201f1f" fill-opacity="1"><g transform="translate(7.928514, 19.76895)"><g><path d="M 7.015625 -6.78125 L 6.953125 -6.953125 C 7.390625 -6.785156 7.785156 -6.535156 8.140625 -6.203125 C 8.503906 -5.878906 8.796875 -5.492188 9.015625 -5.046875 C 9.234375 -4.609375 9.34375 -4.128906 9.34375 -3.609375 C 9.34375 -2.910156 9.160156 -2.273438 8.796875 -1.703125 C 8.429688 -1.140625 7.929688 -0.691406 7.296875 -0.359375 C 6.671875 -0.0234375 5.972656 0.140625 5.203125 0.140625 C 4.421875 0.140625 3.71875 -0.0234375 3.09375 -0.359375 C 2.46875 -0.691406 1.972656 -1.140625 1.609375 -1.703125 C 1.242188 -2.273438 1.0625 -2.910156 1.0625 -3.609375 C 1.0625 -4.171875 1.171875 -4.671875 1.390625 -5.109375 C 1.617188 -5.554688 1.914062 -5.929688 2.28125 -6.234375 C 2.644531 -6.546875 3.023438 -6.785156 3.421875 -6.953125 L 3.375 -6.765625 C 3.019531 -6.929688 2.691406 -7.15625 2.390625 -7.4375 C 2.097656 -7.726562 1.851562 -8.078125 1.65625 -8.484375 C 1.46875 -8.890625 1.375 -9.335938 1.375 -9.828125 C 1.375 -10.515625 1.539062 -11.132812 1.875 -11.6875 C 2.21875 -12.238281 2.679688 -12.675781 3.265625 -13 C 3.847656 -13.320312 4.492188 -13.484375 5.203125 -13.484375 C 5.910156 -13.484375 6.546875 -13.320312 7.109375 -13 C 7.679688 -12.675781 8.140625 -12.238281 8.484375 -11.6875 C 8.828125 -11.132812 9 -10.515625 9 -9.828125 C 9 -9.328125 8.898438 -8.875 8.703125 -8.46875 C 8.515625 -8.070312 8.265625 -7.726562 7.953125 -7.4375 C 7.648438 -7.15625 7.335938 -6.9375 7.015625 -6.78125 Z M 2.5625 -9.828125 C 2.5625 -9.316406 2.679688 -8.867188 2.921875 -8.484375 C 3.171875 -8.097656 3.492188 -7.796875 3.890625 -7.578125 C 4.285156 -7.359375 4.722656 -7.25 5.203125 -7.25 C 5.660156 -7.25 6.085938 -7.359375 6.484375 -7.578125 C 6.890625 -7.796875 7.207031 -8.097656 7.4375 -8.484375 C 7.675781 -8.867188 7.796875 -9.316406 7.796875 -9.828125 C 7.796875 -10.585938 7.550781 -11.203125 7.0625 -11.671875 C 6.582031 -12.148438 5.960938 -12.390625 5.203125 -12.390625 C 4.421875 -12.390625 3.785156 -12.148438 3.296875 -11.671875 C 2.804688 -11.203125 2.5625 -10.585938 2.5625 -9.828125 Z M 5.203125 -0.96875 C 6.078125 -0.96875 6.785156 -1.21875 7.328125 -1.71875 C 7.878906 -2.21875 8.15625 -2.847656 8.15625 -3.609375 C 8.15625 -4.117188 8.019531 -4.578125 7.75 -4.984375 C 7.476562 -5.398438 7.113281 -5.722656 6.65625 -5.953125 C 6.207031 -6.179688 5.722656 -6.296875 5.203125 -6.296875 C 4.671875 -6.296875 4.179688 -6.179688 3.734375 -5.953125 C 3.285156 -5.722656 2.925781 -5.398438 2.65625 -4.984375 C 2.382812 -4.578125 2.25 -4.117188 2.25 -3.609375 C 2.25 -2.847656 2.519531 -2.21875 3.0625 -1.71875 C 3.601562 -1.21875 4.316406 -0.96875 5.203125 -0.96875 Z M 5.203125 -0.96875 "/></g></g></g></g></g><g transform="matrix(1, 0, 0, 1, 757, 301)"><g clip-path="url(#c0bfd0200c)"><g fill="#201f1f" fill-opacity="1"><g transform="translate(0.621372, 19.76895)"><g><path d="M 4.359375 0 C 4.171875 0 4.019531 -0.0546875 3.90625 -0.171875 C 3.789062 -0.285156 3.734375 -0.421875 3.734375 -0.578125 L 3.734375 -12.171875 L 3.953125 -11.984375 L 1.390625 -10.265625 C 1.285156 -10.191406 1.175781 -10.15625 1.0625 -10.15625 C 0.90625 -10.15625 0.765625 -10.21875 0.640625 -10.34375 C 0.523438 -10.46875 0.46875 -10.609375 0.46875 -10.765625 C 0.46875 -10.972656 0.566406 -11.132812 0.765625 -11.25 L 3.984375 -13.390625 C 4.066406 -13.441406 4.148438 -13.472656 4.234375 -13.484375 C 4.316406 -13.492188 4.390625 -13.492188 4.453125 -13.484375 C 4.617188 -13.472656 4.742188 -13.410156 4.828125 -13.296875 C 4.921875 -13.191406 4.96875 -13.0625 4.96875 -12.90625 L 4.96875 -0.578125 C 4.96875 -0.421875 4.910156 -0.285156 4.796875 -0.171875 C 4.679688 -0.0546875 4.535156 0 4.359375 0 Z M 4.359375 0 "/></g></g></g><g fill="#201f1f" fill-opacity="1"><g transform="translate(7.746399, 19.76895)"><g><path d="M 5.34375 -13.703125 C 6.09375 -13.703125 6.75 -13.566406 7.3125 -13.296875 C 7.875 -13.023438 8.332031 -12.660156 8.6875 -12.203125 C 9.050781 -11.742188 9.320312 -11.222656 9.5 -10.640625 C 9.675781 -10.066406 9.765625 -9.476562 9.765625 -8.875 C 9.765625 -8.257812 9.679688 -7.601562 9.515625 -6.90625 C 9.359375 -6.207031 9.125 -5.5 8.8125 -4.78125 C 8.5 -4.070312 8.109375 -3.394531 7.640625 -2.75 C 7.171875 -2.113281 6.617188 -1.535156 5.984375 -1.015625 C 5.359375 -0.503906 4.660156 -0.109375 3.890625 0.171875 C 3.785156 0.203125 3.703125 0.21875 3.640625 0.21875 C 3.484375 0.21875 3.34375 0.160156 3.21875 0.046875 C 3.101562 -0.0546875 3.046875 -0.203125 3.046875 -0.390625 C 3.046875 -0.515625 3.082031 -0.625 3.15625 -0.71875 C 3.238281 -0.8125 3.351562 -0.882812 3.5 -0.9375 C 4.238281 -1.25 4.945312 -1.707031 5.625 -2.3125 C 6.300781 -2.925781 6.882812 -3.632812 7.375 -4.4375 C 7.875 -5.238281 8.207031 -6.070312 8.375 -6.9375 L 8.78125 -7.1875 C 8.5625 -6.769531 8.265625 -6.394531 7.890625 -6.0625 C 7.523438 -5.726562 7.109375 -5.46875 6.640625 -5.28125 C 6.171875 -5.101562 5.660156 -5.015625 5.109375 -5.015625 C 4.285156 -5.015625 3.570312 -5.210938 2.96875 -5.609375 C 2.375 -6.015625 1.914062 -6.550781 1.59375 -7.21875 C 1.28125 -7.882812 1.125 -8.601562 1.125 -9.375 C 1.125 -10.132812 1.304688 -10.84375 1.671875 -11.5 C 2.035156 -12.15625 2.535156 -12.6875 3.171875 -13.09375 C 3.804688 -13.5 4.53125 -13.703125 5.34375 -13.703125 Z M 5.375 -12.578125 C 4.769531 -12.578125 4.234375 -12.441406 3.765625 -12.171875 C 3.304688 -11.898438 2.945312 -11.523438 2.6875 -11.046875 C 2.425781 -10.566406 2.296875 -10.007812 2.296875 -9.375 C 2.296875 -8.8125 2.40625 -8.28125 2.625 -7.78125 C 2.851562 -7.28125 3.191406 -6.878906 3.640625 -6.578125 C 4.085938 -6.273438 4.632812 -6.125 5.28125 -6.125 C 5.96875 -6.125 6.554688 -6.273438 7.046875 -6.578125 C 7.535156 -6.878906 7.914062 -7.28125 8.1875 -7.78125 C 8.457031 -8.28125 8.59375 -8.832031 8.59375 -9.4375 C 8.59375 -9.988281 8.460938 -10.5 8.203125 -10.96875 C 7.953125 -11.445312 7.585938 -11.832031 7.109375 -12.125 C 6.628906 -12.425781 6.050781 -12.578125 5.375 -12.578125 Z M 5.375 -12.578125 "/></g></g></g></g></g><g clip-path="url(#d08946cc95)"><g transform="matrix(1, 0, 0, 1, 2, 450)"><g clip-path="url(#7997336b65)"><g fill="#201f1f" fill-opacity="1"><g transform="translate(0.714227, 20.526013)"><g><path d="M 9.125 -1.125 C 9.28125 -1.125 9.410156 -1.066406 9.515625 -0.953125 C 9.628906 -0.847656 9.6875 -0.71875 9.6875 -0.5625 C 9.6875 -0.394531 9.628906 -0.257812 9.515625 -0.15625 C 9.410156 -0.0507812 9.28125 0 9.125 0 L 1.90625 0 C 1.738281 0 1.59375 -0.046875 1.46875 -0.140625 C 1.351562 -0.234375 1.296875 -0.378906 1.296875 -0.578125 C 1.296875 -0.722656 1.34375 -0.859375 1.4375 -0.984375 L 5.890625 -5.890625 C 6.597656 -6.660156 7.128906 -7.367188 7.484375 -8.015625 C 7.835938 -8.671875 8.015625 -9.253906 8.015625 -9.765625 C 8.015625 -10.617188 7.753906 -11.300781 7.234375 -11.8125 C 6.722656 -12.320312 6.03125 -12.578125 5.15625 -12.578125 C 4.757812 -12.578125 4.363281 -12.492188 3.96875 -12.328125 C 3.582031 -12.160156 3.238281 -11.941406 2.9375 -11.671875 C 2.632812 -11.398438 2.398438 -11.09375 2.234375 -10.75 C 2.160156 -10.625 2.082031 -10.535156 2 -10.484375 C 1.914062 -10.429688 1.820312 -10.40625 1.71875 -10.40625 C 1.5625 -10.40625 1.425781 -10.453125 1.3125 -10.546875 C 1.195312 -10.640625 1.140625 -10.757812 1.140625 -10.90625 C 1.140625 -11 1.160156 -11.085938 1.203125 -11.171875 C 1.242188 -11.265625 1.3125 -11.367188 1.40625 -11.484375 C 1.632812 -11.878906 1.953125 -12.242188 2.359375 -12.578125 C 2.773438 -12.910156 3.238281 -13.175781 3.75 -13.375 C 4.257812 -13.570312 4.753906 -13.671875 5.234375 -13.671875 C 6.054688 -13.671875 6.765625 -13.515625 7.359375 -13.203125 C 7.960938 -12.890625 8.425781 -12.445312 8.75 -11.875 C 9.082031 -11.300781 9.25 -10.625 9.25 -9.84375 C 9.25 -9.175781 9.039062 -8.445312 8.625 -7.65625 C 8.207031 -6.863281 7.585938 -6.015625 6.765625 -5.109375 L 3 -0.890625 L 2.8125 -1.125 Z M 9.125 -1.125 "/></g></g></g><g fill="#201f1f" fill-opacity="1"><g transform="translate(11.382507, 20.526013)"><g><path d="M 5.71875 0.1875 C 4.695312 0.1875 3.835938 -0.117188 3.140625 -0.734375 C 2.441406 -1.347656 1.921875 -2.175781 1.578125 -3.21875 C 1.234375 -4.269531 1.0625 -5.445312 1.0625 -6.75 C 1.0625 -8.050781 1.234375 -9.222656 1.578125 -10.265625 C 1.921875 -11.316406 2.441406 -12.144531 3.140625 -12.75 C 3.835938 -13.363281 4.695312 -13.671875 5.71875 -13.671875 C 6.769531 -13.671875 7.640625 -13.363281 8.328125 -12.75 C 9.015625 -12.144531 9.53125 -11.316406 9.875 -10.265625 C 10.226562 -9.222656 10.40625 -8.050781 10.40625 -6.75 C 10.40625 -5.445312 10.226562 -4.269531 9.875 -3.21875 C 9.53125 -2.175781 9.015625 -1.347656 8.328125 -0.734375 C 7.640625 -0.117188 6.769531 0.1875 5.71875 0.1875 Z M 5.71875 -1 C 6.476562 -1 7.109375 -1.234375 7.609375 -1.703125 C 8.117188 -2.179688 8.503906 -2.851562 8.765625 -3.71875 C 9.035156 -4.59375 9.171875 -5.601562 9.171875 -6.75 C 9.171875 -7.90625 9.035156 -8.914062 8.765625 -9.78125 C 8.503906 -10.644531 8.117188 -11.3125 7.609375 -11.78125 C 7.109375 -12.257812 6.476562 -12.5 5.71875 -12.5 C 4.976562 -12.5 4.351562 -12.257812 3.84375 -11.78125 C 3.332031 -11.3125 2.945312 -10.644531 2.6875 -9.78125 C 2.425781 -8.914062 2.296875 -7.90625 2.296875 -6.75 C 2.296875 -5.601562 2.425781 -4.59375 2.6875 -3.71875 C 2.945312 -2.851562 3.332031 -2.179688 3.84375 -1.703125 C 4.351562 -1.234375 4.976562 -1 5.71875 -1 Z M 5.71875 -1 "/></g></g></g></g></g></g><g clip-path="url(#832a750f7b)"><g transform="matrix(1, 0, 0, 1, 128, 450)"><g clip-path="url(#10e7d82fc9)"><g fill="#201f1f" fill-opacity="1"><g transform="translate(0.532082, 20.526013)"><g><path d="M 9.125 -1.125 C 9.28125 -1.125 9.410156 -1.066406 9.515625 -0.953125 C 9.628906 -0.847656 9.6875 -0.71875 9.6875 -0.5625 C 9.6875 -0.394531 9.628906 -0.257812 9.515625 -0.15625 C 9.410156 -0.0507812 9.28125 0 9.125 0 L 1.90625 0 C 1.738281 0 1.59375 -0.046875 1.46875 -0.140625 C 1.351562 -0.234375 1.296875 -0.378906 1.296875 -0.578125 C 1.296875 -0.722656 1.34375 -0.859375 1.4375 -0.984375 L 5.890625 -5.890625 C 6.597656 -6.660156 7.128906 -7.367188 7.484375 -8.015625 C 7.835938 -8.671875 8.015625 -9.253906 8.015625 -9.765625 C 8.015625 -10.617188 7.753906 -11.300781 7.234375 -11.8125 C 6.722656 -12.320312 6.03125 -12.578125 5.15625 -12.578125 C 4.757812 -12.578125 4.363281 -12.492188 3.96875 -12.328125 C 3.582031 -12.160156 3.238281 -11.941406 2.9375 -11.671875 C 2.632812 -11.398438 2.398438 -11.09375 2.234375 -10.75 C 2.160156 -10.625 2.082031 -10.535156 2 -10.484375 C 1.914062 -10.429688 1.820312 -10.40625 1.71875 -10.40625 C 1.5625 -10.40625 1.425781 -10.453125 1.3125 -10.546875 C 1.195312 -10.640625 1.140625 -10.757812 1.140625 -10.90625 C 1.140625 -11 1.160156 -11.085938 1.203125 -11.171875 C 1.242188 -11.265625 1.3125 -11.367188 1.40625 -11.484375 C 1.632812 -11.878906 1.953125 -12.242188 2.359375 -12.578125 C 2.773438 -12.910156 3.238281 -13.175781 3.75 -13.375 C 4.257812 -13.570312 4.753906 -13.671875 5.234375 -13.671875 C 6.054688 -13.671875 6.765625 -13.515625 7.359375 -13.203125 C 7.960938 -12.890625 8.425781 -12.445312 8.75 -11.875 C 9.082031 -11.300781 9.25 -10.625 9.25 -9.84375 C 9.25 -9.175781 9.039062 -8.445312 8.625 -7.65625 C 8.207031 -6.863281 7.585938 -6.015625 6.765625 -5.109375 L 3 -0.890625 L 2.8125 -1.125 Z M 9.125 -1.125 "/></g></g></g><g fill="#201f1f" fill-opacity="1"><g transform="translate(11.200362, 20.526013)"><g><path d="M 4.359375 0 C 4.171875 0 4.019531 -0.0546875 3.90625 -0.171875 C 3.789062 -0.285156 3.734375 -0.421875 3.734375 -0.578125 L 3.734375 -12.171875 L 3.953125 -11.984375 L 1.390625 -10.265625 C 1.285156 -10.191406 1.175781 -10.15625 1.0625 -10.15625 C 0.90625 -10.15625 0.765625 -10.21875 0.640625 -10.34375 C 0.523438 -10.46875 0.46875 -10.609375 0.46875 -10.765625 C 0.46875 -10.972656 0.566406 -11.132812 0.765625 -11.25 L 3.984375 -13.390625 C 4.066406 -13.441406 4.148438 -13.472656 4.234375 -13.484375 C 4.316406 -13.492188 4.390625 -13.492188 4.453125 -13.484375 C 4.617188 -13.472656 4.742188 -13.410156 4.828125 -13.296875 C 4.921875 -13.191406 4.96875 -13.0625 4.96875 -12.90625 L 4.96875 -0.578125 C 4.96875 -0.421875 4.910156 -0.285156 4.796875 -0.171875 C 4.679688 -0.0546875 4.535156 0 4.359375 0 Z M 4.359375 0 "/></g></g></g></g></g></g><g clip-path="url(#81997c61fd)"><g transform="matrix(1, 0, 0, 1, 254, 450)"><g clip-path="url(#f9b66a74d3)"><g fill="#201f1f" fill-opacity="1"><g transform="translate(0.349952, 20.526013)"><g><path d="M 9.125 -1.125 C 9.28125 -1.125 9.410156 -1.066406 9.515625 -0.953125 C 9.628906 -0.847656 9.6875 -0.71875 9.6875 -0.5625 C 9.6875 -0.394531 9.628906 -0.257812 9.515625 -0.15625 C 9.410156 -0.0507812 9.28125 0 9.125 0 L 1.90625 0 C 1.738281 0 1.59375 -0.046875 1.46875 -0.140625 C 1.351562 -0.234375 1.296875 -0.378906 1.296875 -0.578125 C 1.296875 -0.722656 1.34375 -0.859375 1.4375 -0.984375 L 5.890625 -5.890625 C 6.597656 -6.660156 7.128906 -7.367188 7.484375 -8.015625 C 7.835938 -8.671875 8.015625 -9.253906 8.015625 -9.765625 C 8.015625 -10.617188 7.753906 -11.300781 7.234375 -11.8125 C 6.722656 -12.320312 6.03125 -12.578125 5.15625 -12.578125 C 4.757812 -12.578125 4.363281 -12.492188 3.96875 -12.328125 C 3.582031 -12.160156 3.238281 -11.941406 2.9375 -11.671875 C 2.632812 -11.398438 2.398438 -11.09375 2.234375 -10.75 C 2.160156 -10.625 2.082031 -10.535156 2 -10.484375 C 1.914062 -10.429688 1.820312 -10.40625 1.71875 -10.40625 C 1.5625 -10.40625 1.425781 -10.453125 1.3125 -10.546875 C 1.195312 -10.640625 1.140625 -10.757812 1.140625 -10.90625 C 1.140625 -11 1.160156 -11.085938 1.203125 -11.171875 C 1.242188 -11.265625 1.3125 -11.367188 1.40625 -11.484375 C 1.632812 -11.878906 1.953125 -12.242188 2.359375 -12.578125 C 2.773438 -12.910156 3.238281 -13.175781 3.75 -13.375 C 4.257812 -13.570312 4.753906 -13.671875 5.234375 -13.671875 C 6.054688 -13.671875 6.765625 -13.515625 7.359375 -13.203125 C 7.960938 -12.890625 8.425781 -12.445312 8.75 -11.875 C 9.082031 -11.300781 9.25 -10.625 9.25 -9.84375 C 9.25 -9.175781 9.039062 -8.445312 8.625 -7.65625 C 8.207031 -6.863281 7.585938 -6.015625 6.765625 -5.109375 L 3 -0.890625 L 2.8125 -1.125 Z M 9.125 -1.125 "/></g></g></g><g fill="#201f1f" fill-opacity="1"><g transform="translate(11.018232, 20.526013)"><g><path d="M 9.125 -1.125 C 9.28125 -1.125 9.410156 -1.066406 9.515625 -0.953125 C 9.628906 -0.847656 9.6875 -0.71875 9.6875 -0.5625 C 9.6875 -0.394531 9.628906 -0.257812 9.515625 -0.15625 C 9.410156 -0.0507812 9.28125 0 9.125 0 L 1.90625 0 C 1.738281 0 1.59375 -0.046875 1.46875 -0.140625 C 1.351562 -0.234375 1.296875 -0.378906 1.296875 -0.578125 C 1.296875 -0.722656 1.34375 -0.859375 1.4375 -0.984375 L 5.890625 -5.890625 C 6.597656 -6.660156 7.128906 -7.367188 7.484375 -8.015625 C 7.835938 -8.671875 8.015625 -9.253906 8.015625 -9.765625 C 8.015625 -10.617188 7.753906 -11.300781 7.234375 -11.8125 C 6.722656 -12.320312 6.03125 -12.578125 5.15625 -12.578125 C 4.757812 -12.578125 4.363281 -12.492188 3.96875 -12.328125 C 3.582031 -12.160156 3.238281 -11.941406 2.9375 -11.671875 C 2.632812 -11.398438 2.398438 -11.09375 2.234375 -10.75 C 2.160156 -10.625 2.082031 -10.535156 2 -10.484375 C 1.914062 -10.429688 1.820312 -10.40625 1.71875 -10.40625 C 1.5625 -10.40625 1.425781 -10.453125 1.3125 -10.546875 C 1.195312 -10.640625 1.140625 -10.757812 1.140625 -10.90625 C 1.140625 -11 1.160156 -11.085938 1.203125 -11.171875 C 1.242188 -11.265625 1.3125 -11.367188 1.40625 -11.484375 C 1.632812 -11.878906 1.953125 -12.242188 2.359375 -12.578125 C 2.773438 -12.910156 3.238281 -13.175781 3.75 -13.375 C 4.257812 -13.570312 4.753906 -13.671875 5.234375 -13.671875 C 6.054688 -13.671875 6.765625 -13.515625 7.359375 -13.203125 C 7.960938 -12.890625 8.425781 -12.445312 8.75 -11.875 C 9.082031 -11.300781 9.25 -10.625 9.25 -9.84375 C 9.25 -9.175781 9.039062 -8.445312 8.625 -7.65625 C 8.207031 -6.863281 7.585938 -6.015625 6.765625 -5.109375 L 3 -0.890625 L 2.8125 -1.125 Z M 9.125 -1.125 "/></g></g></g></g></g></g><g clip-path="url(#2660e6ef2b)"><g transform="matrix(1, 0, 0, 1, 380, 450)"><g clip-path="url(#cd7326baed)"><g fill="#201f1f" fill-opacity="1"><g transform="translate(0.167807, 20.526013)"><g><path d="M 9.125 -1.125 C 9.28125 -1.125 9.410156 -1.066406 9.515625 -0.953125 C 9.628906 -0.847656 9.6875 -0.71875 9.6875 -0.5625 C 9.6875 -0.394531 9.628906 -0.257812 9.515625 -0.15625 C 9.410156 -0.0507812 9.28125 0 9.125 0 L 1.90625 0 C 1.738281 0 1.59375 -0.046875 1.46875 -0.140625 C 1.351562 -0.234375 1.296875 -0.378906 1.296875 -0.578125 C 1.296875 -0.722656 1.34375 -0.859375 1.4375 -0.984375 L 5.890625 -5.890625 C 6.597656 -6.660156 7.128906 -7.367188 7.484375 -8.015625 C 7.835938 -8.671875 8.015625 -9.253906 8.015625 -9.765625 C 8.015625 -10.617188 7.753906 -11.300781 7.234375 -11.8125 C 6.722656 -12.320312 6.03125 -12.578125 5.15625 -12.578125 C 4.757812 -12.578125 4.363281 -12.492188 3.96875 -12.328125 C 3.582031 -12.160156 3.238281 -11.941406 2.9375 -11.671875 C 2.632812 -11.398438 2.398438 -11.09375 2.234375 -10.75 C 2.160156 -10.625 2.082031 -10.535156 2 -10.484375 C 1.914062 -10.429688 1.820312 -10.40625 1.71875 -10.40625 C 1.5625 -10.40625 1.425781 -10.453125 1.3125 -10.546875 C 1.195312 -10.640625 1.140625 -10.757812 1.140625 -10.90625 C 1.140625 -11 1.160156 -11.085938 1.203125 -11.171875 C 1.242188 -11.265625 1.3125 -11.367188 1.40625 -11.484375 C 1.632812 -11.878906 1.953125 -12.242188 2.359375 -12.578125 C 2.773438 -12.910156 3.238281 -13.175781 3.75 -13.375 C 4.257812 -13.570312 4.753906 -13.671875 5.234375 -13.671875 C 6.054688 -13.671875 6.765625 -13.515625 7.359375 -13.203125 C 7.960938 -12.890625 8.425781 -12.445312 8.75 -11.875 C 9.082031 -11.300781 9.25 -10.625 9.25 -9.84375 C 9.25 -9.175781 9.039062 -8.445312 8.625 -7.65625 C 8.207031 -6.863281 7.585938 -6.015625 6.765625 -5.109375 L 3 -0.890625 L 2.8125 -1.125 Z M 9.125 -1.125 "/></g></g></g><g fill="#201f1f" fill-opacity="1"><g transform="translate(10.836087, 20.526013)"><g><path d="M 1.71875 -1.984375 C 1.78125 -1.984375 1.84375 -1.96875 1.90625 -1.9375 C 1.976562 -1.914062 2.066406 -1.859375 2.171875 -1.765625 C 2.441406 -1.484375 2.765625 -1.269531 3.140625 -1.125 C 3.515625 -0.976562 3.9375 -0.90625 4.40625 -0.90625 C 5.039062 -0.90625 5.617188 -1.046875 6.140625 -1.328125 C 6.660156 -1.609375 7.070312 -2.003906 7.375 -2.515625 C 7.6875 -3.023438 7.84375 -3.601562 7.84375 -4.25 C 7.84375 -5 7.675781 -5.601562 7.34375 -6.0625 C 7.019531 -6.519531 6.601562 -6.859375 6.09375 -7.078125 C 5.59375 -7.304688 5.078125 -7.421875 4.546875 -7.421875 C 4.398438 -7.421875 4.257812 -7.410156 4.125 -7.390625 C 4 -7.367188 3.875 -7.34375 3.75 -7.3125 C 3.632812 -7.289062 3.546875 -7.28125 3.484375 -7.28125 C 3.316406 -7.28125 3.1875 -7.332031 3.09375 -7.4375 C 3.007812 -7.550781 2.96875 -7.691406 2.96875 -7.859375 C 2.96875 -7.953125 2.984375 -8.03125 3.015625 -8.09375 C 3.054688 -8.164062 3.109375 -8.25 3.171875 -8.34375 L 7.09375 -12.59375 L 7.328125 -12.296875 L 1.484375 -12.296875 C 1.328125 -12.296875 1.191406 -12.347656 1.078125 -12.453125 C 0.972656 -12.566406 0.921875 -12.695312 0.921875 -12.84375 C 0.921875 -13 0.972656 -13.128906 1.078125 -13.234375 C 1.191406 -13.335938 1.328125 -13.390625 1.484375 -13.390625 L 7.953125 -13.390625 C 8.171875 -13.390625 8.320312 -13.320312 8.40625 -13.1875 C 8.5 -13.050781 8.546875 -12.921875 8.546875 -12.796875 C 8.546875 -12.710938 8.523438 -12.632812 8.484375 -12.5625 C 8.453125 -12.5 8.40625 -12.425781 8.34375 -12.34375 L 4.4375 -8.09375 L 4 -8.34375 C 4.039062 -8.382812 4.171875 -8.425781 4.390625 -8.46875 C 4.617188 -8.507812 4.800781 -8.53125 4.9375 -8.53125 C 5.632812 -8.53125 6.296875 -8.363281 6.921875 -8.03125 C 7.546875 -7.695312 8.050781 -7.21875 8.4375 -6.59375 C 8.832031 -5.976562 9.03125 -5.210938 9.03125 -4.296875 C 9.03125 -3.398438 8.816406 -2.613281 8.390625 -1.9375 C 7.972656 -1.257812 7.40625 -0.734375 6.6875 -0.359375 C 5.96875 0.00390625 5.171875 0.1875 4.296875 0.1875 C 3.765625 0.1875 3.242188 0.0976562 2.734375 -0.078125 C 2.222656 -0.253906 1.773438 -0.523438 1.390625 -0.890625 C 1.296875 -0.960938 1.226562 -1.035156 1.1875 -1.109375 C 1.15625 -1.191406 1.140625 -1.269531 1.140625 -1.34375 C 1.140625 -1.5 1.191406 -1.644531 1.296875 -1.78125 C 1.410156 -1.914062 1.550781 -1.984375 1.71875 -1.984375 Z M 1.71875 -1.984375 "/></g></g></g></g></g></g><g clip-path="url(#ef4360ce64)"><g transform="matrix(1, 0, 0, 1, 505, 450)"><g clip-path="url(#112e1691a6)"><g fill="#201f1f" fill-opacity="1"><g transform="translate(0.985603, 20.526013)"><g><path d="M 9.125 -1.125 C 9.28125 -1.125 9.410156 -1.066406 9.515625 -0.953125 C 9.628906 -0.847656 9.6875 -0.71875 9.6875 -0.5625 C 9.6875 -0.394531 9.628906 -0.257812 9.515625 -0.15625 C 9.410156 -0.0507812 9.28125 0 9.125 0 L 1.90625 0 C 1.738281 0 1.59375 -0.046875 1.46875 -0.140625 C 1.351562 -0.234375 1.296875 -0.378906 1.296875 -0.578125 C 1.296875 -0.722656 1.34375 -0.859375 1.4375 -0.984375 L 5.890625 -5.890625 C 6.597656 -6.660156 7.128906 -7.367188 7.484375 -8.015625 C 7.835938 -8.671875 8.015625 -9.253906 8.015625 -9.765625 C 8.015625 -10.617188 7.753906 -11.300781 7.234375 -11.8125 C 6.722656 -12.320312 6.03125 -12.578125 5.15625 -12.578125 C 4.757812 -12.578125 4.363281 -12.492188 3.96875 -12.328125 C 3.582031 -12.160156 3.238281 -11.941406 2.9375 -11.671875 C 2.632812 -11.398438 2.398438 -11.09375 2.234375 -10.75 C 2.160156 -10.625 2.082031 -10.535156 2 -10.484375 C 1.914062 -10.429688 1.820312 -10.40625 1.71875 -10.40625 C 1.5625 -10.40625 1.425781 -10.453125 1.3125 -10.546875 C 1.195312 -10.640625 1.140625 -10.757812 1.140625 -10.90625 C 1.140625 -11 1.160156 -11.085938 1.203125 -11.171875 C 1.242188 -11.265625 1.3125 -11.367188 1.40625 -11.484375 C 1.632812 -11.878906 1.953125 -12.242188 2.359375 -12.578125 C 2.773438 -12.910156 3.238281 -13.175781 3.75 -13.375 C 4.257812 -13.570312 4.753906 -13.671875 5.234375 -13.671875 C 6.054688 -13.671875 6.765625 -13.515625 7.359375 -13.203125 C 7.960938 -12.890625 8.425781 -12.445312 8.75 -11.875 C 9.082031 -11.300781 9.25 -10.625 9.25 -9.84375 C 9.25 -9.175781 9.039062 -8.445312 8.625 -7.65625 C 8.207031 -6.863281 7.585938 -6.015625 6.765625 -5.109375 L 3 -0.890625 L 2.8125 -1.125 Z M 9.125 -1.125 "/></g></g></g><g fill="#201f1f" fill-opacity="1"><g transform="translate(11.653883, 20.526013)"><g><path d="M 7.078125 0 C 6.898438 0 6.757812 -0.0546875 6.65625 -0.171875 C 6.5625 -0.285156 6.515625 -0.421875 6.515625 -0.578125 L 6.515625 -11.890625 L 6.765625 -11.734375 L 1.703125 -5.03125 L 1.640625 -5.234375 L 9.03125 -5.234375 C 9.1875 -5.234375 9.316406 -5.179688 9.421875 -5.078125 C 9.535156 -4.984375 9.59375 -4.859375 9.59375 -4.703125 C 9.59375 -4.546875 9.535156 -4.414062 9.421875 -4.3125 C 9.316406 -4.207031 9.1875 -4.15625 9.03125 -4.15625 L 0.84375 -4.15625 C 0.6875 -4.15625 0.550781 -4.21875 0.4375 -4.34375 C 0.320312 -4.46875 0.265625 -4.609375 0.265625 -4.765625 C 0.265625 -4.898438 0.3125 -5.023438 0.40625 -5.140625 L 6.609375 -13.25 C 6.671875 -13.34375 6.75 -13.40625 6.84375 -13.4375 C 6.945312 -13.46875 7.03125 -13.484375 7.09375 -13.484375 C 7.257812 -13.484375 7.394531 -13.425781 7.5 -13.3125 C 7.613281 -13.195312 7.671875 -13.0625 7.671875 -12.90625 L 7.671875 -0.578125 C 7.671875 -0.421875 7.613281 -0.285156 7.5 -0.171875 C 7.382812 -0.0546875 7.242188 0 7.078125 0 Z M 7.078125 0 "/></g></g></g></g></g></g><g clip-path="url(#ed17665b4d)"><g transform="matrix(1, 0, 0, 1, 631, 450)"><g clip-path="url(#866cb45f7c)"><g fill="#201f1f" fill-opacity="1"><g transform="translate(0.803488, 20.526013)"><g><path d="M 9.125 -1.125 C 9.28125 -1.125 9.410156 -1.066406 9.515625 -0.953125 C 9.628906 -0.847656 9.6875 -0.71875 9.6875 -0.5625 C 9.6875 -0.394531 9.628906 -0.257812 9.515625 -0.15625 C 9.410156 -0.0507812 9.28125 0 9.125 0 L 1.90625 0 C 1.738281 0 1.59375 -0.046875 1.46875 -0.140625 C 1.351562 -0.234375 1.296875 -0.378906 1.296875 -0.578125 C 1.296875 -0.722656 1.34375 -0.859375 1.4375 -0.984375 L 5.890625 -5.890625 C 6.597656 -6.660156 7.128906 -7.367188 7.484375 -8.015625 C 7.835938 -8.671875 8.015625 -9.253906 8.015625 -9.765625 C 8.015625 -10.617188 7.753906 -11.300781 7.234375 -11.8125 C 6.722656 -12.320312 6.03125 -12.578125 5.15625 -12.578125 C 4.757812 -12.578125 4.363281 -12.492188 3.96875 -12.328125 C 3.582031 -12.160156 3.238281 -11.941406 2.9375 -11.671875 C 2.632812 -11.398438 2.398438 -11.09375 2.234375 -10.75 C 2.160156 -10.625 2.082031 -10.535156 2 -10.484375 C 1.914062 -10.429688 1.820312 -10.40625 1.71875 -10.40625 C 1.5625 -10.40625 1.425781 -10.453125 1.3125 -10.546875 C 1.195312 -10.640625 1.140625 -10.757812 1.140625 -10.90625 C 1.140625 -11 1.160156 -11.085938 1.203125 -11.171875 C 1.242188 -11.265625 1.3125 -11.367188 1.40625 -11.484375 C 1.632812 -11.878906 1.953125 -12.242188 2.359375 -12.578125 C 2.773438 -12.910156 3.238281 -13.175781 3.75 -13.375 C 4.257812 -13.570312 4.753906 -13.671875 5.234375 -13.671875 C 6.054688 -13.671875 6.765625 -13.515625 7.359375 -13.203125 C 7.960938 -12.890625 8.425781 -12.445312 8.75 -11.875 C 9.082031 -11.300781 9.25 -10.625 9.25 -9.84375 C 9.25 -9.175781 9.039062 -8.445312 8.625 -7.65625 C 8.207031 -6.863281 7.585938 -6.015625 6.765625 -5.109375 L 3 -0.890625 L 2.8125 -1.125 Z M 9.125 -1.125 "/></g></g></g><g fill="#201f1f" fill-opacity="1"><g transform="translate(11.471768, 20.526013)"><g><path d="M 4.515625 0.03125 C 3.984375 0.03125 3.453125 -0.0507812 2.921875 -0.21875 C 2.390625 -0.394531 1.914062 -0.65625 1.5 -1 C 1.425781 -1.0625 1.363281 -1.140625 1.3125 -1.234375 C 1.269531 -1.328125 1.25 -1.414062 1.25 -1.5 C 1.25 -1.632812 1.300781 -1.757812 1.40625 -1.875 C 1.507812 -2 1.644531 -2.0625 1.8125 -2.0625 C 1.945312 -2.0625 2.085938 -2.003906 2.234375 -1.890625 C 2.566406 -1.628906 2.925781 -1.425781 3.3125 -1.28125 C 3.707031 -1.144531 4.109375 -1.078125 4.515625 -1.078125 C 5.265625 -1.078125 5.921875 -1.222656 6.484375 -1.515625 C 7.054688 -1.804688 7.492188 -2.21875 7.796875 -2.75 C 8.109375 -3.28125 8.265625 -3.898438 8.265625 -4.609375 C 8.265625 -5.265625 8.125 -5.832031 7.84375 -6.3125 C 7.5625 -6.789062 7.160156 -7.164062 6.640625 -7.4375 C 6.117188 -7.71875 5.503906 -7.859375 4.796875 -7.859375 C 4.335938 -7.859375 3.914062 -7.785156 3.53125 -7.640625 C 3.15625 -7.503906 2.828125 -7.363281 2.546875 -7.21875 C 2.273438 -7.070312 2.054688 -7 1.890625 -7 C 1.734375 -7 1.609375 -7.035156 1.515625 -7.109375 C 1.421875 -7.179688 1.351562 -7.273438 1.3125 -7.390625 C 1.28125 -7.515625 1.28125 -7.640625 1.3125 -7.765625 L 2.140625 -12.90625 C 2.148438 -13.019531 2.207031 -13.125 2.3125 -13.21875 C 2.425781 -13.320312 2.566406 -13.375 2.734375 -13.375 L 8.53125 -13.375 C 8.6875 -13.375 8.816406 -13.316406 8.921875 -13.203125 C 9.035156 -13.097656 9.09375 -12.96875 9.09375 -12.8125 C 9.09375 -12.644531 9.035156 -12.503906 8.921875 -12.390625 C 8.816406 -12.285156 8.6875 -12.234375 8.53125 -12.234375 L 3 -12.234375 L 3.171875 -12.40625 L 2.390625 -7.84375 L 2.046875 -8.09375 C 2.210938 -8.21875 2.453125 -8.34375 2.765625 -8.46875 C 3.078125 -8.601562 3.425781 -8.71875 3.8125 -8.8125 C 4.207031 -8.90625 4.625 -8.953125 5.0625 -8.953125 C 5.894531 -8.953125 6.640625 -8.769531 7.296875 -8.40625 C 7.953125 -8.039062 8.46875 -7.535156 8.84375 -6.890625 C 9.226562 -6.242188 9.421875 -5.492188 9.421875 -4.640625 C 9.421875 -3.703125 9.21875 -2.882812 8.8125 -2.1875 C 8.40625 -1.488281 7.835938 -0.941406 7.109375 -0.546875 C 6.378906 -0.160156 5.515625 0.03125 4.515625 0.03125 Z M 4.515625 0.03125 "/></g></g></g></g></g></g><g clip-path="url(#0cfc2307c5)"><g transform="matrix(1, 0, 0, 1, 757, 450)"><g clip-path="url(#af2aca1f20)"><g fill="#201f1f" fill-opacity="1"><g transform="translate(0.621372, 20.526013)"><g><path d="M 9.125 -1.125 C 9.28125 -1.125 9.410156 -1.066406 9.515625 -0.953125 C 9.628906 -0.847656 9.6875 -0.71875 9.6875 -0.5625 C 9.6875 -0.394531 9.628906 -0.257812 9.515625 -0.15625 C 9.410156 -0.0507812 9.28125 0 9.125 0 L 1.90625 0 C 1.738281 0 1.59375 -0.046875 1.46875 -0.140625 C 1.351562 -0.234375 1.296875 -0.378906 1.296875 -0.578125 C 1.296875 -0.722656 1.34375 -0.859375 1.4375 -0.984375 L 5.890625 -5.890625 C 6.597656 -6.660156 7.128906 -7.367188 7.484375 -8.015625 C 7.835938 -8.671875 8.015625 -9.253906 8.015625 -9.765625 C 8.015625 -10.617188 7.753906 -11.300781 7.234375 -11.8125 C 6.722656 -12.320312 6.03125 -12.578125 5.15625 -12.578125 C 4.757812 -12.578125 4.363281 -12.492188 3.96875 -12.328125 C 3.582031 -12.160156 3.238281 -11.941406 2.9375 -11.671875 C 2.632812 -11.398438 2.398438 -11.09375 2.234375 -10.75 C 2.160156 -10.625 2.082031 -10.535156 2 -10.484375 C 1.914062 -10.429688 1.820312 -10.40625 1.71875 -10.40625 C 1.5625 -10.40625 1.425781 -10.453125 1.3125 -10.546875 C 1.195312 -10.640625 1.140625 -10.757812 1.140625 -10.90625 C 1.140625 -11 1.160156 -11.085938 1.203125 -11.171875 C 1.242188 -11.265625 1.3125 -11.367188 1.40625 -11.484375 C 1.632812 -11.878906 1.953125 -12.242188 2.359375 -12.578125 C 2.773438 -12.910156 3.238281 -13.175781 3.75 -13.375 C 4.257812 -13.570312 4.753906 -13.671875 5.234375 -13.671875 C 6.054688 -13.671875 6.765625 -13.515625 7.359375 -13.203125 C 7.960938 -12.890625 8.425781 -12.445312 8.75 -11.875 C 9.082031 -11.300781 9.25 -10.625 9.25 -9.84375 C 9.25 -9.175781 9.039062 -8.445312 8.625 -7.65625 C 8.207031 -6.863281 7.585938 -6.015625 6.765625 -5.109375 L 3 -0.890625 L 2.8125 -1.125 Z M 9.125 -1.125 "/></g></g></g><g fill="#201f1f" fill-opacity="1"><g transform="translate(11.289652, 20.526013)"><g><path d="M 5.53125 0.1875 C 4.78125 0.1875 4.125 0.0546875 3.5625 -0.203125 C 3.007812 -0.472656 2.550781 -0.835938 2.1875 -1.296875 C 1.820312 -1.753906 1.550781 -2.269531 1.375 -2.84375 C 1.207031 -3.425781 1.125 -4.019531 1.125 -4.625 C 1.125 -5.238281 1.195312 -5.898438 1.34375 -6.609375 C 1.5 -7.328125 1.738281 -8.050781 2.0625 -8.78125 C 2.382812 -9.519531 2.78125 -10.210938 3.25 -10.859375 C 3.71875 -11.515625 4.257812 -12.101562 4.875 -12.625 C 5.5 -13.144531 6.207031 -13.554688 7 -13.859375 C 7.082031 -13.878906 7.15625 -13.890625 7.21875 -13.890625 C 7.382812 -13.890625 7.53125 -13.84375 7.65625 -13.75 C 7.78125 -13.664062 7.84375 -13.515625 7.84375 -13.296875 C 7.84375 -13.160156 7.800781 -13.046875 7.71875 -12.953125 C 7.632812 -12.859375 7.519531 -12.785156 7.375 -12.734375 C 6.832031 -12.503906 6.296875 -12.175781 5.765625 -11.75 C 5.242188 -11.320312 4.757812 -10.832031 4.3125 -10.28125 C 3.863281 -9.726562 3.484375 -9.132812 3.171875 -8.5 C 2.859375 -7.863281 2.632812 -7.21875 2.5 -6.5625 L 2.078125 -6.3125 C 2.304688 -6.738281 2.601562 -7.113281 2.96875 -7.4375 C 3.34375 -7.769531 3.765625 -8.035156 4.234375 -8.234375 C 4.710938 -8.429688 5.226562 -8.53125 5.78125 -8.53125 C 6.351562 -8.53125 6.882812 -8.40625 7.375 -8.15625 C 7.863281 -7.914062 8.285156 -7.585938 8.640625 -7.171875 C 8.992188 -6.753906 9.269531 -6.28125 9.46875 -5.75 C 9.664062 -5.226562 9.765625 -4.6875 9.765625 -4.125 C 9.765625 -3.363281 9.582031 -2.65625 9.21875 -2 C 8.851562 -1.34375 8.351562 -0.8125 7.71875 -0.40625 C 7.082031 -0.0078125 6.351562 0.1875 5.53125 0.1875 Z M 5.515625 -0.921875 C 6.097656 -0.921875 6.617188 -1.054688 7.078125 -1.328125 C 7.546875 -1.597656 7.910156 -1.972656 8.171875 -2.453125 C 8.441406 -2.929688 8.578125 -3.488281 8.578125 -4.125 C 8.578125 -4.695312 8.460938 -5.226562 8.234375 -5.71875 C 8.015625 -6.21875 7.679688 -6.625 7.234375 -6.9375 C 6.785156 -7.257812 6.238281 -7.421875 5.59375 -7.421875 C 4.90625 -7.421875 4.3125 -7.265625 3.8125 -6.953125 C 3.320312 -6.648438 2.945312 -6.242188 2.6875 -5.734375 C 2.425781 -5.222656 2.296875 -4.664062 2.296875 -4.0625 C 2.296875 -3.519531 2.421875 -3.007812 2.671875 -2.53125 C 2.929688 -2.050781 3.300781 -1.660156 3.78125 -1.359375 C 4.269531 -1.066406 4.847656 -0.921875 5.515625 -0.921875 Z M 5.515625 -0.921875 "/></g></g></g></g></g></g><g clip-path="url(#28422479b2)"><g transform="matrix(1, 0, 0, 1, 2, 600)"><g clip-path="url(#dd56fce071)"><g fill="#201f1f" fill-opacity="1"><g transform="translate(0.714227, 20.283193)"><g><path d="M 9.125 -1.125 C 9.28125 -1.125 9.410156 -1.066406 9.515625 -0.953125 C 9.628906 -0.847656 9.6875 -0.71875 9.6875 -0.5625 C 9.6875 -0.394531 9.628906 -0.257812 9.515625 -0.15625 C 9.410156 -0.0507812 9.28125 0 9.125 0 L 1.90625 0 C 1.738281 0 1.59375 -0.046875 1.46875 -0.140625 C 1.351562 -0.234375 1.296875 -0.378906 1.296875 -0.578125 C 1.296875 -0.722656 1.34375 -0.859375 1.4375 -0.984375 L 5.890625 -5.890625 C 6.597656 -6.660156 7.128906 -7.367188 7.484375 -8.015625 C 7.835938 -8.671875 8.015625 -9.253906 8.015625 -9.765625 C 8.015625 -10.617188 7.753906 -11.300781 7.234375 -11.8125 C 6.722656 -12.320312 6.03125 -12.578125 5.15625 -12.578125 C 4.757812 -12.578125 4.363281 -12.492188 3.96875 -12.328125 C 3.582031 -12.160156 3.238281 -11.941406 2.9375 -11.671875 C 2.632812 -11.398438 2.398438 -11.09375 2.234375 -10.75 C 2.160156 -10.625 2.082031 -10.535156 2 -10.484375 C 1.914062 -10.429688 1.820312 -10.40625 1.71875 -10.40625 C 1.5625 -10.40625 1.425781 -10.453125 1.3125 -10.546875 C 1.195312 -10.640625 1.140625 -10.757812 1.140625 -10.90625 C 1.140625 -11 1.160156 -11.085938 1.203125 -11.171875 C 1.242188 -11.265625 1.3125 -11.367188 1.40625 -11.484375 C 1.632812 -11.878906 1.953125 -12.242188 2.359375 -12.578125 C 2.773438 -12.910156 3.238281 -13.175781 3.75 -13.375 C 4.257812 -13.570312 4.753906 -13.671875 5.234375 -13.671875 C 6.054688 -13.671875 6.765625 -13.515625 7.359375 -13.203125 C 7.960938 -12.890625 8.425781 -12.445312 8.75 -11.875 C 9.082031 -11.300781 9.25 -10.625 9.25 -9.84375 C 9.25 -9.175781 9.039062 -8.445312 8.625 -7.65625 C 8.207031 -6.863281 7.585938 -6.015625 6.765625 -5.109375 L 3 -0.890625 L 2.8125 -1.125 Z M 9.125 -1.125 "/></g></g></g><g fill="#201f1f" fill-opacity="1"><g transform="translate(11.382507, 20.283193)"><g><path d="M 3.421875 0.0625 C 3.273438 0.0625 3.132812 0.0078125 3 -0.09375 C 2.875 -0.195312 2.8125 -0.328125 2.8125 -0.484375 C 2.8125 -0.566406 2.832031 -0.660156 2.875 -0.765625 L 8 -12.546875 L 8.203125 -12.265625 L 1.703125 -12.265625 C 1.546875 -12.265625 1.410156 -12.316406 1.296875 -12.421875 C 1.191406 -12.535156 1.140625 -12.671875 1.140625 -12.828125 C 1.140625 -12.992188 1.191406 -13.128906 1.296875 -13.234375 C 1.410156 -13.335938 1.546875 -13.390625 1.703125 -13.390625 L 8.765625 -13.390625 C 8.960938 -13.390625 9.101562 -13.335938 9.1875 -13.234375 C 9.28125 -13.128906 9.328125 -13 9.328125 -12.84375 C 9.328125 -12.75 9.304688 -12.65625 9.265625 -12.5625 L 3.96875 -0.328125 C 3.925781 -0.210938 3.851562 -0.117188 3.75 -0.046875 C 3.65625 0.0234375 3.546875 0.0625 3.421875 0.0625 Z M 3.421875 0.0625 "/></g></g></g></g></g></g><g clip-path="url(#bad79bb504)"><g transform="matrix(1, 0, 0, 1, 128, 600)"><g clip-path="url(#50baa02bc1)"><g fill="#201f1f" fill-opacity="1"><g transform="translate(0.532082, 20.283193)"><g><path d="M 9.125 -1.125 C 9.28125 -1.125 9.410156 -1.066406 9.515625 -0.953125 C 9.628906 -0.847656 9.6875 -0.71875 9.6875 -0.5625 C 9.6875 -0.394531 9.628906 -0.257812 9.515625 -0.15625 C 9.410156 -0.0507812 9.28125 0 9.125 0 L 1.90625 0 C 1.738281 0 1.59375 -0.046875 1.46875 -0.140625 C 1.351562 -0.234375 1.296875 -0.378906 1.296875 -0.578125 C 1.296875 -0.722656 1.34375 -0.859375 1.4375 -0.984375 L 5.890625 -5.890625 C 6.597656 -6.660156 7.128906 -7.367188 7.484375 -8.015625 C 7.835938 -8.671875 8.015625 -9.253906 8.015625 -9.765625 C 8.015625 -10.617188 7.753906 -11.300781 7.234375 -11.8125 C 6.722656 -12.320312 6.03125 -12.578125 5.15625 -12.578125 C 4.757812 -12.578125 4.363281 -12.492188 3.96875 -12.328125 C 3.582031 -12.160156 3.238281 -11.941406 2.9375 -11.671875 C 2.632812 -11.398438 2.398438 -11.09375 2.234375 -10.75 C 2.160156 -10.625 2.082031 -10.535156 2 -10.484375 C 1.914062 -10.429688 1.820312 -10.40625 1.71875 -10.40625 C 1.5625 -10.40625 1.425781 -10.453125 1.3125 -10.546875 C 1.195312 -10.640625 1.140625 -10.757812 1.140625 -10.90625 C 1.140625 -11 1.160156 -11.085938 1.203125 -11.171875 C 1.242188 -11.265625 1.3125 -11.367188 1.40625 -11.484375 C 1.632812 -11.878906 1.953125 -12.242188 2.359375 -12.578125 C 2.773438 -12.910156 3.238281 -13.175781 3.75 -13.375 C 4.257812 -13.570312 4.753906 -13.671875 5.234375 -13.671875 C 6.054688 -13.671875 6.765625 -13.515625 7.359375 -13.203125 C 7.960938 -12.890625 8.425781 -12.445312 8.75 -11.875 C 9.082031 -11.300781 9.25 -10.625 9.25 -9.84375 C 9.25 -9.175781 9.039062 -8.445312 8.625 -7.65625 C 8.207031 -6.863281 7.585938 -6.015625 6.765625 -5.109375 L 3 -0.890625 L 2.8125 -1.125 Z M 9.125 -1.125 "/></g></g></g><g fill="#201f1f" fill-opacity="1"><g transform="translate(11.200362, 20.283193)"><g><path d="M 7.015625 -6.78125 L 6.953125 -6.953125 C 7.390625 -6.785156 7.785156 -6.535156 8.140625 -6.203125 C 8.503906 -5.878906 8.796875 -5.492188 9.015625 -5.046875 C 9.234375 -4.609375 9.34375 -4.128906 9.34375 -3.609375 C 9.34375 -2.910156 9.160156 -2.273438 8.796875 -1.703125 C 8.429688 -1.140625 7.929688 -0.691406 7.296875 -0.359375 C 6.671875 -0.0234375 5.972656 0.140625 5.203125 0.140625 C 4.421875 0.140625 3.71875 -0.0234375 3.09375 -0.359375 C 2.46875 -0.691406 1.972656 -1.140625 1.609375 -1.703125 C 1.242188 -2.273438 1.0625 -2.910156 1.0625 -3.609375 C 1.0625 -4.171875 1.171875 -4.671875 1.390625 -5.109375 C 1.617188 -5.554688 1.914062 -5.929688 2.28125 -6.234375 C 2.644531 -6.546875 3.023438 -6.785156 3.421875 -6.953125 L 3.375 -6.765625 C 3.019531 -6.929688 2.691406 -7.15625 2.390625 -7.4375 C 2.097656 -7.726562 1.851562 -8.078125 1.65625 -8.484375 C 1.46875 -8.890625 1.375 -9.335938 1.375 -9.828125 C 1.375 -10.515625 1.539062 -11.132812 1.875 -11.6875 C 2.21875 -12.238281 2.679688 -12.675781 3.265625 -13 C 3.847656 -13.320312 4.492188 -13.484375 5.203125 -13.484375 C 5.910156 -13.484375 6.546875 -13.320312 7.109375 -13 C 7.679688 -12.675781 8.140625 -12.238281 8.484375 -11.6875 C 8.828125 -11.132812 9 -10.515625 9 -9.828125 C 9 -9.328125 8.898438 -8.875 8.703125 -8.46875 C 8.515625 -8.070312 8.265625 -7.726562 7.953125 -7.4375 C 7.648438 -7.15625 7.335938 -6.9375 7.015625 -6.78125 Z M 2.5625 -9.828125 C 2.5625 -9.316406 2.679688 -8.867188 2.921875 -8.484375 C 3.171875 -8.097656 3.492188 -7.796875 3.890625 -7.578125 C 4.285156 -7.359375 4.722656 -7.25 5.203125 -7.25 C 5.660156 -7.25 6.085938 -7.359375 6.484375 -7.578125 C 6.890625 -7.796875 7.207031 -8.097656 7.4375 -8.484375 C 7.675781 -8.867188 7.796875 -9.316406 7.796875 -9.828125 C 7.796875 -10.585938 7.550781 -11.203125 7.0625 -11.671875 C 6.582031 -12.148438 5.960938 -12.390625 5.203125 -12.390625 C 4.421875 -12.390625 3.785156 -12.148438 3.296875 -11.671875 C 2.804688 -11.203125 2.5625 -10.585938 2.5625 -9.828125 Z M 5.203125 -0.96875 C 6.078125 -0.96875 6.785156 -1.21875 7.328125 -1.71875 C 7.878906 -2.21875 8.15625 -2.847656 8.15625 -3.609375 C 8.15625 -4.117188 8.019531 -4.578125 7.75 -4.984375 C 7.476562 -5.398438 7.113281 -5.722656 6.65625 -5.953125 C 6.207031 -6.179688 5.722656 -6.296875 5.203125 -6.296875 C 4.671875 -6.296875 4.179688 -6.179688 3.734375 -5.953125 C 3.285156 -5.722656 2.925781 -5.398438 2.65625 -4.984375 C 2.382812 -4.578125 2.25 -4.117188 2.25 -3.609375 C 2.25 -2.847656 2.519531 -2.21875 3.0625 -1.71875 C 3.601562 -1.21875 4.316406 -0.96875 5.203125 -0.96875 Z M 5.203125 -0.96875 "/></g></g></g></g></g></g><g clip-path="url(#cc8f2babc2)"><g transform="matrix(1, 0, 0, 1, 254, 600)"><g clip-path="url(#b399dd29cd)"><g fill="#201f1f" fill-opacity="1"><g transform="translate(0.349952, 20.283193)"><g><path d="M 9.125 -1.125 C 9.28125 -1.125 9.410156 -1.066406 9.515625 -0.953125 C 9.628906 -0.847656 9.6875 -0.71875 9.6875 -0.5625 C 9.6875 -0.394531 9.628906 -0.257812 9.515625 -0.15625 C 9.410156 -0.0507812 9.28125 0 9.125 0 L 1.90625 0 C 1.738281 0 1.59375 -0.046875 1.46875 -0.140625 C 1.351562 -0.234375 1.296875 -0.378906 1.296875 -0.578125 C 1.296875 -0.722656 1.34375 -0.859375 1.4375 -0.984375 L 5.890625 -5.890625 C 6.597656 -6.660156 7.128906 -7.367188 7.484375 -8.015625 C 7.835938 -8.671875 8.015625 -9.253906 8.015625 -9.765625 C 8.015625 -10.617188 7.753906 -11.300781 7.234375 -11.8125 C 6.722656 -12.320312 6.03125 -12.578125 5.15625 -12.578125 C 4.757812 -12.578125 4.363281 -12.492188 3.96875 -12.328125 C 3.582031 -12.160156 3.238281 -11.941406 2.9375 -11.671875 C 2.632812 -11.398438 2.398438 -11.09375 2.234375 -10.75 C 2.160156 -10.625 2.082031 -10.535156 2 -10.484375 C 1.914062 -10.429688 1.820312 -10.40625 1.71875 -10.40625 C 1.5625 -10.40625 1.425781 -10.453125 1.3125 -10.546875 C 1.195312 -10.640625 1.140625 -10.757812 1.140625 -10.90625 C 1.140625 -11 1.160156 -11.085938 1.203125 -11.171875 C 1.242188 -11.265625 1.3125 -11.367188 1.40625 -11.484375 C 1.632812 -11.878906 1.953125 -12.242188 2.359375 -12.578125 C 2.773438 -12.910156 3.238281 -13.175781 3.75 -13.375 C 4.257812 -13.570312 4.753906 -13.671875 5.234375 -13.671875 C 6.054688 -13.671875 6.765625 -13.515625 7.359375 -13.203125 C 7.960938 -12.890625 8.425781 -12.445312 8.75 -11.875 C 9.082031 -11.300781 9.25 -10.625 9.25 -9.84375 C 9.25 -9.175781 9.039062 -8.445312 8.625 -7.65625 C 8.207031 -6.863281 7.585938 -6.015625 6.765625 -5.109375 L 3 -0.890625 L 2.8125 -1.125 Z M 9.125 -1.125 "/></g></g></g><g fill="#201f1f" fill-opacity="1"><g transform="translate(11.018232, 20.283193)"><g><path d="M 5.34375 -13.703125 C 6.09375 -13.703125 6.75 -13.566406 7.3125 -13.296875 C 7.875 -13.023438 8.332031 -12.660156 8.6875 -12.203125 C 9.050781 -11.742188 9.320312 -11.222656 9.5 -10.640625 C 9.675781 -10.066406 9.765625 -9.476562 9.765625 -8.875 C 9.765625 -8.257812 9.679688 -7.601562 9.515625 -6.90625 C 9.359375 -6.207031 9.125 -5.5 8.8125 -4.78125 C 8.5 -4.070312 8.109375 -3.394531 7.640625 -2.75 C 7.171875 -2.113281 6.617188 -1.535156 5.984375 -1.015625 C 5.359375 -0.503906 4.660156 -0.109375 3.890625 0.171875 C 3.785156 0.203125 3.703125 0.21875 3.640625 0.21875 C 3.484375 0.21875 3.34375 0.160156 3.21875 0.046875 C 3.101562 -0.0546875 3.046875 -0.203125 3.046875 -0.390625 C 3.046875 -0.515625 3.082031 -0.625 3.15625 -0.71875 C 3.238281 -0.8125 3.351562 -0.882812 3.5 -0.9375 C 4.238281 -1.25 4.945312 -1.707031 5.625 -2.3125 C 6.300781 -2.925781 6.882812 -3.632812 7.375 -4.4375 C 7.875 -5.238281 8.207031 -6.070312 8.375 -6.9375 L 8.78125 -7.1875 C 8.5625 -6.769531 8.265625 -6.394531 7.890625 -6.0625 C 7.523438 -5.726562 7.109375 -5.46875 6.640625 -5.28125 C 6.171875 -5.101562 5.660156 -5.015625 5.109375 -5.015625 C 4.285156 -5.015625 3.570312 -5.210938 2.96875 -5.609375 C 2.375 -6.015625 1.914062 -6.550781 1.59375 -7.21875 C 1.28125 -7.882812 1.125 -8.601562 1.125 -9.375 C 1.125 -10.132812 1.304688 -10.84375 1.671875 -11.5 C 2.035156 -12.15625 2.535156 -12.6875 3.171875 -13.09375 C 3.804688 -13.5 4.53125 -13.703125 5.34375 -13.703125 Z M 5.375 -12.578125 C 4.769531 -12.578125 4.234375 -12.441406 3.765625 -12.171875 C 3.304688 -11.898438 2.945312 -11.523438 2.6875 -11.046875 C 2.425781 -10.566406 2.296875 -10.007812 2.296875 -9.375 C 2.296875 -8.8125 2.40625 -8.28125 2.625 -7.78125 C 2.851562 -7.28125 3.191406 -6.878906 3.640625 -6.578125 C 4.085938 -6.273438 4.632812 -6.125 5.28125 -6.125 C 5.96875 -6.125 6.554688 -6.273438 7.046875 -6.578125 C 7.535156 -6.878906 7.914062 -7.28125 8.1875 -7.78125 C 8.457031 -8.28125 8.59375 -8.832031 8.59375 -9.4375 C 8.59375 -9.988281 8.460938 -10.5 8.203125 -10.96875 C 7.953125 -11.445312 7.585938 -11.832031 7.109375 -12.125 C 6.628906 -12.425781 6.050781 -12.578125 5.375 -12.578125 Z M 5.375 -12.578125 "/></g></g></g></g></g></g><g clip-path="url(#8d62fb1c1c)"><g transform="matrix(1, 0, 0, 1, 380, 600)"><g clip-path="url(#03d0896696)"><g fill="#201f1f" fill-opacity="1"><g transform="translate(0.167807, 20.283193)"><g><path d="M 1.71875 -1.984375 C 1.78125 -1.984375 1.84375 -1.96875 1.90625 -1.9375 C 1.976562 -1.914062 2.066406 -1.859375 2.171875 -1.765625 C 2.441406 -1.484375 2.765625 -1.269531 3.140625 -1.125 C 3.515625 -0.976562 3.9375 -0.90625 4.40625 -0.90625 C 5.039062 -0.90625 5.617188 -1.046875 6.140625 -1.328125 C 6.660156 -1.609375 7.070312 -2.003906 7.375 -2.515625 C 7.6875 -3.023438 7.84375 -3.601562 7.84375 -4.25 C 7.84375 -5 7.675781 -5.601562 7.34375 -6.0625 C 7.019531 -6.519531 6.601562 -6.859375 6.09375 -7.078125 C 5.59375 -7.304688 5.078125 -7.421875 4.546875 -7.421875 C 4.398438 -7.421875 4.257812 -7.410156 4.125 -7.390625 C 4 -7.367188 3.875 -7.34375 3.75 -7.3125 C 3.632812 -7.289062 3.546875 -7.28125 3.484375 -7.28125 C 3.316406 -7.28125 3.1875 -7.332031 3.09375 -7.4375 C 3.007812 -7.550781 2.96875 -7.691406 2.96875 -7.859375 C 2.96875 -7.953125 2.984375 -8.03125 3.015625 -8.09375 C 3.054688 -8.164062 3.109375 -8.25 3.171875 -8.34375 L 7.09375 -12.59375 L 7.328125 -12.296875 L 1.484375 -12.296875 C 1.328125 -12.296875 1.191406 -12.347656 1.078125 -12.453125 C 0.972656 -12.566406 0.921875 -12.695312 0.921875 -12.84375 C 0.921875 -13 0.972656 -13.128906 1.078125 -13.234375 C 1.191406 -13.335938 1.328125 -13.390625 1.484375 -13.390625 L 7.953125 -13.390625 C 8.171875 -13.390625 8.320312 -13.320312 8.40625 -13.1875 C 8.5 -13.050781 8.546875 -12.921875 8.546875 -12.796875 C 8.546875 -12.710938 8.523438 -12.632812 8.484375 -12.5625 C 8.453125 -12.5 8.40625 -12.425781 8.34375 -12.34375 L 4.4375 -8.09375 L 4 -8.34375 C 4.039062 -8.382812 4.171875 -8.425781 4.390625 -8.46875 C 4.617188 -8.507812 4.800781 -8.53125 4.9375 -8.53125 C 5.632812 -8.53125 6.296875 -8.363281 6.921875 -8.03125 C 7.546875 -7.695312 8.050781 -7.21875 8.4375 -6.59375 C 8.832031 -5.976562 9.03125 -5.210938 9.03125 -4.296875 C 9.03125 -3.398438 8.816406 -2.613281 8.390625 -1.9375 C 7.972656 -1.257812 7.40625 -0.734375 6.6875 -0.359375 C 5.96875 0.00390625 5.171875 0.1875 4.296875 0.1875 C 3.765625 0.1875 3.242188 0.0976562 2.734375 -0.078125 C 2.222656 -0.253906 1.773438 -0.523438 1.390625 -0.890625 C 1.296875 -0.960938 1.226562 -1.035156 1.1875 -1.109375 C 1.15625 -1.191406 1.140625 -1.269531 1.140625 -1.34375 C 1.140625 -1.5 1.191406 -1.644531 1.296875 -1.78125 C 1.410156 -1.914062 1.550781 -1.984375 1.71875 -1.984375 Z M 1.71875 -1.984375 "/></g></g></g><g fill="#201f1f" fill-opacity="1"><g transform="translate(10.258387, 20.283193)"><g><path d="M 5.71875 0.1875 C 4.695312 0.1875 3.835938 -0.117188 3.140625 -0.734375 C 2.441406 -1.347656 1.921875 -2.175781 1.578125 -3.21875 C 1.234375 -4.269531 1.0625 -5.445312 1.0625 -6.75 C 1.0625 -8.050781 1.234375 -9.222656 1.578125 -10.265625 C 1.921875 -11.316406 2.441406 -12.144531 3.140625 -12.75 C 3.835938 -13.363281 4.695312 -13.671875 5.71875 -13.671875 C 6.769531 -13.671875 7.640625 -13.363281 8.328125 -12.75 C 9.015625 -12.144531 9.53125 -11.316406 9.875 -10.265625 C 10.226562 -9.222656 10.40625 -8.050781 10.40625 -6.75 C 10.40625 -5.445312 10.226562 -4.269531 9.875 -3.21875 C 9.53125 -2.175781 9.015625 -1.347656 8.328125 -0.734375 C 7.640625 -0.117188 6.769531 0.1875 5.71875 0.1875 Z M 5.71875 -1 C 6.476562 -1 7.109375 -1.234375 7.609375 -1.703125 C 8.117188 -2.179688 8.503906 -2.851562 8.765625 -3.71875 C 9.035156 -4.59375 9.171875 -5.601562 9.171875 -6.75 C 9.171875 -7.90625 9.035156 -8.914062 8.765625 -9.78125 C 8.503906 -10.644531 8.117188 -11.3125 7.609375 -11.78125 C 7.109375 -12.257812 6.476562 -12.5 5.71875 -12.5 C 4.976562 -12.5 4.351562 -12.257812 3.84375 -11.78125 C 3.332031 -11.3125 2.945312 -10.644531 2.6875 -9.78125 C 2.425781 -8.914062 2.296875 -7.90625 2.296875 -6.75 C 2.296875 -5.601562 2.425781 -4.59375 2.6875 -3.71875 C 2.945312 -2.851562 3.332031 -2.179688 3.84375 -1.703125 C 4.351562 -1.234375 4.976562 -1 5.71875 -1 Z M 5.71875 -1 "/></g></g></g></g></g></g><g clip-path="url(#209e4543f8)"><g transform="matrix(1, 0, 0, 1, 505, 600)"><g clip-path="url(#444da3c6cc)"><g fill="#201f1f" fill-opacity="1"><g transform="translate(0.985603, 20.283193)"><g><path d="M 1.71875 -1.984375 C 1.78125 -1.984375 1.84375 -1.96875 1.90625 -1.9375 C 1.976562 -1.914062 2.066406 -1.859375 2.171875 -1.765625 C 2.441406 -1.484375 2.765625 -1.269531 3.140625 -1.125 C 3.515625 -0.976562 3.9375 -0.90625 4.40625 -0.90625 C 5.039062 -0.90625 5.617188 -1.046875 6.140625 -1.328125 C 6.660156 -1.609375 7.070312 -2.003906 7.375 -2.515625 C 7.6875 -3.023438 7.84375 -3.601562 7.84375 -4.25 C 7.84375 -5 7.675781 -5.601562 7.34375 -6.0625 C 7.019531 -6.519531 6.601562 -6.859375 6.09375 -7.078125 C 5.59375 -7.304688 5.078125 -7.421875 4.546875 -7.421875 C 4.398438 -7.421875 4.257812 -7.410156 4.125 -7.390625 C 4 -7.367188 3.875 -7.34375 3.75 -7.3125 C 3.632812 -7.289062 3.546875 -7.28125 3.484375 -7.28125 C 3.316406 -7.28125 3.1875 -7.332031 3.09375 -7.4375 C 3.007812 -7.550781 2.96875 -7.691406 2.96875 -7.859375 C 2.96875 -7.953125 2.984375 -8.03125 3.015625 -8.09375 C 3.054688 -8.164062 3.109375 -8.25 3.171875 -8.34375 L 7.09375 -12.59375 L 7.328125 -12.296875 L 1.484375 -12.296875 C 1.328125 -12.296875 1.191406 -12.347656 1.078125 -12.453125 C 0.972656 -12.566406 0.921875 -12.695312 0.921875 -12.84375 C 0.921875 -13 0.972656 -13.128906 1.078125 -13.234375 C 1.191406 -13.335938 1.328125 -13.390625 1.484375 -13.390625 L 7.953125 -13.390625 C 8.171875 -13.390625 8.320312 -13.320312 8.40625 -13.1875 C 8.5 -13.050781 8.546875 -12.921875 8.546875 -12.796875 C 8.546875 -12.710938 8.523438 -12.632812 8.484375 -12.5625 C 8.453125 -12.5 8.40625 -12.425781 8.34375 -12.34375 L 4.4375 -8.09375 L 4 -8.34375 C 4.039062 -8.382812 4.171875 -8.425781 4.390625 -8.46875 C 4.617188 -8.507812 4.800781 -8.53125 4.9375 -8.53125 C 5.632812 -8.53125 6.296875 -8.363281 6.921875 -8.03125 C 7.546875 -7.695312 8.050781 -7.21875 8.4375 -6.59375 C 8.832031 -5.976562 9.03125 -5.210938 9.03125 -4.296875 C 9.03125 -3.398438 8.816406 -2.613281 8.390625 -1.9375 C 7.972656 -1.257812 7.40625 -0.734375 6.6875 -0.359375 C 5.96875 0.00390625 5.171875 0.1875 4.296875 0.1875 C 3.765625 0.1875 3.242188 0.0976562 2.734375 -0.078125 C 2.222656 -0.253906 1.773438 -0.523438 1.390625 -0.890625 C 1.296875 -0.960938 1.226562 -1.035156 1.1875 -1.109375 C 1.15625 -1.191406 1.140625 -1.269531 1.140625 -1.34375 C 1.140625 -1.5 1.191406 -1.644531 1.296875 -1.78125 C 1.410156 -1.914062 1.550781 -1.984375 1.71875 -1.984375 Z M 1.71875 -1.984375 "/></g></g></g><g fill="#201f1f" fill-opacity="1"><g transform="translate(11.076184, 20.283193)"><g><path d="M 4.359375 0 C 4.171875 0 4.019531 -0.0546875 3.90625 -0.171875 C 3.789062 -0.285156 3.734375 -0.421875 3.734375 -0.578125 L 3.734375 -12.171875 L 3.953125 -11.984375 L 1.390625 -10.265625 C 1.285156 -10.191406 1.175781 -10.15625 1.0625 -10.15625 C 0.90625 -10.15625 0.765625 -10.21875 0.640625 -10.34375 C 0.523438 -10.46875 0.46875 -10.609375 0.46875 -10.765625 C 0.46875 -10.972656 0.566406 -11.132812 0.765625 -11.25 L 3.984375 -13.390625 C 4.066406 -13.441406 4.148438 -13.472656 4.234375 -13.484375 C 4.316406 -13.492188 4.390625 -13.492188 4.453125 -13.484375 C 4.617188 -13.472656 4.742188 -13.410156 4.828125 -13.296875 C 4.921875 -13.191406 4.96875 -13.0625 4.96875 -12.90625 L 4.96875 -0.578125 C 4.96875 -0.421875 4.910156 -0.285156 4.796875 -0.171875 C 4.679688 -0.0546875 4.535156 0 4.359375 0 Z M 4.359375 0 "/></g></g></g></g></g></g><path stroke-linecap="butt" transform="matrix(0.75, 0, 0, 0.75, 0.0000031164, 0.00002)" fill-opacity="1" fill="#000000" fill-rule="nonzero" stroke-linejoin="miter" d="M 0.807288 1.619765 L 0.807288 998.38023 M 168.567712 1.619765 L 168.567712 998.38023 M 336.322929 1.619765 L 336.322929 998.38023 M 504.083354 1.619765 L 504.083354 998.38023 M 671.83857 1.619765 L 671.83857 998.38023 M 839.593787 1.619765 L 839.593787 998.38023 M 1007.354212 1.619765 L 1007.354212 998.38023 M 1175.109428 1.619765 L 1175.109428 998.38023 M -0.0000041552 0.807265 L 1175.91672 0.807265 M -0.0000041552 200.484358 L 1175.91672 200.484358 M -0.0000041552 400.161451 L 1175.91672 400.161451 M -0.0000041552 599.838544 L 1175.91672 599.838544 M -0.0000041552 799.515637 L 1175.91672 799.515637 M -0.0000041552 999.19273 L 1175.91672 999.19273 " stroke="#000000" stroke-width="1.618966" stroke-opacity="1" stroke-miterlimit="4"/></svg>