<svg xmlns="http://www.w3.org/2000/svg" xmlns:xlink="http://www.w3.org/1999/xlink" width="1176" zoomAndPan="magnify" viewBox="0 0 882 749.999995" height="1000" preserveAspectRatio="xMidYMid meet" version="1.0"><defs><g/><clipPath id="e1f9e13dc9"><path d="M 380 1.203125 L 388 1.203125 L 388 26 L 380 26 Z M 380 1.203125 " clip-rule="nonzero"/></clipPath><clipPath id="6ff4b0186d"><path d="M 0.160156 6 L 6 6 L 6 21 L 0.160156 21 Z M 0.160156 6 " clip-rule="nonzero"/></clipPath><clipPath id="c052e78309"><rect x="0" width="8" y="0" height="25"/></clipPath><clipPath id="520a8f8d50"><path d="M 505 1.203125 L 517 1.203125 L 517 26 L 505 26 Z M 505 1.203125 " clip-rule="nonzero"/></clipPath><clipPath id="2897ba1206"><rect x="0" width="12" y="0" height="25"/></clipPath><clipPath id="6ebf84b431"><path d="M 631 1.203125 L 643 1.203125 L 643 26 L 631 26 Z M 631 1.203125 " clip-rule="nonzero"/></clipPath><clipPath id="42e24a0007"><rect x="0" width="12" y="0" height="25"/></clipPath><clipPath id="3fae42878c"><path d="M 757 1.203125 L 768 1.203125 L 768 26 L 757 26 Z M 757 1.203125 " clip-rule="nonzero"/></clipPath><clipPath id="2872aa183b"><path d="M 0.441406 6 L 11 6 L 11 21 L 0.441406 21 Z M 0.441406 6 " clip-rule="nonzero"/></clipPath><clipPath id="ca9a3d66f6"><rect x="0" width="11" y="0" height="25"/></clipPath><clipPath id="4c1bce1fa5"><rect x="0" width="12" y="0" height="25"/></clipPath><clipPath id="550308557e"><rect x="0" width="12" y="0" height="25"/></clipPath><clipPath id="93e7ce1c6b"><rect x="0" width="11" y="0" height="25"/></clipPath><clipPath id="33a9f661cf"><rect x="0" width="12" y="0" height="25"/></clipPath><clipPath id="019a5f4458"><rect x="0" width="12" y="0" height="25"/></clipPath><clipPath id="73c011facc"><rect x="0" width="20" y="0" height="25"/></clipPath><clipPath id="ca82340164"><rect x="0" width="16" y="0" height="25"/></clipPath><clipPath id="1814e4dbd2"><rect x="0" width="19" y="0" height="25"/></clipPath><clipPath id="dbeef5ca4d"><path d="M 0.398438 6 L 6 6 L 6 20 L 0.398438 20 Z M 0.398438 6 " clip-rule="nonzero"/></clipPath><clipPath id="5ad6d02187"><rect x="0" width="19" y="0" height="25"/></clipPath><clipPath id="6f869d1874"><path d="M 0.160156 6 L 6 6 L 6 20 L 0.160156 20 Z M 0.160156 6 " clip-rule="nonzero"/></clipPath><clipPath id="c653ebfe49"><rect x="0" width="18" y="0" height="25"/></clipPath><clipPath id="a383b72a6a"><path d="M 0.160156 6 L 6 6 L 6 20 L 0.160156 20 Z M 0.160156 6 " clip-rule="nonzero"/></clipPath><clipPath id="52df571ee2"><rect x="0" width="19" y="0" height="25"/></clipPath><clipPath id="b0f5a9c1c5"><rect x="0" width="19" y="0" height="25"/></clipPath><clipPath id="11206eed4b"><rect x="0" width="19" y="0" height="25"/></clipPath><clipPath id="34a2ecb109"><rect x="0" width="19" y="0" height="25"/></clipPath><clipPath id="8cd9c8e308"><path d="M 2 450.480469 L 21 450.480469 L 21 476 L 2 476 Z M 2 450.480469 " clip-rule="nonzero"/></clipPath><clipPath id="f4a8f0d4a4"><rect x="0" width="19" y="0" height="26"/></clipPath><clipPath id="8a8c0036a8"><path d="M 128 450.480469 L 151 450.480469 L 151 476 L 128 476 Z M 128 450.480469 " clip-rule="nonzero"/></clipPath><clipPath id="80728fd2ba"><rect x="0" width="23" y="0" height="26"/></clipPath><clipPath id="c1a62f506b"><path d="M 254 450.480469 L 273 450.480469 L 273 476 L 254 476 Z M 254 450.480469 " clip-rule="nonzero"/></clipPath><clipPath id="8c91f78726"><rect x="0" width="19" y="0" height="26"/></clipPath><clipPath id="8b65e190fd"><path d="M 380 450.480469 L 402 450.480469 L 402 476 L 380 476 Z M 380 450.480469 " clip-rule="nonzero"/></clipPath><clipPath id="f80adee273"><rect x="0" width="22" y="0" height="26"/></clipPath><clipPath id="b34caf66fc"><path d="M 505 450.480469 L 528 450.480469 L 528 476 L 505 476 Z M 505 450.480469 " clip-rule="nonzero"/></clipPath><clipPath id="187321821a"><rect x="0" width="23" y="0" height="26"/></clipPath><clipPath id="8f05cc929e"><path d="M 631 450.480469 L 654 450.480469 L 654 476 L 631 476 Z M 631 450.480469 " clip-rule="nonzero"/></clipPath><clipPath id="bce1416804"><rect x="0" width="23" y="0" height="26"/></clipPath><clipPath id="33add1869f"><path d="M 757 450.480469 L 779 450.480469 L 779 476 L 757 476 Z M 757 450.480469 " clip-rule="nonzero"/></clipPath><clipPath id="620159dcc8"><rect x="0" width="22" y="0" height="26"/></clipPath><clipPath id="cfcdd6037e"><path d="M 2 600.242188 L 24 600.242188 L 24 625 L 2 625 Z M 2 600.242188 " clip-rule="nonzero"/></clipPath><clipPath id="8cc67ae5b8"><rect x="0" width="22" y="0" height="25"/></clipPath><clipPath id="f0f329ed4a"><path d="M 128 600.242188 L 150 600.242188 L 150 625 L 128 625 Z M 128 600.242188 " clip-rule="nonzero"/></clipPath><clipPath id="891a660166"><rect x="0" width="22" y="0" height="25"/></clipPath><clipPath id="6620ff4628"><path d="M 254 600.242188 L 276 600.242188 L 276 625 L 254 625 Z M 254 600.242188 " clip-rule="nonzero"/></clipPath><clipPath id="f3471d38c5"><rect x="0" width="22" y="0" height="25"/></clipPath><clipPath id="fa3c18950d"><path d="M 380 600.242188 L 402 600.242188 L 402 625 L 380 625 Z M 380 600.242188 " clip-rule="nonzero"/></clipPath><clipPath id="b9dfde914d"><rect x="0" width="22" y="0" height="25"/></clipPath><clipPath id="e0df701fdb"><path d="M 505 600.242188 L 528 600.242188 L 528 625 L 505 625 Z M 505 600.242188 " clip-rule="nonzero"/></clipPath><clipPath id="46a300cb47"><rect x="0" width="23" y="0" height="25"/></clipPath><clipPath id="8adafb8f30"><path d="M 631 600.242188 L 650 600.242188 L 650 625 L 631 625 Z M 631 600.242188 " clip-rule="nonzero"/></clipPath><clipPath id="674954ecc8"><rect x="0" width="19" y="0" height="25"/></clipPath></defs><g clip-path="url(#e1f9e13dc9)"><g transform="matrix(1, 0, 0, 1, 380, 1)"><g clip-path="url(#c052e78309)"><g clip-path="url(#6ff4b0186d)"><g fill="#201f1f" fill-opacity="1"><g transform="translate(0.162094, 20.092703)"><g><path d="M 4.3125 0 C 4.132812 0 3.988281 -0.0546875 3.875 -0.171875 C 3.757812 -0.285156 3.703125 -0.421875 3.703125 -0.578125 L 3.703125 -12.078125 L 3.921875 -11.890625 L 1.375 -10.1875 C 1.269531 -10.113281 1.160156 -10.078125 1.046875 -10.078125 C 0.898438 -10.078125 0.765625 -10.140625 0.640625 -10.265625 C 0.515625 -10.390625 0.453125 -10.53125 0.453125 -10.6875 C 0.453125 -10.882812 0.554688 -11.039062 0.765625 -11.15625 L 3.953125 -13.28125 C 4.035156 -13.332031 4.113281 -13.363281 4.1875 -13.375 C 4.269531 -13.382812 4.347656 -13.382812 4.421875 -13.375 C 4.578125 -13.363281 4.703125 -13.300781 4.796875 -13.1875 C 4.890625 -13.082031 4.9375 -12.953125 4.9375 -12.796875 L 4.9375 -0.578125 C 4.9375 -0.421875 4.878906 -0.285156 4.765625 -0.171875 C 4.648438 -0.0546875 4.5 0 4.3125 0 Z M 4.3125 0 "/></g></g></g></g></g></g></g><g clip-path="url(#520a8f8d50)"><g transform="matrix(1, 0, 0, 1, 505, 1)"><g clip-path="url(#2897ba1206)"><g fill="#201f1f" fill-opacity="1"><g transform="translate(0.981385, 20.092703)"><g><path d="M 9.0625 -1.109375 C 9.207031 -1.109375 9.332031 -1.050781 9.4375 -0.9375 C 9.550781 -0.832031 9.609375 -0.703125 9.609375 -0.546875 C 9.609375 -0.390625 9.550781 -0.257812 9.4375 -0.15625 C 9.332031 -0.0507812 9.207031 0 9.0625 0 L 1.890625 0 C 1.722656 0 1.578125 -0.046875 1.453125 -0.140625 C 1.335938 -0.234375 1.28125 -0.378906 1.28125 -0.578125 C 1.28125 -0.710938 1.332031 -0.84375 1.4375 -0.96875 L 5.84375 -5.84375 C 6.550781 -6.613281 7.078125 -7.316406 7.421875 -7.953125 C 7.773438 -8.597656 7.953125 -9.175781 7.953125 -9.6875 C 7.953125 -10.53125 7.695312 -11.207031 7.1875 -11.71875 C 6.675781 -12.226562 5.988281 -12.484375 5.125 -12.484375 C 4.726562 -12.484375 4.332031 -12.398438 3.9375 -12.234375 C 3.550781 -12.066406 3.207031 -11.847656 2.90625 -11.578125 C 2.613281 -11.304688 2.382812 -11 2.21875 -10.65625 C 2.144531 -10.53125 2.066406 -10.441406 1.984375 -10.390625 C 1.898438 -10.335938 1.804688 -10.3125 1.703125 -10.3125 C 1.546875 -10.3125 1.410156 -10.359375 1.296875 -10.453125 C 1.179688 -10.554688 1.125 -10.675781 1.125 -10.8125 C 1.125 -10.90625 1.144531 -10.992188 1.1875 -11.078125 C 1.238281 -11.171875 1.304688 -11.273438 1.390625 -11.390625 C 1.617188 -11.785156 1.9375 -12.144531 2.34375 -12.46875 C 2.757812 -12.800781 3.21875 -13.066406 3.71875 -13.265625 C 4.21875 -13.460938 4.710938 -13.5625 5.203125 -13.5625 C 6.015625 -13.5625 6.71875 -13.40625 7.3125 -13.09375 C 7.90625 -12.78125 8.363281 -12.34375 8.6875 -11.78125 C 9.007812 -11.21875 9.171875 -10.546875 9.171875 -9.765625 C 9.171875 -9.097656 8.960938 -8.375 8.546875 -7.59375 C 8.140625 -6.8125 7.523438 -5.96875 6.703125 -5.0625 L 2.984375 -0.875 L 2.796875 -1.109375 Z M 9.0625 -1.109375 "/></g></g></g></g></g></g><g clip-path="url(#6ebf84b431)"><g transform="matrix(1, 0, 0, 1, 631, 1)"><g clip-path="url(#42e24a0007)"><g fill="#201f1f" fill-opacity="1"><g transform="translate(0.800617, 20.092703)"><g><path d="M 1.703125 -1.96875 C 1.765625 -1.96875 1.828125 -1.953125 1.890625 -1.921875 C 1.960938 -1.898438 2.050781 -1.847656 2.15625 -1.765625 C 2.425781 -1.484375 2.742188 -1.265625 3.109375 -1.109375 C 3.484375 -0.960938 3.90625 -0.890625 4.375 -0.890625 C 5 -0.890625 5.566406 -1.03125 6.078125 -1.3125 C 6.597656 -1.59375 7.007812 -1.984375 7.3125 -2.484375 C 7.625 -2.992188 7.78125 -3.570312 7.78125 -4.21875 C 7.78125 -4.957031 7.613281 -5.550781 7.28125 -6 C 6.957031 -6.457031 6.546875 -6.796875 6.046875 -7.015625 C 5.546875 -7.242188 5.035156 -7.359375 4.515625 -7.359375 C 4.367188 -7.359375 4.226562 -7.347656 4.09375 -7.328125 C 3.957031 -7.304688 3.832031 -7.28125 3.71875 -7.25 C 3.601562 -7.226562 3.515625 -7.21875 3.453125 -7.21875 C 3.285156 -7.21875 3.15625 -7.269531 3.0625 -7.375 C 2.976562 -7.488281 2.9375 -7.628906 2.9375 -7.796875 C 2.9375 -7.890625 2.957031 -7.96875 3 -8.03125 C 3.039062 -8.101562 3.09375 -8.1875 3.15625 -8.28125 L 7.03125 -12.5 L 7.265625 -12.1875 L 1.46875 -12.1875 C 1.3125 -12.1875 1.179688 -12.238281 1.078125 -12.34375 C 0.972656 -12.457031 0.921875 -12.59375 0.921875 -12.75 C 0.921875 -12.894531 0.972656 -13.019531 1.078125 -13.125 C 1.179688 -13.226562 1.3125 -13.28125 1.46875 -13.28125 L 7.890625 -13.28125 C 8.109375 -13.28125 8.257812 -13.210938 8.34375 -13.078125 C 8.4375 -12.941406 8.484375 -12.8125 8.484375 -12.6875 C 8.484375 -12.613281 8.460938 -12.539062 8.421875 -12.46875 C 8.390625 -12.394531 8.34375 -12.320312 8.28125 -12.25 L 4.390625 -8.03125 L 3.96875 -8.28125 C 4.007812 -8.3125 4.140625 -8.347656 4.359375 -8.390625 C 4.585938 -8.441406 4.765625 -8.46875 4.890625 -8.46875 C 5.585938 -8.46875 6.242188 -8.300781 6.859375 -7.96875 C 7.484375 -7.632812 7.988281 -7.160156 8.375 -6.546875 C 8.769531 -5.929688 8.96875 -5.171875 8.96875 -4.265625 C 8.96875 -3.367188 8.753906 -2.585938 8.328125 -1.921875 C 7.910156 -1.253906 7.34375 -0.734375 6.625 -0.359375 C 5.914062 0.00390625 5.128906 0.1875 4.265625 0.1875 C 3.742188 0.1875 3.226562 0.0976562 2.71875 -0.078125 C 2.207031 -0.253906 1.757812 -0.519531 1.375 -0.875 C 1.28125 -0.957031 1.210938 -1.035156 1.171875 -1.109375 C 1.140625 -1.179688 1.125 -1.257812 1.125 -1.34375 C 1.125 -1.488281 1.175781 -1.628906 1.28125 -1.765625 C 1.394531 -1.898438 1.535156 -1.96875 1.703125 -1.96875 Z M 1.703125 -1.96875 "/></g></g></g></g></g></g><g clip-path="url(#3fae42878c)"><g transform="matrix(1, 0, 0, 1, 757, 1)"><g clip-path="url(#ca9a3d66f6)"><g clip-path="url(#2872aa183b)"><g fill="#201f1f" fill-opacity="1"><g transform="translate(0.619966, 20.092703)"><g><path d="M 7.015625 0 C 6.847656 0 6.710938 -0.0546875 6.609375 -0.171875 C 6.503906 -0.285156 6.453125 -0.421875 6.453125 -0.578125 L 6.453125 -11.796875 L 6.703125 -11.640625 L 1.6875 -4.984375 L 1.625 -5.203125 L 8.96875 -5.203125 C 9.113281 -5.203125 9.238281 -5.148438 9.34375 -5.046875 C 9.457031 -4.941406 9.515625 -4.8125 9.515625 -4.65625 C 9.515625 -4.507812 9.457031 -4.382812 9.34375 -4.28125 C 9.238281 -4.175781 9.113281 -4.125 8.96875 -4.125 L 0.84375 -4.125 C 0.6875 -4.125 0.550781 -4.179688 0.4375 -4.296875 C 0.320312 -4.421875 0.265625 -4.5625 0.265625 -4.71875 C 0.265625 -4.863281 0.3125 -4.992188 0.40625 -5.109375 L 6.546875 -13.140625 C 6.617188 -13.234375 6.703125 -13.296875 6.796875 -13.328125 C 6.890625 -13.359375 6.96875 -13.375 7.03125 -13.375 C 7.195312 -13.375 7.332031 -13.316406 7.4375 -13.203125 C 7.550781 -13.085938 7.609375 -12.953125 7.609375 -12.796875 L 7.609375 -0.578125 C 7.609375 -0.421875 7.550781 -0.285156 7.4375 -0.171875 C 7.320312 -0.0546875 7.179688 0 7.015625 0 Z M 7.015625 0 "/></g></g></g></g></g></g></g><g transform="matrix(1, 0, 0, 1, 2, 151)"><g clip-path="url(#4c1bce1fa5)"><g fill="#201f1f" fill-opacity="1"><g transform="translate(0.704277, 19.851991)"><g><path d="M 4.46875 0.03125 C 3.945312 0.03125 3.421875 -0.0507812 2.890625 -0.21875 C 2.367188 -0.394531 1.898438 -0.65625 1.484375 -1 C 1.410156 -1.0625 1.347656 -1.132812 1.296875 -1.21875 C 1.253906 -1.3125 1.234375 -1.398438 1.234375 -1.484375 C 1.234375 -1.617188 1.285156 -1.742188 1.390625 -1.859375 C 1.492188 -1.984375 1.628906 -2.046875 1.796875 -2.046875 C 1.929688 -2.046875 2.070312 -1.988281 2.21875 -1.875 C 2.550781 -1.613281 2.910156 -1.410156 3.296875 -1.265625 C 3.679688 -1.128906 4.070312 -1.0625 4.46875 -1.0625 C 5.21875 -1.0625 5.875 -1.207031 6.4375 -1.5 C 7 -1.789062 7.429688 -2.195312 7.734375 -2.71875 C 8.046875 -3.25 8.203125 -3.863281 8.203125 -4.5625 C 8.203125 -5.21875 8.0625 -5.78125 7.78125 -6.25 C 7.5 -6.726562 7.097656 -7.101562 6.578125 -7.375 C 6.066406 -7.65625 5.460938 -7.796875 4.765625 -7.796875 C 4.304688 -7.796875 3.882812 -7.722656 3.5 -7.578125 C 3.125 -7.441406 2.800781 -7.300781 2.53125 -7.15625 C 2.257812 -7.007812 2.039062 -6.9375 1.875 -6.9375 C 1.71875 -6.9375 1.59375 -6.972656 1.5 -7.046875 C 1.40625 -7.128906 1.34375 -7.226562 1.3125 -7.34375 C 1.28125 -7.457031 1.273438 -7.578125 1.296875 -7.703125 L 2.125 -12.796875 C 2.132812 -12.910156 2.191406 -13.015625 2.296875 -13.109375 C 2.410156 -13.210938 2.550781 -13.265625 2.71875 -13.265625 L 8.46875 -13.265625 C 8.613281 -13.265625 8.738281 -13.207031 8.84375 -13.09375 C 8.957031 -12.988281 9.015625 -12.859375 9.015625 -12.703125 C 9.015625 -12.535156 8.957031 -12.398438 8.84375 -12.296875 C 8.738281 -12.191406 8.613281 -12.140625 8.46875 -12.140625 L 2.984375 -12.140625 L 3.15625 -12.3125 L 2.375 -7.78125 L 2.03125 -8.03125 C 2.195312 -8.15625 2.429688 -8.28125 2.734375 -8.40625 C 3.046875 -8.53125 3.394531 -8.640625 3.78125 -8.734375 C 4.175781 -8.835938 4.59375 -8.890625 5.03125 -8.890625 C 5.851562 -8.890625 6.585938 -8.707031 7.234375 -8.34375 C 7.890625 -7.976562 8.40625 -7.472656 8.78125 -6.828125 C 9.15625 -6.179688 9.34375 -5.441406 9.34375 -4.609375 C 9.34375 -3.671875 9.140625 -2.851562 8.734375 -2.15625 C 8.335938 -1.46875 7.773438 -0.929688 7.046875 -0.546875 C 6.328125 -0.160156 5.46875 0.03125 4.46875 0.03125 Z M 4.46875 0.03125 "/></g></g></g></g></g><g transform="matrix(1, 0, 0, 1, 128, 151)"><g clip-path="url(#550308557e)"><g fill="#201f1f" fill-opacity="1"><g transform="translate(0.523556, 19.851991)"><g><path d="M 5.484375 0.1875 C 4.742188 0.1875 4.097656 0.0546875 3.546875 -0.203125 C 2.992188 -0.472656 2.535156 -0.832031 2.171875 -1.28125 C 1.804688 -1.738281 1.535156 -2.253906 1.359375 -2.828125 C 1.191406 -3.398438 1.109375 -3.988281 1.109375 -4.59375 C 1.109375 -5.195312 1.179688 -5.851562 1.328125 -6.5625 C 1.484375 -7.269531 1.71875 -7.984375 2.03125 -8.703125 C 2.351562 -9.429688 2.75 -10.117188 3.21875 -10.765625 C 3.6875 -11.421875 4.226562 -12.003906 4.84375 -12.515625 C 5.457031 -13.035156 6.15625 -13.441406 6.9375 -13.734375 C 7.03125 -13.765625 7.109375 -13.78125 7.171875 -13.78125 C 7.335938 -13.78125 7.476562 -13.734375 7.59375 -13.640625 C 7.71875 -13.554688 7.78125 -13.40625 7.78125 -13.1875 C 7.78125 -13.0625 7.738281 -12.945312 7.65625 -12.84375 C 7.570312 -12.75 7.457031 -12.675781 7.3125 -12.625 C 6.78125 -12.394531 6.253906 -12.070312 5.734375 -11.65625 C 5.210938 -11.238281 4.726562 -10.753906 4.28125 -10.203125 C 3.832031 -9.648438 3.453125 -9.054688 3.140625 -8.421875 C 2.828125 -7.796875 2.609375 -7.160156 2.484375 -6.515625 L 2.0625 -6.265625 C 2.289062 -6.691406 2.585938 -7.066406 2.953125 -7.390625 C 3.316406 -7.710938 3.734375 -7.972656 4.203125 -8.171875 C 4.671875 -8.367188 5.179688 -8.46875 5.734375 -8.46875 C 6.304688 -8.46875 6.832031 -8.34375 7.3125 -8.09375 C 7.800781 -7.851562 8.21875 -7.523438 8.5625 -7.109375 C 8.914062 -6.703125 9.191406 -6.238281 9.390625 -5.71875 C 9.585938 -5.195312 9.6875 -4.65625 9.6875 -4.09375 C 9.6875 -3.34375 9.503906 -2.640625 9.140625 -1.984375 C 8.773438 -1.335938 8.273438 -0.8125 7.640625 -0.40625 C 7.015625 -0.0078125 6.296875 0.1875 5.484375 0.1875 Z M 5.46875 -0.921875 C 6.050781 -0.921875 6.570312 -1.050781 7.03125 -1.3125 C 7.488281 -1.582031 7.847656 -1.957031 8.109375 -2.4375 C 8.367188 -2.914062 8.5 -3.46875 8.5 -4.09375 C 8.5 -4.664062 8.382812 -5.195312 8.15625 -5.6875 C 7.9375 -6.175781 7.609375 -6.578125 7.171875 -6.890625 C 6.734375 -7.203125 6.191406 -7.359375 5.546875 -7.359375 C 4.867188 -7.359375 4.285156 -7.203125 3.796875 -6.890625 C 3.304688 -6.585938 2.929688 -6.1875 2.671875 -5.6875 C 2.410156 -5.1875 2.28125 -4.632812 2.28125 -4.03125 C 2.28125 -3.5 2.40625 -2.992188 2.65625 -2.515625 C 2.90625 -2.035156 3.269531 -1.648438 3.75 -1.359375 C 4.226562 -1.066406 4.800781 -0.921875 5.46875 -0.921875 Z M 5.46875 -0.921875 "/></g></g></g></g></g><g transform="matrix(1, 0, 0, 1, 254, 151)"><g clip-path="url(#93e7ce1c6b)"><g fill="#201f1f" fill-opacity="1"><g transform="translate(0.342833, 19.851991)"><g><path d="M 3.40625 0.0625 C 3.25 0.0625 3.109375 0.0078125 2.984375 -0.09375 C 2.859375 -0.195312 2.796875 -0.328125 2.796875 -0.484375 C 2.796875 -0.566406 2.8125 -0.660156 2.84375 -0.765625 L 7.9375 -12.4375 L 8.140625 -12.171875 L 1.6875 -12.171875 C 1.53125 -12.171875 1.394531 -12.222656 1.28125 -12.328125 C 1.175781 -12.441406 1.125 -12.578125 1.125 -12.734375 C 1.125 -12.890625 1.175781 -13.019531 1.28125 -13.125 C 1.394531 -13.226562 1.53125 -13.28125 1.6875 -13.28125 L 8.6875 -13.28125 C 8.882812 -13.28125 9.023438 -13.226562 9.109375 -13.125 C 9.203125 -13.019531 9.25 -12.894531 9.25 -12.75 C 9.25 -12.644531 9.226562 -12.546875 9.1875 -12.453125 L 3.9375 -0.328125 C 3.894531 -0.210938 3.820312 -0.117188 3.71875 -0.046875 C 3.625 0.0234375 3.519531 0.0625 3.40625 0.0625 Z M 3.40625 0.0625 "/></g></g></g></g></g><g transform="matrix(1, 0, 0, 1, 380, 151)"><g clip-path="url(#33a9f661cf)"><g fill="#201f1f" fill-opacity="1"><g transform="translate(0.162094, 19.851991)"><g><path d="M 6.953125 -6.71875 L 6.90625 -6.90625 C 7.332031 -6.738281 7.722656 -6.488281 8.078125 -6.15625 C 8.441406 -5.832031 8.726562 -5.453125 8.9375 -5.015625 C 9.15625 -4.578125 9.265625 -4.097656 9.265625 -3.578125 C 9.265625 -2.890625 9.082031 -2.265625 8.71875 -1.703125 C 8.351562 -1.140625 7.859375 -0.691406 7.234375 -0.359375 C 6.617188 -0.0234375 5.925781 0.140625 5.15625 0.140625 C 4.382812 0.140625 3.6875 -0.0234375 3.0625 -0.359375 C 2.445312 -0.691406 1.957031 -1.140625 1.59375 -1.703125 C 1.226562 -2.265625 1.046875 -2.890625 1.046875 -3.578125 C 1.046875 -4.140625 1.15625 -4.640625 1.375 -5.078125 C 1.601562 -5.515625 1.898438 -5.882812 2.265625 -6.1875 C 2.628906 -6.5 3.007812 -6.738281 3.40625 -6.90625 L 3.34375 -6.703125 C 3 -6.867188 2.675781 -7.09375 2.375 -7.375 C 2.082031 -7.664062 1.835938 -8.007812 1.640625 -8.40625 C 1.453125 -8.8125 1.359375 -9.257812 1.359375 -9.75 C 1.359375 -10.4375 1.523438 -11.050781 1.859375 -11.59375 C 2.203125 -12.144531 2.660156 -12.578125 3.234375 -12.890625 C 3.816406 -13.210938 4.457031 -13.375 5.15625 -13.375 C 5.851562 -13.375 6.484375 -13.210938 7.046875 -12.890625 C 7.617188 -12.578125 8.070312 -12.144531 8.40625 -11.59375 C 8.75 -11.050781 8.921875 -10.4375 8.921875 -9.75 C 8.921875 -9.25 8.820312 -8.800781 8.625 -8.40625 C 8.4375 -8.007812 8.191406 -7.664062 7.890625 -7.375 C 7.585938 -7.09375 7.273438 -6.875 6.953125 -6.71875 Z M 2.546875 -9.75 C 2.546875 -9.238281 2.664062 -8.789062 2.90625 -8.40625 C 3.144531 -8.019531 3.460938 -7.71875 3.859375 -7.5 C 4.253906 -7.289062 4.6875 -7.1875 5.15625 -7.1875 C 5.613281 -7.1875 6.039062 -7.289062 6.4375 -7.5 C 6.832031 -7.71875 7.144531 -8.019531 7.375 -8.40625 C 7.613281 -8.789062 7.734375 -9.238281 7.734375 -9.75 C 7.734375 -10.5 7.488281 -11.109375 7 -11.578125 C 6.519531 -12.046875 5.90625 -12.28125 5.15625 -12.28125 C 4.382812 -12.28125 3.753906 -12.046875 3.265625 -11.578125 C 2.785156 -11.109375 2.546875 -10.5 2.546875 -9.75 Z M 5.15625 -0.953125 C 6.019531 -0.953125 6.722656 -1.203125 7.265625 -1.703125 C 7.804688 -2.203125 8.078125 -2.828125 8.078125 -3.578125 C 8.078125 -4.085938 7.941406 -4.546875 7.671875 -4.953125 C 7.410156 -5.359375 7.054688 -5.675781 6.609375 -5.90625 C 6.160156 -6.132812 5.675781 -6.25 5.15625 -6.25 C 4.632812 -6.25 4.148438 -6.132812 3.703125 -5.90625 C 3.253906 -5.675781 2.894531 -5.359375 2.625 -4.953125 C 2.363281 -4.546875 2.234375 -4.085938 2.234375 -3.578125 C 2.234375 -2.828125 2.5 -2.203125 3.03125 -1.703125 C 3.570312 -1.203125 4.28125 -0.953125 5.15625 -0.953125 Z M 5.15625 -0.953125 "/></g></g></g></g></g><g transform="matrix(1, 0, 0, 1, 505, 151)"><g clip-path="url(#019a5f4458)"><g fill="#201f1f" fill-opacity="1"><g transform="translate(0.981385, 19.851991)"><g><path d="M 5.296875 -13.59375 C 6.046875 -13.59375 6.695312 -13.457031 7.25 -13.1875 C 7.800781 -12.914062 8.253906 -12.550781 8.609375 -12.09375 C 8.972656 -11.644531 9.242188 -11.132812 9.421875 -10.5625 C 9.597656 -9.988281 9.6875 -9.40625 9.6875 -8.8125 C 9.6875 -8.195312 9.601562 -7.539062 9.4375 -6.84375 C 9.28125 -6.15625 9.046875 -5.457031 8.734375 -4.75 C 8.429688 -4.039062 8.046875 -3.367188 7.578125 -2.734375 C 7.109375 -2.097656 6.5625 -1.523438 5.9375 -1.015625 C 5.3125 -0.503906 4.617188 -0.109375 3.859375 0.171875 C 3.753906 0.191406 3.671875 0.203125 3.609375 0.203125 C 3.453125 0.203125 3.3125 0.148438 3.1875 0.046875 C 3.070312 -0.0546875 3.015625 -0.195312 3.015625 -0.375 C 3.015625 -0.507812 3.050781 -0.625 3.125 -0.71875 C 3.207031 -0.8125 3.328125 -0.882812 3.484375 -0.9375 C 4.203125 -1.238281 4.898438 -1.691406 5.578125 -2.296875 C 6.253906 -2.898438 6.835938 -3.597656 7.328125 -4.390625 C 7.816406 -5.191406 8.144531 -6.019531 8.3125 -6.875 L 8.71875 -7.125 C 8.5 -6.71875 8.203125 -6.347656 7.828125 -6.015625 C 7.460938 -5.679688 7.046875 -5.421875 6.578125 -5.234375 C 6.117188 -5.054688 5.613281 -4.96875 5.0625 -4.96875 C 4.25 -4.96875 3.546875 -5.164062 2.953125 -5.5625 C 2.359375 -5.96875 1.898438 -6.5 1.578125 -7.15625 C 1.265625 -7.820312 1.109375 -8.539062 1.109375 -9.3125 C 1.109375 -10.0625 1.289062 -10.757812 1.65625 -11.40625 C 2.019531 -12.0625 2.515625 -12.585938 3.140625 -12.984375 C 3.773438 -13.390625 4.492188 -13.59375 5.296875 -13.59375 Z M 5.328125 -12.484375 C 4.734375 -12.484375 4.207031 -12.347656 3.75 -12.078125 C 3.289062 -11.804688 2.929688 -11.429688 2.671875 -10.953125 C 2.410156 -10.484375 2.28125 -9.9375 2.28125 -9.3125 C 2.28125 -8.75 2.390625 -8.21875 2.609375 -7.71875 C 2.828125 -7.21875 3.160156 -6.816406 3.609375 -6.515625 C 4.054688 -6.222656 4.597656 -6.078125 5.234375 -6.078125 C 5.921875 -6.078125 6.503906 -6.222656 6.984375 -6.515625 C 7.472656 -6.816406 7.847656 -7.21875 8.109375 -7.71875 C 8.378906 -8.21875 8.515625 -8.765625 8.515625 -9.359375 C 8.515625 -9.910156 8.390625 -10.421875 8.140625 -10.890625 C 7.890625 -11.359375 7.523438 -11.738281 7.046875 -12.03125 C 6.578125 -12.332031 6.003906 -12.484375 5.328125 -12.484375 Z M 5.328125 -12.484375 "/></g></g></g></g></g><g transform="matrix(1, 0, 0, 1, 631, 151)"><g clip-path="url(#73c011facc)"><g fill="#201f1f" fill-opacity="1"><g transform="translate(0.800617, 19.851991)"><g><path d="M 4.3125 0 C 4.132812 0 3.988281 -0.0546875 3.875 -0.171875 C 3.757812 -0.285156 3.703125 -0.421875 3.703125 -0.578125 L 3.703125 -12.078125 L 3.921875 -11.890625 L 1.375 -10.1875 C 1.269531 -10.113281 1.160156 -10.078125 1.046875 -10.078125 C 0.898438 -10.078125 0.765625 -10.140625 0.640625 -10.265625 C 0.515625 -10.390625 0.453125 -10.53125 0.453125 -10.6875 C 0.453125 -10.882812 0.554688 -11.039062 0.765625 -11.15625 L 3.953125 -13.28125 C 4.035156 -13.332031 4.113281 -13.363281 4.1875 -13.375 C 4.269531 -13.382812 4.347656 -13.382812 4.421875 -13.375 C 4.578125 -13.363281 4.703125 -13.300781 4.796875 -13.1875 C 4.890625 -13.082031 4.9375 -12.953125 4.9375 -12.796875 L 4.9375 -0.578125 C 4.9375 -0.421875 4.878906 -0.285156 4.765625 -0.171875 C 4.648438 -0.0546875 4.5 0 4.3125 0 Z M 4.3125 0 "/></g></g></g><g fill="#201f1f" fill-opacity="1"><g transform="translate(7.867257, 19.851991)"><g><path d="M 5.671875 0.1875 C 4.648438 0.1875 3.796875 -0.113281 3.109375 -0.71875 C 2.421875 -1.332031 1.90625 -2.160156 1.5625 -3.203125 C 1.21875 -4.242188 1.046875 -5.40625 1.046875 -6.6875 C 1.046875 -7.988281 1.21875 -9.15625 1.5625 -10.1875 C 1.90625 -11.226562 2.421875 -12.050781 3.109375 -12.65625 C 3.796875 -13.257812 4.648438 -13.5625 5.671875 -13.5625 C 6.722656 -13.5625 7.585938 -13.257812 8.265625 -12.65625 C 8.941406 -12.050781 9.453125 -11.226562 9.796875 -10.1875 C 10.140625 -9.15625 10.3125 -7.988281 10.3125 -6.6875 C 10.3125 -5.40625 10.140625 -4.242188 9.796875 -3.203125 C 9.453125 -2.160156 8.941406 -1.332031 8.265625 -0.71875 C 7.585938 -0.113281 6.722656 0.1875 5.671875 0.1875 Z M 5.671875 -1 C 6.421875 -1 7.046875 -1.234375 7.546875 -1.703125 C 8.054688 -2.171875 8.441406 -2.832031 8.703125 -3.6875 C 8.960938 -4.550781 9.09375 -5.550781 9.09375 -6.6875 C 9.09375 -7.832031 8.960938 -8.832031 8.703125 -9.6875 C 8.441406 -10.550781 8.054688 -11.21875 7.546875 -11.6875 C 7.046875 -12.164062 6.421875 -12.40625 5.671875 -12.40625 C 4.929688 -12.40625 4.3125 -12.164062 3.8125 -11.6875 C 3.3125 -11.21875 2.929688 -10.550781 2.671875 -9.6875 C 2.410156 -8.832031 2.28125 -7.832031 2.28125 -6.6875 C 2.28125 -5.550781 2.410156 -4.550781 2.671875 -3.6875 C 2.929688 -2.832031 3.3125 -2.171875 3.8125 -1.703125 C 4.3125 -1.234375 4.929688 -1 5.671875 -1 Z M 5.671875 -1 "/></g></g></g></g></g><g transform="matrix(1, 0, 0, 1, 757, 151)"><g clip-path="url(#ca82340164)"><g fill="#201f1f" fill-opacity="1"><g transform="translate(0.619966, 19.851991)"><g><path d="M 4.3125 0 C 4.132812 0 3.988281 -0.0546875 3.875 -0.171875 C 3.757812 -0.285156 3.703125 -0.421875 3.703125 -0.578125 L 3.703125 -12.078125 L 3.921875 -11.890625 L 1.375 -10.1875 C 1.269531 -10.113281 1.160156 -10.078125 1.046875 -10.078125 C 0.898438 -10.078125 0.765625 -10.140625 0.640625 -10.265625 C 0.515625 -10.390625 0.453125 -10.53125 0.453125 -10.6875 C 0.453125 -10.882812 0.554688 -11.039062 0.765625 -11.15625 L 3.953125 -13.28125 C 4.035156 -13.332031 4.113281 -13.363281 4.1875 -13.375 C 4.269531 -13.382812 4.347656 -13.382812 4.421875 -13.375 C 4.578125 -13.363281 4.703125 -13.300781 4.796875 -13.1875 C 4.890625 -13.082031 4.9375 -12.953125 4.9375 -12.796875 L 4.9375 -0.578125 C 4.9375 -0.421875 4.878906 -0.285156 4.765625 -0.171875 C 4.648438 -0.0546875 4.5 0 4.3125 0 Z M 4.3125 0 "/></g></g></g><g fill="#201f1f" fill-opacity="1"><g transform="translate(7.686606, 19.851991)"><g><path d="M 4.3125 0 C 4.132812 0 3.988281 -0.0546875 3.875 -0.171875 C 3.757812 -0.285156 3.703125 -0.421875 3.703125 -0.578125 L 3.703125 -12.078125 L 3.921875 -11.890625 L 1.375 -10.1875 C 1.269531 -10.113281 1.160156 -10.078125 1.046875 -10.078125 C 0.898438 -10.078125 0.765625 -10.140625 0.640625 -10.265625 C 0.515625 -10.390625 0.453125 -10.53125 0.453125 -10.6875 C 0.453125 -10.882812 0.554688 -11.039062 0.765625 -11.15625 L 3.953125 -13.28125 C 4.035156 -13.332031 4.113281 -13.363281 4.1875 -13.375 C 4.269531 -13.382812 4.347656 -13.382812 4.421875 -13.375 C 4.578125 -13.363281 4.703125 -13.300781 4.796875 -13.1875 C 4.890625 -13.082031 4.9375 -12.953125 4.9375 -12.796875 L 4.9375 -0.578125 C 4.9375 -0.421875 4.878906 -0.285156 4.765625 -0.171875 C 4.648438 -0.0546875 4.5 0 4.3125 0 Z M 4.3125 0 "/></g></g></g></g></g><g transform="matrix(1, 0, 0, 1, 2, 301)"><g clip-path="url(#1814e4dbd2)"><g fill="#201f1f" fill-opacity="1"><g transform="translate(0.704277, 19.611046)"><g><path d="M 4.3125 0 C 4.132812 0 3.988281 -0.0546875 3.875 -0.171875 C 3.757812 -0.285156 3.703125 -0.421875 3.703125 -0.578125 L 3.703125 -12.078125 L 3.921875 -11.890625 L 1.375 -10.1875 C 1.269531 -10.113281 1.160156 -10.078125 1.046875 -10.078125 C 0.898438 -10.078125 0.765625 -10.140625 0.640625 -10.265625 C 0.515625 -10.390625 0.453125 -10.53125 0.453125 -10.6875 C 0.453125 -10.882812 0.554688 -11.039062 0.765625 -11.15625 L 3.953125 -13.28125 C 4.035156 -13.332031 4.113281 -13.363281 4.1875 -13.375 C 4.269531 -13.382812 4.347656 -13.382812 4.421875 -13.375 C 4.578125 -13.363281 4.703125 -13.300781 4.796875 -13.1875 C 4.890625 -13.082031 4.9375 -12.953125 4.9375 -12.796875 L 4.9375 -0.578125 C 4.9375 -0.421875 4.878906 -0.285156 4.765625 -0.171875 C 4.648438 -0.0546875 4.5 0 4.3125 0 Z M 4.3125 0 "/></g></g></g><g fill="#201f1f" fill-opacity="1"><g transform="translate(7.770917, 19.611046)"><g><path d="M 9.0625 -1.109375 C 9.207031 -1.109375 9.332031 -1.050781 9.4375 -0.9375 C 9.550781 -0.832031 9.609375 -0.703125 9.609375 -0.546875 C 9.609375 -0.390625 9.550781 -0.257812 9.4375 -0.15625 C 9.332031 -0.0507812 9.207031 0 9.0625 0 L 1.890625 0 C 1.722656 0 1.578125 -0.046875 1.453125 -0.140625 C 1.335938 -0.234375 1.28125 -0.378906 1.28125 -0.578125 C 1.28125 -0.710938 1.332031 -0.84375 1.4375 -0.96875 L 5.84375 -5.84375 C 6.550781 -6.613281 7.078125 -7.316406 7.421875 -7.953125 C 7.773438 -8.597656 7.953125 -9.175781 7.953125 -9.6875 C 7.953125 -10.53125 7.695312 -11.207031 7.1875 -11.71875 C 6.675781 -12.226562 5.988281 -12.484375 5.125 -12.484375 C 4.726562 -12.484375 4.332031 -12.398438 3.9375 -12.234375 C 3.550781 -12.066406 3.207031 -11.847656 2.90625 -11.578125 C 2.613281 -11.304688 2.382812 -11 2.21875 -10.65625 C 2.144531 -10.53125 2.066406 -10.441406 1.984375 -10.390625 C 1.898438 -10.335938 1.804688 -10.3125 1.703125 -10.3125 C 1.546875 -10.3125 1.410156 -10.359375 1.296875 -10.453125 C 1.179688 -10.554688 1.125 -10.675781 1.125 -10.8125 C 1.125 -10.90625 1.144531 -10.992188 1.1875 -11.078125 C 1.238281 -11.171875 1.304688 -11.273438 1.390625 -11.390625 C 1.617188 -11.785156 1.9375 -12.144531 2.34375 -12.46875 C 2.757812 -12.800781 3.21875 -13.066406 3.71875 -13.265625 C 4.21875 -13.460938 4.710938 -13.5625 5.203125 -13.5625 C 6.015625 -13.5625 6.71875 -13.40625 7.3125 -13.09375 C 7.90625 -12.78125 8.363281 -12.34375 8.6875 -11.78125 C 9.007812 -11.21875 9.171875 -10.546875 9.171875 -9.765625 C 9.171875 -9.097656 8.960938 -8.375 8.546875 -7.59375 C 8.140625 -6.8125 7.523438 -5.96875 6.703125 -5.0625 L 2.984375 -0.875 L 2.796875 -1.109375 Z M 9.0625 -1.109375 "/></g></g></g></g></g><g transform="matrix(1, 0, 0, 1, 128, 301)"><g clip-path="url(#5ad6d02187)"><g clip-path="url(#dbeef5ca4d)"><g fill="#201f1f" fill-opacity="1"><g transform="translate(0.523556, 19.611046)"><g><path d="M 4.3125 0 C 4.132812 0 3.988281 -0.0546875 3.875 -0.171875 C 3.757812 -0.285156 3.703125 -0.421875 3.703125 -0.578125 L 3.703125 -12.078125 L 3.921875 -11.890625 L 1.375 -10.1875 C 1.269531 -10.113281 1.160156 -10.078125 1.046875 -10.078125 C 0.898438 -10.078125 0.765625 -10.140625 0.640625 -10.265625 C 0.515625 -10.390625 0.453125 -10.53125 0.453125 -10.6875 C 0.453125 -10.882812 0.554688 -11.039062 0.765625 -11.15625 L 3.953125 -13.28125 C 4.035156 -13.332031 4.113281 -13.363281 4.1875 -13.375 C 4.269531 -13.382812 4.347656 -13.382812 4.421875 -13.375 C 4.578125 -13.363281 4.703125 -13.300781 4.796875 -13.1875 C 4.890625 -13.082031 4.9375 -12.953125 4.9375 -12.796875 L 4.9375 -0.578125 C 4.9375 -0.421875 4.878906 -0.285156 4.765625 -0.171875 C 4.648438 -0.0546875 4.5 0 4.3125 0 Z M 4.3125 0 "/></g></g></g></g><g fill="#201f1f" fill-opacity="1"><g transform="translate(7.590197, 19.611046)"><g><path d="M 1.703125 -1.96875 C 1.765625 -1.96875 1.828125 -1.953125 1.890625 -1.921875 C 1.960938 -1.898438 2.050781 -1.847656 2.15625 -1.765625 C 2.425781 -1.484375 2.742188 -1.265625 3.109375 -1.109375 C 3.484375 -0.960938 3.90625 -0.890625 4.375 -0.890625 C 5 -0.890625 5.566406 -1.03125 6.078125 -1.3125 C 6.597656 -1.59375 7.007812 -1.984375 7.3125 -2.484375 C 7.625 -2.992188 7.78125 -3.570312 7.78125 -4.21875 C 7.78125 -4.957031 7.613281 -5.550781 7.28125 -6 C 6.957031 -6.457031 6.546875 -6.796875 6.046875 -7.015625 C 5.546875 -7.242188 5.035156 -7.359375 4.515625 -7.359375 C 4.367188 -7.359375 4.226562 -7.347656 4.09375 -7.328125 C 3.957031 -7.304688 3.832031 -7.28125 3.71875 -7.25 C 3.601562 -7.226562 3.515625 -7.21875 3.453125 -7.21875 C 3.285156 -7.21875 3.15625 -7.269531 3.0625 -7.375 C 2.976562 -7.488281 2.9375 -7.628906 2.9375 -7.796875 C 2.9375 -7.890625 2.957031 -7.96875 3 -8.03125 C 3.039062 -8.101562 3.09375 -8.1875 3.15625 -8.28125 L 7.03125 -12.5 L 7.265625 -12.1875 L 1.46875 -12.1875 C 1.3125 -12.1875 1.179688 -12.238281 1.078125 -12.34375 C 0.972656 -12.457031 0.921875 -12.59375 0.921875 -12.75 C 0.921875 -12.894531 0.972656 -13.019531 1.078125 -13.125 C 1.179688 -13.226562 1.3125 -13.28125 1.46875 -13.28125 L 7.890625 -13.28125 C 8.109375 -13.28125 8.257812 -13.210938 8.34375 -13.078125 C 8.4375 -12.941406 8.484375 -12.8125 8.484375 -12.6875 C 8.484375 -12.613281 8.460938 -12.539062 8.421875 -12.46875 C 8.390625 -12.394531 8.34375 -12.320312 8.28125 -12.25 L 4.390625 -8.03125 L 3.96875 -8.28125 C 4.007812 -8.3125 4.140625 -8.347656 4.359375 -8.390625 C 4.585938 -8.441406 4.765625 -8.46875 4.890625 -8.46875 C 5.585938 -8.46875 6.242188 -8.300781 6.859375 -7.96875 C 7.484375 -7.632812 7.988281 -7.160156 8.375 -6.546875 C 8.769531 -5.929688 8.96875 -5.171875 8.96875 -4.265625 C 8.96875 -3.367188 8.753906 -2.585938 8.328125 -1.921875 C 7.910156 -1.253906 7.34375 -0.734375 6.625 -0.359375 C 5.914062 0.00390625 5.128906 0.1875 4.265625 0.1875 C 3.742188 0.1875 3.226562 0.0976562 2.71875 -0.078125 C 2.207031 -0.253906 1.757812 -0.519531 1.375 -0.875 C 1.28125 -0.957031 1.210938 -1.035156 1.171875 -1.109375 C 1.140625 -1.179688 1.125 -1.257812 1.125 -1.34375 C 1.125 -1.488281 1.175781 -1.628906 1.28125 -1.765625 C 1.394531 -1.898438 1.535156 -1.96875 1.703125 -1.96875 Z M 1.703125 -1.96875 "/></g></g></g></g></g><g transform="matrix(1, 0, 0, 1, 254, 301)"><g clip-path="url(#c653ebfe49)"><g clip-path="url(#6f869d1874)"><g fill="#201f1f" fill-opacity="1"><g transform="translate(0.342833, 19.611046)"><g><path d="M 4.3125 0 C 4.132812 0 3.988281 -0.0546875 3.875 -0.171875 C 3.757812 -0.285156 3.703125 -0.421875 3.703125 -0.578125 L 3.703125 -12.078125 L 3.921875 -11.890625 L 1.375 -10.1875 C 1.269531 -10.113281 1.160156 -10.078125 1.046875 -10.078125 C 0.898438 -10.078125 0.765625 -10.140625 0.640625 -10.265625 C 0.515625 -10.390625 0.453125 -10.53125 0.453125 -10.6875 C 0.453125 -10.882812 0.554688 -11.039062 0.765625 -11.15625 L 3.953125 -13.28125 C 4.035156 -13.332031 4.113281 -13.363281 4.1875 -13.375 C 4.269531 -13.382812 4.347656 -13.382812 4.421875 -13.375 C 4.578125 -13.363281 4.703125 -13.300781 4.796875 -13.1875 C 4.890625 -13.082031 4.9375 -12.953125 4.9375 -12.796875 L 4.9375 -0.578125 C 4.9375 -0.421875 4.878906 -0.285156 4.765625 -0.171875 C 4.648438 -0.0546875 4.5 0 4.3125 0 Z M 4.3125 0 "/></g></g></g></g><g fill="#201f1f" fill-opacity="1"><g transform="translate(7.409473, 19.611046)"><g><path d="M 7.015625 0 C 6.847656 0 6.710938 -0.0546875 6.609375 -0.171875 C 6.503906 -0.285156 6.453125 -0.421875 6.453125 -0.578125 L 6.453125 -11.796875 L 6.703125 -11.640625 L 1.6875 -4.984375 L 1.625 -5.203125 L 8.96875 -5.203125 C 9.113281 -5.203125 9.238281 -5.148438 9.34375 -5.046875 C 9.457031 -4.941406 9.515625 -4.8125 9.515625 -4.65625 C 9.515625 -4.507812 9.457031 -4.382812 9.34375 -4.28125 C 9.238281 -4.175781 9.113281 -4.125 8.96875 -4.125 L 0.84375 -4.125 C 0.6875 -4.125 0.550781 -4.179688 0.4375 -4.296875 C 0.320312 -4.421875 0.265625 -4.5625 0.265625 -4.71875 C 0.265625 -4.863281 0.3125 -4.992188 0.40625 -5.109375 L 6.546875 -13.140625 C 6.617188 -13.234375 6.703125 -13.296875 6.796875 -13.328125 C 6.890625 -13.359375 6.96875 -13.375 7.03125 -13.375 C 7.195312 -13.375 7.332031 -13.316406 7.4375 -13.203125 C 7.550781 -13.085938 7.609375 -12.953125 7.609375 -12.796875 L 7.609375 -0.578125 C 7.609375 -0.421875 7.550781 -0.285156 7.4375 -0.171875 C 7.320312 -0.0546875 7.179688 0 7.015625 0 Z M 7.015625 0 "/></g></g></g></g></g><g transform="matrix(1, 0, 0, 1, 380, 301)"><g clip-path="url(#52df571ee2)"><g clip-path="url(#a383b72a6a)"><g fill="#201f1f" fill-opacity="1"><g transform="translate(0.162094, 19.611046)"><g><path d="M 4.3125 0 C 4.132812 0 3.988281 -0.0546875 3.875 -0.171875 C 3.757812 -0.285156 3.703125 -0.421875 3.703125 -0.578125 L 3.703125 -12.078125 L 3.921875 -11.890625 L 1.375 -10.1875 C 1.269531 -10.113281 1.160156 -10.078125 1.046875 -10.078125 C 0.898438 -10.078125 0.765625 -10.140625 0.640625 -10.265625 C 0.515625 -10.390625 0.453125 -10.53125 0.453125 -10.6875 C 0.453125 -10.882812 0.554688 -11.039062 0.765625 -11.15625 L 3.953125 -13.28125 C 4.035156 -13.332031 4.113281 -13.363281 4.1875 -13.375 C 4.269531 -13.382812 4.347656 -13.382812 4.421875 -13.375 C 4.578125 -13.363281 4.703125 -13.300781 4.796875 -13.1875 C 4.890625 -13.082031 4.9375 -12.953125 4.9375 -12.796875 L 4.9375 -0.578125 C 4.9375 -0.421875 4.878906 -0.285156 4.765625 -0.171875 C 4.648438 -0.0546875 4.5 0 4.3125 0 Z M 4.3125 0 "/></g></g></g></g><g fill="#201f1f" fill-opacity="1"><g transform="translate(7.228734, 19.611046)"><g><path d="M 4.46875 0.03125 C 3.945312 0.03125 3.421875 -0.0507812 2.890625 -0.21875 C 2.367188 -0.394531 1.898438 -0.65625 1.484375 -1 C 1.410156 -1.0625 1.347656 -1.132812 1.296875 -1.21875 C 1.253906 -1.3125 1.234375 -1.398438 1.234375 -1.484375 C 1.234375 -1.617188 1.285156 -1.742188 1.390625 -1.859375 C 1.492188 -1.984375 1.628906 -2.046875 1.796875 -2.046875 C 1.929688 -2.046875 2.070312 -1.988281 2.21875 -1.875 C 2.550781 -1.613281 2.910156 -1.410156 3.296875 -1.265625 C 3.679688 -1.128906 4.070312 -1.0625 4.46875 -1.0625 C 5.21875 -1.0625 5.875 -1.207031 6.4375 -1.5 C 7 -1.789062 7.429688 -2.195312 7.734375 -2.71875 C 8.046875 -3.25 8.203125 -3.863281 8.203125 -4.5625 C 8.203125 -5.21875 8.0625 -5.78125 7.78125 -6.25 C 7.5 -6.726562 7.097656 -7.101562 6.578125 -7.375 C 6.066406 -7.65625 5.460938 -7.796875 4.765625 -7.796875 C 4.304688 -7.796875 3.882812 -7.722656 3.5 -7.578125 C 3.125 -7.441406 2.800781 -7.300781 2.53125 -7.15625 C 2.257812 -7.007812 2.039062 -6.9375 1.875 -6.9375 C 1.71875 -6.9375 1.59375 -6.972656 1.5 -7.046875 C 1.40625 -7.128906 1.34375 -7.226562 1.3125 -7.34375 C 1.28125 -7.457031 1.273438 -7.578125 1.296875 -7.703125 L 2.125 -12.796875 C 2.132812 -12.910156 2.191406 -13.015625 2.296875 -13.109375 C 2.410156 -13.210938 2.550781 -13.265625 2.71875 -13.265625 L 8.46875 -13.265625 C 8.613281 -13.265625 8.738281 -13.207031 8.84375 -13.09375 C 8.957031 -12.988281 9.015625 -12.859375 9.015625 -12.703125 C 9.015625 -12.535156 8.957031 -12.398438 8.84375 -12.296875 C 8.738281 -12.191406 8.613281 -12.140625 8.46875 -12.140625 L 2.984375 -12.140625 L 3.15625 -12.3125 L 2.375 -7.78125 L 2.03125 -8.03125 C 2.195312 -8.15625 2.429688 -8.28125 2.734375 -8.40625 C 3.046875 -8.53125 3.394531 -8.640625 3.78125 -8.734375 C 4.175781 -8.835938 4.59375 -8.890625 5.03125 -8.890625 C 5.851562 -8.890625 6.585938 -8.707031 7.234375 -8.34375 C 7.890625 -7.976562 8.40625 -7.472656 8.78125 -6.828125 C 9.15625 -6.179688 9.34375 -5.441406 9.34375 -4.609375 C 9.34375 -3.671875 9.140625 -2.851562 8.734375 -2.15625 C 8.335938 -1.46875 7.773438 -0.929688 7.046875 -0.546875 C 6.328125 -0.160156 5.46875 0.03125 4.46875 0.03125 Z M 4.46875 0.03125 "/></g></g></g></g></g><g transform="matrix(1, 0, 0, 1, 505, 301)"><g clip-path="url(#b0f5a9c1c5)"><g fill="#201f1f" fill-opacity="1"><g transform="translate(0.981385, 19.611046)"><g><path d="M 4.3125 0 C 4.132812 0 3.988281 -0.0546875 3.875 -0.171875 C 3.757812 -0.285156 3.703125 -0.421875 3.703125 -0.578125 L 3.703125 -12.078125 L 3.921875 -11.890625 L 1.375 -10.1875 C 1.269531 -10.113281 1.160156 -10.078125 1.046875 -10.078125 C 0.898438 -10.078125 0.765625 -10.140625 0.640625 -10.265625 C 0.515625 -10.390625 0.453125 -10.53125 0.453125 -10.6875 C 0.453125 -10.882812 0.554688 -11.039062 0.765625 -11.15625 L 3.953125 -13.28125 C 4.035156 -13.332031 4.113281 -13.363281 4.1875 -13.375 C 4.269531 -13.382812 4.347656 -13.382812 4.421875 -13.375 C 4.578125 -13.363281 4.703125 -13.300781 4.796875 -13.1875 C 4.890625 -13.082031 4.9375 -12.953125 4.9375 -12.796875 L 4.9375 -0.578125 C 4.9375 -0.421875 4.878906 -0.285156 4.765625 -0.171875 C 4.648438 -0.0546875 4.5 0 4.3125 0 Z M 4.3125 0 "/></g></g></g><g fill="#201f1f" fill-opacity="1"><g transform="translate(8.048025, 19.611046)"><g><path d="M 5.484375 0.1875 C 4.742188 0.1875 4.097656 0.0546875 3.546875 -0.203125 C 2.992188 -0.472656 2.535156 -0.832031 2.171875 -1.28125 C 1.804688 -1.738281 1.535156 -2.253906 1.359375 -2.828125 C 1.191406 -3.398438 1.109375 -3.988281 1.109375 -4.59375 C 1.109375 -5.195312 1.179688 -5.851562 1.328125 -6.5625 C 1.484375 -7.269531 1.71875 -7.984375 2.03125 -8.703125 C 2.351562 -9.429688 2.75 -10.117188 3.21875 -10.765625 C 3.6875 -11.421875 4.226562 -12.003906 4.84375 -12.515625 C 5.457031 -13.035156 6.15625 -13.441406 6.9375 -13.734375 C 7.03125 -13.765625 7.109375 -13.78125 7.171875 -13.78125 C 7.335938 -13.78125 7.476562 -13.734375 7.59375 -13.640625 C 7.71875 -13.554688 7.78125 -13.40625 7.78125 -13.1875 C 7.78125 -13.0625 7.738281 -12.945312 7.65625 -12.84375 C 7.570312 -12.75 7.457031 -12.675781 7.3125 -12.625 C 6.78125 -12.394531 6.253906 -12.070312 5.734375 -11.65625 C 5.210938 -11.238281 4.726562 -10.753906 4.28125 -10.203125 C 3.832031 -9.648438 3.453125 -9.054688 3.140625 -8.421875 C 2.828125 -7.796875 2.609375 -7.160156 2.484375 -6.515625 L 2.0625 -6.265625 C 2.289062 -6.691406 2.585938 -7.066406 2.953125 -7.390625 C 3.316406 -7.710938 3.734375 -7.972656 4.203125 -8.171875 C 4.671875 -8.367188 5.179688 -8.46875 5.734375 -8.46875 C 6.304688 -8.46875 6.832031 -8.34375 7.3125 -8.09375 C 7.800781 -7.851562 8.21875 -7.523438 8.5625 -7.109375 C 8.914062 -6.703125 9.191406 -6.238281 9.390625 -5.71875 C 9.585938 -5.195312 9.6875 -4.65625 9.6875 -4.09375 C 9.6875 -3.34375 9.503906 -2.640625 9.140625 -1.984375 C 8.773438 -1.335938 8.273438 -0.8125 7.640625 -0.40625 C 7.015625 -0.0078125 6.296875 0.1875 5.484375 0.1875 Z M 5.46875 -0.921875 C 6.050781 -0.921875 6.570312 -1.050781 7.03125 -1.3125 C 7.488281 -1.582031 7.847656 -1.957031 8.109375 -2.4375 C 8.367188 -2.914062 8.5 -3.46875 8.5 -4.09375 C 8.5 -4.664062 8.382812 -5.195312 8.15625 -5.6875 C 7.9375 -6.175781 7.609375 -6.578125 7.171875 -6.890625 C 6.734375 -7.203125 6.191406 -7.359375 5.546875 -7.359375 C 4.867188 -7.359375 4.285156 -7.203125 3.796875 -6.890625 C 3.304688 -6.585938 2.929688 -6.1875 2.671875 -5.6875 C 2.410156 -5.1875 2.28125 -4.632812 2.28125 -4.03125 C 2.28125 -3.5 2.40625 -2.992188 2.65625 -2.515625 C 2.90625 -2.035156 3.269531 -1.648438 3.75 -1.359375 C 4.226562 -1.066406 4.800781 -0.921875 5.46875 -0.921875 Z M 5.46875 -0.921875 "/></g></g></g></g></g><g transform="matrix(1, 0, 0, 1, 631, 301)"><g clip-path="url(#11206eed4b)"><g fill="#201f1f" fill-opacity="1"><g transform="translate(0.800617, 19.611046)"><g><path d="M 4.3125 0 C 4.132812 0 3.988281 -0.0546875 3.875 -0.171875 C 3.757812 -0.285156 3.703125 -0.421875 3.703125 -0.578125 L 3.703125 -12.078125 L 3.921875 -11.890625 L 1.375 -10.1875 C 1.269531 -10.113281 1.160156 -10.078125 1.046875 -10.078125 C 0.898438 -10.078125 0.765625 -10.140625 0.640625 -10.265625 C 0.515625 -10.390625 0.453125 -10.53125 0.453125 -10.6875 C 0.453125 -10.882812 0.554688 -11.039062 0.765625 -11.15625 L 3.953125 -13.28125 C 4.035156 -13.332031 4.113281 -13.363281 4.1875 -13.375 C 4.269531 -13.382812 4.347656 -13.382812 4.421875 -13.375 C 4.578125 -13.363281 4.703125 -13.300781 4.796875 -13.1875 C 4.890625 -13.082031 4.9375 -12.953125 4.9375 -12.796875 L 4.9375 -0.578125 C 4.9375 -0.421875 4.878906 -0.285156 4.765625 -0.171875 C 4.648438 -0.0546875 4.5 0 4.3125 0 Z M 4.3125 0 "/></g></g></g><g fill="#201f1f" fill-opacity="1"><g transform="translate(7.867257, 19.611046)"><g><path d="M 3.40625 0.0625 C 3.25 0.0625 3.109375 0.0078125 2.984375 -0.09375 C 2.859375 -0.195312 2.796875 -0.328125 2.796875 -0.484375 C 2.796875 -0.566406 2.8125 -0.660156 2.84375 -0.765625 L 7.9375 -12.4375 L 8.140625 -12.171875 L 1.6875 -12.171875 C 1.53125 -12.171875 1.394531 -12.222656 1.28125 -12.328125 C 1.175781 -12.441406 1.125 -12.578125 1.125 -12.734375 C 1.125 -12.890625 1.175781 -13.019531 1.28125 -13.125 C 1.394531 -13.226562 1.53125 -13.28125 1.6875 -13.28125 L 8.6875 -13.28125 C 8.882812 -13.28125 9.023438 -13.226562 9.109375 -13.125 C 9.203125 -13.019531 9.25 -12.894531 9.25 -12.75 C 9.25 -12.644531 9.226562 -12.546875 9.1875 -12.453125 L 3.9375 -0.328125 C 3.894531 -0.210938 3.820312 -0.117188 3.71875 -0.046875 C 3.625 0.0234375 3.519531 0.0625 3.40625 0.0625 Z M 3.40625 0.0625 "/></g></g></g></g></g><g transform="matrix(1, 0, 0, 1, 757, 301)"><g clip-path="url(#34a2ecb109)"><g fill="#201f1f" fill-opacity="1"><g transform="translate(0.619966, 19.611046)"><g><path d="M 4.3125 0 C 4.132812 0 3.988281 -0.0546875 3.875 -0.171875 C 3.757812 -0.285156 3.703125 -0.421875 3.703125 -0.578125 L 3.703125 -12.078125 L 3.921875 -11.890625 L 1.375 -10.1875 C 1.269531 -10.113281 1.160156 -10.078125 1.046875 -10.078125 C 0.898438 -10.078125 0.765625 -10.140625 0.640625 -10.265625 C 0.515625 -10.390625 0.453125 -10.53125 0.453125 -10.6875 C 0.453125 -10.882812 0.554688 -11.039062 0.765625 -11.15625 L 3.953125 -13.28125 C 4.035156 -13.332031 4.113281 -13.363281 4.1875 -13.375 C 4.269531 -13.382812 4.347656 -13.382812 4.421875 -13.375 C 4.578125 -13.363281 4.703125 -13.300781 4.796875 -13.1875 C 4.890625 -13.082031 4.9375 -12.953125 4.9375 -12.796875 L 4.9375 -0.578125 C 4.9375 -0.421875 4.878906 -0.285156 4.765625 -0.171875 C 4.648438 -0.0546875 4.5 0 4.3125 0 Z M 4.3125 0 "/></g></g></g><g fill="#201f1f" fill-opacity="1"><g transform="translate(7.686606, 19.611046)"><g><path d="M 6.953125 -6.71875 L 6.90625 -6.90625 C 7.332031 -6.738281 7.722656 -6.488281 8.078125 -6.15625 C 8.441406 -5.832031 8.726562 -5.453125 8.9375 -5.015625 C 9.15625 -4.578125 9.265625 -4.097656 9.265625 -3.578125 C 9.265625 -2.890625 9.082031 -2.265625 8.71875 -1.703125 C 8.351562 -1.140625 7.859375 -0.691406 7.234375 -0.359375 C 6.617188 -0.0234375 5.925781 0.140625 5.15625 0.140625 C 4.382812 0.140625 3.6875 -0.0234375 3.0625 -0.359375 C 2.445312 -0.691406 1.957031 -1.140625 1.59375 -1.703125 C 1.226562 -2.265625 1.046875 -2.890625 1.046875 -3.578125 C 1.046875 -4.140625 1.15625 -4.640625 1.375 -5.078125 C 1.601562 -5.515625 1.898438 -5.882812 2.265625 -6.1875 C 2.628906 -6.5 3.007812 -6.738281 3.40625 -6.90625 L 3.34375 -6.703125 C 3 -6.867188 2.675781 -7.09375 2.375 -7.375 C 2.082031 -7.664062 1.835938 -8.007812 1.640625 -8.40625 C 1.453125 -8.8125 1.359375 -9.257812 1.359375 -9.75 C 1.359375 -10.4375 1.523438 -11.050781 1.859375 -11.59375 C 2.203125 -12.144531 2.660156 -12.578125 3.234375 -12.890625 C 3.816406 -13.210938 4.457031 -13.375 5.15625 -13.375 C 5.851562 -13.375 6.484375 -13.210938 7.046875 -12.890625 C 7.617188 -12.578125 8.070312 -12.144531 8.40625 -11.59375 C 8.75 -11.050781 8.921875 -10.4375 8.921875 -9.75 C 8.921875 -9.25 8.820312 -8.800781 8.625 -8.40625 C 8.4375 -8.007812 8.191406 -7.664062 7.890625 -7.375 C 7.585938 -7.09375 7.273438 -6.875 6.953125 -6.71875 Z M 2.546875 -9.75 C 2.546875 -9.238281 2.664062 -8.789062 2.90625 -8.40625 C 3.144531 -8.019531 3.460938 -7.71875 3.859375 -7.5 C 4.253906 -7.289062 4.6875 -7.1875 5.15625 -7.1875 C 5.613281 -7.1875 6.039062 -7.289062 6.4375 -7.5 C 6.832031 -7.71875 7.144531 -8.019531 7.375 -8.40625 C 7.613281 -8.789062 7.734375 -9.238281 7.734375 -9.75 C 7.734375 -10.5 7.488281 -11.109375 7 -11.578125 C 6.519531 -12.046875 5.90625 -12.28125 5.15625 -12.28125 C 4.382812 -12.28125 3.753906 -12.046875 3.265625 -11.578125 C 2.785156 -11.109375 2.546875 -10.5 2.546875 -9.75 Z M 5.15625 -0.953125 C 6.019531 -0.953125 6.722656 -1.203125 7.265625 -1.703125 C 7.804688 -2.203125 8.078125 -2.828125 8.078125 -3.578125 C 8.078125 -4.085938 7.941406 -4.546875 7.671875 -4.953125 C 7.410156 -5.359375 7.054688 -5.675781 6.609375 -5.90625 C 6.160156 -6.132812 5.675781 -6.25 5.15625 -6.25 C 4.632812 -6.25 4.148438 -6.132812 3.703125 -5.90625 C 3.253906 -5.675781 2.894531 -5.359375 2.625 -4.953125 C 2.363281 -4.546875 2.234375 -4.085938 2.234375 -3.578125 C 2.234375 -2.828125 2.5 -2.203125 3.03125 -1.703125 C 3.570312 -1.203125 4.28125 -0.953125 5.15625 -0.953125 Z M 5.15625 -0.953125 "/></g></g></g></g></g><g clip-path="url(#8cd9c8e308)"><g transform="matrix(1, 0, 0, 1, 2, 450)"><g clip-path="url(#f4a8f0d4a4)"><g fill="#201f1f" fill-opacity="1"><g transform="translate(0.704277, 20.370102)"><g><path d="M 4.3125 0 C 4.132812 0 3.988281 -0.0546875 3.875 -0.171875 C 3.757812 -0.285156 3.703125 -0.421875 3.703125 -0.578125 L 3.703125 -12.078125 L 3.921875 -11.890625 L 1.375 -10.1875 C 1.269531 -10.113281 1.160156 -10.078125 1.046875 -10.078125 C 0.898438 -10.078125 0.765625 -10.140625 0.640625 -10.265625 C 0.515625 -10.390625 0.453125 -10.53125 0.453125 -10.6875 C 0.453125 -10.882812 0.554688 -11.039062 0.765625 -11.15625 L 3.953125 -13.28125 C 4.035156 -13.332031 4.113281 -13.363281 4.1875 -13.375 C 4.269531 -13.382812 4.347656 -13.382812 4.421875 -13.375 C 4.578125 -13.363281 4.703125 -13.300781 4.796875 -13.1875 C 4.890625 -13.082031 4.9375 -12.953125 4.9375 -12.796875 L 4.9375 -0.578125 C 4.9375 -0.421875 4.878906 -0.285156 4.765625 -0.171875 C 4.648438 -0.0546875 4.5 0 4.3125 0 Z M 4.3125 0 "/></g></g></g><g fill="#201f1f" fill-opacity="1"><g transform="translate(7.770917, 20.370102)"><g><path d="M 5.296875 -13.59375 C 6.046875 -13.59375 6.695312 -13.457031 7.25 -13.1875 C 7.800781 -12.914062 8.253906 -12.550781 8.609375 -12.09375 C 8.972656 -11.644531 9.242188 -11.132812 9.421875 -10.5625 C 9.597656 -9.988281 9.6875 -9.40625 9.6875 -8.8125 C 9.6875 -8.195312 9.601562 -7.539062 9.4375 -6.84375 C 9.28125 -6.15625 9.046875 -5.457031 8.734375 -4.75 C 8.429688 -4.039062 8.046875 -3.367188 7.578125 -2.734375 C 7.109375 -2.097656 6.5625 -1.523438 5.9375 -1.015625 C 5.3125 -0.503906 4.617188 -0.109375 3.859375 0.171875 C 3.753906 0.191406 3.671875 0.203125 3.609375 0.203125 C 3.453125 0.203125 3.3125 0.148438 3.1875 0.046875 C 3.070312 -0.0546875 3.015625 -0.195312 3.015625 -0.375 C 3.015625 -0.507812 3.050781 -0.625 3.125 -0.71875 C 3.207031 -0.8125 3.328125 -0.882812 3.484375 -0.9375 C 4.203125 -1.238281 4.898438 -1.691406 5.578125 -2.296875 C 6.253906 -2.898438 6.835938 -3.597656 7.328125 -4.390625 C 7.816406 -5.191406 8.144531 -6.019531 8.3125 -6.875 L 8.71875 -7.125 C 8.5 -6.71875 8.203125 -6.347656 7.828125 -6.015625 C 7.460938 -5.679688 7.046875 -5.421875 6.578125 -5.234375 C 6.117188 -5.054688 5.613281 -4.96875 5.0625 -4.96875 C 4.25 -4.96875 3.546875 -5.164062 2.953125 -5.5625 C 2.359375 -5.96875 1.898438 -6.5 1.578125 -7.15625 C 1.265625 -7.820312 1.109375 -8.539062 1.109375 -9.3125 C 1.109375 -10.0625 1.289062 -10.757812 1.65625 -11.40625 C 2.019531 -12.0625 2.515625 -12.585938 3.140625 -12.984375 C 3.773438 -13.390625 4.492188 -13.59375 5.296875 -13.59375 Z M 5.328125 -12.484375 C 4.734375 -12.484375 4.207031 -12.347656 3.75 -12.078125 C 3.289062 -11.804688 2.929688 -11.429688 2.671875 -10.953125 C 2.410156 -10.484375 2.28125 -9.9375 2.28125 -9.3125 C 2.28125 -8.75 2.390625 -8.21875 2.609375 -7.71875 C 2.828125 -7.21875 3.160156 -6.816406 3.609375 -6.515625 C 4.054688 -6.222656 4.597656 -6.078125 5.234375 -6.078125 C 5.921875 -6.078125 6.503906 -6.222656 6.984375 -6.515625 C 7.472656 -6.816406 7.847656 -7.21875 8.109375 -7.71875 C 8.378906 -8.21875 8.515625 -8.765625 8.515625 -9.359375 C 8.515625 -9.910156 8.390625 -10.421875 8.140625 -10.890625 C 7.890625 -11.359375 7.523438 -11.738281 7.046875 -12.03125 C 6.578125 -12.332031 6.003906 -12.484375 5.328125 -12.484375 Z M 5.328125 -12.484375 "/></g></g></g></g></g></g><g clip-path="url(#8a8c0036a8)"><g transform="matrix(1, 0, 0, 1, 128, 450)"><g clip-path="url(#80728fd2ba)"><g fill="#201f1f" fill-opacity="1"><g transform="translate(0.523556, 20.370102)"><g><path d="M 9.0625 -1.109375 C 9.207031 -1.109375 9.332031 -1.050781 9.4375 -0.9375 C 9.550781 -0.832031 9.609375 -0.703125 9.609375 -0.546875 C 9.609375 -0.390625 9.550781 -0.257812 9.4375 -0.15625 C 9.332031 -0.0507812 9.207031 0 9.0625 0 L 1.890625 0 C 1.722656 0 1.578125 -0.046875 1.453125 -0.140625 C 1.335938 -0.234375 1.28125 -0.378906 1.28125 -0.578125 C 1.28125 -0.710938 1.332031 -0.84375 1.4375 -0.96875 L 5.84375 -5.84375 C 6.550781 -6.613281 7.078125 -7.316406 7.421875 -7.953125 C 7.773438 -8.597656 7.953125 -9.175781 7.953125 -9.6875 C 7.953125 -10.53125 7.695312 -11.207031 7.1875 -11.71875 C 6.675781 -12.226562 5.988281 -12.484375 5.125 -12.484375 C 4.726562 -12.484375 4.332031 -12.398438 3.9375 -12.234375 C 3.550781 -12.066406 3.207031 -11.847656 2.90625 -11.578125 C 2.613281 -11.304688 2.382812 -11 2.21875 -10.65625 C 2.144531 -10.53125 2.066406 -10.441406 1.984375 -10.390625 C 1.898438 -10.335938 1.804688 -10.3125 1.703125 -10.3125 C 1.546875 -10.3125 1.410156 -10.359375 1.296875 -10.453125 C 1.179688 -10.554688 1.125 -10.675781 1.125 -10.8125 C 1.125 -10.90625 1.144531 -10.992188 1.1875 -11.078125 C 1.238281 -11.171875 1.304688 -11.273438 1.390625 -11.390625 C 1.617188 -11.785156 1.9375 -12.144531 2.34375 -12.46875 C 2.757812 -12.800781 3.21875 -13.066406 3.71875 -13.265625 C 4.21875 -13.460938 4.710938 -13.5625 5.203125 -13.5625 C 6.015625 -13.5625 6.71875 -13.40625 7.3125 -13.09375 C 7.90625 -12.78125 8.363281 -12.34375 8.6875 -11.78125 C 9.007812 -11.21875 9.171875 -10.546875 9.171875 -9.765625 C 9.171875 -9.097656 8.960938 -8.375 8.546875 -7.59375 C 8.140625 -6.8125 7.523438 -5.96875 6.703125 -5.0625 L 2.984375 -0.875 L 2.796875 -1.109375 Z M 9.0625 -1.109375 "/></g></g></g><g fill="#201f1f" fill-opacity="1"><g transform="translate(11.104415, 20.370102)"><g><path d="M 5.671875 0.1875 C 4.648438 0.1875 3.796875 -0.113281 3.109375 -0.71875 C 2.421875 -1.332031 1.90625 -2.160156 1.5625 -3.203125 C 1.21875 -4.242188 1.046875 -5.40625 1.046875 -6.6875 C 1.046875 -7.988281 1.21875 -9.15625 1.5625 -10.1875 C 1.90625 -11.226562 2.421875 -12.050781 3.109375 -12.65625 C 3.796875 -13.257812 4.648438 -13.5625 5.671875 -13.5625 C 6.722656 -13.5625 7.585938 -13.257812 8.265625 -12.65625 C 8.941406 -12.050781 9.453125 -11.226562 9.796875 -10.1875 C 10.140625 -9.15625 10.3125 -7.988281 10.3125 -6.6875 C 10.3125 -5.40625 10.140625 -4.242188 9.796875 -3.203125 C 9.453125 -2.160156 8.941406 -1.332031 8.265625 -0.71875 C 7.585938 -0.113281 6.722656 0.1875 5.671875 0.1875 Z M 5.671875 -1 C 6.421875 -1 7.046875 -1.234375 7.546875 -1.703125 C 8.054688 -2.171875 8.441406 -2.832031 8.703125 -3.6875 C 8.960938 -4.550781 9.09375 -5.550781 9.09375 -6.6875 C 9.09375 -7.832031 8.960938 -8.832031 8.703125 -9.6875 C 8.441406 -10.550781 8.054688 -11.21875 7.546875 -11.6875 C 7.046875 -12.164062 6.421875 -12.40625 5.671875 -12.40625 C 4.929688 -12.40625 4.3125 -12.164062 3.8125 -11.6875 C 3.3125 -11.21875 2.929688 -10.550781 2.671875 -9.6875 C 2.410156 -8.832031 2.28125 -7.832031 2.28125 -6.6875 C 2.28125 -5.550781 2.410156 -4.550781 2.671875 -3.6875 C 2.929688 -2.832031 3.3125 -2.171875 3.8125 -1.703125 C 4.3125 -1.234375 4.929688 -1 5.671875 -1 Z M 5.671875 -1 "/></g></g></g></g></g></g><g clip-path="url(#c1a62f506b)"><g transform="matrix(1, 0, 0, 1, 254, 450)"><g clip-path="url(#8c91f78726)"><g fill="#201f1f" fill-opacity="1"><g transform="translate(0.342833, 20.370102)"><g><path d="M 9.0625 -1.109375 C 9.207031 -1.109375 9.332031 -1.050781 9.4375 -0.9375 C 9.550781 -0.832031 9.609375 -0.703125 9.609375 -0.546875 C 9.609375 -0.390625 9.550781 -0.257812 9.4375 -0.15625 C 9.332031 -0.0507812 9.207031 0 9.0625 0 L 1.890625 0 C 1.722656 0 1.578125 -0.046875 1.453125 -0.140625 C 1.335938 -0.234375 1.28125 -0.378906 1.28125 -0.578125 C 1.28125 -0.710938 1.332031 -0.84375 1.4375 -0.96875 L 5.84375 -5.84375 C 6.550781 -6.613281 7.078125 -7.316406 7.421875 -7.953125 C 7.773438 -8.597656 7.953125 -9.175781 7.953125 -9.6875 C 7.953125 -10.53125 7.695312 -11.207031 7.1875 -11.71875 C 6.675781 -12.226562 5.988281 -12.484375 5.125 -12.484375 C 4.726562 -12.484375 4.332031 -12.398438 3.9375 -12.234375 C 3.550781 -12.066406 3.207031 -11.847656 2.90625 -11.578125 C 2.613281 -11.304688 2.382812 -11 2.21875 -10.65625 C 2.144531 -10.53125 2.066406 -10.441406 1.984375 -10.390625 C 1.898438 -10.335938 1.804688 -10.3125 1.703125 -10.3125 C 1.546875 -10.3125 1.410156 -10.359375 1.296875 -10.453125 C 1.179688 -10.554688 1.125 -10.675781 1.125 -10.8125 C 1.125 -10.90625 1.144531 -10.992188 1.1875 -11.078125 C 1.238281 -11.171875 1.304688 -11.273438 1.390625 -11.390625 C 1.617188 -11.785156 1.9375 -12.144531 2.34375 -12.46875 C 2.757812 -12.800781 3.21875 -13.066406 3.71875 -13.265625 C 4.21875 -13.460938 4.710938 -13.5625 5.203125 -13.5625 C 6.015625 -13.5625 6.71875 -13.40625 7.3125 -13.09375 C 7.90625 -12.78125 8.363281 -12.34375 8.6875 -11.78125 C 9.007812 -11.21875 9.171875 -10.546875 9.171875 -9.765625 C 9.171875 -9.097656 8.960938 -8.375 8.546875 -7.59375 C 8.140625 -6.8125 7.523438 -5.96875 6.703125 -5.0625 L 2.984375 -0.875 L 2.796875 -1.109375 Z M 9.0625 -1.109375 "/></g></g></g><g fill="#201f1f" fill-opacity="1"><g transform="translate(10.923691, 20.370102)"><g><path d="M 4.3125 0 C 4.132812 0 3.988281 -0.0546875 3.875 -0.171875 C 3.757812 -0.285156 3.703125 -0.421875 3.703125 -0.578125 L 3.703125 -12.078125 L 3.921875 -11.890625 L 1.375 -10.1875 C 1.269531 -10.113281 1.160156 -10.078125 1.046875 -10.078125 C 0.898438 -10.078125 0.765625 -10.140625 0.640625 -10.265625 C 0.515625 -10.390625 0.453125 -10.53125 0.453125 -10.6875 C 0.453125 -10.882812 0.554688 -11.039062 0.765625 -11.15625 L 3.953125 -13.28125 C 4.035156 -13.332031 4.113281 -13.363281 4.1875 -13.375 C 4.269531 -13.382812 4.347656 -13.382812 4.421875 -13.375 C 4.578125 -13.363281 4.703125 -13.300781 4.796875 -13.1875 C 4.890625 -13.082031 4.9375 -12.953125 4.9375 -12.796875 L 4.9375 -0.578125 C 4.9375 -0.421875 4.878906 -0.285156 4.765625 -0.171875 C 4.648438 -0.0546875 4.5 0 4.3125 0 Z M 4.3125 0 "/></g></g></g></g></g></g><g clip-path="url(#8b65e190fd)"><g transform="matrix(1, 0, 0, 1, 380, 450)"><g clip-path="url(#f80adee273)"><g fill="#201f1f" fill-opacity="1"><g transform="translate(0.162094, 20.370102)"><g><path d="M 9.0625 -1.109375 C 9.207031 -1.109375 9.332031 -1.050781 9.4375 -0.9375 C 9.550781 -0.832031 9.609375 -0.703125 9.609375 -0.546875 C 9.609375 -0.390625 9.550781 -0.257812 9.4375 -0.15625 C 9.332031 -0.0507812 9.207031 0 9.0625 0 L 1.890625 0 C 1.722656 0 1.578125 -0.046875 1.453125 -0.140625 C 1.335938 -0.234375 1.28125 -0.378906 1.28125 -0.578125 C 1.28125 -0.710938 1.332031 -0.84375 1.4375 -0.96875 L 5.84375 -5.84375 C 6.550781 -6.613281 7.078125 -7.316406 7.421875 -7.953125 C 7.773438 -8.597656 7.953125 -9.175781 7.953125 -9.6875 C 7.953125 -10.53125 7.695312 -11.207031 7.1875 -11.71875 C 6.675781 -12.226562 5.988281 -12.484375 5.125 -12.484375 C 4.726562 -12.484375 4.332031 -12.398438 3.9375 -12.234375 C 3.550781 -12.066406 3.207031 -11.847656 2.90625 -11.578125 C 2.613281 -11.304688 2.382812 -11 2.21875 -10.65625 C 2.144531 -10.53125 2.066406 -10.441406 1.984375 -10.390625 C 1.898438 -10.335938 1.804688 -10.3125 1.703125 -10.3125 C 1.546875 -10.3125 1.410156 -10.359375 1.296875 -10.453125 C 1.179688 -10.554688 1.125 -10.675781 1.125 -10.8125 C 1.125 -10.90625 1.144531 -10.992188 1.1875 -11.078125 C 1.238281 -11.171875 1.304688 -11.273438 1.390625 -11.390625 C 1.617188 -11.785156 1.9375 -12.144531 2.34375 -12.46875 C 2.757812 -12.800781 3.21875 -13.066406 3.71875 -13.265625 C 4.21875 -13.460938 4.710938 -13.5625 5.203125 -13.5625 C 6.015625 -13.5625 6.71875 -13.40625 7.3125 -13.09375 C 7.90625 -12.78125 8.363281 -12.34375 8.6875 -11.78125 C 9.007812 -11.21875 9.171875 -10.546875 9.171875 -9.765625 C 9.171875 -9.097656 8.960938 -8.375 8.546875 -7.59375 C 8.140625 -6.8125 7.523438 -5.96875 6.703125 -5.0625 L 2.984375 -0.875 L 2.796875 -1.109375 Z M 9.0625 -1.109375 "/></g></g></g><g fill="#201f1f" fill-opacity="1"><g transform="translate(10.742953, 20.370102)"><g><path d="M 9.0625 -1.109375 C 9.207031 -1.109375 9.332031 -1.050781 9.4375 -0.9375 C 9.550781 -0.832031 9.609375 -0.703125 9.609375 -0.546875 C 9.609375 -0.390625 9.550781 -0.257812 9.4375 -0.15625 C 9.332031 -0.0507812 9.207031 0 9.0625 0 L 1.890625 0 C 1.722656 0 1.578125 -0.046875 1.453125 -0.140625 C 1.335938 -0.234375 1.28125 -0.378906 1.28125 -0.578125 C 1.28125 -0.710938 1.332031 -0.84375 1.4375 -0.96875 L 5.84375 -5.84375 C 6.550781 -6.613281 7.078125 -7.316406 7.421875 -7.953125 C 7.773438 -8.597656 7.953125 -9.175781 7.953125 -9.6875 C 7.953125 -10.53125 7.695312 -11.207031 7.1875 -11.71875 C 6.675781 -12.226562 5.988281 -12.484375 5.125 -12.484375 C 4.726562 -12.484375 4.332031 -12.398438 3.9375 -12.234375 C 3.550781 -12.066406 3.207031 -11.847656 2.90625 -11.578125 C 2.613281 -11.304688 2.382812 -11 2.21875 -10.65625 C 2.144531 -10.53125 2.066406 -10.441406 1.984375 -10.390625 C 1.898438 -10.335938 1.804688 -10.3125 1.703125 -10.3125 C 1.546875 -10.3125 1.410156 -10.359375 1.296875 -10.453125 C 1.179688 -10.554688 1.125 -10.675781 1.125 -10.8125 C 1.125 -10.90625 1.144531 -10.992188 1.1875 -11.078125 C 1.238281 -11.171875 1.304688 -11.273438 1.390625 -11.390625 C 1.617188 -11.785156 1.9375 -12.144531 2.34375 -12.46875 C 2.757812 -12.800781 3.21875 -13.066406 3.71875 -13.265625 C 4.21875 -13.460938 4.710938 -13.5625 5.203125 -13.5625 C 6.015625 -13.5625 6.71875 -13.40625 7.3125 -13.09375 C 7.90625 -12.78125 8.363281 -12.34375 8.6875 -11.78125 C 9.007812 -11.21875 9.171875 -10.546875 9.171875 -9.765625 C 9.171875 -9.097656 8.960938 -8.375 8.546875 -7.59375 C 8.140625 -6.8125 7.523438 -5.96875 6.703125 -5.0625 L 2.984375 -0.875 L 2.796875 -1.109375 Z M 9.0625 -1.109375 "/></g></g></g></g></g></g><g clip-path="url(#b34caf66fc)"><g transform="matrix(1, 0, 0, 1, 505, 450)"><g clip-path="url(#187321821a)"><g fill="#201f1f" fill-opacity="1"><g transform="translate(0.981385, 20.370102)"><g><path d="M 9.0625 -1.109375 C 9.207031 -1.109375 9.332031 -1.050781 9.4375 -0.9375 C 9.550781 -0.832031 9.609375 -0.703125 9.609375 -0.546875 C 9.609375 -0.390625 9.550781 -0.257812 9.4375 -0.15625 C 9.332031 -0.0507812 9.207031 0 9.0625 0 L 1.890625 0 C 1.722656 0 1.578125 -0.046875 1.453125 -0.140625 C 1.335938 -0.234375 1.28125 -0.378906 1.28125 -0.578125 C 1.28125 -0.710938 1.332031 -0.84375 1.4375 -0.96875 L 5.84375 -5.84375 C 6.550781 -6.613281 7.078125 -7.316406 7.421875 -7.953125 C 7.773438 -8.597656 7.953125 -9.175781 7.953125 -9.6875 C 7.953125 -10.53125 7.695312 -11.207031 7.1875 -11.71875 C 6.675781 -12.226562 5.988281 -12.484375 5.125 -12.484375 C 4.726562 -12.484375 4.332031 -12.398438 3.9375 -12.234375 C 3.550781 -12.066406 3.207031 -11.847656 2.90625 -11.578125 C 2.613281 -11.304688 2.382812 -11 2.21875 -10.65625 C 2.144531 -10.53125 2.066406 -10.441406 1.984375 -10.390625 C 1.898438 -10.335938 1.804688 -10.3125 1.703125 -10.3125 C 1.546875 -10.3125 1.410156 -10.359375 1.296875 -10.453125 C 1.179688 -10.554688 1.125 -10.675781 1.125 -10.8125 C 1.125 -10.90625 1.144531 -10.992188 1.1875 -11.078125 C 1.238281 -11.171875 1.304688 -11.273438 1.390625 -11.390625 C 1.617188 -11.785156 1.9375 -12.144531 2.34375 -12.46875 C 2.757812 -12.800781 3.21875 -13.066406 3.71875 -13.265625 C 4.21875 -13.460938 4.710938 -13.5625 5.203125 -13.5625 C 6.015625 -13.5625 6.71875 -13.40625 7.3125 -13.09375 C 7.90625 -12.78125 8.363281 -12.34375 8.6875 -11.78125 C 9.007812 -11.21875 9.171875 -10.546875 9.171875 -9.765625 C 9.171875 -9.097656 8.960938 -8.375 8.546875 -7.59375 C 8.140625 -6.8125 7.523438 -5.96875 6.703125 -5.0625 L 2.984375 -0.875 L 2.796875 -1.109375 Z M 9.0625 -1.109375 "/></g></g></g><g fill="#201f1f" fill-opacity="1"><g transform="translate(11.562243, 20.370102)"><g><path d="M 1.703125 -1.96875 C 1.765625 -1.96875 1.828125 -1.953125 1.890625 -1.921875 C 1.960938 -1.898438 2.050781 -1.847656 2.15625 -1.765625 C 2.425781 -1.484375 2.742188 -1.265625 3.109375 -1.109375 C 3.484375 -0.960938 3.90625 -0.890625 4.375 -0.890625 C 5 -0.890625 5.566406 -1.03125 6.078125 -1.3125 C 6.597656 -1.59375 7.007812 -1.984375 7.3125 -2.484375 C 7.625 -2.992188 7.78125 -3.570312 7.78125 -4.21875 C 7.78125 -4.957031 7.613281 -5.550781 7.28125 -6 C 6.957031 -6.457031 6.546875 -6.796875 6.046875 -7.015625 C 5.546875 -7.242188 5.035156 -7.359375 4.515625 -7.359375 C 4.367188 -7.359375 4.226562 -7.347656 4.09375 -7.328125 C 3.957031 -7.304688 3.832031 -7.28125 3.71875 -7.25 C 3.601562 -7.226562 3.515625 -7.21875 3.453125 -7.21875 C 3.285156 -7.21875 3.15625 -7.269531 3.0625 -7.375 C 2.976562 -7.488281 2.9375 -7.628906 2.9375 -7.796875 C 2.9375 -7.890625 2.957031 -7.96875 3 -8.03125 C 3.039062 -8.101562 3.09375 -8.1875 3.15625 -8.28125 L 7.03125 -12.5 L 7.265625 -12.1875 L 1.46875 -12.1875 C 1.3125 -12.1875 1.179688 -12.238281 1.078125 -12.34375 C 0.972656 -12.457031 0.921875 -12.59375 0.921875 -12.75 C 0.921875 -12.894531 0.972656 -13.019531 1.078125 -13.125 C 1.179688 -13.226562 1.3125 -13.28125 1.46875 -13.28125 L 7.890625 -13.28125 C 8.109375 -13.28125 8.257812 -13.210938 8.34375 -13.078125 C 8.4375 -12.941406 8.484375 -12.8125 8.484375 -12.6875 C 8.484375 -12.613281 8.460938 -12.539062 8.421875 -12.46875 C 8.390625 -12.394531 8.34375 -12.320312 8.28125 -12.25 L 4.390625 -8.03125 L 3.96875 -8.28125 C 4.007812 -8.3125 4.140625 -8.347656 4.359375 -8.390625 C 4.585938 -8.441406 4.765625 -8.46875 4.890625 -8.46875 C 5.585938 -8.46875 6.242188 -8.300781 6.859375 -7.96875 C 7.484375 -7.632812 7.988281 -7.160156 8.375 -6.546875 C 8.769531 -5.929688 8.96875 -5.171875 8.96875 -4.265625 C 8.96875 -3.367188 8.753906 -2.585938 8.328125 -1.921875 C 7.910156 -1.253906 7.34375 -0.734375 6.625 -0.359375 C 5.914062 0.00390625 5.128906 0.1875 4.265625 0.1875 C 3.742188 0.1875 3.226562 0.0976562 2.71875 -0.078125 C 2.207031 -0.253906 1.757812 -0.519531 1.375 -0.875 C 1.28125 -0.957031 1.210938 -1.035156 1.171875 -1.109375 C 1.140625 -1.179688 1.125 -1.257812 1.125 -1.34375 C 1.125 -1.488281 1.175781 -1.628906 1.28125 -1.765625 C 1.394531 -1.898438 1.535156 -1.96875 1.703125 -1.96875 Z M 1.703125 -1.96875 "/></g></g></g></g></g></g><g clip-path="url(#8f05cc929e)"><g transform="matrix(1, 0, 0, 1, 631, 450)"><g clip-path="url(#bce1416804)"><g fill="#201f1f" fill-opacity="1"><g transform="translate(0.800617, 20.370102)"><g><path d="M 9.0625 -1.109375 C 9.207031 -1.109375 9.332031 -1.050781 9.4375 -0.9375 C 9.550781 -0.832031 9.609375 -0.703125 9.609375 -0.546875 C 9.609375 -0.390625 9.550781 -0.257812 9.4375 -0.15625 C 9.332031 -0.0507812 9.207031 0 9.0625 0 L 1.890625 0 C 1.722656 0 1.578125 -0.046875 1.453125 -0.140625 C 1.335938 -0.234375 1.28125 -0.378906 1.28125 -0.578125 C 1.28125 -0.710938 1.332031 -0.84375 1.4375 -0.96875 L 5.84375 -5.84375 C 6.550781 -6.613281 7.078125 -7.316406 7.421875 -7.953125 C 7.773438 -8.597656 7.953125 -9.175781 7.953125 -9.6875 C 7.953125 -10.53125 7.695312 -11.207031 7.1875 -11.71875 C 6.675781 -12.226562 5.988281 -12.484375 5.125 -12.484375 C 4.726562 -12.484375 4.332031 -12.398438 3.9375 -12.234375 C 3.550781 -12.066406 3.207031 -11.847656 2.90625 -11.578125 C 2.613281 -11.304688 2.382812 -11 2.21875 -10.65625 C 2.144531 -10.53125 2.066406 -10.441406 1.984375 -10.390625 C 1.898438 -10.335938 1.804688 -10.3125 1.703125 -10.3125 C 1.546875 -10.3125 1.410156 -10.359375 1.296875 -10.453125 C 1.179688 -10.554688 1.125 -10.675781 1.125 -10.8125 C 1.125 -10.90625 1.144531 -10.992188 1.1875 -11.078125 C 1.238281 -11.171875 1.304688 -11.273438 1.390625 -11.390625 C 1.617188 -11.785156 1.9375 -12.144531 2.34375 -12.46875 C 2.757812 -12.800781 3.21875 -13.066406 3.71875 -13.265625 C 4.21875 -13.460938 4.710938 -13.5625 5.203125 -13.5625 C 6.015625 -13.5625 6.71875 -13.40625 7.3125 -13.09375 C 7.90625 -12.78125 8.363281 -12.34375 8.6875 -11.78125 C 9.007812 -11.21875 9.171875 -10.546875 9.171875 -9.765625 C 9.171875 -9.097656 8.960938 -8.375 8.546875 -7.59375 C 8.140625 -6.8125 7.523438 -5.96875 6.703125 -5.0625 L 2.984375 -0.875 L 2.796875 -1.109375 Z M 9.0625 -1.109375 "/></g></g></g><g fill="#201f1f" fill-opacity="1"><g transform="translate(11.381476, 20.370102)"><g><path d="M 7.015625 0 C 6.847656 0 6.710938 -0.0546875 6.609375 -0.171875 C 6.503906 -0.285156 6.453125 -0.421875 6.453125 -0.578125 L 6.453125 -11.796875 L 6.703125 -11.640625 L 1.6875 -4.984375 L 1.625 -5.203125 L 8.96875 -5.203125 C 9.113281 -5.203125 9.238281 -5.148438 9.34375 -5.046875 C 9.457031 -4.941406 9.515625 -4.8125 9.515625 -4.65625 C 9.515625 -4.507812 9.457031 -4.382812 9.34375 -4.28125 C 9.238281 -4.175781 9.113281 -4.125 8.96875 -4.125 L 0.84375 -4.125 C 0.6875 -4.125 0.550781 -4.179688 0.4375 -4.296875 C 0.320312 -4.421875 0.265625 -4.5625 0.265625 -4.71875 C 0.265625 -4.863281 0.3125 -4.992188 0.40625 -5.109375 L 6.546875 -13.140625 C 6.617188 -13.234375 6.703125 -13.296875 6.796875 -13.328125 C 6.890625 -13.359375 6.96875 -13.375 7.03125 -13.375 C 7.195312 -13.375 7.332031 -13.316406 7.4375 -13.203125 C 7.550781 -13.085938 7.609375 -12.953125 7.609375 -12.796875 L 7.609375 -0.578125 C 7.609375 -0.421875 7.550781 -0.285156 7.4375 -0.171875 C 7.320312 -0.0546875 7.179688 0 7.015625 0 Z M 7.015625 0 "/></g></g></g></g></g></g><g clip-path="url(#33add1869f)"><g transform="matrix(1, 0, 0, 1, 757, 450)"><g clip-path="url(#620159dcc8)"><g fill="#201f1f" fill-opacity="1"><g transform="translate(0.619966, 20.370102)"><g><path d="M 9.0625 -1.109375 C 9.207031 -1.109375 9.332031 -1.050781 9.4375 -0.9375 C 9.550781 -0.832031 9.609375 -0.703125 9.609375 -0.546875 C 9.609375 -0.390625 9.550781 -0.257812 9.4375 -0.15625 C 9.332031 -0.0507812 9.207031 0 9.0625 0 L 1.890625 0 C 1.722656 0 1.578125 -0.046875 1.453125 -0.140625 C 1.335938 -0.234375 1.28125 -0.378906 1.28125 -0.578125 C 1.28125 -0.710938 1.332031 -0.84375 1.4375 -0.96875 L 5.84375 -5.84375 C 6.550781 -6.613281 7.078125 -7.316406 7.421875 -7.953125 C 7.773438 -8.597656 7.953125 -9.175781 7.953125 -9.6875 C 7.953125 -10.53125 7.695312 -11.207031 7.1875 -11.71875 C 6.675781 -12.226562 5.988281 -12.484375 5.125 -12.484375 C 4.726562 -12.484375 4.332031 -12.398438 3.9375 -12.234375 C 3.550781 -12.066406 3.207031 -11.847656 2.90625 -11.578125 C 2.613281 -11.304688 2.382812 -11 2.21875 -10.65625 C 2.144531 -10.53125 2.066406 -10.441406 1.984375 -10.390625 C 1.898438 -10.335938 1.804688 -10.3125 1.703125 -10.3125 C 1.546875 -10.3125 1.410156 -10.359375 1.296875 -10.453125 C 1.179688 -10.554688 1.125 -10.675781 1.125 -10.8125 C 1.125 -10.90625 1.144531 -10.992188 1.1875 -11.078125 C 1.238281 -11.171875 1.304688 -11.273438 1.390625 -11.390625 C 1.617188 -11.785156 1.9375 -12.144531 2.34375 -12.46875 C 2.757812 -12.800781 3.21875 -13.066406 3.71875 -13.265625 C 4.21875 -13.460938 4.710938 -13.5625 5.203125 -13.5625 C 6.015625 -13.5625 6.71875 -13.40625 7.3125 -13.09375 C 7.90625 -12.78125 8.363281 -12.34375 8.6875 -11.78125 C 9.007812 -11.21875 9.171875 -10.546875 9.171875 -9.765625 C 9.171875 -9.097656 8.960938 -8.375 8.546875 -7.59375 C 8.140625 -6.8125 7.523438 -5.96875 6.703125 -5.0625 L 2.984375 -0.875 L 2.796875 -1.109375 Z M 9.0625 -1.109375 "/></g></g></g><g fill="#201f1f" fill-opacity="1"><g transform="translate(11.200825, 20.370102)"><g><path d="M 4.46875 0.03125 C 3.945312 0.03125 3.421875 -0.0507812 2.890625 -0.21875 C 2.367188 -0.394531 1.898438 -0.65625 1.484375 -1 C 1.410156 -1.0625 1.347656 -1.132812 1.296875 -1.21875 C 1.253906 -1.3125 1.234375 -1.398438 1.234375 -1.484375 C 1.234375 -1.617188 1.285156 -1.742188 1.390625 -1.859375 C 1.492188 -1.984375 1.628906 -2.046875 1.796875 -2.046875 C 1.929688 -2.046875 2.070312 -1.988281 2.21875 -1.875 C 2.550781 -1.613281 2.910156 -1.410156 3.296875 -1.265625 C 3.679688 -1.128906 4.070312 -1.0625 4.46875 -1.0625 C 5.21875 -1.0625 5.875 -1.207031 6.4375 -1.5 C 7 -1.789062 7.429688 -2.195312 7.734375 -2.71875 C 8.046875 -3.25 8.203125 -3.863281 8.203125 -4.5625 C 8.203125 -5.21875 8.0625 -5.78125 7.78125 -6.25 C 7.5 -6.726562 7.097656 -7.101562 6.578125 -7.375 C 6.066406 -7.65625 5.460938 -7.796875 4.765625 -7.796875 C 4.304688 -7.796875 3.882812 -7.722656 3.5 -7.578125 C 3.125 -7.441406 2.800781 -7.300781 2.53125 -7.15625 C 2.257812 -7.007812 2.039062 -6.9375 1.875 -6.9375 C 1.71875 -6.9375 1.59375 -6.972656 1.5 -7.046875 C 1.40625 -7.128906 1.34375 -7.226562 1.3125 -7.34375 C 1.28125 -7.457031 1.273438 -7.578125 1.296875 -7.703125 L 2.125 -12.796875 C 2.132812 -12.910156 2.191406 -13.015625 2.296875 -13.109375 C 2.410156 -13.210938 2.550781 -13.265625 2.71875 -13.265625 L 8.46875 -13.265625 C 8.613281 -13.265625 8.738281 -13.207031 8.84375 -13.09375 C 8.957031 -12.988281 9.015625 -12.859375 9.015625 -12.703125 C 9.015625 -12.535156 8.957031 -12.398438 8.84375 -12.296875 C 8.738281 -12.191406 8.613281 -12.140625 8.46875 -12.140625 L 2.984375 -12.140625 L 3.15625 -12.3125 L 2.375 -7.78125 L 2.03125 -8.03125 C 2.195312 -8.15625 2.429688 -8.28125 2.734375 -8.40625 C 3.046875 -8.53125 3.394531 -8.640625 3.78125 -8.734375 C 4.175781 -8.835938 4.59375 -8.890625 5.03125 -8.890625 C 5.851562 -8.890625 6.585938 -8.707031 7.234375 -8.34375 C 7.890625 -7.976562 8.40625 -7.472656 8.78125 -6.828125 C 9.15625 -6.179688 9.34375 -5.441406 9.34375 -4.609375 C 9.34375 -3.671875 9.140625 -2.851562 8.734375 -2.15625 C 8.335938 -1.46875 7.773438 -0.929688 7.046875 -0.546875 C 6.328125 -0.160156 5.46875 0.03125 4.46875 0.03125 Z M 4.46875 0.03125 "/></g></g></g></g></g></g><g clip-path="url(#cfcdd6037e)"><g transform="matrix(1, 0, 0, 1, 2, 600)"><g clip-path="url(#8cc67ae5b8)"><g fill="#201f1f" fill-opacity="1"><g transform="translate(0.704277, 20.129421)"><g><path d="M 9.0625 -1.109375 C 9.207031 -1.109375 9.332031 -1.050781 9.4375 -0.9375 C 9.550781 -0.832031 9.609375 -0.703125 9.609375 -0.546875 C 9.609375 -0.390625 9.550781 -0.257812 9.4375 -0.15625 C 9.332031 -0.0507812 9.207031 0 9.0625 0 L 1.890625 0 C 1.722656 0 1.578125 -0.046875 1.453125 -0.140625 C 1.335938 -0.234375 1.28125 -0.378906 1.28125 -0.578125 C 1.28125 -0.710938 1.332031 -0.84375 1.4375 -0.96875 L 5.84375 -5.84375 C 6.550781 -6.613281 7.078125 -7.316406 7.421875 -7.953125 C 7.773438 -8.597656 7.953125 -9.175781 7.953125 -9.6875 C 7.953125 -10.53125 7.695312 -11.207031 7.1875 -11.71875 C 6.675781 -12.226562 5.988281 -12.484375 5.125 -12.484375 C 4.726562 -12.484375 4.332031 -12.398438 3.9375 -12.234375 C 3.550781 -12.066406 3.207031 -11.847656 2.90625 -11.578125 C 2.613281 -11.304688 2.382812 -11 2.21875 -10.65625 C 2.144531 -10.53125 2.066406 -10.441406 1.984375 -10.390625 C 1.898438 -10.335938 1.804688 -10.3125 1.703125 -10.3125 C 1.546875 -10.3125 1.410156 -10.359375 1.296875 -10.453125 C 1.179688 -10.554688 1.125 -10.675781 1.125 -10.8125 C 1.125 -10.90625 1.144531 -10.992188 1.1875 -11.078125 C 1.238281 -11.171875 1.304688 -11.273438 1.390625 -11.390625 C 1.617188 -11.785156 1.9375 -12.144531 2.34375 -12.46875 C 2.757812 -12.800781 3.21875 -13.066406 3.71875 -13.265625 C 4.21875 -13.460938 4.710938 -13.5625 5.203125 -13.5625 C 6.015625 -13.5625 6.71875 -13.40625 7.3125 -13.09375 C 7.90625 -12.78125 8.363281 -12.34375 8.6875 -11.78125 C 9.007812 -11.21875 9.171875 -10.546875 9.171875 -9.765625 C 9.171875 -9.097656 8.960938 -8.375 8.546875 -7.59375 C 8.140625 -6.8125 7.523438 -5.96875 6.703125 -5.0625 L 2.984375 -0.875 L 2.796875 -1.109375 Z M 9.0625 -1.109375 "/></g></g></g><g fill="#201f1f" fill-opacity="1"><g transform="translate(11.285136, 20.129421)"><g><path d="M 5.484375 0.1875 C 4.742188 0.1875 4.097656 0.0546875 3.546875 -0.203125 C 2.992188 -0.472656 2.535156 -0.832031 2.171875 -1.28125 C 1.804688 -1.738281 1.535156 -2.253906 1.359375 -2.828125 C 1.191406 -3.398438 1.109375 -3.988281 1.109375 -4.59375 C 1.109375 -5.195312 1.179688 -5.851562 1.328125 -6.5625 C 1.484375 -7.269531 1.71875 -7.984375 2.03125 -8.703125 C 2.351562 -9.429688 2.75 -10.117188 3.21875 -10.765625 C 3.6875 -11.421875 4.226562 -12.003906 4.84375 -12.515625 C 5.457031 -13.035156 6.15625 -13.441406 6.9375 -13.734375 C 7.03125 -13.765625 7.109375 -13.78125 7.171875 -13.78125 C 7.335938 -13.78125 7.476562 -13.734375 7.59375 -13.640625 C 7.71875 -13.554688 7.78125 -13.40625 7.78125 -13.1875 C 7.78125 -13.0625 7.738281 -12.945312 7.65625 -12.84375 C 7.570312 -12.75 7.457031 -12.675781 7.3125 -12.625 C 6.78125 -12.394531 6.253906 -12.070312 5.734375 -11.65625 C 5.210938 -11.238281 4.726562 -10.753906 4.28125 -10.203125 C 3.832031 -9.648438 3.453125 -9.054688 3.140625 -8.421875 C 2.828125 -7.796875 2.609375 -7.160156 2.484375 -6.515625 L 2.0625 -6.265625 C 2.289062 -6.691406 2.585938 -7.066406 2.953125 -7.390625 C 3.316406 -7.710938 3.734375 -7.972656 4.203125 -8.171875 C 4.671875 -8.367188 5.179688 -8.46875 5.734375 -8.46875 C 6.304688 -8.46875 6.832031 -8.34375 7.3125 -8.09375 C 7.800781 -7.851562 8.21875 -7.523438 8.5625 -7.109375 C 8.914062 -6.703125 9.191406 -6.238281 9.390625 -5.71875 C 9.585938 -5.195312 9.6875 -4.65625 9.6875 -4.09375 C 9.6875 -3.34375 9.503906 -2.640625 9.140625 -1.984375 C 8.773438 -1.335938 8.273438 -0.8125 7.640625 -0.40625 C 7.015625 -0.0078125 6.296875 0.1875 5.484375 0.1875 Z M 5.46875 -0.921875 C 6.050781 -0.921875 6.570312 -1.050781 7.03125 -1.3125 C 7.488281 -1.582031 7.847656 -1.957031 8.109375 -2.4375 C 8.367188 -2.914062 8.5 -3.46875 8.5 -4.09375 C 8.5 -4.664062 8.382812 -5.195312 8.15625 -5.6875 C 7.9375 -6.175781 7.609375 -6.578125 7.171875 -6.890625 C 6.734375 -7.203125 6.191406 -7.359375 5.546875 -7.359375 C 4.867188 -7.359375 4.285156 -7.203125 3.796875 -6.890625 C 3.304688 -6.585938 2.929688 -6.1875 2.671875 -5.6875 C 2.410156 -5.1875 2.28125 -4.632812 2.28125 -4.03125 C 2.28125 -3.5 2.40625 -2.992188 2.65625 -2.515625 C 2.90625 -2.035156 3.269531 -1.648438 3.75 -1.359375 C 4.226562 -1.066406 4.800781 -0.921875 5.46875 -0.921875 Z M 5.46875 -0.921875 "/></g></g></g></g></g></g><g clip-path="url(#f0f329ed4a)"><g transform="matrix(1, 0, 0, 1, 128, 600)"><g clip-path="url(#891a660166)"><g fill="#201f1f" fill-opacity="1"><g transform="translate(0.523556, 20.129421)"><g><path d="M 9.0625 -1.109375 C 9.207031 -1.109375 9.332031 -1.050781 9.4375 -0.9375 C 9.550781 -0.832031 9.609375 -0.703125 9.609375 -0.546875 C 9.609375 -0.390625 9.550781 -0.257812 9.4375 -0.15625 C 9.332031 -0.0507812 9.207031 0 9.0625 0 L 1.890625 0 C 1.722656 0 1.578125 -0.046875 1.453125 -0.140625 C 1.335938 -0.234375 1.28125 -0.378906 1.28125 -0.578125 C 1.28125 -0.710938 1.332031 -0.84375 1.4375 -0.96875 L 5.84375 -5.84375 C 6.550781 -6.613281 7.078125 -7.316406 7.421875 -7.953125 C 7.773438 -8.597656 7.953125 -9.175781 7.953125 -9.6875 C 7.953125 -10.53125 7.695312 -11.207031 7.1875 -11.71875 C 6.675781 -12.226562 5.988281 -12.484375 5.125 -12.484375 C 4.726562 -12.484375 4.332031 -12.398438 3.9375 -12.234375 C 3.550781 -12.066406 3.207031 -11.847656 2.90625 -11.578125 C 2.613281 -11.304688 2.382812 -11 2.21875 -10.65625 C 2.144531 -10.53125 2.066406 -10.441406 1.984375 -10.390625 C 1.898438 -10.335938 1.804688 -10.3125 1.703125 -10.3125 C 1.546875 -10.3125 1.410156 -10.359375 1.296875 -10.453125 C 1.179688 -10.554688 1.125 -10.675781 1.125 -10.8125 C 1.125 -10.90625 1.144531 -10.992188 1.1875 -11.078125 C 1.238281 -11.171875 1.304688 -11.273438 1.390625 -11.390625 C 1.617188 -11.785156 1.9375 -12.144531 2.34375 -12.46875 C 2.757812 -12.800781 3.21875 -13.066406 3.71875 -13.265625 C 4.21875 -13.460938 4.710938 -13.5625 5.203125 -13.5625 C 6.015625 -13.5625 6.71875 -13.40625 7.3125 -13.09375 C 7.90625 -12.78125 8.363281 -12.34375 8.6875 -11.78125 C 9.007812 -11.21875 9.171875 -10.546875 9.171875 -9.765625 C 9.171875 -9.097656 8.960938 -8.375 8.546875 -7.59375 C 8.140625 -6.8125 7.523438 -5.96875 6.703125 -5.0625 L 2.984375 -0.875 L 2.796875 -1.109375 Z M 9.0625 -1.109375 "/></g></g></g><g fill="#201f1f" fill-opacity="1"><g transform="translate(11.104415, 20.129421)"><g><path d="M 3.40625 0.0625 C 3.25 0.0625 3.109375 0.0078125 2.984375 -0.09375 C 2.859375 -0.195312 2.796875 -0.328125 2.796875 -0.484375 C 2.796875 -0.566406 2.8125 -0.660156 2.84375 -0.765625 L 7.9375 -12.4375 L 8.140625 -12.171875 L 1.6875 -12.171875 C 1.53125 -12.171875 1.394531 -12.222656 1.28125 -12.328125 C 1.175781 -12.441406 1.125 -12.578125 1.125 -12.734375 C 1.125 -12.890625 1.175781 -13.019531 1.28125 -13.125 C 1.394531 -13.226562 1.53125 -13.28125 1.6875 -13.28125 L 8.6875 -13.28125 C 8.882812 -13.28125 9.023438 -13.226562 9.109375 -13.125 C 9.203125 -13.019531 9.25 -12.894531 9.25 -12.75 C 9.25 -12.644531 9.226562 -12.546875 9.1875 -12.453125 L 3.9375 -0.328125 C 3.894531 -0.210938 3.820312 -0.117188 3.71875 -0.046875 C 3.625 0.0234375 3.519531 0.0625 3.40625 0.0625 Z M 3.40625 0.0625 "/></g></g></g></g></g></g><g clip-path="url(#6620ff4628)"><g transform="matrix(1, 0, 0, 1, 254, 600)"><g clip-path="url(#f3471d38c5)"><g fill="#201f1f" fill-opacity="1"><g transform="translate(0.342833, 20.129421)"><g><path d="M 9.0625 -1.109375 C 9.207031 -1.109375 9.332031 -1.050781 9.4375 -0.9375 C 9.550781 -0.832031 9.609375 -0.703125 9.609375 -0.546875 C 9.609375 -0.390625 9.550781 -0.257812 9.4375 -0.15625 C 9.332031 -0.0507812 9.207031 0 9.0625 0 L 1.890625 0 C 1.722656 0 1.578125 -0.046875 1.453125 -0.140625 C 1.335938 -0.234375 1.28125 -0.378906 1.28125 -0.578125 C 1.28125 -0.710938 1.332031 -0.84375 1.4375 -0.96875 L 5.84375 -5.84375 C 6.550781 -6.613281 7.078125 -7.316406 7.421875 -7.953125 C 7.773438 -8.597656 7.953125 -9.175781 7.953125 -9.6875 C 7.953125 -10.53125 7.695312 -11.207031 7.1875 -11.71875 C 6.675781 -12.226562 5.988281 -12.484375 5.125 -12.484375 C 4.726562 -12.484375 4.332031 -12.398438 3.9375 -12.234375 C 3.550781 -12.066406 3.207031 -11.847656 2.90625 -11.578125 C 2.613281 -11.304688 2.382812 -11 2.21875 -10.65625 C 2.144531 -10.53125 2.066406 -10.441406 1.984375 -10.390625 C 1.898438 -10.335938 1.804688 -10.3125 1.703125 -10.3125 C 1.546875 -10.3125 1.410156 -10.359375 1.296875 -10.453125 C 1.179688 -10.554688 1.125 -10.675781 1.125 -10.8125 C 1.125 -10.90625 1.144531 -10.992188 1.1875 -11.078125 C 1.238281 -11.171875 1.304688 -11.273438 1.390625 -11.390625 C 1.617188 -11.785156 1.9375 -12.144531 2.34375 -12.46875 C 2.757812 -12.800781 3.21875 -13.066406 3.71875 -13.265625 C 4.21875 -13.460938 4.710938 -13.5625 5.203125 -13.5625 C 6.015625 -13.5625 6.71875 -13.40625 7.3125 -13.09375 C 7.90625 -12.78125 8.363281 -12.34375 8.6875 -11.78125 C 9.007812 -11.21875 9.171875 -10.546875 9.171875 -9.765625 C 9.171875 -9.097656 8.960938 -8.375 8.546875 -7.59375 C 8.140625 -6.8125 7.523438 -5.96875 6.703125 -5.0625 L 2.984375 -0.875 L 2.796875 -1.109375 Z M 9.0625 -1.109375 "/></g></g></g><g fill="#201f1f" fill-opacity="1"><g transform="translate(10.923691, 20.129421)"><g><path d="M 6.953125 -6.71875 L 6.90625 -6.90625 C 7.332031 -6.738281 7.722656 -6.488281 8.078125 -6.15625 C 8.441406 -5.832031 8.726562 -5.453125 8.9375 -5.015625 C 9.15625 -4.578125 9.265625 -4.097656 9.265625 -3.578125 C 9.265625 -2.890625 9.082031 -2.265625 8.71875 -1.703125 C 8.351562 -1.140625 7.859375 -0.691406 7.234375 -0.359375 C 6.617188 -0.0234375 5.925781 0.140625 5.15625 0.140625 C 4.382812 0.140625 3.6875 -0.0234375 3.0625 -0.359375 C 2.445312 -0.691406 1.957031 -1.140625 1.59375 -1.703125 C 1.226562 -2.265625 1.046875 -2.890625 1.046875 -3.578125 C 1.046875 -4.140625 1.15625 -4.640625 1.375 -5.078125 C 1.601562 -5.515625 1.898438 -5.882812 2.265625 -6.1875 C 2.628906 -6.5 3.007812 -6.738281 3.40625 -6.90625 L 3.34375 -6.703125 C 3 -6.867188 2.675781 -7.09375 2.375 -7.375 C 2.082031 -7.664062 1.835938 -8.007812 1.640625 -8.40625 C 1.453125 -8.8125 1.359375 -9.257812 1.359375 -9.75 C 1.359375 -10.4375 1.523438 -11.050781 1.859375 -11.59375 C 2.203125 -12.144531 2.660156 -12.578125 3.234375 -12.890625 C 3.816406 -13.210938 4.457031 -13.375 5.15625 -13.375 C 5.851562 -13.375 6.484375 -13.210938 7.046875 -12.890625 C 7.617188 -12.578125 8.070312 -12.144531 8.40625 -11.59375 C 8.75 -11.050781 8.921875 -10.4375 8.921875 -9.75 C 8.921875 -9.25 8.820312 -8.800781 8.625 -8.40625 C 8.4375 -8.007812 8.191406 -7.664062 7.890625 -7.375 C 7.585938 -7.09375 7.273438 -6.875 6.953125 -6.71875 Z M 2.546875 -9.75 C 2.546875 -9.238281 2.664062 -8.789062 2.90625 -8.40625 C 3.144531 -8.019531 3.460938 -7.71875 3.859375 -7.5 C 4.253906 -7.289062 4.6875 -7.1875 5.15625 -7.1875 C 5.613281 -7.1875 6.039062 -7.289062 6.4375 -7.5 C 6.832031 -7.71875 7.144531 -8.019531 7.375 -8.40625 C 7.613281 -8.789062 7.734375 -9.238281 7.734375 -9.75 C 7.734375 -10.5 7.488281 -11.109375 7 -11.578125 C 6.519531 -12.046875 5.90625 -12.28125 5.15625 -12.28125 C 4.382812 -12.28125 3.753906 -12.046875 3.265625 -11.578125 C 2.785156 -11.109375 2.546875 -10.5 2.546875 -9.75 Z M 5.15625 -0.953125 C 6.019531 -0.953125 6.722656 -1.203125 7.265625 -1.703125 C 7.804688 -2.203125 8.078125 -2.828125 8.078125 -3.578125 C 8.078125 -4.085938 7.941406 -4.546875 7.671875 -4.953125 C 7.410156 -5.359375 7.054688 -5.675781 6.609375 -5.90625 C 6.160156 -6.132812 5.675781 -6.25 5.15625 -6.25 C 4.632812 -6.25 4.148438 -6.132812 3.703125 -5.90625 C 3.253906 -5.675781 2.894531 -5.359375 2.625 -4.953125 C 2.363281 -4.546875 2.234375 -4.085938 2.234375 -3.578125 C 2.234375 -2.828125 2.5 -2.203125 3.03125 -1.703125 C 3.570312 -1.203125 4.28125 -0.953125 5.15625 -0.953125 Z M 5.15625 -0.953125 "/></g></g></g></g></g></g><g clip-path="url(#fa3c18950d)"><g transform="matrix(1, 0, 0, 1, 380, 600)"><g clip-path="url(#b9dfde914d)"><g fill="#201f1f" fill-opacity="1"><g transform="translate(0.162094, 20.129421)"><g><path d="M 9.0625 -1.109375 C 9.207031 -1.109375 9.332031 -1.050781 9.4375 -0.9375 C 9.550781 -0.832031 9.609375 -0.703125 9.609375 -0.546875 C 9.609375 -0.390625 9.550781 -0.257812 9.4375 -0.15625 C 9.332031 -0.0507812 9.207031 0 9.0625 0 L 1.890625 0 C 1.722656 0 1.578125 -0.046875 1.453125 -0.140625 C 1.335938 -0.234375 1.28125 -0.378906 1.28125 -0.578125 C 1.28125 -0.710938 1.332031 -0.84375 1.4375 -0.96875 L 5.84375 -5.84375 C 6.550781 -6.613281 7.078125 -7.316406 7.421875 -7.953125 C 7.773438 -8.597656 7.953125 -9.175781 7.953125 -9.6875 C 7.953125 -10.53125 7.695312 -11.207031 7.1875 -11.71875 C 6.675781 -12.226562 5.988281 -12.484375 5.125 -12.484375 C 4.726562 -12.484375 4.332031 -12.398438 3.9375 -12.234375 C 3.550781 -12.066406 3.207031 -11.847656 2.90625 -11.578125 C 2.613281 -11.304688 2.382812 -11 2.21875 -10.65625 C 2.144531 -10.53125 2.066406 -10.441406 1.984375 -10.390625 C 1.898438 -10.335938 1.804688 -10.3125 1.703125 -10.3125 C 1.546875 -10.3125 1.410156 -10.359375 1.296875 -10.453125 C 1.179688 -10.554688 1.125 -10.675781 1.125 -10.8125 C 1.125 -10.90625 1.144531 -10.992188 1.1875 -11.078125 C 1.238281 -11.171875 1.304688 -11.273438 1.390625 -11.390625 C 1.617188 -11.785156 1.9375 -12.144531 2.34375 -12.46875 C 2.757812 -12.800781 3.21875 -13.066406 3.71875 -13.265625 C 4.21875 -13.460938 4.710938 -13.5625 5.203125 -13.5625 C 6.015625 -13.5625 6.71875 -13.40625 7.3125 -13.09375 C 7.90625 -12.78125 8.363281 -12.34375 8.6875 -11.78125 C 9.007812 -11.21875 9.171875 -10.546875 9.171875 -9.765625 C 9.171875 -9.097656 8.960938 -8.375 8.546875 -7.59375 C 8.140625 -6.8125 7.523438 -5.96875 6.703125 -5.0625 L 2.984375 -0.875 L 2.796875 -1.109375 Z M 9.0625 -1.109375 "/></g></g></g><g fill="#201f1f" fill-opacity="1"><g transform="translate(10.742953, 20.129421)"><g><path d="M 5.296875 -13.59375 C 6.046875 -13.59375 6.695312 -13.457031 7.25 -13.1875 C 7.800781 -12.914062 8.253906 -12.550781 8.609375 -12.09375 C 8.972656 -11.644531 9.242188 -11.132812 9.421875 -10.5625 C 9.597656 -9.988281 9.6875 -9.40625 9.6875 -8.8125 C 9.6875 -8.195312 9.601562 -7.539062 9.4375 -6.84375 C 9.28125 -6.15625 9.046875 -5.457031 8.734375 -4.75 C 8.429688 -4.039062 8.046875 -3.367188 7.578125 -2.734375 C 7.109375 -2.097656 6.5625 -1.523438 5.9375 -1.015625 C 5.3125 -0.503906 4.617188 -0.109375 3.859375 0.171875 C 3.753906 0.191406 3.671875 0.203125 3.609375 0.203125 C 3.453125 0.203125 3.3125 0.148438 3.1875 0.046875 C 3.070312 -0.0546875 3.015625 -0.195312 3.015625 -0.375 C 3.015625 -0.507812 3.050781 -0.625 3.125 -0.71875 C 3.207031 -0.8125 3.328125 -0.882812 3.484375 -0.9375 C 4.203125 -1.238281 4.898438 -1.691406 5.578125 -2.296875 C 6.253906 -2.898438 6.835938 -3.597656 7.328125 -4.390625 C 7.816406 -5.191406 8.144531 -6.019531 8.3125 -6.875 L 8.71875 -7.125 C 8.5 -6.71875 8.203125 -6.347656 7.828125 -6.015625 C 7.460938 -5.679688 7.046875 -5.421875 6.578125 -5.234375 C 6.117188 -5.054688 5.613281 -4.96875 5.0625 -4.96875 C 4.25 -4.96875 3.546875 -5.164062 2.953125 -5.5625 C 2.359375 -5.96875 1.898438 -6.5 1.578125 -7.15625 C 1.265625 -7.820312 1.109375 -8.539062 1.109375 -9.3125 C 1.109375 -10.0625 1.289062 -10.757812 1.65625 -11.40625 C 2.019531 -12.0625 2.515625 -12.585938 3.140625 -12.984375 C 3.773438 -13.390625 4.492188 -13.59375 5.296875 -13.59375 Z M 5.328125 -12.484375 C 4.734375 -12.484375 4.207031 -12.347656 3.75 -12.078125 C 3.289062 -11.804688 2.929688 -11.429688 2.671875 -10.953125 C 2.410156 -10.484375 2.28125 -9.9375 2.28125 -9.3125 C 2.28125 -8.75 2.390625 -8.21875 2.609375 -7.71875 C 2.828125 -7.21875 3.160156 -6.816406 3.609375 -6.515625 C 4.054688 -6.222656 4.597656 -6.078125 5.234375 -6.078125 C 5.921875 -6.078125 6.503906 -6.222656 6.984375 -6.515625 C 7.472656 -6.816406 7.847656 -7.21875 8.109375 -7.71875 C 8.378906 -8.21875 8.515625 -8.765625 8.515625 -9.359375 C 8.515625 -9.910156 8.390625 -10.421875 8.140625 -10.890625 C 7.890625 -11.359375 7.523438 -11.738281 7.046875 -12.03125 C 6.578125 -12.332031 6.003906 -12.484375 5.328125 -12.484375 Z M 5.328125 -12.484375 "/></g></g></g></g></g></g><g clip-path="url(#e0df701fdb)"><g transform="matrix(1, 0, 0, 1, 505, 600)"><g clip-path="url(#46a300cb47)"><g fill="#201f1f" fill-opacity="1"><g transform="translate(0.981385, 20.129421)"><g><path d="M 1.703125 -1.96875 C 1.765625 -1.96875 1.828125 -1.953125 1.890625 -1.921875 C 1.960938 -1.898438 2.050781 -1.847656 2.15625 -1.765625 C 2.425781 -1.484375 2.742188 -1.265625 3.109375 -1.109375 C 3.484375 -0.960938 3.90625 -0.890625 4.375 -0.890625 C 5 -0.890625 5.566406 -1.03125 6.078125 -1.3125 C 6.597656 -1.59375 7.007812 -1.984375 7.3125 -2.484375 C 7.625 -2.992188 7.78125 -3.570312 7.78125 -4.21875 C 7.78125 -4.957031 7.613281 -5.550781 7.28125 -6 C 6.957031 -6.457031 6.546875 -6.796875 6.046875 -7.015625 C 5.546875 -7.242188 5.035156 -7.359375 4.515625 -7.359375 C 4.367188 -7.359375 4.226562 -7.347656 4.09375 -7.328125 C 3.957031 -7.304688 3.832031 -7.28125 3.71875 -7.25 C 3.601562 -7.226562 3.515625 -7.21875 3.453125 -7.21875 C 3.285156 -7.21875 3.15625 -7.269531 3.0625 -7.375 C 2.976562 -7.488281 2.9375 -7.628906 2.9375 -7.796875 C 2.9375 -7.890625 2.957031 -7.96875 3 -8.03125 C 3.039062 -8.101562 3.09375 -8.1875 3.15625 -8.28125 L 7.03125 -12.5 L 7.265625 -12.1875 L 1.46875 -12.1875 C 1.3125 -12.1875 1.179688 -12.238281 1.078125 -12.34375 C 0.972656 -12.457031 0.921875 -12.59375 0.921875 -12.75 C 0.921875 -12.894531 0.972656 -13.019531 1.078125 -13.125 C 1.179688 -13.226562 1.3125 -13.28125 1.46875 -13.28125 L 7.890625 -13.28125 C 8.109375 -13.28125 8.257812 -13.210938 8.34375 -13.078125 C 8.4375 -12.941406 8.484375 -12.8125 8.484375 -12.6875 C 8.484375 -12.613281 8.460938 -12.539062 8.421875 -12.46875 C 8.390625 -12.394531 8.34375 -12.320312 8.28125 -12.25 L 4.390625 -8.03125 L 3.96875 -8.28125 C 4.007812 -8.3125 4.140625 -8.347656 4.359375 -8.390625 C 4.585938 -8.441406 4.765625 -8.46875 4.890625 -8.46875 C 5.585938 -8.46875 6.242188 -8.300781 6.859375 -7.96875 C 7.484375 -7.632812 7.988281 -7.160156 8.375 -6.546875 C 8.769531 -5.929688 8.96875 -5.171875 8.96875 -4.265625 C 8.96875 -3.367188 8.753906 -2.585938 8.328125 -1.921875 C 7.910156 -1.253906 7.34375 -0.734375 6.625 -0.359375 C 5.914062 0.00390625 5.128906 0.1875 4.265625 0.1875 C 3.742188 0.1875 3.226562 0.0976562 2.71875 -0.078125 C 2.207031 -0.253906 1.757812 -0.519531 1.375 -0.875 C 1.28125 -0.957031 1.210938 -1.035156 1.171875 -1.109375 C 1.140625 -1.179688 1.125 -1.257812 1.125 -1.34375 C 1.125 -1.488281 1.175781 -1.628906 1.28125 -1.765625 C 1.394531 -1.898438 1.535156 -1.96875 1.703125 -1.96875 Z M 1.703125 -1.96875 "/></g></g></g><g fill="#201f1f" fill-opacity="1"><g transform="translate(10.989278, 20.129421)"><g><path d="M 5.671875 0.1875 C 4.648438 0.1875 3.796875 -0.113281 3.109375 -0.71875 C 2.421875 -1.332031 1.90625 -2.160156 1.5625 -3.203125 C 1.21875 -4.242188 1.046875 -5.40625 1.046875 -6.6875 C 1.046875 -7.988281 1.21875 -9.15625 1.5625 -10.1875 C 1.90625 -11.226562 2.421875 -12.050781 3.109375 -12.65625 C 3.796875 -13.257812 4.648438 -13.5625 5.671875 -13.5625 C 6.722656 -13.5625 7.585938 -13.257812 8.265625 -12.65625 C 8.941406 -12.050781 9.453125 -11.226562 9.796875 -10.1875 C 10.140625 -9.15625 10.3125 -7.988281 10.3125 -6.6875 C 10.3125 -5.40625 10.140625 -4.242188 9.796875 -3.203125 C 9.453125 -2.160156 8.941406 -1.332031 8.265625 -0.71875 C 7.585938 -0.113281 6.722656 0.1875 5.671875 0.1875 Z M 5.671875 -1 C 6.421875 -1 7.046875 -1.234375 7.546875 -1.703125 C 8.054688 -2.171875 8.441406 -2.832031 8.703125 -3.6875 C 8.960938 -4.550781 9.09375 -5.550781 9.09375 -6.6875 C 9.09375 -7.832031 8.960938 -8.832031 8.703125 -9.6875 C 8.441406 -10.550781 8.054688 -11.21875 7.546875 -11.6875 C 7.046875 -12.164062 6.421875 -12.40625 5.671875 -12.40625 C 4.929688 -12.40625 4.3125 -12.164062 3.8125 -11.6875 C 3.3125 -11.21875 2.929688 -10.550781 2.671875 -9.6875 C 2.410156 -8.832031 2.28125 -7.832031 2.28125 -6.6875 C 2.28125 -5.550781 2.410156 -4.550781 2.671875 -3.6875 C 2.929688 -2.832031 3.3125 -2.171875 3.8125 -1.703125 C 4.3125 -1.234375 4.929688 -1 5.671875 -1 Z M 5.671875 -1 "/></g></g></g></g></g></g><g clip-path="url(#8adafb8f30)"><g transform="matrix(1, 0, 0, 1, 631, 600)"><g clip-path="url(#674954ecc8)"><g fill="#201f1f" fill-opacity="1"><g transform="translate(0.800617, 20.129421)"><g><path d="M 1.703125 -1.96875 C 1.765625 -1.96875 1.828125 -1.953125 1.890625 -1.921875 C 1.960938 -1.898438 2.050781 -1.847656 2.15625 -1.765625 C 2.425781 -1.484375 2.742188 -1.265625 3.109375 -1.109375 C 3.484375 -0.960938 3.90625 -0.890625 4.375 -0.890625 C 5 -0.890625 5.566406 -1.03125 6.078125 -1.3125 C 6.597656 -1.59375 7.007812 -1.984375 7.3125 -2.484375 C 7.625 -2.992188 7.78125 -3.570312 7.78125 -4.21875 C 7.78125 -4.957031 7.613281 -5.550781 7.28125 -6 C 6.957031 -6.457031 6.546875 -6.796875 6.046875 -7.015625 C 5.546875 -7.242188 5.035156 -7.359375 4.515625 -7.359375 C 4.367188 -7.359375 4.226562 -7.347656 4.09375 -7.328125 C 3.957031 -7.304688 3.832031 -7.28125 3.71875 -7.25 C 3.601562 -7.226562 3.515625 -7.21875 3.453125 -7.21875 C 3.285156 -7.21875 3.15625 -7.269531 3.0625 -7.375 C 2.976562 -7.488281 2.9375 -7.628906 2.9375 -7.796875 C 2.9375 -7.890625 2.957031 -7.96875 3 -8.03125 C 3.039062 -8.101562 3.09375 -8.1875 3.15625 -8.28125 L 7.03125 -12.5 L 7.265625 -12.1875 L 1.46875 -12.1875 C 1.3125 -12.1875 1.179688 -12.238281 1.078125 -12.34375 C 0.972656 -12.457031 0.921875 -12.59375 0.921875 -12.75 C 0.921875 -12.894531 0.972656 -13.019531 1.078125 -13.125 C 1.179688 -13.226562 1.3125 -13.28125 1.46875 -13.28125 L 7.890625 -13.28125 C 8.109375 -13.28125 8.257812 -13.210938 8.34375 -13.078125 C 8.4375 -12.941406 8.484375 -12.8125 8.484375 -12.6875 C 8.484375 -12.613281 8.460938 -12.539062 8.421875 -12.46875 C 8.390625 -12.394531 8.34375 -12.320312 8.28125 -12.25 L 4.390625 -8.03125 L 3.96875 -8.28125 C 4.007812 -8.3125 4.140625 -8.347656 4.359375 -8.390625 C 4.585938 -8.441406 4.765625 -8.46875 4.890625 -8.46875 C 5.585938 -8.46875 6.242188 -8.300781 6.859375 -7.96875 C 7.484375 -7.632812 7.988281 -7.160156 8.375 -6.546875 C 8.769531 -5.929688 8.96875 -5.171875 8.96875 -4.265625 C 8.96875 -3.367188 8.753906 -2.585938 8.328125 -1.921875 C 7.910156 -1.253906 7.34375 -0.734375 6.625 -0.359375 C 5.914062 0.00390625 5.128906 0.1875 4.265625 0.1875 C 3.742188 0.1875 3.226562 0.0976562 2.71875 -0.078125 C 2.207031 -0.253906 1.757812 -0.519531 1.375 -0.875 C 1.28125 -0.957031 1.210938 -1.035156 1.171875 -1.109375 C 1.140625 -1.179688 1.125 -1.257812 1.125 -1.34375 C 1.125 -1.488281 1.175781 -1.628906 1.28125 -1.765625 C 1.394531 -1.898438 1.535156 -1.96875 1.703125 -1.96875 Z M 1.703125 -1.96875 "/></g></g></g><g fill="#201f1f" fill-opacity="1"><g transform="translate(10.80851, 20.129421)"><g><path d="M 4.3125 0 C 4.132812 0 3.988281 -0.0546875 3.875 -0.171875 C 3.757812 -0.285156 3.703125 -0.421875 3.703125 -0.578125 L 3.703125 -12.078125 L 3.921875 -11.890625 L 1.375 -10.1875 C 1.269531 -10.113281 1.160156 -10.078125 1.046875 -10.078125 C 0.898438 -10.078125 0.765625 -10.140625 0.640625 -10.265625 C 0.515625 -10.390625 0.453125 -10.53125 0.453125 -10.6875 C 0.453125 -10.882812 0.554688 -11.039062 0.765625 -11.15625 L 3.953125 -13.28125 C 4.035156 -13.332031 4.113281 -13.363281 4.1875 -13.375 C 4.269531 -13.382812 4.347656 -13.382812 4.421875 -13.375 C 4.578125 -13.363281 4.703125 -13.300781 4.796875 -13.1875 C 4.890625 -13.082031 4.9375 -12.953125 4.9375 -12.796875 L 4.9375 -0.578125 C 4.9375 -0.421875 4.878906 -0.285156 4.765625 -0.171875 C 4.648438 -0.0546875 4.5 0 4.3125 0 Z M 4.3125 0 "/></g></g></g></g></g></g><path stroke-linecap="butt" transform="matrix(0.75, 0, 0, 0.75, 0.0000031164, 0.00002)" fill-opacity="1" fill="#000000" fill-rule="nonzero" stroke-linejoin="miter" d="M 0.802079 1.60414 L 0.802079 998.395855 M 168.562504 1.60414 L 168.562504 998.395855 M 336.322929 1.60414 L 336.322929 998.395855 M 504.078145 1.60414 L 504.078145 998.395855 M 671.83857 1.60414 L 671.83857 998.395855 M 839.598995 1.60414 L 839.598995 998.395855 M 1007.35942 1.60414 L 1007.35942 998.395855 M 1175.114636 1.60414 L 1175.114636 998.395855 M -0.0000041552 0.802057 L 1175.91672 0.802057 M -0.0000041552 200.47915 L 1175.91672 200.47915 M -0.0000041552 400.161451 L 1175.91672 400.161451 M -0.0000041552 599.838544 L 1175.91672 599.838544 M -0.0000041552 799.520846 L 1175.91672 799.520846 M -0.0000041552 999.197939 L 1175.91672 999.197939 " stroke="#000000" stroke-width="1.605699" stroke-opacity="1" stroke-miterlimit="4"/></svg>