<svg xmlns="http://www.w3.org/2000/svg" xmlns:xlink="http://www.w3.org/1999/xlink" width="600" zoomAndPan="magnify" viewBox="0 0 450 112.499997" height="150" preserveAspectRatio="xMidYMid meet" version="1.0"><defs><g/></defs><g fill="#000000" fill-opacity="1"><g transform="translate(120.22098, 77.340987)"><g><path d="M 20.890625 0.796875 C 17.515625 0.796875 14.488281 -0.140625 11.8125 -2.015625 C 9.132812 -3.890625 7.097656 -6.351562 5.703125 -9.40625 C 5.429688 -9.882812 5.296875 -10.3125 5.296875 -10.6875 C 5.296875 -11.382812 5.5625 -11.929688 6.09375 -12.328125 C 6.632812 -12.734375 7.175781 -12.9375 7.71875 -12.9375 C 8.25 -12.9375 8.6875 -12.800781 9.03125 -12.53125 C 9.382812 -12.257812 9.695312 -11.9375 9.96875 -11.5625 C 10.976562 -9.3125 12.445312 -7.488281 14.375 -6.09375 C 16.3125 -4.707031 18.484375 -4.015625 20.890625 -4.015625 C 23.347656 -4.015625 25.515625 -4.535156 27.390625 -5.578125 C 29.265625 -6.628906 30.722656 -8.09375 31.765625 -9.96875 C 32.816406 -11.84375 33.34375 -13.984375 33.34375 -16.390625 L 33.34375 -53.828125 C 33.34375 -54.472656 33.597656 -55.035156 34.109375 -55.515625 C 34.617188 -55.992188 35.21875 -56.234375 35.90625 -56.234375 C 36.65625 -56.234375 37.257812 -55.992188 37.71875 -55.515625 C 38.175781 -55.035156 38.40625 -54.472656 38.40625 -53.828125 L 38.40625 -16.390625 C 38.40625 -13.066406 37.65625 -10.101562 36.15625 -7.5 C 34.65625 -4.90625 32.59375 -2.875 29.96875 -1.40625 C 27.34375 0.0625 24.316406 0.796875 20.890625 0.796875 Z M 20.890625 0.796875 "/></g></g></g><g fill="#000000" fill-opacity="1"><g transform="translate(166.174469, 77.340987)"><g><path d="M 47.328125 -56.234375 C 48.078125 -56.234375 48.664062 -56.003906 49.09375 -55.546875 C 49.519531 -55.097656 49.734375 -54.523438 49.734375 -53.828125 L 49.734375 -20.5625 C 49.734375 -16.601562 48.796875 -13.015625 46.921875 -9.796875 C 45.046875 -6.585938 42.523438 -4.03125 39.359375 -2.125 C 36.203125 -0.226562 32.644531 0.71875 28.6875 0.71875 C 24.71875 0.71875 21.140625 -0.226562 17.953125 -2.125 C 14.765625 -4.03125 12.234375 -6.585938 10.359375 -9.796875 C 8.484375 -13.015625 7.546875 -16.601562 7.546875 -20.5625 L 7.546875 -53.828125 C 7.546875 -54.523438 7.773438 -55.097656 8.234375 -55.546875 C 8.691406 -56.003906 9.320312 -56.234375 10.125 -56.234375 C 10.769531 -56.234375 11.332031 -56.003906 11.8125 -55.546875 C 12.289062 -55.097656 12.53125 -54.523438 12.53125 -53.828125 L 12.53125 -20.5625 C 12.53125 -17.457031 13.265625 -14.671875 14.734375 -12.203125 C 16.210938 -9.742188 18.179688 -7.773438 20.640625 -6.296875 C 23.109375 -4.828125 25.789062 -4.09375 28.6875 -4.09375 C 31.6875 -4.09375 34.414062 -4.828125 36.875 -6.296875 C 39.34375 -7.773438 41.3125 -9.742188 42.78125 -12.203125 C 44.257812 -14.671875 45 -17.457031 45 -20.5625 L 45 -53.828125 C 45 -54.523438 45.210938 -55.097656 45.640625 -55.546875 C 46.066406 -56.003906 46.628906 -56.234375 47.328125 -56.234375 Z M 47.328125 -56.234375 "/></g></g></g><g fill="#000000" fill-opacity="1"><g transform="translate(223.455649, 77.340987)"><g><path d="M 48.6875 -56.234375 C 49.382812 -56.234375 49.929688 -56.019531 50.328125 -55.59375 C 50.734375 -55.164062 50.9375 -54.628906 50.9375 -53.984375 L 50.9375 -2.578125 C 50.9375 -1.765625 50.679688 -1.128906 50.171875 -0.671875 C 49.660156 -0.222656 49.085938 0 48.453125 0 C 48.128906 0 47.78125 -0.0664062 47.40625 -0.203125 C 47.03125 -0.335938 46.734375 -0.535156 46.515625 -0.796875 L 10.6875 -49.09375 L 12.046875 -49.8125 L 12.046875 -2.171875 C 12.046875 -1.578125 11.832031 -1.066406 11.40625 -0.640625 C 10.976562 -0.210938 10.441406 0 9.796875 0 C 9.097656 0 8.546875 -0.210938 8.140625 -0.640625 C 7.742188 -1.066406 7.546875 -1.578125 7.546875 -2.171875 L 7.546875 -53.828125 C 7.546875 -54.628906 7.785156 -55.226562 8.265625 -55.625 C 8.753906 -56.03125 9.289062 -56.234375 9.875 -56.234375 C 10.195312 -56.234375 10.546875 -56.164062 10.921875 -56.03125 C 11.296875 -55.90625 11.59375 -55.679688 11.8125 -55.359375 L 47.234375 -7.625 L 46.4375 -6.1875 L 46.4375 -53.984375 C 46.4375 -54.628906 46.660156 -55.164062 47.109375 -55.59375 C 47.566406 -56.019531 48.09375 -56.234375 48.6875 -56.234375 Z M 48.6875 -56.234375 "/></g></g></g><g fill="#000000" fill-opacity="1"><g transform="translate(281.941902, 77.340987)"><g><path d="M 9.96875 -56.234375 L 39.453125 -56.234375 C 40.085938 -56.234375 40.644531 -56.003906 41.125 -55.546875 C 41.613281 -55.097656 41.859375 -54.523438 41.859375 -53.828125 C 41.859375 -53.128906 41.613281 -52.566406 41.125 -52.140625 C 40.644531 -51.710938 40.085938 -51.5 39.453125 -51.5 L 11.8125 -51.5 L 12.609375 -52.859375 L 12.609375 -30.296875 L 11.734375 -31.328125 L 35.828125 -31.328125 C 36.472656 -31.328125 37.035156 -31.085938 37.515625 -30.609375 C 38.003906 -30.128906 38.25 -29.566406 38.25 -28.921875 C 38.25 -28.222656 38.003906 -27.660156 37.515625 -27.234375 C 37.035156 -26.804688 36.472656 -26.59375 35.828125 -26.59375 L 11.890625 -26.59375 L 12.609375 -27.390625 L 12.609375 -4.265625 L 12.21875 -4.734375 L 39.453125 -4.734375 C 40.085938 -4.734375 40.644531 -4.492188 41.125 -4.015625 C 41.613281 -3.535156 41.859375 -2.972656 41.859375 -2.328125 C 41.859375 -1.628906 41.613281 -1.066406 41.125 -0.640625 C 40.644531 -0.210938 40.085938 0 39.453125 0 L 9.96875 0 C 9.320312 0 8.753906 -0.238281 8.265625 -0.71875 C 7.785156 -1.207031 7.546875 -1.769531 7.546875 -2.40625 L 7.546875 -53.828125 C 7.546875 -54.472656 7.785156 -55.035156 8.265625 -55.515625 C 8.753906 -55.992188 9.320312 -56.234375 9.96875 -56.234375 Z M 9.96875 -56.234375 "/></g></g></g></svg>