<svg xmlns="http://www.w3.org/2000/svg" xmlns:xlink="http://www.w3.org/1999/xlink" width="1176" zoomAndPan="magnify" viewBox="0 0 882 749.999995" height="1000" preserveAspectRatio="xMidYMid meet" version="1.0"><defs><g/><clipPath id="e122e9b664"><path d="M 128 1.210938 L 136 1.210938 L 136 27 L 128 27 Z M 128 1.210938 " clip-rule="nonzero"/></clipPath><clipPath id="e3e800f155"><path d="M 0.398438 6 L 6 6 L 6 21 L 0.398438 21 Z M 0.398438 6 " clip-rule="nonzero"/></clipPath><clipPath id="5a570285c4"><rect x="0" width="8" y="0" height="26"/></clipPath><clipPath id="231a21fd9f"><path d="M 254 1.210938 L 266 1.210938 L 266 27 L 254 27 Z M 254 1.210938 " clip-rule="nonzero"/></clipPath><clipPath id="1e76c43f37"><rect x="0" width="12" y="0" height="26"/></clipPath><clipPath id="a31fc9e3f7"><path d="M 380 1.210938 L 391 1.210938 L 391 27 L 380 27 Z M 380 1.210938 " clip-rule="nonzero"/></clipPath><clipPath id="05a6fc84a4"><rect x="0" width="11" y="0" height="26"/></clipPath><clipPath id="ca6f133c47"><path d="M 505 1.210938 L 517 1.210938 L 517 27 L 505 27 Z M 505 1.210938 " clip-rule="nonzero"/></clipPath><clipPath id="7a243d66d0"><rect x="0" width="12" y="0" height="26"/></clipPath><clipPath id="0edd3f4658"><path d="M 631 1.210938 L 643 1.210938 L 643 27 L 631 27 Z M 631 1.210938 " clip-rule="nonzero"/></clipPath><clipPath id="6cf5ec5808"><rect x="0" width="12" y="0" height="26"/></clipPath><clipPath id="848727a1a9"><path d="M 757 1.210938 L 769 1.210938 L 769 27 L 757 27 Z M 757 1.210938 " clip-rule="nonzero"/></clipPath><clipPath id="f780ad335f"><rect x="0" width="12" y="0" height="26"/></clipPath><clipPath id="adc5992e0e"><rect x="0" width="12" y="0" height="25"/></clipPath><clipPath id="60adfbb5ad"><rect x="0" width="12" y="0" height="25"/></clipPath><clipPath id="ee7314aecf"><rect x="0" width="12" y="0" height="25"/></clipPath><clipPath id="da5235dca0"><path d="M 0.160156 6 L 6 6 L 6 20 L 0.160156 20 Z M 0.160156 6 " clip-rule="nonzero"/></clipPath><clipPath id="ed13ace007"><rect x="0" width="20" y="0" height="25"/></clipPath><clipPath id="cea2fd084b"><rect x="0" width="16" y="0" height="25"/></clipPath><clipPath id="ea7f134781"><rect x="0" width="20" y="0" height="25"/></clipPath><clipPath id="ccb936259f"><rect x="0" width="19" y="0" height="25"/></clipPath><clipPath id="b837fa4237"><rect x="0" width="19" y="0" height="25"/></clipPath><clipPath id="85c31e6a2d"><path d="M 0.398438 6 L 6 6 L 6 20 L 0.398438 20 Z M 0.398438 6 " clip-rule="nonzero"/></clipPath><clipPath id="44212829db"><rect x="0" width="19" y="0" height="25"/></clipPath><clipPath id="49f418cd2f"><path d="M 0.160156 6 L 6 6 L 6 20 L 0.160156 20 Z M 0.160156 6 " clip-rule="nonzero"/></clipPath><clipPath id="b263ebcaf9"><path d="M 8 5 L 17.921875 5 L 17.921875 20 L 8 20 Z M 8 5 " clip-rule="nonzero"/></clipPath><clipPath id="518e3787fe"><rect x="0" width="18" y="0" height="25"/></clipPath><clipPath id="89ae19386c"><path d="M 0.160156 6 L 6 6 L 6 20 L 0.160156 20 Z M 0.160156 6 " clip-rule="nonzero"/></clipPath><clipPath id="ae9a784ce8"><rect x="0" width="18" y="0" height="25"/></clipPath><clipPath id="7133a9cd9d"><rect x="0" width="19" y="0" height="25"/></clipPath><clipPath id="fb51919644"><rect x="0" width="20" y="0" height="25"/></clipPath><clipPath id="d3f74e5971"><rect x="0" width="24" y="0" height="25"/></clipPath><clipPath id="a826b7d54d"><path d="M 2 450.484375 L 21 450.484375 L 21 476 L 2 476 Z M 2 450.484375 " clip-rule="nonzero"/></clipPath><clipPath id="da01bf98fb"><rect x="0" width="19" y="0" height="26"/></clipPath><clipPath id="466e05d1b5"><path d="M 128 450.484375 L 151 450.484375 L 151 476 L 128 476 Z M 128 450.484375 " clip-rule="nonzero"/></clipPath><clipPath id="9db0104554"><rect x="0" width="23" y="0" height="26"/></clipPath><clipPath id="8235bb015b"><path d="M 254 450.484375 L 276 450.484375 L 276 476 L 254 476 Z M 254 450.484375 " clip-rule="nonzero"/></clipPath><clipPath id="f007ff615e"><rect x="0" width="22" y="0" height="26"/></clipPath><clipPath id="e57ff71813"><path d="M 380 450.484375 L 402 450.484375 L 402 476 L 380 476 Z M 380 450.484375 " clip-rule="nonzero"/></clipPath><clipPath id="fc3ced1346"><rect x="0" width="22" y="0" height="26"/></clipPath><clipPath id="16494b6a64"><path d="M 505 450.484375 L 528 450.484375 L 528 476 L 505 476 Z M 505 450.484375 " clip-rule="nonzero"/></clipPath><clipPath id="6b539fb60e"><rect x="0" width="23" y="0" height="26"/></clipPath><clipPath id="09278dc28b"><path d="M 631 450.484375 L 654 450.484375 L 654 476 L 631 476 Z M 631 450.484375 " clip-rule="nonzero"/></clipPath><clipPath id="5be11becd2"><rect x="0" width="23" y="0" height="26"/></clipPath><clipPath id="c7cab220ce"><path d="M 757 450.484375 L 779 450.484375 L 779 476 L 757 476 Z M 757 450.484375 " clip-rule="nonzero"/></clipPath><clipPath id="38d5e27399"><rect x="0" width="22" y="0" height="26"/></clipPath><clipPath id="ddaee85a93"><path d="M 2 600.242188 L 24 600.242188 L 24 626 L 2 626 Z M 2 600.242188 " clip-rule="nonzero"/></clipPath><clipPath id="9c6fd7e088"><rect x="0" width="22" y="0" height="26"/></clipPath><clipPath id="b1b1423c77"><path d="M 128 600.242188 L 151 600.242188 L 151 626 L 128 626 Z M 128 600.242188 " clip-rule="nonzero"/></clipPath><clipPath id="98e2a20e5e"><rect x="0" width="23" y="0" height="26"/></clipPath><clipPath id="63a2d64bee"><path d="M 254 600.242188 L 277 600.242188 L 277 626 L 254 626 Z M 254 600.242188 " clip-rule="nonzero"/></clipPath><clipPath id="840b1b3a17"><rect x="0" width="23" y="0" height="26"/></clipPath></defs><g clip-path="url(#e122e9b664)"><g transform="matrix(1, 0, 0, 1, 128, 1)"><g clip-path="url(#5a570285c4)"><g clip-path="url(#e3e800f155)"><g fill="#201f1f" fill-opacity="1"><g transform="translate(0.528859, 20.193389)"><g><path d="M 4.34375 0 C 4.164062 0 4.015625 -0.0546875 3.890625 -0.171875 C 3.773438 -0.285156 3.71875 -0.421875 3.71875 -0.578125 L 3.71875 -12.140625 L 3.9375 -11.9375 L 1.375 -10.234375 C 1.28125 -10.160156 1.175781 -10.125 1.0625 -10.125 C 0.90625 -10.125 0.765625 -10.1875 0.640625 -10.3125 C 0.515625 -10.4375 0.453125 -10.578125 0.453125 -10.734375 C 0.453125 -10.941406 0.554688 -11.101562 0.765625 -11.21875 L 3.96875 -13.34375 C 4.050781 -13.394531 4.132812 -13.425781 4.21875 -13.4375 C 4.300781 -13.457031 4.375 -13.457031 4.4375 -13.4375 C 4.601562 -13.425781 4.726562 -13.363281 4.8125 -13.25 C 4.90625 -13.144531 4.953125 -13.015625 4.953125 -12.859375 L 4.953125 -0.578125 C 4.953125 -0.421875 4.894531 -0.285156 4.78125 -0.171875 C 4.664062 -0.0546875 4.519531 0 4.34375 0 Z M 4.34375 0 "/></g></g></g></g></g></g></g><g clip-path="url(#231a21fd9f)"><g transform="matrix(1, 0, 0, 1, 254, 1)"><g clip-path="url(#1e76c43f37)"><g fill="#201f1f" fill-opacity="1"><g transform="translate(0.347256, 20.193389)"><g><path d="M 9.109375 -1.109375 C 9.253906 -1.109375 9.378906 -1.050781 9.484375 -0.9375 C 9.597656 -0.832031 9.65625 -0.707031 9.65625 -0.5625 C 9.65625 -0.394531 9.597656 -0.257812 9.484375 -0.15625 C 9.378906 -0.0507812 9.253906 0 9.109375 0 L 1.90625 0 C 1.738281 0 1.59375 -0.046875 1.46875 -0.140625 C 1.34375 -0.234375 1.28125 -0.378906 1.28125 -0.578125 C 1.28125 -0.710938 1.332031 -0.847656 1.4375 -0.984375 L 5.875 -5.875 C 6.582031 -6.644531 7.109375 -7.351562 7.453125 -8 C 7.804688 -8.644531 7.984375 -9.222656 7.984375 -9.734375 C 7.984375 -10.578125 7.726562 -11.253906 7.21875 -11.765625 C 6.707031 -12.285156 6.015625 -12.546875 5.140625 -12.546875 C 4.742188 -12.546875 4.347656 -12.460938 3.953125 -12.296875 C 3.566406 -12.128906 3.222656 -11.910156 2.921875 -11.640625 C 2.628906 -11.367188 2.398438 -11.0625 2.234375 -10.71875 C 2.148438 -10.582031 2.066406 -10.488281 1.984375 -10.4375 C 1.898438 -10.394531 1.804688 -10.375 1.703125 -10.375 C 1.554688 -10.375 1.425781 -10.421875 1.3125 -10.515625 C 1.195312 -10.609375 1.140625 -10.726562 1.140625 -10.875 C 1.140625 -10.957031 1.160156 -11.039062 1.203125 -11.125 C 1.242188 -11.21875 1.3125 -11.320312 1.40625 -11.4375 C 1.632812 -11.84375 1.953125 -12.207031 2.359375 -12.53125 C 2.765625 -12.863281 3.222656 -13.128906 3.734375 -13.328125 C 4.242188 -13.535156 4.738281 -13.640625 5.21875 -13.640625 C 6.039062 -13.640625 6.75 -13.476562 7.34375 -13.15625 C 7.9375 -12.84375 8.394531 -12.398438 8.71875 -11.828125 C 9.050781 -11.265625 9.21875 -10.59375 9.21875 -9.8125 C 9.21875 -9.144531 9.007812 -8.414062 8.59375 -7.625 C 8.175781 -6.84375 7.554688 -6 6.734375 -5.09375 L 3 -0.890625 L 2.796875 -1.109375 Z M 9.109375 -1.109375 "/></g></g></g></g></g></g><g clip-path="url(#a31fc9e3f7)"><g transform="matrix(1, 0, 0, 1, 380, 1)"><g clip-path="url(#05a6fc84a4)"><g fill="#201f1f" fill-opacity="1"><g transform="translate(0.165639, 20.193389)"><g><path d="M 1.703125 -1.984375 C 1.773438 -1.984375 1.84375 -1.96875 1.90625 -1.9375 C 1.976562 -1.914062 2.066406 -1.859375 2.171875 -1.765625 C 2.441406 -1.484375 2.757812 -1.269531 3.125 -1.125 C 3.5 -0.976562 3.921875 -0.90625 4.390625 -0.90625 C 5.023438 -0.90625 5.597656 -1.046875 6.109375 -1.328125 C 6.628906 -1.609375 7.039062 -2 7.34375 -2.5 C 7.65625 -3.007812 7.8125 -3.59375 7.8125 -4.25 C 7.8125 -4.988281 7.648438 -5.582031 7.328125 -6.03125 C 7.003906 -6.488281 6.585938 -6.828125 6.078125 -7.046875 C 5.566406 -7.273438 5.050781 -7.390625 4.53125 -7.390625 C 4.394531 -7.390625 4.257812 -7.378906 4.125 -7.359375 C 3.988281 -7.335938 3.863281 -7.316406 3.75 -7.296875 C 3.632812 -7.273438 3.539062 -7.265625 3.46875 -7.265625 C 3.300781 -7.265625 3.171875 -7.316406 3.078125 -7.421875 C 2.992188 -7.523438 2.953125 -7.660156 2.953125 -7.828125 C 2.953125 -7.921875 2.972656 -8.003906 3.015625 -8.078125 C 3.054688 -8.148438 3.109375 -8.226562 3.171875 -8.3125 L 7.0625 -12.5625 L 7.296875 -12.25 L 1.484375 -12.25 C 1.328125 -12.25 1.191406 -12.300781 1.078125 -12.40625 C 0.972656 -12.519531 0.921875 -12.65625 0.921875 -12.8125 C 0.921875 -12.957031 0.972656 -13.082031 1.078125 -13.1875 C 1.191406 -13.289062 1.328125 -13.34375 1.484375 -13.34375 L 7.9375 -13.34375 C 8.144531 -13.34375 8.296875 -13.273438 8.390625 -13.140625 C 8.484375 -13.003906 8.53125 -12.875 8.53125 -12.75 C 8.53125 -12.675781 8.507812 -12.601562 8.46875 -12.53125 C 8.425781 -12.457031 8.375 -12.382812 8.3125 -12.3125 L 4.421875 -8.0625 L 4 -8.3125 C 4.03125 -8.351562 4.15625 -8.394531 4.375 -8.4375 C 4.601562 -8.476562 4.785156 -8.5 4.921875 -8.5 C 5.617188 -8.5 6.273438 -8.332031 6.890625 -8 C 7.515625 -7.675781 8.019531 -7.203125 8.40625 -6.578125 C 8.800781 -5.953125 9 -5.1875 9 -4.28125 C 9 -3.382812 8.785156 -2.597656 8.359375 -1.921875 C 7.941406 -1.253906 7.375 -0.734375 6.65625 -0.359375 C 5.945312 0.00390625 5.15625 0.1875 4.28125 0.1875 C 3.757812 0.1875 3.238281 0.0976562 2.71875 -0.078125 C 2.207031 -0.253906 1.757812 -0.523438 1.375 -0.890625 C 1.289062 -0.960938 1.226562 -1.035156 1.1875 -1.109375 C 1.15625 -1.191406 1.140625 -1.269531 1.140625 -1.34375 C 1.140625 -1.5 1.191406 -1.644531 1.296875 -1.78125 C 1.398438 -1.914062 1.535156 -1.984375 1.703125 -1.984375 Z M 1.703125 -1.984375 "/></g></g></g></g></g></g><g clip-path="url(#ca6f133c47)"><g transform="matrix(1, 0, 0, 1, 505, 1)"><g clip-path="url(#7a243d66d0)"><g fill="#201f1f" fill-opacity="1"><g transform="translate(0.984021, 20.193389)"><g><path d="M 7.046875 0 C 6.878906 0 6.742188 -0.0546875 6.640625 -0.171875 C 6.535156 -0.285156 6.484375 -0.421875 6.484375 -0.578125 L 6.484375 -11.84375 L 6.734375 -11.6875 L 1.6875 -5.015625 L 1.625 -5.21875 L 9 -5.21875 C 9.15625 -5.21875 9.285156 -5.164062 9.390625 -5.0625 C 9.503906 -4.96875 9.5625 -4.84375 9.5625 -4.6875 C 9.5625 -4.53125 9.503906 -4.398438 9.390625 -4.296875 C 9.285156 -4.191406 9.15625 -4.140625 9 -4.140625 L 0.84375 -4.140625 C 0.6875 -4.140625 0.550781 -4.203125 0.4375 -4.328125 C 0.320312 -4.453125 0.265625 -4.59375 0.265625 -4.75 C 0.265625 -4.882812 0.3125 -5.007812 0.40625 -5.125 L 6.59375 -13.21875 C 6.65625 -13.300781 6.734375 -13.359375 6.828125 -13.390625 C 6.921875 -13.421875 7 -13.4375 7.0625 -13.4375 C 7.226562 -13.4375 7.363281 -13.378906 7.46875 -13.265625 C 7.582031 -13.148438 7.640625 -13.015625 7.640625 -12.859375 L 7.640625 -0.578125 C 7.640625 -0.421875 7.582031 -0.285156 7.46875 -0.171875 C 7.351562 -0.0546875 7.210938 0 7.046875 0 Z M 7.046875 0 "/></g></g></g></g></g></g><g clip-path="url(#0edd3f4658)"><g transform="matrix(1, 0, 0, 1, 631, 1)"><g clip-path="url(#6cf5ec5808)"><g fill="#201f1f" fill-opacity="1"><g transform="translate(0.802433, 20.193389)"><g><path d="M 4.5 0.03125 C 3.96875 0.03125 3.4375 -0.0507812 2.90625 -0.21875 C 2.375 -0.394531 1.90625 -0.65625 1.5 -1 C 1.414062 -1.0625 1.351562 -1.132812 1.3125 -1.21875 C 1.269531 -1.3125 1.25 -1.40625 1.25 -1.5 C 1.25 -1.625 1.300781 -1.75 1.40625 -1.875 C 1.507812 -2 1.644531 -2.0625 1.8125 -2.0625 C 1.945312 -2.0625 2.085938 -2 2.234375 -1.875 C 2.566406 -1.625 2.925781 -1.425781 3.3125 -1.28125 C 3.695312 -1.144531 4.09375 -1.078125 4.5 -1.078125 C 5.25 -1.078125 5.90625 -1.21875 6.46875 -1.5 C 7.03125 -1.789062 7.460938 -2.203125 7.765625 -2.734375 C 8.078125 -3.265625 8.234375 -3.882812 8.234375 -4.59375 C 8.234375 -5.238281 8.09375 -5.800781 7.8125 -6.28125 C 7.53125 -6.769531 7.128906 -7.148438 6.609375 -7.421875 C 6.097656 -7.691406 5.488281 -7.828125 4.78125 -7.828125 C 4.320312 -7.828125 3.898438 -7.753906 3.515625 -7.609375 C 3.140625 -7.472656 2.8125 -7.332031 2.53125 -7.1875 C 2.257812 -7.039062 2.039062 -6.96875 1.875 -6.96875 C 1.726562 -6.96875 1.601562 -7.003906 1.5 -7.078125 C 1.40625 -7.160156 1.34375 -7.257812 1.3125 -7.375 C 1.28125 -7.488281 1.28125 -7.609375 1.3125 -7.734375 L 2.125 -12.859375 C 2.144531 -12.972656 2.207031 -13.078125 2.3125 -13.171875 C 2.425781 -13.273438 2.566406 -13.328125 2.734375 -13.328125 L 8.5 -13.328125 C 8.65625 -13.328125 8.785156 -13.269531 8.890625 -13.15625 C 9.003906 -13.050781 9.0625 -12.921875 9.0625 -12.765625 C 9.0625 -12.597656 9.003906 -12.457031 8.890625 -12.34375 C 8.785156 -12.238281 8.65625 -12.1875 8.5 -12.1875 L 3 -12.1875 L 3.171875 -12.359375 L 2.375 -7.8125 L 2.03125 -8.0625 C 2.195312 -8.1875 2.4375 -8.3125 2.75 -8.4375 C 3.0625 -8.570312 3.410156 -8.6875 3.796875 -8.78125 C 4.191406 -8.875 4.609375 -8.921875 5.046875 -8.921875 C 5.878906 -8.921875 6.617188 -8.738281 7.265625 -8.375 C 7.921875 -8.007812 8.4375 -7.503906 8.8125 -6.859375 C 9.195312 -6.210938 9.390625 -5.46875 9.390625 -4.625 C 9.390625 -3.6875 9.1875 -2.867188 8.78125 -2.171875 C 8.382812 -1.484375 7.816406 -0.941406 7.078125 -0.546875 C 6.347656 -0.160156 5.488281 0.03125 4.5 0.03125 Z M 4.5 0.03125 "/></g></g></g></g></g></g><g clip-path="url(#848727a1a9)"><g transform="matrix(1, 0, 0, 1, 757, 1)"><g clip-path="url(#f780ad335f)"><g fill="#201f1f" fill-opacity="1"><g transform="translate(0.620787, 20.193389)"><g><path d="M 5.515625 0.1875 C 4.765625 0.1875 4.113281 0.0546875 3.5625 -0.203125 C 3.007812 -0.472656 2.546875 -0.835938 2.171875 -1.296875 C 1.804688 -1.753906 1.535156 -2.269531 1.359375 -2.84375 C 1.191406 -3.414062 1.109375 -4.003906 1.109375 -4.609375 C 1.109375 -5.222656 1.1875 -5.882812 1.34375 -6.59375 C 1.5 -7.300781 1.734375 -8.019531 2.046875 -8.75 C 2.367188 -9.476562 2.765625 -10.171875 3.234375 -10.828125 C 3.703125 -11.484375 4.242188 -12.066406 4.859375 -12.578125 C 5.484375 -13.097656 6.1875 -13.507812 6.96875 -13.8125 C 7.0625 -13.832031 7.140625 -13.84375 7.203125 -13.84375 C 7.367188 -13.84375 7.507812 -13.796875 7.625 -13.703125 C 7.75 -13.617188 7.8125 -13.46875 7.8125 -13.25 C 7.8125 -13.125 7.769531 -13.007812 7.6875 -12.90625 C 7.601562 -12.8125 7.492188 -12.738281 7.359375 -12.6875 C 6.816406 -12.457031 6.28125 -12.128906 5.75 -11.703125 C 5.226562 -11.285156 4.742188 -10.800781 4.296875 -10.25 C 3.847656 -9.695312 3.46875 -9.101562 3.15625 -8.46875 C 2.84375 -7.84375 2.625 -7.203125 2.5 -6.546875 L 2.078125 -6.296875 C 2.304688 -6.722656 2.601562 -7.097656 2.96875 -7.421875 C 3.332031 -7.742188 3.75 -8.003906 4.21875 -8.203125 C 4.695312 -8.398438 5.210938 -8.5 5.765625 -8.5 C 6.335938 -8.5 6.863281 -8.378906 7.34375 -8.140625 C 7.832031 -7.898438 8.253906 -7.570312 8.609375 -7.15625 C 8.960938 -6.738281 9.238281 -6.265625 9.4375 -5.734375 C 9.632812 -5.210938 9.734375 -4.671875 9.734375 -4.109375 C 9.734375 -3.347656 9.550781 -2.640625 9.1875 -1.984375 C 8.820312 -1.335938 8.320312 -0.8125 7.6875 -0.40625 C 7.050781 -0.0078125 6.328125 0.1875 5.515625 0.1875 Z M 5.484375 -0.921875 C 6.078125 -0.921875 6.601562 -1.054688 7.0625 -1.328125 C 7.53125 -1.597656 7.894531 -1.972656 8.15625 -2.453125 C 8.414062 -2.929688 8.546875 -3.484375 8.546875 -4.109375 C 8.546875 -4.679688 8.429688 -5.210938 8.203125 -5.703125 C 7.984375 -6.203125 7.648438 -6.609375 7.203125 -6.921875 C 6.765625 -7.234375 6.21875 -7.390625 5.5625 -7.390625 C 4.882812 -7.390625 4.300781 -7.234375 3.8125 -6.921875 C 3.320312 -6.617188 2.941406 -6.210938 2.671875 -5.703125 C 2.410156 -5.203125 2.28125 -4.648438 2.28125 -4.046875 C 2.28125 -3.515625 2.40625 -3.007812 2.65625 -2.53125 C 2.914062 -2.050781 3.285156 -1.660156 3.765625 -1.359375 C 4.253906 -1.066406 4.828125 -0.921875 5.484375 -0.921875 Z M 5.484375 -0.921875 "/></g></g></g></g></g></g><g transform="matrix(1, 0, 0, 1, 2, 151)"><g clip-path="url(#adc5992e0e)"><g fill="#201f1f" fill-opacity="1"><g transform="translate(0.710462, 19.951286)"><g><path d="M 3.421875 0.0625 C 3.265625 0.0625 3.117188 0.0078125 2.984375 -0.09375 C 2.859375 -0.195312 2.796875 -0.328125 2.796875 -0.484375 C 2.796875 -0.566406 2.816406 -0.660156 2.859375 -0.765625 L 7.96875 -12.5 L 8.1875 -12.234375 L 1.6875 -12.234375 C 1.53125 -12.234375 1.398438 -12.285156 1.296875 -12.390625 C 1.191406 -12.503906 1.140625 -12.640625 1.140625 -12.796875 C 1.140625 -12.953125 1.191406 -13.082031 1.296875 -13.1875 C 1.398438 -13.289062 1.53125 -13.34375 1.6875 -13.34375 L 8.734375 -13.34375 C 8.929688 -13.34375 9.070312 -13.289062 9.15625 -13.1875 C 9.25 -13.082031 9.296875 -12.957031 9.296875 -12.8125 C 9.296875 -12.707031 9.273438 -12.609375 9.234375 -12.515625 L 3.953125 -0.328125 C 3.910156 -0.210938 3.835938 -0.117188 3.734375 -0.046875 C 3.640625 0.0234375 3.535156 0.0625 3.421875 0.0625 Z M 3.421875 0.0625 "/></g></g></g></g></g><g transform="matrix(1, 0, 0, 1, 128, 151)"><g clip-path="url(#60adfbb5ad)"><g fill="#201f1f" fill-opacity="1"><g transform="translate(0.528859, 19.951286)"><g><path d="M 6.984375 -6.765625 L 6.9375 -6.9375 C 7.363281 -6.769531 7.753906 -6.519531 8.109375 -6.1875 C 8.472656 -5.863281 8.765625 -5.476562 8.984375 -5.03125 C 9.203125 -4.59375 9.3125 -4.113281 9.3125 -3.59375 C 9.3125 -2.894531 9.128906 -2.265625 8.765625 -1.703125 C 8.398438 -1.140625 7.90625 -0.691406 7.28125 -0.359375 C 6.65625 -0.0234375 5.957031 0.140625 5.1875 0.140625 C 4.40625 0.140625 3.703125 -0.0234375 3.078125 -0.359375 C 2.460938 -0.691406 1.972656 -1.140625 1.609375 -1.703125 C 1.242188 -2.265625 1.0625 -2.894531 1.0625 -3.59375 C 1.0625 -4.15625 1.171875 -4.65625 1.390625 -5.09375 C 1.617188 -5.539062 1.914062 -5.914062 2.28125 -6.21875 C 2.644531 -6.53125 3.023438 -6.769531 3.421875 -6.9375 L 3.359375 -6.734375 C 3.015625 -6.898438 2.691406 -7.128906 2.390625 -7.421875 C 2.085938 -7.710938 1.835938 -8.054688 1.640625 -8.453125 C 1.453125 -8.859375 1.359375 -9.304688 1.359375 -9.796875 C 1.359375 -10.484375 1.523438 -11.101562 1.859375 -11.65625 C 2.203125 -12.207031 2.664062 -12.640625 3.25 -12.953125 C 3.832031 -13.273438 4.476562 -13.4375 5.1875 -13.4375 C 5.882812 -13.4375 6.519531 -13.273438 7.09375 -12.953125 C 7.664062 -12.640625 8.117188 -12.207031 8.453125 -11.65625 C 8.796875 -11.101562 8.96875 -10.484375 8.96875 -9.796875 C 8.96875 -9.296875 8.867188 -8.847656 8.671875 -8.453125 C 8.484375 -8.054688 8.234375 -7.710938 7.921875 -7.421875 C 7.617188 -7.128906 7.304688 -6.910156 6.984375 -6.765625 Z M 2.546875 -9.796875 C 2.546875 -9.285156 2.664062 -8.835938 2.90625 -8.453125 C 3.15625 -8.066406 3.476562 -7.765625 3.875 -7.546875 C 4.269531 -7.328125 4.707031 -7.21875 5.1875 -7.21875 C 5.644531 -7.21875 6.070312 -7.328125 6.46875 -7.546875 C 6.863281 -7.765625 7.179688 -8.066406 7.421875 -8.453125 C 7.660156 -8.835938 7.78125 -9.285156 7.78125 -9.796875 C 7.78125 -10.546875 7.535156 -11.15625 7.046875 -11.625 C 6.554688 -12.101562 5.9375 -12.34375 5.1875 -12.34375 C 4.40625 -12.34375 3.769531 -12.101562 3.28125 -11.625 C 2.789062 -11.15625 2.546875 -10.546875 2.546875 -9.796875 Z M 5.1875 -0.953125 C 6.050781 -0.953125 6.753906 -1.203125 7.296875 -1.703125 C 7.847656 -2.203125 8.125 -2.832031 8.125 -3.59375 C 8.125 -4.101562 7.988281 -4.5625 7.71875 -4.96875 C 7.445312 -5.382812 7.085938 -5.707031 6.640625 -5.9375 C 6.191406 -6.164062 5.707031 -6.28125 5.1875 -6.28125 C 4.65625 -6.28125 4.164062 -6.164062 3.71875 -5.9375 C 3.269531 -5.707031 2.910156 -5.382812 2.640625 -4.96875 C 2.378906 -4.5625 2.25 -4.101562 2.25 -3.59375 C 2.25 -2.832031 2.515625 -2.203125 3.046875 -1.703125 C 3.585938 -1.203125 4.300781 -0.953125 5.1875 -0.953125 Z M 5.1875 -0.953125 "/></g></g></g></g></g><g transform="matrix(1, 0, 0, 1, 254, 151)"><g clip-path="url(#ee7314aecf)"><g fill="#201f1f" fill-opacity="1"><g transform="translate(0.347256, 19.951286)"><g><path d="M 5.3125 -13.65625 C 6.070312 -13.65625 6.726562 -13.519531 7.28125 -13.25 C 7.84375 -12.976562 8.300781 -12.613281 8.65625 -12.15625 C 9.019531 -11.707031 9.289062 -11.191406 9.46875 -10.609375 C 9.644531 -10.035156 9.734375 -9.453125 9.734375 -8.859375 C 9.734375 -8.242188 9.648438 -7.585938 9.484375 -6.890625 C 9.328125 -6.191406 9.09375 -5.484375 8.78125 -4.765625 C 8.46875 -4.054688 8.078125 -3.378906 7.609375 -2.734375 C 7.140625 -2.097656 6.59375 -1.523438 5.96875 -1.015625 C 5.34375 -0.503906 4.644531 -0.109375 3.875 0.171875 C 3.769531 0.203125 3.6875 0.21875 3.625 0.21875 C 3.476562 0.21875 3.34375 0.160156 3.21875 0.046875 C 3.09375 -0.0546875 3.03125 -0.203125 3.03125 -0.390625 C 3.03125 -0.515625 3.066406 -0.625 3.140625 -0.71875 C 3.222656 -0.8125 3.34375 -0.882812 3.5 -0.9375 C 4.226562 -1.25 4.929688 -1.707031 5.609375 -2.3125 C 6.285156 -2.914062 6.867188 -3.617188 7.359375 -4.421875 C 7.859375 -5.222656 8.191406 -6.050781 8.359375 -6.90625 L 8.75 -7.15625 C 8.539062 -6.75 8.25 -6.378906 7.875 -6.046875 C 7.5 -5.710938 7.078125 -5.453125 6.609375 -5.265625 C 6.148438 -5.085938 5.644531 -5 5.09375 -5 C 4.269531 -5 3.5625 -5.195312 2.96875 -5.59375 C 2.375 -6 1.914062 -6.535156 1.59375 -7.203125 C 1.269531 -7.867188 1.109375 -8.585938 1.109375 -9.359375 C 1.109375 -10.109375 1.289062 -10.804688 1.65625 -11.453125 C 2.019531 -12.109375 2.519531 -12.640625 3.15625 -13.046875 C 3.789062 -13.453125 4.507812 -13.65625 5.3125 -13.65625 Z M 5.359375 -12.546875 C 4.753906 -12.546875 4.222656 -12.410156 3.765625 -12.140625 C 3.304688 -11.867188 2.941406 -11.492188 2.671875 -11.015625 C 2.410156 -10.535156 2.28125 -9.984375 2.28125 -9.359375 C 2.28125 -8.785156 2.390625 -8.25 2.609375 -7.75 C 2.835938 -7.257812 3.175781 -6.863281 3.625 -6.5625 C 4.070312 -6.257812 4.617188 -6.109375 5.265625 -6.109375 C 5.953125 -6.109375 6.539062 -6.257812 7.03125 -6.5625 C 7.519531 -6.863281 7.894531 -7.257812 8.15625 -7.75 C 8.425781 -8.25 8.5625 -8.800781 8.5625 -9.40625 C 8.5625 -9.957031 8.429688 -10.46875 8.171875 -10.9375 C 7.921875 -11.414062 7.554688 -11.800781 7.078125 -12.09375 C 6.609375 -12.394531 6.035156 -12.546875 5.359375 -12.546875 Z M 5.359375 -12.546875 "/></g></g></g></g></g><g transform="matrix(1, 0, 0, 1, 380, 151)"><g clip-path="url(#ed13ace007)"><g clip-path="url(#da5235dca0)"><g fill="#201f1f" fill-opacity="1"><g transform="translate(0.165639, 19.951286)"><g><path d="M 4.34375 0 C 4.164062 0 4.015625 -0.0546875 3.890625 -0.171875 C 3.773438 -0.285156 3.71875 -0.421875 3.71875 -0.578125 L 3.71875 -12.140625 L 3.9375 -11.9375 L 1.375 -10.234375 C 1.28125 -10.160156 1.175781 -10.125 1.0625 -10.125 C 0.90625 -10.125 0.765625 -10.1875 0.640625 -10.3125 C 0.515625 -10.4375 0.453125 -10.578125 0.453125 -10.734375 C 0.453125 -10.941406 0.554688 -11.101562 0.765625 -11.21875 L 3.96875 -13.34375 C 4.050781 -13.394531 4.132812 -13.425781 4.21875 -13.4375 C 4.300781 -13.457031 4.375 -13.457031 4.4375 -13.4375 C 4.601562 -13.425781 4.726562 -13.363281 4.8125 -13.25 C 4.90625 -13.144531 4.953125 -13.015625 4.953125 -12.859375 L 4.953125 -0.578125 C 4.953125 -0.421875 4.894531 -0.285156 4.78125 -0.171875 C 4.664062 -0.0546875 4.519531 0 4.34375 0 Z M 4.34375 0 "/></g></g></g></g><g fill="#201f1f" fill-opacity="1"><g transform="translate(7.268574, 19.951286)"><g><path d="M 5.703125 0.1875 C 4.679688 0.1875 3.820312 -0.117188 3.125 -0.734375 C 2.4375 -1.347656 1.921875 -2.175781 1.578125 -3.21875 C 1.234375 -4.257812 1.0625 -5.425781 1.0625 -6.71875 C 1.0625 -8.03125 1.234375 -9.207031 1.578125 -10.25 C 1.921875 -11.289062 2.4375 -12.113281 3.125 -12.71875 C 3.820312 -13.332031 4.679688 -13.640625 5.703125 -13.640625 C 6.753906 -13.640625 7.617188 -13.332031 8.296875 -12.71875 C 8.984375 -12.113281 9.5 -11.289062 9.84375 -10.25 C 10.195312 -9.207031 10.375 -8.03125 10.375 -6.71875 C 10.375 -5.425781 10.195312 -4.257812 9.84375 -3.21875 C 9.5 -2.175781 8.984375 -1.347656 8.296875 -0.734375 C 7.617188 -0.117188 6.753906 0.1875 5.703125 0.1875 Z M 5.703125 -1 C 6.460938 -1 7.09375 -1.234375 7.59375 -1.703125 C 8.101562 -2.179688 8.488281 -2.851562 8.75 -3.71875 C 9.007812 -4.582031 9.140625 -5.582031 9.140625 -6.71875 C 9.140625 -7.875 9.007812 -8.882812 8.75 -9.75 C 8.488281 -10.613281 8.101562 -11.28125 7.59375 -11.75 C 7.09375 -12.226562 6.460938 -12.46875 5.703125 -12.46875 C 4.960938 -12.46875 4.335938 -12.226562 3.828125 -11.75 C 3.328125 -11.28125 2.941406 -10.613281 2.671875 -9.75 C 2.410156 -8.882812 2.28125 -7.875 2.28125 -6.71875 C 2.28125 -5.582031 2.410156 -4.582031 2.671875 -3.71875 C 2.941406 -2.851562 3.328125 -2.179688 3.828125 -1.703125 C 4.335938 -1.234375 4.960938 -1 5.703125 -1 Z M 5.703125 -1 "/></g></g></g></g></g><g transform="matrix(1, 0, 0, 1, 505, 151)"><g clip-path="url(#cea2fd084b)"><g fill="#201f1f" fill-opacity="1"><g transform="translate(0.984021, 19.951286)"><g><path d="M 4.34375 0 C 4.164062 0 4.015625 -0.0546875 3.890625 -0.171875 C 3.773438 -0.285156 3.71875 -0.421875 3.71875 -0.578125 L 3.71875 -12.140625 L 3.9375 -11.9375 L 1.375 -10.234375 C 1.28125 -10.160156 1.175781 -10.125 1.0625 -10.125 C 0.90625 -10.125 0.765625 -10.1875 0.640625 -10.3125 C 0.515625 -10.4375 0.453125 -10.578125 0.453125 -10.734375 C 0.453125 -10.941406 0.554688 -11.101562 0.765625 -11.21875 L 3.96875 -13.34375 C 4.050781 -13.394531 4.132812 -13.425781 4.21875 -13.4375 C 4.300781 -13.457031 4.375 -13.457031 4.4375 -13.4375 C 4.601562 -13.425781 4.726562 -13.363281 4.8125 -13.25 C 4.90625 -13.144531 4.953125 -13.015625 4.953125 -12.859375 L 4.953125 -0.578125 C 4.953125 -0.421875 4.894531 -0.285156 4.78125 -0.171875 C 4.664062 -0.0546875 4.519531 0 4.34375 0 Z M 4.34375 0 "/></g></g></g><g fill="#201f1f" fill-opacity="1"><g transform="translate(8.086957, 19.951286)"><g><path d="M 4.34375 0 C 4.164062 0 4.015625 -0.0546875 3.890625 -0.171875 C 3.773438 -0.285156 3.71875 -0.421875 3.71875 -0.578125 L 3.71875 -12.140625 L 3.9375 -11.9375 L 1.375 -10.234375 C 1.28125 -10.160156 1.175781 -10.125 1.0625 -10.125 C 0.90625 -10.125 0.765625 -10.1875 0.640625 -10.3125 C 0.515625 -10.4375 0.453125 -10.578125 0.453125 -10.734375 C 0.453125 -10.941406 0.554688 -11.101562 0.765625 -11.21875 L 3.96875 -13.34375 C 4.050781 -13.394531 4.132812 -13.425781 4.21875 -13.4375 C 4.300781 -13.457031 4.375 -13.457031 4.4375 -13.4375 C 4.601562 -13.425781 4.726562 -13.363281 4.8125 -13.25 C 4.90625 -13.144531 4.953125 -13.015625 4.953125 -12.859375 L 4.953125 -0.578125 C 4.953125 -0.421875 4.894531 -0.285156 4.78125 -0.171875 C 4.664062 -0.0546875 4.519531 0 4.34375 0 Z M 4.34375 0 "/></g></g></g></g></g><g transform="matrix(1, 0, 0, 1, 631, 151)"><g clip-path="url(#ea7f134781)"><g fill="#201f1f" fill-opacity="1"><g transform="translate(0.802433, 19.951286)"><g><path d="M 4.34375 0 C 4.164062 0 4.015625 -0.0546875 3.890625 -0.171875 C 3.773438 -0.285156 3.71875 -0.421875 3.71875 -0.578125 L 3.71875 -12.140625 L 3.9375 -11.9375 L 1.375 -10.234375 C 1.28125 -10.160156 1.175781 -10.125 1.0625 -10.125 C 0.90625 -10.125 0.765625 -10.1875 0.640625 -10.3125 C 0.515625 -10.4375 0.453125 -10.578125 0.453125 -10.734375 C 0.453125 -10.941406 0.554688 -11.101562 0.765625 -11.21875 L 3.96875 -13.34375 C 4.050781 -13.394531 4.132812 -13.425781 4.21875 -13.4375 C 4.300781 -13.457031 4.375 -13.457031 4.4375 -13.4375 C 4.601562 -13.425781 4.726562 -13.363281 4.8125 -13.25 C 4.90625 -13.144531 4.953125 -13.015625 4.953125 -12.859375 L 4.953125 -0.578125 C 4.953125 -0.421875 4.894531 -0.285156 4.78125 -0.171875 C 4.664062 -0.0546875 4.519531 0 4.34375 0 Z M 4.34375 0 "/></g></g></g><g fill="#201f1f" fill-opacity="1"><g transform="translate(7.905369, 19.951286)"><g><path d="M 9.109375 -1.109375 C 9.253906 -1.109375 9.378906 -1.050781 9.484375 -0.9375 C 9.597656 -0.832031 9.65625 -0.707031 9.65625 -0.5625 C 9.65625 -0.394531 9.597656 -0.257812 9.484375 -0.15625 C 9.378906 -0.0507812 9.253906 0 9.109375 0 L 1.90625 0 C 1.738281 0 1.59375 -0.046875 1.46875 -0.140625 C 1.34375 -0.234375 1.28125 -0.378906 1.28125 -0.578125 C 1.28125 -0.710938 1.332031 -0.847656 1.4375 -0.984375 L 5.875 -5.875 C 6.582031 -6.644531 7.109375 -7.351562 7.453125 -8 C 7.804688 -8.644531 7.984375 -9.222656 7.984375 -9.734375 C 7.984375 -10.578125 7.726562 -11.253906 7.21875 -11.765625 C 6.707031 -12.285156 6.015625 -12.546875 5.140625 -12.546875 C 4.742188 -12.546875 4.347656 -12.460938 3.953125 -12.296875 C 3.566406 -12.128906 3.222656 -11.910156 2.921875 -11.640625 C 2.628906 -11.367188 2.398438 -11.0625 2.234375 -10.71875 C 2.148438 -10.582031 2.066406 -10.488281 1.984375 -10.4375 C 1.898438 -10.394531 1.804688 -10.375 1.703125 -10.375 C 1.554688 -10.375 1.425781 -10.421875 1.3125 -10.515625 C 1.195312 -10.609375 1.140625 -10.726562 1.140625 -10.875 C 1.140625 -10.957031 1.160156 -11.039062 1.203125 -11.125 C 1.242188 -11.21875 1.3125 -11.320312 1.40625 -11.4375 C 1.632812 -11.84375 1.953125 -12.207031 2.359375 -12.53125 C 2.765625 -12.863281 3.222656 -13.128906 3.734375 -13.328125 C 4.242188 -13.535156 4.738281 -13.640625 5.21875 -13.640625 C 6.039062 -13.640625 6.75 -13.476562 7.34375 -13.15625 C 7.9375 -12.84375 8.394531 -12.398438 8.71875 -11.828125 C 9.050781 -11.265625 9.21875 -10.59375 9.21875 -9.8125 C 9.21875 -9.144531 9.007812 -8.414062 8.59375 -7.625 C 8.175781 -6.84375 7.554688 -6 6.734375 -5.09375 L 3 -0.890625 L 2.796875 -1.109375 Z M 9.109375 -1.109375 "/></g></g></g></g></g><g transform="matrix(1, 0, 0, 1, 757, 151)"><g clip-path="url(#ccb936259f)"><g fill="#201f1f" fill-opacity="1"><g transform="translate(0.620787, 19.951286)"><g><path d="M 4.34375 0 C 4.164062 0 4.015625 -0.0546875 3.890625 -0.171875 C 3.773438 -0.285156 3.71875 -0.421875 3.71875 -0.578125 L 3.71875 -12.140625 L 3.9375 -11.9375 L 1.375 -10.234375 C 1.28125 -10.160156 1.175781 -10.125 1.0625 -10.125 C 0.90625 -10.125 0.765625 -10.1875 0.640625 -10.3125 C 0.515625 -10.4375 0.453125 -10.578125 0.453125 -10.734375 C 0.453125 -10.941406 0.554688 -11.101562 0.765625 -11.21875 L 3.96875 -13.34375 C 4.050781 -13.394531 4.132812 -13.425781 4.21875 -13.4375 C 4.300781 -13.457031 4.375 -13.457031 4.4375 -13.4375 C 4.601562 -13.425781 4.726562 -13.363281 4.8125 -13.25 C 4.90625 -13.144531 4.953125 -13.015625 4.953125 -12.859375 L 4.953125 -0.578125 C 4.953125 -0.421875 4.894531 -0.285156 4.78125 -0.171875 C 4.664062 -0.0546875 4.519531 0 4.34375 0 Z M 4.34375 0 "/></g></g></g><g fill="#201f1f" fill-opacity="1"><g transform="translate(7.723722, 19.951286)"><g><path d="M 1.703125 -1.984375 C 1.773438 -1.984375 1.84375 -1.96875 1.90625 -1.9375 C 1.976562 -1.914062 2.066406 -1.859375 2.171875 -1.765625 C 2.441406 -1.484375 2.757812 -1.269531 3.125 -1.125 C 3.5 -0.976562 3.921875 -0.90625 4.390625 -0.90625 C 5.023438 -0.90625 5.597656 -1.046875 6.109375 -1.328125 C 6.628906 -1.609375 7.039062 -2 7.34375 -2.5 C 7.65625 -3.007812 7.8125 -3.59375 7.8125 -4.25 C 7.8125 -4.988281 7.648438 -5.582031 7.328125 -6.03125 C 7.003906 -6.488281 6.585938 -6.828125 6.078125 -7.046875 C 5.566406 -7.273438 5.050781 -7.390625 4.53125 -7.390625 C 4.394531 -7.390625 4.257812 -7.378906 4.125 -7.359375 C 3.988281 -7.335938 3.863281 -7.316406 3.75 -7.296875 C 3.632812 -7.273438 3.539062 -7.265625 3.46875 -7.265625 C 3.300781 -7.265625 3.171875 -7.316406 3.078125 -7.421875 C 2.992188 -7.523438 2.953125 -7.660156 2.953125 -7.828125 C 2.953125 -7.921875 2.972656 -8.003906 3.015625 -8.078125 C 3.054688 -8.148438 3.109375 -8.226562 3.171875 -8.3125 L 7.0625 -12.5625 L 7.296875 -12.25 L 1.484375 -12.25 C 1.328125 -12.25 1.191406 -12.300781 1.078125 -12.40625 C 0.972656 -12.519531 0.921875 -12.65625 0.921875 -12.8125 C 0.921875 -12.957031 0.972656 -13.082031 1.078125 -13.1875 C 1.191406 -13.289062 1.328125 -13.34375 1.484375 -13.34375 L 7.9375 -13.34375 C 8.144531 -13.34375 8.296875 -13.273438 8.390625 -13.140625 C 8.484375 -13.003906 8.53125 -12.875 8.53125 -12.75 C 8.53125 -12.675781 8.507812 -12.601562 8.46875 -12.53125 C 8.425781 -12.457031 8.375 -12.382812 8.3125 -12.3125 L 4.421875 -8.0625 L 4 -8.3125 C 4.03125 -8.351562 4.15625 -8.394531 4.375 -8.4375 C 4.601562 -8.476562 4.785156 -8.5 4.921875 -8.5 C 5.617188 -8.5 6.273438 -8.332031 6.890625 -8 C 7.515625 -7.675781 8.019531 -7.203125 8.40625 -6.578125 C 8.800781 -5.953125 9 -5.1875 9 -4.28125 C 9 -3.382812 8.785156 -2.597656 8.359375 -1.921875 C 7.941406 -1.253906 7.375 -0.734375 6.65625 -0.359375 C 5.945312 0.00390625 5.15625 0.1875 4.28125 0.1875 C 3.757812 0.1875 3.238281 0.0976562 2.71875 -0.078125 C 2.207031 -0.253906 1.757812 -0.523438 1.375 -0.890625 C 1.289062 -0.960938 1.226562 -1.035156 1.1875 -1.109375 C 1.15625 -1.191406 1.140625 -1.269531 1.140625 -1.34375 C 1.140625 -1.5 1.191406 -1.644531 1.296875 -1.78125 C 1.398438 -1.914062 1.535156 -1.984375 1.703125 -1.984375 Z M 1.703125 -1.984375 "/></g></g></g></g></g><g transform="matrix(1, 0, 0, 1, 2, 301)"><g clip-path="url(#b837fa4237)"><g fill="#201f1f" fill-opacity="1"><g transform="translate(0.710462, 19.709184)"><g><path d="M 4.34375 0 C 4.164062 0 4.015625 -0.0546875 3.890625 -0.171875 C 3.773438 -0.285156 3.71875 -0.421875 3.71875 -0.578125 L 3.71875 -12.140625 L 3.9375 -11.9375 L 1.375 -10.234375 C 1.28125 -10.160156 1.175781 -10.125 1.0625 -10.125 C 0.90625 -10.125 0.765625 -10.1875 0.640625 -10.3125 C 0.515625 -10.4375 0.453125 -10.578125 0.453125 -10.734375 C 0.453125 -10.941406 0.554688 -11.101562 0.765625 -11.21875 L 3.96875 -13.34375 C 4.050781 -13.394531 4.132812 -13.425781 4.21875 -13.4375 C 4.300781 -13.457031 4.375 -13.457031 4.4375 -13.4375 C 4.601562 -13.425781 4.726562 -13.363281 4.8125 -13.25 C 4.90625 -13.144531 4.953125 -13.015625 4.953125 -12.859375 L 4.953125 -0.578125 C 4.953125 -0.421875 4.894531 -0.285156 4.78125 -0.171875 C 4.664062 -0.0546875 4.519531 0 4.34375 0 Z M 4.34375 0 "/></g></g></g><g fill="#201f1f" fill-opacity="1"><g transform="translate(7.813398, 19.709184)"><g><path d="M 7.046875 0 C 6.878906 0 6.742188 -0.0546875 6.640625 -0.171875 C 6.535156 -0.285156 6.484375 -0.421875 6.484375 -0.578125 L 6.484375 -11.84375 L 6.734375 -11.6875 L 1.6875 -5.015625 L 1.625 -5.21875 L 9 -5.21875 C 9.15625 -5.21875 9.285156 -5.164062 9.390625 -5.0625 C 9.503906 -4.96875 9.5625 -4.84375 9.5625 -4.6875 C 9.5625 -4.53125 9.503906 -4.398438 9.390625 -4.296875 C 9.285156 -4.191406 9.15625 -4.140625 9 -4.140625 L 0.84375 -4.140625 C 0.6875 -4.140625 0.550781 -4.203125 0.4375 -4.328125 C 0.320312 -4.453125 0.265625 -4.59375 0.265625 -4.75 C 0.265625 -4.882812 0.3125 -5.007812 0.40625 -5.125 L 6.59375 -13.21875 C 6.65625 -13.300781 6.734375 -13.359375 6.828125 -13.390625 C 6.921875 -13.421875 7 -13.4375 7.0625 -13.4375 C 7.226562 -13.4375 7.363281 -13.378906 7.46875 -13.265625 C 7.582031 -13.148438 7.640625 -13.015625 7.640625 -12.859375 L 7.640625 -0.578125 C 7.640625 -0.421875 7.582031 -0.285156 7.46875 -0.171875 C 7.351562 -0.0546875 7.210938 0 7.046875 0 Z M 7.046875 0 "/></g></g></g></g></g><g transform="matrix(1, 0, 0, 1, 128, 301)"><g clip-path="url(#44212829db)"><g clip-path="url(#85c31e6a2d)"><g fill="#201f1f" fill-opacity="1"><g transform="translate(0.528859, 19.709184)"><g><path d="M 4.34375 0 C 4.164062 0 4.015625 -0.0546875 3.890625 -0.171875 C 3.773438 -0.285156 3.71875 -0.421875 3.71875 -0.578125 L 3.71875 -12.140625 L 3.9375 -11.9375 L 1.375 -10.234375 C 1.28125 -10.160156 1.175781 -10.125 1.0625 -10.125 C 0.90625 -10.125 0.765625 -10.1875 0.640625 -10.3125 C 0.515625 -10.4375 0.453125 -10.578125 0.453125 -10.734375 C 0.453125 -10.941406 0.554688 -11.101562 0.765625 -11.21875 L 3.96875 -13.34375 C 4.050781 -13.394531 4.132812 -13.425781 4.21875 -13.4375 C 4.300781 -13.457031 4.375 -13.457031 4.4375 -13.4375 C 4.601562 -13.425781 4.726562 -13.363281 4.8125 -13.25 C 4.90625 -13.144531 4.953125 -13.015625 4.953125 -12.859375 L 4.953125 -0.578125 C 4.953125 -0.421875 4.894531 -0.285156 4.78125 -0.171875 C 4.664062 -0.0546875 4.519531 0 4.34375 0 Z M 4.34375 0 "/></g></g></g></g><g fill="#201f1f" fill-opacity="1"><g transform="translate(7.631795, 19.709184)"><g><path d="M 4.5 0.03125 C 3.96875 0.03125 3.4375 -0.0507812 2.90625 -0.21875 C 2.375 -0.394531 1.90625 -0.65625 1.5 -1 C 1.414062 -1.0625 1.351562 -1.132812 1.3125 -1.21875 C 1.269531 -1.3125 1.25 -1.40625 1.25 -1.5 C 1.25 -1.625 1.300781 -1.75 1.40625 -1.875 C 1.507812 -2 1.644531 -2.0625 1.8125 -2.0625 C 1.945312 -2.0625 2.085938 -2 2.234375 -1.875 C 2.566406 -1.625 2.925781 -1.425781 3.3125 -1.28125 C 3.695312 -1.144531 4.09375 -1.078125 4.5 -1.078125 C 5.25 -1.078125 5.90625 -1.21875 6.46875 -1.5 C 7.03125 -1.789062 7.460938 -2.203125 7.765625 -2.734375 C 8.078125 -3.265625 8.234375 -3.882812 8.234375 -4.59375 C 8.234375 -5.238281 8.09375 -5.800781 7.8125 -6.28125 C 7.53125 -6.769531 7.128906 -7.148438 6.609375 -7.421875 C 6.097656 -7.691406 5.488281 -7.828125 4.78125 -7.828125 C 4.320312 -7.828125 3.898438 -7.753906 3.515625 -7.609375 C 3.140625 -7.472656 2.8125 -7.332031 2.53125 -7.1875 C 2.257812 -7.039062 2.039062 -6.96875 1.875 -6.96875 C 1.726562 -6.96875 1.601562 -7.003906 1.5 -7.078125 C 1.40625 -7.160156 1.34375 -7.257812 1.3125 -7.375 C 1.28125 -7.488281 1.28125 -7.609375 1.3125 -7.734375 L 2.125 -12.859375 C 2.144531 -12.972656 2.207031 -13.078125 2.3125 -13.171875 C 2.425781 -13.273438 2.566406 -13.328125 2.734375 -13.328125 L 8.5 -13.328125 C 8.65625 -13.328125 8.785156 -13.269531 8.890625 -13.15625 C 9.003906 -13.050781 9.0625 -12.921875 9.0625 -12.765625 C 9.0625 -12.597656 9.003906 -12.457031 8.890625 -12.34375 C 8.785156 -12.238281 8.65625 -12.1875 8.5 -12.1875 L 3 -12.1875 L 3.171875 -12.359375 L 2.375 -7.8125 L 2.03125 -8.0625 C 2.195312 -8.1875 2.4375 -8.3125 2.75 -8.4375 C 3.0625 -8.570312 3.410156 -8.6875 3.796875 -8.78125 C 4.191406 -8.875 4.609375 -8.921875 5.046875 -8.921875 C 5.878906 -8.921875 6.617188 -8.738281 7.265625 -8.375 C 7.921875 -8.007812 8.4375 -7.503906 8.8125 -6.859375 C 9.195312 -6.210938 9.390625 -5.46875 9.390625 -4.625 C 9.390625 -3.6875 9.1875 -2.867188 8.78125 -2.171875 C 8.382812 -1.484375 7.816406 -0.941406 7.078125 -0.546875 C 6.347656 -0.160156 5.488281 0.03125 4.5 0.03125 Z M 4.5 0.03125 "/></g></g></g></g></g><g transform="matrix(1, 0, 0, 1, 254, 301)"><g clip-path="url(#518e3787fe)"><g clip-path="url(#49f418cd2f)"><g fill="#201f1f" fill-opacity="1"><g transform="translate(0.347256, 19.709184)"><g><path d="M 4.34375 0 C 4.164062 0 4.015625 -0.0546875 3.890625 -0.171875 C 3.773438 -0.285156 3.71875 -0.421875 3.71875 -0.578125 L 3.71875 -12.140625 L 3.9375 -11.9375 L 1.375 -10.234375 C 1.28125 -10.160156 1.175781 -10.125 1.0625 -10.125 C 0.90625 -10.125 0.765625 -10.1875 0.640625 -10.3125 C 0.515625 -10.4375 0.453125 -10.578125 0.453125 -10.734375 C 0.453125 -10.941406 0.554688 -11.101562 0.765625 -11.21875 L 3.96875 -13.34375 C 4.050781 -13.394531 4.132812 -13.425781 4.21875 -13.4375 C 4.300781 -13.457031 4.375 -13.457031 4.4375 -13.4375 C 4.601562 -13.425781 4.726562 -13.363281 4.8125 -13.25 C 4.90625 -13.144531 4.953125 -13.015625 4.953125 -12.859375 L 4.953125 -0.578125 C 4.953125 -0.421875 4.894531 -0.285156 4.78125 -0.171875 C 4.664062 -0.0546875 4.519531 0 4.34375 0 Z M 4.34375 0 "/></g></g></g></g><g clip-path="url(#b263ebcaf9)"><g fill="#201f1f" fill-opacity="1"><g transform="translate(7.450192, 19.709184)"><g><path d="M 5.515625 0.1875 C 4.765625 0.1875 4.113281 0.0546875 3.5625 -0.203125 C 3.007812 -0.472656 2.546875 -0.835938 2.171875 -1.296875 C 1.804688 -1.753906 1.535156 -2.269531 1.359375 -2.84375 C 1.191406 -3.414062 1.109375 -4.003906 1.109375 -4.609375 C 1.109375 -5.222656 1.1875 -5.882812 1.34375 -6.59375 C 1.5 -7.300781 1.734375 -8.019531 2.046875 -8.75 C 2.367188 -9.476562 2.765625 -10.171875 3.234375 -10.828125 C 3.703125 -11.484375 4.242188 -12.066406 4.859375 -12.578125 C 5.484375 -13.097656 6.1875 -13.507812 6.96875 -13.8125 C 7.0625 -13.832031 7.140625 -13.84375 7.203125 -13.84375 C 7.367188 -13.84375 7.507812 -13.796875 7.625 -13.703125 C 7.75 -13.617188 7.8125 -13.46875 7.8125 -13.25 C 7.8125 -13.125 7.769531 -13.007812 7.6875 -12.90625 C 7.601562 -12.8125 7.492188 -12.738281 7.359375 -12.6875 C 6.816406 -12.457031 6.28125 -12.128906 5.75 -11.703125 C 5.226562 -11.285156 4.742188 -10.800781 4.296875 -10.25 C 3.847656 -9.695312 3.46875 -9.101562 3.15625 -8.46875 C 2.84375 -7.84375 2.625 -7.203125 2.5 -6.546875 L 2.078125 -6.296875 C 2.304688 -6.722656 2.601562 -7.097656 2.96875 -7.421875 C 3.332031 -7.742188 3.75 -8.003906 4.21875 -8.203125 C 4.695312 -8.398438 5.210938 -8.5 5.765625 -8.5 C 6.335938 -8.5 6.863281 -8.378906 7.34375 -8.140625 C 7.832031 -7.898438 8.253906 -7.570312 8.609375 -7.15625 C 8.960938 -6.738281 9.238281 -6.265625 9.4375 -5.734375 C 9.632812 -5.210938 9.734375 -4.671875 9.734375 -4.109375 C 9.734375 -3.347656 9.550781 -2.640625 9.1875 -1.984375 C 8.820312 -1.335938 8.320312 -0.8125 7.6875 -0.40625 C 7.050781 -0.0078125 6.328125 0.1875 5.515625 0.1875 Z M 5.484375 -0.921875 C 6.078125 -0.921875 6.601562 -1.054688 7.0625 -1.328125 C 7.53125 -1.597656 7.894531 -1.972656 8.15625 -2.453125 C 8.414062 -2.929688 8.546875 -3.484375 8.546875 -4.109375 C 8.546875 -4.679688 8.429688 -5.210938 8.203125 -5.703125 C 7.984375 -6.203125 7.648438 -6.609375 7.203125 -6.921875 C 6.765625 -7.234375 6.21875 -7.390625 5.5625 -7.390625 C 4.882812 -7.390625 4.300781 -7.234375 3.8125 -6.921875 C 3.320312 -6.617188 2.941406 -6.210938 2.671875 -5.703125 C 2.410156 -5.203125 2.28125 -4.648438 2.28125 -4.046875 C 2.28125 -3.515625 2.40625 -3.007812 2.65625 -2.53125 C 2.914062 -2.050781 3.285156 -1.660156 3.765625 -1.359375 C 4.253906 -1.066406 4.828125 -0.921875 5.484375 -0.921875 Z M 5.484375 -0.921875 "/></g></g></g></g></g></g><g transform="matrix(1, 0, 0, 1, 380, 301)"><g clip-path="url(#ae9a784ce8)"><g clip-path="url(#89ae19386c)"><g fill="#201f1f" fill-opacity="1"><g transform="translate(0.165639, 19.709184)"><g><path d="M 4.34375 0 C 4.164062 0 4.015625 -0.0546875 3.890625 -0.171875 C 3.773438 -0.285156 3.71875 -0.421875 3.71875 -0.578125 L 3.71875 -12.140625 L 3.9375 -11.9375 L 1.375 -10.234375 C 1.28125 -10.160156 1.175781 -10.125 1.0625 -10.125 C 0.90625 -10.125 0.765625 -10.1875 0.640625 -10.3125 C 0.515625 -10.4375 0.453125 -10.578125 0.453125 -10.734375 C 0.453125 -10.941406 0.554688 -11.101562 0.765625 -11.21875 L 3.96875 -13.34375 C 4.050781 -13.394531 4.132812 -13.425781 4.21875 -13.4375 C 4.300781 -13.457031 4.375 -13.457031 4.4375 -13.4375 C 4.601562 -13.425781 4.726562 -13.363281 4.8125 -13.25 C 4.90625 -13.144531 4.953125 -13.015625 4.953125 -12.859375 L 4.953125 -0.578125 C 4.953125 -0.421875 4.894531 -0.285156 4.78125 -0.171875 C 4.664062 -0.0546875 4.519531 0 4.34375 0 Z M 4.34375 0 "/></g></g></g></g><g fill="#201f1f" fill-opacity="1"><g transform="translate(7.268574, 19.709184)"><g><path d="M 3.421875 0.0625 C 3.265625 0.0625 3.117188 0.0078125 2.984375 -0.09375 C 2.859375 -0.195312 2.796875 -0.328125 2.796875 -0.484375 C 2.796875 -0.566406 2.816406 -0.660156 2.859375 -0.765625 L 7.96875 -12.5 L 8.1875 -12.234375 L 1.6875 -12.234375 C 1.53125 -12.234375 1.398438 -12.285156 1.296875 -12.390625 C 1.191406 -12.503906 1.140625 -12.640625 1.140625 -12.796875 C 1.140625 -12.953125 1.191406 -13.082031 1.296875 -13.1875 C 1.398438 -13.289062 1.53125 -13.34375 1.6875 -13.34375 L 8.734375 -13.34375 C 8.929688 -13.34375 9.070312 -13.289062 9.15625 -13.1875 C 9.25 -13.082031 9.296875 -12.957031 9.296875 -12.8125 C 9.296875 -12.707031 9.273438 -12.609375 9.234375 -12.515625 L 3.953125 -0.328125 C 3.910156 -0.210938 3.835938 -0.117188 3.734375 -0.046875 C 3.640625 0.0234375 3.535156 0.0625 3.421875 0.0625 Z M 3.421875 0.0625 "/></g></g></g></g></g><g transform="matrix(1, 0, 0, 1, 505, 301)"><g clip-path="url(#7133a9cd9d)"><g fill="#201f1f" fill-opacity="1"><g transform="translate(0.984021, 19.709184)"><g><path d="M 4.34375 0 C 4.164062 0 4.015625 -0.0546875 3.890625 -0.171875 C 3.773438 -0.285156 3.71875 -0.421875 3.71875 -0.578125 L 3.71875 -12.140625 L 3.9375 -11.9375 L 1.375 -10.234375 C 1.28125 -10.160156 1.175781 -10.125 1.0625 -10.125 C 0.90625 -10.125 0.765625 -10.1875 0.640625 -10.3125 C 0.515625 -10.4375 0.453125 -10.578125 0.453125 -10.734375 C 0.453125 -10.941406 0.554688 -11.101562 0.765625 -11.21875 L 3.96875 -13.34375 C 4.050781 -13.394531 4.132812 -13.425781 4.21875 -13.4375 C 4.300781 -13.457031 4.375 -13.457031 4.4375 -13.4375 C 4.601562 -13.425781 4.726562 -13.363281 4.8125 -13.25 C 4.90625 -13.144531 4.953125 -13.015625 4.953125 -12.859375 L 4.953125 -0.578125 C 4.953125 -0.421875 4.894531 -0.285156 4.78125 -0.171875 C 4.664062 -0.0546875 4.519531 0 4.34375 0 Z M 4.34375 0 "/></g></g></g><g fill="#201f1f" fill-opacity="1"><g transform="translate(8.086957, 19.709184)"><g><path d="M 6.984375 -6.765625 L 6.9375 -6.9375 C 7.363281 -6.769531 7.753906 -6.519531 8.109375 -6.1875 C 8.472656 -5.863281 8.765625 -5.476562 8.984375 -5.03125 C 9.203125 -4.59375 9.3125 -4.113281 9.3125 -3.59375 C 9.3125 -2.894531 9.128906 -2.265625 8.765625 -1.703125 C 8.398438 -1.140625 7.90625 -0.691406 7.28125 -0.359375 C 6.65625 -0.0234375 5.957031 0.140625 5.1875 0.140625 C 4.40625 0.140625 3.703125 -0.0234375 3.078125 -0.359375 C 2.460938 -0.691406 1.972656 -1.140625 1.609375 -1.703125 C 1.242188 -2.265625 1.0625 -2.894531 1.0625 -3.59375 C 1.0625 -4.15625 1.171875 -4.65625 1.390625 -5.09375 C 1.617188 -5.539062 1.914062 -5.914062 2.28125 -6.21875 C 2.644531 -6.53125 3.023438 -6.769531 3.421875 -6.9375 L 3.359375 -6.734375 C 3.015625 -6.898438 2.691406 -7.128906 2.390625 -7.421875 C 2.085938 -7.710938 1.835938 -8.054688 1.640625 -8.453125 C 1.453125 -8.859375 1.359375 -9.304688 1.359375 -9.796875 C 1.359375 -10.484375 1.523438 -11.101562 1.859375 -11.65625 C 2.203125 -12.207031 2.664062 -12.640625 3.25 -12.953125 C 3.832031 -13.273438 4.476562 -13.4375 5.1875 -13.4375 C 5.882812 -13.4375 6.519531 -13.273438 7.09375 -12.953125 C 7.664062 -12.640625 8.117188 -12.207031 8.453125 -11.65625 C 8.796875 -11.101562 8.96875 -10.484375 8.96875 -9.796875 C 8.96875 -9.296875 8.867188 -8.847656 8.671875 -8.453125 C 8.484375 -8.054688 8.234375 -7.710938 7.921875 -7.421875 C 7.617188 -7.128906 7.304688 -6.910156 6.984375 -6.765625 Z M 2.546875 -9.796875 C 2.546875 -9.285156 2.664062 -8.835938 2.90625 -8.453125 C 3.15625 -8.066406 3.476562 -7.765625 3.875 -7.546875 C 4.269531 -7.328125 4.707031 -7.21875 5.1875 -7.21875 C 5.644531 -7.21875 6.070312 -7.328125 6.46875 -7.546875 C 6.863281 -7.765625 7.179688 -8.066406 7.421875 -8.453125 C 7.660156 -8.835938 7.78125 -9.285156 7.78125 -9.796875 C 7.78125 -10.546875 7.535156 -11.15625 7.046875 -11.625 C 6.554688 -12.101562 5.9375 -12.34375 5.1875 -12.34375 C 4.40625 -12.34375 3.769531 -12.101562 3.28125 -11.625 C 2.789062 -11.15625 2.546875 -10.546875 2.546875 -9.796875 Z M 5.1875 -0.953125 C 6.050781 -0.953125 6.753906 -1.203125 7.296875 -1.703125 C 7.847656 -2.203125 8.125 -2.832031 8.125 -3.59375 C 8.125 -4.101562 7.988281 -4.5625 7.71875 -4.96875 C 7.445312 -5.382812 7.085938 -5.707031 6.640625 -5.9375 C 6.191406 -6.164062 5.707031 -6.28125 5.1875 -6.28125 C 4.65625 -6.28125 4.164062 -6.164062 3.71875 -5.9375 C 3.269531 -5.707031 2.910156 -5.382812 2.640625 -4.96875 C 2.378906 -4.5625 2.25 -4.101562 2.25 -3.59375 C 2.25 -2.832031 2.515625 -2.203125 3.046875 -1.703125 C 3.585938 -1.203125 4.300781 -0.953125 5.1875 -0.953125 Z M 5.1875 -0.953125 "/></g></g></g></g></g><g transform="matrix(1, 0, 0, 1, 631, 301)"><g clip-path="url(#fb51919644)"><g fill="#201f1f" fill-opacity="1"><g transform="translate(0.802433, 19.709184)"><g><path d="M 4.34375 0 C 4.164062 0 4.015625 -0.0546875 3.890625 -0.171875 C 3.773438 -0.285156 3.71875 -0.421875 3.71875 -0.578125 L 3.71875 -12.140625 L 3.9375 -11.9375 L 1.375 -10.234375 C 1.28125 -10.160156 1.175781 -10.125 1.0625 -10.125 C 0.90625 -10.125 0.765625 -10.1875 0.640625 -10.3125 C 0.515625 -10.4375 0.453125 -10.578125 0.453125 -10.734375 C 0.453125 -10.941406 0.554688 -11.101562 0.765625 -11.21875 L 3.96875 -13.34375 C 4.050781 -13.394531 4.132812 -13.425781 4.21875 -13.4375 C 4.300781 -13.457031 4.375 -13.457031 4.4375 -13.4375 C 4.601562 -13.425781 4.726562 -13.363281 4.8125 -13.25 C 4.90625 -13.144531 4.953125 -13.015625 4.953125 -12.859375 L 4.953125 -0.578125 C 4.953125 -0.421875 4.894531 -0.285156 4.78125 -0.171875 C 4.664062 -0.0546875 4.519531 0 4.34375 0 Z M 4.34375 0 "/></g></g></g><g fill="#201f1f" fill-opacity="1"><g transform="translate(7.905369, 19.709184)"><g><path d="M 5.3125 -13.65625 C 6.070312 -13.65625 6.726562 -13.519531 7.28125 -13.25 C 7.84375 -12.976562 8.300781 -12.613281 8.65625 -12.15625 C 9.019531 -11.707031 9.289062 -11.191406 9.46875 -10.609375 C 9.644531 -10.035156 9.734375 -9.453125 9.734375 -8.859375 C 9.734375 -8.242188 9.648438 -7.585938 9.484375 -6.890625 C 9.328125 -6.191406 9.09375 -5.484375 8.78125 -4.765625 C 8.46875 -4.054688 8.078125 -3.378906 7.609375 -2.734375 C 7.140625 -2.097656 6.59375 -1.523438 5.96875 -1.015625 C 5.34375 -0.503906 4.644531 -0.109375 3.875 0.171875 C 3.769531 0.203125 3.6875 0.21875 3.625 0.21875 C 3.476562 0.21875 3.34375 0.160156 3.21875 0.046875 C 3.09375 -0.0546875 3.03125 -0.203125 3.03125 -0.390625 C 3.03125 -0.515625 3.066406 -0.625 3.140625 -0.71875 C 3.222656 -0.8125 3.34375 -0.882812 3.5 -0.9375 C 4.226562 -1.25 4.929688 -1.707031 5.609375 -2.3125 C 6.285156 -2.914062 6.867188 -3.617188 7.359375 -4.421875 C 7.859375 -5.222656 8.191406 -6.050781 8.359375 -6.90625 L 8.75 -7.15625 C 8.539062 -6.75 8.25 -6.378906 7.875 -6.046875 C 7.5 -5.710938 7.078125 -5.453125 6.609375 -5.265625 C 6.148438 -5.085938 5.644531 -5 5.09375 -5 C 4.269531 -5 3.5625 -5.195312 2.96875 -5.59375 C 2.375 -6 1.914062 -6.535156 1.59375 -7.203125 C 1.269531 -7.867188 1.109375 -8.585938 1.109375 -9.359375 C 1.109375 -10.109375 1.289062 -10.804688 1.65625 -11.453125 C 2.019531 -12.109375 2.519531 -12.640625 3.15625 -13.046875 C 3.789062 -13.453125 4.507812 -13.65625 5.3125 -13.65625 Z M 5.359375 -12.546875 C 4.753906 -12.546875 4.222656 -12.410156 3.765625 -12.140625 C 3.304688 -11.867188 2.941406 -11.492188 2.671875 -11.015625 C 2.410156 -10.535156 2.28125 -9.984375 2.28125 -9.359375 C 2.28125 -8.785156 2.390625 -8.25 2.609375 -7.75 C 2.835938 -7.257812 3.175781 -6.863281 3.625 -6.5625 C 4.070312 -6.257812 4.617188 -6.109375 5.265625 -6.109375 C 5.953125 -6.109375 6.539062 -6.257812 7.03125 -6.5625 C 7.519531 -6.863281 7.894531 -7.257812 8.15625 -7.75 C 8.425781 -8.25 8.5625 -8.800781 8.5625 -9.40625 C 8.5625 -9.957031 8.429688 -10.46875 8.171875 -10.9375 C 7.921875 -11.414062 7.554688 -11.800781 7.078125 -12.09375 C 6.609375 -12.394531 6.035156 -12.546875 5.359375 -12.546875 Z M 5.359375 -12.546875 "/></g></g></g></g></g><g transform="matrix(1, 0, 0, 1, 757, 301)"><g clip-path="url(#d3f74e5971)"><g fill="#201f1f" fill-opacity="1"><g transform="translate(0.620787, 19.709184)"><g><path d="M 9.109375 -1.109375 C 9.253906 -1.109375 9.378906 -1.050781 9.484375 -0.9375 C 9.597656 -0.832031 9.65625 -0.707031 9.65625 -0.5625 C 9.65625 -0.394531 9.597656 -0.257812 9.484375 -0.15625 C 9.378906 -0.0507812 9.253906 0 9.109375 0 L 1.90625 0 C 1.738281 0 1.59375 -0.046875 1.46875 -0.140625 C 1.34375 -0.234375 1.28125 -0.378906 1.28125 -0.578125 C 1.28125 -0.710938 1.332031 -0.847656 1.4375 -0.984375 L 5.875 -5.875 C 6.582031 -6.644531 7.109375 -7.351562 7.453125 -8 C 7.804688 -8.644531 7.984375 -9.222656 7.984375 -9.734375 C 7.984375 -10.578125 7.726562 -11.253906 7.21875 -11.765625 C 6.707031 -12.285156 6.015625 -12.546875 5.140625 -12.546875 C 4.742188 -12.546875 4.347656 -12.460938 3.953125 -12.296875 C 3.566406 -12.128906 3.222656 -11.910156 2.921875 -11.640625 C 2.628906 -11.367188 2.398438 -11.0625 2.234375 -10.71875 C 2.148438 -10.582031 2.066406 -10.488281 1.984375 -10.4375 C 1.898438 -10.394531 1.804688 -10.375 1.703125 -10.375 C 1.554688 -10.375 1.425781 -10.421875 1.3125 -10.515625 C 1.195312 -10.609375 1.140625 -10.726562 1.140625 -10.875 C 1.140625 -10.957031 1.160156 -11.039062 1.203125 -11.125 C 1.242188 -11.21875 1.3125 -11.320312 1.40625 -11.4375 C 1.632812 -11.84375 1.953125 -12.207031 2.359375 -12.53125 C 2.765625 -12.863281 3.222656 -13.128906 3.734375 -13.328125 C 4.242188 -13.535156 4.738281 -13.640625 5.21875 -13.640625 C 6.039062 -13.640625 6.75 -13.476562 7.34375 -13.15625 C 7.9375 -12.84375 8.394531 -12.398438 8.71875 -11.828125 C 9.050781 -11.265625 9.21875 -10.59375 9.21875 -9.8125 C 9.21875 -9.144531 9.007812 -8.414062 8.59375 -7.625 C 8.175781 -6.84375 7.554688 -6 6.734375 -5.09375 L 3 -0.890625 L 2.796875 -1.109375 Z M 9.109375 -1.109375 "/></g></g></g><g fill="#201f1f" fill-opacity="1"><g transform="translate(11.25599, 19.709184)"><g><path d="M 5.703125 0.1875 C 4.679688 0.1875 3.820312 -0.117188 3.125 -0.734375 C 2.4375 -1.347656 1.921875 -2.175781 1.578125 -3.21875 C 1.234375 -4.257812 1.0625 -5.425781 1.0625 -6.71875 C 1.0625 -8.03125 1.234375 -9.207031 1.578125 -10.25 C 1.921875 -11.289062 2.4375 -12.113281 3.125 -12.71875 C 3.820312 -13.332031 4.679688 -13.640625 5.703125 -13.640625 C 6.753906 -13.640625 7.617188 -13.332031 8.296875 -12.71875 C 8.984375 -12.113281 9.5 -11.289062 9.84375 -10.25 C 10.195312 -9.207031 10.375 -8.03125 10.375 -6.71875 C 10.375 -5.425781 10.195312 -4.257812 9.84375 -3.21875 C 9.5 -2.175781 8.984375 -1.347656 8.296875 -0.734375 C 7.617188 -0.117188 6.753906 0.1875 5.703125 0.1875 Z M 5.703125 -1 C 6.460938 -1 7.09375 -1.234375 7.59375 -1.703125 C 8.101562 -2.179688 8.488281 -2.851562 8.75 -3.71875 C 9.007812 -4.582031 9.140625 -5.582031 9.140625 -6.71875 C 9.140625 -7.875 9.007812 -8.882812 8.75 -9.75 C 8.488281 -10.613281 8.101562 -11.28125 7.59375 -11.75 C 7.09375 -12.226562 6.460938 -12.46875 5.703125 -12.46875 C 4.960938 -12.46875 4.335938 -12.226562 3.828125 -11.75 C 3.328125 -11.28125 2.941406 -10.613281 2.671875 -9.75 C 2.410156 -8.882812 2.28125 -7.875 2.28125 -6.71875 C 2.28125 -5.582031 2.410156 -4.582031 2.671875 -3.71875 C 2.941406 -2.851562 3.328125 -2.179688 3.828125 -1.703125 C 4.335938 -1.234375 4.960938 -1 5.703125 -1 Z M 5.703125 -1 "/></g></g></g></g></g><g clip-path="url(#a826b7d54d)"><g transform="matrix(1, 0, 0, 1, 2, 450)"><g clip-path="url(#da01bf98fb)"><g fill="#201f1f" fill-opacity="1"><g transform="translate(0.710462, 20.467097)"><g><path d="M 9.109375 -1.109375 C 9.253906 -1.109375 9.378906 -1.050781 9.484375 -0.9375 C 9.597656 -0.832031 9.65625 -0.707031 9.65625 -0.5625 C 9.65625 -0.394531 9.597656 -0.257812 9.484375 -0.15625 C 9.378906 -0.0507812 9.253906 0 9.109375 0 L 1.90625 0 C 1.738281 0 1.59375 -0.046875 1.46875 -0.140625 C 1.34375 -0.234375 1.28125 -0.378906 1.28125 -0.578125 C 1.28125 -0.710938 1.332031 -0.847656 1.4375 -0.984375 L 5.875 -5.875 C 6.582031 -6.644531 7.109375 -7.351562 7.453125 -8 C 7.804688 -8.644531 7.984375 -9.222656 7.984375 -9.734375 C 7.984375 -10.578125 7.726562 -11.253906 7.21875 -11.765625 C 6.707031 -12.285156 6.015625 -12.546875 5.140625 -12.546875 C 4.742188 -12.546875 4.347656 -12.460938 3.953125 -12.296875 C 3.566406 -12.128906 3.222656 -11.910156 2.921875 -11.640625 C 2.628906 -11.367188 2.398438 -11.0625 2.234375 -10.71875 C 2.148438 -10.582031 2.066406 -10.488281 1.984375 -10.4375 C 1.898438 -10.394531 1.804688 -10.375 1.703125 -10.375 C 1.554688 -10.375 1.425781 -10.421875 1.3125 -10.515625 C 1.195312 -10.609375 1.140625 -10.726562 1.140625 -10.875 C 1.140625 -10.957031 1.160156 -11.039062 1.203125 -11.125 C 1.242188 -11.21875 1.3125 -11.320312 1.40625 -11.4375 C 1.632812 -11.84375 1.953125 -12.207031 2.359375 -12.53125 C 2.765625 -12.863281 3.222656 -13.128906 3.734375 -13.328125 C 4.242188 -13.535156 4.738281 -13.640625 5.21875 -13.640625 C 6.039062 -13.640625 6.75 -13.476562 7.34375 -13.15625 C 7.9375 -12.84375 8.394531 -12.398438 8.71875 -11.828125 C 9.050781 -11.265625 9.21875 -10.59375 9.21875 -9.8125 C 9.21875 -9.144531 9.007812 -8.414062 8.59375 -7.625 C 8.175781 -6.84375 7.554688 -6 6.734375 -5.09375 L 3 -0.890625 L 2.796875 -1.109375 Z M 9.109375 -1.109375 "/></g></g></g><g fill="#201f1f" fill-opacity="1"><g transform="translate(11.345666, 20.467097)"><g><path d="M 4.34375 0 C 4.164062 0 4.015625 -0.0546875 3.890625 -0.171875 C 3.773438 -0.285156 3.71875 -0.421875 3.71875 -0.578125 L 3.71875 -12.140625 L 3.9375 -11.9375 L 1.375 -10.234375 C 1.28125 -10.160156 1.175781 -10.125 1.0625 -10.125 C 0.90625 -10.125 0.765625 -10.1875 0.640625 -10.3125 C 0.515625 -10.4375 0.453125 -10.578125 0.453125 -10.734375 C 0.453125 -10.941406 0.554688 -11.101562 0.765625 -11.21875 L 3.96875 -13.34375 C 4.050781 -13.394531 4.132812 -13.425781 4.21875 -13.4375 C 4.300781 -13.457031 4.375 -13.457031 4.4375 -13.4375 C 4.601562 -13.425781 4.726562 -13.363281 4.8125 -13.25 C 4.90625 -13.144531 4.953125 -13.015625 4.953125 -12.859375 L 4.953125 -0.578125 C 4.953125 -0.421875 4.894531 -0.285156 4.78125 -0.171875 C 4.664062 -0.0546875 4.519531 0 4.34375 0 Z M 4.34375 0 "/></g></g></g></g></g></g><g clip-path="url(#466e05d1b5)"><g transform="matrix(1, 0, 0, 1, 128, 450)"><g clip-path="url(#9db0104554)"><g fill="#201f1f" fill-opacity="1"><g transform="translate(0.528859, 20.467097)"><g><path d="M 9.109375 -1.109375 C 9.253906 -1.109375 9.378906 -1.050781 9.484375 -0.9375 C 9.597656 -0.832031 9.65625 -0.707031 9.65625 -0.5625 C 9.65625 -0.394531 9.597656 -0.257812 9.484375 -0.15625 C 9.378906 -0.0507812 9.253906 0 9.109375 0 L 1.90625 0 C 1.738281 0 1.59375 -0.046875 1.46875 -0.140625 C 1.34375 -0.234375 1.28125 -0.378906 1.28125 -0.578125 C 1.28125 -0.710938 1.332031 -0.847656 1.4375 -0.984375 L 5.875 -5.875 C 6.582031 -6.644531 7.109375 -7.351562 7.453125 -8 C 7.804688 -8.644531 7.984375 -9.222656 7.984375 -9.734375 C 7.984375 -10.578125 7.726562 -11.253906 7.21875 -11.765625 C 6.707031 -12.285156 6.015625 -12.546875 5.140625 -12.546875 C 4.742188 -12.546875 4.347656 -12.460938 3.953125 -12.296875 C 3.566406 -12.128906 3.222656 -11.910156 2.921875 -11.640625 C 2.628906 -11.367188 2.398438 -11.0625 2.234375 -10.71875 C 2.148438 -10.582031 2.066406 -10.488281 1.984375 -10.4375 C 1.898438 -10.394531 1.804688 -10.375 1.703125 -10.375 C 1.554688 -10.375 1.425781 -10.421875 1.3125 -10.515625 C 1.195312 -10.609375 1.140625 -10.726562 1.140625 -10.875 C 1.140625 -10.957031 1.160156 -11.039062 1.203125 -11.125 C 1.242188 -11.21875 1.3125 -11.320312 1.40625 -11.4375 C 1.632812 -11.84375 1.953125 -12.207031 2.359375 -12.53125 C 2.765625 -12.863281 3.222656 -13.128906 3.734375 -13.328125 C 4.242188 -13.535156 4.738281 -13.640625 5.21875 -13.640625 C 6.039062 -13.640625 6.75 -13.476562 7.34375 -13.15625 C 7.9375 -12.84375 8.394531 -12.398438 8.71875 -11.828125 C 9.050781 -11.265625 9.21875 -10.59375 9.21875 -9.8125 C 9.21875 -9.144531 9.007812 -8.414062 8.59375 -7.625 C 8.175781 -6.84375 7.554688 -6 6.734375 -5.09375 L 3 -0.890625 L 2.796875 -1.109375 Z M 9.109375 -1.109375 "/></g></g></g><g fill="#201f1f" fill-opacity="1"><g transform="translate(11.164063, 20.467097)"><g><path d="M 9.109375 -1.109375 C 9.253906 -1.109375 9.378906 -1.050781 9.484375 -0.9375 C 9.597656 -0.832031 9.65625 -0.707031 9.65625 -0.5625 C 9.65625 -0.394531 9.597656 -0.257812 9.484375 -0.15625 C 9.378906 -0.0507812 9.253906 0 9.109375 0 L 1.90625 0 C 1.738281 0 1.59375 -0.046875 1.46875 -0.140625 C 1.34375 -0.234375 1.28125 -0.378906 1.28125 -0.578125 C 1.28125 -0.710938 1.332031 -0.847656 1.4375 -0.984375 L 5.875 -5.875 C 6.582031 -6.644531 7.109375 -7.351562 7.453125 -8 C 7.804688 -8.644531 7.984375 -9.222656 7.984375 -9.734375 C 7.984375 -10.578125 7.726562 -11.253906 7.21875 -11.765625 C 6.707031 -12.285156 6.015625 -12.546875 5.140625 -12.546875 C 4.742188 -12.546875 4.347656 -12.460938 3.953125 -12.296875 C 3.566406 -12.128906 3.222656 -11.910156 2.921875 -11.640625 C 2.628906 -11.367188 2.398438 -11.0625 2.234375 -10.71875 C 2.148438 -10.582031 2.066406 -10.488281 1.984375 -10.4375 C 1.898438 -10.394531 1.804688 -10.375 1.703125 -10.375 C 1.554688 -10.375 1.425781 -10.421875 1.3125 -10.515625 C 1.195312 -10.609375 1.140625 -10.726562 1.140625 -10.875 C 1.140625 -10.957031 1.160156 -11.039062 1.203125 -11.125 C 1.242188 -11.21875 1.3125 -11.320312 1.40625 -11.4375 C 1.632812 -11.84375 1.953125 -12.207031 2.359375 -12.53125 C 2.765625 -12.863281 3.222656 -13.128906 3.734375 -13.328125 C 4.242188 -13.535156 4.738281 -13.640625 5.21875 -13.640625 C 6.039062 -13.640625 6.75 -13.476562 7.34375 -13.15625 C 7.9375 -12.84375 8.394531 -12.398438 8.71875 -11.828125 C 9.050781 -11.265625 9.21875 -10.59375 9.21875 -9.8125 C 9.21875 -9.144531 9.007812 -8.414062 8.59375 -7.625 C 8.175781 -6.84375 7.554688 -6 6.734375 -5.09375 L 3 -0.890625 L 2.796875 -1.109375 Z M 9.109375 -1.109375 "/></g></g></g></g></g></g><g clip-path="url(#8235bb015b)"><g transform="matrix(1, 0, 0, 1, 254, 450)"><g clip-path="url(#f007ff615e)"><g fill="#201f1f" fill-opacity="1"><g transform="translate(0.347256, 20.467097)"><g><path d="M 9.109375 -1.109375 C 9.253906 -1.109375 9.378906 -1.050781 9.484375 -0.9375 C 9.597656 -0.832031 9.65625 -0.707031 9.65625 -0.5625 C 9.65625 -0.394531 9.597656 -0.257812 9.484375 -0.15625 C 9.378906 -0.0507812 9.253906 0 9.109375 0 L 1.90625 0 C 1.738281 0 1.59375 -0.046875 1.46875 -0.140625 C 1.34375 -0.234375 1.28125 -0.378906 1.28125 -0.578125 C 1.28125 -0.710938 1.332031 -0.847656 1.4375 -0.984375 L 5.875 -5.875 C 6.582031 -6.644531 7.109375 -7.351562 7.453125 -8 C 7.804688 -8.644531 7.984375 -9.222656 7.984375 -9.734375 C 7.984375 -10.578125 7.726562 -11.253906 7.21875 -11.765625 C 6.707031 -12.285156 6.015625 -12.546875 5.140625 -12.546875 C 4.742188 -12.546875 4.347656 -12.460938 3.953125 -12.296875 C 3.566406 -12.128906 3.222656 -11.910156 2.921875 -11.640625 C 2.628906 -11.367188 2.398438 -11.0625 2.234375 -10.71875 C 2.148438 -10.582031 2.066406 -10.488281 1.984375 -10.4375 C 1.898438 -10.394531 1.804688 -10.375 1.703125 -10.375 C 1.554688 -10.375 1.425781 -10.421875 1.3125 -10.515625 C 1.195312 -10.609375 1.140625 -10.726562 1.140625 -10.875 C 1.140625 -10.957031 1.160156 -11.039062 1.203125 -11.125 C 1.242188 -11.21875 1.3125 -11.320312 1.40625 -11.4375 C 1.632812 -11.84375 1.953125 -12.207031 2.359375 -12.53125 C 2.765625 -12.863281 3.222656 -13.128906 3.734375 -13.328125 C 4.242188 -13.535156 4.738281 -13.640625 5.21875 -13.640625 C 6.039062 -13.640625 6.75 -13.476562 7.34375 -13.15625 C 7.9375 -12.84375 8.394531 -12.398438 8.71875 -11.828125 C 9.050781 -11.265625 9.21875 -10.59375 9.21875 -9.8125 C 9.21875 -9.144531 9.007812 -8.414062 8.59375 -7.625 C 8.175781 -6.84375 7.554688 -6 6.734375 -5.09375 L 3 -0.890625 L 2.796875 -1.109375 Z M 9.109375 -1.109375 "/></g></g></g><g fill="#201f1f" fill-opacity="1"><g transform="translate(10.98246, 20.467097)"><g><path d="M 1.703125 -1.984375 C 1.773438 -1.984375 1.84375 -1.96875 1.90625 -1.9375 C 1.976562 -1.914062 2.066406 -1.859375 2.171875 -1.765625 C 2.441406 -1.484375 2.757812 -1.269531 3.125 -1.125 C 3.5 -0.976562 3.921875 -0.90625 4.390625 -0.90625 C 5.023438 -0.90625 5.597656 -1.046875 6.109375 -1.328125 C 6.628906 -1.609375 7.039062 -2 7.34375 -2.5 C 7.65625 -3.007812 7.8125 -3.59375 7.8125 -4.25 C 7.8125 -4.988281 7.648438 -5.582031 7.328125 -6.03125 C 7.003906 -6.488281 6.585938 -6.828125 6.078125 -7.046875 C 5.566406 -7.273438 5.050781 -7.390625 4.53125 -7.390625 C 4.394531 -7.390625 4.257812 -7.378906 4.125 -7.359375 C 3.988281 -7.335938 3.863281 -7.316406 3.75 -7.296875 C 3.632812 -7.273438 3.539062 -7.265625 3.46875 -7.265625 C 3.300781 -7.265625 3.171875 -7.316406 3.078125 -7.421875 C 2.992188 -7.523438 2.953125 -7.660156 2.953125 -7.828125 C 2.953125 -7.921875 2.972656 -8.003906 3.015625 -8.078125 C 3.054688 -8.148438 3.109375 -8.226562 3.171875 -8.3125 L 7.0625 -12.5625 L 7.296875 -12.25 L 1.484375 -12.25 C 1.328125 -12.25 1.191406 -12.300781 1.078125 -12.40625 C 0.972656 -12.519531 0.921875 -12.65625 0.921875 -12.8125 C 0.921875 -12.957031 0.972656 -13.082031 1.078125 -13.1875 C 1.191406 -13.289062 1.328125 -13.34375 1.484375 -13.34375 L 7.9375 -13.34375 C 8.144531 -13.34375 8.296875 -13.273438 8.390625 -13.140625 C 8.484375 -13.003906 8.53125 -12.875 8.53125 -12.75 C 8.53125 -12.675781 8.507812 -12.601562 8.46875 -12.53125 C 8.425781 -12.457031 8.375 -12.382812 8.3125 -12.3125 L 4.421875 -8.0625 L 4 -8.3125 C 4.03125 -8.351562 4.15625 -8.394531 4.375 -8.4375 C 4.601562 -8.476562 4.785156 -8.5 4.921875 -8.5 C 5.617188 -8.5 6.273438 -8.332031 6.890625 -8 C 7.515625 -7.675781 8.019531 -7.203125 8.40625 -6.578125 C 8.800781 -5.953125 9 -5.1875 9 -4.28125 C 9 -3.382812 8.785156 -2.597656 8.359375 -1.921875 C 7.941406 -1.253906 7.375 -0.734375 6.65625 -0.359375 C 5.945312 0.00390625 5.15625 0.1875 4.28125 0.1875 C 3.757812 0.1875 3.238281 0.0976562 2.71875 -0.078125 C 2.207031 -0.253906 1.757812 -0.523438 1.375 -0.890625 C 1.289062 -0.960938 1.226562 -1.035156 1.1875 -1.109375 C 1.15625 -1.191406 1.140625 -1.269531 1.140625 -1.34375 C 1.140625 -1.5 1.191406 -1.644531 1.296875 -1.78125 C 1.398438 -1.914062 1.535156 -1.984375 1.703125 -1.984375 Z M 1.703125 -1.984375 "/></g></g></g></g></g></g><g clip-path="url(#e57ff71813)"><g transform="matrix(1, 0, 0, 1, 380, 450)"><g clip-path="url(#fc3ced1346)"><g fill="#201f1f" fill-opacity="1"><g transform="translate(0.165639, 20.467097)"><g><path d="M 9.109375 -1.109375 C 9.253906 -1.109375 9.378906 -1.050781 9.484375 -0.9375 C 9.597656 -0.832031 9.65625 -0.707031 9.65625 -0.5625 C 9.65625 -0.394531 9.597656 -0.257812 9.484375 -0.15625 C 9.378906 -0.0507812 9.253906 0 9.109375 0 L 1.90625 0 C 1.738281 0 1.59375 -0.046875 1.46875 -0.140625 C 1.34375 -0.234375 1.28125 -0.378906 1.28125 -0.578125 C 1.28125 -0.710938 1.332031 -0.847656 1.4375 -0.984375 L 5.875 -5.875 C 6.582031 -6.644531 7.109375 -7.351562 7.453125 -8 C 7.804688 -8.644531 7.984375 -9.222656 7.984375 -9.734375 C 7.984375 -10.578125 7.726562 -11.253906 7.21875 -11.765625 C 6.707031 -12.285156 6.015625 -12.546875 5.140625 -12.546875 C 4.742188 -12.546875 4.347656 -12.460938 3.953125 -12.296875 C 3.566406 -12.128906 3.222656 -11.910156 2.921875 -11.640625 C 2.628906 -11.367188 2.398438 -11.0625 2.234375 -10.71875 C 2.148438 -10.582031 2.066406 -10.488281 1.984375 -10.4375 C 1.898438 -10.394531 1.804688 -10.375 1.703125 -10.375 C 1.554688 -10.375 1.425781 -10.421875 1.3125 -10.515625 C 1.195312 -10.609375 1.140625 -10.726562 1.140625 -10.875 C 1.140625 -10.957031 1.160156 -11.039062 1.203125 -11.125 C 1.242188 -11.21875 1.3125 -11.320312 1.40625 -11.4375 C 1.632812 -11.84375 1.953125 -12.207031 2.359375 -12.53125 C 2.765625 -12.863281 3.222656 -13.128906 3.734375 -13.328125 C 4.242188 -13.535156 4.738281 -13.640625 5.21875 -13.640625 C 6.039062 -13.640625 6.75 -13.476562 7.34375 -13.15625 C 7.9375 -12.84375 8.394531 -12.398438 8.71875 -11.828125 C 9.050781 -11.265625 9.21875 -10.59375 9.21875 -9.8125 C 9.21875 -9.144531 9.007812 -8.414062 8.59375 -7.625 C 8.175781 -6.84375 7.554688 -6 6.734375 -5.09375 L 3 -0.890625 L 2.796875 -1.109375 Z M 9.109375 -1.109375 "/></g></g></g><g fill="#201f1f" fill-opacity="1"><g transform="translate(10.800842, 20.467097)"><g><path d="M 7.046875 0 C 6.878906 0 6.742188 -0.0546875 6.640625 -0.171875 C 6.535156 -0.285156 6.484375 -0.421875 6.484375 -0.578125 L 6.484375 -11.84375 L 6.734375 -11.6875 L 1.6875 -5.015625 L 1.625 -5.21875 L 9 -5.21875 C 9.15625 -5.21875 9.285156 -5.164062 9.390625 -5.0625 C 9.503906 -4.96875 9.5625 -4.84375 9.5625 -4.6875 C 9.5625 -4.53125 9.503906 -4.398438 9.390625 -4.296875 C 9.285156 -4.191406 9.15625 -4.140625 9 -4.140625 L 0.84375 -4.140625 C 0.6875 -4.140625 0.550781 -4.203125 0.4375 -4.328125 C 0.320312 -4.453125 0.265625 -4.59375 0.265625 -4.75 C 0.265625 -4.882812 0.3125 -5.007812 0.40625 -5.125 L 6.59375 -13.21875 C 6.65625 -13.300781 6.734375 -13.359375 6.828125 -13.390625 C 6.921875 -13.421875 7 -13.4375 7.0625 -13.4375 C 7.226562 -13.4375 7.363281 -13.378906 7.46875 -13.265625 C 7.582031 -13.148438 7.640625 -13.015625 7.640625 -12.859375 L 7.640625 -0.578125 C 7.640625 -0.421875 7.582031 -0.285156 7.46875 -0.171875 C 7.351562 -0.0546875 7.210938 0 7.046875 0 Z M 7.046875 0 "/></g></g></g></g></g></g><g clip-path="url(#16494b6a64)"><g transform="matrix(1, 0, 0, 1, 505, 450)"><g clip-path="url(#6b539fb60e)"><g fill="#201f1f" fill-opacity="1"><g transform="translate(0.984021, 20.467097)"><g><path d="M 9.109375 -1.109375 C 9.253906 -1.109375 9.378906 -1.050781 9.484375 -0.9375 C 9.597656 -0.832031 9.65625 -0.707031 9.65625 -0.5625 C 9.65625 -0.394531 9.597656 -0.257812 9.484375 -0.15625 C 9.378906 -0.0507812 9.253906 0 9.109375 0 L 1.90625 0 C 1.738281 0 1.59375 -0.046875 1.46875 -0.140625 C 1.34375 -0.234375 1.28125 -0.378906 1.28125 -0.578125 C 1.28125 -0.710938 1.332031 -0.847656 1.4375 -0.984375 L 5.875 -5.875 C 6.582031 -6.644531 7.109375 -7.351562 7.453125 -8 C 7.804688 -8.644531 7.984375 -9.222656 7.984375 -9.734375 C 7.984375 -10.578125 7.726562 -11.253906 7.21875 -11.765625 C 6.707031 -12.285156 6.015625 -12.546875 5.140625 -12.546875 C 4.742188 -12.546875 4.347656 -12.460938 3.953125 -12.296875 C 3.566406 -12.128906 3.222656 -11.910156 2.921875 -11.640625 C 2.628906 -11.367188 2.398438 -11.0625 2.234375 -10.71875 C 2.148438 -10.582031 2.066406 -10.488281 1.984375 -10.4375 C 1.898438 -10.394531 1.804688 -10.375 1.703125 -10.375 C 1.554688 -10.375 1.425781 -10.421875 1.3125 -10.515625 C 1.195312 -10.609375 1.140625 -10.726562 1.140625 -10.875 C 1.140625 -10.957031 1.160156 -11.039062 1.203125 -11.125 C 1.242188 -11.21875 1.3125 -11.320312 1.40625 -11.4375 C 1.632812 -11.84375 1.953125 -12.207031 2.359375 -12.53125 C 2.765625 -12.863281 3.222656 -13.128906 3.734375 -13.328125 C 4.242188 -13.535156 4.738281 -13.640625 5.21875 -13.640625 C 6.039062 -13.640625 6.75 -13.476562 7.34375 -13.15625 C 7.9375 -12.84375 8.394531 -12.398438 8.71875 -11.828125 C 9.050781 -11.265625 9.21875 -10.59375 9.21875 -9.8125 C 9.21875 -9.144531 9.007812 -8.414062 8.59375 -7.625 C 8.175781 -6.84375 7.554688 -6 6.734375 -5.09375 L 3 -0.890625 L 2.796875 -1.109375 Z M 9.109375 -1.109375 "/></g></g></g><g fill="#201f1f" fill-opacity="1"><g transform="translate(11.619225, 20.467097)"><g><path d="M 4.5 0.03125 C 3.96875 0.03125 3.4375 -0.0507812 2.90625 -0.21875 C 2.375 -0.394531 1.90625 -0.65625 1.5 -1 C 1.414062 -1.0625 1.351562 -1.132812 1.3125 -1.21875 C 1.269531 -1.3125 1.25 -1.40625 1.25 -1.5 C 1.25 -1.625 1.300781 -1.75 1.40625 -1.875 C 1.507812 -2 1.644531 -2.0625 1.8125 -2.0625 C 1.945312 -2.0625 2.085938 -2 2.234375 -1.875 C 2.566406 -1.625 2.925781 -1.425781 3.3125 -1.28125 C 3.695312 -1.144531 4.09375 -1.078125 4.5 -1.078125 C 5.25 -1.078125 5.90625 -1.21875 6.46875 -1.5 C 7.03125 -1.789062 7.460938 -2.203125 7.765625 -2.734375 C 8.078125 -3.265625 8.234375 -3.882812 8.234375 -4.59375 C 8.234375 -5.238281 8.09375 -5.800781 7.8125 -6.28125 C 7.53125 -6.769531 7.128906 -7.148438 6.609375 -7.421875 C 6.097656 -7.691406 5.488281 -7.828125 4.78125 -7.828125 C 4.320312 -7.828125 3.898438 -7.753906 3.515625 -7.609375 C 3.140625 -7.472656 2.8125 -7.332031 2.53125 -7.1875 C 2.257812 -7.039062 2.039062 -6.96875 1.875 -6.96875 C 1.726562 -6.96875 1.601562 -7.003906 1.5 -7.078125 C 1.40625 -7.160156 1.34375 -7.257812 1.3125 -7.375 C 1.28125 -7.488281 1.28125 -7.609375 1.3125 -7.734375 L 2.125 -12.859375 C 2.144531 -12.972656 2.207031 -13.078125 2.3125 -13.171875 C 2.425781 -13.273438 2.566406 -13.328125 2.734375 -13.328125 L 8.5 -13.328125 C 8.65625 -13.328125 8.785156 -13.269531 8.890625 -13.15625 C 9.003906 -13.050781 9.0625 -12.921875 9.0625 -12.765625 C 9.0625 -12.597656 9.003906 -12.457031 8.890625 -12.34375 C 8.785156 -12.238281 8.65625 -12.1875 8.5 -12.1875 L 3 -12.1875 L 3.171875 -12.359375 L 2.375 -7.8125 L 2.03125 -8.0625 C 2.195312 -8.1875 2.4375 -8.3125 2.75 -8.4375 C 3.0625 -8.570312 3.410156 -8.6875 3.796875 -8.78125 C 4.191406 -8.875 4.609375 -8.921875 5.046875 -8.921875 C 5.878906 -8.921875 6.617188 -8.738281 7.265625 -8.375 C 7.921875 -8.007812 8.4375 -7.503906 8.8125 -6.859375 C 9.195312 -6.210938 9.390625 -5.46875 9.390625 -4.625 C 9.390625 -3.6875 9.1875 -2.867188 8.78125 -2.171875 C 8.382812 -1.484375 7.816406 -0.941406 7.078125 -0.546875 C 6.347656 -0.160156 5.488281 0.03125 4.5 0.03125 Z M 4.5 0.03125 "/></g></g></g></g></g></g><g clip-path="url(#09278dc28b)"><g transform="matrix(1, 0, 0, 1, 631, 450)"><g clip-path="url(#5be11becd2)"><g fill="#201f1f" fill-opacity="1"><g transform="translate(0.802433, 20.467097)"><g><path d="M 9.109375 -1.109375 C 9.253906 -1.109375 9.378906 -1.050781 9.484375 -0.9375 C 9.597656 -0.832031 9.65625 -0.707031 9.65625 -0.5625 C 9.65625 -0.394531 9.597656 -0.257812 9.484375 -0.15625 C 9.378906 -0.0507812 9.253906 0 9.109375 0 L 1.90625 0 C 1.738281 0 1.59375 -0.046875 1.46875 -0.140625 C 1.34375 -0.234375 1.28125 -0.378906 1.28125 -0.578125 C 1.28125 -0.710938 1.332031 -0.847656 1.4375 -0.984375 L 5.875 -5.875 C 6.582031 -6.644531 7.109375 -7.351562 7.453125 -8 C 7.804688 -8.644531 7.984375 -9.222656 7.984375 -9.734375 C 7.984375 -10.578125 7.726562 -11.253906 7.21875 -11.765625 C 6.707031 -12.285156 6.015625 -12.546875 5.140625 -12.546875 C 4.742188 -12.546875 4.347656 -12.460938 3.953125 -12.296875 C 3.566406 -12.128906 3.222656 -11.910156 2.921875 -11.640625 C 2.628906 -11.367188 2.398438 -11.0625 2.234375 -10.71875 C 2.148438 -10.582031 2.066406 -10.488281 1.984375 -10.4375 C 1.898438 -10.394531 1.804688 -10.375 1.703125 -10.375 C 1.554688 -10.375 1.425781 -10.421875 1.3125 -10.515625 C 1.195312 -10.609375 1.140625 -10.726562 1.140625 -10.875 C 1.140625 -10.957031 1.160156 -11.039062 1.203125 -11.125 C 1.242188 -11.21875 1.3125 -11.320312 1.40625 -11.4375 C 1.632812 -11.84375 1.953125 -12.207031 2.359375 -12.53125 C 2.765625 -12.863281 3.222656 -13.128906 3.734375 -13.328125 C 4.242188 -13.535156 4.738281 -13.640625 5.21875 -13.640625 C 6.039062 -13.640625 6.75 -13.476562 7.34375 -13.15625 C 7.9375 -12.84375 8.394531 -12.398438 8.71875 -11.828125 C 9.050781 -11.265625 9.21875 -10.59375 9.21875 -9.8125 C 9.21875 -9.144531 9.007812 -8.414062 8.59375 -7.625 C 8.175781 -6.84375 7.554688 -6 6.734375 -5.09375 L 3 -0.890625 L 2.796875 -1.109375 Z M 9.109375 -1.109375 "/></g></g></g><g fill="#201f1f" fill-opacity="1"><g transform="translate(11.437637, 20.467097)"><g><path d="M 5.515625 0.1875 C 4.765625 0.1875 4.113281 0.0546875 3.5625 -0.203125 C 3.007812 -0.472656 2.546875 -0.835938 2.171875 -1.296875 C 1.804688 -1.753906 1.535156 -2.269531 1.359375 -2.84375 C 1.191406 -3.414062 1.109375 -4.003906 1.109375 -4.609375 C 1.109375 -5.222656 1.1875 -5.882812 1.34375 -6.59375 C 1.5 -7.300781 1.734375 -8.019531 2.046875 -8.75 C 2.367188 -9.476562 2.765625 -10.171875 3.234375 -10.828125 C 3.703125 -11.484375 4.242188 -12.066406 4.859375 -12.578125 C 5.484375 -13.097656 6.1875 -13.507812 6.96875 -13.8125 C 7.0625 -13.832031 7.140625 -13.84375 7.203125 -13.84375 C 7.367188 -13.84375 7.507812 -13.796875 7.625 -13.703125 C 7.75 -13.617188 7.8125 -13.46875 7.8125 -13.25 C 7.8125 -13.125 7.769531 -13.007812 7.6875 -12.90625 C 7.601562 -12.8125 7.492188 -12.738281 7.359375 -12.6875 C 6.816406 -12.457031 6.28125 -12.128906 5.75 -11.703125 C 5.226562 -11.285156 4.742188 -10.800781 4.296875 -10.25 C 3.847656 -9.695312 3.46875 -9.101562 3.15625 -8.46875 C 2.84375 -7.84375 2.625 -7.203125 2.5 -6.546875 L 2.078125 -6.296875 C 2.304688 -6.722656 2.601562 -7.097656 2.96875 -7.421875 C 3.332031 -7.742188 3.75 -8.003906 4.21875 -8.203125 C 4.695312 -8.398438 5.210938 -8.5 5.765625 -8.5 C 6.335938 -8.5 6.863281 -8.378906 7.34375 -8.140625 C 7.832031 -7.898438 8.253906 -7.570312 8.609375 -7.15625 C 8.960938 -6.738281 9.238281 -6.265625 9.4375 -5.734375 C 9.632812 -5.210938 9.734375 -4.671875 9.734375 -4.109375 C 9.734375 -3.347656 9.550781 -2.640625 9.1875 -1.984375 C 8.820312 -1.335938 8.320312 -0.8125 7.6875 -0.40625 C 7.050781 -0.0078125 6.328125 0.1875 5.515625 0.1875 Z M 5.484375 -0.921875 C 6.078125 -0.921875 6.601562 -1.054688 7.0625 -1.328125 C 7.53125 -1.597656 7.894531 -1.972656 8.15625 -2.453125 C 8.414062 -2.929688 8.546875 -3.484375 8.546875 -4.109375 C 8.546875 -4.679688 8.429688 -5.210938 8.203125 -5.703125 C 7.984375 -6.203125 7.648438 -6.609375 7.203125 -6.921875 C 6.765625 -7.234375 6.21875 -7.390625 5.5625 -7.390625 C 4.882812 -7.390625 4.300781 -7.234375 3.8125 -6.921875 C 3.320312 -6.617188 2.941406 -6.210938 2.671875 -5.703125 C 2.410156 -5.203125 2.28125 -4.648438 2.28125 -4.046875 C 2.28125 -3.515625 2.40625 -3.007812 2.65625 -2.53125 C 2.914062 -2.050781 3.285156 -1.660156 3.765625 -1.359375 C 4.253906 -1.066406 4.828125 -0.921875 5.484375 -0.921875 Z M 5.484375 -0.921875 "/></g></g></g></g></g></g><g clip-path="url(#c7cab220ce)"><g transform="matrix(1, 0, 0, 1, 757, 450)"><g clip-path="url(#38d5e27399)"><g fill="#201f1f" fill-opacity="1"><g transform="translate(0.620787, 20.467097)"><g><path d="M 9.109375 -1.109375 C 9.253906 -1.109375 9.378906 -1.050781 9.484375 -0.9375 C 9.597656 -0.832031 9.65625 -0.707031 9.65625 -0.5625 C 9.65625 -0.394531 9.597656 -0.257812 9.484375 -0.15625 C 9.378906 -0.0507812 9.253906 0 9.109375 0 L 1.90625 0 C 1.738281 0 1.59375 -0.046875 1.46875 -0.140625 C 1.34375 -0.234375 1.28125 -0.378906 1.28125 -0.578125 C 1.28125 -0.710938 1.332031 -0.847656 1.4375 -0.984375 L 5.875 -5.875 C 6.582031 -6.644531 7.109375 -7.351562 7.453125 -8 C 7.804688 -8.644531 7.984375 -9.222656 7.984375 -9.734375 C 7.984375 -10.578125 7.726562 -11.253906 7.21875 -11.765625 C 6.707031 -12.285156 6.015625 -12.546875 5.140625 -12.546875 C 4.742188 -12.546875 4.347656 -12.460938 3.953125 -12.296875 C 3.566406 -12.128906 3.222656 -11.910156 2.921875 -11.640625 C 2.628906 -11.367188 2.398438 -11.0625 2.234375 -10.71875 C 2.148438 -10.582031 2.066406 -10.488281 1.984375 -10.4375 C 1.898438 -10.394531 1.804688 -10.375 1.703125 -10.375 C 1.554688 -10.375 1.425781 -10.421875 1.3125 -10.515625 C 1.195312 -10.609375 1.140625 -10.726562 1.140625 -10.875 C 1.140625 -10.957031 1.160156 -11.039062 1.203125 -11.125 C 1.242188 -11.21875 1.3125 -11.320312 1.40625 -11.4375 C 1.632812 -11.84375 1.953125 -12.207031 2.359375 -12.53125 C 2.765625 -12.863281 3.222656 -13.128906 3.734375 -13.328125 C 4.242188 -13.535156 4.738281 -13.640625 5.21875 -13.640625 C 6.039062 -13.640625 6.75 -13.476562 7.34375 -13.15625 C 7.9375 -12.84375 8.394531 -12.398438 8.71875 -11.828125 C 9.050781 -11.265625 9.21875 -10.59375 9.21875 -9.8125 C 9.21875 -9.144531 9.007812 -8.414062 8.59375 -7.625 C 8.175781 -6.84375 7.554688 -6 6.734375 -5.09375 L 3 -0.890625 L 2.796875 -1.109375 Z M 9.109375 -1.109375 "/></g></g></g><g fill="#201f1f" fill-opacity="1"><g transform="translate(11.25599, 20.467097)"><g><path d="M 3.421875 0.0625 C 3.265625 0.0625 3.117188 0.0078125 2.984375 -0.09375 C 2.859375 -0.195312 2.796875 -0.328125 2.796875 -0.484375 C 2.796875 -0.566406 2.816406 -0.660156 2.859375 -0.765625 L 7.96875 -12.5 L 8.1875 -12.234375 L 1.6875 -12.234375 C 1.53125 -12.234375 1.398438 -12.285156 1.296875 -12.390625 C 1.191406 -12.503906 1.140625 -12.640625 1.140625 -12.796875 C 1.140625 -12.953125 1.191406 -13.082031 1.296875 -13.1875 C 1.398438 -13.289062 1.53125 -13.34375 1.6875 -13.34375 L 8.734375 -13.34375 C 8.929688 -13.34375 9.070312 -13.289062 9.15625 -13.1875 C 9.25 -13.082031 9.296875 -12.957031 9.296875 -12.8125 C 9.296875 -12.707031 9.273438 -12.609375 9.234375 -12.515625 L 3.953125 -0.328125 C 3.910156 -0.210938 3.835938 -0.117188 3.734375 -0.046875 C 3.640625 0.0234375 3.535156 0.0625 3.421875 0.0625 Z M 3.421875 0.0625 "/></g></g></g></g></g></g><g clip-path="url(#ddaee85a93)"><g transform="matrix(1, 0, 0, 1, 2, 600)"><g clip-path="url(#9c6fd7e088)"><g fill="#201f1f" fill-opacity="1"><g transform="translate(0.710462, 20.225039)"><g><path d="M 9.109375 -1.109375 C 9.253906 -1.109375 9.378906 -1.050781 9.484375 -0.9375 C 9.597656 -0.832031 9.65625 -0.707031 9.65625 -0.5625 C 9.65625 -0.394531 9.597656 -0.257812 9.484375 -0.15625 C 9.378906 -0.0507812 9.253906 0 9.109375 0 L 1.90625 0 C 1.738281 0 1.59375 -0.046875 1.46875 -0.140625 C 1.34375 -0.234375 1.28125 -0.378906 1.28125 -0.578125 C 1.28125 -0.710938 1.332031 -0.847656 1.4375 -0.984375 L 5.875 -5.875 C 6.582031 -6.644531 7.109375 -7.351562 7.453125 -8 C 7.804688 -8.644531 7.984375 -9.222656 7.984375 -9.734375 C 7.984375 -10.578125 7.726562 -11.253906 7.21875 -11.765625 C 6.707031 -12.285156 6.015625 -12.546875 5.140625 -12.546875 C 4.742188 -12.546875 4.347656 -12.460938 3.953125 -12.296875 C 3.566406 -12.128906 3.222656 -11.910156 2.921875 -11.640625 C 2.628906 -11.367188 2.398438 -11.0625 2.234375 -10.71875 C 2.148438 -10.582031 2.066406 -10.488281 1.984375 -10.4375 C 1.898438 -10.394531 1.804688 -10.375 1.703125 -10.375 C 1.554688 -10.375 1.425781 -10.421875 1.3125 -10.515625 C 1.195312 -10.609375 1.140625 -10.726562 1.140625 -10.875 C 1.140625 -10.957031 1.160156 -11.039062 1.203125 -11.125 C 1.242188 -11.21875 1.3125 -11.320312 1.40625 -11.4375 C 1.632812 -11.84375 1.953125 -12.207031 2.359375 -12.53125 C 2.765625 -12.863281 3.222656 -13.128906 3.734375 -13.328125 C 4.242188 -13.535156 4.738281 -13.640625 5.21875 -13.640625 C 6.039062 -13.640625 6.75 -13.476562 7.34375 -13.15625 C 7.9375 -12.84375 8.394531 -12.398438 8.71875 -11.828125 C 9.050781 -11.265625 9.21875 -10.59375 9.21875 -9.8125 C 9.21875 -9.144531 9.007812 -8.414062 8.59375 -7.625 C 8.175781 -6.84375 7.554688 -6 6.734375 -5.09375 L 3 -0.890625 L 2.796875 -1.109375 Z M 9.109375 -1.109375 "/></g></g></g><g fill="#201f1f" fill-opacity="1"><g transform="translate(11.345666, 20.225039)"><g><path d="M 6.984375 -6.765625 L 6.9375 -6.9375 C 7.363281 -6.769531 7.753906 -6.519531 8.109375 -6.1875 C 8.472656 -5.863281 8.765625 -5.476562 8.984375 -5.03125 C 9.203125 -4.59375 9.3125 -4.113281 9.3125 -3.59375 C 9.3125 -2.894531 9.128906 -2.265625 8.765625 -1.703125 C 8.398438 -1.140625 7.90625 -0.691406 7.28125 -0.359375 C 6.65625 -0.0234375 5.957031 0.140625 5.1875 0.140625 C 4.40625 0.140625 3.703125 -0.0234375 3.078125 -0.359375 C 2.460938 -0.691406 1.972656 -1.140625 1.609375 -1.703125 C 1.242188 -2.265625 1.0625 -2.894531 1.0625 -3.59375 C 1.0625 -4.15625 1.171875 -4.65625 1.390625 -5.09375 C 1.617188 -5.539062 1.914062 -5.914062 2.28125 -6.21875 C 2.644531 -6.53125 3.023438 -6.769531 3.421875 -6.9375 L 3.359375 -6.734375 C 3.015625 -6.898438 2.691406 -7.128906 2.390625 -7.421875 C 2.085938 -7.710938 1.835938 -8.054688 1.640625 -8.453125 C 1.453125 -8.859375 1.359375 -9.304688 1.359375 -9.796875 C 1.359375 -10.484375 1.523438 -11.101562 1.859375 -11.65625 C 2.203125 -12.207031 2.664062 -12.640625 3.25 -12.953125 C 3.832031 -13.273438 4.476562 -13.4375 5.1875 -13.4375 C 5.882812 -13.4375 6.519531 -13.273438 7.09375 -12.953125 C 7.664062 -12.640625 8.117188 -12.207031 8.453125 -11.65625 C 8.796875 -11.101562 8.96875 -10.484375 8.96875 -9.796875 C 8.96875 -9.296875 8.867188 -8.847656 8.671875 -8.453125 C 8.484375 -8.054688 8.234375 -7.710938 7.921875 -7.421875 C 7.617188 -7.128906 7.304688 -6.910156 6.984375 -6.765625 Z M 2.546875 -9.796875 C 2.546875 -9.285156 2.664062 -8.835938 2.90625 -8.453125 C 3.15625 -8.066406 3.476562 -7.765625 3.875 -7.546875 C 4.269531 -7.328125 4.707031 -7.21875 5.1875 -7.21875 C 5.644531 -7.21875 6.070312 -7.328125 6.46875 -7.546875 C 6.863281 -7.765625 7.179688 -8.066406 7.421875 -8.453125 C 7.660156 -8.835938 7.78125 -9.285156 7.78125 -9.796875 C 7.78125 -10.546875 7.535156 -11.15625 7.046875 -11.625 C 6.554688 -12.101562 5.9375 -12.34375 5.1875 -12.34375 C 4.40625 -12.34375 3.769531 -12.101562 3.28125 -11.625 C 2.789062 -11.15625 2.546875 -10.546875 2.546875 -9.796875 Z M 5.1875 -0.953125 C 6.050781 -0.953125 6.753906 -1.203125 7.296875 -1.703125 C 7.847656 -2.203125 8.125 -2.832031 8.125 -3.59375 C 8.125 -4.101562 7.988281 -4.5625 7.71875 -4.96875 C 7.445312 -5.382812 7.085938 -5.707031 6.640625 -5.9375 C 6.191406 -6.164062 5.707031 -6.28125 5.1875 -6.28125 C 4.65625 -6.28125 4.164062 -6.164062 3.71875 -5.9375 C 3.269531 -5.707031 2.910156 -5.382812 2.640625 -4.96875 C 2.378906 -4.5625 2.25 -4.101562 2.25 -3.59375 C 2.25 -2.832031 2.515625 -2.203125 3.046875 -1.703125 C 3.585938 -1.203125 4.300781 -0.953125 5.1875 -0.953125 Z M 5.1875 -0.953125 "/></g></g></g></g></g></g><g clip-path="url(#b1b1423c77)"><g transform="matrix(1, 0, 0, 1, 128, 600)"><g clip-path="url(#98e2a20e5e)"><g fill="#201f1f" fill-opacity="1"><g transform="translate(0.528859, 20.225039)"><g><path d="M 9.109375 -1.109375 C 9.253906 -1.109375 9.378906 -1.050781 9.484375 -0.9375 C 9.597656 -0.832031 9.65625 -0.707031 9.65625 -0.5625 C 9.65625 -0.394531 9.597656 -0.257812 9.484375 -0.15625 C 9.378906 -0.0507812 9.253906 0 9.109375 0 L 1.90625 0 C 1.738281 0 1.59375 -0.046875 1.46875 -0.140625 C 1.34375 -0.234375 1.28125 -0.378906 1.28125 -0.578125 C 1.28125 -0.710938 1.332031 -0.847656 1.4375 -0.984375 L 5.875 -5.875 C 6.582031 -6.644531 7.109375 -7.351562 7.453125 -8 C 7.804688 -8.644531 7.984375 -9.222656 7.984375 -9.734375 C 7.984375 -10.578125 7.726562 -11.253906 7.21875 -11.765625 C 6.707031 -12.285156 6.015625 -12.546875 5.140625 -12.546875 C 4.742188 -12.546875 4.347656 -12.460938 3.953125 -12.296875 C 3.566406 -12.128906 3.222656 -11.910156 2.921875 -11.640625 C 2.628906 -11.367188 2.398438 -11.0625 2.234375 -10.71875 C 2.148438 -10.582031 2.066406 -10.488281 1.984375 -10.4375 C 1.898438 -10.394531 1.804688 -10.375 1.703125 -10.375 C 1.554688 -10.375 1.425781 -10.421875 1.3125 -10.515625 C 1.195312 -10.609375 1.140625 -10.726562 1.140625 -10.875 C 1.140625 -10.957031 1.160156 -11.039062 1.203125 -11.125 C 1.242188 -11.21875 1.3125 -11.320312 1.40625 -11.4375 C 1.632812 -11.84375 1.953125 -12.207031 2.359375 -12.53125 C 2.765625 -12.863281 3.222656 -13.128906 3.734375 -13.328125 C 4.242188 -13.535156 4.738281 -13.640625 5.21875 -13.640625 C 6.039062 -13.640625 6.75 -13.476562 7.34375 -13.15625 C 7.9375 -12.84375 8.394531 -12.398438 8.71875 -11.828125 C 9.050781 -11.265625 9.21875 -10.59375 9.21875 -9.8125 C 9.21875 -9.144531 9.007812 -8.414062 8.59375 -7.625 C 8.175781 -6.84375 7.554688 -6 6.734375 -5.09375 L 3 -0.890625 L 2.796875 -1.109375 Z M 9.109375 -1.109375 "/></g></g></g><g fill="#201f1f" fill-opacity="1"><g transform="translate(11.164063, 20.225039)"><g><path d="M 5.3125 -13.65625 C 6.070312 -13.65625 6.726562 -13.519531 7.28125 -13.25 C 7.84375 -12.976562 8.300781 -12.613281 8.65625 -12.15625 C 9.019531 -11.707031 9.289062 -11.191406 9.46875 -10.609375 C 9.644531 -10.035156 9.734375 -9.453125 9.734375 -8.859375 C 9.734375 -8.242188 9.648438 -7.585938 9.484375 -6.890625 C 9.328125 -6.191406 9.09375 -5.484375 8.78125 -4.765625 C 8.46875 -4.054688 8.078125 -3.378906 7.609375 -2.734375 C 7.140625 -2.097656 6.59375 -1.523438 5.96875 -1.015625 C 5.34375 -0.503906 4.644531 -0.109375 3.875 0.171875 C 3.769531 0.203125 3.6875 0.21875 3.625 0.21875 C 3.476562 0.21875 3.34375 0.160156 3.21875 0.046875 C 3.09375 -0.0546875 3.03125 -0.203125 3.03125 -0.390625 C 3.03125 -0.515625 3.066406 -0.625 3.140625 -0.71875 C 3.222656 -0.8125 3.34375 -0.882812 3.5 -0.9375 C 4.226562 -1.25 4.929688 -1.707031 5.609375 -2.3125 C 6.285156 -2.914062 6.867188 -3.617188 7.359375 -4.421875 C 7.859375 -5.222656 8.191406 -6.050781 8.359375 -6.90625 L 8.75 -7.15625 C 8.539062 -6.75 8.25 -6.378906 7.875 -6.046875 C 7.5 -5.710938 7.078125 -5.453125 6.609375 -5.265625 C 6.148438 -5.085938 5.644531 -5 5.09375 -5 C 4.269531 -5 3.5625 -5.195312 2.96875 -5.59375 C 2.375 -6 1.914062 -6.535156 1.59375 -7.203125 C 1.269531 -7.867188 1.109375 -8.585938 1.109375 -9.359375 C 1.109375 -10.109375 1.289062 -10.804688 1.65625 -11.453125 C 2.019531 -12.109375 2.519531 -12.640625 3.15625 -13.046875 C 3.789062 -13.453125 4.507812 -13.65625 5.3125 -13.65625 Z M 5.359375 -12.546875 C 4.753906 -12.546875 4.222656 -12.410156 3.765625 -12.140625 C 3.304688 -11.867188 2.941406 -11.492188 2.671875 -11.015625 C 2.410156 -10.535156 2.28125 -9.984375 2.28125 -9.359375 C 2.28125 -8.785156 2.390625 -8.25 2.609375 -7.75 C 2.835938 -7.257812 3.175781 -6.863281 3.625 -6.5625 C 4.070312 -6.257812 4.617188 -6.109375 5.265625 -6.109375 C 5.953125 -6.109375 6.539062 -6.257812 7.03125 -6.5625 C 7.519531 -6.863281 7.894531 -7.257812 8.15625 -7.75 C 8.425781 -8.25 8.5625 -8.800781 8.5625 -9.40625 C 8.5625 -9.957031 8.429688 -10.46875 8.171875 -10.9375 C 7.921875 -11.414062 7.554688 -11.800781 7.078125 -12.09375 C 6.609375 -12.394531 6.035156 -12.546875 5.359375 -12.546875 Z M 5.359375 -12.546875 "/></g></g></g></g></g></g><g clip-path="url(#63a2d64bee)"><g transform="matrix(1, 0, 0, 1, 254, 600)"><g clip-path="url(#840b1b3a17)"><g fill="#201f1f" fill-opacity="1"><g transform="translate(0.347256, 20.225039)"><g><path d="M 1.703125 -1.984375 C 1.773438 -1.984375 1.84375 -1.96875 1.90625 -1.9375 C 1.976562 -1.914062 2.066406 -1.859375 2.171875 -1.765625 C 2.441406 -1.484375 2.757812 -1.269531 3.125 -1.125 C 3.5 -0.976562 3.921875 -0.90625 4.390625 -0.90625 C 5.023438 -0.90625 5.597656 -1.046875 6.109375 -1.328125 C 6.628906 -1.609375 7.039062 -2 7.34375 -2.5 C 7.65625 -3.007812 7.8125 -3.59375 7.8125 -4.25 C 7.8125 -4.988281 7.648438 -5.582031 7.328125 -6.03125 C 7.003906 -6.488281 6.585938 -6.828125 6.078125 -7.046875 C 5.566406 -7.273438 5.050781 -7.390625 4.53125 -7.390625 C 4.394531 -7.390625 4.257812 -7.378906 4.125 -7.359375 C 3.988281 -7.335938 3.863281 -7.316406 3.75 -7.296875 C 3.632812 -7.273438 3.539062 -7.265625 3.46875 -7.265625 C 3.300781 -7.265625 3.171875 -7.316406 3.078125 -7.421875 C 2.992188 -7.523438 2.953125 -7.660156 2.953125 -7.828125 C 2.953125 -7.921875 2.972656 -8.003906 3.015625 -8.078125 C 3.054688 -8.148438 3.109375 -8.226562 3.171875 -8.3125 L 7.0625 -12.5625 L 7.296875 -12.25 L 1.484375 -12.25 C 1.328125 -12.25 1.191406 -12.300781 1.078125 -12.40625 C 0.972656 -12.519531 0.921875 -12.65625 0.921875 -12.8125 C 0.921875 -12.957031 0.972656 -13.082031 1.078125 -13.1875 C 1.191406 -13.289062 1.328125 -13.34375 1.484375 -13.34375 L 7.9375 -13.34375 C 8.144531 -13.34375 8.296875 -13.273438 8.390625 -13.140625 C 8.484375 -13.003906 8.53125 -12.875 8.53125 -12.75 C 8.53125 -12.675781 8.507812 -12.601562 8.46875 -12.53125 C 8.425781 -12.457031 8.375 -12.382812 8.3125 -12.3125 L 4.421875 -8.0625 L 4 -8.3125 C 4.03125 -8.351562 4.15625 -8.394531 4.375 -8.4375 C 4.601562 -8.476562 4.785156 -8.5 4.921875 -8.5 C 5.617188 -8.5 6.273438 -8.332031 6.890625 -8 C 7.515625 -7.675781 8.019531 -7.203125 8.40625 -6.578125 C 8.800781 -5.953125 9 -5.1875 9 -4.28125 C 9 -3.382812 8.785156 -2.597656 8.359375 -1.921875 C 7.941406 -1.253906 7.375 -0.734375 6.65625 -0.359375 C 5.945312 0.00390625 5.15625 0.1875 4.28125 0.1875 C 3.757812 0.1875 3.238281 0.0976562 2.71875 -0.078125 C 2.207031 -0.253906 1.757812 -0.523438 1.375 -0.890625 C 1.289062 -0.960938 1.226562 -1.035156 1.1875 -1.109375 C 1.15625 -1.191406 1.140625 -1.269531 1.140625 -1.34375 C 1.140625 -1.5 1.191406 -1.644531 1.296875 -1.78125 C 1.398438 -1.914062 1.535156 -1.984375 1.703125 -1.984375 Z M 1.703125 -1.984375 "/></g></g></g><g fill="#201f1f" fill-opacity="1"><g transform="translate(10.406551, 20.225039)"><g><path d="M 5.703125 0.1875 C 4.679688 0.1875 3.820312 -0.117188 3.125 -0.734375 C 2.4375 -1.347656 1.921875 -2.175781 1.578125 -3.21875 C 1.234375 -4.257812 1.0625 -5.425781 1.0625 -6.71875 C 1.0625 -8.03125 1.234375 -9.207031 1.578125 -10.25 C 1.921875 -11.289062 2.4375 -12.113281 3.125 -12.71875 C 3.820312 -13.332031 4.679688 -13.640625 5.703125 -13.640625 C 6.753906 -13.640625 7.617188 -13.332031 8.296875 -12.71875 C 8.984375 -12.113281 9.5 -11.289062 9.84375 -10.25 C 10.195312 -9.207031 10.375 -8.03125 10.375 -6.71875 C 10.375 -5.425781 10.195312 -4.257812 9.84375 -3.21875 C 9.5 -2.175781 8.984375 -1.347656 8.296875 -0.734375 C 7.617188 -0.117188 6.753906 0.1875 5.703125 0.1875 Z M 5.703125 -1 C 6.460938 -1 7.09375 -1.234375 7.59375 -1.703125 C 8.101562 -2.179688 8.488281 -2.851562 8.75 -3.71875 C 9.007812 -4.582031 9.140625 -5.582031 9.140625 -6.71875 C 9.140625 -7.875 9.007812 -8.882812 8.75 -9.75 C 8.488281 -10.613281 8.101562 -11.28125 7.59375 -11.75 C 7.09375 -12.226562 6.460938 -12.46875 5.703125 -12.46875 C 4.960938 -12.46875 4.335938 -12.226562 3.828125 -11.75 C 3.328125 -11.28125 2.941406 -10.613281 2.671875 -9.75 C 2.410156 -8.882812 2.28125 -7.875 2.28125 -6.71875 C 2.28125 -5.582031 2.410156 -4.582031 2.671875 -3.71875 C 2.941406 -2.851562 3.328125 -2.179688 3.828125 -1.703125 C 4.335938 -1.234375 4.960938 -1 5.703125 -1 Z M 5.703125 -1 "/></g></g></g></g></g></g><path stroke-linecap="butt" transform="matrix(0.75, 0, 0, 0.75, 0.0000031164, 0.00002)" fill-opacity="1" fill="#000000" fill-rule="nonzero" stroke-linejoin="miter" d="M 0.807288 1.614557 L 0.807288 998.385439 M 168.562504 1.614557 L 168.562504 998.385439 M 336.322929 1.614557 L 336.322929 998.385439 M 504.078145 1.614557 L 504.078145 998.385439 M 671.83857 1.614557 L 671.83857 998.385439 M 839.593787 1.614557 L 839.593787 998.385439 M 1007.354212 1.614557 L 1007.354212 998.385439 M 1175.114636 1.614557 L 1175.114636 998.385439 M -0.0000041552 0.807265 L 1175.91672 0.807265 M -0.0000041552 200.484358 L 1175.91672 200.484358 M -0.0000041552 400.161451 L 1175.91672 400.161451 M -0.0000041552 599.838544 L 1175.91672 599.838544 M -0.0000041552 799.515637 L 1175.91672 799.515637 M -0.0000041552 999.19273 L 1175.91672 999.19273 " stroke="#000000" stroke-width="1.613946" stroke-opacity="1" stroke-miterlimit="4"/></svg>