<svg xmlns="http://www.w3.org/2000/svg" xmlns:xlink="http://www.w3.org/1999/xlink" width="1176" zoomAndPan="magnify" viewBox="0 0 882 749.999995" height="1000" preserveAspectRatio="xMidYMid meet" version="1.0"><defs><g/><clipPath id="2b4d76d459"><path d="M 2 1.207031 L 11 1.207031 L 11 27 L 2 27 Z M 2 1.207031 " clip-rule="nonzero"/></clipPath><clipPath id="f087f16e6c"><rect x="0" width="9" y="0" height="26"/></clipPath><clipPath id="c9007264e7"><path d="M 128 1.207031 L 140 1.207031 L 140 27 L 128 27 Z M 128 1.207031 " clip-rule="nonzero"/></clipPath><clipPath id="360ede5fe1"><rect x="0" width="12" y="0" height="26"/></clipPath><clipPath id="ca82dcf410"><path d="M 254 1.207031 L 265 1.207031 L 265 27 L 254 27 Z M 254 1.207031 " clip-rule="nonzero"/></clipPath><clipPath id="d00744026c"><rect x="0" width="11" y="0" height="26"/></clipPath><clipPath id="635f931dc6"><path d="M 380 1.207031 L 391 1.207031 L 391 27 L 380 27 Z M 380 1.207031 " clip-rule="nonzero"/></clipPath><clipPath id="0a8ad326de"><path d="M 0.160156 6 L 10 6 L 10 21 L 0.160156 21 Z M 0.160156 6 " clip-rule="nonzero"/></clipPath><clipPath id="6967dc5e45"><rect x="0" width="11" y="0" height="26"/></clipPath><clipPath id="7d0fec751b"><path d="M 505 1.207031 L 517 1.207031 L 517 27 L 505 27 Z M 505 1.207031 " clip-rule="nonzero"/></clipPath><clipPath id="4f8b5dcd4d"><rect x="0" width="12" y="0" height="26"/></clipPath><clipPath id="8a3fbb9c31"><path d="M 631 1.207031 L 643 1.207031 L 643 27 L 631 27 Z M 631 1.207031 " clip-rule="nonzero"/></clipPath><clipPath id="e7cc2300ce"><rect x="0" width="12" y="0" height="26"/></clipPath><clipPath id="7535db2e6f"><path d="M 757 1.207031 L 768 1.207031 L 768 27 L 757 27 Z M 757 1.207031 " clip-rule="nonzero"/></clipPath><clipPath id="5424be5756"><rect x="0" width="11" y="0" height="26"/></clipPath><clipPath id="3d24dbe5f0"><rect x="0" width="12" y="0" height="25"/></clipPath><clipPath id="73dffa5524"><rect x="0" width="12" y="0" height="25"/></clipPath><clipPath id="45d2180a38"><path d="M 0.160156 6 L 6 6 L 6 20 L 0.160156 20 Z M 0.160156 6 " clip-rule="nonzero"/></clipPath><clipPath id="9755b77604"><rect x="0" width="20" y="0" height="25"/></clipPath><clipPath id="c438c1612b"><path d="M 0.160156 6 L 6 6 L 6 20 L 0.160156 20 Z M 0.160156 6 " clip-rule="nonzero"/></clipPath><clipPath id="894276712f"><rect x="0" width="15" y="0" height="25"/></clipPath><clipPath id="e9c724b999"><rect x="0" width="20" y="0" height="25"/></clipPath><clipPath id="dd9c6af423"><rect x="0" width="19" y="0" height="25"/></clipPath><clipPath id="d2b8568283"><rect x="0" width="19" y="0" height="25"/></clipPath><clipPath id="552b89c0e4"><rect x="0" width="19" y="0" height="25"/></clipPath><clipPath id="126c256bf6"><path d="M 0.398438 6 L 6 6 L 6 20 L 0.398438 20 Z M 0.398438 6 " clip-rule="nonzero"/></clipPath><clipPath id="f8ea24ea94"><rect x="0" width="19" y="0" height="25"/></clipPath><clipPath id="198ac935b2"><path d="M 0.160156 6 L 6 6 L 6 20 L 0.160156 20 Z M 0.160156 6 " clip-rule="nonzero"/></clipPath><clipPath id="7ad1adb6da"><rect x="0" width="18" y="0" height="25"/></clipPath><clipPath id="1d1dedd339"><path d="M 0.160156 6 L 6 6 L 6 20 L 0.160156 20 Z M 0.160156 6 " clip-rule="nonzero"/></clipPath><clipPath id="a3f323f64b"><rect x="0" width="18" y="0" height="25"/></clipPath><clipPath id="48f2463e7f"><rect x="0" width="20" y="0" height="25"/></clipPath><clipPath id="001d49d7fe"><rect x="0" width="24" y="0" height="25"/></clipPath><clipPath id="59440e7bb3"><rect x="0" width="19" y="0" height="25"/></clipPath><clipPath id="86958cc7cc"><path d="M 2 450.484375 L 25 450.484375 L 25 476 L 2 476 Z M 2 450.484375 " clip-rule="nonzero"/></clipPath><clipPath id="a9017e72d3"><rect x="0" width="23" y="0" height="26"/></clipPath><clipPath id="8fe7c2fadc"><path d="M 128 450.484375 L 150 450.484375 L 150 476 L 128 476 Z M 128 450.484375 " clip-rule="nonzero"/></clipPath><clipPath id="efe278d763"><rect x="0" width="22" y="0" height="26"/></clipPath><clipPath id="812a93509a"><path d="M 254 450.484375 L 276 450.484375 L 276 476 L 254 476 Z M 254 450.484375 " clip-rule="nonzero"/></clipPath><clipPath id="6767ea5f82"><rect x="0" width="22" y="0" height="26"/></clipPath><clipPath id="e7f99d94e5"><path d="M 380 450.484375 L 402 450.484375 L 402 476 L 380 476 Z M 380 450.484375 " clip-rule="nonzero"/></clipPath><clipPath id="8103b6a63d"><rect x="0" width="22" y="0" height="26"/></clipPath><clipPath id="7cb78b56c0"><path d="M 505 450.484375 L 528 450.484375 L 528 476 L 505 476 Z M 505 450.484375 " clip-rule="nonzero"/></clipPath><clipPath id="052768488b"><rect x="0" width="23" y="0" height="26"/></clipPath><clipPath id="7cdce03aee"><path d="M 631 450.484375 L 653 450.484375 L 653 476 L 631 476 Z M 631 450.484375 " clip-rule="nonzero"/></clipPath><clipPath id="c9f1b7370e"><rect x="0" width="22" y="0" height="26"/></clipPath><clipPath id="97e7445d6e"><path d="M 757 450.484375 L 779 450.484375 L 779 476 L 757 476 Z M 757 450.484375 " clip-rule="nonzero"/></clipPath><clipPath id="d25b8cd5de"><rect x="0" width="22" y="0" height="26"/></clipPath><clipPath id="3e3ee0fb59"><path d="M 2 600.242188 L 25 600.242188 L 25 626 L 2 626 Z M 2 600.242188 " clip-rule="nonzero"/></clipPath><clipPath id="5e2e2f43fb"><rect x="0" width="23" y="0" height="26"/></clipPath><clipPath id="2b3bb6ba08"><path d="M 128 600.242188 L 151 600.242188 L 151 626 L 128 626 Z M 128 600.242188 " clip-rule="nonzero"/></clipPath><clipPath id="0f1d57d2e9"><rect x="0" width="23" y="0" height="26"/></clipPath></defs><g clip-path="url(#2b4d76d459)"><g transform="matrix(1, 0, 0, 1, 2, 1)"><g clip-path="url(#f087f16e6c)"><g fill="#201f1f" fill-opacity="1"><g transform="translate(0.707523, 20.145605)"><g><path d="M 4.328125 0 C 4.148438 0 4.003906 -0.0546875 3.890625 -0.171875 C 3.773438 -0.285156 3.71875 -0.421875 3.71875 -0.578125 L 3.71875 -12.109375 L 3.921875 -11.921875 L 1.375 -10.203125 C 1.269531 -10.128906 1.160156 -10.09375 1.046875 -10.09375 C 0.898438 -10.09375 0.765625 -10.15625 0.640625 -10.28125 C 0.515625 -10.414062 0.453125 -10.554688 0.453125 -10.703125 C 0.453125 -10.910156 0.554688 -11.070312 0.765625 -11.1875 L 3.96875 -13.3125 C 4.039062 -13.363281 4.117188 -13.394531 4.203125 -13.40625 C 4.285156 -13.414062 4.359375 -13.414062 4.421875 -13.40625 C 4.585938 -13.394531 4.710938 -13.332031 4.796875 -13.21875 C 4.890625 -13.113281 4.9375 -12.984375 4.9375 -12.828125 L 4.9375 -0.578125 C 4.9375 -0.421875 4.878906 -0.285156 4.765625 -0.171875 C 4.648438 -0.0546875 4.503906 0 4.328125 0 Z M 4.328125 0 "/></g></g></g></g></g></g><g clip-path="url(#c9007264e7)"><g transform="matrix(1, 0, 0, 1, 128, 1)"><g clip-path="url(#360ede5fe1)"><g fill="#201f1f" fill-opacity="1"><g transform="translate(0.52634, 20.145605)"><g><path d="M 9.078125 -1.109375 C 9.234375 -1.109375 9.363281 -1.050781 9.46875 -0.9375 C 9.582031 -0.832031 9.640625 -0.707031 9.640625 -0.5625 C 9.640625 -0.394531 9.582031 -0.257812 9.46875 -0.15625 C 9.363281 -0.0507812 9.234375 0 9.078125 0 L 1.890625 0 C 1.722656 0 1.578125 -0.046875 1.453125 -0.140625 C 1.335938 -0.234375 1.28125 -0.378906 1.28125 -0.578125 C 1.28125 -0.710938 1.332031 -0.847656 1.4375 -0.984375 L 5.859375 -5.859375 C 6.566406 -6.628906 7.09375 -7.335938 7.4375 -7.984375 C 7.789062 -8.628906 7.96875 -9.207031 7.96875 -9.71875 C 7.96875 -10.550781 7.710938 -11.222656 7.203125 -11.734375 C 6.691406 -12.253906 6.003906 -12.515625 5.140625 -12.515625 C 4.742188 -12.515625 4.347656 -12.429688 3.953125 -12.265625 C 3.566406 -12.097656 3.222656 -11.878906 2.921875 -11.609375 C 2.617188 -11.335938 2.382812 -11.03125 2.21875 -10.6875 C 2.144531 -10.5625 2.066406 -10.472656 1.984375 -10.421875 C 1.898438 -10.367188 1.804688 -10.34375 1.703125 -10.34375 C 1.546875 -10.34375 1.410156 -10.390625 1.296875 -10.484375 C 1.179688 -10.578125 1.125 -10.695312 1.125 -10.84375 C 1.125 -10.925781 1.144531 -11.015625 1.1875 -11.109375 C 1.238281 -11.203125 1.304688 -11.304688 1.390625 -11.421875 C 1.628906 -11.816406 1.953125 -12.175781 2.359375 -12.5 C 2.765625 -12.832031 3.21875 -13.097656 3.71875 -13.296875 C 4.226562 -13.492188 4.722656 -13.59375 5.203125 -13.59375 C 6.023438 -13.59375 6.734375 -13.4375 7.328125 -13.125 C 7.921875 -12.8125 8.378906 -12.367188 8.703125 -11.796875 C 9.023438 -11.234375 9.1875 -10.5625 9.1875 -9.78125 C 9.1875 -9.125 8.976562 -8.398438 8.5625 -7.609375 C 8.15625 -6.828125 7.539062 -5.984375 6.71875 -5.078125 L 2.984375 -0.875 L 2.796875 -1.109375 Z M 9.078125 -1.109375 "/></g></g></g></g></g></g><g clip-path="url(#ca82dcf410)"><g transform="matrix(1, 0, 0, 1, 254, 1)"><g clip-path="url(#d00744026c)"><g fill="#201f1f" fill-opacity="1"><g transform="translate(0.345147, 20.145605)"><g><path d="M 1.703125 -1.96875 C 1.765625 -1.96875 1.832031 -1.953125 1.90625 -1.921875 C 1.976562 -1.898438 2.066406 -1.847656 2.171875 -1.765625 C 2.429688 -1.484375 2.742188 -1.269531 3.109375 -1.125 C 3.484375 -0.976562 3.910156 -0.90625 4.390625 -0.90625 C 5.015625 -0.90625 5.582031 -1.046875 6.09375 -1.328125 C 6.613281 -1.609375 7.023438 -2 7.328125 -2.5 C 7.640625 -3 7.796875 -3.578125 7.796875 -4.234375 C 7.796875 -4.972656 7.628906 -5.566406 7.296875 -6.015625 C 6.972656 -6.472656 6.5625 -6.8125 6.0625 -7.03125 C 5.5625 -7.257812 5.046875 -7.375 4.515625 -7.375 C 4.378906 -7.375 4.242188 -7.363281 4.109375 -7.34375 C 3.972656 -7.320312 3.847656 -7.296875 3.734375 -7.265625 C 3.617188 -7.242188 3.53125 -7.234375 3.46875 -7.234375 C 3.300781 -7.234375 3.171875 -7.285156 3.078125 -7.390625 C 2.992188 -7.503906 2.953125 -7.644531 2.953125 -7.8125 C 2.953125 -7.90625 2.96875 -7.984375 3 -8.046875 C 3.039062 -8.117188 3.09375 -8.203125 3.15625 -8.296875 L 7.046875 -12.53125 L 7.28125 -12.21875 L 1.46875 -12.21875 C 1.320312 -12.21875 1.191406 -12.269531 1.078125 -12.375 C 0.972656 -12.488281 0.921875 -12.625 0.921875 -12.78125 C 0.921875 -12.925781 0.972656 -13.050781 1.078125 -13.15625 C 1.191406 -13.257812 1.320312 -13.3125 1.46875 -13.3125 L 7.90625 -13.3125 C 8.125 -13.3125 8.273438 -13.242188 8.359375 -13.109375 C 8.453125 -12.972656 8.5 -12.84375 8.5 -12.71875 C 8.5 -12.644531 8.476562 -12.570312 8.4375 -12.5 C 8.40625 -12.425781 8.359375 -12.351562 8.296875 -12.28125 L 4.40625 -8.046875 L 3.984375 -8.296875 C 4.023438 -8.335938 4.15625 -8.378906 4.375 -8.421875 C 4.601562 -8.460938 4.78125 -8.484375 4.90625 -8.484375 C 5.601562 -8.484375 6.257812 -8.316406 6.875 -7.984375 C 7.5 -7.648438 8.003906 -7.171875 8.390625 -6.546875 C 8.785156 -5.929688 8.984375 -5.171875 8.984375 -4.265625 C 8.984375 -3.378906 8.769531 -2.597656 8.34375 -1.921875 C 7.925781 -1.253906 7.359375 -0.734375 6.640625 -0.359375 C 5.929688 0.00390625 5.140625 0.1875 4.265625 0.1875 C 3.742188 0.1875 3.226562 0.0976562 2.71875 -0.078125 C 2.207031 -0.253906 1.757812 -0.519531 1.375 -0.875 C 1.289062 -0.957031 1.226562 -1.035156 1.1875 -1.109375 C 1.144531 -1.179688 1.125 -1.257812 1.125 -1.34375 C 1.125 -1.5 1.175781 -1.640625 1.28125 -1.765625 C 1.394531 -1.898438 1.535156 -1.96875 1.703125 -1.96875 Z M 1.703125 -1.96875 "/></g></g></g></g></g></g><g clip-path="url(#635f931dc6)"><g transform="matrix(1, 0, 0, 1, 380, 1)"><g clip-path="url(#6967dc5e45)"><g clip-path="url(#0a8ad326de)"><g fill="#201f1f" fill-opacity="1"><g transform="translate(0.16394, 20.145605)"><g><path d="M 7.03125 0 C 6.863281 0 6.726562 -0.0546875 6.625 -0.171875 C 6.519531 -0.285156 6.46875 -0.421875 6.46875 -0.578125 L 6.46875 -11.8125 L 6.71875 -11.671875 L 1.6875 -5 L 1.625 -5.203125 L 8.984375 -5.203125 C 9.140625 -5.203125 9.269531 -5.148438 9.375 -5.046875 C 9.488281 -4.953125 9.546875 -4.828125 9.546875 -4.671875 C 9.546875 -4.515625 9.488281 -4.382812 9.375 -4.28125 C 9.269531 -4.1875 9.140625 -4.140625 8.984375 -4.140625 L 0.84375 -4.140625 C 0.6875 -4.140625 0.550781 -4.195312 0.4375 -4.3125 C 0.320312 -4.4375 0.265625 -4.578125 0.265625 -4.734375 C 0.265625 -4.867188 0.3125 -4.992188 0.40625 -5.109375 L 6.578125 -13.171875 C 6.640625 -13.265625 6.71875 -13.328125 6.8125 -13.359375 C 6.90625 -13.390625 6.984375 -13.40625 7.046875 -13.40625 C 7.210938 -13.40625 7.347656 -13.347656 7.453125 -13.234375 C 7.566406 -13.117188 7.625 -12.984375 7.625 -12.828125 L 7.625 -0.578125 C 7.625 -0.421875 7.566406 -0.285156 7.453125 -0.171875 C 7.335938 -0.0546875 7.195312 0 7.03125 0 Z M 7.03125 0 "/></g></g></g></g></g></g></g><g clip-path="url(#7d0fec751b)"><g transform="matrix(1, 0, 0, 1, 505, 1)"><g clip-path="url(#4f8b5dcd4d)"><g fill="#201f1f" fill-opacity="1"><g transform="translate(0.982791, 20.145605)"><g><path d="M 4.484375 0.03125 C 3.960938 0.03125 3.4375 -0.0507812 2.90625 -0.21875 C 2.375 -0.394531 1.90625 -0.65625 1.5 -1 C 1.414062 -1.0625 1.351562 -1.132812 1.3125 -1.21875 C 1.269531 -1.3125 1.25 -1.40625 1.25 -1.5 C 1.25 -1.625 1.296875 -1.742188 1.390625 -1.859375 C 1.492188 -1.984375 1.628906 -2.046875 1.796875 -2.046875 C 1.941406 -2.046875 2.082031 -1.988281 2.21875 -1.875 C 2.550781 -1.625 2.910156 -1.425781 3.296875 -1.28125 C 3.691406 -1.144531 4.085938 -1.078125 4.484375 -1.078125 C 5.234375 -1.078125 5.890625 -1.21875 6.453125 -1.5 C 7.015625 -1.789062 7.445312 -2.203125 7.75 -2.734375 C 8.0625 -3.265625 8.21875 -3.878906 8.21875 -4.578125 C 8.21875 -5.234375 8.078125 -5.796875 7.796875 -6.265625 C 7.515625 -6.742188 7.113281 -7.117188 6.59375 -7.390625 C 6.082031 -7.671875 5.472656 -7.8125 4.765625 -7.8125 C 4.304688 -7.8125 3.890625 -7.738281 3.515625 -7.59375 C 3.140625 -7.457031 2.8125 -7.316406 2.53125 -7.171875 C 2.257812 -7.023438 2.039062 -6.953125 1.875 -6.953125 C 1.71875 -6.953125 1.59375 -6.988281 1.5 -7.0625 C 1.40625 -7.144531 1.34375 -7.242188 1.3125 -7.359375 C 1.28125 -7.472656 1.273438 -7.59375 1.296875 -7.71875 L 2.125 -12.828125 C 2.132812 -12.941406 2.191406 -13.046875 2.296875 -13.140625 C 2.410156 -13.242188 2.550781 -13.296875 2.71875 -13.296875 L 8.484375 -13.296875 C 8.640625 -13.296875 8.769531 -13.238281 8.875 -13.125 C 8.988281 -13.019531 9.046875 -12.890625 9.046875 -12.734375 C 9.046875 -12.566406 8.988281 -12.429688 8.875 -12.328125 C 8.769531 -12.222656 8.640625 -12.171875 8.484375 -12.171875 L 2.984375 -12.171875 L 3.15625 -12.34375 L 2.375 -7.796875 L 2.03125 -8.046875 C 2.195312 -8.171875 2.4375 -8.296875 2.75 -8.421875 C 3.0625 -8.554688 3.410156 -8.671875 3.796875 -8.765625 C 4.191406 -8.859375 4.601562 -8.90625 5.03125 -8.90625 C 5.863281 -8.90625 6.601562 -8.722656 7.25 -8.359375 C 7.90625 -7.992188 8.421875 -7.488281 8.796875 -6.84375 C 9.179688 -6.195312 9.375 -5.453125 9.375 -4.609375 C 9.375 -3.679688 9.171875 -2.867188 8.765625 -2.171875 C 8.359375 -1.472656 7.789062 -0.929688 7.0625 -0.546875 C 6.34375 -0.160156 5.484375 0.03125 4.484375 0.03125 Z M 4.484375 0.03125 "/></g></g></g></g></g></g><g clip-path="url(#8a3fbb9c31)"><g transform="matrix(1, 0, 0, 1, 631, 1)"><g clip-path="url(#e7cc2300ce)"><g fill="#201f1f" fill-opacity="1"><g transform="translate(0.801613, 20.145605)"><g><path d="M 5.5 0.1875 C 4.757812 0.1875 4.109375 0.0546875 3.546875 -0.203125 C 2.992188 -0.472656 2.535156 -0.832031 2.171875 -1.28125 C 1.804688 -1.738281 1.535156 -2.253906 1.359375 -2.828125 C 1.191406 -3.410156 1.109375 -4 1.109375 -4.59375 C 1.109375 -5.207031 1.1875 -5.867188 1.34375 -6.578125 C 1.5 -7.285156 1.734375 -8.003906 2.046875 -8.734375 C 2.367188 -9.460938 2.757812 -10.148438 3.21875 -10.796875 C 3.6875 -11.453125 4.226562 -12.035156 4.84375 -12.546875 C 5.46875 -13.066406 6.171875 -13.472656 6.953125 -13.765625 C 7.046875 -13.796875 7.125 -13.8125 7.1875 -13.8125 C 7.351562 -13.8125 7.492188 -13.765625 7.609375 -13.671875 C 7.734375 -13.585938 7.796875 -13.4375 7.796875 -13.21875 C 7.796875 -13.09375 7.753906 -12.976562 7.671875 -12.875 C 7.585938 -12.78125 7.476562 -12.707031 7.34375 -12.65625 C 6.800781 -12.425781 6.269531 -12.097656 5.75 -11.671875 C 5.226562 -11.253906 4.742188 -10.769531 4.296875 -10.21875 C 3.847656 -9.675781 3.46875 -9.085938 3.15625 -8.453125 C 2.84375 -7.828125 2.617188 -7.1875 2.484375 -6.53125 L 2.0625 -6.28125 C 2.289062 -6.707031 2.585938 -7.082031 2.953125 -7.40625 C 3.316406 -7.726562 3.734375 -7.988281 4.203125 -8.1875 C 4.679688 -8.382812 5.195312 -8.484375 5.75 -8.484375 C 6.320312 -8.484375 6.847656 -8.363281 7.328125 -8.125 C 7.816406 -7.882812 8.238281 -7.554688 8.59375 -7.140625 C 8.945312 -6.722656 9.222656 -6.25 9.421875 -5.71875 C 9.617188 -5.195312 9.71875 -4.65625 9.71875 -4.09375 C 9.71875 -3.34375 9.535156 -2.640625 9.171875 -1.984375 C 8.804688 -1.335938 8.304688 -0.8125 7.671875 -0.40625 C 7.035156 -0.0078125 6.3125 0.1875 5.5 0.1875 Z M 5.484375 -0.921875 C 6.066406 -0.921875 6.585938 -1.050781 7.046875 -1.3125 C 7.503906 -1.582031 7.863281 -1.957031 8.125 -2.4375 C 8.394531 -2.914062 8.53125 -3.46875 8.53125 -4.09375 C 8.53125 -4.675781 8.414062 -5.210938 8.1875 -5.703125 C 7.96875 -6.191406 7.632812 -6.59375 7.1875 -6.90625 C 6.75 -7.21875 6.207031 -7.375 5.5625 -7.375 C 4.882812 -7.375 4.296875 -7.21875 3.796875 -6.90625 C 3.304688 -6.601562 2.929688 -6.195312 2.671875 -5.6875 C 2.410156 -5.1875 2.28125 -4.640625 2.28125 -4.046875 C 2.28125 -3.503906 2.40625 -2.992188 2.65625 -2.515625 C 2.914062 -2.035156 3.285156 -1.648438 3.765625 -1.359375 C 4.242188 -1.066406 4.816406 -0.921875 5.484375 -0.921875 Z M 5.484375 -0.921875 "/></g></g></g></g></g></g><g clip-path="url(#7535db2e6f)"><g transform="matrix(1, 0, 0, 1, 757, 1)"><g clip-path="url(#5424be5756)"><g fill="#201f1f" fill-opacity="1"><g transform="translate(0.620376, 20.145605)"><g><path d="M 3.40625 0.0625 C 3.257812 0.0625 3.117188 0.0078125 2.984375 -0.09375 C 2.859375 -0.195312 2.796875 -0.328125 2.796875 -0.484375 C 2.796875 -0.566406 2.816406 -0.660156 2.859375 -0.765625 L 7.953125 -12.46875 L 8.15625 -12.203125 L 1.6875 -12.203125 C 1.53125 -12.203125 1.394531 -12.253906 1.28125 -12.359375 C 1.175781 -12.472656 1.125 -12.609375 1.125 -12.765625 C 1.125 -12.921875 1.175781 -13.050781 1.28125 -13.15625 C 1.394531 -13.257812 1.53125 -13.3125 1.6875 -13.3125 L 8.71875 -13.3125 C 8.90625 -13.3125 9.039062 -13.257812 9.125 -13.15625 C 9.21875 -13.050781 9.265625 -12.925781 9.265625 -12.78125 C 9.265625 -12.675781 9.25 -12.578125 9.21875 -12.484375 L 3.953125 -0.328125 C 3.910156 -0.210938 3.835938 -0.117188 3.734375 -0.046875 C 3.628906 0.0234375 3.519531 0.0625 3.40625 0.0625 Z M 3.40625 0.0625 "/></g></g></g></g></g></g><g transform="matrix(1, 0, 0, 1, 2, 151)"><g clip-path="url(#3d24dbe5f0)"><g fill="#201f1f" fill-opacity="1"><g transform="translate(0.707523, 19.904128)"><g><path d="M 6.96875 -6.75 L 6.921875 -6.921875 C 7.347656 -6.753906 7.738281 -6.503906 8.09375 -6.171875 C 8.457031 -5.847656 8.75 -5.46875 8.96875 -5.03125 C 9.1875 -4.59375 9.296875 -4.109375 9.296875 -3.578125 C 9.296875 -2.890625 9.113281 -2.265625 8.75 -1.703125 C 8.382812 -1.140625 7.890625 -0.691406 7.265625 -0.359375 C 6.640625 -0.0234375 5.941406 0.140625 5.171875 0.140625 C 4.390625 0.140625 3.6875 -0.0234375 3.0625 -0.359375 C 2.445312 -0.691406 1.957031 -1.140625 1.59375 -1.703125 C 1.226562 -2.265625 1.046875 -2.890625 1.046875 -3.578125 C 1.046875 -4.140625 1.15625 -4.640625 1.375 -5.078125 C 1.601562 -5.523438 1.898438 -5.898438 2.265625 -6.203125 C 2.628906 -6.515625 3.007812 -6.753906 3.40625 -6.921875 L 3.359375 -6.71875 C 3.003906 -6.882812 2.675781 -7.109375 2.375 -7.390625 C 2.082031 -7.679688 1.835938 -8.03125 1.640625 -8.4375 C 1.453125 -8.84375 1.359375 -9.285156 1.359375 -9.765625 C 1.359375 -10.453125 1.523438 -11.070312 1.859375 -11.625 C 2.203125 -12.175781 2.664062 -12.609375 3.25 -12.921875 C 3.832031 -13.242188 4.472656 -13.40625 5.171875 -13.40625 C 5.867188 -13.40625 6.503906 -13.242188 7.078125 -12.921875 C 7.648438 -12.609375 8.101562 -12.175781 8.4375 -11.625 C 8.78125 -11.070312 8.953125 -10.453125 8.953125 -9.765625 C 8.953125 -9.265625 8.851562 -8.816406 8.65625 -8.421875 C 8.46875 -8.023438 8.21875 -7.679688 7.90625 -7.390625 C 7.601562 -7.109375 7.289062 -6.894531 6.96875 -6.75 Z M 2.546875 -9.765625 C 2.546875 -9.253906 2.664062 -8.804688 2.90625 -8.421875 C 3.15625 -8.046875 3.476562 -7.75 3.875 -7.53125 C 4.269531 -7.3125 4.703125 -7.203125 5.171875 -7.203125 C 5.628906 -7.203125 6.054688 -7.3125 6.453125 -7.53125 C 6.847656 -7.75 7.164062 -8.046875 7.40625 -8.421875 C 7.644531 -8.804688 7.765625 -9.253906 7.765625 -9.765625 C 7.765625 -10.523438 7.519531 -11.140625 7.03125 -11.609375 C 6.539062 -12.078125 5.921875 -12.3125 5.171875 -12.3125 C 4.390625 -12.3125 3.753906 -12.078125 3.265625 -11.609375 C 2.785156 -11.140625 2.546875 -10.523438 2.546875 -9.765625 Z M 5.171875 -0.953125 C 6.035156 -0.953125 6.738281 -1.203125 7.28125 -1.703125 C 7.832031 -2.203125 8.109375 -2.828125 8.109375 -3.578125 C 8.109375 -4.085938 7.972656 -4.546875 7.703125 -4.953125 C 7.429688 -5.367188 7.070312 -5.691406 6.625 -5.921875 C 6.175781 -6.148438 5.691406 -6.265625 5.171875 -6.265625 C 4.648438 -6.265625 4.164062 -6.148438 3.71875 -5.921875 C 3.269531 -5.691406 2.910156 -5.367188 2.640625 -4.953125 C 2.367188 -4.546875 2.234375 -4.085938 2.234375 -3.578125 C 2.234375 -2.828125 2.5 -2.203125 3.03125 -1.703125 C 3.570312 -1.203125 4.285156 -0.953125 5.171875 -0.953125 Z M 5.171875 -0.953125 "/></g></g></g></g></g><g transform="matrix(1, 0, 0, 1, 128, 151)"><g clip-path="url(#73dffa5524)"><g fill="#201f1f" fill-opacity="1"><g transform="translate(0.52634, 19.904128)"><g><path d="M 5.3125 -13.625 C 6.0625 -13.625 6.710938 -13.488281 7.265625 -13.21875 C 7.828125 -12.945312 8.285156 -12.582031 8.640625 -12.125 C 8.992188 -11.675781 9.257812 -11.164062 9.4375 -10.59375 C 9.625 -10.019531 9.71875 -9.429688 9.71875 -8.828125 C 9.71875 -8.210938 9.632812 -7.554688 9.46875 -6.859375 C 9.3125 -6.171875 9.078125 -5.472656 8.765625 -4.765625 C 8.453125 -4.054688 8.0625 -3.378906 7.59375 -2.734375 C 7.125 -2.097656 6.578125 -1.523438 5.953125 -1.015625 C 5.328125 -0.503906 4.632812 -0.109375 3.875 0.171875 C 3.769531 0.191406 3.6875 0.203125 3.625 0.203125 C 3.46875 0.203125 3.328125 0.148438 3.203125 0.046875 C 3.085938 -0.0546875 3.03125 -0.203125 3.03125 -0.390625 C 3.03125 -0.515625 3.066406 -0.625 3.140625 -0.71875 C 3.210938 -0.8125 3.328125 -0.882812 3.484375 -0.9375 C 4.210938 -1.238281 4.914062 -1.691406 5.59375 -2.296875 C 6.269531 -2.910156 6.851562 -3.613281 7.34375 -4.40625 C 7.832031 -5.207031 8.160156 -6.035156 8.328125 -6.890625 L 8.734375 -7.140625 C 8.515625 -6.734375 8.21875 -6.363281 7.84375 -6.03125 C 7.476562 -5.695312 7.0625 -5.4375 6.59375 -5.25 C 6.132812 -5.070312 5.628906 -4.984375 5.078125 -4.984375 C 4.253906 -4.984375 3.546875 -5.179688 2.953125 -5.578125 C 2.359375 -5.984375 1.898438 -6.519531 1.578125 -7.1875 C 1.265625 -7.851562 1.109375 -8.566406 1.109375 -9.328125 C 1.109375 -10.078125 1.289062 -10.773438 1.65625 -11.421875 C 2.019531 -12.078125 2.515625 -12.609375 3.140625 -13.015625 C 3.773438 -13.421875 4.5 -13.625 5.3125 -13.625 Z M 5.34375 -12.515625 C 4.738281 -12.515625 4.207031 -12.378906 3.75 -12.109375 C 3.289062 -11.835938 2.929688 -11.460938 2.671875 -10.984375 C 2.410156 -10.503906 2.28125 -9.953125 2.28125 -9.328125 C 2.28125 -8.765625 2.390625 -8.234375 2.609375 -7.734375 C 2.835938 -7.234375 3.175781 -6.832031 3.625 -6.53125 C 4.070312 -6.238281 4.613281 -6.09375 5.25 -6.09375 C 5.9375 -6.09375 6.519531 -6.238281 7 -6.53125 C 7.488281 -6.832031 7.867188 -7.234375 8.140625 -7.734375 C 8.410156 -8.234375 8.546875 -8.785156 8.546875 -9.390625 C 8.546875 -9.929688 8.414062 -10.4375 8.15625 -10.90625 C 7.90625 -11.382812 7.539062 -11.769531 7.0625 -12.0625 C 6.59375 -12.363281 6.019531 -12.515625 5.34375 -12.515625 Z M 5.34375 -12.515625 "/></g></g></g></g></g><g transform="matrix(1, 0, 0, 1, 254, 151)"><g clip-path="url(#9755b77604)"><g clip-path="url(#45d2180a38)"><g fill="#201f1f" fill-opacity="1"><g transform="translate(0.345147, 19.904128)"><g><path d="M 4.328125 0 C 4.148438 0 4.003906 -0.0546875 3.890625 -0.171875 C 3.773438 -0.285156 3.71875 -0.421875 3.71875 -0.578125 L 3.71875 -12.109375 L 3.921875 -11.921875 L 1.375 -10.203125 C 1.269531 -10.128906 1.160156 -10.09375 1.046875 -10.09375 C 0.898438 -10.09375 0.765625 -10.15625 0.640625 -10.28125 C 0.515625 -10.414062 0.453125 -10.554688 0.453125 -10.703125 C 0.453125 -10.910156 0.554688 -11.070312 0.765625 -11.1875 L 3.96875 -13.3125 C 4.039062 -13.363281 4.117188 -13.394531 4.203125 -13.40625 C 4.285156 -13.414062 4.359375 -13.414062 4.421875 -13.40625 C 4.585938 -13.394531 4.710938 -13.332031 4.796875 -13.21875 C 4.890625 -13.113281 4.9375 -12.984375 4.9375 -12.828125 L 4.9375 -0.578125 C 4.9375 -0.421875 4.878906 -0.285156 4.765625 -0.171875 C 4.648438 -0.0546875 4.503906 0 4.328125 0 Z M 4.328125 0 "/></g></g></g></g><g fill="#201f1f" fill-opacity="1"><g transform="translate(7.430834, 19.904128)"><g><path d="M 5.6875 0.1875 C 4.664062 0.1875 3.8125 -0.113281 3.125 -0.71875 C 2.4375 -1.332031 1.914062 -2.160156 1.5625 -3.203125 C 1.21875 -4.242188 1.046875 -5.410156 1.046875 -6.703125 C 1.046875 -8.003906 1.21875 -9.175781 1.5625 -10.21875 C 1.914062 -11.257812 2.4375 -12.082031 3.125 -12.6875 C 3.8125 -13.289062 4.664062 -13.59375 5.6875 -13.59375 C 6.738281 -13.59375 7.601562 -13.289062 8.28125 -12.6875 C 8.96875 -12.082031 9.484375 -11.257812 9.828125 -10.21875 C 10.171875 -9.175781 10.34375 -8.003906 10.34375 -6.703125 C 10.34375 -5.410156 10.171875 -4.242188 9.828125 -3.203125 C 9.484375 -2.160156 8.96875 -1.332031 8.28125 -0.71875 C 7.601562 -0.113281 6.738281 0.1875 5.6875 0.1875 Z M 5.6875 -1 C 6.4375 -1 7.0625 -1.234375 7.5625 -1.703125 C 8.070312 -2.171875 8.457031 -2.835938 8.71875 -3.703125 C 8.988281 -4.566406 9.125 -5.566406 9.125 -6.703125 C 9.125 -7.847656 8.988281 -8.851562 8.71875 -9.71875 C 8.457031 -10.582031 8.070312 -11.25 7.5625 -11.71875 C 7.0625 -12.195312 6.4375 -12.4375 5.6875 -12.4375 C 4.945312 -12.4375 4.320312 -12.195312 3.8125 -11.71875 C 3.3125 -11.25 2.929688 -10.582031 2.671875 -9.71875 C 2.410156 -8.851562 2.28125 -7.847656 2.28125 -6.703125 C 2.28125 -5.566406 2.410156 -4.566406 2.671875 -3.703125 C 2.929688 -2.835938 3.3125 -2.171875 3.8125 -1.703125 C 4.320312 -1.234375 4.945312 -1 5.6875 -1 Z M 5.6875 -1 "/></g></g></g></g></g><g transform="matrix(1, 0, 0, 1, 380, 151)"><g clip-path="url(#894276712f)"><g clip-path="url(#c438c1612b)"><g fill="#201f1f" fill-opacity="1"><g transform="translate(0.16394, 19.904128)"><g><path d="M 4.328125 0 C 4.148438 0 4.003906 -0.0546875 3.890625 -0.171875 C 3.773438 -0.285156 3.71875 -0.421875 3.71875 -0.578125 L 3.71875 -12.109375 L 3.921875 -11.921875 L 1.375 -10.203125 C 1.269531 -10.128906 1.160156 -10.09375 1.046875 -10.09375 C 0.898438 -10.09375 0.765625 -10.15625 0.640625 -10.28125 C 0.515625 -10.414062 0.453125 -10.554688 0.453125 -10.703125 C 0.453125 -10.910156 0.554688 -11.070312 0.765625 -11.1875 L 3.96875 -13.3125 C 4.039062 -13.363281 4.117188 -13.394531 4.203125 -13.40625 C 4.285156 -13.414062 4.359375 -13.414062 4.421875 -13.40625 C 4.585938 -13.394531 4.710938 -13.332031 4.796875 -13.21875 C 4.890625 -13.113281 4.9375 -12.984375 4.9375 -12.828125 L 4.9375 -0.578125 C 4.9375 -0.421875 4.878906 -0.285156 4.765625 -0.171875 C 4.648438 -0.0546875 4.503906 0 4.328125 0 Z M 4.328125 0 "/></g></g></g></g><g fill="#201f1f" fill-opacity="1"><g transform="translate(7.249627, 19.904128)"><g><path d="M 4.328125 0 C 4.148438 0 4.003906 -0.0546875 3.890625 -0.171875 C 3.773438 -0.285156 3.71875 -0.421875 3.71875 -0.578125 L 3.71875 -12.109375 L 3.921875 -11.921875 L 1.375 -10.203125 C 1.269531 -10.128906 1.160156 -10.09375 1.046875 -10.09375 C 0.898438 -10.09375 0.765625 -10.15625 0.640625 -10.28125 C 0.515625 -10.414062 0.453125 -10.554688 0.453125 -10.703125 C 0.453125 -10.910156 0.554688 -11.070312 0.765625 -11.1875 L 3.96875 -13.3125 C 4.039062 -13.363281 4.117188 -13.394531 4.203125 -13.40625 C 4.285156 -13.414062 4.359375 -13.414062 4.421875 -13.40625 C 4.585938 -13.394531 4.710938 -13.332031 4.796875 -13.21875 C 4.890625 -13.113281 4.9375 -12.984375 4.9375 -12.828125 L 4.9375 -0.578125 C 4.9375 -0.421875 4.878906 -0.285156 4.765625 -0.171875 C 4.648438 -0.0546875 4.503906 0 4.328125 0 Z M 4.328125 0 "/></g></g></g></g></g><g transform="matrix(1, 0, 0, 1, 505, 151)"><g clip-path="url(#e9c724b999)"><g fill="#201f1f" fill-opacity="1"><g transform="translate(0.982791, 19.904128)"><g><path d="M 4.328125 0 C 4.148438 0 4.003906 -0.0546875 3.890625 -0.171875 C 3.773438 -0.285156 3.71875 -0.421875 3.71875 -0.578125 L 3.71875 -12.109375 L 3.921875 -11.921875 L 1.375 -10.203125 C 1.269531 -10.128906 1.160156 -10.09375 1.046875 -10.09375 C 0.898438 -10.09375 0.765625 -10.15625 0.640625 -10.28125 C 0.515625 -10.414062 0.453125 -10.554688 0.453125 -10.703125 C 0.453125 -10.910156 0.554688 -11.070312 0.765625 -11.1875 L 3.96875 -13.3125 C 4.039062 -13.363281 4.117188 -13.394531 4.203125 -13.40625 C 4.285156 -13.414062 4.359375 -13.414062 4.421875 -13.40625 C 4.585938 -13.394531 4.710938 -13.332031 4.796875 -13.21875 C 4.890625 -13.113281 4.9375 -12.984375 4.9375 -12.828125 L 4.9375 -0.578125 C 4.9375 -0.421875 4.878906 -0.285156 4.765625 -0.171875 C 4.648438 -0.0546875 4.503906 0 4.328125 0 Z M 4.328125 0 "/></g></g></g><g fill="#201f1f" fill-opacity="1"><g transform="translate(8.068478, 19.904128)"><g><path d="M 9.078125 -1.109375 C 9.234375 -1.109375 9.363281 -1.050781 9.46875 -0.9375 C 9.582031 -0.832031 9.640625 -0.707031 9.640625 -0.5625 C 9.640625 -0.394531 9.582031 -0.257812 9.46875 -0.15625 C 9.363281 -0.0507812 9.234375 0 9.078125 0 L 1.890625 0 C 1.722656 0 1.578125 -0.046875 1.453125 -0.140625 C 1.335938 -0.234375 1.28125 -0.378906 1.28125 -0.578125 C 1.28125 -0.710938 1.332031 -0.847656 1.4375 -0.984375 L 5.859375 -5.859375 C 6.566406 -6.628906 7.09375 -7.335938 7.4375 -7.984375 C 7.789062 -8.628906 7.96875 -9.207031 7.96875 -9.71875 C 7.96875 -10.550781 7.710938 -11.222656 7.203125 -11.734375 C 6.691406 -12.253906 6.003906 -12.515625 5.140625 -12.515625 C 4.742188 -12.515625 4.347656 -12.429688 3.953125 -12.265625 C 3.566406 -12.097656 3.222656 -11.878906 2.921875 -11.609375 C 2.617188 -11.335938 2.382812 -11.03125 2.21875 -10.6875 C 2.144531 -10.5625 2.066406 -10.472656 1.984375 -10.421875 C 1.898438 -10.367188 1.804688 -10.34375 1.703125 -10.34375 C 1.546875 -10.34375 1.410156 -10.390625 1.296875 -10.484375 C 1.179688 -10.578125 1.125 -10.695312 1.125 -10.84375 C 1.125 -10.925781 1.144531 -11.015625 1.1875 -11.109375 C 1.238281 -11.203125 1.304688 -11.304688 1.390625 -11.421875 C 1.628906 -11.816406 1.953125 -12.175781 2.359375 -12.5 C 2.765625 -12.832031 3.21875 -13.097656 3.71875 -13.296875 C 4.226562 -13.492188 4.722656 -13.59375 5.203125 -13.59375 C 6.023438 -13.59375 6.734375 -13.4375 7.328125 -13.125 C 7.921875 -12.8125 8.378906 -12.367188 8.703125 -11.796875 C 9.023438 -11.234375 9.1875 -10.5625 9.1875 -9.78125 C 9.1875 -9.125 8.976562 -8.398438 8.5625 -7.609375 C 8.15625 -6.828125 7.539062 -5.984375 6.71875 -5.078125 L 2.984375 -0.875 L 2.796875 -1.109375 Z M 9.078125 -1.109375 "/></g></g></g></g></g><g transform="matrix(1, 0, 0, 1, 631, 151)"><g clip-path="url(#dd9c6af423)"><g fill="#201f1f" fill-opacity="1"><g transform="translate(0.801613, 19.904128)"><g><path d="M 4.328125 0 C 4.148438 0 4.003906 -0.0546875 3.890625 -0.171875 C 3.773438 -0.285156 3.71875 -0.421875 3.71875 -0.578125 L 3.71875 -12.109375 L 3.921875 -11.921875 L 1.375 -10.203125 C 1.269531 -10.128906 1.160156 -10.09375 1.046875 -10.09375 C 0.898438 -10.09375 0.765625 -10.15625 0.640625 -10.28125 C 0.515625 -10.414062 0.453125 -10.554688 0.453125 -10.703125 C 0.453125 -10.910156 0.554688 -11.070312 0.765625 -11.1875 L 3.96875 -13.3125 C 4.039062 -13.363281 4.117188 -13.394531 4.203125 -13.40625 C 4.285156 -13.414062 4.359375 -13.414062 4.421875 -13.40625 C 4.585938 -13.394531 4.710938 -13.332031 4.796875 -13.21875 C 4.890625 -13.113281 4.9375 -12.984375 4.9375 -12.828125 L 4.9375 -0.578125 C 4.9375 -0.421875 4.878906 -0.285156 4.765625 -0.171875 C 4.648438 -0.0546875 4.503906 0 4.328125 0 Z M 4.328125 0 "/></g></g></g><g fill="#201f1f" fill-opacity="1"><g transform="translate(7.8873, 19.904128)"><g><path d="M 1.703125 -1.96875 C 1.765625 -1.96875 1.832031 -1.953125 1.90625 -1.921875 C 1.976562 -1.898438 2.066406 -1.847656 2.171875 -1.765625 C 2.429688 -1.484375 2.742188 -1.269531 3.109375 -1.125 C 3.484375 -0.976562 3.910156 -0.90625 4.390625 -0.90625 C 5.015625 -0.90625 5.582031 -1.046875 6.09375 -1.328125 C 6.613281 -1.609375 7.023438 -2 7.328125 -2.5 C 7.640625 -3 7.796875 -3.578125 7.796875 -4.234375 C 7.796875 -4.972656 7.628906 -5.566406 7.296875 -6.015625 C 6.972656 -6.472656 6.5625 -6.8125 6.0625 -7.03125 C 5.5625 -7.257812 5.046875 -7.375 4.515625 -7.375 C 4.378906 -7.375 4.242188 -7.363281 4.109375 -7.34375 C 3.972656 -7.320312 3.847656 -7.296875 3.734375 -7.265625 C 3.617188 -7.242188 3.53125 -7.234375 3.46875 -7.234375 C 3.300781 -7.234375 3.171875 -7.285156 3.078125 -7.390625 C 2.992188 -7.503906 2.953125 -7.644531 2.953125 -7.8125 C 2.953125 -7.90625 2.96875 -7.984375 3 -8.046875 C 3.039062 -8.117188 3.09375 -8.203125 3.15625 -8.296875 L 7.046875 -12.53125 L 7.28125 -12.21875 L 1.46875 -12.21875 C 1.320312 -12.21875 1.191406 -12.269531 1.078125 -12.375 C 0.972656 -12.488281 0.921875 -12.625 0.921875 -12.78125 C 0.921875 -12.925781 0.972656 -13.050781 1.078125 -13.15625 C 1.191406 -13.257812 1.320312 -13.3125 1.46875 -13.3125 L 7.90625 -13.3125 C 8.125 -13.3125 8.273438 -13.242188 8.359375 -13.109375 C 8.453125 -12.972656 8.5 -12.84375 8.5 -12.71875 C 8.5 -12.644531 8.476562 -12.570312 8.4375 -12.5 C 8.40625 -12.425781 8.359375 -12.351562 8.296875 -12.28125 L 4.40625 -8.046875 L 3.984375 -8.296875 C 4.023438 -8.335938 4.15625 -8.378906 4.375 -8.421875 C 4.601562 -8.460938 4.78125 -8.484375 4.90625 -8.484375 C 5.601562 -8.484375 6.257812 -8.316406 6.875 -7.984375 C 7.5 -7.648438 8.003906 -7.171875 8.390625 -6.546875 C 8.785156 -5.929688 8.984375 -5.171875 8.984375 -4.265625 C 8.984375 -3.378906 8.769531 -2.597656 8.34375 -1.921875 C 7.925781 -1.253906 7.359375 -0.734375 6.640625 -0.359375 C 5.929688 0.00390625 5.140625 0.1875 4.265625 0.1875 C 3.742188 0.1875 3.226562 0.0976562 2.71875 -0.078125 C 2.207031 -0.253906 1.757812 -0.519531 1.375 -0.875 C 1.289062 -0.957031 1.226562 -1.035156 1.1875 -1.109375 C 1.144531 -1.179688 1.125 -1.257812 1.125 -1.34375 C 1.125 -1.5 1.175781 -1.640625 1.28125 -1.765625 C 1.394531 -1.898438 1.535156 -1.96875 1.703125 -1.96875 Z M 1.703125 -1.96875 "/></g></g></g></g></g><g transform="matrix(1, 0, 0, 1, 757, 151)"><g clip-path="url(#d2b8568283)"><g fill="#201f1f" fill-opacity="1"><g transform="translate(0.620376, 19.904128)"><g><path d="M 4.328125 0 C 4.148438 0 4.003906 -0.0546875 3.890625 -0.171875 C 3.773438 -0.285156 3.71875 -0.421875 3.71875 -0.578125 L 3.71875 -12.109375 L 3.921875 -11.921875 L 1.375 -10.203125 C 1.269531 -10.128906 1.160156 -10.09375 1.046875 -10.09375 C 0.898438 -10.09375 0.765625 -10.15625 0.640625 -10.28125 C 0.515625 -10.414062 0.453125 -10.554688 0.453125 -10.703125 C 0.453125 -10.910156 0.554688 -11.070312 0.765625 -11.1875 L 3.96875 -13.3125 C 4.039062 -13.363281 4.117188 -13.394531 4.203125 -13.40625 C 4.285156 -13.414062 4.359375 -13.414062 4.421875 -13.40625 C 4.585938 -13.394531 4.710938 -13.332031 4.796875 -13.21875 C 4.890625 -13.113281 4.9375 -12.984375 4.9375 -12.828125 L 4.9375 -0.578125 C 4.9375 -0.421875 4.878906 -0.285156 4.765625 -0.171875 C 4.648438 -0.0546875 4.503906 0 4.328125 0 Z M 4.328125 0 "/></g></g></g><g fill="#201f1f" fill-opacity="1"><g transform="translate(7.706063, 19.904128)"><g><path d="M 7.03125 0 C 6.863281 0 6.726562 -0.0546875 6.625 -0.171875 C 6.519531 -0.285156 6.46875 -0.421875 6.46875 -0.578125 L 6.46875 -11.8125 L 6.71875 -11.671875 L 1.6875 -5 L 1.625 -5.203125 L 8.984375 -5.203125 C 9.140625 -5.203125 9.269531 -5.148438 9.375 -5.046875 C 9.488281 -4.953125 9.546875 -4.828125 9.546875 -4.671875 C 9.546875 -4.515625 9.488281 -4.382812 9.375 -4.28125 C 9.269531 -4.1875 9.140625 -4.140625 8.984375 -4.140625 L 0.84375 -4.140625 C 0.6875 -4.140625 0.550781 -4.195312 0.4375 -4.3125 C 0.320312 -4.4375 0.265625 -4.578125 0.265625 -4.734375 C 0.265625 -4.867188 0.3125 -4.992188 0.40625 -5.109375 L 6.578125 -13.171875 C 6.640625 -13.265625 6.71875 -13.328125 6.8125 -13.359375 C 6.90625 -13.390625 6.984375 -13.40625 7.046875 -13.40625 C 7.210938 -13.40625 7.347656 -13.347656 7.453125 -13.234375 C 7.566406 -13.117188 7.625 -12.984375 7.625 -12.828125 L 7.625 -0.578125 C 7.625 -0.421875 7.566406 -0.285156 7.453125 -0.171875 C 7.335938 -0.0546875 7.195312 0 7.03125 0 Z M 7.03125 0 "/></g></g></g></g></g><g transform="matrix(1, 0, 0, 1, 2, 301)"><g clip-path="url(#552b89c0e4)"><g fill="#201f1f" fill-opacity="1"><g transform="translate(0.707523, 19.662612)"><g><path d="M 4.328125 0 C 4.148438 0 4.003906 -0.0546875 3.890625 -0.171875 C 3.773438 -0.285156 3.71875 -0.421875 3.71875 -0.578125 L 3.71875 -12.109375 L 3.921875 -11.921875 L 1.375 -10.203125 C 1.269531 -10.128906 1.160156 -10.09375 1.046875 -10.09375 C 0.898438 -10.09375 0.765625 -10.15625 0.640625 -10.28125 C 0.515625 -10.414062 0.453125 -10.554688 0.453125 -10.703125 C 0.453125 -10.910156 0.554688 -11.070312 0.765625 -11.1875 L 3.96875 -13.3125 C 4.039062 -13.363281 4.117188 -13.394531 4.203125 -13.40625 C 4.285156 -13.414062 4.359375 -13.414062 4.421875 -13.40625 C 4.585938 -13.394531 4.710938 -13.332031 4.796875 -13.21875 C 4.890625 -13.113281 4.9375 -12.984375 4.9375 -12.828125 L 4.9375 -0.578125 C 4.9375 -0.421875 4.878906 -0.285156 4.765625 -0.171875 C 4.648438 -0.0546875 4.503906 0 4.328125 0 Z M 4.328125 0 "/></g></g></g><g fill="#201f1f" fill-opacity="1"><g transform="translate(7.79321, 19.662612)"><g><path d="M 4.484375 0.03125 C 3.960938 0.03125 3.4375 -0.0507812 2.90625 -0.21875 C 2.375 -0.394531 1.90625 -0.65625 1.5 -1 C 1.414062 -1.0625 1.351562 -1.132812 1.3125 -1.21875 C 1.269531 -1.3125 1.25 -1.40625 1.25 -1.5 C 1.25 -1.625 1.296875 -1.742188 1.390625 -1.859375 C 1.492188 -1.984375 1.628906 -2.046875 1.796875 -2.046875 C 1.941406 -2.046875 2.082031 -1.988281 2.21875 -1.875 C 2.550781 -1.625 2.910156 -1.425781 3.296875 -1.28125 C 3.691406 -1.144531 4.085938 -1.078125 4.484375 -1.078125 C 5.234375 -1.078125 5.890625 -1.21875 6.453125 -1.5 C 7.015625 -1.789062 7.445312 -2.203125 7.75 -2.734375 C 8.0625 -3.265625 8.21875 -3.878906 8.21875 -4.578125 C 8.21875 -5.234375 8.078125 -5.796875 7.796875 -6.265625 C 7.515625 -6.742188 7.113281 -7.117188 6.59375 -7.390625 C 6.082031 -7.671875 5.472656 -7.8125 4.765625 -7.8125 C 4.304688 -7.8125 3.890625 -7.738281 3.515625 -7.59375 C 3.140625 -7.457031 2.8125 -7.316406 2.53125 -7.171875 C 2.257812 -7.023438 2.039062 -6.953125 1.875 -6.953125 C 1.71875 -6.953125 1.59375 -6.988281 1.5 -7.0625 C 1.40625 -7.144531 1.34375 -7.242188 1.3125 -7.359375 C 1.28125 -7.472656 1.273438 -7.59375 1.296875 -7.71875 L 2.125 -12.828125 C 2.132812 -12.941406 2.191406 -13.046875 2.296875 -13.140625 C 2.410156 -13.242188 2.550781 -13.296875 2.71875 -13.296875 L 8.484375 -13.296875 C 8.640625 -13.296875 8.769531 -13.238281 8.875 -13.125 C 8.988281 -13.019531 9.046875 -12.890625 9.046875 -12.734375 C 9.046875 -12.566406 8.988281 -12.429688 8.875 -12.328125 C 8.769531 -12.222656 8.640625 -12.171875 8.484375 -12.171875 L 2.984375 -12.171875 L 3.15625 -12.34375 L 2.375 -7.796875 L 2.03125 -8.046875 C 2.195312 -8.171875 2.4375 -8.296875 2.75 -8.421875 C 3.0625 -8.554688 3.410156 -8.671875 3.796875 -8.765625 C 4.191406 -8.859375 4.601562 -8.90625 5.03125 -8.90625 C 5.863281 -8.90625 6.601562 -8.722656 7.25 -8.359375 C 7.90625 -7.992188 8.421875 -7.488281 8.796875 -6.84375 C 9.179688 -6.195312 9.375 -5.453125 9.375 -4.609375 C 9.375 -3.679688 9.171875 -2.867188 8.765625 -2.171875 C 8.359375 -1.472656 7.789062 -0.929688 7.0625 -0.546875 C 6.34375 -0.160156 5.484375 0.03125 4.484375 0.03125 Z M 4.484375 0.03125 "/></g></g></g></g></g><g transform="matrix(1, 0, 0, 1, 128, 301)"><g clip-path="url(#f8ea24ea94)"><g clip-path="url(#126c256bf6)"><g fill="#201f1f" fill-opacity="1"><g transform="translate(0.52634, 19.662612)"><g><path d="M 4.328125 0 C 4.148438 0 4.003906 -0.0546875 3.890625 -0.171875 C 3.773438 -0.285156 3.71875 -0.421875 3.71875 -0.578125 L 3.71875 -12.109375 L 3.921875 -11.921875 L 1.375 -10.203125 C 1.269531 -10.128906 1.160156 -10.09375 1.046875 -10.09375 C 0.898438 -10.09375 0.765625 -10.15625 0.640625 -10.28125 C 0.515625 -10.414062 0.453125 -10.554688 0.453125 -10.703125 C 0.453125 -10.910156 0.554688 -11.070312 0.765625 -11.1875 L 3.96875 -13.3125 C 4.039062 -13.363281 4.117188 -13.394531 4.203125 -13.40625 C 4.285156 -13.414062 4.359375 -13.414062 4.421875 -13.40625 C 4.585938 -13.394531 4.710938 -13.332031 4.796875 -13.21875 C 4.890625 -13.113281 4.9375 -12.984375 4.9375 -12.828125 L 4.9375 -0.578125 C 4.9375 -0.421875 4.878906 -0.285156 4.765625 -0.171875 C 4.648438 -0.0546875 4.503906 0 4.328125 0 Z M 4.328125 0 "/></g></g></g></g><g fill="#201f1f" fill-opacity="1"><g transform="translate(7.612027, 19.662612)"><g><path d="M 5.5 0.1875 C 4.757812 0.1875 4.109375 0.0546875 3.546875 -0.203125 C 2.992188 -0.472656 2.535156 -0.832031 2.171875 -1.28125 C 1.804688 -1.738281 1.535156 -2.253906 1.359375 -2.828125 C 1.191406 -3.410156 1.109375 -4 1.109375 -4.59375 C 1.109375 -5.207031 1.1875 -5.867188 1.34375 -6.578125 C 1.5 -7.285156 1.734375 -8.003906 2.046875 -8.734375 C 2.367188 -9.460938 2.757812 -10.148438 3.21875 -10.796875 C 3.6875 -11.453125 4.226562 -12.035156 4.84375 -12.546875 C 5.46875 -13.066406 6.171875 -13.472656 6.953125 -13.765625 C 7.046875 -13.796875 7.125 -13.8125 7.1875 -13.8125 C 7.351562 -13.8125 7.492188 -13.765625 7.609375 -13.671875 C 7.734375 -13.585938 7.796875 -13.4375 7.796875 -13.21875 C 7.796875 -13.09375 7.753906 -12.976562 7.671875 -12.875 C 7.585938 -12.78125 7.476562 -12.707031 7.34375 -12.65625 C 6.800781 -12.425781 6.269531 -12.097656 5.75 -11.671875 C 5.226562 -11.253906 4.742188 -10.769531 4.296875 -10.21875 C 3.847656 -9.675781 3.46875 -9.085938 3.15625 -8.453125 C 2.84375 -7.828125 2.617188 -7.1875 2.484375 -6.53125 L 2.0625 -6.28125 C 2.289062 -6.707031 2.585938 -7.082031 2.953125 -7.40625 C 3.316406 -7.726562 3.734375 -7.988281 4.203125 -8.1875 C 4.679688 -8.382812 5.195312 -8.484375 5.75 -8.484375 C 6.320312 -8.484375 6.847656 -8.363281 7.328125 -8.125 C 7.816406 -7.882812 8.238281 -7.554688 8.59375 -7.140625 C 8.945312 -6.722656 9.222656 -6.25 9.421875 -5.71875 C 9.617188 -5.195312 9.71875 -4.65625 9.71875 -4.09375 C 9.71875 -3.34375 9.535156 -2.640625 9.171875 -1.984375 C 8.804688 -1.335938 8.304688 -0.8125 7.671875 -0.40625 C 7.035156 -0.0078125 6.3125 0.1875 5.5 0.1875 Z M 5.484375 -0.921875 C 6.066406 -0.921875 6.585938 -1.050781 7.046875 -1.3125 C 7.503906 -1.582031 7.863281 -1.957031 8.125 -2.4375 C 8.394531 -2.914062 8.53125 -3.46875 8.53125 -4.09375 C 8.53125 -4.675781 8.414062 -5.210938 8.1875 -5.703125 C 7.96875 -6.191406 7.632812 -6.59375 7.1875 -6.90625 C 6.75 -7.21875 6.207031 -7.375 5.5625 -7.375 C 4.882812 -7.375 4.296875 -7.21875 3.796875 -6.90625 C 3.304688 -6.601562 2.929688 -6.195312 2.671875 -5.6875 C 2.410156 -5.1875 2.28125 -4.640625 2.28125 -4.046875 C 2.28125 -3.503906 2.40625 -2.992188 2.65625 -2.515625 C 2.914062 -2.035156 3.285156 -1.648438 3.765625 -1.359375 C 4.242188 -1.066406 4.816406 -0.921875 5.484375 -0.921875 Z M 5.484375 -0.921875 "/></g></g></g></g></g><g transform="matrix(1, 0, 0, 1, 254, 301)"><g clip-path="url(#7ad1adb6da)"><g clip-path="url(#198ac935b2)"><g fill="#201f1f" fill-opacity="1"><g transform="translate(0.345147, 19.662612)"><g><path d="M 4.328125 0 C 4.148438 0 4.003906 -0.0546875 3.890625 -0.171875 C 3.773438 -0.285156 3.71875 -0.421875 3.71875 -0.578125 L 3.71875 -12.109375 L 3.921875 -11.921875 L 1.375 -10.203125 C 1.269531 -10.128906 1.160156 -10.09375 1.046875 -10.09375 C 0.898438 -10.09375 0.765625 -10.15625 0.640625 -10.28125 C 0.515625 -10.414062 0.453125 -10.554688 0.453125 -10.703125 C 0.453125 -10.910156 0.554688 -11.070312 0.765625 -11.1875 L 3.96875 -13.3125 C 4.039062 -13.363281 4.117188 -13.394531 4.203125 -13.40625 C 4.285156 -13.414062 4.359375 -13.414062 4.421875 -13.40625 C 4.585938 -13.394531 4.710938 -13.332031 4.796875 -13.21875 C 4.890625 -13.113281 4.9375 -12.984375 4.9375 -12.828125 L 4.9375 -0.578125 C 4.9375 -0.421875 4.878906 -0.285156 4.765625 -0.171875 C 4.648438 -0.0546875 4.503906 0 4.328125 0 Z M 4.328125 0 "/></g></g></g></g><g fill="#201f1f" fill-opacity="1"><g transform="translate(7.430834, 19.662612)"><g><path d="M 3.40625 0.0625 C 3.257812 0.0625 3.117188 0.0078125 2.984375 -0.09375 C 2.859375 -0.195312 2.796875 -0.328125 2.796875 -0.484375 C 2.796875 -0.566406 2.816406 -0.660156 2.859375 -0.765625 L 7.953125 -12.46875 L 8.15625 -12.203125 L 1.6875 -12.203125 C 1.53125 -12.203125 1.394531 -12.253906 1.28125 -12.359375 C 1.175781 -12.472656 1.125 -12.609375 1.125 -12.765625 C 1.125 -12.921875 1.175781 -13.050781 1.28125 -13.15625 C 1.394531 -13.257812 1.53125 -13.3125 1.6875 -13.3125 L 8.71875 -13.3125 C 8.90625 -13.3125 9.039062 -13.257812 9.125 -13.15625 C 9.21875 -13.050781 9.265625 -12.925781 9.265625 -12.78125 C 9.265625 -12.675781 9.25 -12.578125 9.21875 -12.484375 L 3.953125 -0.328125 C 3.910156 -0.210938 3.835938 -0.117188 3.734375 -0.046875 C 3.628906 0.0234375 3.519531 0.0625 3.40625 0.0625 Z M 3.40625 0.0625 "/></g></g></g></g></g><g transform="matrix(1, 0, 0, 1, 380, 301)"><g clip-path="url(#a3f323f64b)"><g clip-path="url(#1d1dedd339)"><g fill="#201f1f" fill-opacity="1"><g transform="translate(0.16394, 19.662612)"><g><path d="M 4.328125 0 C 4.148438 0 4.003906 -0.0546875 3.890625 -0.171875 C 3.773438 -0.285156 3.71875 -0.421875 3.71875 -0.578125 L 3.71875 -12.109375 L 3.921875 -11.921875 L 1.375 -10.203125 C 1.269531 -10.128906 1.160156 -10.09375 1.046875 -10.09375 C 0.898438 -10.09375 0.765625 -10.15625 0.640625 -10.28125 C 0.515625 -10.414062 0.453125 -10.554688 0.453125 -10.703125 C 0.453125 -10.910156 0.554688 -11.070312 0.765625 -11.1875 L 3.96875 -13.3125 C 4.039062 -13.363281 4.117188 -13.394531 4.203125 -13.40625 C 4.285156 -13.414062 4.359375 -13.414062 4.421875 -13.40625 C 4.585938 -13.394531 4.710938 -13.332031 4.796875 -13.21875 C 4.890625 -13.113281 4.9375 -12.984375 4.9375 -12.828125 L 4.9375 -0.578125 C 4.9375 -0.421875 4.878906 -0.285156 4.765625 -0.171875 C 4.648438 -0.0546875 4.503906 0 4.328125 0 Z M 4.328125 0 "/></g></g></g></g><g fill="#201f1f" fill-opacity="1"><g transform="translate(7.249627, 19.662612)"><g><path d="M 6.96875 -6.75 L 6.921875 -6.921875 C 7.347656 -6.753906 7.738281 -6.503906 8.09375 -6.171875 C 8.457031 -5.847656 8.75 -5.46875 8.96875 -5.03125 C 9.1875 -4.59375 9.296875 -4.109375 9.296875 -3.578125 C 9.296875 -2.890625 9.113281 -2.265625 8.75 -1.703125 C 8.382812 -1.140625 7.890625 -0.691406 7.265625 -0.359375 C 6.640625 -0.0234375 5.941406 0.140625 5.171875 0.140625 C 4.390625 0.140625 3.6875 -0.0234375 3.0625 -0.359375 C 2.445312 -0.691406 1.957031 -1.140625 1.59375 -1.703125 C 1.226562 -2.265625 1.046875 -2.890625 1.046875 -3.578125 C 1.046875 -4.140625 1.15625 -4.640625 1.375 -5.078125 C 1.601562 -5.523438 1.898438 -5.898438 2.265625 -6.203125 C 2.628906 -6.515625 3.007812 -6.753906 3.40625 -6.921875 L 3.359375 -6.71875 C 3.003906 -6.882812 2.675781 -7.109375 2.375 -7.390625 C 2.082031 -7.679688 1.835938 -8.03125 1.640625 -8.4375 C 1.453125 -8.84375 1.359375 -9.285156 1.359375 -9.765625 C 1.359375 -10.453125 1.523438 -11.070312 1.859375 -11.625 C 2.203125 -12.175781 2.664062 -12.609375 3.25 -12.921875 C 3.832031 -13.242188 4.472656 -13.40625 5.171875 -13.40625 C 5.867188 -13.40625 6.503906 -13.242188 7.078125 -12.921875 C 7.648438 -12.609375 8.101562 -12.175781 8.4375 -11.625 C 8.78125 -11.070312 8.953125 -10.453125 8.953125 -9.765625 C 8.953125 -9.265625 8.851562 -8.816406 8.65625 -8.421875 C 8.46875 -8.023438 8.21875 -7.679688 7.90625 -7.390625 C 7.601562 -7.109375 7.289062 -6.894531 6.96875 -6.75 Z M 2.546875 -9.765625 C 2.546875 -9.253906 2.664062 -8.804688 2.90625 -8.421875 C 3.15625 -8.046875 3.476562 -7.75 3.875 -7.53125 C 4.269531 -7.3125 4.703125 -7.203125 5.171875 -7.203125 C 5.628906 -7.203125 6.054688 -7.3125 6.453125 -7.53125 C 6.847656 -7.75 7.164062 -8.046875 7.40625 -8.421875 C 7.644531 -8.804688 7.765625 -9.253906 7.765625 -9.765625 C 7.765625 -10.523438 7.519531 -11.140625 7.03125 -11.609375 C 6.539062 -12.078125 5.921875 -12.3125 5.171875 -12.3125 C 4.390625 -12.3125 3.753906 -12.078125 3.265625 -11.609375 C 2.785156 -11.140625 2.546875 -10.523438 2.546875 -9.765625 Z M 5.171875 -0.953125 C 6.035156 -0.953125 6.738281 -1.203125 7.28125 -1.703125 C 7.832031 -2.203125 8.109375 -2.828125 8.109375 -3.578125 C 8.109375 -4.085938 7.972656 -4.546875 7.703125 -4.953125 C 7.429688 -5.367188 7.070312 -5.691406 6.625 -5.921875 C 6.175781 -6.148438 5.691406 -6.265625 5.171875 -6.265625 C 4.648438 -6.265625 4.164062 -6.148438 3.71875 -5.921875 C 3.269531 -5.691406 2.910156 -5.367188 2.640625 -4.953125 C 2.367188 -4.546875 2.234375 -4.085938 2.234375 -3.578125 C 2.234375 -2.828125 2.5 -2.203125 3.03125 -1.703125 C 3.570312 -1.203125 4.285156 -0.953125 5.171875 -0.953125 Z M 5.171875 -0.953125 "/></g></g></g></g></g><g transform="matrix(1, 0, 0, 1, 505, 301)"><g clip-path="url(#48f2463e7f)"><g fill="#201f1f" fill-opacity="1"><g transform="translate(0.982791, 19.662612)"><g><path d="M 4.328125 0 C 4.148438 0 4.003906 -0.0546875 3.890625 -0.171875 C 3.773438 -0.285156 3.71875 -0.421875 3.71875 -0.578125 L 3.71875 -12.109375 L 3.921875 -11.921875 L 1.375 -10.203125 C 1.269531 -10.128906 1.160156 -10.09375 1.046875 -10.09375 C 0.898438 -10.09375 0.765625 -10.15625 0.640625 -10.28125 C 0.515625 -10.414062 0.453125 -10.554688 0.453125 -10.703125 C 0.453125 -10.910156 0.554688 -11.070312 0.765625 -11.1875 L 3.96875 -13.3125 C 4.039062 -13.363281 4.117188 -13.394531 4.203125 -13.40625 C 4.285156 -13.414062 4.359375 -13.414062 4.421875 -13.40625 C 4.585938 -13.394531 4.710938 -13.332031 4.796875 -13.21875 C 4.890625 -13.113281 4.9375 -12.984375 4.9375 -12.828125 L 4.9375 -0.578125 C 4.9375 -0.421875 4.878906 -0.285156 4.765625 -0.171875 C 4.648438 -0.0546875 4.503906 0 4.328125 0 Z M 4.328125 0 "/></g></g></g><g fill="#201f1f" fill-opacity="1"><g transform="translate(8.068478, 19.662612)"><g><path d="M 5.3125 -13.625 C 6.0625 -13.625 6.710938 -13.488281 7.265625 -13.21875 C 7.828125 -12.945312 8.285156 -12.582031 8.640625 -12.125 C 8.992188 -11.675781 9.257812 -11.164062 9.4375 -10.59375 C 9.625 -10.019531 9.71875 -9.429688 9.71875 -8.828125 C 9.71875 -8.210938 9.632812 -7.554688 9.46875 -6.859375 C 9.3125 -6.171875 9.078125 -5.472656 8.765625 -4.765625 C 8.453125 -4.054688 8.0625 -3.378906 7.59375 -2.734375 C 7.125 -2.097656 6.578125 -1.523438 5.953125 -1.015625 C 5.328125 -0.503906 4.632812 -0.109375 3.875 0.171875 C 3.769531 0.191406 3.6875 0.203125 3.625 0.203125 C 3.46875 0.203125 3.328125 0.148438 3.203125 0.046875 C 3.085938 -0.0546875 3.03125 -0.203125 3.03125 -0.390625 C 3.03125 -0.515625 3.066406 -0.625 3.140625 -0.71875 C 3.210938 -0.8125 3.328125 -0.882812 3.484375 -0.9375 C 4.210938 -1.238281 4.914062 -1.691406 5.59375 -2.296875 C 6.269531 -2.910156 6.851562 -3.613281 7.34375 -4.40625 C 7.832031 -5.207031 8.160156 -6.035156 8.328125 -6.890625 L 8.734375 -7.140625 C 8.515625 -6.734375 8.21875 -6.363281 7.84375 -6.03125 C 7.476562 -5.695312 7.0625 -5.4375 6.59375 -5.25 C 6.132812 -5.070312 5.628906 -4.984375 5.078125 -4.984375 C 4.253906 -4.984375 3.546875 -5.179688 2.953125 -5.578125 C 2.359375 -5.984375 1.898438 -6.519531 1.578125 -7.1875 C 1.265625 -7.851562 1.109375 -8.566406 1.109375 -9.328125 C 1.109375 -10.078125 1.289062 -10.773438 1.65625 -11.421875 C 2.019531 -12.078125 2.515625 -12.609375 3.140625 -13.015625 C 3.773438 -13.421875 4.5 -13.625 5.3125 -13.625 Z M 5.34375 -12.515625 C 4.738281 -12.515625 4.207031 -12.378906 3.75 -12.109375 C 3.289062 -11.835938 2.929688 -11.460938 2.671875 -10.984375 C 2.410156 -10.503906 2.28125 -9.953125 2.28125 -9.328125 C 2.28125 -8.765625 2.390625 -8.234375 2.609375 -7.734375 C 2.835938 -7.234375 3.175781 -6.832031 3.625 -6.53125 C 4.070312 -6.238281 4.613281 -6.09375 5.25 -6.09375 C 5.9375 -6.09375 6.519531 -6.238281 7 -6.53125 C 7.488281 -6.832031 7.867188 -7.234375 8.140625 -7.734375 C 8.410156 -8.234375 8.546875 -8.785156 8.546875 -9.390625 C 8.546875 -9.929688 8.414062 -10.4375 8.15625 -10.90625 C 7.90625 -11.382812 7.539062 -11.769531 7.0625 -12.0625 C 6.59375 -12.363281 6.019531 -12.515625 5.34375 -12.515625 Z M 5.34375 -12.515625 "/></g></g></g></g></g><g transform="matrix(1, 0, 0, 1, 631, 301)"><g clip-path="url(#001d49d7fe)"><g fill="#201f1f" fill-opacity="1"><g transform="translate(0.801613, 19.662612)"><g><path d="M 9.078125 -1.109375 C 9.234375 -1.109375 9.363281 -1.050781 9.46875 -0.9375 C 9.582031 -0.832031 9.640625 -0.707031 9.640625 -0.5625 C 9.640625 -0.394531 9.582031 -0.257812 9.46875 -0.15625 C 9.363281 -0.0507812 9.234375 0 9.078125 0 L 1.890625 0 C 1.722656 0 1.578125 -0.046875 1.453125 -0.140625 C 1.335938 -0.234375 1.28125 -0.378906 1.28125 -0.578125 C 1.28125 -0.710938 1.332031 -0.847656 1.4375 -0.984375 L 5.859375 -5.859375 C 6.566406 -6.628906 7.09375 -7.335938 7.4375 -7.984375 C 7.789062 -8.628906 7.96875 -9.207031 7.96875 -9.71875 C 7.96875 -10.550781 7.710938 -11.222656 7.203125 -11.734375 C 6.691406 -12.253906 6.003906 -12.515625 5.140625 -12.515625 C 4.742188 -12.515625 4.347656 -12.429688 3.953125 -12.265625 C 3.566406 -12.097656 3.222656 -11.878906 2.921875 -11.609375 C 2.617188 -11.335938 2.382812 -11.03125 2.21875 -10.6875 C 2.144531 -10.5625 2.066406 -10.472656 1.984375 -10.421875 C 1.898438 -10.367188 1.804688 -10.34375 1.703125 -10.34375 C 1.546875 -10.34375 1.410156 -10.390625 1.296875 -10.484375 C 1.179688 -10.578125 1.125 -10.695312 1.125 -10.84375 C 1.125 -10.925781 1.144531 -11.015625 1.1875 -11.109375 C 1.238281 -11.203125 1.304688 -11.304688 1.390625 -11.421875 C 1.628906 -11.816406 1.953125 -12.175781 2.359375 -12.5 C 2.765625 -12.832031 3.21875 -13.097656 3.71875 -13.296875 C 4.226562 -13.492188 4.722656 -13.59375 5.203125 -13.59375 C 6.023438 -13.59375 6.734375 -13.4375 7.328125 -13.125 C 7.921875 -12.8125 8.378906 -12.367188 8.703125 -11.796875 C 9.023438 -11.234375 9.1875 -10.5625 9.1875 -9.78125 C 9.1875 -9.125 8.976562 -8.398438 8.5625 -7.609375 C 8.15625 -6.828125 7.539062 -5.984375 6.71875 -5.078125 L 2.984375 -0.875 L 2.796875 -1.109375 Z M 9.078125 -1.109375 "/></g></g></g><g fill="#201f1f" fill-opacity="1"><g transform="translate(11.41099, 19.662612)"><g><path d="M 5.6875 0.1875 C 4.664062 0.1875 3.8125 -0.113281 3.125 -0.71875 C 2.4375 -1.332031 1.914062 -2.160156 1.5625 -3.203125 C 1.21875 -4.242188 1.046875 -5.410156 1.046875 -6.703125 C 1.046875 -8.003906 1.21875 -9.175781 1.5625 -10.21875 C 1.914062 -11.257812 2.4375 -12.082031 3.125 -12.6875 C 3.8125 -13.289062 4.664062 -13.59375 5.6875 -13.59375 C 6.738281 -13.59375 7.601562 -13.289062 8.28125 -12.6875 C 8.96875 -12.082031 9.484375 -11.257812 9.828125 -10.21875 C 10.171875 -9.175781 10.34375 -8.003906 10.34375 -6.703125 C 10.34375 -5.410156 10.171875 -4.242188 9.828125 -3.203125 C 9.484375 -2.160156 8.96875 -1.332031 8.28125 -0.71875 C 7.601562 -0.113281 6.738281 0.1875 5.6875 0.1875 Z M 5.6875 -1 C 6.4375 -1 7.0625 -1.234375 7.5625 -1.703125 C 8.070312 -2.171875 8.457031 -2.835938 8.71875 -3.703125 C 8.988281 -4.566406 9.125 -5.566406 9.125 -6.703125 C 9.125 -7.847656 8.988281 -8.851562 8.71875 -9.71875 C 8.457031 -10.582031 8.070312 -11.25 7.5625 -11.71875 C 7.0625 -12.195312 6.4375 -12.4375 5.6875 -12.4375 C 4.945312 -12.4375 4.320312 -12.195312 3.8125 -11.71875 C 3.3125 -11.25 2.929688 -10.582031 2.671875 -9.71875 C 2.410156 -8.851562 2.28125 -7.847656 2.28125 -6.703125 C 2.28125 -5.566406 2.410156 -4.566406 2.671875 -3.703125 C 2.929688 -2.835938 3.3125 -2.171875 3.8125 -1.703125 C 4.320312 -1.234375 4.945312 -1 5.6875 -1 Z M 5.6875 -1 "/></g></g></g></g></g><g transform="matrix(1, 0, 0, 1, 757, 301)"><g clip-path="url(#59440e7bb3)"><g fill="#201f1f" fill-opacity="1"><g transform="translate(0.620376, 19.662612)"><g><path d="M 9.078125 -1.109375 C 9.234375 -1.109375 9.363281 -1.050781 9.46875 -0.9375 C 9.582031 -0.832031 9.640625 -0.707031 9.640625 -0.5625 C 9.640625 -0.394531 9.582031 -0.257812 9.46875 -0.15625 C 9.363281 -0.0507812 9.234375 0 9.078125 0 L 1.890625 0 C 1.722656 0 1.578125 -0.046875 1.453125 -0.140625 C 1.335938 -0.234375 1.28125 -0.378906 1.28125 -0.578125 C 1.28125 -0.710938 1.332031 -0.847656 1.4375 -0.984375 L 5.859375 -5.859375 C 6.566406 -6.628906 7.09375 -7.335938 7.4375 -7.984375 C 7.789062 -8.628906 7.96875 -9.207031 7.96875 -9.71875 C 7.96875 -10.550781 7.710938 -11.222656 7.203125 -11.734375 C 6.691406 -12.253906 6.003906 -12.515625 5.140625 -12.515625 C 4.742188 -12.515625 4.347656 -12.429688 3.953125 -12.265625 C 3.566406 -12.097656 3.222656 -11.878906 2.921875 -11.609375 C 2.617188 -11.335938 2.382812 -11.03125 2.21875 -10.6875 C 2.144531 -10.5625 2.066406 -10.472656 1.984375 -10.421875 C 1.898438 -10.367188 1.804688 -10.34375 1.703125 -10.34375 C 1.546875 -10.34375 1.410156 -10.390625 1.296875 -10.484375 C 1.179688 -10.578125 1.125 -10.695312 1.125 -10.84375 C 1.125 -10.925781 1.144531 -11.015625 1.1875 -11.109375 C 1.238281 -11.203125 1.304688 -11.304688 1.390625 -11.421875 C 1.628906 -11.816406 1.953125 -12.175781 2.359375 -12.5 C 2.765625 -12.832031 3.21875 -13.097656 3.71875 -13.296875 C 4.226562 -13.492188 4.722656 -13.59375 5.203125 -13.59375 C 6.023438 -13.59375 6.734375 -13.4375 7.328125 -13.125 C 7.921875 -12.8125 8.378906 -12.367188 8.703125 -11.796875 C 9.023438 -11.234375 9.1875 -10.5625 9.1875 -9.78125 C 9.1875 -9.125 8.976562 -8.398438 8.5625 -7.609375 C 8.15625 -6.828125 7.539062 -5.984375 6.71875 -5.078125 L 2.984375 -0.875 L 2.796875 -1.109375 Z M 9.078125 -1.109375 "/></g></g></g><g fill="#201f1f" fill-opacity="1"><g transform="translate(11.229754, 19.662612)"><g><path d="M 4.328125 0 C 4.148438 0 4.003906 -0.0546875 3.890625 -0.171875 C 3.773438 -0.285156 3.71875 -0.421875 3.71875 -0.578125 L 3.71875 -12.109375 L 3.921875 -11.921875 L 1.375 -10.203125 C 1.269531 -10.128906 1.160156 -10.09375 1.046875 -10.09375 C 0.898438 -10.09375 0.765625 -10.15625 0.640625 -10.28125 C 0.515625 -10.414062 0.453125 -10.554688 0.453125 -10.703125 C 0.453125 -10.910156 0.554688 -11.070312 0.765625 -11.1875 L 3.96875 -13.3125 C 4.039062 -13.363281 4.117188 -13.394531 4.203125 -13.40625 C 4.285156 -13.414062 4.359375 -13.414062 4.421875 -13.40625 C 4.585938 -13.394531 4.710938 -13.332031 4.796875 -13.21875 C 4.890625 -13.113281 4.9375 -12.984375 4.9375 -12.828125 L 4.9375 -0.578125 C 4.9375 -0.421875 4.878906 -0.285156 4.765625 -0.171875 C 4.648438 -0.0546875 4.503906 0 4.328125 0 Z M 4.328125 0 "/></g></g></g></g></g><g clip-path="url(#86958cc7cc)"><g transform="matrix(1, 0, 0, 1, 2, 450)"><g clip-path="url(#a9017e72d3)"><g fill="#201f1f" fill-opacity="1"><g transform="translate(0.707523, 20.421081)"><g><path d="M 9.078125 -1.109375 C 9.234375 -1.109375 9.363281 -1.050781 9.46875 -0.9375 C 9.582031 -0.832031 9.640625 -0.707031 9.640625 -0.5625 C 9.640625 -0.394531 9.582031 -0.257812 9.46875 -0.15625 C 9.363281 -0.0507812 9.234375 0 9.078125 0 L 1.890625 0 C 1.722656 0 1.578125 -0.046875 1.453125 -0.140625 C 1.335938 -0.234375 1.28125 -0.378906 1.28125 -0.578125 C 1.28125 -0.710938 1.332031 -0.847656 1.4375 -0.984375 L 5.859375 -5.859375 C 6.566406 -6.628906 7.09375 -7.335938 7.4375 -7.984375 C 7.789062 -8.628906 7.96875 -9.207031 7.96875 -9.71875 C 7.96875 -10.550781 7.710938 -11.222656 7.203125 -11.734375 C 6.691406 -12.253906 6.003906 -12.515625 5.140625 -12.515625 C 4.742188 -12.515625 4.347656 -12.429688 3.953125 -12.265625 C 3.566406 -12.097656 3.222656 -11.878906 2.921875 -11.609375 C 2.617188 -11.335938 2.382812 -11.03125 2.21875 -10.6875 C 2.144531 -10.5625 2.066406 -10.472656 1.984375 -10.421875 C 1.898438 -10.367188 1.804688 -10.34375 1.703125 -10.34375 C 1.546875 -10.34375 1.410156 -10.390625 1.296875 -10.484375 C 1.179688 -10.578125 1.125 -10.695312 1.125 -10.84375 C 1.125 -10.925781 1.144531 -11.015625 1.1875 -11.109375 C 1.238281 -11.203125 1.304688 -11.304688 1.390625 -11.421875 C 1.628906 -11.816406 1.953125 -12.175781 2.359375 -12.5 C 2.765625 -12.832031 3.21875 -13.097656 3.71875 -13.296875 C 4.226562 -13.492188 4.722656 -13.59375 5.203125 -13.59375 C 6.023438 -13.59375 6.734375 -13.4375 7.328125 -13.125 C 7.921875 -12.8125 8.378906 -12.367188 8.703125 -11.796875 C 9.023438 -11.234375 9.1875 -10.5625 9.1875 -9.78125 C 9.1875 -9.125 8.976562 -8.398438 8.5625 -7.609375 C 8.15625 -6.828125 7.539062 -5.984375 6.71875 -5.078125 L 2.984375 -0.875 L 2.796875 -1.109375 Z M 9.078125 -1.109375 "/></g></g></g><g fill="#201f1f" fill-opacity="1"><g transform="translate(11.316901, 20.421081)"><g><path d="M 9.078125 -1.109375 C 9.234375 -1.109375 9.363281 -1.050781 9.46875 -0.9375 C 9.582031 -0.832031 9.640625 -0.707031 9.640625 -0.5625 C 9.640625 -0.394531 9.582031 -0.257812 9.46875 -0.15625 C 9.363281 -0.0507812 9.234375 0 9.078125 0 L 1.890625 0 C 1.722656 0 1.578125 -0.046875 1.453125 -0.140625 C 1.335938 -0.234375 1.28125 -0.378906 1.28125 -0.578125 C 1.28125 -0.710938 1.332031 -0.847656 1.4375 -0.984375 L 5.859375 -5.859375 C 6.566406 -6.628906 7.09375 -7.335938 7.4375 -7.984375 C 7.789062 -8.628906 7.96875 -9.207031 7.96875 -9.71875 C 7.96875 -10.550781 7.710938 -11.222656 7.203125 -11.734375 C 6.691406 -12.253906 6.003906 -12.515625 5.140625 -12.515625 C 4.742188 -12.515625 4.347656 -12.429688 3.953125 -12.265625 C 3.566406 -12.097656 3.222656 -11.878906 2.921875 -11.609375 C 2.617188 -11.335938 2.382812 -11.03125 2.21875 -10.6875 C 2.144531 -10.5625 2.066406 -10.472656 1.984375 -10.421875 C 1.898438 -10.367188 1.804688 -10.34375 1.703125 -10.34375 C 1.546875 -10.34375 1.410156 -10.390625 1.296875 -10.484375 C 1.179688 -10.578125 1.125 -10.695312 1.125 -10.84375 C 1.125 -10.925781 1.144531 -11.015625 1.1875 -11.109375 C 1.238281 -11.203125 1.304688 -11.304688 1.390625 -11.421875 C 1.628906 -11.816406 1.953125 -12.175781 2.359375 -12.5 C 2.765625 -12.832031 3.21875 -13.097656 3.71875 -13.296875 C 4.226562 -13.492188 4.722656 -13.59375 5.203125 -13.59375 C 6.023438 -13.59375 6.734375 -13.4375 7.328125 -13.125 C 7.921875 -12.8125 8.378906 -12.367188 8.703125 -11.796875 C 9.023438 -11.234375 9.1875 -10.5625 9.1875 -9.78125 C 9.1875 -9.125 8.976562 -8.398438 8.5625 -7.609375 C 8.15625 -6.828125 7.539062 -5.984375 6.71875 -5.078125 L 2.984375 -0.875 L 2.796875 -1.109375 Z M 9.078125 -1.109375 "/></g></g></g></g></g></g><g clip-path="url(#8fe7c2fadc)"><g transform="matrix(1, 0, 0, 1, 128, 450)"><g clip-path="url(#efe278d763)"><g fill="#201f1f" fill-opacity="1"><g transform="translate(0.52634, 20.421081)"><g><path d="M 9.078125 -1.109375 C 9.234375 -1.109375 9.363281 -1.050781 9.46875 -0.9375 C 9.582031 -0.832031 9.640625 -0.707031 9.640625 -0.5625 C 9.640625 -0.394531 9.582031 -0.257812 9.46875 -0.15625 C 9.363281 -0.0507812 9.234375 0 9.078125 0 L 1.890625 0 C 1.722656 0 1.578125 -0.046875 1.453125 -0.140625 C 1.335938 -0.234375 1.28125 -0.378906 1.28125 -0.578125 C 1.28125 -0.710938 1.332031 -0.847656 1.4375 -0.984375 L 5.859375 -5.859375 C 6.566406 -6.628906 7.09375 -7.335938 7.4375 -7.984375 C 7.789062 -8.628906 7.96875 -9.207031 7.96875 -9.71875 C 7.96875 -10.550781 7.710938 -11.222656 7.203125 -11.734375 C 6.691406 -12.253906 6.003906 -12.515625 5.140625 -12.515625 C 4.742188 -12.515625 4.347656 -12.429688 3.953125 -12.265625 C 3.566406 -12.097656 3.222656 -11.878906 2.921875 -11.609375 C 2.617188 -11.335938 2.382812 -11.03125 2.21875 -10.6875 C 2.144531 -10.5625 2.066406 -10.472656 1.984375 -10.421875 C 1.898438 -10.367188 1.804688 -10.34375 1.703125 -10.34375 C 1.546875 -10.34375 1.410156 -10.390625 1.296875 -10.484375 C 1.179688 -10.578125 1.125 -10.695312 1.125 -10.84375 C 1.125 -10.925781 1.144531 -11.015625 1.1875 -11.109375 C 1.238281 -11.203125 1.304688 -11.304688 1.390625 -11.421875 C 1.628906 -11.816406 1.953125 -12.175781 2.359375 -12.5 C 2.765625 -12.832031 3.21875 -13.097656 3.71875 -13.296875 C 4.226562 -13.492188 4.722656 -13.59375 5.203125 -13.59375 C 6.023438 -13.59375 6.734375 -13.4375 7.328125 -13.125 C 7.921875 -12.8125 8.378906 -12.367188 8.703125 -11.796875 C 9.023438 -11.234375 9.1875 -10.5625 9.1875 -9.78125 C 9.1875 -9.125 8.976562 -8.398438 8.5625 -7.609375 C 8.15625 -6.828125 7.539062 -5.984375 6.71875 -5.078125 L 2.984375 -0.875 L 2.796875 -1.109375 Z M 9.078125 -1.109375 "/></g></g></g><g fill="#201f1f" fill-opacity="1"><g transform="translate(11.135717, 20.421081)"><g><path d="M 1.703125 -1.96875 C 1.765625 -1.96875 1.832031 -1.953125 1.90625 -1.921875 C 1.976562 -1.898438 2.066406 -1.847656 2.171875 -1.765625 C 2.429688 -1.484375 2.742188 -1.269531 3.109375 -1.125 C 3.484375 -0.976562 3.910156 -0.90625 4.390625 -0.90625 C 5.015625 -0.90625 5.582031 -1.046875 6.09375 -1.328125 C 6.613281 -1.609375 7.023438 -2 7.328125 -2.5 C 7.640625 -3 7.796875 -3.578125 7.796875 -4.234375 C 7.796875 -4.972656 7.628906 -5.566406 7.296875 -6.015625 C 6.972656 -6.472656 6.5625 -6.8125 6.0625 -7.03125 C 5.5625 -7.257812 5.046875 -7.375 4.515625 -7.375 C 4.378906 -7.375 4.242188 -7.363281 4.109375 -7.34375 C 3.972656 -7.320312 3.847656 -7.296875 3.734375 -7.265625 C 3.617188 -7.242188 3.53125 -7.234375 3.46875 -7.234375 C 3.300781 -7.234375 3.171875 -7.285156 3.078125 -7.390625 C 2.992188 -7.503906 2.953125 -7.644531 2.953125 -7.8125 C 2.953125 -7.90625 2.96875 -7.984375 3 -8.046875 C 3.039062 -8.117188 3.09375 -8.203125 3.15625 -8.296875 L 7.046875 -12.53125 L 7.28125 -12.21875 L 1.46875 -12.21875 C 1.320312 -12.21875 1.191406 -12.269531 1.078125 -12.375 C 0.972656 -12.488281 0.921875 -12.625 0.921875 -12.78125 C 0.921875 -12.925781 0.972656 -13.050781 1.078125 -13.15625 C 1.191406 -13.257812 1.320312 -13.3125 1.46875 -13.3125 L 7.90625 -13.3125 C 8.125 -13.3125 8.273438 -13.242188 8.359375 -13.109375 C 8.453125 -12.972656 8.5 -12.84375 8.5 -12.71875 C 8.5 -12.644531 8.476562 -12.570312 8.4375 -12.5 C 8.40625 -12.425781 8.359375 -12.351562 8.296875 -12.28125 L 4.40625 -8.046875 L 3.984375 -8.296875 C 4.023438 -8.335938 4.15625 -8.378906 4.375 -8.421875 C 4.601562 -8.460938 4.78125 -8.484375 4.90625 -8.484375 C 5.601562 -8.484375 6.257812 -8.316406 6.875 -7.984375 C 7.5 -7.648438 8.003906 -7.171875 8.390625 -6.546875 C 8.785156 -5.929688 8.984375 -5.171875 8.984375 -4.265625 C 8.984375 -3.378906 8.769531 -2.597656 8.34375 -1.921875 C 7.925781 -1.253906 7.359375 -0.734375 6.640625 -0.359375 C 5.929688 0.00390625 5.140625 0.1875 4.265625 0.1875 C 3.742188 0.1875 3.226562 0.0976562 2.71875 -0.078125 C 2.207031 -0.253906 1.757812 -0.519531 1.375 -0.875 C 1.289062 -0.957031 1.226562 -1.035156 1.1875 -1.109375 C 1.144531 -1.179688 1.125 -1.257812 1.125 -1.34375 C 1.125 -1.5 1.175781 -1.640625 1.28125 -1.765625 C 1.394531 -1.898438 1.535156 -1.96875 1.703125 -1.96875 Z M 1.703125 -1.96875 "/></g></g></g></g></g></g><g clip-path="url(#812a93509a)"><g transform="matrix(1, 0, 0, 1, 254, 450)"><g clip-path="url(#6767ea5f82)"><g fill="#201f1f" fill-opacity="1"><g transform="translate(0.345147, 20.421081)"><g><path d="M 9.078125 -1.109375 C 9.234375 -1.109375 9.363281 -1.050781 9.46875 -0.9375 C 9.582031 -0.832031 9.640625 -0.707031 9.640625 -0.5625 C 9.640625 -0.394531 9.582031 -0.257812 9.46875 -0.15625 C 9.363281 -0.0507812 9.234375 0 9.078125 0 L 1.890625 0 C 1.722656 0 1.578125 -0.046875 1.453125 -0.140625 C 1.335938 -0.234375 1.28125 -0.378906 1.28125 -0.578125 C 1.28125 -0.710938 1.332031 -0.847656 1.4375 -0.984375 L 5.859375 -5.859375 C 6.566406 -6.628906 7.09375 -7.335938 7.4375 -7.984375 C 7.789062 -8.628906 7.96875 -9.207031 7.96875 -9.71875 C 7.96875 -10.550781 7.710938 -11.222656 7.203125 -11.734375 C 6.691406 -12.253906 6.003906 -12.515625 5.140625 -12.515625 C 4.742188 -12.515625 4.347656 -12.429688 3.953125 -12.265625 C 3.566406 -12.097656 3.222656 -11.878906 2.921875 -11.609375 C 2.617188 -11.335938 2.382812 -11.03125 2.21875 -10.6875 C 2.144531 -10.5625 2.066406 -10.472656 1.984375 -10.421875 C 1.898438 -10.367188 1.804688 -10.34375 1.703125 -10.34375 C 1.546875 -10.34375 1.410156 -10.390625 1.296875 -10.484375 C 1.179688 -10.578125 1.125 -10.695312 1.125 -10.84375 C 1.125 -10.925781 1.144531 -11.015625 1.1875 -11.109375 C 1.238281 -11.203125 1.304688 -11.304688 1.390625 -11.421875 C 1.628906 -11.816406 1.953125 -12.175781 2.359375 -12.5 C 2.765625 -12.832031 3.21875 -13.097656 3.71875 -13.296875 C 4.226562 -13.492188 4.722656 -13.59375 5.203125 -13.59375 C 6.023438 -13.59375 6.734375 -13.4375 7.328125 -13.125 C 7.921875 -12.8125 8.378906 -12.367188 8.703125 -11.796875 C 9.023438 -11.234375 9.1875 -10.5625 9.1875 -9.78125 C 9.1875 -9.125 8.976562 -8.398438 8.5625 -7.609375 C 8.15625 -6.828125 7.539062 -5.984375 6.71875 -5.078125 L 2.984375 -0.875 L 2.796875 -1.109375 Z M 9.078125 -1.109375 "/></g></g></g><g fill="#201f1f" fill-opacity="1"><g transform="translate(10.954524, 20.421081)"><g><path d="M 7.03125 0 C 6.863281 0 6.726562 -0.0546875 6.625 -0.171875 C 6.519531 -0.285156 6.46875 -0.421875 6.46875 -0.578125 L 6.46875 -11.8125 L 6.71875 -11.671875 L 1.6875 -5 L 1.625 -5.203125 L 8.984375 -5.203125 C 9.140625 -5.203125 9.269531 -5.148438 9.375 -5.046875 C 9.488281 -4.953125 9.546875 -4.828125 9.546875 -4.671875 C 9.546875 -4.515625 9.488281 -4.382812 9.375 -4.28125 C 9.269531 -4.1875 9.140625 -4.140625 8.984375 -4.140625 L 0.84375 -4.140625 C 0.6875 -4.140625 0.550781 -4.195312 0.4375 -4.3125 C 0.320312 -4.4375 0.265625 -4.578125 0.265625 -4.734375 C 0.265625 -4.867188 0.3125 -4.992188 0.40625 -5.109375 L 6.578125 -13.171875 C 6.640625 -13.265625 6.71875 -13.328125 6.8125 -13.359375 C 6.90625 -13.390625 6.984375 -13.40625 7.046875 -13.40625 C 7.210938 -13.40625 7.347656 -13.347656 7.453125 -13.234375 C 7.566406 -13.117188 7.625 -12.984375 7.625 -12.828125 L 7.625 -0.578125 C 7.625 -0.421875 7.566406 -0.285156 7.453125 -0.171875 C 7.335938 -0.0546875 7.195312 0 7.03125 0 Z M 7.03125 0 "/></g></g></g></g></g></g><g clip-path="url(#e7f99d94e5)"><g transform="matrix(1, 0, 0, 1, 380, 450)"><g clip-path="url(#8103b6a63d)"><g fill="#201f1f" fill-opacity="1"><g transform="translate(0.16394, 20.421081)"><g><path d="M 9.078125 -1.109375 C 9.234375 -1.109375 9.363281 -1.050781 9.46875 -0.9375 C 9.582031 -0.832031 9.640625 -0.707031 9.640625 -0.5625 C 9.640625 -0.394531 9.582031 -0.257812 9.46875 -0.15625 C 9.363281 -0.0507812 9.234375 0 9.078125 0 L 1.890625 0 C 1.722656 0 1.578125 -0.046875 1.453125 -0.140625 C 1.335938 -0.234375 1.28125 -0.378906 1.28125 -0.578125 C 1.28125 -0.710938 1.332031 -0.847656 1.4375 -0.984375 L 5.859375 -5.859375 C 6.566406 -6.628906 7.09375 -7.335938 7.4375 -7.984375 C 7.789062 -8.628906 7.96875 -9.207031 7.96875 -9.71875 C 7.96875 -10.550781 7.710938 -11.222656 7.203125 -11.734375 C 6.691406 -12.253906 6.003906 -12.515625 5.140625 -12.515625 C 4.742188 -12.515625 4.347656 -12.429688 3.953125 -12.265625 C 3.566406 -12.097656 3.222656 -11.878906 2.921875 -11.609375 C 2.617188 -11.335938 2.382812 -11.03125 2.21875 -10.6875 C 2.144531 -10.5625 2.066406 -10.472656 1.984375 -10.421875 C 1.898438 -10.367188 1.804688 -10.34375 1.703125 -10.34375 C 1.546875 -10.34375 1.410156 -10.390625 1.296875 -10.484375 C 1.179688 -10.578125 1.125 -10.695312 1.125 -10.84375 C 1.125 -10.925781 1.144531 -11.015625 1.1875 -11.109375 C 1.238281 -11.203125 1.304688 -11.304688 1.390625 -11.421875 C 1.628906 -11.816406 1.953125 -12.175781 2.359375 -12.5 C 2.765625 -12.832031 3.21875 -13.097656 3.71875 -13.296875 C 4.226562 -13.492188 4.722656 -13.59375 5.203125 -13.59375 C 6.023438 -13.59375 6.734375 -13.4375 7.328125 -13.125 C 7.921875 -12.8125 8.378906 -12.367188 8.703125 -11.796875 C 9.023438 -11.234375 9.1875 -10.5625 9.1875 -9.78125 C 9.1875 -9.125 8.976562 -8.398438 8.5625 -7.609375 C 8.15625 -6.828125 7.539062 -5.984375 6.71875 -5.078125 L 2.984375 -0.875 L 2.796875 -1.109375 Z M 9.078125 -1.109375 "/></g></g></g><g fill="#201f1f" fill-opacity="1"><g transform="translate(10.773317, 20.421081)"><g><path d="M 4.484375 0.03125 C 3.960938 0.03125 3.4375 -0.0507812 2.90625 -0.21875 C 2.375 -0.394531 1.90625 -0.65625 1.5 -1 C 1.414062 -1.0625 1.351562 -1.132812 1.3125 -1.21875 C 1.269531 -1.3125 1.25 -1.40625 1.25 -1.5 C 1.25 -1.625 1.296875 -1.742188 1.390625 -1.859375 C 1.492188 -1.984375 1.628906 -2.046875 1.796875 -2.046875 C 1.941406 -2.046875 2.082031 -1.988281 2.21875 -1.875 C 2.550781 -1.625 2.910156 -1.425781 3.296875 -1.28125 C 3.691406 -1.144531 4.085938 -1.078125 4.484375 -1.078125 C 5.234375 -1.078125 5.890625 -1.21875 6.453125 -1.5 C 7.015625 -1.789062 7.445312 -2.203125 7.75 -2.734375 C 8.0625 -3.265625 8.21875 -3.878906 8.21875 -4.578125 C 8.21875 -5.234375 8.078125 -5.796875 7.796875 -6.265625 C 7.515625 -6.742188 7.113281 -7.117188 6.59375 -7.390625 C 6.082031 -7.671875 5.472656 -7.8125 4.765625 -7.8125 C 4.304688 -7.8125 3.890625 -7.738281 3.515625 -7.59375 C 3.140625 -7.457031 2.8125 -7.316406 2.53125 -7.171875 C 2.257812 -7.023438 2.039062 -6.953125 1.875 -6.953125 C 1.71875 -6.953125 1.59375 -6.988281 1.5 -7.0625 C 1.40625 -7.144531 1.34375 -7.242188 1.3125 -7.359375 C 1.28125 -7.472656 1.273438 -7.59375 1.296875 -7.71875 L 2.125 -12.828125 C 2.132812 -12.941406 2.191406 -13.046875 2.296875 -13.140625 C 2.410156 -13.242188 2.550781 -13.296875 2.71875 -13.296875 L 8.484375 -13.296875 C 8.640625 -13.296875 8.769531 -13.238281 8.875 -13.125 C 8.988281 -13.019531 9.046875 -12.890625 9.046875 -12.734375 C 9.046875 -12.566406 8.988281 -12.429688 8.875 -12.328125 C 8.769531 -12.222656 8.640625 -12.171875 8.484375 -12.171875 L 2.984375 -12.171875 L 3.15625 -12.34375 L 2.375 -7.796875 L 2.03125 -8.046875 C 2.195312 -8.171875 2.4375 -8.296875 2.75 -8.421875 C 3.0625 -8.554688 3.410156 -8.671875 3.796875 -8.765625 C 4.191406 -8.859375 4.601562 -8.90625 5.03125 -8.90625 C 5.863281 -8.90625 6.601562 -8.722656 7.25 -8.359375 C 7.90625 -7.992188 8.421875 -7.488281 8.796875 -6.84375 C 9.179688 -6.195312 9.375 -5.453125 9.375 -4.609375 C 9.375 -3.679688 9.171875 -2.867188 8.765625 -2.171875 C 8.359375 -1.472656 7.789062 -0.929688 7.0625 -0.546875 C 6.34375 -0.160156 5.484375 0.03125 4.484375 0.03125 Z M 4.484375 0.03125 "/></g></g></g></g></g></g><g clip-path="url(#7cb78b56c0)"><g transform="matrix(1, 0, 0, 1, 505, 450)"><g clip-path="url(#052768488b)"><g fill="#201f1f" fill-opacity="1"><g transform="translate(0.982791, 20.421081)"><g><path d="M 9.078125 -1.109375 C 9.234375 -1.109375 9.363281 -1.050781 9.46875 -0.9375 C 9.582031 -0.832031 9.640625 -0.707031 9.640625 -0.5625 C 9.640625 -0.394531 9.582031 -0.257812 9.46875 -0.15625 C 9.363281 -0.0507812 9.234375 0 9.078125 0 L 1.890625 0 C 1.722656 0 1.578125 -0.046875 1.453125 -0.140625 C 1.335938 -0.234375 1.28125 -0.378906 1.28125 -0.578125 C 1.28125 -0.710938 1.332031 -0.847656 1.4375 -0.984375 L 5.859375 -5.859375 C 6.566406 -6.628906 7.09375 -7.335938 7.4375 -7.984375 C 7.789062 -8.628906 7.96875 -9.207031 7.96875 -9.71875 C 7.96875 -10.550781 7.710938 -11.222656 7.203125 -11.734375 C 6.691406 -12.253906 6.003906 -12.515625 5.140625 -12.515625 C 4.742188 -12.515625 4.347656 -12.429688 3.953125 -12.265625 C 3.566406 -12.097656 3.222656 -11.878906 2.921875 -11.609375 C 2.617188 -11.335938 2.382812 -11.03125 2.21875 -10.6875 C 2.144531 -10.5625 2.066406 -10.472656 1.984375 -10.421875 C 1.898438 -10.367188 1.804688 -10.34375 1.703125 -10.34375 C 1.546875 -10.34375 1.410156 -10.390625 1.296875 -10.484375 C 1.179688 -10.578125 1.125 -10.695312 1.125 -10.84375 C 1.125 -10.925781 1.144531 -11.015625 1.1875 -11.109375 C 1.238281 -11.203125 1.304688 -11.304688 1.390625 -11.421875 C 1.628906 -11.816406 1.953125 -12.175781 2.359375 -12.5 C 2.765625 -12.832031 3.21875 -13.097656 3.71875 -13.296875 C 4.226562 -13.492188 4.722656 -13.59375 5.203125 -13.59375 C 6.023438 -13.59375 6.734375 -13.4375 7.328125 -13.125 C 7.921875 -12.8125 8.378906 -12.367188 8.703125 -11.796875 C 9.023438 -11.234375 9.1875 -10.5625 9.1875 -9.78125 C 9.1875 -9.125 8.976562 -8.398438 8.5625 -7.609375 C 8.15625 -6.828125 7.539062 -5.984375 6.71875 -5.078125 L 2.984375 -0.875 L 2.796875 -1.109375 Z M 9.078125 -1.109375 "/></g></g></g><g fill="#201f1f" fill-opacity="1"><g transform="translate(11.592168, 20.421081)"><g><path d="M 5.5 0.1875 C 4.757812 0.1875 4.109375 0.0546875 3.546875 -0.203125 C 2.992188 -0.472656 2.535156 -0.832031 2.171875 -1.28125 C 1.804688 -1.738281 1.535156 -2.253906 1.359375 -2.828125 C 1.191406 -3.410156 1.109375 -4 1.109375 -4.59375 C 1.109375 -5.207031 1.1875 -5.867188 1.34375 -6.578125 C 1.5 -7.285156 1.734375 -8.003906 2.046875 -8.734375 C 2.367188 -9.460938 2.757812 -10.148438 3.21875 -10.796875 C 3.6875 -11.453125 4.226562 -12.035156 4.84375 -12.546875 C 5.46875 -13.066406 6.171875 -13.472656 6.953125 -13.765625 C 7.046875 -13.796875 7.125 -13.8125 7.1875 -13.8125 C 7.351562 -13.8125 7.492188 -13.765625 7.609375 -13.671875 C 7.734375 -13.585938 7.796875 -13.4375 7.796875 -13.21875 C 7.796875 -13.09375 7.753906 -12.976562 7.671875 -12.875 C 7.585938 -12.78125 7.476562 -12.707031 7.34375 -12.65625 C 6.800781 -12.425781 6.269531 -12.097656 5.75 -11.671875 C 5.226562 -11.253906 4.742188 -10.769531 4.296875 -10.21875 C 3.847656 -9.675781 3.46875 -9.085938 3.15625 -8.453125 C 2.84375 -7.828125 2.617188 -7.1875 2.484375 -6.53125 L 2.0625 -6.28125 C 2.289062 -6.707031 2.585938 -7.082031 2.953125 -7.40625 C 3.316406 -7.726562 3.734375 -7.988281 4.203125 -8.1875 C 4.679688 -8.382812 5.195312 -8.484375 5.75 -8.484375 C 6.320312 -8.484375 6.847656 -8.363281 7.328125 -8.125 C 7.816406 -7.882812 8.238281 -7.554688 8.59375 -7.140625 C 8.945312 -6.722656 9.222656 -6.25 9.421875 -5.71875 C 9.617188 -5.195312 9.71875 -4.65625 9.71875 -4.09375 C 9.71875 -3.34375 9.535156 -2.640625 9.171875 -1.984375 C 8.804688 -1.335938 8.304688 -0.8125 7.671875 -0.40625 C 7.035156 -0.0078125 6.3125 0.1875 5.5 0.1875 Z M 5.484375 -0.921875 C 6.066406 -0.921875 6.585938 -1.050781 7.046875 -1.3125 C 7.503906 -1.582031 7.863281 -1.957031 8.125 -2.4375 C 8.394531 -2.914062 8.53125 -3.46875 8.53125 -4.09375 C 8.53125 -4.675781 8.414062 -5.210938 8.1875 -5.703125 C 7.96875 -6.191406 7.632812 -6.59375 7.1875 -6.90625 C 6.75 -7.21875 6.207031 -7.375 5.5625 -7.375 C 4.882812 -7.375 4.296875 -7.21875 3.796875 -6.90625 C 3.304688 -6.601562 2.929688 -6.195312 2.671875 -5.6875 C 2.410156 -5.1875 2.28125 -4.640625 2.28125 -4.046875 C 2.28125 -3.503906 2.40625 -2.992188 2.65625 -2.515625 C 2.914062 -2.035156 3.285156 -1.648438 3.765625 -1.359375 C 4.242188 -1.066406 4.816406 -0.921875 5.484375 -0.921875 Z M 5.484375 -0.921875 "/></g></g></g></g></g></g><g clip-path="url(#7cdce03aee)"><g transform="matrix(1, 0, 0, 1, 631, 450)"><g clip-path="url(#c9f1b7370e)"><g fill="#201f1f" fill-opacity="1"><g transform="translate(0.801613, 20.421081)"><g><path d="M 9.078125 -1.109375 C 9.234375 -1.109375 9.363281 -1.050781 9.46875 -0.9375 C 9.582031 -0.832031 9.640625 -0.707031 9.640625 -0.5625 C 9.640625 -0.394531 9.582031 -0.257812 9.46875 -0.15625 C 9.363281 -0.0507812 9.234375 0 9.078125 0 L 1.890625 0 C 1.722656 0 1.578125 -0.046875 1.453125 -0.140625 C 1.335938 -0.234375 1.28125 -0.378906 1.28125 -0.578125 C 1.28125 -0.710938 1.332031 -0.847656 1.4375 -0.984375 L 5.859375 -5.859375 C 6.566406 -6.628906 7.09375 -7.335938 7.4375 -7.984375 C 7.789062 -8.628906 7.96875 -9.207031 7.96875 -9.71875 C 7.96875 -10.550781 7.710938 -11.222656 7.203125 -11.734375 C 6.691406 -12.253906 6.003906 -12.515625 5.140625 -12.515625 C 4.742188 -12.515625 4.347656 -12.429688 3.953125 -12.265625 C 3.566406 -12.097656 3.222656 -11.878906 2.921875 -11.609375 C 2.617188 -11.335938 2.382812 -11.03125 2.21875 -10.6875 C 2.144531 -10.5625 2.066406 -10.472656 1.984375 -10.421875 C 1.898438 -10.367188 1.804688 -10.34375 1.703125 -10.34375 C 1.546875 -10.34375 1.410156 -10.390625 1.296875 -10.484375 C 1.179688 -10.578125 1.125 -10.695312 1.125 -10.84375 C 1.125 -10.925781 1.144531 -11.015625 1.1875 -11.109375 C 1.238281 -11.203125 1.304688 -11.304688 1.390625 -11.421875 C 1.628906 -11.816406 1.953125 -12.175781 2.359375 -12.5 C 2.765625 -12.832031 3.21875 -13.097656 3.71875 -13.296875 C 4.226562 -13.492188 4.722656 -13.59375 5.203125 -13.59375 C 6.023438 -13.59375 6.734375 -13.4375 7.328125 -13.125 C 7.921875 -12.8125 8.378906 -12.367188 8.703125 -11.796875 C 9.023438 -11.234375 9.1875 -10.5625 9.1875 -9.78125 C 9.1875 -9.125 8.976562 -8.398438 8.5625 -7.609375 C 8.15625 -6.828125 7.539062 -5.984375 6.71875 -5.078125 L 2.984375 -0.875 L 2.796875 -1.109375 Z M 9.078125 -1.109375 "/></g></g></g><g fill="#201f1f" fill-opacity="1"><g transform="translate(11.41099, 20.421081)"><g><path d="M 3.40625 0.0625 C 3.257812 0.0625 3.117188 0.0078125 2.984375 -0.09375 C 2.859375 -0.195312 2.796875 -0.328125 2.796875 -0.484375 C 2.796875 -0.566406 2.816406 -0.660156 2.859375 -0.765625 L 7.953125 -12.46875 L 8.15625 -12.203125 L 1.6875 -12.203125 C 1.53125 -12.203125 1.394531 -12.253906 1.28125 -12.359375 C 1.175781 -12.472656 1.125 -12.609375 1.125 -12.765625 C 1.125 -12.921875 1.175781 -13.050781 1.28125 -13.15625 C 1.394531 -13.257812 1.53125 -13.3125 1.6875 -13.3125 L 8.71875 -13.3125 C 8.90625 -13.3125 9.039062 -13.257812 9.125 -13.15625 C 9.21875 -13.050781 9.265625 -12.925781 9.265625 -12.78125 C 9.265625 -12.675781 9.25 -12.578125 9.21875 -12.484375 L 3.953125 -0.328125 C 3.910156 -0.210938 3.835938 -0.117188 3.734375 -0.046875 C 3.628906 0.0234375 3.519531 0.0625 3.40625 0.0625 Z M 3.40625 0.0625 "/></g></g></g></g></g></g><g clip-path="url(#97e7445d6e)"><g transform="matrix(1, 0, 0, 1, 757, 450)"><g clip-path="url(#d25b8cd5de)"><g fill="#201f1f" fill-opacity="1"><g transform="translate(0.620376, 20.421081)"><g><path d="M 9.078125 -1.109375 C 9.234375 -1.109375 9.363281 -1.050781 9.46875 -0.9375 C 9.582031 -0.832031 9.640625 -0.707031 9.640625 -0.5625 C 9.640625 -0.394531 9.582031 -0.257812 9.46875 -0.15625 C 9.363281 -0.0507812 9.234375 0 9.078125 0 L 1.890625 0 C 1.722656 0 1.578125 -0.046875 1.453125 -0.140625 C 1.335938 -0.234375 1.28125 -0.378906 1.28125 -0.578125 C 1.28125 -0.710938 1.332031 -0.847656 1.4375 -0.984375 L 5.859375 -5.859375 C 6.566406 -6.628906 7.09375 -7.335938 7.4375 -7.984375 C 7.789062 -8.628906 7.96875 -9.207031 7.96875 -9.71875 C 7.96875 -10.550781 7.710938 -11.222656 7.203125 -11.734375 C 6.691406 -12.253906 6.003906 -12.515625 5.140625 -12.515625 C 4.742188 -12.515625 4.347656 -12.429688 3.953125 -12.265625 C 3.566406 -12.097656 3.222656 -11.878906 2.921875 -11.609375 C 2.617188 -11.335938 2.382812 -11.03125 2.21875 -10.6875 C 2.144531 -10.5625 2.066406 -10.472656 1.984375 -10.421875 C 1.898438 -10.367188 1.804688 -10.34375 1.703125 -10.34375 C 1.546875 -10.34375 1.410156 -10.390625 1.296875 -10.484375 C 1.179688 -10.578125 1.125 -10.695312 1.125 -10.84375 C 1.125 -10.925781 1.144531 -11.015625 1.1875 -11.109375 C 1.238281 -11.203125 1.304688 -11.304688 1.390625 -11.421875 C 1.628906 -11.816406 1.953125 -12.175781 2.359375 -12.5 C 2.765625 -12.832031 3.21875 -13.097656 3.71875 -13.296875 C 4.226562 -13.492188 4.722656 -13.59375 5.203125 -13.59375 C 6.023438 -13.59375 6.734375 -13.4375 7.328125 -13.125 C 7.921875 -12.8125 8.378906 -12.367188 8.703125 -11.796875 C 9.023438 -11.234375 9.1875 -10.5625 9.1875 -9.78125 C 9.1875 -9.125 8.976562 -8.398438 8.5625 -7.609375 C 8.15625 -6.828125 7.539062 -5.984375 6.71875 -5.078125 L 2.984375 -0.875 L 2.796875 -1.109375 Z M 9.078125 -1.109375 "/></g></g></g><g fill="#201f1f" fill-opacity="1"><g transform="translate(11.229754, 20.421081)"><g><path d="M 6.96875 -6.75 L 6.921875 -6.921875 C 7.347656 -6.753906 7.738281 -6.503906 8.09375 -6.171875 C 8.457031 -5.847656 8.75 -5.46875 8.96875 -5.03125 C 9.1875 -4.59375 9.296875 -4.109375 9.296875 -3.578125 C 9.296875 -2.890625 9.113281 -2.265625 8.75 -1.703125 C 8.382812 -1.140625 7.890625 -0.691406 7.265625 -0.359375 C 6.640625 -0.0234375 5.941406 0.140625 5.171875 0.140625 C 4.390625 0.140625 3.6875 -0.0234375 3.0625 -0.359375 C 2.445312 -0.691406 1.957031 -1.140625 1.59375 -1.703125 C 1.226562 -2.265625 1.046875 -2.890625 1.046875 -3.578125 C 1.046875 -4.140625 1.15625 -4.640625 1.375 -5.078125 C 1.601562 -5.523438 1.898438 -5.898438 2.265625 -6.203125 C 2.628906 -6.515625 3.007812 -6.753906 3.40625 -6.921875 L 3.359375 -6.71875 C 3.003906 -6.882812 2.675781 -7.109375 2.375 -7.390625 C 2.082031 -7.679688 1.835938 -8.03125 1.640625 -8.4375 C 1.453125 -8.84375 1.359375 -9.285156 1.359375 -9.765625 C 1.359375 -10.453125 1.523438 -11.070312 1.859375 -11.625 C 2.203125 -12.175781 2.664062 -12.609375 3.25 -12.921875 C 3.832031 -13.242188 4.472656 -13.40625 5.171875 -13.40625 C 5.867188 -13.40625 6.503906 -13.242188 7.078125 -12.921875 C 7.648438 -12.609375 8.101562 -12.175781 8.4375 -11.625 C 8.78125 -11.070312 8.953125 -10.453125 8.953125 -9.765625 C 8.953125 -9.265625 8.851562 -8.816406 8.65625 -8.421875 C 8.46875 -8.023438 8.21875 -7.679688 7.90625 -7.390625 C 7.601562 -7.109375 7.289062 -6.894531 6.96875 -6.75 Z M 2.546875 -9.765625 C 2.546875 -9.253906 2.664062 -8.804688 2.90625 -8.421875 C 3.15625 -8.046875 3.476562 -7.75 3.875 -7.53125 C 4.269531 -7.3125 4.703125 -7.203125 5.171875 -7.203125 C 5.628906 -7.203125 6.054688 -7.3125 6.453125 -7.53125 C 6.847656 -7.75 7.164062 -8.046875 7.40625 -8.421875 C 7.644531 -8.804688 7.765625 -9.253906 7.765625 -9.765625 C 7.765625 -10.523438 7.519531 -11.140625 7.03125 -11.609375 C 6.539062 -12.078125 5.921875 -12.3125 5.171875 -12.3125 C 4.390625 -12.3125 3.753906 -12.078125 3.265625 -11.609375 C 2.785156 -11.140625 2.546875 -10.523438 2.546875 -9.765625 Z M 5.171875 -0.953125 C 6.035156 -0.953125 6.738281 -1.203125 7.28125 -1.703125 C 7.832031 -2.203125 8.109375 -2.828125 8.109375 -3.578125 C 8.109375 -4.085938 7.972656 -4.546875 7.703125 -4.953125 C 7.429688 -5.367188 7.070312 -5.691406 6.625 -5.921875 C 6.175781 -6.148438 5.691406 -6.265625 5.171875 -6.265625 C 4.648438 -6.265625 4.164062 -6.148438 3.71875 -5.921875 C 3.269531 -5.691406 2.910156 -5.367188 2.640625 -4.953125 C 2.367188 -4.546875 2.234375 -4.085938 2.234375 -3.578125 C 2.234375 -2.828125 2.5 -2.203125 3.03125 -1.703125 C 3.570312 -1.203125 4.285156 -0.953125 5.171875 -0.953125 Z M 5.171875 -0.953125 "/></g></g></g></g></g></g><g clip-path="url(#3e3ee0fb59)"><g transform="matrix(1, 0, 0, 1, 2, 600)"><g clip-path="url(#5e2e2f43fb)"><g fill="#201f1f" fill-opacity="1"><g transform="translate(0.707523, 20.179551)"><g><path d="M 9.078125 -1.109375 C 9.234375 -1.109375 9.363281 -1.050781 9.46875 -0.9375 C 9.582031 -0.832031 9.640625 -0.707031 9.640625 -0.5625 C 9.640625 -0.394531 9.582031 -0.257812 9.46875 -0.15625 C 9.363281 -0.0507812 9.234375 0 9.078125 0 L 1.890625 0 C 1.722656 0 1.578125 -0.046875 1.453125 -0.140625 C 1.335938 -0.234375 1.28125 -0.378906 1.28125 -0.578125 C 1.28125 -0.710938 1.332031 -0.847656 1.4375 -0.984375 L 5.859375 -5.859375 C 6.566406 -6.628906 7.09375 -7.335938 7.4375 -7.984375 C 7.789062 -8.628906 7.96875 -9.207031 7.96875 -9.71875 C 7.96875 -10.550781 7.710938 -11.222656 7.203125 -11.734375 C 6.691406 -12.253906 6.003906 -12.515625 5.140625 -12.515625 C 4.742188 -12.515625 4.347656 -12.429688 3.953125 -12.265625 C 3.566406 -12.097656 3.222656 -11.878906 2.921875 -11.609375 C 2.617188 -11.335938 2.382812 -11.03125 2.21875 -10.6875 C 2.144531 -10.5625 2.066406 -10.472656 1.984375 -10.421875 C 1.898438 -10.367188 1.804688 -10.34375 1.703125 -10.34375 C 1.546875 -10.34375 1.410156 -10.390625 1.296875 -10.484375 C 1.179688 -10.578125 1.125 -10.695312 1.125 -10.84375 C 1.125 -10.925781 1.144531 -11.015625 1.1875 -11.109375 C 1.238281 -11.203125 1.304688 -11.304688 1.390625 -11.421875 C 1.628906 -11.816406 1.953125 -12.175781 2.359375 -12.5 C 2.765625 -12.832031 3.21875 -13.097656 3.71875 -13.296875 C 4.226562 -13.492188 4.722656 -13.59375 5.203125 -13.59375 C 6.023438 -13.59375 6.734375 -13.4375 7.328125 -13.125 C 7.921875 -12.8125 8.378906 -12.367188 8.703125 -11.796875 C 9.023438 -11.234375 9.1875 -10.5625 9.1875 -9.78125 C 9.1875 -9.125 8.976562 -8.398438 8.5625 -7.609375 C 8.15625 -6.828125 7.539062 -5.984375 6.71875 -5.078125 L 2.984375 -0.875 L 2.796875 -1.109375 Z M 9.078125 -1.109375 "/></g></g></g><g fill="#201f1f" fill-opacity="1"><g transform="translate(11.316901, 20.179551)"><g><path d="M 5.3125 -13.625 C 6.0625 -13.625 6.710938 -13.488281 7.265625 -13.21875 C 7.828125 -12.945312 8.285156 -12.582031 8.640625 -12.125 C 8.992188 -11.675781 9.257812 -11.164062 9.4375 -10.59375 C 9.625 -10.019531 9.71875 -9.429688 9.71875 -8.828125 C 9.71875 -8.210938 9.632812 -7.554688 9.46875 -6.859375 C 9.3125 -6.171875 9.078125 -5.472656 8.765625 -4.765625 C 8.453125 -4.054688 8.0625 -3.378906 7.59375 -2.734375 C 7.125 -2.097656 6.578125 -1.523438 5.953125 -1.015625 C 5.328125 -0.503906 4.632812 -0.109375 3.875 0.171875 C 3.769531 0.191406 3.6875 0.203125 3.625 0.203125 C 3.46875 0.203125 3.328125 0.148438 3.203125 0.046875 C 3.085938 -0.0546875 3.03125 -0.203125 3.03125 -0.390625 C 3.03125 -0.515625 3.066406 -0.625 3.140625 -0.71875 C 3.210938 -0.8125 3.328125 -0.882812 3.484375 -0.9375 C 4.210938 -1.238281 4.914062 -1.691406 5.59375 -2.296875 C 6.269531 -2.910156 6.851562 -3.613281 7.34375 -4.40625 C 7.832031 -5.207031 8.160156 -6.035156 8.328125 -6.890625 L 8.734375 -7.140625 C 8.515625 -6.734375 8.21875 -6.363281 7.84375 -6.03125 C 7.476562 -5.695312 7.0625 -5.4375 6.59375 -5.25 C 6.132812 -5.070312 5.628906 -4.984375 5.078125 -4.984375 C 4.253906 -4.984375 3.546875 -5.179688 2.953125 -5.578125 C 2.359375 -5.984375 1.898438 -6.519531 1.578125 -7.1875 C 1.265625 -7.851562 1.109375 -8.566406 1.109375 -9.328125 C 1.109375 -10.078125 1.289062 -10.773438 1.65625 -11.421875 C 2.019531 -12.078125 2.515625 -12.609375 3.140625 -13.015625 C 3.773438 -13.421875 4.5 -13.625 5.3125 -13.625 Z M 5.34375 -12.515625 C 4.738281 -12.515625 4.207031 -12.378906 3.75 -12.109375 C 3.289062 -11.835938 2.929688 -11.460938 2.671875 -10.984375 C 2.410156 -10.503906 2.28125 -9.953125 2.28125 -9.328125 C 2.28125 -8.765625 2.390625 -8.234375 2.609375 -7.734375 C 2.835938 -7.234375 3.175781 -6.832031 3.625 -6.53125 C 4.070312 -6.238281 4.613281 -6.09375 5.25 -6.09375 C 5.9375 -6.09375 6.519531 -6.238281 7 -6.53125 C 7.488281 -6.832031 7.867188 -7.234375 8.140625 -7.734375 C 8.410156 -8.234375 8.546875 -8.785156 8.546875 -9.390625 C 8.546875 -9.929688 8.414062 -10.4375 8.15625 -10.90625 C 7.90625 -11.382812 7.539062 -11.769531 7.0625 -12.0625 C 6.59375 -12.363281 6.019531 -12.515625 5.34375 -12.515625 Z M 5.34375 -12.515625 "/></g></g></g></g></g></g><g clip-path="url(#2b3bb6ba08)"><g transform="matrix(1, 0, 0, 1, 128, 600)"><g clip-path="url(#0f1d57d2e9)"><g fill="#201f1f" fill-opacity="1"><g transform="translate(0.52634, 20.179551)"><g><path d="M 1.703125 -1.96875 C 1.765625 -1.96875 1.832031 -1.953125 1.90625 -1.921875 C 1.976562 -1.898438 2.066406 -1.847656 2.171875 -1.765625 C 2.429688 -1.484375 2.742188 -1.269531 3.109375 -1.125 C 3.484375 -0.976562 3.910156 -0.90625 4.390625 -0.90625 C 5.015625 -0.90625 5.582031 -1.046875 6.09375 -1.328125 C 6.613281 -1.609375 7.023438 -2 7.328125 -2.5 C 7.640625 -3 7.796875 -3.578125 7.796875 -4.234375 C 7.796875 -4.972656 7.628906 -5.566406 7.296875 -6.015625 C 6.972656 -6.472656 6.5625 -6.8125 6.0625 -7.03125 C 5.5625 -7.257812 5.046875 -7.375 4.515625 -7.375 C 4.378906 -7.375 4.242188 -7.363281 4.109375 -7.34375 C 3.972656 -7.320312 3.847656 -7.296875 3.734375 -7.265625 C 3.617188 -7.242188 3.53125 -7.234375 3.46875 -7.234375 C 3.300781 -7.234375 3.171875 -7.285156 3.078125 -7.390625 C 2.992188 -7.503906 2.953125 -7.644531 2.953125 -7.8125 C 2.953125 -7.90625 2.96875 -7.984375 3 -8.046875 C 3.039062 -8.117188 3.09375 -8.203125 3.15625 -8.296875 L 7.046875 -12.53125 L 7.28125 -12.21875 L 1.46875 -12.21875 C 1.320312 -12.21875 1.191406 -12.269531 1.078125 -12.375 C 0.972656 -12.488281 0.921875 -12.625 0.921875 -12.78125 C 0.921875 -12.925781 0.972656 -13.050781 1.078125 -13.15625 C 1.191406 -13.257812 1.320312 -13.3125 1.46875 -13.3125 L 7.90625 -13.3125 C 8.125 -13.3125 8.273438 -13.242188 8.359375 -13.109375 C 8.453125 -12.972656 8.5 -12.84375 8.5 -12.71875 C 8.5 -12.644531 8.476562 -12.570312 8.4375 -12.5 C 8.40625 -12.425781 8.359375 -12.351562 8.296875 -12.28125 L 4.40625 -8.046875 L 3.984375 -8.296875 C 4.023438 -8.335938 4.15625 -8.378906 4.375 -8.421875 C 4.601562 -8.460938 4.78125 -8.484375 4.90625 -8.484375 C 5.601562 -8.484375 6.257812 -8.316406 6.875 -7.984375 C 7.5 -7.648438 8.003906 -7.171875 8.390625 -6.546875 C 8.785156 -5.929688 8.984375 -5.171875 8.984375 -4.265625 C 8.984375 -3.378906 8.769531 -2.597656 8.34375 -1.921875 C 7.925781 -1.253906 7.359375 -0.734375 6.640625 -0.359375 C 5.929688 0.00390625 5.140625 0.1875 4.265625 0.1875 C 3.742188 0.1875 3.226562 0.0976562 2.71875 -0.078125 C 2.207031 -0.253906 1.757812 -0.519531 1.375 -0.875 C 1.289062 -0.957031 1.226562 -1.035156 1.1875 -1.109375 C 1.144531 -1.179688 1.125 -1.257812 1.125 -1.34375 C 1.125 -1.5 1.175781 -1.640625 1.28125 -1.765625 C 1.394531 -1.898438 1.535156 -1.96875 1.703125 -1.96875 Z M 1.703125 -1.96875 "/></g></g></g><g fill="#201f1f" fill-opacity="1"><g transform="translate(10.561207, 20.179551)"><g><path d="M 5.6875 0.1875 C 4.664062 0.1875 3.8125 -0.113281 3.125 -0.71875 C 2.4375 -1.332031 1.914062 -2.160156 1.5625 -3.203125 C 1.21875 -4.242188 1.046875 -5.410156 1.046875 -6.703125 C 1.046875 -8.003906 1.21875 -9.175781 1.5625 -10.21875 C 1.914062 -11.257812 2.4375 -12.082031 3.125 -12.6875 C 3.8125 -13.289062 4.664062 -13.59375 5.6875 -13.59375 C 6.738281 -13.59375 7.601562 -13.289062 8.28125 -12.6875 C 8.96875 -12.082031 9.484375 -11.257812 9.828125 -10.21875 C 10.171875 -9.175781 10.34375 -8.003906 10.34375 -6.703125 C 10.34375 -5.410156 10.171875 -4.242188 9.828125 -3.203125 C 9.484375 -2.160156 8.96875 -1.332031 8.28125 -0.71875 C 7.601562 -0.113281 6.738281 0.1875 5.6875 0.1875 Z M 5.6875 -1 C 6.4375 -1 7.0625 -1.234375 7.5625 -1.703125 C 8.070312 -2.171875 8.457031 -2.835938 8.71875 -3.703125 C 8.988281 -4.566406 9.125 -5.566406 9.125 -6.703125 C 9.125 -7.847656 8.988281 -8.851562 8.71875 -9.71875 C 8.457031 -10.582031 8.070312 -11.25 7.5625 -11.71875 C 7.0625 -12.195312 6.4375 -12.4375 5.6875 -12.4375 C 4.945312 -12.4375 4.320312 -12.195312 3.8125 -11.71875 C 3.3125 -11.25 2.929688 -10.582031 2.671875 -9.71875 C 2.410156 -8.851562 2.28125 -7.847656 2.28125 -6.703125 C 2.28125 -5.566406 2.410156 -4.566406 2.671875 -3.703125 C 2.929688 -2.835938 3.3125 -2.171875 3.8125 -1.703125 C 4.320312 -1.234375 4.945312 -1 5.6875 -1 Z M 5.6875 -1 "/></g></g></g></g></g></g><path stroke-linecap="butt" transform="matrix(0.75, 0, 0, 0.75, 0.0000031164, 0.00002)" fill-opacity="1" fill="#000000" fill-rule="nonzero" stroke-linejoin="miter" d="M 0.807288 1.609348 L 0.807288 998.390647 M 168.562504 1.609348 L 168.562504 998.390647 M 336.322929 1.609348 L 336.322929 998.390647 M 504.078145 1.609348 L 504.078145 998.390647 M 671.83857 1.609348 L 671.83857 998.390647 M 839.598995 1.609348 L 839.598995 998.390647 M 1007.354212 1.609348 L 1007.354212 998.390647 M 1175.114636 1.609348 L 1175.114636 998.390647 M -0.0000041552 0.807265 L 1175.91672 0.807265 M -0.0000041552 200.484358 L 1175.91672 200.484358 M -0.0000041552 400.161451 L 1175.91672 400.161451 M -0.0000041552 599.838544 L 1175.91672 599.838544 M -0.0000041552 799.515637 L 1175.91672 799.515637 M -0.0000041552 999.19273 L 1175.91672 999.19273 " stroke="#000000" stroke-width="1.610027" stroke-opacity="1" stroke-miterlimit="4"/></svg>