<svg xmlns="http://www.w3.org/2000/svg" xmlns:xlink="http://www.w3.org/1999/xlink" width="600" zoomAndPan="magnify" viewBox="0 0 450 112.499997" height="150" preserveAspectRatio="xMidYMid meet" version="1.0"><defs><g/></defs><g fill="#000000" fill-opacity="1"><g transform="translate(83.026911, 77.340993)"><g><path d="M 9.96875 -56.234375 C 10.34375 -56.234375 10.726562 -56.15625 11.125 -56 C 11.53125 -55.84375 11.863281 -55.578125 12.125 -55.203125 L 34.3125 -21.9375 L 32.140625 -22.015625 L 54.390625 -55.203125 C 54.984375 -56.003906 55.707031 -56.347656 56.5625 -56.234375 C 57.207031 -56.234375 57.753906 -56.003906 58.203125 -55.546875 C 58.660156 -55.097656 58.890625 -54.523438 58.890625 -53.828125 L 58.890625 -2.40625 C 58.890625 -1.769531 58.648438 -1.207031 58.171875 -0.71875 C 57.691406 -0.238281 57.101562 0 56.40625 0 C 55.65625 0 55.035156 -0.238281 54.546875 -0.71875 C 54.066406 -1.207031 53.828125 -1.769531 53.828125 -2.40625 L 53.828125 -48.921875 L 55.28125 -48.765625 L 34.953125 -18 C 34.785156 -17.675781 34.539062 -17.421875 34.21875 -17.234375 C 33.90625 -17.046875 33.535156 -16.976562 33.109375 -17.03125 C 32.734375 -16.976562 32.367188 -17.046875 32.015625 -17.234375 C 31.671875 -17.421875 31.390625 -17.675781 31.171875 -18 L 10.765625 -49.09375 L 12.296875 -50.140625 L 12.296875 -2.40625 C 12.296875 -1.769531 12.066406 -1.207031 11.609375 -0.71875 C 11.148438 -0.238281 10.570312 0 9.875 0 C 9.1875 0 8.625 -0.238281 8.1875 -0.71875 C 7.757812 -1.207031 7.546875 -1.769531 7.546875 -2.40625 L 7.546875 -53.828125 C 7.546875 -54.472656 7.773438 -55.035156 8.234375 -55.515625 C 8.691406 -55.992188 9.269531 -56.234375 9.96875 -56.234375 Z M 9.96875 -56.234375 "/></g></g></g><g fill="#000000" fill-opacity="1"><g transform="translate(149.466662, 77.340993)"><g><path d="M 26.359375 -50.046875 L 6.828125 -1.53125 C 6.617188 -0.988281 6.328125 -0.582031 5.953125 -0.3125 C 5.578125 -0.0507812 5.144531 0.078125 4.65625 0.078125 C 3.90625 0.078125 3.34375 -0.117188 2.96875 -0.515625 C 2.59375 -0.921875 2.378906 -1.421875 2.328125 -2.015625 C 2.273438 -2.273438 2.300781 -2.59375 2.40625 -2.96875 L 23.625 -54.875 C 23.882812 -55.46875 24.21875 -55.882812 24.625 -56.125 C 25.03125 -56.363281 25.5 -56.484375 26.03125 -56.484375 C 26.5625 -56.484375 27.03125 -56.332031 27.4375 -56.03125 C 27.84375 -55.738281 28.148438 -55.351562 28.359375 -54.875 L 49.484375 -3.21875 C 49.597656 -2.894531 49.65625 -2.570312 49.65625 -2.25 C 49.65625 -1.5 49.410156 -0.921875 48.921875 -0.515625 C 48.441406 -0.117188 47.878906 0.078125 47.234375 0.078125 C 46.703125 0.078125 46.234375 -0.0664062 45.828125 -0.359375 C 45.429688 -0.648438 45.125 -1.039062 44.90625 -1.53125 L 24.90625 -50.375 Z M 11.484375 -16.234375 L 13.5 -20.96875 L 38.40625 -20.96875 L 39.375 -16.234375 Z M 11.484375 -16.234375 "/></g></g></g><g fill="#000000" fill-opacity="1"><g transform="translate(201.445521, 77.340993)"><g><path d="M 10.28125 0 C 9.476562 0 8.820312 -0.238281 8.3125 -0.71875 C 7.800781 -1.207031 7.546875 -1.769531 7.546875 -2.40625 L 7.546875 -53.828125 C 7.546875 -54.472656 7.785156 -55.035156 8.265625 -55.515625 C 8.753906 -55.992188 9.320312 -56.234375 9.96875 -56.234375 L 31.65625 -56.234375 C 34.707031 -56.234375 37.4375 -55.578125 39.84375 -54.265625 C 42.257812 -52.953125 44.148438 -51.144531 45.515625 -48.84375 C 46.878906 -46.539062 47.5625 -43.945312 47.5625 -41.0625 C 47.5625 -38.695312 47.132812 -36.523438 46.28125 -34.546875 C 45.425781 -32.566406 44.21875 -30.894531 42.65625 -29.53125 C 41.101562 -28.164062 39.363281 -27.160156 37.4375 -26.515625 L 34.625 -27.390625 C 36.601562 -27.234375 38.453125 -26.601562 40.171875 -25.5 C 41.890625 -24.40625 43.269531 -22.90625 44.3125 -21 C 45.351562 -19.101562 45.898438 -16.816406 45.953125 -14.140625 C 46.003906 -11.835938 46.125 -10.039062 46.3125 -8.75 C 46.5 -7.46875 46.78125 -6.503906 47.15625 -5.859375 C 47.53125 -5.222656 48.015625 -4.71875 48.609375 -4.34375 C 49.140625 -4.019531 49.5 -3.5625 49.6875 -2.96875 C 49.875 -2.382812 49.804688 -1.820312 49.484375 -1.28125 C 49.273438 -0.851562 48.96875 -0.546875 48.5625 -0.359375 C 48.164062 -0.171875 47.753906 -0.078125 47.328125 -0.078125 C 46.898438 -0.078125 46.46875 -0.1875 46.03125 -0.40625 C 45.28125 -0.832031 44.515625 -1.5 43.734375 -2.40625 C 42.960938 -3.320312 42.320312 -4.660156 41.8125 -6.421875 C 41.3125 -8.191406 41.0625 -10.65625 41.0625 -13.8125 C 41.0625 -15.90625 40.722656 -17.617188 40.046875 -18.953125 C 39.378906 -20.296875 38.519531 -21.328125 37.46875 -22.046875 C 36.425781 -22.773438 35.273438 -23.285156 34.015625 -23.578125 C 32.765625 -23.867188 31.578125 -24.015625 30.453125 -24.015625 L 11.734375 -24.015625 L 12.609375 -25.140625 L 12.609375 -2.40625 C 12.609375 -1.769531 12.394531 -1.207031 11.96875 -0.71875 C 11.539062 -0.238281 10.976562 0 10.28125 0 Z M 11.734375 -28.4375 L 31.890625 -28.4375 C 33.710938 -28.601562 35.425781 -29.207031 37.03125 -30.25 C 38.644531 -31.289062 39.945312 -32.722656 40.9375 -34.546875 C 41.925781 -36.367188 42.421875 -38.484375 42.421875 -40.890625 C 42.421875 -43.941406 41.390625 -46.472656 39.328125 -48.484375 C 37.265625 -50.492188 34.570312 -51.5 31.25 -51.5 L 12.046875 -51.5 L 12.609375 -52.625 L 12.609375 -27.3125 Z M 11.734375 -28.4375 "/></g></g></g><g fill="#000000" fill-opacity="1"><g transform="translate(254.468728, 77.340993)"><g><path d="M 48.609375 -52.0625 C 49.253906 -51.632812 49.628906 -51.082031 49.734375 -50.40625 C 49.835938 -49.738281 49.675781 -49.085938 49.25 -48.453125 C 48.875 -47.960938 48.390625 -47.691406 47.796875 -47.640625 C 47.210938 -47.585938 46.65625 -47.695312 46.125 -47.96875 C 44.082031 -49.300781 41.894531 -50.34375 39.5625 -51.09375 C 37.238281 -51.84375 34.738281 -52.21875 32.0625 -52.21875 C 28.789062 -52.21875 25.75 -51.640625 22.9375 -50.484375 C 20.125 -49.335938 17.671875 -47.679688 15.578125 -45.515625 C 13.492188 -43.347656 11.875 -40.789062 10.71875 -37.84375 C 9.570312 -34.894531 9 -31.65625 9 -28.125 C 9 -24.476562 9.585938 -21.164062 10.765625 -18.1875 C 11.941406 -15.21875 13.585938 -12.660156 15.703125 -10.515625 C 17.816406 -8.378906 20.265625 -6.75 23.046875 -5.625 C 25.835938 -4.5 28.84375 -3.9375 32.0625 -3.9375 C 34.6875 -3.9375 37.160156 -4.3125 39.484375 -5.0625 C 41.816406 -5.8125 44 -6.828125 46.03125 -8.109375 C 46.570312 -8.429688 47.148438 -8.550781 47.765625 -8.46875 C 48.378906 -8.394531 48.875 -8.085938 49.25 -7.546875 C 49.726562 -6.960938 49.898438 -6.332031 49.765625 -5.65625 C 49.640625 -4.988281 49.28125 -4.46875 48.6875 -4.09375 C 47.351562 -3.238281 45.773438 -2.4375 43.953125 -1.6875 C 42.128906 -0.9375 40.195312 -0.335938 38.15625 0.109375 C 36.125 0.566406 34.09375 0.796875 32.0625 0.796875 C 28.195312 0.796875 24.578125 0.101562 21.203125 -1.28125 C 17.835938 -2.675781 14.84375 -4.644531 12.21875 -7.1875 C 9.59375 -9.726562 7.539062 -12.765625 6.0625 -16.296875 C 4.59375 -19.835938 3.859375 -23.78125 3.859375 -28.125 C 3.859375 -32.300781 4.578125 -36.140625 6.015625 -39.640625 C 7.460938 -43.148438 9.472656 -46.191406 12.046875 -48.765625 C 14.617188 -51.335938 17.617188 -53.347656 21.046875 -54.796875 C 24.472656 -56.242188 28.144531 -56.96875 32.0625 -56.96875 C 35.113281 -56.96875 38.054688 -56.535156 40.890625 -55.671875 C 43.734375 -54.816406 46.304688 -53.613281 48.609375 -52.0625 Z M 48.609375 -52.0625 "/></g></g></g><g fill="#000000" fill-opacity="1"><g transform="translate(306.9296, 77.340993)"><g><path d="M 10.125 -56.234375 C 10.769531 -56.234375 11.34375 -55.992188 11.84375 -55.515625 C 12.351562 -55.035156 12.609375 -54.445312 12.609375 -53.75 L 12.609375 -2.484375 C 12.554688 -1.796875 12.273438 -1.207031 11.765625 -0.71875 C 11.253906 -0.238281 10.679688 0 10.046875 0 C 9.296875 0 8.691406 -0.238281 8.234375 -0.71875 C 7.773438 -1.207031 7.546875 -1.796875 7.546875 -2.484375 L 7.546875 -53.75 C 7.546875 -54.445312 7.785156 -55.035156 8.265625 -55.515625 C 8.753906 -55.992188 9.375 -56.234375 10.125 -56.234375 Z M 47.796875 -56.234375 C 48.546875 -56.234375 49.148438 -55.992188 49.609375 -55.515625 C 50.066406 -55.035156 50.296875 -54.445312 50.296875 -53.75 L 50.296875 -2.484375 C 50.242188 -1.796875 49.988281 -1.207031 49.53125 -0.71875 C 49.070312 -0.238281 48.46875 0 47.71875 0 C 47.03125 0 46.441406 -0.238281 45.953125 -0.71875 C 45.472656 -1.207031 45.234375 -1.796875 45.234375 -2.484375 L 45.234375 -53.75 C 45.234375 -54.445312 45.488281 -55.035156 46 -55.515625 C 46.507812 -55.992188 47.109375 -56.234375 47.796875 -56.234375 Z M 9.71875 -31.09375 L 47.890625 -31.09375 L 47.796875 -26.4375 L 9.40625 -26.4375 Z M 9.71875 -31.09375 "/></g></g></g></svg>