<svg xmlns="http://www.w3.org/2000/svg" xmlns:xlink="http://www.w3.org/1999/xlink" width="1176" zoomAndPan="magnify" viewBox="0 0 882 749.999995" height="1000" preserveAspectRatio="xMidYMid meet" version="1.0"><defs><g/><clipPath id="8ce7c8f5bc"><path d="M 2 1.207031 L 11 1.207031 L 11 27 L 2 27 Z M 2 1.207031 " clip-rule="nonzero"/></clipPath><clipPath id="f34183d246"><rect x="0" width="9" y="0" height="26"/></clipPath><clipPath id="7aa78babe2"><path d="M 128 1.207031 L 140 1.207031 L 140 27 L 128 27 Z M 128 1.207031 " clip-rule="nonzero"/></clipPath><clipPath id="42845b8676"><rect x="0" width="12" y="0" height="26"/></clipPath><clipPath id="d31f824e6d"><path d="M 254 1.207031 L 265 1.207031 L 265 27 L 254 27 Z M 254 1.207031 " clip-rule="nonzero"/></clipPath><clipPath id="7675863427"><rect x="0" width="11" y="0" height="26"/></clipPath><clipPath id="df30e4e1e3"><path d="M 380 1.207031 L 391 1.207031 L 391 27 L 380 27 Z M 380 1.207031 " clip-rule="nonzero"/></clipPath><clipPath id="71359f0df5"><path d="M 0.160156 6 L 10 6 L 10 21 L 0.160156 21 Z M 0.160156 6 " clip-rule="nonzero"/></clipPath><clipPath id="4e00e7fc23"><rect x="0" width="11" y="0" height="26"/></clipPath><clipPath id="c288564b88"><path d="M 505 1.207031 L 517 1.207031 L 517 27 L 505 27 Z M 505 1.207031 " clip-rule="nonzero"/></clipPath><clipPath id="89bdc73eef"><rect x="0" width="12" y="0" height="26"/></clipPath><clipPath id="61340d4d04"><path d="M 631 1.207031 L 643 1.207031 L 643 27 L 631 27 Z M 631 1.207031 " clip-rule="nonzero"/></clipPath><clipPath id="2be038225a"><rect x="0" width="12" y="0" height="26"/></clipPath><clipPath id="497b6143c7"><path d="M 757 1.207031 L 768 1.207031 L 768 27 L 757 27 Z M 757 1.207031 " clip-rule="nonzero"/></clipPath><clipPath id="634e08162a"><rect x="0" width="11" y="0" height="26"/></clipPath><clipPath id="b87e59dbbf"><rect x="0" width="12" y="0" height="25"/></clipPath><clipPath id="03af330b40"><rect x="0" width="12" y="0" height="25"/></clipPath><clipPath id="d0f41d44e0"><path d="M 0.160156 6 L 6 6 L 6 20 L 0.160156 20 Z M 0.160156 6 " clip-rule="nonzero"/></clipPath><clipPath id="8470d03cea"><rect x="0" width="20" y="0" height="25"/></clipPath><clipPath id="ad4b02fa2b"><path d="M 0.160156 6 L 6 6 L 6 20 L 0.160156 20 Z M 0.160156 6 " clip-rule="nonzero"/></clipPath><clipPath id="7a3aae8a40"><rect x="0" width="15" y="0" height="25"/></clipPath><clipPath id="6ae74460fd"><rect x="0" width="20" y="0" height="25"/></clipPath><clipPath id="7e1b938208"><rect x="0" width="19" y="0" height="25"/></clipPath><clipPath id="c621152cb2"><rect x="0" width="19" y="0" height="25"/></clipPath><clipPath id="f659e67f2e"><rect x="0" width="19" y="0" height="25"/></clipPath><clipPath id="7051925313"><path d="M 0.398438 6 L 6 6 L 6 20 L 0.398438 20 Z M 0.398438 6 " clip-rule="nonzero"/></clipPath><clipPath id="6f50ca89ad"><rect x="0" width="19" y="0" height="25"/></clipPath><clipPath id="9cc59d25d8"><path d="M 0.160156 6 L 6 6 L 6 20 L 0.160156 20 Z M 0.160156 6 " clip-rule="nonzero"/></clipPath><clipPath id="dec78609e2"><rect x="0" width="18" y="0" height="25"/></clipPath><clipPath id="2cc3c33d55"><path d="M 0.160156 6 L 6 6 L 6 20 L 0.160156 20 Z M 0.160156 6 " clip-rule="nonzero"/></clipPath><clipPath id="e03a28862e"><rect x="0" width="18" y="0" height="25"/></clipPath><clipPath id="a117791865"><rect x="0" width="20" y="0" height="25"/></clipPath><clipPath id="06bea3e9b6"><rect x="0" width="24" y="0" height="25"/></clipPath><clipPath id="29b9e9287e"><rect x="0" width="19" y="0" height="25"/></clipPath><clipPath id="ae370309a3"><path d="M 2 450.480469 L 25 450.480469 L 25 476 L 2 476 Z M 2 450.480469 " clip-rule="nonzero"/></clipPath><clipPath id="8a70bbf9c2"><rect x="0" width="23" y="0" height="26"/></clipPath><clipPath id="f4c568a4b1"><path d="M 128 450.480469 L 150 450.480469 L 150 476 L 128 476 Z M 128 450.480469 " clip-rule="nonzero"/></clipPath><clipPath id="d0f08c244b"><rect x="0" width="22" y="0" height="26"/></clipPath><clipPath id="c8dc67355c"><path d="M 254 450.480469 L 276 450.480469 L 276 476 L 254 476 Z M 254 450.480469 " clip-rule="nonzero"/></clipPath><clipPath id="ee20bffad4"><rect x="0" width="22" y="0" height="26"/></clipPath><clipPath id="5c837f5926"><path d="M 380 450.480469 L 402 450.480469 L 402 476 L 380 476 Z M 380 450.480469 " clip-rule="nonzero"/></clipPath><clipPath id="9bb395453a"><rect x="0" width="22" y="0" height="26"/></clipPath><clipPath id="bc33c80fbc"><path d="M 505 450.480469 L 528 450.480469 L 528 476 L 505 476 Z M 505 450.480469 " clip-rule="nonzero"/></clipPath><clipPath id="7f569fbe00"><rect x="0" width="23" y="0" height="26"/></clipPath><clipPath id="961e844e09"><path d="M 631 450.480469 L 653 450.480469 L 653 476 L 631 476 Z M 631 450.480469 " clip-rule="nonzero"/></clipPath><clipPath id="6472ebd05f"><rect x="0" width="22" y="0" height="26"/></clipPath><clipPath id="46ae456910"><path d="M 757 450.480469 L 779 450.480469 L 779 476 L 757 476 Z M 757 450.480469 " clip-rule="nonzero"/></clipPath><clipPath id="545dd495a2"><rect x="0" width="22" y="0" height="26"/></clipPath><clipPath id="02dc73f21d"><path d="M 2 600.242188 L 25 600.242188 L 25 626 L 2 626 Z M 2 600.242188 " clip-rule="nonzero"/></clipPath><clipPath id="fc263e492b"><rect x="0" width="23" y="0" height="26"/></clipPath><clipPath id="160b62d387"><path d="M 128 600.242188 L 151 600.242188 L 151 626 L 128 626 Z M 128 600.242188 " clip-rule="nonzero"/></clipPath><clipPath id="97e7085127"><rect x="0" width="23" y="0" height="26"/></clipPath><clipPath id="9882b752ef"><path d="M 254 600.242188 L 272 600.242188 L 272 626 L 254 626 Z M 254 600.242188 " clip-rule="nonzero"/></clipPath><clipPath id="45947c3d32"><rect x="0" width="18" y="0" height="26"/></clipPath></defs><g clip-path="url(#8ce7c8f5bc)"><g transform="matrix(1, 0, 0, 1, 2, 1)"><g clip-path="url(#f34183d246)"><g fill="#201f1f" fill-opacity="1"><g transform="translate(0.705657, 20.115207)"><g><path d="M 4.328125 0 C 4.140625 0 3.988281 -0.0546875 3.875 -0.171875 C 3.757812 -0.285156 3.703125 -0.421875 3.703125 -0.578125 L 3.703125 -12.09375 L 3.921875 -11.890625 L 1.375 -10.1875 C 1.269531 -10.113281 1.160156 -10.078125 1.046875 -10.078125 C 0.898438 -10.078125 0.765625 -10.140625 0.640625 -10.265625 C 0.515625 -10.398438 0.453125 -10.539062 0.453125 -10.6875 C 0.453125 -10.894531 0.554688 -11.054688 0.765625 -11.171875 L 3.953125 -13.296875 C 4.035156 -13.347656 4.117188 -13.378906 4.203125 -13.390625 C 4.285156 -13.398438 4.359375 -13.398438 4.421875 -13.390625 C 4.585938 -13.378906 4.710938 -13.316406 4.796875 -13.203125 C 4.890625 -13.097656 4.9375 -12.96875 4.9375 -12.8125 L 4.9375 -0.578125 C 4.9375 -0.421875 4.878906 -0.285156 4.765625 -0.171875 C 4.648438 -0.0546875 4.503906 0 4.328125 0 Z M 4.328125 0 "/></g></g></g></g></g></g><g clip-path="url(#7aa78babe2)"><g transform="matrix(1, 0, 0, 1, 128, 1)"><g clip-path="url(#42845b8676)"><g fill="#201f1f" fill-opacity="1"><g transform="translate(0.524728, 20.115207)"><g><path d="M 9.0625 -1.109375 C 9.21875 -1.109375 9.347656 -1.050781 9.453125 -0.9375 C 9.566406 -0.832031 9.625 -0.703125 9.625 -0.546875 C 9.625 -0.390625 9.566406 -0.257812 9.453125 -0.15625 C 9.347656 -0.0507812 9.21875 0 9.0625 0 L 1.890625 0 C 1.722656 0 1.578125 -0.046875 1.453125 -0.140625 C 1.335938 -0.234375 1.28125 -0.378906 1.28125 -0.578125 C 1.28125 -0.710938 1.332031 -0.84375 1.4375 -0.96875 L 5.859375 -5.859375 C 6.554688 -6.617188 7.078125 -7.320312 7.421875 -7.96875 C 7.773438 -8.613281 7.953125 -9.191406 7.953125 -9.703125 C 7.953125 -10.535156 7.695312 -11.207031 7.1875 -11.71875 C 6.675781 -12.226562 5.988281 -12.484375 5.125 -12.484375 C 4.726562 -12.484375 4.332031 -12.398438 3.9375 -12.234375 C 3.550781 -12.066406 3.207031 -11.847656 2.90625 -11.578125 C 2.613281 -11.316406 2.382812 -11.015625 2.21875 -10.671875 C 2.144531 -10.546875 2.066406 -10.457031 1.984375 -10.40625 C 1.898438 -10.351562 1.804688 -10.328125 1.703125 -10.328125 C 1.546875 -10.328125 1.410156 -10.375 1.296875 -10.46875 C 1.179688 -10.5625 1.125 -10.679688 1.125 -10.828125 C 1.125 -10.910156 1.144531 -10.992188 1.1875 -11.078125 C 1.238281 -11.171875 1.304688 -11.28125 1.390625 -11.40625 C 1.617188 -11.789062 1.9375 -12.148438 2.34375 -12.484375 C 2.757812 -12.816406 3.21875 -13.082031 3.71875 -13.28125 C 4.21875 -13.476562 4.710938 -13.578125 5.203125 -13.578125 C 6.015625 -13.578125 6.71875 -13.421875 7.3125 -13.109375 C 7.90625 -12.796875 8.363281 -12.351562 8.6875 -11.78125 C 9.019531 -11.21875 9.1875 -10.546875 9.1875 -9.765625 C 9.1875 -9.109375 8.976562 -8.382812 8.5625 -7.59375 C 8.144531 -6.8125 7.53125 -5.96875 6.71875 -5.0625 L 2.984375 -0.875 L 2.796875 -1.109375 Z M 9.0625 -1.109375 "/></g></g></g></g></g></g><g clip-path="url(#d31f824e6d)"><g transform="matrix(1, 0, 0, 1, 254, 1)"><g clip-path="url(#7675863427)"><g fill="#201f1f" fill-opacity="1"><g transform="translate(0.343799, 20.115207)"><g><path d="M 1.703125 -1.96875 C 1.765625 -1.96875 1.832031 -1.953125 1.90625 -1.921875 C 1.976562 -1.898438 2.0625 -1.847656 2.15625 -1.765625 C 2.425781 -1.484375 2.742188 -1.269531 3.109375 -1.125 C 3.484375 -0.976562 3.90625 -0.90625 4.375 -0.90625 C 5 -0.90625 5.566406 -1.039062 6.078125 -1.3125 C 6.597656 -1.59375 7.007812 -1.984375 7.3125 -2.484375 C 7.625 -2.992188 7.78125 -3.578125 7.78125 -4.234375 C 7.78125 -4.960938 7.617188 -5.550781 7.296875 -6 C 6.972656 -6.457031 6.554688 -6.796875 6.046875 -7.015625 C 5.546875 -7.242188 5.035156 -7.359375 4.515625 -7.359375 C 4.367188 -7.359375 4.226562 -7.347656 4.09375 -7.328125 C 3.96875 -7.316406 3.847656 -7.296875 3.734375 -7.265625 C 3.617188 -7.242188 3.53125 -7.234375 3.46875 -7.234375 C 3.300781 -7.234375 3.171875 -7.285156 3.078125 -7.390625 C 2.984375 -7.492188 2.9375 -7.628906 2.9375 -7.796875 C 2.9375 -7.890625 2.957031 -7.96875 3 -8.03125 C 3.039062 -8.101562 3.09375 -8.1875 3.15625 -8.28125 L 7.03125 -12.5 L 7.265625 -12.203125 L 1.46875 -12.203125 C 1.320312 -12.203125 1.191406 -12.253906 1.078125 -12.359375 C 0.972656 -12.472656 0.921875 -12.601562 0.921875 -12.75 C 0.921875 -12.90625 0.972656 -13.035156 1.078125 -13.140625 C 1.191406 -13.242188 1.320312 -13.296875 1.46875 -13.296875 L 7.90625 -13.296875 C 8.113281 -13.296875 8.257812 -13.226562 8.34375 -13.09375 C 8.4375 -12.957031 8.484375 -12.828125 8.484375 -12.703125 C 8.484375 -12.617188 8.460938 -12.539062 8.421875 -12.46875 C 8.390625 -12.40625 8.34375 -12.335938 8.28125 -12.265625 L 4.40625 -8.03125 L 3.984375 -8.28125 C 4.015625 -8.320312 4.140625 -8.363281 4.359375 -8.40625 C 4.585938 -8.445312 4.765625 -8.46875 4.890625 -8.46875 C 5.597656 -8.46875 6.257812 -8.300781 6.875 -7.96875 C 7.488281 -7.644531 7.988281 -7.171875 8.375 -6.546875 C 8.769531 -5.929688 8.96875 -5.171875 8.96875 -4.265625 C 8.96875 -3.367188 8.753906 -2.585938 8.328125 -1.921875 C 7.910156 -1.253906 7.34375 -0.734375 6.625 -0.359375 C 5.914062 0.00390625 5.128906 0.1875 4.265625 0.1875 C 3.742188 0.1875 3.226562 0.0976562 2.71875 -0.078125 C 2.207031 -0.253906 1.757812 -0.519531 1.375 -0.875 C 1.289062 -0.957031 1.226562 -1.035156 1.1875 -1.109375 C 1.144531 -1.179688 1.125 -1.257812 1.125 -1.34375 C 1.125 -1.488281 1.175781 -1.628906 1.28125 -1.765625 C 1.394531 -1.898438 1.535156 -1.96875 1.703125 -1.96875 Z M 1.703125 -1.96875 "/></g></g></g></g></g></g><g clip-path="url(#df30e4e1e3)"><g transform="matrix(1, 0, 0, 1, 380, 1)"><g clip-path="url(#4e00e7fc23)"><g clip-path="url(#71359f0df5)"><g fill="#201f1f" fill-opacity="1"><g transform="translate(0.162885, 20.115207)"><g><path d="M 7.015625 0 C 6.847656 0 6.710938 -0.0546875 6.609375 -0.171875 C 6.515625 -0.285156 6.46875 -0.421875 6.46875 -0.578125 L 6.46875 -11.796875 L 6.71875 -11.640625 L 1.6875 -4.984375 L 1.625 -5.203125 L 8.96875 -5.203125 C 9.125 -5.203125 9.253906 -5.148438 9.359375 -5.046875 C 9.472656 -4.941406 9.53125 -4.816406 9.53125 -4.671875 C 9.53125 -4.515625 9.472656 -4.382812 9.359375 -4.28125 C 9.253906 -4.175781 9.125 -4.125 8.96875 -4.125 L 0.84375 -4.125 C 0.6875 -4.125 0.550781 -4.1875 0.4375 -4.3125 C 0.320312 -4.4375 0.265625 -4.570312 0.265625 -4.71875 C 0.265625 -4.863281 0.3125 -4.992188 0.40625 -5.109375 L 6.5625 -13.15625 C 6.625 -13.25 6.703125 -13.3125 6.796875 -13.34375 C 6.890625 -13.375 6.96875 -13.390625 7.03125 -13.390625 C 7.195312 -13.390625 7.332031 -13.332031 7.4375 -13.21875 C 7.550781 -13.101562 7.609375 -12.96875 7.609375 -12.8125 L 7.609375 -0.578125 C 7.609375 -0.421875 7.550781 -0.285156 7.4375 -0.171875 C 7.320312 -0.0546875 7.179688 0 7.015625 0 Z M 7.015625 0 "/></g></g></g></g></g></g></g><g clip-path="url(#c288564b88)"><g transform="matrix(1, 0, 0, 1, 505, 1)"><g clip-path="url(#89bdc73eef)"><g fill="#201f1f" fill-opacity="1"><g transform="translate(0.981971, 20.115207)"><g><path d="M 4.46875 0.03125 C 3.945312 0.03125 3.421875 -0.0507812 2.890625 -0.21875 C 2.367188 -0.394531 1.898438 -0.65625 1.484375 -1 C 1.410156 -1.0625 1.351562 -1.132812 1.3125 -1.21875 C 1.269531 -1.3125 1.25 -1.398438 1.25 -1.484375 C 1.25 -1.617188 1.296875 -1.742188 1.390625 -1.859375 C 1.492188 -1.984375 1.628906 -2.046875 1.796875 -2.046875 C 1.941406 -2.046875 2.082031 -1.988281 2.21875 -1.875 C 2.550781 -1.613281 2.910156 -1.414062 3.296875 -1.28125 C 3.679688 -1.144531 4.070312 -1.078125 4.46875 -1.078125 C 5.226562 -1.078125 5.882812 -1.21875 6.4375 -1.5 C 7 -1.789062 7.429688 -2.195312 7.734375 -2.71875 C 8.046875 -3.25 8.203125 -3.867188 8.203125 -4.578125 C 8.203125 -5.222656 8.0625 -5.785156 7.78125 -6.265625 C 7.5 -6.742188 7.097656 -7.117188 6.578125 -7.390625 C 6.066406 -7.660156 5.460938 -7.796875 4.765625 -7.796875 C 4.304688 -7.796875 3.882812 -7.722656 3.5 -7.578125 C 3.125 -7.441406 2.800781 -7.300781 2.53125 -7.15625 C 2.257812 -7.007812 2.039062 -6.9375 1.875 -6.9375 C 1.71875 -6.9375 1.59375 -6.972656 1.5 -7.046875 C 1.40625 -7.128906 1.34375 -7.226562 1.3125 -7.34375 C 1.28125 -7.457031 1.273438 -7.578125 1.296875 -7.703125 L 2.125 -12.8125 C 2.132812 -12.925781 2.191406 -13.03125 2.296875 -13.125 C 2.410156 -13.21875 2.550781 -13.265625 2.71875 -13.265625 L 8.46875 -13.265625 C 8.625 -13.265625 8.753906 -13.210938 8.859375 -13.109375 C 8.972656 -13.003906 9.03125 -12.875 9.03125 -12.71875 C 9.03125 -12.550781 8.972656 -12.410156 8.859375 -12.296875 C 8.753906 -12.191406 8.625 -12.140625 8.46875 -12.140625 L 2.984375 -12.140625 L 3.15625 -12.3125 L 2.375 -7.78125 L 2.03125 -8.03125 C 2.195312 -8.15625 2.4375 -8.28125 2.75 -8.40625 C 3.0625 -8.539062 3.410156 -8.65625 3.796875 -8.75 C 4.179688 -8.84375 4.59375 -8.890625 5.03125 -8.890625 C 5.851562 -8.890625 6.585938 -8.707031 7.234375 -8.34375 C 7.890625 -7.976562 8.40625 -7.472656 8.78125 -6.828125 C 9.164062 -6.191406 9.359375 -5.453125 9.359375 -4.609375 C 9.359375 -3.679688 9.15625 -2.867188 8.75 -2.171875 C 8.34375 -1.472656 7.773438 -0.929688 7.046875 -0.546875 C 6.328125 -0.160156 5.46875 0.03125 4.46875 0.03125 Z M 4.46875 0.03125 "/></g></g></g></g></g></g><g clip-path="url(#61340d4d04)"><g transform="matrix(1, 0, 0, 1, 631, 1)"><g clip-path="url(#2be038225a)"><g fill="#201f1f" fill-opacity="1"><g transform="translate(0.801027, 20.115207)"><g><path d="M 5.484375 0.1875 C 4.742188 0.1875 4.097656 0.0546875 3.546875 -0.203125 C 2.992188 -0.472656 2.535156 -0.832031 2.171875 -1.28125 C 1.804688 -1.738281 1.535156 -2.253906 1.359375 -2.828125 C 1.191406 -3.398438 1.109375 -3.988281 1.109375 -4.59375 C 1.109375 -5.207031 1.179688 -5.863281 1.328125 -6.5625 C 1.484375 -7.269531 1.722656 -7.988281 2.046875 -8.71875 C 2.367188 -9.445312 2.757812 -10.132812 3.21875 -10.78125 C 3.6875 -11.4375 4.226562 -12.019531 4.84375 -12.53125 C 5.46875 -13.050781 6.164062 -13.457031 6.9375 -13.75 C 7.03125 -13.78125 7.109375 -13.796875 7.171875 -13.796875 C 7.335938 -13.796875 7.476562 -13.75 7.59375 -13.65625 C 7.71875 -13.5625 7.78125 -13.410156 7.78125 -13.203125 C 7.78125 -13.066406 7.738281 -12.953125 7.65625 -12.859375 C 7.570312 -12.765625 7.460938 -12.691406 7.328125 -12.640625 C 6.785156 -12.410156 6.253906 -12.082031 5.734375 -11.65625 C 5.210938 -11.238281 4.726562 -10.753906 4.28125 -10.203125 C 3.832031 -9.660156 3.453125 -9.070312 3.140625 -8.4375 C 2.828125 -7.8125 2.609375 -7.171875 2.484375 -6.515625 L 2.0625 -6.265625 C 2.289062 -6.691406 2.585938 -7.066406 2.953125 -7.390625 C 3.316406 -7.710938 3.734375 -7.972656 4.203125 -8.171875 C 4.679688 -8.367188 5.191406 -8.46875 5.734375 -8.46875 C 6.304688 -8.46875 6.832031 -8.347656 7.3125 -8.109375 C 7.800781 -7.867188 8.222656 -7.539062 8.578125 -7.125 C 8.929688 -6.707031 9.207031 -6.238281 9.40625 -5.71875 C 9.601562 -5.195312 9.703125 -4.65625 9.703125 -4.09375 C 9.703125 -3.34375 9.519531 -2.640625 9.15625 -1.984375 C 8.789062 -1.335938 8.289062 -0.8125 7.65625 -0.40625 C 7.03125 -0.0078125 6.304688 0.1875 5.484375 0.1875 Z M 5.46875 -0.921875 C 6.050781 -0.921875 6.570312 -1.050781 7.03125 -1.3125 C 7.488281 -1.582031 7.847656 -1.957031 8.109375 -2.4375 C 8.378906 -2.914062 8.515625 -3.46875 8.515625 -4.09375 C 8.515625 -4.664062 8.398438 -5.195312 8.171875 -5.6875 C 7.953125 -6.175781 7.617188 -6.578125 7.171875 -6.890625 C 6.734375 -7.203125 6.191406 -7.359375 5.546875 -7.359375 C 4.867188 -7.359375 4.285156 -7.203125 3.796875 -6.890625 C 3.304688 -6.585938 2.929688 -6.1875 2.671875 -5.6875 C 2.410156 -5.1875 2.28125 -4.632812 2.28125 -4.03125 C 2.28125 -3.5 2.40625 -2.992188 2.65625 -2.515625 C 2.914062 -2.035156 3.28125 -1.648438 3.75 -1.359375 C 4.226562 -1.066406 4.800781 -0.921875 5.46875 -0.921875 Z M 5.46875 -0.921875 "/></g></g></g></g></g></g><g clip-path="url(#497b6143c7)"><g transform="matrix(1, 0, 0, 1, 757, 1)"><g clip-path="url(#634e08162a)"><g fill="#201f1f" fill-opacity="1"><g transform="translate(0.620142, 20.115207)"><g><path d="M 3.40625 0.0625 C 3.25 0.0625 3.109375 0.0078125 2.984375 -0.09375 C 2.859375 -0.195312 2.796875 -0.328125 2.796875 -0.484375 C 2.796875 -0.566406 2.8125 -0.660156 2.84375 -0.765625 L 7.9375 -12.453125 L 8.140625 -12.1875 L 1.6875 -12.1875 C 1.53125 -12.1875 1.394531 -12.238281 1.28125 -12.34375 C 1.175781 -12.445312 1.125 -12.578125 1.125 -12.734375 C 1.125 -12.898438 1.175781 -13.035156 1.28125 -13.140625 C 1.394531 -13.242188 1.53125 -13.296875 1.6875 -13.296875 L 8.703125 -13.296875 C 8.890625 -13.296875 9.023438 -13.242188 9.109375 -13.140625 C 9.203125 -13.035156 9.25 -12.90625 9.25 -12.75 C 9.25 -12.65625 9.234375 -12.5625 9.203125 -12.46875 L 3.9375 -0.328125 C 3.894531 -0.210938 3.820312 -0.117188 3.71875 -0.046875 C 3.625 0.0234375 3.519531 0.0625 3.40625 0.0625 Z M 3.40625 0.0625 "/></g></g></g></g></g></g><g transform="matrix(1, 0, 0, 1, 2, 151)"><g clip-path="url(#b87e59dbbf)"><g fill="#201f1f" fill-opacity="1"><g transform="translate(0.705657, 19.874077)"><g><path d="M 6.96875 -6.734375 L 6.90625 -6.90625 C 7.332031 -6.738281 7.722656 -6.492188 8.078125 -6.171875 C 8.441406 -5.847656 8.734375 -5.460938 8.953125 -5.015625 C 9.171875 -4.578125 9.28125 -4.097656 9.28125 -3.578125 C 9.28125 -2.890625 9.097656 -2.265625 8.734375 -1.703125 C 8.367188 -1.140625 7.875 -0.691406 7.25 -0.359375 C 6.625 -0.0234375 5.925781 0.140625 5.15625 0.140625 C 4.382812 0.140625 3.6875 -0.0234375 3.0625 -0.359375 C 2.445312 -0.691406 1.957031 -1.140625 1.59375 -1.703125 C 1.226562 -2.265625 1.046875 -2.890625 1.046875 -3.578125 C 1.046875 -4.140625 1.15625 -4.640625 1.375 -5.078125 C 1.601562 -5.515625 1.898438 -5.882812 2.265625 -6.1875 C 2.628906 -6.5 3.007812 -6.738281 3.40625 -6.90625 L 3.34375 -6.71875 C 3 -6.882812 2.675781 -7.109375 2.375 -7.390625 C 2.082031 -7.679688 1.835938 -8.023438 1.640625 -8.421875 C 1.453125 -8.828125 1.359375 -9.269531 1.359375 -9.75 C 1.359375 -10.4375 1.523438 -11.054688 1.859375 -11.609375 C 2.203125 -12.160156 2.660156 -12.59375 3.234375 -12.90625 C 3.816406 -13.226562 4.457031 -13.390625 5.15625 -13.390625 C 5.863281 -13.390625 6.5 -13.226562 7.0625 -12.90625 C 7.632812 -12.59375 8.085938 -12.160156 8.421875 -11.609375 C 8.765625 -11.054688 8.9375 -10.4375 8.9375 -9.75 C 8.9375 -9.257812 8.835938 -8.816406 8.640625 -8.421875 C 8.453125 -8.023438 8.203125 -7.679688 7.890625 -7.390625 C 7.585938 -7.109375 7.28125 -6.890625 6.96875 -6.734375 Z M 2.546875 -9.75 C 2.546875 -9.238281 2.664062 -8.789062 2.90625 -8.40625 C 3.144531 -8.03125 3.460938 -7.734375 3.859375 -7.515625 C 4.253906 -7.296875 4.6875 -7.1875 5.15625 -7.1875 C 5.625 -7.1875 6.050781 -7.296875 6.4375 -7.515625 C 6.832031 -7.734375 7.148438 -8.03125 7.390625 -8.40625 C 7.628906 -8.789062 7.75 -9.238281 7.75 -9.75 C 7.75 -10.5 7.503906 -11.109375 7.015625 -11.578125 C 6.535156 -12.054688 5.914062 -12.296875 5.15625 -12.296875 C 4.382812 -12.296875 3.753906 -12.054688 3.265625 -11.578125 C 2.785156 -11.109375 2.546875 -10.5 2.546875 -9.75 Z M 5.15625 -0.953125 C 6.03125 -0.953125 6.738281 -1.203125 7.28125 -1.703125 C 7.820312 -2.203125 8.09375 -2.828125 8.09375 -3.578125 C 8.09375 -4.085938 7.957031 -4.546875 7.6875 -4.953125 C 7.414062 -5.359375 7.054688 -5.675781 6.609375 -5.90625 C 6.171875 -6.132812 5.6875 -6.25 5.15625 -6.25 C 4.632812 -6.25 4.148438 -6.132812 3.703125 -5.90625 C 3.265625 -5.675781 2.910156 -5.359375 2.640625 -4.953125 C 2.367188 -4.546875 2.234375 -4.085938 2.234375 -3.578125 C 2.234375 -2.828125 2.5 -2.203125 3.03125 -1.703125 C 3.570312 -1.203125 4.28125 -0.953125 5.15625 -0.953125 Z M 5.15625 -0.953125 "/></g></g></g></g></g><g transform="matrix(1, 0, 0, 1, 128, 151)"><g clip-path="url(#03af330b40)"><g fill="#201f1f" fill-opacity="1"><g transform="translate(0.524728, 19.874077)"><g><path d="M 5.296875 -13.59375 C 6.046875 -13.59375 6.695312 -13.457031 7.25 -13.1875 C 7.8125 -12.925781 8.269531 -12.566406 8.625 -12.109375 C 8.976562 -11.660156 9.242188 -11.148438 9.421875 -10.578125 C 9.609375 -10.003906 9.703125 -9.414062 9.703125 -8.8125 C 9.703125 -8.207031 9.617188 -7.554688 9.453125 -6.859375 C 9.296875 -6.160156 9.0625 -5.457031 8.75 -4.75 C 8.4375 -4.039062 8.046875 -3.367188 7.578125 -2.734375 C 7.117188 -2.097656 6.578125 -1.523438 5.953125 -1.015625 C 5.328125 -0.503906 4.628906 -0.109375 3.859375 0.171875 C 3.753906 0.191406 3.671875 0.203125 3.609375 0.203125 C 3.460938 0.203125 3.328125 0.148438 3.203125 0.046875 C 3.078125 -0.0546875 3.015625 -0.195312 3.015625 -0.375 C 3.015625 -0.507812 3.050781 -0.625 3.125 -0.71875 C 3.207031 -0.8125 3.328125 -0.882812 3.484375 -0.9375 C 4.210938 -1.238281 4.910156 -1.691406 5.578125 -2.296875 C 6.253906 -2.910156 6.835938 -3.613281 7.328125 -4.40625 C 7.828125 -5.207031 8.15625 -6.035156 8.3125 -6.890625 L 8.71875 -7.140625 C 8.5 -6.722656 8.203125 -6.347656 7.828125 -6.015625 C 7.460938 -5.691406 7.046875 -5.4375 6.578125 -5.25 C 6.117188 -5.0625 5.613281 -4.96875 5.0625 -4.96875 C 4.25 -4.96875 3.546875 -5.164062 2.953125 -5.5625 C 2.359375 -5.96875 1.898438 -6.503906 1.578125 -7.171875 C 1.265625 -7.835938 1.109375 -8.550781 1.109375 -9.3125 C 1.109375 -10.0625 1.289062 -10.757812 1.65625 -11.40625 C 2.019531 -12.0625 2.515625 -12.585938 3.140625 -12.984375 C 3.773438 -13.390625 4.492188 -13.59375 5.296875 -13.59375 Z M 5.328125 -12.484375 C 4.734375 -12.484375 4.207031 -12.347656 3.75 -12.078125 C 3.289062 -11.816406 2.929688 -11.445312 2.671875 -10.96875 C 2.410156 -10.488281 2.28125 -9.9375 2.28125 -9.3125 C 2.28125 -8.75 2.390625 -8.21875 2.609375 -7.71875 C 2.828125 -7.226562 3.160156 -6.832031 3.609375 -6.53125 C 4.054688 -6.226562 4.597656 -6.078125 5.234375 -6.078125 C 5.921875 -6.078125 6.503906 -6.226562 6.984375 -6.53125 C 7.472656 -6.832031 7.851562 -7.226562 8.125 -7.71875 C 8.394531 -8.21875 8.53125 -8.769531 8.53125 -9.375 C 8.53125 -9.914062 8.398438 -10.421875 8.140625 -10.890625 C 7.890625 -11.367188 7.523438 -11.753906 7.046875 -12.046875 C 6.578125 -12.335938 6.003906 -12.484375 5.328125 -12.484375 Z M 5.328125 -12.484375 "/></g></g></g></g></g><g transform="matrix(1, 0, 0, 1, 254, 151)"><g clip-path="url(#8470d03cea)"><g clip-path="url(#d0f41d44e0)"><g fill="#201f1f" fill-opacity="1"><g transform="translate(0.343799, 19.874077)"><g><path d="M 4.328125 0 C 4.140625 0 3.988281 -0.0546875 3.875 -0.171875 C 3.757812 -0.285156 3.703125 -0.421875 3.703125 -0.578125 L 3.703125 -12.09375 L 3.921875 -11.890625 L 1.375 -10.1875 C 1.269531 -10.113281 1.160156 -10.078125 1.046875 -10.078125 C 0.898438 -10.078125 0.765625 -10.140625 0.640625 -10.265625 C 0.515625 -10.398438 0.453125 -10.539062 0.453125 -10.6875 C 0.453125 -10.894531 0.554688 -11.054688 0.765625 -11.171875 L 3.953125 -13.296875 C 4.035156 -13.347656 4.117188 -13.378906 4.203125 -13.390625 C 4.285156 -13.398438 4.359375 -13.398438 4.421875 -13.390625 C 4.585938 -13.378906 4.710938 -13.316406 4.796875 -13.203125 C 4.890625 -13.097656 4.9375 -12.96875 4.9375 -12.8125 L 4.9375 -0.578125 C 4.9375 -0.421875 4.878906 -0.285156 4.765625 -0.171875 C 4.648438 -0.0546875 4.503906 0 4.328125 0 Z M 4.328125 0 "/></g></g></g></g><g fill="#201f1f" fill-opacity="1"><g transform="translate(7.418536, 19.874077)"><g><path d="M 5.6875 0.1875 C 4.664062 0.1875 3.804688 -0.113281 3.109375 -0.71875 C 2.421875 -1.332031 1.90625 -2.160156 1.5625 -3.203125 C 1.21875 -4.242188 1.046875 -5.40625 1.046875 -6.6875 C 1.046875 -7.988281 1.21875 -9.160156 1.5625 -10.203125 C 1.90625 -11.242188 2.421875 -12.066406 3.109375 -12.671875 C 3.804688 -13.273438 4.664062 -13.578125 5.6875 -13.578125 C 6.726562 -13.578125 7.585938 -13.273438 8.265625 -12.671875 C 8.953125 -12.066406 9.46875 -11.242188 9.8125 -10.203125 C 10.15625 -9.160156 10.328125 -7.988281 10.328125 -6.6875 C 10.328125 -5.40625 10.15625 -4.242188 9.8125 -3.203125 C 9.46875 -2.160156 8.953125 -1.332031 8.265625 -0.71875 C 7.585938 -0.113281 6.726562 0.1875 5.6875 0.1875 Z M 5.6875 -1 C 6.4375 -1 7.0625 -1.234375 7.5625 -1.703125 C 8.0625 -2.171875 8.441406 -2.832031 8.703125 -3.6875 C 8.972656 -4.550781 9.109375 -5.550781 9.109375 -6.6875 C 9.109375 -7.84375 8.972656 -8.847656 8.703125 -9.703125 C 8.441406 -10.566406 8.0625 -11.234375 7.5625 -11.703125 C 7.0625 -12.171875 6.4375 -12.40625 5.6875 -12.40625 C 4.945312 -12.40625 4.320312 -12.171875 3.8125 -11.703125 C 3.3125 -11.234375 2.929688 -10.566406 2.671875 -9.703125 C 2.410156 -8.847656 2.28125 -7.84375 2.28125 -6.6875 C 2.28125 -5.550781 2.410156 -4.550781 2.671875 -3.6875 C 2.929688 -2.832031 3.3125 -2.171875 3.8125 -1.703125 C 4.320312 -1.234375 4.945312 -1 5.6875 -1 Z M 5.6875 -1 "/></g></g></g></g></g><g transform="matrix(1, 0, 0, 1, 380, 151)"><g clip-path="url(#7a3aae8a40)"><g clip-path="url(#ad4b02fa2b)"><g fill="#201f1f" fill-opacity="1"><g transform="translate(0.162885, 19.874077)"><g><path d="M 4.328125 0 C 4.140625 0 3.988281 -0.0546875 3.875 -0.171875 C 3.757812 -0.285156 3.703125 -0.421875 3.703125 -0.578125 L 3.703125 -12.09375 L 3.921875 -11.890625 L 1.375 -10.1875 C 1.269531 -10.113281 1.160156 -10.078125 1.046875 -10.078125 C 0.898438 -10.078125 0.765625 -10.140625 0.640625 -10.265625 C 0.515625 -10.398438 0.453125 -10.539062 0.453125 -10.6875 C 0.453125 -10.894531 0.554688 -11.054688 0.765625 -11.171875 L 3.953125 -13.296875 C 4.035156 -13.347656 4.117188 -13.378906 4.203125 -13.390625 C 4.285156 -13.398438 4.359375 -13.398438 4.421875 -13.390625 C 4.585938 -13.378906 4.710938 -13.316406 4.796875 -13.203125 C 4.890625 -13.097656 4.9375 -12.96875 4.9375 -12.8125 L 4.9375 -0.578125 C 4.9375 -0.421875 4.878906 -0.285156 4.765625 -0.171875 C 4.648438 -0.0546875 4.503906 0 4.328125 0 Z M 4.328125 0 "/></g></g></g></g><g fill="#201f1f" fill-opacity="1"><g transform="translate(7.237622, 19.874077)"><g><path d="M 4.328125 0 C 4.140625 0 3.988281 -0.0546875 3.875 -0.171875 C 3.757812 -0.285156 3.703125 -0.421875 3.703125 -0.578125 L 3.703125 -12.09375 L 3.921875 -11.890625 L 1.375 -10.1875 C 1.269531 -10.113281 1.160156 -10.078125 1.046875 -10.078125 C 0.898438 -10.078125 0.765625 -10.140625 0.640625 -10.265625 C 0.515625 -10.398438 0.453125 -10.539062 0.453125 -10.6875 C 0.453125 -10.894531 0.554688 -11.054688 0.765625 -11.171875 L 3.953125 -13.296875 C 4.035156 -13.347656 4.117188 -13.378906 4.203125 -13.390625 C 4.285156 -13.398438 4.359375 -13.398438 4.421875 -13.390625 C 4.585938 -13.378906 4.710938 -13.316406 4.796875 -13.203125 C 4.890625 -13.097656 4.9375 -12.96875 4.9375 -12.8125 L 4.9375 -0.578125 C 4.9375 -0.421875 4.878906 -0.285156 4.765625 -0.171875 C 4.648438 -0.0546875 4.503906 0 4.328125 0 Z M 4.328125 0 "/></g></g></g></g></g><g transform="matrix(1, 0, 0, 1, 505, 151)"><g clip-path="url(#6ae74460fd)"><g fill="#201f1f" fill-opacity="1"><g transform="translate(0.981971, 19.874077)"><g><path d="M 4.328125 0 C 4.140625 0 3.988281 -0.0546875 3.875 -0.171875 C 3.757812 -0.285156 3.703125 -0.421875 3.703125 -0.578125 L 3.703125 -12.09375 L 3.921875 -11.890625 L 1.375 -10.1875 C 1.269531 -10.113281 1.160156 -10.078125 1.046875 -10.078125 C 0.898438 -10.078125 0.765625 -10.140625 0.640625 -10.265625 C 0.515625 -10.398438 0.453125 -10.539062 0.453125 -10.6875 C 0.453125 -10.894531 0.554688 -11.054688 0.765625 -11.171875 L 3.953125 -13.296875 C 4.035156 -13.347656 4.117188 -13.378906 4.203125 -13.390625 C 4.285156 -13.398438 4.359375 -13.398438 4.421875 -13.390625 C 4.585938 -13.378906 4.710938 -13.316406 4.796875 -13.203125 C 4.890625 -13.097656 4.9375 -12.96875 4.9375 -12.8125 L 4.9375 -0.578125 C 4.9375 -0.421875 4.878906 -0.285156 4.765625 -0.171875 C 4.648438 -0.0546875 4.503906 0 4.328125 0 Z M 4.328125 0 "/></g></g></g><g fill="#201f1f" fill-opacity="1"><g transform="translate(8.056708, 19.874077)"><g><path d="M 9.0625 -1.109375 C 9.21875 -1.109375 9.347656 -1.050781 9.453125 -0.9375 C 9.566406 -0.832031 9.625 -0.703125 9.625 -0.546875 C 9.625 -0.390625 9.566406 -0.257812 9.453125 -0.15625 C 9.347656 -0.0507812 9.21875 0 9.0625 0 L 1.890625 0 C 1.722656 0 1.578125 -0.046875 1.453125 -0.140625 C 1.335938 -0.234375 1.28125 -0.378906 1.28125 -0.578125 C 1.28125 -0.710938 1.332031 -0.84375 1.4375 -0.96875 L 5.859375 -5.859375 C 6.554688 -6.617188 7.078125 -7.320312 7.421875 -7.96875 C 7.773438 -8.613281 7.953125 -9.191406 7.953125 -9.703125 C 7.953125 -10.535156 7.695312 -11.207031 7.1875 -11.71875 C 6.675781 -12.226562 5.988281 -12.484375 5.125 -12.484375 C 4.726562 -12.484375 4.332031 -12.398438 3.9375 -12.234375 C 3.550781 -12.066406 3.207031 -11.847656 2.90625 -11.578125 C 2.613281 -11.316406 2.382812 -11.015625 2.21875 -10.671875 C 2.144531 -10.546875 2.066406 -10.457031 1.984375 -10.40625 C 1.898438 -10.351562 1.804688 -10.328125 1.703125 -10.328125 C 1.546875 -10.328125 1.410156 -10.375 1.296875 -10.46875 C 1.179688 -10.5625 1.125 -10.679688 1.125 -10.828125 C 1.125 -10.910156 1.144531 -10.992188 1.1875 -11.078125 C 1.238281 -11.171875 1.304688 -11.28125 1.390625 -11.40625 C 1.617188 -11.789062 1.9375 -12.148438 2.34375 -12.484375 C 2.757812 -12.816406 3.21875 -13.082031 3.71875 -13.28125 C 4.21875 -13.476562 4.710938 -13.578125 5.203125 -13.578125 C 6.015625 -13.578125 6.71875 -13.421875 7.3125 -13.109375 C 7.90625 -12.796875 8.363281 -12.351562 8.6875 -11.78125 C 9.019531 -11.21875 9.1875 -10.546875 9.1875 -9.765625 C 9.1875 -9.109375 8.976562 -8.382812 8.5625 -7.59375 C 8.144531 -6.8125 7.53125 -5.96875 6.71875 -5.0625 L 2.984375 -0.875 L 2.796875 -1.109375 Z M 9.0625 -1.109375 "/></g></g></g></g></g><g transform="matrix(1, 0, 0, 1, 631, 151)"><g clip-path="url(#7e1b938208)"><g fill="#201f1f" fill-opacity="1"><g transform="translate(0.801027, 19.874077)"><g><path d="M 4.328125 0 C 4.140625 0 3.988281 -0.0546875 3.875 -0.171875 C 3.757812 -0.285156 3.703125 -0.421875 3.703125 -0.578125 L 3.703125 -12.09375 L 3.921875 -11.890625 L 1.375 -10.1875 C 1.269531 -10.113281 1.160156 -10.078125 1.046875 -10.078125 C 0.898438 -10.078125 0.765625 -10.140625 0.640625 -10.265625 C 0.515625 -10.398438 0.453125 -10.539062 0.453125 -10.6875 C 0.453125 -10.894531 0.554688 -11.054688 0.765625 -11.171875 L 3.953125 -13.296875 C 4.035156 -13.347656 4.117188 -13.378906 4.203125 -13.390625 C 4.285156 -13.398438 4.359375 -13.398438 4.421875 -13.390625 C 4.585938 -13.378906 4.710938 -13.316406 4.796875 -13.203125 C 4.890625 -13.097656 4.9375 -12.96875 4.9375 -12.8125 L 4.9375 -0.578125 C 4.9375 -0.421875 4.878906 -0.285156 4.765625 -0.171875 C 4.648438 -0.0546875 4.503906 0 4.328125 0 Z M 4.328125 0 "/></g></g></g><g fill="#201f1f" fill-opacity="1"><g transform="translate(7.875764, 19.874077)"><g><path d="M 1.703125 -1.96875 C 1.765625 -1.96875 1.832031 -1.953125 1.90625 -1.921875 C 1.976562 -1.898438 2.0625 -1.847656 2.15625 -1.765625 C 2.425781 -1.484375 2.742188 -1.269531 3.109375 -1.125 C 3.484375 -0.976562 3.90625 -0.90625 4.375 -0.90625 C 5 -0.90625 5.566406 -1.039062 6.078125 -1.3125 C 6.597656 -1.59375 7.007812 -1.984375 7.3125 -2.484375 C 7.625 -2.992188 7.78125 -3.578125 7.78125 -4.234375 C 7.78125 -4.960938 7.617188 -5.550781 7.296875 -6 C 6.972656 -6.457031 6.554688 -6.796875 6.046875 -7.015625 C 5.546875 -7.242188 5.035156 -7.359375 4.515625 -7.359375 C 4.367188 -7.359375 4.226562 -7.347656 4.09375 -7.328125 C 3.96875 -7.316406 3.847656 -7.296875 3.734375 -7.265625 C 3.617188 -7.242188 3.53125 -7.234375 3.46875 -7.234375 C 3.300781 -7.234375 3.171875 -7.285156 3.078125 -7.390625 C 2.984375 -7.492188 2.9375 -7.628906 2.9375 -7.796875 C 2.9375 -7.890625 2.957031 -7.96875 3 -8.03125 C 3.039062 -8.101562 3.09375 -8.1875 3.15625 -8.28125 L 7.03125 -12.5 L 7.265625 -12.203125 L 1.46875 -12.203125 C 1.320312 -12.203125 1.191406 -12.253906 1.078125 -12.359375 C 0.972656 -12.472656 0.921875 -12.601562 0.921875 -12.75 C 0.921875 -12.90625 0.972656 -13.035156 1.078125 -13.140625 C 1.191406 -13.242188 1.320312 -13.296875 1.46875 -13.296875 L 7.90625 -13.296875 C 8.113281 -13.296875 8.257812 -13.226562 8.34375 -13.09375 C 8.4375 -12.957031 8.484375 -12.828125 8.484375 -12.703125 C 8.484375 -12.617188 8.460938 -12.539062 8.421875 -12.46875 C 8.390625 -12.40625 8.34375 -12.335938 8.28125 -12.265625 L 4.40625 -8.03125 L 3.984375 -8.28125 C 4.015625 -8.320312 4.140625 -8.363281 4.359375 -8.40625 C 4.585938 -8.445312 4.765625 -8.46875 4.890625 -8.46875 C 5.597656 -8.46875 6.257812 -8.300781 6.875 -7.96875 C 7.488281 -7.644531 7.988281 -7.171875 8.375 -6.546875 C 8.769531 -5.929688 8.96875 -5.171875 8.96875 -4.265625 C 8.96875 -3.367188 8.753906 -2.585938 8.328125 -1.921875 C 7.910156 -1.253906 7.34375 -0.734375 6.625 -0.359375 C 5.914062 0.00390625 5.128906 0.1875 4.265625 0.1875 C 3.742188 0.1875 3.226562 0.0976562 2.71875 -0.078125 C 2.207031 -0.253906 1.757812 -0.519531 1.375 -0.875 C 1.289062 -0.957031 1.226562 -1.035156 1.1875 -1.109375 C 1.144531 -1.179688 1.125 -1.257812 1.125 -1.34375 C 1.125 -1.488281 1.175781 -1.628906 1.28125 -1.765625 C 1.394531 -1.898438 1.535156 -1.96875 1.703125 -1.96875 Z M 1.703125 -1.96875 "/></g></g></g></g></g><g transform="matrix(1, 0, 0, 1, 757, 151)"><g clip-path="url(#c621152cb2)"><g fill="#201f1f" fill-opacity="1"><g transform="translate(0.620142, 19.874077)"><g><path d="M 4.328125 0 C 4.140625 0 3.988281 -0.0546875 3.875 -0.171875 C 3.757812 -0.285156 3.703125 -0.421875 3.703125 -0.578125 L 3.703125 -12.09375 L 3.921875 -11.890625 L 1.375 -10.1875 C 1.269531 -10.113281 1.160156 -10.078125 1.046875 -10.078125 C 0.898438 -10.078125 0.765625 -10.140625 0.640625 -10.265625 C 0.515625 -10.398438 0.453125 -10.539062 0.453125 -10.6875 C 0.453125 -10.894531 0.554688 -11.054688 0.765625 -11.171875 L 3.953125 -13.296875 C 4.035156 -13.347656 4.117188 -13.378906 4.203125 -13.390625 C 4.285156 -13.398438 4.359375 -13.398438 4.421875 -13.390625 C 4.585938 -13.378906 4.710938 -13.316406 4.796875 -13.203125 C 4.890625 -13.097656 4.9375 -12.96875 4.9375 -12.8125 L 4.9375 -0.578125 C 4.9375 -0.421875 4.878906 -0.285156 4.765625 -0.171875 C 4.648438 -0.0546875 4.503906 0 4.328125 0 Z M 4.328125 0 "/></g></g></g><g fill="#201f1f" fill-opacity="1"><g transform="translate(7.694879, 19.874077)"><g><path d="M 7.015625 0 C 6.847656 0 6.710938 -0.0546875 6.609375 -0.171875 C 6.515625 -0.285156 6.46875 -0.421875 6.46875 -0.578125 L 6.46875 -11.796875 L 6.71875 -11.640625 L 1.6875 -4.984375 L 1.625 -5.203125 L 8.96875 -5.203125 C 9.125 -5.203125 9.253906 -5.148438 9.359375 -5.046875 C 9.472656 -4.941406 9.53125 -4.816406 9.53125 -4.671875 C 9.53125 -4.515625 9.472656 -4.382812 9.359375 -4.28125 C 9.253906 -4.175781 9.125 -4.125 8.96875 -4.125 L 0.84375 -4.125 C 0.6875 -4.125 0.550781 -4.1875 0.4375 -4.3125 C 0.320312 -4.4375 0.265625 -4.570312 0.265625 -4.71875 C 0.265625 -4.863281 0.3125 -4.992188 0.40625 -5.109375 L 6.5625 -13.15625 C 6.625 -13.25 6.703125 -13.3125 6.796875 -13.34375 C 6.890625 -13.375 6.96875 -13.390625 7.03125 -13.390625 C 7.195312 -13.390625 7.332031 -13.332031 7.4375 -13.21875 C 7.550781 -13.101562 7.609375 -12.96875 7.609375 -12.8125 L 7.609375 -0.578125 C 7.609375 -0.421875 7.550781 -0.285156 7.4375 -0.171875 C 7.320312 -0.0546875 7.179688 0 7.015625 0 Z M 7.015625 0 "/></g></g></g></g></g><g transform="matrix(1, 0, 0, 1, 2, 301)"><g clip-path="url(#f659e67f2e)"><g fill="#201f1f" fill-opacity="1"><g transform="translate(0.705657, 19.632942)"><g><path d="M 4.328125 0 C 4.140625 0 3.988281 -0.0546875 3.875 -0.171875 C 3.757812 -0.285156 3.703125 -0.421875 3.703125 -0.578125 L 3.703125 -12.09375 L 3.921875 -11.890625 L 1.375 -10.1875 C 1.269531 -10.113281 1.160156 -10.078125 1.046875 -10.078125 C 0.898438 -10.078125 0.765625 -10.140625 0.640625 -10.265625 C 0.515625 -10.398438 0.453125 -10.539062 0.453125 -10.6875 C 0.453125 -10.894531 0.554688 -11.054688 0.765625 -11.171875 L 3.953125 -13.296875 C 4.035156 -13.347656 4.117188 -13.378906 4.203125 -13.390625 C 4.285156 -13.398438 4.359375 -13.398438 4.421875 -13.390625 C 4.585938 -13.378906 4.710938 -13.316406 4.796875 -13.203125 C 4.890625 -13.097656 4.9375 -12.96875 4.9375 -12.8125 L 4.9375 -0.578125 C 4.9375 -0.421875 4.878906 -0.285156 4.765625 -0.171875 C 4.648438 -0.0546875 4.503906 0 4.328125 0 Z M 4.328125 0 "/></g></g></g><g fill="#201f1f" fill-opacity="1"><g transform="translate(7.780394, 19.632942)"><g><path d="M 4.46875 0.03125 C 3.945312 0.03125 3.421875 -0.0507812 2.890625 -0.21875 C 2.367188 -0.394531 1.898438 -0.65625 1.484375 -1 C 1.410156 -1.0625 1.351562 -1.132812 1.3125 -1.21875 C 1.269531 -1.3125 1.25 -1.398438 1.25 -1.484375 C 1.25 -1.617188 1.296875 -1.742188 1.390625 -1.859375 C 1.492188 -1.984375 1.628906 -2.046875 1.796875 -2.046875 C 1.941406 -2.046875 2.082031 -1.988281 2.21875 -1.875 C 2.550781 -1.613281 2.910156 -1.414062 3.296875 -1.28125 C 3.679688 -1.144531 4.070312 -1.078125 4.46875 -1.078125 C 5.226562 -1.078125 5.882812 -1.21875 6.4375 -1.5 C 7 -1.789062 7.429688 -2.195312 7.734375 -2.71875 C 8.046875 -3.25 8.203125 -3.867188 8.203125 -4.578125 C 8.203125 -5.222656 8.0625 -5.785156 7.78125 -6.265625 C 7.5 -6.742188 7.097656 -7.117188 6.578125 -7.390625 C 6.066406 -7.660156 5.460938 -7.796875 4.765625 -7.796875 C 4.304688 -7.796875 3.882812 -7.722656 3.5 -7.578125 C 3.125 -7.441406 2.800781 -7.300781 2.53125 -7.15625 C 2.257812 -7.007812 2.039062 -6.9375 1.875 -6.9375 C 1.71875 -6.9375 1.59375 -6.972656 1.5 -7.046875 C 1.40625 -7.128906 1.34375 -7.226562 1.3125 -7.34375 C 1.28125 -7.457031 1.273438 -7.578125 1.296875 -7.703125 L 2.125 -12.8125 C 2.132812 -12.925781 2.191406 -13.03125 2.296875 -13.125 C 2.410156 -13.21875 2.550781 -13.265625 2.71875 -13.265625 L 8.46875 -13.265625 C 8.625 -13.265625 8.753906 -13.210938 8.859375 -13.109375 C 8.972656 -13.003906 9.03125 -12.875 9.03125 -12.71875 C 9.03125 -12.550781 8.972656 -12.410156 8.859375 -12.296875 C 8.753906 -12.191406 8.625 -12.140625 8.46875 -12.140625 L 2.984375 -12.140625 L 3.15625 -12.3125 L 2.375 -7.78125 L 2.03125 -8.03125 C 2.195312 -8.15625 2.4375 -8.28125 2.75 -8.40625 C 3.0625 -8.539062 3.410156 -8.65625 3.796875 -8.75 C 4.179688 -8.84375 4.59375 -8.890625 5.03125 -8.890625 C 5.851562 -8.890625 6.585938 -8.707031 7.234375 -8.34375 C 7.890625 -7.976562 8.40625 -7.472656 8.78125 -6.828125 C 9.164062 -6.191406 9.359375 -5.453125 9.359375 -4.609375 C 9.359375 -3.679688 9.15625 -2.867188 8.75 -2.171875 C 8.34375 -1.472656 7.773438 -0.929688 7.046875 -0.546875 C 6.328125 -0.160156 5.46875 0.03125 4.46875 0.03125 Z M 4.46875 0.03125 "/></g></g></g></g></g><g transform="matrix(1, 0, 0, 1, 128, 301)"><g clip-path="url(#6f50ca89ad)"><g clip-path="url(#7051925313)"><g fill="#201f1f" fill-opacity="1"><g transform="translate(0.524728, 19.632942)"><g><path d="M 4.328125 0 C 4.140625 0 3.988281 -0.0546875 3.875 -0.171875 C 3.757812 -0.285156 3.703125 -0.421875 3.703125 -0.578125 L 3.703125 -12.09375 L 3.921875 -11.890625 L 1.375 -10.1875 C 1.269531 -10.113281 1.160156 -10.078125 1.046875 -10.078125 C 0.898438 -10.078125 0.765625 -10.140625 0.640625 -10.265625 C 0.515625 -10.398438 0.453125 -10.539062 0.453125 -10.6875 C 0.453125 -10.894531 0.554688 -11.054688 0.765625 -11.171875 L 3.953125 -13.296875 C 4.035156 -13.347656 4.117188 -13.378906 4.203125 -13.390625 C 4.285156 -13.398438 4.359375 -13.398438 4.421875 -13.390625 C 4.585938 -13.378906 4.710938 -13.316406 4.796875 -13.203125 C 4.890625 -13.097656 4.9375 -12.96875 4.9375 -12.8125 L 4.9375 -0.578125 C 4.9375 -0.421875 4.878906 -0.285156 4.765625 -0.171875 C 4.648438 -0.0546875 4.503906 0 4.328125 0 Z M 4.328125 0 "/></g></g></g></g><g fill="#201f1f" fill-opacity="1"><g transform="translate(7.599465, 19.632942)"><g><path d="M 5.484375 0.1875 C 4.742188 0.1875 4.097656 0.0546875 3.546875 -0.203125 C 2.992188 -0.472656 2.535156 -0.832031 2.171875 -1.28125 C 1.804688 -1.738281 1.535156 -2.253906 1.359375 -2.828125 C 1.191406 -3.398438 1.109375 -3.988281 1.109375 -4.59375 C 1.109375 -5.207031 1.179688 -5.863281 1.328125 -6.5625 C 1.484375 -7.269531 1.722656 -7.988281 2.046875 -8.71875 C 2.367188 -9.445312 2.757812 -10.132812 3.21875 -10.78125 C 3.6875 -11.4375 4.226562 -12.019531 4.84375 -12.53125 C 5.46875 -13.050781 6.164062 -13.457031 6.9375 -13.75 C 7.03125 -13.78125 7.109375 -13.796875 7.171875 -13.796875 C 7.335938 -13.796875 7.476562 -13.75 7.59375 -13.65625 C 7.71875 -13.5625 7.78125 -13.410156 7.78125 -13.203125 C 7.78125 -13.066406 7.738281 -12.953125 7.65625 -12.859375 C 7.570312 -12.765625 7.460938 -12.691406 7.328125 -12.640625 C 6.785156 -12.410156 6.253906 -12.082031 5.734375 -11.65625 C 5.210938 -11.238281 4.726562 -10.753906 4.28125 -10.203125 C 3.832031 -9.660156 3.453125 -9.070312 3.140625 -8.4375 C 2.828125 -7.8125 2.609375 -7.171875 2.484375 -6.515625 L 2.0625 -6.265625 C 2.289062 -6.691406 2.585938 -7.066406 2.953125 -7.390625 C 3.316406 -7.710938 3.734375 -7.972656 4.203125 -8.171875 C 4.679688 -8.367188 5.191406 -8.46875 5.734375 -8.46875 C 6.304688 -8.46875 6.832031 -8.347656 7.3125 -8.109375 C 7.800781 -7.867188 8.222656 -7.539062 8.578125 -7.125 C 8.929688 -6.707031 9.207031 -6.238281 9.40625 -5.71875 C 9.601562 -5.195312 9.703125 -4.65625 9.703125 -4.09375 C 9.703125 -3.34375 9.519531 -2.640625 9.15625 -1.984375 C 8.789062 -1.335938 8.289062 -0.8125 7.65625 -0.40625 C 7.03125 -0.0078125 6.304688 0.1875 5.484375 0.1875 Z M 5.46875 -0.921875 C 6.050781 -0.921875 6.570312 -1.050781 7.03125 -1.3125 C 7.488281 -1.582031 7.847656 -1.957031 8.109375 -2.4375 C 8.378906 -2.914062 8.515625 -3.46875 8.515625 -4.09375 C 8.515625 -4.664062 8.398438 -5.195312 8.171875 -5.6875 C 7.953125 -6.175781 7.617188 -6.578125 7.171875 -6.890625 C 6.734375 -7.203125 6.191406 -7.359375 5.546875 -7.359375 C 4.867188 -7.359375 4.285156 -7.203125 3.796875 -6.890625 C 3.304688 -6.585938 2.929688 -6.1875 2.671875 -5.6875 C 2.410156 -5.1875 2.28125 -4.632812 2.28125 -4.03125 C 2.28125 -3.5 2.40625 -2.992188 2.65625 -2.515625 C 2.914062 -2.035156 3.28125 -1.648438 3.75 -1.359375 C 4.226562 -1.066406 4.800781 -0.921875 5.46875 -0.921875 Z M 5.46875 -0.921875 "/></g></g></g></g></g><g transform="matrix(1, 0, 0, 1, 254, 301)"><g clip-path="url(#dec78609e2)"><g clip-path="url(#9cc59d25d8)"><g fill="#201f1f" fill-opacity="1"><g transform="translate(0.343799, 19.632942)"><g><path d="M 4.328125 0 C 4.140625 0 3.988281 -0.0546875 3.875 -0.171875 C 3.757812 -0.285156 3.703125 -0.421875 3.703125 -0.578125 L 3.703125 -12.09375 L 3.921875 -11.890625 L 1.375 -10.1875 C 1.269531 -10.113281 1.160156 -10.078125 1.046875 -10.078125 C 0.898438 -10.078125 0.765625 -10.140625 0.640625 -10.265625 C 0.515625 -10.398438 0.453125 -10.539062 0.453125 -10.6875 C 0.453125 -10.894531 0.554688 -11.054688 0.765625 -11.171875 L 3.953125 -13.296875 C 4.035156 -13.347656 4.117188 -13.378906 4.203125 -13.390625 C 4.285156 -13.398438 4.359375 -13.398438 4.421875 -13.390625 C 4.585938 -13.378906 4.710938 -13.316406 4.796875 -13.203125 C 4.890625 -13.097656 4.9375 -12.96875 4.9375 -12.8125 L 4.9375 -0.578125 C 4.9375 -0.421875 4.878906 -0.285156 4.765625 -0.171875 C 4.648438 -0.0546875 4.503906 0 4.328125 0 Z M 4.328125 0 "/></g></g></g></g><g fill="#201f1f" fill-opacity="1"><g transform="translate(7.418536, 19.632942)"><g><path d="M 3.40625 0.0625 C 3.25 0.0625 3.109375 0.0078125 2.984375 -0.09375 C 2.859375 -0.195312 2.796875 -0.328125 2.796875 -0.484375 C 2.796875 -0.566406 2.8125 -0.660156 2.84375 -0.765625 L 7.9375 -12.453125 L 8.140625 -12.1875 L 1.6875 -12.1875 C 1.53125 -12.1875 1.394531 -12.238281 1.28125 -12.34375 C 1.175781 -12.445312 1.125 -12.578125 1.125 -12.734375 C 1.125 -12.898438 1.175781 -13.035156 1.28125 -13.140625 C 1.394531 -13.242188 1.53125 -13.296875 1.6875 -13.296875 L 8.703125 -13.296875 C 8.890625 -13.296875 9.023438 -13.242188 9.109375 -13.140625 C 9.203125 -13.035156 9.25 -12.90625 9.25 -12.75 C 9.25 -12.65625 9.234375 -12.5625 9.203125 -12.46875 L 3.9375 -0.328125 C 3.894531 -0.210938 3.820312 -0.117188 3.71875 -0.046875 C 3.625 0.0234375 3.519531 0.0625 3.40625 0.0625 Z M 3.40625 0.0625 "/></g></g></g></g></g><g transform="matrix(1, 0, 0, 1, 380, 301)"><g clip-path="url(#e03a28862e)"><g clip-path="url(#2cc3c33d55)"><g fill="#201f1f" fill-opacity="1"><g transform="translate(0.162885, 19.632942)"><g><path d="M 4.328125 0 C 4.140625 0 3.988281 -0.0546875 3.875 -0.171875 C 3.757812 -0.285156 3.703125 -0.421875 3.703125 -0.578125 L 3.703125 -12.09375 L 3.921875 -11.890625 L 1.375 -10.1875 C 1.269531 -10.113281 1.160156 -10.078125 1.046875 -10.078125 C 0.898438 -10.078125 0.765625 -10.140625 0.640625 -10.265625 C 0.515625 -10.398438 0.453125 -10.539062 0.453125 -10.6875 C 0.453125 -10.894531 0.554688 -11.054688 0.765625 -11.171875 L 3.953125 -13.296875 C 4.035156 -13.347656 4.117188 -13.378906 4.203125 -13.390625 C 4.285156 -13.398438 4.359375 -13.398438 4.421875 -13.390625 C 4.585938 -13.378906 4.710938 -13.316406 4.796875 -13.203125 C 4.890625 -13.097656 4.9375 -12.96875 4.9375 -12.8125 L 4.9375 -0.578125 C 4.9375 -0.421875 4.878906 -0.285156 4.765625 -0.171875 C 4.648438 -0.0546875 4.503906 0 4.328125 0 Z M 4.328125 0 "/></g></g></g></g><g fill="#201f1f" fill-opacity="1"><g transform="translate(7.237622, 19.632942)"><g><path d="M 6.96875 -6.734375 L 6.90625 -6.90625 C 7.332031 -6.738281 7.722656 -6.492188 8.078125 -6.171875 C 8.441406 -5.847656 8.734375 -5.460938 8.953125 -5.015625 C 9.171875 -4.578125 9.28125 -4.097656 9.28125 -3.578125 C 9.28125 -2.890625 9.097656 -2.265625 8.734375 -1.703125 C 8.367188 -1.140625 7.875 -0.691406 7.25 -0.359375 C 6.625 -0.0234375 5.925781 0.140625 5.15625 0.140625 C 4.382812 0.140625 3.6875 -0.0234375 3.0625 -0.359375 C 2.445312 -0.691406 1.957031 -1.140625 1.59375 -1.703125 C 1.226562 -2.265625 1.046875 -2.890625 1.046875 -3.578125 C 1.046875 -4.140625 1.15625 -4.640625 1.375 -5.078125 C 1.601562 -5.515625 1.898438 -5.882812 2.265625 -6.1875 C 2.628906 -6.5 3.007812 -6.738281 3.40625 -6.90625 L 3.34375 -6.71875 C 3 -6.882812 2.675781 -7.109375 2.375 -7.390625 C 2.082031 -7.679688 1.835938 -8.023438 1.640625 -8.421875 C 1.453125 -8.828125 1.359375 -9.269531 1.359375 -9.75 C 1.359375 -10.4375 1.523438 -11.054688 1.859375 -11.609375 C 2.203125 -12.160156 2.660156 -12.59375 3.234375 -12.90625 C 3.816406 -13.226562 4.457031 -13.390625 5.15625 -13.390625 C 5.863281 -13.390625 6.5 -13.226562 7.0625 -12.90625 C 7.632812 -12.59375 8.085938 -12.160156 8.421875 -11.609375 C 8.765625 -11.054688 8.9375 -10.4375 8.9375 -9.75 C 8.9375 -9.257812 8.835938 -8.816406 8.640625 -8.421875 C 8.453125 -8.023438 8.203125 -7.679688 7.890625 -7.390625 C 7.585938 -7.109375 7.28125 -6.890625 6.96875 -6.734375 Z M 2.546875 -9.75 C 2.546875 -9.238281 2.664062 -8.789062 2.90625 -8.40625 C 3.144531 -8.03125 3.460938 -7.734375 3.859375 -7.515625 C 4.253906 -7.296875 4.6875 -7.1875 5.15625 -7.1875 C 5.625 -7.1875 6.050781 -7.296875 6.4375 -7.515625 C 6.832031 -7.734375 7.148438 -8.03125 7.390625 -8.40625 C 7.628906 -8.789062 7.75 -9.238281 7.75 -9.75 C 7.75 -10.5 7.503906 -11.109375 7.015625 -11.578125 C 6.535156 -12.054688 5.914062 -12.296875 5.15625 -12.296875 C 4.382812 -12.296875 3.753906 -12.054688 3.265625 -11.578125 C 2.785156 -11.109375 2.546875 -10.5 2.546875 -9.75 Z M 5.15625 -0.953125 C 6.03125 -0.953125 6.738281 -1.203125 7.28125 -1.703125 C 7.820312 -2.203125 8.09375 -2.828125 8.09375 -3.578125 C 8.09375 -4.085938 7.957031 -4.546875 7.6875 -4.953125 C 7.414062 -5.359375 7.054688 -5.675781 6.609375 -5.90625 C 6.171875 -6.132812 5.6875 -6.25 5.15625 -6.25 C 4.632812 -6.25 4.148438 -6.132812 3.703125 -5.90625 C 3.265625 -5.675781 2.910156 -5.359375 2.640625 -4.953125 C 2.367188 -4.546875 2.234375 -4.085938 2.234375 -3.578125 C 2.234375 -2.828125 2.5 -2.203125 3.03125 -1.703125 C 3.570312 -1.203125 4.28125 -0.953125 5.15625 -0.953125 Z M 5.15625 -0.953125 "/></g></g></g></g></g><g transform="matrix(1, 0, 0, 1, 505, 301)"><g clip-path="url(#a117791865)"><g fill="#201f1f" fill-opacity="1"><g transform="translate(0.981971, 19.632942)"><g><path d="M 4.328125 0 C 4.140625 0 3.988281 -0.0546875 3.875 -0.171875 C 3.757812 -0.285156 3.703125 -0.421875 3.703125 -0.578125 L 3.703125 -12.09375 L 3.921875 -11.890625 L 1.375 -10.1875 C 1.269531 -10.113281 1.160156 -10.078125 1.046875 -10.078125 C 0.898438 -10.078125 0.765625 -10.140625 0.640625 -10.265625 C 0.515625 -10.398438 0.453125 -10.539062 0.453125 -10.6875 C 0.453125 -10.894531 0.554688 -11.054688 0.765625 -11.171875 L 3.953125 -13.296875 C 4.035156 -13.347656 4.117188 -13.378906 4.203125 -13.390625 C 4.285156 -13.398438 4.359375 -13.398438 4.421875 -13.390625 C 4.585938 -13.378906 4.710938 -13.316406 4.796875 -13.203125 C 4.890625 -13.097656 4.9375 -12.96875 4.9375 -12.8125 L 4.9375 -0.578125 C 4.9375 -0.421875 4.878906 -0.285156 4.765625 -0.171875 C 4.648438 -0.0546875 4.503906 0 4.328125 0 Z M 4.328125 0 "/></g></g></g><g fill="#201f1f" fill-opacity="1"><g transform="translate(8.056708, 19.632942)"><g><path d="M 5.296875 -13.59375 C 6.046875 -13.59375 6.695312 -13.457031 7.25 -13.1875 C 7.8125 -12.925781 8.269531 -12.566406 8.625 -12.109375 C 8.976562 -11.660156 9.242188 -11.148438 9.421875 -10.578125 C 9.609375 -10.003906 9.703125 -9.414062 9.703125 -8.8125 C 9.703125 -8.207031 9.617188 -7.554688 9.453125 -6.859375 C 9.296875 -6.160156 9.0625 -5.457031 8.75 -4.75 C 8.4375 -4.039062 8.046875 -3.367188 7.578125 -2.734375 C 7.117188 -2.097656 6.578125 -1.523438 5.953125 -1.015625 C 5.328125 -0.503906 4.628906 -0.109375 3.859375 0.171875 C 3.753906 0.191406 3.671875 0.203125 3.609375 0.203125 C 3.460938 0.203125 3.328125 0.148438 3.203125 0.046875 C 3.078125 -0.0546875 3.015625 -0.195312 3.015625 -0.375 C 3.015625 -0.507812 3.050781 -0.625 3.125 -0.71875 C 3.207031 -0.8125 3.328125 -0.882812 3.484375 -0.9375 C 4.210938 -1.238281 4.910156 -1.691406 5.578125 -2.296875 C 6.253906 -2.910156 6.835938 -3.613281 7.328125 -4.40625 C 7.828125 -5.207031 8.15625 -6.035156 8.3125 -6.890625 L 8.71875 -7.140625 C 8.5 -6.722656 8.203125 -6.347656 7.828125 -6.015625 C 7.460938 -5.691406 7.046875 -5.4375 6.578125 -5.25 C 6.117188 -5.0625 5.613281 -4.96875 5.0625 -4.96875 C 4.25 -4.96875 3.546875 -5.164062 2.953125 -5.5625 C 2.359375 -5.96875 1.898438 -6.503906 1.578125 -7.171875 C 1.265625 -7.835938 1.109375 -8.550781 1.109375 -9.3125 C 1.109375 -10.0625 1.289062 -10.757812 1.65625 -11.40625 C 2.019531 -12.0625 2.515625 -12.585938 3.140625 -12.984375 C 3.773438 -13.390625 4.492188 -13.59375 5.296875 -13.59375 Z M 5.328125 -12.484375 C 4.734375 -12.484375 4.207031 -12.347656 3.75 -12.078125 C 3.289062 -11.816406 2.929688 -11.445312 2.671875 -10.96875 C 2.410156 -10.488281 2.28125 -9.9375 2.28125 -9.3125 C 2.28125 -8.75 2.390625 -8.21875 2.609375 -7.71875 C 2.828125 -7.226562 3.160156 -6.832031 3.609375 -6.53125 C 4.054688 -6.226562 4.597656 -6.078125 5.234375 -6.078125 C 5.921875 -6.078125 6.503906 -6.226562 6.984375 -6.53125 C 7.472656 -6.832031 7.851562 -7.226562 8.125 -7.71875 C 8.394531 -8.21875 8.53125 -8.769531 8.53125 -9.375 C 8.53125 -9.914062 8.398438 -10.421875 8.140625 -10.890625 C 7.890625 -11.367188 7.523438 -11.753906 7.046875 -12.046875 C 6.578125 -12.335938 6.003906 -12.484375 5.328125 -12.484375 Z M 5.328125 -12.484375 "/></g></g></g></g></g><g transform="matrix(1, 0, 0, 1, 631, 301)"><g clip-path="url(#06bea3e9b6)"><g fill="#201f1f" fill-opacity="1"><g transform="translate(0.801027, 19.632942)"><g><path d="M 9.0625 -1.109375 C 9.21875 -1.109375 9.347656 -1.050781 9.453125 -0.9375 C 9.566406 -0.832031 9.625 -0.703125 9.625 -0.546875 C 9.625 -0.390625 9.566406 -0.257812 9.453125 -0.15625 C 9.347656 -0.0507812 9.21875 0 9.0625 0 L 1.890625 0 C 1.722656 0 1.578125 -0.046875 1.453125 -0.140625 C 1.335938 -0.234375 1.28125 -0.378906 1.28125 -0.578125 C 1.28125 -0.710938 1.332031 -0.84375 1.4375 -0.96875 L 5.859375 -5.859375 C 6.554688 -6.617188 7.078125 -7.320312 7.421875 -7.96875 C 7.773438 -8.613281 7.953125 -9.191406 7.953125 -9.703125 C 7.953125 -10.535156 7.695312 -11.207031 7.1875 -11.71875 C 6.675781 -12.226562 5.988281 -12.484375 5.125 -12.484375 C 4.726562 -12.484375 4.332031 -12.398438 3.9375 -12.234375 C 3.550781 -12.066406 3.207031 -11.847656 2.90625 -11.578125 C 2.613281 -11.316406 2.382812 -11.015625 2.21875 -10.671875 C 2.144531 -10.546875 2.066406 -10.457031 1.984375 -10.40625 C 1.898438 -10.351562 1.804688 -10.328125 1.703125 -10.328125 C 1.546875 -10.328125 1.410156 -10.375 1.296875 -10.46875 C 1.179688 -10.5625 1.125 -10.679688 1.125 -10.828125 C 1.125 -10.910156 1.144531 -10.992188 1.1875 -11.078125 C 1.238281 -11.171875 1.304688 -11.28125 1.390625 -11.40625 C 1.617188 -11.789062 1.9375 -12.148438 2.34375 -12.484375 C 2.757812 -12.816406 3.21875 -13.082031 3.71875 -13.28125 C 4.21875 -13.476562 4.710938 -13.578125 5.203125 -13.578125 C 6.015625 -13.578125 6.71875 -13.421875 7.3125 -13.109375 C 7.90625 -12.796875 8.363281 -12.351562 8.6875 -11.78125 C 9.019531 -11.21875 9.1875 -10.546875 9.1875 -9.765625 C 9.1875 -9.109375 8.976562 -8.382812 8.5625 -7.59375 C 8.144531 -6.8125 7.53125 -5.96875 6.71875 -5.0625 L 2.984375 -0.875 L 2.796875 -1.109375 Z M 9.0625 -1.109375 "/></g></g></g><g fill="#201f1f" fill-opacity="1"><g transform="translate(11.394009, 19.632942)"><g><path d="M 5.6875 0.1875 C 4.664062 0.1875 3.804688 -0.113281 3.109375 -0.71875 C 2.421875 -1.332031 1.90625 -2.160156 1.5625 -3.203125 C 1.21875 -4.242188 1.046875 -5.40625 1.046875 -6.6875 C 1.046875 -7.988281 1.21875 -9.160156 1.5625 -10.203125 C 1.90625 -11.242188 2.421875 -12.066406 3.109375 -12.671875 C 3.804688 -13.273438 4.664062 -13.578125 5.6875 -13.578125 C 6.726562 -13.578125 7.585938 -13.273438 8.265625 -12.671875 C 8.953125 -12.066406 9.46875 -11.242188 9.8125 -10.203125 C 10.15625 -9.160156 10.328125 -7.988281 10.328125 -6.6875 C 10.328125 -5.40625 10.15625 -4.242188 9.8125 -3.203125 C 9.46875 -2.160156 8.953125 -1.332031 8.265625 -0.71875 C 7.585938 -0.113281 6.726562 0.1875 5.6875 0.1875 Z M 5.6875 -1 C 6.4375 -1 7.0625 -1.234375 7.5625 -1.703125 C 8.0625 -2.171875 8.441406 -2.832031 8.703125 -3.6875 C 8.972656 -4.550781 9.109375 -5.550781 9.109375 -6.6875 C 9.109375 -7.84375 8.972656 -8.847656 8.703125 -9.703125 C 8.441406 -10.566406 8.0625 -11.234375 7.5625 -11.703125 C 7.0625 -12.171875 6.4375 -12.40625 5.6875 -12.40625 C 4.945312 -12.40625 4.320312 -12.171875 3.8125 -11.703125 C 3.3125 -11.234375 2.929688 -10.566406 2.671875 -9.703125 C 2.410156 -8.847656 2.28125 -7.84375 2.28125 -6.6875 C 2.28125 -5.550781 2.410156 -4.550781 2.671875 -3.6875 C 2.929688 -2.832031 3.3125 -2.171875 3.8125 -1.703125 C 4.320312 -1.234375 4.945312 -1 5.6875 -1 Z M 5.6875 -1 "/></g></g></g></g></g><g transform="matrix(1, 0, 0, 1, 757, 301)"><g clip-path="url(#29b9e9287e)"><g fill="#201f1f" fill-opacity="1"><g transform="translate(0.620142, 19.632942)"><g><path d="M 9.0625 -1.109375 C 9.21875 -1.109375 9.347656 -1.050781 9.453125 -0.9375 C 9.566406 -0.832031 9.625 -0.703125 9.625 -0.546875 C 9.625 -0.390625 9.566406 -0.257812 9.453125 -0.15625 C 9.347656 -0.0507812 9.21875 0 9.0625 0 L 1.890625 0 C 1.722656 0 1.578125 -0.046875 1.453125 -0.140625 C 1.335938 -0.234375 1.28125 -0.378906 1.28125 -0.578125 C 1.28125 -0.710938 1.332031 -0.84375 1.4375 -0.96875 L 5.859375 -5.859375 C 6.554688 -6.617188 7.078125 -7.320312 7.421875 -7.96875 C 7.773438 -8.613281 7.953125 -9.191406 7.953125 -9.703125 C 7.953125 -10.535156 7.695312 -11.207031 7.1875 -11.71875 C 6.675781 -12.226562 5.988281 -12.484375 5.125 -12.484375 C 4.726562 -12.484375 4.332031 -12.398438 3.9375 -12.234375 C 3.550781 -12.066406 3.207031 -11.847656 2.90625 -11.578125 C 2.613281 -11.316406 2.382812 -11.015625 2.21875 -10.671875 C 2.144531 -10.546875 2.066406 -10.457031 1.984375 -10.40625 C 1.898438 -10.351562 1.804688 -10.328125 1.703125 -10.328125 C 1.546875 -10.328125 1.410156 -10.375 1.296875 -10.46875 C 1.179688 -10.5625 1.125 -10.679688 1.125 -10.828125 C 1.125 -10.910156 1.144531 -10.992188 1.1875 -11.078125 C 1.238281 -11.171875 1.304688 -11.28125 1.390625 -11.40625 C 1.617188 -11.789062 1.9375 -12.148438 2.34375 -12.484375 C 2.757812 -12.816406 3.21875 -13.082031 3.71875 -13.28125 C 4.21875 -13.476562 4.710938 -13.578125 5.203125 -13.578125 C 6.015625 -13.578125 6.71875 -13.421875 7.3125 -13.109375 C 7.90625 -12.796875 8.363281 -12.351562 8.6875 -11.78125 C 9.019531 -11.21875 9.1875 -10.546875 9.1875 -9.765625 C 9.1875 -9.109375 8.976562 -8.382812 8.5625 -7.59375 C 8.144531 -6.8125 7.53125 -5.96875 6.71875 -5.0625 L 2.984375 -0.875 L 2.796875 -1.109375 Z M 9.0625 -1.109375 "/></g></g></g><g fill="#201f1f" fill-opacity="1"><g transform="translate(11.213124, 19.632942)"><g><path d="M 4.328125 0 C 4.140625 0 3.988281 -0.0546875 3.875 -0.171875 C 3.757812 -0.285156 3.703125 -0.421875 3.703125 -0.578125 L 3.703125 -12.09375 L 3.921875 -11.890625 L 1.375 -10.1875 C 1.269531 -10.113281 1.160156 -10.078125 1.046875 -10.078125 C 0.898438 -10.078125 0.765625 -10.140625 0.640625 -10.265625 C 0.515625 -10.398438 0.453125 -10.539062 0.453125 -10.6875 C 0.453125 -10.894531 0.554688 -11.054688 0.765625 -11.171875 L 3.953125 -13.296875 C 4.035156 -13.347656 4.117188 -13.378906 4.203125 -13.390625 C 4.285156 -13.398438 4.359375 -13.398438 4.421875 -13.390625 C 4.585938 -13.378906 4.710938 -13.316406 4.796875 -13.203125 C 4.890625 -13.097656 4.9375 -12.96875 4.9375 -12.8125 L 4.9375 -0.578125 C 4.9375 -0.421875 4.878906 -0.285156 4.765625 -0.171875 C 4.648438 -0.0546875 4.503906 0 4.328125 0 Z M 4.328125 0 "/></g></g></g></g></g><g clip-path="url(#ae370309a3)"><g transform="matrix(1, 0, 0, 1, 2, 450)"><g clip-path="url(#8a70bbf9c2)"><g fill="#201f1f" fill-opacity="1"><g transform="translate(0.705657, 20.391792)"><g><path d="M 9.0625 -1.109375 C 9.21875 -1.109375 9.347656 -1.050781 9.453125 -0.9375 C 9.566406 -0.832031 9.625 -0.703125 9.625 -0.546875 C 9.625 -0.390625 9.566406 -0.257812 9.453125 -0.15625 C 9.347656 -0.0507812 9.21875 0 9.0625 0 L 1.890625 0 C 1.722656 0 1.578125 -0.046875 1.453125 -0.140625 C 1.335938 -0.234375 1.28125 -0.378906 1.28125 -0.578125 C 1.28125 -0.710938 1.332031 -0.84375 1.4375 -0.96875 L 5.859375 -5.859375 C 6.554688 -6.617188 7.078125 -7.320312 7.421875 -7.96875 C 7.773438 -8.613281 7.953125 -9.191406 7.953125 -9.703125 C 7.953125 -10.535156 7.695312 -11.207031 7.1875 -11.71875 C 6.675781 -12.226562 5.988281 -12.484375 5.125 -12.484375 C 4.726562 -12.484375 4.332031 -12.398438 3.9375 -12.234375 C 3.550781 -12.066406 3.207031 -11.847656 2.90625 -11.578125 C 2.613281 -11.316406 2.382812 -11.015625 2.21875 -10.671875 C 2.144531 -10.546875 2.066406 -10.457031 1.984375 -10.40625 C 1.898438 -10.351562 1.804688 -10.328125 1.703125 -10.328125 C 1.546875 -10.328125 1.410156 -10.375 1.296875 -10.46875 C 1.179688 -10.5625 1.125 -10.679688 1.125 -10.828125 C 1.125 -10.910156 1.144531 -10.992188 1.1875 -11.078125 C 1.238281 -11.171875 1.304688 -11.28125 1.390625 -11.40625 C 1.617188 -11.789062 1.9375 -12.148438 2.34375 -12.484375 C 2.757812 -12.816406 3.21875 -13.082031 3.71875 -13.28125 C 4.21875 -13.476562 4.710938 -13.578125 5.203125 -13.578125 C 6.015625 -13.578125 6.71875 -13.421875 7.3125 -13.109375 C 7.90625 -12.796875 8.363281 -12.351562 8.6875 -11.78125 C 9.019531 -11.21875 9.1875 -10.546875 9.1875 -9.765625 C 9.1875 -9.109375 8.976562 -8.382812 8.5625 -7.59375 C 8.144531 -6.8125 7.53125 -5.96875 6.71875 -5.0625 L 2.984375 -0.875 L 2.796875 -1.109375 Z M 9.0625 -1.109375 "/></g></g></g><g fill="#201f1f" fill-opacity="1"><g transform="translate(11.298639, 20.391792)"><g><path d="M 9.0625 -1.109375 C 9.21875 -1.109375 9.347656 -1.050781 9.453125 -0.9375 C 9.566406 -0.832031 9.625 -0.703125 9.625 -0.546875 C 9.625 -0.390625 9.566406 -0.257812 9.453125 -0.15625 C 9.347656 -0.0507812 9.21875 0 9.0625 0 L 1.890625 0 C 1.722656 0 1.578125 -0.046875 1.453125 -0.140625 C 1.335938 -0.234375 1.28125 -0.378906 1.28125 -0.578125 C 1.28125 -0.710938 1.332031 -0.84375 1.4375 -0.96875 L 5.859375 -5.859375 C 6.554688 -6.617188 7.078125 -7.320312 7.421875 -7.96875 C 7.773438 -8.613281 7.953125 -9.191406 7.953125 -9.703125 C 7.953125 -10.535156 7.695312 -11.207031 7.1875 -11.71875 C 6.675781 -12.226562 5.988281 -12.484375 5.125 -12.484375 C 4.726562 -12.484375 4.332031 -12.398438 3.9375 -12.234375 C 3.550781 -12.066406 3.207031 -11.847656 2.90625 -11.578125 C 2.613281 -11.316406 2.382812 -11.015625 2.21875 -10.671875 C 2.144531 -10.546875 2.066406 -10.457031 1.984375 -10.40625 C 1.898438 -10.351562 1.804688 -10.328125 1.703125 -10.328125 C 1.546875 -10.328125 1.410156 -10.375 1.296875 -10.46875 C 1.179688 -10.5625 1.125 -10.679688 1.125 -10.828125 C 1.125 -10.910156 1.144531 -10.992188 1.1875 -11.078125 C 1.238281 -11.171875 1.304688 -11.28125 1.390625 -11.40625 C 1.617188 -11.789062 1.9375 -12.148438 2.34375 -12.484375 C 2.757812 -12.816406 3.21875 -13.082031 3.71875 -13.28125 C 4.21875 -13.476562 4.710938 -13.578125 5.203125 -13.578125 C 6.015625 -13.578125 6.71875 -13.421875 7.3125 -13.109375 C 7.90625 -12.796875 8.363281 -12.351562 8.6875 -11.78125 C 9.019531 -11.21875 9.1875 -10.546875 9.1875 -9.765625 C 9.1875 -9.109375 8.976562 -8.382812 8.5625 -7.59375 C 8.144531 -6.8125 7.53125 -5.96875 6.71875 -5.0625 L 2.984375 -0.875 L 2.796875 -1.109375 Z M 9.0625 -1.109375 "/></g></g></g></g></g></g><g clip-path="url(#f4c568a4b1)"><g transform="matrix(1, 0, 0, 1, 128, 450)"><g clip-path="url(#d0f08c244b)"><g fill="#201f1f" fill-opacity="1"><g transform="translate(0.524728, 20.391792)"><g><path d="M 9.0625 -1.109375 C 9.21875 -1.109375 9.347656 -1.050781 9.453125 -0.9375 C 9.566406 -0.832031 9.625 -0.703125 9.625 -0.546875 C 9.625 -0.390625 9.566406 -0.257812 9.453125 -0.15625 C 9.347656 -0.0507812 9.21875 0 9.0625 0 L 1.890625 0 C 1.722656 0 1.578125 -0.046875 1.453125 -0.140625 C 1.335938 -0.234375 1.28125 -0.378906 1.28125 -0.578125 C 1.28125 -0.710938 1.332031 -0.84375 1.4375 -0.96875 L 5.859375 -5.859375 C 6.554688 -6.617188 7.078125 -7.320312 7.421875 -7.96875 C 7.773438 -8.613281 7.953125 -9.191406 7.953125 -9.703125 C 7.953125 -10.535156 7.695312 -11.207031 7.1875 -11.71875 C 6.675781 -12.226562 5.988281 -12.484375 5.125 -12.484375 C 4.726562 -12.484375 4.332031 -12.398438 3.9375 -12.234375 C 3.550781 -12.066406 3.207031 -11.847656 2.90625 -11.578125 C 2.613281 -11.316406 2.382812 -11.015625 2.21875 -10.671875 C 2.144531 -10.546875 2.066406 -10.457031 1.984375 -10.40625 C 1.898438 -10.351562 1.804688 -10.328125 1.703125 -10.328125 C 1.546875 -10.328125 1.410156 -10.375 1.296875 -10.46875 C 1.179688 -10.5625 1.125 -10.679688 1.125 -10.828125 C 1.125 -10.910156 1.144531 -10.992188 1.1875 -11.078125 C 1.238281 -11.171875 1.304688 -11.28125 1.390625 -11.40625 C 1.617188 -11.789062 1.9375 -12.148438 2.34375 -12.484375 C 2.757812 -12.816406 3.21875 -13.082031 3.71875 -13.28125 C 4.21875 -13.476562 4.710938 -13.578125 5.203125 -13.578125 C 6.015625 -13.578125 6.71875 -13.421875 7.3125 -13.109375 C 7.90625 -12.796875 8.363281 -12.351562 8.6875 -11.78125 C 9.019531 -11.21875 9.1875 -10.546875 9.1875 -9.765625 C 9.1875 -9.109375 8.976562 -8.382812 8.5625 -7.59375 C 8.144531 -6.8125 7.53125 -5.96875 6.71875 -5.0625 L 2.984375 -0.875 L 2.796875 -1.109375 Z M 9.0625 -1.109375 "/></g></g></g><g fill="#201f1f" fill-opacity="1"><g transform="translate(11.11771, 20.391792)"><g><path d="M 1.703125 -1.96875 C 1.765625 -1.96875 1.832031 -1.953125 1.90625 -1.921875 C 1.976562 -1.898438 2.0625 -1.847656 2.15625 -1.765625 C 2.425781 -1.484375 2.742188 -1.269531 3.109375 -1.125 C 3.484375 -0.976562 3.90625 -0.90625 4.375 -0.90625 C 5 -0.90625 5.566406 -1.039062 6.078125 -1.3125 C 6.597656 -1.59375 7.007812 -1.984375 7.3125 -2.484375 C 7.625 -2.992188 7.78125 -3.578125 7.78125 -4.234375 C 7.78125 -4.960938 7.617188 -5.550781 7.296875 -6 C 6.972656 -6.457031 6.554688 -6.796875 6.046875 -7.015625 C 5.546875 -7.242188 5.035156 -7.359375 4.515625 -7.359375 C 4.367188 -7.359375 4.226562 -7.347656 4.09375 -7.328125 C 3.96875 -7.316406 3.847656 -7.296875 3.734375 -7.265625 C 3.617188 -7.242188 3.53125 -7.234375 3.46875 -7.234375 C 3.300781 -7.234375 3.171875 -7.285156 3.078125 -7.390625 C 2.984375 -7.492188 2.9375 -7.628906 2.9375 -7.796875 C 2.9375 -7.890625 2.957031 -7.96875 3 -8.03125 C 3.039062 -8.101562 3.09375 -8.1875 3.15625 -8.28125 L 7.03125 -12.5 L 7.265625 -12.203125 L 1.46875 -12.203125 C 1.320312 -12.203125 1.191406 -12.253906 1.078125 -12.359375 C 0.972656 -12.472656 0.921875 -12.601562 0.921875 -12.75 C 0.921875 -12.90625 0.972656 -13.035156 1.078125 -13.140625 C 1.191406 -13.242188 1.320312 -13.296875 1.46875 -13.296875 L 7.90625 -13.296875 C 8.113281 -13.296875 8.257812 -13.226562 8.34375 -13.09375 C 8.4375 -12.957031 8.484375 -12.828125 8.484375 -12.703125 C 8.484375 -12.617188 8.460938 -12.539062 8.421875 -12.46875 C 8.390625 -12.40625 8.34375 -12.335938 8.28125 -12.265625 L 4.40625 -8.03125 L 3.984375 -8.28125 C 4.015625 -8.320312 4.140625 -8.363281 4.359375 -8.40625 C 4.585938 -8.445312 4.765625 -8.46875 4.890625 -8.46875 C 5.597656 -8.46875 6.257812 -8.300781 6.875 -7.96875 C 7.488281 -7.644531 7.988281 -7.171875 8.375 -6.546875 C 8.769531 -5.929688 8.96875 -5.171875 8.96875 -4.265625 C 8.96875 -3.367188 8.753906 -2.585938 8.328125 -1.921875 C 7.910156 -1.253906 7.34375 -0.734375 6.625 -0.359375 C 5.914062 0.00390625 5.128906 0.1875 4.265625 0.1875 C 3.742188 0.1875 3.226562 0.0976562 2.71875 -0.078125 C 2.207031 -0.253906 1.757812 -0.519531 1.375 -0.875 C 1.289062 -0.957031 1.226562 -1.035156 1.1875 -1.109375 C 1.144531 -1.179688 1.125 -1.257812 1.125 -1.34375 C 1.125 -1.488281 1.175781 -1.628906 1.28125 -1.765625 C 1.394531 -1.898438 1.535156 -1.96875 1.703125 -1.96875 Z M 1.703125 -1.96875 "/></g></g></g></g></g></g><g clip-path="url(#c8dc67355c)"><g transform="matrix(1, 0, 0, 1, 254, 450)"><g clip-path="url(#ee20bffad4)"><g fill="#201f1f" fill-opacity="1"><g transform="translate(0.343799, 20.391792)"><g><path d="M 9.0625 -1.109375 C 9.21875 -1.109375 9.347656 -1.050781 9.453125 -0.9375 C 9.566406 -0.832031 9.625 -0.703125 9.625 -0.546875 C 9.625 -0.390625 9.566406 -0.257812 9.453125 -0.15625 C 9.347656 -0.0507812 9.21875 0 9.0625 0 L 1.890625 0 C 1.722656 0 1.578125 -0.046875 1.453125 -0.140625 C 1.335938 -0.234375 1.28125 -0.378906 1.28125 -0.578125 C 1.28125 -0.710938 1.332031 -0.84375 1.4375 -0.96875 L 5.859375 -5.859375 C 6.554688 -6.617188 7.078125 -7.320312 7.421875 -7.96875 C 7.773438 -8.613281 7.953125 -9.191406 7.953125 -9.703125 C 7.953125 -10.535156 7.695312 -11.207031 7.1875 -11.71875 C 6.675781 -12.226562 5.988281 -12.484375 5.125 -12.484375 C 4.726562 -12.484375 4.332031 -12.398438 3.9375 -12.234375 C 3.550781 -12.066406 3.207031 -11.847656 2.90625 -11.578125 C 2.613281 -11.316406 2.382812 -11.015625 2.21875 -10.671875 C 2.144531 -10.546875 2.066406 -10.457031 1.984375 -10.40625 C 1.898438 -10.351562 1.804688 -10.328125 1.703125 -10.328125 C 1.546875 -10.328125 1.410156 -10.375 1.296875 -10.46875 C 1.179688 -10.5625 1.125 -10.679688 1.125 -10.828125 C 1.125 -10.910156 1.144531 -10.992188 1.1875 -11.078125 C 1.238281 -11.171875 1.304688 -11.28125 1.390625 -11.40625 C 1.617188 -11.789062 1.9375 -12.148438 2.34375 -12.484375 C 2.757812 -12.816406 3.21875 -13.082031 3.71875 -13.28125 C 4.21875 -13.476562 4.710938 -13.578125 5.203125 -13.578125 C 6.015625 -13.578125 6.71875 -13.421875 7.3125 -13.109375 C 7.90625 -12.796875 8.363281 -12.351562 8.6875 -11.78125 C 9.019531 -11.21875 9.1875 -10.546875 9.1875 -9.765625 C 9.1875 -9.109375 8.976562 -8.382812 8.5625 -7.59375 C 8.144531 -6.8125 7.53125 -5.96875 6.71875 -5.0625 L 2.984375 -0.875 L 2.796875 -1.109375 Z M 9.0625 -1.109375 "/></g></g></g><g fill="#201f1f" fill-opacity="1"><g transform="translate(10.936781, 20.391792)"><g><path d="M 7.015625 0 C 6.847656 0 6.710938 -0.0546875 6.609375 -0.171875 C 6.515625 -0.285156 6.46875 -0.421875 6.46875 -0.578125 L 6.46875 -11.796875 L 6.71875 -11.640625 L 1.6875 -4.984375 L 1.625 -5.203125 L 8.96875 -5.203125 C 9.125 -5.203125 9.253906 -5.148438 9.359375 -5.046875 C 9.472656 -4.941406 9.53125 -4.816406 9.53125 -4.671875 C 9.53125 -4.515625 9.472656 -4.382812 9.359375 -4.28125 C 9.253906 -4.175781 9.125 -4.125 8.96875 -4.125 L 0.84375 -4.125 C 0.6875 -4.125 0.550781 -4.1875 0.4375 -4.3125 C 0.320312 -4.4375 0.265625 -4.570312 0.265625 -4.71875 C 0.265625 -4.863281 0.3125 -4.992188 0.40625 -5.109375 L 6.5625 -13.15625 C 6.625 -13.25 6.703125 -13.3125 6.796875 -13.34375 C 6.890625 -13.375 6.96875 -13.390625 7.03125 -13.390625 C 7.195312 -13.390625 7.332031 -13.332031 7.4375 -13.21875 C 7.550781 -13.101562 7.609375 -12.96875 7.609375 -12.8125 L 7.609375 -0.578125 C 7.609375 -0.421875 7.550781 -0.285156 7.4375 -0.171875 C 7.320312 -0.0546875 7.179688 0 7.015625 0 Z M 7.015625 0 "/></g></g></g></g></g></g><g clip-path="url(#5c837f5926)"><g transform="matrix(1, 0, 0, 1, 380, 450)"><g clip-path="url(#9bb395453a)"><g fill="#201f1f" fill-opacity="1"><g transform="translate(0.162885, 20.391792)"><g><path d="M 9.0625 -1.109375 C 9.21875 -1.109375 9.347656 -1.050781 9.453125 -0.9375 C 9.566406 -0.832031 9.625 -0.703125 9.625 -0.546875 C 9.625 -0.390625 9.566406 -0.257812 9.453125 -0.15625 C 9.347656 -0.0507812 9.21875 0 9.0625 0 L 1.890625 0 C 1.722656 0 1.578125 -0.046875 1.453125 -0.140625 C 1.335938 -0.234375 1.28125 -0.378906 1.28125 -0.578125 C 1.28125 -0.710938 1.332031 -0.84375 1.4375 -0.96875 L 5.859375 -5.859375 C 6.554688 -6.617188 7.078125 -7.320312 7.421875 -7.96875 C 7.773438 -8.613281 7.953125 -9.191406 7.953125 -9.703125 C 7.953125 -10.535156 7.695312 -11.207031 7.1875 -11.71875 C 6.675781 -12.226562 5.988281 -12.484375 5.125 -12.484375 C 4.726562 -12.484375 4.332031 -12.398438 3.9375 -12.234375 C 3.550781 -12.066406 3.207031 -11.847656 2.90625 -11.578125 C 2.613281 -11.316406 2.382812 -11.015625 2.21875 -10.671875 C 2.144531 -10.546875 2.066406 -10.457031 1.984375 -10.40625 C 1.898438 -10.351562 1.804688 -10.328125 1.703125 -10.328125 C 1.546875 -10.328125 1.410156 -10.375 1.296875 -10.46875 C 1.179688 -10.5625 1.125 -10.679688 1.125 -10.828125 C 1.125 -10.910156 1.144531 -10.992188 1.1875 -11.078125 C 1.238281 -11.171875 1.304688 -11.28125 1.390625 -11.40625 C 1.617188 -11.789062 1.9375 -12.148438 2.34375 -12.484375 C 2.757812 -12.816406 3.21875 -13.082031 3.71875 -13.28125 C 4.21875 -13.476562 4.710938 -13.578125 5.203125 -13.578125 C 6.015625 -13.578125 6.71875 -13.421875 7.3125 -13.109375 C 7.90625 -12.796875 8.363281 -12.351562 8.6875 -11.78125 C 9.019531 -11.21875 9.1875 -10.546875 9.1875 -9.765625 C 9.1875 -9.109375 8.976562 -8.382812 8.5625 -7.59375 C 8.144531 -6.8125 7.53125 -5.96875 6.71875 -5.0625 L 2.984375 -0.875 L 2.796875 -1.109375 Z M 9.0625 -1.109375 "/></g></g></g><g fill="#201f1f" fill-opacity="1"><g transform="translate(10.755867, 20.391792)"><g><path d="M 4.46875 0.03125 C 3.945312 0.03125 3.421875 -0.0507812 2.890625 -0.21875 C 2.367188 -0.394531 1.898438 -0.65625 1.484375 -1 C 1.410156 -1.0625 1.351562 -1.132812 1.3125 -1.21875 C 1.269531 -1.3125 1.25 -1.398438 1.25 -1.484375 C 1.25 -1.617188 1.296875 -1.742188 1.390625 -1.859375 C 1.492188 -1.984375 1.628906 -2.046875 1.796875 -2.046875 C 1.941406 -2.046875 2.082031 -1.988281 2.21875 -1.875 C 2.550781 -1.613281 2.910156 -1.414062 3.296875 -1.28125 C 3.679688 -1.144531 4.070312 -1.078125 4.46875 -1.078125 C 5.226562 -1.078125 5.882812 -1.21875 6.4375 -1.5 C 7 -1.789062 7.429688 -2.195312 7.734375 -2.71875 C 8.046875 -3.25 8.203125 -3.867188 8.203125 -4.578125 C 8.203125 -5.222656 8.0625 -5.785156 7.78125 -6.265625 C 7.5 -6.742188 7.097656 -7.117188 6.578125 -7.390625 C 6.066406 -7.660156 5.460938 -7.796875 4.765625 -7.796875 C 4.304688 -7.796875 3.882812 -7.722656 3.5 -7.578125 C 3.125 -7.441406 2.800781 -7.300781 2.53125 -7.15625 C 2.257812 -7.007812 2.039062 -6.9375 1.875 -6.9375 C 1.71875 -6.9375 1.59375 -6.972656 1.5 -7.046875 C 1.40625 -7.128906 1.34375 -7.226562 1.3125 -7.34375 C 1.28125 -7.457031 1.273438 -7.578125 1.296875 -7.703125 L 2.125 -12.8125 C 2.132812 -12.925781 2.191406 -13.03125 2.296875 -13.125 C 2.410156 -13.21875 2.550781 -13.265625 2.71875 -13.265625 L 8.46875 -13.265625 C 8.625 -13.265625 8.753906 -13.210938 8.859375 -13.109375 C 8.972656 -13.003906 9.03125 -12.875 9.03125 -12.71875 C 9.03125 -12.550781 8.972656 -12.410156 8.859375 -12.296875 C 8.753906 -12.191406 8.625 -12.140625 8.46875 -12.140625 L 2.984375 -12.140625 L 3.15625 -12.3125 L 2.375 -7.78125 L 2.03125 -8.03125 C 2.195312 -8.15625 2.4375 -8.28125 2.75 -8.40625 C 3.0625 -8.539062 3.410156 -8.65625 3.796875 -8.75 C 4.179688 -8.84375 4.59375 -8.890625 5.03125 -8.890625 C 5.851562 -8.890625 6.585938 -8.707031 7.234375 -8.34375 C 7.890625 -7.976562 8.40625 -7.472656 8.78125 -6.828125 C 9.164062 -6.191406 9.359375 -5.453125 9.359375 -4.609375 C 9.359375 -3.679688 9.15625 -2.867188 8.75 -2.171875 C 8.34375 -1.472656 7.773438 -0.929688 7.046875 -0.546875 C 6.328125 -0.160156 5.46875 0.03125 4.46875 0.03125 Z M 4.46875 0.03125 "/></g></g></g></g></g></g><g clip-path="url(#bc33c80fbc)"><g transform="matrix(1, 0, 0, 1, 505, 450)"><g clip-path="url(#7f569fbe00)"><g fill="#201f1f" fill-opacity="1"><g transform="translate(0.981971, 20.391792)"><g><path d="M 9.0625 -1.109375 C 9.21875 -1.109375 9.347656 -1.050781 9.453125 -0.9375 C 9.566406 -0.832031 9.625 -0.703125 9.625 -0.546875 C 9.625 -0.390625 9.566406 -0.257812 9.453125 -0.15625 C 9.347656 -0.0507812 9.21875 0 9.0625 0 L 1.890625 0 C 1.722656 0 1.578125 -0.046875 1.453125 -0.140625 C 1.335938 -0.234375 1.28125 -0.378906 1.28125 -0.578125 C 1.28125 -0.710938 1.332031 -0.84375 1.4375 -0.96875 L 5.859375 -5.859375 C 6.554688 -6.617188 7.078125 -7.320312 7.421875 -7.96875 C 7.773438 -8.613281 7.953125 -9.191406 7.953125 -9.703125 C 7.953125 -10.535156 7.695312 -11.207031 7.1875 -11.71875 C 6.675781 -12.226562 5.988281 -12.484375 5.125 -12.484375 C 4.726562 -12.484375 4.332031 -12.398438 3.9375 -12.234375 C 3.550781 -12.066406 3.207031 -11.847656 2.90625 -11.578125 C 2.613281 -11.316406 2.382812 -11.015625 2.21875 -10.671875 C 2.144531 -10.546875 2.066406 -10.457031 1.984375 -10.40625 C 1.898438 -10.351562 1.804688 -10.328125 1.703125 -10.328125 C 1.546875 -10.328125 1.410156 -10.375 1.296875 -10.46875 C 1.179688 -10.5625 1.125 -10.679688 1.125 -10.828125 C 1.125 -10.910156 1.144531 -10.992188 1.1875 -11.078125 C 1.238281 -11.171875 1.304688 -11.28125 1.390625 -11.40625 C 1.617188 -11.789062 1.9375 -12.148438 2.34375 -12.484375 C 2.757812 -12.816406 3.21875 -13.082031 3.71875 -13.28125 C 4.21875 -13.476562 4.710938 -13.578125 5.203125 -13.578125 C 6.015625 -13.578125 6.71875 -13.421875 7.3125 -13.109375 C 7.90625 -12.796875 8.363281 -12.351562 8.6875 -11.78125 C 9.019531 -11.21875 9.1875 -10.546875 9.1875 -9.765625 C 9.1875 -9.109375 8.976562 -8.382812 8.5625 -7.59375 C 8.144531 -6.8125 7.53125 -5.96875 6.71875 -5.0625 L 2.984375 -0.875 L 2.796875 -1.109375 Z M 9.0625 -1.109375 "/></g></g></g><g fill="#201f1f" fill-opacity="1"><g transform="translate(11.574952, 20.391792)"><g><path d="M 5.484375 0.1875 C 4.742188 0.1875 4.097656 0.0546875 3.546875 -0.203125 C 2.992188 -0.472656 2.535156 -0.832031 2.171875 -1.28125 C 1.804688 -1.738281 1.535156 -2.253906 1.359375 -2.828125 C 1.191406 -3.398438 1.109375 -3.988281 1.109375 -4.59375 C 1.109375 -5.207031 1.179688 -5.863281 1.328125 -6.5625 C 1.484375 -7.269531 1.722656 -7.988281 2.046875 -8.71875 C 2.367188 -9.445312 2.757812 -10.132812 3.21875 -10.78125 C 3.6875 -11.4375 4.226562 -12.019531 4.84375 -12.53125 C 5.46875 -13.050781 6.164062 -13.457031 6.9375 -13.75 C 7.03125 -13.78125 7.109375 -13.796875 7.171875 -13.796875 C 7.335938 -13.796875 7.476562 -13.75 7.59375 -13.65625 C 7.71875 -13.5625 7.78125 -13.410156 7.78125 -13.203125 C 7.78125 -13.066406 7.738281 -12.953125 7.65625 -12.859375 C 7.570312 -12.765625 7.460938 -12.691406 7.328125 -12.640625 C 6.785156 -12.410156 6.253906 -12.082031 5.734375 -11.65625 C 5.210938 -11.238281 4.726562 -10.753906 4.28125 -10.203125 C 3.832031 -9.660156 3.453125 -9.070312 3.140625 -8.4375 C 2.828125 -7.8125 2.609375 -7.171875 2.484375 -6.515625 L 2.0625 -6.265625 C 2.289062 -6.691406 2.585938 -7.066406 2.953125 -7.390625 C 3.316406 -7.710938 3.734375 -7.972656 4.203125 -8.171875 C 4.679688 -8.367188 5.191406 -8.46875 5.734375 -8.46875 C 6.304688 -8.46875 6.832031 -8.347656 7.3125 -8.109375 C 7.800781 -7.867188 8.222656 -7.539062 8.578125 -7.125 C 8.929688 -6.707031 9.207031 -6.238281 9.40625 -5.71875 C 9.601562 -5.195312 9.703125 -4.65625 9.703125 -4.09375 C 9.703125 -3.34375 9.519531 -2.640625 9.15625 -1.984375 C 8.789062 -1.335938 8.289062 -0.8125 7.65625 -0.40625 C 7.03125 -0.0078125 6.304688 0.1875 5.484375 0.1875 Z M 5.46875 -0.921875 C 6.050781 -0.921875 6.570312 -1.050781 7.03125 -1.3125 C 7.488281 -1.582031 7.847656 -1.957031 8.109375 -2.4375 C 8.378906 -2.914062 8.515625 -3.46875 8.515625 -4.09375 C 8.515625 -4.664062 8.398438 -5.195312 8.171875 -5.6875 C 7.953125 -6.175781 7.617188 -6.578125 7.171875 -6.890625 C 6.734375 -7.203125 6.191406 -7.359375 5.546875 -7.359375 C 4.867188 -7.359375 4.285156 -7.203125 3.796875 -6.890625 C 3.304688 -6.585938 2.929688 -6.1875 2.671875 -5.6875 C 2.410156 -5.1875 2.28125 -4.632812 2.28125 -4.03125 C 2.28125 -3.5 2.40625 -2.992188 2.65625 -2.515625 C 2.914062 -2.035156 3.28125 -1.648438 3.75 -1.359375 C 4.226562 -1.066406 4.800781 -0.921875 5.46875 -0.921875 Z M 5.46875 -0.921875 "/></g></g></g></g></g></g><g clip-path="url(#961e844e09)"><g transform="matrix(1, 0, 0, 1, 631, 450)"><g clip-path="url(#6472ebd05f)"><g fill="#201f1f" fill-opacity="1"><g transform="translate(0.801027, 20.391792)"><g><path d="M 9.0625 -1.109375 C 9.21875 -1.109375 9.347656 -1.050781 9.453125 -0.9375 C 9.566406 -0.832031 9.625 -0.703125 9.625 -0.546875 C 9.625 -0.390625 9.566406 -0.257812 9.453125 -0.15625 C 9.347656 -0.0507812 9.21875 0 9.0625 0 L 1.890625 0 C 1.722656 0 1.578125 -0.046875 1.453125 -0.140625 C 1.335938 -0.234375 1.28125 -0.378906 1.28125 -0.578125 C 1.28125 -0.710938 1.332031 -0.84375 1.4375 -0.96875 L 5.859375 -5.859375 C 6.554688 -6.617188 7.078125 -7.320312 7.421875 -7.96875 C 7.773438 -8.613281 7.953125 -9.191406 7.953125 -9.703125 C 7.953125 -10.535156 7.695312 -11.207031 7.1875 -11.71875 C 6.675781 -12.226562 5.988281 -12.484375 5.125 -12.484375 C 4.726562 -12.484375 4.332031 -12.398438 3.9375 -12.234375 C 3.550781 -12.066406 3.207031 -11.847656 2.90625 -11.578125 C 2.613281 -11.316406 2.382812 -11.015625 2.21875 -10.671875 C 2.144531 -10.546875 2.066406 -10.457031 1.984375 -10.40625 C 1.898438 -10.351562 1.804688 -10.328125 1.703125 -10.328125 C 1.546875 -10.328125 1.410156 -10.375 1.296875 -10.46875 C 1.179688 -10.5625 1.125 -10.679688 1.125 -10.828125 C 1.125 -10.910156 1.144531 -10.992188 1.1875 -11.078125 C 1.238281 -11.171875 1.304688 -11.28125 1.390625 -11.40625 C 1.617188 -11.789062 1.9375 -12.148438 2.34375 -12.484375 C 2.757812 -12.816406 3.21875 -13.082031 3.71875 -13.28125 C 4.21875 -13.476562 4.710938 -13.578125 5.203125 -13.578125 C 6.015625 -13.578125 6.71875 -13.421875 7.3125 -13.109375 C 7.90625 -12.796875 8.363281 -12.351562 8.6875 -11.78125 C 9.019531 -11.21875 9.1875 -10.546875 9.1875 -9.765625 C 9.1875 -9.109375 8.976562 -8.382812 8.5625 -7.59375 C 8.144531 -6.8125 7.53125 -5.96875 6.71875 -5.0625 L 2.984375 -0.875 L 2.796875 -1.109375 Z M 9.0625 -1.109375 "/></g></g></g><g fill="#201f1f" fill-opacity="1"><g transform="translate(11.394009, 20.391792)"><g><path d="M 3.40625 0.0625 C 3.25 0.0625 3.109375 0.0078125 2.984375 -0.09375 C 2.859375 -0.195312 2.796875 -0.328125 2.796875 -0.484375 C 2.796875 -0.566406 2.8125 -0.660156 2.84375 -0.765625 L 7.9375 -12.453125 L 8.140625 -12.1875 L 1.6875 -12.1875 C 1.53125 -12.1875 1.394531 -12.238281 1.28125 -12.34375 C 1.175781 -12.445312 1.125 -12.578125 1.125 -12.734375 C 1.125 -12.898438 1.175781 -13.035156 1.28125 -13.140625 C 1.394531 -13.242188 1.53125 -13.296875 1.6875 -13.296875 L 8.703125 -13.296875 C 8.890625 -13.296875 9.023438 -13.242188 9.109375 -13.140625 C 9.203125 -13.035156 9.25 -12.90625 9.25 -12.75 C 9.25 -12.65625 9.234375 -12.5625 9.203125 -12.46875 L 3.9375 -0.328125 C 3.894531 -0.210938 3.820312 -0.117188 3.71875 -0.046875 C 3.625 0.0234375 3.519531 0.0625 3.40625 0.0625 Z M 3.40625 0.0625 "/></g></g></g></g></g></g><g clip-path="url(#46ae456910)"><g transform="matrix(1, 0, 0, 1, 757, 450)"><g clip-path="url(#545dd495a2)"><g fill="#201f1f" fill-opacity="1"><g transform="translate(0.620142, 20.391792)"><g><path d="M 9.0625 -1.109375 C 9.21875 -1.109375 9.347656 -1.050781 9.453125 -0.9375 C 9.566406 -0.832031 9.625 -0.703125 9.625 -0.546875 C 9.625 -0.390625 9.566406 -0.257812 9.453125 -0.15625 C 9.347656 -0.0507812 9.21875 0 9.0625 0 L 1.890625 0 C 1.722656 0 1.578125 -0.046875 1.453125 -0.140625 C 1.335938 -0.234375 1.28125 -0.378906 1.28125 -0.578125 C 1.28125 -0.710938 1.332031 -0.84375 1.4375 -0.96875 L 5.859375 -5.859375 C 6.554688 -6.617188 7.078125 -7.320312 7.421875 -7.96875 C 7.773438 -8.613281 7.953125 -9.191406 7.953125 -9.703125 C 7.953125 -10.535156 7.695312 -11.207031 7.1875 -11.71875 C 6.675781 -12.226562 5.988281 -12.484375 5.125 -12.484375 C 4.726562 -12.484375 4.332031 -12.398438 3.9375 -12.234375 C 3.550781 -12.066406 3.207031 -11.847656 2.90625 -11.578125 C 2.613281 -11.316406 2.382812 -11.015625 2.21875 -10.671875 C 2.144531 -10.546875 2.066406 -10.457031 1.984375 -10.40625 C 1.898438 -10.351562 1.804688 -10.328125 1.703125 -10.328125 C 1.546875 -10.328125 1.410156 -10.375 1.296875 -10.46875 C 1.179688 -10.5625 1.125 -10.679688 1.125 -10.828125 C 1.125 -10.910156 1.144531 -10.992188 1.1875 -11.078125 C 1.238281 -11.171875 1.304688 -11.28125 1.390625 -11.40625 C 1.617188 -11.789062 1.9375 -12.148438 2.34375 -12.484375 C 2.757812 -12.816406 3.21875 -13.082031 3.71875 -13.28125 C 4.21875 -13.476562 4.710938 -13.578125 5.203125 -13.578125 C 6.015625 -13.578125 6.71875 -13.421875 7.3125 -13.109375 C 7.90625 -12.796875 8.363281 -12.351562 8.6875 -11.78125 C 9.019531 -11.21875 9.1875 -10.546875 9.1875 -9.765625 C 9.1875 -9.109375 8.976562 -8.382812 8.5625 -7.59375 C 8.144531 -6.8125 7.53125 -5.96875 6.71875 -5.0625 L 2.984375 -0.875 L 2.796875 -1.109375 Z M 9.0625 -1.109375 "/></g></g></g><g fill="#201f1f" fill-opacity="1"><g transform="translate(11.213124, 20.391792)"><g><path d="M 6.96875 -6.734375 L 6.90625 -6.90625 C 7.332031 -6.738281 7.722656 -6.492188 8.078125 -6.171875 C 8.441406 -5.847656 8.734375 -5.460938 8.953125 -5.015625 C 9.171875 -4.578125 9.28125 -4.097656 9.28125 -3.578125 C 9.28125 -2.890625 9.097656 -2.265625 8.734375 -1.703125 C 8.367188 -1.140625 7.875 -0.691406 7.25 -0.359375 C 6.625 -0.0234375 5.925781 0.140625 5.15625 0.140625 C 4.382812 0.140625 3.6875 -0.0234375 3.0625 -0.359375 C 2.445312 -0.691406 1.957031 -1.140625 1.59375 -1.703125 C 1.226562 -2.265625 1.046875 -2.890625 1.046875 -3.578125 C 1.046875 -4.140625 1.15625 -4.640625 1.375 -5.078125 C 1.601562 -5.515625 1.898438 -5.882812 2.265625 -6.1875 C 2.628906 -6.5 3.007812 -6.738281 3.40625 -6.90625 L 3.34375 -6.71875 C 3 -6.882812 2.675781 -7.109375 2.375 -7.390625 C 2.082031 -7.679688 1.835938 -8.023438 1.640625 -8.421875 C 1.453125 -8.828125 1.359375 -9.269531 1.359375 -9.75 C 1.359375 -10.4375 1.523438 -11.054688 1.859375 -11.609375 C 2.203125 -12.160156 2.660156 -12.59375 3.234375 -12.90625 C 3.816406 -13.226562 4.457031 -13.390625 5.15625 -13.390625 C 5.863281 -13.390625 6.5 -13.226562 7.0625 -12.90625 C 7.632812 -12.59375 8.085938 -12.160156 8.421875 -11.609375 C 8.765625 -11.054688 8.9375 -10.4375 8.9375 -9.75 C 8.9375 -9.257812 8.835938 -8.816406 8.640625 -8.421875 C 8.453125 -8.023438 8.203125 -7.679688 7.890625 -7.390625 C 7.585938 -7.109375 7.28125 -6.890625 6.96875 -6.734375 Z M 2.546875 -9.75 C 2.546875 -9.238281 2.664062 -8.789062 2.90625 -8.40625 C 3.144531 -8.03125 3.460938 -7.734375 3.859375 -7.515625 C 4.253906 -7.296875 4.6875 -7.1875 5.15625 -7.1875 C 5.625 -7.1875 6.050781 -7.296875 6.4375 -7.515625 C 6.832031 -7.734375 7.148438 -8.03125 7.390625 -8.40625 C 7.628906 -8.789062 7.75 -9.238281 7.75 -9.75 C 7.75 -10.5 7.503906 -11.109375 7.015625 -11.578125 C 6.535156 -12.054688 5.914062 -12.296875 5.15625 -12.296875 C 4.382812 -12.296875 3.753906 -12.054688 3.265625 -11.578125 C 2.785156 -11.109375 2.546875 -10.5 2.546875 -9.75 Z M 5.15625 -0.953125 C 6.03125 -0.953125 6.738281 -1.203125 7.28125 -1.703125 C 7.820312 -2.203125 8.09375 -2.828125 8.09375 -3.578125 C 8.09375 -4.085938 7.957031 -4.546875 7.6875 -4.953125 C 7.414062 -5.359375 7.054688 -5.675781 6.609375 -5.90625 C 6.171875 -6.132812 5.6875 -6.25 5.15625 -6.25 C 4.632812 -6.25 4.148438 -6.132812 3.703125 -5.90625 C 3.265625 -5.675781 2.910156 -5.359375 2.640625 -4.953125 C 2.367188 -4.546875 2.234375 -4.085938 2.234375 -3.578125 C 2.234375 -2.828125 2.5 -2.203125 3.03125 -1.703125 C 3.570312 -1.203125 4.28125 -0.953125 5.15625 -0.953125 Z M 5.15625 -0.953125 "/></g></g></g></g></g></g><g clip-path="url(#02dc73f21d)"><g transform="matrix(1, 0, 0, 1, 2, 600)"><g clip-path="url(#fc263e492b)"><g fill="#201f1f" fill-opacity="1"><g transform="translate(0.705657, 20.150671)"><g><path d="M 9.0625 -1.109375 C 9.21875 -1.109375 9.347656 -1.050781 9.453125 -0.9375 C 9.566406 -0.832031 9.625 -0.703125 9.625 -0.546875 C 9.625 -0.390625 9.566406 -0.257812 9.453125 -0.15625 C 9.347656 -0.0507812 9.21875 0 9.0625 0 L 1.890625 0 C 1.722656 0 1.578125 -0.046875 1.453125 -0.140625 C 1.335938 -0.234375 1.28125 -0.378906 1.28125 -0.578125 C 1.28125 -0.710938 1.332031 -0.84375 1.4375 -0.96875 L 5.859375 -5.859375 C 6.554688 -6.617188 7.078125 -7.320312 7.421875 -7.96875 C 7.773438 -8.613281 7.953125 -9.191406 7.953125 -9.703125 C 7.953125 -10.535156 7.695312 -11.207031 7.1875 -11.71875 C 6.675781 -12.226562 5.988281 -12.484375 5.125 -12.484375 C 4.726562 -12.484375 4.332031 -12.398438 3.9375 -12.234375 C 3.550781 -12.066406 3.207031 -11.847656 2.90625 -11.578125 C 2.613281 -11.316406 2.382812 -11.015625 2.21875 -10.671875 C 2.144531 -10.546875 2.066406 -10.457031 1.984375 -10.40625 C 1.898438 -10.351562 1.804688 -10.328125 1.703125 -10.328125 C 1.546875 -10.328125 1.410156 -10.375 1.296875 -10.46875 C 1.179688 -10.5625 1.125 -10.679688 1.125 -10.828125 C 1.125 -10.910156 1.144531 -10.992188 1.1875 -11.078125 C 1.238281 -11.171875 1.304688 -11.28125 1.390625 -11.40625 C 1.617188 -11.789062 1.9375 -12.148438 2.34375 -12.484375 C 2.757812 -12.816406 3.21875 -13.082031 3.71875 -13.28125 C 4.21875 -13.476562 4.710938 -13.578125 5.203125 -13.578125 C 6.015625 -13.578125 6.71875 -13.421875 7.3125 -13.109375 C 7.90625 -12.796875 8.363281 -12.351562 8.6875 -11.78125 C 9.019531 -11.21875 9.1875 -10.546875 9.1875 -9.765625 C 9.1875 -9.109375 8.976562 -8.382812 8.5625 -7.59375 C 8.144531 -6.8125 7.53125 -5.96875 6.71875 -5.0625 L 2.984375 -0.875 L 2.796875 -1.109375 Z M 9.0625 -1.109375 "/></g></g></g><g fill="#201f1f" fill-opacity="1"><g transform="translate(11.298639, 20.150671)"><g><path d="M 5.296875 -13.59375 C 6.046875 -13.59375 6.695312 -13.457031 7.25 -13.1875 C 7.8125 -12.925781 8.269531 -12.566406 8.625 -12.109375 C 8.976562 -11.660156 9.242188 -11.148438 9.421875 -10.578125 C 9.609375 -10.003906 9.703125 -9.414062 9.703125 -8.8125 C 9.703125 -8.207031 9.617188 -7.554688 9.453125 -6.859375 C 9.296875 -6.160156 9.0625 -5.457031 8.75 -4.75 C 8.4375 -4.039062 8.046875 -3.367188 7.578125 -2.734375 C 7.117188 -2.097656 6.578125 -1.523438 5.953125 -1.015625 C 5.328125 -0.503906 4.628906 -0.109375 3.859375 0.171875 C 3.753906 0.191406 3.671875 0.203125 3.609375 0.203125 C 3.460938 0.203125 3.328125 0.148438 3.203125 0.046875 C 3.078125 -0.0546875 3.015625 -0.195312 3.015625 -0.375 C 3.015625 -0.507812 3.050781 -0.625 3.125 -0.71875 C 3.207031 -0.8125 3.328125 -0.882812 3.484375 -0.9375 C 4.210938 -1.238281 4.910156 -1.691406 5.578125 -2.296875 C 6.253906 -2.910156 6.835938 -3.613281 7.328125 -4.40625 C 7.828125 -5.207031 8.15625 -6.035156 8.3125 -6.890625 L 8.71875 -7.140625 C 8.5 -6.722656 8.203125 -6.347656 7.828125 -6.015625 C 7.460938 -5.691406 7.046875 -5.4375 6.578125 -5.25 C 6.117188 -5.0625 5.613281 -4.96875 5.0625 -4.96875 C 4.25 -4.96875 3.546875 -5.164062 2.953125 -5.5625 C 2.359375 -5.96875 1.898438 -6.503906 1.578125 -7.171875 C 1.265625 -7.835938 1.109375 -8.550781 1.109375 -9.3125 C 1.109375 -10.0625 1.289062 -10.757812 1.65625 -11.40625 C 2.019531 -12.0625 2.515625 -12.585938 3.140625 -12.984375 C 3.773438 -13.390625 4.492188 -13.59375 5.296875 -13.59375 Z M 5.328125 -12.484375 C 4.734375 -12.484375 4.207031 -12.347656 3.75 -12.078125 C 3.289062 -11.816406 2.929688 -11.445312 2.671875 -10.96875 C 2.410156 -10.488281 2.28125 -9.9375 2.28125 -9.3125 C 2.28125 -8.75 2.390625 -8.21875 2.609375 -7.71875 C 2.828125 -7.226562 3.160156 -6.832031 3.609375 -6.53125 C 4.054688 -6.226562 4.597656 -6.078125 5.234375 -6.078125 C 5.921875 -6.078125 6.503906 -6.226562 6.984375 -6.53125 C 7.472656 -6.832031 7.851562 -7.226562 8.125 -7.71875 C 8.394531 -8.21875 8.53125 -8.769531 8.53125 -9.375 C 8.53125 -9.914062 8.398438 -10.421875 8.140625 -10.890625 C 7.890625 -11.367188 7.523438 -11.753906 7.046875 -12.046875 C 6.578125 -12.335938 6.003906 -12.484375 5.328125 -12.484375 Z M 5.328125 -12.484375 "/></g></g></g></g></g></g><g clip-path="url(#160b62d387)"><g transform="matrix(1, 0, 0, 1, 128, 600)"><g clip-path="url(#97e7085127)"><g fill="#201f1f" fill-opacity="1"><g transform="translate(0.524728, 20.150671)"><g><path d="M 1.703125 -1.96875 C 1.765625 -1.96875 1.832031 -1.953125 1.90625 -1.921875 C 1.976562 -1.898438 2.0625 -1.847656 2.15625 -1.765625 C 2.425781 -1.484375 2.742188 -1.269531 3.109375 -1.125 C 3.484375 -0.976562 3.90625 -0.90625 4.375 -0.90625 C 5 -0.90625 5.566406 -1.039062 6.078125 -1.3125 C 6.597656 -1.59375 7.007812 -1.984375 7.3125 -2.484375 C 7.625 -2.992188 7.78125 -3.578125 7.78125 -4.234375 C 7.78125 -4.960938 7.617188 -5.550781 7.296875 -6 C 6.972656 -6.457031 6.554688 -6.796875 6.046875 -7.015625 C 5.546875 -7.242188 5.035156 -7.359375 4.515625 -7.359375 C 4.367188 -7.359375 4.226562 -7.347656 4.09375 -7.328125 C 3.96875 -7.316406 3.847656 -7.296875 3.734375 -7.265625 C 3.617188 -7.242188 3.53125 -7.234375 3.46875 -7.234375 C 3.300781 -7.234375 3.171875 -7.285156 3.078125 -7.390625 C 2.984375 -7.492188 2.9375 -7.628906 2.9375 -7.796875 C 2.9375 -7.890625 2.957031 -7.96875 3 -8.03125 C 3.039062 -8.101562 3.09375 -8.1875 3.15625 -8.28125 L 7.03125 -12.5 L 7.265625 -12.203125 L 1.46875 -12.203125 C 1.320312 -12.203125 1.191406 -12.253906 1.078125 -12.359375 C 0.972656 -12.472656 0.921875 -12.601562 0.921875 -12.75 C 0.921875 -12.90625 0.972656 -13.035156 1.078125 -13.140625 C 1.191406 -13.242188 1.320312 -13.296875 1.46875 -13.296875 L 7.90625 -13.296875 C 8.113281 -13.296875 8.257812 -13.226562 8.34375 -13.09375 C 8.4375 -12.957031 8.484375 -12.828125 8.484375 -12.703125 C 8.484375 -12.617188 8.460938 -12.539062 8.421875 -12.46875 C 8.390625 -12.40625 8.34375 -12.335938 8.28125 -12.265625 L 4.40625 -8.03125 L 3.984375 -8.28125 C 4.015625 -8.320312 4.140625 -8.363281 4.359375 -8.40625 C 4.585938 -8.445312 4.765625 -8.46875 4.890625 -8.46875 C 5.597656 -8.46875 6.257812 -8.300781 6.875 -7.96875 C 7.488281 -7.644531 7.988281 -7.171875 8.375 -6.546875 C 8.769531 -5.929688 8.96875 -5.171875 8.96875 -4.265625 C 8.96875 -3.367188 8.753906 -2.585938 8.328125 -1.921875 C 7.910156 -1.253906 7.34375 -0.734375 6.625 -0.359375 C 5.914062 0.00390625 5.128906 0.1875 4.265625 0.1875 C 3.742188 0.1875 3.226562 0.0976562 2.71875 -0.078125 C 2.207031 -0.253906 1.757812 -0.519531 1.375 -0.875 C 1.289062 -0.957031 1.226562 -1.035156 1.1875 -1.109375 C 1.144531 -1.179688 1.125 -1.257812 1.125 -1.34375 C 1.125 -1.488281 1.175781 -1.628906 1.28125 -1.765625 C 1.394531 -1.898438 1.535156 -1.96875 1.703125 -1.96875 Z M 1.703125 -1.96875 "/></g></g></g><g fill="#201f1f" fill-opacity="1"><g transform="translate(10.544088, 20.150671)"><g><path d="M 5.6875 0.1875 C 4.664062 0.1875 3.804688 -0.113281 3.109375 -0.71875 C 2.421875 -1.332031 1.90625 -2.160156 1.5625 -3.203125 C 1.21875 -4.242188 1.046875 -5.40625 1.046875 -6.6875 C 1.046875 -7.988281 1.21875 -9.160156 1.5625 -10.203125 C 1.90625 -11.242188 2.421875 -12.066406 3.109375 -12.671875 C 3.804688 -13.273438 4.664062 -13.578125 5.6875 -13.578125 C 6.726562 -13.578125 7.585938 -13.273438 8.265625 -12.671875 C 8.953125 -12.066406 9.46875 -11.242188 9.8125 -10.203125 C 10.15625 -9.160156 10.328125 -7.988281 10.328125 -6.6875 C 10.328125 -5.40625 10.15625 -4.242188 9.8125 -3.203125 C 9.46875 -2.160156 8.953125 -1.332031 8.265625 -0.71875 C 7.585938 -0.113281 6.726562 0.1875 5.6875 0.1875 Z M 5.6875 -1 C 6.4375 -1 7.0625 -1.234375 7.5625 -1.703125 C 8.0625 -2.171875 8.441406 -2.832031 8.703125 -3.6875 C 8.972656 -4.550781 9.109375 -5.550781 9.109375 -6.6875 C 9.109375 -7.84375 8.972656 -8.847656 8.703125 -9.703125 C 8.441406 -10.566406 8.0625 -11.234375 7.5625 -11.703125 C 7.0625 -12.171875 6.4375 -12.40625 5.6875 -12.40625 C 4.945312 -12.40625 4.320312 -12.171875 3.8125 -11.703125 C 3.3125 -11.234375 2.929688 -10.566406 2.671875 -9.703125 C 2.410156 -8.847656 2.28125 -7.84375 2.28125 -6.6875 C 2.28125 -5.550781 2.410156 -4.550781 2.671875 -3.6875 C 2.929688 -2.832031 3.3125 -2.171875 3.8125 -1.703125 C 4.320312 -1.234375 4.945312 -1 5.6875 -1 Z M 5.6875 -1 "/></g></g></g></g></g></g><g clip-path="url(#9882b752ef)"><g transform="matrix(1, 0, 0, 1, 254, 600)"><g clip-path="url(#45947c3d32)"><g fill="#201f1f" fill-opacity="1"><g transform="translate(0.343799, 20.150671)"><g><path d="M 1.703125 -1.96875 C 1.765625 -1.96875 1.832031 -1.953125 1.90625 -1.921875 C 1.976562 -1.898438 2.0625 -1.847656 2.15625 -1.765625 C 2.425781 -1.484375 2.742188 -1.269531 3.109375 -1.125 C 3.484375 -0.976562 3.90625 -0.90625 4.375 -0.90625 C 5 -0.90625 5.566406 -1.039062 6.078125 -1.3125 C 6.597656 -1.59375 7.007812 -1.984375 7.3125 -2.484375 C 7.625 -2.992188 7.78125 -3.578125 7.78125 -4.234375 C 7.78125 -4.960938 7.617188 -5.550781 7.296875 -6 C 6.972656 -6.457031 6.554688 -6.796875 6.046875 -7.015625 C 5.546875 -7.242188 5.035156 -7.359375 4.515625 -7.359375 C 4.367188 -7.359375 4.226562 -7.347656 4.09375 -7.328125 C 3.96875 -7.316406 3.847656 -7.296875 3.734375 -7.265625 C 3.617188 -7.242188 3.53125 -7.234375 3.46875 -7.234375 C 3.300781 -7.234375 3.171875 -7.285156 3.078125 -7.390625 C 2.984375 -7.492188 2.9375 -7.628906 2.9375 -7.796875 C 2.9375 -7.890625 2.957031 -7.96875 3 -8.03125 C 3.039062 -8.101562 3.09375 -8.1875 3.15625 -8.28125 L 7.03125 -12.5 L 7.265625 -12.203125 L 1.46875 -12.203125 C 1.320312 -12.203125 1.191406 -12.253906 1.078125 -12.359375 C 0.972656 -12.472656 0.921875 -12.601562 0.921875 -12.75 C 0.921875 -12.90625 0.972656 -13.035156 1.078125 -13.140625 C 1.191406 -13.242188 1.320312 -13.296875 1.46875 -13.296875 L 7.90625 -13.296875 C 8.113281 -13.296875 8.257812 -13.226562 8.34375 -13.09375 C 8.4375 -12.957031 8.484375 -12.828125 8.484375 -12.703125 C 8.484375 -12.617188 8.460938 -12.539062 8.421875 -12.46875 C 8.390625 -12.40625 8.34375 -12.335938 8.28125 -12.265625 L 4.40625 -8.03125 L 3.984375 -8.28125 C 4.015625 -8.320312 4.140625 -8.363281 4.359375 -8.40625 C 4.585938 -8.445312 4.765625 -8.46875 4.890625 -8.46875 C 5.597656 -8.46875 6.257812 -8.300781 6.875 -7.96875 C 7.488281 -7.644531 7.988281 -7.171875 8.375 -6.546875 C 8.769531 -5.929688 8.96875 -5.171875 8.96875 -4.265625 C 8.96875 -3.367188 8.753906 -2.585938 8.328125 -1.921875 C 7.910156 -1.253906 7.34375 -0.734375 6.625 -0.359375 C 5.914062 0.00390625 5.128906 0.1875 4.265625 0.1875 C 3.742188 0.1875 3.226562 0.0976562 2.71875 -0.078125 C 2.207031 -0.253906 1.757812 -0.519531 1.375 -0.875 C 1.289062 -0.957031 1.226562 -1.035156 1.1875 -1.109375 C 1.144531 -1.179688 1.125 -1.257812 1.125 -1.34375 C 1.125 -1.488281 1.175781 -1.628906 1.28125 -1.765625 C 1.394531 -1.898438 1.535156 -1.96875 1.703125 -1.96875 Z M 1.703125 -1.96875 "/></g></g></g><g fill="#201f1f" fill-opacity="1"><g transform="translate(10.363159, 20.150671)"><g><path d="M 4.328125 0 C 4.140625 0 3.988281 -0.0546875 3.875 -0.171875 C 3.757812 -0.285156 3.703125 -0.421875 3.703125 -0.578125 L 3.703125 -12.09375 L 3.921875 -11.890625 L 1.375 -10.1875 C 1.269531 -10.113281 1.160156 -10.078125 1.046875 -10.078125 C 0.898438 -10.078125 0.765625 -10.140625 0.640625 -10.265625 C 0.515625 -10.398438 0.453125 -10.539062 0.453125 -10.6875 C 0.453125 -10.894531 0.554688 -11.054688 0.765625 -11.171875 L 3.953125 -13.296875 C 4.035156 -13.347656 4.117188 -13.378906 4.203125 -13.390625 C 4.285156 -13.398438 4.359375 -13.398438 4.421875 -13.390625 C 4.585938 -13.378906 4.710938 -13.316406 4.796875 -13.203125 C 4.890625 -13.097656 4.9375 -12.96875 4.9375 -12.8125 L 4.9375 -0.578125 C 4.9375 -0.421875 4.878906 -0.285156 4.765625 -0.171875 C 4.648438 -0.0546875 4.503906 0 4.328125 0 Z M 4.328125 0 "/></g></g></g></g></g></g><path stroke-linecap="butt" transform="matrix(0.75, 0, 0, 0.75, 0.0000031164, 0.00002)" fill-opacity="1" fill="#000000" fill-rule="nonzero" stroke-linejoin="miter" d="M 0.802079 1.609348 L 0.802079 998.390647 M 168.562504 1.609348 L 168.562504 998.390647 M 336.322929 1.609348 L 336.322929 998.390647 M 504.078145 1.609348 L 504.078145 998.390647 M 671.83857 1.609348 L 671.83857 998.390647 M 839.598995 1.609348 L 839.598995 998.390647 M 1007.354212 1.609348 L 1007.354212 998.390647 M 1175.114636 1.609348 L 1175.114636 998.390647 M -0.0000041552 0.802057 L 1175.91672 0.802057 M -0.0000041552 200.484358 L 1175.91672 200.484358 M -0.0000041552 400.161451 L 1175.91672 400.161451 M -0.0000041552 599.838544 L 1175.91672 599.838544 M -0.0000041552 799.515637 L 1175.91672 799.515637 M -0.0000041552 999.197939 L 1175.91672 999.197939 " stroke="#000000" stroke-width="1.607539" stroke-opacity="1" stroke-miterlimit="4"/></svg>