<svg xmlns="http://www.w3.org/2000/svg" xmlns:xlink="http://www.w3.org/1999/xlink" width="600" zoomAndPan="magnify" viewBox="0 0 450 112.499997" height="150" preserveAspectRatio="xMidYMid meet" version="1.0"><defs><g/></defs><g fill="#000000" fill-opacity="1"><g transform="translate(143.963111, 77.340993)"><g><path d="M 9.96875 -56.234375 C 10.34375 -56.234375 10.726562 -56.15625 11.125 -56 C 11.53125 -55.84375 11.863281 -55.578125 12.125 -55.203125 L 34.3125 -21.9375 L 32.140625 -22.015625 L 54.390625 -55.203125 C 54.984375 -56.003906 55.707031 -56.347656 56.5625 -56.234375 C 57.207031 -56.234375 57.753906 -56.003906 58.203125 -55.546875 C 58.660156 -55.097656 58.890625 -54.523438 58.890625 -53.828125 L 58.890625 -2.40625 C 58.890625 -1.769531 58.648438 -1.207031 58.171875 -0.71875 C 57.691406 -0.238281 57.101562 0 56.40625 0 C 55.65625 0 55.035156 -0.238281 54.546875 -0.71875 C 54.066406 -1.207031 53.828125 -1.769531 53.828125 -2.40625 L 53.828125 -48.921875 L 55.28125 -48.765625 L 34.953125 -18 C 34.785156 -17.675781 34.539062 -17.421875 34.21875 -17.234375 C 33.90625 -17.046875 33.535156 -16.976562 33.109375 -17.03125 C 32.734375 -16.976562 32.367188 -17.046875 32.015625 -17.234375 C 31.671875 -17.421875 31.390625 -17.675781 31.171875 -18 L 10.765625 -49.09375 L 12.296875 -50.140625 L 12.296875 -2.40625 C 12.296875 -1.769531 12.066406 -1.207031 11.609375 -0.71875 C 11.148438 -0.238281 10.570312 0 9.875 0 C 9.1875 0 8.625 -0.238281 8.1875 -0.71875 C 7.757812 -1.207031 7.546875 -1.769531 7.546875 -2.40625 L 7.546875 -53.828125 C 7.546875 -54.472656 7.773438 -55.035156 8.234375 -55.515625 C 8.691406 -55.992188 9.269531 -56.234375 9.96875 -56.234375 Z M 9.96875 -56.234375 "/></g></g></g><g fill="#000000" fill-opacity="1"><g transform="translate(210.402861, 77.340993)"><g><path d="M 26.359375 -50.046875 L 6.828125 -1.53125 C 6.617188 -0.988281 6.328125 -0.582031 5.953125 -0.3125 C 5.578125 -0.0507812 5.144531 0.078125 4.65625 0.078125 C 3.90625 0.078125 3.34375 -0.117188 2.96875 -0.515625 C 2.59375 -0.921875 2.378906 -1.421875 2.328125 -2.015625 C 2.273438 -2.273438 2.300781 -2.59375 2.40625 -2.96875 L 23.625 -54.875 C 23.882812 -55.46875 24.21875 -55.882812 24.625 -56.125 C 25.03125 -56.363281 25.5 -56.484375 26.03125 -56.484375 C 26.5625 -56.484375 27.03125 -56.332031 27.4375 -56.03125 C 27.84375 -55.738281 28.148438 -55.351562 28.359375 -54.875 L 49.484375 -3.21875 C 49.597656 -2.894531 49.65625 -2.570312 49.65625 -2.25 C 49.65625 -1.5 49.410156 -0.921875 48.921875 -0.515625 C 48.441406 -0.117188 47.878906 0.078125 47.234375 0.078125 C 46.703125 0.078125 46.234375 -0.0664062 45.828125 -0.359375 C 45.429688 -0.648438 45.125 -1.039062 44.90625 -1.53125 L 24.90625 -50.375 Z M 11.484375 -16.234375 L 13.5 -20.96875 L 38.40625 -20.96875 L 39.375 -16.234375 Z M 11.484375 -16.234375 "/></g></g></g><g fill="#000000" fill-opacity="1"><g transform="translate(258.926975, 77.340993)"><g><path d="M 41.0625 -56.5625 C 41.75 -56.5625 42.320312 -56.304688 42.78125 -55.796875 C 43.238281 -55.285156 43.46875 -54.738281 43.46875 -54.15625 C 43.46875 -53.882812 43.425781 -53.628906 43.34375 -53.390625 C 43.257812 -53.148438 43.140625 -52.894531 42.984375 -52.625 L 24.109375 -26.671875 L 25.0625 -29.8125 L 25.0625 -2.40625 C 25.0625 -1.769531 24.820312 -1.207031 24.34375 -0.71875 C 23.863281 -0.238281 23.273438 0 22.578125 0 C 21.878906 0 21.300781 -0.238281 20.84375 -0.71875 C 20.394531 -1.207031 20.171875 -1.769531 20.171875 -2.40625 L 20.171875 -29.25 L 20.5625 -27.3125 L 2.171875 -52.46875 C 1.953125 -52.726562 1.789062 -53.003906 1.6875 -53.296875 C 1.582031 -53.597656 1.53125 -53.882812 1.53125 -54.15625 C 1.53125 -54.851562 1.8125 -55.425781 2.375 -55.875 C 2.9375 -56.332031 3.507812 -56.5625 4.09375 -56.5625 C 4.894531 -56.5625 5.566406 -56.1875 6.109375 -55.4375 L 23.375 -31.890625 L 22.171875 -32.0625 L 38.96875 -55.4375 C 39.5 -56.1875 40.195312 -56.5625 41.0625 -56.5625 Z M 41.0625 -56.5625 "/></g></g></g></svg>