<svg xmlns="http://www.w3.org/2000/svg" xmlns:xlink="http://www.w3.org/1999/xlink" width="1176" zoomAndPan="magnify" viewBox="0 0 882 749.999995" height="1000" preserveAspectRatio="xMidYMid meet" version="1.0"><defs><g/><clipPath id="f2f55156fc"><path d="M 505 1.207031 L 514 1.207031 L 514 27 L 505 27 Z M 505 1.207031 " clip-rule="nonzero"/></clipPath><clipPath id="d4333f6408"><rect x="0" width="9" y="0" height="26"/></clipPath><clipPath id="11ff7dbba8"><path d="M 631 1.207031 L 643 1.207031 L 643 27 L 631 27 Z M 631 1.207031 " clip-rule="nonzero"/></clipPath><clipPath id="349d493928"><rect x="0" width="12" y="0" height="26"/></clipPath><clipPath id="32f31a41a1"><path d="M 757 1.207031 L 768 1.207031 L 768 27 L 757 27 Z M 757 1.207031 " clip-rule="nonzero"/></clipPath><clipPath id="590b27106f"><rect x="0" width="11" y="0" height="26"/></clipPath><clipPath id="6cef8586c8"><path d="M 0.640625 6 L 11 6 L 11 20 L 0.640625 20 Z M 0.640625 6 " clip-rule="nonzero"/></clipPath><clipPath id="7ae9f92ab7"><rect x="0" width="12" y="0" height="25"/></clipPath><clipPath id="90bece60d2"><rect x="0" width="12" y="0" height="25"/></clipPath><clipPath id="6b17150af1"><rect x="0" width="12" y="0" height="25"/></clipPath><clipPath id="fca9768deb"><rect x="0" width="11" y="0" height="25"/></clipPath><clipPath id="c9be97cf79"><rect x="0" width="12" y="0" height="25"/></clipPath><clipPath id="f479fbf91e"><rect x="0" width="12" y="0" height="25"/></clipPath><clipPath id="7df0fdfa3b"><rect x="0" width="20" y="0" height="25"/></clipPath><clipPath id="4451303576"><rect x="0" width="16" y="0" height="25"/></clipPath><clipPath id="6419017d80"><path d="M 0.398438 6 L 6 6 L 6 20 L 0.398438 20 Z M 0.398438 6 " clip-rule="nonzero"/></clipPath><clipPath id="3785f00bb1"><rect x="0" width="19" y="0" height="25"/></clipPath><clipPath id="666e731452"><path d="M 0.160156 6 L 6 6 L 6 20 L 0.160156 20 Z M 0.160156 6 " clip-rule="nonzero"/></clipPath><clipPath id="2b53e86695"><rect x="0" width="18" y="0" height="25"/></clipPath><clipPath id="589bc94751"><path d="M 0.160156 6 L 6 6 L 6 20 L 0.160156 20 Z M 0.160156 6 " clip-rule="nonzero"/></clipPath><clipPath id="e0a3771e23"><rect x="0" width="18" y="0" height="25"/></clipPath><clipPath id="ca208d0d64"><rect x="0" width="20" y="0" height="25"/></clipPath><clipPath id="fb8ba7ec0e"><rect x="0" width="19" y="0" height="25"/></clipPath><clipPath id="95ca1151ad"><rect x="0" width="19" y="0" height="25"/></clipPath><clipPath id="cc0130728b"><path d="M 2 450.484375 L 21 450.484375 L 21 476 L 2 476 Z M 2 450.484375 " clip-rule="nonzero"/></clipPath><clipPath id="6376b38645"><rect x="0" width="19" y="0" height="26"/></clipPath><clipPath id="0600a5a098"><path d="M 128 450.484375 L 147 450.484375 L 147 476 L 128 476 Z M 128 450.484375 " clip-rule="nonzero"/></clipPath><clipPath id="5b2d79f3ee"><path d="M 0.398438 6 L 6 6 L 6 21 L 0.398438 21 Z M 0.398438 6 " clip-rule="nonzero"/></clipPath><clipPath id="28d11e66c0"><rect x="0" width="19" y="0" height="26"/></clipPath><clipPath id="bea4276abb"><path d="M 254 450.484375 L 277 450.484375 L 277 476 L 254 476 Z M 254 450.484375 " clip-rule="nonzero"/></clipPath><clipPath id="6e7b3f843f"><rect x="0" width="23" y="0" height="26"/></clipPath><clipPath id="5188f01e22"><path d="M 380 450.484375 L 399 450.484375 L 399 476 L 380 476 Z M 380 450.484375 " clip-rule="nonzero"/></clipPath><clipPath id="0c47036db3"><rect x="0" width="19" y="0" height="26"/></clipPath><clipPath id="b2374226ba"><path d="M 505 450.484375 L 528 450.484375 L 528 476 L 505 476 Z M 505 450.484375 " clip-rule="nonzero"/></clipPath><clipPath id="d050c4024b"><rect x="0" width="23" y="0" height="26"/></clipPath><clipPath id="282b485563"><path d="M 631 450.484375 L 654 450.484375 L 654 476 L 631 476 Z M 631 450.484375 " clip-rule="nonzero"/></clipPath><clipPath id="1013c84b1a"><rect x="0" width="23" y="0" height="26"/></clipPath><clipPath id="bae6611474"><path d="M 757 450.484375 L 779 450.484375 L 779 476 L 757 476 Z M 757 450.484375 " clip-rule="nonzero"/></clipPath><clipPath id="8254465b2b"><rect x="0" width="22" y="0" height="26"/></clipPath><clipPath id="b2963b3d5c"><path d="M 2 600.242188 L 24 600.242188 L 24 626 L 2 626 Z M 2 600.242188 " clip-rule="nonzero"/></clipPath><clipPath id="78ed86f403"><rect x="0" width="22" y="0" height="26"/></clipPath><clipPath id="a706cae719"><path d="M 128 600.242188 L 150 600.242188 L 150 626 L 128 626 Z M 128 600.242188 " clip-rule="nonzero"/></clipPath><clipPath id="9fce2b5691"><rect x="0" width="22" y="0" height="26"/></clipPath><clipPath id="87c2cb405a"><path d="M 254 600.242188 L 276 600.242188 L 276 626 L 254 626 Z M 254 600.242188 " clip-rule="nonzero"/></clipPath><clipPath id="8008c88c80"><rect x="0" width="22" y="0" height="26"/></clipPath><clipPath id="ad11351b73"><path d="M 380 600.242188 L 402 600.242188 L 402 626 L 380 626 Z M 380 600.242188 " clip-rule="nonzero"/></clipPath><clipPath id="4da8a6eb22"><rect x="0" width="22" y="0" height="26"/></clipPath><clipPath id="173cba1f96"><path d="M 505 600.242188 L 528 600.242188 L 528 626 L 505 626 Z M 505 600.242188 " clip-rule="nonzero"/></clipPath><clipPath id="97ad1fc3ec"><rect x="0" width="23" y="0" height="26"/></clipPath><clipPath id="ebe4c20d3b"><path d="M 631 600.242188 L 654 600.242188 L 654 626 L 631 626 Z M 631 600.242188 " clip-rule="nonzero"/></clipPath><clipPath id="8b3e7d4901"><rect x="0" width="23" y="0" height="26"/></clipPath><clipPath id="3d9e15caf9"><path d="M 757 600.242188 L 776 600.242188 L 776 626 L 757 626 Z M 757 600.242188 " clip-rule="nonzero"/></clipPath><clipPath id="c323ee5cbc"><rect x="0" width="19" y="0" height="26"/></clipPath></defs><g clip-path="url(#f2f55156fc)"><g transform="matrix(1, 0, 0, 1, 505, 1)"><g clip-path="url(#d4333f6408)"><g fill="#201f1f" fill-opacity="1"><g transform="translate(0.982967, 20.152679)"><g><path d="M 4.328125 0 C 4.148438 0 4.003906 -0.0546875 3.890625 -0.171875 C 3.773438 -0.285156 3.71875 -0.421875 3.71875 -0.578125 L 3.71875 -12.109375 L 3.9375 -11.921875 L 1.375 -10.21875 C 1.28125 -10.144531 1.171875 -10.109375 1.046875 -10.109375 C 0.898438 -10.109375 0.765625 -10.171875 0.640625 -10.296875 C 0.515625 -10.421875 0.453125 -10.5625 0.453125 -10.71875 C 0.453125 -10.925781 0.554688 -11.085938 0.765625 -11.203125 L 3.96875 -13.328125 C 4.039062 -13.378906 4.117188 -13.410156 4.203125 -13.421875 C 4.285156 -13.429688 4.359375 -13.429688 4.421875 -13.421875 C 4.585938 -13.410156 4.71875 -13.347656 4.8125 -13.234375 C 4.90625 -13.128906 4.953125 -13 4.953125 -12.84375 L 4.953125 -0.578125 C 4.953125 -0.421875 4.890625 -0.285156 4.765625 -0.171875 C 4.648438 -0.0546875 4.503906 0 4.328125 0 Z M 4.328125 0 "/></g></g></g></g></g></g><g clip-path="url(#11ff7dbba8)"><g transform="matrix(1, 0, 0, 1, 631, 1)"><g clip-path="url(#349d493928)"><g fill="#201f1f" fill-opacity="1"><g transform="translate(0.801672, 20.152679)"><g><path d="M 9.09375 -1.109375 C 9.238281 -1.109375 9.363281 -1.050781 9.46875 -0.9375 C 9.582031 -0.832031 9.640625 -0.707031 9.640625 -0.5625 C 9.640625 -0.394531 9.582031 -0.257812 9.46875 -0.15625 C 9.363281 -0.0507812 9.238281 0 9.09375 0 L 1.890625 0 C 1.734375 0 1.59375 -0.046875 1.46875 -0.140625 C 1.34375 -0.234375 1.28125 -0.378906 1.28125 -0.578125 C 1.28125 -0.710938 1.332031 -0.847656 1.4375 -0.984375 L 5.859375 -5.859375 C 6.566406 -6.628906 7.09375 -7.335938 7.4375 -7.984375 C 7.789062 -8.628906 7.96875 -9.207031 7.96875 -9.71875 C 7.96875 -10.5625 7.710938 -11.238281 7.203125 -11.75 C 6.691406 -12.257812 6.003906 -12.515625 5.140625 -12.515625 C 4.742188 -12.515625 4.347656 -12.429688 3.953125 -12.265625 C 3.566406 -12.097656 3.222656 -11.878906 2.921875 -11.609375 C 2.617188 -11.347656 2.382812 -11.046875 2.21875 -10.703125 C 2.144531 -10.566406 2.066406 -10.472656 1.984375 -10.421875 C 1.898438 -10.378906 1.804688 -10.359375 1.703125 -10.359375 C 1.546875 -10.359375 1.410156 -10.40625 1.296875 -10.5 C 1.179688 -10.59375 1.125 -10.707031 1.125 -10.84375 C 1.125 -10.9375 1.144531 -11.023438 1.1875 -11.109375 C 1.238281 -11.203125 1.3125 -11.304688 1.40625 -11.421875 C 1.632812 -11.816406 1.953125 -12.179688 2.359375 -12.515625 C 2.765625 -12.847656 3.21875 -13.113281 3.71875 -13.3125 C 4.226562 -13.507812 4.726562 -13.609375 5.21875 -13.609375 C 6.03125 -13.609375 6.734375 -13.453125 7.328125 -13.140625 C 7.921875 -12.828125 8.378906 -12.382812 8.703125 -11.8125 C 9.035156 -11.25 9.203125 -10.578125 9.203125 -9.796875 C 9.203125 -9.128906 8.992188 -8.398438 8.578125 -7.609375 C 8.160156 -6.828125 7.546875 -5.984375 6.734375 -5.078125 L 2.984375 -0.875 L 2.796875 -1.109375 Z M 9.09375 -1.109375 "/></g></g></g></g></g></g><g clip-path="url(#32f31a41a1)"><g transform="matrix(1, 0, 0, 1, 757, 1)"><g clip-path="url(#590b27106f)"><g fill="#201f1f" fill-opacity="1"><g transform="translate(0.620435, 20.152679)"><g><path d="M 1.703125 -1.96875 C 1.765625 -1.96875 1.832031 -1.953125 1.90625 -1.921875 C 1.976562 -1.898438 2.066406 -1.847656 2.171875 -1.765625 C 2.429688 -1.484375 2.75 -1.269531 3.125 -1.125 C 3.5 -0.976562 3.921875 -0.90625 4.390625 -0.90625 C 5.015625 -0.90625 5.582031 -1.046875 6.09375 -1.328125 C 6.613281 -1.609375 7.023438 -2 7.328125 -2.5 C 7.640625 -3.007812 7.796875 -3.585938 7.796875 -4.234375 C 7.796875 -4.972656 7.632812 -5.566406 7.3125 -6.015625 C 6.988281 -6.472656 6.570312 -6.8125 6.0625 -7.03125 C 5.5625 -7.257812 5.050781 -7.375 4.53125 -7.375 C 4.382812 -7.375 4.242188 -7.363281 4.109375 -7.34375 C 3.972656 -7.332031 3.847656 -7.3125 3.734375 -7.28125 C 3.617188 -7.257812 3.53125 -7.25 3.46875 -7.25 C 3.300781 -7.25 3.171875 -7.300781 3.078125 -7.40625 C 2.992188 -7.519531 2.953125 -7.660156 2.953125 -7.828125 C 2.953125 -7.910156 2.96875 -7.988281 3 -8.0625 C 3.039062 -8.132812 3.09375 -8.210938 3.15625 -8.296875 L 7.0625 -12.53125 L 7.28125 -12.234375 L 1.46875 -12.234375 C 1.320312 -12.234375 1.191406 -12.285156 1.078125 -12.390625 C 0.972656 -12.503906 0.921875 -12.632812 0.921875 -12.78125 C 0.921875 -12.9375 0.972656 -13.066406 1.078125 -13.171875 C 1.191406 -13.273438 1.320312 -13.328125 1.46875 -13.328125 L 7.921875 -13.328125 C 8.140625 -13.328125 8.289062 -13.257812 8.375 -13.125 C 8.46875 -12.988281 8.515625 -12.859375 8.515625 -12.734375 C 8.515625 -12.648438 8.492188 -12.570312 8.453125 -12.5 C 8.410156 -12.4375 8.359375 -12.367188 8.296875 -12.296875 L 4.40625 -8.046875 L 3.984375 -8.296875 C 4.023438 -8.335938 4.15625 -8.378906 4.375 -8.421875 C 4.601562 -8.472656 4.78125 -8.5 4.90625 -8.5 C 5.613281 -8.5 6.273438 -8.332031 6.890625 -8 C 7.515625 -7.664062 8.019531 -7.1875 8.40625 -6.5625 C 8.789062 -5.945312 8.984375 -5.1875 8.984375 -4.28125 C 8.984375 -3.382812 8.769531 -2.597656 8.34375 -1.921875 C 7.925781 -1.253906 7.359375 -0.734375 6.640625 -0.359375 C 5.929688 0.00390625 5.144531 0.1875 4.28125 0.1875 C 3.75 0.1875 3.226562 0.0976562 2.71875 -0.078125 C 2.207031 -0.253906 1.757812 -0.519531 1.375 -0.875 C 1.289062 -0.957031 1.226562 -1.035156 1.1875 -1.109375 C 1.144531 -1.191406 1.125 -1.269531 1.125 -1.34375 C 1.125 -1.5 1.175781 -1.640625 1.28125 -1.765625 C 1.394531 -1.898438 1.535156 -1.96875 1.703125 -1.96875 Z M 1.703125 -1.96875 "/></g></g></g></g></g></g><g transform="matrix(1, 0, 0, 1, 2, 151)"><g clip-path="url(#7ae9f92ab7)"><g clip-path="url(#6cef8586c8)"><g fill="#201f1f" fill-opacity="1"><g transform="translate(0.707959, 19.911028)"><g><path d="M 7.03125 0 C 6.863281 0 6.726562 -0.0546875 6.625 -0.171875 C 6.53125 -0.285156 6.484375 -0.421875 6.484375 -0.578125 L 6.484375 -11.828125 L 6.734375 -11.671875 L 1.6875 -5 L 1.625 -5.21875 L 8.984375 -5.21875 C 9.140625 -5.21875 9.269531 -5.164062 9.375 -5.0625 C 9.488281 -4.957031 9.546875 -4.828125 9.546875 -4.671875 C 9.546875 -4.523438 9.488281 -4.398438 9.375 -4.296875 C 9.269531 -4.191406 9.140625 -4.140625 8.984375 -4.140625 L 0.84375 -4.140625 C 0.6875 -4.140625 0.550781 -4.195312 0.4375 -4.3125 C 0.320312 -4.4375 0.265625 -4.578125 0.265625 -4.734375 C 0.265625 -4.878906 0.3125 -5.007812 0.40625 -5.125 L 6.578125 -13.1875 C 6.640625 -13.28125 6.71875 -13.34375 6.8125 -13.375 C 6.90625 -13.40625 6.988281 -13.421875 7.0625 -13.421875 C 7.21875 -13.421875 7.347656 -13.363281 7.453125 -13.25 C 7.566406 -13.132812 7.625 -13 7.625 -12.84375 L 7.625 -0.578125 C 7.625 -0.421875 7.566406 -0.285156 7.453125 -0.171875 C 7.335938 -0.0546875 7.195312 0 7.03125 0 Z M 7.03125 0 "/></g></g></g></g></g></g><g transform="matrix(1, 0, 0, 1, 128, 151)"><g clip-path="url(#90bece60d2)"><g fill="#201f1f" fill-opacity="1"><g transform="translate(0.526706, 19.911028)"><g><path d="M 4.484375 0.03125 C 3.960938 0.03125 3.4375 -0.0507812 2.90625 -0.21875 C 2.375 -0.394531 1.90625 -0.65625 1.5 -1 C 1.414062 -1.0625 1.351562 -1.132812 1.3125 -1.21875 C 1.269531 -1.3125 1.25 -1.40625 1.25 -1.5 C 1.25 -1.625 1.296875 -1.742188 1.390625 -1.859375 C 1.492188 -1.984375 1.628906 -2.046875 1.796875 -2.046875 C 1.941406 -2.046875 2.082031 -1.988281 2.21875 -1.875 C 2.550781 -1.625 2.910156 -1.425781 3.296875 -1.28125 C 3.691406 -1.144531 4.085938 -1.078125 4.484375 -1.078125 C 5.242188 -1.078125 5.898438 -1.21875 6.453125 -1.5 C 7.015625 -1.789062 7.445312 -2.203125 7.75 -2.734375 C 8.0625 -3.265625 8.21875 -3.878906 8.21875 -4.578125 C 8.21875 -5.234375 8.078125 -5.800781 7.796875 -6.28125 C 7.515625 -6.757812 7.113281 -7.132812 6.59375 -7.40625 C 6.082031 -7.6875 5.476562 -7.828125 4.78125 -7.828125 C 4.3125 -7.828125 3.890625 -7.753906 3.515625 -7.609375 C 3.140625 -7.472656 2.8125 -7.328125 2.53125 -7.171875 C 2.257812 -7.023438 2.039062 -6.953125 1.875 -6.953125 C 1.726562 -6.953125 1.601562 -6.988281 1.5 -7.0625 C 1.40625 -7.144531 1.34375 -7.242188 1.3125 -7.359375 C 1.28125 -7.472656 1.273438 -7.59375 1.296875 -7.71875 L 2.125 -12.84375 C 2.132812 -12.957031 2.191406 -13.0625 2.296875 -13.15625 C 2.410156 -13.257812 2.550781 -13.3125 2.71875 -13.3125 L 8.5 -13.3125 C 8.644531 -13.3125 8.769531 -13.253906 8.875 -13.140625 C 8.988281 -13.035156 9.046875 -12.90625 9.046875 -12.75 C 9.046875 -12.582031 8.988281 -12.441406 8.875 -12.328125 C 8.769531 -12.222656 8.644531 -12.171875 8.5 -12.171875 L 2.984375 -12.171875 L 3.15625 -12.34375 L 2.375 -7.796875 L 2.03125 -8.046875 C 2.195312 -8.179688 2.4375 -8.3125 2.75 -8.4375 C 3.0625 -8.5625 3.410156 -8.671875 3.796875 -8.765625 C 4.191406 -8.867188 4.609375 -8.921875 5.046875 -8.921875 C 5.867188 -8.921875 6.609375 -8.738281 7.265625 -8.375 C 7.921875 -8.007812 8.4375 -7.503906 8.8125 -6.859375 C 9.1875 -6.210938 9.375 -5.46875 9.375 -4.625 C 9.375 -3.6875 9.171875 -2.867188 8.765625 -2.171875 C 8.367188 -1.472656 7.804688 -0.929688 7.078125 -0.546875 C 6.347656 -0.160156 5.484375 0.03125 4.484375 0.03125 Z M 4.484375 0.03125 "/></g></g></g></g></g><g transform="matrix(1, 0, 0, 1, 254, 151)"><g clip-path="url(#6b17150af1)"><g fill="#201f1f" fill-opacity="1"><g transform="translate(0.345469, 19.911028)"><g><path d="M 5.5 0.1875 C 4.757812 0.1875 4.109375 0.0546875 3.546875 -0.203125 C 2.992188 -0.472656 2.535156 -0.832031 2.171875 -1.28125 C 1.804688 -1.738281 1.535156 -2.253906 1.359375 -2.828125 C 1.191406 -3.410156 1.109375 -4 1.109375 -4.59375 C 1.109375 -5.207031 1.1875 -5.867188 1.34375 -6.578125 C 1.5 -7.296875 1.734375 -8.015625 2.046875 -8.734375 C 2.367188 -9.460938 2.765625 -10.15625 3.234375 -10.8125 C 3.703125 -11.46875 4.242188 -12.050781 4.859375 -12.5625 C 5.484375 -13.082031 6.179688 -13.488281 6.953125 -13.78125 C 7.046875 -13.8125 7.125 -13.828125 7.1875 -13.828125 C 7.351562 -13.828125 7.492188 -13.78125 7.609375 -13.6875 C 7.734375 -13.59375 7.796875 -13.441406 7.796875 -13.234375 C 7.796875 -13.097656 7.753906 -12.984375 7.671875 -12.890625 C 7.585938 -12.796875 7.476562 -12.722656 7.34375 -12.671875 C 6.800781 -12.441406 6.269531 -12.113281 5.75 -11.6875 C 5.226562 -11.269531 4.742188 -10.785156 4.296875 -10.234375 C 3.847656 -9.679688 3.46875 -9.085938 3.15625 -8.453125 C 2.84375 -7.828125 2.625 -7.1875 2.5 -6.53125 L 2.078125 -6.28125 C 2.304688 -6.707031 2.601562 -7.082031 2.96875 -7.40625 C 3.332031 -7.738281 3.75 -8.003906 4.21875 -8.203125 C 4.6875 -8.398438 5.195312 -8.5 5.75 -8.5 C 6.320312 -8.5 6.851562 -8.375 7.34375 -8.125 C 7.832031 -7.882812 8.25 -7.554688 8.59375 -7.140625 C 8.945312 -6.722656 9.222656 -6.253906 9.421875 -5.734375 C 9.617188 -5.210938 9.71875 -4.671875 9.71875 -4.109375 C 9.71875 -3.347656 9.535156 -2.640625 9.171875 -1.984375 C 8.804688 -1.335938 8.304688 -0.8125 7.671875 -0.40625 C 7.046875 -0.0078125 6.320312 0.1875 5.5 0.1875 Z M 5.484375 -0.921875 C 6.066406 -0.921875 6.585938 -1.050781 7.046875 -1.3125 C 7.515625 -1.582031 7.878906 -1.957031 8.140625 -2.4375 C 8.398438 -2.914062 8.53125 -3.472656 8.53125 -4.109375 C 8.53125 -4.679688 8.414062 -5.210938 8.1875 -5.703125 C 7.96875 -6.191406 7.632812 -6.59375 7.1875 -6.90625 C 6.75 -7.21875 6.207031 -7.375 5.5625 -7.375 C 4.882812 -7.375 4.296875 -7.222656 3.796875 -6.921875 C 3.304688 -6.617188 2.929688 -6.210938 2.671875 -5.703125 C 2.410156 -5.203125 2.28125 -4.648438 2.28125 -4.046875 C 2.28125 -3.503906 2.40625 -2.992188 2.65625 -2.515625 C 2.914062 -2.035156 3.285156 -1.648438 3.765625 -1.359375 C 4.242188 -1.066406 4.816406 -0.921875 5.484375 -0.921875 Z M 5.484375 -0.921875 "/></g></g></g></g></g><g transform="matrix(1, 0, 0, 1, 380, 151)"><g clip-path="url(#fca9768deb)"><g fill="#201f1f" fill-opacity="1"><g transform="translate(0.164203, 19.911028)"><g><path d="M 3.40625 0.0625 C 3.257812 0.0625 3.117188 0.0078125 2.984375 -0.09375 C 2.859375 -0.195312 2.796875 -0.328125 2.796875 -0.484375 C 2.796875 -0.566406 2.816406 -0.660156 2.859375 -0.765625 L 7.953125 -12.484375 L 8.171875 -12.21875 L 1.6875 -12.21875 C 1.53125 -12.21875 1.394531 -12.269531 1.28125 -12.375 C 1.175781 -12.476562 1.125 -12.609375 1.125 -12.765625 C 1.125 -12.929688 1.175781 -13.066406 1.28125 -13.171875 C 1.394531 -13.273438 1.53125 -13.328125 1.6875 -13.328125 L 8.71875 -13.328125 C 8.914062 -13.328125 9.054688 -13.273438 9.140625 -13.171875 C 9.234375 -13.066406 9.28125 -12.9375 9.28125 -12.78125 C 9.28125 -12.6875 9.257812 -12.59375 9.21875 -12.5 L 3.953125 -0.328125 C 3.910156 -0.210938 3.835938 -0.117188 3.734375 -0.046875 C 3.628906 0.0234375 3.519531 0.0625 3.40625 0.0625 Z M 3.40625 0.0625 "/></g></g></g></g></g><g transform="matrix(1, 0, 0, 1, 505, 151)"><g clip-path="url(#c9be97cf79)"><g fill="#201f1f" fill-opacity="1"><g transform="translate(0.982967, 19.911028)"><g><path d="M 6.984375 -6.75 L 6.921875 -6.921875 C 7.359375 -6.753906 7.753906 -6.503906 8.109375 -6.171875 C 8.460938 -5.847656 8.75 -5.46875 8.96875 -5.03125 C 9.1875 -4.59375 9.296875 -4.109375 9.296875 -3.578125 C 9.296875 -2.890625 9.113281 -2.265625 8.75 -1.703125 C 8.382812 -1.140625 7.890625 -0.691406 7.265625 -0.359375 C 6.640625 -0.0234375 5.941406 0.140625 5.171875 0.140625 C 4.390625 0.140625 3.6875 -0.0234375 3.0625 -0.359375 C 2.445312 -0.691406 1.957031 -1.140625 1.59375 -1.703125 C 1.226562 -2.265625 1.046875 -2.890625 1.046875 -3.578125 C 1.046875 -4.140625 1.15625 -4.640625 1.375 -5.078125 C 1.601562 -5.523438 1.898438 -5.898438 2.265625 -6.203125 C 2.628906 -6.515625 3.007812 -6.753906 3.40625 -6.921875 L 3.359375 -6.734375 C 3.015625 -6.898438 2.691406 -7.125 2.390625 -7.40625 C 2.085938 -7.695312 1.835938 -8.039062 1.640625 -8.4375 C 1.453125 -8.84375 1.359375 -9.289062 1.359375 -9.78125 C 1.359375 -10.46875 1.523438 -11.085938 1.859375 -11.640625 C 2.203125 -12.191406 2.664062 -12.625 3.25 -12.9375 C 3.832031 -13.257812 4.472656 -13.421875 5.171875 -13.421875 C 5.878906 -13.421875 6.515625 -13.257812 7.078125 -12.9375 C 7.648438 -12.625 8.101562 -12.191406 8.4375 -11.640625 C 8.78125 -11.085938 8.953125 -10.46875 8.953125 -9.78125 C 8.953125 -9.28125 8.851562 -8.832031 8.65625 -8.4375 C 8.46875 -8.039062 8.21875 -7.695312 7.90625 -7.40625 C 7.601562 -7.125 7.296875 -6.90625 6.984375 -6.75 Z M 2.546875 -9.78125 C 2.546875 -9.269531 2.664062 -8.820312 2.90625 -8.4375 C 3.15625 -8.050781 3.476562 -7.75 3.875 -7.53125 C 4.269531 -7.3125 4.703125 -7.203125 5.171875 -7.203125 C 5.628906 -7.203125 6.054688 -7.3125 6.453125 -7.53125 C 6.859375 -7.75 7.175781 -8.050781 7.40625 -8.4375 C 7.644531 -8.820312 7.765625 -9.269531 7.765625 -9.78125 C 7.765625 -10.53125 7.519531 -11.140625 7.03125 -11.609375 C 6.550781 -12.085938 5.929688 -12.328125 5.171875 -12.328125 C 4.390625 -12.328125 3.753906 -12.085938 3.265625 -11.609375 C 2.785156 -11.140625 2.546875 -10.53125 2.546875 -9.78125 Z M 5.171875 -0.953125 C 6.046875 -0.953125 6.753906 -1.203125 7.296875 -1.703125 C 7.835938 -2.203125 8.109375 -2.828125 8.109375 -3.578125 C 8.109375 -4.097656 7.972656 -4.5625 7.703125 -4.96875 C 7.429688 -5.375 7.070312 -5.691406 6.625 -5.921875 C 6.1875 -6.148438 5.703125 -6.265625 5.171875 -6.265625 C 4.648438 -6.265625 4.164062 -6.148438 3.71875 -5.921875 C 3.269531 -5.691406 2.910156 -5.375 2.640625 -4.96875 C 2.378906 -4.5625 2.25 -4.097656 2.25 -3.578125 C 2.25 -2.828125 2.515625 -2.203125 3.046875 -1.703125 C 3.585938 -1.203125 4.296875 -0.953125 5.171875 -0.953125 Z M 5.171875 -0.953125 "/></g></g></g></g></g><g transform="matrix(1, 0, 0, 1, 631, 151)"><g clip-path="url(#f479fbf91e)"><g fill="#201f1f" fill-opacity="1"><g transform="translate(0.801672, 19.911028)"><g><path d="M 5.3125 -13.625 C 6.0625 -13.625 6.710938 -13.488281 7.265625 -13.21875 C 7.828125 -12.957031 8.285156 -12.597656 8.640625 -12.140625 C 9.003906 -11.691406 9.273438 -11.175781 9.453125 -10.59375 C 9.628906 -10.019531 9.71875 -9.4375 9.71875 -8.84375 C 9.71875 -8.226562 9.632812 -7.570312 9.46875 -6.875 C 9.3125 -6.175781 9.078125 -5.472656 8.765625 -4.765625 C 8.453125 -4.054688 8.0625 -3.378906 7.59375 -2.734375 C 7.132812 -2.097656 6.585938 -1.523438 5.953125 -1.015625 C 5.328125 -0.503906 4.632812 -0.109375 3.875 0.171875 C 3.769531 0.191406 3.6875 0.203125 3.625 0.203125 C 3.46875 0.203125 3.328125 0.148438 3.203125 0.046875 C 3.085938 -0.0546875 3.03125 -0.203125 3.03125 -0.390625 C 3.03125 -0.515625 3.066406 -0.625 3.140625 -0.71875 C 3.222656 -0.8125 3.335938 -0.882812 3.484375 -0.9375 C 4.210938 -1.25 4.914062 -1.707031 5.59375 -2.3125 C 6.269531 -2.914062 6.851562 -3.617188 7.34375 -4.421875 C 7.84375 -5.222656 8.175781 -6.050781 8.34375 -6.90625 L 8.75 -7.15625 C 8.53125 -6.738281 8.234375 -6.363281 7.859375 -6.03125 C 7.484375 -5.707031 7.0625 -5.453125 6.59375 -5.265625 C 6.132812 -5.078125 5.628906 -4.984375 5.078125 -4.984375 C 4.265625 -4.984375 3.5625 -5.179688 2.96875 -5.578125 C 2.375 -5.984375 1.914062 -6.519531 1.59375 -7.1875 C 1.269531 -7.851562 1.109375 -8.570312 1.109375 -9.34375 C 1.109375 -10.09375 1.289062 -10.789062 1.65625 -11.4375 C 2.019531 -12.09375 2.519531 -12.617188 3.15625 -13.015625 C 3.789062 -13.421875 4.507812 -13.625 5.3125 -13.625 Z M 5.34375 -12.515625 C 4.75 -12.515625 4.21875 -12.378906 3.75 -12.109375 C 3.289062 -11.847656 2.929688 -11.476562 2.671875 -11 C 2.410156 -10.519531 2.28125 -9.96875 2.28125 -9.34375 C 2.28125 -8.78125 2.390625 -8.25 2.609375 -7.75 C 2.835938 -7.25 3.175781 -6.847656 3.625 -6.546875 C 4.070312 -6.242188 4.613281 -6.09375 5.25 -6.09375 C 5.9375 -6.09375 6.523438 -6.242188 7.015625 -6.546875 C 7.503906 -6.847656 7.878906 -7.25 8.140625 -7.75 C 8.410156 -8.25 8.546875 -8.796875 8.546875 -9.390625 C 8.546875 -9.941406 8.414062 -10.453125 8.15625 -10.921875 C 7.90625 -11.398438 7.539062 -11.785156 7.0625 -12.078125 C 6.59375 -12.367188 6.019531 -12.515625 5.34375 -12.515625 Z M 5.34375 -12.515625 "/></g></g></g></g></g><g transform="matrix(1, 0, 0, 1, 757, 151)"><g clip-path="url(#7df0fdfa3b)"><g fill="#201f1f" fill-opacity="1"><g transform="translate(0.620435, 19.911028)"><g><path d="M 4.328125 0 C 4.148438 0 4.003906 -0.0546875 3.890625 -0.171875 C 3.773438 -0.285156 3.71875 -0.421875 3.71875 -0.578125 L 3.71875 -12.109375 L 3.9375 -11.921875 L 1.375 -10.21875 C 1.28125 -10.144531 1.171875 -10.109375 1.046875 -10.109375 C 0.898438 -10.109375 0.765625 -10.171875 0.640625 -10.296875 C 0.515625 -10.421875 0.453125 -10.5625 0.453125 -10.71875 C 0.453125 -10.925781 0.554688 -11.085938 0.765625 -11.203125 L 3.96875 -13.328125 C 4.039062 -13.378906 4.117188 -13.410156 4.203125 -13.421875 C 4.285156 -13.429688 4.359375 -13.429688 4.421875 -13.421875 C 4.585938 -13.410156 4.71875 -13.347656 4.8125 -13.234375 C 4.90625 -13.128906 4.953125 -13 4.953125 -12.84375 L 4.953125 -0.578125 C 4.953125 -0.421875 4.890625 -0.285156 4.765625 -0.171875 C 4.648438 -0.0546875 4.503906 0 4.328125 0 Z M 4.328125 0 "/></g></g></g><g fill="#201f1f" fill-opacity="1"><g transform="translate(7.708683, 19.911028)"><g><path d="M 5.6875 0.1875 C 4.664062 0.1875 3.8125 -0.117188 3.125 -0.734375 C 2.4375 -1.347656 1.914062 -2.175781 1.5625 -3.21875 C 1.21875 -4.257812 1.046875 -5.421875 1.046875 -6.703125 C 1.046875 -8.015625 1.21875 -9.191406 1.5625 -10.234375 C 1.914062 -11.273438 2.4375 -12.097656 3.125 -12.703125 C 3.8125 -13.304688 4.664062 -13.609375 5.6875 -13.609375 C 6.738281 -13.609375 7.601562 -13.304688 8.28125 -12.703125 C 8.96875 -12.097656 9.484375 -11.273438 9.828125 -10.234375 C 10.179688 -9.191406 10.359375 -8.015625 10.359375 -6.703125 C 10.359375 -5.421875 10.179688 -4.257812 9.828125 -3.21875 C 9.484375 -2.175781 8.96875 -1.347656 8.28125 -0.734375 C 7.601562 -0.117188 6.738281 0.1875 5.6875 0.1875 Z M 5.6875 -1 C 6.445312 -1 7.078125 -1.234375 7.578125 -1.703125 C 8.085938 -2.179688 8.472656 -2.847656 8.734375 -3.703125 C 8.992188 -4.566406 9.125 -5.566406 9.125 -6.703125 C 9.125 -7.859375 8.992188 -8.867188 8.734375 -9.734375 C 8.472656 -10.597656 8.085938 -11.265625 7.578125 -11.734375 C 7.078125 -12.203125 6.445312 -12.4375 5.6875 -12.4375 C 4.945312 -12.4375 4.320312 -12.203125 3.8125 -11.734375 C 3.3125 -11.265625 2.929688 -10.597656 2.671875 -9.734375 C 2.410156 -8.867188 2.28125 -7.859375 2.28125 -6.703125 C 2.28125 -5.566406 2.410156 -4.566406 2.671875 -3.703125 C 2.929688 -2.847656 3.3125 -2.179688 3.8125 -1.703125 C 4.320312 -1.234375 4.945312 -1 5.6875 -1 Z M 5.6875 -1 "/></g></g></g></g></g><g transform="matrix(1, 0, 0, 1, 2, 301)"><g clip-path="url(#4451303576)"><g fill="#201f1f" fill-opacity="1"><g transform="translate(0.707959, 19.669395)"><g><path d="M 4.328125 0 C 4.148438 0 4.003906 -0.0546875 3.890625 -0.171875 C 3.773438 -0.285156 3.71875 -0.421875 3.71875 -0.578125 L 3.71875 -12.109375 L 3.9375 -11.921875 L 1.375 -10.21875 C 1.28125 -10.144531 1.171875 -10.109375 1.046875 -10.109375 C 0.898438 -10.109375 0.765625 -10.171875 0.640625 -10.296875 C 0.515625 -10.421875 0.453125 -10.5625 0.453125 -10.71875 C 0.453125 -10.925781 0.554688 -11.085938 0.765625 -11.203125 L 3.96875 -13.328125 C 4.039062 -13.378906 4.117188 -13.410156 4.203125 -13.421875 C 4.285156 -13.429688 4.359375 -13.429688 4.421875 -13.421875 C 4.585938 -13.410156 4.71875 -13.347656 4.8125 -13.234375 C 4.90625 -13.128906 4.953125 -13 4.953125 -12.84375 L 4.953125 -0.578125 C 4.953125 -0.421875 4.890625 -0.285156 4.765625 -0.171875 C 4.648438 -0.0546875 4.503906 0 4.328125 0 Z M 4.328125 0 "/></g></g></g><g fill="#201f1f" fill-opacity="1"><g transform="translate(7.796207, 19.669395)"><g><path d="M 4.328125 0 C 4.148438 0 4.003906 -0.0546875 3.890625 -0.171875 C 3.773438 -0.285156 3.71875 -0.421875 3.71875 -0.578125 L 3.71875 -12.109375 L 3.9375 -11.921875 L 1.375 -10.21875 C 1.28125 -10.144531 1.171875 -10.109375 1.046875 -10.109375 C 0.898438 -10.109375 0.765625 -10.171875 0.640625 -10.296875 C 0.515625 -10.421875 0.453125 -10.5625 0.453125 -10.71875 C 0.453125 -10.925781 0.554688 -11.085938 0.765625 -11.203125 L 3.96875 -13.328125 C 4.039062 -13.378906 4.117188 -13.410156 4.203125 -13.421875 C 4.285156 -13.429688 4.359375 -13.429688 4.421875 -13.421875 C 4.585938 -13.410156 4.71875 -13.347656 4.8125 -13.234375 C 4.90625 -13.128906 4.953125 -13 4.953125 -12.84375 L 4.953125 -0.578125 C 4.953125 -0.421875 4.890625 -0.285156 4.765625 -0.171875 C 4.648438 -0.0546875 4.503906 0 4.328125 0 Z M 4.328125 0 "/></g></g></g></g></g><g transform="matrix(1, 0, 0, 1, 128, 301)"><g clip-path="url(#3785f00bb1)"><g clip-path="url(#6419017d80)"><g fill="#201f1f" fill-opacity="1"><g transform="translate(0.526706, 19.669395)"><g><path d="M 4.328125 0 C 4.148438 0 4.003906 -0.0546875 3.890625 -0.171875 C 3.773438 -0.285156 3.71875 -0.421875 3.71875 -0.578125 L 3.71875 -12.109375 L 3.9375 -11.921875 L 1.375 -10.21875 C 1.28125 -10.144531 1.171875 -10.109375 1.046875 -10.109375 C 0.898438 -10.109375 0.765625 -10.171875 0.640625 -10.296875 C 0.515625 -10.421875 0.453125 -10.5625 0.453125 -10.71875 C 0.453125 -10.925781 0.554688 -11.085938 0.765625 -11.203125 L 3.96875 -13.328125 C 4.039062 -13.378906 4.117188 -13.410156 4.203125 -13.421875 C 4.285156 -13.429688 4.359375 -13.429688 4.421875 -13.421875 C 4.585938 -13.410156 4.71875 -13.347656 4.8125 -13.234375 C 4.90625 -13.128906 4.953125 -13 4.953125 -12.84375 L 4.953125 -0.578125 C 4.953125 -0.421875 4.890625 -0.285156 4.765625 -0.171875 C 4.648438 -0.0546875 4.503906 0 4.328125 0 Z M 4.328125 0 "/></g></g></g></g><g fill="#201f1f" fill-opacity="1"><g transform="translate(7.614954, 19.669395)"><g><path d="M 9.09375 -1.109375 C 9.238281 -1.109375 9.363281 -1.050781 9.46875 -0.9375 C 9.582031 -0.832031 9.640625 -0.707031 9.640625 -0.5625 C 9.640625 -0.394531 9.582031 -0.257812 9.46875 -0.15625 C 9.363281 -0.0507812 9.238281 0 9.09375 0 L 1.890625 0 C 1.734375 0 1.59375 -0.046875 1.46875 -0.140625 C 1.34375 -0.234375 1.28125 -0.378906 1.28125 -0.578125 C 1.28125 -0.710938 1.332031 -0.847656 1.4375 -0.984375 L 5.859375 -5.859375 C 6.566406 -6.628906 7.09375 -7.335938 7.4375 -7.984375 C 7.789062 -8.628906 7.96875 -9.207031 7.96875 -9.71875 C 7.96875 -10.5625 7.710938 -11.238281 7.203125 -11.75 C 6.691406 -12.257812 6.003906 -12.515625 5.140625 -12.515625 C 4.742188 -12.515625 4.347656 -12.429688 3.953125 -12.265625 C 3.566406 -12.097656 3.222656 -11.878906 2.921875 -11.609375 C 2.617188 -11.347656 2.382812 -11.046875 2.21875 -10.703125 C 2.144531 -10.566406 2.066406 -10.472656 1.984375 -10.421875 C 1.898438 -10.378906 1.804688 -10.359375 1.703125 -10.359375 C 1.546875 -10.359375 1.410156 -10.40625 1.296875 -10.5 C 1.179688 -10.59375 1.125 -10.707031 1.125 -10.84375 C 1.125 -10.9375 1.144531 -11.023438 1.1875 -11.109375 C 1.238281 -11.203125 1.3125 -11.304688 1.40625 -11.421875 C 1.632812 -11.816406 1.953125 -12.179688 2.359375 -12.515625 C 2.765625 -12.847656 3.21875 -13.113281 3.71875 -13.3125 C 4.226562 -13.507812 4.726562 -13.609375 5.21875 -13.609375 C 6.03125 -13.609375 6.734375 -13.453125 7.328125 -13.140625 C 7.921875 -12.828125 8.378906 -12.382812 8.703125 -11.8125 C 9.035156 -11.25 9.203125 -10.578125 9.203125 -9.796875 C 9.203125 -9.128906 8.992188 -8.398438 8.578125 -7.609375 C 8.160156 -6.828125 7.546875 -5.984375 6.734375 -5.078125 L 2.984375 -0.875 L 2.796875 -1.109375 Z M 9.09375 -1.109375 "/></g></g></g></g></g><g transform="matrix(1, 0, 0, 1, 254, 301)"><g clip-path="url(#2b53e86695)"><g clip-path="url(#666e731452)"><g fill="#201f1f" fill-opacity="1"><g transform="translate(0.345469, 19.669395)"><g><path d="M 4.328125 0 C 4.148438 0 4.003906 -0.0546875 3.890625 -0.171875 C 3.773438 -0.285156 3.71875 -0.421875 3.71875 -0.578125 L 3.71875 -12.109375 L 3.9375 -11.921875 L 1.375 -10.21875 C 1.28125 -10.144531 1.171875 -10.109375 1.046875 -10.109375 C 0.898438 -10.109375 0.765625 -10.171875 0.640625 -10.296875 C 0.515625 -10.421875 0.453125 -10.5625 0.453125 -10.71875 C 0.453125 -10.925781 0.554688 -11.085938 0.765625 -11.203125 L 3.96875 -13.328125 C 4.039062 -13.378906 4.117188 -13.410156 4.203125 -13.421875 C 4.285156 -13.429688 4.359375 -13.429688 4.421875 -13.421875 C 4.585938 -13.410156 4.71875 -13.347656 4.8125 -13.234375 C 4.90625 -13.128906 4.953125 -13 4.953125 -12.84375 L 4.953125 -0.578125 C 4.953125 -0.421875 4.890625 -0.285156 4.765625 -0.171875 C 4.648438 -0.0546875 4.503906 0 4.328125 0 Z M 4.328125 0 "/></g></g></g></g><g fill="#201f1f" fill-opacity="1"><g transform="translate(7.433717, 19.669395)"><g><path d="M 1.703125 -1.96875 C 1.765625 -1.96875 1.832031 -1.953125 1.90625 -1.921875 C 1.976562 -1.898438 2.066406 -1.847656 2.171875 -1.765625 C 2.429688 -1.484375 2.75 -1.269531 3.125 -1.125 C 3.5 -0.976562 3.921875 -0.90625 4.390625 -0.90625 C 5.015625 -0.90625 5.582031 -1.046875 6.09375 -1.328125 C 6.613281 -1.609375 7.023438 -2 7.328125 -2.5 C 7.640625 -3.007812 7.796875 -3.585938 7.796875 -4.234375 C 7.796875 -4.972656 7.632812 -5.566406 7.3125 -6.015625 C 6.988281 -6.472656 6.570312 -6.8125 6.0625 -7.03125 C 5.5625 -7.257812 5.050781 -7.375 4.53125 -7.375 C 4.382812 -7.375 4.242188 -7.363281 4.109375 -7.34375 C 3.972656 -7.332031 3.847656 -7.3125 3.734375 -7.28125 C 3.617188 -7.257812 3.53125 -7.25 3.46875 -7.25 C 3.300781 -7.25 3.171875 -7.300781 3.078125 -7.40625 C 2.992188 -7.519531 2.953125 -7.660156 2.953125 -7.828125 C 2.953125 -7.910156 2.96875 -7.988281 3 -8.0625 C 3.039062 -8.132812 3.09375 -8.210938 3.15625 -8.296875 L 7.0625 -12.53125 L 7.28125 -12.234375 L 1.46875 -12.234375 C 1.320312 -12.234375 1.191406 -12.285156 1.078125 -12.390625 C 0.972656 -12.503906 0.921875 -12.632812 0.921875 -12.78125 C 0.921875 -12.9375 0.972656 -13.066406 1.078125 -13.171875 C 1.191406 -13.273438 1.320312 -13.328125 1.46875 -13.328125 L 7.921875 -13.328125 C 8.140625 -13.328125 8.289062 -13.257812 8.375 -13.125 C 8.46875 -12.988281 8.515625 -12.859375 8.515625 -12.734375 C 8.515625 -12.648438 8.492188 -12.570312 8.453125 -12.5 C 8.410156 -12.4375 8.359375 -12.367188 8.296875 -12.296875 L 4.40625 -8.046875 L 3.984375 -8.296875 C 4.023438 -8.335938 4.15625 -8.378906 4.375 -8.421875 C 4.601562 -8.472656 4.78125 -8.5 4.90625 -8.5 C 5.613281 -8.5 6.273438 -8.332031 6.890625 -8 C 7.515625 -7.664062 8.019531 -7.1875 8.40625 -6.5625 C 8.789062 -5.945312 8.984375 -5.1875 8.984375 -4.28125 C 8.984375 -3.382812 8.769531 -2.597656 8.34375 -1.921875 C 7.925781 -1.253906 7.359375 -0.734375 6.640625 -0.359375 C 5.929688 0.00390625 5.144531 0.1875 4.28125 0.1875 C 3.75 0.1875 3.226562 0.0976562 2.71875 -0.078125 C 2.207031 -0.253906 1.757812 -0.519531 1.375 -0.875 C 1.289062 -0.957031 1.226562 -1.035156 1.1875 -1.109375 C 1.144531 -1.191406 1.125 -1.269531 1.125 -1.34375 C 1.125 -1.5 1.175781 -1.640625 1.28125 -1.765625 C 1.394531 -1.898438 1.535156 -1.96875 1.703125 -1.96875 Z M 1.703125 -1.96875 "/></g></g></g></g></g><g transform="matrix(1, 0, 0, 1, 380, 301)"><g clip-path="url(#e0a3771e23)"><g clip-path="url(#589bc94751)"><g fill="#201f1f" fill-opacity="1"><g transform="translate(0.164203, 19.669395)"><g><path d="M 4.328125 0 C 4.148438 0 4.003906 -0.0546875 3.890625 -0.171875 C 3.773438 -0.285156 3.71875 -0.421875 3.71875 -0.578125 L 3.71875 -12.109375 L 3.9375 -11.921875 L 1.375 -10.21875 C 1.28125 -10.144531 1.171875 -10.109375 1.046875 -10.109375 C 0.898438 -10.109375 0.765625 -10.171875 0.640625 -10.296875 C 0.515625 -10.421875 0.453125 -10.5625 0.453125 -10.71875 C 0.453125 -10.925781 0.554688 -11.085938 0.765625 -11.203125 L 3.96875 -13.328125 C 4.039062 -13.378906 4.117188 -13.410156 4.203125 -13.421875 C 4.285156 -13.429688 4.359375 -13.429688 4.421875 -13.421875 C 4.585938 -13.410156 4.71875 -13.347656 4.8125 -13.234375 C 4.90625 -13.128906 4.953125 -13 4.953125 -12.84375 L 4.953125 -0.578125 C 4.953125 -0.421875 4.890625 -0.285156 4.765625 -0.171875 C 4.648438 -0.0546875 4.503906 0 4.328125 0 Z M 4.328125 0 "/></g></g></g></g><g fill="#201f1f" fill-opacity="1"><g transform="translate(7.252451, 19.669395)"><g><path d="M 7.03125 0 C 6.863281 0 6.726562 -0.0546875 6.625 -0.171875 C 6.53125 -0.285156 6.484375 -0.421875 6.484375 -0.578125 L 6.484375 -11.828125 L 6.734375 -11.671875 L 1.6875 -5 L 1.625 -5.21875 L 8.984375 -5.21875 C 9.140625 -5.21875 9.269531 -5.164062 9.375 -5.0625 C 9.488281 -4.957031 9.546875 -4.828125 9.546875 -4.671875 C 9.546875 -4.523438 9.488281 -4.398438 9.375 -4.296875 C 9.269531 -4.191406 9.140625 -4.140625 8.984375 -4.140625 L 0.84375 -4.140625 C 0.6875 -4.140625 0.550781 -4.195312 0.4375 -4.3125 C 0.320312 -4.4375 0.265625 -4.578125 0.265625 -4.734375 C 0.265625 -4.878906 0.3125 -5.007812 0.40625 -5.125 L 6.578125 -13.1875 C 6.640625 -13.28125 6.71875 -13.34375 6.8125 -13.375 C 6.90625 -13.40625 6.988281 -13.421875 7.0625 -13.421875 C 7.21875 -13.421875 7.347656 -13.363281 7.453125 -13.25 C 7.566406 -13.132812 7.625 -13 7.625 -12.84375 L 7.625 -0.578125 C 7.625 -0.421875 7.566406 -0.285156 7.453125 -0.171875 C 7.335938 -0.0546875 7.195312 0 7.03125 0 Z M 7.03125 0 "/></g></g></g></g></g><g transform="matrix(1, 0, 0, 1, 505, 301)"><g clip-path="url(#ca208d0d64)"><g fill="#201f1f" fill-opacity="1"><g transform="translate(0.982967, 19.669395)"><g><path d="M 4.328125 0 C 4.148438 0 4.003906 -0.0546875 3.890625 -0.171875 C 3.773438 -0.285156 3.71875 -0.421875 3.71875 -0.578125 L 3.71875 -12.109375 L 3.9375 -11.921875 L 1.375 -10.21875 C 1.28125 -10.144531 1.171875 -10.109375 1.046875 -10.109375 C 0.898438 -10.109375 0.765625 -10.171875 0.640625 -10.296875 C 0.515625 -10.421875 0.453125 -10.5625 0.453125 -10.71875 C 0.453125 -10.925781 0.554688 -11.085938 0.765625 -11.203125 L 3.96875 -13.328125 C 4.039062 -13.378906 4.117188 -13.410156 4.203125 -13.421875 C 4.285156 -13.429688 4.359375 -13.429688 4.421875 -13.421875 C 4.585938 -13.410156 4.71875 -13.347656 4.8125 -13.234375 C 4.90625 -13.128906 4.953125 -13 4.953125 -12.84375 L 4.953125 -0.578125 C 4.953125 -0.421875 4.890625 -0.285156 4.765625 -0.171875 C 4.648438 -0.0546875 4.503906 0 4.328125 0 Z M 4.328125 0 "/></g></g></g><g fill="#201f1f" fill-opacity="1"><g transform="translate(8.071214, 19.669395)"><g><path d="M 4.484375 0.03125 C 3.960938 0.03125 3.4375 -0.0507812 2.90625 -0.21875 C 2.375 -0.394531 1.90625 -0.65625 1.5 -1 C 1.414062 -1.0625 1.351562 -1.132812 1.3125 -1.21875 C 1.269531 -1.3125 1.25 -1.40625 1.25 -1.5 C 1.25 -1.625 1.296875 -1.742188 1.390625 -1.859375 C 1.492188 -1.984375 1.628906 -2.046875 1.796875 -2.046875 C 1.941406 -2.046875 2.082031 -1.988281 2.21875 -1.875 C 2.550781 -1.625 2.910156 -1.425781 3.296875 -1.28125 C 3.691406 -1.144531 4.085938 -1.078125 4.484375 -1.078125 C 5.242188 -1.078125 5.898438 -1.21875 6.453125 -1.5 C 7.015625 -1.789062 7.445312 -2.203125 7.75 -2.734375 C 8.0625 -3.265625 8.21875 -3.878906 8.21875 -4.578125 C 8.21875 -5.234375 8.078125 -5.800781 7.796875 -6.28125 C 7.515625 -6.757812 7.113281 -7.132812 6.59375 -7.40625 C 6.082031 -7.6875 5.476562 -7.828125 4.78125 -7.828125 C 4.3125 -7.828125 3.890625 -7.753906 3.515625 -7.609375 C 3.140625 -7.472656 2.8125 -7.328125 2.53125 -7.171875 C 2.257812 -7.023438 2.039062 -6.953125 1.875 -6.953125 C 1.726562 -6.953125 1.601562 -6.988281 1.5 -7.0625 C 1.40625 -7.144531 1.34375 -7.242188 1.3125 -7.359375 C 1.28125 -7.472656 1.273438 -7.59375 1.296875 -7.71875 L 2.125 -12.84375 C 2.132812 -12.957031 2.191406 -13.0625 2.296875 -13.15625 C 2.410156 -13.257812 2.550781 -13.3125 2.71875 -13.3125 L 8.5 -13.3125 C 8.644531 -13.3125 8.769531 -13.253906 8.875 -13.140625 C 8.988281 -13.035156 9.046875 -12.90625 9.046875 -12.75 C 9.046875 -12.582031 8.988281 -12.441406 8.875 -12.328125 C 8.769531 -12.222656 8.644531 -12.171875 8.5 -12.171875 L 2.984375 -12.171875 L 3.15625 -12.34375 L 2.375 -7.796875 L 2.03125 -8.046875 C 2.195312 -8.179688 2.4375 -8.3125 2.75 -8.4375 C 3.0625 -8.5625 3.410156 -8.671875 3.796875 -8.765625 C 4.191406 -8.867188 4.609375 -8.921875 5.046875 -8.921875 C 5.867188 -8.921875 6.609375 -8.738281 7.265625 -8.375 C 7.921875 -8.007812 8.4375 -7.503906 8.8125 -6.859375 C 9.1875 -6.210938 9.375 -5.46875 9.375 -4.625 C 9.375 -3.6875 9.171875 -2.867188 8.765625 -2.171875 C 8.367188 -1.472656 7.804688 -0.929688 7.078125 -0.546875 C 6.347656 -0.160156 5.484375 0.03125 4.484375 0.03125 Z M 4.484375 0.03125 "/></g></g></g></g></g><g transform="matrix(1, 0, 0, 1, 631, 301)"><g clip-path="url(#fb8ba7ec0e)"><g fill="#201f1f" fill-opacity="1"><g transform="translate(0.801672, 19.669395)"><g><path d="M 4.328125 0 C 4.148438 0 4.003906 -0.0546875 3.890625 -0.171875 C 3.773438 -0.285156 3.71875 -0.421875 3.71875 -0.578125 L 3.71875 -12.109375 L 3.9375 -11.921875 L 1.375 -10.21875 C 1.28125 -10.144531 1.171875 -10.109375 1.046875 -10.109375 C 0.898438 -10.109375 0.765625 -10.171875 0.640625 -10.296875 C 0.515625 -10.421875 0.453125 -10.5625 0.453125 -10.71875 C 0.453125 -10.925781 0.554688 -11.085938 0.765625 -11.203125 L 3.96875 -13.328125 C 4.039062 -13.378906 4.117188 -13.410156 4.203125 -13.421875 C 4.285156 -13.429688 4.359375 -13.429688 4.421875 -13.421875 C 4.585938 -13.410156 4.71875 -13.347656 4.8125 -13.234375 C 4.90625 -13.128906 4.953125 -13 4.953125 -12.84375 L 4.953125 -0.578125 C 4.953125 -0.421875 4.890625 -0.285156 4.765625 -0.171875 C 4.648438 -0.0546875 4.503906 0 4.328125 0 Z M 4.328125 0 "/></g></g></g><g fill="#201f1f" fill-opacity="1"><g transform="translate(7.889919, 19.669395)"><g><path d="M 5.5 0.1875 C 4.757812 0.1875 4.109375 0.0546875 3.546875 -0.203125 C 2.992188 -0.472656 2.535156 -0.832031 2.171875 -1.28125 C 1.804688 -1.738281 1.535156 -2.253906 1.359375 -2.828125 C 1.191406 -3.410156 1.109375 -4 1.109375 -4.59375 C 1.109375 -5.207031 1.1875 -5.867188 1.34375 -6.578125 C 1.5 -7.296875 1.734375 -8.015625 2.046875 -8.734375 C 2.367188 -9.460938 2.765625 -10.15625 3.234375 -10.8125 C 3.703125 -11.46875 4.242188 -12.050781 4.859375 -12.5625 C 5.484375 -13.082031 6.179688 -13.488281 6.953125 -13.78125 C 7.046875 -13.8125 7.125 -13.828125 7.1875 -13.828125 C 7.351562 -13.828125 7.492188 -13.78125 7.609375 -13.6875 C 7.734375 -13.59375 7.796875 -13.441406 7.796875 -13.234375 C 7.796875 -13.097656 7.753906 -12.984375 7.671875 -12.890625 C 7.585938 -12.796875 7.476562 -12.722656 7.34375 -12.671875 C 6.800781 -12.441406 6.269531 -12.113281 5.75 -11.6875 C 5.226562 -11.269531 4.742188 -10.785156 4.296875 -10.234375 C 3.847656 -9.679688 3.46875 -9.085938 3.15625 -8.453125 C 2.84375 -7.828125 2.625 -7.1875 2.5 -6.53125 L 2.078125 -6.28125 C 2.304688 -6.707031 2.601562 -7.082031 2.96875 -7.40625 C 3.332031 -7.738281 3.75 -8.003906 4.21875 -8.203125 C 4.6875 -8.398438 5.195312 -8.5 5.75 -8.5 C 6.320312 -8.5 6.851562 -8.375 7.34375 -8.125 C 7.832031 -7.882812 8.25 -7.554688 8.59375 -7.140625 C 8.945312 -6.722656 9.222656 -6.253906 9.421875 -5.734375 C 9.617188 -5.210938 9.71875 -4.671875 9.71875 -4.109375 C 9.71875 -3.347656 9.535156 -2.640625 9.171875 -1.984375 C 8.804688 -1.335938 8.304688 -0.8125 7.671875 -0.40625 C 7.046875 -0.0078125 6.320312 0.1875 5.5 0.1875 Z M 5.484375 -0.921875 C 6.066406 -0.921875 6.585938 -1.050781 7.046875 -1.3125 C 7.515625 -1.582031 7.878906 -1.957031 8.140625 -2.4375 C 8.398438 -2.914062 8.53125 -3.472656 8.53125 -4.109375 C 8.53125 -4.679688 8.414062 -5.210938 8.1875 -5.703125 C 7.96875 -6.191406 7.632812 -6.59375 7.1875 -6.90625 C 6.75 -7.21875 6.207031 -7.375 5.5625 -7.375 C 4.882812 -7.375 4.296875 -7.222656 3.796875 -6.921875 C 3.304688 -6.617188 2.929688 -6.210938 2.671875 -5.703125 C 2.410156 -5.203125 2.28125 -4.648438 2.28125 -4.046875 C 2.28125 -3.503906 2.40625 -2.992188 2.65625 -2.515625 C 2.914062 -2.035156 3.285156 -1.648438 3.765625 -1.359375 C 4.242188 -1.066406 4.816406 -0.921875 5.484375 -0.921875 Z M 5.484375 -0.921875 "/></g></g></g></g></g><g transform="matrix(1, 0, 0, 1, 757, 301)"><g clip-path="url(#95ca1151ad)"><g fill="#201f1f" fill-opacity="1"><g transform="translate(0.620435, 19.669395)"><g><path d="M 4.328125 0 C 4.148438 0 4.003906 -0.0546875 3.890625 -0.171875 C 3.773438 -0.285156 3.71875 -0.421875 3.71875 -0.578125 L 3.71875 -12.109375 L 3.9375 -11.921875 L 1.375 -10.21875 C 1.28125 -10.144531 1.171875 -10.109375 1.046875 -10.109375 C 0.898438 -10.109375 0.765625 -10.171875 0.640625 -10.296875 C 0.515625 -10.421875 0.453125 -10.5625 0.453125 -10.71875 C 0.453125 -10.925781 0.554688 -11.085938 0.765625 -11.203125 L 3.96875 -13.328125 C 4.039062 -13.378906 4.117188 -13.410156 4.203125 -13.421875 C 4.285156 -13.429688 4.359375 -13.429688 4.421875 -13.421875 C 4.585938 -13.410156 4.71875 -13.347656 4.8125 -13.234375 C 4.90625 -13.128906 4.953125 -13 4.953125 -12.84375 L 4.953125 -0.578125 C 4.953125 -0.421875 4.890625 -0.285156 4.765625 -0.171875 C 4.648438 -0.0546875 4.503906 0 4.328125 0 Z M 4.328125 0 "/></g></g></g><g fill="#201f1f" fill-opacity="1"><g transform="translate(7.708683, 19.669395)"><g><path d="M 3.40625 0.0625 C 3.257812 0.0625 3.117188 0.0078125 2.984375 -0.09375 C 2.859375 -0.195312 2.796875 -0.328125 2.796875 -0.484375 C 2.796875 -0.566406 2.816406 -0.660156 2.859375 -0.765625 L 7.953125 -12.484375 L 8.171875 -12.21875 L 1.6875 -12.21875 C 1.53125 -12.21875 1.394531 -12.269531 1.28125 -12.375 C 1.175781 -12.476562 1.125 -12.609375 1.125 -12.765625 C 1.125 -12.929688 1.175781 -13.066406 1.28125 -13.171875 C 1.394531 -13.273438 1.53125 -13.328125 1.6875 -13.328125 L 8.71875 -13.328125 C 8.914062 -13.328125 9.054688 -13.273438 9.140625 -13.171875 C 9.234375 -13.066406 9.28125 -12.9375 9.28125 -12.78125 C 9.28125 -12.6875 9.257812 -12.59375 9.21875 -12.5 L 3.953125 -0.328125 C 3.910156 -0.210938 3.835938 -0.117188 3.734375 -0.046875 C 3.628906 0.0234375 3.519531 0.0625 3.40625 0.0625 Z M 3.40625 0.0625 "/></g></g></g></g></g><g clip-path="url(#cc0130728b)"><g transform="matrix(1, 0, 0, 1, 2, 450)"><g clip-path="url(#6376b38645)"><g fill="#201f1f" fill-opacity="1"><g transform="translate(0.707959, 20.427982)"><g><path d="M 4.328125 0 C 4.148438 0 4.003906 -0.0546875 3.890625 -0.171875 C 3.773438 -0.285156 3.71875 -0.421875 3.71875 -0.578125 L 3.71875 -12.109375 L 3.9375 -11.921875 L 1.375 -10.21875 C 1.28125 -10.144531 1.171875 -10.109375 1.046875 -10.109375 C 0.898438 -10.109375 0.765625 -10.171875 0.640625 -10.296875 C 0.515625 -10.421875 0.453125 -10.5625 0.453125 -10.71875 C 0.453125 -10.925781 0.554688 -11.085938 0.765625 -11.203125 L 3.96875 -13.328125 C 4.039062 -13.378906 4.117188 -13.410156 4.203125 -13.421875 C 4.285156 -13.429688 4.359375 -13.429688 4.421875 -13.421875 C 4.585938 -13.410156 4.71875 -13.347656 4.8125 -13.234375 C 4.90625 -13.128906 4.953125 -13 4.953125 -12.84375 L 4.953125 -0.578125 C 4.953125 -0.421875 4.890625 -0.285156 4.765625 -0.171875 C 4.648438 -0.0546875 4.503906 0 4.328125 0 Z M 4.328125 0 "/></g></g></g><g fill="#201f1f" fill-opacity="1"><g transform="translate(7.796207, 20.427982)"><g><path d="M 6.984375 -6.75 L 6.921875 -6.921875 C 7.359375 -6.753906 7.753906 -6.503906 8.109375 -6.171875 C 8.460938 -5.847656 8.75 -5.46875 8.96875 -5.03125 C 9.1875 -4.59375 9.296875 -4.109375 9.296875 -3.578125 C 9.296875 -2.890625 9.113281 -2.265625 8.75 -1.703125 C 8.382812 -1.140625 7.890625 -0.691406 7.265625 -0.359375 C 6.640625 -0.0234375 5.941406 0.140625 5.171875 0.140625 C 4.390625 0.140625 3.6875 -0.0234375 3.0625 -0.359375 C 2.445312 -0.691406 1.957031 -1.140625 1.59375 -1.703125 C 1.226562 -2.265625 1.046875 -2.890625 1.046875 -3.578125 C 1.046875 -4.140625 1.15625 -4.640625 1.375 -5.078125 C 1.601562 -5.523438 1.898438 -5.898438 2.265625 -6.203125 C 2.628906 -6.515625 3.007812 -6.753906 3.40625 -6.921875 L 3.359375 -6.734375 C 3.015625 -6.898438 2.691406 -7.125 2.390625 -7.40625 C 2.085938 -7.695312 1.835938 -8.039062 1.640625 -8.4375 C 1.453125 -8.84375 1.359375 -9.289062 1.359375 -9.78125 C 1.359375 -10.46875 1.523438 -11.085938 1.859375 -11.640625 C 2.203125 -12.191406 2.664062 -12.625 3.25 -12.9375 C 3.832031 -13.257812 4.472656 -13.421875 5.171875 -13.421875 C 5.878906 -13.421875 6.515625 -13.257812 7.078125 -12.9375 C 7.648438 -12.625 8.101562 -12.191406 8.4375 -11.640625 C 8.78125 -11.085938 8.953125 -10.46875 8.953125 -9.78125 C 8.953125 -9.28125 8.851562 -8.832031 8.65625 -8.4375 C 8.46875 -8.039062 8.21875 -7.695312 7.90625 -7.40625 C 7.601562 -7.125 7.296875 -6.90625 6.984375 -6.75 Z M 2.546875 -9.78125 C 2.546875 -9.269531 2.664062 -8.820312 2.90625 -8.4375 C 3.15625 -8.050781 3.476562 -7.75 3.875 -7.53125 C 4.269531 -7.3125 4.703125 -7.203125 5.171875 -7.203125 C 5.628906 -7.203125 6.054688 -7.3125 6.453125 -7.53125 C 6.859375 -7.75 7.175781 -8.050781 7.40625 -8.4375 C 7.644531 -8.820312 7.765625 -9.269531 7.765625 -9.78125 C 7.765625 -10.53125 7.519531 -11.140625 7.03125 -11.609375 C 6.550781 -12.085938 5.929688 -12.328125 5.171875 -12.328125 C 4.390625 -12.328125 3.753906 -12.085938 3.265625 -11.609375 C 2.785156 -11.140625 2.546875 -10.53125 2.546875 -9.78125 Z M 5.171875 -0.953125 C 6.046875 -0.953125 6.753906 -1.203125 7.296875 -1.703125 C 7.835938 -2.203125 8.109375 -2.828125 8.109375 -3.578125 C 8.109375 -4.097656 7.972656 -4.5625 7.703125 -4.96875 C 7.429688 -5.375 7.070312 -5.691406 6.625 -5.921875 C 6.1875 -6.148438 5.703125 -6.265625 5.171875 -6.265625 C 4.648438 -6.265625 4.164062 -6.148438 3.71875 -5.921875 C 3.269531 -5.691406 2.910156 -5.375 2.640625 -4.96875 C 2.378906 -4.5625 2.25 -4.097656 2.25 -3.578125 C 2.25 -2.828125 2.515625 -2.203125 3.046875 -1.703125 C 3.585938 -1.203125 4.296875 -0.953125 5.171875 -0.953125 Z M 5.171875 -0.953125 "/></g></g></g></g></g></g><g clip-path="url(#0600a5a098)"><g transform="matrix(1, 0, 0, 1, 128, 450)"><g clip-path="url(#28d11e66c0)"><g clip-path="url(#5b2d79f3ee)"><g fill="#201f1f" fill-opacity="1"><g transform="translate(0.526706, 20.427982)"><g><path d="M 4.328125 0 C 4.148438 0 4.003906 -0.0546875 3.890625 -0.171875 C 3.773438 -0.285156 3.71875 -0.421875 3.71875 -0.578125 L 3.71875 -12.109375 L 3.9375 -11.921875 L 1.375 -10.21875 C 1.28125 -10.144531 1.171875 -10.109375 1.046875 -10.109375 C 0.898438 -10.109375 0.765625 -10.171875 0.640625 -10.296875 C 0.515625 -10.421875 0.453125 -10.5625 0.453125 -10.71875 C 0.453125 -10.925781 0.554688 -11.085938 0.765625 -11.203125 L 3.96875 -13.328125 C 4.039062 -13.378906 4.117188 -13.410156 4.203125 -13.421875 C 4.285156 -13.429688 4.359375 -13.429688 4.421875 -13.421875 C 4.585938 -13.410156 4.71875 -13.347656 4.8125 -13.234375 C 4.90625 -13.128906 4.953125 -13 4.953125 -12.84375 L 4.953125 -0.578125 C 4.953125 -0.421875 4.890625 -0.285156 4.765625 -0.171875 C 4.648438 -0.0546875 4.503906 0 4.328125 0 Z M 4.328125 0 "/></g></g></g></g><g fill="#201f1f" fill-opacity="1"><g transform="translate(7.614954, 20.427982)"><g><path d="M 5.3125 -13.625 C 6.0625 -13.625 6.710938 -13.488281 7.265625 -13.21875 C 7.828125 -12.957031 8.285156 -12.597656 8.640625 -12.140625 C 9.003906 -11.691406 9.273438 -11.175781 9.453125 -10.59375 C 9.628906 -10.019531 9.71875 -9.4375 9.71875 -8.84375 C 9.71875 -8.226562 9.632812 -7.570312 9.46875 -6.875 C 9.3125 -6.175781 9.078125 -5.472656 8.765625 -4.765625 C 8.453125 -4.054688 8.0625 -3.378906 7.59375 -2.734375 C 7.132812 -2.097656 6.585938 -1.523438 5.953125 -1.015625 C 5.328125 -0.503906 4.632812 -0.109375 3.875 0.171875 C 3.769531 0.191406 3.6875 0.203125 3.625 0.203125 C 3.46875 0.203125 3.328125 0.148438 3.203125 0.046875 C 3.085938 -0.0546875 3.03125 -0.203125 3.03125 -0.390625 C 3.03125 -0.515625 3.066406 -0.625 3.140625 -0.71875 C 3.222656 -0.8125 3.335938 -0.882812 3.484375 -0.9375 C 4.210938 -1.25 4.914062 -1.707031 5.59375 -2.3125 C 6.269531 -2.914062 6.851562 -3.617188 7.34375 -4.421875 C 7.84375 -5.222656 8.175781 -6.050781 8.34375 -6.90625 L 8.75 -7.15625 C 8.53125 -6.738281 8.234375 -6.363281 7.859375 -6.03125 C 7.484375 -5.707031 7.0625 -5.453125 6.59375 -5.265625 C 6.132812 -5.078125 5.628906 -4.984375 5.078125 -4.984375 C 4.265625 -4.984375 3.5625 -5.179688 2.96875 -5.578125 C 2.375 -5.984375 1.914062 -6.519531 1.59375 -7.1875 C 1.269531 -7.851562 1.109375 -8.570312 1.109375 -9.34375 C 1.109375 -10.09375 1.289062 -10.789062 1.65625 -11.4375 C 2.019531 -12.09375 2.519531 -12.617188 3.15625 -13.015625 C 3.789062 -13.421875 4.507812 -13.625 5.3125 -13.625 Z M 5.34375 -12.515625 C 4.75 -12.515625 4.21875 -12.378906 3.75 -12.109375 C 3.289062 -11.847656 2.929688 -11.476562 2.671875 -11 C 2.410156 -10.519531 2.28125 -9.96875 2.28125 -9.34375 C 2.28125 -8.78125 2.390625 -8.25 2.609375 -7.75 C 2.835938 -7.25 3.175781 -6.847656 3.625 -6.546875 C 4.070312 -6.242188 4.613281 -6.09375 5.25 -6.09375 C 5.9375 -6.09375 6.523438 -6.242188 7.015625 -6.546875 C 7.503906 -6.847656 7.878906 -7.25 8.140625 -7.75 C 8.410156 -8.25 8.546875 -8.796875 8.546875 -9.390625 C 8.546875 -9.941406 8.414062 -10.453125 8.15625 -10.921875 C 7.90625 -11.398438 7.539062 -11.785156 7.0625 -12.078125 C 6.59375 -12.367188 6.019531 -12.515625 5.34375 -12.515625 Z M 5.34375 -12.515625 "/></g></g></g></g></g></g><g clip-path="url(#bea4276abb)"><g transform="matrix(1, 0, 0, 1, 254, 450)"><g clip-path="url(#6e7b3f843f)"><g fill="#201f1f" fill-opacity="1"><g transform="translate(0.345469, 20.427982)"><g><path d="M 9.09375 -1.109375 C 9.238281 -1.109375 9.363281 -1.050781 9.46875 -0.9375 C 9.582031 -0.832031 9.640625 -0.707031 9.640625 -0.5625 C 9.640625 -0.394531 9.582031 -0.257812 9.46875 -0.15625 C 9.363281 -0.0507812 9.238281 0 9.09375 0 L 1.890625 0 C 1.734375 0 1.59375 -0.046875 1.46875 -0.140625 C 1.34375 -0.234375 1.28125 -0.378906 1.28125 -0.578125 C 1.28125 -0.710938 1.332031 -0.847656 1.4375 -0.984375 L 5.859375 -5.859375 C 6.566406 -6.628906 7.09375 -7.335938 7.4375 -7.984375 C 7.789062 -8.628906 7.96875 -9.207031 7.96875 -9.71875 C 7.96875 -10.5625 7.710938 -11.238281 7.203125 -11.75 C 6.691406 -12.257812 6.003906 -12.515625 5.140625 -12.515625 C 4.742188 -12.515625 4.347656 -12.429688 3.953125 -12.265625 C 3.566406 -12.097656 3.222656 -11.878906 2.921875 -11.609375 C 2.617188 -11.347656 2.382812 -11.046875 2.21875 -10.703125 C 2.144531 -10.566406 2.066406 -10.472656 1.984375 -10.421875 C 1.898438 -10.378906 1.804688 -10.359375 1.703125 -10.359375 C 1.546875 -10.359375 1.410156 -10.40625 1.296875 -10.5 C 1.179688 -10.59375 1.125 -10.707031 1.125 -10.84375 C 1.125 -10.9375 1.144531 -11.023438 1.1875 -11.109375 C 1.238281 -11.203125 1.3125 -11.304688 1.40625 -11.421875 C 1.632812 -11.816406 1.953125 -12.179688 2.359375 -12.515625 C 2.765625 -12.847656 3.21875 -13.113281 3.71875 -13.3125 C 4.226562 -13.507812 4.726562 -13.609375 5.21875 -13.609375 C 6.03125 -13.609375 6.734375 -13.453125 7.328125 -13.140625 C 7.921875 -12.828125 8.378906 -12.382812 8.703125 -11.8125 C 9.035156 -11.25 9.203125 -10.578125 9.203125 -9.796875 C 9.203125 -9.128906 8.992188 -8.398438 8.578125 -7.609375 C 8.160156 -6.828125 7.546875 -5.984375 6.734375 -5.078125 L 2.984375 -0.875 L 2.796875 -1.109375 Z M 9.09375 -1.109375 "/></g></g></g><g fill="#201f1f" fill-opacity="1"><g transform="translate(10.958681, 20.427982)"><g><path d="M 5.6875 0.1875 C 4.664062 0.1875 3.8125 -0.117188 3.125 -0.734375 C 2.4375 -1.347656 1.914062 -2.175781 1.5625 -3.21875 C 1.21875 -4.257812 1.046875 -5.421875 1.046875 -6.703125 C 1.046875 -8.015625 1.21875 -9.191406 1.5625 -10.234375 C 1.914062 -11.273438 2.4375 -12.097656 3.125 -12.703125 C 3.8125 -13.304688 4.664062 -13.609375 5.6875 -13.609375 C 6.738281 -13.609375 7.601562 -13.304688 8.28125 -12.703125 C 8.96875 -12.097656 9.484375 -11.273438 9.828125 -10.234375 C 10.179688 -9.191406 10.359375 -8.015625 10.359375 -6.703125 C 10.359375 -5.421875 10.179688 -4.257812 9.828125 -3.21875 C 9.484375 -2.175781 8.96875 -1.347656 8.28125 -0.734375 C 7.601562 -0.117188 6.738281 0.1875 5.6875 0.1875 Z M 5.6875 -1 C 6.445312 -1 7.078125 -1.234375 7.578125 -1.703125 C 8.085938 -2.179688 8.472656 -2.847656 8.734375 -3.703125 C 8.992188 -4.566406 9.125 -5.566406 9.125 -6.703125 C 9.125 -7.859375 8.992188 -8.867188 8.734375 -9.734375 C 8.472656 -10.597656 8.085938 -11.265625 7.578125 -11.734375 C 7.078125 -12.203125 6.445312 -12.4375 5.6875 -12.4375 C 4.945312 -12.4375 4.320312 -12.203125 3.8125 -11.734375 C 3.3125 -11.265625 2.929688 -10.597656 2.671875 -9.734375 C 2.410156 -8.867188 2.28125 -7.859375 2.28125 -6.703125 C 2.28125 -5.566406 2.410156 -4.566406 2.671875 -3.703125 C 2.929688 -2.847656 3.3125 -2.179688 3.8125 -1.703125 C 4.320312 -1.234375 4.945312 -1 5.6875 -1 Z M 5.6875 -1 "/></g></g></g></g></g></g><g clip-path="url(#5188f01e22)"><g transform="matrix(1, 0, 0, 1, 380, 450)"><g clip-path="url(#0c47036db3)"><g fill="#201f1f" fill-opacity="1"><g transform="translate(0.164203, 20.427982)"><g><path d="M 9.09375 -1.109375 C 9.238281 -1.109375 9.363281 -1.050781 9.46875 -0.9375 C 9.582031 -0.832031 9.640625 -0.707031 9.640625 -0.5625 C 9.640625 -0.394531 9.582031 -0.257812 9.46875 -0.15625 C 9.363281 -0.0507812 9.238281 0 9.09375 0 L 1.890625 0 C 1.734375 0 1.59375 -0.046875 1.46875 -0.140625 C 1.34375 -0.234375 1.28125 -0.378906 1.28125 -0.578125 C 1.28125 -0.710938 1.332031 -0.847656 1.4375 -0.984375 L 5.859375 -5.859375 C 6.566406 -6.628906 7.09375 -7.335938 7.4375 -7.984375 C 7.789062 -8.628906 7.96875 -9.207031 7.96875 -9.71875 C 7.96875 -10.5625 7.710938 -11.238281 7.203125 -11.75 C 6.691406 -12.257812 6.003906 -12.515625 5.140625 -12.515625 C 4.742188 -12.515625 4.347656 -12.429688 3.953125 -12.265625 C 3.566406 -12.097656 3.222656 -11.878906 2.921875 -11.609375 C 2.617188 -11.347656 2.382812 -11.046875 2.21875 -10.703125 C 2.144531 -10.566406 2.066406 -10.472656 1.984375 -10.421875 C 1.898438 -10.378906 1.804688 -10.359375 1.703125 -10.359375 C 1.546875 -10.359375 1.410156 -10.40625 1.296875 -10.5 C 1.179688 -10.59375 1.125 -10.707031 1.125 -10.84375 C 1.125 -10.9375 1.144531 -11.023438 1.1875 -11.109375 C 1.238281 -11.203125 1.3125 -11.304688 1.40625 -11.421875 C 1.632812 -11.816406 1.953125 -12.179688 2.359375 -12.515625 C 2.765625 -12.847656 3.21875 -13.113281 3.71875 -13.3125 C 4.226562 -13.507812 4.726562 -13.609375 5.21875 -13.609375 C 6.03125 -13.609375 6.734375 -13.453125 7.328125 -13.140625 C 7.921875 -12.828125 8.378906 -12.382812 8.703125 -11.8125 C 9.035156 -11.25 9.203125 -10.578125 9.203125 -9.796875 C 9.203125 -9.128906 8.992188 -8.398438 8.578125 -7.609375 C 8.160156 -6.828125 7.546875 -5.984375 6.734375 -5.078125 L 2.984375 -0.875 L 2.796875 -1.109375 Z M 9.09375 -1.109375 "/></g></g></g><g fill="#201f1f" fill-opacity="1"><g transform="translate(10.777415, 20.427982)"><g><path d="M 4.328125 0 C 4.148438 0 4.003906 -0.0546875 3.890625 -0.171875 C 3.773438 -0.285156 3.71875 -0.421875 3.71875 -0.578125 L 3.71875 -12.109375 L 3.9375 -11.921875 L 1.375 -10.21875 C 1.28125 -10.144531 1.171875 -10.109375 1.046875 -10.109375 C 0.898438 -10.109375 0.765625 -10.171875 0.640625 -10.296875 C 0.515625 -10.421875 0.453125 -10.5625 0.453125 -10.71875 C 0.453125 -10.925781 0.554688 -11.085938 0.765625 -11.203125 L 3.96875 -13.328125 C 4.039062 -13.378906 4.117188 -13.410156 4.203125 -13.421875 C 4.285156 -13.429688 4.359375 -13.429688 4.421875 -13.421875 C 4.585938 -13.410156 4.71875 -13.347656 4.8125 -13.234375 C 4.90625 -13.128906 4.953125 -13 4.953125 -12.84375 L 4.953125 -0.578125 C 4.953125 -0.421875 4.890625 -0.285156 4.765625 -0.171875 C 4.648438 -0.0546875 4.503906 0 4.328125 0 Z M 4.328125 0 "/></g></g></g></g></g></g><g clip-path="url(#b2374226ba)"><g transform="matrix(1, 0, 0, 1, 505, 450)"><g clip-path="url(#d050c4024b)"><g fill="#201f1f" fill-opacity="1"><g transform="translate(0.982967, 20.427982)"><g><path d="M 9.09375 -1.109375 C 9.238281 -1.109375 9.363281 -1.050781 9.46875 -0.9375 C 9.582031 -0.832031 9.640625 -0.707031 9.640625 -0.5625 C 9.640625 -0.394531 9.582031 -0.257812 9.46875 -0.15625 C 9.363281 -0.0507812 9.238281 0 9.09375 0 L 1.890625 0 C 1.734375 0 1.59375 -0.046875 1.46875 -0.140625 C 1.34375 -0.234375 1.28125 -0.378906 1.28125 -0.578125 C 1.28125 -0.710938 1.332031 -0.847656 1.4375 -0.984375 L 5.859375 -5.859375 C 6.566406 -6.628906 7.09375 -7.335938 7.4375 -7.984375 C 7.789062 -8.628906 7.96875 -9.207031 7.96875 -9.71875 C 7.96875 -10.5625 7.710938 -11.238281 7.203125 -11.75 C 6.691406 -12.257812 6.003906 -12.515625 5.140625 -12.515625 C 4.742188 -12.515625 4.347656 -12.429688 3.953125 -12.265625 C 3.566406 -12.097656 3.222656 -11.878906 2.921875 -11.609375 C 2.617188 -11.347656 2.382812 -11.046875 2.21875 -10.703125 C 2.144531 -10.566406 2.066406 -10.472656 1.984375 -10.421875 C 1.898438 -10.378906 1.804688 -10.359375 1.703125 -10.359375 C 1.546875 -10.359375 1.410156 -10.40625 1.296875 -10.5 C 1.179688 -10.59375 1.125 -10.707031 1.125 -10.84375 C 1.125 -10.9375 1.144531 -11.023438 1.1875 -11.109375 C 1.238281 -11.203125 1.3125 -11.304688 1.40625 -11.421875 C 1.632812 -11.816406 1.953125 -12.179688 2.359375 -12.515625 C 2.765625 -12.847656 3.21875 -13.113281 3.71875 -13.3125 C 4.226562 -13.507812 4.726562 -13.609375 5.21875 -13.609375 C 6.03125 -13.609375 6.734375 -13.453125 7.328125 -13.140625 C 7.921875 -12.828125 8.378906 -12.382812 8.703125 -11.8125 C 9.035156 -11.25 9.203125 -10.578125 9.203125 -9.796875 C 9.203125 -9.128906 8.992188 -8.398438 8.578125 -7.609375 C 8.160156 -6.828125 7.546875 -5.984375 6.734375 -5.078125 L 2.984375 -0.875 L 2.796875 -1.109375 Z M 9.09375 -1.109375 "/></g></g></g><g fill="#201f1f" fill-opacity="1"><g transform="translate(11.596178, 20.427982)"><g><path d="M 9.09375 -1.109375 C 9.238281 -1.109375 9.363281 -1.050781 9.46875 -0.9375 C 9.582031 -0.832031 9.640625 -0.707031 9.640625 -0.5625 C 9.640625 -0.394531 9.582031 -0.257812 9.46875 -0.15625 C 9.363281 -0.0507812 9.238281 0 9.09375 0 L 1.890625 0 C 1.734375 0 1.59375 -0.046875 1.46875 -0.140625 C 1.34375 -0.234375 1.28125 -0.378906 1.28125 -0.578125 C 1.28125 -0.710938 1.332031 -0.847656 1.4375 -0.984375 L 5.859375 -5.859375 C 6.566406 -6.628906 7.09375 -7.335938 7.4375 -7.984375 C 7.789062 -8.628906 7.96875 -9.207031 7.96875 -9.71875 C 7.96875 -10.5625 7.710938 -11.238281 7.203125 -11.75 C 6.691406 -12.257812 6.003906 -12.515625 5.140625 -12.515625 C 4.742188 -12.515625 4.347656 -12.429688 3.953125 -12.265625 C 3.566406 -12.097656 3.222656 -11.878906 2.921875 -11.609375 C 2.617188 -11.347656 2.382812 -11.046875 2.21875 -10.703125 C 2.144531 -10.566406 2.066406 -10.472656 1.984375 -10.421875 C 1.898438 -10.378906 1.804688 -10.359375 1.703125 -10.359375 C 1.546875 -10.359375 1.410156 -10.40625 1.296875 -10.5 C 1.179688 -10.59375 1.125 -10.707031 1.125 -10.84375 C 1.125 -10.9375 1.144531 -11.023438 1.1875 -11.109375 C 1.238281 -11.203125 1.3125 -11.304688 1.40625 -11.421875 C 1.632812 -11.816406 1.953125 -12.179688 2.359375 -12.515625 C 2.765625 -12.847656 3.21875 -13.113281 3.71875 -13.3125 C 4.226562 -13.507812 4.726562 -13.609375 5.21875 -13.609375 C 6.03125 -13.609375 6.734375 -13.453125 7.328125 -13.140625 C 7.921875 -12.828125 8.378906 -12.382812 8.703125 -11.8125 C 9.035156 -11.25 9.203125 -10.578125 9.203125 -9.796875 C 9.203125 -9.128906 8.992188 -8.398438 8.578125 -7.609375 C 8.160156 -6.828125 7.546875 -5.984375 6.734375 -5.078125 L 2.984375 -0.875 L 2.796875 -1.109375 Z M 9.09375 -1.109375 "/></g></g></g></g></g></g><g clip-path="url(#282b485563)"><g transform="matrix(1, 0, 0, 1, 631, 450)"><g clip-path="url(#1013c84b1a)"><g fill="#201f1f" fill-opacity="1"><g transform="translate(0.801672, 20.427982)"><g><path d="M 9.09375 -1.109375 C 9.238281 -1.109375 9.363281 -1.050781 9.46875 -0.9375 C 9.582031 -0.832031 9.640625 -0.707031 9.640625 -0.5625 C 9.640625 -0.394531 9.582031 -0.257812 9.46875 -0.15625 C 9.363281 -0.0507812 9.238281 0 9.09375 0 L 1.890625 0 C 1.734375 0 1.59375 -0.046875 1.46875 -0.140625 C 1.34375 -0.234375 1.28125 -0.378906 1.28125 -0.578125 C 1.28125 -0.710938 1.332031 -0.847656 1.4375 -0.984375 L 5.859375 -5.859375 C 6.566406 -6.628906 7.09375 -7.335938 7.4375 -7.984375 C 7.789062 -8.628906 7.96875 -9.207031 7.96875 -9.71875 C 7.96875 -10.5625 7.710938 -11.238281 7.203125 -11.75 C 6.691406 -12.257812 6.003906 -12.515625 5.140625 -12.515625 C 4.742188 -12.515625 4.347656 -12.429688 3.953125 -12.265625 C 3.566406 -12.097656 3.222656 -11.878906 2.921875 -11.609375 C 2.617188 -11.347656 2.382812 -11.046875 2.21875 -10.703125 C 2.144531 -10.566406 2.066406 -10.472656 1.984375 -10.421875 C 1.898438 -10.378906 1.804688 -10.359375 1.703125 -10.359375 C 1.546875 -10.359375 1.410156 -10.40625 1.296875 -10.5 C 1.179688 -10.59375 1.125 -10.707031 1.125 -10.84375 C 1.125 -10.9375 1.144531 -11.023438 1.1875 -11.109375 C 1.238281 -11.203125 1.3125 -11.304688 1.40625 -11.421875 C 1.632812 -11.816406 1.953125 -12.179688 2.359375 -12.515625 C 2.765625 -12.847656 3.21875 -13.113281 3.71875 -13.3125 C 4.226562 -13.507812 4.726562 -13.609375 5.21875 -13.609375 C 6.03125 -13.609375 6.734375 -13.453125 7.328125 -13.140625 C 7.921875 -12.828125 8.378906 -12.382812 8.703125 -11.8125 C 9.035156 -11.25 9.203125 -10.578125 9.203125 -9.796875 C 9.203125 -9.128906 8.992188 -8.398438 8.578125 -7.609375 C 8.160156 -6.828125 7.546875 -5.984375 6.734375 -5.078125 L 2.984375 -0.875 L 2.796875 -1.109375 Z M 9.09375 -1.109375 "/></g></g></g><g fill="#201f1f" fill-opacity="1"><g transform="translate(11.414883, 20.427982)"><g><path d="M 1.703125 -1.96875 C 1.765625 -1.96875 1.832031 -1.953125 1.90625 -1.921875 C 1.976562 -1.898438 2.066406 -1.847656 2.171875 -1.765625 C 2.429688 -1.484375 2.75 -1.269531 3.125 -1.125 C 3.5 -0.976562 3.921875 -0.90625 4.390625 -0.90625 C 5.015625 -0.90625 5.582031 -1.046875 6.09375 -1.328125 C 6.613281 -1.609375 7.023438 -2 7.328125 -2.5 C 7.640625 -3.007812 7.796875 -3.585938 7.796875 -4.234375 C 7.796875 -4.972656 7.632812 -5.566406 7.3125 -6.015625 C 6.988281 -6.472656 6.570312 -6.8125 6.0625 -7.03125 C 5.5625 -7.257812 5.050781 -7.375 4.53125 -7.375 C 4.382812 -7.375 4.242188 -7.363281 4.109375 -7.34375 C 3.972656 -7.332031 3.847656 -7.3125 3.734375 -7.28125 C 3.617188 -7.257812 3.53125 -7.25 3.46875 -7.25 C 3.300781 -7.25 3.171875 -7.300781 3.078125 -7.40625 C 2.992188 -7.519531 2.953125 -7.660156 2.953125 -7.828125 C 2.953125 -7.910156 2.96875 -7.988281 3 -8.0625 C 3.039062 -8.132812 3.09375 -8.210938 3.15625 -8.296875 L 7.0625 -12.53125 L 7.28125 -12.234375 L 1.46875 -12.234375 C 1.320312 -12.234375 1.191406 -12.285156 1.078125 -12.390625 C 0.972656 -12.503906 0.921875 -12.632812 0.921875 -12.78125 C 0.921875 -12.9375 0.972656 -13.066406 1.078125 -13.171875 C 1.191406 -13.273438 1.320312 -13.328125 1.46875 -13.328125 L 7.921875 -13.328125 C 8.140625 -13.328125 8.289062 -13.257812 8.375 -13.125 C 8.46875 -12.988281 8.515625 -12.859375 8.515625 -12.734375 C 8.515625 -12.648438 8.492188 -12.570312 8.453125 -12.5 C 8.410156 -12.4375 8.359375 -12.367188 8.296875 -12.296875 L 4.40625 -8.046875 L 3.984375 -8.296875 C 4.023438 -8.335938 4.15625 -8.378906 4.375 -8.421875 C 4.601562 -8.472656 4.78125 -8.5 4.90625 -8.5 C 5.613281 -8.5 6.273438 -8.332031 6.890625 -8 C 7.515625 -7.664062 8.019531 -7.1875 8.40625 -6.5625 C 8.789062 -5.945312 8.984375 -5.1875 8.984375 -4.28125 C 8.984375 -3.382812 8.769531 -2.597656 8.34375 -1.921875 C 7.925781 -1.253906 7.359375 -0.734375 6.640625 -0.359375 C 5.929688 0.00390625 5.144531 0.1875 4.28125 0.1875 C 3.75 0.1875 3.226562 0.0976562 2.71875 -0.078125 C 2.207031 -0.253906 1.757812 -0.519531 1.375 -0.875 C 1.289062 -0.957031 1.226562 -1.035156 1.1875 -1.109375 C 1.144531 -1.191406 1.125 -1.269531 1.125 -1.34375 C 1.125 -1.5 1.175781 -1.640625 1.28125 -1.765625 C 1.394531 -1.898438 1.535156 -1.96875 1.703125 -1.96875 Z M 1.703125 -1.96875 "/></g></g></g></g></g></g><g clip-path="url(#bae6611474)"><g transform="matrix(1, 0, 0, 1, 757, 450)"><g clip-path="url(#8254465b2b)"><g fill="#201f1f" fill-opacity="1"><g transform="translate(0.620435, 20.427982)"><g><path d="M 9.09375 -1.109375 C 9.238281 -1.109375 9.363281 -1.050781 9.46875 -0.9375 C 9.582031 -0.832031 9.640625 -0.707031 9.640625 -0.5625 C 9.640625 -0.394531 9.582031 -0.257812 9.46875 -0.15625 C 9.363281 -0.0507812 9.238281 0 9.09375 0 L 1.890625 0 C 1.734375 0 1.59375 -0.046875 1.46875 -0.140625 C 1.34375 -0.234375 1.28125 -0.378906 1.28125 -0.578125 C 1.28125 -0.710938 1.332031 -0.847656 1.4375 -0.984375 L 5.859375 -5.859375 C 6.566406 -6.628906 7.09375 -7.335938 7.4375 -7.984375 C 7.789062 -8.628906 7.96875 -9.207031 7.96875 -9.71875 C 7.96875 -10.5625 7.710938 -11.238281 7.203125 -11.75 C 6.691406 -12.257812 6.003906 -12.515625 5.140625 -12.515625 C 4.742188 -12.515625 4.347656 -12.429688 3.953125 -12.265625 C 3.566406 -12.097656 3.222656 -11.878906 2.921875 -11.609375 C 2.617188 -11.347656 2.382812 -11.046875 2.21875 -10.703125 C 2.144531 -10.566406 2.066406 -10.472656 1.984375 -10.421875 C 1.898438 -10.378906 1.804688 -10.359375 1.703125 -10.359375 C 1.546875 -10.359375 1.410156 -10.40625 1.296875 -10.5 C 1.179688 -10.59375 1.125 -10.707031 1.125 -10.84375 C 1.125 -10.9375 1.144531 -11.023438 1.1875 -11.109375 C 1.238281 -11.203125 1.3125 -11.304688 1.40625 -11.421875 C 1.632812 -11.816406 1.953125 -12.179688 2.359375 -12.515625 C 2.765625 -12.847656 3.21875 -13.113281 3.71875 -13.3125 C 4.226562 -13.507812 4.726562 -13.609375 5.21875 -13.609375 C 6.03125 -13.609375 6.734375 -13.453125 7.328125 -13.140625 C 7.921875 -12.828125 8.378906 -12.382812 8.703125 -11.8125 C 9.035156 -11.25 9.203125 -10.578125 9.203125 -9.796875 C 9.203125 -9.128906 8.992188 -8.398438 8.578125 -7.609375 C 8.160156 -6.828125 7.546875 -5.984375 6.734375 -5.078125 L 2.984375 -0.875 L 2.796875 -1.109375 Z M 9.09375 -1.109375 "/></g></g></g><g fill="#201f1f" fill-opacity="1"><g transform="translate(11.233646, 20.427982)"><g><path d="M 7.03125 0 C 6.863281 0 6.726562 -0.0546875 6.625 -0.171875 C 6.53125 -0.285156 6.484375 -0.421875 6.484375 -0.578125 L 6.484375 -11.828125 L 6.734375 -11.671875 L 1.6875 -5 L 1.625 -5.21875 L 8.984375 -5.21875 C 9.140625 -5.21875 9.269531 -5.164062 9.375 -5.0625 C 9.488281 -4.957031 9.546875 -4.828125 9.546875 -4.671875 C 9.546875 -4.523438 9.488281 -4.398438 9.375 -4.296875 C 9.269531 -4.191406 9.140625 -4.140625 8.984375 -4.140625 L 0.84375 -4.140625 C 0.6875 -4.140625 0.550781 -4.195312 0.4375 -4.3125 C 0.320312 -4.4375 0.265625 -4.578125 0.265625 -4.734375 C 0.265625 -4.878906 0.3125 -5.007812 0.40625 -5.125 L 6.578125 -13.1875 C 6.640625 -13.28125 6.71875 -13.34375 6.8125 -13.375 C 6.90625 -13.40625 6.988281 -13.421875 7.0625 -13.421875 C 7.21875 -13.421875 7.347656 -13.363281 7.453125 -13.25 C 7.566406 -13.132812 7.625 -13 7.625 -12.84375 L 7.625 -0.578125 C 7.625 -0.421875 7.566406 -0.285156 7.453125 -0.171875 C 7.335938 -0.0546875 7.195312 0 7.03125 0 Z M 7.03125 0 "/></g></g></g></g></g></g><g clip-path="url(#b2963b3d5c)"><g transform="matrix(1, 0, 0, 1, 2, 600)"><g clip-path="url(#78ed86f403)"><g fill="#201f1f" fill-opacity="1"><g transform="translate(0.707959, 20.186304)"><g><path d="M 9.09375 -1.109375 C 9.238281 -1.109375 9.363281 -1.050781 9.46875 -0.9375 C 9.582031 -0.832031 9.640625 -0.707031 9.640625 -0.5625 C 9.640625 -0.394531 9.582031 -0.257812 9.46875 -0.15625 C 9.363281 -0.0507812 9.238281 0 9.09375 0 L 1.890625 0 C 1.734375 0 1.59375 -0.046875 1.46875 -0.140625 C 1.34375 -0.234375 1.28125 -0.378906 1.28125 -0.578125 C 1.28125 -0.710938 1.332031 -0.847656 1.4375 -0.984375 L 5.859375 -5.859375 C 6.566406 -6.628906 7.09375 -7.335938 7.4375 -7.984375 C 7.789062 -8.628906 7.96875 -9.207031 7.96875 -9.71875 C 7.96875 -10.5625 7.710938 -11.238281 7.203125 -11.75 C 6.691406 -12.257812 6.003906 -12.515625 5.140625 -12.515625 C 4.742188 -12.515625 4.347656 -12.429688 3.953125 -12.265625 C 3.566406 -12.097656 3.222656 -11.878906 2.921875 -11.609375 C 2.617188 -11.347656 2.382812 -11.046875 2.21875 -10.703125 C 2.144531 -10.566406 2.066406 -10.472656 1.984375 -10.421875 C 1.898438 -10.378906 1.804688 -10.359375 1.703125 -10.359375 C 1.546875 -10.359375 1.410156 -10.40625 1.296875 -10.5 C 1.179688 -10.59375 1.125 -10.707031 1.125 -10.84375 C 1.125 -10.9375 1.144531 -11.023438 1.1875 -11.109375 C 1.238281 -11.203125 1.3125 -11.304688 1.40625 -11.421875 C 1.632812 -11.816406 1.953125 -12.179688 2.359375 -12.515625 C 2.765625 -12.847656 3.21875 -13.113281 3.71875 -13.3125 C 4.226562 -13.507812 4.726562 -13.609375 5.21875 -13.609375 C 6.03125 -13.609375 6.734375 -13.453125 7.328125 -13.140625 C 7.921875 -12.828125 8.378906 -12.382812 8.703125 -11.8125 C 9.035156 -11.25 9.203125 -10.578125 9.203125 -9.796875 C 9.203125 -9.128906 8.992188 -8.398438 8.578125 -7.609375 C 8.160156 -6.828125 7.546875 -5.984375 6.734375 -5.078125 L 2.984375 -0.875 L 2.796875 -1.109375 Z M 9.09375 -1.109375 "/></g></g></g><g fill="#201f1f" fill-opacity="1"><g transform="translate(11.321171, 20.186304)"><g><path d="M 4.484375 0.03125 C 3.960938 0.03125 3.4375 -0.0507812 2.90625 -0.21875 C 2.375 -0.394531 1.90625 -0.65625 1.5 -1 C 1.414062 -1.0625 1.351562 -1.132812 1.3125 -1.21875 C 1.269531 -1.3125 1.25 -1.40625 1.25 -1.5 C 1.25 -1.625 1.296875 -1.742188 1.390625 -1.859375 C 1.492188 -1.984375 1.628906 -2.046875 1.796875 -2.046875 C 1.941406 -2.046875 2.082031 -1.988281 2.21875 -1.875 C 2.550781 -1.625 2.910156 -1.425781 3.296875 -1.28125 C 3.691406 -1.144531 4.085938 -1.078125 4.484375 -1.078125 C 5.242188 -1.078125 5.898438 -1.21875 6.453125 -1.5 C 7.015625 -1.789062 7.445312 -2.203125 7.75 -2.734375 C 8.0625 -3.265625 8.21875 -3.878906 8.21875 -4.578125 C 8.21875 -5.234375 8.078125 -5.800781 7.796875 -6.28125 C 7.515625 -6.757812 7.113281 -7.132812 6.59375 -7.40625 C 6.082031 -7.6875 5.476562 -7.828125 4.78125 -7.828125 C 4.3125 -7.828125 3.890625 -7.753906 3.515625 -7.609375 C 3.140625 -7.472656 2.8125 -7.328125 2.53125 -7.171875 C 2.257812 -7.023438 2.039062 -6.953125 1.875 -6.953125 C 1.726562 -6.953125 1.601562 -6.988281 1.5 -7.0625 C 1.40625 -7.144531 1.34375 -7.242188 1.3125 -7.359375 C 1.28125 -7.472656 1.273438 -7.59375 1.296875 -7.71875 L 2.125 -12.84375 C 2.132812 -12.957031 2.191406 -13.0625 2.296875 -13.15625 C 2.410156 -13.257812 2.550781 -13.3125 2.71875 -13.3125 L 8.5 -13.3125 C 8.644531 -13.3125 8.769531 -13.253906 8.875 -13.140625 C 8.988281 -13.035156 9.046875 -12.90625 9.046875 -12.75 C 9.046875 -12.582031 8.988281 -12.441406 8.875 -12.328125 C 8.769531 -12.222656 8.644531 -12.171875 8.5 -12.171875 L 2.984375 -12.171875 L 3.15625 -12.34375 L 2.375 -7.796875 L 2.03125 -8.046875 C 2.195312 -8.179688 2.4375 -8.3125 2.75 -8.4375 C 3.0625 -8.5625 3.410156 -8.671875 3.796875 -8.765625 C 4.191406 -8.867188 4.609375 -8.921875 5.046875 -8.921875 C 5.867188 -8.921875 6.609375 -8.738281 7.265625 -8.375 C 7.921875 -8.007812 8.4375 -7.503906 8.8125 -6.859375 C 9.1875 -6.210938 9.375 -5.46875 9.375 -4.625 C 9.375 -3.6875 9.171875 -2.867188 8.765625 -2.171875 C 8.367188 -1.472656 7.804688 -0.929688 7.078125 -0.546875 C 6.347656 -0.160156 5.484375 0.03125 4.484375 0.03125 Z M 4.484375 0.03125 "/></g></g></g></g></g></g><g clip-path="url(#a706cae719)"><g transform="matrix(1, 0, 0, 1, 128, 600)"><g clip-path="url(#9fce2b5691)"><g fill="#201f1f" fill-opacity="1"><g transform="translate(0.526706, 20.186304)"><g><path d="M 9.09375 -1.109375 C 9.238281 -1.109375 9.363281 -1.050781 9.46875 -0.9375 C 9.582031 -0.832031 9.640625 -0.707031 9.640625 -0.5625 C 9.640625 -0.394531 9.582031 -0.257812 9.46875 -0.15625 C 9.363281 -0.0507812 9.238281 0 9.09375 0 L 1.890625 0 C 1.734375 0 1.59375 -0.046875 1.46875 -0.140625 C 1.34375 -0.234375 1.28125 -0.378906 1.28125 -0.578125 C 1.28125 -0.710938 1.332031 -0.847656 1.4375 -0.984375 L 5.859375 -5.859375 C 6.566406 -6.628906 7.09375 -7.335938 7.4375 -7.984375 C 7.789062 -8.628906 7.96875 -9.207031 7.96875 -9.71875 C 7.96875 -10.5625 7.710938 -11.238281 7.203125 -11.75 C 6.691406 -12.257812 6.003906 -12.515625 5.140625 -12.515625 C 4.742188 -12.515625 4.347656 -12.429688 3.953125 -12.265625 C 3.566406 -12.097656 3.222656 -11.878906 2.921875 -11.609375 C 2.617188 -11.347656 2.382812 -11.046875 2.21875 -10.703125 C 2.144531 -10.566406 2.066406 -10.472656 1.984375 -10.421875 C 1.898438 -10.378906 1.804688 -10.359375 1.703125 -10.359375 C 1.546875 -10.359375 1.410156 -10.40625 1.296875 -10.5 C 1.179688 -10.59375 1.125 -10.707031 1.125 -10.84375 C 1.125 -10.9375 1.144531 -11.023438 1.1875 -11.109375 C 1.238281 -11.203125 1.3125 -11.304688 1.40625 -11.421875 C 1.632812 -11.816406 1.953125 -12.179688 2.359375 -12.515625 C 2.765625 -12.847656 3.21875 -13.113281 3.71875 -13.3125 C 4.226562 -13.507812 4.726562 -13.609375 5.21875 -13.609375 C 6.03125 -13.609375 6.734375 -13.453125 7.328125 -13.140625 C 7.921875 -12.828125 8.378906 -12.382812 8.703125 -11.8125 C 9.035156 -11.25 9.203125 -10.578125 9.203125 -9.796875 C 9.203125 -9.128906 8.992188 -8.398438 8.578125 -7.609375 C 8.160156 -6.828125 7.546875 -5.984375 6.734375 -5.078125 L 2.984375 -0.875 L 2.796875 -1.109375 Z M 9.09375 -1.109375 "/></g></g></g><g fill="#201f1f" fill-opacity="1"><g transform="translate(11.139917, 20.186304)"><g><path d="M 5.5 0.1875 C 4.757812 0.1875 4.109375 0.0546875 3.546875 -0.203125 C 2.992188 -0.472656 2.535156 -0.832031 2.171875 -1.28125 C 1.804688 -1.738281 1.535156 -2.253906 1.359375 -2.828125 C 1.191406 -3.410156 1.109375 -4 1.109375 -4.59375 C 1.109375 -5.207031 1.1875 -5.867188 1.34375 -6.578125 C 1.5 -7.296875 1.734375 -8.015625 2.046875 -8.734375 C 2.367188 -9.460938 2.765625 -10.15625 3.234375 -10.8125 C 3.703125 -11.46875 4.242188 -12.050781 4.859375 -12.5625 C 5.484375 -13.082031 6.179688 -13.488281 6.953125 -13.78125 C 7.046875 -13.8125 7.125 -13.828125 7.1875 -13.828125 C 7.351562 -13.828125 7.492188 -13.78125 7.609375 -13.6875 C 7.734375 -13.59375 7.796875 -13.441406 7.796875 -13.234375 C 7.796875 -13.097656 7.753906 -12.984375 7.671875 -12.890625 C 7.585938 -12.796875 7.476562 -12.722656 7.34375 -12.671875 C 6.800781 -12.441406 6.269531 -12.113281 5.75 -11.6875 C 5.226562 -11.269531 4.742188 -10.785156 4.296875 -10.234375 C 3.847656 -9.679688 3.46875 -9.085938 3.15625 -8.453125 C 2.84375 -7.828125 2.625 -7.1875 2.5 -6.53125 L 2.078125 -6.28125 C 2.304688 -6.707031 2.601562 -7.082031 2.96875 -7.40625 C 3.332031 -7.738281 3.75 -8.003906 4.21875 -8.203125 C 4.6875 -8.398438 5.195312 -8.5 5.75 -8.5 C 6.320312 -8.5 6.851562 -8.375 7.34375 -8.125 C 7.832031 -7.882812 8.25 -7.554688 8.59375 -7.140625 C 8.945312 -6.722656 9.222656 -6.253906 9.421875 -5.734375 C 9.617188 -5.210938 9.71875 -4.671875 9.71875 -4.109375 C 9.71875 -3.347656 9.535156 -2.640625 9.171875 -1.984375 C 8.804688 -1.335938 8.304688 -0.8125 7.671875 -0.40625 C 7.046875 -0.0078125 6.320312 0.1875 5.5 0.1875 Z M 5.484375 -0.921875 C 6.066406 -0.921875 6.585938 -1.050781 7.046875 -1.3125 C 7.515625 -1.582031 7.878906 -1.957031 8.140625 -2.4375 C 8.398438 -2.914062 8.53125 -3.472656 8.53125 -4.109375 C 8.53125 -4.679688 8.414062 -5.210938 8.1875 -5.703125 C 7.96875 -6.191406 7.632812 -6.59375 7.1875 -6.90625 C 6.75 -7.21875 6.207031 -7.375 5.5625 -7.375 C 4.882812 -7.375 4.296875 -7.222656 3.796875 -6.921875 C 3.304688 -6.617188 2.929688 -6.210938 2.671875 -5.703125 C 2.410156 -5.203125 2.28125 -4.648438 2.28125 -4.046875 C 2.28125 -3.503906 2.40625 -2.992188 2.65625 -2.515625 C 2.914062 -2.035156 3.285156 -1.648438 3.765625 -1.359375 C 4.242188 -1.066406 4.816406 -0.921875 5.484375 -0.921875 Z M 5.484375 -0.921875 "/></g></g></g></g></g></g><g clip-path="url(#87c2cb405a)"><g transform="matrix(1, 0, 0, 1, 254, 600)"><g clip-path="url(#8008c88c80)"><g fill="#201f1f" fill-opacity="1"><g transform="translate(0.345469, 20.186304)"><g><path d="M 9.09375 -1.109375 C 9.238281 -1.109375 9.363281 -1.050781 9.46875 -0.9375 C 9.582031 -0.832031 9.640625 -0.707031 9.640625 -0.5625 C 9.640625 -0.394531 9.582031 -0.257812 9.46875 -0.15625 C 9.363281 -0.0507812 9.238281 0 9.09375 0 L 1.890625 0 C 1.734375 0 1.59375 -0.046875 1.46875 -0.140625 C 1.34375 -0.234375 1.28125 -0.378906 1.28125 -0.578125 C 1.28125 -0.710938 1.332031 -0.847656 1.4375 -0.984375 L 5.859375 -5.859375 C 6.566406 -6.628906 7.09375 -7.335938 7.4375 -7.984375 C 7.789062 -8.628906 7.96875 -9.207031 7.96875 -9.71875 C 7.96875 -10.5625 7.710938 -11.238281 7.203125 -11.75 C 6.691406 -12.257812 6.003906 -12.515625 5.140625 -12.515625 C 4.742188 -12.515625 4.347656 -12.429688 3.953125 -12.265625 C 3.566406 -12.097656 3.222656 -11.878906 2.921875 -11.609375 C 2.617188 -11.347656 2.382812 -11.046875 2.21875 -10.703125 C 2.144531 -10.566406 2.066406 -10.472656 1.984375 -10.421875 C 1.898438 -10.378906 1.804688 -10.359375 1.703125 -10.359375 C 1.546875 -10.359375 1.410156 -10.40625 1.296875 -10.5 C 1.179688 -10.59375 1.125 -10.707031 1.125 -10.84375 C 1.125 -10.9375 1.144531 -11.023438 1.1875 -11.109375 C 1.238281 -11.203125 1.3125 -11.304688 1.40625 -11.421875 C 1.632812 -11.816406 1.953125 -12.179688 2.359375 -12.515625 C 2.765625 -12.847656 3.21875 -13.113281 3.71875 -13.3125 C 4.226562 -13.507812 4.726562 -13.609375 5.21875 -13.609375 C 6.03125 -13.609375 6.734375 -13.453125 7.328125 -13.140625 C 7.921875 -12.828125 8.378906 -12.382812 8.703125 -11.8125 C 9.035156 -11.25 9.203125 -10.578125 9.203125 -9.796875 C 9.203125 -9.128906 8.992188 -8.398438 8.578125 -7.609375 C 8.160156 -6.828125 7.546875 -5.984375 6.734375 -5.078125 L 2.984375 -0.875 L 2.796875 -1.109375 Z M 9.09375 -1.109375 "/></g></g></g><g fill="#201f1f" fill-opacity="1"><g transform="translate(10.958681, 20.186304)"><g><path d="M 3.40625 0.0625 C 3.257812 0.0625 3.117188 0.0078125 2.984375 -0.09375 C 2.859375 -0.195312 2.796875 -0.328125 2.796875 -0.484375 C 2.796875 -0.566406 2.816406 -0.660156 2.859375 -0.765625 L 7.953125 -12.484375 L 8.171875 -12.21875 L 1.6875 -12.21875 C 1.53125 -12.21875 1.394531 -12.269531 1.28125 -12.375 C 1.175781 -12.476562 1.125 -12.609375 1.125 -12.765625 C 1.125 -12.929688 1.175781 -13.066406 1.28125 -13.171875 C 1.394531 -13.273438 1.53125 -13.328125 1.6875 -13.328125 L 8.71875 -13.328125 C 8.914062 -13.328125 9.054688 -13.273438 9.140625 -13.171875 C 9.234375 -13.066406 9.28125 -12.9375 9.28125 -12.78125 C 9.28125 -12.6875 9.257812 -12.59375 9.21875 -12.5 L 3.953125 -0.328125 C 3.910156 -0.210938 3.835938 -0.117188 3.734375 -0.046875 C 3.628906 0.0234375 3.519531 0.0625 3.40625 0.0625 Z M 3.40625 0.0625 "/></g></g></g></g></g></g><g clip-path="url(#ad11351b73)"><g transform="matrix(1, 0, 0, 1, 380, 600)"><g clip-path="url(#4da8a6eb22)"><g fill="#201f1f" fill-opacity="1"><g transform="translate(0.164203, 20.186304)"><g><path d="M 9.09375 -1.109375 C 9.238281 -1.109375 9.363281 -1.050781 9.46875 -0.9375 C 9.582031 -0.832031 9.640625 -0.707031 9.640625 -0.5625 C 9.640625 -0.394531 9.582031 -0.257812 9.46875 -0.15625 C 9.363281 -0.0507812 9.238281 0 9.09375 0 L 1.890625 0 C 1.734375 0 1.59375 -0.046875 1.46875 -0.140625 C 1.34375 -0.234375 1.28125 -0.378906 1.28125 -0.578125 C 1.28125 -0.710938 1.332031 -0.847656 1.4375 -0.984375 L 5.859375 -5.859375 C 6.566406 -6.628906 7.09375 -7.335938 7.4375 -7.984375 C 7.789062 -8.628906 7.96875 -9.207031 7.96875 -9.71875 C 7.96875 -10.5625 7.710938 -11.238281 7.203125 -11.75 C 6.691406 -12.257812 6.003906 -12.515625 5.140625 -12.515625 C 4.742188 -12.515625 4.347656 -12.429688 3.953125 -12.265625 C 3.566406 -12.097656 3.222656 -11.878906 2.921875 -11.609375 C 2.617188 -11.347656 2.382812 -11.046875 2.21875 -10.703125 C 2.144531 -10.566406 2.066406 -10.472656 1.984375 -10.421875 C 1.898438 -10.378906 1.804688 -10.359375 1.703125 -10.359375 C 1.546875 -10.359375 1.410156 -10.40625 1.296875 -10.5 C 1.179688 -10.59375 1.125 -10.707031 1.125 -10.84375 C 1.125 -10.9375 1.144531 -11.023438 1.1875 -11.109375 C 1.238281 -11.203125 1.3125 -11.304688 1.40625 -11.421875 C 1.632812 -11.816406 1.953125 -12.179688 2.359375 -12.515625 C 2.765625 -12.847656 3.21875 -13.113281 3.71875 -13.3125 C 4.226562 -13.507812 4.726562 -13.609375 5.21875 -13.609375 C 6.03125 -13.609375 6.734375 -13.453125 7.328125 -13.140625 C 7.921875 -12.828125 8.378906 -12.382812 8.703125 -11.8125 C 9.035156 -11.25 9.203125 -10.578125 9.203125 -9.796875 C 9.203125 -9.128906 8.992188 -8.398438 8.578125 -7.609375 C 8.160156 -6.828125 7.546875 -5.984375 6.734375 -5.078125 L 2.984375 -0.875 L 2.796875 -1.109375 Z M 9.09375 -1.109375 "/></g></g></g><g fill="#201f1f" fill-opacity="1"><g transform="translate(10.777415, 20.186304)"><g><path d="M 6.984375 -6.75 L 6.921875 -6.921875 C 7.359375 -6.753906 7.753906 -6.503906 8.109375 -6.171875 C 8.460938 -5.847656 8.75 -5.46875 8.96875 -5.03125 C 9.1875 -4.59375 9.296875 -4.109375 9.296875 -3.578125 C 9.296875 -2.890625 9.113281 -2.265625 8.75 -1.703125 C 8.382812 -1.140625 7.890625 -0.691406 7.265625 -0.359375 C 6.640625 -0.0234375 5.941406 0.140625 5.171875 0.140625 C 4.390625 0.140625 3.6875 -0.0234375 3.0625 -0.359375 C 2.445312 -0.691406 1.957031 -1.140625 1.59375 -1.703125 C 1.226562 -2.265625 1.046875 -2.890625 1.046875 -3.578125 C 1.046875 -4.140625 1.15625 -4.640625 1.375 -5.078125 C 1.601562 -5.523438 1.898438 -5.898438 2.265625 -6.203125 C 2.628906 -6.515625 3.007812 -6.753906 3.40625 -6.921875 L 3.359375 -6.734375 C 3.015625 -6.898438 2.691406 -7.125 2.390625 -7.40625 C 2.085938 -7.695312 1.835938 -8.039062 1.640625 -8.4375 C 1.453125 -8.84375 1.359375 -9.289062 1.359375 -9.78125 C 1.359375 -10.46875 1.523438 -11.085938 1.859375 -11.640625 C 2.203125 -12.191406 2.664062 -12.625 3.25 -12.9375 C 3.832031 -13.257812 4.472656 -13.421875 5.171875 -13.421875 C 5.878906 -13.421875 6.515625 -13.257812 7.078125 -12.9375 C 7.648438 -12.625 8.101562 -12.191406 8.4375 -11.640625 C 8.78125 -11.085938 8.953125 -10.46875 8.953125 -9.78125 C 8.953125 -9.28125 8.851562 -8.832031 8.65625 -8.4375 C 8.46875 -8.039062 8.21875 -7.695312 7.90625 -7.40625 C 7.601562 -7.125 7.296875 -6.90625 6.984375 -6.75 Z M 2.546875 -9.78125 C 2.546875 -9.269531 2.664062 -8.820312 2.90625 -8.4375 C 3.15625 -8.050781 3.476562 -7.75 3.875 -7.53125 C 4.269531 -7.3125 4.703125 -7.203125 5.171875 -7.203125 C 5.628906 -7.203125 6.054688 -7.3125 6.453125 -7.53125 C 6.859375 -7.75 7.175781 -8.050781 7.40625 -8.4375 C 7.644531 -8.820312 7.765625 -9.269531 7.765625 -9.78125 C 7.765625 -10.53125 7.519531 -11.140625 7.03125 -11.609375 C 6.550781 -12.085938 5.929688 -12.328125 5.171875 -12.328125 C 4.390625 -12.328125 3.753906 -12.085938 3.265625 -11.609375 C 2.785156 -11.140625 2.546875 -10.53125 2.546875 -9.78125 Z M 5.171875 -0.953125 C 6.046875 -0.953125 6.753906 -1.203125 7.296875 -1.703125 C 7.835938 -2.203125 8.109375 -2.828125 8.109375 -3.578125 C 8.109375 -4.097656 7.972656 -4.5625 7.703125 -4.96875 C 7.429688 -5.375 7.070312 -5.691406 6.625 -5.921875 C 6.1875 -6.148438 5.703125 -6.265625 5.171875 -6.265625 C 4.648438 -6.265625 4.164062 -6.148438 3.71875 -5.921875 C 3.269531 -5.691406 2.910156 -5.375 2.640625 -4.96875 C 2.378906 -4.5625 2.25 -4.097656 2.25 -3.578125 C 2.25 -2.828125 2.515625 -2.203125 3.046875 -1.703125 C 3.585938 -1.203125 4.296875 -0.953125 5.171875 -0.953125 Z M 5.171875 -0.953125 "/></g></g></g></g></g></g><g clip-path="url(#173cba1f96)"><g transform="matrix(1, 0, 0, 1, 505, 600)"><g clip-path="url(#97ad1fc3ec)"><g fill="#201f1f" fill-opacity="1"><g transform="translate(0.982967, 20.186304)"><g><path d="M 9.09375 -1.109375 C 9.238281 -1.109375 9.363281 -1.050781 9.46875 -0.9375 C 9.582031 -0.832031 9.640625 -0.707031 9.640625 -0.5625 C 9.640625 -0.394531 9.582031 -0.257812 9.46875 -0.15625 C 9.363281 -0.0507812 9.238281 0 9.09375 0 L 1.890625 0 C 1.734375 0 1.59375 -0.046875 1.46875 -0.140625 C 1.34375 -0.234375 1.28125 -0.378906 1.28125 -0.578125 C 1.28125 -0.710938 1.332031 -0.847656 1.4375 -0.984375 L 5.859375 -5.859375 C 6.566406 -6.628906 7.09375 -7.335938 7.4375 -7.984375 C 7.789062 -8.628906 7.96875 -9.207031 7.96875 -9.71875 C 7.96875 -10.5625 7.710938 -11.238281 7.203125 -11.75 C 6.691406 -12.257812 6.003906 -12.515625 5.140625 -12.515625 C 4.742188 -12.515625 4.347656 -12.429688 3.953125 -12.265625 C 3.566406 -12.097656 3.222656 -11.878906 2.921875 -11.609375 C 2.617188 -11.347656 2.382812 -11.046875 2.21875 -10.703125 C 2.144531 -10.566406 2.066406 -10.472656 1.984375 -10.421875 C 1.898438 -10.378906 1.804688 -10.359375 1.703125 -10.359375 C 1.546875 -10.359375 1.410156 -10.40625 1.296875 -10.5 C 1.179688 -10.59375 1.125 -10.707031 1.125 -10.84375 C 1.125 -10.9375 1.144531 -11.023438 1.1875 -11.109375 C 1.238281 -11.203125 1.3125 -11.304688 1.40625 -11.421875 C 1.632812 -11.816406 1.953125 -12.179688 2.359375 -12.515625 C 2.765625 -12.847656 3.21875 -13.113281 3.71875 -13.3125 C 4.226562 -13.507812 4.726562 -13.609375 5.21875 -13.609375 C 6.03125 -13.609375 6.734375 -13.453125 7.328125 -13.140625 C 7.921875 -12.828125 8.378906 -12.382812 8.703125 -11.8125 C 9.035156 -11.25 9.203125 -10.578125 9.203125 -9.796875 C 9.203125 -9.128906 8.992188 -8.398438 8.578125 -7.609375 C 8.160156 -6.828125 7.546875 -5.984375 6.734375 -5.078125 L 2.984375 -0.875 L 2.796875 -1.109375 Z M 9.09375 -1.109375 "/></g></g></g><g fill="#201f1f" fill-opacity="1"><g transform="translate(11.596178, 20.186304)"><g><path d="M 5.3125 -13.625 C 6.0625 -13.625 6.710938 -13.488281 7.265625 -13.21875 C 7.828125 -12.957031 8.285156 -12.597656 8.640625 -12.140625 C 9.003906 -11.691406 9.273438 -11.175781 9.453125 -10.59375 C 9.628906 -10.019531 9.71875 -9.4375 9.71875 -8.84375 C 9.71875 -8.226562 9.632812 -7.570312 9.46875 -6.875 C 9.3125 -6.175781 9.078125 -5.472656 8.765625 -4.765625 C 8.453125 -4.054688 8.0625 -3.378906 7.59375 -2.734375 C 7.132812 -2.097656 6.585938 -1.523438 5.953125 -1.015625 C 5.328125 -0.503906 4.632812 -0.109375 3.875 0.171875 C 3.769531 0.191406 3.6875 0.203125 3.625 0.203125 C 3.46875 0.203125 3.328125 0.148438 3.203125 0.046875 C 3.085938 -0.0546875 3.03125 -0.203125 3.03125 -0.390625 C 3.03125 -0.515625 3.066406 -0.625 3.140625 -0.71875 C 3.222656 -0.8125 3.335938 -0.882812 3.484375 -0.9375 C 4.210938 -1.25 4.914062 -1.707031 5.59375 -2.3125 C 6.269531 -2.914062 6.851562 -3.617188 7.34375 -4.421875 C 7.84375 -5.222656 8.175781 -6.050781 8.34375 -6.90625 L 8.75 -7.15625 C 8.53125 -6.738281 8.234375 -6.363281 7.859375 -6.03125 C 7.484375 -5.707031 7.0625 -5.453125 6.59375 -5.265625 C 6.132812 -5.078125 5.628906 -4.984375 5.078125 -4.984375 C 4.265625 -4.984375 3.5625 -5.179688 2.96875 -5.578125 C 2.375 -5.984375 1.914062 -6.519531 1.59375 -7.1875 C 1.269531 -7.851562 1.109375 -8.570312 1.109375 -9.34375 C 1.109375 -10.09375 1.289062 -10.789062 1.65625 -11.4375 C 2.019531 -12.09375 2.519531 -12.617188 3.15625 -13.015625 C 3.789062 -13.421875 4.507812 -13.625 5.3125 -13.625 Z M 5.34375 -12.515625 C 4.75 -12.515625 4.21875 -12.378906 3.75 -12.109375 C 3.289062 -11.847656 2.929688 -11.476562 2.671875 -11 C 2.410156 -10.519531 2.28125 -9.96875 2.28125 -9.34375 C 2.28125 -8.78125 2.390625 -8.25 2.609375 -7.75 C 2.835938 -7.25 3.175781 -6.847656 3.625 -6.546875 C 4.070312 -6.242188 4.613281 -6.09375 5.25 -6.09375 C 5.9375 -6.09375 6.523438 -6.242188 7.015625 -6.546875 C 7.503906 -6.847656 7.878906 -7.25 8.140625 -7.75 C 8.410156 -8.25 8.546875 -8.796875 8.546875 -9.390625 C 8.546875 -9.941406 8.414062 -10.453125 8.15625 -10.921875 C 7.90625 -11.398438 7.539062 -11.785156 7.0625 -12.078125 C 6.59375 -12.367188 6.019531 -12.515625 5.34375 -12.515625 Z M 5.34375 -12.515625 "/></g></g></g></g></g></g><g clip-path="url(#ebe4c20d3b)"><g transform="matrix(1, 0, 0, 1, 631, 600)"><g clip-path="url(#8b3e7d4901)"><g fill="#201f1f" fill-opacity="1"><g transform="translate(0.801672, 20.186304)"><g><path d="M 1.703125 -1.96875 C 1.765625 -1.96875 1.832031 -1.953125 1.90625 -1.921875 C 1.976562 -1.898438 2.066406 -1.847656 2.171875 -1.765625 C 2.429688 -1.484375 2.75 -1.269531 3.125 -1.125 C 3.5 -0.976562 3.921875 -0.90625 4.390625 -0.90625 C 5.015625 -0.90625 5.582031 -1.046875 6.09375 -1.328125 C 6.613281 -1.609375 7.023438 -2 7.328125 -2.5 C 7.640625 -3.007812 7.796875 -3.585938 7.796875 -4.234375 C 7.796875 -4.972656 7.632812 -5.566406 7.3125 -6.015625 C 6.988281 -6.472656 6.570312 -6.8125 6.0625 -7.03125 C 5.5625 -7.257812 5.050781 -7.375 4.53125 -7.375 C 4.382812 -7.375 4.242188 -7.363281 4.109375 -7.34375 C 3.972656 -7.332031 3.847656 -7.3125 3.734375 -7.28125 C 3.617188 -7.257812 3.53125 -7.25 3.46875 -7.25 C 3.300781 -7.25 3.171875 -7.300781 3.078125 -7.40625 C 2.992188 -7.519531 2.953125 -7.660156 2.953125 -7.828125 C 2.953125 -7.910156 2.96875 -7.988281 3 -8.0625 C 3.039062 -8.132812 3.09375 -8.210938 3.15625 -8.296875 L 7.0625 -12.53125 L 7.28125 -12.234375 L 1.46875 -12.234375 C 1.320312 -12.234375 1.191406 -12.285156 1.078125 -12.390625 C 0.972656 -12.503906 0.921875 -12.632812 0.921875 -12.78125 C 0.921875 -12.9375 0.972656 -13.066406 1.078125 -13.171875 C 1.191406 -13.273438 1.320312 -13.328125 1.46875 -13.328125 L 7.921875 -13.328125 C 8.140625 -13.328125 8.289062 -13.257812 8.375 -13.125 C 8.46875 -12.988281 8.515625 -12.859375 8.515625 -12.734375 C 8.515625 -12.648438 8.492188 -12.570312 8.453125 -12.5 C 8.410156 -12.4375 8.359375 -12.367188 8.296875 -12.296875 L 4.40625 -8.046875 L 3.984375 -8.296875 C 4.023438 -8.335938 4.15625 -8.378906 4.375 -8.421875 C 4.601562 -8.472656 4.78125 -8.5 4.90625 -8.5 C 5.613281 -8.5 6.273438 -8.332031 6.890625 -8 C 7.515625 -7.664062 8.019531 -7.1875 8.40625 -6.5625 C 8.789062 -5.945312 8.984375 -5.1875 8.984375 -4.28125 C 8.984375 -3.382812 8.769531 -2.597656 8.34375 -1.921875 C 7.925781 -1.253906 7.359375 -0.734375 6.640625 -0.359375 C 5.929688 0.00390625 5.144531 0.1875 4.28125 0.1875 C 3.75 0.1875 3.226562 0.0976562 2.71875 -0.078125 C 2.207031 -0.253906 1.757812 -0.519531 1.375 -0.875 C 1.289062 -0.957031 1.226562 -1.035156 1.1875 -1.109375 C 1.144531 -1.191406 1.125 -1.269531 1.125 -1.34375 C 1.125 -1.5 1.175781 -1.640625 1.28125 -1.765625 C 1.394531 -1.898438 1.535156 -1.96875 1.703125 -1.96875 Z M 1.703125 -1.96875 "/></g></g></g><g fill="#201f1f" fill-opacity="1"><g transform="translate(10.840165, 20.186304)"><g><path d="M 5.6875 0.1875 C 4.664062 0.1875 3.8125 -0.117188 3.125 -0.734375 C 2.4375 -1.347656 1.914062 -2.175781 1.5625 -3.21875 C 1.21875 -4.257812 1.046875 -5.421875 1.046875 -6.703125 C 1.046875 -8.015625 1.21875 -9.191406 1.5625 -10.234375 C 1.914062 -11.273438 2.4375 -12.097656 3.125 -12.703125 C 3.8125 -13.304688 4.664062 -13.609375 5.6875 -13.609375 C 6.738281 -13.609375 7.601562 -13.304688 8.28125 -12.703125 C 8.96875 -12.097656 9.484375 -11.273438 9.828125 -10.234375 C 10.179688 -9.191406 10.359375 -8.015625 10.359375 -6.703125 C 10.359375 -5.421875 10.179688 -4.257812 9.828125 -3.21875 C 9.484375 -2.175781 8.96875 -1.347656 8.28125 -0.734375 C 7.601562 -0.117188 6.738281 0.1875 5.6875 0.1875 Z M 5.6875 -1 C 6.445312 -1 7.078125 -1.234375 7.578125 -1.703125 C 8.085938 -2.179688 8.472656 -2.847656 8.734375 -3.703125 C 8.992188 -4.566406 9.125 -5.566406 9.125 -6.703125 C 9.125 -7.859375 8.992188 -8.867188 8.734375 -9.734375 C 8.472656 -10.597656 8.085938 -11.265625 7.578125 -11.734375 C 7.078125 -12.203125 6.445312 -12.4375 5.6875 -12.4375 C 4.945312 -12.4375 4.320312 -12.203125 3.8125 -11.734375 C 3.3125 -11.265625 2.929688 -10.597656 2.671875 -9.734375 C 2.410156 -8.867188 2.28125 -7.859375 2.28125 -6.703125 C 2.28125 -5.566406 2.410156 -4.566406 2.671875 -3.703125 C 2.929688 -2.847656 3.3125 -2.179688 3.8125 -1.703125 C 4.320312 -1.234375 4.945312 -1 5.6875 -1 Z M 5.6875 -1 "/></g></g></g></g></g></g><g clip-path="url(#3d9e15caf9)"><g transform="matrix(1, 0, 0, 1, 757, 600)"><g clip-path="url(#c323ee5cbc)"><g fill="#201f1f" fill-opacity="1"><g transform="translate(0.620435, 20.186304)"><g><path d="M 1.703125 -1.96875 C 1.765625 -1.96875 1.832031 -1.953125 1.90625 -1.921875 C 1.976562 -1.898438 2.066406 -1.847656 2.171875 -1.765625 C 2.429688 -1.484375 2.75 -1.269531 3.125 -1.125 C 3.5 -0.976562 3.921875 -0.90625 4.390625 -0.90625 C 5.015625 -0.90625 5.582031 -1.046875 6.09375 -1.328125 C 6.613281 -1.609375 7.023438 -2 7.328125 -2.5 C 7.640625 -3.007812 7.796875 -3.585938 7.796875 -4.234375 C 7.796875 -4.972656 7.632812 -5.566406 7.3125 -6.015625 C 6.988281 -6.472656 6.570312 -6.8125 6.0625 -7.03125 C 5.5625 -7.257812 5.050781 -7.375 4.53125 -7.375 C 4.382812 -7.375 4.242188 -7.363281 4.109375 -7.34375 C 3.972656 -7.332031 3.847656 -7.3125 3.734375 -7.28125 C 3.617188 -7.257812 3.53125 -7.25 3.46875 -7.25 C 3.300781 -7.25 3.171875 -7.300781 3.078125 -7.40625 C 2.992188 -7.519531 2.953125 -7.660156 2.953125 -7.828125 C 2.953125 -7.910156 2.96875 -7.988281 3 -8.0625 C 3.039062 -8.132812 3.09375 -8.210938 3.15625 -8.296875 L 7.0625 -12.53125 L 7.28125 -12.234375 L 1.46875 -12.234375 C 1.320312 -12.234375 1.191406 -12.285156 1.078125 -12.390625 C 0.972656 -12.503906 0.921875 -12.632812 0.921875 -12.78125 C 0.921875 -12.9375 0.972656 -13.066406 1.078125 -13.171875 C 1.191406 -13.273438 1.320312 -13.328125 1.46875 -13.328125 L 7.921875 -13.328125 C 8.140625 -13.328125 8.289062 -13.257812 8.375 -13.125 C 8.46875 -12.988281 8.515625 -12.859375 8.515625 -12.734375 C 8.515625 -12.648438 8.492188 -12.570312 8.453125 -12.5 C 8.410156 -12.4375 8.359375 -12.367188 8.296875 -12.296875 L 4.40625 -8.046875 L 3.984375 -8.296875 C 4.023438 -8.335938 4.15625 -8.378906 4.375 -8.421875 C 4.601562 -8.472656 4.78125 -8.5 4.90625 -8.5 C 5.613281 -8.5 6.273438 -8.332031 6.890625 -8 C 7.515625 -7.664062 8.019531 -7.1875 8.40625 -6.5625 C 8.789062 -5.945312 8.984375 -5.1875 8.984375 -4.28125 C 8.984375 -3.382812 8.769531 -2.597656 8.34375 -1.921875 C 7.925781 -1.253906 7.359375 -0.734375 6.640625 -0.359375 C 5.929688 0.00390625 5.144531 0.1875 4.28125 0.1875 C 3.75 0.1875 3.226562 0.0976562 2.71875 -0.078125 C 2.207031 -0.253906 1.757812 -0.519531 1.375 -0.875 C 1.289062 -0.957031 1.226562 -1.035156 1.1875 -1.109375 C 1.144531 -1.191406 1.125 -1.269531 1.125 -1.34375 C 1.125 -1.5 1.175781 -1.640625 1.28125 -1.765625 C 1.394531 -1.898438 1.535156 -1.96875 1.703125 -1.96875 Z M 1.703125 -1.96875 "/></g></g></g><g fill="#201f1f" fill-opacity="1"><g transform="translate(10.658929, 20.186304)"><g><path d="M 4.328125 0 C 4.148438 0 4.003906 -0.0546875 3.890625 -0.171875 C 3.773438 -0.285156 3.71875 -0.421875 3.71875 -0.578125 L 3.71875 -12.109375 L 3.9375 -11.921875 L 1.375 -10.21875 C 1.28125 -10.144531 1.171875 -10.109375 1.046875 -10.109375 C 0.898438 -10.109375 0.765625 -10.171875 0.640625 -10.296875 C 0.515625 -10.421875 0.453125 -10.5625 0.453125 -10.71875 C 0.453125 -10.925781 0.554688 -11.085938 0.765625 -11.203125 L 3.96875 -13.328125 C 4.039062 -13.378906 4.117188 -13.410156 4.203125 -13.421875 C 4.285156 -13.429688 4.359375 -13.429688 4.421875 -13.421875 C 4.585938 -13.410156 4.71875 -13.347656 4.8125 -13.234375 C 4.90625 -13.128906 4.953125 -13 4.953125 -12.84375 L 4.953125 -0.578125 C 4.953125 -0.421875 4.890625 -0.285156 4.765625 -0.171875 C 4.648438 -0.0546875 4.503906 0 4.328125 0 Z M 4.328125 0 "/></g></g></g></g></g></g><path stroke-linecap="butt" transform="matrix(0.75, 0, 0, 0.75, 0.0000031164, 0.00002)" fill-opacity="1" fill="#000000" fill-rule="nonzero" stroke-linejoin="miter" d="M 0.807288 1.609348 L 0.807288 998.390647 M 168.562504 1.609348 L 168.562504 998.390647 M 336.322929 1.609348 L 336.322929 998.390647 M 504.078145 1.609348 L 504.078145 998.390647 M 671.83857 1.609348 L 671.83857 998.390647 M 839.598995 1.609348 L 839.598995 998.390647 M 1007.354212 1.609348 L 1007.354212 998.390647 M 1175.114636 1.609348 L 1175.114636 998.390647 M -0.0000041552 0.807265 L 1175.91672 0.807265 M -0.0000041552 200.484358 L 1175.91672 200.484358 M -0.0000041552 400.161451 L 1175.91672 400.161451 M -0.0000041552 599.838544 L 1175.91672 599.838544 M -0.0000041552 799.515637 L 1175.91672 799.515637 M -0.0000041552 999.19273 L 1175.91672 999.19273 " stroke="#000000" stroke-width="1.610609" stroke-opacity="1" stroke-miterlimit="4"/></svg>