<svg xmlns="http://www.w3.org/2000/svg" xmlns:xlink="http://www.w3.org/1999/xlink" width="583" zoomAndPan="magnify" viewBox="0 0 438 300.000006" height="450" preserveAspectRatio="xMidYMid meet" version="1.0"><defs><g/><clipPath id="38ee1436db"><path d="M 0.734375 32 L 435.785156 32 L 435.785156 299.003906 L 0.734375 299.003906 Z M 0.734375 32 " clip-rule="nonzero"/></clipPath><clipPath id="88ca0dfa59"><path d="M 0.734375 31.605469 L 435.785156 31.605469 L 435.785156 299.003906 L 0.734375 299.003906 Z M 0.734375 31.605469 " clip-rule="nonzero"/></clipPath><clipPath id="fa13c7475d"><rect x="0" width="52" y="0" height="29"/></clipPath><clipPath id="6c5e191521"><rect x="0" width="43" y="0" height="30"/></clipPath><clipPath id="efde012525"><rect x="0" width="49" y="0" height="30"/></clipPath><clipPath id="d2f1a30c7d"><rect x="0" width="45" y="0" height="30"/></clipPath><clipPath id="1ad76a0d69"><rect x="0" width="33" y="0" height="30"/></clipPath><clipPath id="747e2718d5"><rect x="0" width="40" y="0" height="30"/></clipPath><clipPath id="79ffdf0ffb"><rect x="0" width="46" y="0" height="30"/></clipPath></defs><g clip-path="url(#38ee1436db)"><path fill="#000000" d="M 1.214844 32.566406 L 1.214844 335.273438 M 63.191406 32.566406 L 63.191406 335.273438 M 125.164062 32.566406 L 125.164062 335.273438 M 187.140625 32.566406 L 187.140625 335.273438 M 249.113281 32.566406 L 249.113281 335.273438 M 311.089844 32.566406 L 311.089844 335.273438 M 373.0625 32.566406 L 373.0625 335.273438 M 435.039062 32.566406 L 435.039062 335.273438 M 0.734375 32.085938 L 435.519531 32.085938 M 0.734375 92.820312 L 435.519531 92.820312 M 0.734375 153.550781 L 435.519531 153.550781 M 0.734375 214.285156 L 435.519531 214.285156 M 0.734375 275.019531 L 435.519531 275.019531 M 0.734375 335.753906 L 435.519531 335.753906 " fill-opacity="1" fill-rule="nonzero"/></g><g clip-path="url(#88ca0dfa59)"><path stroke-linecap="butt" transform="matrix(0.747508, 0, 0, 0.747508, 0.73526, 31.605069)" fill="none" stroke-linejoin="miter" d="M 0.641576 1.286055 L 0.641576 406.240804 M 83.552446 1.286055 L 83.552446 406.240804 M 166.458091 1.286055 L 166.458091 406.240804 M 249.36896 1.286055 L 249.36896 406.240804 M 332.274605 1.286055 L 332.274605 406.240804 M 415.185474 1.286055 L 415.185474 406.240804 M 498.091119 1.286055 L 498.091119 406.240804 M 581.001988 1.286055 L 581.001988 406.240804 M -0.00118394 0.643295 L 581.644749 0.643295 M -0.00118394 81.892394 L 581.644749 81.892394 M -0.00118394 163.136267 L 581.644749 163.136267 M -0.00118394 244.385366 L 581.644749 244.385366 M -0.00118394 325.634465 L 581.644749 325.634465 M -0.00118394 406.883564 L 581.644749 406.883564 " stroke="#000000" stroke-width="1.285358" stroke-opacity="1" stroke-miterlimit="4"/></g><g transform="matrix(1, 0, 0, 1, 8, 6)"><g clip-path="url(#fa13c7475d)"><g fill="#000000" fill-opacity="1"><g transform="translate(1.279676, 21.538287)"><g><path d="M 8.90625 -1.046875 L 3.140625 -12.875 L 3.140625 0 L 1.625 0 L 1.625 -14.75 L 3.890625 -14.75 L 8.9375 -4.28125 L 13.9375 -14.75 L 16.21875 -14.75 L 16.21875 0 L 14.6875 0 L 14.6875 -12.890625 Z M 8.90625 -1.046875 "/></g></g></g><g fill="#000000" fill-opacity="1"><g transform="translate(19.123769, 21.538287)"><g><path d="M 16.109375 -7.375 C 16.109375 -6.320312 15.910156 -5.328125 15.515625 -4.390625 C 15.128906 -3.453125 14.59375 -2.644531 13.90625 -1.96875 C 13.226562 -1.289062 12.425781 -0.753906 11.5 -0.359375 C 10.570312 0.0351562 9.582031 0.234375 8.53125 0.234375 C 7.476562 0.234375 6.484375 0.0351562 5.546875 -0.359375 C 4.617188 -0.753906 3.8125 -1.289062 3.125 -1.96875 C 2.445312 -2.644531 1.910156 -3.453125 1.515625 -4.390625 C 1.117188 -5.328125 0.921875 -6.320312 0.921875 -7.375 C 0.921875 -8.425781 1.117188 -9.414062 1.515625 -10.34375 C 1.910156 -11.28125 2.445312 -12.085938 3.125 -12.765625 C 3.8125 -13.453125 4.617188 -13.988281 5.546875 -14.375 C 6.484375 -14.769531 7.476562 -14.96875 8.53125 -14.96875 C 9.582031 -14.96875 10.570312 -14.769531 11.5 -14.375 C 12.425781 -13.988281 13.226562 -13.453125 13.90625 -12.765625 C 14.59375 -12.085938 15.128906 -11.28125 15.515625 -10.34375 C 15.910156 -9.414062 16.109375 -8.425781 16.109375 -7.375 Z M 14.46875 -7.375 C 14.46875 -8.226562 14.3125 -9.03125 14 -9.78125 C 13.695312 -10.53125 13.28125 -11.175781 12.75 -11.71875 C 12.226562 -12.257812 11.597656 -12.6875 10.859375 -13 C 10.128906 -13.320312 9.351562 -13.484375 8.53125 -13.484375 C 7.6875 -13.484375 6.898438 -13.320312 6.171875 -13 C 5.441406 -12.6875 4.8125 -12.257812 4.28125 -11.71875 C 3.757812 -11.175781 3.34375 -10.53125 3.03125 -9.78125 C 2.71875 -9.03125 2.5625 -8.226562 2.5625 -7.375 C 2.5625 -6.519531 2.71875 -5.71875 3.03125 -4.96875 C 3.34375 -4.226562 3.757812 -3.582031 4.28125 -3.03125 C 4.8125 -2.488281 5.441406 -2.054688 6.171875 -1.734375 C 6.898438 -1.421875 7.6875 -1.265625 8.53125 -1.265625 C 9.351562 -1.265625 10.128906 -1.421875 10.859375 -1.734375 C 11.597656 -2.054688 12.226562 -2.488281 12.75 -3.03125 C 13.28125 -3.582031 13.695312 -4.226562 14 -4.96875 C 14.3125 -5.71875 14.46875 -6.519531 14.46875 -7.375 Z M 14.46875 -7.375 "/></g></g></g><g fill="#000000" fill-opacity="1"><g transform="translate(36.167304, 21.538287)"><g><path d="M 1.625 -14.75 L 3.25 -14.75 L 12.109375 -2.78125 L 12.109375 -14.75 L 13.65625 -14.75 L 13.65625 0 L 12.21875 0 L 3.15625 -12.28125 L 3.15625 0 L 1.625 0 Z M 1.625 -14.75 "/></g></g></g></g></g><g transform="matrix(1, 0, 0, 1, 74, 6)"><g clip-path="url(#6c5e191521)"><g fill="#000000" fill-opacity="1"><g transform="translate(0.791544, 22.857469)"><g><path d="M 0.359375 -13.5625 L 0.359375 -15.046875 L 12.890625 -15.046875 L 12.890625 -13.5625 L 7.453125 -13.5625 L 7.453125 0 L 5.796875 0 L 5.796875 -13.5625 Z M 0.359375 -13.5625 "/></g></g></g><g fill="#000000" fill-opacity="1"><g transform="translate(14.047354, 22.857469)"><g><path d="M 13.765625 -6.359375 C 13.765625 -4.359375 13.203125 -2.757812 12.078125 -1.5625 C 10.960938 -0.363281 9.457031 0.234375 7.5625 0.234375 C 5.65625 0.234375 4.144531 -0.359375 3.03125 -1.546875 C 1.914062 -2.734375 1.359375 -4.335938 1.359375 -6.359375 L 1.359375 -15.046875 L 3.015625 -15.046875 L 3.015625 -6.359375 C 3.015625 -4.828125 3.425781 -3.597656 4.25 -2.671875 C 5.082031 -1.753906 6.1875 -1.296875 7.5625 -1.296875 C 8.9375 -1.296875 10.039062 -1.753906 10.875 -2.671875 C 11.707031 -3.597656 12.125 -4.828125 12.125 -6.359375 L 12.125 -15.046875 L 13.765625 -15.046875 Z M 13.765625 -6.359375 "/></g></g></g><g fill="#000000" fill-opacity="1"><g transform="translate(29.172294, 22.857469)"><g><path d="M 1.65625 0 L 1.65625 -15.046875 L 12.421875 -15.046875 L 12.421875 -13.578125 L 3.3125 -13.578125 L 3.3125 -8.3125 L 9.265625 -8.3125 L 9.265625 -6.875 L 3.3125 -6.875 L 3.3125 -1.46875 L 12.5 -1.46875 L 12.5 0 Z M 1.65625 0 "/></g></g></g></g></g><g transform="matrix(1, 0, 0, 1, 133, 6)"><g clip-path="url(#efde012525)"><g fill="#000000" fill-opacity="1"><g transform="translate(0.526835, 22.857469)"><g><path d="M 5.671875 0 L 4 0 L 0.75 -15.046875 L 2.421875 -15.046875 L 4.984375 -2.625 L 8.703125 -15.046875 L 10.3125 -15.046875 L 14.03125 -2.671875 L 16.609375 -15.046875 L 18.21875 -15.046875 L 14.96875 0 L 13.296875 0 L 9.5 -12.734375 Z M 5.671875 0 "/></g></g></g><g fill="#000000" fill-opacity="1"><g transform="translate(19.475981, 22.857469)"><g><path d="M 1.65625 0 L 1.65625 -15.046875 L 12.421875 -15.046875 L 12.421875 -13.578125 L 3.3125 -13.578125 L 3.3125 -8.3125 L 9.265625 -8.3125 L 9.265625 -6.875 L 3.3125 -6.875 L 3.3125 -1.46875 L 12.5 -1.46875 L 12.5 0 Z M 1.65625 0 "/></g></g></g><g fill="#000000" fill-opacity="1"><g transform="translate(32.710299, 22.857469)"><g><path d="M 1.65625 0 L 1.65625 -15.046875 L 6.625 -15.046875 C 7.75 -15.046875 8.796875 -14.851562 9.765625 -14.46875 C 10.742188 -14.09375 11.582031 -13.570312 12.28125 -12.90625 C 12.988281 -12.25 13.539062 -11.457031 13.9375 -10.53125 C 14.332031 -9.613281 14.53125 -8.609375 14.53125 -7.515625 C 14.53125 -6.429688 14.332031 -5.425781 13.9375 -4.5 C 13.539062 -3.570312 12.992188 -2.78125 12.296875 -2.125 C 11.609375 -1.46875 10.773438 -0.945312 9.796875 -0.5625 C 8.828125 -0.1875 7.769531 0 6.625 0 Z M 6.703125 -13.53125 L 3.3125 -13.53125 L 3.3125 -1.5 L 6.703125 -1.5 C 7.566406 -1.5 8.375 -1.648438 9.125 -1.953125 C 9.882812 -2.265625 10.535156 -2.691406 11.078125 -3.234375 C 11.628906 -3.773438 12.0625 -4.410156 12.375 -5.140625 C 12.6875 -5.878906 12.84375 -6.671875 12.84375 -7.515625 C 12.84375 -8.359375 12.6875 -9.148438 12.375 -9.890625 C 12.0625 -10.628906 11.628906 -11.265625 11.078125 -11.796875 C 10.535156 -12.335938 9.882812 -12.757812 9.125 -13.0625 C 8.375 -13.375 7.566406 -13.53125 6.703125 -13.53125 Z M 6.703125 -13.53125 "/></g></g></g></g></g><g transform="matrix(1, 0, 0, 1, 195, 6)"><g clip-path="url(#d2f1a30c7d)"><g fill="#000000" fill-opacity="1"><g transform="translate(0.960065, 22.857469)"><g><path d="M 0.359375 -13.5625 L 0.359375 -15.046875 L 12.890625 -15.046875 L 12.890625 -13.5625 L 7.453125 -13.5625 L 7.453125 0 L 5.796875 0 L 5.796875 -13.5625 Z M 0.359375 -13.5625 "/></g></g></g><g fill="#000000" fill-opacity="1"><g transform="translate(14.215875, 22.857469)"><g><path d="M 1.65625 0 L 1.65625 -15.046875 L 3.3125 -15.046875 L 3.3125 -8.3125 L 12.046875 -8.3125 L 12.046875 -15.046875 L 13.703125 -15.046875 L 13.703125 0 L 12.046875 0 L 12.046875 -6.828125 L 3.3125 -6.828125 L 3.3125 0 Z M 1.65625 0 "/></g></g></g><g fill="#000000" fill-opacity="1"><g transform="translate(29.577146, 22.857469)"><g><path d="M 13.765625 -6.359375 C 13.765625 -4.359375 13.203125 -2.757812 12.078125 -1.5625 C 10.960938 -0.363281 9.457031 0.234375 7.5625 0.234375 C 5.65625 0.234375 4.144531 -0.359375 3.03125 -1.546875 C 1.914062 -2.734375 1.359375 -4.335938 1.359375 -6.359375 L 1.359375 -15.046875 L 3.015625 -15.046875 L 3.015625 -6.359375 C 3.015625 -4.828125 3.425781 -3.597656 4.25 -2.671875 C 5.082031 -1.753906 6.1875 -1.296875 7.5625 -1.296875 C 8.9375 -1.296875 10.039062 -1.753906 10.875 -2.671875 C 11.707031 -3.597656 12.125 -4.828125 12.125 -6.359375 L 12.125 -15.046875 L 13.765625 -15.046875 Z M 13.765625 -6.359375 "/></g></g></g></g></g><g transform="matrix(1, 0, 0, 1, 262, 6)"><g clip-path="url(#1ad76a0d69)"><g fill="#000000" fill-opacity="1"><g transform="translate(0.748768, 22.857469)"><g><path d="M 1.65625 0 L 1.65625 -15.046875 L 12.421875 -15.046875 L 12.421875 -13.578125 L 3.3125 -13.578125 L 3.3125 -8.203125 L 9.28125 -8.203125 L 9.28125 -6.765625 L 3.3125 -6.765625 L 3.3125 0 Z M 1.65625 0 "/></g></g></g><g fill="#000000" fill-opacity="1"><g transform="translate(13.789729, 22.857469)"><g><path d="M 1.65625 0 L 1.65625 -15.046875 L 8.09375 -15.046875 C 9.5625 -15.046875 10.742188 -14.644531 11.640625 -13.84375 C 12.546875 -13.050781 13 -12.007812 13 -10.71875 C 13 -9.726562 12.707031 -8.875 12.125 -8.15625 C 11.550781 -7.445312 10.773438 -6.957031 9.796875 -6.6875 L 13.171875 0 L 11.34375 0 L 8.125 -6.46875 L 3.3125 -6.46875 L 3.3125 0 Z M 8 -13.5625 L 3.3125 -13.5625 L 3.3125 -7.859375 L 8 -7.859375 C 9 -7.859375 9.804688 -8.117188 10.421875 -8.640625 C 11.035156 -9.171875 11.34375 -9.863281 11.34375 -10.71875 C 11.34375 -11.582031 11.035156 -12.269531 10.421875 -12.78125 C 9.804688 -13.300781 9 -13.5625 8 -13.5625 Z M 8 -13.5625 "/></g></g></g><g fill="#000000" fill-opacity="1"><g transform="translate(27.647093, 22.857469)"><g><path d="M 1.65625 0 L 1.65625 -15.046875 L 3.3125 -15.046875 L 3.3125 0 Z M 1.65625 0 "/></g></g></g></g></g><g transform="matrix(1, 0, 0, 1, 320, 6)"><g clip-path="url(#747e2718d5)"><g fill="#000000" fill-opacity="1"><g transform="translate(0.900333, 22.857469)"><g><path d="M 0.234375 -2.578125 L 1.328125 -3.71875 C 2.109375 -2.90625 2.9375 -2.285156 3.8125 -1.859375 C 4.695312 -1.429688 5.625 -1.21875 6.59375 -1.21875 C 7.769531 -1.21875 8.738281 -1.5 9.5 -2.0625 C 10.257812 -2.625 10.640625 -3.332031 10.640625 -4.1875 C 10.640625 -4.957031 10.367188 -5.550781 9.828125 -5.96875 C 9.296875 -6.382812 8.410156 -6.691406 7.171875 -6.890625 L 5 -7.234375 C 3.5625 -7.460938 2.5 -7.890625 1.8125 -8.515625 C 1.125 -9.140625 0.78125 -9.984375 0.78125 -11.046875 C 0.78125 -12.285156 1.265625 -13.289062 2.234375 -14.0625 C 3.210938 -14.84375 4.488281 -15.234375 6.0625 -15.234375 C 7.101562 -15.234375 8.140625 -15.0625 9.171875 -14.71875 C 10.203125 -14.375 11.140625 -13.878906 11.984375 -13.234375 L 11.046875 -11.953125 C 10.222656 -12.566406 9.390625 -13.03125 8.546875 -13.34375 C 7.703125 -13.65625 6.851562 -13.8125 6 -13.8125 C 4.925781 -13.8125 4.054688 -13.5625 3.390625 -13.0625 C 2.722656 -12.570312 2.390625 -11.941406 2.390625 -11.171875 C 2.390625 -10.472656 2.625 -9.9375 3.09375 -9.5625 C 3.5625 -9.1875 4.34375 -8.914062 5.4375 -8.75 L 7.578125 -8.40625 C 9.210938 -8.132812 10.40625 -7.664062 11.15625 -7 C 11.914062 -6.34375 12.296875 -5.4375 12.296875 -4.28125 C 12.296875 -3.613281 12.15625 -3.003906 11.875 -2.453125 C 11.59375 -1.910156 11.195312 -1.441406 10.6875 -1.046875 C 10.175781 -0.648438 9.566406 -0.335938 8.859375 -0.109375 C 8.148438 0.109375 7.375 0.21875 6.53125 0.21875 C 5.34375 0.21875 4.203125 -0.0195312 3.109375 -0.5 C 2.015625 -0.976562 1.054688 -1.671875 0.234375 -2.578125 Z M 0.234375 -2.578125 "/></g></g></g><g fill="#000000" fill-opacity="1"><g transform="translate(13.57604, 22.857469)"><g><path d="M 0.09375 0 L 6.34375 -15.046875 L 8.34375 -15.046875 L 14.5 0 L 12.703125 0 L 10.8125 -4.734375 L 3.71875 -4.734375 L 1.8125 0 Z M 4.296875 -6.140625 L 10.234375 -6.140625 L 7.28125 -13.5 Z M 4.296875 -6.140625 "/></g></g></g><g fill="#000000" fill-opacity="1"><g transform="translate(25.413547, 22.857469)"><g><path d="M 0.359375 -13.5625 L 0.359375 -15.046875 L 12.890625 -15.046875 L 12.890625 -13.5625 L 7.453125 -13.5625 L 7.453125 0 L 5.796875 0 L 5.796875 -13.5625 Z M 0.359375 -13.5625 "/></g></g></g></g></g><g transform="matrix(1, 0, 0, 1, 380, 6)"><g clip-path="url(#79ffdf0ffb)"><g fill="#000000" fill-opacity="1"><g transform="translate(1.077328, 22.180507)"><g><path d="M 0.234375 -2.578125 L 1.328125 -3.71875 C 2.109375 -2.90625 2.9375 -2.285156 3.8125 -1.859375 C 4.695312 -1.429688 5.625 -1.21875 6.59375 -1.21875 C 7.769531 -1.21875 8.738281 -1.5 9.5 -2.0625 C 10.257812 -2.625 10.640625 -3.332031 10.640625 -4.1875 C 10.640625 -4.957031 10.367188 -5.550781 9.828125 -5.96875 C 9.296875 -6.382812 8.410156 -6.691406 7.171875 -6.890625 L 5 -7.234375 C 3.5625 -7.460938 2.5 -7.890625 1.8125 -8.515625 C 1.125 -9.140625 0.78125 -9.984375 0.78125 -11.046875 C 0.78125 -12.285156 1.265625 -13.289062 2.234375 -14.0625 C 3.210938 -14.84375 4.488281 -15.234375 6.0625 -15.234375 C 7.101562 -15.234375 8.140625 -15.0625 9.171875 -14.71875 C 10.203125 -14.375 11.140625 -13.878906 11.984375 -13.234375 L 11.046875 -11.953125 C 10.222656 -12.566406 9.390625 -13.03125 8.546875 -13.34375 C 7.703125 -13.65625 6.851562 -13.8125 6 -13.8125 C 4.925781 -13.8125 4.054688 -13.5625 3.390625 -13.0625 C 2.722656 -12.570312 2.390625 -11.941406 2.390625 -11.171875 C 2.390625 -10.472656 2.625 -9.9375 3.09375 -9.5625 C 3.5625 -9.1875 4.34375 -8.914062 5.4375 -8.75 L 7.578125 -8.40625 C 9.210938 -8.132812 10.40625 -7.664062 11.15625 -7 C 11.914062 -6.34375 12.296875 -5.4375 12.296875 -4.28125 C 12.296875 -3.613281 12.15625 -3.003906 11.875 -2.453125 C 11.59375 -1.910156 11.195312 -1.441406 10.6875 -1.046875 C 10.175781 -0.648438 9.566406 -0.335938 8.859375 -0.109375 C 8.148438 0.109375 7.375 0.21875 6.53125 0.21875 C 5.34375 0.21875 4.203125 -0.0195312 3.109375 -0.5 C 2.015625 -0.976562 1.054688 -1.671875 0.234375 -2.578125 Z M 0.234375 -2.578125 "/></g></g></g><g fill="#000000" fill-opacity="1"><g transform="translate(13.967905, 22.180507)"><g><path d="M 13.765625 -6.359375 C 13.765625 -4.359375 13.203125 -2.757812 12.078125 -1.5625 C 10.960938 -0.363281 9.457031 0.234375 7.5625 0.234375 C 5.65625 0.234375 4.144531 -0.359375 3.03125 -1.546875 C 1.914062 -2.734375 1.359375 -4.335938 1.359375 -6.359375 L 1.359375 -15.046875 L 3.015625 -15.046875 L 3.015625 -6.359375 C 3.015625 -4.828125 3.425781 -3.597656 4.25 -2.671875 C 5.082031 -1.753906 6.1875 -1.296875 7.5625 -1.296875 C 8.9375 -1.296875 10.039062 -1.753906 10.875 -2.671875 C 11.707031 -3.597656 12.125 -4.828125 12.125 -6.359375 L 12.125 -15.046875 L 13.765625 -15.046875 Z M 13.765625 -6.359375 "/></g></g></g><g fill="#000000" fill-opacity="1"><g transform="translate(29.092845, 22.180507)"><g><path d="M 1.65625 -15.046875 L 3.3125 -15.046875 L 12.359375 -2.84375 L 12.359375 -15.046875 L 13.921875 -15.046875 L 13.921875 0 L 12.46875 0 L 3.21875 -12.53125 L 3.21875 0 L 1.65625 0 Z M 1.65625 -15.046875 "/></g></g></g></g></g></svg>