<svg xmlns="http://www.w3.org/2000/svg" xmlns:xlink="http://www.w3.org/1999/xlink" width="1176" zoomAndPan="magnify" viewBox="0 0 882 75.119995" height="90" preserveAspectRatio="xMidYMid meet" version="1.0"><defs><g/></defs><g fill="#000000" fill-opacity="1"><g transform="translate(405.766444, 59.049228)"><g><path d="M 10.453125 0 C 10.128906 0 9.867188 -0.101562 9.671875 -0.3125 C 9.472656 -0.519531 9.375 -0.757812 9.375 -1.03125 L 9.375 -23.078125 L 11.515625 -23.078125 L 11.515625 -1.03125 C 11.515625 -0.757812 11.410156 -0.519531 11.203125 -0.3125 C 10.992188 -0.101562 10.742188 0 10.453125 0 Z M 2.21875 -22.25 C 1.9375 -22.25 1.691406 -22.335938 1.484375 -22.515625 C 1.273438 -22.703125 1.171875 -22.945312 1.171875 -23.25 C 1.171875 -23.519531 1.273438 -23.75 1.484375 -23.9375 C 1.691406 -24.125 1.9375 -24.21875 2.21875 -24.21875 L 18.6875 -24.21875 C 18.957031 -24.21875 19.195312 -24.125 19.40625 -23.9375 C 19.613281 -23.75 19.71875 -23.507812 19.71875 -23.21875 C 19.71875 -22.914062 19.613281 -22.675781 19.40625 -22.5 C 19.195312 -22.332031 18.957031 -22.25 18.6875 -22.25 Z M 2.21875 -22.25 "/></g></g></g><g fill="#000000" fill-opacity="1"><g transform="translate(426.656942, 59.049228)"><g><path d="M 4.359375 -24.21875 C 4.640625 -24.21875 4.890625 -24.113281 5.109375 -23.90625 C 5.328125 -23.695312 5.4375 -23.441406 5.4375 -23.140625 L 5.4375 -1.078125 C 5.40625 -0.773438 5.28125 -0.519531 5.0625 -0.3125 C 4.84375 -0.101562 4.597656 0 4.328125 0 C 4.003906 0 3.742188 -0.101562 3.546875 -0.3125 C 3.347656 -0.519531 3.25 -0.773438 3.25 -1.078125 L 3.25 -23.140625 C 3.25 -23.441406 3.351562 -23.695312 3.5625 -23.90625 C 3.769531 -24.113281 4.035156 -24.21875 4.359375 -24.21875 Z M 20.578125 -24.21875 C 20.898438 -24.21875 21.160156 -24.113281 21.359375 -23.90625 C 21.554688 -23.695312 21.65625 -23.441406 21.65625 -23.140625 L 21.65625 -1.078125 C 21.632812 -0.773438 21.523438 -0.519531 21.328125 -0.3125 C 21.128906 -0.101562 20.867188 0 20.546875 0 C 20.242188 0 19.988281 -0.101562 19.78125 -0.3125 C 19.570312 -0.519531 19.46875 -0.773438 19.46875 -1.078125 L 19.46875 -23.140625 C 19.46875 -23.441406 19.578125 -23.695312 19.796875 -23.90625 C 20.023438 -24.113281 20.285156 -24.21875 20.578125 -24.21875 Z M 4.1875 -13.390625 L 20.625 -13.390625 L 20.578125 -11.375 L 4.046875 -11.375 Z M 4.1875 -13.390625 "/></g></g></g><g fill="#000000" fill-opacity="1"><g transform="translate(451.559532, 59.049228)"><g><path d="M 20.375 -24.21875 C 20.695312 -24.21875 20.945312 -24.117188 21.125 -23.921875 C 21.3125 -23.722656 21.40625 -23.472656 21.40625 -23.171875 L 21.40625 -8.859375 C 21.40625 -7.148438 21 -5.601562 20.1875 -4.21875 C 19.382812 -2.832031 18.300781 -1.726562 16.9375 -0.90625 C 15.582031 -0.09375 14.050781 0.3125 12.34375 0.3125 C 10.644531 0.3125 9.109375 -0.09375 7.734375 -0.90625 C 6.359375 -1.726562 5.265625 -2.832031 4.453125 -4.21875 C 3.648438 -5.601562 3.25 -7.148438 3.25 -8.859375 L 3.25 -23.171875 C 3.25 -23.472656 3.347656 -23.722656 3.546875 -23.921875 C 3.742188 -24.117188 4.015625 -24.21875 4.359375 -24.21875 C 4.640625 -24.21875 4.878906 -24.117188 5.078125 -23.921875 C 5.285156 -23.722656 5.390625 -23.472656 5.390625 -23.171875 L 5.390625 -8.859375 C 5.390625 -7.515625 5.707031 -6.3125 6.34375 -5.25 C 6.976562 -4.195312 7.828125 -3.351562 8.890625 -2.71875 C 9.953125 -2.082031 11.101562 -1.765625 12.34375 -1.765625 C 13.632812 -1.765625 14.8125 -2.082031 15.875 -2.71875 C 16.9375 -3.351562 17.785156 -4.195312 18.421875 -5.25 C 19.054688 -6.3125 19.375 -7.515625 19.375 -8.859375 L 19.375 -23.171875 C 19.375 -23.472656 19.460938 -23.722656 19.640625 -23.921875 C 19.828125 -24.117188 20.070312 -24.21875 20.375 -24.21875 Z M 20.375 -24.21875 "/></g></g></g><g fill="#000000" fill-opacity="1"><g transform="translate(27.10204, 59.053687)"><g><path d="M 4.28125 -24.1875 C 4.445312 -24.1875 4.613281 -24.148438 4.78125 -24.078125 C 4.957031 -24.003906 5.101562 -23.890625 5.21875 -23.734375 L 14.75 -9.4375 L 13.8125 -9.46875 L 23.390625 -23.734375 C 23.640625 -24.078125 23.953125 -24.226562 24.328125 -24.1875 C 24.597656 -24.1875 24.832031 -24.085938 25.03125 -23.890625 C 25.226562 -23.691406 25.328125 -23.441406 25.328125 -23.140625 L 25.328125 -1.03125 C 25.328125 -0.757812 25.222656 -0.519531 25.015625 -0.3125 C 24.804688 -0.101562 24.550781 0 24.25 0 C 23.925781 0 23.660156 -0.101562 23.453125 -0.3125 C 23.242188 -0.519531 23.140625 -0.757812 23.140625 -1.03125 L 23.140625 -21.03125 L 23.765625 -20.96875 L 15.03125 -7.734375 C 14.957031 -7.597656 14.851562 -7.488281 14.71875 -7.40625 C 14.582031 -7.332031 14.421875 -7.304688 14.234375 -7.328125 C 14.066406 -7.304688 13.910156 -7.332031 13.765625 -7.40625 C 13.617188 -7.488281 13.5 -7.597656 13.40625 -7.734375 L 4.625 -21.109375 L 5.28125 -21.5625 L 5.28125 -1.03125 C 5.28125 -0.757812 5.179688 -0.519531 4.984375 -0.3125 C 4.796875 -0.101562 4.550781 0 4.25 0 C 3.945312 0 3.703125 -0.101562 3.515625 -0.3125 C 3.335938 -0.519531 3.25 -0.757812 3.25 -1.03125 L 3.25 -23.140625 C 3.25 -23.421875 3.34375 -23.664062 3.53125 -23.875 C 3.726562 -24.082031 3.976562 -24.1875 4.28125 -24.1875 Z M 4.28125 -24.1875 "/></g></g></g><g fill="#000000" fill-opacity="1"><g transform="translate(55.667128, 59.053687)"><g><path d="M 24.796875 -12.09375 C 24.796875 -10.269531 24.515625 -8.601562 23.953125 -7.09375 C 23.390625 -5.59375 22.585938 -4.28125 21.546875 -3.15625 C 20.515625 -2.039062 19.289062 -1.175781 17.875 -0.5625 C 16.457031 0.0390625 14.910156 0.34375 13.234375 0.34375 C 11.546875 0.34375 9.992188 0.0390625 8.578125 -0.5625 C 7.160156 -1.175781 5.929688 -2.039062 4.890625 -3.15625 C 3.859375 -4.28125 3.0625 -5.59375 2.5 -7.09375 C 1.9375 -8.601562 1.65625 -10.269531 1.65625 -12.09375 C 1.65625 -13.914062 1.9375 -15.578125 2.5 -17.078125 C 3.0625 -18.585938 3.859375 -19.898438 4.890625 -21.015625 C 5.929688 -22.140625 7.160156 -23.003906 8.578125 -23.609375 C 9.992188 -24.222656 11.546875 -24.53125 13.234375 -24.53125 C 14.910156 -24.53125 16.457031 -24.222656 17.875 -23.609375 C 19.289062 -23.003906 20.515625 -22.140625 21.546875 -21.015625 C 22.585938 -19.898438 23.390625 -18.585938 23.953125 -17.078125 C 24.515625 -15.578125 24.796875 -13.914062 24.796875 -12.09375 Z M 22.59375 -12.09375 C 22.59375 -14.144531 22.191406 -15.945312 21.390625 -17.5 C 20.597656 -19.050781 19.5 -20.265625 18.09375 -21.140625 C 16.695312 -22.015625 15.078125 -22.453125 13.234375 -22.453125 C 11.410156 -22.453125 9.789062 -22.015625 8.375 -21.140625 C 6.957031 -20.265625 5.851562 -19.050781 5.0625 -17.5 C 4.269531 -15.945312 3.875 -14.144531 3.875 -12.09375 C 3.875 -10.039062 4.269531 -8.238281 5.0625 -6.6875 C 5.851562 -5.132812 6.957031 -3.921875 8.375 -3.046875 C 9.789062 -2.171875 11.410156 -1.734375 13.234375 -1.734375 C 15.078125 -1.734375 16.695312 -2.171875 18.09375 -3.046875 C 19.5 -3.921875 20.597656 -5.132812 21.390625 -6.6875 C 22.191406 -8.238281 22.59375 -10.039062 22.59375 -12.09375 Z M 22.59375 -12.09375 "/></g></g></g><g fill="#000000" fill-opacity="1"><g transform="translate(82.125241, 59.053687)"><g><path d="M 20.9375 -24.1875 C 21.238281 -24.1875 21.472656 -24.09375 21.640625 -23.90625 C 21.816406 -23.71875 21.90625 -23.488281 21.90625 -23.21875 L 21.90625 -1.109375 C 21.90625 -0.765625 21.796875 -0.492188 21.578125 -0.296875 C 21.359375 -0.0976562 21.109375 0 20.828125 0 C 20.691406 0 20.539062 -0.0234375 20.375 -0.078125 C 20.21875 -0.140625 20.09375 -0.226562 20 -0.34375 L 4.59375 -21.109375 L 5.1875 -21.421875 L 5.1875 -0.9375 C 5.1875 -0.675781 5.09375 -0.453125 4.90625 -0.265625 C 4.71875 -0.0859375 4.488281 0 4.21875 0 C 3.914062 0 3.675781 -0.0859375 3.5 -0.265625 C 3.332031 -0.453125 3.25 -0.675781 3.25 -0.9375 L 3.25 -23.140625 C 3.25 -23.492188 3.351562 -23.753906 3.5625 -23.921875 C 3.769531 -24.097656 4 -24.1875 4.25 -24.1875 C 4.382812 -24.1875 4.53125 -24.15625 4.6875 -24.09375 C 4.851562 -24.039062 4.984375 -23.941406 5.078125 -23.796875 L 20.3125 -3.28125 L 19.96875 -2.65625 L 19.96875 -23.21875 C 19.96875 -23.488281 20.066406 -23.71875 20.265625 -23.90625 C 20.460938 -24.09375 20.6875 -24.1875 20.9375 -24.1875 Z M 20.9375 -24.1875 "/></g></g></g><g fill="#000000" fill-opacity="1"><g transform="translate(158.777182, 59.049228)"><g><path d="M 10.453125 0 C 10.128906 0 9.867188 -0.101562 9.671875 -0.3125 C 9.472656 -0.519531 9.375 -0.757812 9.375 -1.03125 L 9.375 -23.078125 L 11.515625 -23.078125 L 11.515625 -1.03125 C 11.515625 -0.757812 11.410156 -0.519531 11.203125 -0.3125 C 10.992188 -0.101562 10.742188 0 10.453125 0 Z M 2.21875 -22.25 C 1.9375 -22.25 1.691406 -22.335938 1.484375 -22.515625 C 1.273438 -22.703125 1.171875 -22.945312 1.171875 -23.25 C 1.171875 -23.519531 1.273438 -23.75 1.484375 -23.9375 C 1.691406 -24.125 1.9375 -24.21875 2.21875 -24.21875 L 18.6875 -24.21875 C 18.957031 -24.21875 19.195312 -24.125 19.40625 -23.9375 C 19.613281 -23.75 19.71875 -23.507812 19.71875 -23.21875 C 19.71875 -22.914062 19.613281 -22.675781 19.40625 -22.5 C 19.195312 -22.332031 18.957031 -22.25 18.6875 -22.25 Z M 2.21875 -22.25 "/></g></g></g><g fill="#000000" fill-opacity="1"><g transform="translate(179.66768, 59.049228)"><g><path d="M 20.375 -24.21875 C 20.695312 -24.21875 20.945312 -24.117188 21.125 -23.921875 C 21.3125 -23.722656 21.40625 -23.472656 21.40625 -23.171875 L 21.40625 -8.859375 C 21.40625 -7.148438 21 -5.601562 20.1875 -4.21875 C 19.382812 -2.832031 18.300781 -1.726562 16.9375 -0.90625 C 15.582031 -0.09375 14.050781 0.3125 12.34375 0.3125 C 10.644531 0.3125 9.109375 -0.09375 7.734375 -0.90625 C 6.359375 -1.726562 5.265625 -2.832031 4.453125 -4.21875 C 3.648438 -5.601562 3.25 -7.148438 3.25 -8.859375 L 3.25 -23.171875 C 3.25 -23.472656 3.347656 -23.722656 3.546875 -23.921875 C 3.742188 -24.117188 4.015625 -24.21875 4.359375 -24.21875 C 4.640625 -24.21875 4.878906 -24.117188 5.078125 -23.921875 C 5.285156 -23.722656 5.390625 -23.472656 5.390625 -23.171875 L 5.390625 -8.859375 C 5.390625 -7.515625 5.707031 -6.3125 6.34375 -5.25 C 6.976562 -4.195312 7.828125 -3.351562 8.890625 -2.71875 C 9.953125 -2.082031 11.101562 -1.765625 12.34375 -1.765625 C 13.632812 -1.765625 14.8125 -2.082031 15.875 -2.71875 C 16.9375 -3.351562 17.785156 -4.195312 18.421875 -5.25 C 19.054688 -6.3125 19.375 -7.515625 19.375 -8.859375 L 19.375 -23.171875 C 19.375 -23.472656 19.460938 -23.722656 19.640625 -23.921875 C 19.828125 -24.117188 20.070312 -24.21875 20.375 -24.21875 Z M 20.375 -24.21875 "/></g></g></g><g fill="#000000" fill-opacity="1"><g transform="translate(204.328157, 59.049228)"><g><path d="M 4.296875 -24.21875 L 16.984375 -24.21875 C 17.265625 -24.21875 17.503906 -24.117188 17.703125 -23.921875 C 17.910156 -23.722656 18.015625 -23.472656 18.015625 -23.171875 C 18.015625 -22.878906 17.910156 -22.640625 17.703125 -22.453125 C 17.503906 -22.265625 17.265625 -22.171875 16.984375 -22.171875 L 5.078125 -22.171875 L 5.4375 -22.765625 L 5.4375 -13.046875 L 5.046875 -13.484375 L 15.421875 -13.484375 C 15.703125 -13.484375 15.945312 -13.378906 16.15625 -13.171875 C 16.363281 -12.972656 16.46875 -12.734375 16.46875 -12.453125 C 16.46875 -12.148438 16.363281 -11.90625 16.15625 -11.71875 C 15.945312 -11.539062 15.703125 -11.453125 15.421875 -11.453125 L 5.125 -11.453125 L 5.4375 -11.796875 L 5.4375 -1.828125 L 5.265625 -2.046875 L 16.984375 -2.046875 C 17.265625 -2.046875 17.503906 -1.941406 17.703125 -1.734375 C 17.910156 -1.523438 18.015625 -1.28125 18.015625 -1 C 18.015625 -0.695312 17.910156 -0.453125 17.703125 -0.265625 C 17.503906 -0.0859375 17.265625 0 16.984375 0 L 4.296875 0 C 4.015625 0 3.769531 -0.101562 3.5625 -0.3125 C 3.351562 -0.519531 3.25 -0.757812 3.25 -1.03125 L 3.25 -23.171875 C 3.25 -23.453125 3.351562 -23.695312 3.5625 -23.90625 C 3.769531 -24.113281 4.015625 -24.21875 4.296875 -24.21875 Z M 4.296875 -24.21875 "/></g></g></g><g fill="#000000" fill-opacity="1"><g transform="translate(277.336064, 59.049228)"><g><path d="M 31.265625 -24.28125 C 31.566406 -24.28125 31.828125 -24.191406 32.046875 -24.015625 C 32.265625 -23.847656 32.375 -23.59375 32.375 -23.25 C 32.375 -23.132812 32.351562 -22.984375 32.3125 -22.796875 L 24.671875 -0.65625 C 24.597656 -0.445312 24.46875 -0.285156 24.28125 -0.171875 C 24.101562 -0.0546875 23.921875 0 23.734375 0 C 23.503906 0 23.296875 -0.0507812 23.109375 -0.15625 C 22.921875 -0.257812 22.78125 -0.425781 22.6875 -0.65625 L 16.578125 -15.8125 L 16.84375 -15.734375 L 10.71875 -0.65625 C 10.625 -0.425781 10.476562 -0.257812 10.28125 -0.15625 C 10.09375 -0.0507812 9.894531 0 9.6875 0 C 9.5 0 9.316406 -0.0546875 9.140625 -0.171875 C 8.972656 -0.285156 8.851562 -0.445312 8.78125 -0.65625 L 1.140625 -22.796875 C 1.066406 -22.984375 1.03125 -23.125 1.03125 -23.21875 C 1.03125 -23.5625 1.15625 -23.820312 1.40625 -24 C 1.664062 -24.1875 1.921875 -24.28125 2.171875 -24.28125 C 2.410156 -24.28125 2.617188 -24.222656 2.796875 -24.109375 C 2.984375 -23.992188 3.113281 -23.832031 3.1875 -23.625 L 10.140625 -3.359375 L 9.75 -3.328125 L 15.78125 -18.328125 C 15.84375 -18.535156 15.957031 -18.703125 16.125 -18.828125 C 16.300781 -18.960938 16.507812 -19.015625 16.75 -18.984375 C 16.976562 -19.015625 17.175781 -18.960938 17.34375 -18.828125 C 17.519531 -18.703125 17.65625 -18.535156 17.75 -18.328125 L 23.703125 -3.390625 L 23.3125 -3.25 L 30.234375 -23.625 C 30.304688 -23.832031 30.429688 -23.992188 30.609375 -24.109375 C 30.796875 -24.222656 31.015625 -24.28125 31.265625 -24.28125 Z M 31.265625 -24.28125 "/></g></g></g><g fill="#000000" fill-opacity="1"><g transform="translate(310.747033, 59.049228)"><g><path d="M 4.296875 -24.21875 L 16.984375 -24.21875 C 17.265625 -24.21875 17.503906 -24.117188 17.703125 -23.921875 C 17.910156 -23.722656 18.015625 -23.472656 18.015625 -23.171875 C 18.015625 -22.878906 17.910156 -22.640625 17.703125 -22.453125 C 17.503906 -22.265625 17.265625 -22.171875 16.984375 -22.171875 L 5.078125 -22.171875 L 5.4375 -22.765625 L 5.4375 -13.046875 L 5.046875 -13.484375 L 15.421875 -13.484375 C 15.703125 -13.484375 15.945312 -13.378906 16.15625 -13.171875 C 16.363281 -12.972656 16.46875 -12.734375 16.46875 -12.453125 C 16.46875 -12.148438 16.363281 -11.90625 16.15625 -11.71875 C 15.945312 -11.539062 15.703125 -11.453125 15.421875 -11.453125 L 5.125 -11.453125 L 5.4375 -11.796875 L 5.4375 -1.828125 L 5.265625 -2.046875 L 16.984375 -2.046875 C 17.265625 -2.046875 17.503906 -1.941406 17.703125 -1.734375 C 17.910156 -1.523438 18.015625 -1.28125 18.015625 -1 C 18.015625 -0.695312 17.910156 -0.453125 17.703125 -0.265625 C 17.503906 -0.0859375 17.265625 0 16.984375 0 L 4.296875 0 C 4.015625 0 3.769531 -0.101562 3.5625 -0.3125 C 3.351562 -0.519531 3.25 -0.757812 3.25 -1.03125 L 3.25 -23.171875 C 3.25 -23.453125 3.351562 -23.695312 3.5625 -23.90625 C 3.769531 -24.113281 4.015625 -24.21875 4.296875 -24.21875 Z M 4.296875 -24.21875 "/></g></g></g><g fill="#000000" fill-opacity="1"><g transform="translate(330.392408, 59.049228)"><g><path d="M 13.109375 -24.21875 C 14.816406 -24.21875 16.3125 -23.894531 17.59375 -23.25 C 18.875 -22.601562 19.925781 -21.707031 20.75 -20.5625 C 21.582031 -19.425781 22.203125 -18.128906 22.609375 -16.671875 C 23.015625 -15.222656 23.21875 -13.703125 23.21875 -12.109375 C 23.21875 -9.890625 22.851562 -7.863281 22.125 -6.03125 C 21.394531 -4.195312 20.285156 -2.734375 18.796875 -1.640625 C 17.316406 -0.546875 15.421875 0 13.109375 0 L 4.296875 0 C 4.015625 0 3.769531 -0.101562 3.5625 -0.3125 C 3.351562 -0.519531 3.25 -0.757812 3.25 -1.03125 L 3.25 -23.171875 C 3.25 -23.453125 3.351562 -23.695312 3.5625 -23.90625 C 3.769531 -24.113281 4.015625 -24.21875 4.296875 -24.21875 Z M 12.765625 -2.046875 C 14.722656 -2.046875 16.300781 -2.492188 17.5 -3.390625 C 18.695312 -4.285156 19.578125 -5.5 20.140625 -7.03125 C 20.710938 -8.570312 21 -10.265625 21 -12.109375 C 21 -13.441406 20.84375 -14.710938 20.53125 -15.921875 C 20.21875 -17.140625 19.734375 -18.210938 19.078125 -19.140625 C 18.421875 -20.078125 17.566406 -20.816406 16.515625 -21.359375 C 15.460938 -21.898438 14.210938 -22.171875 12.765625 -22.171875 L 5.1875 -22.171875 L 5.4375 -22.484375 L 5.4375 -1.6875 L 5.21875 -2.046875 Z M 12.765625 -2.046875 "/></g></g></g><g fill="#000000" fill-opacity="1"><g transform="translate(538.967284, 59.049228)"><g><path d="M 4.328125 0 C 4.003906 0 3.742188 -0.101562 3.546875 -0.3125 C 3.347656 -0.519531 3.25 -0.757812 3.25 -1.03125 L 3.25 -23.171875 C 3.25 -23.453125 3.351562 -23.695312 3.5625 -23.90625 C 3.769531 -24.113281 4.015625 -24.21875 4.296875 -24.21875 L 16.875 -24.21875 C 17.175781 -24.21875 17.425781 -24.117188 17.625 -23.921875 C 17.820312 -23.722656 17.921875 -23.472656 17.921875 -23.171875 C 17.921875 -22.898438 17.820312 -22.664062 17.625 -22.46875 C 17.425781 -22.269531 17.175781 -22.171875 16.875 -22.171875 L 5.21875 -22.171875 L 5.359375 -22.375 L 5.359375 -13.1875 L 5.1875 -13.484375 L 15.328125 -13.484375 C 15.628906 -13.484375 15.875 -13.382812 16.0625 -13.1875 C 16.257812 -13 16.359375 -12.765625 16.359375 -12.484375 C 16.359375 -12.179688 16.257812 -11.9375 16.0625 -11.75 C 15.875 -11.570312 15.628906 -11.484375 15.328125 -11.484375 L 5.125 -11.484375 L 5.359375 -11.765625 L 5.359375 -1.03125 C 5.359375 -0.757812 5.257812 -0.519531 5.0625 -0.3125 C 4.875 -0.101562 4.628906 0 4.328125 0 Z M 4.328125 0 "/></g></g></g><g fill="#000000" fill-opacity="1"><g transform="translate(558.543478, 59.049228)"><g><path d="M 4.421875 0 C 4.078125 0 3.796875 -0.101562 3.578125 -0.3125 C 3.359375 -0.519531 3.25 -0.757812 3.25 -1.03125 L 3.25 -23.171875 C 3.25 -23.453125 3.351562 -23.695312 3.5625 -23.90625 C 3.769531 -24.113281 4.015625 -24.21875 4.296875 -24.21875 L 13.625 -24.21875 C 14.945312 -24.21875 16.125 -23.929688 17.15625 -23.359375 C 18.195312 -22.796875 19.007812 -22.019531 19.59375 -21.03125 C 20.1875 -20.039062 20.484375 -18.921875 20.484375 -17.671875 C 20.484375 -16.660156 20.296875 -15.726562 19.921875 -14.875 C 19.554688 -14.019531 19.035156 -13.296875 18.359375 -12.703125 C 17.691406 -12.117188 16.945312 -11.691406 16.125 -11.421875 L 14.90625 -11.796875 C 15.757812 -11.722656 16.554688 -11.453125 17.296875 -10.984375 C 18.035156 -10.515625 18.628906 -9.867188 19.078125 -9.046875 C 19.523438 -8.222656 19.757812 -7.238281 19.78125 -6.09375 C 19.8125 -5.09375 19.863281 -4.316406 19.9375 -3.765625 C 20.019531 -3.210938 20.140625 -2.796875 20.296875 -2.515625 C 20.460938 -2.242188 20.671875 -2.03125 20.921875 -1.875 C 21.160156 -1.726562 21.316406 -1.53125 21.390625 -1.28125 C 21.472656 -1.03125 21.445312 -0.785156 21.3125 -0.546875 C 21.21875 -0.367188 21.082031 -0.238281 20.90625 -0.15625 C 20.738281 -0.0703125 20.5625 -0.03125 20.375 -0.03125 C 20.1875 -0.03125 20.003906 -0.078125 19.828125 -0.171875 C 19.503906 -0.359375 19.171875 -0.644531 18.828125 -1.03125 C 18.492188 -1.425781 18.21875 -2.003906 18 -2.765625 C 17.78125 -3.523438 17.671875 -4.585938 17.671875 -5.953125 C 17.671875 -6.847656 17.523438 -7.582031 17.234375 -8.15625 C 16.953125 -8.738281 16.585938 -9.1875 16.140625 -9.5 C 15.691406 -9.8125 15.195312 -10.03125 14.65625 -10.15625 C 14.113281 -10.28125 13.597656 -10.34375 13.109375 -10.34375 L 5.046875 -10.34375 L 5.4375 -10.828125 L 5.4375 -1.03125 C 5.4375 -0.757812 5.34375 -0.519531 5.15625 -0.3125 C 4.96875 -0.101562 4.722656 0 4.421875 0 Z M 5.046875 -12.25 L 13.734375 -12.25 C 14.515625 -12.3125 15.25 -12.566406 15.9375 -13.015625 C 16.632812 -13.472656 17.195312 -14.09375 17.625 -14.875 C 18.050781 -15.65625 18.265625 -16.566406 18.265625 -17.609375 C 18.265625 -18.921875 17.820312 -20.007812 16.9375 -20.875 C 16.050781 -21.738281 14.890625 -22.171875 13.453125 -22.171875 L 5.1875 -22.171875 L 5.4375 -22.65625 L 5.4375 -11.765625 Z M 5.046875 -12.25 "/></g></g></g><g fill="#000000" fill-opacity="1"><g transform="translate(581.71672, 59.049228)"><g><path d="M 5.4375 -1.078125 C 5.40625 -0.773438 5.28125 -0.519531 5.0625 -0.3125 C 4.84375 -0.101562 4.597656 0 4.328125 0 C 4.003906 0 3.742188 -0.101562 3.546875 -0.3125 C 3.347656 -0.519531 3.25 -0.773438 3.25 -1.078125 L 3.25 -23.140625 C 3.25 -23.441406 3.351562 -23.695312 3.5625 -23.90625 C 3.769531 -24.113281 4.035156 -24.21875 4.359375 -24.21875 C 4.640625 -24.21875 4.890625 -24.113281 5.109375 -23.90625 C 5.328125 -23.695312 5.4375 -23.441406 5.4375 -23.140625 Z M 5.4375 -1.078125 "/></g></g></g><g fill="#000000" fill-opacity="1"><g transform="translate(657.911331, 59.049228)"><g><path d="M 9.921875 0.34375 C 8.171875 0.363281 6.648438 0.0859375 5.359375 -0.484375 C 4.066406 -1.054688 2.832031 -1.921875 1.65625 -3.078125 C 1.539062 -3.171875 1.441406 -3.285156 1.359375 -3.421875 C 1.285156 -3.554688 1.25 -3.71875 1.25 -3.90625 C 1.25 -4.1875 1.359375 -4.441406 1.578125 -4.671875 C 1.796875 -4.898438 2.039062 -5.015625 2.3125 -5.015625 C 2.59375 -5.015625 2.847656 -4.898438 3.078125 -4.671875 C 3.972656 -3.703125 4.992188 -2.960938 6.140625 -2.453125 C 7.285156 -1.941406 8.515625 -1.6875 9.828125 -1.6875 C 10.929688 -1.6875 11.914062 -1.859375 12.78125 -2.203125 C 13.644531 -2.554688 14.332031 -3.054688 14.84375 -3.703125 C 15.351562 -4.347656 15.609375 -5.097656 15.609375 -5.953125 C 15.609375 -7.015625 15.316406 -7.875 14.734375 -8.53125 C 14.160156 -9.1875 13.398438 -9.726562 12.453125 -10.15625 C 11.503906 -10.582031 10.457031 -10.96875 9.3125 -11.3125 C 8.363281 -11.59375 7.460938 -11.910156 6.609375 -12.265625 C 5.753906 -12.617188 4.992188 -13.054688 4.328125 -13.578125 C 3.660156 -14.097656 3.140625 -14.738281 2.765625 -15.5 C 2.398438 -16.257812 2.21875 -17.179688 2.21875 -18.265625 C 2.21875 -19.484375 2.539062 -20.566406 3.1875 -21.515625 C 3.832031 -22.460938 4.75 -23.207031 5.9375 -23.75 C 7.125 -24.289062 8.5 -24.5625 10.0625 -24.5625 C 11.425781 -24.5625 12.734375 -24.328125 13.984375 -23.859375 C 15.242188 -23.398438 16.242188 -22.722656 16.984375 -21.828125 C 17.328125 -21.460938 17.5 -21.128906 17.5 -20.828125 C 17.5 -20.597656 17.382812 -20.363281 17.15625 -20.125 C 16.925781 -19.894531 16.671875 -19.78125 16.390625 -19.78125 C 16.160156 -19.78125 15.96875 -19.863281 15.8125 -20.03125 C 15.414062 -20.507812 14.914062 -20.9375 14.3125 -21.3125 C 13.71875 -21.695312 13.054688 -21.992188 12.328125 -22.203125 C 11.609375 -22.410156 10.851562 -22.515625 10.0625 -22.515625 C 8.976562 -22.515625 8.003906 -22.347656 7.140625 -22.015625 C 6.273438 -21.679688 5.59375 -21.203125 5.09375 -20.578125 C 4.601562 -19.960938 4.359375 -19.210938 4.359375 -18.328125 C 4.359375 -17.359375 4.632812 -16.5625 5.1875 -15.9375 C 5.738281 -15.320312 6.460938 -14.8125 7.359375 -14.40625 C 8.265625 -14 9.222656 -13.625 10.234375 -13.28125 C 11.234375 -13.007812 12.1875 -12.691406 13.09375 -12.328125 C 14 -11.972656 14.804688 -11.53125 15.515625 -11 C 16.222656 -10.46875 16.773438 -9.796875 17.171875 -8.984375 C 17.578125 -8.179688 17.78125 -7.171875 17.78125 -5.953125 C 17.78125 -4.773438 17.445312 -3.710938 16.78125 -2.765625 C 16.113281 -1.816406 15.195312 -1.066406 14.03125 -0.515625 C 12.863281 0.0351562 11.492188 0.320312 9.921875 0.34375 Z M 9.921875 0.34375 "/></g></g></g><g fill="#000000" fill-opacity="1"><g transform="translate(677.349184, 59.049228)"><g><path d="M 11.34375 -21.546875 L 2.9375 -0.65625 C 2.84375 -0.425781 2.710938 -0.253906 2.546875 -0.140625 C 2.390625 -0.0234375 2.207031 0.03125 2 0.03125 C 1.675781 0.03125 1.429688 -0.0507812 1.265625 -0.21875 C 1.109375 -0.394531 1.019531 -0.609375 1 -0.859375 C 0.976562 -0.972656 0.988281 -1.113281 1.03125 -1.28125 L 10.171875 -23.625 C 10.285156 -23.882812 10.425781 -24.0625 10.59375 -24.15625 C 10.769531 -24.257812 10.972656 -24.3125 11.203125 -24.3125 C 11.429688 -24.3125 11.632812 -24.25 11.8125 -24.125 C 11.988281 -24 12.125 -23.832031 12.21875 -23.625 L 21.3125 -1.390625 C 21.351562 -1.242188 21.375 -1.101562 21.375 -0.96875 C 21.375 -0.644531 21.269531 -0.394531 21.0625 -0.21875 C 20.851562 -0.0507812 20.613281 0.03125 20.34375 0.03125 C 20.113281 0.03125 19.910156 -0.03125 19.734375 -0.15625 C 19.554688 -0.28125 19.425781 -0.445312 19.34375 -0.65625 L 10.71875 -21.6875 Z M 4.953125 -6.984375 L 5.8125 -9.03125 L 16.53125 -9.03125 L 16.953125 -6.984375 Z M 4.953125 -6.984375 "/></g></g></g><g fill="#000000" fill-opacity="1"><g transform="translate(697.997444, 59.049228)"><g><path d="M 10.453125 0 C 10.128906 0 9.867188 -0.101562 9.671875 -0.3125 C 9.472656 -0.519531 9.375 -0.757812 9.375 -1.03125 L 9.375 -23.078125 L 11.515625 -23.078125 L 11.515625 -1.03125 C 11.515625 -0.757812 11.410156 -0.519531 11.203125 -0.3125 C 10.992188 -0.101562 10.742188 0 10.453125 0 Z M 2.21875 -22.25 C 1.9375 -22.25 1.691406 -22.335938 1.484375 -22.515625 C 1.273438 -22.703125 1.171875 -22.945312 1.171875 -23.25 C 1.171875 -23.519531 1.273438 -23.75 1.484375 -23.9375 C 1.691406 -24.125 1.9375 -24.21875 2.21875 -24.21875 L 18.6875 -24.21875 C 18.957031 -24.21875 19.195312 -24.125 19.40625 -23.9375 C 19.613281 -23.75 19.71875 -23.507812 19.71875 -23.21875 C 19.71875 -22.914062 19.613281 -22.675781 19.40625 -22.5 C 19.195312 -22.332031 18.957031 -22.25 18.6875 -22.25 Z M 2.21875 -22.25 "/></g></g></g><g fill="#000000" fill-opacity="1"><g transform="translate(777.649332, 59.058154)"><g><path d="M 9.921875 0.34375 C 8.171875 0.363281 6.648438 0.0859375 5.359375 -0.484375 C 4.066406 -1.054688 2.832031 -1.921875 1.65625 -3.078125 C 1.539062 -3.171875 1.441406 -3.285156 1.359375 -3.421875 C 1.285156 -3.554688 1.25 -3.71875 1.25 -3.90625 C 1.25 -4.1875 1.359375 -4.441406 1.578125 -4.671875 C 1.796875 -4.898438 2.039062 -5.015625 2.3125 -5.015625 C 2.59375 -5.015625 2.847656 -4.898438 3.078125 -4.671875 C 3.972656 -3.703125 4.992188 -2.960938 6.140625 -2.453125 C 7.285156 -1.941406 8.515625 -1.6875 9.828125 -1.6875 C 10.929688 -1.6875 11.914062 -1.859375 12.78125 -2.203125 C 13.644531 -2.554688 14.332031 -3.054688 14.84375 -3.703125 C 15.351562 -4.347656 15.609375 -5.097656 15.609375 -5.953125 C 15.609375 -7.015625 15.316406 -7.875 14.734375 -8.53125 C 14.160156 -9.1875 13.398438 -9.726562 12.453125 -10.15625 C 11.503906 -10.582031 10.457031 -10.96875 9.3125 -11.3125 C 8.363281 -11.59375 7.460938 -11.910156 6.609375 -12.265625 C 5.753906 -12.617188 4.992188 -13.054688 4.328125 -13.578125 C 3.660156 -14.097656 3.140625 -14.738281 2.765625 -15.5 C 2.398438 -16.257812 2.21875 -17.179688 2.21875 -18.265625 C 2.21875 -19.484375 2.539062 -20.566406 3.1875 -21.515625 C 3.832031 -22.460938 4.75 -23.207031 5.9375 -23.75 C 7.125 -24.289062 8.5 -24.5625 10.0625 -24.5625 C 11.425781 -24.5625 12.734375 -24.328125 13.984375 -23.859375 C 15.242188 -23.398438 16.242188 -22.722656 16.984375 -21.828125 C 17.328125 -21.460938 17.5 -21.128906 17.5 -20.828125 C 17.5 -20.597656 17.382812 -20.363281 17.15625 -20.125 C 16.925781 -19.894531 16.671875 -19.78125 16.390625 -19.78125 C 16.160156 -19.78125 15.96875 -19.863281 15.8125 -20.03125 C 15.414062 -20.507812 14.914062 -20.9375 14.3125 -21.3125 C 13.71875 -21.695312 13.054688 -21.992188 12.328125 -22.203125 C 11.609375 -22.410156 10.851562 -22.515625 10.0625 -22.515625 C 8.976562 -22.515625 8.003906 -22.347656 7.140625 -22.015625 C 6.273438 -21.679688 5.59375 -21.203125 5.09375 -20.578125 C 4.601562 -19.960938 4.359375 -19.210938 4.359375 -18.328125 C 4.359375 -17.359375 4.632812 -16.5625 5.1875 -15.9375 C 5.738281 -15.320312 6.460938 -14.8125 7.359375 -14.40625 C 8.265625 -14 9.222656 -13.625 10.234375 -13.28125 C 11.234375 -13.007812 12.1875 -12.691406 13.09375 -12.328125 C 14 -11.972656 14.804688 -11.53125 15.515625 -11 C 16.222656 -10.46875 16.773438 -9.796875 17.171875 -8.984375 C 17.578125 -8.179688 17.78125 -7.171875 17.78125 -5.953125 C 17.78125 -4.773438 17.445312 -3.710938 16.78125 -2.765625 C 16.113281 -1.816406 15.195312 -1.066406 14.03125 -0.515625 C 12.863281 0.0351562 11.492188 0.320312 9.921875 0.34375 Z M 9.921875 0.34375 "/></g></g></g><g fill="#000000" fill-opacity="1"><g transform="translate(797.087185, 59.058154)"><g><path d="M 20.375 -24.21875 C 20.695312 -24.21875 20.945312 -24.117188 21.125 -23.921875 C 21.3125 -23.722656 21.40625 -23.472656 21.40625 -23.171875 L 21.40625 -8.859375 C 21.40625 -7.148438 21 -5.601562 20.1875 -4.21875 C 19.382812 -2.832031 18.300781 -1.726562 16.9375 -0.90625 C 15.582031 -0.09375 14.050781 0.3125 12.34375 0.3125 C 10.644531 0.3125 9.109375 -0.09375 7.734375 -0.90625 C 6.359375 -1.726562 5.265625 -2.832031 4.453125 -4.21875 C 3.648438 -5.601562 3.25 -7.148438 3.25 -8.859375 L 3.25 -23.171875 C 3.25 -23.472656 3.347656 -23.722656 3.546875 -23.921875 C 3.742188 -24.117188 4.015625 -24.21875 4.359375 -24.21875 C 4.640625 -24.21875 4.878906 -24.117188 5.078125 -23.921875 C 5.285156 -23.722656 5.390625 -23.472656 5.390625 -23.171875 L 5.390625 -8.859375 C 5.390625 -7.515625 5.707031 -6.3125 6.34375 -5.25 C 6.976562 -4.195312 7.828125 -3.351562 8.890625 -2.71875 C 9.953125 -2.082031 11.101562 -1.765625 12.34375 -1.765625 C 13.632812 -1.765625 14.8125 -2.082031 15.875 -2.71875 C 16.9375 -3.351562 17.785156 -4.195312 18.421875 -5.25 C 19.054688 -6.3125 19.375 -7.515625 19.375 -8.859375 L 19.375 -23.171875 C 19.375 -23.472656 19.460938 -23.722656 19.640625 -23.921875 C 19.828125 -24.117188 20.070312 -24.21875 20.375 -24.21875 Z M 20.375 -24.21875 "/></g></g></g><g fill="#000000" fill-opacity="1"><g transform="translate(821.747662, 59.058154)"><g><path d="M 20.96875 -24.21875 C 21.257812 -24.21875 21.492188 -24.125 21.671875 -23.9375 C 21.847656 -23.75 21.9375 -23.519531 21.9375 -23.25 L 21.9375 -1.109375 C 21.9375 -0.765625 21.828125 -0.492188 21.609375 -0.296875 C 21.390625 -0.0976562 21.140625 0 20.859375 0 C 20.722656 0 20.570312 -0.0234375 20.40625 -0.078125 C 20.25 -0.140625 20.125 -0.226562 20.03125 -0.34375 L 4.59375 -21.140625 L 5.1875 -21.453125 L 5.1875 -0.9375 C 5.1875 -0.675781 5.09375 -0.453125 4.90625 -0.265625 C 4.726562 -0.0859375 4.5 0 4.21875 0 C 3.914062 0 3.675781 -0.0859375 3.5 -0.265625 C 3.332031 -0.453125 3.25 -0.675781 3.25 -0.9375 L 3.25 -23.171875 C 3.25 -23.523438 3.351562 -23.785156 3.5625 -23.953125 C 3.769531 -24.128906 4 -24.21875 4.25 -24.21875 C 4.394531 -24.21875 4.546875 -24.1875 4.703125 -24.125 C 4.867188 -24.070312 4.992188 -23.972656 5.078125 -23.828125 L 20.34375 -3.28125 L 20 -2.65625 L 20 -23.25 C 20 -23.519531 20.09375 -23.75 20.28125 -23.9375 C 20.476562 -24.125 20.707031 -24.21875 20.96875 -24.21875 Z M 20.96875 -24.21875 "/></g></g></g></svg>