<svg xmlns="http://www.w3.org/2000/svg" xmlns:xlink="http://www.w3.org/1999/xlink" width="600" zoomAndPan="magnify" viewBox="0 0 450 299.999988" height="400" preserveAspectRatio="xMidYMid meet" version="1.0"><defs><g/><clipPath id="55bb010416"><path d="M 2.820312 11.28125 L 327.257812 11.28125 L 327.257812 267 L 2.820312 267 Z M 2.820312 11.28125 " clip-rule="nonzero"/></clipPath><clipPath id="35267ba4ee"><rect x="0" width="330" y="0" height="269"/></clipPath></defs><g transform="matrix(1, 0, 0, 1, 60, 16)"><g clip-path="url(#35267ba4ee)"><g clip-path="url(#55bb010416)"><path stroke-linecap="butt" transform="matrix(0.307816, 0, 0, 0.307816, 2.819066, 11.280495)" fill-opacity="1" fill="#000000" fill-rule="nonzero" stroke-linejoin="miter" d="M 1.501492 2.99734 L 1.501492 827.746145 M 151.601181 2.99734 L 151.601181 827.746145 M 301.71356 2.99734 L 301.71356 827.746145 M 451.825938 2.99734 L 451.825938 827.746145 M 601.925627 2.99734 L 601.925627 827.746145 M 752.038006 2.99734 L 752.038006 827.746145 M 902.150385 2.99734 L 902.150385 827.746145 M 1052.250074 2.99734 L 1052.250074 827.746145 M 0.00404825 1.499896 L 1053.747517 1.499896 M 0.00404825 167.056249 L 1053.747517 167.056249 M 0.00404825 332.599911 L 1053.747517 332.599911 M 0.00404825 498.156264 L 1053.747517 498.156264 M 0.00404825 663.699926 L 1053.747517 663.699926 M 0.00404825 829.256279 L 1053.747517 829.256279 " stroke="#000000" stroke-width="3" stroke-opacity="1" stroke-miterlimit="4"/></g><g fill="#000000" fill-opacity="1"><g transform="translate(17.694356, 9.06529)"><g><path d="M 0.09375 -1.03125 L 0.53125 -1.484375 C 0.84375 -1.160156 1.175781 -0.910156 1.53125 -0.734375 C 1.882812 -0.566406 2.253906 -0.484375 2.640625 -0.484375 C 3.117188 -0.484375 3.507812 -0.597656 3.8125 -0.828125 C 4.113281 -1.054688 4.265625 -1.34375 4.265625 -1.6875 C 4.265625 -1.988281 4.15625 -2.222656 3.9375 -2.390625 C 3.726562 -2.554688 3.375 -2.679688 2.875 -2.765625 L 2.015625 -2.90625 C 1.429688 -3 1 -3.171875 0.71875 -3.421875 C 0.445312 -3.671875 0.3125 -4.007812 0.3125 -4.4375 C 0.3125 -4.9375 0.503906 -5.335938 0.890625 -5.640625 C 1.285156 -5.953125 1.800781 -6.109375 2.4375 -6.109375 C 2.851562 -6.109375 3.265625 -6.039062 3.671875 -5.90625 C 4.085938 -5.769531 4.46875 -5.570312 4.8125 -5.3125 L 4.4375 -4.796875 C 4.101562 -5.046875 3.765625 -5.234375 3.421875 -5.359375 C 3.085938 -5.484375 2.75 -5.546875 2.40625 -5.546875 C 1.976562 -5.546875 1.628906 -5.445312 1.359375 -5.25 C 1.085938 -5.050781 0.953125 -4.796875 0.953125 -4.484375 C 0.953125 -4.203125 1.046875 -3.984375 1.234375 -3.828125 C 1.429688 -3.679688 1.75 -3.578125 2.1875 -3.515625 L 3.046875 -3.375 C 3.703125 -3.257812 4.179688 -3.070312 4.484375 -2.8125 C 4.785156 -2.550781 4.9375 -2.1875 4.9375 -1.71875 C 4.9375 -1.445312 4.878906 -1.203125 4.765625 -0.984375 C 4.648438 -0.765625 4.488281 -0.578125 4.28125 -0.421875 C 4.082031 -0.265625 3.835938 -0.140625 3.546875 -0.046875 C 3.265625 0.046875 2.957031 0.09375 2.625 0.09375 C 2.144531 0.09375 1.6875 0 1.25 -0.1875 C 0.8125 -0.382812 0.425781 -0.664062 0.09375 -1.03125 Z M 0.09375 -1.03125 "/></g></g></g><g fill="#000000" fill-opacity="1"><g transform="translate(22.868554, 9.06529)"><g><path d="M 5.53125 -2.546875 C 5.53125 -1.742188 5.300781 -1.101562 4.84375 -0.625 C 4.394531 -0.144531 3.789062 0.09375 3.03125 0.09375 C 2.269531 0.09375 1.664062 -0.144531 1.21875 -0.625 C 0.769531 -1.101562 0.546875 -1.742188 0.546875 -2.546875 L 0.546875 -6.03125 L 1.203125 -6.03125 L 1.203125 -2.546875 C 1.203125 -1.929688 1.367188 -1.4375 1.703125 -1.0625 C 2.035156 -0.695312 2.476562 -0.515625 3.03125 -0.515625 C 3.582031 -0.515625 4.023438 -0.695312 4.359375 -1.0625 C 4.691406 -1.4375 4.859375 -1.929688 4.859375 -2.546875 L 4.859375 -6.03125 L 5.53125 -6.03125 Z M 5.53125 -2.546875 "/></g></g></g><g fill="#000000" fill-opacity="1"><g transform="translate(28.939611, 9.06529)"><g><path d="M 0.671875 -6.03125 L 1.328125 -6.03125 L 4.953125 -1.140625 L 4.953125 -6.03125 L 5.59375 -6.03125 L 5.59375 0 L 5 0 L 1.296875 -5.03125 L 1.296875 0 L 0.671875 0 Z M 0.671875 -6.03125 "/></g></g></g><g fill="#000000" fill-opacity="1"><g transform="translate(61.10499, 9.06529)"><g><path d="M 3.640625 -0.4375 L 1.28125 -5.265625 L 1.28125 0 L 0.671875 0 L 0.671875 -6.03125 L 1.59375 -6.03125 L 3.65625 -1.75 L 5.703125 -6.03125 L 6.640625 -6.03125 L 6.640625 0 L 6.015625 0 L 6.015625 -5.28125 Z M 3.640625 -0.4375 "/></g></g></g><g fill="#000000" fill-opacity="1"><g transform="translate(68.409229, 9.06529)"><g><path d="M 6.59375 -3.015625 C 6.59375 -2.585938 6.507812 -2.179688 6.34375 -1.796875 C 6.1875 -1.410156 5.96875 -1.078125 5.6875 -0.796875 C 5.414062 -0.523438 5.085938 -0.304688 4.703125 -0.140625 C 4.328125 0.015625 3.925781 0.09375 3.5 0.09375 C 3.0625 0.09375 2.648438 0.015625 2.265625 -0.140625 C 1.890625 -0.304688 1.5625 -0.523438 1.28125 -0.796875 C 1 -1.078125 0.773438 -1.410156 0.609375 -1.796875 C 0.453125 -2.179688 0.375 -2.585938 0.375 -3.015625 C 0.375 -3.453125 0.453125 -3.859375 0.609375 -4.234375 C 0.773438 -4.617188 1 -4.953125 1.28125 -5.234375 C 1.5625 -5.515625 1.890625 -5.734375 2.265625 -5.890625 C 2.648438 -6.046875 3.0625 -6.125 3.5 -6.125 C 3.925781 -6.125 4.328125 -6.046875 4.703125 -5.890625 C 5.085938 -5.734375 5.414062 -5.515625 5.6875 -5.234375 C 5.96875 -4.953125 6.1875 -4.617188 6.34375 -4.234375 C 6.507812 -3.859375 6.59375 -3.453125 6.59375 -3.015625 Z M 5.921875 -3.015625 C 5.921875 -3.367188 5.859375 -3.695312 5.734375 -4 C 5.609375 -4.3125 5.4375 -4.578125 5.21875 -4.796875 C 5.007812 -5.015625 4.753906 -5.1875 4.453125 -5.3125 C 4.148438 -5.445312 3.832031 -5.515625 3.5 -5.515625 C 3.144531 -5.515625 2.816406 -5.445312 2.515625 -5.3125 C 2.222656 -5.1875 1.96875 -5.015625 1.75 -4.796875 C 1.539062 -4.578125 1.367188 -4.3125 1.234375 -4 C 1.109375 -3.695312 1.046875 -3.367188 1.046875 -3.015625 C 1.046875 -2.671875 1.109375 -2.34375 1.234375 -2.03125 C 1.367188 -1.726562 1.539062 -1.460938 1.75 -1.234375 C 1.96875 -1.015625 2.222656 -0.835938 2.515625 -0.703125 C 2.816406 -0.578125 3.144531 -0.515625 3.5 -0.515625 C 3.832031 -0.515625 4.148438 -0.578125 4.453125 -0.703125 C 4.753906 -0.835938 5.007812 -1.015625 5.21875 -1.234375 C 5.4375 -1.460938 5.609375 -1.726562 5.734375 -2.03125 C 5.859375 -2.34375 5.921875 -2.671875 5.921875 -3.015625 Z M 5.921875 -3.015625 "/></g></g></g><g fill="#000000" fill-opacity="1"><g transform="translate(75.38577, 9.06529)"><g><path d="M 0.671875 -6.03125 L 1.328125 -6.03125 L 4.953125 -1.140625 L 4.953125 -6.03125 L 5.59375 -6.03125 L 5.59375 0 L 5 0 L 1.296875 -5.03125 L 1.296875 0 L 0.671875 0 Z M 0.671875 -6.03125 "/></g></g></g><g fill="#000000" fill-opacity="1"><g transform="translate(109.410509, 9.06529)"><g><path d="M 0.140625 -5.4375 L 0.140625 -6.03125 L 5.171875 -6.03125 L 5.171875 -5.4375 L 3 -5.4375 L 3 0 L 2.328125 0 L 2.328125 -5.4375 Z M 0.140625 -5.4375 "/></g></g></g><g fill="#000000" fill-opacity="1"><g transform="translate(114.731306, 9.06529)"><g><path d="M 5.53125 -2.546875 C 5.53125 -1.742188 5.300781 -1.101562 4.84375 -0.625 C 4.394531 -0.144531 3.789062 0.09375 3.03125 0.09375 C 2.269531 0.09375 1.664062 -0.144531 1.21875 -0.625 C 0.769531 -1.101562 0.546875 -1.742188 0.546875 -2.546875 L 0.546875 -6.03125 L 1.203125 -6.03125 L 1.203125 -2.546875 C 1.203125 -1.929688 1.367188 -1.4375 1.703125 -1.0625 C 2.035156 -0.695312 2.476562 -0.515625 3.03125 -0.515625 C 3.582031 -0.515625 4.023438 -0.695312 4.359375 -1.0625 C 4.691406 -1.4375 4.859375 -1.929688 4.859375 -2.546875 L 4.859375 -6.03125 L 5.53125 -6.03125 Z M 5.53125 -2.546875 "/></g></g></g><g fill="#000000" fill-opacity="1"><g transform="translate(120.802364, 9.06529)"><g><path d="M 0.671875 0 L 0.671875 -6.03125 L 4.984375 -6.03125 L 4.984375 -5.453125 L 1.328125 -5.453125 L 1.328125 -3.34375 L 3.71875 -3.34375 L 3.71875 -2.765625 L 1.328125 -2.765625 L 1.328125 -0.59375 L 5.015625 -0.59375 L 5.015625 0 Z M 0.671875 0 "/></g></g></g><g fill="#000000" fill-opacity="1"><g transform="translate(155.435396, 9.06529)"><g><path d="M 2.28125 0 L 1.609375 0 L 0.296875 -6.03125 L 0.96875 -6.03125 L 2 -1.046875 L 3.5 -6.03125 L 4.140625 -6.03125 L 5.625 -1.0625 L 6.671875 -6.03125 L 7.3125 -6.03125 L 6.015625 0 L 5.34375 0 L 3.8125 -5.109375 Z M 2.28125 0 "/></g></g></g><g fill="#000000" fill-opacity="1"><g transform="translate(163.041468, 9.06529)"><g><path d="M 0.671875 0 L 0.671875 -6.03125 L 4.984375 -6.03125 L 4.984375 -5.453125 L 1.328125 -5.453125 L 1.328125 -3.34375 L 3.71875 -3.34375 L 3.71875 -2.765625 L 1.328125 -2.765625 L 1.328125 -0.59375 L 5.015625 -0.59375 L 5.015625 0 Z M 0.671875 0 "/></g></g></g><g fill="#000000" fill-opacity="1"><g transform="translate(168.353642, 9.06529)"><g><path d="M 0.671875 0 L 0.671875 -6.03125 L 2.65625 -6.03125 C 3.113281 -6.03125 3.535156 -5.953125 3.921875 -5.796875 C 4.316406 -5.648438 4.65625 -5.441406 4.9375 -5.171875 C 5.21875 -4.910156 5.4375 -4.59375 5.59375 -4.21875 C 5.75 -3.851562 5.828125 -3.453125 5.828125 -3.015625 C 5.828125 -2.578125 5.75 -2.171875 5.59375 -1.796875 C 5.4375 -1.429688 5.21875 -1.113281 4.9375 -0.84375 C 4.65625 -0.582031 4.316406 -0.375 3.921875 -0.21875 C 3.535156 -0.0703125 3.113281 0 2.65625 0 Z M 2.6875 -5.4375 L 1.328125 -5.4375 L 1.328125 -0.609375 L 2.6875 -0.609375 C 3.03125 -0.609375 3.351562 -0.664062 3.65625 -0.78125 C 3.96875 -0.90625 4.234375 -1.078125 4.453125 -1.296875 C 4.671875 -1.515625 4.84375 -1.769531 4.96875 -2.0625 C 5.09375 -2.363281 5.15625 -2.679688 5.15625 -3.015625 C 5.15625 -3.359375 5.09375 -3.675781 4.96875 -3.96875 C 4.84375 -4.269531 4.671875 -4.523438 4.453125 -4.734375 C 4.234375 -4.953125 3.96875 -5.125 3.65625 -5.25 C 3.351562 -5.375 3.03125 -5.4375 2.6875 -5.4375 Z M 2.6875 -5.4375 "/></g></g></g><g fill="#000000" fill-opacity="1"><g transform="translate(201.206004, 9.06529)"><g><path d="M 0.140625 -5.4375 L 0.140625 -6.03125 L 5.171875 -6.03125 L 5.171875 -5.4375 L 3 -5.4375 L 3 0 L 2.328125 0 L 2.328125 -5.4375 Z M 0.140625 -5.4375 "/></g></g></g><g fill="#000000" fill-opacity="1"><g transform="translate(206.526801, 9.06529)"><g><path d="M 0.671875 0 L 0.671875 -6.03125 L 1.328125 -6.03125 L 1.328125 -3.34375 L 4.84375 -3.34375 L 4.84375 -6.03125 L 5.5 -6.03125 L 5.5 0 L 4.84375 0 L 4.84375 -2.75 L 1.328125 -2.75 L 1.328125 0 Z M 0.671875 0 "/></g></g></g><g fill="#000000" fill-opacity="1"><g transform="translate(212.692718, 9.06529)"><g><path d="M 5.53125 -2.546875 C 5.53125 -1.742188 5.300781 -1.101562 4.84375 -0.625 C 4.394531 -0.144531 3.789062 0.09375 3.03125 0.09375 C 2.269531 0.09375 1.664062 -0.144531 1.21875 -0.625 C 0.769531 -1.101562 0.546875 -1.742188 0.546875 -2.546875 L 0.546875 -6.03125 L 1.203125 -6.03125 L 1.203125 -2.546875 C 1.203125 -1.929688 1.367188 -1.4375 1.703125 -1.0625 C 2.035156 -0.695312 2.476562 -0.515625 3.03125 -0.515625 C 3.582031 -0.515625 4.023438 -0.695312 4.359375 -1.0625 C 4.691406 -1.4375 4.859375 -1.929688 4.859375 -2.546875 L 4.859375 -6.03125 L 5.53125 -6.03125 Z M 5.53125 -2.546875 "/></g></g></g><g fill="#000000" fill-opacity="1"><g transform="translate(250.392113, 9.06529)"><g><path d="M 0.671875 0 L 0.671875 -6.03125 L 4.984375 -6.03125 L 4.984375 -5.453125 L 1.328125 -5.453125 L 1.328125 -3.296875 L 3.71875 -3.296875 L 3.71875 -2.71875 L 1.328125 -2.71875 L 1.328125 0 Z M 0.671875 0 "/></g></g></g><g fill="#000000" fill-opacity="1"><g transform="translate(255.626676, 9.06529)"><g><path d="M 0.671875 0 L 0.671875 -6.03125 L 3.25 -6.03125 C 3.832031 -6.03125 4.304688 -5.867188 4.671875 -5.546875 C 5.035156 -5.234375 5.21875 -4.816406 5.21875 -4.296875 C 5.21875 -3.898438 5.097656 -3.554688 4.859375 -3.265625 C 4.628906 -2.984375 4.320312 -2.789062 3.9375 -2.6875 L 5.28125 0 L 4.546875 0 L 3.265625 -2.59375 L 1.328125 -2.59375 L 1.328125 0 Z M 3.203125 -5.4375 L 1.328125 -5.4375 L 1.328125 -3.15625 L 3.203125 -3.15625 C 3.609375 -3.15625 3.929688 -3.257812 4.171875 -3.46875 C 4.421875 -3.675781 4.546875 -3.953125 4.546875 -4.296875 C 4.546875 -4.648438 4.421875 -4.925781 4.171875 -5.125 C 3.929688 -5.332031 3.609375 -5.4375 3.203125 -5.4375 Z M 3.203125 -5.4375 "/></g></g></g><g fill="#000000" fill-opacity="1"><g transform="translate(261.188937, 9.06529)"><g><path d="M 0.671875 0 L 0.671875 -6.03125 L 1.328125 -6.03125 L 1.328125 0 Z M 0.671875 0 "/></g></g></g><g fill="#000000" fill-opacity="1"><g transform="translate(293.702618, 9.06529)"><g><path d="M 0.09375 -1.03125 L 0.53125 -1.484375 C 0.84375 -1.160156 1.175781 -0.910156 1.53125 -0.734375 C 1.882812 -0.566406 2.253906 -0.484375 2.640625 -0.484375 C 3.117188 -0.484375 3.507812 -0.597656 3.8125 -0.828125 C 4.113281 -1.054688 4.265625 -1.34375 4.265625 -1.6875 C 4.265625 -1.988281 4.15625 -2.222656 3.9375 -2.390625 C 3.726562 -2.554688 3.375 -2.679688 2.875 -2.765625 L 2.015625 -2.90625 C 1.429688 -3 1 -3.171875 0.71875 -3.421875 C 0.445312 -3.671875 0.3125 -4.007812 0.3125 -4.4375 C 0.3125 -4.9375 0.503906 -5.335938 0.890625 -5.640625 C 1.285156 -5.953125 1.800781 -6.109375 2.4375 -6.109375 C 2.851562 -6.109375 3.265625 -6.039062 3.671875 -5.90625 C 4.085938 -5.769531 4.46875 -5.570312 4.8125 -5.3125 L 4.4375 -4.796875 C 4.101562 -5.046875 3.765625 -5.234375 3.421875 -5.359375 C 3.085938 -5.484375 2.75 -5.546875 2.40625 -5.546875 C 1.976562 -5.546875 1.628906 -5.445312 1.359375 -5.25 C 1.085938 -5.050781 0.953125 -4.796875 0.953125 -4.484375 C 0.953125 -4.203125 1.046875 -3.984375 1.234375 -3.828125 C 1.429688 -3.679688 1.75 -3.578125 2.1875 -3.515625 L 3.046875 -3.375 C 3.703125 -3.257812 4.179688 -3.070312 4.484375 -2.8125 C 4.785156 -2.550781 4.9375 -2.1875 4.9375 -1.71875 C 4.9375 -1.445312 4.878906 -1.203125 4.765625 -0.984375 C 4.648438 -0.765625 4.488281 -0.578125 4.28125 -0.421875 C 4.082031 -0.265625 3.835938 -0.140625 3.546875 -0.046875 C 3.265625 0.046875 2.957031 0.09375 2.625 0.09375 C 2.144531 0.09375 1.6875 0 1.25 -0.1875 C 0.8125 -0.382812 0.425781 -0.664062 0.09375 -1.03125 Z M 0.09375 -1.03125 "/></g></g></g><g fill="#000000" fill-opacity="1"><g transform="translate(298.790567, 9.06529)"><g><path d="M 0.03125 0 L 2.546875 -6.03125 L 3.34375 -6.03125 L 5.828125 0 L 5.09375 0 L 4.34375 -1.890625 L 1.484375 -1.890625 L 0.71875 0 Z M 1.71875 -2.46875 L 4.109375 -2.46875 L 2.921875 -5.421875 Z M 1.71875 -2.46875 "/></g></g></g><g fill="#000000" fill-opacity="1"><g transform="translate(303.542029, 9.06529)"><g><path d="M 0.140625 -5.4375 L 0.140625 -6.03125 L 5.171875 -6.03125 L 5.171875 -5.4375 L 3 -5.4375 L 3 0 L 2.328125 0 L 2.328125 -5.4375 Z M 0.140625 -5.4375 "/></g></g></g></g></g></svg>