<svg xmlns="http://www.w3.org/2000/svg" xmlns:xlink="http://www.w3.org/1999/xlink" width="600" zoomAndPan="magnify" viewBox="0 0 450 299.999988" height="400" preserveAspectRatio="xMidYMid meet" version="1.0"><defs><g/><clipPath id="43eba5ff2c"><path d="M 3.460938 152.96875 L 79.210938 152.96875 L 79.210938 227.96875 L 3.460938 227.96875 Z M 3.460938 152.96875 " clip-rule="nonzero"/></clipPath><clipPath id="abafe1b1e1"><path d="M 95.257812 152.96875 L 171 152.96875 L 171 227.96875 L 95.257812 227.96875 Z M 95.257812 152.96875 " clip-rule="nonzero"/></clipPath><clipPath id="f91d4e2715"><path d="M 187.101562 152.96875 L 262.851562 152.96875 L 262.851562 227.96875 L 187.101562 227.96875 Z M 187.101562 152.96875 " clip-rule="nonzero"/></clipPath><clipPath id="c991107399"><path d="M 279 152.96875 L 354.691406 152.96875 L 354.691406 227.96875 L 279 227.96875 Z M 279 152.96875 " clip-rule="nonzero"/></clipPath><clipPath id="3ab3a75db2"><path d="M 370.785156 152.96875 L 446.535156 152.96875 L 446.535156 227.96875 L 370.785156 227.96875 Z M 370.785156 152.96875 " clip-rule="nonzero"/></clipPath><clipPath id="8dad4e79fe"><rect x="0" width="450" y="0" height="75"/></clipPath></defs><g clip-path="url(#43eba5ff2c)"><path fill="#000000" d="M 75.605469 190.402344 C 75.554688 204.835938 66.355469 218.050781 52.792969 223.027344 C 39.390625 227.945312 23.914062 223.675781 14.890625 212.640625 C 5.707031 201.410156 4.5 185.132812 12.007812 172.695312 C 19.433594 160.386719 34.140625 153.625 48.308594 156.5625 C 62.152344 159.433594 73.082031 170.964844 75.199219 184.964844 C 75.46875 186.765625 75.597656 188.582031 75.605469 190.402344 C 75.613281 192.21875 79.136719 192.566406 79.128906 190.558594 C 79.101562 182.816406 76.648438 175.1875 72.140625 168.882812 C 67.667969 162.628906 61.324219 157.898438 54.121094 155.253906 C 46.738281 152.542969 38.402344 152.230469 30.84375 154.394531 C 23.464844 156.503906 16.894531 160.765625 11.992188 166.683594 C 7.082031 172.605469 4.195312 180 3.621094 187.65625 C 3.042969 195.371094 4.972656 203.117188 8.960938 209.730469 C 17.128906 223.265625 33.519531 230.351562 48.988281 227.253906 C 64.148438 224.21875 76.363281 211.730469 78.683594 196.378906 C 78.976562 194.457031 79.121094 192.507812 79.128906 190.558594 C 79.132812 188.746094 75.613281 188.398438 75.605469 190.402344 Z M 75.605469 190.402344 " fill-opacity="1" fill-rule="nonzero"/></g><path fill="#000000" d="M 22.972656 197.359375 C 24.660156 203.824219 29.519531 209.171875 35.890625 211.261719 C 42.207031 213.335938 49.414062 211.648438 54.191406 207.035156 C 56.882812 204.433594 58.777344 201.144531 59.722656 197.523438 C 60.199219 195.695312 56.75 194.769531 56.273438 196.597656 C 54.859375 202.019531 51.027344 206.660156 45.660156 208.503906 C 40.480469 210.28125 34.828125 208.722656 30.949219 204.980469 C 28.640625 202.757812 27.128906 199.84375 26.324219 196.765625 C 25.867188 195.019531 22.433594 195.296875 22.972656 197.359375 Z M 22.972656 197.359375 " fill-opacity="1" fill-rule="nonzero"/><path fill="#000000" d="M 34.890625 180.964844 C 34.890625 181.371094 34.863281 181.777344 34.804688 182.175781 C 34.746094 182.578125 34.65625 182.964844 34.542969 183.34375 C 34.425781 183.71875 34.285156 184.078125 34.121094 184.414062 C 33.953125 184.753906 33.761719 185.070312 33.550781 185.355469 C 33.335938 185.644531 33.105469 185.902344 32.855469 186.128906 C 32.605469 186.355469 32.339844 186.546875 32.0625 186.703125 C 31.785156 186.859375 31.5 186.976562 31.203125 187.058594 C 30.910156 187.136719 30.609375 187.175781 30.308594 187.175781 C 30.007812 187.175781 29.710938 187.136719 29.417969 187.058594 C 29.121094 186.976562 28.835938 186.859375 28.554688 186.703125 C 28.277344 186.546875 28.015625 186.355469 27.765625 186.128906 C 27.515625 185.902344 27.28125 185.644531 27.070312 185.355469 C 26.859375 185.070312 26.667969 184.753906 26.5 184.414062 C 26.332031 184.078125 26.191406 183.71875 26.078125 183.34375 C 25.960938 182.964844 25.875 182.578125 25.816406 182.175781 C 25.757812 181.777344 25.726562 181.371094 25.726562 180.964844 C 25.726562 180.558594 25.757812 180.152344 25.816406 179.753906 C 25.875 179.351562 25.960938 178.964844 26.078125 178.585938 C 26.191406 178.210938 26.332031 177.851562 26.5 177.515625 C 26.667969 177.175781 26.859375 176.859375 27.070312 176.574219 C 27.28125 176.285156 27.515625 176.027344 27.765625 175.800781 C 28.015625 175.574219 28.277344 175.382812 28.554688 175.226562 C 28.835938 175.070312 29.121094 174.953125 29.417969 174.871094 C 29.710938 174.792969 30.007812 174.753906 30.308594 174.753906 C 30.609375 174.753906 30.910156 174.792969 31.203125 174.871094 C 31.5 174.953125 31.785156 175.070312 32.0625 175.226562 C 32.339844 175.382812 32.605469 175.574219 32.855469 175.800781 C 33.105469 176.027344 33.335938 176.285156 33.550781 176.574219 C 33.761719 176.859375 33.953125 177.175781 34.121094 177.515625 C 34.285156 177.851562 34.425781 178.210938 34.542969 178.585938 C 34.65625 178.964844 34.746094 179.351562 34.804688 179.753906 C 34.863281 180.152344 34.890625 180.558594 34.890625 180.964844 Z M 34.890625 180.964844 " fill-opacity="1" fill-rule="nonzero"/><path fill="#000000" d="M 56.917969 180.964844 C 56.917969 181.371094 56.890625 181.777344 56.832031 182.175781 C 56.773438 182.578125 56.683594 182.964844 56.570312 183.34375 C 56.453125 183.71875 56.3125 184.078125 56.148438 184.414062 C 55.980469 184.753906 55.789062 185.070312 55.578125 185.355469 C 55.363281 185.644531 55.132812 185.902344 54.882812 186.128906 C 54.632812 186.355469 54.367188 186.546875 54.089844 186.703125 C 53.8125 186.859375 53.527344 186.976562 53.230469 187.058594 C 52.9375 187.136719 52.636719 187.175781 52.335938 187.175781 C 52.035156 187.175781 51.738281 187.136719 51.445312 187.058594 C 51.148438 186.976562 50.863281 186.859375 50.585938 186.703125 C 50.304688 186.546875 50.042969 186.355469 49.792969 186.128906 C 49.542969 185.902344 49.308594 185.644531 49.097656 185.355469 C 48.886719 185.070312 48.695312 184.753906 48.527344 184.414062 C 48.359375 184.078125 48.21875 183.71875 48.105469 183.34375 C 47.988281 182.964844 47.902344 182.578125 47.84375 182.175781 C 47.785156 181.777344 47.753906 181.371094 47.753906 180.964844 C 47.753906 180.558594 47.785156 180.152344 47.84375 179.753906 C 47.902344 179.351562 47.988281 178.964844 48.105469 178.585938 C 48.21875 178.210938 48.359375 177.851562 48.527344 177.515625 C 48.695312 177.175781 48.886719 176.859375 49.097656 176.574219 C 49.308594 176.285156 49.542969 176.027344 49.792969 175.800781 C 50.042969 175.574219 50.304688 175.382812 50.585938 175.226562 C 50.863281 175.070312 51.148438 174.953125 51.445312 174.871094 C 51.738281 174.792969 52.035156 174.753906 52.335938 174.753906 C 52.636719 174.753906 52.9375 174.792969 53.230469 174.871094 C 53.527344 174.953125 53.8125 175.070312 54.089844 175.226562 C 54.367188 175.382812 54.632812 175.574219 54.882812 175.800781 C 55.132812 176.027344 55.363281 176.285156 55.578125 176.574219 C 55.789062 176.859375 55.980469 177.175781 56.148438 177.515625 C 56.3125 177.851562 56.453125 178.210938 56.570312 178.585938 C 56.683594 178.964844 56.773438 179.351562 56.832031 179.753906 C 56.890625 180.152344 56.917969 180.558594 56.917969 180.964844 Z M 56.917969 180.964844 " fill-opacity="1" fill-rule="nonzero"/><g clip-path="url(#abafe1b1e1)"><path fill="#000000" d="M 167.402344 190.402344 C 167.351562 204.835938 158.152344 218.050781 144.589844 223.027344 C 131.183594 227.945312 115.710938 223.675781 106.683594 212.640625 C 97.5 201.410156 96.296875 185.132812 103.800781 172.695312 C 111.226562 160.386719 125.9375 153.625 140.101562 156.5625 C 153.945312 159.433594 164.875 170.964844 166.992188 184.964844 C 167.265625 186.765625 167.394531 188.582031 167.402344 190.402344 C 167.40625 192.21875 170.929688 192.566406 170.921875 190.558594 C 170.898438 182.816406 168.441406 175.1875 163.9375 168.882812 C 159.460938 162.628906 153.121094 157.898438 145.917969 155.253906 C 138.535156 152.542969 130.199219 152.230469 122.636719 154.394531 C 115.257812 156.503906 108.6875 160.765625 103.789062 166.683594 C 98.878906 172.605469 95.992188 180 95.417969 187.65625 C 94.839844 195.371094 96.765625 203.117188 100.753906 209.730469 C 108.921875 223.265625 125.316406 230.351562 140.785156 227.253906 C 155.941406 224.21875 168.15625 211.730469 170.480469 196.378906 C 170.769531 194.457031 170.917969 192.507812 170.921875 190.558594 C 170.929688 188.746094 167.40625 188.398438 167.402344 190.402344 Z M 167.402344 190.402344 " fill-opacity="1" fill-rule="nonzero"/></g><path fill="#000000" d="M 126.6875 180.964844 C 126.6875 181.371094 126.65625 181.777344 126.597656 182.175781 C 126.539062 182.578125 126.453125 182.964844 126.335938 183.34375 C 126.222656 183.71875 126.082031 184.078125 125.914062 184.414062 C 125.746094 184.753906 125.558594 185.070312 125.34375 185.355469 C 125.132812 185.644531 124.898438 185.902344 124.648438 186.128906 C 124.398438 186.355469 124.136719 186.546875 123.859375 186.703125 C 123.582031 186.859375 123.292969 186.976562 123 187.058594 C 122.703125 187.136719 122.40625 187.175781 122.105469 187.175781 C 121.804688 187.175781 121.507812 187.136719 121.210938 187.058594 C 120.917969 186.976562 120.628906 186.859375 120.351562 186.703125 C 120.074219 186.546875 119.808594 186.355469 119.558594 186.128906 C 119.308594 185.902344 119.078125 185.644531 118.867188 185.355469 C 118.652344 185.070312 118.460938 184.753906 118.296875 184.414062 C 118.128906 184.078125 117.988281 183.71875 117.871094 183.34375 C 117.757812 182.964844 117.671875 182.578125 117.613281 182.175781 C 117.554688 181.777344 117.523438 181.371094 117.523438 180.964844 C 117.523438 180.558594 117.554688 180.152344 117.613281 179.753906 C 117.671875 179.351562 117.757812 178.964844 117.871094 178.585938 C 117.988281 178.210938 118.128906 177.851562 118.296875 177.515625 C 118.460938 177.175781 118.652344 176.859375 118.867188 176.574219 C 119.078125 176.285156 119.308594 176.027344 119.558594 175.800781 C 119.808594 175.574219 120.074219 175.382812 120.351562 175.226562 C 120.628906 175.070312 120.917969 174.953125 121.210938 174.871094 C 121.507812 174.792969 121.804688 174.753906 122.105469 174.753906 C 122.40625 174.753906 122.703125 174.792969 123 174.871094 C 123.292969 174.953125 123.582031 175.070312 123.859375 175.226562 C 124.136719 175.382812 124.398438 175.574219 124.648438 175.800781 C 124.898438 176.027344 125.132812 176.285156 125.34375 176.574219 C 125.558594 176.859375 125.746094 177.175781 125.914062 177.515625 C 126.082031 177.851562 126.222656 178.210938 126.335938 178.585938 C 126.453125 178.964844 126.539062 179.351562 126.597656 179.753906 C 126.65625 180.152344 126.6875 180.558594 126.6875 180.964844 Z M 126.6875 180.964844 " fill-opacity="1" fill-rule="nonzero"/><path fill="#000000" d="M 148.714844 180.964844 C 148.714844 181.371094 148.683594 181.777344 148.625 182.175781 C 148.566406 182.578125 148.480469 182.964844 148.363281 183.34375 C 148.25 183.71875 148.109375 184.078125 147.941406 184.414062 C 147.773438 184.753906 147.585938 185.070312 147.371094 185.355469 C 147.160156 185.644531 146.929688 185.902344 146.675781 186.128906 C 146.425781 186.355469 146.164062 186.546875 145.886719 186.703125 C 145.609375 186.859375 145.320312 186.976562 145.027344 187.058594 C 144.730469 187.136719 144.433594 187.175781 144.132812 187.175781 C 143.832031 187.175781 143.535156 187.136719 143.238281 187.058594 C 142.945312 186.976562 142.65625 186.859375 142.378906 186.703125 C 142.101562 186.546875 141.835938 186.355469 141.585938 186.128906 C 141.335938 185.902344 141.105469 185.644531 140.894531 185.355469 C 140.679688 185.070312 140.488281 184.753906 140.324219 184.414062 C 140.15625 184.078125 140.015625 183.71875 139.898438 183.34375 C 139.785156 182.964844 139.699219 182.578125 139.640625 182.175781 C 139.582031 181.777344 139.550781 181.371094 139.550781 180.964844 C 139.550781 180.558594 139.582031 180.152344 139.640625 179.753906 C 139.699219 179.351562 139.785156 178.964844 139.898438 178.585938 C 140.015625 178.210938 140.15625 177.851562 140.324219 177.515625 C 140.488281 177.175781 140.679688 176.859375 140.894531 176.574219 C 141.105469 176.285156 141.335938 176.027344 141.585938 175.800781 C 141.835938 175.574219 142.101562 175.382812 142.378906 175.226562 C 142.65625 175.070312 142.945312 174.953125 143.238281 174.871094 C 143.535156 174.792969 143.832031 174.753906 144.132812 174.753906 C 144.433594 174.753906 144.730469 174.792969 145.027344 174.871094 C 145.320312 174.953125 145.609375 175.070312 145.886719 175.226562 C 146.164062 175.382812 146.425781 175.574219 146.675781 175.800781 C 146.929688 176.027344 147.160156 176.285156 147.371094 176.574219 C 147.585938 176.859375 147.773438 177.175781 147.941406 177.515625 C 148.109375 177.851562 148.25 178.210938 148.363281 178.585938 C 148.480469 178.964844 148.566406 179.351562 148.625 179.753906 C 148.683594 180.152344 148.714844 180.558594 148.714844 180.964844 Z M 148.714844 180.964844 " fill-opacity="1" fill-rule="nonzero"/><path fill="#000000" d="M 115.488281 199.980469 C 116.515625 201.828125 118.347656 203.171875 120.179688 204.144531 C 122.546875 205.402344 125.183594 206.152344 127.820312 206.574219 C 133.589844 207.496094 139.980469 207.136719 145.347656 204.664062 C 147.484375 203.675781 149.660156 202.25 150.832031 200.144531 C 151.804688 198.398438 148.589844 196.933594 147.703125 198.519531 C 145.804688 201.929688 141.097656 203.207031 137.496094 203.769531 C 132.6875 204.515625 127.257812 204.234375 122.769531 202.203125 C 120.96875 201.386719 119.394531 200.382812 118.449219 198.683594 C 117.546875 197.0625 114.394531 198.023438 115.488281 199.980469 Z M 115.488281 199.980469 " fill-opacity="1" fill-rule="nonzero"/><g clip-path="url(#f91d4e2715)"><path fill="#000000" d="M 259.242188 190.402344 C 259.195312 204.835938 249.992188 218.050781 236.429688 223.027344 C 223.027344 227.945312 207.554688 223.675781 198.527344 212.640625 C 189.34375 201.410156 188.140625 185.132812 195.644531 172.695312 C 203.070312 160.386719 217.777344 153.625 231.945312 156.5625 C 245.789062 159.433594 256.71875 170.964844 258.835938 184.964844 C 259.109375 186.765625 259.238281 188.582031 259.242188 190.402344 C 259.25 192.21875 262.773438 192.566406 262.765625 190.558594 C 262.738281 182.816406 260.285156 175.1875 255.777344 168.882812 C 251.304688 162.628906 244.964844 157.898438 237.757812 155.253906 C 230.378906 152.542969 222.042969 152.230469 214.480469 154.394531 C 207.101562 156.503906 200.53125 160.765625 195.628906 166.683594 C 190.722656 172.605469 187.832031 180 187.257812 187.65625 C 186.679688 195.371094 188.609375 203.117188 192.597656 209.730469 C 200.765625 223.265625 217.160156 230.351562 232.628906 227.253906 C 247.785156 224.21875 260 211.730469 262.320312 196.378906 C 262.613281 194.457031 262.757812 192.507812 262.765625 190.558594 C 262.773438 188.746094 259.25 188.398438 259.242188 190.402344 Z M 259.242188 190.402344 " fill-opacity="1" fill-rule="nonzero"/></g><path fill="#000000" d="M 218.527344 180.964844 C 218.527344 181.371094 218.5 181.777344 218.441406 182.175781 C 218.382812 182.578125 218.296875 182.964844 218.179688 183.34375 C 218.066406 183.71875 217.925781 184.078125 217.757812 184.414062 C 217.589844 184.753906 217.398438 185.070312 217.1875 185.355469 C 216.972656 185.644531 216.742188 185.902344 216.492188 186.128906 C 216.242188 186.355469 215.980469 186.546875 215.699219 186.703125 C 215.421875 186.859375 215.136719 186.976562 214.839844 187.058594 C 214.546875 187.136719 214.25 187.175781 213.949219 187.175781 C 213.648438 187.175781 213.347656 187.136719 213.054688 187.058594 C 212.757812 186.976562 212.472656 186.859375 212.195312 186.703125 C 211.917969 186.546875 211.652344 186.355469 211.402344 186.128906 C 211.152344 185.902344 210.921875 185.644531 210.707031 185.355469 C 210.496094 185.070312 210.304688 184.753906 210.136719 184.414062 C 209.972656 184.078125 209.832031 183.71875 209.714844 183.34375 C 209.601562 182.964844 209.511719 182.578125 209.453125 182.175781 C 209.394531 181.777344 209.367188 181.371094 209.367188 180.964844 C 209.367188 180.558594 209.394531 180.152344 209.453125 179.753906 C 209.511719 179.351562 209.601562 178.964844 209.714844 178.585938 C 209.832031 178.210938 209.972656 177.851562 210.136719 177.515625 C 210.304688 177.175781 210.496094 176.859375 210.707031 176.574219 C 210.921875 176.285156 211.152344 176.027344 211.402344 175.800781 C 211.652344 175.574219 211.917969 175.382812 212.195312 175.226562 C 212.472656 175.070312 212.757812 174.953125 213.054688 174.871094 C 213.347656 174.792969 213.648438 174.753906 213.949219 174.753906 C 214.25 174.753906 214.546875 174.792969 214.839844 174.871094 C 215.136719 174.953125 215.421875 175.070312 215.699219 175.226562 C 215.980469 175.382812 216.242188 175.574219 216.492188 175.800781 C 216.742188 176.027344 216.972656 176.285156 217.1875 176.574219 C 217.398438 176.859375 217.589844 177.175781 217.757812 177.515625 C 217.925781 177.851562 218.066406 178.210938 218.179688 178.585938 C 218.296875 178.964844 218.382812 179.351562 218.441406 179.753906 C 218.5 180.152344 218.527344 180.558594 218.527344 180.964844 Z M 218.527344 180.964844 " fill-opacity="1" fill-rule="nonzero"/><path fill="#000000" d="M 240.554688 180.964844 C 240.554688 181.371094 240.527344 181.777344 240.46875 182.175781 C 240.410156 182.578125 240.324219 182.964844 240.207031 183.34375 C 240.09375 183.71875 239.953125 184.078125 239.785156 184.414062 C 239.617188 184.753906 239.425781 185.070312 239.214844 185.355469 C 239.003906 185.644531 238.769531 185.902344 238.519531 186.128906 C 238.269531 186.355469 238.007812 186.546875 237.726562 186.703125 C 237.449219 186.859375 237.164062 186.976562 236.867188 187.058594 C 236.574219 187.136719 236.277344 187.175781 235.976562 187.175781 C 235.675781 187.175781 235.375 187.136719 235.082031 187.058594 C 234.785156 186.976562 234.5 186.859375 234.222656 186.703125 C 233.945312 186.546875 233.679688 186.355469 233.429688 186.128906 C 233.179688 185.902344 232.949219 185.644531 232.734375 185.355469 C 232.523438 185.070312 232.332031 184.753906 232.164062 184.414062 C 232 184.078125 231.859375 183.71875 231.742188 183.34375 C 231.628906 182.964844 231.539062 182.578125 231.480469 182.175781 C 231.421875 181.777344 231.394531 181.371094 231.394531 180.964844 C 231.394531 180.558594 231.421875 180.152344 231.480469 179.753906 C 231.539062 179.351562 231.628906 178.964844 231.742188 178.585938 C 231.859375 178.210938 232 177.851562 232.164062 177.515625 C 232.332031 177.175781 232.523438 176.859375 232.734375 176.574219 C 232.949219 176.285156 233.179688 176.027344 233.429688 175.800781 C 233.679688 175.574219 233.945312 175.382812 234.222656 175.226562 C 234.5 175.070312 234.785156 174.953125 235.082031 174.871094 C 235.375 174.792969 235.675781 174.753906 235.976562 174.753906 C 236.277344 174.753906 236.574219 174.792969 236.867188 174.871094 C 237.164062 174.953125 237.449219 175.070312 237.726562 175.226562 C 238.007812 175.382812 238.269531 175.574219 238.519531 175.800781 C 238.769531 176.027344 239.003906 176.285156 239.214844 176.574219 C 239.425781 176.859375 239.617188 177.175781 239.785156 177.515625 C 239.953125 177.851562 240.09375 178.210938 240.207031 178.585938 C 240.324219 178.964844 240.410156 179.351562 240.46875 179.753906 C 240.527344 180.152344 240.554688 180.558594 240.554688 180.964844 Z M 240.554688 180.964844 " fill-opacity="1" fill-rule="nonzero"/><path fill="#000000" d="M 207.40625 202.371094 L 219.359375 202.371094 C 225.679688 202.371094 232.003906 202.371094 238.324219 202.371094 L 242.71875 202.371094 C 243.515625 202.371094 244.4375 201.921875 244.378906 201 C 244.324219 200.121094 243.339844 199.464844 242.515625 199.464844 C 238.53125 199.464844 234.546875 199.464844 230.5625 199.464844 C 224.242188 199.464844 217.917969 199.464844 211.597656 199.464844 L 207.203125 199.464844 C 206.40625 199.464844 205.484375 199.914062 205.542969 200.839844 C 205.601562 201.71875 206.582031 202.371094 207.40625 202.371094 Z M 207.40625 202.371094 " fill-opacity="1" fill-rule="nonzero"/><g clip-path="url(#c991107399)"><path fill="#000000" d="M 351.085938 190.402344 C 351.035156 204.835938 341.835938 218.050781 328.273438 223.027344 C 314.871094 227.945312 299.394531 223.675781 290.371094 212.640625 C 281.1875 201.410156 279.980469 185.132812 287.488281 172.695312 C 294.914062 160.386719 309.621094 153.625 323.789062 156.5625 C 337.632812 159.433594 348.5625 170.964844 350.679688 184.964844 C 350.953125 186.765625 351.078125 188.582031 351.085938 190.402344 C 351.09375 192.21875 354.617188 192.566406 354.609375 190.558594 C 354.582031 182.816406 352.128906 175.1875 347.621094 168.882812 C 343.148438 162.628906 336.804688 157.898438 329.601562 155.253906 C 322.21875 152.542969 313.886719 152.230469 306.324219 154.394531 C 298.945312 156.503906 292.375 160.765625 287.472656 166.683594 C 282.5625 172.605469 279.675781 180 279.101562 187.65625 C 278.523438 195.371094 280.453125 203.117188 284.441406 209.730469 C 292.609375 223.265625 309 230.351562 324.46875 227.253906 C 339.628906 224.21875 351.84375 211.730469 354.164062 196.378906 C 354.457031 194.457031 354.601562 192.507812 354.609375 190.558594 C 354.613281 188.746094 351.09375 188.398438 351.085938 190.402344 Z M 351.085938 190.402344 " fill-opacity="1" fill-rule="nonzero"/></g><path fill="#000000" d="M 310.371094 180.964844 C 310.371094 181.371094 310.34375 181.777344 310.285156 182.175781 C 310.226562 182.578125 310.136719 182.964844 310.023438 183.34375 C 309.90625 183.71875 309.765625 184.078125 309.601562 184.414062 C 309.433594 184.753906 309.242188 185.070312 309.03125 185.355469 C 308.816406 185.644531 308.585938 185.902344 308.335938 186.128906 C 308.085938 186.355469 307.820312 186.546875 307.542969 186.703125 C 307.265625 186.859375 306.980469 186.976562 306.683594 187.058594 C 306.390625 187.136719 306.089844 187.175781 305.789062 187.175781 C 305.488281 187.175781 305.191406 187.136719 304.898438 187.058594 C 304.601562 186.976562 304.316406 186.859375 304.039062 186.703125 C 303.757812 186.546875 303.496094 186.355469 303.246094 186.128906 C 302.996094 185.902344 302.761719 185.644531 302.550781 185.355469 C 302.339844 185.070312 302.148438 184.753906 301.980469 184.414062 C 301.8125 184.078125 301.671875 183.71875 301.558594 183.34375 C 301.441406 182.964844 301.355469 182.578125 301.296875 182.175781 C 301.238281 181.777344 301.210938 181.371094 301.210938 180.964844 C 301.210938 180.558594 301.238281 180.152344 301.296875 179.753906 C 301.355469 179.351562 301.441406 178.964844 301.558594 178.585938 C 301.671875 178.210938 301.8125 177.851562 301.980469 177.515625 C 302.148438 177.175781 302.339844 176.859375 302.550781 176.574219 C 302.761719 176.285156 302.996094 176.027344 303.246094 175.800781 C 303.496094 175.574219 303.757812 175.382812 304.039062 175.226562 C 304.316406 175.070312 304.601562 174.953125 304.898438 174.871094 C 305.191406 174.792969 305.488281 174.753906 305.789062 174.753906 C 306.089844 174.753906 306.390625 174.792969 306.683594 174.871094 C 306.980469 174.953125 307.265625 175.070312 307.542969 175.226562 C 307.820312 175.382812 308.085938 175.574219 308.335938 175.800781 C 308.585938 176.027344 308.816406 176.285156 309.03125 176.574219 C 309.242188 176.859375 309.433594 177.175781 309.601562 177.515625 C 309.765625 177.851562 309.90625 178.210938 310.023438 178.585938 C 310.136719 178.964844 310.226562 179.351562 310.285156 179.753906 C 310.34375 180.152344 310.371094 180.558594 310.371094 180.964844 Z M 310.371094 180.964844 " fill-opacity="1" fill-rule="nonzero"/><path fill="#000000" d="M 332.398438 180.964844 C 332.398438 181.371094 332.371094 181.777344 332.3125 182.175781 C 332.253906 182.578125 332.164062 182.964844 332.050781 183.34375 C 331.933594 183.71875 331.792969 184.078125 331.628906 184.414062 C 331.460938 184.753906 331.269531 185.070312 331.058594 185.355469 C 330.84375 185.644531 330.613281 185.902344 330.363281 186.128906 C 330.113281 186.355469 329.847656 186.546875 329.570312 186.703125 C 329.292969 186.859375 329.007812 186.976562 328.710938 187.058594 C 328.417969 187.136719 328.117188 187.175781 327.816406 187.175781 C 327.515625 187.175781 327.21875 187.136719 326.925781 187.058594 C 326.628906 186.976562 326.34375 186.859375 326.066406 186.703125 C 325.785156 186.546875 325.523438 186.355469 325.273438 186.128906 C 325.023438 185.902344 324.792969 185.644531 324.578125 185.355469 C 324.367188 185.070312 324.175781 184.753906 324.007812 184.414062 C 323.839844 184.078125 323.699219 183.71875 323.585938 183.34375 C 323.46875 182.964844 323.382812 182.578125 323.324219 182.175781 C 323.265625 181.777344 323.238281 181.371094 323.238281 180.964844 C 323.238281 180.558594 323.265625 180.152344 323.324219 179.753906 C 323.382812 179.351562 323.46875 178.964844 323.585938 178.585938 C 323.699219 178.210938 323.839844 177.851562 324.007812 177.515625 C 324.175781 177.175781 324.367188 176.859375 324.578125 176.574219 C 324.792969 176.285156 325.023438 176.027344 325.273438 175.800781 C 325.523438 175.574219 325.785156 175.382812 326.066406 175.226562 C 326.34375 175.070312 326.628906 174.953125 326.925781 174.871094 C 327.21875 174.792969 327.515625 174.753906 327.816406 174.753906 C 328.117188 174.753906 328.417969 174.792969 328.710938 174.871094 C 329.007812 174.953125 329.292969 175.070312 329.570312 175.226562 C 329.847656 175.382812 330.113281 175.574219 330.363281 175.800781 C 330.613281 176.027344 330.84375 176.285156 331.058594 176.574219 C 331.269531 176.859375 331.460938 177.175781 331.628906 177.515625 C 331.792969 177.851562 331.933594 178.210938 332.050781 178.585938 C 332.164062 178.964844 332.253906 179.351562 332.3125 179.753906 C 332.371094 180.152344 332.398438 180.558594 332.398438 180.964844 Z M 332.398438 180.964844 " fill-opacity="1" fill-rule="nonzero"/><path fill="#000000" d="M 334.433594 204.351562 C 333.40625 202.507812 331.574219 201.164062 329.742188 200.1875 C 327.375 198.929688 324.742188 198.183594 322.105469 197.761719 C 316.332031 196.835938 309.941406 197.199219 304.574219 199.671875 C 302.4375 200.65625 300.261719 202.085938 299.089844 204.1875 C 298.117188 205.9375 301.335938 207.402344 302.21875 205.8125 C 304.121094 202.402344 308.824219 201.125 312.425781 200.566406 C 317.234375 199.816406 322.664062 200.097656 327.152344 202.132812 C 328.953125 202.949219 330.527344 203.953125 331.472656 205.652344 C 332.375 207.273438 335.527344 206.3125 334.433594 204.351562 Z M 334.433594 204.351562 " fill-opacity="1" fill-rule="nonzero"/><g clip-path="url(#3ab3a75db2)"><path fill="#000000" d="M 442.929688 190.402344 C 442.878906 204.835938 433.679688 218.050781 420.117188 223.027344 C 406.714844 227.945312 391.238281 223.675781 382.214844 212.640625 C 373.03125 201.410156 371.824219 185.132812 379.328125 172.695312 C 386.753906 160.386719 401.464844 153.625 415.628906 156.5625 C 429.476562 159.433594 440.402344 170.964844 442.523438 184.964844 C 442.792969 186.765625 442.921875 188.582031 442.929688 190.402344 C 442.933594 192.21875 446.457031 192.566406 446.453125 190.558594 C 446.425781 182.816406 443.972656 175.1875 439.464844 168.882812 C 434.988281 162.628906 428.648438 157.898438 421.445312 155.253906 C 414.0625 152.542969 405.726562 152.230469 398.167969 154.394531 C 390.785156 156.503906 384.21875 160.765625 379.316406 166.683594 C 374.40625 172.605469 371.519531 180 370.945312 187.65625 C 370.367188 195.371094 372.292969 203.117188 376.285156 209.730469 C 384.453125 223.265625 400.84375 230.351562 416.3125 227.253906 C 431.46875 224.21875 443.6875 211.730469 446.007812 196.378906 C 446.296875 194.457031 446.445312 192.507812 446.453125 190.558594 C 446.457031 188.746094 442.9375 188.398438 442.929688 190.402344 Z M 442.929688 190.402344 " fill-opacity="1" fill-rule="nonzero"/></g><path fill="#000000" d="M 426.996094 208.402344 C 425.3125 201.933594 420.453125 196.589844 414.082031 194.496094 C 407.761719 192.421875 400.554688 194.113281 395.78125 198.726562 C 393.085938 201.328125 391.191406 204.613281 390.246094 208.238281 C 389.769531 210.0625 393.21875 210.992188 393.695312 209.160156 C 395.109375 203.742188 398.945312 199.097656 404.3125 197.257812 C 409.488281 195.480469 415.140625 197.039062 419.023438 200.78125 C 421.328125 203.003906 422.84375 205.917969 423.648438 208.996094 C 424.101562 210.742188 427.535156 210.460938 426.996094 208.402344 Z M 426.996094 208.402344 " fill-opacity="1" fill-rule="nonzero"/><path fill="#000000" d="M 402.214844 180.964844 C 402.214844 181.371094 402.183594 181.777344 402.125 182.175781 C 402.066406 182.578125 401.980469 182.964844 401.867188 183.34375 C 401.75 183.71875 401.609375 184.078125 401.441406 184.414062 C 401.277344 184.753906 401.085938 185.070312 400.871094 185.355469 C 400.660156 185.644531 400.429688 185.902344 400.179688 186.128906 C 399.929688 186.355469 399.664062 186.546875 399.386719 186.703125 C 399.109375 186.859375 398.820312 186.976562 398.527344 187.058594 C 398.230469 187.136719 397.933594 187.175781 397.632812 187.175781 C 397.332031 187.175781 397.035156 187.136719 396.738281 187.058594 C 396.445312 186.976562 396.15625 186.859375 395.878906 186.703125 C 395.601562 186.546875 395.339844 186.355469 395.089844 186.128906 C 394.835938 185.902344 394.605469 185.644531 394.394531 185.355469 C 394.179688 185.070312 393.992188 184.753906 393.824219 184.414062 C 393.65625 184.078125 393.515625 183.71875 393.402344 183.34375 C 393.285156 182.964844 393.199219 182.578125 393.140625 182.175781 C 393.082031 181.777344 393.050781 181.371094 393.050781 180.964844 C 393.050781 180.558594 393.082031 180.152344 393.140625 179.753906 C 393.199219 179.351562 393.285156 178.964844 393.402344 178.585938 C 393.515625 178.210938 393.65625 177.851562 393.824219 177.515625 C 393.992188 177.175781 394.179688 176.859375 394.394531 176.574219 C 394.605469 176.285156 394.835938 176.027344 395.089844 175.800781 C 395.339844 175.574219 395.601562 175.382812 395.878906 175.226562 C 396.15625 175.070312 396.445312 174.953125 396.738281 174.871094 C 397.035156 174.792969 397.332031 174.753906 397.632812 174.753906 C 397.933594 174.753906 398.230469 174.792969 398.527344 174.871094 C 398.820312 174.953125 399.109375 175.070312 399.386719 175.226562 C 399.664062 175.382812 399.929688 175.574219 400.179688 175.800781 C 400.429688 176.027344 400.660156 176.285156 400.871094 176.574219 C 401.085938 176.859375 401.277344 177.175781 401.441406 177.515625 C 401.609375 177.851562 401.75 178.210938 401.867188 178.585938 C 401.980469 178.964844 402.066406 179.351562 402.125 179.753906 C 402.183594 180.152344 402.214844 180.558594 402.214844 180.964844 Z M 402.214844 180.964844 " fill-opacity="1" fill-rule="nonzero"/><path fill="#000000" d="M 424.242188 180.964844 C 424.242188 181.371094 424.210938 181.777344 424.152344 182.175781 C 424.09375 182.578125 424.007812 182.964844 423.894531 183.34375 C 423.777344 183.71875 423.636719 184.078125 423.46875 184.414062 C 423.304688 184.753906 423.113281 185.070312 422.898438 185.355469 C 422.6875 185.644531 422.457031 185.902344 422.207031 186.128906 C 421.957031 186.355469 421.691406 186.546875 421.414062 186.703125 C 421.136719 186.859375 420.847656 186.976562 420.554688 187.058594 C 420.257812 187.136719 419.960938 187.175781 419.660156 187.175781 C 419.359375 187.175781 419.0625 187.136719 418.765625 187.058594 C 418.472656 186.976562 418.183594 186.859375 417.90625 186.703125 C 417.628906 186.546875 417.367188 186.355469 417.117188 186.128906 C 416.867188 185.902344 416.632812 185.644531 416.421875 185.355469 C 416.207031 185.070312 416.019531 184.753906 415.851562 184.414062 C 415.683594 184.078125 415.542969 183.71875 415.429688 183.34375 C 415.3125 182.964844 415.226562 182.578125 415.167969 182.175781 C 415.109375 181.777344 415.078125 181.371094 415.078125 180.964844 C 415.078125 180.558594 415.109375 180.152344 415.167969 179.753906 C 415.226562 179.351562 415.3125 178.964844 415.429688 178.585938 C 415.542969 178.210938 415.683594 177.851562 415.851562 177.515625 C 416.019531 177.175781 416.207031 176.859375 416.421875 176.574219 C 416.632812 176.285156 416.867188 176.027344 417.117188 175.800781 C 417.367188 175.574219 417.628906 175.382812 417.90625 175.226562 C 418.183594 175.070312 418.472656 174.953125 418.765625 174.871094 C 419.0625 174.792969 419.359375 174.753906 419.660156 174.753906 C 419.960938 174.753906 420.257812 174.792969 420.554688 174.871094 C 420.847656 174.953125 421.136719 175.070312 421.414062 175.226562 C 421.691406 175.382812 421.957031 175.574219 422.207031 175.800781 C 422.457031 176.027344 422.6875 176.285156 422.898438 176.574219 C 423.113281 176.859375 423.304688 177.175781 423.46875 177.515625 C 423.636719 177.851562 423.777344 178.210938 423.894531 178.585938 C 424.007812 178.964844 424.09375 179.351562 424.152344 179.753906 C 424.210938 180.152344 424.242188 180.558594 424.242188 180.964844 Z M 424.242188 180.964844 " fill-opacity="1" fill-rule="nonzero"/><g transform="matrix(1, 0, 0, 1, 0, 63)"><g clip-path="url(#8dad4e79fe)"><g fill="#000000" fill-opacity="1"><g transform="translate(0.000009, 55.866958)"><g><path d="M 24.03125 -2.84375 L 8.46875 -34.71875 L 8.46875 0 L 4.375 0 L 4.375 -39.78125 L 10.515625 -39.78125 L 24.09375 -11.53125 L 37.625 -39.78125 L 43.75 -39.78125 L 43.75 0 L 39.609375 0 L 39.609375 -34.78125 Z M 24.03125 -2.84375 "/></g></g></g><g fill="#000000" fill-opacity="1"><g transform="translate(48.125862, 55.866958)"><g><path d="M 43.46875 -19.890625 C 43.46875 -17.046875 42.9375 -14.363281 41.875 -11.84375 C 40.820312 -9.320312 39.375 -7.144531 37.53125 -5.3125 C 35.695312 -3.476562 33.53125 -2.03125 31.03125 -0.96875 C 28.53125 0.09375 25.859375 0.625 23.015625 0.625 C 20.171875 0.625 17.488281 0.09375 14.96875 -0.96875 C 12.445312 -2.03125 10.269531 -3.476562 8.4375 -5.3125 C 6.601562 -7.144531 5.15625 -9.320312 4.09375 -11.84375 C 3.03125 -14.363281 2.5 -17.046875 2.5 -19.890625 C 2.5 -22.734375 3.03125 -25.410156 4.09375 -27.921875 C 5.15625 -30.441406 6.601562 -32.617188 8.4375 -34.453125 C 10.269531 -36.296875 12.445312 -37.75 14.96875 -38.8125 C 17.488281 -39.875 20.171875 -40.40625 23.015625 -40.40625 C 25.859375 -40.40625 28.53125 -39.875 31.03125 -38.8125 C 33.53125 -37.75 35.695312 -36.296875 37.53125 -34.453125 C 39.375 -32.617188 40.820312 -30.441406 41.875 -27.921875 C 42.9375 -25.410156 43.46875 -22.734375 43.46875 -19.890625 Z M 39.046875 -19.890625 C 39.046875 -22.203125 38.628906 -24.367188 37.796875 -26.390625 C 36.960938 -28.421875 35.832031 -30.164062 34.40625 -31.625 C 32.988281 -33.082031 31.296875 -34.238281 29.328125 -35.09375 C 27.359375 -35.945312 25.253906 -36.375 23.015625 -36.375 C 20.742188 -36.375 18.625 -35.945312 16.65625 -35.09375 C 14.6875 -34.238281 12.988281 -33.082031 11.5625 -31.625 C 10.144531 -30.164062 9.019531 -28.421875 8.1875 -26.390625 C 7.351562 -24.367188 6.9375 -22.203125 6.9375 -19.890625 C 6.9375 -17.578125 7.351562 -15.414062 8.1875 -13.40625 C 9.019531 -11.40625 10.144531 -9.664062 11.5625 -8.1875 C 12.988281 -6.707031 14.6875 -5.539062 16.65625 -4.6875 C 18.625 -3.832031 20.742188 -3.40625 23.015625 -3.40625 C 25.253906 -3.40625 27.359375 -3.832031 29.328125 -4.6875 C 31.296875 -5.539062 32.988281 -6.707031 34.40625 -8.1875 C 35.832031 -9.664062 36.960938 -11.40625 37.796875 -13.40625 C 38.628906 -15.414062 39.046875 -17.578125 39.046875 -19.890625 Z M 39.046875 -19.890625 "/></g></g></g><g fill="#000000" fill-opacity="1"><g transform="translate(94.319908, 55.866958)"><g><path d="M 43.46875 -19.890625 C 43.46875 -17.046875 42.9375 -14.363281 41.875 -11.84375 C 40.820312 -9.320312 39.375 -7.144531 37.53125 -5.3125 C 35.695312 -3.476562 33.53125 -2.03125 31.03125 -0.96875 C 28.53125 0.09375 25.859375 0.625 23.015625 0.625 C 20.171875 0.625 17.488281 0.09375 14.96875 -0.96875 C 12.445312 -2.03125 10.269531 -3.476562 8.4375 -5.3125 C 6.601562 -7.144531 5.15625 -9.320312 4.09375 -11.84375 C 3.03125 -14.363281 2.5 -17.046875 2.5 -19.890625 C 2.5 -22.734375 3.03125 -25.410156 4.09375 -27.921875 C 5.15625 -30.441406 6.601562 -32.617188 8.4375 -34.453125 C 10.269531 -36.296875 12.445312 -37.75 14.96875 -38.8125 C 17.488281 -39.875 20.171875 -40.40625 23.015625 -40.40625 C 25.859375 -40.40625 28.53125 -39.875 31.03125 -38.8125 C 33.53125 -37.75 35.695312 -36.296875 37.53125 -34.453125 C 39.375 -32.617188 40.820312 -30.441406 41.875 -27.921875 C 42.9375 -25.410156 43.46875 -22.734375 43.46875 -19.890625 Z M 39.046875 -19.890625 C 39.046875 -22.203125 38.628906 -24.367188 37.796875 -26.390625 C 36.960938 -28.421875 35.832031 -30.164062 34.40625 -31.625 C 32.988281 -33.082031 31.296875 -34.238281 29.328125 -35.09375 C 27.359375 -35.945312 25.253906 -36.375 23.015625 -36.375 C 20.742188 -36.375 18.625 -35.945312 16.65625 -35.09375 C 14.6875 -34.238281 12.988281 -33.082031 11.5625 -31.625 C 10.144531 -30.164062 9.019531 -28.421875 8.1875 -26.390625 C 7.351562 -24.367188 6.9375 -22.203125 6.9375 -19.890625 C 6.9375 -17.578125 7.351562 -15.414062 8.1875 -13.40625 C 9.019531 -11.40625 10.144531 -9.664062 11.5625 -8.1875 C 12.988281 -6.707031 14.6875 -5.539062 16.65625 -4.6875 C 18.625 -3.832031 20.742188 -3.40625 23.015625 -3.40625 C 25.253906 -3.40625 27.359375 -3.832031 29.328125 -4.6875 C 31.296875 -5.539062 32.988281 -6.707031 34.40625 -8.1875 C 35.832031 -9.664062 36.960938 -11.40625 37.796875 -13.40625 C 38.628906 -15.414062 39.046875 -17.578125 39.046875 -19.890625 Z M 39.046875 -19.890625 "/></g></g></g><g fill="#000000" fill-opacity="1"><g transform="translate(140.286643, 55.866958)"><g><path d="M 4.375 0 L 4.375 -39.78125 L 17.5 -39.78125 C 20.5 -39.78125 23.285156 -39.273438 25.859375 -38.265625 C 28.429688 -37.265625 30.644531 -35.894531 32.5 -34.15625 C 34.363281 -32.414062 35.816406 -30.320312 36.859375 -27.875 C 37.898438 -25.425781 38.421875 -22.765625 38.421875 -19.890625 C 38.421875 -17.015625 37.898438 -14.351562 36.859375 -11.90625 C 35.816406 -9.457031 34.375 -7.363281 32.53125 -5.625 C 30.695312 -3.882812 28.488281 -2.507812 25.90625 -1.5 C 23.332031 -0.5 20.53125 0 17.5 0 Z M 17.734375 -35.796875 L 8.75 -35.796875 L 8.75 -3.984375 L 17.734375 -3.984375 C 20.003906 -3.984375 22.140625 -4.390625 24.140625 -5.203125 C 26.148438 -6.015625 27.875 -7.128906 29.3125 -8.546875 C 30.757812 -9.972656 31.898438 -11.660156 32.734375 -13.609375 C 33.566406 -15.554688 33.984375 -17.648438 33.984375 -19.890625 C 33.984375 -22.128906 33.566406 -24.222656 32.734375 -26.171875 C 31.898438 -28.117188 30.757812 -29.800781 29.3125 -31.21875 C 27.875 -32.644531 26.148438 -33.765625 24.140625 -34.578125 C 22.140625 -35.390625 20.003906 -35.796875 17.734375 -35.796875 Z M 17.734375 -35.796875 "/></g></g></g><g fill="#000000" fill-opacity="1"><g transform="translate(181.196475, 55.866958)"><g/></g></g><g fill="#000000" fill-opacity="1"><g transform="translate(193.412598, 55.866958)"><g><path d="M 0.96875 -35.859375 L 0.96875 -39.78125 L 34.09375 -39.78125 L 34.09375 -35.859375 L 19.71875 -35.859375 L 19.71875 0 L 15.34375 0 L 15.34375 -35.859375 Z M 0.96875 -35.859375 "/></g></g></g><g fill="#000000" fill-opacity="1"><g transform="translate(228.470049, 55.866958)"><g><path d="M 4.375 0 L 4.375 -39.78125 L 21.421875 -39.78125 C 25.285156 -39.78125 28.410156 -38.726562 30.796875 -36.625 C 33.179688 -34.519531 34.375 -31.765625 34.375 -28.359375 C 34.375 -25.742188 33.609375 -23.488281 32.078125 -21.59375 C 30.546875 -19.695312 28.488281 -18.390625 25.90625 -17.671875 L 34.828125 0 L 30 0 L 21.484375 -17.109375 L 8.75 -17.109375 L 8.75 0 Z M 21.140625 -35.859375 L 8.75 -35.859375 L 8.75 -20.796875 L 21.140625 -20.796875 C 23.796875 -20.796875 25.9375 -21.488281 27.5625 -22.875 C 29.1875 -24.257812 30 -26.085938 30 -28.359375 C 30 -30.628906 29.1875 -32.445312 27.5625 -33.8125 C 25.9375 -35.175781 23.796875 -35.859375 21.140625 -35.859375 Z M 21.140625 -35.859375 "/></g></g></g><g fill="#000000" fill-opacity="1"><g transform="translate(265.686679, 55.866958)"><g><path d="M 0.234375 0 L 16.765625 -39.78125 L 22.046875 -39.78125 L 38.359375 0 L 33.578125 0 L 28.578125 -12.5 L 9.828125 -12.5 L 4.78125 0 Z M 11.359375 -16.25 L 27.046875 -16.25 L 19.265625 -35.6875 Z M 11.359375 -16.25 "/></g></g></g><g fill="#000000" fill-opacity="1"><g transform="translate(302.221159, 55.866958)"><g><path d="M 23.25 -3.40625 C 25.707031 -3.40625 28.050781 -3.890625 30.28125 -4.859375 C 32.519531 -5.828125 34.398438 -7.160156 35.921875 -8.859375 L 38.75 -5.90625 C 36.78125 -3.863281 34.429688 -2.265625 31.703125 -1.109375 C 28.984375 0.046875 26.125 0.625 23.125 0.625 C 20.25 0.625 17.550781 0.09375 15.03125 -0.96875 C 12.507812 -2.03125 10.320312 -3.476562 8.46875 -5.3125 C 6.613281 -7.144531 5.15625 -9.320312 4.09375 -11.84375 C 3.03125 -14.363281 2.5 -17.046875 2.5 -19.890625 C 2.5 -22.734375 3.03125 -25.410156 4.09375 -27.921875 C 5.15625 -30.441406 6.613281 -32.617188 8.46875 -34.453125 C 10.320312 -36.296875 12.507812 -37.75 15.03125 -38.8125 C 17.550781 -39.875 20.25 -40.40625 23.125 -40.40625 C 26.195312 -40.40625 29.101562 -39.828125 31.84375 -38.671875 C 34.59375 -37.515625 36.9375 -35.914062 38.875 -33.875 L 35.96875 -30.796875 C 34.414062 -32.546875 32.492188 -33.910156 30.203125 -34.890625 C 27.910156 -35.878906 25.550781 -36.375 23.125 -36.375 C 20.851562 -36.375 18.722656 -35.945312 16.734375 -35.09375 C 14.742188 -34.238281 13.03125 -33.082031 11.59375 -31.625 C 10.15625 -30.164062 9.019531 -28.421875 8.1875 -26.390625 C 7.351562 -24.367188 6.9375 -22.203125 6.9375 -19.890625 C 6.9375 -17.578125 7.351562 -15.40625 8.1875 -13.375 C 9.019531 -11.351562 10.164062 -9.613281 11.625 -8.15625 C 13.082031 -6.695312 14.804688 -5.539062 16.796875 -4.6875 C 18.785156 -3.832031 20.9375 -3.40625 23.25 -3.40625 Z M 23.25 -3.40625 "/></g></g></g><g fill="#000000" fill-opacity="1"><g transform="translate(343.244629, 55.866958)"><g><path d="M 4.375 0 L 4.375 -39.78125 L 8.75 -39.78125 L 8.75 -20.90625 L 29.328125 -39.78125 L 35.0625 -39.78125 L 13.46875 -20.28125 L 35.515625 0 L 29.375 0 L 8.75 -19.09375 L 8.75 0 Z M 4.375 0 "/></g></g></g><g fill="#000000" fill-opacity="1"><g transform="translate(378.30208, 55.866958)"><g><path d="M 4.375 0 L 4.375 -39.78125 L 32.84375 -39.78125 L 32.84375 -35.921875 L 8.75 -35.921875 L 8.75 -22 L 24.5 -22 L 24.5 -18.1875 L 8.75 -18.1875 L 8.75 -3.859375 L 33.078125 -3.859375 L 33.078125 0 Z M 4.375 0 "/></g></g></g><g fill="#000000" fill-opacity="1"><g transform="translate(413.302694, 55.866958)"><g><path d="M 4.375 0 L 4.375 -39.78125 L 21.421875 -39.78125 C 25.285156 -39.78125 28.410156 -38.726562 30.796875 -36.625 C 33.179688 -34.519531 34.375 -31.765625 34.375 -28.359375 C 34.375 -25.742188 33.609375 -23.488281 32.078125 -21.59375 C 30.546875 -19.695312 28.488281 -18.390625 25.90625 -17.671875 L 34.828125 0 L 30 0 L 21.484375 -17.109375 L 8.75 -17.109375 L 8.75 0 Z M 21.140625 -35.859375 L 8.75 -35.859375 L 8.75 -20.796875 L 21.140625 -20.796875 C 23.796875 -20.796875 25.9375 -21.488281 27.5625 -22.875 C 29.1875 -24.257812 30 -26.085938 30 -28.359375 C 30 -30.628906 29.1875 -32.445312 27.5625 -33.8125 C 25.9375 -35.175781 23.796875 -35.859375 21.140625 -35.859375 Z M 21.140625 -35.859375 "/></g></g></g></g></g></svg>