<svg xmlns="http://www.w3.org/2000/svg" xmlns:xlink="http://www.w3.org/1999/xlink" width="600" zoomAndPan="magnify" viewBox="0 0 450 299.999988" height="400" preserveAspectRatio="xMidYMid meet" version="1.0"><defs><g/><clipPath id="475316196d"><path d="M 0 1.945312 L 366 1.945312 L 366 170 L 0 170 Z M 0 1.945312 " clip-rule="nonzero"/></clipPath><clipPath id="c8b372dfda"><rect x="0" width="191" y="0" height="32"/></clipPath><clipPath id="3b1706fdd2"><rect x="0" width="367" y="0" height="172"/></clipPath></defs><g transform="matrix(1, 0, 0, 1, 42, 53)"><g clip-path="url(#3b1706fdd2)"><g clip-path="url(#475316196d)"><path fill="#ffffff" d="M 0.285156 1.878906 L 365.589844 1.878906 L 365.589844 169.96875 L 0.285156 169.96875 Z M 0.285156 1.878906 " fill-opacity="1" fill-rule="nonzero"/></g><path fill="#ffffff" d="M 20.042969 23.855469 L 342.09375 23.855469 L 342.09375 67.375 L 20.042969 67.375 Z M 20.042969 23.855469 " fill-opacity="1" fill-rule="nonzero"/><path fill="#000000" d="M 36.511719 120.671875 C 27.066406 118.621094 20.589844 109.230469 22.167969 99.878906 C 23.847656 89.929688 33.234375 82.964844 42.949219 84.464844 C 53.054688 86.019531 60.214844 95.65625 58.558594 105.472656 C 57.269531 113.117188 51.5625 119.09375 44.03125 120.691406 C 40.804688 121.371094 39.726562 121.371094 36.511719 120.671875 Z M 45.585938 118.476562 C 50.105469 116.953125 53.425781 113.9375 55.523438 109.457031 C 57.757812 104.675781 57.320312 97.902344 54.511719 93.789062 C 50.867188 88.457031 45.765625 85.84375 39.566406 86.136719 C 32.507812 86.46875 26.8125 90.796875 24.523438 97.566406 C 22.683594 103.007812 24.140625 109.613281 28.140625 113.953125 C 32.527344 118.710938 39.511719 120.519531 45.585938 118.476562 Z M 37.195312 112.988281 C 33.339844 111.816406 29.292969 107.96875 30.570312 106.691406 C 31.335938 105.925781 32.023438 106.171875 33.347656 107.683594 C 34.859375 109.40625 38.027344 110.976562 39.996094 110.980469 C 42.449219 110.988281 44.941406 109.871094 46.675781 107.988281 C 48.382812 106.136719 49.070312 105.878906 49.835938 106.804688 C 50.175781 107.214844 50.191406 107.589844 49.894531 108.148438 C 49.136719 109.558594 45.886719 112.101562 44.027344 112.734375 C 42.121094 113.386719 38.894531 113.503906 37.195312 112.988281 Z M 33.5 99.488281 C 32.894531 99.011719 32.449219 98.269531 32.449219 97.730469 C 32.449219 96.511719 34.265625 95.058594 35.378906 95.390625 C 36.449219 95.707031 37.199219 96.671875 37.199219 97.730469 C 37.199219 99.765625 35.113281 100.757812 33.5 99.488281 Z M 44.175781 99.480469 C 42.621094 98.257812 42.839844 96.191406 44.597656 95.523438 C 47.089844 94.574219 48.972656 97.667969 47.015625 99.496094 C 45.925781 100.507812 45.476562 100.507812 44.175781 99.480469 Z M 83.988281 120.671875 C 74.542969 118.621094 68.066406 109.230469 69.644531 99.878906 C 71.324219 89.929688 80.710938 82.964844 90.425781 84.460938 C 100.53125 86.019531 107.691406 95.65625 106.035156 105.472656 C 104.746094 113.117188 99.039062 119.09375 91.507812 120.6875 C 88.28125 121.371094 87.203125 121.371094 83.988281 120.671875 Z M 93.0625 118.472656 C 97.578125 116.953125 100.902344 113.9375 102.996094 109.457031 C 105.234375 104.675781 104.796875 97.902344 101.988281 93.789062 C 98.34375 88.457031 93.242188 85.84375 87.042969 86.136719 C 79.984375 86.464844 74.289062 90.796875 72 97.566406 C 70.160156 103.007812 71.617188 109.613281 75.617188 113.953125 C 80.003906 118.710938 86.988281 120.519531 93.0625 118.472656 Z M 84.476562 112.109375 C 82.898438 111.519531 80.542969 109.789062 79.472656 108.425781 C 78.820312 107.597656 78.707031 107.167969 79.011719 106.683594 C 79.609375 105.738281 96.5625 105.5 97.328125 106.429688 C 98.027344 107.269531 96.597656 109.289062 94.085938 111.003906 C 92.351562 112.183594 91.84375 112.324219 88.914062 112.433594 C 87.125 112.496094 85.128906 112.351562 84.476562 112.109375 Z M 81.976562 100.03125 C 81.160156 99.703125 80.65625 97.988281 81.121094 97.121094 C 82.003906 95.46875 84.132812 95.355469 85.164062 96.898438 C 86.324219 98.636719 84.058594 100.863281 81.976562 100.03125 Z M 91.796875 99.511719 C 90.523438 98.238281 90.859375 96.53125 92.496094 95.910156 C 93.90625 95.371094 95.355469 96.386719 95.355469 97.910156 C 95.355469 100.105469 93.3125 101.027344 91.796875 99.511719 Z M 131.464844 120.671875 C 122.019531 118.621094 115.542969 109.230469 117.121094 99.878906 C 118.800781 89.929688 128.1875 82.964844 137.898438 84.460938 C 148.007812 86.019531 155.164062 95.65625 153.511719 105.472656 C 152.222656 113.117188 146.515625 119.09375 138.984375 120.6875 C 135.757812 121.371094 134.679688 121.371094 131.464844 120.671875 Z M 140.539062 118.472656 C 145.054688 116.953125 148.378906 113.9375 150.472656 109.457031 C 152.710938 104.675781 152.273438 97.902344 149.464844 93.789062 C 145.820312 88.457031 140.71875 85.84375 134.515625 86.136719 C 127.460938 86.464844 121.765625 90.796875 119.476562 97.566406 C 117.636719 103.007812 119.09375 109.613281 123.09375 113.953125 C 127.480469 118.710938 134.464844 120.519531 140.539062 118.472656 Z M 130.609375 109.648438 C 130.363281 109.351562 130.269531 108.816406 130.40625 108.460938 C 130.757812 107.546875 139.703125 107.503906 140.457031 108.414062 C 140.851562 108.886719 140.851562 109.125 140.457031 109.597656 C 139.777344 110.421875 131.285156 110.464844 130.609375 109.648438 Z M 129.074219 99.6875 C 127.351562 98.480469 128.425781 95.554688 130.59375 95.554688 C 131.53125 95.554688 132.546875 96.84375 132.546875 98.035156 C 132.546875 99.023438 131.320312 100.300781 130.371094 100.300781 C 130.140625 100.300781 129.558594 100.023438 129.074219 99.6875 Z M 139.410156 99.71875 C 138.207031 98.878906 138.035156 97.703125 138.941406 96.546875 C 139.84375 95.402344 140.707031 95.296875 141.953125 96.167969 C 143.050781 96.9375 143.089844 98.460938 142.042969 99.511719 C 141.097656 100.453125 140.519531 100.5 139.410156 99.71875 Z M 178.9375 120.671875 C 169.496094 118.621094 163.019531 109.230469 164.597656 99.878906 C 166.273438 89.929688 175.664062 82.964844 185.375 84.460938 C 195.484375 86.019531 202.640625 95.65625 200.988281 105.472656 C 199.699219 113.117188 193.992188 119.09375 186.460938 120.6875 C 183.234375 121.371094 182.15625 121.371094 178.9375 120.671875 Z M 188.015625 118.472656 C 192.53125 116.953125 195.851562 113.9375 197.949219 109.457031 C 200.1875 104.675781 199.75 97.902344 196.941406 93.789062 C 193.296875 88.457031 188.195312 85.84375 181.992188 86.136719 C 174.9375 86.464844 169.242188 90.796875 166.953125 97.566406 C 165.113281 103.007812 166.570312 109.613281 170.570312 113.953125 C 174.953125 118.710938 181.941406 120.519531 188.015625 118.472656 Z M 180.152344 112.417969 C 179.242188 112.117188 177.855469 111.480469 177.070312 110.992188 C 175.449219 109.992188 173.65625 107.585938 173.949219 106.8125 C 174.375 105.707031 175.25 105.980469 177.1875 107.828125 C 181.199219 111.65625 186.078125 111.480469 189.875 107.367188 C 191.210938 105.921875 191.515625 105.757812 192.054688 106.207031 C 192.9375 106.941406 192.847656 107.441406 191.539062 109.027344 C 189.019531 112.082031 183.84375 113.625 180.152344 112.417969 Z M 175.941406 99.757812 C 173.992188 97.96875 173.644531 96.84375 174.710938 95.78125 C 175.488281 95 176.625 94.984375 177.382812 95.742188 C 177.894531 96.253906 178.023438 96.253906 178.449219 95.742188 C 178.714844 95.421875 179.320312 95.160156 179.792969 95.160156 C 181.949219 95.160156 182.253906 97.570312 180.320312 99.355469 C 177.847656 101.636719 177.976562 101.625 175.941406 99.757812 Z M 186.597656 99.773438 C 184.675781 97.980469 184.332031 96.839844 185.390625 95.78125 C 186.175781 94.996094 187.089844 94.988281 187.945312 95.761719 C 188.542969 96.304688 188.664062 96.304688 189.113281 95.761719 C 189.710938 95.039062 191.152344 94.972656 191.8125 95.632812 C 192.9375 96.757812 191.945312 98.96875 189.546875 100.675781 L 188.425781 101.476562 Z M 226.8125 120.671875 C 217.367188 118.621094 210.890625 109.230469 212.46875 99.878906 C 214.148438 89.929688 223.535156 82.964844 233.25 84.460938 C 243.355469 86.019531 250.515625 95.65625 248.859375 105.472656 C 247.570312 113.117188 241.863281 119.09375 234.332031 120.6875 C 231.105469 121.371094 230.027344 121.371094 226.8125 120.671875 Z M 235.886719 118.472656 C 240.40625 116.953125 243.726562 113.9375 245.824219 109.457031 C 248.058594 104.675781 247.621094 97.902344 244.8125 93.789062 C 241.167969 88.457031 236.066406 85.84375 229.867188 86.136719 C 222.808594 86.464844 217.113281 90.796875 214.824219 97.566406 C 212.984375 103.007812 214.441406 109.613281 218.441406 113.953125 C 222.828125 118.710938 229.8125 120.519531 235.886719 118.472656 Z M 221.644531 109.71875 C 220.929688 109.003906 221.054688 108.535156 222.363281 106.945312 C 223.773438 105.234375 226.964844 103.574219 229.515625 103.226562 C 233 102.753906 237.828125 104.949219 239.46875 107.753906 C 240.113281 108.847656 240.117188 108.992188 239.523438 109.582031 C 238.933594 110.175781 238.722656 110.070312 236.808594 108.261719 C 234.464844 106.042969 232.25 105.226562 229.574219 105.59375 C 227.335938 105.902344 226.015625 106.625 224.121094 108.578125 C 222.386719 110.363281 222.320312 110.394531 221.644531 109.71875 Z M 223.714844 98.539062 C 222.941406 97.355469 223.253906 96.15625 224.5625 95.300781 C 225.4375 94.726562 225.605469 94.726562 226.480469 95.300781 C 227.789062 96.15625 228.101562 97.355469 227.324219 98.539062 C 226.886719 99.207031 226.324219 99.511719 225.519531 99.511719 C 224.71875 99.511719 224.152344 99.207031 223.714844 98.539062 Z M 234.089844 98.785156 C 233.136719 97.734375 233.285156 96.519531 234.476562 95.582031 C 235.746094 94.582031 235.886719 94.578125 237 95.480469 C 237.542969 95.917969 237.882812 96.632812 237.882812 97.328125 C 237.882812 99.3125 235.421875 100.257812 234.089844 98.785156 Z M 273.890625 120.671875 C 264.449219 118.621094 257.972656 109.230469 259.550781 99.878906 C 261.226562 89.929688 270.617188 82.964844 280.328125 84.460938 C 290.4375 86.019531 297.59375 95.65625 295.941406 105.472656 C 294.652344 113.117188 288.945312 119.09375 281.414062 120.6875 C 278.1875 121.371094 277.109375 121.371094 273.890625 120.671875 Z M 282.96875 118.472656 C 287.484375 116.953125 290.804688 113.9375 292.902344 109.457031 C 295.140625 104.675781 294.703125 97.902344 291.894531 93.789062 C 288.25 88.457031 283.148438 85.84375 276.945312 86.136719 C 269.890625 86.464844 264.195312 90.796875 261.90625 97.566406 C 260.066406 103.007812 261.523438 109.613281 265.523438 113.953125 C 269.90625 118.710938 276.894531 120.519531 282.96875 118.472656 Z M 273.140625 110.785156 C 273.015625 110.460938 273.015625 109.921875 273.144531 109.585938 C 273.339844 109.078125 274.167969 109 278.226562 109.09375 C 282.609375 109.191406 283.089844 109.273438 283.21875 109.949219 C 283.445312 111.136719 282.574219 111.367188 277.832031 111.375 C 274.226562 111.378906 273.324219 111.265625 273.140625 110.785156 Z M 270.0625 102.058594 C 269.257812 101.253906 269.273438 101.121094 270.265625 100.066406 L 271.09375 99.183594 L 270.203125 97.976562 C 269.464844 96.976562 269.398438 96.671875 269.820312 96.164062 C 270.515625 95.324219 271.242188 95.398438 272.1875 96.417969 L 272.992188 97.28125 L 273.964844 96.367188 C 275.632812 94.796875 277.40625 96.375 275.847656 98.046875 C 275.042969 98.90625 275.042969 98.925781 275.796875 99.851562 C 276.757812 101.03125 276.761719 101.746094 275.808594 102.257812 C 275.234375 102.566406 274.816406 102.46875 274.007812 101.832031 C 273.078125 101.101562 272.882812 101.070312 272.285156 101.582031 C 271.085938 102.609375 270.699219 102.695312 270.0625 102.058594 Z M 280.09375 102.050781 C 279.660156 101.53125 279.695312 101.203125 280.304688 100.074219 C 281.003906 98.777344 281.003906 98.6875 280.332031 97.941406 C 278.921875 96.386719 280.710938 94.855469 282.246094 96.300781 L 283.148438 97.148438 L 284.070312 96.351562 C 285.171875 95.394531 285.785156 95.347656 286.460938 96.164062 C 286.882812 96.671875 286.816406 96.976562 286.078125 97.976562 L 285.1875 99.183594 L 286.027344 100.074219 C 287.566406 101.714844 285.875 103.386719 284.234375 101.847656 L 283.332031 101 L 282.265625 101.835938 C 280.988281 102.839844 280.765625 102.863281 280.09375 102.050781 Z M 321.765625 120.671875 C 312.320312 118.621094 305.84375 109.230469 307.421875 99.878906 C 309.101562 89.929688 318.488281 82.964844 328.203125 84.460938 C 338.308594 86.019531 345.46875 95.65625 343.8125 105.472656 C 342.523438 113.117188 336.816406 119.09375 329.285156 120.6875 C 326.058594 121.371094 324.980469 121.371094 321.765625 120.671875 Z M 330.839844 118.472656 C 335.359375 116.953125 338.679688 113.9375 340.777344 109.457031 C 343.011719 104.675781 342.574219 97.902344 339.765625 93.789062 C 336.121094 88.457031 331.019531 85.84375 324.820312 86.136719 C 317.761719 86.464844 312.066406 90.796875 309.777344 97.566406 C 307.9375 103.007812 309.394531 109.613281 313.394531 113.949219 C 317.78125 118.707031 324.765625 120.519531 330.839844 118.472656 Z M 321.660156 110.589844 C 321.402344 110.425781 321.25 109.960938 321.328125 109.550781 C 321.441406 108.964844 322.386719 108.570312 325.765625 107.695312 C 330.324219 106.515625 331.15625 106.53125 331.15625 107.789062 C 331.15625 108.371094 330.761719 108.683594 329.671875 108.96875 C 323.886719 110.480469 322.078125 110.847656 321.660156 110.589844 Z M 319.023438 99.265625 C 318.414062 98.339844 318.40625 98.125 318.929688 97.191406 C 319.382812 96.378906 319.816406 96.148438 320.871094 96.148438 C 321.921875 96.148438 322.355469 96.378906 322.808594 97.191406 C 323.332031 98.125 323.324219 98.339844 322.714844 99.265625 C 322.238281 99.996094 321.691406 100.300781 320.871094 100.300781 C 320.046875 100.300781 319.5 99.996094 319.023438 99.265625 Z M 329.402344 99.679688 C 328.082031 98.359375 329.152344 95.949219 331.058594 95.949219 C 332.78125 95.949219 333.878906 98.609375 332.660156 99.828125 C 331.988281 100.5 330.140625 100.414062 329.402344 99.679688 Z M 329.402344 99.679688 " fill-opacity="1" fill-rule="nonzero"/><path fill="#4d4d4d" d="M 30.304688 145.460938 L 30.304688 135.570312 L 50.085938 135.570312 L 50.085938 155.351562 L 30.304688 155.351562 Z M 48.105469 145.460938 L 48.105469 137.550781 L 32.28125 137.550781 L 32.28125 153.375 L 48.105469 153.375 Z M 77.382812 145.460938 L 77.382812 135.570312 L 97.164062 135.570312 L 97.164062 155.351562 L 77.382812 155.351562 Z M 95.1875 145.460938 L 95.1875 137.550781 L 79.363281 137.550781 L 79.363281 153.375 L 95.1875 153.375 Z M 124.859375 145.460938 L 124.859375 135.570312 L 144.640625 135.570312 L 144.640625 155.351562 L 124.859375 155.351562 Z M 142.664062 145.460938 L 142.664062 137.550781 L 126.839844 137.550781 L 126.839844 153.375 L 142.664062 153.375 Z M 172.335938 145.460938 L 172.335938 135.570312 L 192.117188 135.570312 L 192.117188 155.351562 L 172.335938 155.351562 Z M 190.140625 145.460938 L 190.140625 137.550781 L 174.316406 137.550781 L 174.316406 153.375 L 190.140625 153.375 Z M 221 145.460938 L 221 135.570312 L 240.78125 135.570312 L 240.78125 155.351562 L 221 155.351562 Z M 238.804688 145.460938 L 238.804688 137.550781 L 222.976562 137.550781 L 222.976562 153.375 L 238.804688 153.375 Z M 268.476562 145.460938 L 268.476562 135.570312 L 288.257812 135.570312 L 288.257812 155.351562 L 268.476562 155.351562 Z M 286.28125 145.460938 L 286.28125 137.550781 L 270.453125 137.550781 L 270.453125 153.375 L 286.28125 153.375 Z M 315.160156 145.460938 L 315.160156 135.570312 L 334.945312 135.570312 L 334.945312 155.351562 L 315.160156 155.351562 Z M 332.964844 145.460938 L 332.964844 137.550781 L 317.140625 137.550781 L 317.140625 153.375 L 332.964844 153.375 Z M 332.964844 145.460938 " fill-opacity="1" fill-rule="nonzero"/><g transform="matrix(1, 0, 0, 1, 88, 31)"><g clip-path="url(#c8b372dfda)"><g fill="#000000" fill-opacity="1"><g transform="translate(0.327117, 23.461348)"><g><path d="M 10.109375 -1.1875 L 3.5625 -14.609375 L 3.5625 0 L 1.84375 0 L 1.84375 -16.734375 L 4.421875 -16.734375 L 10.140625 -4.859375 L 15.828125 -16.734375 L 18.40625 -16.734375 L 18.40625 0 L 16.65625 0 L 16.65625 -14.625 Z M 10.109375 -1.1875 "/></g></g></g><g fill="#000000" fill-opacity="1"><g transform="translate(20.576954, 23.461348)"><g><path d="M 18.28125 -8.359375 C 18.28125 -7.171875 18.054688 -6.046875 17.609375 -4.984375 C 17.171875 -3.921875 16.5625 -3.003906 15.78125 -2.234375 C 15.007812 -1.460938 14.097656 -0.851562 13.046875 -0.40625 C 11.992188 0.0390625 10.875 0.265625 9.6875 0.265625 C 8.488281 0.265625 7.359375 0.0390625 6.296875 -0.40625 C 5.234375 -0.851562 4.316406 -1.460938 3.546875 -2.234375 C 2.773438 -3.003906 2.164062 -3.921875 1.71875 -4.984375 C 1.269531 -6.046875 1.046875 -7.171875 1.046875 -8.359375 C 1.046875 -9.554688 1.269531 -10.6875 1.71875 -11.75 C 2.164062 -12.8125 2.773438 -13.726562 3.546875 -14.5 C 4.316406 -15.269531 5.234375 -15.878906 6.296875 -16.328125 C 7.359375 -16.773438 8.488281 -17 9.6875 -17 C 10.875 -17 11.992188 -16.773438 13.046875 -16.328125 C 14.097656 -15.878906 15.007812 -15.269531 15.78125 -14.5 C 16.5625 -13.726562 17.171875 -12.8125 17.609375 -11.75 C 18.054688 -10.6875 18.28125 -9.554688 18.28125 -8.359375 Z M 16.421875 -8.359375 C 16.421875 -9.335938 16.242188 -10.253906 15.890625 -11.109375 C 15.546875 -11.960938 15.070312 -12.691406 14.46875 -13.296875 C 13.875 -13.910156 13.160156 -14.394531 12.328125 -14.75 C 11.503906 -15.113281 10.625 -15.296875 9.6875 -15.296875 C 8.726562 -15.296875 7.832031 -15.113281 7 -14.75 C 6.175781 -14.394531 5.460938 -13.910156 4.859375 -13.296875 C 4.265625 -12.691406 3.789062 -11.960938 3.4375 -11.109375 C 3.09375 -10.253906 2.921875 -9.335938 2.921875 -8.359375 C 2.921875 -7.390625 3.09375 -6.484375 3.4375 -5.640625 C 3.789062 -4.796875 4.265625 -4.0625 4.859375 -3.4375 C 5.460938 -2.820312 6.175781 -2.332031 7 -1.96875 C 7.832031 -1.613281 8.726562 -1.4375 9.6875 -1.4375 C 10.625 -1.4375 11.503906 -1.613281 12.328125 -1.96875 C 13.160156 -2.332031 13.875 -2.820312 14.46875 -3.4375 C 15.070312 -4.0625 15.546875 -4.796875 15.890625 -5.640625 C 16.242188 -6.484375 16.421875 -7.390625 16.421875 -8.359375 Z M 16.421875 -8.359375 "/></g></g></g><g fill="#000000" fill-opacity="1"><g transform="translate(40.013947, 23.461348)"><g><path d="M 18.28125 -8.359375 C 18.28125 -7.171875 18.054688 -6.046875 17.609375 -4.984375 C 17.171875 -3.921875 16.5625 -3.003906 15.78125 -2.234375 C 15.007812 -1.460938 14.097656 -0.851562 13.046875 -0.40625 C 11.992188 0.0390625 10.875 0.265625 9.6875 0.265625 C 8.488281 0.265625 7.359375 0.0390625 6.296875 -0.40625 C 5.234375 -0.851562 4.316406 -1.460938 3.546875 -2.234375 C 2.773438 -3.003906 2.164062 -3.921875 1.71875 -4.984375 C 1.269531 -6.046875 1.046875 -7.171875 1.046875 -8.359375 C 1.046875 -9.554688 1.269531 -10.6875 1.71875 -11.75 C 2.164062 -12.8125 2.773438 -13.726562 3.546875 -14.5 C 4.316406 -15.269531 5.234375 -15.878906 6.296875 -16.328125 C 7.359375 -16.773438 8.488281 -17 9.6875 -17 C 10.875 -17 11.992188 -16.773438 13.046875 -16.328125 C 14.097656 -15.878906 15.007812 -15.269531 15.78125 -14.5 C 16.5625 -13.726562 17.171875 -12.8125 17.609375 -11.75 C 18.054688 -10.6875 18.28125 -9.554688 18.28125 -8.359375 Z M 16.421875 -8.359375 C 16.421875 -9.335938 16.242188 -10.253906 15.890625 -11.109375 C 15.546875 -11.960938 15.070312 -12.691406 14.46875 -13.296875 C 13.875 -13.910156 13.160156 -14.394531 12.328125 -14.75 C 11.503906 -15.113281 10.625 -15.296875 9.6875 -15.296875 C 8.726562 -15.296875 7.832031 -15.113281 7 -14.75 C 6.175781 -14.394531 5.460938 -13.910156 4.859375 -13.296875 C 4.265625 -12.691406 3.789062 -11.960938 3.4375 -11.109375 C 3.09375 -10.253906 2.921875 -9.335938 2.921875 -8.359375 C 2.921875 -7.390625 3.09375 -6.484375 3.4375 -5.640625 C 3.789062 -4.796875 4.265625 -4.0625 4.859375 -3.4375 C 5.460938 -2.820312 6.175781 -2.332031 7 -1.96875 C 7.832031 -1.613281 8.726562 -1.4375 9.6875 -1.4375 C 10.625 -1.4375 11.503906 -1.613281 12.328125 -1.96875 C 13.160156 -2.332031 13.875 -2.820312 14.46875 -3.4375 C 15.070312 -4.0625 15.546875 -4.796875 15.890625 -5.640625 C 16.242188 -6.484375 16.421875 -7.390625 16.421875 -8.359375 Z M 16.421875 -8.359375 "/></g></g></g><g fill="#000000" fill-opacity="1"><g transform="translate(59.355295, 23.461348)"><g><path d="M 1.84375 0 L 1.84375 -16.734375 L 7.359375 -16.734375 C 8.617188 -16.734375 9.789062 -16.519531 10.875 -16.09375 C 11.957031 -15.675781 12.890625 -15.097656 13.671875 -14.359375 C 14.453125 -13.628906 15.0625 -12.75 15.5 -11.71875 C 15.9375 -10.695312 16.15625 -9.578125 16.15625 -8.359375 C 16.15625 -7.148438 15.9375 -6.03125 15.5 -5 C 15.0625 -3.976562 14.457031 -3.097656 13.6875 -2.359375 C 12.914062 -1.628906 11.988281 -1.050781 10.90625 -0.625 C 9.820312 -0.207031 8.640625 0 7.359375 0 Z M 7.453125 -15.0625 L 3.6875 -15.0625 L 3.6875 -1.671875 L 7.453125 -1.671875 C 8.410156 -1.671875 9.3125 -1.84375 10.15625 -2.1875 C 11 -2.53125 11.722656 -3 12.328125 -3.59375 C 12.941406 -4.195312 13.421875 -4.90625 13.765625 -5.71875 C 14.117188 -6.539062 14.296875 -7.421875 14.296875 -8.359375 C 14.296875 -9.304688 14.117188 -10.1875 13.765625 -11 C 13.421875 -11.820312 12.941406 -12.53125 12.328125 -13.125 C 11.722656 -13.726562 11 -14.203125 10.15625 -14.546875 C 9.3125 -14.890625 8.410156 -15.0625 7.453125 -15.0625 Z M 7.453125 -15.0625 "/></g></g></g><g fill="#000000" fill-opacity="1"><g transform="translate(76.568858, 23.461348)"><g/></g></g><g fill="#000000" fill-opacity="1"><g transform="translate(81.709017, 23.461348)"><g><path d="M 0.40625 -15.078125 L 0.40625 -16.734375 L 14.34375 -16.734375 L 14.34375 -15.078125 L 8.296875 -15.078125 L 8.296875 0 L 6.453125 0 L 6.453125 -15.078125 Z M 0.40625 -15.078125 "/></g></g></g><g fill="#000000" fill-opacity="1"><g transform="translate(96.460083, 23.461348)"><g><path d="M 1.84375 0 L 1.84375 -16.734375 L 9.015625 -16.734375 C 10.640625 -16.734375 11.953125 -16.289062 12.953125 -15.40625 C 13.960938 -14.519531 14.46875 -13.359375 14.46875 -11.921875 C 14.46875 -10.828125 14.144531 -9.878906 13.5 -9.078125 C 12.851562 -8.285156 11.988281 -7.738281 10.90625 -7.4375 L 14.65625 0 L 12.625 0 L 9.03125 -7.203125 L 3.6875 -7.203125 L 3.6875 0 Z M 8.890625 -15.078125 L 3.6875 -15.078125 L 3.6875 -8.75 L 8.890625 -8.75 C 10.003906 -8.75 10.90625 -9.039062 11.59375 -9.625 C 12.28125 -10.207031 12.625 -10.972656 12.625 -11.921875 C 12.625 -12.878906 12.28125 -13.644531 11.59375 -14.21875 C 10.90625 -14.789062 10.003906 -15.078125 8.890625 -15.078125 Z M 8.890625 -15.078125 "/></g></g></g><g fill="#000000" fill-opacity="1"><g transform="translate(112.119663, 23.461348)"><g><path d="M 0.09375 0 L 7.046875 -16.734375 L 9.28125 -16.734375 L 16.140625 0 L 14.125 0 L 12.03125 -5.265625 L 4.140625 -5.265625 L 2.015625 0 Z M 4.78125 -6.84375 L 11.375 -6.84375 L 8.109375 -15.015625 Z M 4.78125 -6.84375 "/></g></g></g><g fill="#000000" fill-opacity="1"><g transform="translate(127.492217, 23.461348)"><g><path d="M 9.78125 -1.4375 C 10.8125 -1.4375 11.796875 -1.640625 12.734375 -2.046875 C 13.679688 -2.453125 14.472656 -3.015625 15.109375 -3.734375 L 16.296875 -2.484375 C 15.472656 -1.617188 14.488281 -0.941406 13.34375 -0.453125 C 12.195312 0.0234375 10.992188 0.265625 9.734375 0.265625 C 8.515625 0.265625 7.375 0.0390625 6.3125 -0.40625 C 5.257812 -0.851562 4.34375 -1.460938 3.5625 -2.234375 C 2.78125 -3.003906 2.164062 -3.921875 1.71875 -4.984375 C 1.269531 -6.046875 1.046875 -7.171875 1.046875 -8.359375 C 1.046875 -9.554688 1.269531 -10.6875 1.71875 -11.75 C 2.164062 -12.8125 2.78125 -13.726562 3.5625 -14.5 C 4.34375 -15.269531 5.257812 -15.878906 6.3125 -16.328125 C 7.375 -16.773438 8.515625 -17 9.734375 -17 C 11.023438 -17 12.242188 -16.753906 13.390625 -16.265625 C 14.546875 -15.773438 15.535156 -15.101562 16.359375 -14.25 L 15.125 -12.953125 C 14.476562 -13.691406 13.671875 -14.265625 12.703125 -14.671875 C 11.742188 -15.085938 10.753906 -15.296875 9.734375 -15.296875 C 8.773438 -15.296875 7.875 -15.113281 7.03125 -14.75 C 6.195312 -14.394531 5.476562 -13.910156 4.875 -13.296875 C 4.269531 -12.691406 3.789062 -11.960938 3.4375 -11.109375 C 3.09375 -10.253906 2.921875 -9.335938 2.921875 -8.359375 C 2.921875 -7.390625 3.09375 -6.476562 3.4375 -5.625 C 3.789062 -4.769531 4.273438 -4.035156 4.890625 -3.421875 C 5.503906 -2.816406 6.226562 -2.332031 7.0625 -1.96875 C 7.894531 -1.613281 8.800781 -1.4375 9.78125 -1.4375 Z M 9.78125 -1.4375 "/></g></g></g><g fill="#000000" fill-opacity="1"><g transform="translate(144.753596, 23.461348)"><g><path d="M 1.84375 0 L 1.84375 -16.734375 L 3.6875 -16.734375 L 3.6875 -8.796875 L 12.328125 -16.734375 L 14.75 -16.734375 L 5.671875 -8.53125 L 14.9375 0 L 12.359375 0 L 3.6875 -8.03125 L 3.6875 0 Z M 1.84375 0 "/></g></g></g><g fill="#000000" fill-opacity="1"><g transform="translate(159.504662, 23.461348)"><g><path d="M 1.84375 0 L 1.84375 -16.734375 L 13.8125 -16.734375 L 13.8125 -15.109375 L 3.6875 -15.109375 L 3.6875 -9.25 L 10.296875 -9.25 L 10.296875 -7.65625 L 3.6875 -7.65625 L 3.6875 -1.625 L 13.90625 -1.625 L 13.90625 0 Z M 1.84375 0 "/></g></g></g><g fill="#000000" fill-opacity="1"><g transform="translate(174.231813, 23.461348)"><g><path d="M 1.84375 0 L 1.84375 -16.734375 L 9.015625 -16.734375 C 10.640625 -16.734375 11.953125 -16.289062 12.953125 -15.40625 C 13.960938 -14.519531 14.46875 -13.359375 14.46875 -11.921875 C 14.46875 -10.828125 14.144531 -9.878906 13.5 -9.078125 C 12.851562 -8.285156 11.988281 -7.738281 10.90625 -7.4375 L 14.65625 0 L 12.625 0 L 9.03125 -7.203125 L 3.6875 -7.203125 L 3.6875 0 Z M 8.890625 -15.078125 L 3.6875 -15.078125 L 3.6875 -8.75 L 8.890625 -8.75 C 10.003906 -8.75 10.90625 -9.039062 11.59375 -9.625 C 12.28125 -10.207031 12.625 -10.972656 12.625 -11.921875 C 12.625 -12.878906 12.28125 -13.644531 11.59375 -14.21875 C 10.90625 -14.789062 10.003906 -15.078125 8.890625 -15.078125 Z M 8.890625 -15.078125 "/></g></g></g></g></g></g></g></svg>