<svg xmlns="http://www.w3.org/2000/svg" xmlns:xlink="http://www.w3.org/1999/xlink" width="1200" zoomAndPan="magnify" viewBox="0 0 900 675.000002" height="900" preserveAspectRatio="xMidYMid meet" version="1.0"><path stroke-linecap="butt" transform="matrix(0.748891, 0, 0, 0.748891, 66.33599, 141.426003)" fill="none" stroke-linejoin="miter" d="M -0.0000706999 0.500445 L 1018.939568 0.500445 " stroke="#776c68" stroke-width="1" stroke-opacity="1" stroke-miterlimit="4"/><path stroke-linecap="butt" transform="matrix(0.748891, 0, 0, 0.748891, 66.33599, 111.740333)" fill="none" stroke-linejoin="miter" d="M -0.0000706999 0.498001 L 1018.939568 0.498001 " stroke="#776c68" stroke-width="1" stroke-opacity="1" stroke-miterlimit="4"/><path stroke-linecap="butt" transform="matrix(0.748891, 0, 0, 0.748891, 66.33599, 82.054666)" fill="none" stroke-linejoin="miter" d="M -0.0000706999 0.50077 L 1018.939568 0.50077 " stroke="#776c68" stroke-width="1" stroke-opacity="1" stroke-miterlimit="4"/><path stroke-linecap="butt" transform="matrix(0.748891, 0, 0, 0.748891, 66.33599, 374.873426)" fill="none" stroke-linejoin="miter" d="M -0.0000706999 0.497626 L 1018.939568 0.497626 " stroke="#776c68" stroke-width="1" stroke-opacity="1" stroke-miterlimit="4"/><path stroke-linecap="butt" transform="matrix(0.748891, 0, 0, 0.748891, 66.33599, 258.149831)" fill="none" stroke-linejoin="miter" d="M -0.0000706999 0.498881 L 1018.939568 0.498881 " stroke="#776c68" stroke-width="1" stroke-opacity="1" stroke-miterlimit="4"/><path stroke-linecap="butt" transform="matrix(0.748891, 0, 0, 0.748891, 66.33599, 491.597245)" fill="none" stroke-linejoin="miter" d="M -0.0000706999 0.50129 L 1018.939568 0.50129 " stroke="#776c68" stroke-width="1" stroke-opacity="1" stroke-miterlimit="4"/><path stroke-linecap="butt" transform="matrix(0.748891, 0, 0, 0.748891, 66.33599, 608.320972)" fill="none" stroke-linejoin="miter" d="M -0.0000706999 0.49986 L 1018.939568 0.49986 " stroke="#776c68" stroke-width="1" stroke-opacity="1" stroke-miterlimit="4"/><path stroke-linecap="butt" transform="matrix(0.748891, 0, 0, 0.748891, 66.33599, 199.787976)" fill="none" stroke-linejoin="miter" d="M -0.0000706999 0.502191 L 1018.939568 0.502191 " stroke="#776c68" stroke-width="1" stroke-opacity="1" stroke-miterlimit="4"/><path stroke-linecap="butt" transform="matrix(0.748891, 0, 0, 0.748891, 66.33599, 433.235405)" fill="none" stroke-linejoin="miter" d="M -0.0000706999 0.499365 L 1018.939568 0.499365 " stroke="#776c68" stroke-width="1" stroke-opacity="1" stroke-miterlimit="4"/><path stroke-linecap="butt" transform="matrix(0.748891, 0, 0, 0.748891, 66.33599, 316.511805)" fill="none" stroke-linejoin="miter" d="M -0.0000706999 0.500626 L 1018.939568 0.500626 " stroke="#776c68" stroke-width="1" stroke-opacity="1" stroke-miterlimit="4"/><path stroke-linecap="butt" transform="matrix(0.748891, 0, 0, 0.748891, 66.33599, 549.959228)" fill="none" stroke-linejoin="miter" d="M -0.0000706999 0.497807 L 1018.939568 0.497807 " stroke="#776c68" stroke-width="1" stroke-opacity="1" stroke-miterlimit="4"/><path stroke-linecap="butt" transform="matrix(0.748891, 0, 0, 0.748891, 66.33599, 170.606989)" fill="none" stroke-linejoin="miter" d="M -0.0000706999 0.49871 L 1018.939568 0.49871 " stroke="#776c68" stroke-width="1" stroke-opacity="1" stroke-miterlimit="4"/><path stroke-linecap="butt" transform="matrix(0.748891, 0, 0, 0.748891, 66.33599, 404.054413)" fill="none" stroke-linejoin="miter" d="M -0.0000706999 0.501107 L 1018.939568 0.501107 " stroke="#776c68" stroke-width="1" stroke-opacity="1" stroke-miterlimit="4"/><path stroke-linecap="butt" transform="matrix(0.748891, 0, 0, 0.748891, 66.33599, 287.330818)" fill="none" stroke-linejoin="miter" d="M -0.0000706999 0.502361 L 1018.939568 0.502361 " stroke="#776c68" stroke-width="1" stroke-opacity="1" stroke-miterlimit="4"/><path stroke-linecap="butt" transform="matrix(0.748891, 0, 0, 0.748891, 66.33599, 520.778237)" fill="none" stroke-linejoin="miter" d="M -0.0000706999 0.499549 L 1018.939568 0.499549 " stroke="#776c68" stroke-width="1" stroke-opacity="1" stroke-miterlimit="4"/><path stroke-linecap="butt" transform="matrix(0.748891, 0, 0, 0.748891, 66.33599, 637.501964)" fill="none" stroke-linejoin="miter" d="M -0.0000706999 0.498118 L 1018.939568 0.498118 " stroke="#776c68" stroke-width="1" stroke-opacity="1" stroke-miterlimit="4"/><path stroke-linecap="butt" transform="matrix(0.748891, 0, 0, 0.748891, 66.33599, 228.968846)" fill="none" stroke-linejoin="miter" d="M -0.0000706999 0.500613 L 1018.939568 0.500613 " stroke="#776c68" stroke-width="1" stroke-opacity="1" stroke-miterlimit="4"/><path stroke-linecap="butt" transform="matrix(0.748891, 0, 0, 0.748891, 66.33599, 462.416277)" fill="none" stroke-linejoin="miter" d="M -0.0000706999 0.497784 L 1018.939568 0.497784 " stroke="#776c68" stroke-width="1" stroke-opacity="1" stroke-miterlimit="4"/><path stroke-linecap="butt" transform="matrix(0.748891, 0, 0, 0.748891, 66.33599, 345.692674)" fill="none" stroke-linejoin="miter" d="M -0.0000706999 0.499048 L 1018.939568 0.499048 " stroke="#776c68" stroke-width="1" stroke-opacity="1" stroke-miterlimit="4"/><path stroke-linecap="butt" transform="matrix(0.748891, 0, 0, 0.748891, 66.33599, 579.1401)" fill="none" stroke-linejoin="miter" d="M -0.0000706999 0.501442 L 1018.939568 0.501442 " stroke="#776c68" stroke-width="1" stroke-opacity="1" stroke-miterlimit="4"/><path stroke-linecap="butt" transform="matrix(0.748891, 0, 0, 0.748891, 66.33599, 53.105132)" fill="none" stroke-linejoin="miter" d="M -0.0000706999 0.50119 L 1024.619845 0.50119 " stroke="#776c68" stroke-width="1" stroke-opacity="1" stroke-miterlimit="4"/></svg>