<svg xmlns="http://www.w3.org/2000/svg" xmlns:xlink="http://www.w3.org/1999/xlink" width="600" zoomAndPan="magnify" viewBox="0 0 450 112.499997" height="150" preserveAspectRatio="xMidYMid meet" version="1.0"><defs><g/></defs><g fill="#000000" fill-opacity="1"><g transform="translate(6.826429, 77.83414)"><g><path d="M 48.671875 -56.234375 C 49.367188 -56.234375 49.914062 -56.015625 50.3125 -55.578125 C 50.71875 -55.148438 50.921875 -54.617188 50.921875 -53.984375 L 50.921875 -2.578125 C 50.921875 -1.765625 50.664062 -1.128906 50.15625 -0.671875 C 49.65625 -0.222656 49.082031 0 48.4375 0 C 48.113281 0 47.765625 -0.0664062 47.390625 -0.203125 C 47.015625 -0.335938 46.722656 -0.535156 46.515625 -0.796875 L 10.6875 -49.078125 L 12.046875 -49.796875 L 12.046875 -2.171875 C 12.046875 -1.578125 11.832031 -1.066406 11.40625 -0.640625 C 10.976562 -0.210938 10.441406 0 9.796875 0 C 9.097656 0 8.546875 -0.210938 8.140625 -0.640625 C 7.742188 -1.066406 7.546875 -1.578125 7.546875 -2.171875 L 7.546875 -53.8125 C 7.546875 -54.625 7.785156 -55.226562 8.265625 -55.625 C 8.753906 -56.03125 9.289062 -56.234375 9.875 -56.234375 C 10.195312 -56.234375 10.546875 -56.164062 10.921875 -56.03125 C 11.296875 -55.894531 11.59375 -55.664062 11.8125 -55.34375 L 47.234375 -7.625 L 46.4375 -6.1875 L 46.4375 -53.984375 C 46.4375 -54.617188 46.660156 -55.148438 47.109375 -55.578125 C 47.566406 -56.015625 48.085938 -56.234375 48.671875 -56.234375 Z M 48.671875 -56.234375 "/></g></g></g><g fill="#000000" fill-opacity="1"><g transform="translate(65.304137, 77.83414)"><g><path d="M 57.671875 -28.109375 C 57.671875 -23.878906 57.015625 -20.007812 55.703125 -16.5 C 54.390625 -13 52.53125 -9.945312 50.125 -7.34375 C 47.71875 -4.75 44.863281 -2.742188 41.5625 -1.328125 C 38.269531 0.0859375 34.671875 0.796875 30.765625 0.796875 C 26.859375 0.796875 23.253906 0.0859375 19.953125 -1.328125 C 16.660156 -2.742188 13.8125 -4.75 11.40625 -7.34375 C 9 -9.945312 7.140625 -13 5.828125 -16.5 C 4.515625 -20.007812 3.859375 -23.878906 3.859375 -28.109375 C 3.859375 -32.335938 4.515625 -36.207031 5.828125 -39.71875 C 7.140625 -43.226562 9 -46.28125 11.40625 -48.875 C 13.8125 -51.476562 16.660156 -53.488281 19.953125 -54.90625 C 23.253906 -56.320312 26.859375 -57.03125 30.765625 -57.03125 C 34.671875 -57.03125 38.269531 -56.320312 41.5625 -54.90625 C 44.863281 -53.488281 47.71875 -51.476562 50.125 -48.875 C 52.53125 -46.28125 54.390625 -43.226562 55.703125 -39.71875 C 57.015625 -36.207031 57.671875 -32.335938 57.671875 -28.109375 Z M 52.53125 -28.109375 C 52.53125 -32.878906 51.601562 -37.070312 49.75 -40.6875 C 47.90625 -44.300781 45.347656 -47.125 42.078125 -49.15625 C 38.816406 -51.195312 35.046875 -52.21875 30.765625 -52.21875 C 26.535156 -52.21875 22.773438 -51.195312 19.484375 -49.15625 C 16.191406 -47.125 13.617188 -44.300781 11.765625 -40.6875 C 9.921875 -37.070312 9 -32.878906 9 -28.109375 C 9 -23.347656 9.921875 -19.160156 11.765625 -15.546875 C 13.617188 -11.929688 16.191406 -9.101562 19.484375 -7.0625 C 22.773438 -5.03125 26.535156 -4.015625 30.765625 -4.015625 C 35.046875 -4.015625 38.816406 -5.03125 42.078125 -7.0625 C 45.347656 -9.101562 47.90625 -11.929688 49.75 -15.546875 C 51.601562 -19.160156 52.53125 -23.347656 52.53125 -28.109375 Z M 52.53125 -28.109375 "/></g></g></g><g fill="#000000" fill-opacity="1"><g transform="translate(125.950567, 77.83414)"><g><path d="M 48.203125 -56.3125 C 48.953125 -56.3125 49.550781 -56.097656 50 -55.671875 C 50.457031 -55.242188 50.6875 -54.707031 50.6875 -54.0625 C 50.6875 -53.6875 50.609375 -53.285156 50.453125 -52.859375 L 29 -1.609375 C 28.726562 -1.066406 28.378906 -0.660156 27.953125 -0.390625 C 27.523438 -0.128906 27.097656 0 26.671875 0 C 26.191406 0 25.734375 -0.128906 25.296875 -0.390625 C 24.867188 -0.660156 24.578125 -1.039062 24.421875 -1.53125 L 3.046875 -52.703125 C 2.992188 -52.859375 2.941406 -53.039062 2.890625 -53.25 C 2.835938 -53.46875 2.8125 -53.710938 2.8125 -53.984375 C 2.8125 -54.679688 3.066406 -55.242188 3.578125 -55.671875 C 4.085938 -56.097656 4.609375 -56.3125 5.140625 -56.3125 C 6.265625 -56.3125 7.066406 -55.722656 7.546875 -54.546875 L 27.640625 -6.5 L 26.1875 -6.5 L 45.953125 -54.703125 C 46.484375 -55.773438 47.234375 -56.3125 48.203125 -56.3125 Z M 48.203125 -56.3125 "/></g></g></g><g fill="#000000" fill-opacity="1"><g transform="translate(179.367702, 77.83414)"><g><path d="M 9.953125 -56.234375 L 39.4375 -56.234375 C 40.082031 -56.234375 40.644531 -56.003906 41.125 -55.546875 C 41.601562 -55.085938 41.84375 -54.507812 41.84375 -53.8125 C 41.84375 -53.125 41.601562 -52.5625 41.125 -52.125 C 40.644531 -51.695312 40.082031 -51.484375 39.4375 -51.484375 L 11.8125 -51.484375 L 12.609375 -52.859375 L 12.609375 -30.28125 L 11.734375 -31.328125 L 35.828125 -31.328125 C 36.472656 -31.328125 37.035156 -31.082031 37.515625 -30.59375 C 37.992188 -30.113281 38.234375 -29.554688 38.234375 -28.921875 C 38.234375 -28.222656 37.992188 -27.660156 37.515625 -27.234375 C 37.035156 -26.804688 36.472656 -26.59375 35.828125 -26.59375 L 11.890625 -26.59375 L 12.609375 -27.390625 L 12.609375 -4.25 L 12.203125 -4.734375 L 39.4375 -4.734375 C 40.082031 -4.734375 40.644531 -4.492188 41.125 -4.015625 C 41.601562 -3.535156 41.84375 -2.972656 41.84375 -2.328125 C 41.84375 -1.628906 41.601562 -1.066406 41.125 -0.640625 C 40.644531 -0.210938 40.082031 0 39.4375 0 L 9.953125 0 C 9.316406 0 8.753906 -0.238281 8.265625 -0.71875 C 7.785156 -1.207031 7.546875 -1.769531 7.546875 -2.40625 L 7.546875 -53.8125 C 7.546875 -54.457031 7.785156 -55.019531 8.265625 -55.5 C 8.753906 -55.988281 9.316406 -56.234375 9.953125 -56.234375 Z M 9.953125 -56.234375 "/></g></g></g><g fill="#000000" fill-opacity="1"><g transform="translate(224.99315, 77.83414)"><g><path d="M 9.953125 -56.234375 C 10.328125 -56.234375 10.71875 -56.148438 11.125 -55.984375 C 11.53125 -55.828125 11.863281 -55.5625 12.125 -55.1875 L 34.296875 -21.921875 L 32.125 -22.015625 L 54.375 -55.1875 C 54.96875 -55.988281 55.691406 -56.335938 56.546875 -56.234375 C 57.191406 -56.234375 57.738281 -56.003906 58.1875 -55.546875 C 58.644531 -55.085938 58.875 -54.507812 58.875 -53.8125 L 58.875 -2.40625 C 58.875 -1.769531 58.632812 -1.207031 58.15625 -0.71875 C 57.675781 -0.238281 57.085938 0 56.390625 0 C 55.640625 0 55.019531 -0.238281 54.53125 -0.71875 C 54.050781 -1.207031 53.8125 -1.769531 53.8125 -2.40625 L 53.8125 -48.921875 L 55.265625 -48.765625 L 34.9375 -18 C 34.78125 -17.675781 34.539062 -17.421875 34.21875 -17.234375 C 33.894531 -17.046875 33.519531 -16.976562 33.09375 -17.03125 C 32.71875 -16.976562 32.351562 -17.046875 32 -17.234375 C 31.65625 -17.421875 31.378906 -17.675781 31.171875 -18 L 10.765625 -49.078125 L 12.296875 -50.125 L 12.296875 -2.40625 C 12.296875 -1.769531 12.066406 -1.207031 11.609375 -0.71875 C 11.148438 -0.238281 10.570312 0 9.875 0 C 9.1875 0 8.625 -0.238281 8.1875 -0.71875 C 7.757812 -1.207031 7.546875 -1.769531 7.546875 -2.40625 L 7.546875 -53.8125 C 7.546875 -54.457031 7.773438 -55.019531 8.234375 -55.5 C 8.691406 -55.988281 9.265625 -56.234375 9.953125 -56.234375 Z M 9.953125 -56.234375 "/></g></g></g><g fill="#000000" fill-opacity="1"><g transform="translate(291.423182, 77.83414)"><g><path d="M 31.25 -56.234375 C 35.75 -56.234375 39.269531 -55.015625 41.8125 -52.578125 C 44.351562 -50.140625 45.625 -46.75 45.625 -42.40625 C 45.625 -40.164062 45.140625 -38.023438 44.171875 -35.984375 C 43.210938 -33.953125 41.796875 -32.304688 39.921875 -31.046875 C 38.046875 -29.785156 35.71875 -29.078125 32.9375 -28.921875 L 32.609375 -30.53125 C 34.585938 -30.53125 36.523438 -30.25 38.421875 -29.6875 C 40.328125 -29.125 42.03125 -28.222656 43.53125 -26.984375 C 45.03125 -25.753906 46.234375 -24.210938 47.140625 -22.359375 C 48.054688 -20.515625 48.515625 -18.28125 48.515625 -15.65625 C 48.515625 -12.875 48.046875 -10.476562 47.109375 -8.46875 C 46.171875 -6.46875 44.910156 -4.847656 43.328125 -3.609375 C 41.753906 -2.378906 39.945312 -1.46875 37.90625 -0.875 C 35.875 -0.289062 33.757812 0 31.5625 0 L 9.953125 0 C 9.316406 0 8.753906 -0.238281 8.265625 -0.71875 C 7.785156 -1.207031 7.546875 -1.769531 7.546875 -2.40625 L 7.546875 -53.8125 C 7.546875 -54.457031 7.785156 -55.019531 8.265625 -55.5 C 8.753906 -55.988281 9.316406 -56.234375 9.953125 -56.234375 Z M 30.609375 -51.484375 L 11.734375 -51.484375 L 12.6875 -52.9375 L 12.6875 -30.203125 L 11.8125 -31.40625 L 30.609375 -31.40625 C 33.390625 -31.457031 35.726562 -32.367188 37.625 -34.140625 C 39.53125 -35.910156 40.484375 -38.535156 40.484375 -42.015625 C 40.484375 -44.960938 39.625 -47.273438 37.90625 -48.953125 C 36.195312 -50.640625 33.765625 -51.484375 30.609375 -51.484375 Z M 31.171875 -26.59375 L 12.296875 -26.59375 L 12.6875 -27.078125 L 12.6875 -4.015625 L 12.203125 -4.734375 L 31.328125 -4.734375 C 34.753906 -4.734375 37.617188 -5.601562 39.921875 -7.34375 C 42.222656 -9.082031 43.375 -11.851562 43.375 -15.65625 C 43.375 -18.34375 42.8125 -20.488281 41.6875 -22.09375 C 40.5625 -23.695312 39.0625 -24.847656 37.1875 -25.546875 C 35.3125 -26.242188 33.304688 -26.59375 31.171875 -26.59375 Z M 31.171875 -26.59375 "/></g></g></g><g fill="#000000" fill-opacity="1"><g transform="translate(343.71576, 77.83414)"><g><path d="M 9.953125 -56.234375 L 39.4375 -56.234375 C 40.082031 -56.234375 40.644531 -56.003906 41.125 -55.546875 C 41.601562 -55.085938 41.84375 -54.507812 41.84375 -53.8125 C 41.84375 -53.125 41.601562 -52.5625 41.125 -52.125 C 40.644531 -51.695312 40.082031 -51.484375 39.4375 -51.484375 L 11.8125 -51.484375 L 12.609375 -52.859375 L 12.609375 -30.28125 L 11.734375 -31.328125 L 35.828125 -31.328125 C 36.472656 -31.328125 37.035156 -31.082031 37.515625 -30.59375 C 37.992188 -30.113281 38.234375 -29.554688 38.234375 -28.921875 C 38.234375 -28.222656 37.992188 -27.660156 37.515625 -27.234375 C 37.035156 -26.804688 36.472656 -26.59375 35.828125 -26.59375 L 11.890625 -26.59375 L 12.609375 -27.390625 L 12.609375 -4.25 L 12.203125 -4.734375 L 39.4375 -4.734375 C 40.082031 -4.734375 40.644531 -4.492188 41.125 -4.015625 C 41.601562 -3.535156 41.84375 -2.972656 41.84375 -2.328125 C 41.84375 -1.628906 41.601562 -1.066406 41.125 -0.640625 C 40.644531 -0.210938 40.082031 0 39.4375 0 L 9.953125 0 C 9.316406 0 8.753906 -0.238281 8.265625 -0.71875 C 7.785156 -1.207031 7.546875 -1.769531 7.546875 -2.40625 L 7.546875 -53.8125 C 7.546875 -54.457031 7.785156 -55.019531 8.265625 -55.5 C 8.753906 -55.988281 9.316406 -56.234375 9.953125 -56.234375 Z M 9.953125 -56.234375 "/></g></g></g><g fill="#000000" fill-opacity="1"><g transform="translate(389.341209, 77.83414)"><g><path d="M 10.28125 0 C 9.476562 0 8.820312 -0.238281 8.3125 -0.71875 C 7.800781 -1.207031 7.546875 -1.769531 7.546875 -2.40625 L 7.546875 -53.8125 C 7.546875 -54.457031 7.785156 -55.019531 8.265625 -55.5 C 8.753906 -55.988281 9.316406 -56.234375 9.953125 -56.234375 L 31.65625 -56.234375 C 34.707031 -56.234375 37.4375 -55.578125 39.84375 -54.265625 C 42.25 -52.953125 44.132812 -51.144531 45.5 -48.84375 C 46.863281 -46.539062 47.546875 -43.941406 47.546875 -41.046875 C 47.546875 -38.691406 47.117188 -36.519531 46.265625 -34.53125 C 45.410156 -32.550781 44.207031 -30.878906 42.65625 -29.515625 C 41.101562 -28.148438 39.363281 -27.148438 37.4375 -26.515625 L 34.625 -27.390625 C 36.601562 -27.234375 38.445312 -26.601562 40.15625 -25.5 C 41.875 -24.40625 43.253906 -22.90625 44.296875 -21 C 45.347656 -19.101562 45.898438 -16.816406 45.953125 -14.140625 C 46.003906 -11.835938 46.125 -10.039062 46.3125 -8.75 C 46.5 -7.46875 46.78125 -6.503906 47.15625 -5.859375 C 47.53125 -5.222656 48.007812 -4.71875 48.59375 -4.34375 C 49.132812 -4.019531 49.5 -3.5625 49.6875 -2.96875 C 49.875 -2.382812 49.804688 -1.820312 49.484375 -1.28125 C 49.265625 -0.851562 48.953125 -0.546875 48.546875 -0.359375 C 48.148438 -0.171875 47.738281 -0.078125 47.3125 -0.078125 C 46.882812 -0.078125 46.457031 -0.1875 46.03125 -0.40625 C 45.28125 -0.832031 44.515625 -1.5 43.734375 -2.40625 C 42.960938 -3.320312 42.320312 -4.660156 41.8125 -6.421875 C 41.300781 -8.191406 41.046875 -10.65625 41.046875 -13.8125 C 41.046875 -15.90625 40.710938 -17.617188 40.046875 -18.953125 C 39.378906 -20.296875 38.519531 -21.328125 37.46875 -22.046875 C 36.425781 -22.773438 35.273438 -23.285156 34.015625 -23.578125 C 32.753906 -23.867188 31.5625 -24.015625 30.4375 -24.015625 L 11.734375 -24.015625 L 12.609375 -25.140625 L 12.609375 -2.40625 C 12.609375 -1.769531 12.394531 -1.207031 11.96875 -0.71875 C 11.539062 -0.238281 10.976562 0 10.28125 0 Z M 11.734375 -28.4375 L 31.890625 -28.4375 C 33.710938 -28.59375 35.425781 -29.191406 37.03125 -30.234375 C 38.632812 -31.285156 39.929688 -32.71875 40.921875 -34.53125 C 41.910156 -36.351562 42.40625 -38.472656 42.40625 -40.890625 C 42.40625 -43.941406 41.375 -46.46875 39.3125 -48.46875 C 37.257812 -50.476562 34.570312 -51.484375 31.25 -51.484375 L 12.046875 -51.484375 L 12.609375 -52.609375 L 12.609375 -27.3125 Z M 11.734375 -28.4375 "/></g></g></g></svg>