<svg xmlns="http://www.w3.org/2000/svg" xmlns:xlink="http://www.w3.org/1999/xlink" width="1176" zoomAndPan="magnify" viewBox="0 0 882 749.999995" height="1000" preserveAspectRatio="xMidYMid meet" version="1.0"><defs><g/><clipPath id="2b5edf394b"><path d="M 757 1.011719 L 764 1.011719 L 764 23 L 757 23 Z M 757 1.011719 " clip-rule="nonzero"/></clipPath><clipPath id="71f0750bf7"><rect x="0" width="7" y="0" height="22"/></clipPath><clipPath id="686501c4d2"><rect x="0" width="10" y="0" height="21"/></clipPath><clipPath id="87fbcd9c2f"><rect x="0" width="10" y="0" height="21"/></clipPath><clipPath id="f973f34662"><path d="M 0.160156 5 L 9 5 L 9 17 L 0.160156 17 Z M 0.160156 5 " clip-rule="nonzero"/></clipPath><clipPath id="57969b5ca8"><rect x="0" width="10" y="0" height="21"/></clipPath><clipPath id="0a0b9754ea"><rect x="0" width="11" y="0" height="21"/></clipPath><clipPath id="a648bf9bcc"><rect x="0" width="11" y="0" height="21"/></clipPath><clipPath id="8d39e8a283"><rect x="0" width="10" y="0" height="21"/></clipPath><clipPath id="b0a7b5b527"><rect x="0" width="10" y="0" height="21"/></clipPath><clipPath id="b14639bfad"><rect x="0" width="10" y="0" height="21"/></clipPath><clipPath id="e1e077f29c"><path d="M 0.160156 5 L 5 5 L 5 17 L 0.160156 17 Z M 0.160156 5 " clip-rule="nonzero"/></clipPath><clipPath id="bd808354b8"><rect x="0" width="17" y="0" height="21"/></clipPath><clipPath id="19ddaa4c06"><path d="M 0.160156 5 L 5 5 L 5 17 L 0.160156 17 Z M 0.160156 5 " clip-rule="nonzero"/></clipPath><clipPath id="4ae59b16e6"><rect x="0" width="13" y="0" height="21"/></clipPath><clipPath id="c619ba85a2"><rect x="0" width="17" y="0" height="21"/></clipPath><clipPath id="9ba8001825"><rect x="0" width="16" y="0" height="21"/></clipPath><clipPath id="2b0548db6a"><rect x="0" width="16" y="0" height="21"/></clipPath><clipPath id="8b3bf6c73e"><rect x="0" width="17" y="0" height="21"/></clipPath><clipPath id="4f8ff5228e"><path d="M 2 450.40625 L 18 450.40625 L 18 472 L 2 472 Z M 2 450.40625 " clip-rule="nonzero"/></clipPath><clipPath id="552e74db95"><path d="M 0.398438 6 L 5 6 L 5 18 L 0.398438 18 Z M 0.398438 6 " clip-rule="nonzero"/></clipPath><clipPath id="920010fa5b"><rect x="0" width="16" y="0" height="22"/></clipPath><clipPath id="9e44465eb4"><path d="M 128 450.40625 L 144 450.40625 L 144 472 L 128 472 Z M 128 450.40625 " clip-rule="nonzero"/></clipPath><clipPath id="9446be5b98"><path d="M 0.160156 6 L 5 6 L 5 18 L 0.160156 18 Z M 0.160156 6 " clip-rule="nonzero"/></clipPath><clipPath id="686e892882"><rect x="0" width="16" y="0" height="22"/></clipPath><clipPath id="a05b0a6405"><path d="M 254 450.40625 L 270 450.40625 L 270 472 L 254 472 Z M 254 450.40625 " clip-rule="nonzero"/></clipPath><clipPath id="035e7d61f8"><path d="M 0.160156 6 L 5 6 L 5 18 L 0.160156 18 Z M 0.160156 6 " clip-rule="nonzero"/></clipPath><clipPath id="e45064ff13"><rect x="0" width="16" y="0" height="22"/></clipPath><clipPath id="4fae7b8d32"><path d="M 379 450.40625 L 396 450.40625 L 396 472 L 379 472 Z M 379 450.40625 " clip-rule="nonzero"/></clipPath><clipPath id="ca246076b8"><rect x="0" width="17" y="0" height="22"/></clipPath><clipPath id="bd7eb55967"><path d="M 505 450.40625 L 525 450.40625 L 525 472 L 505 472 Z M 505 450.40625 " clip-rule="nonzero"/></clipPath><clipPath id="ecbf8654ef"><rect x="0" width="20" y="0" height="22"/></clipPath><clipPath id="7e454aa59e"><path d="M 631 450.40625 L 648 450.40625 L 648 472 L 631 472 Z M 631 450.40625 " clip-rule="nonzero"/></clipPath><clipPath id="df6a528b6d"><rect x="0" width="17" y="0" height="22"/></clipPath><clipPath id="70e9857346"><path d="M 757 450.40625 L 776 450.40625 L 776 472 L 757 472 Z M 757 450.40625 " clip-rule="nonzero"/></clipPath><clipPath id="ecd23a1ef4"><rect x="0" width="19" y="0" height="22"/></clipPath><clipPath id="1e0472e72a"><path d="M 2 600.203125 L 21 600.203125 L 21 622 L 2 622 Z M 2 600.203125 " clip-rule="nonzero"/></clipPath><clipPath id="59154b709a"><rect x="0" width="19" y="0" height="22"/></clipPath><clipPath id="94f10a265c"><path d="M 128 600.203125 L 147 600.203125 L 147 622 L 128 622 Z M 128 600.203125 " clip-rule="nonzero"/></clipPath><clipPath id="37b1ec3126"><rect x="0" width="19" y="0" height="22"/></clipPath><clipPath id="8e8ef4247d"><path d="M 254 600.203125 L 273 600.203125 L 273 622 L 254 622 Z M 254 600.203125 " clip-rule="nonzero"/></clipPath><clipPath id="f36d46653f"><rect x="0" width="19" y="0" height="22"/></clipPath><clipPath id="dde28d4ce7"><path d="M 379 600.203125 L 398 600.203125 L 398 622 L 379 622 Z M 379 600.203125 " clip-rule="nonzero"/></clipPath><clipPath id="4ac7736fff"><path d="M 10 5 L 18.921875 5 L 18.921875 18 L 10 18 Z M 10 5 " clip-rule="nonzero"/></clipPath><clipPath id="0501fd6b23"><rect x="0" width="19" y="0" height="22"/></clipPath><clipPath id="43daebb848"><path d="M 505 600.203125 L 524 600.203125 L 524 622 L 505 622 Z M 505 600.203125 " clip-rule="nonzero"/></clipPath><clipPath id="3c5c38cb5b"><rect x="0" width="19" y="0" height="22"/></clipPath><clipPath id="6e7224e068"><path d="M 631 600.203125 L 650 600.203125 L 650 622 L 631 622 Z M 631 600.203125 " clip-rule="nonzero"/></clipPath><clipPath id="dcddaa9df3"><rect x="0" width="19" y="0" height="22"/></clipPath><clipPath id="7dfacfe91a"><path d="M 757 600.203125 L 776 600.203125 L 776 622 L 757 622 Z M 757 600.203125 " clip-rule="nonzero"/></clipPath><clipPath id="20b5ad89a4"><rect x="0" width="19" y="0" height="22"/></clipPath><clipPath id="dfa1493340"><path d="M 0.0234375 0 L 881.96875 0 L 881.96875 750 L 0.0234375 750 Z M 0.0234375 0 " clip-rule="nonzero"/></clipPath><clipPath id="2421b92ec3"><path d="M 0 593 L 131 593 L 131 750 L 0 750 Z M 0 593 " clip-rule="nonzero"/></clipPath><clipPath id="b4aa065d51"><rect x="0" width="882" y="0" height="750"/></clipPath></defs><g transform="matrix(1, 0, 0, 1, 0, -0.000000000000042435)"><g clip-path="url(#b4aa065d51)"><g clip-path="url(#2b5edf394b)"><g transform="matrix(1, 0, 0, 1, 757, 1)"><g clip-path="url(#71f0750bf7)"><g fill="#201f1f" fill-opacity="1"><g transform="translate(0.615923, 16.97767)"><g><path d="M 3.625 0 C 3.476562 0 3.351562 -0.046875 3.25 -0.140625 C 3.15625 -0.242188 3.109375 -0.359375 3.109375 -0.484375 L 3.109375 -10.15625 L 3.296875 -9.984375 L 1.15625 -8.5625 C 1.070312 -8.5 0.984375 -8.46875 0.890625 -8.46875 C 0.753906 -8.46875 0.632812 -8.519531 0.53125 -8.625 C 0.4375 -8.726562 0.390625 -8.847656 0.390625 -8.984375 C 0.390625 -9.148438 0.472656 -9.28125 0.640625 -9.375 L 3.328125 -11.15625 C 3.390625 -11.207031 3.453125 -11.238281 3.515625 -11.25 C 3.585938 -11.257812 3.648438 -11.257812 3.703125 -11.25 C 3.847656 -11.238281 3.957031 -11.1875 4.03125 -11.09375 C 4.101562 -11 4.140625 -10.890625 4.140625 -10.765625 L 4.140625 -0.484375 C 4.140625 -0.359375 4.09375 -0.242188 4 -0.140625 C 3.90625 -0.046875 3.78125 0 3.625 0 Z M 3.625 0 "/></g></g></g></g></g></g><g transform="matrix(1, 0, 0, 1, 2, 151)"><g clip-path="url(#686501c4d2)"><g fill="#201f1f" fill-opacity="1"><g transform="translate(0.536172, 16.775104)"><g><path d="M 7.609375 -0.9375 C 7.742188 -0.9375 7.851562 -0.890625 7.9375 -0.796875 C 8.03125 -0.703125 8.078125 -0.59375 8.078125 -0.46875 C 8.078125 -0.320312 8.03125 -0.207031 7.9375 -0.125 C 7.851562 -0.0390625 7.742188 0 7.609375 0 L 1.59375 0 C 1.445312 0 1.320312 -0.0351562 1.21875 -0.109375 C 1.125 -0.191406 1.078125 -0.316406 1.078125 -0.484375 C 1.078125 -0.597656 1.117188 -0.707031 1.203125 -0.8125 L 4.921875 -4.921875 C 5.503906 -5.554688 5.941406 -6.144531 6.234375 -6.6875 C 6.535156 -7.226562 6.6875 -7.710938 6.6875 -8.140625 C 6.6875 -8.847656 6.46875 -9.414062 6.03125 -9.84375 C 5.601562 -10.269531 5.03125 -10.484375 4.3125 -10.484375 C 3.976562 -10.484375 3.644531 -10.414062 3.3125 -10.28125 C 2.988281 -10.144531 2.703125 -9.960938 2.453125 -9.734375 C 2.203125 -9.503906 2.003906 -9.25 1.859375 -8.96875 C 1.796875 -8.851562 1.726562 -8.773438 1.65625 -8.734375 C 1.59375 -8.691406 1.515625 -8.671875 1.421875 -8.671875 C 1.296875 -8.671875 1.1875 -8.710938 1.09375 -8.796875 C 1 -8.878906 0.953125 -8.976562 0.953125 -9.09375 C 0.953125 -9.164062 0.96875 -9.238281 1 -9.3125 C 1.039062 -9.382812 1.097656 -9.472656 1.171875 -9.578125 C 1.367188 -9.910156 1.632812 -10.210938 1.96875 -10.484375 C 2.3125 -10.765625 2.695312 -10.988281 3.125 -11.15625 C 3.550781 -11.320312 3.96875 -11.40625 4.375 -11.40625 C 5.050781 -11.40625 5.640625 -11.273438 6.140625 -11.015625 C 6.640625 -10.753906 7.023438 -10.382812 7.296875 -9.90625 C 7.566406 -9.425781 7.703125 -8.859375 7.703125 -8.203125 C 7.703125 -7.648438 7.53125 -7.039062 7.1875 -6.375 C 6.84375 -5.71875 6.328125 -5.007812 5.640625 -4.25 L 2.5 -0.734375 L 2.34375 -0.9375 Z M 7.609375 -0.9375 "/></g></g></g></g></g><g transform="matrix(1, 0, 0, 1, 128, 151)"><g clip-path="url(#87fbcd9c2f)"><g fill="#201f1f" fill-opacity="1"><g transform="translate(0.3828, 16.775104)"><g><path d="M 1.421875 -1.65625 C 1.484375 -1.65625 1.539062 -1.644531 1.59375 -1.625 C 1.65625 -1.601562 1.726562 -1.554688 1.8125 -1.484375 C 2.039062 -1.242188 2.304688 -1.0625 2.609375 -0.9375 C 2.921875 -0.8125 3.273438 -0.75 3.671875 -0.75 C 4.203125 -0.75 4.679688 -0.867188 5.109375 -1.109375 C 5.546875 -1.347656 5.890625 -1.675781 6.140625 -2.09375 C 6.398438 -2.519531 6.53125 -3.003906 6.53125 -3.546875 C 6.53125 -4.171875 6.394531 -4.671875 6.125 -5.046875 C 5.851562 -5.429688 5.503906 -5.71875 5.078125 -5.90625 C 4.660156 -6.09375 4.234375 -6.1875 3.796875 -6.1875 C 3.671875 -6.1875 3.550781 -6.175781 3.4375 -6.15625 C 3.332031 -6.144531 3.226562 -6.128906 3.125 -6.109375 C 3.03125 -6.085938 2.957031 -6.078125 2.90625 -6.078125 C 2.769531 -6.078125 2.660156 -6.117188 2.578125 -6.203125 C 2.503906 -6.296875 2.46875 -6.410156 2.46875 -6.546875 C 2.46875 -6.628906 2.484375 -6.695312 2.515625 -6.75 C 2.546875 -6.8125 2.59375 -6.878906 2.65625 -6.953125 L 5.90625 -10.5 L 6.109375 -10.25 L 1.234375 -10.25 C 1.109375 -10.25 1 -10.289062 0.90625 -10.375 C 0.8125 -10.46875 0.765625 -10.582031 0.765625 -10.71875 C 0.765625 -10.84375 0.8125 -10.945312 0.90625 -11.03125 C 1 -11.113281 1.109375 -11.15625 1.234375 -11.15625 L 6.640625 -11.15625 C 6.816406 -11.15625 6.941406 -11.097656 7.015625 -10.984375 C 7.085938 -10.878906 7.125 -10.773438 7.125 -10.671875 C 7.125 -10.597656 7.109375 -10.53125 7.078125 -10.46875 C 7.046875 -10.414062 7.003906 -10.359375 6.953125 -10.296875 L 3.6875 -6.75 L 3.34375 -6.953125 C 3.375 -6.984375 3.484375 -7.015625 3.671875 -7.046875 C 3.859375 -7.085938 4.003906 -7.109375 4.109375 -7.109375 C 4.703125 -7.109375 5.253906 -6.96875 5.765625 -6.6875 C 6.285156 -6.414062 6.707031 -6.019531 7.03125 -5.5 C 7.363281 -4.976562 7.53125 -4.335938 7.53125 -3.578125 C 7.53125 -2.828125 7.351562 -2.171875 7 -1.609375 C 6.644531 -1.046875 6.164062 -0.609375 5.5625 -0.296875 C 4.96875 0.00390625 4.304688 0.15625 3.578125 0.15625 C 3.140625 0.15625 2.707031 0.0820312 2.28125 -0.0625 C 1.851562 -0.21875 1.476562 -0.441406 1.15625 -0.734375 C 1.082031 -0.796875 1.03125 -0.859375 1 -0.921875 C 0.96875 -0.992188 0.953125 -1.0625 0.953125 -1.125 C 0.953125 -1.25 0.992188 -1.367188 1.078125 -1.484375 C 1.171875 -1.597656 1.285156 -1.65625 1.421875 -1.65625 Z M 1.421875 -1.65625 "/></g></g></g></g></g><g transform="matrix(1, 0, 0, 1, 254, 151)"><g clip-path="url(#57969b5ca8)"><g clip-path="url(#f973f34662)"><g fill="#201f1f" fill-opacity="1"><g transform="translate(0.229483, 16.775104)"><g><path d="M 5.890625 0 C 5.753906 0 5.640625 -0.046875 5.546875 -0.140625 C 5.460938 -0.242188 5.421875 -0.359375 5.421875 -0.484375 L 5.421875 -9.90625 L 5.640625 -9.78125 L 1.40625 -4.1875 L 1.359375 -4.375 L 7.53125 -4.375 C 7.65625 -4.375 7.765625 -4.328125 7.859375 -4.234375 C 7.953125 -4.148438 8 -4.046875 8 -3.921875 C 8 -3.785156 7.953125 -3.675781 7.859375 -3.59375 C 7.765625 -3.507812 7.65625 -3.46875 7.53125 -3.46875 L 0.703125 -3.46875 C 0.578125 -3.46875 0.460938 -3.519531 0.359375 -3.625 C 0.265625 -3.726562 0.21875 -3.84375 0.21875 -3.96875 C 0.21875 -4.082031 0.257812 -4.1875 0.34375 -4.28125 L 5.515625 -11.046875 C 5.566406 -11.117188 5.628906 -11.171875 5.703125 -11.203125 C 5.785156 -11.234375 5.851562 -11.25 5.90625 -11.25 C 6.050781 -11.25 6.164062 -11.195312 6.25 -11.09375 C 6.34375 -11 6.390625 -10.890625 6.390625 -10.765625 L 6.390625 -0.484375 C 6.390625 -0.359375 6.34375 -0.242188 6.25 -0.140625 C 6.15625 -0.046875 6.035156 0 5.890625 0 Z M 5.890625 0 "/></g></g></g></g></g></g><g transform="matrix(1, 0, 0, 1, 379, 151)"><g clip-path="url(#0a0b9754ea)"><g fill="#201f1f" fill-opacity="1"><g transform="translate(1.076078, 16.775104)"><g><path d="M 3.765625 0.03125 C 3.316406 0.03125 2.867188 -0.0390625 2.421875 -0.1875 C 1.984375 -0.332031 1.59375 -0.546875 1.25 -0.828125 C 1.1875 -0.890625 1.132812 -0.957031 1.09375 -1.03125 C 1.0625 -1.101562 1.046875 -1.175781 1.046875 -1.25 C 1.046875 -1.351562 1.085938 -1.457031 1.171875 -1.5625 C 1.253906 -1.664062 1.367188 -1.71875 1.515625 -1.71875 C 1.628906 -1.71875 1.742188 -1.671875 1.859375 -1.578125 C 2.140625 -1.359375 2.441406 -1.191406 2.765625 -1.078125 C 3.097656 -0.960938 3.429688 -0.90625 3.765625 -0.90625 C 4.390625 -0.90625 4.9375 -1.023438 5.40625 -1.265625 C 5.882812 -1.503906 6.25 -1.84375 6.5 -2.28125 C 6.757812 -2.726562 6.890625 -3.25 6.890625 -3.84375 C 6.890625 -4.382812 6.769531 -4.851562 6.53125 -5.25 C 6.300781 -5.65625 5.96875 -5.972656 5.53125 -6.203125 C 5.101562 -6.429688 4.59375 -6.546875 4 -6.546875 C 3.613281 -6.546875 3.257812 -6.488281 2.9375 -6.375 C 2.625 -6.257812 2.351562 -6.140625 2.125 -6.015625 C 1.894531 -5.890625 1.710938 -5.828125 1.578125 -5.828125 C 1.441406 -5.828125 1.332031 -5.859375 1.25 -5.921875 C 1.175781 -5.984375 1.125 -6.0625 1.09375 -6.15625 C 1.070312 -6.257812 1.070312 -6.363281 1.09375 -6.46875 L 1.78125 -10.765625 C 1.789062 -10.859375 1.84375 -10.941406 1.9375 -11.015625 C 2.03125 -11.097656 2.144531 -11.140625 2.28125 -11.140625 L 7.109375 -11.140625 C 7.242188 -11.140625 7.351562 -11.09375 7.4375 -11 C 7.53125 -10.914062 7.578125 -10.8125 7.578125 -10.6875 C 7.578125 -10.539062 7.53125 -10.421875 7.4375 -10.328125 C 7.351562 -10.242188 7.242188 -10.203125 7.109375 -10.203125 L 2.5 -10.203125 L 2.65625 -10.34375 L 1.984375 -6.53125 L 1.703125 -6.75 C 1.835938 -6.851562 2.035156 -6.957031 2.296875 -7.0625 C 2.566406 -7.175781 2.863281 -7.269531 3.1875 -7.34375 C 3.507812 -7.425781 3.851562 -7.46875 4.21875 -7.46875 C 4.914062 -7.46875 5.535156 -7.3125 6.078125 -7 C 6.628906 -6.695312 7.0625 -6.273438 7.375 -5.734375 C 7.695312 -5.203125 7.859375 -4.582031 7.859375 -3.875 C 7.859375 -3.09375 7.6875 -2.410156 7.34375 -1.828125 C 7.007812 -1.242188 6.535156 -0.785156 5.921875 -0.453125 C 5.316406 -0.128906 4.597656 0.03125 3.765625 0.03125 Z M 3.765625 0.03125 "/></g></g></g></g></g><g transform="matrix(1, 0, 0, 1, 505, 151)"><g clip-path="url(#a648bf9bcc)"><g fill="#201f1f" fill-opacity="1"><g transform="translate(0.922674, 16.775104)"><g><path d="M 4.609375 0.15625 C 3.984375 0.15625 3.4375 0.046875 2.96875 -0.171875 C 2.507812 -0.398438 2.125 -0.703125 1.8125 -1.078125 C 1.507812 -1.460938 1.285156 -1.894531 1.140625 -2.375 C 1.003906 -2.851562 0.9375 -3.347656 0.9375 -3.859375 C 0.9375 -4.367188 1 -4.921875 1.125 -5.515625 C 1.25 -6.109375 1.445312 -6.707031 1.71875 -7.3125 C 1.988281 -7.925781 2.316406 -8.503906 2.703125 -9.046875 C 3.097656 -9.597656 3.550781 -10.085938 4.0625 -10.515625 C 4.582031 -10.953125 5.171875 -11.296875 5.828125 -11.546875 C 5.898438 -11.566406 5.960938 -11.578125 6.015625 -11.578125 C 6.160156 -11.578125 6.28125 -11.539062 6.375 -11.46875 C 6.476562 -11.394531 6.53125 -11.265625 6.53125 -11.078125 C 6.53125 -10.972656 6.492188 -10.878906 6.421875 -10.796875 C 6.359375 -10.722656 6.269531 -10.664062 6.15625 -10.625 C 5.707031 -10.425781 5.257812 -10.148438 4.8125 -9.796875 C 4.375 -9.441406 3.96875 -9.035156 3.59375 -8.578125 C 3.21875 -8.117188 2.898438 -7.625 2.640625 -7.09375 C 2.378906 -6.5625 2.195312 -6.023438 2.09375 -5.484375 L 1.734375 -5.265625 C 1.929688 -5.617188 2.179688 -5.929688 2.484375 -6.203125 C 2.785156 -6.484375 3.132812 -6.703125 3.53125 -6.859375 C 3.925781 -7.023438 4.351562 -7.109375 4.8125 -7.109375 C 5.300781 -7.109375 5.75 -7.003906 6.15625 -6.796875 C 6.5625 -6.597656 6.910156 -6.328125 7.203125 -5.984375 C 7.492188 -5.640625 7.722656 -5.242188 7.890625 -4.796875 C 8.054688 -4.359375 8.140625 -3.90625 8.140625 -3.4375 C 8.140625 -2.800781 7.988281 -2.207031 7.6875 -1.65625 C 7.382812 -1.113281 6.96875 -0.675781 6.4375 -0.34375 C 5.90625 -0.0078125 5.296875 0.15625 4.609375 0.15625 Z M 4.59375 -0.765625 C 5.082031 -0.765625 5.519531 -0.878906 5.90625 -1.109375 C 6.289062 -1.335938 6.59375 -1.648438 6.8125 -2.046875 C 7.03125 -2.453125 7.140625 -2.914062 7.140625 -3.4375 C 7.140625 -3.914062 7.046875 -4.359375 6.859375 -4.765625 C 6.671875 -5.179688 6.394531 -5.519531 6.03125 -5.78125 C 5.664062 -6.050781 5.207031 -6.1875 4.65625 -6.1875 C 4.09375 -6.1875 3.601562 -6.054688 3.1875 -5.796875 C 2.769531 -5.535156 2.453125 -5.191406 2.234375 -4.765625 C 2.015625 -4.347656 1.90625 -3.890625 1.90625 -3.390625 C 1.90625 -2.941406 2.007812 -2.515625 2.21875 -2.109375 C 2.4375 -1.710938 2.75 -1.390625 3.15625 -1.140625 C 3.5625 -0.890625 4.039062 -0.765625 4.59375 -0.765625 Z M 4.59375 -0.765625 "/></g></g></g></g></g><g transform="matrix(1, 0, 0, 1, 631, 151)"><g clip-path="url(#8d39e8a283)"><g fill="#201f1f" fill-opacity="1"><g transform="translate(0.769386, 16.775104)"><g><path d="M 2.859375 0.046875 C 2.734375 0.046875 2.613281 0.00390625 2.5 -0.078125 C 2.394531 -0.160156 2.34375 -0.269531 2.34375 -0.40625 C 2.34375 -0.476562 2.359375 -0.554688 2.390625 -0.640625 L 6.671875 -10.453125 L 6.84375 -10.234375 L 1.40625 -10.234375 C 1.28125 -10.234375 1.171875 -10.273438 1.078125 -10.359375 C 0.992188 -10.453125 0.953125 -10.566406 0.953125 -10.703125 C 0.953125 -10.835938 0.992188 -10.945312 1.078125 -11.03125 C 1.171875 -11.113281 1.28125 -11.15625 1.40625 -11.15625 L 7.3125 -11.15625 C 7.46875 -11.15625 7.582031 -11.113281 7.65625 -11.03125 C 7.738281 -10.945312 7.78125 -10.84375 7.78125 -10.71875 C 7.78125 -10.625 7.757812 -10.539062 7.71875 -10.46875 L 3.3125 -0.265625 C 3.28125 -0.171875 3.21875 -0.09375 3.125 -0.03125 C 3.039062 0.0195312 2.953125 0.046875 2.859375 0.046875 Z M 2.859375 0.046875 "/></g></g></g></g></g><g transform="matrix(1, 0, 0, 1, 757, 151)"><g clip-path="url(#b0a7b5b527)"><g fill="#201f1f" fill-opacity="1"><g transform="translate(0.615923, 16.775104)"><g><path d="M 5.84375 -5.65625 L 5.796875 -5.796875 C 6.160156 -5.660156 6.492188 -5.453125 6.796875 -5.171875 C 7.097656 -4.898438 7.335938 -4.578125 7.515625 -4.203125 C 7.703125 -3.835938 7.796875 -3.4375 7.796875 -3 C 7.796875 -2.425781 7.640625 -1.898438 7.328125 -1.421875 C 7.023438 -0.953125 6.609375 -0.578125 6.078125 -0.296875 C 5.554688 -0.0234375 4.976562 0.109375 4.34375 0.109375 C 3.6875 0.109375 3.097656 -0.0234375 2.578125 -0.296875 C 2.054688 -0.578125 1.644531 -0.953125 1.34375 -1.421875 C 1.039062 -1.898438 0.890625 -2.425781 0.890625 -3 C 0.890625 -3.46875 0.984375 -3.882812 1.171875 -4.25 C 1.359375 -4.625 1.601562 -4.941406 1.90625 -5.203125 C 2.207031 -5.460938 2.523438 -5.660156 2.859375 -5.796875 L 2.8125 -5.640625 C 2.519531 -5.773438 2.25 -5.960938 2 -6.203125 C 1.75 -6.441406 1.539062 -6.726562 1.375 -7.0625 C 1.21875 -7.40625 1.140625 -7.78125 1.140625 -8.1875 C 1.140625 -8.769531 1.28125 -9.289062 1.5625 -9.75 C 1.84375 -10.207031 2.226562 -10.570312 2.71875 -10.84375 C 3.207031 -11.113281 3.75 -11.25 4.34375 -11.25 C 4.925781 -11.25 5.457031 -11.113281 5.9375 -10.84375 C 6.414062 -10.570312 6.796875 -10.207031 7.078125 -9.75 C 7.359375 -9.289062 7.5 -8.769531 7.5 -8.1875 C 7.5 -7.769531 7.414062 -7.394531 7.25 -7.0625 C 7.09375 -6.726562 6.882812 -6.441406 6.625 -6.203125 C 6.375 -5.960938 6.113281 -5.78125 5.84375 -5.65625 Z M 2.140625 -8.1875 C 2.140625 -7.757812 2.238281 -7.382812 2.4375 -7.0625 C 2.644531 -6.738281 2.914062 -6.488281 3.25 -6.3125 C 3.582031 -6.132812 3.945312 -6.046875 4.34375 -6.046875 C 4.726562 -6.046875 5.082031 -6.132812 5.40625 -6.3125 C 5.738281 -6.488281 6.003906 -6.738281 6.203125 -7.0625 C 6.398438 -7.382812 6.5 -7.757812 6.5 -8.1875 C 6.5 -8.820312 6.296875 -9.335938 5.890625 -9.734375 C 5.484375 -10.128906 4.96875 -10.328125 4.34375 -10.328125 C 3.6875 -10.328125 3.15625 -10.128906 2.75 -9.734375 C 2.34375 -9.335938 2.140625 -8.820312 2.140625 -8.1875 Z M 4.34375 -0.796875 C 5.0625 -0.796875 5.648438 -1.003906 6.109375 -1.421875 C 6.566406 -1.847656 6.796875 -2.375 6.796875 -3 C 6.796875 -3.425781 6.679688 -3.8125 6.453125 -4.15625 C 6.234375 -4.5 5.9375 -4.765625 5.5625 -4.953125 C 5.1875 -5.148438 4.78125 -5.25 4.34375 -5.25 C 3.894531 -5.25 3.484375 -5.148438 3.109375 -4.953125 C 2.734375 -4.765625 2.429688 -4.5 2.203125 -4.15625 C 1.984375 -3.8125 1.875 -3.425781 1.875 -3 C 1.875 -2.375 2.097656 -1.847656 2.546875 -1.421875 C 3.003906 -1.003906 3.601562 -0.796875 4.34375 -0.796875 Z M 4.34375 -0.796875 "/></g></g></g></g></g><g transform="matrix(1, 0, 0, 1, 2, 301)"><g clip-path="url(#b14639bfad)"><g fill="#201f1f" fill-opacity="1"><g transform="translate(0.536172, 16.572538)"><g><path d="M 4.453125 -11.421875 C 5.078125 -11.421875 5.625 -11.304688 6.09375 -11.078125 C 6.5625 -10.859375 6.941406 -10.554688 7.234375 -10.171875 C 7.535156 -9.796875 7.757812 -9.363281 7.90625 -8.875 C 8.0625 -8.394531 8.140625 -7.90625 8.140625 -7.40625 C 8.140625 -6.894531 8.070312 -6.347656 7.9375 -5.765625 C 7.800781 -5.179688 7.601562 -4.585938 7.34375 -3.984375 C 7.082031 -3.390625 6.753906 -2.828125 6.359375 -2.296875 C 5.972656 -1.765625 5.515625 -1.28125 4.984375 -0.84375 C 4.460938 -0.414062 3.882812 -0.0859375 3.25 0.140625 C 3.15625 0.160156 3.082031 0.171875 3.03125 0.171875 C 2.90625 0.171875 2.789062 0.125 2.6875 0.03125 C 2.582031 -0.0507812 2.53125 -0.171875 2.53125 -0.328125 C 2.53125 -0.429688 2.5625 -0.519531 2.625 -0.59375 C 2.695312 -0.675781 2.796875 -0.738281 2.921875 -0.78125 C 3.535156 -1.039062 4.125 -1.425781 4.6875 -1.9375 C 5.257812 -2.445312 5.75 -3.035156 6.15625 -3.703125 C 6.570312 -4.367188 6.847656 -5.0625 6.984375 -5.78125 L 7.328125 -5.984375 C 7.140625 -5.648438 6.890625 -5.34375 6.578125 -5.0625 C 6.273438 -4.78125 5.925781 -4.5625 5.53125 -4.40625 C 5.144531 -4.25 4.71875 -4.171875 4.25 -4.171875 C 3.570312 -4.171875 2.984375 -4.335938 2.484375 -4.671875 C 1.984375 -5.015625 1.597656 -5.460938 1.328125 -6.015625 C 1.066406 -6.578125 0.9375 -7.179688 0.9375 -7.828125 C 0.9375 -8.453125 1.085938 -9.035156 1.390625 -9.578125 C 1.691406 -10.128906 2.109375 -10.570312 2.640625 -10.90625 C 3.171875 -11.25 3.773438 -11.421875 4.453125 -11.421875 Z M 4.484375 -10.484375 C 3.972656 -10.484375 3.523438 -10.367188 3.140625 -10.140625 C 2.753906 -9.921875 2.453125 -9.609375 2.234375 -9.203125 C 2.015625 -8.804688 1.90625 -8.347656 1.90625 -7.828125 C 1.90625 -7.347656 2 -6.898438 2.1875 -6.484375 C 2.375 -6.066406 2.65625 -5.734375 3.03125 -5.484375 C 3.40625 -5.234375 3.863281 -5.109375 4.40625 -5.109375 C 4.976562 -5.109375 5.46875 -5.234375 5.875 -5.484375 C 6.28125 -5.734375 6.59375 -6.066406 6.8125 -6.484375 C 7.039062 -6.898438 7.15625 -7.363281 7.15625 -7.875 C 7.15625 -8.332031 7.046875 -8.757812 6.828125 -9.15625 C 6.617188 -9.550781 6.316406 -9.867188 5.921875 -10.109375 C 5.523438 -10.359375 5.046875 -10.484375 4.484375 -10.484375 Z M 4.484375 -10.484375 "/></g></g></g></g></g><g transform="matrix(1, 0, 0, 1, 128, 301)"><g clip-path="url(#bd808354b8)"><g clip-path="url(#e1e077f29c)"><g fill="#201f1f" fill-opacity="1"><g transform="translate(0.3828, 16.572538)"><g><path d="M 3.625 0 C 3.476562 0 3.351562 -0.046875 3.25 -0.140625 C 3.15625 -0.242188 3.109375 -0.359375 3.109375 -0.484375 L 3.109375 -10.15625 L 3.296875 -9.984375 L 1.15625 -8.5625 C 1.070312 -8.5 0.984375 -8.46875 0.890625 -8.46875 C 0.753906 -8.46875 0.632812 -8.519531 0.53125 -8.625 C 0.4375 -8.726562 0.390625 -8.847656 0.390625 -8.984375 C 0.390625 -9.148438 0.472656 -9.28125 0.640625 -9.375 L 3.328125 -11.15625 C 3.390625 -11.207031 3.453125 -11.238281 3.515625 -11.25 C 3.585938 -11.257812 3.648438 -11.257812 3.703125 -11.25 C 3.847656 -11.238281 3.957031 -11.1875 4.03125 -11.09375 C 4.101562 -11 4.140625 -10.890625 4.140625 -10.765625 L 4.140625 -0.484375 C 4.140625 -0.359375 4.09375 -0.242188 4 -0.140625 C 3.90625 -0.046875 3.78125 0 3.625 0 Z M 3.625 0 "/></g></g></g></g><g fill="#201f1f" fill-opacity="1"><g transform="translate(6.325934, 16.572538)"><g><path d="M 4.765625 0.15625 C 3.910156 0.15625 3.191406 -0.0976562 2.609375 -0.609375 C 2.035156 -1.117188 1.601562 -1.8125 1.3125 -2.6875 C 1.03125 -3.5625 0.890625 -4.539062 0.890625 -5.625 C 0.890625 -6.71875 1.03125 -7.695312 1.3125 -8.5625 C 1.601562 -9.4375 2.035156 -10.128906 2.609375 -10.640625 C 3.191406 -11.148438 3.910156 -11.40625 4.765625 -11.40625 C 5.648438 -11.40625 6.378906 -11.148438 6.953125 -10.640625 C 7.523438 -10.128906 7.953125 -9.4375 8.234375 -8.5625 C 8.523438 -7.695312 8.671875 -6.71875 8.671875 -5.625 C 8.671875 -4.539062 8.523438 -3.5625 8.234375 -2.6875 C 7.953125 -1.8125 7.523438 -1.117188 6.953125 -0.609375 C 6.378906 -0.0976562 5.648438 0.15625 4.765625 0.15625 Z M 4.765625 -0.828125 C 5.398438 -0.828125 5.925781 -1.023438 6.34375 -1.421875 C 6.769531 -1.828125 7.09375 -2.390625 7.3125 -3.109375 C 7.53125 -3.828125 7.640625 -4.664062 7.640625 -5.625 C 7.640625 -6.582031 7.53125 -7.421875 7.3125 -8.140625 C 7.09375 -8.867188 6.769531 -9.429688 6.34375 -9.828125 C 5.925781 -10.222656 5.398438 -10.421875 4.765625 -10.421875 C 4.148438 -10.421875 3.628906 -10.222656 3.203125 -9.828125 C 2.773438 -9.429688 2.453125 -8.867188 2.234375 -8.140625 C 2.015625 -7.421875 1.90625 -6.582031 1.90625 -5.625 C 1.90625 -4.664062 2.015625 -3.828125 2.234375 -3.109375 C 2.453125 -2.390625 2.773438 -1.828125 3.203125 -1.421875 C 3.628906 -1.023438 4.148438 -0.828125 4.765625 -0.828125 Z M 4.765625 -0.828125 "/></g></g></g></g></g><g transform="matrix(1, 0, 0, 1, 254, 301)"><g clip-path="url(#4ae59b16e6)"><g clip-path="url(#19ddaa4c06)"><g fill="#201f1f" fill-opacity="1"><g transform="translate(0.229483, 16.572538)"><g><path d="M 3.625 0 C 3.476562 0 3.351562 -0.046875 3.25 -0.140625 C 3.15625 -0.242188 3.109375 -0.359375 3.109375 -0.484375 L 3.109375 -10.15625 L 3.296875 -9.984375 L 1.15625 -8.5625 C 1.070312 -8.5 0.984375 -8.46875 0.890625 -8.46875 C 0.753906 -8.46875 0.632812 -8.519531 0.53125 -8.625 C 0.4375 -8.726562 0.390625 -8.847656 0.390625 -8.984375 C 0.390625 -9.148438 0.472656 -9.28125 0.640625 -9.375 L 3.328125 -11.15625 C 3.390625 -11.207031 3.453125 -11.238281 3.515625 -11.25 C 3.585938 -11.257812 3.648438 -11.257812 3.703125 -11.25 C 3.847656 -11.238281 3.957031 -11.1875 4.03125 -11.09375 C 4.101562 -11 4.140625 -10.890625 4.140625 -10.765625 L 4.140625 -0.484375 C 4.140625 -0.359375 4.09375 -0.242188 4 -0.140625 C 3.90625 -0.046875 3.78125 0 3.625 0 Z M 3.625 0 "/></g></g></g></g><g fill="#201f1f" fill-opacity="1"><g transform="translate(6.172617, 16.572538)"><g><path d="M 3.625 0 C 3.476562 0 3.351562 -0.046875 3.25 -0.140625 C 3.15625 -0.242188 3.109375 -0.359375 3.109375 -0.484375 L 3.109375 -10.15625 L 3.296875 -9.984375 L 1.15625 -8.5625 C 1.070312 -8.5 0.984375 -8.46875 0.890625 -8.46875 C 0.753906 -8.46875 0.632812 -8.519531 0.53125 -8.625 C 0.4375 -8.726562 0.390625 -8.847656 0.390625 -8.984375 C 0.390625 -9.148438 0.472656 -9.28125 0.640625 -9.375 L 3.328125 -11.15625 C 3.390625 -11.207031 3.453125 -11.238281 3.515625 -11.25 C 3.585938 -11.257812 3.648438 -11.257812 3.703125 -11.25 C 3.847656 -11.238281 3.957031 -11.1875 4.03125 -11.09375 C 4.101562 -11 4.140625 -10.890625 4.140625 -10.765625 L 4.140625 -0.484375 C 4.140625 -0.359375 4.09375 -0.242188 4 -0.140625 C 3.90625 -0.046875 3.78125 0 3.625 0 Z M 3.625 0 "/></g></g></g></g></g><g transform="matrix(1, 0, 0, 1, 379, 301)"><g clip-path="url(#c619ba85a2)"><g fill="#201f1f" fill-opacity="1"><g transform="translate(1.076078, 16.572538)"><g><path d="M 3.625 0 C 3.476562 0 3.351562 -0.046875 3.25 -0.140625 C 3.15625 -0.242188 3.109375 -0.359375 3.109375 -0.484375 L 3.109375 -10.15625 L 3.296875 -9.984375 L 1.15625 -8.5625 C 1.070312 -8.5 0.984375 -8.46875 0.890625 -8.46875 C 0.753906 -8.46875 0.632812 -8.519531 0.53125 -8.625 C 0.4375 -8.726562 0.390625 -8.847656 0.390625 -8.984375 C 0.390625 -9.148438 0.472656 -9.28125 0.640625 -9.375 L 3.328125 -11.15625 C 3.390625 -11.207031 3.453125 -11.238281 3.515625 -11.25 C 3.585938 -11.257812 3.648438 -11.257812 3.703125 -11.25 C 3.847656 -11.238281 3.957031 -11.1875 4.03125 -11.09375 C 4.101562 -11 4.140625 -10.890625 4.140625 -10.765625 L 4.140625 -0.484375 C 4.140625 -0.359375 4.09375 -0.242188 4 -0.140625 C 3.90625 -0.046875 3.78125 0 3.625 0 Z M 3.625 0 "/></g></g></g><g fill="#201f1f" fill-opacity="1"><g transform="translate(7.019213, 16.572538)"><g><path d="M 7.609375 -0.9375 C 7.742188 -0.9375 7.851562 -0.890625 7.9375 -0.796875 C 8.03125 -0.703125 8.078125 -0.59375 8.078125 -0.46875 C 8.078125 -0.320312 8.03125 -0.207031 7.9375 -0.125 C 7.851562 -0.0390625 7.742188 0 7.609375 0 L 1.59375 0 C 1.445312 0 1.320312 -0.0351562 1.21875 -0.109375 C 1.125 -0.191406 1.078125 -0.316406 1.078125 -0.484375 C 1.078125 -0.597656 1.117188 -0.707031 1.203125 -0.8125 L 4.921875 -4.921875 C 5.503906 -5.554688 5.941406 -6.144531 6.234375 -6.6875 C 6.535156 -7.226562 6.6875 -7.710938 6.6875 -8.140625 C 6.6875 -8.847656 6.46875 -9.414062 6.03125 -9.84375 C 5.601562 -10.269531 5.03125 -10.484375 4.3125 -10.484375 C 3.976562 -10.484375 3.644531 -10.414062 3.3125 -10.28125 C 2.988281 -10.144531 2.703125 -9.960938 2.453125 -9.734375 C 2.203125 -9.503906 2.003906 -9.25 1.859375 -8.96875 C 1.796875 -8.851562 1.726562 -8.773438 1.65625 -8.734375 C 1.59375 -8.691406 1.515625 -8.671875 1.421875 -8.671875 C 1.296875 -8.671875 1.1875 -8.710938 1.09375 -8.796875 C 1 -8.878906 0.953125 -8.976562 0.953125 -9.09375 C 0.953125 -9.164062 0.96875 -9.238281 1 -9.3125 C 1.039062 -9.382812 1.097656 -9.472656 1.171875 -9.578125 C 1.367188 -9.910156 1.632812 -10.210938 1.96875 -10.484375 C 2.3125 -10.765625 2.695312 -10.988281 3.125 -11.15625 C 3.550781 -11.320312 3.96875 -11.40625 4.375 -11.40625 C 5.050781 -11.40625 5.640625 -11.273438 6.140625 -11.015625 C 6.640625 -10.753906 7.023438 -10.382812 7.296875 -9.90625 C 7.566406 -9.425781 7.703125 -8.859375 7.703125 -8.203125 C 7.703125 -7.648438 7.53125 -7.039062 7.1875 -6.375 C 6.84375 -5.71875 6.328125 -5.007812 5.640625 -4.25 L 2.5 -0.734375 L 2.34375 -0.9375 Z M 7.609375 -0.9375 "/></g></g></g></g></g><g transform="matrix(1, 0, 0, 1, 505, 301)"><g clip-path="url(#9ba8001825)"><g fill="#201f1f" fill-opacity="1"><g transform="translate(0.922674, 16.572538)"><g><path d="M 3.625 0 C 3.476562 0 3.351562 -0.046875 3.25 -0.140625 C 3.15625 -0.242188 3.109375 -0.359375 3.109375 -0.484375 L 3.109375 -10.15625 L 3.296875 -9.984375 L 1.15625 -8.5625 C 1.070312 -8.5 0.984375 -8.46875 0.890625 -8.46875 C 0.753906 -8.46875 0.632812 -8.519531 0.53125 -8.625 C 0.4375 -8.726562 0.390625 -8.847656 0.390625 -8.984375 C 0.390625 -9.148438 0.472656 -9.28125 0.640625 -9.375 L 3.328125 -11.15625 C 3.390625 -11.207031 3.453125 -11.238281 3.515625 -11.25 C 3.585938 -11.257812 3.648438 -11.257812 3.703125 -11.25 C 3.847656 -11.238281 3.957031 -11.1875 4.03125 -11.09375 C 4.101562 -11 4.140625 -10.890625 4.140625 -10.765625 L 4.140625 -0.484375 C 4.140625 -0.359375 4.09375 -0.242188 4 -0.140625 C 3.90625 -0.046875 3.78125 0 3.625 0 Z M 3.625 0 "/></g></g></g><g fill="#201f1f" fill-opacity="1"><g transform="translate(6.865808, 16.572538)"><g><path d="M 1.421875 -1.65625 C 1.484375 -1.65625 1.539062 -1.644531 1.59375 -1.625 C 1.65625 -1.601562 1.726562 -1.554688 1.8125 -1.484375 C 2.039062 -1.242188 2.304688 -1.0625 2.609375 -0.9375 C 2.921875 -0.8125 3.273438 -0.75 3.671875 -0.75 C 4.203125 -0.75 4.679688 -0.867188 5.109375 -1.109375 C 5.546875 -1.347656 5.890625 -1.675781 6.140625 -2.09375 C 6.398438 -2.519531 6.53125 -3.003906 6.53125 -3.546875 C 6.53125 -4.171875 6.394531 -4.671875 6.125 -5.046875 C 5.851562 -5.429688 5.503906 -5.71875 5.078125 -5.90625 C 4.660156 -6.09375 4.234375 -6.1875 3.796875 -6.1875 C 3.671875 -6.1875 3.550781 -6.175781 3.4375 -6.15625 C 3.332031 -6.144531 3.226562 -6.128906 3.125 -6.109375 C 3.03125 -6.085938 2.957031 -6.078125 2.90625 -6.078125 C 2.769531 -6.078125 2.660156 -6.117188 2.578125 -6.203125 C 2.503906 -6.296875 2.46875 -6.410156 2.46875 -6.546875 C 2.46875 -6.628906 2.484375 -6.695312 2.515625 -6.75 C 2.546875 -6.8125 2.59375 -6.878906 2.65625 -6.953125 L 5.90625 -10.5 L 6.109375 -10.25 L 1.234375 -10.25 C 1.109375 -10.25 1 -10.289062 0.90625 -10.375 C 0.8125 -10.46875 0.765625 -10.582031 0.765625 -10.71875 C 0.765625 -10.84375 0.8125 -10.945312 0.90625 -11.03125 C 1 -11.113281 1.109375 -11.15625 1.234375 -11.15625 L 6.640625 -11.15625 C 6.816406 -11.15625 6.941406 -11.097656 7.015625 -10.984375 C 7.085938 -10.878906 7.125 -10.773438 7.125 -10.671875 C 7.125 -10.597656 7.109375 -10.53125 7.078125 -10.46875 C 7.046875 -10.414062 7.003906 -10.359375 6.953125 -10.296875 L 3.6875 -6.75 L 3.34375 -6.953125 C 3.375 -6.984375 3.484375 -7.015625 3.671875 -7.046875 C 3.859375 -7.085938 4.003906 -7.109375 4.109375 -7.109375 C 4.703125 -7.109375 5.253906 -6.96875 5.765625 -6.6875 C 6.285156 -6.414062 6.707031 -6.019531 7.03125 -5.5 C 7.363281 -4.976562 7.53125 -4.335938 7.53125 -3.578125 C 7.53125 -2.828125 7.351562 -2.171875 7 -1.609375 C 6.644531 -1.046875 6.164062 -0.609375 5.5625 -0.296875 C 4.96875 0.00390625 4.304688 0.15625 3.578125 0.15625 C 3.140625 0.15625 2.707031 0.0820312 2.28125 -0.0625 C 1.851562 -0.21875 1.476562 -0.441406 1.15625 -0.734375 C 1.082031 -0.796875 1.03125 -0.859375 1 -0.921875 C 0.96875 -0.992188 0.953125 -1.0625 0.953125 -1.125 C 0.953125 -1.25 0.992188 -1.367188 1.078125 -1.484375 C 1.171875 -1.597656 1.285156 -1.65625 1.421875 -1.65625 Z M 1.421875 -1.65625 "/></g></g></g></g></g><g transform="matrix(1, 0, 0, 1, 631, 301)"><g clip-path="url(#2b0548db6a)"><g fill="#201f1f" fill-opacity="1"><g transform="translate(0.769386, 16.572538)"><g><path d="M 3.625 0 C 3.476562 0 3.351562 -0.046875 3.25 -0.140625 C 3.15625 -0.242188 3.109375 -0.359375 3.109375 -0.484375 L 3.109375 -10.15625 L 3.296875 -9.984375 L 1.15625 -8.5625 C 1.070312 -8.5 0.984375 -8.46875 0.890625 -8.46875 C 0.753906 -8.46875 0.632812 -8.519531 0.53125 -8.625 C 0.4375 -8.726562 0.390625 -8.847656 0.390625 -8.984375 C 0.390625 -9.148438 0.472656 -9.28125 0.640625 -9.375 L 3.328125 -11.15625 C 3.390625 -11.207031 3.453125 -11.238281 3.515625 -11.25 C 3.585938 -11.257812 3.648438 -11.257812 3.703125 -11.25 C 3.847656 -11.238281 3.957031 -11.1875 4.03125 -11.09375 C 4.101562 -11 4.140625 -10.890625 4.140625 -10.765625 L 4.140625 -0.484375 C 4.140625 -0.359375 4.09375 -0.242188 4 -0.140625 C 3.90625 -0.046875 3.78125 0 3.625 0 Z M 3.625 0 "/></g></g></g><g fill="#201f1f" fill-opacity="1"><g transform="translate(6.712521, 16.572538)"><g><path d="M 5.890625 0 C 5.753906 0 5.640625 -0.046875 5.546875 -0.140625 C 5.460938 -0.242188 5.421875 -0.359375 5.421875 -0.484375 L 5.421875 -9.90625 L 5.640625 -9.78125 L 1.40625 -4.1875 L 1.359375 -4.375 L 7.53125 -4.375 C 7.65625 -4.375 7.765625 -4.328125 7.859375 -4.234375 C 7.953125 -4.148438 8 -4.046875 8 -3.921875 C 8 -3.785156 7.953125 -3.675781 7.859375 -3.59375 C 7.765625 -3.507812 7.65625 -3.46875 7.53125 -3.46875 L 0.703125 -3.46875 C 0.578125 -3.46875 0.460938 -3.519531 0.359375 -3.625 C 0.265625 -3.726562 0.21875 -3.84375 0.21875 -3.96875 C 0.21875 -4.082031 0.257812 -4.1875 0.34375 -4.28125 L 5.515625 -11.046875 C 5.566406 -11.117188 5.628906 -11.171875 5.703125 -11.203125 C 5.785156 -11.234375 5.851562 -11.25 5.90625 -11.25 C 6.050781 -11.25 6.164062 -11.195312 6.25 -11.09375 C 6.34375 -11 6.390625 -10.890625 6.390625 -10.765625 L 6.390625 -0.484375 C 6.390625 -0.359375 6.34375 -0.242188 6.25 -0.140625 C 6.15625 -0.046875 6.035156 0 5.890625 0 Z M 5.890625 0 "/></g></g></g></g></g><g transform="matrix(1, 0, 0, 1, 757, 301)"><g clip-path="url(#8b3bf6c73e)"><g fill="#201f1f" fill-opacity="1"><g transform="translate(0.615923, 16.572538)"><g><path d="M 3.625 0 C 3.476562 0 3.351562 -0.046875 3.25 -0.140625 C 3.15625 -0.242188 3.109375 -0.359375 3.109375 -0.484375 L 3.109375 -10.15625 L 3.296875 -9.984375 L 1.15625 -8.5625 C 1.070312 -8.5 0.984375 -8.46875 0.890625 -8.46875 C 0.753906 -8.46875 0.632812 -8.519531 0.53125 -8.625 C 0.4375 -8.726562 0.390625 -8.847656 0.390625 -8.984375 C 0.390625 -9.148438 0.472656 -9.28125 0.640625 -9.375 L 3.328125 -11.15625 C 3.390625 -11.207031 3.453125 -11.238281 3.515625 -11.25 C 3.585938 -11.257812 3.648438 -11.257812 3.703125 -11.25 C 3.847656 -11.238281 3.957031 -11.1875 4.03125 -11.09375 C 4.101562 -11 4.140625 -10.890625 4.140625 -10.765625 L 4.140625 -0.484375 C 4.140625 -0.359375 4.09375 -0.242188 4 -0.140625 C 3.90625 -0.046875 3.78125 0 3.625 0 Z M 3.625 0 "/></g></g></g><g fill="#201f1f" fill-opacity="1"><g transform="translate(6.559057, 16.572538)"><g><path d="M 3.765625 0.03125 C 3.316406 0.03125 2.867188 -0.0390625 2.421875 -0.1875 C 1.984375 -0.332031 1.59375 -0.546875 1.25 -0.828125 C 1.1875 -0.890625 1.132812 -0.957031 1.09375 -1.03125 C 1.0625 -1.101562 1.046875 -1.175781 1.046875 -1.25 C 1.046875 -1.351562 1.085938 -1.457031 1.171875 -1.5625 C 1.253906 -1.664062 1.367188 -1.71875 1.515625 -1.71875 C 1.628906 -1.71875 1.742188 -1.671875 1.859375 -1.578125 C 2.140625 -1.359375 2.441406 -1.191406 2.765625 -1.078125 C 3.097656 -0.960938 3.429688 -0.90625 3.765625 -0.90625 C 4.390625 -0.90625 4.9375 -1.023438 5.40625 -1.265625 C 5.882812 -1.503906 6.25 -1.84375 6.5 -2.28125 C 6.757812 -2.726562 6.890625 -3.25 6.890625 -3.84375 C 6.890625 -4.382812 6.769531 -4.851562 6.53125 -5.25 C 6.300781 -5.65625 5.96875 -5.972656 5.53125 -6.203125 C 5.101562 -6.429688 4.59375 -6.546875 4 -6.546875 C 3.613281 -6.546875 3.257812 -6.488281 2.9375 -6.375 C 2.625 -6.257812 2.351562 -6.140625 2.125 -6.015625 C 1.894531 -5.890625 1.710938 -5.828125 1.578125 -5.828125 C 1.441406 -5.828125 1.332031 -5.859375 1.25 -5.921875 C 1.175781 -5.984375 1.125 -6.0625 1.09375 -6.15625 C 1.070312 -6.257812 1.070312 -6.363281 1.09375 -6.46875 L 1.78125 -10.765625 C 1.789062 -10.859375 1.84375 -10.941406 1.9375 -11.015625 C 2.03125 -11.097656 2.144531 -11.140625 2.28125 -11.140625 L 7.109375 -11.140625 C 7.242188 -11.140625 7.351562 -11.09375 7.4375 -11 C 7.53125 -10.914062 7.578125 -10.8125 7.578125 -10.6875 C 7.578125 -10.539062 7.53125 -10.421875 7.4375 -10.328125 C 7.351562 -10.242188 7.242188 -10.203125 7.109375 -10.203125 L 2.5 -10.203125 L 2.65625 -10.34375 L 1.984375 -6.53125 L 1.703125 -6.75 C 1.835938 -6.851562 2.035156 -6.957031 2.296875 -7.0625 C 2.566406 -7.175781 2.863281 -7.269531 3.1875 -7.34375 C 3.507812 -7.425781 3.851562 -7.46875 4.21875 -7.46875 C 4.914062 -7.46875 5.535156 -7.3125 6.078125 -7 C 6.628906 -6.695312 7.0625 -6.273438 7.375 -5.734375 C 7.695312 -5.203125 7.859375 -4.582031 7.859375 -3.875 C 7.859375 -3.09375 7.6875 -2.410156 7.34375 -1.828125 C 7.007812 -1.242188 6.535156 -0.785156 5.921875 -0.453125 C 5.316406 -0.128906 4.597656 0.03125 3.765625 0.03125 Z M 3.765625 0.03125 "/></g></g></g></g></g><g clip-path="url(#4f8ff5228e)"><g transform="matrix(1, 0, 0, 1, 2, 450)"><g clip-path="url(#920010fa5b)"><g clip-path="url(#552e74db95)"><g fill="#201f1f" fill-opacity="1"><g transform="translate(0.536172, 17.369972)"><g><path d="M 3.625 0 C 3.476562 0 3.351562 -0.046875 3.25 -0.140625 C 3.15625 -0.242188 3.109375 -0.359375 3.109375 -0.484375 L 3.109375 -10.15625 L 3.296875 -9.984375 L 1.15625 -8.5625 C 1.070312 -8.5 0.984375 -8.46875 0.890625 -8.46875 C 0.753906 -8.46875 0.632812 -8.519531 0.53125 -8.625 C 0.4375 -8.726562 0.390625 -8.847656 0.390625 -8.984375 C 0.390625 -9.148438 0.472656 -9.28125 0.640625 -9.375 L 3.328125 -11.15625 C 3.390625 -11.207031 3.453125 -11.238281 3.515625 -11.25 C 3.585938 -11.257812 3.648438 -11.257812 3.703125 -11.25 C 3.847656 -11.238281 3.957031 -11.1875 4.03125 -11.09375 C 4.101562 -11 4.140625 -10.890625 4.140625 -10.765625 L 4.140625 -0.484375 C 4.140625 -0.359375 4.09375 -0.242188 4 -0.140625 C 3.90625 -0.046875 3.78125 0 3.625 0 Z M 3.625 0 "/></g></g></g></g><g fill="#201f1f" fill-opacity="1"><g transform="translate(6.479306, 17.369972)"><g><path d="M 4.609375 0.15625 C 3.984375 0.15625 3.4375 0.046875 2.96875 -0.171875 C 2.507812 -0.398438 2.125 -0.703125 1.8125 -1.078125 C 1.507812 -1.460938 1.285156 -1.894531 1.140625 -2.375 C 1.003906 -2.851562 0.9375 -3.347656 0.9375 -3.859375 C 0.9375 -4.367188 1 -4.921875 1.125 -5.515625 C 1.25 -6.109375 1.445312 -6.707031 1.71875 -7.3125 C 1.988281 -7.925781 2.316406 -8.503906 2.703125 -9.046875 C 3.097656 -9.597656 3.550781 -10.085938 4.0625 -10.515625 C 4.582031 -10.953125 5.171875 -11.296875 5.828125 -11.546875 C 5.898438 -11.566406 5.960938 -11.578125 6.015625 -11.578125 C 6.160156 -11.578125 6.28125 -11.539062 6.375 -11.46875 C 6.476562 -11.394531 6.53125 -11.265625 6.53125 -11.078125 C 6.53125 -10.972656 6.492188 -10.878906 6.421875 -10.796875 C 6.359375 -10.722656 6.269531 -10.664062 6.15625 -10.625 C 5.707031 -10.425781 5.257812 -10.148438 4.8125 -9.796875 C 4.375 -9.441406 3.96875 -9.035156 3.59375 -8.578125 C 3.21875 -8.117188 2.898438 -7.625 2.640625 -7.09375 C 2.378906 -6.5625 2.195312 -6.023438 2.09375 -5.484375 L 1.734375 -5.265625 C 1.929688 -5.617188 2.179688 -5.929688 2.484375 -6.203125 C 2.785156 -6.484375 3.132812 -6.703125 3.53125 -6.859375 C 3.925781 -7.023438 4.351562 -7.109375 4.8125 -7.109375 C 5.300781 -7.109375 5.75 -7.003906 6.15625 -6.796875 C 6.5625 -6.597656 6.910156 -6.328125 7.203125 -5.984375 C 7.492188 -5.640625 7.722656 -5.242188 7.890625 -4.796875 C 8.054688 -4.359375 8.140625 -3.90625 8.140625 -3.4375 C 8.140625 -2.800781 7.988281 -2.207031 7.6875 -1.65625 C 7.382812 -1.113281 6.96875 -0.675781 6.4375 -0.34375 C 5.90625 -0.0078125 5.296875 0.15625 4.609375 0.15625 Z M 4.59375 -0.765625 C 5.082031 -0.765625 5.519531 -0.878906 5.90625 -1.109375 C 6.289062 -1.335938 6.59375 -1.648438 6.8125 -2.046875 C 7.03125 -2.453125 7.140625 -2.914062 7.140625 -3.4375 C 7.140625 -3.914062 7.046875 -4.359375 6.859375 -4.765625 C 6.671875 -5.179688 6.394531 -5.519531 6.03125 -5.78125 C 5.664062 -6.050781 5.207031 -6.1875 4.65625 -6.1875 C 4.09375 -6.1875 3.601562 -6.054688 3.1875 -5.796875 C 2.769531 -5.535156 2.453125 -5.191406 2.234375 -4.765625 C 2.015625 -4.347656 1.90625 -3.890625 1.90625 -3.390625 C 1.90625 -2.941406 2.007812 -2.515625 2.21875 -2.109375 C 2.4375 -1.710938 2.75 -1.390625 3.15625 -1.140625 C 3.5625 -0.890625 4.039062 -0.765625 4.59375 -0.765625 Z M 4.59375 -0.765625 "/></g></g></g></g></g></g><g clip-path="url(#9e44465eb4)"><g transform="matrix(1, 0, 0, 1, 128, 450)"><g clip-path="url(#686e892882)"><g clip-path="url(#9446be5b98)"><g fill="#201f1f" fill-opacity="1"><g transform="translate(0.3828, 17.369972)"><g><path d="M 3.625 0 C 3.476562 0 3.351562 -0.046875 3.25 -0.140625 C 3.15625 -0.242188 3.109375 -0.359375 3.109375 -0.484375 L 3.109375 -10.15625 L 3.296875 -9.984375 L 1.15625 -8.5625 C 1.070312 -8.5 0.984375 -8.46875 0.890625 -8.46875 C 0.753906 -8.46875 0.632812 -8.519531 0.53125 -8.625 C 0.4375 -8.726562 0.390625 -8.847656 0.390625 -8.984375 C 0.390625 -9.148438 0.472656 -9.28125 0.640625 -9.375 L 3.328125 -11.15625 C 3.390625 -11.207031 3.453125 -11.238281 3.515625 -11.25 C 3.585938 -11.257812 3.648438 -11.257812 3.703125 -11.25 C 3.847656 -11.238281 3.957031 -11.1875 4.03125 -11.09375 C 4.101562 -11 4.140625 -10.890625 4.140625 -10.765625 L 4.140625 -0.484375 C 4.140625 -0.359375 4.09375 -0.242188 4 -0.140625 C 3.90625 -0.046875 3.78125 0 3.625 0 Z M 3.625 0 "/></g></g></g></g><g fill="#201f1f" fill-opacity="1"><g transform="translate(6.325934, 17.369972)"><g><path d="M 2.859375 0.046875 C 2.734375 0.046875 2.613281 0.00390625 2.5 -0.078125 C 2.394531 -0.160156 2.34375 -0.269531 2.34375 -0.40625 C 2.34375 -0.476562 2.359375 -0.554688 2.390625 -0.640625 L 6.671875 -10.453125 L 6.84375 -10.234375 L 1.40625 -10.234375 C 1.28125 -10.234375 1.171875 -10.273438 1.078125 -10.359375 C 0.992188 -10.453125 0.953125 -10.566406 0.953125 -10.703125 C 0.953125 -10.835938 0.992188 -10.945312 1.078125 -11.03125 C 1.171875 -11.113281 1.28125 -11.15625 1.40625 -11.15625 L 7.3125 -11.15625 C 7.46875 -11.15625 7.582031 -11.113281 7.65625 -11.03125 C 7.738281 -10.945312 7.78125 -10.84375 7.78125 -10.71875 C 7.78125 -10.625 7.757812 -10.539062 7.71875 -10.46875 L 3.3125 -0.265625 C 3.28125 -0.171875 3.21875 -0.09375 3.125 -0.03125 C 3.039062 0.0195312 2.953125 0.046875 2.859375 0.046875 Z M 2.859375 0.046875 "/></g></g></g></g></g></g><g clip-path="url(#a05b0a6405)"><g transform="matrix(1, 0, 0, 1, 254, 450)"><g clip-path="url(#e45064ff13)"><g clip-path="url(#035e7d61f8)"><g fill="#201f1f" fill-opacity="1"><g transform="translate(0.229483, 17.369972)"><g><path d="M 3.625 0 C 3.476562 0 3.351562 -0.046875 3.25 -0.140625 C 3.15625 -0.242188 3.109375 -0.359375 3.109375 -0.484375 L 3.109375 -10.15625 L 3.296875 -9.984375 L 1.15625 -8.5625 C 1.070312 -8.5 0.984375 -8.46875 0.890625 -8.46875 C 0.753906 -8.46875 0.632812 -8.519531 0.53125 -8.625 C 0.4375 -8.726562 0.390625 -8.847656 0.390625 -8.984375 C 0.390625 -9.148438 0.472656 -9.28125 0.640625 -9.375 L 3.328125 -11.15625 C 3.390625 -11.207031 3.453125 -11.238281 3.515625 -11.25 C 3.585938 -11.257812 3.648438 -11.257812 3.703125 -11.25 C 3.847656 -11.238281 3.957031 -11.1875 4.03125 -11.09375 C 4.101562 -11 4.140625 -10.890625 4.140625 -10.765625 L 4.140625 -0.484375 C 4.140625 -0.359375 4.09375 -0.242188 4 -0.140625 C 3.90625 -0.046875 3.78125 0 3.625 0 Z M 3.625 0 "/></g></g></g></g><g fill="#201f1f" fill-opacity="1"><g transform="translate(6.172617, 17.369972)"><g><path d="M 5.84375 -5.65625 L 5.796875 -5.796875 C 6.160156 -5.660156 6.492188 -5.453125 6.796875 -5.171875 C 7.097656 -4.898438 7.335938 -4.578125 7.515625 -4.203125 C 7.703125 -3.835938 7.796875 -3.4375 7.796875 -3 C 7.796875 -2.425781 7.640625 -1.898438 7.328125 -1.421875 C 7.023438 -0.953125 6.609375 -0.578125 6.078125 -0.296875 C 5.554688 -0.0234375 4.976562 0.109375 4.34375 0.109375 C 3.6875 0.109375 3.097656 -0.0234375 2.578125 -0.296875 C 2.054688 -0.578125 1.644531 -0.953125 1.34375 -1.421875 C 1.039062 -1.898438 0.890625 -2.425781 0.890625 -3 C 0.890625 -3.46875 0.984375 -3.882812 1.171875 -4.25 C 1.359375 -4.625 1.601562 -4.941406 1.90625 -5.203125 C 2.207031 -5.460938 2.523438 -5.660156 2.859375 -5.796875 L 2.8125 -5.640625 C 2.519531 -5.773438 2.25 -5.960938 2 -6.203125 C 1.75 -6.441406 1.539062 -6.726562 1.375 -7.0625 C 1.21875 -7.40625 1.140625 -7.78125 1.140625 -8.1875 C 1.140625 -8.769531 1.28125 -9.289062 1.5625 -9.75 C 1.84375 -10.207031 2.226562 -10.570312 2.71875 -10.84375 C 3.207031 -11.113281 3.75 -11.25 4.34375 -11.25 C 4.925781 -11.25 5.457031 -11.113281 5.9375 -10.84375 C 6.414062 -10.570312 6.796875 -10.207031 7.078125 -9.75 C 7.359375 -9.289062 7.5 -8.769531 7.5 -8.1875 C 7.5 -7.769531 7.414062 -7.394531 7.25 -7.0625 C 7.09375 -6.726562 6.882812 -6.441406 6.625 -6.203125 C 6.375 -5.960938 6.113281 -5.78125 5.84375 -5.65625 Z M 2.140625 -8.1875 C 2.140625 -7.757812 2.238281 -7.382812 2.4375 -7.0625 C 2.644531 -6.738281 2.914062 -6.488281 3.25 -6.3125 C 3.582031 -6.132812 3.945312 -6.046875 4.34375 -6.046875 C 4.726562 -6.046875 5.082031 -6.132812 5.40625 -6.3125 C 5.738281 -6.488281 6.003906 -6.738281 6.203125 -7.0625 C 6.398438 -7.382812 6.5 -7.757812 6.5 -8.1875 C 6.5 -8.820312 6.296875 -9.335938 5.890625 -9.734375 C 5.484375 -10.128906 4.96875 -10.328125 4.34375 -10.328125 C 3.6875 -10.328125 3.15625 -10.128906 2.75 -9.734375 C 2.34375 -9.335938 2.140625 -8.820312 2.140625 -8.1875 Z M 4.34375 -0.796875 C 5.0625 -0.796875 5.648438 -1.003906 6.109375 -1.421875 C 6.566406 -1.847656 6.796875 -2.375 6.796875 -3 C 6.796875 -3.425781 6.679688 -3.8125 6.453125 -4.15625 C 6.234375 -4.5 5.9375 -4.765625 5.5625 -4.953125 C 5.1875 -5.148438 4.78125 -5.25 4.34375 -5.25 C 3.894531 -5.25 3.484375 -5.148438 3.109375 -4.953125 C 2.734375 -4.765625 2.429688 -4.5 2.203125 -4.15625 C 1.984375 -3.8125 1.875 -3.425781 1.875 -3 C 1.875 -2.375 2.097656 -1.847656 2.546875 -1.421875 C 3.003906 -1.003906 3.601562 -0.796875 4.34375 -0.796875 Z M 4.34375 -0.796875 "/></g></g></g></g></g></g><g clip-path="url(#4fae7b8d32)"><g transform="matrix(1, 0, 0, 1, 379, 450)"><g clip-path="url(#ca246076b8)"><g fill="#201f1f" fill-opacity="1"><g transform="translate(1.076078, 17.369972)"><g><path d="M 3.625 0 C 3.476562 0 3.351562 -0.046875 3.25 -0.140625 C 3.15625 -0.242188 3.109375 -0.359375 3.109375 -0.484375 L 3.109375 -10.15625 L 3.296875 -9.984375 L 1.15625 -8.5625 C 1.070312 -8.5 0.984375 -8.46875 0.890625 -8.46875 C 0.753906 -8.46875 0.632812 -8.519531 0.53125 -8.625 C 0.4375 -8.726562 0.390625 -8.847656 0.390625 -8.984375 C 0.390625 -9.148438 0.472656 -9.28125 0.640625 -9.375 L 3.328125 -11.15625 C 3.390625 -11.207031 3.453125 -11.238281 3.515625 -11.25 C 3.585938 -11.257812 3.648438 -11.257812 3.703125 -11.25 C 3.847656 -11.238281 3.957031 -11.1875 4.03125 -11.09375 C 4.101562 -11 4.140625 -10.890625 4.140625 -10.765625 L 4.140625 -0.484375 C 4.140625 -0.359375 4.09375 -0.242188 4 -0.140625 C 3.90625 -0.046875 3.78125 0 3.625 0 Z M 3.625 0 "/></g></g></g><g fill="#201f1f" fill-opacity="1"><g transform="translate(7.019213, 17.369972)"><g><path d="M 4.453125 -11.421875 C 5.078125 -11.421875 5.625 -11.304688 6.09375 -11.078125 C 6.5625 -10.859375 6.941406 -10.554688 7.234375 -10.171875 C 7.535156 -9.796875 7.757812 -9.363281 7.90625 -8.875 C 8.0625 -8.394531 8.140625 -7.90625 8.140625 -7.40625 C 8.140625 -6.894531 8.070312 -6.347656 7.9375 -5.765625 C 7.800781 -5.179688 7.601562 -4.585938 7.34375 -3.984375 C 7.082031 -3.390625 6.753906 -2.828125 6.359375 -2.296875 C 5.972656 -1.765625 5.515625 -1.28125 4.984375 -0.84375 C 4.460938 -0.414062 3.882812 -0.0859375 3.25 0.140625 C 3.15625 0.160156 3.082031 0.171875 3.03125 0.171875 C 2.90625 0.171875 2.789062 0.125 2.6875 0.03125 C 2.582031 -0.0507812 2.53125 -0.171875 2.53125 -0.328125 C 2.53125 -0.429688 2.5625 -0.519531 2.625 -0.59375 C 2.695312 -0.675781 2.796875 -0.738281 2.921875 -0.78125 C 3.535156 -1.039062 4.125 -1.425781 4.6875 -1.9375 C 5.257812 -2.445312 5.75 -3.035156 6.15625 -3.703125 C 6.570312 -4.367188 6.847656 -5.0625 6.984375 -5.78125 L 7.328125 -5.984375 C 7.140625 -5.648438 6.890625 -5.34375 6.578125 -5.0625 C 6.273438 -4.78125 5.925781 -4.5625 5.53125 -4.40625 C 5.144531 -4.25 4.71875 -4.171875 4.25 -4.171875 C 3.570312 -4.171875 2.984375 -4.335938 2.484375 -4.671875 C 1.984375 -5.015625 1.597656 -5.460938 1.328125 -6.015625 C 1.066406 -6.578125 0.9375 -7.179688 0.9375 -7.828125 C 0.9375 -8.453125 1.085938 -9.035156 1.390625 -9.578125 C 1.691406 -10.128906 2.109375 -10.570312 2.640625 -10.90625 C 3.171875 -11.25 3.773438 -11.421875 4.453125 -11.421875 Z M 4.484375 -10.484375 C 3.972656 -10.484375 3.523438 -10.367188 3.140625 -10.140625 C 2.753906 -9.921875 2.453125 -9.609375 2.234375 -9.203125 C 2.015625 -8.804688 1.90625 -8.347656 1.90625 -7.828125 C 1.90625 -7.347656 2 -6.898438 2.1875 -6.484375 C 2.375 -6.066406 2.65625 -5.734375 3.03125 -5.484375 C 3.40625 -5.234375 3.863281 -5.109375 4.40625 -5.109375 C 4.976562 -5.109375 5.46875 -5.234375 5.875 -5.484375 C 6.28125 -5.734375 6.59375 -6.066406 6.8125 -6.484375 C 7.039062 -6.898438 7.15625 -7.363281 7.15625 -7.875 C 7.15625 -8.332031 7.046875 -8.757812 6.828125 -9.15625 C 6.617188 -9.550781 6.316406 -9.867188 5.921875 -10.109375 C 5.523438 -10.359375 5.046875 -10.484375 4.484375 -10.484375 Z M 4.484375 -10.484375 "/></g></g></g></g></g></g><g clip-path="url(#bd7eb55967)"><g transform="matrix(1, 0, 0, 1, 505, 450)"><g clip-path="url(#ecbf8654ef)"><g fill="#201f1f" fill-opacity="1"><g transform="translate(0.922674, 17.369972)"><g><path d="M 7.609375 -0.9375 C 7.742188 -0.9375 7.851562 -0.890625 7.9375 -0.796875 C 8.03125 -0.703125 8.078125 -0.59375 8.078125 -0.46875 C 8.078125 -0.320312 8.03125 -0.207031 7.9375 -0.125 C 7.851562 -0.0390625 7.742188 0 7.609375 0 L 1.59375 0 C 1.445312 0 1.320312 -0.0351562 1.21875 -0.109375 C 1.125 -0.191406 1.078125 -0.316406 1.078125 -0.484375 C 1.078125 -0.597656 1.117188 -0.707031 1.203125 -0.8125 L 4.921875 -4.921875 C 5.503906 -5.554688 5.941406 -6.144531 6.234375 -6.6875 C 6.535156 -7.226562 6.6875 -7.710938 6.6875 -8.140625 C 6.6875 -8.847656 6.46875 -9.414062 6.03125 -9.84375 C 5.601562 -10.269531 5.03125 -10.484375 4.3125 -10.484375 C 3.976562 -10.484375 3.644531 -10.414062 3.3125 -10.28125 C 2.988281 -10.144531 2.703125 -9.960938 2.453125 -9.734375 C 2.203125 -9.503906 2.003906 -9.25 1.859375 -8.96875 C 1.796875 -8.851562 1.726562 -8.773438 1.65625 -8.734375 C 1.59375 -8.691406 1.515625 -8.671875 1.421875 -8.671875 C 1.296875 -8.671875 1.1875 -8.710938 1.09375 -8.796875 C 1 -8.878906 0.953125 -8.976562 0.953125 -9.09375 C 0.953125 -9.164062 0.96875 -9.238281 1 -9.3125 C 1.039062 -9.382812 1.097656 -9.472656 1.171875 -9.578125 C 1.367188 -9.910156 1.632812 -10.210938 1.96875 -10.484375 C 2.3125 -10.765625 2.695312 -10.988281 3.125 -11.15625 C 3.550781 -11.320312 3.96875 -11.40625 4.375 -11.40625 C 5.050781 -11.40625 5.640625 -11.273438 6.140625 -11.015625 C 6.640625 -10.753906 7.023438 -10.382812 7.296875 -9.90625 C 7.566406 -9.425781 7.703125 -8.859375 7.703125 -8.203125 C 7.703125 -7.648438 7.53125 -7.039062 7.1875 -6.375 C 6.84375 -5.71875 6.328125 -5.007812 5.640625 -4.25 L 2.5 -0.734375 L 2.34375 -0.9375 Z M 7.609375 -0.9375 "/></g></g></g><g fill="#201f1f" fill-opacity="1"><g transform="translate(9.82131, 17.369972)"><g><path d="M 4.765625 0.15625 C 3.910156 0.15625 3.191406 -0.0976562 2.609375 -0.609375 C 2.035156 -1.117188 1.601562 -1.8125 1.3125 -2.6875 C 1.03125 -3.5625 0.890625 -4.539062 0.890625 -5.625 C 0.890625 -6.71875 1.03125 -7.695312 1.3125 -8.5625 C 1.601562 -9.4375 2.035156 -10.128906 2.609375 -10.640625 C 3.191406 -11.148438 3.910156 -11.40625 4.765625 -11.40625 C 5.648438 -11.40625 6.378906 -11.148438 6.953125 -10.640625 C 7.523438 -10.128906 7.953125 -9.4375 8.234375 -8.5625 C 8.523438 -7.695312 8.671875 -6.71875 8.671875 -5.625 C 8.671875 -4.539062 8.523438 -3.5625 8.234375 -2.6875 C 7.953125 -1.8125 7.523438 -1.117188 6.953125 -0.609375 C 6.378906 -0.0976562 5.648438 0.15625 4.765625 0.15625 Z M 4.765625 -0.828125 C 5.398438 -0.828125 5.925781 -1.023438 6.34375 -1.421875 C 6.769531 -1.828125 7.09375 -2.390625 7.3125 -3.109375 C 7.53125 -3.828125 7.640625 -4.664062 7.640625 -5.625 C 7.640625 -6.582031 7.53125 -7.421875 7.3125 -8.140625 C 7.09375 -8.867188 6.769531 -9.429688 6.34375 -9.828125 C 5.925781 -10.222656 5.398438 -10.421875 4.765625 -10.421875 C 4.148438 -10.421875 3.628906 -10.222656 3.203125 -9.828125 C 2.773438 -9.429688 2.453125 -8.867188 2.234375 -8.140625 C 2.015625 -7.421875 1.90625 -6.582031 1.90625 -5.625 C 1.90625 -4.664062 2.015625 -3.828125 2.234375 -3.109375 C 2.453125 -2.390625 2.773438 -1.828125 3.203125 -1.421875 C 3.628906 -1.023438 4.148438 -0.828125 4.765625 -0.828125 Z M 4.765625 -0.828125 "/></g></g></g></g></g></g><g clip-path="url(#7e454aa59e)"><g transform="matrix(1, 0, 0, 1, 631, 450)"><g clip-path="url(#df6a528b6d)"><g fill="#201f1f" fill-opacity="1"><g transform="translate(0.769386, 17.369972)"><g><path d="M 7.609375 -0.9375 C 7.742188 -0.9375 7.851562 -0.890625 7.9375 -0.796875 C 8.03125 -0.703125 8.078125 -0.59375 8.078125 -0.46875 C 8.078125 -0.320312 8.03125 -0.207031 7.9375 -0.125 C 7.851562 -0.0390625 7.742188 0 7.609375 0 L 1.59375 0 C 1.445312 0 1.320312 -0.0351562 1.21875 -0.109375 C 1.125 -0.191406 1.078125 -0.316406 1.078125 -0.484375 C 1.078125 -0.597656 1.117188 -0.707031 1.203125 -0.8125 L 4.921875 -4.921875 C 5.503906 -5.554688 5.941406 -6.144531 6.234375 -6.6875 C 6.535156 -7.226562 6.6875 -7.710938 6.6875 -8.140625 C 6.6875 -8.847656 6.46875 -9.414062 6.03125 -9.84375 C 5.601562 -10.269531 5.03125 -10.484375 4.3125 -10.484375 C 3.976562 -10.484375 3.644531 -10.414062 3.3125 -10.28125 C 2.988281 -10.144531 2.703125 -9.960938 2.453125 -9.734375 C 2.203125 -9.503906 2.003906 -9.25 1.859375 -8.96875 C 1.796875 -8.851562 1.726562 -8.773438 1.65625 -8.734375 C 1.59375 -8.691406 1.515625 -8.671875 1.421875 -8.671875 C 1.296875 -8.671875 1.1875 -8.710938 1.09375 -8.796875 C 1 -8.878906 0.953125 -8.976562 0.953125 -9.09375 C 0.953125 -9.164062 0.96875 -9.238281 1 -9.3125 C 1.039062 -9.382812 1.097656 -9.472656 1.171875 -9.578125 C 1.367188 -9.910156 1.632812 -10.210938 1.96875 -10.484375 C 2.3125 -10.765625 2.695312 -10.988281 3.125 -11.15625 C 3.550781 -11.320312 3.96875 -11.40625 4.375 -11.40625 C 5.050781 -11.40625 5.640625 -11.273438 6.140625 -11.015625 C 6.640625 -10.753906 7.023438 -10.382812 7.296875 -9.90625 C 7.566406 -9.425781 7.703125 -8.859375 7.703125 -8.203125 C 7.703125 -7.648438 7.53125 -7.039062 7.1875 -6.375 C 6.84375 -5.71875 6.328125 -5.007812 5.640625 -4.25 L 2.5 -0.734375 L 2.34375 -0.9375 Z M 7.609375 -0.9375 "/></g></g></g><g fill="#201f1f" fill-opacity="1"><g transform="translate(9.668023, 17.369972)"><g><path d="M 3.625 0 C 3.476562 0 3.351562 -0.046875 3.25 -0.140625 C 3.15625 -0.242188 3.109375 -0.359375 3.109375 -0.484375 L 3.109375 -10.15625 L 3.296875 -9.984375 L 1.15625 -8.5625 C 1.070312 -8.5 0.984375 -8.46875 0.890625 -8.46875 C 0.753906 -8.46875 0.632812 -8.519531 0.53125 -8.625 C 0.4375 -8.726562 0.390625 -8.847656 0.390625 -8.984375 C 0.390625 -9.148438 0.472656 -9.28125 0.640625 -9.375 L 3.328125 -11.15625 C 3.390625 -11.207031 3.453125 -11.238281 3.515625 -11.25 C 3.585938 -11.257812 3.648438 -11.257812 3.703125 -11.25 C 3.847656 -11.238281 3.957031 -11.1875 4.03125 -11.09375 C 4.101562 -11 4.140625 -10.890625 4.140625 -10.765625 L 4.140625 -0.484375 C 4.140625 -0.359375 4.09375 -0.242188 4 -0.140625 C 3.90625 -0.046875 3.78125 0 3.625 0 Z M 3.625 0 "/></g></g></g></g></g></g><g clip-path="url(#70e9857346)"><g transform="matrix(1, 0, 0, 1, 757, 450)"><g clip-path="url(#ecd23a1ef4)"><g fill="#201f1f" fill-opacity="1"><g transform="translate(0.615923, 17.369972)"><g><path d="M 7.609375 -0.9375 C 7.742188 -0.9375 7.851562 -0.890625 7.9375 -0.796875 C 8.03125 -0.703125 8.078125 -0.59375 8.078125 -0.46875 C 8.078125 -0.320312 8.03125 -0.207031 7.9375 -0.125 C 7.851562 -0.0390625 7.742188 0 7.609375 0 L 1.59375 0 C 1.445312 0 1.320312 -0.0351562 1.21875 -0.109375 C 1.125 -0.191406 1.078125 -0.316406 1.078125 -0.484375 C 1.078125 -0.597656 1.117188 -0.707031 1.203125 -0.8125 L 4.921875 -4.921875 C 5.503906 -5.554688 5.941406 -6.144531 6.234375 -6.6875 C 6.535156 -7.226562 6.6875 -7.710938 6.6875 -8.140625 C 6.6875 -8.847656 6.46875 -9.414062 6.03125 -9.84375 C 5.601562 -10.269531 5.03125 -10.484375 4.3125 -10.484375 C 3.976562 -10.484375 3.644531 -10.414062 3.3125 -10.28125 C 2.988281 -10.144531 2.703125 -9.960938 2.453125 -9.734375 C 2.203125 -9.503906 2.003906 -9.25 1.859375 -8.96875 C 1.796875 -8.851562 1.726562 -8.773438 1.65625 -8.734375 C 1.59375 -8.691406 1.515625 -8.671875 1.421875 -8.671875 C 1.296875 -8.671875 1.1875 -8.710938 1.09375 -8.796875 C 1 -8.878906 0.953125 -8.976562 0.953125 -9.09375 C 0.953125 -9.164062 0.96875 -9.238281 1 -9.3125 C 1.039062 -9.382812 1.097656 -9.472656 1.171875 -9.578125 C 1.367188 -9.910156 1.632812 -10.210938 1.96875 -10.484375 C 2.3125 -10.765625 2.695312 -10.988281 3.125 -11.15625 C 3.550781 -11.320312 3.96875 -11.40625 4.375 -11.40625 C 5.050781 -11.40625 5.640625 -11.273438 6.140625 -11.015625 C 6.640625 -10.753906 7.023438 -10.382812 7.296875 -9.90625 C 7.566406 -9.425781 7.703125 -8.859375 7.703125 -8.203125 C 7.703125 -7.648438 7.53125 -7.039062 7.1875 -6.375 C 6.84375 -5.71875 6.328125 -5.007812 5.640625 -4.25 L 2.5 -0.734375 L 2.34375 -0.9375 Z M 7.609375 -0.9375 "/></g></g></g><g fill="#201f1f" fill-opacity="1"><g transform="translate(9.51456, 17.369972)"><g><path d="M 7.609375 -0.9375 C 7.742188 -0.9375 7.851562 -0.890625 7.9375 -0.796875 C 8.03125 -0.703125 8.078125 -0.59375 8.078125 -0.46875 C 8.078125 -0.320312 8.03125 -0.207031 7.9375 -0.125 C 7.851562 -0.0390625 7.742188 0 7.609375 0 L 1.59375 0 C 1.445312 0 1.320312 -0.0351562 1.21875 -0.109375 C 1.125 -0.191406 1.078125 -0.316406 1.078125 -0.484375 C 1.078125 -0.597656 1.117188 -0.707031 1.203125 -0.8125 L 4.921875 -4.921875 C 5.503906 -5.554688 5.941406 -6.144531 6.234375 -6.6875 C 6.535156 -7.226562 6.6875 -7.710938 6.6875 -8.140625 C 6.6875 -8.847656 6.46875 -9.414062 6.03125 -9.84375 C 5.601562 -10.269531 5.03125 -10.484375 4.3125 -10.484375 C 3.976562 -10.484375 3.644531 -10.414062 3.3125 -10.28125 C 2.988281 -10.144531 2.703125 -9.960938 2.453125 -9.734375 C 2.203125 -9.503906 2.003906 -9.25 1.859375 -8.96875 C 1.796875 -8.851562 1.726562 -8.773438 1.65625 -8.734375 C 1.59375 -8.691406 1.515625 -8.671875 1.421875 -8.671875 C 1.296875 -8.671875 1.1875 -8.710938 1.09375 -8.796875 C 1 -8.878906 0.953125 -8.976562 0.953125 -9.09375 C 0.953125 -9.164062 0.96875 -9.238281 1 -9.3125 C 1.039062 -9.382812 1.097656 -9.472656 1.171875 -9.578125 C 1.367188 -9.910156 1.632812 -10.210938 1.96875 -10.484375 C 2.3125 -10.765625 2.695312 -10.988281 3.125 -11.15625 C 3.550781 -11.320312 3.96875 -11.40625 4.375 -11.40625 C 5.050781 -11.40625 5.640625 -11.273438 6.140625 -11.015625 C 6.640625 -10.753906 7.023438 -10.382812 7.296875 -9.90625 C 7.566406 -9.425781 7.703125 -8.859375 7.703125 -8.203125 C 7.703125 -7.648438 7.53125 -7.039062 7.1875 -6.375 C 6.84375 -5.71875 6.328125 -5.007812 5.640625 -4.25 L 2.5 -0.734375 L 2.34375 -0.9375 Z M 7.609375 -0.9375 "/></g></g></g></g></g></g><g clip-path="url(#1e0472e72a)"><g transform="matrix(1, 0, 0, 1, 2, 600)"><g clip-path="url(#59154b709a)"><g fill="#201f1f" fill-opacity="1"><g transform="translate(0.536172, 17.167436)"><g><path d="M 7.609375 -0.9375 C 7.742188 -0.9375 7.851562 -0.890625 7.9375 -0.796875 C 8.03125 -0.703125 8.078125 -0.59375 8.078125 -0.46875 C 8.078125 -0.320312 8.03125 -0.207031 7.9375 -0.125 C 7.851562 -0.0390625 7.742188 0 7.609375 0 L 1.59375 0 C 1.445312 0 1.320312 -0.0351562 1.21875 -0.109375 C 1.125 -0.191406 1.078125 -0.316406 1.078125 -0.484375 C 1.078125 -0.597656 1.117188 -0.707031 1.203125 -0.8125 L 4.921875 -4.921875 C 5.503906 -5.554688 5.941406 -6.144531 6.234375 -6.6875 C 6.535156 -7.226562 6.6875 -7.710938 6.6875 -8.140625 C 6.6875 -8.847656 6.46875 -9.414062 6.03125 -9.84375 C 5.601562 -10.269531 5.03125 -10.484375 4.3125 -10.484375 C 3.976562 -10.484375 3.644531 -10.414062 3.3125 -10.28125 C 2.988281 -10.144531 2.703125 -9.960938 2.453125 -9.734375 C 2.203125 -9.503906 2.003906 -9.25 1.859375 -8.96875 C 1.796875 -8.851562 1.726562 -8.773438 1.65625 -8.734375 C 1.59375 -8.691406 1.515625 -8.671875 1.421875 -8.671875 C 1.296875 -8.671875 1.1875 -8.710938 1.09375 -8.796875 C 1 -8.878906 0.953125 -8.976562 0.953125 -9.09375 C 0.953125 -9.164062 0.96875 -9.238281 1 -9.3125 C 1.039062 -9.382812 1.097656 -9.472656 1.171875 -9.578125 C 1.367188 -9.910156 1.632812 -10.210938 1.96875 -10.484375 C 2.3125 -10.765625 2.695312 -10.988281 3.125 -11.15625 C 3.550781 -11.320312 3.96875 -11.40625 4.375 -11.40625 C 5.050781 -11.40625 5.640625 -11.273438 6.140625 -11.015625 C 6.640625 -10.753906 7.023438 -10.382812 7.296875 -9.90625 C 7.566406 -9.425781 7.703125 -8.859375 7.703125 -8.203125 C 7.703125 -7.648438 7.53125 -7.039062 7.1875 -6.375 C 6.84375 -5.71875 6.328125 -5.007812 5.640625 -4.25 L 2.5 -0.734375 L 2.34375 -0.9375 Z M 7.609375 -0.9375 "/></g></g></g><g fill="#201f1f" fill-opacity="1"><g transform="translate(9.434808, 17.167436)"><g><path d="M 1.421875 -1.65625 C 1.484375 -1.65625 1.539062 -1.644531 1.59375 -1.625 C 1.65625 -1.601562 1.726562 -1.554688 1.8125 -1.484375 C 2.039062 -1.242188 2.304688 -1.0625 2.609375 -0.9375 C 2.921875 -0.8125 3.273438 -0.75 3.671875 -0.75 C 4.203125 -0.75 4.679688 -0.867188 5.109375 -1.109375 C 5.546875 -1.347656 5.890625 -1.675781 6.140625 -2.09375 C 6.398438 -2.519531 6.53125 -3.003906 6.53125 -3.546875 C 6.53125 -4.171875 6.394531 -4.671875 6.125 -5.046875 C 5.851562 -5.429688 5.503906 -5.71875 5.078125 -5.90625 C 4.660156 -6.09375 4.234375 -6.1875 3.796875 -6.1875 C 3.671875 -6.1875 3.550781 -6.175781 3.4375 -6.15625 C 3.332031 -6.144531 3.226562 -6.128906 3.125 -6.109375 C 3.03125 -6.085938 2.957031 -6.078125 2.90625 -6.078125 C 2.769531 -6.078125 2.660156 -6.117188 2.578125 -6.203125 C 2.503906 -6.296875 2.46875 -6.410156 2.46875 -6.546875 C 2.46875 -6.628906 2.484375 -6.695312 2.515625 -6.75 C 2.546875 -6.8125 2.59375 -6.878906 2.65625 -6.953125 L 5.90625 -10.5 L 6.109375 -10.25 L 1.234375 -10.25 C 1.109375 -10.25 1 -10.289062 0.90625 -10.375 C 0.8125 -10.46875 0.765625 -10.582031 0.765625 -10.71875 C 0.765625 -10.84375 0.8125 -10.945312 0.90625 -11.03125 C 1 -11.113281 1.109375 -11.15625 1.234375 -11.15625 L 6.640625 -11.15625 C 6.816406 -11.15625 6.941406 -11.097656 7.015625 -10.984375 C 7.085938 -10.878906 7.125 -10.773438 7.125 -10.671875 C 7.125 -10.597656 7.109375 -10.53125 7.078125 -10.46875 C 7.046875 -10.414062 7.003906 -10.359375 6.953125 -10.296875 L 3.6875 -6.75 L 3.34375 -6.953125 C 3.375 -6.984375 3.484375 -7.015625 3.671875 -7.046875 C 3.859375 -7.085938 4.003906 -7.109375 4.109375 -7.109375 C 4.703125 -7.109375 5.253906 -6.96875 5.765625 -6.6875 C 6.285156 -6.414062 6.707031 -6.019531 7.03125 -5.5 C 7.363281 -4.976562 7.53125 -4.335938 7.53125 -3.578125 C 7.53125 -2.828125 7.351562 -2.171875 7 -1.609375 C 6.644531 -1.046875 6.164062 -0.609375 5.5625 -0.296875 C 4.96875 0.00390625 4.304688 0.15625 3.578125 0.15625 C 3.140625 0.15625 2.707031 0.0820312 2.28125 -0.0625 C 1.851562 -0.21875 1.476562 -0.441406 1.15625 -0.734375 C 1.082031 -0.796875 1.03125 -0.859375 1 -0.921875 C 0.96875 -0.992188 0.953125 -1.0625 0.953125 -1.125 C 0.953125 -1.25 0.992188 -1.367188 1.078125 -1.484375 C 1.171875 -1.597656 1.285156 -1.65625 1.421875 -1.65625 Z M 1.421875 -1.65625 "/></g></g></g></g></g></g><g clip-path="url(#94f10a265c)"><g transform="matrix(1, 0, 0, 1, 128, 600)"><g clip-path="url(#37b1ec3126)"><g fill="#201f1f" fill-opacity="1"><g transform="translate(0.3828, 17.167436)"><g><path d="M 7.609375 -0.9375 C 7.742188 -0.9375 7.851562 -0.890625 7.9375 -0.796875 C 8.03125 -0.703125 8.078125 -0.59375 8.078125 -0.46875 C 8.078125 -0.320312 8.03125 -0.207031 7.9375 -0.125 C 7.851562 -0.0390625 7.742188 0 7.609375 0 L 1.59375 0 C 1.445312 0 1.320312 -0.0351562 1.21875 -0.109375 C 1.125 -0.191406 1.078125 -0.316406 1.078125 -0.484375 C 1.078125 -0.597656 1.117188 -0.707031 1.203125 -0.8125 L 4.921875 -4.921875 C 5.503906 -5.554688 5.941406 -6.144531 6.234375 -6.6875 C 6.535156 -7.226562 6.6875 -7.710938 6.6875 -8.140625 C 6.6875 -8.847656 6.46875 -9.414062 6.03125 -9.84375 C 5.601562 -10.269531 5.03125 -10.484375 4.3125 -10.484375 C 3.976562 -10.484375 3.644531 -10.414062 3.3125 -10.28125 C 2.988281 -10.144531 2.703125 -9.960938 2.453125 -9.734375 C 2.203125 -9.503906 2.003906 -9.25 1.859375 -8.96875 C 1.796875 -8.851562 1.726562 -8.773438 1.65625 -8.734375 C 1.59375 -8.691406 1.515625 -8.671875 1.421875 -8.671875 C 1.296875 -8.671875 1.1875 -8.710938 1.09375 -8.796875 C 1 -8.878906 0.953125 -8.976562 0.953125 -9.09375 C 0.953125 -9.164062 0.96875 -9.238281 1 -9.3125 C 1.039062 -9.382812 1.097656 -9.472656 1.171875 -9.578125 C 1.367188 -9.910156 1.632812 -10.210938 1.96875 -10.484375 C 2.3125 -10.765625 2.695312 -10.988281 3.125 -11.15625 C 3.550781 -11.320312 3.96875 -11.40625 4.375 -11.40625 C 5.050781 -11.40625 5.640625 -11.273438 6.140625 -11.015625 C 6.640625 -10.753906 7.023438 -10.382812 7.296875 -9.90625 C 7.566406 -9.425781 7.703125 -8.859375 7.703125 -8.203125 C 7.703125 -7.648438 7.53125 -7.039062 7.1875 -6.375 C 6.84375 -5.71875 6.328125 -5.007812 5.640625 -4.25 L 2.5 -0.734375 L 2.34375 -0.9375 Z M 7.609375 -0.9375 "/></g></g></g><g fill="#201f1f" fill-opacity="1"><g transform="translate(9.281436, 17.167436)"><g><path d="M 5.890625 0 C 5.753906 0 5.640625 -0.046875 5.546875 -0.140625 C 5.460938 -0.242188 5.421875 -0.359375 5.421875 -0.484375 L 5.421875 -9.90625 L 5.640625 -9.78125 L 1.40625 -4.1875 L 1.359375 -4.375 L 7.53125 -4.375 C 7.65625 -4.375 7.765625 -4.328125 7.859375 -4.234375 C 7.953125 -4.148438 8 -4.046875 8 -3.921875 C 8 -3.785156 7.953125 -3.675781 7.859375 -3.59375 C 7.765625 -3.507812 7.65625 -3.46875 7.53125 -3.46875 L 0.703125 -3.46875 C 0.578125 -3.46875 0.460938 -3.519531 0.359375 -3.625 C 0.265625 -3.726562 0.21875 -3.84375 0.21875 -3.96875 C 0.21875 -4.082031 0.257812 -4.1875 0.34375 -4.28125 L 5.515625 -11.046875 C 5.566406 -11.117188 5.628906 -11.171875 5.703125 -11.203125 C 5.785156 -11.234375 5.851562 -11.25 5.90625 -11.25 C 6.050781 -11.25 6.164062 -11.195312 6.25 -11.09375 C 6.34375 -11 6.390625 -10.890625 6.390625 -10.765625 L 6.390625 -0.484375 C 6.390625 -0.359375 6.34375 -0.242188 6.25 -0.140625 C 6.15625 -0.046875 6.035156 0 5.890625 0 Z M 5.890625 0 "/></g></g></g></g></g></g><g clip-path="url(#8e8ef4247d)"><g transform="matrix(1, 0, 0, 1, 254, 600)"><g clip-path="url(#f36d46653f)"><g fill="#201f1f" fill-opacity="1"><g transform="translate(0.229483, 17.167436)"><g><path d="M 7.609375 -0.9375 C 7.742188 -0.9375 7.851562 -0.890625 7.9375 -0.796875 C 8.03125 -0.703125 8.078125 -0.59375 8.078125 -0.46875 C 8.078125 -0.320312 8.03125 -0.207031 7.9375 -0.125 C 7.851562 -0.0390625 7.742188 0 7.609375 0 L 1.59375 0 C 1.445312 0 1.320312 -0.0351562 1.21875 -0.109375 C 1.125 -0.191406 1.078125 -0.316406 1.078125 -0.484375 C 1.078125 -0.597656 1.117188 -0.707031 1.203125 -0.8125 L 4.921875 -4.921875 C 5.503906 -5.554688 5.941406 -6.144531 6.234375 -6.6875 C 6.535156 -7.226562 6.6875 -7.710938 6.6875 -8.140625 C 6.6875 -8.847656 6.46875 -9.414062 6.03125 -9.84375 C 5.601562 -10.269531 5.03125 -10.484375 4.3125 -10.484375 C 3.976562 -10.484375 3.644531 -10.414062 3.3125 -10.28125 C 2.988281 -10.144531 2.703125 -9.960938 2.453125 -9.734375 C 2.203125 -9.503906 2.003906 -9.25 1.859375 -8.96875 C 1.796875 -8.851562 1.726562 -8.773438 1.65625 -8.734375 C 1.59375 -8.691406 1.515625 -8.671875 1.421875 -8.671875 C 1.296875 -8.671875 1.1875 -8.710938 1.09375 -8.796875 C 1 -8.878906 0.953125 -8.976562 0.953125 -9.09375 C 0.953125 -9.164062 0.96875 -9.238281 1 -9.3125 C 1.039062 -9.382812 1.097656 -9.472656 1.171875 -9.578125 C 1.367188 -9.910156 1.632812 -10.210938 1.96875 -10.484375 C 2.3125 -10.765625 2.695312 -10.988281 3.125 -11.15625 C 3.550781 -11.320312 3.96875 -11.40625 4.375 -11.40625 C 5.050781 -11.40625 5.640625 -11.273438 6.140625 -11.015625 C 6.640625 -10.753906 7.023438 -10.382812 7.296875 -9.90625 C 7.566406 -9.425781 7.703125 -8.859375 7.703125 -8.203125 C 7.703125 -7.648438 7.53125 -7.039062 7.1875 -6.375 C 6.84375 -5.71875 6.328125 -5.007812 5.640625 -4.25 L 2.5 -0.734375 L 2.34375 -0.9375 Z M 7.609375 -0.9375 "/></g></g></g><g fill="#201f1f" fill-opacity="1"><g transform="translate(9.12812, 17.167436)"><g><path d="M 3.765625 0.03125 C 3.316406 0.03125 2.867188 -0.0390625 2.421875 -0.1875 C 1.984375 -0.332031 1.59375 -0.546875 1.25 -0.828125 C 1.1875 -0.890625 1.132812 -0.957031 1.09375 -1.03125 C 1.0625 -1.101562 1.046875 -1.175781 1.046875 -1.25 C 1.046875 -1.351562 1.085938 -1.457031 1.171875 -1.5625 C 1.253906 -1.664062 1.367188 -1.71875 1.515625 -1.71875 C 1.628906 -1.71875 1.742188 -1.671875 1.859375 -1.578125 C 2.140625 -1.359375 2.441406 -1.191406 2.765625 -1.078125 C 3.097656 -0.960938 3.429688 -0.90625 3.765625 -0.90625 C 4.390625 -0.90625 4.9375 -1.023438 5.40625 -1.265625 C 5.882812 -1.503906 6.25 -1.84375 6.5 -2.28125 C 6.757812 -2.726562 6.890625 -3.25 6.890625 -3.84375 C 6.890625 -4.382812 6.769531 -4.851562 6.53125 -5.25 C 6.300781 -5.65625 5.96875 -5.972656 5.53125 -6.203125 C 5.101562 -6.429688 4.59375 -6.546875 4 -6.546875 C 3.613281 -6.546875 3.257812 -6.488281 2.9375 -6.375 C 2.625 -6.257812 2.351562 -6.140625 2.125 -6.015625 C 1.894531 -5.890625 1.710938 -5.828125 1.578125 -5.828125 C 1.441406 -5.828125 1.332031 -5.859375 1.25 -5.921875 C 1.175781 -5.984375 1.125 -6.0625 1.09375 -6.15625 C 1.070312 -6.257812 1.070312 -6.363281 1.09375 -6.46875 L 1.78125 -10.765625 C 1.789062 -10.859375 1.84375 -10.941406 1.9375 -11.015625 C 2.03125 -11.097656 2.144531 -11.140625 2.28125 -11.140625 L 7.109375 -11.140625 C 7.242188 -11.140625 7.351562 -11.09375 7.4375 -11 C 7.53125 -10.914062 7.578125 -10.8125 7.578125 -10.6875 C 7.578125 -10.539062 7.53125 -10.421875 7.4375 -10.328125 C 7.351562 -10.242188 7.242188 -10.203125 7.109375 -10.203125 L 2.5 -10.203125 L 2.65625 -10.34375 L 1.984375 -6.53125 L 1.703125 -6.75 C 1.835938 -6.851562 2.035156 -6.957031 2.296875 -7.0625 C 2.566406 -7.175781 2.863281 -7.269531 3.1875 -7.34375 C 3.507812 -7.425781 3.851562 -7.46875 4.21875 -7.46875 C 4.914062 -7.46875 5.535156 -7.3125 6.078125 -7 C 6.628906 -6.695312 7.0625 -6.273438 7.375 -5.734375 C 7.695312 -5.203125 7.859375 -4.582031 7.859375 -3.875 C 7.859375 -3.09375 7.6875 -2.410156 7.34375 -1.828125 C 7.007812 -1.242188 6.535156 -0.785156 5.921875 -0.453125 C 5.316406 -0.128906 4.597656 0.03125 3.765625 0.03125 Z M 3.765625 0.03125 "/></g></g></g></g></g></g><g clip-path="url(#dde28d4ce7)"><g transform="matrix(1, 0, 0, 1, 379, 600)"><g clip-path="url(#0501fd6b23)"><g fill="#201f1f" fill-opacity="1"><g transform="translate(1.076078, 17.167436)"><g><path d="M 7.609375 -0.9375 C 7.742188 -0.9375 7.851562 -0.890625 7.9375 -0.796875 C 8.03125 -0.703125 8.078125 -0.59375 8.078125 -0.46875 C 8.078125 -0.320312 8.03125 -0.207031 7.9375 -0.125 C 7.851562 -0.0390625 7.742188 0 7.609375 0 L 1.59375 0 C 1.445312 0 1.320312 -0.0351562 1.21875 -0.109375 C 1.125 -0.191406 1.078125 -0.316406 1.078125 -0.484375 C 1.078125 -0.597656 1.117188 -0.707031 1.203125 -0.8125 L 4.921875 -4.921875 C 5.503906 -5.554688 5.941406 -6.144531 6.234375 -6.6875 C 6.535156 -7.226562 6.6875 -7.710938 6.6875 -8.140625 C 6.6875 -8.847656 6.46875 -9.414062 6.03125 -9.84375 C 5.601562 -10.269531 5.03125 -10.484375 4.3125 -10.484375 C 3.976562 -10.484375 3.644531 -10.414062 3.3125 -10.28125 C 2.988281 -10.144531 2.703125 -9.960938 2.453125 -9.734375 C 2.203125 -9.503906 2.003906 -9.25 1.859375 -8.96875 C 1.796875 -8.851562 1.726562 -8.773438 1.65625 -8.734375 C 1.59375 -8.691406 1.515625 -8.671875 1.421875 -8.671875 C 1.296875 -8.671875 1.1875 -8.710938 1.09375 -8.796875 C 1 -8.878906 0.953125 -8.976562 0.953125 -9.09375 C 0.953125 -9.164062 0.96875 -9.238281 1 -9.3125 C 1.039062 -9.382812 1.097656 -9.472656 1.171875 -9.578125 C 1.367188 -9.910156 1.632812 -10.210938 1.96875 -10.484375 C 2.3125 -10.765625 2.695312 -10.988281 3.125 -11.15625 C 3.550781 -11.320312 3.96875 -11.40625 4.375 -11.40625 C 5.050781 -11.40625 5.640625 -11.273438 6.140625 -11.015625 C 6.640625 -10.753906 7.023438 -10.382812 7.296875 -9.90625 C 7.566406 -9.425781 7.703125 -8.859375 7.703125 -8.203125 C 7.703125 -7.648438 7.53125 -7.039062 7.1875 -6.375 C 6.84375 -5.71875 6.328125 -5.007812 5.640625 -4.25 L 2.5 -0.734375 L 2.34375 -0.9375 Z M 7.609375 -0.9375 "/></g></g></g><g clip-path="url(#4ac7736fff)"><g fill="#201f1f" fill-opacity="1"><g transform="translate(9.974715, 17.167436)"><g><path d="M 4.609375 0.15625 C 3.984375 0.15625 3.4375 0.046875 2.96875 -0.171875 C 2.507812 -0.398438 2.125 -0.703125 1.8125 -1.078125 C 1.507812 -1.460938 1.285156 -1.894531 1.140625 -2.375 C 1.003906 -2.851562 0.9375 -3.347656 0.9375 -3.859375 C 0.9375 -4.367188 1 -4.921875 1.125 -5.515625 C 1.25 -6.109375 1.445312 -6.707031 1.71875 -7.3125 C 1.988281 -7.925781 2.316406 -8.503906 2.703125 -9.046875 C 3.097656 -9.597656 3.550781 -10.085938 4.0625 -10.515625 C 4.582031 -10.953125 5.171875 -11.296875 5.828125 -11.546875 C 5.898438 -11.566406 5.960938 -11.578125 6.015625 -11.578125 C 6.160156 -11.578125 6.28125 -11.539062 6.375 -11.46875 C 6.476562 -11.394531 6.53125 -11.265625 6.53125 -11.078125 C 6.53125 -10.972656 6.492188 -10.878906 6.421875 -10.796875 C 6.359375 -10.722656 6.269531 -10.664062 6.15625 -10.625 C 5.707031 -10.425781 5.257812 -10.148438 4.8125 -9.796875 C 4.375 -9.441406 3.96875 -9.035156 3.59375 -8.578125 C 3.21875 -8.117188 2.898438 -7.625 2.640625 -7.09375 C 2.378906 -6.5625 2.195312 -6.023438 2.09375 -5.484375 L 1.734375 -5.265625 C 1.929688 -5.617188 2.179688 -5.929688 2.484375 -6.203125 C 2.785156 -6.484375 3.132812 -6.703125 3.53125 -6.859375 C 3.925781 -7.023438 4.351562 -7.109375 4.8125 -7.109375 C 5.300781 -7.109375 5.75 -7.003906 6.15625 -6.796875 C 6.5625 -6.597656 6.910156 -6.328125 7.203125 -5.984375 C 7.492188 -5.640625 7.722656 -5.242188 7.890625 -4.796875 C 8.054688 -4.359375 8.140625 -3.90625 8.140625 -3.4375 C 8.140625 -2.800781 7.988281 -2.207031 7.6875 -1.65625 C 7.382812 -1.113281 6.96875 -0.675781 6.4375 -0.34375 C 5.90625 -0.0078125 5.296875 0.15625 4.609375 0.15625 Z M 4.59375 -0.765625 C 5.082031 -0.765625 5.519531 -0.878906 5.90625 -1.109375 C 6.289062 -1.335938 6.59375 -1.648438 6.8125 -2.046875 C 7.03125 -2.453125 7.140625 -2.914062 7.140625 -3.4375 C 7.140625 -3.914062 7.046875 -4.359375 6.859375 -4.765625 C 6.671875 -5.179688 6.394531 -5.519531 6.03125 -5.78125 C 5.664062 -6.050781 5.207031 -6.1875 4.65625 -6.1875 C 4.09375 -6.1875 3.601562 -6.054688 3.1875 -5.796875 C 2.769531 -5.535156 2.453125 -5.191406 2.234375 -4.765625 C 2.015625 -4.347656 1.90625 -3.890625 1.90625 -3.390625 C 1.90625 -2.941406 2.007812 -2.515625 2.21875 -2.109375 C 2.4375 -1.710938 2.75 -1.390625 3.15625 -1.140625 C 3.5625 -0.890625 4.039062 -0.765625 4.59375 -0.765625 Z M 4.59375 -0.765625 "/></g></g></g></g></g></g></g><g clip-path="url(#43daebb848)"><g transform="matrix(1, 0, 0, 1, 505, 600)"><g clip-path="url(#3c5c38cb5b)"><g fill="#201f1f" fill-opacity="1"><g transform="translate(0.922674, 17.167436)"><g><path d="M 7.609375 -0.9375 C 7.742188 -0.9375 7.851562 -0.890625 7.9375 -0.796875 C 8.03125 -0.703125 8.078125 -0.59375 8.078125 -0.46875 C 8.078125 -0.320312 8.03125 -0.207031 7.9375 -0.125 C 7.851562 -0.0390625 7.742188 0 7.609375 0 L 1.59375 0 C 1.445312 0 1.320312 -0.0351562 1.21875 -0.109375 C 1.125 -0.191406 1.078125 -0.316406 1.078125 -0.484375 C 1.078125 -0.597656 1.117188 -0.707031 1.203125 -0.8125 L 4.921875 -4.921875 C 5.503906 -5.554688 5.941406 -6.144531 6.234375 -6.6875 C 6.535156 -7.226562 6.6875 -7.710938 6.6875 -8.140625 C 6.6875 -8.847656 6.46875 -9.414062 6.03125 -9.84375 C 5.601562 -10.269531 5.03125 -10.484375 4.3125 -10.484375 C 3.976562 -10.484375 3.644531 -10.414062 3.3125 -10.28125 C 2.988281 -10.144531 2.703125 -9.960938 2.453125 -9.734375 C 2.203125 -9.503906 2.003906 -9.25 1.859375 -8.96875 C 1.796875 -8.851562 1.726562 -8.773438 1.65625 -8.734375 C 1.59375 -8.691406 1.515625 -8.671875 1.421875 -8.671875 C 1.296875 -8.671875 1.1875 -8.710938 1.09375 -8.796875 C 1 -8.878906 0.953125 -8.976562 0.953125 -9.09375 C 0.953125 -9.164062 0.96875 -9.238281 1 -9.3125 C 1.039062 -9.382812 1.097656 -9.472656 1.171875 -9.578125 C 1.367188 -9.910156 1.632812 -10.210938 1.96875 -10.484375 C 2.3125 -10.765625 2.695312 -10.988281 3.125 -11.15625 C 3.550781 -11.320312 3.96875 -11.40625 4.375 -11.40625 C 5.050781 -11.40625 5.640625 -11.273438 6.140625 -11.015625 C 6.640625 -10.753906 7.023438 -10.382812 7.296875 -9.90625 C 7.566406 -9.425781 7.703125 -8.859375 7.703125 -8.203125 C 7.703125 -7.648438 7.53125 -7.039062 7.1875 -6.375 C 6.84375 -5.71875 6.328125 -5.007812 5.640625 -4.25 L 2.5 -0.734375 L 2.34375 -0.9375 Z M 7.609375 -0.9375 "/></g></g></g><g fill="#201f1f" fill-opacity="1"><g transform="translate(9.82131, 17.167436)"><g><path d="M 2.859375 0.046875 C 2.734375 0.046875 2.613281 0.00390625 2.5 -0.078125 C 2.394531 -0.160156 2.34375 -0.269531 2.34375 -0.40625 C 2.34375 -0.476562 2.359375 -0.554688 2.390625 -0.640625 L 6.671875 -10.453125 L 6.84375 -10.234375 L 1.40625 -10.234375 C 1.28125 -10.234375 1.171875 -10.273438 1.078125 -10.359375 C 0.992188 -10.453125 0.953125 -10.566406 0.953125 -10.703125 C 0.953125 -10.835938 0.992188 -10.945312 1.078125 -11.03125 C 1.171875 -11.113281 1.28125 -11.15625 1.40625 -11.15625 L 7.3125 -11.15625 C 7.46875 -11.15625 7.582031 -11.113281 7.65625 -11.03125 C 7.738281 -10.945312 7.78125 -10.84375 7.78125 -10.71875 C 7.78125 -10.625 7.757812 -10.539062 7.71875 -10.46875 L 3.3125 -0.265625 C 3.28125 -0.171875 3.21875 -0.09375 3.125 -0.03125 C 3.039062 0.0195312 2.953125 0.046875 2.859375 0.046875 Z M 2.859375 0.046875 "/></g></g></g></g></g></g><g clip-path="url(#6e7224e068)"><g transform="matrix(1, 0, 0, 1, 631, 600)"><g clip-path="url(#dcddaa9df3)"><g fill="#201f1f" fill-opacity="1"><g transform="translate(0.769386, 17.167436)"><g><path d="M 7.609375 -0.9375 C 7.742188 -0.9375 7.851562 -0.890625 7.9375 -0.796875 C 8.03125 -0.703125 8.078125 -0.59375 8.078125 -0.46875 C 8.078125 -0.320312 8.03125 -0.207031 7.9375 -0.125 C 7.851562 -0.0390625 7.742188 0 7.609375 0 L 1.59375 0 C 1.445312 0 1.320312 -0.0351562 1.21875 -0.109375 C 1.125 -0.191406 1.078125 -0.316406 1.078125 -0.484375 C 1.078125 -0.597656 1.117188 -0.707031 1.203125 -0.8125 L 4.921875 -4.921875 C 5.503906 -5.554688 5.941406 -6.144531 6.234375 -6.6875 C 6.535156 -7.226562 6.6875 -7.710938 6.6875 -8.140625 C 6.6875 -8.847656 6.46875 -9.414062 6.03125 -9.84375 C 5.601562 -10.269531 5.03125 -10.484375 4.3125 -10.484375 C 3.976562 -10.484375 3.644531 -10.414062 3.3125 -10.28125 C 2.988281 -10.144531 2.703125 -9.960938 2.453125 -9.734375 C 2.203125 -9.503906 2.003906 -9.25 1.859375 -8.96875 C 1.796875 -8.851562 1.726562 -8.773438 1.65625 -8.734375 C 1.59375 -8.691406 1.515625 -8.671875 1.421875 -8.671875 C 1.296875 -8.671875 1.1875 -8.710938 1.09375 -8.796875 C 1 -8.878906 0.953125 -8.976562 0.953125 -9.09375 C 0.953125 -9.164062 0.96875 -9.238281 1 -9.3125 C 1.039062 -9.382812 1.097656 -9.472656 1.171875 -9.578125 C 1.367188 -9.910156 1.632812 -10.210938 1.96875 -10.484375 C 2.3125 -10.765625 2.695312 -10.988281 3.125 -11.15625 C 3.550781 -11.320312 3.96875 -11.40625 4.375 -11.40625 C 5.050781 -11.40625 5.640625 -11.273438 6.140625 -11.015625 C 6.640625 -10.753906 7.023438 -10.382812 7.296875 -9.90625 C 7.566406 -9.425781 7.703125 -8.859375 7.703125 -8.203125 C 7.703125 -7.648438 7.53125 -7.039062 7.1875 -6.375 C 6.84375 -5.71875 6.328125 -5.007812 5.640625 -4.25 L 2.5 -0.734375 L 2.34375 -0.9375 Z M 7.609375 -0.9375 "/></g></g></g><g fill="#201f1f" fill-opacity="1"><g transform="translate(9.668023, 17.167436)"><g><path d="M 5.84375 -5.65625 L 5.796875 -5.796875 C 6.160156 -5.660156 6.492188 -5.453125 6.796875 -5.171875 C 7.097656 -4.898438 7.335938 -4.578125 7.515625 -4.203125 C 7.703125 -3.835938 7.796875 -3.4375 7.796875 -3 C 7.796875 -2.425781 7.640625 -1.898438 7.328125 -1.421875 C 7.023438 -0.953125 6.609375 -0.578125 6.078125 -0.296875 C 5.554688 -0.0234375 4.976562 0.109375 4.34375 0.109375 C 3.6875 0.109375 3.097656 -0.0234375 2.578125 -0.296875 C 2.054688 -0.578125 1.644531 -0.953125 1.34375 -1.421875 C 1.039062 -1.898438 0.890625 -2.425781 0.890625 -3 C 0.890625 -3.46875 0.984375 -3.882812 1.171875 -4.25 C 1.359375 -4.625 1.601562 -4.941406 1.90625 -5.203125 C 2.207031 -5.460938 2.523438 -5.660156 2.859375 -5.796875 L 2.8125 -5.640625 C 2.519531 -5.773438 2.25 -5.960938 2 -6.203125 C 1.75 -6.441406 1.539062 -6.726562 1.375 -7.0625 C 1.21875 -7.40625 1.140625 -7.78125 1.140625 -8.1875 C 1.140625 -8.769531 1.28125 -9.289062 1.5625 -9.75 C 1.84375 -10.207031 2.226562 -10.570312 2.71875 -10.84375 C 3.207031 -11.113281 3.75 -11.25 4.34375 -11.25 C 4.925781 -11.25 5.457031 -11.113281 5.9375 -10.84375 C 6.414062 -10.570312 6.796875 -10.207031 7.078125 -9.75 C 7.359375 -9.289062 7.5 -8.769531 7.5 -8.1875 C 7.5 -7.769531 7.414062 -7.394531 7.25 -7.0625 C 7.09375 -6.726562 6.882812 -6.441406 6.625 -6.203125 C 6.375 -5.960938 6.113281 -5.78125 5.84375 -5.65625 Z M 2.140625 -8.1875 C 2.140625 -7.757812 2.238281 -7.382812 2.4375 -7.0625 C 2.644531 -6.738281 2.914062 -6.488281 3.25 -6.3125 C 3.582031 -6.132812 3.945312 -6.046875 4.34375 -6.046875 C 4.726562 -6.046875 5.082031 -6.132812 5.40625 -6.3125 C 5.738281 -6.488281 6.003906 -6.738281 6.203125 -7.0625 C 6.398438 -7.382812 6.5 -7.757812 6.5 -8.1875 C 6.5 -8.820312 6.296875 -9.335938 5.890625 -9.734375 C 5.484375 -10.128906 4.96875 -10.328125 4.34375 -10.328125 C 3.6875 -10.328125 3.15625 -10.128906 2.75 -9.734375 C 2.34375 -9.335938 2.140625 -8.820312 2.140625 -8.1875 Z M 4.34375 -0.796875 C 5.0625 -0.796875 5.648438 -1.003906 6.109375 -1.421875 C 6.566406 -1.847656 6.796875 -2.375 6.796875 -3 C 6.796875 -3.425781 6.679688 -3.8125 6.453125 -4.15625 C 6.234375 -4.5 5.9375 -4.765625 5.5625 -4.953125 C 5.1875 -5.148438 4.78125 -5.25 4.34375 -5.25 C 3.894531 -5.25 3.484375 -5.148438 3.109375 -4.953125 C 2.734375 -4.765625 2.429688 -4.5 2.203125 -4.15625 C 1.984375 -3.8125 1.875 -3.425781 1.875 -3 C 1.875 -2.375 2.097656 -1.847656 2.546875 -1.421875 C 3.003906 -1.003906 3.601562 -0.796875 4.34375 -0.796875 Z M 4.34375 -0.796875 "/></g></g></g></g></g></g><g clip-path="url(#7dfacfe91a)"><g transform="matrix(1, 0, 0, 1, 757, 600)"><g clip-path="url(#20b5ad89a4)"><g fill="#201f1f" fill-opacity="1"><g transform="translate(0.615923, 17.167436)"><g><path d="M 7.609375 -0.9375 C 7.742188 -0.9375 7.851562 -0.890625 7.9375 -0.796875 C 8.03125 -0.703125 8.078125 -0.59375 8.078125 -0.46875 C 8.078125 -0.320312 8.03125 -0.207031 7.9375 -0.125 C 7.851562 -0.0390625 7.742188 0 7.609375 0 L 1.59375 0 C 1.445312 0 1.320312 -0.0351562 1.21875 -0.109375 C 1.125 -0.191406 1.078125 -0.316406 1.078125 -0.484375 C 1.078125 -0.597656 1.117188 -0.707031 1.203125 -0.8125 L 4.921875 -4.921875 C 5.503906 -5.554688 5.941406 -6.144531 6.234375 -6.6875 C 6.535156 -7.226562 6.6875 -7.710938 6.6875 -8.140625 C 6.6875 -8.847656 6.46875 -9.414062 6.03125 -9.84375 C 5.601562 -10.269531 5.03125 -10.484375 4.3125 -10.484375 C 3.976562 -10.484375 3.644531 -10.414062 3.3125 -10.28125 C 2.988281 -10.144531 2.703125 -9.960938 2.453125 -9.734375 C 2.203125 -9.503906 2.003906 -9.25 1.859375 -8.96875 C 1.796875 -8.851562 1.726562 -8.773438 1.65625 -8.734375 C 1.59375 -8.691406 1.515625 -8.671875 1.421875 -8.671875 C 1.296875 -8.671875 1.1875 -8.710938 1.09375 -8.796875 C 1 -8.878906 0.953125 -8.976562 0.953125 -9.09375 C 0.953125 -9.164062 0.96875 -9.238281 1 -9.3125 C 1.039062 -9.382812 1.097656 -9.472656 1.171875 -9.578125 C 1.367188 -9.910156 1.632812 -10.210938 1.96875 -10.484375 C 2.3125 -10.765625 2.695312 -10.988281 3.125 -11.15625 C 3.550781 -11.320312 3.96875 -11.40625 4.375 -11.40625 C 5.050781 -11.40625 5.640625 -11.273438 6.140625 -11.015625 C 6.640625 -10.753906 7.023438 -10.382812 7.296875 -9.90625 C 7.566406 -9.425781 7.703125 -8.859375 7.703125 -8.203125 C 7.703125 -7.648438 7.53125 -7.039062 7.1875 -6.375 C 6.84375 -5.71875 6.328125 -5.007812 5.640625 -4.25 L 2.5 -0.734375 L 2.34375 -0.9375 Z M 7.609375 -0.9375 "/></g></g></g><g fill="#201f1f" fill-opacity="1"><g transform="translate(9.51456, 17.167436)"><g><path d="M 4.453125 -11.421875 C 5.078125 -11.421875 5.625 -11.304688 6.09375 -11.078125 C 6.5625 -10.859375 6.941406 -10.554688 7.234375 -10.171875 C 7.535156 -9.796875 7.757812 -9.363281 7.90625 -8.875 C 8.0625 -8.394531 8.140625 -7.90625 8.140625 -7.40625 C 8.140625 -6.894531 8.070312 -6.347656 7.9375 -5.765625 C 7.800781 -5.179688 7.601562 -4.585938 7.34375 -3.984375 C 7.082031 -3.390625 6.753906 -2.828125 6.359375 -2.296875 C 5.972656 -1.765625 5.515625 -1.28125 4.984375 -0.84375 C 4.460938 -0.414062 3.882812 -0.0859375 3.25 0.140625 C 3.15625 0.160156 3.082031 0.171875 3.03125 0.171875 C 2.90625 0.171875 2.789062 0.125 2.6875 0.03125 C 2.582031 -0.0507812 2.53125 -0.171875 2.53125 -0.328125 C 2.53125 -0.429688 2.5625 -0.519531 2.625 -0.59375 C 2.695312 -0.675781 2.796875 -0.738281 2.921875 -0.78125 C 3.535156 -1.039062 4.125 -1.425781 4.6875 -1.9375 C 5.257812 -2.445312 5.75 -3.035156 6.15625 -3.703125 C 6.570312 -4.367188 6.847656 -5.0625 6.984375 -5.78125 L 7.328125 -5.984375 C 7.140625 -5.648438 6.890625 -5.34375 6.578125 -5.0625 C 6.273438 -4.78125 5.925781 -4.5625 5.53125 -4.40625 C 5.144531 -4.25 4.71875 -4.171875 4.25 -4.171875 C 3.570312 -4.171875 2.984375 -4.335938 2.484375 -4.671875 C 1.984375 -5.015625 1.597656 -5.460938 1.328125 -6.015625 C 1.066406 -6.578125 0.9375 -7.179688 0.9375 -7.828125 C 0.9375 -8.453125 1.085938 -9.035156 1.390625 -9.578125 C 1.691406 -10.128906 2.109375 -10.570312 2.640625 -10.90625 C 3.171875 -11.25 3.773438 -11.421875 4.453125 -11.421875 Z M 4.484375 -10.484375 C 3.972656 -10.484375 3.523438 -10.367188 3.140625 -10.140625 C 2.753906 -9.921875 2.453125 -9.609375 2.234375 -9.203125 C 2.015625 -8.804688 1.90625 -8.347656 1.90625 -7.828125 C 1.90625 -7.347656 2 -6.898438 2.1875 -6.484375 C 2.375 -6.066406 2.65625 -5.734375 3.03125 -5.484375 C 3.40625 -5.234375 3.863281 -5.109375 4.40625 -5.109375 C 4.976562 -5.109375 5.46875 -5.234375 5.875 -5.484375 C 6.28125 -5.734375 6.59375 -6.066406 6.8125 -6.484375 C 7.039062 -6.898438 7.15625 -7.363281 7.15625 -7.875 C 7.15625 -8.332031 7.046875 -8.757812 6.828125 -9.15625 C 6.617188 -9.550781 6.316406 -9.867188 5.921875 -10.109375 C 5.523438 -10.359375 5.046875 -10.484375 4.484375 -10.484375 Z M 4.484375 -10.484375 "/></g></g></g></g></g></g><g clip-path="url(#dfa1493340)"><path stroke-linecap="butt" transform="matrix(0.749954, 0, 0, 0.749954, 0.023454, 0.00002)" fill-opacity="1" fill="#000000" fill-rule="nonzero" stroke-linejoin="miter" d="M 0.677103 1.349015 L 0.677103 998.712552 M 168.479109 1.349015 L 168.479109 998.712552 M 336.286324 1.349015 L 336.286324 998.712552 M 504.093539 1.349015 L 504.093539 998.712552 M 671.900753 1.349015 L 671.900753 998.712552 M 839.702759 1.349015 L 839.702759 998.712552 M 1007.509974 1.349015 L 1007.509974 998.712552 M 1175.317189 1.349015 L 1175.317189 998.712552 M -0.0000220293 0.677098 L 1175.989105 0.677098 M -0.0000220293 200.418572 L 1175.989105 200.418572 M -0.0000220293 400.160047 L 1175.989105 400.160047 M -0.0000220293 599.901521 L 1175.989105 599.901521 M -0.0000220293 799.642995 L 1175.989105 799.642995 M -0.0000220293 999.384469 L 1175.989105 999.384469 " stroke="#000000" stroke-width="1.350497" stroke-opacity="1" stroke-miterlimit="4"/></g><g fill="#000000" fill-opacity="1"><g transform="translate(94.588866, 728.413348)"><g><path d="M 1.515625 -1.75 C 1.578125 -1.75 1.640625 -1.738281 1.703125 -1.71875 C 1.765625 -1.695312 1.835938 -1.644531 1.921875 -1.5625 C 2.160156 -1.3125 2.445312 -1.117188 2.78125 -0.984375 C 3.113281 -0.859375 3.488281 -0.796875 3.90625 -0.796875 C 4.46875 -0.796875 4.976562 -0.921875 5.4375 -1.171875 C 5.894531 -1.421875 6.257812 -1.769531 6.53125 -2.21875 C 6.800781 -2.675781 6.9375 -3.191406 6.9375 -3.765625 C 6.9375 -4.429688 6.789062 -4.960938 6.5 -5.359375 C 6.21875 -5.765625 5.847656 -6.066406 5.390625 -6.265625 C 4.941406 -6.460938 4.488281 -6.5625 4.03125 -6.5625 C 3.90625 -6.5625 3.78125 -6.550781 3.65625 -6.53125 C 3.539062 -6.519531 3.429688 -6.503906 3.328125 -6.484375 C 3.222656 -6.460938 3.144531 -6.453125 3.09375 -6.453125 C 2.9375 -6.453125 2.816406 -6.5 2.734375 -6.59375 C 2.660156 -6.6875 2.625 -6.8125 2.625 -6.96875 C 2.625 -7.039062 2.640625 -7.109375 2.671875 -7.171875 C 2.710938 -7.234375 2.757812 -7.304688 2.8125 -7.390625 L 6.28125 -11.15625 L 6.484375 -10.890625 L 1.3125 -10.890625 C 1.175781 -10.890625 1.054688 -10.9375 0.953125 -11.03125 C 0.859375 -11.125 0.8125 -11.238281 0.8125 -11.375 C 0.8125 -11.507812 0.859375 -11.625 0.953125 -11.71875 C 1.054688 -11.8125 1.175781 -11.859375 1.3125 -11.859375 L 7.046875 -11.859375 C 7.242188 -11.859375 7.378906 -11.796875 7.453125 -11.671875 C 7.535156 -11.554688 7.578125 -11.441406 7.578125 -11.328125 C 7.578125 -11.265625 7.554688 -11.203125 7.515625 -11.140625 C 7.484375 -11.078125 7.441406 -11.007812 7.390625 -10.9375 L 3.921875 -7.171875 L 3.546875 -7.390625 C 3.578125 -7.421875 3.691406 -7.457031 3.890625 -7.5 C 4.097656 -7.539062 4.257812 -7.5625 4.375 -7.5625 C 5 -7.5625 5.585938 -7.410156 6.140625 -7.109375 C 6.691406 -6.816406 7.140625 -6.394531 7.484375 -5.84375 C 7.828125 -5.289062 8 -4.613281 8 -3.8125 C 8 -3.007812 7.8125 -2.304688 7.4375 -1.703125 C 7.0625 -1.109375 6.554688 -0.644531 5.921875 -0.3125 C 5.285156 0.0078125 4.582031 0.171875 3.8125 0.171875 C 3.34375 0.171875 2.878906 0.09375 2.421875 -0.0625 C 1.960938 -0.226562 1.566406 -0.46875 1.234375 -0.78125 C 1.148438 -0.851562 1.085938 -0.921875 1.046875 -0.984375 C 1.015625 -1.054688 1 -1.125 1 -1.1875 C 1 -1.332031 1.046875 -1.460938 1.140625 -1.578125 C 1.242188 -1.691406 1.367188 -1.75 1.515625 -1.75 Z M 1.515625 -1.75 "/></g></g></g><g fill="#000000" fill-opacity="1"><g transform="translate(103.529023, 728.413348)"><g><path d="M 5.0625 0.171875 C 4.15625 0.171875 3.394531 -0.0976562 2.78125 -0.640625 C 2.164062 -1.191406 1.703125 -1.929688 1.390625 -2.859375 C 1.085938 -3.785156 0.9375 -4.820312 0.9375 -5.96875 C 0.9375 -7.132812 1.085938 -8.179688 1.390625 -9.109375 C 1.703125 -10.035156 2.164062 -10.765625 2.78125 -11.296875 C 3.394531 -11.835938 4.15625 -12.109375 5.0625 -12.109375 C 6 -12.109375 6.769531 -11.835938 7.375 -11.296875 C 7.988281 -10.765625 8.445312 -10.035156 8.75 -9.109375 C 9.0625 -8.179688 9.21875 -7.132812 9.21875 -5.96875 C 9.21875 -4.820312 9.0625 -3.785156 8.75 -2.859375 C 8.445312 -1.929688 7.988281 -1.191406 7.375 -0.640625 C 6.769531 -0.0976562 6 0.171875 5.0625 0.171875 Z M 5.0625 -0.890625 C 5.738281 -0.890625 6.300781 -1.097656 6.75 -1.515625 C 7.195312 -1.941406 7.535156 -2.535156 7.765625 -3.296875 C 8.003906 -4.066406 8.125 -4.957031 8.125 -5.96875 C 8.125 -6.988281 8.003906 -7.882812 7.765625 -8.65625 C 7.535156 -9.425781 7.195312 -10.019531 6.75 -10.4375 C 6.300781 -10.863281 5.738281 -11.078125 5.0625 -11.078125 C 4.40625 -11.078125 3.851562 -10.863281 3.40625 -10.4375 C 2.957031 -10.019531 2.613281 -9.425781 2.375 -8.65625 C 2.144531 -7.882812 2.03125 -6.988281 2.03125 -5.96875 C 2.03125 -4.957031 2.144531 -4.066406 2.375 -3.296875 C 2.613281 -2.535156 2.957031 -1.941406 3.40625 -1.515625 C 3.851562 -1.097656 4.40625 -0.890625 5.0625 -0.890625 Z M 5.0625 -0.890625 "/></g></g></g><g clip-path="url(#2421b92ec3)"><path stroke-linecap="butt" transform="matrix(0.478823, -0.577199, 0.577199, 0.478823, -0.00139097, 749.492503)" fill="none" stroke-linejoin="miter" d="M 0.00306259 0.500671 L 262.478144 0.501562 " stroke="#000000" stroke-width="1" stroke-opacity="1" stroke-miterlimit="4"/></g></g></g></svg>