<svg xmlns="http://www.w3.org/2000/svg" xmlns:xlink="http://www.w3.org/1999/xlink" width="1176" zoomAndPan="magnify" viewBox="0 0 882 749.999995" height="1000" preserveAspectRatio="xMidYMid meet" version="1.0"><defs><g/><clipPath id="9983e35fb2"><path d="M 380 1.21875 L 388 1.21875 L 388 27 L 380 27 Z M 380 1.21875 " clip-rule="nonzero"/></clipPath><clipPath id="3c0369d621"><path d="M 0.160156 6 L 6 6 L 6 21 L 0.160156 21 Z M 0.160156 6 " clip-rule="nonzero"/></clipPath><clipPath id="64d14452d3"><rect x="0" width="8" y="0" height="26"/></clipPath><clipPath id="b738b3ba27"><path d="M 505 1.21875 L 517 1.21875 L 517 27 L 505 27 Z M 505 1.21875 " clip-rule="nonzero"/></clipPath><clipPath id="036ef3bf8c"><rect x="0" width="12" y="0" height="26"/></clipPath><clipPath id="755c3bbe1c"><path d="M 631 1.21875 L 643 1.21875 L 643 27 L 631 27 Z M 631 1.21875 " clip-rule="nonzero"/></clipPath><clipPath id="42ef2c2250"><rect x="0" width="12" y="0" height="26"/></clipPath><clipPath id="91db1f3821"><path d="M 757 1.21875 L 768 1.21875 L 768 27 L 757 27 Z M 757 1.21875 " clip-rule="nonzero"/></clipPath><clipPath id="fdd7875933"><path d="M 0.441406 6 L 11 6 L 11 21 L 0.441406 21 Z M 0.441406 6 " clip-rule="nonzero"/></clipPath><clipPath id="adece16e42"><rect x="0" width="11" y="0" height="26"/></clipPath><clipPath id="879475c2c0"><rect x="0" width="12" y="0" height="26"/></clipPath><clipPath id="e5f8fc5819"><rect x="0" width="12" y="0" height="26"/></clipPath><clipPath id="e1b867a432"><rect x="0" width="11" y="0" height="26"/></clipPath><clipPath id="85e109867a"><rect x="0" width="12" y="0" height="26"/></clipPath><clipPath id="579d1e2de9"><rect x="0" width="12" y="0" height="26"/></clipPath><clipPath id="0f271b675a"><rect x="0" width="20" y="0" height="26"/></clipPath><clipPath id="3fa15cc78d"><rect x="0" width="16" y="0" height="26"/></clipPath><clipPath id="6ccf0b876a"><rect x="0" width="20" y="0" height="25"/></clipPath><clipPath id="1cb67dbed2"><rect x="0" width="19" y="0" height="25"/></clipPath><clipPath id="887388d17e"><path d="M 0.160156 6 L 6 6 L 6 20 L 0.160156 20 Z M 0.160156 6 " clip-rule="nonzero"/></clipPath><clipPath id="0b170ae7e3"><rect x="0" width="19" y="0" height="25"/></clipPath><clipPath id="e6526df2d8"><path d="M 0.160156 6 L 6 6 L 6 20 L 0.160156 20 Z M 0.160156 6 " clip-rule="nonzero"/></clipPath><clipPath id="eb424f3574"><rect x="0" width="19" y="0" height="25"/></clipPath><clipPath id="ea2405f230"><rect x="0" width="19" y="0" height="25"/></clipPath><clipPath id="867a53f461"><rect x="0" width="19" y="0" height="25"/></clipPath><clipPath id="6af9de2921"><rect x="0" width="19" y="0" height="25"/></clipPath><clipPath id="071d93bfc1"><path d="M 2 450.488281 L 22 450.488281 L 22 476 L 2 476 Z M 2 450.488281 " clip-rule="nonzero"/></clipPath><clipPath id="6d5e562bea"><rect x="0" width="20" y="0" height="26"/></clipPath><clipPath id="445ccf13dc"><path d="M 128 450.488281 L 152 450.488281 L 152 476 L 128 476 Z M 128 450.488281 " clip-rule="nonzero"/></clipPath><clipPath id="fc67cda91b"><rect x="0" width="24" y="0" height="26"/></clipPath><clipPath id="b2283403d9"><path d="M 254 450.488281 L 273 450.488281 L 273 476 L 254 476 Z M 254 450.488281 " clip-rule="nonzero"/></clipPath><clipPath id="ac52e14a7a"><rect x="0" width="19" y="0" height="26"/></clipPath><clipPath id="3b2e5c9fbb"><path d="M 380 450.488281 L 403 450.488281 L 403 476 L 380 476 Z M 380 450.488281 " clip-rule="nonzero"/></clipPath><clipPath id="feb066deac"><rect x="0" width="23" y="0" height="26"/></clipPath><clipPath id="5ea6516afe"><path d="M 505 450.488281 L 528 450.488281 L 528 476 L 505 476 Z M 505 450.488281 " clip-rule="nonzero"/></clipPath><clipPath id="ca8c5bd070"><rect x="0" width="23" y="0" height="26"/></clipPath><clipPath id="f91d7703e9"><path d="M 631 450.488281 L 654 450.488281 L 654 476 L 631 476 Z M 631 450.488281 " clip-rule="nonzero"/></clipPath><clipPath id="2e0f1a5f2b"><rect x="0" width="23" y="0" height="26"/></clipPath><clipPath id="a774b0151f"><path d="M 757 450.488281 L 780 450.488281 L 780 476 L 757 476 Z M 757 450.488281 " clip-rule="nonzero"/></clipPath><clipPath id="ec09d6a748"><rect x="0" width="23" y="0" height="26"/></clipPath><clipPath id="db07e2c616"><path d="M 2 600.242188 L 25 600.242188 L 25 626 L 2 626 Z M 2 600.242188 " clip-rule="nonzero"/></clipPath><clipPath id="e2ad4a5055"><rect x="0" width="23" y="0" height="26"/></clipPath><clipPath id="42edda5d39"><path d="M 128 600.242188 L 150 600.242188 L 150 626 L 128 626 Z M 128 600.242188 " clip-rule="nonzero"/></clipPath><clipPath id="d2cb470f29"><rect x="0" width="22" y="0" height="26"/></clipPath><clipPath id="a95ff920bc"><path d="M 254 600.242188 L 276 600.242188 L 276 626 L 254 626 Z M 254 600.242188 " clip-rule="nonzero"/></clipPath><clipPath id="2ae1414228"><rect x="0" width="22" y="0" height="26"/></clipPath><clipPath id="85171111d7"><path d="M 380 600.242188 L 403 600.242188 L 403 626 L 380 626 Z M 380 600.242188 " clip-rule="nonzero"/></clipPath><clipPath id="16077b6b51"><rect x="0" width="23" y="0" height="26"/></clipPath><clipPath id="e9d0ade905"><path d="M 505 600.242188 L 528 600.242188 L 528 626 L 505 626 Z M 505 600.242188 " clip-rule="nonzero"/></clipPath><clipPath id="695c6fc13b"><rect x="0" width="23" y="0" height="26"/></clipPath><clipPath id="e67d518b78"><path d="M 631 600.242188 L 650 600.242188 L 650 626 L 631 626 Z M 631 600.242188 " clip-rule="nonzero"/></clipPath><clipPath id="e884425e55"><rect x="0" width="19" y="0" height="26"/></clipPath></defs><g clip-path="url(#9983e35fb2)"><g transform="matrix(1, 0, 0, 1, 380, 1)"><g clip-path="url(#64d14452d3)"><g clip-path="url(#3c0369d621)"><g fill="#201f1f" fill-opacity="1"><g transform="translate(0.169594, 20.306456)"><g><path d="M 4.359375 0 C 4.179688 0 4.035156 -0.0546875 3.921875 -0.171875 C 3.804688 -0.285156 3.75 -0.421875 3.75 -0.578125 L 3.75 -12.203125 L 3.953125 -12.015625 L 1.390625 -10.296875 C 1.285156 -10.210938 1.175781 -10.171875 1.0625 -10.171875 C 0.90625 -10.171875 0.765625 -10.234375 0.640625 -10.359375 C 0.523438 -10.492188 0.46875 -10.640625 0.46875 -10.796875 C 0.46875 -11.003906 0.566406 -11.164062 0.765625 -11.28125 L 4 -13.421875 C 4.070312 -13.472656 4.148438 -13.503906 4.234375 -13.515625 C 4.316406 -13.523438 4.394531 -13.523438 4.46875 -13.515625 C 4.632812 -13.503906 4.757812 -13.441406 4.84375 -13.328125 C 4.9375 -13.222656 4.984375 -13.09375 4.984375 -12.9375 L 4.984375 -0.578125 C 4.984375 -0.421875 4.925781 -0.285156 4.8125 -0.171875 C 4.695312 -0.0546875 4.546875 0 4.359375 0 Z M 4.359375 0 "/></g></g></g></g></g></g></g><g clip-path="url(#b738b3ba27)"><g transform="matrix(1, 0, 0, 1, 505, 1)"><g clip-path="url(#036ef3bf8c)"><g fill="#201f1f" fill-opacity="1"><g transform="translate(0.98701, 20.306456)"><g><path d="M 9.15625 -1.125 C 9.3125 -1.125 9.441406 -1.066406 9.546875 -0.953125 C 9.660156 -0.847656 9.71875 -0.71875 9.71875 -0.5625 C 9.71875 -0.394531 9.660156 -0.257812 9.546875 -0.15625 C 9.441406 -0.0507812 9.3125 0 9.15625 0 L 1.90625 0 C 1.738281 0 1.59375 -0.046875 1.46875 -0.140625 C 1.351562 -0.242188 1.296875 -0.390625 1.296875 -0.578125 C 1.296875 -0.722656 1.347656 -0.859375 1.453125 -0.984375 L 5.90625 -5.90625 C 6.613281 -6.675781 7.144531 -7.382812 7.5 -8.03125 C 7.851562 -8.6875 8.03125 -9.273438 8.03125 -9.796875 C 8.03125 -10.640625 7.769531 -11.316406 7.25 -11.828125 C 6.738281 -12.347656 6.046875 -12.609375 5.171875 -12.609375 C 4.773438 -12.609375 4.378906 -12.523438 3.984375 -12.359375 C 3.597656 -12.191406 3.25 -11.972656 2.9375 -11.703125 C 2.632812 -11.429688 2.398438 -11.125 2.234375 -10.78125 C 2.160156 -10.644531 2.082031 -10.550781 2 -10.5 C 1.914062 -10.445312 1.820312 -10.421875 1.71875 -10.421875 C 1.5625 -10.421875 1.425781 -10.46875 1.3125 -10.5625 C 1.195312 -10.664062 1.140625 -10.789062 1.140625 -10.9375 C 1.140625 -11.019531 1.160156 -11.109375 1.203125 -11.203125 C 1.253906 -11.296875 1.320312 -11.398438 1.40625 -11.515625 C 1.632812 -11.910156 1.957031 -12.273438 2.375 -12.609375 C 2.789062 -12.941406 3.25 -13.207031 3.75 -13.40625 C 4.257812 -13.613281 4.757812 -13.71875 5.25 -13.71875 C 6.070312 -13.71875 6.78125 -13.554688 7.375 -13.234375 C 7.976562 -12.921875 8.441406 -12.476562 8.765625 -11.90625 C 9.097656 -11.332031 9.265625 -10.65625 9.265625 -9.875 C 9.265625 -9.195312 9.054688 -8.460938 8.640625 -7.671875 C 8.222656 -6.878906 7.601562 -6.03125 6.78125 -5.125 L 3.015625 -0.890625 L 2.8125 -1.125 Z M 9.15625 -1.125 "/></g></g></g></g></g></g><g clip-path="url(#755c3bbe1c)"><g transform="matrix(1, 0, 0, 1, 631, 1)"><g clip-path="url(#42ef2c2250)"><g fill="#201f1f" fill-opacity="1"><g transform="translate(0.804367, 20.306456)"><g><path d="M 1.71875 -1.984375 C 1.78125 -1.984375 1.847656 -1.96875 1.921875 -1.9375 C 1.992188 -1.914062 2.082031 -1.863281 2.1875 -1.78125 C 2.457031 -1.5 2.773438 -1.28125 3.140625 -1.125 C 3.515625 -0.976562 3.941406 -0.90625 4.421875 -0.90625 C 5.054688 -0.90625 5.632812 -1.046875 6.15625 -1.328125 C 6.675781 -1.609375 7.085938 -2.003906 7.390625 -2.515625 C 7.703125 -3.023438 7.859375 -3.609375 7.859375 -4.265625 C 7.859375 -5.015625 7.691406 -5.617188 7.359375 -6.078125 C 7.035156 -6.535156 6.617188 -6.875 6.109375 -7.09375 C 5.597656 -7.320312 5.082031 -7.4375 4.5625 -7.4375 C 4.414062 -7.4375 4.273438 -7.425781 4.140625 -7.40625 C 4.003906 -7.382812 3.878906 -7.359375 3.765625 -7.328125 C 3.648438 -7.304688 3.5625 -7.296875 3.5 -7.296875 C 3.332031 -7.296875 3.203125 -7.347656 3.109375 -7.453125 C 3.015625 -7.566406 2.96875 -7.707031 2.96875 -7.875 C 2.96875 -7.96875 2.988281 -8.050781 3.03125 -8.125 C 3.070312 -8.195312 3.125 -8.273438 3.1875 -8.359375 L 7.109375 -12.625 L 7.34375 -12.328125 L 1.484375 -12.328125 C 1.328125 -12.328125 1.191406 -12.378906 1.078125 -12.484375 C 0.972656 -12.597656 0.921875 -12.726562 0.921875 -12.875 C 0.921875 -13.03125 0.972656 -13.160156 1.078125 -13.265625 C 1.191406 -13.367188 1.328125 -13.421875 1.484375 -13.421875 L 7.96875 -13.421875 C 8.1875 -13.421875 8.34375 -13.351562 8.4375 -13.21875 C 8.53125 -13.082031 8.578125 -12.953125 8.578125 -12.828125 C 8.578125 -12.742188 8.554688 -12.664062 8.515625 -12.59375 C 8.472656 -12.53125 8.421875 -12.457031 8.359375 -12.375 L 4.4375 -8.109375 L 4.015625 -8.359375 C 4.054688 -8.398438 4.1875 -8.441406 4.40625 -8.484375 C 4.632812 -8.535156 4.8125 -8.5625 4.9375 -8.5625 C 5.644531 -8.5625 6.3125 -8.390625 6.9375 -8.046875 C 7.5625 -7.710938 8.070312 -7.234375 8.46875 -6.609375 C 8.863281 -5.984375 9.0625 -5.21875 9.0625 -4.3125 C 9.0625 -3.40625 8.847656 -2.613281 8.421875 -1.9375 C 7.992188 -1.257812 7.421875 -0.734375 6.703125 -0.359375 C 5.984375 0.00390625 5.1875 0.1875 4.3125 0.1875 C 3.78125 0.1875 3.253906 0.0976562 2.734375 -0.078125 C 2.222656 -0.253906 1.773438 -0.523438 1.390625 -0.890625 C 1.296875 -0.960938 1.226562 -1.035156 1.1875 -1.109375 C 1.15625 -1.191406 1.140625 -1.273438 1.140625 -1.359375 C 1.140625 -1.503906 1.191406 -1.644531 1.296875 -1.78125 C 1.410156 -1.914062 1.550781 -1.984375 1.71875 -1.984375 Z M 1.71875 -1.984375 "/></g></g></g></g></g></g><g clip-path="url(#91db1f3821)"><g transform="matrix(1, 0, 0, 1, 757, 1)"><g clip-path="url(#adece16e42)"><g clip-path="url(#fdd7875933)"><g fill="#201f1f" fill-opacity="1"><g transform="translate(0.621841, 20.306456)"><g><path d="M 7.09375 0 C 6.925781 0 6.789062 -0.0546875 6.6875 -0.171875 C 6.582031 -0.285156 6.53125 -0.421875 6.53125 -0.578125 L 6.53125 -11.921875 L 6.78125 -11.765625 L 1.703125 -5.046875 L 1.640625 -5.25 L 9.0625 -5.25 C 9.21875 -5.25 9.347656 -5.195312 9.453125 -5.09375 C 9.566406 -4.988281 9.625 -4.863281 9.625 -4.71875 C 9.625 -4.5625 9.566406 -4.429688 9.453125 -4.328125 C 9.347656 -4.222656 9.21875 -4.171875 9.0625 -4.171875 L 0.84375 -4.171875 C 0.695312 -4.171875 0.5625 -4.226562 0.4375 -4.34375 C 0.320312 -4.46875 0.265625 -4.609375 0.265625 -4.765625 C 0.265625 -4.910156 0.3125 -5.039062 0.40625 -5.15625 L 6.625 -13.28125 C 6.6875 -13.375 6.765625 -13.4375 6.859375 -13.46875 C 6.960938 -13.5 7.046875 -13.515625 7.109375 -13.515625 C 7.273438 -13.515625 7.410156 -13.457031 7.515625 -13.34375 C 7.628906 -13.226562 7.6875 -13.09375 7.6875 -12.9375 L 7.6875 -0.578125 C 7.6875 -0.421875 7.628906 -0.285156 7.515625 -0.171875 C 7.398438 -0.0546875 7.257812 0 7.09375 0 Z M 7.09375 0 "/></g></g></g></g></g></g></g><g transform="matrix(1, 0, 0, 1, 2, 151)"><g clip-path="url(#879475c2c0)"><g fill="#201f1f" fill-opacity="1"><g transform="translate(0.717401, 20.062695)"><g><path d="M 4.515625 0.03125 C 3.992188 0.03125 3.460938 -0.0507812 2.921875 -0.21875 C 2.390625 -0.394531 1.914062 -0.65625 1.5 -1 C 1.425781 -1.0625 1.363281 -1.140625 1.3125 -1.234375 C 1.269531 -1.328125 1.25 -1.414062 1.25 -1.5 C 1.25 -1.632812 1.300781 -1.757812 1.40625 -1.875 C 1.507812 -2 1.644531 -2.0625 1.8125 -2.0625 C 1.957031 -2.0625 2.097656 -2.003906 2.234375 -1.890625 C 2.578125 -1.628906 2.941406 -1.425781 3.328125 -1.28125 C 3.722656 -1.144531 4.117188 -1.078125 4.515625 -1.078125 C 5.273438 -1.078125 5.9375 -1.222656 6.5 -1.515625 C 7.070312 -1.804688 7.507812 -2.21875 7.8125 -2.75 C 8.125 -3.28125 8.28125 -3.898438 8.28125 -4.609375 C 8.28125 -5.265625 8.140625 -5.832031 7.859375 -6.3125 C 7.578125 -6.800781 7.175781 -7.179688 6.65625 -7.453125 C 6.132812 -7.734375 5.519531 -7.875 4.8125 -7.875 C 4.34375 -7.875 3.914062 -7.800781 3.53125 -7.65625 C 3.15625 -7.519531 2.828125 -7.378906 2.546875 -7.234375 C 2.273438 -7.085938 2.054688 -7.015625 1.890625 -7.015625 C 1.734375 -7.015625 1.609375 -7.050781 1.515625 -7.125 C 1.421875 -7.195312 1.359375 -7.289062 1.328125 -7.40625 C 1.296875 -7.53125 1.289062 -7.65625 1.3125 -7.78125 L 2.140625 -12.9375 C 2.148438 -13.050781 2.207031 -13.15625 2.3125 -13.25 C 2.425781 -13.351562 2.570312 -13.40625 2.75 -13.40625 L 8.5625 -13.40625 C 8.707031 -13.40625 8.832031 -13.347656 8.9375 -13.234375 C 9.050781 -13.128906 9.109375 -13 9.109375 -12.84375 C 9.109375 -12.675781 9.050781 -12.535156 8.9375 -12.421875 C 8.832031 -12.316406 8.707031 -12.265625 8.5625 -12.265625 L 3.015625 -12.265625 L 3.1875 -12.4375 L 2.390625 -7.859375 L 2.046875 -8.109375 C 2.210938 -8.234375 2.453125 -8.359375 2.765625 -8.484375 C 3.085938 -8.617188 3.441406 -8.734375 3.828125 -8.828125 C 4.222656 -8.929688 4.640625 -8.984375 5.078125 -8.984375 C 5.910156 -8.984375 6.65625 -8.796875 7.3125 -8.421875 C 7.96875 -8.054688 8.484375 -7.546875 8.859375 -6.890625 C 9.242188 -6.242188 9.4375 -5.5 9.4375 -4.65625 C 9.4375 -3.71875 9.234375 -2.894531 8.828125 -2.1875 C 8.429688 -1.488281 7.863281 -0.941406 7.125 -0.546875 C 6.394531 -0.160156 5.523438 0.03125 4.515625 0.03125 Z M 4.515625 0.03125 "/></g></g></g></g></g><g transform="matrix(1, 0, 0, 1, 128, 151)"><g clip-path="url(#e5f8fc5819)"><g fill="#201f1f" fill-opacity="1"><g transform="translate(0.534806, 20.062695)"><g><path d="M 5.546875 0.1875 C 4.796875 0.1875 4.140625 0.0507812 3.578125 -0.21875 C 3.023438 -0.488281 2.5625 -0.847656 2.1875 -1.296875 C 1.820312 -1.753906 1.550781 -2.273438 1.375 -2.859375 C 1.207031 -3.441406 1.125 -4.035156 1.125 -4.640625 C 1.125 -5.253906 1.195312 -5.914062 1.34375 -6.625 C 1.5 -7.34375 1.738281 -8.066406 2.0625 -8.796875 C 2.382812 -9.535156 2.78125 -10.234375 3.25 -10.890625 C 3.71875 -11.546875 4.265625 -12.132812 4.890625 -12.65625 C 5.515625 -13.175781 6.222656 -13.585938 7.015625 -13.890625 C 7.097656 -13.910156 7.171875 -13.921875 7.234375 -13.921875 C 7.410156 -13.921875 7.554688 -13.875 7.671875 -13.78125 C 7.796875 -13.695312 7.859375 -13.546875 7.859375 -13.328125 C 7.859375 -13.191406 7.816406 -13.078125 7.734375 -12.984375 C 7.648438 -12.890625 7.535156 -12.816406 7.390625 -12.765625 C 6.847656 -12.535156 6.3125 -12.207031 5.78125 -11.78125 C 5.257812 -11.351562 4.773438 -10.863281 4.328125 -10.3125 C 3.878906 -9.757812 3.492188 -9.164062 3.171875 -8.53125 C 2.859375 -7.894531 2.640625 -7.242188 2.515625 -6.578125 L 2.078125 -6.328125 C 2.316406 -6.753906 2.617188 -7.128906 2.984375 -7.453125 C 3.347656 -7.785156 3.769531 -8.050781 4.25 -8.25 C 4.726562 -8.457031 5.242188 -8.5625 5.796875 -8.5625 C 6.367188 -8.5625 6.898438 -8.4375 7.390625 -8.1875 C 7.878906 -7.945312 8.300781 -7.613281 8.65625 -7.1875 C 9.007812 -6.769531 9.285156 -6.296875 9.484375 -5.765625 C 9.691406 -5.242188 9.796875 -4.703125 9.796875 -4.140625 C 9.796875 -3.378906 9.609375 -2.671875 9.234375 -2.015625 C 8.867188 -1.359375 8.367188 -0.828125 7.734375 -0.421875 C 7.097656 -0.015625 6.367188 0.1875 5.546875 0.1875 Z M 5.515625 -0.921875 C 6.109375 -0.921875 6.632812 -1.054688 7.09375 -1.328125 C 7.5625 -1.597656 7.925781 -1.972656 8.1875 -2.453125 C 8.457031 -2.941406 8.59375 -3.503906 8.59375 -4.140625 C 8.59375 -4.710938 8.476562 -5.242188 8.25 -5.734375 C 8.03125 -6.234375 7.695312 -6.640625 7.25 -6.953125 C 6.800781 -7.273438 6.25 -7.4375 5.59375 -7.4375 C 4.914062 -7.4375 4.328125 -7.28125 3.828125 -6.96875 C 3.335938 -6.664062 2.957031 -6.257812 2.6875 -5.75 C 2.425781 -5.238281 2.296875 -4.679688 2.296875 -4.078125 C 2.296875 -3.535156 2.425781 -3.019531 2.6875 -2.53125 C 2.945312 -2.050781 3.316406 -1.660156 3.796875 -1.359375 C 4.273438 -1.066406 4.847656 -0.921875 5.515625 -0.921875 Z M 5.515625 -0.921875 "/></g></g></g></g></g><g transform="matrix(1, 0, 0, 1, 254, 151)"><g clip-path="url(#e1b867a432)"><g fill="#201f1f" fill-opacity="1"><g transform="translate(0.352208, 20.062695)"><g><path d="M 3.4375 0.0625 C 3.28125 0.0625 3.132812 0.0078125 3 -0.09375 C 2.875 -0.195312 2.8125 -0.328125 2.8125 -0.484375 C 2.8125 -0.578125 2.832031 -0.671875 2.875 -0.765625 L 8.015625 -12.578125 L 8.234375 -12.296875 L 1.703125 -12.296875 C 1.546875 -12.296875 1.410156 -12.347656 1.296875 -12.453125 C 1.191406 -12.566406 1.140625 -12.703125 1.140625 -12.859375 C 1.140625 -13.023438 1.191406 -13.160156 1.296875 -13.265625 C 1.410156 -13.367188 1.546875 -13.421875 1.703125 -13.421875 L 8.78125 -13.421875 C 8.976562 -13.421875 9.117188 -13.367188 9.203125 -13.265625 C 9.296875 -13.160156 9.34375 -13.03125 9.34375 -12.875 C 9.34375 -12.78125 9.328125 -12.6875 9.296875 -12.59375 L 3.984375 -0.328125 C 3.941406 -0.210938 3.867188 -0.117188 3.765625 -0.046875 C 3.660156 0.0234375 3.550781 0.0625 3.4375 0.0625 Z M 3.4375 0.0625 "/></g></g></g></g></g><g transform="matrix(1, 0, 0, 1, 380, 151)"><g clip-path="url(#85e109867a)"><g fill="#201f1f" fill-opacity="1"><g transform="translate(0.169594, 20.062695)"><g><path d="M 7.03125 -6.796875 L 6.96875 -6.96875 C 7.40625 -6.800781 7.800781 -6.550781 8.15625 -6.21875 C 8.519531 -5.894531 8.8125 -5.507812 9.03125 -5.0625 C 9.25 -4.625 9.359375 -4.140625 9.359375 -3.609375 C 9.359375 -2.910156 9.175781 -2.28125 8.8125 -1.71875 C 8.445312 -1.15625 7.945312 -0.703125 7.3125 -0.359375 C 6.6875 -0.0234375 5.988281 0.140625 5.21875 0.140625 C 4.425781 0.140625 3.71875 -0.0234375 3.09375 -0.359375 C 2.46875 -0.703125 1.972656 -1.15625 1.609375 -1.71875 C 1.242188 -2.28125 1.0625 -2.910156 1.0625 -3.609375 C 1.0625 -4.179688 1.171875 -4.6875 1.390625 -5.125 C 1.617188 -5.570312 1.914062 -5.945312 2.28125 -6.25 C 2.65625 -6.5625 3.039062 -6.800781 3.4375 -6.96875 L 3.375 -6.78125 C 3.03125 -6.945312 2.707031 -7.175781 2.40625 -7.46875 C 2.101562 -7.757812 1.851562 -8.101562 1.65625 -8.5 C 1.46875 -8.90625 1.375 -9.351562 1.375 -9.84375 C 1.375 -10.539062 1.539062 -11.164062 1.875 -11.71875 C 2.21875 -12.269531 2.679688 -12.707031 3.265625 -13.03125 C 3.859375 -13.351562 4.507812 -13.515625 5.21875 -13.515625 C 5.925781 -13.515625 6.566406 -13.351562 7.140625 -13.03125 C 7.710938 -12.707031 8.164062 -12.269531 8.5 -11.71875 C 8.84375 -11.164062 9.015625 -10.539062 9.015625 -9.84375 C 9.015625 -9.34375 8.914062 -8.894531 8.71875 -8.5 C 8.53125 -8.101562 8.28125 -7.757812 7.96875 -7.46875 C 7.664062 -7.175781 7.351562 -6.953125 7.03125 -6.796875 Z M 2.5625 -9.84375 C 2.5625 -9.332031 2.679688 -8.882812 2.921875 -8.5 C 3.171875 -8.113281 3.492188 -7.8125 3.890625 -7.59375 C 4.296875 -7.375 4.738281 -7.265625 5.21875 -7.265625 C 5.675781 -7.265625 6.101562 -7.375 6.5 -7.59375 C 6.90625 -7.8125 7.226562 -8.113281 7.46875 -8.5 C 7.707031 -8.882812 7.828125 -9.332031 7.828125 -9.84375 C 7.828125 -10.601562 7.582031 -11.222656 7.09375 -11.703125 C 6.601562 -12.179688 5.976562 -12.421875 5.21875 -12.421875 C 4.425781 -12.421875 3.785156 -12.179688 3.296875 -11.703125 C 2.804688 -11.222656 2.5625 -10.601562 2.5625 -9.84375 Z M 5.21875 -0.96875 C 6.09375 -0.96875 6.800781 -1.21875 7.34375 -1.71875 C 7.894531 -2.21875 8.171875 -2.847656 8.171875 -3.609375 C 8.171875 -4.128906 8.035156 -4.59375 7.765625 -5 C 7.492188 -5.414062 7.128906 -5.738281 6.671875 -5.96875 C 6.222656 -6.195312 5.738281 -6.3125 5.21875 -6.3125 C 4.6875 -6.3125 4.195312 -6.195312 3.75 -5.96875 C 3.300781 -5.738281 2.941406 -5.414062 2.671875 -5 C 2.398438 -4.59375 2.265625 -4.128906 2.265625 -3.609375 C 2.265625 -2.847656 2.53125 -2.21875 3.0625 -1.71875 C 3.601562 -1.21875 4.320312 -0.96875 5.21875 -0.96875 Z M 5.21875 -0.96875 "/></g></g></g></g></g><g transform="matrix(1, 0, 0, 1, 505, 151)"><g clip-path="url(#579d1e2de9)"><g fill="#201f1f" fill-opacity="1"><g transform="translate(0.98701, 20.062695)"><g><path d="M 5.34375 -13.734375 C 6.101562 -13.734375 6.765625 -13.597656 7.328125 -13.328125 C 7.890625 -13.054688 8.347656 -12.691406 8.703125 -12.234375 C 9.066406 -11.773438 9.335938 -11.253906 9.515625 -10.671875 C 9.703125 -10.097656 9.796875 -9.507812 9.796875 -8.90625 C 9.796875 -8.28125 9.710938 -7.617188 9.546875 -6.921875 C 9.390625 -6.222656 9.148438 -5.515625 8.828125 -4.796875 C 8.515625 -4.085938 8.125 -3.410156 7.65625 -2.765625 C 7.1875 -2.117188 6.632812 -1.535156 6 -1.015625 C 5.375 -0.503906 4.675781 -0.109375 3.90625 0.171875 C 3.800781 0.203125 3.71875 0.21875 3.65625 0.21875 C 3.5 0.21875 3.359375 0.160156 3.234375 0.046875 C 3.109375 -0.0546875 3.046875 -0.203125 3.046875 -0.390625 C 3.046875 -0.515625 3.082031 -0.625 3.15625 -0.71875 C 3.238281 -0.820312 3.359375 -0.898438 3.515625 -0.953125 C 4.242188 -1.253906 4.945312 -1.710938 5.625 -2.328125 C 6.3125 -2.941406 6.90625 -3.648438 7.40625 -4.453125 C 7.90625 -5.253906 8.238281 -6.085938 8.40625 -6.953125 L 8.8125 -7.203125 C 8.59375 -6.785156 8.296875 -6.410156 7.921875 -6.078125 C 7.546875 -5.742188 7.125 -5.484375 6.65625 -5.296875 C 6.1875 -5.109375 5.675781 -5.015625 5.125 -5.015625 C 4.289062 -5.015625 3.570312 -5.21875 2.96875 -5.625 C 2.375 -6.03125 1.914062 -6.566406 1.59375 -7.234375 C 1.28125 -7.910156 1.125 -8.632812 1.125 -9.40625 C 1.125 -10.164062 1.304688 -10.875 1.671875 -11.53125 C 2.035156 -12.1875 2.535156 -12.71875 3.171875 -13.125 C 3.816406 -13.53125 4.539062 -13.734375 5.34375 -13.734375 Z M 5.390625 -12.609375 C 4.785156 -12.609375 4.25 -12.472656 3.78125 -12.203125 C 3.320312 -11.929688 2.957031 -11.550781 2.6875 -11.0625 C 2.425781 -10.582031 2.296875 -10.03125 2.296875 -9.40625 C 2.296875 -8.84375 2.40625 -8.304688 2.625 -7.796875 C 2.851562 -7.296875 3.191406 -6.894531 3.640625 -6.59375 C 4.097656 -6.289062 4.648438 -6.140625 5.296875 -6.140625 C 5.984375 -6.140625 6.570312 -6.289062 7.0625 -6.59375 C 7.550781 -6.894531 7.929688 -7.296875 8.203125 -7.796875 C 8.472656 -8.304688 8.609375 -8.863281 8.609375 -9.46875 C 8.609375 -10.019531 8.476562 -10.53125 8.21875 -11 C 7.96875 -11.476562 7.601562 -11.863281 7.125 -12.15625 C 6.644531 -12.457031 6.066406 -12.609375 5.390625 -12.609375 Z M 5.390625 -12.609375 "/></g></g></g></g></g><g transform="matrix(1, 0, 0, 1, 631, 151)"><g clip-path="url(#0f271b675a)"><g fill="#201f1f" fill-opacity="1"><g transform="translate(0.804367, 20.062695)"><g><path d="M 4.359375 0 C 4.179688 0 4.035156 -0.0546875 3.921875 -0.171875 C 3.804688 -0.285156 3.75 -0.421875 3.75 -0.578125 L 3.75 -12.203125 L 3.953125 -12.015625 L 1.390625 -10.296875 C 1.285156 -10.210938 1.175781 -10.171875 1.0625 -10.171875 C 0.90625 -10.171875 0.765625 -10.234375 0.640625 -10.359375 C 0.523438 -10.492188 0.46875 -10.640625 0.46875 -10.796875 C 0.46875 -11.003906 0.566406 -11.164062 0.765625 -11.28125 L 4 -13.421875 C 4.070312 -13.472656 4.148438 -13.503906 4.234375 -13.515625 C 4.316406 -13.523438 4.394531 -13.523438 4.46875 -13.515625 C 4.632812 -13.503906 4.757812 -13.441406 4.84375 -13.328125 C 4.9375 -13.222656 4.984375 -13.09375 4.984375 -12.9375 L 4.984375 -0.578125 C 4.984375 -0.421875 4.925781 -0.285156 4.8125 -0.171875 C 4.695312 -0.0546875 4.546875 0 4.359375 0 Z M 4.359375 0 "/></g></g></g><g fill="#201f1f" fill-opacity="1"><g transform="translate(7.948018, 20.062695)"><g><path d="M 5.734375 0.1875 C 4.703125 0.1875 3.835938 -0.117188 3.140625 -0.734375 C 2.453125 -1.347656 1.929688 -2.179688 1.578125 -3.234375 C 1.234375 -4.285156 1.0625 -5.460938 1.0625 -6.765625 C 1.0625 -8.078125 1.234375 -9.253906 1.578125 -10.296875 C 1.929688 -11.347656 2.453125 -12.179688 3.140625 -12.796875 C 3.835938 -13.410156 4.703125 -13.71875 5.734375 -13.71875 C 6.785156 -13.71875 7.65625 -13.410156 8.34375 -12.796875 C 9.039062 -12.179688 9.5625 -11.347656 9.90625 -10.296875 C 10.25 -9.253906 10.421875 -8.078125 10.421875 -6.765625 C 10.421875 -5.460938 10.25 -4.285156 9.90625 -3.234375 C 9.5625 -2.179688 9.039062 -1.347656 8.34375 -0.734375 C 7.65625 -0.117188 6.785156 0.1875 5.734375 0.1875 Z M 5.734375 -1 C 6.492188 -1 7.128906 -1.238281 7.640625 -1.71875 C 8.148438 -2.195312 8.535156 -2.867188 8.796875 -3.734375 C 9.054688 -4.609375 9.1875 -5.617188 9.1875 -6.765625 C 9.1875 -7.921875 9.054688 -8.929688 8.796875 -9.796875 C 8.535156 -10.671875 8.148438 -11.34375 7.640625 -11.8125 C 7.128906 -12.289062 6.492188 -12.53125 5.734375 -12.53125 C 4.984375 -12.53125 4.351562 -12.289062 3.84375 -11.8125 C 3.34375 -11.34375 2.957031 -10.671875 2.6875 -9.796875 C 2.425781 -8.929688 2.296875 -7.921875 2.296875 -6.765625 C 2.296875 -5.617188 2.425781 -4.609375 2.6875 -3.734375 C 2.957031 -2.867188 3.34375 -2.195312 3.84375 -1.71875 C 4.351562 -1.238281 4.984375 -1 5.734375 -1 Z M 5.734375 -1 "/></g></g></g></g></g><g transform="matrix(1, 0, 0, 1, 757, 151)"><g clip-path="url(#3fa15cc78d)"><g fill="#201f1f" fill-opacity="1"><g transform="translate(0.621841, 20.062695)"><g><path d="M 4.359375 0 C 4.179688 0 4.035156 -0.0546875 3.921875 -0.171875 C 3.804688 -0.285156 3.75 -0.421875 3.75 -0.578125 L 3.75 -12.203125 L 3.953125 -12.015625 L 1.390625 -10.296875 C 1.285156 -10.210938 1.175781 -10.171875 1.0625 -10.171875 C 0.90625 -10.171875 0.765625 -10.234375 0.640625 -10.359375 C 0.523438 -10.492188 0.46875 -10.640625 0.46875 -10.796875 C 0.46875 -11.003906 0.566406 -11.164062 0.765625 -11.28125 L 4 -13.421875 C 4.070312 -13.472656 4.148438 -13.503906 4.234375 -13.515625 C 4.316406 -13.523438 4.394531 -13.523438 4.46875 -13.515625 C 4.632812 -13.503906 4.757812 -13.441406 4.84375 -13.328125 C 4.9375 -13.222656 4.984375 -13.09375 4.984375 -12.9375 L 4.984375 -0.578125 C 4.984375 -0.421875 4.925781 -0.285156 4.8125 -0.171875 C 4.695312 -0.0546875 4.546875 0 4.359375 0 Z M 4.359375 0 "/></g></g></g><g fill="#201f1f" fill-opacity="1"><g transform="translate(7.765492, 20.062695)"><g><path d="M 4.359375 0 C 4.179688 0 4.035156 -0.0546875 3.921875 -0.171875 C 3.804688 -0.285156 3.75 -0.421875 3.75 -0.578125 L 3.75 -12.203125 L 3.953125 -12.015625 L 1.390625 -10.296875 C 1.285156 -10.210938 1.175781 -10.171875 1.0625 -10.171875 C 0.90625 -10.171875 0.765625 -10.234375 0.640625 -10.359375 C 0.523438 -10.492188 0.46875 -10.640625 0.46875 -10.796875 C 0.46875 -11.003906 0.566406 -11.164062 0.765625 -11.28125 L 4 -13.421875 C 4.070312 -13.472656 4.148438 -13.503906 4.234375 -13.515625 C 4.316406 -13.523438 4.394531 -13.523438 4.46875 -13.515625 C 4.632812 -13.503906 4.757812 -13.441406 4.84375 -13.328125 C 4.9375 -13.222656 4.984375 -13.09375 4.984375 -12.9375 L 4.984375 -0.578125 C 4.984375 -0.421875 4.925781 -0.285156 4.8125 -0.171875 C 4.695312 -0.0546875 4.546875 0 4.359375 0 Z M 4.359375 0 "/></g></g></g></g></g><g transform="matrix(1, 0, 0, 1, 2, 301)"><g clip-path="url(#6ccf0b876a)"><g fill="#201f1f" fill-opacity="1"><g transform="translate(0.717401, 19.819186)"><g><path d="M 4.359375 0 C 4.179688 0 4.035156 -0.0546875 3.921875 -0.171875 C 3.804688 -0.285156 3.75 -0.421875 3.75 -0.578125 L 3.75 -12.203125 L 3.953125 -12.015625 L 1.390625 -10.296875 C 1.285156 -10.210938 1.175781 -10.171875 1.0625 -10.171875 C 0.90625 -10.171875 0.765625 -10.234375 0.640625 -10.359375 C 0.523438 -10.492188 0.46875 -10.640625 0.46875 -10.796875 C 0.46875 -11.003906 0.566406 -11.164062 0.765625 -11.28125 L 4 -13.421875 C 4.070312 -13.472656 4.148438 -13.503906 4.234375 -13.515625 C 4.316406 -13.523438 4.394531 -13.523438 4.46875 -13.515625 C 4.632812 -13.503906 4.757812 -13.441406 4.84375 -13.328125 C 4.9375 -13.222656 4.984375 -13.09375 4.984375 -12.9375 L 4.984375 -0.578125 C 4.984375 -0.421875 4.925781 -0.285156 4.8125 -0.171875 C 4.695312 -0.0546875 4.546875 0 4.359375 0 Z M 4.359375 0 "/></g></g></g><g fill="#201f1f" fill-opacity="1"><g transform="translate(7.861052, 19.819186)"><g><path d="M 9.15625 -1.125 C 9.3125 -1.125 9.441406 -1.066406 9.546875 -0.953125 C 9.660156 -0.847656 9.71875 -0.71875 9.71875 -0.5625 C 9.71875 -0.394531 9.660156 -0.257812 9.546875 -0.15625 C 9.441406 -0.0507812 9.3125 0 9.15625 0 L 1.90625 0 C 1.738281 0 1.59375 -0.046875 1.46875 -0.140625 C 1.351562 -0.242188 1.296875 -0.390625 1.296875 -0.578125 C 1.296875 -0.722656 1.347656 -0.859375 1.453125 -0.984375 L 5.90625 -5.90625 C 6.613281 -6.675781 7.144531 -7.382812 7.5 -8.03125 C 7.851562 -8.6875 8.03125 -9.273438 8.03125 -9.796875 C 8.03125 -10.640625 7.769531 -11.316406 7.25 -11.828125 C 6.738281 -12.347656 6.046875 -12.609375 5.171875 -12.609375 C 4.773438 -12.609375 4.378906 -12.523438 3.984375 -12.359375 C 3.597656 -12.191406 3.25 -11.972656 2.9375 -11.703125 C 2.632812 -11.429688 2.398438 -11.125 2.234375 -10.78125 C 2.160156 -10.644531 2.082031 -10.550781 2 -10.5 C 1.914062 -10.445312 1.820312 -10.421875 1.71875 -10.421875 C 1.5625 -10.421875 1.425781 -10.46875 1.3125 -10.5625 C 1.195312 -10.664062 1.140625 -10.789062 1.140625 -10.9375 C 1.140625 -11.019531 1.160156 -11.109375 1.203125 -11.203125 C 1.253906 -11.296875 1.320312 -11.398438 1.40625 -11.515625 C 1.632812 -11.910156 1.957031 -12.273438 2.375 -12.609375 C 2.789062 -12.941406 3.25 -13.207031 3.75 -13.40625 C 4.257812 -13.613281 4.757812 -13.71875 5.25 -13.71875 C 6.070312 -13.71875 6.78125 -13.554688 7.375 -13.234375 C 7.976562 -12.921875 8.441406 -12.476562 8.765625 -11.90625 C 9.097656 -11.332031 9.265625 -10.65625 9.265625 -9.875 C 9.265625 -9.195312 9.054688 -8.460938 8.640625 -7.671875 C 8.222656 -6.878906 7.601562 -6.03125 6.78125 -5.125 L 3.015625 -0.890625 L 2.8125 -1.125 Z M 9.15625 -1.125 "/></g></g></g></g></g><g transform="matrix(1, 0, 0, 1, 128, 301)"><g clip-path="url(#1cb67dbed2)"><g fill="#201f1f" fill-opacity="1"><g transform="translate(0.534806, 19.819186)"><g><path d="M 4.359375 0 C 4.179688 0 4.035156 -0.0546875 3.921875 -0.171875 C 3.804688 -0.285156 3.75 -0.421875 3.75 -0.578125 L 3.75 -12.203125 L 3.953125 -12.015625 L 1.390625 -10.296875 C 1.285156 -10.210938 1.175781 -10.171875 1.0625 -10.171875 C 0.90625 -10.171875 0.765625 -10.234375 0.640625 -10.359375 C 0.523438 -10.492188 0.46875 -10.640625 0.46875 -10.796875 C 0.46875 -11.003906 0.566406 -11.164062 0.765625 -11.28125 L 4 -13.421875 C 4.070312 -13.472656 4.148438 -13.503906 4.234375 -13.515625 C 4.316406 -13.523438 4.394531 -13.523438 4.46875 -13.515625 C 4.632812 -13.503906 4.757812 -13.441406 4.84375 -13.328125 C 4.9375 -13.222656 4.984375 -13.09375 4.984375 -12.9375 L 4.984375 -0.578125 C 4.984375 -0.421875 4.925781 -0.285156 4.8125 -0.171875 C 4.695312 -0.0546875 4.546875 0 4.359375 0 Z M 4.359375 0 "/></g></g></g><g fill="#201f1f" fill-opacity="1"><g transform="translate(7.678458, 19.819186)"><g><path d="M 1.71875 -1.984375 C 1.78125 -1.984375 1.847656 -1.96875 1.921875 -1.9375 C 1.992188 -1.914062 2.082031 -1.863281 2.1875 -1.78125 C 2.457031 -1.5 2.773438 -1.28125 3.140625 -1.125 C 3.515625 -0.976562 3.941406 -0.90625 4.421875 -0.90625 C 5.054688 -0.90625 5.632812 -1.046875 6.15625 -1.328125 C 6.675781 -1.609375 7.085938 -2.003906 7.390625 -2.515625 C 7.703125 -3.023438 7.859375 -3.609375 7.859375 -4.265625 C 7.859375 -5.015625 7.691406 -5.617188 7.359375 -6.078125 C 7.035156 -6.535156 6.617188 -6.875 6.109375 -7.09375 C 5.597656 -7.320312 5.082031 -7.4375 4.5625 -7.4375 C 4.414062 -7.4375 4.273438 -7.425781 4.140625 -7.40625 C 4.003906 -7.382812 3.878906 -7.359375 3.765625 -7.328125 C 3.648438 -7.304688 3.5625 -7.296875 3.5 -7.296875 C 3.332031 -7.296875 3.203125 -7.347656 3.109375 -7.453125 C 3.015625 -7.566406 2.96875 -7.707031 2.96875 -7.875 C 2.96875 -7.96875 2.988281 -8.050781 3.03125 -8.125 C 3.070312 -8.195312 3.125 -8.273438 3.1875 -8.359375 L 7.109375 -12.625 L 7.34375 -12.328125 L 1.484375 -12.328125 C 1.328125 -12.328125 1.191406 -12.378906 1.078125 -12.484375 C 0.972656 -12.597656 0.921875 -12.726562 0.921875 -12.875 C 0.921875 -13.03125 0.972656 -13.160156 1.078125 -13.265625 C 1.191406 -13.367188 1.328125 -13.421875 1.484375 -13.421875 L 7.96875 -13.421875 C 8.1875 -13.421875 8.34375 -13.351562 8.4375 -13.21875 C 8.53125 -13.082031 8.578125 -12.953125 8.578125 -12.828125 C 8.578125 -12.742188 8.554688 -12.664062 8.515625 -12.59375 C 8.472656 -12.53125 8.421875 -12.457031 8.359375 -12.375 L 4.4375 -8.109375 L 4.015625 -8.359375 C 4.054688 -8.398438 4.1875 -8.441406 4.40625 -8.484375 C 4.632812 -8.535156 4.8125 -8.5625 4.9375 -8.5625 C 5.644531 -8.5625 6.3125 -8.390625 6.9375 -8.046875 C 7.5625 -7.710938 8.070312 -7.234375 8.46875 -6.609375 C 8.863281 -5.984375 9.0625 -5.21875 9.0625 -4.3125 C 9.0625 -3.40625 8.847656 -2.613281 8.421875 -1.9375 C 7.992188 -1.257812 7.421875 -0.734375 6.703125 -0.359375 C 5.984375 0.00390625 5.1875 0.1875 4.3125 0.1875 C 3.78125 0.1875 3.253906 0.0976562 2.734375 -0.078125 C 2.222656 -0.253906 1.773438 -0.523438 1.390625 -0.890625 C 1.296875 -0.960938 1.226562 -1.035156 1.1875 -1.109375 C 1.15625 -1.191406 1.140625 -1.273438 1.140625 -1.359375 C 1.140625 -1.503906 1.191406 -1.644531 1.296875 -1.78125 C 1.410156 -1.914062 1.550781 -1.984375 1.71875 -1.984375 Z M 1.71875 -1.984375 "/></g></g></g></g></g><g transform="matrix(1, 0, 0, 1, 254, 301)"><g clip-path="url(#0b170ae7e3)"><g clip-path="url(#887388d17e)"><g fill="#201f1f" fill-opacity="1"><g transform="translate(0.352208, 19.819186)"><g><path d="M 4.359375 0 C 4.179688 0 4.035156 -0.0546875 3.921875 -0.171875 C 3.804688 -0.285156 3.75 -0.421875 3.75 -0.578125 L 3.75 -12.203125 L 3.953125 -12.015625 L 1.390625 -10.296875 C 1.285156 -10.210938 1.175781 -10.171875 1.0625 -10.171875 C 0.90625 -10.171875 0.765625 -10.234375 0.640625 -10.359375 C 0.523438 -10.492188 0.46875 -10.640625 0.46875 -10.796875 C 0.46875 -11.003906 0.566406 -11.164062 0.765625 -11.28125 L 4 -13.421875 C 4.070312 -13.472656 4.148438 -13.503906 4.234375 -13.515625 C 4.316406 -13.523438 4.394531 -13.523438 4.46875 -13.515625 C 4.632812 -13.503906 4.757812 -13.441406 4.84375 -13.328125 C 4.9375 -13.222656 4.984375 -13.09375 4.984375 -12.9375 L 4.984375 -0.578125 C 4.984375 -0.421875 4.925781 -0.285156 4.8125 -0.171875 C 4.695312 -0.0546875 4.546875 0 4.359375 0 Z M 4.359375 0 "/></g></g></g></g><g fill="#201f1f" fill-opacity="1"><g transform="translate(7.495859, 19.819186)"><g><path d="M 7.09375 0 C 6.925781 0 6.789062 -0.0546875 6.6875 -0.171875 C 6.582031 -0.285156 6.53125 -0.421875 6.53125 -0.578125 L 6.53125 -11.921875 L 6.78125 -11.765625 L 1.703125 -5.046875 L 1.640625 -5.25 L 9.0625 -5.25 C 9.21875 -5.25 9.347656 -5.195312 9.453125 -5.09375 C 9.566406 -4.988281 9.625 -4.863281 9.625 -4.71875 C 9.625 -4.5625 9.566406 -4.429688 9.453125 -4.328125 C 9.347656 -4.222656 9.21875 -4.171875 9.0625 -4.171875 L 0.84375 -4.171875 C 0.695312 -4.171875 0.5625 -4.226562 0.4375 -4.34375 C 0.320312 -4.46875 0.265625 -4.609375 0.265625 -4.765625 C 0.265625 -4.910156 0.3125 -5.039062 0.40625 -5.15625 L 6.625 -13.28125 C 6.6875 -13.375 6.765625 -13.4375 6.859375 -13.46875 C 6.960938 -13.5 7.046875 -13.515625 7.109375 -13.515625 C 7.273438 -13.515625 7.410156 -13.457031 7.515625 -13.34375 C 7.628906 -13.226562 7.6875 -13.09375 7.6875 -12.9375 L 7.6875 -0.578125 C 7.6875 -0.421875 7.628906 -0.285156 7.515625 -0.171875 C 7.398438 -0.0546875 7.257812 0 7.09375 0 Z M 7.09375 0 "/></g></g></g></g></g><g transform="matrix(1, 0, 0, 1, 380, 301)"><g clip-path="url(#eb424f3574)"><g clip-path="url(#e6526df2d8)"><g fill="#201f1f" fill-opacity="1"><g transform="translate(0.169594, 19.819186)"><g><path d="M 4.359375 0 C 4.179688 0 4.035156 -0.0546875 3.921875 -0.171875 C 3.804688 -0.285156 3.75 -0.421875 3.75 -0.578125 L 3.75 -12.203125 L 3.953125 -12.015625 L 1.390625 -10.296875 C 1.285156 -10.210938 1.175781 -10.171875 1.0625 -10.171875 C 0.90625 -10.171875 0.765625 -10.234375 0.640625 -10.359375 C 0.523438 -10.492188 0.46875 -10.640625 0.46875 -10.796875 C 0.46875 -11.003906 0.566406 -11.164062 0.765625 -11.28125 L 4 -13.421875 C 4.070312 -13.472656 4.148438 -13.503906 4.234375 -13.515625 C 4.316406 -13.523438 4.394531 -13.523438 4.46875 -13.515625 C 4.632812 -13.503906 4.757812 -13.441406 4.84375 -13.328125 C 4.9375 -13.222656 4.984375 -13.09375 4.984375 -12.9375 L 4.984375 -0.578125 C 4.984375 -0.421875 4.925781 -0.285156 4.8125 -0.171875 C 4.695312 -0.0546875 4.546875 0 4.359375 0 Z M 4.359375 0 "/></g></g></g></g><g fill="#201f1f" fill-opacity="1"><g transform="translate(7.313245, 19.819186)"><g><path d="M 4.515625 0.03125 C 3.992188 0.03125 3.460938 -0.0507812 2.921875 -0.21875 C 2.390625 -0.394531 1.914062 -0.65625 1.5 -1 C 1.425781 -1.0625 1.363281 -1.140625 1.3125 -1.234375 C 1.269531 -1.328125 1.25 -1.414062 1.25 -1.5 C 1.25 -1.632812 1.300781 -1.757812 1.40625 -1.875 C 1.507812 -2 1.644531 -2.0625 1.8125 -2.0625 C 1.957031 -2.0625 2.097656 -2.003906 2.234375 -1.890625 C 2.578125 -1.628906 2.941406 -1.425781 3.328125 -1.28125 C 3.722656 -1.144531 4.117188 -1.078125 4.515625 -1.078125 C 5.273438 -1.078125 5.9375 -1.222656 6.5 -1.515625 C 7.070312 -1.804688 7.507812 -2.21875 7.8125 -2.75 C 8.125 -3.28125 8.28125 -3.898438 8.28125 -4.609375 C 8.28125 -5.265625 8.140625 -5.832031 7.859375 -6.3125 C 7.578125 -6.800781 7.175781 -7.179688 6.65625 -7.453125 C 6.132812 -7.734375 5.519531 -7.875 4.8125 -7.875 C 4.34375 -7.875 3.914062 -7.800781 3.53125 -7.65625 C 3.15625 -7.519531 2.828125 -7.378906 2.546875 -7.234375 C 2.273438 -7.085938 2.054688 -7.015625 1.890625 -7.015625 C 1.734375 -7.015625 1.609375 -7.050781 1.515625 -7.125 C 1.421875 -7.195312 1.359375 -7.289062 1.328125 -7.40625 C 1.296875 -7.53125 1.289062 -7.65625 1.3125 -7.78125 L 2.140625 -12.9375 C 2.148438 -13.050781 2.207031 -13.15625 2.3125 -13.25 C 2.425781 -13.351562 2.570312 -13.40625 2.75 -13.40625 L 8.5625 -13.40625 C 8.707031 -13.40625 8.832031 -13.347656 8.9375 -13.234375 C 9.050781 -13.128906 9.109375 -13 9.109375 -12.84375 C 9.109375 -12.675781 9.050781 -12.535156 8.9375 -12.421875 C 8.832031 -12.316406 8.707031 -12.265625 8.5625 -12.265625 L 3.015625 -12.265625 L 3.1875 -12.4375 L 2.390625 -7.859375 L 2.046875 -8.109375 C 2.210938 -8.234375 2.453125 -8.359375 2.765625 -8.484375 C 3.085938 -8.617188 3.441406 -8.734375 3.828125 -8.828125 C 4.222656 -8.929688 4.640625 -8.984375 5.078125 -8.984375 C 5.910156 -8.984375 6.65625 -8.796875 7.3125 -8.421875 C 7.96875 -8.054688 8.484375 -7.546875 8.859375 -6.890625 C 9.242188 -6.242188 9.4375 -5.5 9.4375 -4.65625 C 9.4375 -3.71875 9.234375 -2.894531 8.828125 -2.1875 C 8.429688 -1.488281 7.863281 -0.941406 7.125 -0.546875 C 6.394531 -0.160156 5.523438 0.03125 4.515625 0.03125 Z M 4.515625 0.03125 "/></g></g></g></g></g><g transform="matrix(1, 0, 0, 1, 505, 301)"><g clip-path="url(#ea2405f230)"><g fill="#201f1f" fill-opacity="1"><g transform="translate(0.98701, 19.819186)"><g><path d="M 4.359375 0 C 4.179688 0 4.035156 -0.0546875 3.921875 -0.171875 C 3.804688 -0.285156 3.75 -0.421875 3.75 -0.578125 L 3.75 -12.203125 L 3.953125 -12.015625 L 1.390625 -10.296875 C 1.285156 -10.210938 1.175781 -10.171875 1.0625 -10.171875 C 0.90625 -10.171875 0.765625 -10.234375 0.640625 -10.359375 C 0.523438 -10.492188 0.46875 -10.640625 0.46875 -10.796875 C 0.46875 -11.003906 0.566406 -11.164062 0.765625 -11.28125 L 4 -13.421875 C 4.070312 -13.472656 4.148438 -13.503906 4.234375 -13.515625 C 4.316406 -13.523438 4.394531 -13.523438 4.46875 -13.515625 C 4.632812 -13.503906 4.757812 -13.441406 4.84375 -13.328125 C 4.9375 -13.222656 4.984375 -13.09375 4.984375 -12.9375 L 4.984375 -0.578125 C 4.984375 -0.421875 4.925781 -0.285156 4.8125 -0.171875 C 4.695312 -0.0546875 4.546875 0 4.359375 0 Z M 4.359375 0 "/></g></g></g><g fill="#201f1f" fill-opacity="1"><g transform="translate(8.130661, 19.819186)"><g><path d="M 5.546875 0.1875 C 4.796875 0.1875 4.140625 0.0507812 3.578125 -0.21875 C 3.023438 -0.488281 2.5625 -0.847656 2.1875 -1.296875 C 1.820312 -1.753906 1.550781 -2.273438 1.375 -2.859375 C 1.207031 -3.441406 1.125 -4.035156 1.125 -4.640625 C 1.125 -5.253906 1.195312 -5.914062 1.34375 -6.625 C 1.5 -7.34375 1.738281 -8.066406 2.0625 -8.796875 C 2.382812 -9.535156 2.78125 -10.234375 3.25 -10.890625 C 3.71875 -11.546875 4.265625 -12.132812 4.890625 -12.65625 C 5.515625 -13.175781 6.222656 -13.585938 7.015625 -13.890625 C 7.097656 -13.910156 7.171875 -13.921875 7.234375 -13.921875 C 7.410156 -13.921875 7.554688 -13.875 7.671875 -13.78125 C 7.796875 -13.695312 7.859375 -13.546875 7.859375 -13.328125 C 7.859375 -13.191406 7.816406 -13.078125 7.734375 -12.984375 C 7.648438 -12.890625 7.535156 -12.816406 7.390625 -12.765625 C 6.847656 -12.535156 6.3125 -12.207031 5.78125 -11.78125 C 5.257812 -11.351562 4.773438 -10.863281 4.328125 -10.3125 C 3.878906 -9.757812 3.492188 -9.164062 3.171875 -8.53125 C 2.859375 -7.894531 2.640625 -7.242188 2.515625 -6.578125 L 2.078125 -6.328125 C 2.316406 -6.753906 2.617188 -7.128906 2.984375 -7.453125 C 3.347656 -7.785156 3.769531 -8.050781 4.25 -8.25 C 4.726562 -8.457031 5.242188 -8.5625 5.796875 -8.5625 C 6.367188 -8.5625 6.898438 -8.4375 7.390625 -8.1875 C 7.878906 -7.945312 8.300781 -7.613281 8.65625 -7.1875 C 9.007812 -6.769531 9.285156 -6.296875 9.484375 -5.765625 C 9.691406 -5.242188 9.796875 -4.703125 9.796875 -4.140625 C 9.796875 -3.378906 9.609375 -2.671875 9.234375 -2.015625 C 8.867188 -1.359375 8.367188 -0.828125 7.734375 -0.421875 C 7.097656 -0.015625 6.367188 0.1875 5.546875 0.1875 Z M 5.515625 -0.921875 C 6.109375 -0.921875 6.632812 -1.054688 7.09375 -1.328125 C 7.5625 -1.597656 7.925781 -1.972656 8.1875 -2.453125 C 8.457031 -2.941406 8.59375 -3.503906 8.59375 -4.140625 C 8.59375 -4.710938 8.476562 -5.242188 8.25 -5.734375 C 8.03125 -6.234375 7.695312 -6.640625 7.25 -6.953125 C 6.800781 -7.273438 6.25 -7.4375 5.59375 -7.4375 C 4.914062 -7.4375 4.328125 -7.28125 3.828125 -6.96875 C 3.335938 -6.664062 2.957031 -6.257812 2.6875 -5.75 C 2.425781 -5.238281 2.296875 -4.679688 2.296875 -4.078125 C 2.296875 -3.535156 2.425781 -3.019531 2.6875 -2.53125 C 2.945312 -2.050781 3.316406 -1.660156 3.796875 -1.359375 C 4.273438 -1.066406 4.847656 -0.921875 5.515625 -0.921875 Z M 5.515625 -0.921875 "/></g></g></g></g></g><g transform="matrix(1, 0, 0, 1, 631, 301)"><g clip-path="url(#867a53f461)"><g fill="#201f1f" fill-opacity="1"><g transform="translate(0.804367, 19.819186)"><g><path d="M 4.359375 0 C 4.179688 0 4.035156 -0.0546875 3.921875 -0.171875 C 3.804688 -0.285156 3.75 -0.421875 3.75 -0.578125 L 3.75 -12.203125 L 3.953125 -12.015625 L 1.390625 -10.296875 C 1.285156 -10.210938 1.175781 -10.171875 1.0625 -10.171875 C 0.90625 -10.171875 0.765625 -10.234375 0.640625 -10.359375 C 0.523438 -10.492188 0.46875 -10.640625 0.46875 -10.796875 C 0.46875 -11.003906 0.566406 -11.164062 0.765625 -11.28125 L 4 -13.421875 C 4.070312 -13.472656 4.148438 -13.503906 4.234375 -13.515625 C 4.316406 -13.523438 4.394531 -13.523438 4.46875 -13.515625 C 4.632812 -13.503906 4.757812 -13.441406 4.84375 -13.328125 C 4.9375 -13.222656 4.984375 -13.09375 4.984375 -12.9375 L 4.984375 -0.578125 C 4.984375 -0.421875 4.925781 -0.285156 4.8125 -0.171875 C 4.695312 -0.0546875 4.546875 0 4.359375 0 Z M 4.359375 0 "/></g></g></g><g fill="#201f1f" fill-opacity="1"><g transform="translate(7.948018, 19.819186)"><g><path d="M 3.4375 0.0625 C 3.28125 0.0625 3.132812 0.0078125 3 -0.09375 C 2.875 -0.195312 2.8125 -0.328125 2.8125 -0.484375 C 2.8125 -0.578125 2.832031 -0.671875 2.875 -0.765625 L 8.015625 -12.578125 L 8.234375 -12.296875 L 1.703125 -12.296875 C 1.546875 -12.296875 1.410156 -12.347656 1.296875 -12.453125 C 1.191406 -12.566406 1.140625 -12.703125 1.140625 -12.859375 C 1.140625 -13.023438 1.191406 -13.160156 1.296875 -13.265625 C 1.410156 -13.367188 1.546875 -13.421875 1.703125 -13.421875 L 8.78125 -13.421875 C 8.976562 -13.421875 9.117188 -13.367188 9.203125 -13.265625 C 9.296875 -13.160156 9.34375 -13.03125 9.34375 -12.875 C 9.34375 -12.78125 9.328125 -12.6875 9.296875 -12.59375 L 3.984375 -0.328125 C 3.941406 -0.210938 3.867188 -0.117188 3.765625 -0.046875 C 3.660156 0.0234375 3.550781 0.0625 3.4375 0.0625 Z M 3.4375 0.0625 "/></g></g></g></g></g><g transform="matrix(1, 0, 0, 1, 757, 301)"><g clip-path="url(#6af9de2921)"><g fill="#201f1f" fill-opacity="1"><g transform="translate(0.621841, 19.819186)"><g><path d="M 4.359375 0 C 4.179688 0 4.035156 -0.0546875 3.921875 -0.171875 C 3.804688 -0.285156 3.75 -0.421875 3.75 -0.578125 L 3.75 -12.203125 L 3.953125 -12.015625 L 1.390625 -10.296875 C 1.285156 -10.210938 1.175781 -10.171875 1.0625 -10.171875 C 0.90625 -10.171875 0.765625 -10.234375 0.640625 -10.359375 C 0.523438 -10.492188 0.46875 -10.640625 0.46875 -10.796875 C 0.46875 -11.003906 0.566406 -11.164062 0.765625 -11.28125 L 4 -13.421875 C 4.070312 -13.472656 4.148438 -13.503906 4.234375 -13.515625 C 4.316406 -13.523438 4.394531 -13.523438 4.46875 -13.515625 C 4.632812 -13.503906 4.757812 -13.441406 4.84375 -13.328125 C 4.9375 -13.222656 4.984375 -13.09375 4.984375 -12.9375 L 4.984375 -0.578125 C 4.984375 -0.421875 4.925781 -0.285156 4.8125 -0.171875 C 4.695312 -0.0546875 4.546875 0 4.359375 0 Z M 4.359375 0 "/></g></g></g><g fill="#201f1f" fill-opacity="1"><g transform="translate(7.765492, 19.819186)"><g><path d="M 7.03125 -6.796875 L 6.96875 -6.96875 C 7.40625 -6.800781 7.800781 -6.550781 8.15625 -6.21875 C 8.519531 -5.894531 8.8125 -5.507812 9.03125 -5.0625 C 9.25 -4.625 9.359375 -4.140625 9.359375 -3.609375 C 9.359375 -2.910156 9.175781 -2.28125 8.8125 -1.71875 C 8.445312 -1.15625 7.945312 -0.703125 7.3125 -0.359375 C 6.6875 -0.0234375 5.988281 0.140625 5.21875 0.140625 C 4.425781 0.140625 3.71875 -0.0234375 3.09375 -0.359375 C 2.46875 -0.703125 1.972656 -1.15625 1.609375 -1.71875 C 1.242188 -2.28125 1.0625 -2.910156 1.0625 -3.609375 C 1.0625 -4.179688 1.171875 -4.6875 1.390625 -5.125 C 1.617188 -5.570312 1.914062 -5.945312 2.28125 -6.25 C 2.65625 -6.5625 3.039062 -6.800781 3.4375 -6.96875 L 3.375 -6.78125 C 3.03125 -6.945312 2.707031 -7.175781 2.40625 -7.46875 C 2.101562 -7.757812 1.851562 -8.101562 1.65625 -8.5 C 1.46875 -8.90625 1.375 -9.351562 1.375 -9.84375 C 1.375 -10.539062 1.539062 -11.164062 1.875 -11.71875 C 2.21875 -12.269531 2.679688 -12.707031 3.265625 -13.03125 C 3.859375 -13.351562 4.507812 -13.515625 5.21875 -13.515625 C 5.925781 -13.515625 6.566406 -13.351562 7.140625 -13.03125 C 7.710938 -12.707031 8.164062 -12.269531 8.5 -11.71875 C 8.84375 -11.164062 9.015625 -10.539062 9.015625 -9.84375 C 9.015625 -9.34375 8.914062 -8.894531 8.71875 -8.5 C 8.53125 -8.101562 8.28125 -7.757812 7.96875 -7.46875 C 7.664062 -7.175781 7.351562 -6.953125 7.03125 -6.796875 Z M 2.5625 -9.84375 C 2.5625 -9.332031 2.679688 -8.882812 2.921875 -8.5 C 3.171875 -8.113281 3.492188 -7.8125 3.890625 -7.59375 C 4.296875 -7.375 4.738281 -7.265625 5.21875 -7.265625 C 5.675781 -7.265625 6.101562 -7.375 6.5 -7.59375 C 6.90625 -7.8125 7.226562 -8.113281 7.46875 -8.5 C 7.707031 -8.882812 7.828125 -9.332031 7.828125 -9.84375 C 7.828125 -10.601562 7.582031 -11.222656 7.09375 -11.703125 C 6.601562 -12.179688 5.976562 -12.421875 5.21875 -12.421875 C 4.425781 -12.421875 3.785156 -12.179688 3.296875 -11.703125 C 2.804688 -11.222656 2.5625 -10.601562 2.5625 -9.84375 Z M 5.21875 -0.96875 C 6.09375 -0.96875 6.800781 -1.21875 7.34375 -1.71875 C 7.894531 -2.21875 8.171875 -2.847656 8.171875 -3.609375 C 8.171875 -4.128906 8.035156 -4.59375 7.765625 -5 C 7.492188 -5.414062 7.128906 -5.738281 6.671875 -5.96875 C 6.222656 -6.195312 5.738281 -6.3125 5.21875 -6.3125 C 4.6875 -6.3125 4.195312 -6.195312 3.75 -5.96875 C 3.300781 -5.738281 2.941406 -5.414062 2.671875 -5 C 2.398438 -4.59375 2.265625 -4.128906 2.265625 -3.609375 C 2.265625 -2.847656 2.53125 -2.21875 3.0625 -1.71875 C 3.601562 -1.21875 4.320312 -0.96875 5.21875 -0.96875 Z M 5.21875 -0.96875 "/></g></g></g></g></g><g clip-path="url(#071d93bfc1)"><g transform="matrix(1, 0, 0, 1, 2, 450)"><g clip-path="url(#6d5e562bea)"><g fill="#201f1f" fill-opacity="1"><g transform="translate(0.717401, 20.575898)"><g><path d="M 4.359375 0 C 4.179688 0 4.035156 -0.0546875 3.921875 -0.171875 C 3.804688 -0.285156 3.75 -0.421875 3.75 -0.578125 L 3.75 -12.203125 L 3.953125 -12.015625 L 1.390625 -10.296875 C 1.285156 -10.210938 1.175781 -10.171875 1.0625 -10.171875 C 0.90625 -10.171875 0.765625 -10.234375 0.640625 -10.359375 C 0.523438 -10.492188 0.46875 -10.640625 0.46875 -10.796875 C 0.46875 -11.003906 0.566406 -11.164062 0.765625 -11.28125 L 4 -13.421875 C 4.070312 -13.472656 4.148438 -13.503906 4.234375 -13.515625 C 4.316406 -13.523438 4.394531 -13.523438 4.46875 -13.515625 C 4.632812 -13.503906 4.757812 -13.441406 4.84375 -13.328125 C 4.9375 -13.222656 4.984375 -13.09375 4.984375 -12.9375 L 4.984375 -0.578125 C 4.984375 -0.421875 4.925781 -0.285156 4.8125 -0.171875 C 4.695312 -0.0546875 4.546875 0 4.359375 0 Z M 4.359375 0 "/></g></g></g><g fill="#201f1f" fill-opacity="1"><g transform="translate(7.861052, 20.575898)"><g><path d="M 5.34375 -13.734375 C 6.101562 -13.734375 6.765625 -13.597656 7.328125 -13.328125 C 7.890625 -13.054688 8.347656 -12.691406 8.703125 -12.234375 C 9.066406 -11.773438 9.335938 -11.253906 9.515625 -10.671875 C 9.703125 -10.097656 9.796875 -9.507812 9.796875 -8.90625 C 9.796875 -8.28125 9.710938 -7.617188 9.546875 -6.921875 C 9.390625 -6.222656 9.148438 -5.515625 8.828125 -4.796875 C 8.515625 -4.085938 8.125 -3.410156 7.65625 -2.765625 C 7.1875 -2.117188 6.632812 -1.535156 6 -1.015625 C 5.375 -0.503906 4.675781 -0.109375 3.90625 0.171875 C 3.800781 0.203125 3.71875 0.21875 3.65625 0.21875 C 3.5 0.21875 3.359375 0.160156 3.234375 0.046875 C 3.109375 -0.0546875 3.046875 -0.203125 3.046875 -0.390625 C 3.046875 -0.515625 3.082031 -0.625 3.15625 -0.71875 C 3.238281 -0.820312 3.359375 -0.898438 3.515625 -0.953125 C 4.242188 -1.253906 4.945312 -1.710938 5.625 -2.328125 C 6.3125 -2.941406 6.90625 -3.648438 7.40625 -4.453125 C 7.90625 -5.253906 8.238281 -6.085938 8.40625 -6.953125 L 8.8125 -7.203125 C 8.59375 -6.785156 8.296875 -6.410156 7.921875 -6.078125 C 7.546875 -5.742188 7.125 -5.484375 6.65625 -5.296875 C 6.1875 -5.109375 5.675781 -5.015625 5.125 -5.015625 C 4.289062 -5.015625 3.570312 -5.21875 2.96875 -5.625 C 2.375 -6.03125 1.914062 -6.566406 1.59375 -7.234375 C 1.28125 -7.910156 1.125 -8.632812 1.125 -9.40625 C 1.125 -10.164062 1.304688 -10.875 1.671875 -11.53125 C 2.035156 -12.1875 2.535156 -12.71875 3.171875 -13.125 C 3.816406 -13.53125 4.539062 -13.734375 5.34375 -13.734375 Z M 5.390625 -12.609375 C 4.785156 -12.609375 4.25 -12.472656 3.78125 -12.203125 C 3.320312 -11.929688 2.957031 -11.550781 2.6875 -11.0625 C 2.425781 -10.582031 2.296875 -10.03125 2.296875 -9.40625 C 2.296875 -8.84375 2.40625 -8.304688 2.625 -7.796875 C 2.851562 -7.296875 3.191406 -6.894531 3.640625 -6.59375 C 4.097656 -6.289062 4.648438 -6.140625 5.296875 -6.140625 C 5.984375 -6.140625 6.570312 -6.289062 7.0625 -6.59375 C 7.550781 -6.894531 7.929688 -7.296875 8.203125 -7.796875 C 8.472656 -8.304688 8.609375 -8.863281 8.609375 -9.46875 C 8.609375 -10.019531 8.476562 -10.53125 8.21875 -11 C 7.96875 -11.476562 7.601562 -11.863281 7.125 -12.15625 C 6.644531 -12.457031 6.066406 -12.609375 5.390625 -12.609375 Z M 5.390625 -12.609375 "/></g></g></g></g></g></g><g clip-path="url(#445ccf13dc)"><g transform="matrix(1, 0, 0, 1, 128, 450)"><g clip-path="url(#fc67cda91b)"><g fill="#201f1f" fill-opacity="1"><g transform="translate(0.534806, 20.575898)"><g><path d="M 9.15625 -1.125 C 9.3125 -1.125 9.441406 -1.066406 9.546875 -0.953125 C 9.660156 -0.847656 9.71875 -0.71875 9.71875 -0.5625 C 9.71875 -0.394531 9.660156 -0.257812 9.546875 -0.15625 C 9.441406 -0.0507812 9.3125 0 9.15625 0 L 1.90625 0 C 1.738281 0 1.59375 -0.046875 1.46875 -0.140625 C 1.351562 -0.242188 1.296875 -0.390625 1.296875 -0.578125 C 1.296875 -0.722656 1.347656 -0.859375 1.453125 -0.984375 L 5.90625 -5.90625 C 6.613281 -6.675781 7.144531 -7.382812 7.5 -8.03125 C 7.851562 -8.6875 8.03125 -9.273438 8.03125 -9.796875 C 8.03125 -10.640625 7.769531 -11.316406 7.25 -11.828125 C 6.738281 -12.347656 6.046875 -12.609375 5.171875 -12.609375 C 4.773438 -12.609375 4.378906 -12.523438 3.984375 -12.359375 C 3.597656 -12.191406 3.25 -11.972656 2.9375 -11.703125 C 2.632812 -11.429688 2.398438 -11.125 2.234375 -10.78125 C 2.160156 -10.644531 2.082031 -10.550781 2 -10.5 C 1.914062 -10.445312 1.820312 -10.421875 1.71875 -10.421875 C 1.5625 -10.421875 1.425781 -10.46875 1.3125 -10.5625 C 1.195312 -10.664062 1.140625 -10.789062 1.140625 -10.9375 C 1.140625 -11.019531 1.160156 -11.109375 1.203125 -11.203125 C 1.253906 -11.296875 1.320312 -11.398438 1.40625 -11.515625 C 1.632812 -11.910156 1.957031 -12.273438 2.375 -12.609375 C 2.789062 -12.941406 3.25 -13.207031 3.75 -13.40625 C 4.257812 -13.613281 4.757812 -13.71875 5.25 -13.71875 C 6.070312 -13.71875 6.78125 -13.554688 7.375 -13.234375 C 7.976562 -12.921875 8.441406 -12.476562 8.765625 -11.90625 C 9.097656 -11.332031 9.265625 -10.65625 9.265625 -9.875 C 9.265625 -9.195312 9.054688 -8.460938 8.640625 -7.671875 C 8.222656 -6.878906 7.601562 -6.03125 6.78125 -5.125 L 3.015625 -0.890625 L 2.8125 -1.125 Z M 9.15625 -1.125 "/></g></g></g><g fill="#201f1f" fill-opacity="1"><g transform="translate(11.230973, 20.575898)"><g><path d="M 5.734375 0.1875 C 4.703125 0.1875 3.835938 -0.117188 3.140625 -0.734375 C 2.453125 -1.347656 1.929688 -2.179688 1.578125 -3.234375 C 1.234375 -4.285156 1.0625 -5.460938 1.0625 -6.765625 C 1.0625 -8.078125 1.234375 -9.253906 1.578125 -10.296875 C 1.929688 -11.347656 2.453125 -12.179688 3.140625 -12.796875 C 3.835938 -13.410156 4.703125 -13.71875 5.734375 -13.71875 C 6.785156 -13.71875 7.65625 -13.410156 8.34375 -12.796875 C 9.039062 -12.179688 9.5625 -11.347656 9.90625 -10.296875 C 10.25 -9.253906 10.421875 -8.078125 10.421875 -6.765625 C 10.421875 -5.460938 10.25 -4.285156 9.90625 -3.234375 C 9.5625 -2.179688 9.039062 -1.347656 8.34375 -0.734375 C 7.65625 -0.117188 6.785156 0.1875 5.734375 0.1875 Z M 5.734375 -1 C 6.492188 -1 7.128906 -1.238281 7.640625 -1.71875 C 8.148438 -2.195312 8.535156 -2.867188 8.796875 -3.734375 C 9.054688 -4.609375 9.1875 -5.617188 9.1875 -6.765625 C 9.1875 -7.921875 9.054688 -8.929688 8.796875 -9.796875 C 8.535156 -10.671875 8.148438 -11.34375 7.640625 -11.8125 C 7.128906 -12.289062 6.492188 -12.53125 5.734375 -12.53125 C 4.984375 -12.53125 4.351562 -12.289062 3.84375 -11.8125 C 3.34375 -11.34375 2.957031 -10.671875 2.6875 -9.796875 C 2.425781 -8.929688 2.296875 -7.921875 2.296875 -6.765625 C 2.296875 -5.617188 2.425781 -4.609375 2.6875 -3.734375 C 2.957031 -2.867188 3.34375 -2.195312 3.84375 -1.71875 C 4.351562 -1.238281 4.984375 -1 5.734375 -1 Z M 5.734375 -1 "/></g></g></g></g></g></g><g clip-path="url(#b2283403d9)"><g transform="matrix(1, 0, 0, 1, 254, 450)"><g clip-path="url(#ac52e14a7a)"><g fill="#201f1f" fill-opacity="1"><g transform="translate(0.352208, 20.575898)"><g><path d="M 9.15625 -1.125 C 9.3125 -1.125 9.441406 -1.066406 9.546875 -0.953125 C 9.660156 -0.847656 9.71875 -0.71875 9.71875 -0.5625 C 9.71875 -0.394531 9.660156 -0.257812 9.546875 -0.15625 C 9.441406 -0.0507812 9.3125 0 9.15625 0 L 1.90625 0 C 1.738281 0 1.59375 -0.046875 1.46875 -0.140625 C 1.351562 -0.242188 1.296875 -0.390625 1.296875 -0.578125 C 1.296875 -0.722656 1.347656 -0.859375 1.453125 -0.984375 L 5.90625 -5.90625 C 6.613281 -6.675781 7.144531 -7.382812 7.5 -8.03125 C 7.851562 -8.6875 8.03125 -9.273438 8.03125 -9.796875 C 8.03125 -10.640625 7.769531 -11.316406 7.25 -11.828125 C 6.738281 -12.347656 6.046875 -12.609375 5.171875 -12.609375 C 4.773438 -12.609375 4.378906 -12.523438 3.984375 -12.359375 C 3.597656 -12.191406 3.25 -11.972656 2.9375 -11.703125 C 2.632812 -11.429688 2.398438 -11.125 2.234375 -10.78125 C 2.160156 -10.644531 2.082031 -10.550781 2 -10.5 C 1.914062 -10.445312 1.820312 -10.421875 1.71875 -10.421875 C 1.5625 -10.421875 1.425781 -10.46875 1.3125 -10.5625 C 1.195312 -10.664062 1.140625 -10.789062 1.140625 -10.9375 C 1.140625 -11.019531 1.160156 -11.109375 1.203125 -11.203125 C 1.253906 -11.296875 1.320312 -11.398438 1.40625 -11.515625 C 1.632812 -11.910156 1.957031 -12.273438 2.375 -12.609375 C 2.789062 -12.941406 3.25 -13.207031 3.75 -13.40625 C 4.257812 -13.613281 4.757812 -13.71875 5.25 -13.71875 C 6.070312 -13.71875 6.78125 -13.554688 7.375 -13.234375 C 7.976562 -12.921875 8.441406 -12.476562 8.765625 -11.90625 C 9.097656 -11.332031 9.265625 -10.65625 9.265625 -9.875 C 9.265625 -9.195312 9.054688 -8.460938 8.640625 -7.671875 C 8.222656 -6.878906 7.601562 -6.03125 6.78125 -5.125 L 3.015625 -0.890625 L 2.8125 -1.125 Z M 9.15625 -1.125 "/></g></g></g><g fill="#201f1f" fill-opacity="1"><g transform="translate(11.048375, 20.575898)"><g><path d="M 4.359375 0 C 4.179688 0 4.035156 -0.0546875 3.921875 -0.171875 C 3.804688 -0.285156 3.75 -0.421875 3.75 -0.578125 L 3.75 -12.203125 L 3.953125 -12.015625 L 1.390625 -10.296875 C 1.285156 -10.210938 1.175781 -10.171875 1.0625 -10.171875 C 0.90625 -10.171875 0.765625 -10.234375 0.640625 -10.359375 C 0.523438 -10.492188 0.46875 -10.640625 0.46875 -10.796875 C 0.46875 -11.003906 0.566406 -11.164062 0.765625 -11.28125 L 4 -13.421875 C 4.070312 -13.472656 4.148438 -13.503906 4.234375 -13.515625 C 4.316406 -13.523438 4.394531 -13.523438 4.46875 -13.515625 C 4.632812 -13.503906 4.757812 -13.441406 4.84375 -13.328125 C 4.9375 -13.222656 4.984375 -13.09375 4.984375 -12.9375 L 4.984375 -0.578125 C 4.984375 -0.421875 4.925781 -0.285156 4.8125 -0.171875 C 4.695312 -0.0546875 4.546875 0 4.359375 0 Z M 4.359375 0 "/></g></g></g></g></g></g><g clip-path="url(#3b2e5c9fbb)"><g transform="matrix(1, 0, 0, 1, 380, 450)"><g clip-path="url(#feb066deac)"><g fill="#201f1f" fill-opacity="1"><g transform="translate(0.169594, 20.575898)"><g><path d="M 9.15625 -1.125 C 9.3125 -1.125 9.441406 -1.066406 9.546875 -0.953125 C 9.660156 -0.847656 9.71875 -0.71875 9.71875 -0.5625 C 9.71875 -0.394531 9.660156 -0.257812 9.546875 -0.15625 C 9.441406 -0.0507812 9.3125 0 9.15625 0 L 1.90625 0 C 1.738281 0 1.59375 -0.046875 1.46875 -0.140625 C 1.351562 -0.242188 1.296875 -0.390625 1.296875 -0.578125 C 1.296875 -0.722656 1.347656 -0.859375 1.453125 -0.984375 L 5.90625 -5.90625 C 6.613281 -6.675781 7.144531 -7.382812 7.5 -8.03125 C 7.851562 -8.6875 8.03125 -9.273438 8.03125 -9.796875 C 8.03125 -10.640625 7.769531 -11.316406 7.25 -11.828125 C 6.738281 -12.347656 6.046875 -12.609375 5.171875 -12.609375 C 4.773438 -12.609375 4.378906 -12.523438 3.984375 -12.359375 C 3.597656 -12.191406 3.25 -11.972656 2.9375 -11.703125 C 2.632812 -11.429688 2.398438 -11.125 2.234375 -10.78125 C 2.160156 -10.644531 2.082031 -10.550781 2 -10.5 C 1.914062 -10.445312 1.820312 -10.421875 1.71875 -10.421875 C 1.5625 -10.421875 1.425781 -10.46875 1.3125 -10.5625 C 1.195312 -10.664062 1.140625 -10.789062 1.140625 -10.9375 C 1.140625 -11.019531 1.160156 -11.109375 1.203125 -11.203125 C 1.253906 -11.296875 1.320312 -11.398438 1.40625 -11.515625 C 1.632812 -11.910156 1.957031 -12.273438 2.375 -12.609375 C 2.789062 -12.941406 3.25 -13.207031 3.75 -13.40625 C 4.257812 -13.613281 4.757812 -13.71875 5.25 -13.71875 C 6.070312 -13.71875 6.78125 -13.554688 7.375 -13.234375 C 7.976562 -12.921875 8.441406 -12.476562 8.765625 -11.90625 C 9.097656 -11.332031 9.265625 -10.65625 9.265625 -9.875 C 9.265625 -9.195312 9.054688 -8.460938 8.640625 -7.671875 C 8.222656 -6.878906 7.601562 -6.03125 6.78125 -5.125 L 3.015625 -0.890625 L 2.8125 -1.125 Z M 9.15625 -1.125 "/></g></g></g><g fill="#201f1f" fill-opacity="1"><g transform="translate(10.865761, 20.575898)"><g><path d="M 9.15625 -1.125 C 9.3125 -1.125 9.441406 -1.066406 9.546875 -0.953125 C 9.660156 -0.847656 9.71875 -0.71875 9.71875 -0.5625 C 9.71875 -0.394531 9.660156 -0.257812 9.546875 -0.15625 C 9.441406 -0.0507812 9.3125 0 9.15625 0 L 1.90625 0 C 1.738281 0 1.59375 -0.046875 1.46875 -0.140625 C 1.351562 -0.242188 1.296875 -0.390625 1.296875 -0.578125 C 1.296875 -0.722656 1.347656 -0.859375 1.453125 -0.984375 L 5.90625 -5.90625 C 6.613281 -6.675781 7.144531 -7.382812 7.5 -8.03125 C 7.851562 -8.6875 8.03125 -9.273438 8.03125 -9.796875 C 8.03125 -10.640625 7.769531 -11.316406 7.25 -11.828125 C 6.738281 -12.347656 6.046875 -12.609375 5.171875 -12.609375 C 4.773438 -12.609375 4.378906 -12.523438 3.984375 -12.359375 C 3.597656 -12.191406 3.25 -11.972656 2.9375 -11.703125 C 2.632812 -11.429688 2.398438 -11.125 2.234375 -10.78125 C 2.160156 -10.644531 2.082031 -10.550781 2 -10.5 C 1.914062 -10.445312 1.820312 -10.421875 1.71875 -10.421875 C 1.5625 -10.421875 1.425781 -10.46875 1.3125 -10.5625 C 1.195312 -10.664062 1.140625 -10.789062 1.140625 -10.9375 C 1.140625 -11.019531 1.160156 -11.109375 1.203125 -11.203125 C 1.253906 -11.296875 1.320312 -11.398438 1.40625 -11.515625 C 1.632812 -11.910156 1.957031 -12.273438 2.375 -12.609375 C 2.789062 -12.941406 3.25 -13.207031 3.75 -13.40625 C 4.257812 -13.613281 4.757812 -13.71875 5.25 -13.71875 C 6.070312 -13.71875 6.78125 -13.554688 7.375 -13.234375 C 7.976562 -12.921875 8.441406 -12.476562 8.765625 -11.90625 C 9.097656 -11.332031 9.265625 -10.65625 9.265625 -9.875 C 9.265625 -9.195312 9.054688 -8.460938 8.640625 -7.671875 C 8.222656 -6.878906 7.601562 -6.03125 6.78125 -5.125 L 3.015625 -0.890625 L 2.8125 -1.125 Z M 9.15625 -1.125 "/></g></g></g></g></g></g><g clip-path="url(#5ea6516afe)"><g transform="matrix(1, 0, 0, 1, 505, 450)"><g clip-path="url(#ca8c5bd070)"><g fill="#201f1f" fill-opacity="1"><g transform="translate(0.98701, 20.575898)"><g><path d="M 9.15625 -1.125 C 9.3125 -1.125 9.441406 -1.066406 9.546875 -0.953125 C 9.660156 -0.847656 9.71875 -0.71875 9.71875 -0.5625 C 9.71875 -0.394531 9.660156 -0.257812 9.546875 -0.15625 C 9.441406 -0.0507812 9.3125 0 9.15625 0 L 1.90625 0 C 1.738281 0 1.59375 -0.046875 1.46875 -0.140625 C 1.351562 -0.242188 1.296875 -0.390625 1.296875 -0.578125 C 1.296875 -0.722656 1.347656 -0.859375 1.453125 -0.984375 L 5.90625 -5.90625 C 6.613281 -6.675781 7.144531 -7.382812 7.5 -8.03125 C 7.851562 -8.6875 8.03125 -9.273438 8.03125 -9.796875 C 8.03125 -10.640625 7.769531 -11.316406 7.25 -11.828125 C 6.738281 -12.347656 6.046875 -12.609375 5.171875 -12.609375 C 4.773438 -12.609375 4.378906 -12.523438 3.984375 -12.359375 C 3.597656 -12.191406 3.25 -11.972656 2.9375 -11.703125 C 2.632812 -11.429688 2.398438 -11.125 2.234375 -10.78125 C 2.160156 -10.644531 2.082031 -10.550781 2 -10.5 C 1.914062 -10.445312 1.820312 -10.421875 1.71875 -10.421875 C 1.5625 -10.421875 1.425781 -10.46875 1.3125 -10.5625 C 1.195312 -10.664062 1.140625 -10.789062 1.140625 -10.9375 C 1.140625 -11.019531 1.160156 -11.109375 1.203125 -11.203125 C 1.253906 -11.296875 1.320312 -11.398438 1.40625 -11.515625 C 1.632812 -11.910156 1.957031 -12.273438 2.375 -12.609375 C 2.789062 -12.941406 3.25 -13.207031 3.75 -13.40625 C 4.257812 -13.613281 4.757812 -13.71875 5.25 -13.71875 C 6.070312 -13.71875 6.78125 -13.554688 7.375 -13.234375 C 7.976562 -12.921875 8.441406 -12.476562 8.765625 -11.90625 C 9.097656 -11.332031 9.265625 -10.65625 9.265625 -9.875 C 9.265625 -9.195312 9.054688 -8.460938 8.640625 -7.671875 C 8.222656 -6.878906 7.601562 -6.03125 6.78125 -5.125 L 3.015625 -0.890625 L 2.8125 -1.125 Z M 9.15625 -1.125 "/></g></g></g><g fill="#201f1f" fill-opacity="1"><g transform="translate(11.683177, 20.575898)"><g><path d="M 1.71875 -1.984375 C 1.78125 -1.984375 1.847656 -1.96875 1.921875 -1.9375 C 1.992188 -1.914062 2.082031 -1.863281 2.1875 -1.78125 C 2.457031 -1.5 2.773438 -1.28125 3.140625 -1.125 C 3.515625 -0.976562 3.941406 -0.90625 4.421875 -0.90625 C 5.054688 -0.90625 5.632812 -1.046875 6.15625 -1.328125 C 6.675781 -1.609375 7.085938 -2.003906 7.390625 -2.515625 C 7.703125 -3.023438 7.859375 -3.609375 7.859375 -4.265625 C 7.859375 -5.015625 7.691406 -5.617188 7.359375 -6.078125 C 7.035156 -6.535156 6.617188 -6.875 6.109375 -7.09375 C 5.597656 -7.320312 5.082031 -7.4375 4.5625 -7.4375 C 4.414062 -7.4375 4.273438 -7.425781 4.140625 -7.40625 C 4.003906 -7.382812 3.878906 -7.359375 3.765625 -7.328125 C 3.648438 -7.304688 3.5625 -7.296875 3.5 -7.296875 C 3.332031 -7.296875 3.203125 -7.347656 3.109375 -7.453125 C 3.015625 -7.566406 2.96875 -7.707031 2.96875 -7.875 C 2.96875 -7.96875 2.988281 -8.050781 3.03125 -8.125 C 3.070312 -8.195312 3.125 -8.273438 3.1875 -8.359375 L 7.109375 -12.625 L 7.34375 -12.328125 L 1.484375 -12.328125 C 1.328125 -12.328125 1.191406 -12.378906 1.078125 -12.484375 C 0.972656 -12.597656 0.921875 -12.726562 0.921875 -12.875 C 0.921875 -13.03125 0.972656 -13.160156 1.078125 -13.265625 C 1.191406 -13.367188 1.328125 -13.421875 1.484375 -13.421875 L 7.96875 -13.421875 C 8.1875 -13.421875 8.34375 -13.351562 8.4375 -13.21875 C 8.53125 -13.082031 8.578125 -12.953125 8.578125 -12.828125 C 8.578125 -12.742188 8.554688 -12.664062 8.515625 -12.59375 C 8.472656 -12.53125 8.421875 -12.457031 8.359375 -12.375 L 4.4375 -8.109375 L 4.015625 -8.359375 C 4.054688 -8.398438 4.1875 -8.441406 4.40625 -8.484375 C 4.632812 -8.535156 4.8125 -8.5625 4.9375 -8.5625 C 5.644531 -8.5625 6.3125 -8.390625 6.9375 -8.046875 C 7.5625 -7.710938 8.070312 -7.234375 8.46875 -6.609375 C 8.863281 -5.984375 9.0625 -5.21875 9.0625 -4.3125 C 9.0625 -3.40625 8.847656 -2.613281 8.421875 -1.9375 C 7.992188 -1.257812 7.421875 -0.734375 6.703125 -0.359375 C 5.984375 0.00390625 5.1875 0.1875 4.3125 0.1875 C 3.78125 0.1875 3.253906 0.0976562 2.734375 -0.078125 C 2.222656 -0.253906 1.773438 -0.523438 1.390625 -0.890625 C 1.296875 -0.960938 1.226562 -1.035156 1.1875 -1.109375 C 1.15625 -1.191406 1.140625 -1.273438 1.140625 -1.359375 C 1.140625 -1.503906 1.191406 -1.644531 1.296875 -1.78125 C 1.410156 -1.914062 1.550781 -1.984375 1.71875 -1.984375 Z M 1.71875 -1.984375 "/></g></g></g></g></g></g><g clip-path="url(#f91d7703e9)"><g transform="matrix(1, 0, 0, 1, 631, 450)"><g clip-path="url(#2e0f1a5f2b)"><g fill="#201f1f" fill-opacity="1"><g transform="translate(0.804367, 20.575898)"><g><path d="M 9.15625 -1.125 C 9.3125 -1.125 9.441406 -1.066406 9.546875 -0.953125 C 9.660156 -0.847656 9.71875 -0.71875 9.71875 -0.5625 C 9.71875 -0.394531 9.660156 -0.257812 9.546875 -0.15625 C 9.441406 -0.0507812 9.3125 0 9.15625 0 L 1.90625 0 C 1.738281 0 1.59375 -0.046875 1.46875 -0.140625 C 1.351562 -0.242188 1.296875 -0.390625 1.296875 -0.578125 C 1.296875 -0.722656 1.347656 -0.859375 1.453125 -0.984375 L 5.90625 -5.90625 C 6.613281 -6.675781 7.144531 -7.382812 7.5 -8.03125 C 7.851562 -8.6875 8.03125 -9.273438 8.03125 -9.796875 C 8.03125 -10.640625 7.769531 -11.316406 7.25 -11.828125 C 6.738281 -12.347656 6.046875 -12.609375 5.171875 -12.609375 C 4.773438 -12.609375 4.378906 -12.523438 3.984375 -12.359375 C 3.597656 -12.191406 3.25 -11.972656 2.9375 -11.703125 C 2.632812 -11.429688 2.398438 -11.125 2.234375 -10.78125 C 2.160156 -10.644531 2.082031 -10.550781 2 -10.5 C 1.914062 -10.445312 1.820312 -10.421875 1.71875 -10.421875 C 1.5625 -10.421875 1.425781 -10.46875 1.3125 -10.5625 C 1.195312 -10.664062 1.140625 -10.789062 1.140625 -10.9375 C 1.140625 -11.019531 1.160156 -11.109375 1.203125 -11.203125 C 1.253906 -11.296875 1.320312 -11.398438 1.40625 -11.515625 C 1.632812 -11.910156 1.957031 -12.273438 2.375 -12.609375 C 2.789062 -12.941406 3.25 -13.207031 3.75 -13.40625 C 4.257812 -13.613281 4.757812 -13.71875 5.25 -13.71875 C 6.070312 -13.71875 6.78125 -13.554688 7.375 -13.234375 C 7.976562 -12.921875 8.441406 -12.476562 8.765625 -11.90625 C 9.097656 -11.332031 9.265625 -10.65625 9.265625 -9.875 C 9.265625 -9.195312 9.054688 -8.460938 8.640625 -7.671875 C 8.222656 -6.878906 7.601562 -6.03125 6.78125 -5.125 L 3.015625 -0.890625 L 2.8125 -1.125 Z M 9.15625 -1.125 "/></g></g></g><g fill="#201f1f" fill-opacity="1"><g transform="translate(11.500534, 20.575898)"><g><path d="M 7.09375 0 C 6.925781 0 6.789062 -0.0546875 6.6875 -0.171875 C 6.582031 -0.285156 6.53125 -0.421875 6.53125 -0.578125 L 6.53125 -11.921875 L 6.78125 -11.765625 L 1.703125 -5.046875 L 1.640625 -5.25 L 9.0625 -5.25 C 9.21875 -5.25 9.347656 -5.195312 9.453125 -5.09375 C 9.566406 -4.988281 9.625 -4.863281 9.625 -4.71875 C 9.625 -4.5625 9.566406 -4.429688 9.453125 -4.328125 C 9.347656 -4.222656 9.21875 -4.171875 9.0625 -4.171875 L 0.84375 -4.171875 C 0.695312 -4.171875 0.5625 -4.226562 0.4375 -4.34375 C 0.320312 -4.46875 0.265625 -4.609375 0.265625 -4.765625 C 0.265625 -4.910156 0.3125 -5.039062 0.40625 -5.15625 L 6.625 -13.28125 C 6.6875 -13.375 6.765625 -13.4375 6.859375 -13.46875 C 6.960938 -13.5 7.046875 -13.515625 7.109375 -13.515625 C 7.273438 -13.515625 7.410156 -13.457031 7.515625 -13.34375 C 7.628906 -13.226562 7.6875 -13.09375 7.6875 -12.9375 L 7.6875 -0.578125 C 7.6875 -0.421875 7.628906 -0.285156 7.515625 -0.171875 C 7.398438 -0.0546875 7.257812 0 7.09375 0 Z M 7.09375 0 "/></g></g></g></g></g></g><g clip-path="url(#a774b0151f)"><g transform="matrix(1, 0, 0, 1, 757, 450)"><g clip-path="url(#ec09d6a748)"><g fill="#201f1f" fill-opacity="1"><g transform="translate(0.621841, 20.575898)"><g><path d="M 9.15625 -1.125 C 9.3125 -1.125 9.441406 -1.066406 9.546875 -0.953125 C 9.660156 -0.847656 9.71875 -0.71875 9.71875 -0.5625 C 9.71875 -0.394531 9.660156 -0.257812 9.546875 -0.15625 C 9.441406 -0.0507812 9.3125 0 9.15625 0 L 1.90625 0 C 1.738281 0 1.59375 -0.046875 1.46875 -0.140625 C 1.351562 -0.242188 1.296875 -0.390625 1.296875 -0.578125 C 1.296875 -0.722656 1.347656 -0.859375 1.453125 -0.984375 L 5.90625 -5.90625 C 6.613281 -6.675781 7.144531 -7.382812 7.5 -8.03125 C 7.851562 -8.6875 8.03125 -9.273438 8.03125 -9.796875 C 8.03125 -10.640625 7.769531 -11.316406 7.25 -11.828125 C 6.738281 -12.347656 6.046875 -12.609375 5.171875 -12.609375 C 4.773438 -12.609375 4.378906 -12.523438 3.984375 -12.359375 C 3.597656 -12.191406 3.25 -11.972656 2.9375 -11.703125 C 2.632812 -11.429688 2.398438 -11.125 2.234375 -10.78125 C 2.160156 -10.644531 2.082031 -10.550781 2 -10.5 C 1.914062 -10.445312 1.820312 -10.421875 1.71875 -10.421875 C 1.5625 -10.421875 1.425781 -10.46875 1.3125 -10.5625 C 1.195312 -10.664062 1.140625 -10.789062 1.140625 -10.9375 C 1.140625 -11.019531 1.160156 -11.109375 1.203125 -11.203125 C 1.253906 -11.296875 1.320312 -11.398438 1.40625 -11.515625 C 1.632812 -11.910156 1.957031 -12.273438 2.375 -12.609375 C 2.789062 -12.941406 3.25 -13.207031 3.75 -13.40625 C 4.257812 -13.613281 4.757812 -13.71875 5.25 -13.71875 C 6.070312 -13.71875 6.78125 -13.554688 7.375 -13.234375 C 7.976562 -12.921875 8.441406 -12.476562 8.765625 -11.90625 C 9.097656 -11.332031 9.265625 -10.65625 9.265625 -9.875 C 9.265625 -9.195312 9.054688 -8.460938 8.640625 -7.671875 C 8.222656 -6.878906 7.601562 -6.03125 6.78125 -5.125 L 3.015625 -0.890625 L 2.8125 -1.125 Z M 9.15625 -1.125 "/></g></g></g><g fill="#201f1f" fill-opacity="1"><g transform="translate(11.318008, 20.575898)"><g><path d="M 4.515625 0.03125 C 3.992188 0.03125 3.460938 -0.0507812 2.921875 -0.21875 C 2.390625 -0.394531 1.914062 -0.65625 1.5 -1 C 1.425781 -1.0625 1.363281 -1.140625 1.3125 -1.234375 C 1.269531 -1.328125 1.25 -1.414062 1.25 -1.5 C 1.25 -1.632812 1.300781 -1.757812 1.40625 -1.875 C 1.507812 -2 1.644531 -2.0625 1.8125 -2.0625 C 1.957031 -2.0625 2.097656 -2.003906 2.234375 -1.890625 C 2.578125 -1.628906 2.941406 -1.425781 3.328125 -1.28125 C 3.722656 -1.144531 4.117188 -1.078125 4.515625 -1.078125 C 5.273438 -1.078125 5.9375 -1.222656 6.5 -1.515625 C 7.070312 -1.804688 7.507812 -2.21875 7.8125 -2.75 C 8.125 -3.28125 8.28125 -3.898438 8.28125 -4.609375 C 8.28125 -5.265625 8.140625 -5.832031 7.859375 -6.3125 C 7.578125 -6.800781 7.175781 -7.179688 6.65625 -7.453125 C 6.132812 -7.734375 5.519531 -7.875 4.8125 -7.875 C 4.34375 -7.875 3.914062 -7.800781 3.53125 -7.65625 C 3.15625 -7.519531 2.828125 -7.378906 2.546875 -7.234375 C 2.273438 -7.085938 2.054688 -7.015625 1.890625 -7.015625 C 1.734375 -7.015625 1.609375 -7.050781 1.515625 -7.125 C 1.421875 -7.195312 1.359375 -7.289062 1.328125 -7.40625 C 1.296875 -7.53125 1.289062 -7.65625 1.3125 -7.78125 L 2.140625 -12.9375 C 2.148438 -13.050781 2.207031 -13.15625 2.3125 -13.25 C 2.425781 -13.351562 2.570312 -13.40625 2.75 -13.40625 L 8.5625 -13.40625 C 8.707031 -13.40625 8.832031 -13.347656 8.9375 -13.234375 C 9.050781 -13.128906 9.109375 -13 9.109375 -12.84375 C 9.109375 -12.675781 9.050781 -12.535156 8.9375 -12.421875 C 8.832031 -12.316406 8.707031 -12.265625 8.5625 -12.265625 L 3.015625 -12.265625 L 3.1875 -12.4375 L 2.390625 -7.859375 L 2.046875 -8.109375 C 2.210938 -8.234375 2.453125 -8.359375 2.765625 -8.484375 C 3.085938 -8.617188 3.441406 -8.734375 3.828125 -8.828125 C 4.222656 -8.929688 4.640625 -8.984375 5.078125 -8.984375 C 5.910156 -8.984375 6.65625 -8.796875 7.3125 -8.421875 C 7.96875 -8.054688 8.484375 -7.546875 8.859375 -6.890625 C 9.242188 -6.242188 9.4375 -5.5 9.4375 -4.65625 C 9.4375 -3.71875 9.234375 -2.894531 8.828125 -2.1875 C 8.429688 -1.488281 7.863281 -0.941406 7.125 -0.546875 C 6.394531 -0.160156 5.523438 0.03125 4.515625 0.03125 Z M 4.515625 0.03125 "/></g></g></g></g></g></g><g clip-path="url(#db07e2c616)"><g transform="matrix(1, 0, 0, 1, 2, 600)"><g clip-path="url(#e2ad4a5055)"><g fill="#201f1f" fill-opacity="1"><g transform="translate(0.717401, 20.332375)"><g><path d="M 9.15625 -1.125 C 9.3125 -1.125 9.441406 -1.066406 9.546875 -0.953125 C 9.660156 -0.847656 9.71875 -0.71875 9.71875 -0.5625 C 9.71875 -0.394531 9.660156 -0.257812 9.546875 -0.15625 C 9.441406 -0.0507812 9.3125 0 9.15625 0 L 1.90625 0 C 1.738281 0 1.59375 -0.046875 1.46875 -0.140625 C 1.351562 -0.242188 1.296875 -0.390625 1.296875 -0.578125 C 1.296875 -0.722656 1.347656 -0.859375 1.453125 -0.984375 L 5.90625 -5.90625 C 6.613281 -6.675781 7.144531 -7.382812 7.5 -8.03125 C 7.851562 -8.6875 8.03125 -9.273438 8.03125 -9.796875 C 8.03125 -10.640625 7.769531 -11.316406 7.25 -11.828125 C 6.738281 -12.347656 6.046875 -12.609375 5.171875 -12.609375 C 4.773438 -12.609375 4.378906 -12.523438 3.984375 -12.359375 C 3.597656 -12.191406 3.25 -11.972656 2.9375 -11.703125 C 2.632812 -11.429688 2.398438 -11.125 2.234375 -10.78125 C 2.160156 -10.644531 2.082031 -10.550781 2 -10.5 C 1.914062 -10.445312 1.820312 -10.421875 1.71875 -10.421875 C 1.5625 -10.421875 1.425781 -10.46875 1.3125 -10.5625 C 1.195312 -10.664062 1.140625 -10.789062 1.140625 -10.9375 C 1.140625 -11.019531 1.160156 -11.109375 1.203125 -11.203125 C 1.253906 -11.296875 1.320312 -11.398438 1.40625 -11.515625 C 1.632812 -11.910156 1.957031 -12.273438 2.375 -12.609375 C 2.789062 -12.941406 3.25 -13.207031 3.75 -13.40625 C 4.257812 -13.613281 4.757812 -13.71875 5.25 -13.71875 C 6.070312 -13.71875 6.78125 -13.554688 7.375 -13.234375 C 7.976562 -12.921875 8.441406 -12.476562 8.765625 -11.90625 C 9.097656 -11.332031 9.265625 -10.65625 9.265625 -9.875 C 9.265625 -9.195312 9.054688 -8.460938 8.640625 -7.671875 C 8.222656 -6.878906 7.601562 -6.03125 6.78125 -5.125 L 3.015625 -0.890625 L 2.8125 -1.125 Z M 9.15625 -1.125 "/></g></g></g><g fill="#201f1f" fill-opacity="1"><g transform="translate(11.413568, 20.332375)"><g><path d="M 5.546875 0.1875 C 4.796875 0.1875 4.140625 0.0507812 3.578125 -0.21875 C 3.023438 -0.488281 2.5625 -0.847656 2.1875 -1.296875 C 1.820312 -1.753906 1.550781 -2.273438 1.375 -2.859375 C 1.207031 -3.441406 1.125 -4.035156 1.125 -4.640625 C 1.125 -5.253906 1.195312 -5.914062 1.34375 -6.625 C 1.5 -7.34375 1.738281 -8.066406 2.0625 -8.796875 C 2.382812 -9.535156 2.78125 -10.234375 3.25 -10.890625 C 3.71875 -11.546875 4.265625 -12.132812 4.890625 -12.65625 C 5.515625 -13.175781 6.222656 -13.585938 7.015625 -13.890625 C 7.097656 -13.910156 7.171875 -13.921875 7.234375 -13.921875 C 7.410156 -13.921875 7.554688 -13.875 7.671875 -13.78125 C 7.796875 -13.695312 7.859375 -13.546875 7.859375 -13.328125 C 7.859375 -13.191406 7.816406 -13.078125 7.734375 -12.984375 C 7.648438 -12.890625 7.535156 -12.816406 7.390625 -12.765625 C 6.847656 -12.535156 6.3125 -12.207031 5.78125 -11.78125 C 5.257812 -11.351562 4.773438 -10.863281 4.328125 -10.3125 C 3.878906 -9.757812 3.492188 -9.164062 3.171875 -8.53125 C 2.859375 -7.894531 2.640625 -7.242188 2.515625 -6.578125 L 2.078125 -6.328125 C 2.316406 -6.753906 2.617188 -7.128906 2.984375 -7.453125 C 3.347656 -7.785156 3.769531 -8.050781 4.25 -8.25 C 4.726562 -8.457031 5.242188 -8.5625 5.796875 -8.5625 C 6.367188 -8.5625 6.898438 -8.4375 7.390625 -8.1875 C 7.878906 -7.945312 8.300781 -7.613281 8.65625 -7.1875 C 9.007812 -6.769531 9.285156 -6.296875 9.484375 -5.765625 C 9.691406 -5.242188 9.796875 -4.703125 9.796875 -4.140625 C 9.796875 -3.378906 9.609375 -2.671875 9.234375 -2.015625 C 8.867188 -1.359375 8.367188 -0.828125 7.734375 -0.421875 C 7.097656 -0.015625 6.367188 0.1875 5.546875 0.1875 Z M 5.515625 -0.921875 C 6.109375 -0.921875 6.632812 -1.054688 7.09375 -1.328125 C 7.5625 -1.597656 7.925781 -1.972656 8.1875 -2.453125 C 8.457031 -2.941406 8.59375 -3.503906 8.59375 -4.140625 C 8.59375 -4.710938 8.476562 -5.242188 8.25 -5.734375 C 8.03125 -6.234375 7.695312 -6.640625 7.25 -6.953125 C 6.800781 -7.273438 6.25 -7.4375 5.59375 -7.4375 C 4.914062 -7.4375 4.328125 -7.28125 3.828125 -6.96875 C 3.335938 -6.664062 2.957031 -6.257812 2.6875 -5.75 C 2.425781 -5.238281 2.296875 -4.679688 2.296875 -4.078125 C 2.296875 -3.535156 2.425781 -3.019531 2.6875 -2.53125 C 2.945312 -2.050781 3.316406 -1.660156 3.796875 -1.359375 C 4.273438 -1.066406 4.847656 -0.921875 5.515625 -0.921875 Z M 5.515625 -0.921875 "/></g></g></g></g></g></g><g clip-path="url(#42edda5d39)"><g transform="matrix(1, 0, 0, 1, 128, 600)"><g clip-path="url(#d2cb470f29)"><g fill="#201f1f" fill-opacity="1"><g transform="translate(0.534806, 20.332375)"><g><path d="M 9.15625 -1.125 C 9.3125 -1.125 9.441406 -1.066406 9.546875 -0.953125 C 9.660156 -0.847656 9.71875 -0.71875 9.71875 -0.5625 C 9.71875 -0.394531 9.660156 -0.257812 9.546875 -0.15625 C 9.441406 -0.0507812 9.3125 0 9.15625 0 L 1.90625 0 C 1.738281 0 1.59375 -0.046875 1.46875 -0.140625 C 1.351562 -0.242188 1.296875 -0.390625 1.296875 -0.578125 C 1.296875 -0.722656 1.347656 -0.859375 1.453125 -0.984375 L 5.90625 -5.90625 C 6.613281 -6.675781 7.144531 -7.382812 7.5 -8.03125 C 7.851562 -8.6875 8.03125 -9.273438 8.03125 -9.796875 C 8.03125 -10.640625 7.769531 -11.316406 7.25 -11.828125 C 6.738281 -12.347656 6.046875 -12.609375 5.171875 -12.609375 C 4.773438 -12.609375 4.378906 -12.523438 3.984375 -12.359375 C 3.597656 -12.191406 3.25 -11.972656 2.9375 -11.703125 C 2.632812 -11.429688 2.398438 -11.125 2.234375 -10.78125 C 2.160156 -10.644531 2.082031 -10.550781 2 -10.5 C 1.914062 -10.445312 1.820312 -10.421875 1.71875 -10.421875 C 1.5625 -10.421875 1.425781 -10.46875 1.3125 -10.5625 C 1.195312 -10.664062 1.140625 -10.789062 1.140625 -10.9375 C 1.140625 -11.019531 1.160156 -11.109375 1.203125 -11.203125 C 1.253906 -11.296875 1.320312 -11.398438 1.40625 -11.515625 C 1.632812 -11.910156 1.957031 -12.273438 2.375 -12.609375 C 2.789062 -12.941406 3.25 -13.207031 3.75 -13.40625 C 4.257812 -13.613281 4.757812 -13.71875 5.25 -13.71875 C 6.070312 -13.71875 6.78125 -13.554688 7.375 -13.234375 C 7.976562 -12.921875 8.441406 -12.476562 8.765625 -11.90625 C 9.097656 -11.332031 9.265625 -10.65625 9.265625 -9.875 C 9.265625 -9.195312 9.054688 -8.460938 8.640625 -7.671875 C 8.222656 -6.878906 7.601562 -6.03125 6.78125 -5.125 L 3.015625 -0.890625 L 2.8125 -1.125 Z M 9.15625 -1.125 "/></g></g></g><g fill="#201f1f" fill-opacity="1"><g transform="translate(11.230973, 20.332375)"><g><path d="M 3.4375 0.0625 C 3.28125 0.0625 3.132812 0.0078125 3 -0.09375 C 2.875 -0.195312 2.8125 -0.328125 2.8125 -0.484375 C 2.8125 -0.578125 2.832031 -0.671875 2.875 -0.765625 L 8.015625 -12.578125 L 8.234375 -12.296875 L 1.703125 -12.296875 C 1.546875 -12.296875 1.410156 -12.347656 1.296875 -12.453125 C 1.191406 -12.566406 1.140625 -12.703125 1.140625 -12.859375 C 1.140625 -13.023438 1.191406 -13.160156 1.296875 -13.265625 C 1.410156 -13.367188 1.546875 -13.421875 1.703125 -13.421875 L 8.78125 -13.421875 C 8.976562 -13.421875 9.117188 -13.367188 9.203125 -13.265625 C 9.296875 -13.160156 9.34375 -13.03125 9.34375 -12.875 C 9.34375 -12.78125 9.328125 -12.6875 9.296875 -12.59375 L 3.984375 -0.328125 C 3.941406 -0.210938 3.867188 -0.117188 3.765625 -0.046875 C 3.660156 0.0234375 3.550781 0.0625 3.4375 0.0625 Z M 3.4375 0.0625 "/></g></g></g></g></g></g><g clip-path="url(#a95ff920bc)"><g transform="matrix(1, 0, 0, 1, 254, 600)"><g clip-path="url(#2ae1414228)"><g fill="#201f1f" fill-opacity="1"><g transform="translate(0.352208, 20.332375)"><g><path d="M 9.15625 -1.125 C 9.3125 -1.125 9.441406 -1.066406 9.546875 -0.953125 C 9.660156 -0.847656 9.71875 -0.71875 9.71875 -0.5625 C 9.71875 -0.394531 9.660156 -0.257812 9.546875 -0.15625 C 9.441406 -0.0507812 9.3125 0 9.15625 0 L 1.90625 0 C 1.738281 0 1.59375 -0.046875 1.46875 -0.140625 C 1.351562 -0.242188 1.296875 -0.390625 1.296875 -0.578125 C 1.296875 -0.722656 1.347656 -0.859375 1.453125 -0.984375 L 5.90625 -5.90625 C 6.613281 -6.675781 7.144531 -7.382812 7.5 -8.03125 C 7.851562 -8.6875 8.03125 -9.273438 8.03125 -9.796875 C 8.03125 -10.640625 7.769531 -11.316406 7.25 -11.828125 C 6.738281 -12.347656 6.046875 -12.609375 5.171875 -12.609375 C 4.773438 -12.609375 4.378906 -12.523438 3.984375 -12.359375 C 3.597656 -12.191406 3.25 -11.972656 2.9375 -11.703125 C 2.632812 -11.429688 2.398438 -11.125 2.234375 -10.78125 C 2.160156 -10.644531 2.082031 -10.550781 2 -10.5 C 1.914062 -10.445312 1.820312 -10.421875 1.71875 -10.421875 C 1.5625 -10.421875 1.425781 -10.46875 1.3125 -10.5625 C 1.195312 -10.664062 1.140625 -10.789062 1.140625 -10.9375 C 1.140625 -11.019531 1.160156 -11.109375 1.203125 -11.203125 C 1.253906 -11.296875 1.320312 -11.398438 1.40625 -11.515625 C 1.632812 -11.910156 1.957031 -12.273438 2.375 -12.609375 C 2.789062 -12.941406 3.25 -13.207031 3.75 -13.40625 C 4.257812 -13.613281 4.757812 -13.71875 5.25 -13.71875 C 6.070312 -13.71875 6.78125 -13.554688 7.375 -13.234375 C 7.976562 -12.921875 8.441406 -12.476562 8.765625 -11.90625 C 9.097656 -11.332031 9.265625 -10.65625 9.265625 -9.875 C 9.265625 -9.195312 9.054688 -8.460938 8.640625 -7.671875 C 8.222656 -6.878906 7.601562 -6.03125 6.78125 -5.125 L 3.015625 -0.890625 L 2.8125 -1.125 Z M 9.15625 -1.125 "/></g></g></g><g fill="#201f1f" fill-opacity="1"><g transform="translate(11.048375, 20.332375)"><g><path d="M 7.03125 -6.796875 L 6.96875 -6.96875 C 7.40625 -6.800781 7.800781 -6.550781 8.15625 -6.21875 C 8.519531 -5.894531 8.8125 -5.507812 9.03125 -5.0625 C 9.25 -4.625 9.359375 -4.140625 9.359375 -3.609375 C 9.359375 -2.910156 9.175781 -2.28125 8.8125 -1.71875 C 8.445312 -1.15625 7.945312 -0.703125 7.3125 -0.359375 C 6.6875 -0.0234375 5.988281 0.140625 5.21875 0.140625 C 4.425781 0.140625 3.71875 -0.0234375 3.09375 -0.359375 C 2.46875 -0.703125 1.972656 -1.15625 1.609375 -1.71875 C 1.242188 -2.28125 1.0625 -2.910156 1.0625 -3.609375 C 1.0625 -4.179688 1.171875 -4.6875 1.390625 -5.125 C 1.617188 -5.570312 1.914062 -5.945312 2.28125 -6.25 C 2.65625 -6.5625 3.039062 -6.800781 3.4375 -6.96875 L 3.375 -6.78125 C 3.03125 -6.945312 2.707031 -7.175781 2.40625 -7.46875 C 2.101562 -7.757812 1.851562 -8.101562 1.65625 -8.5 C 1.46875 -8.90625 1.375 -9.351562 1.375 -9.84375 C 1.375 -10.539062 1.539062 -11.164062 1.875 -11.71875 C 2.21875 -12.269531 2.679688 -12.707031 3.265625 -13.03125 C 3.859375 -13.351562 4.507812 -13.515625 5.21875 -13.515625 C 5.925781 -13.515625 6.566406 -13.351562 7.140625 -13.03125 C 7.710938 -12.707031 8.164062 -12.269531 8.5 -11.71875 C 8.84375 -11.164062 9.015625 -10.539062 9.015625 -9.84375 C 9.015625 -9.34375 8.914062 -8.894531 8.71875 -8.5 C 8.53125 -8.101562 8.28125 -7.757812 7.96875 -7.46875 C 7.664062 -7.175781 7.351562 -6.953125 7.03125 -6.796875 Z M 2.5625 -9.84375 C 2.5625 -9.332031 2.679688 -8.882812 2.921875 -8.5 C 3.171875 -8.113281 3.492188 -7.8125 3.890625 -7.59375 C 4.296875 -7.375 4.738281 -7.265625 5.21875 -7.265625 C 5.675781 -7.265625 6.101562 -7.375 6.5 -7.59375 C 6.90625 -7.8125 7.226562 -8.113281 7.46875 -8.5 C 7.707031 -8.882812 7.828125 -9.332031 7.828125 -9.84375 C 7.828125 -10.601562 7.582031 -11.222656 7.09375 -11.703125 C 6.601562 -12.179688 5.976562 -12.421875 5.21875 -12.421875 C 4.425781 -12.421875 3.785156 -12.179688 3.296875 -11.703125 C 2.804688 -11.222656 2.5625 -10.601562 2.5625 -9.84375 Z M 5.21875 -0.96875 C 6.09375 -0.96875 6.800781 -1.21875 7.34375 -1.71875 C 7.894531 -2.21875 8.171875 -2.847656 8.171875 -3.609375 C 8.171875 -4.128906 8.035156 -4.59375 7.765625 -5 C 7.492188 -5.414062 7.128906 -5.738281 6.671875 -5.96875 C 6.222656 -6.195312 5.738281 -6.3125 5.21875 -6.3125 C 4.6875 -6.3125 4.195312 -6.195312 3.75 -5.96875 C 3.300781 -5.738281 2.941406 -5.414062 2.671875 -5 C 2.398438 -4.59375 2.265625 -4.128906 2.265625 -3.609375 C 2.265625 -2.847656 2.53125 -2.21875 3.0625 -1.71875 C 3.601562 -1.21875 4.320312 -0.96875 5.21875 -0.96875 Z M 5.21875 -0.96875 "/></g></g></g></g></g></g><g clip-path="url(#85171111d7)"><g transform="matrix(1, 0, 0, 1, 380, 600)"><g clip-path="url(#16077b6b51)"><g fill="#201f1f" fill-opacity="1"><g transform="translate(0.169594, 20.332375)"><g><path d="M 9.15625 -1.125 C 9.3125 -1.125 9.441406 -1.066406 9.546875 -0.953125 C 9.660156 -0.847656 9.71875 -0.71875 9.71875 -0.5625 C 9.71875 -0.394531 9.660156 -0.257812 9.546875 -0.15625 C 9.441406 -0.0507812 9.3125 0 9.15625 0 L 1.90625 0 C 1.738281 0 1.59375 -0.046875 1.46875 -0.140625 C 1.351562 -0.242188 1.296875 -0.390625 1.296875 -0.578125 C 1.296875 -0.722656 1.347656 -0.859375 1.453125 -0.984375 L 5.90625 -5.90625 C 6.613281 -6.675781 7.144531 -7.382812 7.5 -8.03125 C 7.851562 -8.6875 8.03125 -9.273438 8.03125 -9.796875 C 8.03125 -10.640625 7.769531 -11.316406 7.25 -11.828125 C 6.738281 -12.347656 6.046875 -12.609375 5.171875 -12.609375 C 4.773438 -12.609375 4.378906 -12.523438 3.984375 -12.359375 C 3.597656 -12.191406 3.25 -11.972656 2.9375 -11.703125 C 2.632812 -11.429688 2.398438 -11.125 2.234375 -10.78125 C 2.160156 -10.644531 2.082031 -10.550781 2 -10.5 C 1.914062 -10.445312 1.820312 -10.421875 1.71875 -10.421875 C 1.5625 -10.421875 1.425781 -10.46875 1.3125 -10.5625 C 1.195312 -10.664062 1.140625 -10.789062 1.140625 -10.9375 C 1.140625 -11.019531 1.160156 -11.109375 1.203125 -11.203125 C 1.253906 -11.296875 1.320312 -11.398438 1.40625 -11.515625 C 1.632812 -11.910156 1.957031 -12.273438 2.375 -12.609375 C 2.789062 -12.941406 3.25 -13.207031 3.75 -13.40625 C 4.257812 -13.613281 4.757812 -13.71875 5.25 -13.71875 C 6.070312 -13.71875 6.78125 -13.554688 7.375 -13.234375 C 7.976562 -12.921875 8.441406 -12.476562 8.765625 -11.90625 C 9.097656 -11.332031 9.265625 -10.65625 9.265625 -9.875 C 9.265625 -9.195312 9.054688 -8.460938 8.640625 -7.671875 C 8.222656 -6.878906 7.601562 -6.03125 6.78125 -5.125 L 3.015625 -0.890625 L 2.8125 -1.125 Z M 9.15625 -1.125 "/></g></g></g><g fill="#201f1f" fill-opacity="1"><g transform="translate(10.865761, 20.332375)"><g><path d="M 5.34375 -13.734375 C 6.101562 -13.734375 6.765625 -13.597656 7.328125 -13.328125 C 7.890625 -13.054688 8.347656 -12.691406 8.703125 -12.234375 C 9.066406 -11.773438 9.335938 -11.253906 9.515625 -10.671875 C 9.703125 -10.097656 9.796875 -9.507812 9.796875 -8.90625 C 9.796875 -8.28125 9.710938 -7.617188 9.546875 -6.921875 C 9.390625 -6.222656 9.148438 -5.515625 8.828125 -4.796875 C 8.515625 -4.085938 8.125 -3.410156 7.65625 -2.765625 C 7.1875 -2.117188 6.632812 -1.535156 6 -1.015625 C 5.375 -0.503906 4.675781 -0.109375 3.90625 0.171875 C 3.800781 0.203125 3.71875 0.21875 3.65625 0.21875 C 3.5 0.21875 3.359375 0.160156 3.234375 0.046875 C 3.109375 -0.0546875 3.046875 -0.203125 3.046875 -0.390625 C 3.046875 -0.515625 3.082031 -0.625 3.15625 -0.71875 C 3.238281 -0.820312 3.359375 -0.898438 3.515625 -0.953125 C 4.242188 -1.253906 4.945312 -1.710938 5.625 -2.328125 C 6.3125 -2.941406 6.90625 -3.648438 7.40625 -4.453125 C 7.90625 -5.253906 8.238281 -6.085938 8.40625 -6.953125 L 8.8125 -7.203125 C 8.59375 -6.785156 8.296875 -6.410156 7.921875 -6.078125 C 7.546875 -5.742188 7.125 -5.484375 6.65625 -5.296875 C 6.1875 -5.109375 5.675781 -5.015625 5.125 -5.015625 C 4.289062 -5.015625 3.570312 -5.21875 2.96875 -5.625 C 2.375 -6.03125 1.914062 -6.566406 1.59375 -7.234375 C 1.28125 -7.910156 1.125 -8.632812 1.125 -9.40625 C 1.125 -10.164062 1.304688 -10.875 1.671875 -11.53125 C 2.035156 -12.1875 2.535156 -12.71875 3.171875 -13.125 C 3.816406 -13.53125 4.539062 -13.734375 5.34375 -13.734375 Z M 5.390625 -12.609375 C 4.785156 -12.609375 4.25 -12.472656 3.78125 -12.203125 C 3.320312 -11.929688 2.957031 -11.550781 2.6875 -11.0625 C 2.425781 -10.582031 2.296875 -10.03125 2.296875 -9.40625 C 2.296875 -8.84375 2.40625 -8.304688 2.625 -7.796875 C 2.851562 -7.296875 3.191406 -6.894531 3.640625 -6.59375 C 4.097656 -6.289062 4.648438 -6.140625 5.296875 -6.140625 C 5.984375 -6.140625 6.570312 -6.289062 7.0625 -6.59375 C 7.550781 -6.894531 7.929688 -7.296875 8.203125 -7.796875 C 8.472656 -8.304688 8.609375 -8.863281 8.609375 -9.46875 C 8.609375 -10.019531 8.476562 -10.53125 8.21875 -11 C 7.96875 -11.476562 7.601562 -11.863281 7.125 -12.15625 C 6.644531 -12.457031 6.066406 -12.609375 5.390625 -12.609375 Z M 5.390625 -12.609375 "/></g></g></g></g></g></g><g clip-path="url(#e9d0ade905)"><g transform="matrix(1, 0, 0, 1, 505, 600)"><g clip-path="url(#695c6fc13b)"><g fill="#201f1f" fill-opacity="1"><g transform="translate(0.98701, 20.332375)"><g><path d="M 1.71875 -1.984375 C 1.78125 -1.984375 1.847656 -1.96875 1.921875 -1.9375 C 1.992188 -1.914062 2.082031 -1.863281 2.1875 -1.78125 C 2.457031 -1.5 2.773438 -1.28125 3.140625 -1.125 C 3.515625 -0.976562 3.941406 -0.90625 4.421875 -0.90625 C 5.054688 -0.90625 5.632812 -1.046875 6.15625 -1.328125 C 6.675781 -1.609375 7.085938 -2.003906 7.390625 -2.515625 C 7.703125 -3.023438 7.859375 -3.609375 7.859375 -4.265625 C 7.859375 -5.015625 7.691406 -5.617188 7.359375 -6.078125 C 7.035156 -6.535156 6.617188 -6.875 6.109375 -7.09375 C 5.597656 -7.320312 5.082031 -7.4375 4.5625 -7.4375 C 4.414062 -7.4375 4.273438 -7.425781 4.140625 -7.40625 C 4.003906 -7.382812 3.878906 -7.359375 3.765625 -7.328125 C 3.648438 -7.304688 3.5625 -7.296875 3.5 -7.296875 C 3.332031 -7.296875 3.203125 -7.347656 3.109375 -7.453125 C 3.015625 -7.566406 2.96875 -7.707031 2.96875 -7.875 C 2.96875 -7.96875 2.988281 -8.050781 3.03125 -8.125 C 3.070312 -8.195312 3.125 -8.273438 3.1875 -8.359375 L 7.109375 -12.625 L 7.34375 -12.328125 L 1.484375 -12.328125 C 1.328125 -12.328125 1.191406 -12.378906 1.078125 -12.484375 C 0.972656 -12.597656 0.921875 -12.726562 0.921875 -12.875 C 0.921875 -13.03125 0.972656 -13.160156 1.078125 -13.265625 C 1.191406 -13.367188 1.328125 -13.421875 1.484375 -13.421875 L 7.96875 -13.421875 C 8.1875 -13.421875 8.34375 -13.351562 8.4375 -13.21875 C 8.53125 -13.082031 8.578125 -12.953125 8.578125 -12.828125 C 8.578125 -12.742188 8.554688 -12.664062 8.515625 -12.59375 C 8.472656 -12.53125 8.421875 -12.457031 8.359375 -12.375 L 4.4375 -8.109375 L 4.015625 -8.359375 C 4.054688 -8.398438 4.1875 -8.441406 4.40625 -8.484375 C 4.632812 -8.535156 4.8125 -8.5625 4.9375 -8.5625 C 5.644531 -8.5625 6.3125 -8.390625 6.9375 -8.046875 C 7.5625 -7.710938 8.070312 -7.234375 8.46875 -6.609375 C 8.863281 -5.984375 9.0625 -5.21875 9.0625 -4.3125 C 9.0625 -3.40625 8.847656 -2.613281 8.421875 -1.9375 C 7.992188 -1.257812 7.421875 -0.734375 6.703125 -0.359375 C 5.984375 0.00390625 5.1875 0.1875 4.3125 0.1875 C 3.78125 0.1875 3.253906 0.0976562 2.734375 -0.078125 C 2.222656 -0.253906 1.773438 -0.523438 1.390625 -0.890625 C 1.296875 -0.960938 1.226562 -1.035156 1.1875 -1.109375 C 1.15625 -1.191406 1.140625 -1.273438 1.140625 -1.359375 C 1.140625 -1.503906 1.191406 -1.644531 1.296875 -1.78125 C 1.410156 -1.914062 1.550781 -1.984375 1.71875 -1.984375 Z M 1.71875 -1.984375 "/></g></g></g><g fill="#201f1f" fill-opacity="1"><g transform="translate(11.103967, 20.332375)"><g><path d="M 5.734375 0.1875 C 4.703125 0.1875 3.835938 -0.117188 3.140625 -0.734375 C 2.453125 -1.347656 1.929688 -2.179688 1.578125 -3.234375 C 1.234375 -4.285156 1.0625 -5.460938 1.0625 -6.765625 C 1.0625 -8.078125 1.234375 -9.253906 1.578125 -10.296875 C 1.929688 -11.347656 2.453125 -12.179688 3.140625 -12.796875 C 3.835938 -13.410156 4.703125 -13.71875 5.734375 -13.71875 C 6.785156 -13.71875 7.65625 -13.410156 8.34375 -12.796875 C 9.039062 -12.179688 9.5625 -11.347656 9.90625 -10.296875 C 10.25 -9.253906 10.421875 -8.078125 10.421875 -6.765625 C 10.421875 -5.460938 10.25 -4.285156 9.90625 -3.234375 C 9.5625 -2.179688 9.039062 -1.347656 8.34375 -0.734375 C 7.65625 -0.117188 6.785156 0.1875 5.734375 0.1875 Z M 5.734375 -1 C 6.492188 -1 7.128906 -1.238281 7.640625 -1.71875 C 8.148438 -2.195312 8.535156 -2.867188 8.796875 -3.734375 C 9.054688 -4.609375 9.1875 -5.617188 9.1875 -6.765625 C 9.1875 -7.921875 9.054688 -8.929688 8.796875 -9.796875 C 8.535156 -10.671875 8.148438 -11.34375 7.640625 -11.8125 C 7.128906 -12.289062 6.492188 -12.53125 5.734375 -12.53125 C 4.984375 -12.53125 4.351562 -12.289062 3.84375 -11.8125 C 3.34375 -11.34375 2.957031 -10.671875 2.6875 -9.796875 C 2.425781 -8.929688 2.296875 -7.921875 2.296875 -6.765625 C 2.296875 -5.617188 2.425781 -4.609375 2.6875 -3.734375 C 2.957031 -2.867188 3.34375 -2.195312 3.84375 -1.71875 C 4.351562 -1.238281 4.984375 -1 5.734375 -1 Z M 5.734375 -1 "/></g></g></g></g></g></g><g clip-path="url(#e67d518b78)"><g transform="matrix(1, 0, 0, 1, 631, 600)"><g clip-path="url(#e884425e55)"><g fill="#201f1f" fill-opacity="1"><g transform="translate(0.804367, 20.332375)"><g><path d="M 1.71875 -1.984375 C 1.78125 -1.984375 1.847656 -1.96875 1.921875 -1.9375 C 1.992188 -1.914062 2.082031 -1.863281 2.1875 -1.78125 C 2.457031 -1.5 2.773438 -1.28125 3.140625 -1.125 C 3.515625 -0.976562 3.941406 -0.90625 4.421875 -0.90625 C 5.054688 -0.90625 5.632812 -1.046875 6.15625 -1.328125 C 6.675781 -1.609375 7.085938 -2.003906 7.390625 -2.515625 C 7.703125 -3.023438 7.859375 -3.609375 7.859375 -4.265625 C 7.859375 -5.015625 7.691406 -5.617188 7.359375 -6.078125 C 7.035156 -6.535156 6.617188 -6.875 6.109375 -7.09375 C 5.597656 -7.320312 5.082031 -7.4375 4.5625 -7.4375 C 4.414062 -7.4375 4.273438 -7.425781 4.140625 -7.40625 C 4.003906 -7.382812 3.878906 -7.359375 3.765625 -7.328125 C 3.648438 -7.304688 3.5625 -7.296875 3.5 -7.296875 C 3.332031 -7.296875 3.203125 -7.347656 3.109375 -7.453125 C 3.015625 -7.566406 2.96875 -7.707031 2.96875 -7.875 C 2.96875 -7.96875 2.988281 -8.050781 3.03125 -8.125 C 3.070312 -8.195312 3.125 -8.273438 3.1875 -8.359375 L 7.109375 -12.625 L 7.34375 -12.328125 L 1.484375 -12.328125 C 1.328125 -12.328125 1.191406 -12.378906 1.078125 -12.484375 C 0.972656 -12.597656 0.921875 -12.726562 0.921875 -12.875 C 0.921875 -13.03125 0.972656 -13.160156 1.078125 -13.265625 C 1.191406 -13.367188 1.328125 -13.421875 1.484375 -13.421875 L 7.96875 -13.421875 C 8.1875 -13.421875 8.34375 -13.351562 8.4375 -13.21875 C 8.53125 -13.082031 8.578125 -12.953125 8.578125 -12.828125 C 8.578125 -12.742188 8.554688 -12.664062 8.515625 -12.59375 C 8.472656 -12.53125 8.421875 -12.457031 8.359375 -12.375 L 4.4375 -8.109375 L 4.015625 -8.359375 C 4.054688 -8.398438 4.1875 -8.441406 4.40625 -8.484375 C 4.632812 -8.535156 4.8125 -8.5625 4.9375 -8.5625 C 5.644531 -8.5625 6.3125 -8.390625 6.9375 -8.046875 C 7.5625 -7.710938 8.070312 -7.234375 8.46875 -6.609375 C 8.863281 -5.984375 9.0625 -5.21875 9.0625 -4.3125 C 9.0625 -3.40625 8.847656 -2.613281 8.421875 -1.9375 C 7.992188 -1.257812 7.421875 -0.734375 6.703125 -0.359375 C 5.984375 0.00390625 5.1875 0.1875 4.3125 0.1875 C 3.78125 0.1875 3.253906 0.0976562 2.734375 -0.078125 C 2.222656 -0.253906 1.773438 -0.523438 1.390625 -0.890625 C 1.296875 -0.960938 1.226562 -1.035156 1.1875 -1.109375 C 1.15625 -1.191406 1.140625 -1.273438 1.140625 -1.359375 C 1.140625 -1.503906 1.191406 -1.644531 1.296875 -1.78125 C 1.410156 -1.914062 1.550781 -1.984375 1.71875 -1.984375 Z M 1.71875 -1.984375 "/></g></g></g><g fill="#201f1f" fill-opacity="1"><g transform="translate(10.921324, 20.332375)"><g><path d="M 4.359375 0 C 4.179688 0 4.035156 -0.0546875 3.921875 -0.171875 C 3.804688 -0.285156 3.75 -0.421875 3.75 -0.578125 L 3.75 -12.203125 L 3.953125 -12.015625 L 1.390625 -10.296875 C 1.285156 -10.210938 1.175781 -10.171875 1.0625 -10.171875 C 0.90625 -10.171875 0.765625 -10.234375 0.640625 -10.359375 C 0.523438 -10.492188 0.46875 -10.640625 0.46875 -10.796875 C 0.46875 -11.003906 0.566406 -11.164062 0.765625 -11.28125 L 4 -13.421875 C 4.070312 -13.472656 4.148438 -13.503906 4.234375 -13.515625 C 4.316406 -13.523438 4.394531 -13.523438 4.46875 -13.515625 C 4.632812 -13.503906 4.757812 -13.441406 4.84375 -13.328125 C 4.9375 -13.222656 4.984375 -13.09375 4.984375 -12.9375 L 4.984375 -0.578125 C 4.984375 -0.421875 4.925781 -0.285156 4.8125 -0.171875 C 4.695312 -0.0546875 4.546875 0 4.359375 0 Z M 4.359375 0 "/></g></g></g></g></g></g><path stroke-linecap="butt" transform="matrix(0.75, 0, 0, 0.75, 0.0000031164, 0.00002)" fill-opacity="1" fill="#000000" fill-rule="nonzero" stroke-linejoin="miter" d="M 0.812496 1.624973 L 0.812496 998.375022 M 168.567712 1.624973 L 168.567712 998.375022 M 336.322929 1.624973 L 336.322929 998.375022 M 504.083354 1.624973 L 504.083354 998.375022 M 671.83857 1.624973 L 671.83857 998.375022 M 839.593787 1.624973 L 839.593787 998.375022 M 1007.349003 1.624973 L 1007.349003 998.375022 M 1175.109428 1.624973 L 1175.109428 998.375022 M -0.0000041552 0.812473 L 1175.91672 0.812473 M -0.0000041552 200.484358 L 1175.91672 200.484358 M -0.0000041552 400.161451 L 1175.91672 400.161451 M -0.0000041552 599.838544 L 1175.91672 599.838544 M -0.0000041552 799.515637 L 1175.91672 799.515637 M -0.0000041552 999.187522 L 1175.91672 999.187522 " stroke="#000000" stroke-width="1.623198" stroke-opacity="1" stroke-miterlimit="4"/></svg>