<svg xmlns="http://www.w3.org/2000/svg" xmlns:xlink="http://www.w3.org/1999/xlink" width="1176" zoomAndPan="magnify" viewBox="0 0 882 749.999995" height="1000" preserveAspectRatio="xMidYMid meet" version="1.0"><defs><g/><clipPath id="19c372428c"><path d="M 505 1.21875 L 514 1.21875 L 514 27 L 505 27 Z M 505 1.21875 " clip-rule="nonzero"/></clipPath><clipPath id="636a175427"><rect x="0" width="9" y="0" height="26"/></clipPath><clipPath id="04b50764e3"><path d="M 631 1.21875 L 644 1.21875 L 644 27 L 631 27 Z M 631 1.21875 " clip-rule="nonzero"/></clipPath><clipPath id="9c1923abf4"><rect x="0" width="13" y="0" height="26"/></clipPath><clipPath id="d2af26b381"><path d="M 757 1.21875 L 769 1.21875 L 769 27 L 757 27 Z M 757 1.21875 " clip-rule="nonzero"/></clipPath><clipPath id="471043d2ce"><rect x="0" width="12" y="0" height="26"/></clipPath><clipPath id="057d95e343"><path d="M 0.640625 6 L 11 6 L 11 20 L 0.640625 20 Z M 0.640625 6 " clip-rule="nonzero"/></clipPath><clipPath id="59d7e21e18"><rect x="0" width="12" y="0" height="25"/></clipPath><clipPath id="c82c9141e3"><rect x="0" width="12" y="0" height="25"/></clipPath><clipPath id="56257f7be2"><path d="M 1 5 L 10.960938 5 L 10.960938 20 L 1 20 Z M 1 5 " clip-rule="nonzero"/></clipPath><clipPath id="66c073a69a"><rect x="0" width="11" y="0" height="25"/></clipPath><clipPath id="73eed8ece2"><rect x="0" width="11" y="0" height="25"/></clipPath><clipPath id="ee339607fe"><rect x="0" width="12" y="0" height="25"/></clipPath><clipPath id="0e0a528ddc"><rect x="0" width="13" y="0" height="25"/></clipPath><clipPath id="2393b7dd7a"><rect x="0" width="20" y="0" height="25"/></clipPath><clipPath id="5754f862b6"><rect x="0" width="16" y="0" height="25"/></clipPath><clipPath id="76171b619b"><rect x="0" width="19" y="0" height="25"/></clipPath><clipPath id="170c8d79a8"><path d="M 0.160156 5 L 6 5 L 6 20 L 0.160156 20 Z M 0.160156 5 " clip-rule="nonzero"/></clipPath><clipPath id="30d13c7a11"><rect x="0" width="19" y="0" height="25"/></clipPath><clipPath id="c40bef612d"><path d="M 0.160156 5 L 6 5 L 6 20 L 0.160156 20 Z M 0.160156 5 " clip-rule="nonzero"/></clipPath><clipPath id="e6b2c1b948"><rect x="0" width="19" y="0" height="25"/></clipPath><clipPath id="c8eacf9073"><rect x="0" width="20" y="0" height="25"/></clipPath><clipPath id="24fcb81178"><rect x="0" width="19" y="0" height="25"/></clipPath><clipPath id="1d63a86c55"><path d="M 8 5 L 17.960938 5 L 17.960938 20 L 8 20 Z M 8 5 " clip-rule="nonzero"/></clipPath><clipPath id="e6a34b1d57"><rect x="0" width="18" y="0" height="25"/></clipPath><clipPath id="b08de71bd2"><rect x="0" width="19" y="0" height="25"/></clipPath><clipPath id="49923794c4"><rect x="0" width="19" y="0" height="25"/></clipPath><clipPath id="6433afa0d2"><rect x="0" width="23" y="0" height="25"/></clipPath><clipPath id="4e4bcf9f55"><rect x="0" width="19" y="0" height="25"/></clipPath><clipPath id="3740de37ab"><rect x="0" width="23" y="0" height="25"/></clipPath><clipPath id="8d92e07d6c"><rect x="0" width="23" y="0" height="25"/></clipPath><clipPath id="f6cd3fd5d1"><rect x="0" width="22" y="0" height="25"/></clipPath><clipPath id="ecb4b2301d"><path d="M 2 600.242188 L 25 600.242188 L 25 626 L 2 626 Z M 2 600.242188 " clip-rule="nonzero"/></clipPath><clipPath id="e2c423228e"><rect x="0" width="23" y="0" height="26"/></clipPath><clipPath id="34fc7ca903"><path d="M 128 600.242188 L 151 600.242188 L 151 626 L 128 626 Z M 128 600.242188 " clip-rule="nonzero"/></clipPath><clipPath id="5c79839694"><rect x="0" width="23" y="0" height="26"/></clipPath><clipPath id="3d24c0b526"><path d="M 254 600.242188 L 276 600.242188 L 276 626 L 254 626 Z M 254 600.242188 " clip-rule="nonzero"/></clipPath><clipPath id="555becdea6"><rect x="0" width="22" y="0" height="26"/></clipPath><clipPath id="8d7a7c9844"><path d="M 380 600.242188 L 402 600.242188 L 402 626 L 380 626 Z M 380 600.242188 " clip-rule="nonzero"/></clipPath><clipPath id="ac7eaa05d3"><rect x="0" width="22" y="0" height="26"/></clipPath><clipPath id="a45214edc9"><path d="M 505 600.242188 L 528 600.242188 L 528 626 L 505 626 Z M 505 600.242188 " clip-rule="nonzero"/></clipPath><clipPath id="1448c88764"><rect x="0" width="23" y="0" height="26"/></clipPath><clipPath id="68452e4a9e"><path d="M 631 600.242188 L 654 600.242188 L 654 626 L 631 626 Z M 631 600.242188 " clip-rule="nonzero"/></clipPath><clipPath id="5e52067620"><rect x="0" width="23" y="0" height="26"/></clipPath><clipPath id="4231a6de74"><path d="M 757 600.242188 L 776 600.242188 L 776 626 L 757 626 Z M 757 600.242188 " clip-rule="nonzero"/></clipPath><clipPath id="c3f2450d6f"><rect x="0" width="19" y="0" height="26"/></clipPath></defs><g clip-path="url(#19c372428c)"><g transform="matrix(1, 0, 0, 1, 505, 1)"><g clip-path="url(#636a175427)"><g fill="#201f1f" fill-opacity="1"><g transform="translate(0.986951, 19.761456)"><g><path d="M 4.359375 0 C 4.179688 0 4.035156 -0.0546875 3.921875 -0.171875 C 3.804688 -0.285156 3.75 -0.421875 3.75 -0.578125 L 3.75 -12.203125 L 3.953125 -12.015625 L 1.390625 -10.296875 C 1.285156 -10.210938 1.175781 -10.171875 1.0625 -10.171875 C 0.90625 -10.171875 0.765625 -10.234375 0.640625 -10.359375 C 0.523438 -10.492188 0.46875 -10.640625 0.46875 -10.796875 C 0.46875 -11.003906 0.566406 -11.164062 0.765625 -11.28125 L 4 -13.421875 C 4.070312 -13.472656 4.148438 -13.503906 4.234375 -13.515625 C 4.316406 -13.523438 4.394531 -13.523438 4.46875 -13.515625 C 4.632812 -13.503906 4.757812 -13.441406 4.84375 -13.328125 C 4.9375 -13.222656 4.984375 -13.09375 4.984375 -12.9375 L 4.984375 -0.578125 C 4.984375 -0.421875 4.925781 -0.285156 4.8125 -0.171875 C 4.695312 -0.0546875 4.546875 0 4.359375 0 Z M 4.359375 0 "/></g></g></g></g></g></g><g clip-path="url(#04b50764e3)"><g transform="matrix(1, 0, 0, 1, 631, 1)"><g clip-path="url(#9c1923abf4)"><g fill="#201f1f" fill-opacity="1"><g transform="translate(0.804367, 19.761456)"><g><path d="M 9.15625 -1.125 C 9.3125 -1.125 9.441406 -1.066406 9.546875 -0.953125 C 9.660156 -0.847656 9.71875 -0.71875 9.71875 -0.5625 C 9.71875 -0.394531 9.660156 -0.257812 9.546875 -0.15625 C 9.441406 -0.0507812 9.3125 0 9.15625 0 L 1.90625 0 C 1.738281 0 1.59375 -0.046875 1.46875 -0.140625 C 1.351562 -0.242188 1.296875 -0.390625 1.296875 -0.578125 C 1.296875 -0.722656 1.347656 -0.859375 1.453125 -0.984375 L 5.90625 -5.90625 C 6.613281 -6.675781 7.144531 -7.382812 7.5 -8.03125 C 7.851562 -8.6875 8.03125 -9.273438 8.03125 -9.796875 C 8.03125 -10.640625 7.769531 -11.316406 7.25 -11.828125 C 6.738281 -12.347656 6.046875 -12.609375 5.171875 -12.609375 C 4.773438 -12.609375 4.378906 -12.523438 3.984375 -12.359375 C 3.597656 -12.191406 3.25 -11.972656 2.9375 -11.703125 C 2.632812 -11.429688 2.398438 -11.125 2.234375 -10.78125 C 2.160156 -10.644531 2.082031 -10.550781 2 -10.5 C 1.914062 -10.445312 1.820312 -10.421875 1.71875 -10.421875 C 1.5625 -10.421875 1.425781 -10.46875 1.3125 -10.5625 C 1.195312 -10.664062 1.140625 -10.789062 1.140625 -10.9375 C 1.140625 -11.019531 1.160156 -11.109375 1.203125 -11.203125 C 1.253906 -11.296875 1.320312 -11.398438 1.40625 -11.515625 C 1.632812 -11.910156 1.957031 -12.273438 2.375 -12.609375 C 2.789062 -12.941406 3.25 -13.207031 3.75 -13.40625 C 4.257812 -13.613281 4.757812 -13.71875 5.25 -13.71875 C 6.070312 -13.71875 6.78125 -13.554688 7.375 -13.234375 C 7.976562 -12.921875 8.441406 -12.476562 8.765625 -11.90625 C 9.097656 -11.332031 9.265625 -10.65625 9.265625 -9.875 C 9.265625 -9.195312 9.054688 -8.460938 8.640625 -7.671875 C 8.222656 -6.878906 7.601562 -6.03125 6.78125 -5.125 L 3.015625 -0.890625 L 2.8125 -1.125 Z M 9.15625 -1.125 "/></g></g></g></g></g></g><g clip-path="url(#d2af26b381)"><g transform="matrix(1, 0, 0, 1, 757, 1)"><g clip-path="url(#471043d2ce)"><g fill="#201f1f" fill-opacity="1"><g transform="translate(0.621783, 19.761456)"><g><path d="M 1.71875 -1.984375 C 1.78125 -1.984375 1.847656 -1.96875 1.921875 -1.9375 C 1.992188 -1.914062 2.082031 -1.863281 2.1875 -1.78125 C 2.457031 -1.5 2.773438 -1.28125 3.140625 -1.125 C 3.515625 -0.976562 3.941406 -0.90625 4.421875 -0.90625 C 5.054688 -0.90625 5.632812 -1.046875 6.15625 -1.328125 C 6.675781 -1.609375 7.085938 -2.003906 7.390625 -2.515625 C 7.703125 -3.023438 7.859375 -3.609375 7.859375 -4.265625 C 7.859375 -5.015625 7.691406 -5.617188 7.359375 -6.078125 C 7.035156 -6.535156 6.617188 -6.875 6.109375 -7.09375 C 5.597656 -7.320312 5.082031 -7.4375 4.5625 -7.4375 C 4.414062 -7.4375 4.273438 -7.425781 4.140625 -7.40625 C 4.003906 -7.382812 3.878906 -7.359375 3.765625 -7.328125 C 3.648438 -7.304688 3.5625 -7.296875 3.5 -7.296875 C 3.332031 -7.296875 3.203125 -7.347656 3.109375 -7.453125 C 3.015625 -7.566406 2.96875 -7.707031 2.96875 -7.875 C 2.96875 -7.96875 2.988281 -8.050781 3.03125 -8.125 C 3.070312 -8.195312 3.125 -8.273438 3.1875 -8.359375 L 7.109375 -12.625 L 7.34375 -12.328125 L 1.484375 -12.328125 C 1.328125 -12.328125 1.191406 -12.378906 1.078125 -12.484375 C 0.972656 -12.597656 0.921875 -12.726562 0.921875 -12.875 C 0.921875 -13.03125 0.972656 -13.160156 1.078125 -13.265625 C 1.191406 -13.367188 1.328125 -13.421875 1.484375 -13.421875 L 7.96875 -13.421875 C 8.1875 -13.421875 8.34375 -13.351562 8.4375 -13.21875 C 8.53125 -13.082031 8.578125 -12.953125 8.578125 -12.828125 C 8.578125 -12.742188 8.554688 -12.664062 8.515625 -12.59375 C 8.472656 -12.53125 8.421875 -12.457031 8.359375 -12.375 L 4.4375 -8.109375 L 4.015625 -8.359375 C 4.054688 -8.398438 4.1875 -8.441406 4.40625 -8.484375 C 4.632812 -8.535156 4.8125 -8.5625 4.9375 -8.5625 C 5.644531 -8.5625 6.3125 -8.390625 6.9375 -8.046875 C 7.5625 -7.710938 8.070312 -7.234375 8.46875 -6.609375 C 8.863281 -5.984375 9.0625 -5.21875 9.0625 -4.3125 C 9.0625 -3.40625 8.847656 -2.613281 8.421875 -1.9375 C 7.992188 -1.257812 7.421875 -0.734375 6.703125 -0.359375 C 5.984375 0.00390625 5.1875 0.1875 4.3125 0.1875 C 3.78125 0.1875 3.253906 0.0976562 2.734375 -0.078125 C 2.222656 -0.253906 1.773438 -0.523438 1.390625 -0.890625 C 1.296875 -0.960938 1.226562 -1.035156 1.1875 -1.109375 C 1.15625 -1.191406 1.140625 -1.273438 1.140625 -1.359375 C 1.140625 -1.503906 1.191406 -1.644531 1.296875 -1.78125 C 1.410156 -1.914062 1.550781 -1.984375 1.71875 -1.984375 Z M 1.71875 -1.984375 "/></g></g></g></g></g></g><g transform="matrix(1, 0, 0, 1, 2, 151)"><g clip-path="url(#59d7e21e18)"><g clip-path="url(#057d95e343)"><g fill="#201f1f" fill-opacity="1"><g transform="translate(0.717264, 19.517926)"><g><path d="M 7.09375 0 C 6.925781 0 6.789062 -0.0546875 6.6875 -0.171875 C 6.582031 -0.285156 6.53125 -0.421875 6.53125 -0.578125 L 6.53125 -11.921875 L 6.78125 -11.765625 L 1.703125 -5.046875 L 1.640625 -5.25 L 9.0625 -5.25 C 9.21875 -5.25 9.347656 -5.195312 9.453125 -5.09375 C 9.566406 -4.988281 9.625 -4.863281 9.625 -4.71875 C 9.625 -4.5625 9.566406 -4.429688 9.453125 -4.328125 C 9.347656 -4.222656 9.21875 -4.171875 9.0625 -4.171875 L 0.84375 -4.171875 C 0.695312 -4.171875 0.5625 -4.226562 0.4375 -4.34375 C 0.320312 -4.46875 0.265625 -4.609375 0.265625 -4.765625 C 0.265625 -4.910156 0.3125 -5.039062 0.40625 -5.15625 L 6.625 -13.28125 C 6.6875 -13.375 6.765625 -13.4375 6.859375 -13.46875 C 6.960938 -13.5 7.046875 -13.515625 7.109375 -13.515625 C 7.273438 -13.515625 7.410156 -13.457031 7.515625 -13.34375 C 7.628906 -13.226562 7.6875 -13.09375 7.6875 -12.9375 L 7.6875 -0.578125 C 7.6875 -0.421875 7.628906 -0.285156 7.515625 -0.171875 C 7.398438 -0.0546875 7.257812 0 7.09375 0 Z M 7.09375 0 "/></g></g></g></g></g></g><g transform="matrix(1, 0, 0, 1, 128, 151)"><g clip-path="url(#c82c9141e3)"><g fill="#201f1f" fill-opacity="1"><g transform="translate(0.534675, 19.525397)"><g><path d="M 4.546875 0.03125 C 4.015625 0.03125 3.476562 -0.0507812 2.9375 -0.21875 C 2.40625 -0.394531 1.929688 -0.660156 1.515625 -1.015625 C 1.429688 -1.078125 1.367188 -1.148438 1.328125 -1.234375 C 1.285156 -1.328125 1.265625 -1.421875 1.265625 -1.515625 C 1.265625 -1.640625 1.316406 -1.765625 1.421875 -1.890625 C 1.523438 -2.015625 1.660156 -2.078125 1.828125 -2.078125 C 1.960938 -2.078125 2.101562 -2.019531 2.25 -1.90625 C 2.582031 -1.644531 2.945312 -1.441406 3.34375 -1.296875 C 3.738281 -1.160156 4.140625 -1.09375 4.546875 -1.09375 C 5.304688 -1.09375 5.96875 -1.234375 6.53125 -1.515625 C 7.101562 -1.804688 7.546875 -2.222656 7.859375 -2.765625 C 8.171875 -3.304688 8.328125 -3.929688 8.328125 -4.640625 C 8.328125 -5.296875 8.179688 -5.863281 7.890625 -6.34375 C 7.609375 -6.832031 7.207031 -7.21875 6.6875 -7.5 C 6.164062 -7.78125 5.546875 -7.921875 4.828125 -7.921875 C 4.367188 -7.921875 3.945312 -7.847656 3.5625 -7.703125 C 3.175781 -7.554688 2.84375 -7.410156 2.5625 -7.265625 C 2.289062 -7.117188 2.070312 -7.046875 1.90625 -7.046875 C 1.75 -7.046875 1.617188 -7.082031 1.515625 -7.15625 C 1.421875 -7.238281 1.359375 -7.335938 1.328125 -7.453125 C 1.296875 -7.566406 1.289062 -7.691406 1.3125 -7.828125 L 2.15625 -13 C 2.164062 -13.113281 2.222656 -13.21875 2.328125 -13.3125 C 2.441406 -13.414062 2.582031 -13.46875 2.75 -13.46875 L 8.59375 -13.46875 C 8.75 -13.46875 8.878906 -13.410156 8.984375 -13.296875 C 9.097656 -13.191406 9.15625 -13.0625 9.15625 -12.90625 C 9.15625 -12.738281 9.097656 -12.597656 8.984375 -12.484375 C 8.878906 -12.378906 8.75 -12.328125 8.59375 -12.328125 L 3.03125 -12.328125 L 3.203125 -12.5 L 2.40625 -7.890625 L 2.0625 -8.15625 C 2.226562 -8.28125 2.46875 -8.40625 2.78125 -8.53125 C 3.101562 -8.664062 3.457031 -8.78125 3.84375 -8.875 C 4.238281 -8.976562 4.660156 -9.03125 5.109375 -9.03125 C 5.941406 -9.03125 6.6875 -8.84375 7.34375 -8.46875 C 8.007812 -8.101562 8.53125 -7.59375 8.90625 -6.9375 C 9.289062 -6.28125 9.484375 -5.523438 9.484375 -4.671875 C 9.484375 -3.734375 9.28125 -2.910156 8.875 -2.203125 C 8.46875 -1.492188 7.894531 -0.941406 7.15625 -0.546875 C 6.425781 -0.160156 5.554688 0.03125 4.546875 0.03125 Z M 4.546875 0.03125 "/></g></g></g></g></g><g transform="matrix(1, 0, 0, 1, 254, 151)"><g clip-path="url(#66c073a69a)"><g clip-path="url(#56257f7be2)"><g fill="#201f1f" fill-opacity="1"><g transform="translate(0.35209, 19.517926)"><g><path d="M 5.546875 0.1875 C 4.796875 0.1875 4.140625 0.0507812 3.578125 -0.21875 C 3.023438 -0.488281 2.5625 -0.847656 2.1875 -1.296875 C 1.820312 -1.753906 1.550781 -2.273438 1.375 -2.859375 C 1.207031 -3.441406 1.125 -4.035156 1.125 -4.640625 C 1.125 -5.253906 1.195312 -5.914062 1.34375 -6.625 C 1.5 -7.34375 1.738281 -8.066406 2.0625 -8.796875 C 2.382812 -9.535156 2.78125 -10.234375 3.25 -10.890625 C 3.71875 -11.546875 4.265625 -12.132812 4.890625 -12.65625 C 5.515625 -13.175781 6.222656 -13.585938 7.015625 -13.890625 C 7.097656 -13.910156 7.171875 -13.921875 7.234375 -13.921875 C 7.410156 -13.921875 7.554688 -13.875 7.671875 -13.78125 C 7.796875 -13.695312 7.859375 -13.546875 7.859375 -13.328125 C 7.859375 -13.191406 7.816406 -13.078125 7.734375 -12.984375 C 7.648438 -12.890625 7.535156 -12.816406 7.390625 -12.765625 C 6.847656 -12.535156 6.3125 -12.207031 5.78125 -11.78125 C 5.257812 -11.351562 4.773438 -10.863281 4.328125 -10.3125 C 3.878906 -9.757812 3.492188 -9.164062 3.171875 -8.53125 C 2.859375 -7.894531 2.640625 -7.242188 2.515625 -6.578125 L 2.078125 -6.328125 C 2.316406 -6.753906 2.617188 -7.128906 2.984375 -7.453125 C 3.347656 -7.785156 3.769531 -8.050781 4.25 -8.25 C 4.726562 -8.457031 5.242188 -8.5625 5.796875 -8.5625 C 6.367188 -8.5625 6.898438 -8.4375 7.390625 -8.1875 C 7.878906 -7.945312 8.300781 -7.613281 8.65625 -7.1875 C 9.007812 -6.769531 9.285156 -6.296875 9.484375 -5.765625 C 9.691406 -5.242188 9.796875 -4.703125 9.796875 -4.140625 C 9.796875 -3.378906 9.609375 -2.671875 9.234375 -2.015625 C 8.867188 -1.359375 8.367188 -0.828125 7.734375 -0.421875 C 7.097656 -0.015625 6.367188 0.1875 5.546875 0.1875 Z M 5.515625 -0.921875 C 6.109375 -0.921875 6.632812 -1.054688 7.09375 -1.328125 C 7.5625 -1.597656 7.925781 -1.972656 8.1875 -2.453125 C 8.457031 -2.941406 8.59375 -3.503906 8.59375 -4.140625 C 8.59375 -4.710938 8.476562 -5.242188 8.25 -5.734375 C 8.03125 -6.234375 7.695312 -6.640625 7.25 -6.953125 C 6.800781 -7.273438 6.25 -7.4375 5.59375 -7.4375 C 4.914062 -7.4375 4.328125 -7.28125 3.828125 -6.96875 C 3.335938 -6.664062 2.957031 -6.257812 2.6875 -5.75 C 2.425781 -5.238281 2.296875 -4.679688 2.296875 -4.078125 C 2.296875 -3.535156 2.425781 -3.019531 2.6875 -2.53125 C 2.945312 -2.050781 3.316406 -1.660156 3.796875 -1.359375 C 4.273438 -1.066406 4.847656 -0.921875 5.515625 -0.921875 Z M 5.515625 -0.921875 "/></g></g></g></g></g></g><g transform="matrix(1, 0, 0, 1, 380, 151)"><g clip-path="url(#73eed8ece2)"><g fill="#201f1f" fill-opacity="1"><g transform="translate(0.169535, 19.517926)"><g><path d="M 3.4375 0.0625 C 3.28125 0.0625 3.132812 0.0078125 3 -0.09375 C 2.875 -0.195312 2.8125 -0.328125 2.8125 -0.484375 C 2.8125 -0.578125 2.832031 -0.671875 2.875 -0.765625 L 8.015625 -12.578125 L 8.234375 -12.296875 L 1.703125 -12.296875 C 1.546875 -12.296875 1.410156 -12.347656 1.296875 -12.453125 C 1.191406 -12.566406 1.140625 -12.703125 1.140625 -12.859375 C 1.140625 -13.023438 1.191406 -13.160156 1.296875 -13.265625 C 1.410156 -13.367188 1.546875 -13.421875 1.703125 -13.421875 L 8.78125 -13.421875 C 8.976562 -13.421875 9.117188 -13.367188 9.203125 -13.265625 C 9.296875 -13.160156 9.34375 -13.03125 9.34375 -12.875 C 9.34375 -12.78125 9.328125 -12.6875 9.296875 -12.59375 L 3.984375 -0.328125 C 3.941406 -0.210938 3.867188 -0.117188 3.765625 -0.046875 C 3.660156 0.0234375 3.550781 0.0625 3.4375 0.0625 Z M 3.4375 0.0625 "/></g></g></g></g></g><g transform="matrix(1, 0, 0, 1, 505, 151)"><g clip-path="url(#ee339607fe)"><g fill="#201f1f" fill-opacity="1"><g transform="translate(0.986951, 19.517926)"><g><path d="M 7.03125 -6.796875 L 6.96875 -6.96875 C 7.40625 -6.800781 7.800781 -6.550781 8.15625 -6.21875 C 8.519531 -5.894531 8.8125 -5.507812 9.03125 -5.0625 C 9.25 -4.625 9.359375 -4.140625 9.359375 -3.609375 C 9.359375 -2.910156 9.175781 -2.28125 8.8125 -1.71875 C 8.445312 -1.15625 7.945312 -0.703125 7.3125 -0.359375 C 6.6875 -0.0234375 5.988281 0.140625 5.21875 0.140625 C 4.425781 0.140625 3.71875 -0.0234375 3.09375 -0.359375 C 2.46875 -0.703125 1.972656 -1.15625 1.609375 -1.71875 C 1.242188 -2.28125 1.0625 -2.910156 1.0625 -3.609375 C 1.0625 -4.179688 1.171875 -4.6875 1.390625 -5.125 C 1.617188 -5.570312 1.914062 -5.945312 2.28125 -6.25 C 2.65625 -6.5625 3.039062 -6.800781 3.4375 -6.96875 L 3.375 -6.78125 C 3.03125 -6.945312 2.707031 -7.175781 2.40625 -7.46875 C 2.101562 -7.757812 1.851562 -8.101562 1.65625 -8.5 C 1.46875 -8.90625 1.375 -9.351562 1.375 -9.84375 C 1.375 -10.539062 1.539062 -11.164062 1.875 -11.71875 C 2.21875 -12.269531 2.679688 -12.707031 3.265625 -13.03125 C 3.859375 -13.351562 4.507812 -13.515625 5.21875 -13.515625 C 5.925781 -13.515625 6.566406 -13.351562 7.140625 -13.03125 C 7.710938 -12.707031 8.164062 -12.269531 8.5 -11.71875 C 8.84375 -11.164062 9.015625 -10.539062 9.015625 -9.84375 C 9.015625 -9.34375 8.914062 -8.894531 8.71875 -8.5 C 8.53125 -8.101562 8.28125 -7.757812 7.96875 -7.46875 C 7.664062 -7.175781 7.351562 -6.953125 7.03125 -6.796875 Z M 2.5625 -9.84375 C 2.5625 -9.332031 2.679688 -8.882812 2.921875 -8.5 C 3.171875 -8.113281 3.492188 -7.8125 3.890625 -7.59375 C 4.296875 -7.375 4.738281 -7.265625 5.21875 -7.265625 C 5.675781 -7.265625 6.101562 -7.375 6.5 -7.59375 C 6.90625 -7.8125 7.226562 -8.113281 7.46875 -8.5 C 7.707031 -8.882812 7.828125 -9.332031 7.828125 -9.84375 C 7.828125 -10.601562 7.582031 -11.222656 7.09375 -11.703125 C 6.601562 -12.179688 5.976562 -12.421875 5.21875 -12.421875 C 4.425781 -12.421875 3.785156 -12.179688 3.296875 -11.703125 C 2.804688 -11.222656 2.5625 -10.601562 2.5625 -9.84375 Z M 5.21875 -0.96875 C 6.09375 -0.96875 6.800781 -1.21875 7.34375 -1.71875 C 7.894531 -2.21875 8.171875 -2.847656 8.171875 -3.609375 C 8.171875 -4.128906 8.035156 -4.59375 7.765625 -5 C 7.492188 -5.414062 7.128906 -5.738281 6.671875 -5.96875 C 6.222656 -6.195312 5.738281 -6.3125 5.21875 -6.3125 C 4.6875 -6.3125 4.195312 -6.195312 3.75 -5.96875 C 3.300781 -5.738281 2.941406 -5.414062 2.671875 -5 C 2.398438 -4.59375 2.265625 -4.128906 2.265625 -3.609375 C 2.265625 -2.847656 2.53125 -2.21875 3.0625 -1.71875 C 3.601562 -1.21875 4.320312 -0.96875 5.21875 -0.96875 Z M 5.21875 -0.96875 "/></g></g></g></g></g><g transform="matrix(1, 0, 0, 1, 631, 151)"><g clip-path="url(#0e0a528ddc)"><g fill="#201f1f" fill-opacity="1"><g transform="translate(0.804367, 19.517926)"><g><path d="M 5.34375 -13.734375 C 6.101562 -13.734375 6.765625 -13.597656 7.328125 -13.328125 C 7.890625 -13.054688 8.347656 -12.691406 8.703125 -12.234375 C 9.066406 -11.773438 9.335938 -11.253906 9.515625 -10.671875 C 9.703125 -10.097656 9.796875 -9.507812 9.796875 -8.90625 C 9.796875 -8.28125 9.710938 -7.617188 9.546875 -6.921875 C 9.390625 -6.222656 9.148438 -5.515625 8.828125 -4.796875 C 8.515625 -4.085938 8.125 -3.410156 7.65625 -2.765625 C 7.1875 -2.117188 6.632812 -1.535156 6 -1.015625 C 5.375 -0.503906 4.675781 -0.109375 3.90625 0.171875 C 3.800781 0.203125 3.71875 0.21875 3.65625 0.21875 C 3.5 0.21875 3.359375 0.160156 3.234375 0.046875 C 3.109375 -0.0546875 3.046875 -0.203125 3.046875 -0.390625 C 3.046875 -0.515625 3.082031 -0.625 3.15625 -0.71875 C 3.238281 -0.820312 3.359375 -0.898438 3.515625 -0.953125 C 4.242188 -1.253906 4.945312 -1.710938 5.625 -2.328125 C 6.3125 -2.941406 6.90625 -3.648438 7.40625 -4.453125 C 7.90625 -5.253906 8.238281 -6.085938 8.40625 -6.953125 L 8.8125 -7.203125 C 8.59375 -6.785156 8.296875 -6.410156 7.921875 -6.078125 C 7.546875 -5.742188 7.125 -5.484375 6.65625 -5.296875 C 6.1875 -5.109375 5.675781 -5.015625 5.125 -5.015625 C 4.289062 -5.015625 3.570312 -5.21875 2.96875 -5.625 C 2.375 -6.03125 1.914062 -6.566406 1.59375 -7.234375 C 1.28125 -7.910156 1.125 -8.632812 1.125 -9.40625 C 1.125 -10.164062 1.304688 -10.875 1.671875 -11.53125 C 2.035156 -12.1875 2.535156 -12.71875 3.171875 -13.125 C 3.816406 -13.53125 4.539062 -13.734375 5.34375 -13.734375 Z M 5.390625 -12.609375 C 4.785156 -12.609375 4.25 -12.472656 3.78125 -12.203125 C 3.320312 -11.929688 2.957031 -11.550781 2.6875 -11.0625 C 2.425781 -10.582031 2.296875 -10.03125 2.296875 -9.40625 C 2.296875 -8.84375 2.40625 -8.304688 2.625 -7.796875 C 2.851562 -7.296875 3.191406 -6.894531 3.640625 -6.59375 C 4.097656 -6.289062 4.648438 -6.140625 5.296875 -6.140625 C 5.984375 -6.140625 6.570312 -6.289062 7.0625 -6.59375 C 7.550781 -6.894531 7.929688 -7.296875 8.203125 -7.796875 C 8.472656 -8.304688 8.609375 -8.863281 8.609375 -9.46875 C 8.609375 -10.019531 8.476562 -10.53125 8.21875 -11 C 7.96875 -11.476562 7.601562 -11.863281 7.125 -12.15625 C 6.644531 -12.457031 6.066406 -12.609375 5.390625 -12.609375 Z M 5.390625 -12.609375 "/></g></g></g></g></g><g transform="matrix(1, 0, 0, 1, 757, 151)"><g clip-path="url(#2393b7dd7a)"><g fill="#201f1f" fill-opacity="1"><g transform="translate(0.621783, 19.517926)"><g><path d="M 4.359375 0 C 4.179688 0 4.035156 -0.0546875 3.921875 -0.171875 C 3.804688 -0.285156 3.75 -0.421875 3.75 -0.578125 L 3.75 -12.203125 L 3.953125 -12.015625 L 1.390625 -10.296875 C 1.285156 -10.210938 1.175781 -10.171875 1.0625 -10.171875 C 0.90625 -10.171875 0.765625 -10.234375 0.640625 -10.359375 C 0.523438 -10.492188 0.46875 -10.640625 0.46875 -10.796875 C 0.46875 -11.003906 0.566406 -11.164062 0.765625 -11.28125 L 4 -13.421875 C 4.070312 -13.472656 4.148438 -13.503906 4.234375 -13.515625 C 4.316406 -13.523438 4.394531 -13.523438 4.46875 -13.515625 C 4.632812 -13.503906 4.757812 -13.441406 4.84375 -13.328125 C 4.9375 -13.222656 4.984375 -13.09375 4.984375 -12.9375 L 4.984375 -0.578125 C 4.984375 -0.421875 4.925781 -0.285156 4.8125 -0.171875 C 4.695312 -0.0546875 4.546875 0 4.359375 0 Z M 4.359375 0 "/></g></g></g><g fill="#201f1f" fill-opacity="1"><g transform="translate(7.766942, 19.517926)"><g><path d="M 5.734375 0.1875 C 4.703125 0.1875 3.835938 -0.117188 3.140625 -0.734375 C 2.453125 -1.347656 1.929688 -2.179688 1.578125 -3.234375 C 1.234375 -4.285156 1.0625 -5.460938 1.0625 -6.765625 C 1.0625 -8.078125 1.234375 -9.253906 1.578125 -10.296875 C 1.929688 -11.347656 2.453125 -12.179688 3.140625 -12.796875 C 3.835938 -13.410156 4.703125 -13.71875 5.734375 -13.71875 C 6.785156 -13.71875 7.65625 -13.410156 8.34375 -12.796875 C 9.039062 -12.179688 9.5625 -11.347656 9.90625 -10.296875 C 10.25 -9.253906 10.421875 -8.078125 10.421875 -6.765625 C 10.421875 -5.460938 10.25 -4.285156 9.90625 -3.234375 C 9.5625 -2.179688 9.039062 -1.347656 8.34375 -0.734375 C 7.65625 -0.117188 6.785156 0.1875 5.734375 0.1875 Z M 5.734375 -1 C 6.492188 -1 7.128906 -1.238281 7.640625 -1.71875 C 8.148438 -2.195312 8.535156 -2.867188 8.796875 -3.734375 C 9.054688 -4.609375 9.1875 -5.617188 9.1875 -6.765625 C 9.1875 -7.921875 9.054688 -8.929688 8.796875 -9.796875 C 8.535156 -10.671875 8.148438 -11.34375 7.640625 -11.8125 C 7.128906 -12.289062 6.492188 -12.53125 5.734375 -12.53125 C 4.984375 -12.53125 4.351562 -12.289062 3.84375 -11.8125 C 3.34375 -11.34375 2.957031 -10.671875 2.6875 -9.796875 C 2.425781 -8.929688 2.296875 -7.921875 2.296875 -6.765625 C 2.296875 -5.617188 2.425781 -4.609375 2.6875 -3.734375 C 2.957031 -2.867188 3.34375 -2.195312 3.84375 -1.71875 C 4.351562 -1.238281 4.984375 -1 5.734375 -1 Z M 5.734375 -1 "/></g></g></g></g></g><g transform="matrix(1, 0, 0, 1, 2, 301)"><g clip-path="url(#5754f862b6)"><g fill="#201f1f" fill-opacity="1"><g transform="translate(0.717264, 19.274418)"><g><path d="M 4.359375 0 C 4.179688 0 4.035156 -0.0546875 3.921875 -0.171875 C 3.804688 -0.285156 3.75 -0.421875 3.75 -0.578125 L 3.75 -12.203125 L 3.953125 -12.015625 L 1.390625 -10.296875 C 1.285156 -10.210938 1.175781 -10.171875 1.0625 -10.171875 C 0.90625 -10.171875 0.765625 -10.234375 0.640625 -10.359375 C 0.523438 -10.492188 0.46875 -10.640625 0.46875 -10.796875 C 0.46875 -11.003906 0.566406 -11.164062 0.765625 -11.28125 L 4 -13.421875 C 4.070312 -13.472656 4.148438 -13.503906 4.234375 -13.515625 C 4.316406 -13.523438 4.394531 -13.523438 4.46875 -13.515625 C 4.632812 -13.503906 4.757812 -13.441406 4.84375 -13.328125 C 4.9375 -13.222656 4.984375 -13.09375 4.984375 -12.9375 L 4.984375 -0.578125 C 4.984375 -0.421875 4.925781 -0.285156 4.8125 -0.171875 C 4.695312 -0.0546875 4.546875 0 4.359375 0 Z M 4.359375 0 "/></g></g></g><g fill="#201f1f" fill-opacity="1"><g transform="translate(7.862423, 19.274418)"><g><path d="M 4.359375 0 C 4.179688 0 4.035156 -0.0546875 3.921875 -0.171875 C 3.804688 -0.285156 3.75 -0.421875 3.75 -0.578125 L 3.75 -12.203125 L 3.953125 -12.015625 L 1.390625 -10.296875 C 1.285156 -10.210938 1.175781 -10.171875 1.0625 -10.171875 C 0.90625 -10.171875 0.765625 -10.234375 0.640625 -10.359375 C 0.523438 -10.492188 0.46875 -10.640625 0.46875 -10.796875 C 0.46875 -11.003906 0.566406 -11.164062 0.765625 -11.28125 L 4 -13.421875 C 4.070312 -13.472656 4.148438 -13.503906 4.234375 -13.515625 C 4.316406 -13.523438 4.394531 -13.523438 4.46875 -13.515625 C 4.632812 -13.503906 4.757812 -13.441406 4.84375 -13.328125 C 4.9375 -13.222656 4.984375 -13.09375 4.984375 -12.9375 L 4.984375 -0.578125 C 4.984375 -0.421875 4.925781 -0.285156 4.8125 -0.171875 C 4.695312 -0.0546875 4.546875 0 4.359375 0 Z M 4.359375 0 "/></g></g></g></g></g><g transform="matrix(1, 0, 0, 1, 128, 301)"><g clip-path="url(#76171b619b)"><g fill="#201f1f" fill-opacity="1"><g transform="translate(0.534675, 19.28186)"><g><path d="M 4.390625 0 C 4.203125 0 4.050781 -0.0546875 3.9375 -0.171875 C 3.820312 -0.285156 3.765625 -0.421875 3.765625 -0.578125 L 3.765625 -12.265625 L 3.984375 -12.078125 L 1.390625 -10.34375 C 1.285156 -10.269531 1.175781 -10.234375 1.0625 -10.234375 C 0.90625 -10.234375 0.765625 -10.296875 0.640625 -10.421875 C 0.523438 -10.546875 0.46875 -10.6875 0.46875 -10.84375 C 0.46875 -11.050781 0.570312 -11.210938 0.78125 -11.328125 L 4.015625 -13.484375 C 4.097656 -13.535156 4.179688 -13.566406 4.265625 -13.578125 C 4.347656 -13.597656 4.421875 -13.597656 4.484375 -13.578125 C 4.648438 -13.566406 4.773438 -13.503906 4.859375 -13.390625 C 4.953125 -13.285156 5 -13.15625 5 -13 L 5 -0.578125 C 5 -0.421875 4.941406 -0.285156 4.828125 -0.171875 C 4.710938 -0.0546875 4.566406 0 4.390625 0 Z M 4.390625 0 "/></g></g></g><g fill="#201f1f" fill-opacity="1"><g transform="translate(7.710204, 19.28186)"><g><path d="M 9.203125 -1.125 C 9.359375 -1.125 9.488281 -1.066406 9.59375 -0.953125 C 9.707031 -0.847656 9.765625 -0.71875 9.765625 -0.5625 C 9.765625 -0.394531 9.707031 -0.257812 9.59375 -0.15625 C 9.488281 -0.0507812 9.359375 0 9.203125 0 L 1.921875 0 C 1.753906 0 1.609375 -0.046875 1.484375 -0.140625 C 1.359375 -0.242188 1.296875 -0.390625 1.296875 -0.578125 C 1.296875 -0.722656 1.347656 -0.859375 1.453125 -0.984375 L 5.9375 -5.9375 C 6.644531 -6.71875 7.175781 -7.429688 7.53125 -8.078125 C 7.894531 -8.734375 8.078125 -9.320312 8.078125 -9.84375 C 8.078125 -10.695312 7.816406 -11.378906 7.296875 -11.890625 C 6.773438 -12.410156 6.078125 -12.671875 5.203125 -12.671875 C 4.796875 -12.671875 4.394531 -12.585938 4 -12.421875 C 3.613281 -12.253906 3.265625 -12.035156 2.953125 -11.765625 C 2.648438 -11.492188 2.414062 -11.179688 2.25 -10.828125 C 2.175781 -10.703125 2.09375 -10.613281 2 -10.5625 C 1.914062 -10.507812 1.828125 -10.484375 1.734375 -10.484375 C 1.578125 -10.484375 1.4375 -10.53125 1.3125 -10.625 C 1.195312 -10.71875 1.140625 -10.835938 1.140625 -10.984375 C 1.140625 -11.078125 1.160156 -11.164062 1.203125 -11.25 C 1.253906 -11.34375 1.328125 -11.445312 1.421875 -11.5625 C 1.648438 -11.96875 1.972656 -12.335938 2.390625 -12.671875 C 2.804688 -13.003906 3.269531 -13.269531 3.78125 -13.46875 C 4.289062 -13.675781 4.789062 -13.78125 5.28125 -13.78125 C 6.101562 -13.78125 6.816406 -13.617188 7.421875 -13.296875 C 8.023438 -12.984375 8.488281 -12.535156 8.8125 -11.953125 C 9.144531 -11.378906 9.3125 -10.703125 9.3125 -9.921875 C 9.3125 -9.242188 9.097656 -8.503906 8.671875 -7.703125 C 8.253906 -6.910156 7.632812 -6.054688 6.8125 -5.140625 L 3.03125 -0.890625 L 2.828125 -1.125 Z M 9.203125 -1.125 "/></g></g></g></g></g><g transform="matrix(1, 0, 0, 1, 254, 301)"><g clip-path="url(#30d13c7a11)"><g clip-path="url(#170c8d79a8)"><g fill="#201f1f" fill-opacity="1"><g transform="translate(0.35209, 19.274418)"><g><path d="M 4.359375 0 C 4.179688 0 4.035156 -0.0546875 3.921875 -0.171875 C 3.804688 -0.285156 3.75 -0.421875 3.75 -0.578125 L 3.75 -12.203125 L 3.953125 -12.015625 L 1.390625 -10.296875 C 1.285156 -10.210938 1.175781 -10.171875 1.0625 -10.171875 C 0.90625 -10.171875 0.765625 -10.234375 0.640625 -10.359375 C 0.523438 -10.492188 0.46875 -10.640625 0.46875 -10.796875 C 0.46875 -11.003906 0.566406 -11.164062 0.765625 -11.28125 L 4 -13.421875 C 4.070312 -13.472656 4.148438 -13.503906 4.234375 -13.515625 C 4.316406 -13.523438 4.394531 -13.523438 4.46875 -13.515625 C 4.632812 -13.503906 4.757812 -13.441406 4.84375 -13.328125 C 4.9375 -13.222656 4.984375 -13.09375 4.984375 -12.9375 L 4.984375 -0.578125 C 4.984375 -0.421875 4.925781 -0.285156 4.8125 -0.171875 C 4.695312 -0.0546875 4.546875 0 4.359375 0 Z M 4.359375 0 "/></g></g></g></g><g fill="#201f1f" fill-opacity="1"><g transform="translate(7.497249, 19.274418)"><g><path d="M 1.71875 -1.984375 C 1.78125 -1.984375 1.847656 -1.96875 1.921875 -1.9375 C 1.992188 -1.914062 2.082031 -1.863281 2.1875 -1.78125 C 2.457031 -1.5 2.773438 -1.28125 3.140625 -1.125 C 3.515625 -0.976562 3.941406 -0.90625 4.421875 -0.90625 C 5.054688 -0.90625 5.632812 -1.046875 6.15625 -1.328125 C 6.675781 -1.609375 7.085938 -2.003906 7.390625 -2.515625 C 7.703125 -3.023438 7.859375 -3.609375 7.859375 -4.265625 C 7.859375 -5.015625 7.691406 -5.617188 7.359375 -6.078125 C 7.035156 -6.535156 6.617188 -6.875 6.109375 -7.09375 C 5.597656 -7.320312 5.082031 -7.4375 4.5625 -7.4375 C 4.414062 -7.4375 4.273438 -7.425781 4.140625 -7.40625 C 4.003906 -7.382812 3.878906 -7.359375 3.765625 -7.328125 C 3.648438 -7.304688 3.5625 -7.296875 3.5 -7.296875 C 3.332031 -7.296875 3.203125 -7.347656 3.109375 -7.453125 C 3.015625 -7.566406 2.96875 -7.707031 2.96875 -7.875 C 2.96875 -7.96875 2.988281 -8.050781 3.03125 -8.125 C 3.070312 -8.195312 3.125 -8.273438 3.1875 -8.359375 L 7.109375 -12.625 L 7.34375 -12.328125 L 1.484375 -12.328125 C 1.328125 -12.328125 1.191406 -12.378906 1.078125 -12.484375 C 0.972656 -12.597656 0.921875 -12.726562 0.921875 -12.875 C 0.921875 -13.03125 0.972656 -13.160156 1.078125 -13.265625 C 1.191406 -13.367188 1.328125 -13.421875 1.484375 -13.421875 L 7.96875 -13.421875 C 8.1875 -13.421875 8.34375 -13.351562 8.4375 -13.21875 C 8.53125 -13.082031 8.578125 -12.953125 8.578125 -12.828125 C 8.578125 -12.742188 8.554688 -12.664062 8.515625 -12.59375 C 8.472656 -12.53125 8.421875 -12.457031 8.359375 -12.375 L 4.4375 -8.109375 L 4.015625 -8.359375 C 4.054688 -8.398438 4.1875 -8.441406 4.40625 -8.484375 C 4.632812 -8.535156 4.8125 -8.5625 4.9375 -8.5625 C 5.644531 -8.5625 6.3125 -8.390625 6.9375 -8.046875 C 7.5625 -7.710938 8.070312 -7.234375 8.46875 -6.609375 C 8.863281 -5.984375 9.0625 -5.21875 9.0625 -4.3125 C 9.0625 -3.40625 8.847656 -2.613281 8.421875 -1.9375 C 7.992188 -1.257812 7.421875 -0.734375 6.703125 -0.359375 C 5.984375 0.00390625 5.1875 0.1875 4.3125 0.1875 C 3.78125 0.1875 3.253906 0.0976562 2.734375 -0.078125 C 2.222656 -0.253906 1.773438 -0.523438 1.390625 -0.890625 C 1.296875 -0.960938 1.226562 -1.035156 1.1875 -1.109375 C 1.15625 -1.191406 1.140625 -1.273438 1.140625 -1.359375 C 1.140625 -1.503906 1.191406 -1.644531 1.296875 -1.78125 C 1.410156 -1.914062 1.550781 -1.984375 1.71875 -1.984375 Z M 1.71875 -1.984375 "/></g></g></g></g></g><g transform="matrix(1, 0, 0, 1, 380, 301)"><g clip-path="url(#e6b2c1b948)"><g clip-path="url(#c40bef612d)"><g fill="#201f1f" fill-opacity="1"><g transform="translate(0.169535, 19.274418)"><g><path d="M 4.359375 0 C 4.179688 0 4.035156 -0.0546875 3.921875 -0.171875 C 3.804688 -0.285156 3.75 -0.421875 3.75 -0.578125 L 3.75 -12.203125 L 3.953125 -12.015625 L 1.390625 -10.296875 C 1.285156 -10.210938 1.175781 -10.171875 1.0625 -10.171875 C 0.90625 -10.171875 0.765625 -10.234375 0.640625 -10.359375 C 0.523438 -10.492188 0.46875 -10.640625 0.46875 -10.796875 C 0.46875 -11.003906 0.566406 -11.164062 0.765625 -11.28125 L 4 -13.421875 C 4.070312 -13.472656 4.148438 -13.503906 4.234375 -13.515625 C 4.316406 -13.523438 4.394531 -13.523438 4.46875 -13.515625 C 4.632812 -13.503906 4.757812 -13.441406 4.84375 -13.328125 C 4.9375 -13.222656 4.984375 -13.09375 4.984375 -12.9375 L 4.984375 -0.578125 C 4.984375 -0.421875 4.925781 -0.285156 4.8125 -0.171875 C 4.695312 -0.0546875 4.546875 0 4.359375 0 Z M 4.359375 0 "/></g></g></g></g><g fill="#201f1f" fill-opacity="1"><g transform="translate(7.314694, 19.274418)"><g><path d="M 7.09375 0 C 6.925781 0 6.789062 -0.0546875 6.6875 -0.171875 C 6.582031 -0.285156 6.53125 -0.421875 6.53125 -0.578125 L 6.53125 -11.921875 L 6.78125 -11.765625 L 1.703125 -5.046875 L 1.640625 -5.25 L 9.0625 -5.25 C 9.21875 -5.25 9.347656 -5.195312 9.453125 -5.09375 C 9.566406 -4.988281 9.625 -4.863281 9.625 -4.71875 C 9.625 -4.5625 9.566406 -4.429688 9.453125 -4.328125 C 9.347656 -4.222656 9.21875 -4.171875 9.0625 -4.171875 L 0.84375 -4.171875 C 0.695312 -4.171875 0.5625 -4.226562 0.4375 -4.34375 C 0.320312 -4.46875 0.265625 -4.609375 0.265625 -4.765625 C 0.265625 -4.910156 0.3125 -5.039062 0.40625 -5.15625 L 6.625 -13.28125 C 6.6875 -13.375 6.765625 -13.4375 6.859375 -13.46875 C 6.960938 -13.5 7.046875 -13.515625 7.109375 -13.515625 C 7.273438 -13.515625 7.410156 -13.457031 7.515625 -13.34375 C 7.628906 -13.226562 7.6875 -13.09375 7.6875 -12.9375 L 7.6875 -0.578125 C 7.6875 -0.421875 7.628906 -0.285156 7.515625 -0.171875 C 7.398438 -0.0546875 7.257812 0 7.09375 0 Z M 7.09375 0 "/></g></g></g></g></g><g transform="matrix(1, 0, 0, 1, 505, 301)"><g clip-path="url(#c8eacf9073)"><g fill="#201f1f" fill-opacity="1"><g transform="translate(0.986951, 19.274418)"><g><path d="M 4.359375 0 C 4.179688 0 4.035156 -0.0546875 3.921875 -0.171875 C 3.804688 -0.285156 3.75 -0.421875 3.75 -0.578125 L 3.75 -12.203125 L 3.953125 -12.015625 L 1.390625 -10.296875 C 1.285156 -10.210938 1.175781 -10.171875 1.0625 -10.171875 C 0.90625 -10.171875 0.765625 -10.234375 0.640625 -10.359375 C 0.523438 -10.492188 0.46875 -10.640625 0.46875 -10.796875 C 0.46875 -11.003906 0.566406 -11.164062 0.765625 -11.28125 L 4 -13.421875 C 4.070312 -13.472656 4.148438 -13.503906 4.234375 -13.515625 C 4.316406 -13.523438 4.394531 -13.523438 4.46875 -13.515625 C 4.632812 -13.503906 4.757812 -13.441406 4.84375 -13.328125 C 4.9375 -13.222656 4.984375 -13.09375 4.984375 -12.9375 L 4.984375 -0.578125 C 4.984375 -0.421875 4.925781 -0.285156 4.8125 -0.171875 C 4.695312 -0.0546875 4.546875 0 4.359375 0 Z M 4.359375 0 "/></g></g></g><g fill="#201f1f" fill-opacity="1"><g transform="translate(8.13211, 19.274418)"><g><path d="M 4.515625 0.03125 C 3.992188 0.03125 3.460938 -0.0507812 2.921875 -0.21875 C 2.390625 -0.394531 1.914062 -0.65625 1.5 -1 C 1.425781 -1.0625 1.363281 -1.140625 1.3125 -1.234375 C 1.269531 -1.328125 1.25 -1.414062 1.25 -1.5 C 1.25 -1.632812 1.300781 -1.757812 1.40625 -1.875 C 1.507812 -2 1.644531 -2.0625 1.8125 -2.0625 C 1.957031 -2.0625 2.097656 -2.003906 2.234375 -1.890625 C 2.578125 -1.628906 2.941406 -1.425781 3.328125 -1.28125 C 3.722656 -1.144531 4.117188 -1.078125 4.515625 -1.078125 C 5.273438 -1.078125 5.9375 -1.222656 6.5 -1.515625 C 7.070312 -1.804688 7.507812 -2.21875 7.8125 -2.75 C 8.125 -3.28125 8.28125 -3.898438 8.28125 -4.609375 C 8.28125 -5.265625 8.140625 -5.832031 7.859375 -6.3125 C 7.578125 -6.800781 7.175781 -7.179688 6.65625 -7.453125 C 6.132812 -7.734375 5.519531 -7.875 4.8125 -7.875 C 4.34375 -7.875 3.914062 -7.800781 3.53125 -7.65625 C 3.15625 -7.519531 2.828125 -7.378906 2.546875 -7.234375 C 2.273438 -7.085938 2.054688 -7.015625 1.890625 -7.015625 C 1.734375 -7.015625 1.609375 -7.050781 1.515625 -7.125 C 1.421875 -7.195312 1.359375 -7.289062 1.328125 -7.40625 C 1.296875 -7.53125 1.289062 -7.65625 1.3125 -7.78125 L 2.140625 -12.9375 C 2.148438 -13.050781 2.207031 -13.15625 2.3125 -13.25 C 2.425781 -13.351562 2.570312 -13.40625 2.75 -13.40625 L 8.5625 -13.40625 C 8.707031 -13.40625 8.832031 -13.347656 8.9375 -13.234375 C 9.050781 -13.128906 9.109375 -13 9.109375 -12.84375 C 9.109375 -12.675781 9.050781 -12.535156 8.9375 -12.421875 C 8.832031 -12.316406 8.707031 -12.265625 8.5625 -12.265625 L 3.015625 -12.265625 L 3.1875 -12.4375 L 2.390625 -7.859375 L 2.046875 -8.109375 C 2.210938 -8.234375 2.453125 -8.359375 2.765625 -8.484375 C 3.085938 -8.617188 3.441406 -8.734375 3.828125 -8.828125 C 4.222656 -8.929688 4.640625 -8.984375 5.078125 -8.984375 C 5.910156 -8.984375 6.65625 -8.796875 7.3125 -8.421875 C 7.96875 -8.054688 8.484375 -7.546875 8.859375 -6.890625 C 9.242188 -6.242188 9.4375 -5.5 9.4375 -4.65625 C 9.4375 -3.71875 9.234375 -2.894531 8.828125 -2.1875 C 8.429688 -1.488281 7.863281 -0.941406 7.125 -0.546875 C 6.394531 -0.160156 5.523438 0.03125 4.515625 0.03125 Z M 4.515625 0.03125 "/></g></g></g></g></g><g transform="matrix(1, 0, 0, 1, 631, 301)"><g clip-path="url(#24fcb81178)"><g fill="#201f1f" fill-opacity="1"><g transform="translate(0.804367, 19.274418)"><g><path d="M 4.359375 0 C 4.179688 0 4.035156 -0.0546875 3.921875 -0.171875 C 3.804688 -0.285156 3.75 -0.421875 3.75 -0.578125 L 3.75 -12.203125 L 3.953125 -12.015625 L 1.390625 -10.296875 C 1.285156 -10.210938 1.175781 -10.171875 1.0625 -10.171875 C 0.90625 -10.171875 0.765625 -10.234375 0.640625 -10.359375 C 0.523438 -10.492188 0.46875 -10.640625 0.46875 -10.796875 C 0.46875 -11.003906 0.566406 -11.164062 0.765625 -11.28125 L 4 -13.421875 C 4.070312 -13.472656 4.148438 -13.503906 4.234375 -13.515625 C 4.316406 -13.523438 4.394531 -13.523438 4.46875 -13.515625 C 4.632812 -13.503906 4.757812 -13.441406 4.84375 -13.328125 C 4.9375 -13.222656 4.984375 -13.09375 4.984375 -12.9375 L 4.984375 -0.578125 C 4.984375 -0.421875 4.925781 -0.285156 4.8125 -0.171875 C 4.695312 -0.0546875 4.546875 0 4.359375 0 Z M 4.359375 0 "/></g></g></g><g fill="#201f1f" fill-opacity="1"><g transform="translate(7.949526, 19.274418)"><g><path d="M 5.546875 0.1875 C 4.796875 0.1875 4.140625 0.0507812 3.578125 -0.21875 C 3.023438 -0.488281 2.5625 -0.847656 2.1875 -1.296875 C 1.820312 -1.753906 1.550781 -2.273438 1.375 -2.859375 C 1.207031 -3.441406 1.125 -4.035156 1.125 -4.640625 C 1.125 -5.253906 1.195312 -5.914062 1.34375 -6.625 C 1.5 -7.34375 1.738281 -8.066406 2.0625 -8.796875 C 2.382812 -9.535156 2.78125 -10.234375 3.25 -10.890625 C 3.71875 -11.546875 4.265625 -12.132812 4.890625 -12.65625 C 5.515625 -13.175781 6.222656 -13.585938 7.015625 -13.890625 C 7.097656 -13.910156 7.171875 -13.921875 7.234375 -13.921875 C 7.410156 -13.921875 7.554688 -13.875 7.671875 -13.78125 C 7.796875 -13.695312 7.859375 -13.546875 7.859375 -13.328125 C 7.859375 -13.191406 7.816406 -13.078125 7.734375 -12.984375 C 7.648438 -12.890625 7.535156 -12.816406 7.390625 -12.765625 C 6.847656 -12.535156 6.3125 -12.207031 5.78125 -11.78125 C 5.257812 -11.351562 4.773438 -10.863281 4.328125 -10.3125 C 3.878906 -9.757812 3.492188 -9.164062 3.171875 -8.53125 C 2.859375 -7.894531 2.640625 -7.242188 2.515625 -6.578125 L 2.078125 -6.328125 C 2.316406 -6.753906 2.617188 -7.128906 2.984375 -7.453125 C 3.347656 -7.785156 3.769531 -8.050781 4.25 -8.25 C 4.726562 -8.457031 5.242188 -8.5625 5.796875 -8.5625 C 6.367188 -8.5625 6.898438 -8.4375 7.390625 -8.1875 C 7.878906 -7.945312 8.300781 -7.613281 8.65625 -7.1875 C 9.007812 -6.769531 9.285156 -6.296875 9.484375 -5.765625 C 9.691406 -5.242188 9.796875 -4.703125 9.796875 -4.140625 C 9.796875 -3.378906 9.609375 -2.671875 9.234375 -2.015625 C 8.867188 -1.359375 8.367188 -0.828125 7.734375 -0.421875 C 7.097656 -0.015625 6.367188 0.1875 5.546875 0.1875 Z M 5.515625 -0.921875 C 6.109375 -0.921875 6.632812 -1.054688 7.09375 -1.328125 C 7.5625 -1.597656 7.925781 -1.972656 8.1875 -2.453125 C 8.457031 -2.941406 8.59375 -3.503906 8.59375 -4.140625 C 8.59375 -4.710938 8.476562 -5.242188 8.25 -5.734375 C 8.03125 -6.234375 7.695312 -6.640625 7.25 -6.953125 C 6.800781 -7.273438 6.25 -7.4375 5.59375 -7.4375 C 4.914062 -7.4375 4.328125 -7.28125 3.828125 -6.96875 C 3.335938 -6.664062 2.957031 -6.257812 2.6875 -5.75 C 2.425781 -5.238281 2.296875 -4.679688 2.296875 -4.078125 C 2.296875 -3.535156 2.425781 -3.019531 2.6875 -2.53125 C 2.945312 -2.050781 3.316406 -1.660156 3.796875 -1.359375 C 4.273438 -1.066406 4.847656 -0.921875 5.515625 -0.921875 Z M 5.515625 -0.921875 "/></g></g></g></g></g><g transform="matrix(1, 0, 0, 1, 757, 301)"><g clip-path="url(#e6a34b1d57)"><g fill="#201f1f" fill-opacity="1"><g transform="translate(0.621783, 19.274418)"><g><path d="M 4.359375 0 C 4.179688 0 4.035156 -0.0546875 3.921875 -0.171875 C 3.804688 -0.285156 3.75 -0.421875 3.75 -0.578125 L 3.75 -12.203125 L 3.953125 -12.015625 L 1.390625 -10.296875 C 1.285156 -10.210938 1.175781 -10.171875 1.0625 -10.171875 C 0.90625 -10.171875 0.765625 -10.234375 0.640625 -10.359375 C 0.523438 -10.492188 0.46875 -10.640625 0.46875 -10.796875 C 0.46875 -11.003906 0.566406 -11.164062 0.765625 -11.28125 L 4 -13.421875 C 4.070312 -13.472656 4.148438 -13.503906 4.234375 -13.515625 C 4.316406 -13.523438 4.394531 -13.523438 4.46875 -13.515625 C 4.632812 -13.503906 4.757812 -13.441406 4.84375 -13.328125 C 4.9375 -13.222656 4.984375 -13.09375 4.984375 -12.9375 L 4.984375 -0.578125 C 4.984375 -0.421875 4.925781 -0.285156 4.8125 -0.171875 C 4.695312 -0.0546875 4.546875 0 4.359375 0 Z M 4.359375 0 "/></g></g></g><g clip-path="url(#1d63a86c55)"><g fill="#201f1f" fill-opacity="1"><g transform="translate(7.766942, 19.274418)"><g><path d="M 3.4375 0.0625 C 3.28125 0.0625 3.132812 0.0078125 3 -0.09375 C 2.875 -0.195312 2.8125 -0.328125 2.8125 -0.484375 C 2.8125 -0.578125 2.832031 -0.671875 2.875 -0.765625 L 8.015625 -12.578125 L 8.234375 -12.296875 L 1.703125 -12.296875 C 1.546875 -12.296875 1.410156 -12.347656 1.296875 -12.453125 C 1.191406 -12.566406 1.140625 -12.703125 1.140625 -12.859375 C 1.140625 -13.023438 1.191406 -13.160156 1.296875 -13.265625 C 1.410156 -13.367188 1.546875 -13.421875 1.703125 -13.421875 L 8.78125 -13.421875 C 8.976562 -13.421875 9.117188 -13.367188 9.203125 -13.265625 C 9.296875 -13.160156 9.34375 -13.03125 9.34375 -12.875 C 9.34375 -12.78125 9.328125 -12.6875 9.296875 -12.59375 L 3.984375 -0.328125 C 3.941406 -0.210938 3.867188 -0.117188 3.765625 -0.046875 C 3.660156 0.0234375 3.550781 0.0625 3.4375 0.0625 Z M 3.4375 0.0625 "/></g></g></g></g></g></g><g transform="matrix(1, 0, 0, 1, 2, 451)"><g clip-path="url(#b08de71bd2)"><g fill="#201f1f" fill-opacity="1"><g transform="translate(0.717264, 19.03113)"><g><path d="M 4.359375 0 C 4.179688 0 4.035156 -0.0546875 3.921875 -0.171875 C 3.804688 -0.285156 3.75 -0.421875 3.75 -0.578125 L 3.75 -12.203125 L 3.953125 -12.015625 L 1.390625 -10.296875 C 1.285156 -10.210938 1.175781 -10.171875 1.0625 -10.171875 C 0.90625 -10.171875 0.765625 -10.234375 0.640625 -10.359375 C 0.523438 -10.492188 0.46875 -10.640625 0.46875 -10.796875 C 0.46875 -11.003906 0.566406 -11.164062 0.765625 -11.28125 L 4 -13.421875 C 4.070312 -13.472656 4.148438 -13.503906 4.234375 -13.515625 C 4.316406 -13.523438 4.394531 -13.523438 4.46875 -13.515625 C 4.632812 -13.503906 4.757812 -13.441406 4.84375 -13.328125 C 4.9375 -13.222656 4.984375 -13.09375 4.984375 -12.9375 L 4.984375 -0.578125 C 4.984375 -0.421875 4.925781 -0.285156 4.8125 -0.171875 C 4.695312 -0.0546875 4.546875 0 4.359375 0 Z M 4.359375 0 "/></g></g></g><g fill="#201f1f" fill-opacity="1"><g transform="translate(7.862423, 19.03113)"><g><path d="M 7.03125 -6.796875 L 6.96875 -6.96875 C 7.40625 -6.800781 7.800781 -6.550781 8.15625 -6.21875 C 8.519531 -5.894531 8.8125 -5.507812 9.03125 -5.0625 C 9.25 -4.625 9.359375 -4.140625 9.359375 -3.609375 C 9.359375 -2.910156 9.175781 -2.28125 8.8125 -1.71875 C 8.445312 -1.15625 7.945312 -0.703125 7.3125 -0.359375 C 6.6875 -0.0234375 5.988281 0.140625 5.21875 0.140625 C 4.425781 0.140625 3.71875 -0.0234375 3.09375 -0.359375 C 2.46875 -0.703125 1.972656 -1.15625 1.609375 -1.71875 C 1.242188 -2.28125 1.0625 -2.910156 1.0625 -3.609375 C 1.0625 -4.179688 1.171875 -4.6875 1.390625 -5.125 C 1.617188 -5.570312 1.914062 -5.945312 2.28125 -6.25 C 2.65625 -6.5625 3.039062 -6.800781 3.4375 -6.96875 L 3.375 -6.78125 C 3.03125 -6.945312 2.707031 -7.175781 2.40625 -7.46875 C 2.101562 -7.757812 1.851562 -8.101562 1.65625 -8.5 C 1.46875 -8.90625 1.375 -9.351562 1.375 -9.84375 C 1.375 -10.539062 1.539062 -11.164062 1.875 -11.71875 C 2.21875 -12.269531 2.679688 -12.707031 3.265625 -13.03125 C 3.859375 -13.351562 4.507812 -13.515625 5.21875 -13.515625 C 5.925781 -13.515625 6.566406 -13.351562 7.140625 -13.03125 C 7.710938 -12.707031 8.164062 -12.269531 8.5 -11.71875 C 8.84375 -11.164062 9.015625 -10.539062 9.015625 -9.84375 C 9.015625 -9.34375 8.914062 -8.894531 8.71875 -8.5 C 8.53125 -8.101562 8.28125 -7.757812 7.96875 -7.46875 C 7.664062 -7.175781 7.351562 -6.953125 7.03125 -6.796875 Z M 2.5625 -9.84375 C 2.5625 -9.332031 2.679688 -8.882812 2.921875 -8.5 C 3.171875 -8.113281 3.492188 -7.8125 3.890625 -7.59375 C 4.296875 -7.375 4.738281 -7.265625 5.21875 -7.265625 C 5.675781 -7.265625 6.101562 -7.375 6.5 -7.59375 C 6.90625 -7.8125 7.226562 -8.113281 7.46875 -8.5 C 7.707031 -8.882812 7.828125 -9.332031 7.828125 -9.84375 C 7.828125 -10.601562 7.582031 -11.222656 7.09375 -11.703125 C 6.601562 -12.179688 5.976562 -12.421875 5.21875 -12.421875 C 4.425781 -12.421875 3.785156 -12.179688 3.296875 -11.703125 C 2.804688 -11.222656 2.5625 -10.601562 2.5625 -9.84375 Z M 5.21875 -0.96875 C 6.09375 -0.96875 6.800781 -1.21875 7.34375 -1.71875 C 7.894531 -2.21875 8.171875 -2.847656 8.171875 -3.609375 C 8.171875 -4.128906 8.035156 -4.59375 7.765625 -5 C 7.492188 -5.414062 7.128906 -5.738281 6.671875 -5.96875 C 6.222656 -6.195312 5.738281 -6.3125 5.21875 -6.3125 C 4.6875 -6.3125 4.195312 -6.195312 3.75 -5.96875 C 3.300781 -5.738281 2.941406 -5.414062 2.671875 -5 C 2.398438 -4.59375 2.265625 -4.128906 2.265625 -3.609375 C 2.265625 -2.847656 2.53125 -2.21875 3.0625 -1.71875 C 3.601562 -1.21875 4.320312 -0.96875 5.21875 -0.96875 Z M 5.21875 -0.96875 "/></g></g></g></g></g><g transform="matrix(1, 0, 0, 1, 128, 451)"><g clip-path="url(#49923794c4)"><g fill="#201f1f" fill-opacity="1"><g transform="translate(0.534675, 19.038571)"><g><path d="M 4.390625 0 C 4.203125 0 4.050781 -0.0546875 3.9375 -0.171875 C 3.820312 -0.285156 3.765625 -0.421875 3.765625 -0.578125 L 3.765625 -12.265625 L 3.984375 -12.078125 L 1.390625 -10.34375 C 1.285156 -10.269531 1.175781 -10.234375 1.0625 -10.234375 C 0.90625 -10.234375 0.765625 -10.296875 0.640625 -10.421875 C 0.523438 -10.546875 0.46875 -10.6875 0.46875 -10.84375 C 0.46875 -11.050781 0.570312 -11.210938 0.78125 -11.328125 L 4.015625 -13.484375 C 4.097656 -13.535156 4.179688 -13.566406 4.265625 -13.578125 C 4.347656 -13.597656 4.421875 -13.597656 4.484375 -13.578125 C 4.648438 -13.566406 4.773438 -13.503906 4.859375 -13.390625 C 4.953125 -13.285156 5 -13.15625 5 -13 L 5 -0.578125 C 5 -0.421875 4.941406 -0.285156 4.828125 -0.171875 C 4.710938 -0.0546875 4.566406 0 4.390625 0 Z M 4.390625 0 "/></g></g></g><g fill="#201f1f" fill-opacity="1"><g transform="translate(7.710204, 19.038571)"><g><path d="M 5.375 -13.796875 C 6.132812 -13.796875 6.796875 -13.660156 7.359375 -13.390625 C 7.921875 -13.117188 8.382812 -12.753906 8.75 -12.296875 C 9.113281 -11.835938 9.382812 -11.316406 9.5625 -10.734375 C 9.75 -10.148438 9.84375 -9.554688 9.84375 -8.953125 C 9.84375 -8.328125 9.757812 -7.660156 9.59375 -6.953125 C 9.4375 -6.253906 9.195312 -5.546875 8.875 -4.828125 C 8.5625 -4.109375 8.164062 -3.425781 7.6875 -2.78125 C 7.21875 -2.132812 6.664062 -1.550781 6.03125 -1.03125 C 5.394531 -0.507812 4.691406 -0.109375 3.921875 0.171875 C 3.816406 0.203125 3.734375 0.21875 3.671875 0.21875 C 3.515625 0.21875 3.375 0.160156 3.25 0.046875 C 3.125 -0.0546875 3.0625 -0.203125 3.0625 -0.390625 C 3.0625 -0.515625 3.097656 -0.625 3.171875 -0.71875 C 3.253906 -0.820312 3.375 -0.898438 3.53125 -0.953125 C 4.269531 -1.265625 4.976562 -1.726562 5.65625 -2.34375 C 6.34375 -2.957031 6.9375 -3.664062 7.4375 -4.46875 C 7.9375 -5.28125 8.269531 -6.117188 8.4375 -6.984375 L 8.84375 -7.234375 C 8.625 -6.828125 8.328125 -6.453125 7.953125 -6.109375 C 7.578125 -5.773438 7.15625 -5.515625 6.6875 -5.328125 C 6.21875 -5.140625 5.703125 -5.046875 5.140625 -5.046875 C 4.316406 -5.046875 3.601562 -5.25 3 -5.65625 C 2.394531 -6.0625 1.929688 -6.597656 1.609375 -7.265625 C 1.285156 -7.941406 1.125 -8.671875 1.125 -9.453125 C 1.125 -10.210938 1.304688 -10.921875 1.671875 -11.578125 C 2.046875 -12.242188 2.550781 -12.78125 3.1875 -13.1875 C 3.832031 -13.59375 4.5625 -13.796875 5.375 -13.796875 Z M 5.421875 -12.671875 C 4.804688 -12.671875 4.265625 -12.535156 3.796875 -12.265625 C 3.335938 -11.992188 2.972656 -11.613281 2.703125 -11.125 C 2.441406 -10.644531 2.3125 -10.085938 2.3125 -9.453125 C 2.3125 -8.878906 2.421875 -8.335938 2.640625 -7.828125 C 2.867188 -7.328125 3.207031 -6.925781 3.65625 -6.625 C 4.113281 -6.320312 4.664062 -6.171875 5.3125 -6.171875 C 6.007812 -6.171875 6.601562 -6.320312 7.09375 -6.625 C 7.59375 -6.925781 7.976562 -7.328125 8.25 -7.828125 C 8.519531 -8.335938 8.65625 -8.898438 8.65625 -9.515625 C 8.65625 -10.066406 8.523438 -10.582031 8.265625 -11.0625 C 8.003906 -11.539062 7.632812 -11.925781 7.15625 -12.21875 C 6.675781 -12.519531 6.097656 -12.671875 5.421875 -12.671875 Z M 5.421875 -12.671875 "/></g></g></g></g></g><g transform="matrix(1, 0, 0, 1, 254, 451)"><g clip-path="url(#6433afa0d2)"><g fill="#201f1f" fill-opacity="1"><g transform="translate(0.35209, 19.03113)"><g><path d="M 9.15625 -1.125 C 9.3125 -1.125 9.441406 -1.066406 9.546875 -0.953125 C 9.660156 -0.847656 9.71875 -0.71875 9.71875 -0.5625 C 9.71875 -0.394531 9.660156 -0.257812 9.546875 -0.15625 C 9.441406 -0.0507812 9.3125 0 9.15625 0 L 1.90625 0 C 1.738281 0 1.59375 -0.046875 1.46875 -0.140625 C 1.351562 -0.242188 1.296875 -0.390625 1.296875 -0.578125 C 1.296875 -0.722656 1.347656 -0.859375 1.453125 -0.984375 L 5.90625 -5.90625 C 6.613281 -6.675781 7.144531 -7.382812 7.5 -8.03125 C 7.851562 -8.6875 8.03125 -9.273438 8.03125 -9.796875 C 8.03125 -10.640625 7.769531 -11.316406 7.25 -11.828125 C 6.738281 -12.347656 6.046875 -12.609375 5.171875 -12.609375 C 4.773438 -12.609375 4.378906 -12.523438 3.984375 -12.359375 C 3.597656 -12.191406 3.25 -11.972656 2.9375 -11.703125 C 2.632812 -11.429688 2.398438 -11.125 2.234375 -10.78125 C 2.160156 -10.644531 2.082031 -10.550781 2 -10.5 C 1.914062 -10.445312 1.820312 -10.421875 1.71875 -10.421875 C 1.5625 -10.421875 1.425781 -10.46875 1.3125 -10.5625 C 1.195312 -10.664062 1.140625 -10.789062 1.140625 -10.9375 C 1.140625 -11.019531 1.160156 -11.109375 1.203125 -11.203125 C 1.253906 -11.296875 1.320312 -11.398438 1.40625 -11.515625 C 1.632812 -11.910156 1.957031 -12.273438 2.375 -12.609375 C 2.789062 -12.941406 3.25 -13.207031 3.75 -13.40625 C 4.257812 -13.613281 4.757812 -13.71875 5.25 -13.71875 C 6.070312 -13.71875 6.78125 -13.554688 7.375 -13.234375 C 7.976562 -12.921875 8.441406 -12.476562 8.765625 -11.90625 C 9.097656 -11.332031 9.265625 -10.65625 9.265625 -9.875 C 9.265625 -9.195312 9.054688 -8.460938 8.640625 -7.671875 C 8.222656 -6.878906 7.601562 -6.03125 6.78125 -5.125 L 3.015625 -0.890625 L 2.8125 -1.125 Z M 9.15625 -1.125 "/></g></g></g><g fill="#201f1f" fill-opacity="1"><g transform="translate(11.050524, 19.03113)"><g><path d="M 5.734375 0.1875 C 4.703125 0.1875 3.835938 -0.117188 3.140625 -0.734375 C 2.453125 -1.347656 1.929688 -2.179688 1.578125 -3.234375 C 1.234375 -4.285156 1.0625 -5.460938 1.0625 -6.765625 C 1.0625 -8.078125 1.234375 -9.253906 1.578125 -10.296875 C 1.929688 -11.347656 2.453125 -12.179688 3.140625 -12.796875 C 3.835938 -13.410156 4.703125 -13.71875 5.734375 -13.71875 C 6.785156 -13.71875 7.65625 -13.410156 8.34375 -12.796875 C 9.039062 -12.179688 9.5625 -11.347656 9.90625 -10.296875 C 10.25 -9.253906 10.421875 -8.078125 10.421875 -6.765625 C 10.421875 -5.460938 10.25 -4.285156 9.90625 -3.234375 C 9.5625 -2.179688 9.039062 -1.347656 8.34375 -0.734375 C 7.65625 -0.117188 6.785156 0.1875 5.734375 0.1875 Z M 5.734375 -1 C 6.492188 -1 7.128906 -1.238281 7.640625 -1.71875 C 8.148438 -2.195312 8.535156 -2.867188 8.796875 -3.734375 C 9.054688 -4.609375 9.1875 -5.617188 9.1875 -6.765625 C 9.1875 -7.921875 9.054688 -8.929688 8.796875 -9.796875 C 8.535156 -10.671875 8.148438 -11.34375 7.640625 -11.8125 C 7.128906 -12.289062 6.492188 -12.53125 5.734375 -12.53125 C 4.984375 -12.53125 4.351562 -12.289062 3.84375 -11.8125 C 3.34375 -11.34375 2.957031 -10.671875 2.6875 -9.796875 C 2.425781 -8.929688 2.296875 -7.921875 2.296875 -6.765625 C 2.296875 -5.617188 2.425781 -4.609375 2.6875 -3.734375 C 2.957031 -2.867188 3.34375 -2.195312 3.84375 -1.71875 C 4.351562 -1.238281 4.984375 -1 5.734375 -1 Z M 5.734375 -1 "/></g></g></g></g></g><g transform="matrix(1, 0, 0, 1, 380, 451)"><g clip-path="url(#4e4bcf9f55)"><g fill="#201f1f" fill-opacity="1"><g transform="translate(0.169535, 19.03113)"><g><path d="M 9.15625 -1.125 C 9.3125 -1.125 9.441406 -1.066406 9.546875 -0.953125 C 9.660156 -0.847656 9.71875 -0.71875 9.71875 -0.5625 C 9.71875 -0.394531 9.660156 -0.257812 9.546875 -0.15625 C 9.441406 -0.0507812 9.3125 0 9.15625 0 L 1.90625 0 C 1.738281 0 1.59375 -0.046875 1.46875 -0.140625 C 1.351562 -0.242188 1.296875 -0.390625 1.296875 -0.578125 C 1.296875 -0.722656 1.347656 -0.859375 1.453125 -0.984375 L 5.90625 -5.90625 C 6.613281 -6.675781 7.144531 -7.382812 7.5 -8.03125 C 7.851562 -8.6875 8.03125 -9.273438 8.03125 -9.796875 C 8.03125 -10.640625 7.769531 -11.316406 7.25 -11.828125 C 6.738281 -12.347656 6.046875 -12.609375 5.171875 -12.609375 C 4.773438 -12.609375 4.378906 -12.523438 3.984375 -12.359375 C 3.597656 -12.191406 3.25 -11.972656 2.9375 -11.703125 C 2.632812 -11.429688 2.398438 -11.125 2.234375 -10.78125 C 2.160156 -10.644531 2.082031 -10.550781 2 -10.5 C 1.914062 -10.445312 1.820312 -10.421875 1.71875 -10.421875 C 1.5625 -10.421875 1.425781 -10.46875 1.3125 -10.5625 C 1.195312 -10.664062 1.140625 -10.789062 1.140625 -10.9375 C 1.140625 -11.019531 1.160156 -11.109375 1.203125 -11.203125 C 1.253906 -11.296875 1.320312 -11.398438 1.40625 -11.515625 C 1.632812 -11.910156 1.957031 -12.273438 2.375 -12.609375 C 2.789062 -12.941406 3.25 -13.207031 3.75 -13.40625 C 4.257812 -13.613281 4.757812 -13.71875 5.25 -13.71875 C 6.070312 -13.71875 6.78125 -13.554688 7.375 -13.234375 C 7.976562 -12.921875 8.441406 -12.476562 8.765625 -11.90625 C 9.097656 -11.332031 9.265625 -10.65625 9.265625 -9.875 C 9.265625 -9.195312 9.054688 -8.460938 8.640625 -7.671875 C 8.222656 -6.878906 7.601562 -6.03125 6.78125 -5.125 L 3.015625 -0.890625 L 2.8125 -1.125 Z M 9.15625 -1.125 "/></g></g></g><g fill="#201f1f" fill-opacity="1"><g transform="translate(10.867969, 19.03113)"><g><path d="M 4.359375 0 C 4.179688 0 4.035156 -0.0546875 3.921875 -0.171875 C 3.804688 -0.285156 3.75 -0.421875 3.75 -0.578125 L 3.75 -12.203125 L 3.953125 -12.015625 L 1.390625 -10.296875 C 1.285156 -10.210938 1.175781 -10.171875 1.0625 -10.171875 C 0.90625 -10.171875 0.765625 -10.234375 0.640625 -10.359375 C 0.523438 -10.492188 0.46875 -10.640625 0.46875 -10.796875 C 0.46875 -11.003906 0.566406 -11.164062 0.765625 -11.28125 L 4 -13.421875 C 4.070312 -13.472656 4.148438 -13.503906 4.234375 -13.515625 C 4.316406 -13.523438 4.394531 -13.523438 4.46875 -13.515625 C 4.632812 -13.503906 4.757812 -13.441406 4.84375 -13.328125 C 4.9375 -13.222656 4.984375 -13.09375 4.984375 -12.9375 L 4.984375 -0.578125 C 4.984375 -0.421875 4.925781 -0.285156 4.8125 -0.171875 C 4.695312 -0.0546875 4.546875 0 4.359375 0 Z M 4.359375 0 "/></g></g></g></g></g><g transform="matrix(1, 0, 0, 1, 505, 451)"><g clip-path="url(#3740de37ab)"><g fill="#201f1f" fill-opacity="1"><g transform="translate(0.986951, 19.03113)"><g><path d="M 9.15625 -1.125 C 9.3125 -1.125 9.441406 -1.066406 9.546875 -0.953125 C 9.660156 -0.847656 9.71875 -0.71875 9.71875 -0.5625 C 9.71875 -0.394531 9.660156 -0.257812 9.546875 -0.15625 C 9.441406 -0.0507812 9.3125 0 9.15625 0 L 1.90625 0 C 1.738281 0 1.59375 -0.046875 1.46875 -0.140625 C 1.351562 -0.242188 1.296875 -0.390625 1.296875 -0.578125 C 1.296875 -0.722656 1.347656 -0.859375 1.453125 -0.984375 L 5.90625 -5.90625 C 6.613281 -6.675781 7.144531 -7.382812 7.5 -8.03125 C 7.851562 -8.6875 8.03125 -9.273438 8.03125 -9.796875 C 8.03125 -10.640625 7.769531 -11.316406 7.25 -11.828125 C 6.738281 -12.347656 6.046875 -12.609375 5.171875 -12.609375 C 4.773438 -12.609375 4.378906 -12.523438 3.984375 -12.359375 C 3.597656 -12.191406 3.25 -11.972656 2.9375 -11.703125 C 2.632812 -11.429688 2.398438 -11.125 2.234375 -10.78125 C 2.160156 -10.644531 2.082031 -10.550781 2 -10.5 C 1.914062 -10.445312 1.820312 -10.421875 1.71875 -10.421875 C 1.5625 -10.421875 1.425781 -10.46875 1.3125 -10.5625 C 1.195312 -10.664062 1.140625 -10.789062 1.140625 -10.9375 C 1.140625 -11.019531 1.160156 -11.109375 1.203125 -11.203125 C 1.253906 -11.296875 1.320312 -11.398438 1.40625 -11.515625 C 1.632812 -11.910156 1.957031 -12.273438 2.375 -12.609375 C 2.789062 -12.941406 3.25 -13.207031 3.75 -13.40625 C 4.257812 -13.613281 4.757812 -13.71875 5.25 -13.71875 C 6.070312 -13.71875 6.78125 -13.554688 7.375 -13.234375 C 7.976562 -12.921875 8.441406 -12.476562 8.765625 -11.90625 C 9.097656 -11.332031 9.265625 -10.65625 9.265625 -9.875 C 9.265625 -9.195312 9.054688 -8.460938 8.640625 -7.671875 C 8.222656 -6.878906 7.601562 -6.03125 6.78125 -5.125 L 3.015625 -0.890625 L 2.8125 -1.125 Z M 9.15625 -1.125 "/></g></g></g><g fill="#201f1f" fill-opacity="1"><g transform="translate(11.685385, 19.03113)"><g><path d="M 9.15625 -1.125 C 9.3125 -1.125 9.441406 -1.066406 9.546875 -0.953125 C 9.660156 -0.847656 9.71875 -0.71875 9.71875 -0.5625 C 9.71875 -0.394531 9.660156 -0.257812 9.546875 -0.15625 C 9.441406 -0.0507812 9.3125 0 9.15625 0 L 1.90625 0 C 1.738281 0 1.59375 -0.046875 1.46875 -0.140625 C 1.351562 -0.242188 1.296875 -0.390625 1.296875 -0.578125 C 1.296875 -0.722656 1.347656 -0.859375 1.453125 -0.984375 L 5.90625 -5.90625 C 6.613281 -6.675781 7.144531 -7.382812 7.5 -8.03125 C 7.851562 -8.6875 8.03125 -9.273438 8.03125 -9.796875 C 8.03125 -10.640625 7.769531 -11.316406 7.25 -11.828125 C 6.738281 -12.347656 6.046875 -12.609375 5.171875 -12.609375 C 4.773438 -12.609375 4.378906 -12.523438 3.984375 -12.359375 C 3.597656 -12.191406 3.25 -11.972656 2.9375 -11.703125 C 2.632812 -11.429688 2.398438 -11.125 2.234375 -10.78125 C 2.160156 -10.644531 2.082031 -10.550781 2 -10.5 C 1.914062 -10.445312 1.820312 -10.421875 1.71875 -10.421875 C 1.5625 -10.421875 1.425781 -10.46875 1.3125 -10.5625 C 1.195312 -10.664062 1.140625 -10.789062 1.140625 -10.9375 C 1.140625 -11.019531 1.160156 -11.109375 1.203125 -11.203125 C 1.253906 -11.296875 1.320312 -11.398438 1.40625 -11.515625 C 1.632812 -11.910156 1.957031 -12.273438 2.375 -12.609375 C 2.789062 -12.941406 3.25 -13.207031 3.75 -13.40625 C 4.257812 -13.613281 4.757812 -13.71875 5.25 -13.71875 C 6.070312 -13.71875 6.78125 -13.554688 7.375 -13.234375 C 7.976562 -12.921875 8.441406 -12.476562 8.765625 -11.90625 C 9.097656 -11.332031 9.265625 -10.65625 9.265625 -9.875 C 9.265625 -9.195312 9.054688 -8.460938 8.640625 -7.671875 C 8.222656 -6.878906 7.601562 -6.03125 6.78125 -5.125 L 3.015625 -0.890625 L 2.8125 -1.125 Z M 9.15625 -1.125 "/></g></g></g></g></g><g transform="matrix(1, 0, 0, 1, 631, 451)"><g clip-path="url(#8d92e07d6c)"><g fill="#201f1f" fill-opacity="1"><g transform="translate(0.804367, 19.03113)"><g><path d="M 9.15625 -1.125 C 9.3125 -1.125 9.441406 -1.066406 9.546875 -0.953125 C 9.660156 -0.847656 9.71875 -0.71875 9.71875 -0.5625 C 9.71875 -0.394531 9.660156 -0.257812 9.546875 -0.15625 C 9.441406 -0.0507812 9.3125 0 9.15625 0 L 1.90625 0 C 1.738281 0 1.59375 -0.046875 1.46875 -0.140625 C 1.351562 -0.242188 1.296875 -0.390625 1.296875 -0.578125 C 1.296875 -0.722656 1.347656 -0.859375 1.453125 -0.984375 L 5.90625 -5.90625 C 6.613281 -6.675781 7.144531 -7.382812 7.5 -8.03125 C 7.851562 -8.6875 8.03125 -9.273438 8.03125 -9.796875 C 8.03125 -10.640625 7.769531 -11.316406 7.25 -11.828125 C 6.738281 -12.347656 6.046875 -12.609375 5.171875 -12.609375 C 4.773438 -12.609375 4.378906 -12.523438 3.984375 -12.359375 C 3.597656 -12.191406 3.25 -11.972656 2.9375 -11.703125 C 2.632812 -11.429688 2.398438 -11.125 2.234375 -10.78125 C 2.160156 -10.644531 2.082031 -10.550781 2 -10.5 C 1.914062 -10.445312 1.820312 -10.421875 1.71875 -10.421875 C 1.5625 -10.421875 1.425781 -10.46875 1.3125 -10.5625 C 1.195312 -10.664062 1.140625 -10.789062 1.140625 -10.9375 C 1.140625 -11.019531 1.160156 -11.109375 1.203125 -11.203125 C 1.253906 -11.296875 1.320312 -11.398438 1.40625 -11.515625 C 1.632812 -11.910156 1.957031 -12.273438 2.375 -12.609375 C 2.789062 -12.941406 3.25 -13.207031 3.75 -13.40625 C 4.257812 -13.613281 4.757812 -13.71875 5.25 -13.71875 C 6.070312 -13.71875 6.78125 -13.554688 7.375 -13.234375 C 7.976562 -12.921875 8.441406 -12.476562 8.765625 -11.90625 C 9.097656 -11.332031 9.265625 -10.65625 9.265625 -9.875 C 9.265625 -9.195312 9.054688 -8.460938 8.640625 -7.671875 C 8.222656 -6.878906 7.601562 -6.03125 6.78125 -5.125 L 3.015625 -0.890625 L 2.8125 -1.125 Z M 9.15625 -1.125 "/></g></g></g><g fill="#201f1f" fill-opacity="1"><g transform="translate(11.502801, 19.03113)"><g><path d="M 1.71875 -1.984375 C 1.78125 -1.984375 1.847656 -1.96875 1.921875 -1.9375 C 1.992188 -1.914062 2.082031 -1.863281 2.1875 -1.78125 C 2.457031 -1.5 2.773438 -1.28125 3.140625 -1.125 C 3.515625 -0.976562 3.941406 -0.90625 4.421875 -0.90625 C 5.054688 -0.90625 5.632812 -1.046875 6.15625 -1.328125 C 6.675781 -1.609375 7.085938 -2.003906 7.390625 -2.515625 C 7.703125 -3.023438 7.859375 -3.609375 7.859375 -4.265625 C 7.859375 -5.015625 7.691406 -5.617188 7.359375 -6.078125 C 7.035156 -6.535156 6.617188 -6.875 6.109375 -7.09375 C 5.597656 -7.320312 5.082031 -7.4375 4.5625 -7.4375 C 4.414062 -7.4375 4.273438 -7.425781 4.140625 -7.40625 C 4.003906 -7.382812 3.878906 -7.359375 3.765625 -7.328125 C 3.648438 -7.304688 3.5625 -7.296875 3.5 -7.296875 C 3.332031 -7.296875 3.203125 -7.347656 3.109375 -7.453125 C 3.015625 -7.566406 2.96875 -7.707031 2.96875 -7.875 C 2.96875 -7.96875 2.988281 -8.050781 3.03125 -8.125 C 3.070312 -8.195312 3.125 -8.273438 3.1875 -8.359375 L 7.109375 -12.625 L 7.34375 -12.328125 L 1.484375 -12.328125 C 1.328125 -12.328125 1.191406 -12.378906 1.078125 -12.484375 C 0.972656 -12.597656 0.921875 -12.726562 0.921875 -12.875 C 0.921875 -13.03125 0.972656 -13.160156 1.078125 -13.265625 C 1.191406 -13.367188 1.328125 -13.421875 1.484375 -13.421875 L 7.96875 -13.421875 C 8.1875 -13.421875 8.34375 -13.351562 8.4375 -13.21875 C 8.53125 -13.082031 8.578125 -12.953125 8.578125 -12.828125 C 8.578125 -12.742188 8.554688 -12.664062 8.515625 -12.59375 C 8.472656 -12.53125 8.421875 -12.457031 8.359375 -12.375 L 4.4375 -8.109375 L 4.015625 -8.359375 C 4.054688 -8.398438 4.1875 -8.441406 4.40625 -8.484375 C 4.632812 -8.535156 4.8125 -8.5625 4.9375 -8.5625 C 5.644531 -8.5625 6.3125 -8.390625 6.9375 -8.046875 C 7.5625 -7.710938 8.070312 -7.234375 8.46875 -6.609375 C 8.863281 -5.984375 9.0625 -5.21875 9.0625 -4.3125 C 9.0625 -3.40625 8.847656 -2.613281 8.421875 -1.9375 C 7.992188 -1.257812 7.421875 -0.734375 6.703125 -0.359375 C 5.984375 0.00390625 5.1875 0.1875 4.3125 0.1875 C 3.78125 0.1875 3.253906 0.0976562 2.734375 -0.078125 C 2.222656 -0.253906 1.773438 -0.523438 1.390625 -0.890625 C 1.296875 -0.960938 1.226562 -1.035156 1.1875 -1.109375 C 1.15625 -1.191406 1.140625 -1.273438 1.140625 -1.359375 C 1.140625 -1.503906 1.191406 -1.644531 1.296875 -1.78125 C 1.410156 -1.914062 1.550781 -1.984375 1.71875 -1.984375 Z M 1.71875 -1.984375 "/></g></g></g></g></g><g transform="matrix(1, 0, 0, 1, 757, 451)"><g clip-path="url(#f6cd3fd5d1)"><g fill="#201f1f" fill-opacity="1"><g transform="translate(0.621783, 19.03113)"><g><path d="M 9.15625 -1.125 C 9.3125 -1.125 9.441406 -1.066406 9.546875 -0.953125 C 9.660156 -0.847656 9.71875 -0.71875 9.71875 -0.5625 C 9.71875 -0.394531 9.660156 -0.257812 9.546875 -0.15625 C 9.441406 -0.0507812 9.3125 0 9.15625 0 L 1.90625 0 C 1.738281 0 1.59375 -0.046875 1.46875 -0.140625 C 1.351562 -0.242188 1.296875 -0.390625 1.296875 -0.578125 C 1.296875 -0.722656 1.347656 -0.859375 1.453125 -0.984375 L 5.90625 -5.90625 C 6.613281 -6.675781 7.144531 -7.382812 7.5 -8.03125 C 7.851562 -8.6875 8.03125 -9.273438 8.03125 -9.796875 C 8.03125 -10.640625 7.769531 -11.316406 7.25 -11.828125 C 6.738281 -12.347656 6.046875 -12.609375 5.171875 -12.609375 C 4.773438 -12.609375 4.378906 -12.523438 3.984375 -12.359375 C 3.597656 -12.191406 3.25 -11.972656 2.9375 -11.703125 C 2.632812 -11.429688 2.398438 -11.125 2.234375 -10.78125 C 2.160156 -10.644531 2.082031 -10.550781 2 -10.5 C 1.914062 -10.445312 1.820312 -10.421875 1.71875 -10.421875 C 1.5625 -10.421875 1.425781 -10.46875 1.3125 -10.5625 C 1.195312 -10.664062 1.140625 -10.789062 1.140625 -10.9375 C 1.140625 -11.019531 1.160156 -11.109375 1.203125 -11.203125 C 1.253906 -11.296875 1.320312 -11.398438 1.40625 -11.515625 C 1.632812 -11.910156 1.957031 -12.273438 2.375 -12.609375 C 2.789062 -12.941406 3.25 -13.207031 3.75 -13.40625 C 4.257812 -13.613281 4.757812 -13.71875 5.25 -13.71875 C 6.070312 -13.71875 6.78125 -13.554688 7.375 -13.234375 C 7.976562 -12.921875 8.441406 -12.476562 8.765625 -11.90625 C 9.097656 -11.332031 9.265625 -10.65625 9.265625 -9.875 C 9.265625 -9.195312 9.054688 -8.460938 8.640625 -7.671875 C 8.222656 -6.878906 7.601562 -6.03125 6.78125 -5.125 L 3.015625 -0.890625 L 2.8125 -1.125 Z M 9.15625 -1.125 "/></g></g></g><g fill="#201f1f" fill-opacity="1"><g transform="translate(11.320216, 19.03113)"><g><path d="M 7.09375 0 C 6.925781 0 6.789062 -0.0546875 6.6875 -0.171875 C 6.582031 -0.285156 6.53125 -0.421875 6.53125 -0.578125 L 6.53125 -11.921875 L 6.78125 -11.765625 L 1.703125 -5.046875 L 1.640625 -5.25 L 9.0625 -5.25 C 9.21875 -5.25 9.347656 -5.195312 9.453125 -5.09375 C 9.566406 -4.988281 9.625 -4.863281 9.625 -4.71875 C 9.625 -4.5625 9.566406 -4.429688 9.453125 -4.328125 C 9.347656 -4.222656 9.21875 -4.171875 9.0625 -4.171875 L 0.84375 -4.171875 C 0.695312 -4.171875 0.5625 -4.226562 0.4375 -4.34375 C 0.320312 -4.46875 0.265625 -4.609375 0.265625 -4.765625 C 0.265625 -4.910156 0.3125 -5.039062 0.40625 -5.15625 L 6.625 -13.28125 C 6.6875 -13.375 6.765625 -13.4375 6.859375 -13.46875 C 6.960938 -13.5 7.046875 -13.515625 7.109375 -13.515625 C 7.273438 -13.515625 7.410156 -13.457031 7.515625 -13.34375 C 7.628906 -13.226562 7.6875 -13.09375 7.6875 -12.9375 L 7.6875 -0.578125 C 7.6875 -0.421875 7.628906 -0.285156 7.515625 -0.171875 C 7.398438 -0.0546875 7.257812 0 7.09375 0 Z M 7.09375 0 "/></g></g></g></g></g><g clip-path="url(#ecb4b2301d)"><g transform="matrix(1, 0, 0, 1, 2, 600)"><g clip-path="url(#e2c423228e)"><g fill="#201f1f" fill-opacity="1"><g transform="translate(0.717264, 19.787607)"><g><path d="M 9.15625 -1.125 C 9.3125 -1.125 9.441406 -1.066406 9.546875 -0.953125 C 9.660156 -0.847656 9.71875 -0.71875 9.71875 -0.5625 C 9.71875 -0.394531 9.660156 -0.257812 9.546875 -0.15625 C 9.441406 -0.0507812 9.3125 0 9.15625 0 L 1.90625 0 C 1.738281 0 1.59375 -0.046875 1.46875 -0.140625 C 1.351562 -0.242188 1.296875 -0.390625 1.296875 -0.578125 C 1.296875 -0.722656 1.347656 -0.859375 1.453125 -0.984375 L 5.90625 -5.90625 C 6.613281 -6.675781 7.144531 -7.382812 7.5 -8.03125 C 7.851562 -8.6875 8.03125 -9.273438 8.03125 -9.796875 C 8.03125 -10.640625 7.769531 -11.316406 7.25 -11.828125 C 6.738281 -12.347656 6.046875 -12.609375 5.171875 -12.609375 C 4.773438 -12.609375 4.378906 -12.523438 3.984375 -12.359375 C 3.597656 -12.191406 3.25 -11.972656 2.9375 -11.703125 C 2.632812 -11.429688 2.398438 -11.125 2.234375 -10.78125 C 2.160156 -10.644531 2.082031 -10.550781 2 -10.5 C 1.914062 -10.445312 1.820312 -10.421875 1.71875 -10.421875 C 1.5625 -10.421875 1.425781 -10.46875 1.3125 -10.5625 C 1.195312 -10.664062 1.140625 -10.789062 1.140625 -10.9375 C 1.140625 -11.019531 1.160156 -11.109375 1.203125 -11.203125 C 1.253906 -11.296875 1.320312 -11.398438 1.40625 -11.515625 C 1.632812 -11.910156 1.957031 -12.273438 2.375 -12.609375 C 2.789062 -12.941406 3.25 -13.207031 3.75 -13.40625 C 4.257812 -13.613281 4.757812 -13.71875 5.25 -13.71875 C 6.070312 -13.71875 6.78125 -13.554688 7.375 -13.234375 C 7.976562 -12.921875 8.441406 -12.476562 8.765625 -11.90625 C 9.097656 -11.332031 9.265625 -10.65625 9.265625 -9.875 C 9.265625 -9.195312 9.054688 -8.460938 8.640625 -7.671875 C 8.222656 -6.878906 7.601562 -6.03125 6.78125 -5.125 L 3.015625 -0.890625 L 2.8125 -1.125 Z M 9.15625 -1.125 "/></g></g></g><g fill="#201f1f" fill-opacity="1"><g transform="translate(11.415698, 19.787607)"><g><path d="M 4.515625 0.03125 C 3.992188 0.03125 3.460938 -0.0507812 2.921875 -0.21875 C 2.390625 -0.394531 1.914062 -0.65625 1.5 -1 C 1.425781 -1.0625 1.363281 -1.140625 1.3125 -1.234375 C 1.269531 -1.328125 1.25 -1.414062 1.25 -1.5 C 1.25 -1.632812 1.300781 -1.757812 1.40625 -1.875 C 1.507812 -2 1.644531 -2.0625 1.8125 -2.0625 C 1.957031 -2.0625 2.097656 -2.003906 2.234375 -1.890625 C 2.578125 -1.628906 2.941406 -1.425781 3.328125 -1.28125 C 3.722656 -1.144531 4.117188 -1.078125 4.515625 -1.078125 C 5.273438 -1.078125 5.9375 -1.222656 6.5 -1.515625 C 7.070312 -1.804688 7.507812 -2.21875 7.8125 -2.75 C 8.125 -3.28125 8.28125 -3.898438 8.28125 -4.609375 C 8.28125 -5.265625 8.140625 -5.832031 7.859375 -6.3125 C 7.578125 -6.800781 7.175781 -7.179688 6.65625 -7.453125 C 6.132812 -7.734375 5.519531 -7.875 4.8125 -7.875 C 4.34375 -7.875 3.914062 -7.800781 3.53125 -7.65625 C 3.15625 -7.519531 2.828125 -7.378906 2.546875 -7.234375 C 2.273438 -7.085938 2.054688 -7.015625 1.890625 -7.015625 C 1.734375 -7.015625 1.609375 -7.050781 1.515625 -7.125 C 1.421875 -7.195312 1.359375 -7.289062 1.328125 -7.40625 C 1.296875 -7.53125 1.289062 -7.65625 1.3125 -7.78125 L 2.140625 -12.9375 C 2.148438 -13.050781 2.207031 -13.15625 2.3125 -13.25 C 2.425781 -13.351562 2.570312 -13.40625 2.75 -13.40625 L 8.5625 -13.40625 C 8.707031 -13.40625 8.832031 -13.347656 8.9375 -13.234375 C 9.050781 -13.128906 9.109375 -13 9.109375 -12.84375 C 9.109375 -12.675781 9.050781 -12.535156 8.9375 -12.421875 C 8.832031 -12.316406 8.707031 -12.265625 8.5625 -12.265625 L 3.015625 -12.265625 L 3.1875 -12.4375 L 2.390625 -7.859375 L 2.046875 -8.109375 C 2.210938 -8.234375 2.453125 -8.359375 2.765625 -8.484375 C 3.085938 -8.617188 3.441406 -8.734375 3.828125 -8.828125 C 4.222656 -8.929688 4.640625 -8.984375 5.078125 -8.984375 C 5.910156 -8.984375 6.65625 -8.796875 7.3125 -8.421875 C 7.96875 -8.054688 8.484375 -7.546875 8.859375 -6.890625 C 9.242188 -6.242188 9.4375 -5.5 9.4375 -4.65625 C 9.4375 -3.71875 9.234375 -2.894531 8.828125 -2.1875 C 8.429688 -1.488281 7.863281 -0.941406 7.125 -0.546875 C 6.394531 -0.160156 5.523438 0.03125 4.515625 0.03125 Z M 4.515625 0.03125 "/></g></g></g></g></g></g><g clip-path="url(#34fc7ca903)"><g transform="matrix(1, 0, 0, 1, 128, 600)"><g clip-path="url(#5c79839694)"><g fill="#201f1f" fill-opacity="1"><g transform="translate(0.534675, 19.795048)"><g><path d="M 9.203125 -1.125 C 9.359375 -1.125 9.488281 -1.066406 9.59375 -0.953125 C 9.707031 -0.847656 9.765625 -0.71875 9.765625 -0.5625 C 9.765625 -0.394531 9.707031 -0.257812 9.59375 -0.15625 C 9.488281 -0.0507812 9.359375 0 9.203125 0 L 1.921875 0 C 1.753906 0 1.609375 -0.046875 1.484375 -0.140625 C 1.359375 -0.242188 1.296875 -0.390625 1.296875 -0.578125 C 1.296875 -0.722656 1.347656 -0.859375 1.453125 -0.984375 L 5.9375 -5.9375 C 6.644531 -6.71875 7.175781 -7.429688 7.53125 -8.078125 C 7.894531 -8.734375 8.078125 -9.320312 8.078125 -9.84375 C 8.078125 -10.695312 7.816406 -11.378906 7.296875 -11.890625 C 6.773438 -12.410156 6.078125 -12.671875 5.203125 -12.671875 C 4.796875 -12.671875 4.394531 -12.585938 4 -12.421875 C 3.613281 -12.253906 3.265625 -12.035156 2.953125 -11.765625 C 2.648438 -11.492188 2.414062 -11.179688 2.25 -10.828125 C 2.175781 -10.703125 2.09375 -10.613281 2 -10.5625 C 1.914062 -10.507812 1.828125 -10.484375 1.734375 -10.484375 C 1.578125 -10.484375 1.4375 -10.53125 1.3125 -10.625 C 1.195312 -10.71875 1.140625 -10.835938 1.140625 -10.984375 C 1.140625 -11.078125 1.160156 -11.164062 1.203125 -11.25 C 1.253906 -11.34375 1.328125 -11.445312 1.421875 -11.5625 C 1.648438 -11.96875 1.972656 -12.335938 2.390625 -12.671875 C 2.804688 -13.003906 3.269531 -13.269531 3.78125 -13.46875 C 4.289062 -13.675781 4.789062 -13.78125 5.28125 -13.78125 C 6.101562 -13.78125 6.816406 -13.617188 7.421875 -13.296875 C 8.023438 -12.984375 8.488281 -12.535156 8.8125 -11.953125 C 9.144531 -11.378906 9.3125 -10.703125 9.3125 -9.921875 C 9.3125 -9.242188 9.097656 -8.503906 8.671875 -7.703125 C 8.253906 -6.910156 7.632812 -6.054688 6.8125 -5.140625 L 3.03125 -0.890625 L 2.828125 -1.125 Z M 9.203125 -1.125 "/></g></g></g><g fill="#201f1f" fill-opacity="1"><g transform="translate(11.278573, 19.795048)"><g><path d="M 5.5625 0.1875 C 4.8125 0.1875 4.15625 0.0507812 3.59375 -0.21875 C 3.03125 -0.488281 2.566406 -0.851562 2.203125 -1.3125 C 1.835938 -1.769531 1.566406 -2.289062 1.390625 -2.875 C 1.210938 -3.457031 1.125 -4.050781 1.125 -4.65625 C 1.125 -5.28125 1.203125 -5.953125 1.359375 -6.671875 C 1.515625 -7.390625 1.753906 -8.113281 2.078125 -8.84375 C 2.398438 -9.582031 2.796875 -10.28125 3.265625 -10.9375 C 3.742188 -11.601562 4.296875 -12.195312 4.921875 -12.71875 C 5.546875 -13.238281 6.253906 -13.648438 7.046875 -13.953125 C 7.140625 -13.972656 7.21875 -13.984375 7.28125 -13.984375 C 7.445312 -13.984375 7.585938 -13.9375 7.703125 -13.84375 C 7.828125 -13.757812 7.890625 -13.609375 7.890625 -13.390625 C 7.890625 -13.265625 7.847656 -13.148438 7.765625 -13.046875 C 7.679688 -12.953125 7.570312 -12.878906 7.4375 -12.828125 C 6.894531 -12.597656 6.359375 -12.269531 5.828125 -11.84375 C 5.296875 -11.414062 4.800781 -10.921875 4.34375 -10.359375 C 3.894531 -9.804688 3.507812 -9.207031 3.1875 -8.5625 C 2.875 -7.925781 2.648438 -7.28125 2.515625 -6.625 L 2.09375 -6.359375 C 2.320312 -6.785156 2.617188 -7.164062 2.984375 -7.5 C 3.359375 -7.832031 3.785156 -8.097656 4.265625 -8.296875 C 4.742188 -8.492188 5.265625 -8.59375 5.828125 -8.59375 C 6.398438 -8.59375 6.929688 -8.46875 7.421875 -8.21875 C 7.921875 -7.976562 8.347656 -7.644531 8.703125 -7.21875 C 9.054688 -6.800781 9.332031 -6.328125 9.53125 -5.796875 C 9.738281 -5.265625 9.84375 -4.71875 9.84375 -4.15625 C 9.84375 -3.394531 9.65625 -2.679688 9.28125 -2.015625 C 8.914062 -1.359375 8.410156 -0.828125 7.765625 -0.421875 C 7.128906 -0.015625 6.394531 0.1875 5.5625 0.1875 Z M 5.546875 -0.9375 C 6.140625 -0.9375 6.671875 -1.070312 7.140625 -1.34375 C 7.609375 -1.613281 7.972656 -1.988281 8.234375 -2.46875 C 8.503906 -2.957031 8.640625 -3.519531 8.640625 -4.15625 C 8.640625 -4.738281 8.523438 -5.273438 8.296875 -5.765625 C 8.066406 -6.265625 7.726562 -6.671875 7.28125 -6.984375 C 6.84375 -7.304688 6.289062 -7.46875 5.625 -7.46875 C 4.9375 -7.46875 4.34375 -7.3125 3.84375 -7 C 3.351562 -6.695312 2.972656 -6.285156 2.703125 -5.765625 C 2.441406 -5.253906 2.3125 -4.695312 2.3125 -4.09375 C 2.3125 -3.550781 2.4375 -3.035156 2.6875 -2.546875 C 2.945312 -2.066406 3.320312 -1.675781 3.8125 -1.375 C 4.300781 -1.082031 4.878906 -0.9375 5.546875 -0.9375 Z M 5.546875 -0.9375 "/></g></g></g></g></g></g><g clip-path="url(#3d24c0b526)"><g transform="matrix(1, 0, 0, 1, 254, 600)"><g clip-path="url(#555becdea6)"><g fill="#201f1f" fill-opacity="1"><g transform="translate(0.35209, 19.787607)"><g><path d="M 9.15625 -1.125 C 9.3125 -1.125 9.441406 -1.066406 9.546875 -0.953125 C 9.660156 -0.847656 9.71875 -0.71875 9.71875 -0.5625 C 9.71875 -0.394531 9.660156 -0.257812 9.546875 -0.15625 C 9.441406 -0.0507812 9.3125 0 9.15625 0 L 1.90625 0 C 1.738281 0 1.59375 -0.046875 1.46875 -0.140625 C 1.351562 -0.242188 1.296875 -0.390625 1.296875 -0.578125 C 1.296875 -0.722656 1.347656 -0.859375 1.453125 -0.984375 L 5.90625 -5.90625 C 6.613281 -6.675781 7.144531 -7.382812 7.5 -8.03125 C 7.851562 -8.6875 8.03125 -9.273438 8.03125 -9.796875 C 8.03125 -10.640625 7.769531 -11.316406 7.25 -11.828125 C 6.738281 -12.347656 6.046875 -12.609375 5.171875 -12.609375 C 4.773438 -12.609375 4.378906 -12.523438 3.984375 -12.359375 C 3.597656 -12.191406 3.25 -11.972656 2.9375 -11.703125 C 2.632812 -11.429688 2.398438 -11.125 2.234375 -10.78125 C 2.160156 -10.644531 2.082031 -10.550781 2 -10.5 C 1.914062 -10.445312 1.820312 -10.421875 1.71875 -10.421875 C 1.5625 -10.421875 1.425781 -10.46875 1.3125 -10.5625 C 1.195312 -10.664062 1.140625 -10.789062 1.140625 -10.9375 C 1.140625 -11.019531 1.160156 -11.109375 1.203125 -11.203125 C 1.253906 -11.296875 1.320312 -11.398438 1.40625 -11.515625 C 1.632812 -11.910156 1.957031 -12.273438 2.375 -12.609375 C 2.789062 -12.941406 3.25 -13.207031 3.75 -13.40625 C 4.257812 -13.613281 4.757812 -13.71875 5.25 -13.71875 C 6.070312 -13.71875 6.78125 -13.554688 7.375 -13.234375 C 7.976562 -12.921875 8.441406 -12.476562 8.765625 -11.90625 C 9.097656 -11.332031 9.265625 -10.65625 9.265625 -9.875 C 9.265625 -9.195312 9.054688 -8.460938 8.640625 -7.671875 C 8.222656 -6.878906 7.601562 -6.03125 6.78125 -5.125 L 3.015625 -0.890625 L 2.8125 -1.125 Z M 9.15625 -1.125 "/></g></g></g><g fill="#201f1f" fill-opacity="1"><g transform="translate(11.050524, 19.787607)"><g><path d="M 3.4375 0.0625 C 3.28125 0.0625 3.132812 0.0078125 3 -0.09375 C 2.875 -0.195312 2.8125 -0.328125 2.8125 -0.484375 C 2.8125 -0.578125 2.832031 -0.671875 2.875 -0.765625 L 8.015625 -12.578125 L 8.234375 -12.296875 L 1.703125 -12.296875 C 1.546875 -12.296875 1.410156 -12.347656 1.296875 -12.453125 C 1.191406 -12.566406 1.140625 -12.703125 1.140625 -12.859375 C 1.140625 -13.023438 1.191406 -13.160156 1.296875 -13.265625 C 1.410156 -13.367188 1.546875 -13.421875 1.703125 -13.421875 L 8.78125 -13.421875 C 8.976562 -13.421875 9.117188 -13.367188 9.203125 -13.265625 C 9.296875 -13.160156 9.34375 -13.03125 9.34375 -12.875 C 9.34375 -12.78125 9.328125 -12.6875 9.296875 -12.59375 L 3.984375 -0.328125 C 3.941406 -0.210938 3.867188 -0.117188 3.765625 -0.046875 C 3.660156 0.0234375 3.550781 0.0625 3.4375 0.0625 Z M 3.4375 0.0625 "/></g></g></g></g></g></g><g clip-path="url(#8d7a7c9844)"><g transform="matrix(1, 0, 0, 1, 380, 600)"><g clip-path="url(#ac7eaa05d3)"><g fill="#201f1f" fill-opacity="1"><g transform="translate(0.169535, 19.787607)"><g><path d="M 9.15625 -1.125 C 9.3125 -1.125 9.441406 -1.066406 9.546875 -0.953125 C 9.660156 -0.847656 9.71875 -0.71875 9.71875 -0.5625 C 9.71875 -0.394531 9.660156 -0.257812 9.546875 -0.15625 C 9.441406 -0.0507812 9.3125 0 9.15625 0 L 1.90625 0 C 1.738281 0 1.59375 -0.046875 1.46875 -0.140625 C 1.351562 -0.242188 1.296875 -0.390625 1.296875 -0.578125 C 1.296875 -0.722656 1.347656 -0.859375 1.453125 -0.984375 L 5.90625 -5.90625 C 6.613281 -6.675781 7.144531 -7.382812 7.5 -8.03125 C 7.851562 -8.6875 8.03125 -9.273438 8.03125 -9.796875 C 8.03125 -10.640625 7.769531 -11.316406 7.25 -11.828125 C 6.738281 -12.347656 6.046875 -12.609375 5.171875 -12.609375 C 4.773438 -12.609375 4.378906 -12.523438 3.984375 -12.359375 C 3.597656 -12.191406 3.25 -11.972656 2.9375 -11.703125 C 2.632812 -11.429688 2.398438 -11.125 2.234375 -10.78125 C 2.160156 -10.644531 2.082031 -10.550781 2 -10.5 C 1.914062 -10.445312 1.820312 -10.421875 1.71875 -10.421875 C 1.5625 -10.421875 1.425781 -10.46875 1.3125 -10.5625 C 1.195312 -10.664062 1.140625 -10.789062 1.140625 -10.9375 C 1.140625 -11.019531 1.160156 -11.109375 1.203125 -11.203125 C 1.253906 -11.296875 1.320312 -11.398438 1.40625 -11.515625 C 1.632812 -11.910156 1.957031 -12.273438 2.375 -12.609375 C 2.789062 -12.941406 3.25 -13.207031 3.75 -13.40625 C 4.257812 -13.613281 4.757812 -13.71875 5.25 -13.71875 C 6.070312 -13.71875 6.78125 -13.554688 7.375 -13.234375 C 7.976562 -12.921875 8.441406 -12.476562 8.765625 -11.90625 C 9.097656 -11.332031 9.265625 -10.65625 9.265625 -9.875 C 9.265625 -9.195312 9.054688 -8.460938 8.640625 -7.671875 C 8.222656 -6.878906 7.601562 -6.03125 6.78125 -5.125 L 3.015625 -0.890625 L 2.8125 -1.125 Z M 9.15625 -1.125 "/></g></g></g><g fill="#201f1f" fill-opacity="1"><g transform="translate(10.867969, 19.787607)"><g><path d="M 7.03125 -6.796875 L 6.96875 -6.96875 C 7.40625 -6.800781 7.800781 -6.550781 8.15625 -6.21875 C 8.519531 -5.894531 8.8125 -5.507812 9.03125 -5.0625 C 9.25 -4.625 9.359375 -4.140625 9.359375 -3.609375 C 9.359375 -2.910156 9.175781 -2.28125 8.8125 -1.71875 C 8.445312 -1.15625 7.945312 -0.703125 7.3125 -0.359375 C 6.6875 -0.0234375 5.988281 0.140625 5.21875 0.140625 C 4.425781 0.140625 3.71875 -0.0234375 3.09375 -0.359375 C 2.46875 -0.703125 1.972656 -1.15625 1.609375 -1.71875 C 1.242188 -2.28125 1.0625 -2.910156 1.0625 -3.609375 C 1.0625 -4.179688 1.171875 -4.6875 1.390625 -5.125 C 1.617188 -5.570312 1.914062 -5.945312 2.28125 -6.25 C 2.65625 -6.5625 3.039062 -6.800781 3.4375 -6.96875 L 3.375 -6.78125 C 3.03125 -6.945312 2.707031 -7.175781 2.40625 -7.46875 C 2.101562 -7.757812 1.851562 -8.101562 1.65625 -8.5 C 1.46875 -8.90625 1.375 -9.351562 1.375 -9.84375 C 1.375 -10.539062 1.539062 -11.164062 1.875 -11.71875 C 2.21875 -12.269531 2.679688 -12.707031 3.265625 -13.03125 C 3.859375 -13.351562 4.507812 -13.515625 5.21875 -13.515625 C 5.925781 -13.515625 6.566406 -13.351562 7.140625 -13.03125 C 7.710938 -12.707031 8.164062 -12.269531 8.5 -11.71875 C 8.84375 -11.164062 9.015625 -10.539062 9.015625 -9.84375 C 9.015625 -9.34375 8.914062 -8.894531 8.71875 -8.5 C 8.53125 -8.101562 8.28125 -7.757812 7.96875 -7.46875 C 7.664062 -7.175781 7.351562 -6.953125 7.03125 -6.796875 Z M 2.5625 -9.84375 C 2.5625 -9.332031 2.679688 -8.882812 2.921875 -8.5 C 3.171875 -8.113281 3.492188 -7.8125 3.890625 -7.59375 C 4.296875 -7.375 4.738281 -7.265625 5.21875 -7.265625 C 5.675781 -7.265625 6.101562 -7.375 6.5 -7.59375 C 6.90625 -7.8125 7.226562 -8.113281 7.46875 -8.5 C 7.707031 -8.882812 7.828125 -9.332031 7.828125 -9.84375 C 7.828125 -10.601562 7.582031 -11.222656 7.09375 -11.703125 C 6.601562 -12.179688 5.976562 -12.421875 5.21875 -12.421875 C 4.425781 -12.421875 3.785156 -12.179688 3.296875 -11.703125 C 2.804688 -11.222656 2.5625 -10.601562 2.5625 -9.84375 Z M 5.21875 -0.96875 C 6.09375 -0.96875 6.800781 -1.21875 7.34375 -1.71875 C 7.894531 -2.21875 8.171875 -2.847656 8.171875 -3.609375 C 8.171875 -4.128906 8.035156 -4.59375 7.765625 -5 C 7.492188 -5.414062 7.128906 -5.738281 6.671875 -5.96875 C 6.222656 -6.195312 5.738281 -6.3125 5.21875 -6.3125 C 4.6875 -6.3125 4.195312 -6.195312 3.75 -5.96875 C 3.300781 -5.738281 2.941406 -5.414062 2.671875 -5 C 2.398438 -4.59375 2.265625 -4.128906 2.265625 -3.609375 C 2.265625 -2.847656 2.53125 -2.21875 3.0625 -1.71875 C 3.601562 -1.21875 4.320312 -0.96875 5.21875 -0.96875 Z M 5.21875 -0.96875 "/></g></g></g></g></g></g><g clip-path="url(#a45214edc9)"><g transform="matrix(1, 0, 0, 1, 505, 600)"><g clip-path="url(#1448c88764)"><g fill="#201f1f" fill-opacity="1"><g transform="translate(0.986951, 19.787607)"><g><path d="M 9.15625 -1.125 C 9.3125 -1.125 9.441406 -1.066406 9.546875 -0.953125 C 9.660156 -0.847656 9.71875 -0.71875 9.71875 -0.5625 C 9.71875 -0.394531 9.660156 -0.257812 9.546875 -0.15625 C 9.441406 -0.0507812 9.3125 0 9.15625 0 L 1.90625 0 C 1.738281 0 1.59375 -0.046875 1.46875 -0.140625 C 1.351562 -0.242188 1.296875 -0.390625 1.296875 -0.578125 C 1.296875 -0.722656 1.347656 -0.859375 1.453125 -0.984375 L 5.90625 -5.90625 C 6.613281 -6.675781 7.144531 -7.382812 7.5 -8.03125 C 7.851562 -8.6875 8.03125 -9.273438 8.03125 -9.796875 C 8.03125 -10.640625 7.769531 -11.316406 7.25 -11.828125 C 6.738281 -12.347656 6.046875 -12.609375 5.171875 -12.609375 C 4.773438 -12.609375 4.378906 -12.523438 3.984375 -12.359375 C 3.597656 -12.191406 3.25 -11.972656 2.9375 -11.703125 C 2.632812 -11.429688 2.398438 -11.125 2.234375 -10.78125 C 2.160156 -10.644531 2.082031 -10.550781 2 -10.5 C 1.914062 -10.445312 1.820312 -10.421875 1.71875 -10.421875 C 1.5625 -10.421875 1.425781 -10.46875 1.3125 -10.5625 C 1.195312 -10.664062 1.140625 -10.789062 1.140625 -10.9375 C 1.140625 -11.019531 1.160156 -11.109375 1.203125 -11.203125 C 1.253906 -11.296875 1.320312 -11.398438 1.40625 -11.515625 C 1.632812 -11.910156 1.957031 -12.273438 2.375 -12.609375 C 2.789062 -12.941406 3.25 -13.207031 3.75 -13.40625 C 4.257812 -13.613281 4.757812 -13.71875 5.25 -13.71875 C 6.070312 -13.71875 6.78125 -13.554688 7.375 -13.234375 C 7.976562 -12.921875 8.441406 -12.476562 8.765625 -11.90625 C 9.097656 -11.332031 9.265625 -10.65625 9.265625 -9.875 C 9.265625 -9.195312 9.054688 -8.460938 8.640625 -7.671875 C 8.222656 -6.878906 7.601562 -6.03125 6.78125 -5.125 L 3.015625 -0.890625 L 2.8125 -1.125 Z M 9.15625 -1.125 "/></g></g></g><g fill="#201f1f" fill-opacity="1"><g transform="translate(11.685385, 19.787607)"><g><path d="M 5.34375 -13.734375 C 6.101562 -13.734375 6.765625 -13.597656 7.328125 -13.328125 C 7.890625 -13.054688 8.347656 -12.691406 8.703125 -12.234375 C 9.066406 -11.773438 9.335938 -11.253906 9.515625 -10.671875 C 9.703125 -10.097656 9.796875 -9.507812 9.796875 -8.90625 C 9.796875 -8.28125 9.710938 -7.617188 9.546875 -6.921875 C 9.390625 -6.222656 9.148438 -5.515625 8.828125 -4.796875 C 8.515625 -4.085938 8.125 -3.410156 7.65625 -2.765625 C 7.1875 -2.117188 6.632812 -1.535156 6 -1.015625 C 5.375 -0.503906 4.675781 -0.109375 3.90625 0.171875 C 3.800781 0.203125 3.71875 0.21875 3.65625 0.21875 C 3.5 0.21875 3.359375 0.160156 3.234375 0.046875 C 3.109375 -0.0546875 3.046875 -0.203125 3.046875 -0.390625 C 3.046875 -0.515625 3.082031 -0.625 3.15625 -0.71875 C 3.238281 -0.820312 3.359375 -0.898438 3.515625 -0.953125 C 4.242188 -1.253906 4.945312 -1.710938 5.625 -2.328125 C 6.3125 -2.941406 6.90625 -3.648438 7.40625 -4.453125 C 7.90625 -5.253906 8.238281 -6.085938 8.40625 -6.953125 L 8.8125 -7.203125 C 8.59375 -6.785156 8.296875 -6.410156 7.921875 -6.078125 C 7.546875 -5.742188 7.125 -5.484375 6.65625 -5.296875 C 6.1875 -5.109375 5.675781 -5.015625 5.125 -5.015625 C 4.289062 -5.015625 3.570312 -5.21875 2.96875 -5.625 C 2.375 -6.03125 1.914062 -6.566406 1.59375 -7.234375 C 1.28125 -7.910156 1.125 -8.632812 1.125 -9.40625 C 1.125 -10.164062 1.304688 -10.875 1.671875 -11.53125 C 2.035156 -12.1875 2.535156 -12.71875 3.171875 -13.125 C 3.816406 -13.53125 4.539062 -13.734375 5.34375 -13.734375 Z M 5.390625 -12.609375 C 4.785156 -12.609375 4.25 -12.472656 3.78125 -12.203125 C 3.320312 -11.929688 2.957031 -11.550781 2.6875 -11.0625 C 2.425781 -10.582031 2.296875 -10.03125 2.296875 -9.40625 C 2.296875 -8.84375 2.40625 -8.304688 2.625 -7.796875 C 2.851562 -7.296875 3.191406 -6.894531 3.640625 -6.59375 C 4.097656 -6.289062 4.648438 -6.140625 5.296875 -6.140625 C 5.984375 -6.140625 6.570312 -6.289062 7.0625 -6.59375 C 7.550781 -6.894531 7.929688 -7.296875 8.203125 -7.796875 C 8.472656 -8.304688 8.609375 -8.863281 8.609375 -9.46875 C 8.609375 -10.019531 8.476562 -10.53125 8.21875 -11 C 7.96875 -11.476562 7.601562 -11.863281 7.125 -12.15625 C 6.644531 -12.457031 6.066406 -12.609375 5.390625 -12.609375 Z M 5.390625 -12.609375 "/></g></g></g></g></g></g><g clip-path="url(#68452e4a9e)"><g transform="matrix(1, 0, 0, 1, 631, 600)"><g clip-path="url(#5e52067620)"><g fill="#201f1f" fill-opacity="1"><g transform="translate(0.804367, 19.787607)"><g><path d="M 1.71875 -1.984375 C 1.78125 -1.984375 1.847656 -1.96875 1.921875 -1.9375 C 1.992188 -1.914062 2.082031 -1.863281 2.1875 -1.78125 C 2.457031 -1.5 2.773438 -1.28125 3.140625 -1.125 C 3.515625 -0.976562 3.941406 -0.90625 4.421875 -0.90625 C 5.054688 -0.90625 5.632812 -1.046875 6.15625 -1.328125 C 6.675781 -1.609375 7.085938 -2.003906 7.390625 -2.515625 C 7.703125 -3.023438 7.859375 -3.609375 7.859375 -4.265625 C 7.859375 -5.015625 7.691406 -5.617188 7.359375 -6.078125 C 7.035156 -6.535156 6.617188 -6.875 6.109375 -7.09375 C 5.597656 -7.320312 5.082031 -7.4375 4.5625 -7.4375 C 4.414062 -7.4375 4.273438 -7.425781 4.140625 -7.40625 C 4.003906 -7.382812 3.878906 -7.359375 3.765625 -7.328125 C 3.648438 -7.304688 3.5625 -7.296875 3.5 -7.296875 C 3.332031 -7.296875 3.203125 -7.347656 3.109375 -7.453125 C 3.015625 -7.566406 2.96875 -7.707031 2.96875 -7.875 C 2.96875 -7.96875 2.988281 -8.050781 3.03125 -8.125 C 3.070312 -8.195312 3.125 -8.273438 3.1875 -8.359375 L 7.109375 -12.625 L 7.34375 -12.328125 L 1.484375 -12.328125 C 1.328125 -12.328125 1.191406 -12.378906 1.078125 -12.484375 C 0.972656 -12.597656 0.921875 -12.726562 0.921875 -12.875 C 0.921875 -13.03125 0.972656 -13.160156 1.078125 -13.265625 C 1.191406 -13.367188 1.328125 -13.421875 1.484375 -13.421875 L 7.96875 -13.421875 C 8.1875 -13.421875 8.34375 -13.351562 8.4375 -13.21875 C 8.53125 -13.082031 8.578125 -12.953125 8.578125 -12.828125 C 8.578125 -12.742188 8.554688 -12.664062 8.515625 -12.59375 C 8.472656 -12.53125 8.421875 -12.457031 8.359375 -12.375 L 4.4375 -8.109375 L 4.015625 -8.359375 C 4.054688 -8.398438 4.1875 -8.441406 4.40625 -8.484375 C 4.632812 -8.535156 4.8125 -8.5625 4.9375 -8.5625 C 5.644531 -8.5625 6.3125 -8.390625 6.9375 -8.046875 C 7.5625 -7.710938 8.070312 -7.234375 8.46875 -6.609375 C 8.863281 -5.984375 9.0625 -5.21875 9.0625 -4.3125 C 9.0625 -3.40625 8.847656 -2.613281 8.421875 -1.9375 C 7.992188 -1.257812 7.421875 -0.734375 6.703125 -0.359375 C 5.984375 0.00390625 5.1875 0.1875 4.3125 0.1875 C 3.78125 0.1875 3.253906 0.0976562 2.734375 -0.078125 C 2.222656 -0.253906 1.773438 -0.523438 1.390625 -0.890625 C 1.296875 -0.960938 1.226562 -1.035156 1.1875 -1.109375 C 1.15625 -1.191406 1.140625 -1.273438 1.140625 -1.359375 C 1.140625 -1.503906 1.191406 -1.644531 1.296875 -1.78125 C 1.410156 -1.914062 1.550781 -1.984375 1.71875 -1.984375 Z M 1.71875 -1.984375 "/></g></g></g><g fill="#201f1f" fill-opacity="1"><g transform="translate(10.923468, 19.787607)"><g><path d="M 5.734375 0.1875 C 4.703125 0.1875 3.835938 -0.117188 3.140625 -0.734375 C 2.453125 -1.347656 1.929688 -2.179688 1.578125 -3.234375 C 1.234375 -4.285156 1.0625 -5.460938 1.0625 -6.765625 C 1.0625 -8.078125 1.234375 -9.253906 1.578125 -10.296875 C 1.929688 -11.347656 2.453125 -12.179688 3.140625 -12.796875 C 3.835938 -13.410156 4.703125 -13.71875 5.734375 -13.71875 C 6.785156 -13.71875 7.65625 -13.410156 8.34375 -12.796875 C 9.039062 -12.179688 9.5625 -11.347656 9.90625 -10.296875 C 10.25 -9.253906 10.421875 -8.078125 10.421875 -6.765625 C 10.421875 -5.460938 10.25 -4.285156 9.90625 -3.234375 C 9.5625 -2.179688 9.039062 -1.347656 8.34375 -0.734375 C 7.65625 -0.117188 6.785156 0.1875 5.734375 0.1875 Z M 5.734375 -1 C 6.492188 -1 7.128906 -1.238281 7.640625 -1.71875 C 8.148438 -2.195312 8.535156 -2.867188 8.796875 -3.734375 C 9.054688 -4.609375 9.1875 -5.617188 9.1875 -6.765625 C 9.1875 -7.921875 9.054688 -8.929688 8.796875 -9.796875 C 8.535156 -10.671875 8.148438 -11.34375 7.640625 -11.8125 C 7.128906 -12.289062 6.492188 -12.53125 5.734375 -12.53125 C 4.984375 -12.53125 4.351562 -12.289062 3.84375 -11.8125 C 3.34375 -11.34375 2.957031 -10.671875 2.6875 -9.796875 C 2.425781 -8.929688 2.296875 -7.921875 2.296875 -6.765625 C 2.296875 -5.617188 2.425781 -4.609375 2.6875 -3.734375 C 2.957031 -2.867188 3.34375 -2.195312 3.84375 -1.71875 C 4.351562 -1.238281 4.984375 -1 5.734375 -1 Z M 5.734375 -1 "/></g></g></g></g></g></g><g clip-path="url(#4231a6de74)"><g transform="matrix(1, 0, 0, 1, 757, 600)"><g clip-path="url(#c3f2450d6f)"><g fill="#201f1f" fill-opacity="1"><g transform="translate(0.621783, 19.787607)"><g><path d="M 1.71875 -1.984375 C 1.78125 -1.984375 1.847656 -1.96875 1.921875 -1.9375 C 1.992188 -1.914062 2.082031 -1.863281 2.1875 -1.78125 C 2.457031 -1.5 2.773438 -1.28125 3.140625 -1.125 C 3.515625 -0.976562 3.941406 -0.90625 4.421875 -0.90625 C 5.054688 -0.90625 5.632812 -1.046875 6.15625 -1.328125 C 6.675781 -1.609375 7.085938 -2.003906 7.390625 -2.515625 C 7.703125 -3.023438 7.859375 -3.609375 7.859375 -4.265625 C 7.859375 -5.015625 7.691406 -5.617188 7.359375 -6.078125 C 7.035156 -6.535156 6.617188 -6.875 6.109375 -7.09375 C 5.597656 -7.320312 5.082031 -7.4375 4.5625 -7.4375 C 4.414062 -7.4375 4.273438 -7.425781 4.140625 -7.40625 C 4.003906 -7.382812 3.878906 -7.359375 3.765625 -7.328125 C 3.648438 -7.304688 3.5625 -7.296875 3.5 -7.296875 C 3.332031 -7.296875 3.203125 -7.347656 3.109375 -7.453125 C 3.015625 -7.566406 2.96875 -7.707031 2.96875 -7.875 C 2.96875 -7.96875 2.988281 -8.050781 3.03125 -8.125 C 3.070312 -8.195312 3.125 -8.273438 3.1875 -8.359375 L 7.109375 -12.625 L 7.34375 -12.328125 L 1.484375 -12.328125 C 1.328125 -12.328125 1.191406 -12.378906 1.078125 -12.484375 C 0.972656 -12.597656 0.921875 -12.726562 0.921875 -12.875 C 0.921875 -13.03125 0.972656 -13.160156 1.078125 -13.265625 C 1.191406 -13.367188 1.328125 -13.421875 1.484375 -13.421875 L 7.96875 -13.421875 C 8.1875 -13.421875 8.34375 -13.351562 8.4375 -13.21875 C 8.53125 -13.082031 8.578125 -12.953125 8.578125 -12.828125 C 8.578125 -12.742188 8.554688 -12.664062 8.515625 -12.59375 C 8.472656 -12.53125 8.421875 -12.457031 8.359375 -12.375 L 4.4375 -8.109375 L 4.015625 -8.359375 C 4.054688 -8.398438 4.1875 -8.441406 4.40625 -8.484375 C 4.632812 -8.535156 4.8125 -8.5625 4.9375 -8.5625 C 5.644531 -8.5625 6.3125 -8.390625 6.9375 -8.046875 C 7.5625 -7.710938 8.070312 -7.234375 8.46875 -6.609375 C 8.863281 -5.984375 9.0625 -5.21875 9.0625 -4.3125 C 9.0625 -3.40625 8.847656 -2.613281 8.421875 -1.9375 C 7.992188 -1.257812 7.421875 -0.734375 6.703125 -0.359375 C 5.984375 0.00390625 5.1875 0.1875 4.3125 0.1875 C 3.78125 0.1875 3.253906 0.0976562 2.734375 -0.078125 C 2.222656 -0.253906 1.773438 -0.523438 1.390625 -0.890625 C 1.296875 -0.960938 1.226562 -1.035156 1.1875 -1.109375 C 1.15625 -1.191406 1.140625 -1.273438 1.140625 -1.359375 C 1.140625 -1.503906 1.191406 -1.644531 1.296875 -1.78125 C 1.410156 -1.914062 1.550781 -1.984375 1.71875 -1.984375 Z M 1.71875 -1.984375 "/></g></g></g><g fill="#201f1f" fill-opacity="1"><g transform="translate(10.740883, 19.787607)"><g><path d="M 4.359375 0 C 4.179688 0 4.035156 -0.0546875 3.921875 -0.171875 C 3.804688 -0.285156 3.75 -0.421875 3.75 -0.578125 L 3.75 -12.203125 L 3.953125 -12.015625 L 1.390625 -10.296875 C 1.285156 -10.210938 1.175781 -10.171875 1.0625 -10.171875 C 0.90625 -10.171875 0.765625 -10.234375 0.640625 -10.359375 C 0.523438 -10.492188 0.46875 -10.640625 0.46875 -10.796875 C 0.46875 -11.003906 0.566406 -11.164062 0.765625 -11.28125 L 4 -13.421875 C 4.070312 -13.472656 4.148438 -13.503906 4.234375 -13.515625 C 4.316406 -13.523438 4.394531 -13.523438 4.46875 -13.515625 C 4.632812 -13.503906 4.757812 -13.441406 4.84375 -13.328125 C 4.9375 -13.222656 4.984375 -13.09375 4.984375 -12.9375 L 4.984375 -0.578125 C 4.984375 -0.421875 4.925781 -0.285156 4.8125 -0.171875 C 4.695312 -0.0546875 4.546875 0 4.359375 0 Z M 4.359375 0 "/></g></g></g></g></g></g><path stroke-linecap="butt" transform="matrix(0.75, 0, 0, 0.75, 0.0000031164, 0.00002)" fill-opacity="1" fill="#000000" fill-rule="nonzero" stroke-linejoin="miter" d="M 0.812496 1.624973 L 0.812496 998.375022 M 168.567712 1.624973 L 168.567712 998.375022 M 336.322929 1.624973 L 336.322929 998.375022 M 504.083354 1.624973 L 504.083354 998.375022 M 671.83857 1.624973 L 671.83857 998.375022 M 839.593787 1.624973 L 839.593787 998.375022 M 1007.349003 1.624973 L 1007.349003 998.375022 M 1175.109428 1.624973 L 1175.109428 998.375022 M -0.0000041552 0.812473 L 1175.91672 0.812473 M -0.0000041552 200.484358 L 1175.91672 200.484358 M -0.0000041552 400.161451 L 1175.91672 400.161451 M -0.0000041552 599.838544 L 1175.91672 599.838544 M -0.0000041552 799.515637 L 1175.91672 799.515637 M -0.0000041552 999.187522 L 1175.91672 999.187522 " stroke="#000000" stroke-width="1.623015" stroke-opacity="1" stroke-miterlimit="4"/></svg>