<svg xmlns="http://www.w3.org/2000/svg" xmlns:xlink="http://www.w3.org/1999/xlink" width="600" zoomAndPan="magnify" viewBox="0 0 450 299.999988" height="400" preserveAspectRatio="xMidYMid meet" version="1.0"><defs><g/><clipPath id="68db9bbd89"><path d="M 0.046875 56.628906 L 23 56.628906 L 23 80 L 0.046875 80 Z M 0.046875 56.628906 " clip-rule="nonzero"/></clipPath><clipPath id="60ca761329"><path d="M 0.046875 195 L 23 195 L 23 219 L 0.046875 219 Z M 0.046875 195 " clip-rule="nonzero"/></clipPath><clipPath id="eb56efbe02"><path d="M 0.046875 91 L 23 91 L 23 115 L 0.046875 115 Z M 0.046875 91 " clip-rule="nonzero"/></clipPath><clipPath id="0c4f19effb"><path d="M 0.046875 125 L 23 125 L 23 150 L 0.046875 150 Z M 0.046875 125 " clip-rule="nonzero"/></clipPath><clipPath id="8949357892"><path d="M 0.046875 160 L 23 160 L 23 184 L 0.046875 184 Z M 0.046875 160 " clip-rule="nonzero"/></clipPath><clipPath id="be832d1306"><path d="M 0.046875 229 L 23 229 L 23 253.023438 L 0.046875 253.023438 Z M 0.046875 229 " clip-rule="nonzero"/></clipPath><clipPath id="edd1c086cf"><path d="M 31 251 L 191 251 L 191 253.023438 L 31 253.023438 Z M 31 251 " clip-rule="nonzero"/></clipPath><clipPath id="45a713cbec"><rect x="0" width="192" y="0" height="254"/></clipPath></defs><g transform="matrix(1, 0, 0, 1, 119, 28)"><g clip-path="url(#45a713cbec)"><g clip-path="url(#68db9bbd89)"><path fill="#1a1a1a" d="M 1.378906 56.628906 C 1.113281 56.628906 0.886719 56.722656 0.699219 56.910156 C 0.511719 57.097656 0.417969 57.324219 0.417969 57.589844 L 0.417969 78.769531 C 0.417969 79.035156 0.511719 79.261719 0.699219 79.449219 C 0.886719 79.636719 1.113281 79.730469 1.378906 79.730469 L 21.269531 79.730469 C 21.535156 79.730469 21.761719 79.636719 21.949219 79.449219 C 22.136719 79.261719 22.230469 79.035156 22.230469 78.769531 L 22.230469 57.589844 C 22.230469 57.324219 22.136719 57.097656 21.949219 56.910156 C 21.761719 56.722656 21.535156 56.628906 21.269531 56.628906 Z M 2.339844 58.550781 L 20.308594 58.550781 L 20.308594 77.808594 L 2.339844 77.808594 Z M 2.339844 58.550781 " fill-opacity="1" fill-rule="nonzero"/></g><path fill="#1a1a1a" d="M 31.183594 77.808594 L 31.183594 79.730469 L 190.960938 79.730469 L 190.960938 77.808594 Z M 31.183594 77.808594 " fill-opacity="1" fill-rule="nonzero"/><g clip-path="url(#60ca761329)"><path fill="#1a1a1a" d="M 1.378906 195.3125 C 1.113281 195.3125 0.886719 195.40625 0.699219 195.59375 C 0.511719 195.78125 0.417969 196.007812 0.417969 196.273438 L 0.417969 217.453125 C 0.417969 217.71875 0.511719 217.945312 0.699219 218.132812 C 0.886719 218.320312 1.113281 218.414062 1.378906 218.414062 L 21.269531 218.414062 C 21.535156 218.414062 21.761719 218.320312 21.949219 218.132812 C 22.136719 217.945312 22.230469 217.71875 22.230469 217.453125 L 22.230469 196.273438 C 22.230469 196.007812 22.136719 195.78125 21.949219 195.59375 C 21.761719 195.40625 21.535156 195.3125 21.269531 195.3125 Z M 2.339844 197.234375 L 20.308594 197.234375 L 20.308594 216.492188 L 2.339844 216.492188 Z M 2.339844 197.234375 " fill-opacity="1" fill-rule="nonzero"/></g><path fill="#1a1a1a" d="M 31.183594 216.492188 L 31.183594 218.414062 L 190.960938 218.414062 L 190.960938 216.492188 Z M 31.183594 216.492188 " fill-opacity="1" fill-rule="nonzero"/><g clip-path="url(#eb56efbe02)"><path fill="#1a1a1a" d="M 1.378906 91.300781 C 1.113281 91.300781 0.886719 91.394531 0.699219 91.582031 C 0.511719 91.769531 0.417969 91.996094 0.417969 92.261719 L 0.417969 113.441406 C 0.417969 113.707031 0.511719 113.933594 0.699219 114.121094 C 0.886719 114.308594 1.113281 114.402344 1.378906 114.402344 L 21.269531 114.402344 C 21.535156 114.402344 21.761719 114.308594 21.949219 114.121094 C 22.136719 113.933594 22.230469 113.707031 22.230469 113.441406 L 22.230469 92.261719 C 22.230469 91.996094 22.136719 91.769531 21.949219 91.582031 C 21.761719 91.394531 21.535156 91.300781 21.269531 91.300781 Z M 2.339844 93.222656 L 20.308594 93.222656 L 20.308594 112.480469 L 2.339844 112.480469 Z M 2.339844 93.222656 " fill-opacity="1" fill-rule="nonzero"/></g><path fill="#1a1a1a" d="M 31.183594 112.480469 L 31.183594 114.402344 L 190.960938 114.402344 L 190.960938 112.480469 Z M 31.183594 112.480469 " fill-opacity="1" fill-rule="nonzero"/><g clip-path="url(#0c4f19effb)"><path fill="#1a1a1a" d="M 1.378906 125.96875 C 1.113281 125.96875 0.886719 126.0625 0.699219 126.253906 C 0.511719 126.441406 0.417969 126.667969 0.417969 126.929688 L 0.417969 148.113281 C 0.417969 148.378906 0.511719 148.605469 0.699219 148.792969 C 0.886719 148.980469 1.113281 149.074219 1.378906 149.074219 L 21.269531 149.074219 C 21.535156 149.074219 21.761719 148.980469 21.949219 148.792969 C 22.136719 148.605469 22.230469 148.378906 22.230469 148.113281 L 22.230469 126.929688 C 22.230469 126.667969 22.136719 126.441406 21.949219 126.253906 C 21.761719 126.0625 21.535156 125.96875 21.269531 125.96875 Z M 2.339844 127.890625 L 20.308594 127.890625 L 20.308594 147.152344 L 2.339844 147.152344 Z M 2.339844 127.890625 " fill-opacity="1" fill-rule="nonzero"/></g><path fill="#1a1a1a" d="M 31.183594 147.152344 L 31.183594 149.074219 L 190.960938 149.074219 L 190.960938 147.152344 Z M 31.183594 147.152344 " fill-opacity="1" fill-rule="nonzero"/><g clip-path="url(#8949357892)"><path fill="#1a1a1a" d="M 1.378906 160.640625 C 1.113281 160.640625 0.886719 160.734375 0.699219 160.921875 C 0.511719 161.109375 0.417969 161.335938 0.417969 161.601562 L 0.417969 182.78125 C 0.417969 183.046875 0.511719 183.273438 0.699219 183.460938 C 0.886719 183.648438 1.113281 183.742188 1.378906 183.742188 L 21.269531 183.742188 C 21.535156 183.742188 21.761719 183.648438 21.949219 183.460938 C 22.136719 183.273438 22.230469 183.046875 22.230469 182.78125 L 22.230469 161.601562 C 22.230469 161.335938 22.136719 161.109375 21.949219 160.921875 C 21.761719 160.734375 21.535156 160.640625 21.269531 160.640625 Z M 2.339844 162.5625 L 20.308594 162.5625 L 20.308594 181.820312 L 2.339844 181.820312 Z M 2.339844 162.5625 " fill-opacity="1" fill-rule="nonzero"/></g><path fill="#1a1a1a" d="M 31.183594 181.820312 L 31.183594 183.742188 L 190.960938 183.742188 L 190.960938 181.820312 Z M 31.183594 181.820312 " fill-opacity="1" fill-rule="nonzero"/><g clip-path="url(#be832d1306)"><path fill="#1a1a1a" d="M 1.378906 229.984375 C 1.113281 229.984375 0.886719 230.078125 0.699219 230.265625 C 0.511719 230.453125 0.417969 230.679688 0.417969 230.945312 L 0.417969 252.125 C 0.417969 252.390625 0.511719 252.617188 0.699219 252.804688 C 0.886719 252.992188 1.113281 253.085938 1.378906 253.085938 L 21.269531 253.085938 C 21.535156 253.085938 21.761719 252.992188 21.949219 252.804688 C 22.136719 252.617188 22.230469 252.390625 22.230469 252.125 L 22.230469 230.945312 C 22.230469 230.679688 22.136719 230.453125 21.949219 230.265625 C 21.761719 230.078125 21.535156 229.984375 21.269531 229.984375 Z M 2.339844 231.90625 L 20.308594 231.90625 L 20.308594 251.164062 L 2.339844 251.164062 Z M 2.339844 231.90625 " fill-opacity="1" fill-rule="nonzero"/></g><g clip-path="url(#edd1c086cf)"><path fill="#1a1a1a" d="M 31.183594 251.164062 L 31.183594 253.085938 L 190.960938 253.085938 L 190.960938 251.164062 Z M 31.183594 251.164062 " fill-opacity="1" fill-rule="nonzero"/></g><g fill="#000000" fill-opacity="1"><g transform="translate(0.0480193, 21.857056)"><g><path d="M 1.671875 0 L 1.671875 -15.203125 L 8.28125 -15.203125 C 9.75 -15.203125 10.929688 -14.800781 11.828125 -14 C 12.734375 -13.195312 13.1875 -12.132812 13.1875 -10.8125 C 13.1875 -9.5 12.734375 -8.4375 11.828125 -7.625 C 10.921875 -6.8125 9.738281 -6.40625 8.28125 -6.40625 L 3.34375 -6.40625 L 3.34375 0 Z M 8.140625 -13.703125 L 3.34375 -13.703125 L 3.34375 -7.859375 L 8.140625 -7.859375 C 9.171875 -7.859375 9.988281 -8.125 10.59375 -8.65625 C 11.207031 -9.1875 11.515625 -9.898438 11.515625 -10.796875 C 11.515625 -11.691406 11.207031 -12.398438 10.59375 -12.921875 C 9.988281 -13.441406 9.171875 -13.703125 8.140625 -13.703125 Z M 8.140625 -13.703125 "/></g></g></g><g fill="#000000" fill-opacity="1"><g transform="translate(14.102317, 21.857056)"><g><path d="M 1.671875 0 L 1.671875 -15.203125 L 8.1875 -15.203125 C 9.664062 -15.203125 10.859375 -14.800781 11.765625 -14 C 12.679688 -13.195312 13.140625 -12.144531 13.140625 -10.84375 C 13.140625 -9.84375 12.84375 -8.976562 12.25 -8.25 C 11.664062 -7.53125 10.882812 -7.03125 9.90625 -6.75 L 13.3125 0 L 11.46875 0 L 8.203125 -6.53125 L 3.34375 -6.53125 L 3.34375 0 Z M 8.078125 -13.703125 L 3.34375 -13.703125 L 3.34375 -7.953125 L 8.078125 -7.953125 C 9.085938 -7.953125 9.90625 -8.210938 10.53125 -8.734375 C 11.15625 -9.265625 11.46875 -9.96875 11.46875 -10.84375 C 11.46875 -11.707031 11.15625 -12.398438 10.53125 -12.921875 C 9.90625 -13.441406 9.085938 -13.703125 8.078125 -13.703125 Z M 8.078125 -13.703125 "/></g></g></g><g fill="#000000" fill-opacity="1"><g transform="translate(28.113172, 21.857056)"><g><path d="M 1.671875 0 L 1.671875 -15.203125 L 3.34375 -15.203125 L 3.34375 0 Z M 1.671875 0 "/></g></g></g><g fill="#000000" fill-opacity="1"><g transform="translate(33.131011, 21.857056)"><g><path d="M 16.609375 -7.59375 C 16.609375 -6.507812 16.40625 -5.484375 16 -4.515625 C 15.601562 -3.554688 15.050781 -2.726562 14.34375 -2.03125 C 13.644531 -1.332031 12.816406 -0.78125 11.859375 -0.375 C 10.898438 0.03125 9.878906 0.234375 8.796875 0.234375 C 7.710938 0.234375 6.6875 0.03125 5.71875 -0.375 C 4.757812 -0.78125 3.925781 -1.332031 3.21875 -2.03125 C 2.519531 -2.726562 1.96875 -3.554688 1.5625 -4.515625 C 1.15625 -5.484375 0.953125 -6.507812 0.953125 -7.59375 C 0.953125 -8.6875 1.15625 -9.710938 1.5625 -10.671875 C 1.96875 -11.640625 2.519531 -12.472656 3.21875 -13.171875 C 3.925781 -13.867188 4.757812 -14.421875 5.71875 -14.828125 C 6.6875 -15.234375 7.710938 -15.4375 8.796875 -15.4375 C 9.878906 -15.4375 10.898438 -15.234375 11.859375 -14.828125 C 12.816406 -14.421875 13.644531 -13.867188 14.34375 -13.171875 C 15.050781 -12.472656 15.601562 -11.640625 16 -10.671875 C 16.40625 -9.710938 16.609375 -8.6875 16.609375 -7.59375 Z M 14.921875 -7.59375 C 14.921875 -8.476562 14.757812 -9.304688 14.4375 -10.078125 C 14.125 -10.859375 13.695312 -11.523438 13.15625 -12.078125 C 12.613281 -12.640625 11.960938 -13.082031 11.203125 -13.40625 C 10.453125 -13.738281 9.648438 -13.90625 8.796875 -13.90625 C 7.929688 -13.90625 7.117188 -13.738281 6.359375 -13.40625 C 5.609375 -13.082031 4.960938 -12.640625 4.421875 -12.078125 C 3.878906 -11.523438 3.445312 -10.859375 3.125 -10.078125 C 2.8125 -9.304688 2.65625 -8.476562 2.65625 -7.59375 C 2.65625 -6.71875 2.8125 -5.894531 3.125 -5.125 C 3.445312 -4.351562 3.878906 -3.6875 4.421875 -3.125 C 4.960938 -2.5625 5.609375 -2.113281 6.359375 -1.78125 C 7.117188 -1.457031 7.929688 -1.296875 8.796875 -1.296875 C 9.648438 -1.296875 10.453125 -1.457031 11.203125 -1.78125 C 11.960938 -2.113281 12.613281 -2.5625 13.15625 -3.125 C 13.695312 -3.6875 14.125 -4.351562 14.4375 -5.125 C 14.757812 -5.894531 14.921875 -6.71875 14.921875 -7.59375 Z M 14.921875 -7.59375 "/></g></g></g><g fill="#000000" fill-opacity="1"><g transform="translate(50.704318, 21.857056)"><g><path d="M 1.671875 0 L 1.671875 -15.203125 L 8.1875 -15.203125 C 9.664062 -15.203125 10.859375 -14.800781 11.765625 -14 C 12.679688 -13.195312 13.140625 -12.144531 13.140625 -10.84375 C 13.140625 -9.84375 12.84375 -8.976562 12.25 -8.25 C 11.664062 -7.53125 10.882812 -7.03125 9.90625 -6.75 L 13.3125 0 L 11.46875 0 L 8.203125 -6.53125 L 3.34375 -6.53125 L 3.34375 0 Z M 8.078125 -13.703125 L 3.34375 -13.703125 L 3.34375 -7.953125 L 8.078125 -7.953125 C 9.085938 -7.953125 9.90625 -8.210938 10.53125 -8.734375 C 11.15625 -9.265625 11.46875 -9.96875 11.46875 -10.84375 C 11.46875 -11.707031 11.15625 -12.398438 10.53125 -12.921875 C 9.90625 -13.441406 9.085938 -13.703125 8.078125 -13.703125 Z M 8.078125 -13.703125 "/></g></g></g><g fill="#000000" fill-opacity="1"><g transform="translate(64.715173, 21.857056)"><g><path d="M 1.671875 0 L 1.671875 -15.203125 L 3.34375 -15.203125 L 3.34375 0 Z M 1.671875 0 "/></g></g></g><g fill="#000000" fill-opacity="1"><g transform="translate(69.733012, 21.857056)"><g><path d="M 0.375 -13.703125 L 0.375 -15.203125 L 13.03125 -15.203125 L 13.03125 -13.703125 L 7.53125 -13.703125 L 7.53125 0 L 5.859375 0 L 5.859375 -13.703125 Z M 0.375 -13.703125 "/></g></g></g><g fill="#000000" fill-opacity="1"><g transform="translate(83.135646, 21.857056)"><g><path d="M 1.671875 0 L 1.671875 -15.203125 L 3.34375 -15.203125 L 3.34375 0 Z M 1.671875 0 "/></g></g></g><g fill="#000000" fill-opacity="1"><g transform="translate(88.153485, 21.857056)"><g><path d="M 1.671875 0 L 1.671875 -15.203125 L 12.546875 -15.203125 L 12.546875 -13.71875 L 3.34375 -13.71875 L 3.34375 -8.40625 L 9.359375 -8.40625 L 9.359375 -6.953125 L 3.34375 -6.953125 L 3.34375 -1.484375 L 12.640625 -1.484375 L 12.640625 0 Z M 1.671875 0 "/></g></g></g><g fill="#000000" fill-opacity="1"><g transform="translate(101.534398, 21.857056)"><g><path d="M 0.234375 -2.609375 L 1.34375 -3.75 C 2.125 -2.925781 2.957031 -2.300781 3.84375 -1.875 C 4.738281 -1.445312 5.679688 -1.234375 6.671875 -1.234375 C 7.859375 -1.234375 8.832031 -1.515625 9.59375 -2.078125 C 10.363281 -2.648438 10.75 -3.367188 10.75 -4.234375 C 10.75 -5.015625 10.476562 -5.613281 9.9375 -6.03125 C 9.394531 -6.457031 8.5 -6.769531 7.25 -6.96875 L 5.0625 -7.3125 C 3.59375 -7.550781 2.507812 -7.984375 1.8125 -8.609375 C 1.125 -9.242188 0.78125 -10.09375 0.78125 -11.15625 C 0.78125 -12.414062 1.269531 -13.4375 2.25 -14.21875 C 3.238281 -15.007812 4.53125 -15.40625 6.125 -15.40625 C 7.175781 -15.40625 8.222656 -15.226562 9.265625 -14.875 C 10.316406 -14.53125 11.269531 -14.03125 12.125 -13.375 L 11.15625 -12.078125 C 10.332031 -12.703125 9.492188 -13.171875 8.640625 -13.484375 C 7.785156 -13.804688 6.925781 -13.96875 6.0625 -13.96875 C 4.976562 -13.96875 4.097656 -13.71875 3.421875 -13.21875 C 2.742188 -12.71875 2.40625 -12.078125 2.40625 -11.296875 C 2.40625 -10.585938 2.644531 -10.039062 3.125 -9.65625 C 3.601562 -9.28125 4.394531 -9.007812 5.5 -8.84375 L 7.671875 -8.484375 C 9.316406 -8.210938 10.519531 -7.742188 11.28125 -7.078125 C 12.039062 -6.410156 12.421875 -5.492188 12.421875 -4.328125 C 12.421875 -3.660156 12.28125 -3.046875 12 -2.484375 C 11.71875 -1.929688 11.316406 -1.453125 10.796875 -1.046875 C 10.285156 -0.648438 9.671875 -0.335938 8.953125 -0.109375 C 8.242188 0.109375 7.460938 0.21875 6.609375 0.21875 C 5.398438 0.21875 4.242188 -0.0195312 3.140625 -0.5 C 2.035156 -0.988281 1.066406 -1.691406 0.234375 -2.609375 Z M 0.234375 -2.609375 "/></g></g></g></g></g></svg>