<svg xmlns="http://www.w3.org/2000/svg" xmlns:xlink="http://www.w3.org/1999/xlink" width="583" zoomAndPan="magnify" viewBox="0 0 437.25 674.99998" height="900" preserveAspectRatio="xMidYMid meet" version="1.0"><defs><clipPath id="6c0f242ec6"><path d="M 0 0.578125 L 436.5 0.578125 L 436.5 437.078125 L 0 437.078125 Z M 0 0.578125 " clip-rule="nonzero"/></clipPath><clipPath id="6049f20fc6"><path d="M 0 437.078125 L 436.5 437.078125 L 436.5 674.421875 L 0 674.421875 Z M 0 437.078125 " clip-rule="nonzero"/></clipPath></defs><g clip-path="url(#6c0f242ec6)"><path fill="#000000" d="M 428.351562 400.121094 L 428.351562 437.078125 L 427.261719 437.078125 L 427.261719 37.535156 L 428.351562 37.535156 Z M 410.894531 37.535156 L 409.800781 37.535156 L 409.800781 437.078125 L 410.894531 437.078125 Z M 393.433594 37.535156 L 392.34375 37.535156 L 392.34375 437.078125 L 393.433594 437.078125 Z M 375.972656 37.535156 L 374.882812 37.535156 L 374.882812 437.078125 L 375.972656 437.078125 Z M 358.511719 37.535156 L 357.421875 37.535156 L 357.421875 437.078125 L 358.511719 437.078125 Z M 341.054688 37.535156 L 339.960938 37.535156 L 339.960938 437.078125 L 341.054688 437.078125 Z M 323.59375 37.535156 L 322.5 37.535156 L 322.5 437.078125 L 323.59375 437.078125 Z M 306.132812 37.535156 L 305.042969 37.535156 L 305.042969 437.078125 L 306.132812 437.078125 Z M 288.671875 37.535156 L 287.582031 37.535156 L 287.582031 437.078125 L 288.671875 437.078125 Z M 271.210938 37.535156 L 270.121094 37.535156 L 270.121094 437.078125 L 271.210938 437.078125 Z M 253.753906 37.535156 L 252.660156 37.535156 L 252.660156 437.078125 L 253.753906 437.078125 Z M 236.292969 37.535156 L 235.203125 37.535156 L 235.203125 437.078125 L 236.292969 437.078125 Z M 218.832031 37.535156 L 217.742188 37.535156 L 217.742188 437.078125 L 218.832031 437.078125 Z M 201.371094 37.535156 L 200.28125 37.535156 L 200.28125 437.078125 L 201.371094 437.078125 Z M 183.914062 37.535156 L 182.820312 37.535156 L 182.820312 437.078125 L 183.914062 437.078125 Z M 166.453125 37.535156 L 165.359375 37.535156 L 165.359375 437.078125 L 166.453125 437.078125 Z M 148.992188 37.535156 L 147.902344 37.535156 L 147.902344 437.078125 L 148.992188 437.078125 Z M 131.53125 37.535156 L 130.441406 37.535156 L 130.441406 437.078125 L 131.53125 437.078125 Z M 114.074219 37.535156 L 112.980469 37.535156 L 112.980469 437.078125 L 114.074219 437.078125 Z M 96.613281 37.535156 L 95.519531 37.535156 L 95.519531 437.078125 L 96.613281 437.078125 Z M 79.152344 37.535156 L 78.0625 37.535156 L 78.0625 437.078125 L 79.152344 437.078125 Z M 61.691406 37.535156 L 60.601562 37.535156 L 60.601562 437.078125 L 61.691406 437.078125 Z M 44.230469 37.535156 L 43.140625 37.535156 L 43.140625 437.078125 L 44.230469 437.078125 Z M 26.773438 37.535156 L 25.679688 37.535156 L 25.679688 437.078125 L 26.773438 437.078125 Z M 9.3125 37.535156 L 8.222656 37.535156 L 8.222656 437.078125 L 9.3125 437.078125 Z M 428.351562 37.535156 L 428.351562 0.578125 L 427.261719 0.578125 L 427.261719 37.535156 Z M 410.894531 37.535156 L 410.894531 0.578125 L 409.800781 0.578125 L 409.800781 37.535156 Z M 393.433594 37.535156 L 393.433594 0.578125 L 392.34375 0.578125 L 392.34375 37.535156 Z M 375.972656 37.535156 L 375.972656 0.578125 L 374.882812 0.578125 L 374.882812 37.535156 Z M 358.511719 37.535156 L 358.511719 0.578125 L 357.421875 0.578125 L 357.421875 37.535156 Z M 341.054688 37.535156 L 341.054688 0.578125 L 339.960938 0.578125 L 339.960938 37.535156 Z M 323.59375 37.535156 L 323.59375 0.578125 L 322.5 0.578125 L 322.5 37.535156 Z M 306.132812 37.535156 L 306.132812 0.578125 L 305.042969 0.578125 L 305.042969 37.535156 Z M 288.671875 37.535156 L 288.671875 0.578125 L 287.582031 0.578125 L 287.582031 37.535156 Z M 271.210938 37.535156 L 271.210938 0.578125 L 270.121094 0.578125 L 270.121094 37.535156 Z M 253.753906 37.535156 L 253.753906 0.578125 L 252.660156 0.578125 L 252.660156 37.535156 Z M 236.292969 37.535156 L 236.292969 0.578125 L 235.203125 0.578125 L 235.203125 37.535156 Z M 218.832031 37.535156 L 218.832031 0.578125 L 217.742188 0.578125 L 217.742188 37.535156 Z M 201.371094 37.535156 L 201.371094 0.578125 L 200.28125 0.578125 L 200.28125 37.535156 Z M 183.914062 37.535156 L 183.914062 0.578125 L 182.820312 0.578125 L 182.820312 37.535156 Z M 166.453125 37.535156 L 166.453125 0.578125 L 165.359375 0.578125 L 165.359375 37.535156 Z M 148.992188 37.535156 L 148.992188 0.578125 L 147.902344 0.578125 L 147.902344 37.535156 Z M 131.53125 37.535156 L 131.53125 0.578125 L 130.441406 0.578125 L 130.441406 37.535156 Z M 114.074219 37.535156 L 114.074219 0.578125 L 112.980469 0.578125 L 112.980469 37.535156 Z M 96.613281 37.535156 L 96.613281 0.578125 L 95.519531 0.578125 L 95.519531 37.535156 Z M 79.152344 37.535156 L 79.152344 0.578125 L 78.0625 0.578125 L 78.0625 37.535156 Z M 61.691406 37.535156 L 61.691406 0.578125 L 60.601562 0.578125 L 60.601562 37.535156 Z M 44.230469 37.535156 L 44.230469 0.578125 L 43.140625 0.578125 L 43.140625 37.535156 Z M 26.773438 37.535156 L 26.773438 0.578125 L 25.679688 0.578125 L 25.679688 37.535156 Z M 9.3125 37.535156 L 9.3125 0.578125 L 8.222656 0.578125 L 8.222656 37.535156 Z M 399.542969 428.929688 L 399.542969 427.839844 L 0 427.839844 L 0 428.929688 Z M 399.542969 411.472656 L 399.542969 410.378906 L 0 410.378906 L 0 411.472656 Z M 399.542969 394.011719 L 399.542969 392.917969 L 0 392.917969 L 0 394.011719 Z M 399.542969 376.550781 L 399.542969 375.460938 L 0 375.460938 L 0 376.550781 Z M 399.542969 359.089844 L 399.542969 358 L 0 358 L 0 359.089844 Z M 399.542969 341.632812 L 399.542969 340.539062 L 0 340.539062 L 0 341.632812 Z M 399.542969 324.171875 L 399.542969 323.078125 L 0 323.078125 L 0 324.171875 Z M 399.542969 306.710938 L 399.542969 305.621094 L 0 305.621094 L 0 306.710938 Z M 399.542969 289.25 L 399.542969 288.160156 L 0 288.160156 L 0 289.25 Z M 399.542969 271.789062 L 399.542969 270.699219 L 0 270.699219 L 0 271.789062 Z M 399.542969 254.332031 L 399.542969 253.238281 L 0 253.238281 L 0 254.332031 Z M 399.542969 236.871094 L 399.542969 235.78125 L 0 235.78125 L 0 236.871094 Z M 399.542969 219.410156 L 399.542969 218.320312 L 0 218.320312 L 0 219.410156 Z M 399.542969 201.949219 L 399.542969 200.859375 L 0 200.859375 L 0 201.949219 Z M 399.542969 184.492188 L 399.542969 183.398438 L 0 183.398438 L 0 184.492188 Z M 399.542969 167.03125 L 399.542969 165.9375 L 0 165.9375 L 0 167.03125 Z M 399.542969 149.570312 L 399.542969 148.480469 L 0 148.480469 L 0 149.570312 Z M 399.542969 132.109375 L 399.542969 131.019531 L 0 131.019531 L 0 132.109375 Z M 399.542969 114.648438 L 399.542969 113.558594 L 0 113.558594 L 0 114.648438 Z M 399.542969 97.191406 L 399.542969 96.097656 L 0 96.097656 L 0 97.191406 Z M 399.542969 79.730469 L 399.542969 78.640625 L 0 78.640625 L 0 79.730469 Z M 399.542969 62.269531 L 399.542969 61.179688 L 0 61.179688 L 0 62.269531 Z M 399.542969 44.808594 L 399.542969 43.71875 L 0 43.71875 L 0 44.808594 Z M 399.542969 27.351562 L 399.542969 26.257812 L 0 26.257812 L 0 27.351562 Z M 399.542969 9.890625 L 399.542969 8.796875 L 0 8.796875 L 0 9.890625 Z M 399.542969 428.929688 L 436.5 428.929688 L 436.5 427.839844 L 399.542969 427.839844 Z M 399.542969 411.472656 L 436.5 411.472656 L 436.5 410.378906 L 399.542969 410.378906 Z M 399.542969 394.011719 L 436.5 394.011719 L 436.5 392.917969 L 399.542969 392.917969 Z M 399.542969 376.550781 L 436.5 376.550781 L 436.5 375.460938 L 399.542969 375.460938 Z M 399.542969 359.089844 L 436.5 359.089844 L 436.5 358 L 399.542969 358 Z M 399.542969 341.632812 L 436.5 341.632812 L 436.5 340.539062 L 399.542969 340.539062 Z M 399.542969 324.171875 L 436.5 324.171875 L 436.5 323.078125 L 399.542969 323.078125 Z M 399.542969 306.710938 L 436.5 306.710938 L 436.5 305.621094 L 399.542969 305.621094 Z M 399.542969 289.25 L 436.5 289.25 L 436.5 288.160156 L 399.542969 288.160156 Z M 399.542969 271.789062 L 436.5 271.789062 L 436.5 270.699219 L 399.542969 270.699219 Z M 399.542969 254.332031 L 436.5 254.332031 L 436.5 253.238281 L 399.542969 253.238281 Z M 399.542969 236.871094 L 436.5 236.871094 L 436.5 235.78125 L 399.542969 235.78125 Z M 399.542969 219.410156 L 436.5 219.410156 L 436.5 218.320312 L 399.542969 218.320312 Z M 399.542969 201.949219 L 436.5 201.949219 L 436.5 200.859375 L 399.542969 200.859375 Z M 399.542969 184.492188 L 436.5 184.492188 L 436.5 183.398438 L 399.542969 183.398438 Z M 399.542969 167.03125 L 436.5 167.03125 L 436.5 165.9375 L 399.542969 165.9375 Z M 399.542969 149.570312 L 436.5 149.570312 L 436.5 148.480469 L 399.542969 148.480469 Z M 399.542969 132.109375 L 436.5 132.109375 L 436.5 131.019531 L 399.542969 131.019531 Z M 399.542969 114.648438 L 436.5 114.648438 L 436.5 113.558594 L 399.542969 113.558594 Z M 399.542969 97.191406 L 436.5 97.191406 L 436.5 96.097656 L 399.542969 96.097656 Z M 399.542969 79.730469 L 436.5 79.730469 L 436.5 78.640625 L 399.542969 78.640625 Z M 399.542969 62.269531 L 436.5 62.269531 L 436.5 61.179688 L 399.542969 61.179688 Z M 399.542969 44.808594 L 436.5 44.808594 L 436.5 43.71875 L 399.542969 43.71875 Z M 399.542969 27.351562 L 436.5 27.351562 L 436.5 26.257812 L 399.542969 26.257812 Z M 399.542969 9.890625 L 436.5 9.890625 L 436.5 8.796875 L 399.542969 8.796875 Z M 399.542969 9.890625 " fill-opacity="1" fill-rule="nonzero"/></g><g clip-path="url(#6049f20fc6)"><path fill="#000000" d="M 428.351562 836.625 L 428.351562 873.582031 L 427.261719 873.582031 L 427.261719 474.035156 L 428.351562 474.035156 Z M 410.894531 474.035156 L 409.800781 474.035156 L 409.800781 873.582031 L 410.894531 873.582031 Z M 393.433594 474.035156 L 392.34375 474.035156 L 392.34375 873.582031 L 393.433594 873.582031 Z M 375.972656 474.035156 L 374.882812 474.035156 L 374.882812 873.582031 L 375.972656 873.582031 Z M 358.511719 474.035156 L 357.421875 474.035156 L 357.421875 873.582031 L 358.511719 873.582031 Z M 341.054688 474.035156 L 339.960938 474.035156 L 339.960938 873.582031 L 341.054688 873.582031 Z M 323.59375 474.035156 L 322.5 474.035156 L 322.5 873.582031 L 323.59375 873.582031 Z M 306.132812 474.035156 L 305.042969 474.035156 L 305.042969 873.582031 L 306.132812 873.582031 Z M 288.671875 474.035156 L 287.582031 474.035156 L 287.582031 873.582031 L 288.671875 873.582031 Z M 271.210938 474.035156 L 270.121094 474.035156 L 270.121094 873.582031 L 271.210938 873.582031 Z M 253.753906 474.035156 L 252.660156 474.035156 L 252.660156 873.582031 L 253.753906 873.582031 Z M 236.292969 474.035156 L 235.203125 474.035156 L 235.203125 873.582031 L 236.292969 873.582031 Z M 218.832031 474.035156 L 217.742188 474.035156 L 217.742188 873.582031 L 218.832031 873.582031 Z M 201.371094 474.035156 L 200.28125 474.035156 L 200.28125 873.582031 L 201.371094 873.582031 Z M 183.914062 474.035156 L 182.820312 474.035156 L 182.820312 873.582031 L 183.914062 873.582031 Z M 166.453125 474.035156 L 165.359375 474.035156 L 165.359375 873.582031 L 166.453125 873.582031 Z M 148.992188 474.035156 L 147.902344 474.035156 L 147.902344 873.582031 L 148.992188 873.582031 Z M 131.53125 474.035156 L 130.441406 474.035156 L 130.441406 873.582031 L 131.53125 873.582031 Z M 114.074219 474.035156 L 112.980469 474.035156 L 112.980469 873.582031 L 114.074219 873.582031 Z M 96.613281 474.035156 L 95.519531 474.035156 L 95.519531 873.582031 L 96.613281 873.582031 Z M 79.152344 474.035156 L 78.0625 474.035156 L 78.0625 873.582031 L 79.152344 873.582031 Z M 61.691406 474.035156 L 60.601562 474.035156 L 60.601562 873.582031 L 61.691406 873.582031 Z M 44.230469 474.035156 L 43.140625 474.035156 L 43.140625 873.582031 L 44.230469 873.582031 Z M 26.773438 474.035156 L 25.679688 474.035156 L 25.679688 873.582031 L 26.773438 873.582031 Z M 9.3125 474.035156 L 8.222656 474.035156 L 8.222656 873.582031 L 9.3125 873.582031 Z M 428.351562 474.035156 L 428.351562 437.078125 L 427.261719 437.078125 L 427.261719 474.035156 Z M 410.894531 474.035156 L 410.894531 437.078125 L 409.800781 437.078125 L 409.800781 474.035156 Z M 393.433594 474.035156 L 393.433594 437.078125 L 392.34375 437.078125 L 392.34375 474.035156 Z M 375.972656 474.035156 L 375.972656 437.078125 L 374.882812 437.078125 L 374.882812 474.035156 Z M 358.511719 474.035156 L 358.511719 437.078125 L 357.421875 437.078125 L 357.421875 474.035156 Z M 341.054688 474.035156 L 341.054688 437.078125 L 339.960938 437.078125 L 339.960938 474.035156 Z M 323.59375 474.035156 L 323.59375 437.078125 L 322.5 437.078125 L 322.5 474.035156 Z M 306.132812 474.035156 L 306.132812 437.078125 L 305.042969 437.078125 L 305.042969 474.035156 Z M 288.671875 474.035156 L 288.671875 437.078125 L 287.582031 437.078125 L 287.582031 474.035156 Z M 271.210938 474.035156 L 271.210938 437.078125 L 270.121094 437.078125 L 270.121094 474.035156 Z M 253.753906 474.035156 L 253.753906 437.078125 L 252.660156 437.078125 L 252.660156 474.035156 Z M 236.292969 474.035156 L 236.292969 437.078125 L 235.203125 437.078125 L 235.203125 474.035156 Z M 218.832031 474.035156 L 218.832031 437.078125 L 217.742188 437.078125 L 217.742188 474.035156 Z M 201.371094 474.035156 L 201.371094 437.078125 L 200.28125 437.078125 L 200.28125 474.035156 Z M 183.914062 474.035156 L 183.914062 437.078125 L 182.820312 437.078125 L 182.820312 474.035156 Z M 166.453125 474.035156 L 166.453125 437.078125 L 165.359375 437.078125 L 165.359375 474.035156 Z M 148.992188 474.035156 L 148.992188 437.078125 L 147.902344 437.078125 L 147.902344 474.035156 Z M 131.53125 474.035156 L 131.53125 437.078125 L 130.441406 437.078125 L 130.441406 474.035156 Z M 114.074219 474.035156 L 114.074219 437.078125 L 112.980469 437.078125 L 112.980469 474.035156 Z M 96.613281 474.035156 L 96.613281 437.078125 L 95.519531 437.078125 L 95.519531 474.035156 Z M 79.152344 474.035156 L 79.152344 437.078125 L 78.0625 437.078125 L 78.0625 474.035156 Z M 61.691406 474.035156 L 61.691406 437.078125 L 60.601562 437.078125 L 60.601562 474.035156 Z M 44.230469 474.035156 L 44.230469 437.078125 L 43.140625 437.078125 L 43.140625 474.035156 Z M 26.773438 474.035156 L 26.773438 437.078125 L 25.679688 437.078125 L 25.679688 474.035156 Z M 9.3125 474.035156 L 9.3125 437.078125 L 8.222656 437.078125 L 8.222656 474.035156 Z M 399.542969 865.433594 L 399.542969 864.339844 L 0 864.339844 L 0 865.433594 Z M 399.542969 847.972656 L 399.542969 846.882812 L 0 846.882812 L 0 847.972656 Z M 399.542969 830.511719 L 399.542969 829.421875 L 0 829.421875 L 0 830.511719 Z M 399.542969 813.050781 L 399.542969 811.960938 L 0 811.960938 L 0 813.050781 Z M 399.542969 795.59375 L 399.542969 794.5 L 0 794.5 L 0 795.59375 Z M 399.542969 778.132812 L 399.542969 777.039062 L 0 777.039062 L 0 778.132812 Z M 399.542969 760.671875 L 399.542969 759.582031 L 0 759.582031 L 0 760.671875 Z M 399.542969 743.210938 L 399.542969 742.121094 L 0 742.121094 L 0 743.210938 Z M 399.542969 725.753906 L 399.542969 724.660156 L 0 724.660156 L 0 725.753906 Z M 399.542969 708.292969 L 399.542969 707.199219 L 0 707.199219 L 0 708.292969 Z M 399.542969 690.832031 L 399.542969 689.742188 L 0 689.742188 L 0 690.832031 Z M 399.542969 673.371094 L 399.542969 672.28125 L 0 672.28125 L 0 673.371094 Z M 399.542969 655.910156 L 399.542969 654.820312 L 0 654.820312 L 0 655.910156 Z M 399.542969 638.453125 L 399.542969 637.359375 L 0 637.359375 L 0 638.453125 Z M 399.542969 620.992188 L 399.542969 619.902344 L 0 619.902344 L 0 620.992188 Z M 399.542969 603.53125 L 399.542969 602.441406 L 0 602.441406 L 0 603.53125 Z M 399.542969 586.070312 L 399.542969 584.980469 L 0 584.980469 L 0 586.070312 Z M 399.542969 568.613281 L 399.542969 567.519531 L 0 567.519531 L 0 568.613281 Z M 399.542969 551.152344 L 399.542969 550.058594 L 0 550.058594 L 0 551.152344 Z M 399.542969 533.691406 L 399.542969 532.601562 L 0 532.601562 L 0 533.691406 Z M 399.542969 516.230469 L 399.542969 515.140625 L 0 515.140625 L 0 516.230469 Z M 399.542969 498.769531 L 399.542969 497.679688 L 0 497.679688 L 0 498.769531 Z M 399.542969 481.3125 L 399.542969 480.21875 L 0 480.21875 L 0 481.3125 Z M 399.542969 463.851562 L 399.542969 462.761719 L 0 462.761719 L 0 463.851562 Z M 399.542969 446.390625 L 399.542969 445.300781 L 0 445.300781 L 0 446.390625 Z M 399.542969 865.433594 L 436.5 865.433594 L 436.5 864.339844 L 399.542969 864.339844 Z M 399.542969 847.972656 L 436.5 847.972656 L 436.5 846.882812 L 399.542969 846.882812 Z M 399.542969 830.511719 L 436.5 830.511719 L 436.5 829.421875 L 399.542969 829.421875 Z M 399.542969 813.050781 L 436.5 813.050781 L 436.5 811.960938 L 399.542969 811.960938 Z M 399.542969 795.59375 L 436.5 795.59375 L 436.5 794.5 L 399.542969 794.5 Z M 399.542969 778.132812 L 436.5 778.132812 L 436.5 777.039062 L 399.542969 777.039062 Z M 399.542969 760.671875 L 436.5 760.671875 L 436.5 759.582031 L 399.542969 759.582031 Z M 399.542969 743.210938 L 436.5 743.210938 L 436.5 742.121094 L 399.542969 742.121094 Z M 399.542969 725.753906 L 436.5 725.753906 L 436.5 724.660156 L 399.542969 724.660156 Z M 399.542969 708.292969 L 436.5 708.292969 L 436.5 707.199219 L 399.542969 707.199219 Z M 399.542969 690.832031 L 436.5 690.832031 L 436.5 689.742188 L 399.542969 689.742188 Z M 399.542969 673.371094 L 436.5 673.371094 L 436.5 672.28125 L 399.542969 672.28125 Z M 399.542969 655.910156 L 436.5 655.910156 L 436.5 654.820312 L 399.542969 654.820312 Z M 399.542969 638.453125 L 436.5 638.453125 L 436.5 637.359375 L 399.542969 637.359375 Z M 399.542969 620.992188 L 436.5 620.992188 L 436.5 619.902344 L 399.542969 619.902344 Z M 399.542969 603.53125 L 436.5 603.53125 L 436.5 602.441406 L 399.542969 602.441406 Z M 399.542969 586.070312 L 436.5 586.070312 L 436.5 584.980469 L 399.542969 584.980469 Z M 399.542969 568.613281 L 436.5 568.613281 L 436.5 567.519531 L 399.542969 567.519531 Z M 399.542969 551.152344 L 436.5 551.152344 L 436.5 550.058594 L 399.542969 550.058594 Z M 399.542969 533.691406 L 436.5 533.691406 L 436.5 532.601562 L 399.542969 532.601562 Z M 399.542969 516.230469 L 436.5 516.230469 L 436.5 515.140625 L 399.542969 515.140625 Z M 399.542969 498.769531 L 436.5 498.769531 L 436.5 497.679688 L 399.542969 497.679688 Z M 399.542969 481.3125 L 436.5 481.3125 L 436.5 480.21875 L 399.542969 480.21875 Z M 399.542969 463.851562 L 436.5 463.851562 L 436.5 462.761719 L 399.542969 462.761719 Z M 399.542969 446.390625 L 436.5 446.390625 L 436.5 445.300781 L 399.542969 445.300781 Z M 399.542969 446.390625 " fill-opacity="1" fill-rule="nonzero"/></g></svg>