<svg xmlns="http://www.w3.org/2000/svg" xmlns:xlink="http://www.w3.org/1999/xlink" width="583" zoomAndPan="magnify" viewBox="0 0 437.25 674.99998" height="900" preserveAspectRatio="xMidYMid meet" version="1.0"><defs><g/><clipPath id="747e6af385"><path d="M 0 0.578125 L 436.5 0.578125 L 436.5 674.421875 L 0 674.421875 Z M 0 0.578125 " clip-rule="nonzero"/></clipPath><clipPath id="57b0eaf2bc"><path d="M 0 337 L 436.5 337 L 436.5 339 L 0 339 Z M 0 337 " clip-rule="nonzero"/></clipPath><clipPath id="b33f046828"><path d="M 20.851562 423.195312 L 36.574219 423.195312 L 36.574219 438.917969 L 20.851562 438.917969 Z M 20.851562 423.195312 " clip-rule="nonzero"/></clipPath><clipPath id="99fc3e11db"><path d="M 22.347656 423.195312 L 35.3125 423.195312 C 35.710938 423.195312 36.089844 423.355469 36.371094 423.636719 C 36.652344 423.914062 36.808594 424.296875 36.808594 424.695312 L 36.808594 437.65625 C 36.808594 438.054688 36.652344 438.433594 36.371094 438.714844 C 36.089844 438.996094 35.710938 439.152344 35.3125 439.152344 L 22.347656 439.152344 C 21.953125 439.152344 21.570312 438.996094 21.289062 438.714844 C 21.007812 438.433594 20.851562 438.054688 20.851562 437.65625 L 20.851562 424.695312 C 20.851562 424.296875 21.007812 423.914062 21.289062 423.636719 C 21.570312 423.355469 21.953125 423.195312 22.347656 423.195312 Z M 22.347656 423.195312 " clip-rule="nonzero"/></clipPath><clipPath id="e869a930dd"><path d="M 20.851562 451.535156 L 36.574219 451.535156 L 36.574219 467.257812 L 20.851562 467.257812 Z M 20.851562 451.535156 " clip-rule="nonzero"/></clipPath><clipPath id="dfa49169ed"><path d="M 22.347656 451.535156 L 35.3125 451.535156 C 35.710938 451.535156 36.089844 451.691406 36.371094 451.972656 C 36.652344 452.253906 36.808594 452.632812 36.808594 453.03125 L 36.808594 465.992188 C 36.808594 466.390625 36.652344 466.773438 36.371094 467.050781 C 36.089844 467.332031 35.710938 467.492188 35.3125 467.492188 L 22.347656 467.492188 C 21.953125 467.492188 21.570312 467.332031 21.289062 467.050781 C 21.007812 466.773438 20.851562 466.390625 20.851562 465.992188 L 20.851562 453.03125 C 20.851562 452.632812 21.007812 452.253906 21.289062 451.972656 C 21.570312 451.691406 21.953125 451.535156 22.347656 451.535156 Z M 22.347656 451.535156 " clip-rule="nonzero"/></clipPath><clipPath id="e9cad22b60"><path d="M 20.851562 479.871094 L 36.574219 479.871094 L 36.574219 495.59375 L 20.851562 495.59375 Z M 20.851562 479.871094 " clip-rule="nonzero"/></clipPath><clipPath id="ced0da9d29"><path d="M 22.347656 479.871094 L 35.3125 479.871094 C 35.710938 479.871094 36.089844 480.027344 36.371094 480.308594 C 36.652344 480.589844 36.808594 480.972656 36.808594 481.367188 L 36.808594 494.332031 C 36.808594 494.730469 36.652344 495.109375 36.371094 495.390625 C 36.089844 495.671875 35.710938 495.828125 35.3125 495.828125 L 22.347656 495.828125 C 21.953125 495.828125 21.570312 495.671875 21.289062 495.390625 C 21.007812 495.109375 20.851562 494.730469 20.851562 494.332031 L 20.851562 481.367188 C 20.851562 480.972656 21.007812 480.589844 21.289062 480.308594 C 21.570312 480.027344 21.953125 479.871094 22.347656 479.871094 Z M 22.347656 479.871094 " clip-rule="nonzero"/></clipPath><clipPath id="f91aef18df"><path d="M 20.851562 508.210938 L 36.574219 508.210938 L 36.574219 523.933594 L 20.851562 523.933594 Z M 20.851562 508.210938 " clip-rule="nonzero"/></clipPath><clipPath id="90e8489ecc"><path d="M 22.347656 508.210938 L 35.3125 508.210938 C 35.710938 508.210938 36.089844 508.367188 36.371094 508.648438 C 36.652344 508.929688 36.808594 509.308594 36.808594 509.707031 L 36.808594 522.667969 C 36.808594 523.066406 36.652344 523.445312 36.371094 523.726562 C 36.089844 524.007812 35.710938 524.167969 35.3125 524.167969 L 22.347656 524.167969 C 21.953125 524.167969 21.570312 524.007812 21.289062 523.726562 C 21.007812 523.445312 20.851562 523.066406 20.851562 522.667969 L 20.851562 509.707031 C 20.851562 509.308594 21.007812 508.929688 21.289062 508.648438 C 21.570312 508.367188 21.953125 508.210938 22.347656 508.210938 Z M 22.347656 508.210938 " clip-rule="nonzero"/></clipPath><clipPath id="49edd9b0fe"><path d="M 20.851562 536.898438 L 36.574219 536.898438 L 36.574219 552.621094 L 20.851562 552.621094 Z M 20.851562 536.898438 " clip-rule="nonzero"/></clipPath><clipPath id="7ec23f7071"><path d="M 22.347656 536.898438 L 35.3125 536.898438 C 35.710938 536.898438 36.089844 537.054688 36.371094 537.335938 C 36.652344 537.617188 36.808594 537.996094 36.808594 538.394531 L 36.808594 551.359375 C 36.808594 551.753906 36.652344 552.136719 36.371094 552.417969 C 36.089844 552.695312 35.710938 552.855469 35.3125 552.855469 L 22.347656 552.855469 C 21.953125 552.855469 21.570312 552.695312 21.289062 552.417969 C 21.007812 552.136719 20.851562 551.753906 20.851562 551.359375 L 20.851562 538.394531 C 20.851562 537.996094 21.007812 537.617188 21.289062 537.335938 C 21.570312 537.054688 21.953125 536.898438 22.347656 536.898438 Z M 22.347656 536.898438 " clip-rule="nonzero"/></clipPath><clipPath id="49c9d18195"><path d="M 20.851562 565.234375 L 36.574219 565.234375 L 36.574219 580.957031 L 20.851562 580.957031 Z M 20.851562 565.234375 " clip-rule="nonzero"/></clipPath><clipPath id="c7aada9887"><path d="M 22.347656 565.234375 L 35.3125 565.234375 C 35.710938 565.234375 36.089844 565.394531 36.371094 565.675781 C 36.652344 565.953125 36.808594 566.335938 36.808594 566.734375 L 36.808594 579.695312 C 36.808594 580.09375 36.652344 580.472656 36.371094 580.753906 C 36.089844 581.035156 35.710938 581.191406 35.3125 581.191406 L 22.347656 581.191406 C 21.953125 581.191406 21.570312 581.035156 21.289062 580.753906 C 21.007812 580.472656 20.851562 580.09375 20.851562 579.695312 L 20.851562 566.734375 C 20.851562 566.335938 21.007812 565.953125 21.289062 565.675781 C 21.570312 565.394531 21.953125 565.234375 22.347656 565.234375 Z M 22.347656 565.234375 " clip-rule="nonzero"/></clipPath><clipPath id="d11a5eefc6"><path d="M 20.851562 593.574219 L 36.574219 593.574219 L 36.574219 609.296875 L 20.851562 609.296875 Z M 20.851562 593.574219 " clip-rule="nonzero"/></clipPath><clipPath id="0313933bfa"><path d="M 22.347656 593.574219 L 35.3125 593.574219 C 35.710938 593.574219 36.089844 593.730469 36.371094 594.011719 C 36.652344 594.292969 36.808594 594.671875 36.808594 595.070312 L 36.808594 608.03125 C 36.808594 608.429688 36.652344 608.8125 36.371094 609.089844 C 36.089844 609.371094 35.710938 609.53125 35.3125 609.53125 L 22.347656 609.53125 C 21.953125 609.53125 21.570312 609.371094 21.289062 609.089844 C 21.007812 608.8125 20.851562 608.429688 20.851562 608.03125 L 20.851562 595.070312 C 20.851562 594.671875 21.007812 594.292969 21.289062 594.011719 C 21.570312 593.730469 21.953125 593.574219 22.347656 593.574219 Z M 22.347656 593.574219 " clip-rule="nonzero"/></clipPath><clipPath id="2539544861"><path d="M 20.851562 621.910156 L 36.574219 621.910156 L 36.574219 637.632812 L 20.851562 637.632812 Z M 20.851562 621.910156 " clip-rule="nonzero"/></clipPath><clipPath id="865d76c236"><path d="M 22.347656 621.910156 L 35.3125 621.910156 C 35.710938 621.910156 36.089844 622.066406 36.371094 622.347656 C 36.652344 622.628906 36.808594 623.011719 36.808594 623.40625 L 36.808594 636.371094 C 36.808594 636.765625 36.652344 637.148438 36.371094 637.429688 C 36.089844 637.710938 35.710938 637.867188 35.3125 637.867188 L 22.347656 637.867188 C 21.953125 637.867188 21.570312 637.710938 21.289062 637.429688 C 21.007812 637.148438 20.851562 636.765625 20.851562 636.371094 L 20.851562 623.40625 C 20.851562 623.011719 21.007812 622.628906 21.289062 622.347656 C 21.570312 622.066406 21.953125 621.910156 22.347656 621.910156 Z M 22.347656 621.910156 " clip-rule="nonzero"/></clipPath><clipPath id="61b848c65c"><path d="M 20.851562 89.132812 L 36.574219 89.132812 L 36.574219 104.855469 L 20.851562 104.855469 Z M 20.851562 89.132812 " clip-rule="nonzero"/></clipPath><clipPath id="4a682b7461"><path d="M 22.347656 89.132812 L 35.3125 89.132812 C 35.710938 89.132812 36.089844 89.289062 36.371094 89.570312 C 36.652344 89.851562 36.808594 90.234375 36.808594 90.628906 L 36.808594 103.59375 C 36.808594 103.988281 36.652344 104.371094 36.371094 104.652344 C 36.089844 104.933594 35.710938 105.089844 35.3125 105.089844 L 22.347656 105.089844 C 21.953125 105.089844 21.570312 104.933594 21.289062 104.652344 C 21.007812 104.371094 20.851562 103.988281 20.851562 103.59375 L 20.851562 90.628906 C 20.851562 90.234375 21.007812 89.851562 21.289062 89.570312 C 21.570312 89.289062 21.953125 89.132812 22.347656 89.132812 Z M 22.347656 89.132812 " clip-rule="nonzero"/></clipPath><clipPath id="269e1967c6"><path d="M 20.851562 117.46875 L 36.574219 117.46875 L 36.574219 133.195312 L 20.851562 133.195312 Z M 20.851562 117.46875 " clip-rule="nonzero"/></clipPath><clipPath id="0ad5cdffd8"><path d="M 22.347656 117.46875 L 35.3125 117.46875 C 35.710938 117.46875 36.089844 117.628906 36.371094 117.910156 C 36.652344 118.191406 36.808594 118.570312 36.808594 118.96875 L 36.808594 131.929688 C 36.808594 132.328125 36.652344 132.707031 36.371094 132.988281 C 36.089844 133.269531 35.710938 133.425781 35.3125 133.425781 L 22.347656 133.425781 C 21.953125 133.425781 21.570312 133.269531 21.289062 132.988281 C 21.007812 132.707031 20.851562 132.328125 20.851562 131.929688 L 20.851562 118.96875 C 20.851562 118.570312 21.007812 118.191406 21.289062 117.910156 C 21.570312 117.628906 21.953125 117.46875 22.347656 117.46875 Z M 22.347656 117.46875 " clip-rule="nonzero"/></clipPath><clipPath id="747c97ab03"><path d="M 20.851562 145.808594 L 36.574219 145.808594 L 36.574219 161.53125 L 20.851562 161.53125 Z M 20.851562 145.808594 " clip-rule="nonzero"/></clipPath><clipPath id="4bb2a6c74d"><path d="M 22.347656 145.808594 L 35.3125 145.808594 C 35.710938 145.808594 36.089844 145.964844 36.371094 146.246094 C 36.652344 146.527344 36.808594 146.90625 36.808594 147.304688 L 36.808594 160.269531 C 36.808594 160.664062 36.652344 161.046875 36.371094 161.328125 C 36.089844 161.605469 35.710938 161.765625 35.3125 161.765625 L 22.347656 161.765625 C 21.953125 161.765625 21.570312 161.605469 21.289062 161.328125 C 21.007812 161.046875 20.851562 160.664062 20.851562 160.269531 L 20.851562 147.304688 C 20.851562 146.90625 21.007812 146.527344 21.289062 146.246094 C 21.570312 145.964844 21.953125 145.808594 22.347656 145.808594 Z M 22.347656 145.808594 " clip-rule="nonzero"/></clipPath><clipPath id="94d0a830d7"><path d="M 20.851562 174.144531 L 36.574219 174.144531 L 36.574219 189.867188 L 20.851562 189.867188 Z M 20.851562 174.144531 " clip-rule="nonzero"/></clipPath><clipPath id="c5e307e1e2"><path d="M 22.347656 174.144531 L 35.3125 174.144531 C 35.710938 174.144531 36.089844 174.304688 36.371094 174.582031 C 36.652344 174.863281 36.808594 175.246094 36.808594 175.640625 L 36.808594 188.605469 C 36.808594 189.003906 36.652344 189.382812 36.371094 189.664062 C 36.089844 189.945312 35.710938 190.101562 35.3125 190.101562 L 22.347656 190.101562 C 21.953125 190.101562 21.570312 189.945312 21.289062 189.664062 C 21.007812 189.382812 20.851562 189.003906 20.851562 188.605469 L 20.851562 175.640625 C 20.851562 175.246094 21.007812 174.863281 21.289062 174.582031 C 21.570312 174.304688 21.953125 174.144531 22.347656 174.144531 Z M 22.347656 174.144531 " clip-rule="nonzero"/></clipPath><clipPath id="9f0871eb66"><path d="M 20.851562 202.835938 L 36.574219 202.835938 L 36.574219 218.558594 L 20.851562 218.558594 Z M 20.851562 202.835938 " clip-rule="nonzero"/></clipPath><clipPath id="814bb467ea"><path d="M 22.347656 202.835938 L 35.3125 202.835938 C 35.710938 202.835938 36.089844 202.992188 36.371094 203.273438 C 36.652344 203.554688 36.808594 203.933594 36.808594 204.332031 L 36.808594 217.292969 C 36.808594 217.691406 36.652344 218.070312 36.371094 218.351562 C 36.089844 218.632812 35.710938 218.792969 35.3125 218.792969 L 22.347656 218.792969 C 21.953125 218.792969 21.570312 218.632812 21.289062 218.351562 C 21.007812 218.070312 20.851562 217.691406 20.851562 217.292969 L 20.851562 204.332031 C 20.851562 203.933594 21.007812 203.554688 21.289062 203.273438 C 21.570312 202.992188 21.953125 202.835938 22.347656 202.835938 Z M 22.347656 202.835938 " clip-rule="nonzero"/></clipPath><clipPath id="2570a2f28b"><path d="M 20.851562 231.171875 L 36.574219 231.171875 L 36.574219 246.894531 L 20.851562 246.894531 Z M 20.851562 231.171875 " clip-rule="nonzero"/></clipPath><clipPath id="98e5e3d548"><path d="M 22.347656 231.171875 L 35.3125 231.171875 C 35.710938 231.171875 36.089844 231.328125 36.371094 231.609375 C 36.652344 231.890625 36.808594 232.273438 36.808594 232.667969 L 36.808594 245.632812 C 36.808594 246.027344 36.652344 246.410156 36.371094 246.691406 C 36.089844 246.972656 35.710938 247.128906 35.3125 247.128906 L 22.347656 247.128906 C 21.953125 247.128906 21.570312 246.972656 21.289062 246.691406 C 21.007812 246.410156 20.851562 246.027344 20.851562 245.632812 L 20.851562 232.667969 C 20.851562 232.273438 21.007812 231.890625 21.289062 231.609375 C 21.570312 231.328125 21.953125 231.171875 22.347656 231.171875 Z M 22.347656 231.171875 " clip-rule="nonzero"/></clipPath><clipPath id="6447b1bd87"><path d="M 20.851562 259.507812 L 36.574219 259.507812 L 36.574219 275.234375 L 20.851562 275.234375 Z M 20.851562 259.507812 " clip-rule="nonzero"/></clipPath><clipPath id="f93f23029e"><path d="M 22.347656 259.507812 L 35.3125 259.507812 C 35.710938 259.507812 36.089844 259.667969 36.371094 259.949219 C 36.652344 260.230469 36.808594 260.609375 36.808594 261.007812 L 36.808594 273.96875 C 36.808594 274.367188 36.652344 274.746094 36.371094 275.027344 C 36.089844 275.308594 35.710938 275.464844 35.3125 275.464844 L 22.347656 275.464844 C 21.953125 275.464844 21.570312 275.308594 21.289062 275.027344 C 21.007812 274.746094 20.851562 274.367188 20.851562 273.96875 L 20.851562 261.007812 C 20.851562 260.609375 21.007812 260.230469 21.289062 259.949219 C 21.570312 259.667969 21.953125 259.507812 22.347656 259.507812 Z M 22.347656 259.507812 " clip-rule="nonzero"/></clipPath><clipPath id="c7fb70aab1"><path d="M 20.851562 287.847656 L 36.574219 287.847656 L 36.574219 303.570312 L 20.851562 303.570312 Z M 20.851562 287.847656 " clip-rule="nonzero"/></clipPath><clipPath id="3d4e1c2b09"><path d="M 22.347656 287.847656 L 35.3125 287.847656 C 35.710938 287.847656 36.089844 288.003906 36.371094 288.285156 C 36.652344 288.566406 36.808594 288.945312 36.808594 289.34375 L 36.808594 302.308594 C 36.808594 302.703125 36.652344 303.085938 36.371094 303.367188 C 36.089844 303.644531 35.710938 303.804688 35.3125 303.804688 L 22.347656 303.804688 C 21.953125 303.804688 21.570312 303.644531 21.289062 303.367188 C 21.007812 303.085938 20.851562 302.703125 20.851562 302.308594 L 20.851562 289.34375 C 20.851562 288.945312 21.007812 288.566406 21.289062 288.285156 C 21.570312 288.003906 21.953125 287.847656 22.347656 287.847656 Z M 22.347656 287.847656 " clip-rule="nonzero"/></clipPath></defs><g clip-path="url(#747e6af385)"><path stroke-linecap="butt" transform="matrix(0.748716, 0, 0, 0.748716, 0.0000107539, 0.577901)" fill="none" stroke-linejoin="miter" d="M -0.0000143631 0.000299234 L 582.998257 0.000299234 L 582.998257 899.999707 L -0.0000143631 899.999707 Z M -0.0000143631 0.000299234 " stroke="#000000" stroke-width="4" stroke-opacity="1" stroke-miterlimit="4"/></g><g clip-path="url(#57b0eaf2bc)"><path stroke-linecap="butt" transform="matrix(0.748716, 0.000000000000000067, -0.000000000000000067, 0.748716, 0, 337.499976)" fill="none" stroke-linejoin="miter" d="M 0.00000000000000009 1.001747 L 631.007602 1.001747 " stroke="#000000" stroke-width="2" stroke-opacity="1" stroke-miterlimit="4"/></g><g fill="#404040" fill-opacity="1"><g transform="translate(28.538075, 52.838726)"><g><path d="M 7.5 0 C 7.269531 0 7.082031 -0.0703125 6.9375 -0.21875 C 6.800781 -0.375 6.734375 -0.550781 6.734375 -0.75 L 6.734375 -16.578125 L 8.265625 -16.578125 L 8.265625 -0.75 C 8.265625 -0.550781 8.191406 -0.375 8.046875 -0.21875 C 7.898438 -0.0703125 7.71875 0 7.5 0 Z M 1.59375 -15.96875 C 1.394531 -15.96875 1.21875 -16.035156 1.0625 -16.171875 C 0.914062 -16.304688 0.84375 -16.476562 0.84375 -16.6875 C 0.84375 -16.894531 0.914062 -17.0625 1.0625 -17.1875 C 1.21875 -17.320312 1.394531 -17.390625 1.59375 -17.390625 L 13.421875 -17.390625 C 13.617188 -17.390625 13.789062 -17.320312 13.9375 -17.1875 C 14.082031 -17.0625 14.15625 -16.890625 14.15625 -16.671875 C 14.15625 -16.453125 14.082031 -16.28125 13.9375 -16.15625 C 13.789062 -16.03125 13.617188 -15.96875 13.421875 -15.96875 Z M 1.59375 -15.96875 "/></g></g></g><g fill="#404040" fill-opacity="1"><g transform="translate(43.539214, 52.838726)"><g><path d="M 3.125 -17.390625 C 3.320312 -17.390625 3.5 -17.3125 3.65625 -17.15625 C 3.820312 -17.007812 3.90625 -16.832031 3.90625 -16.625 L 3.90625 -0.765625 C 3.882812 -0.554688 3.796875 -0.375 3.640625 -0.21875 C 3.484375 -0.0703125 3.304688 0 3.109375 0 C 2.867188 0 2.675781 -0.0703125 2.53125 -0.21875 C 2.394531 -0.375 2.328125 -0.554688 2.328125 -0.765625 L 2.328125 -16.625 C 2.328125 -16.832031 2.398438 -17.007812 2.546875 -17.15625 C 2.703125 -17.3125 2.894531 -17.390625 3.125 -17.390625 Z M 14.78125 -17.390625 C 15.007812 -17.390625 15.191406 -17.3125 15.328125 -17.15625 C 15.472656 -17.007812 15.546875 -16.832031 15.546875 -16.625 L 15.546875 -0.765625 C 15.535156 -0.554688 15.457031 -0.375 15.3125 -0.21875 C 15.175781 -0.0703125 14.988281 0 14.75 0 C 14.539062 0 14.359375 -0.0703125 14.203125 -0.21875 C 14.054688 -0.375 13.984375 -0.554688 13.984375 -0.765625 L 13.984375 -16.625 C 13.984375 -16.832031 14.0625 -17.007812 14.21875 -17.15625 C 14.375 -17.3125 14.5625 -17.390625 14.78125 -17.390625 Z M 3 -9.609375 L 14.8125 -9.609375 L 14.78125 -8.171875 L 2.90625 -8.171875 Z M 3 -9.609375 "/></g></g></g><g fill="#404040" fill-opacity="1"><g transform="translate(61.42136, 52.838726)"><g><path d="M 3.90625 -0.765625 C 3.882812 -0.554688 3.796875 -0.375 3.640625 -0.21875 C 3.484375 -0.0703125 3.304688 0 3.109375 0 C 2.867188 0 2.675781 -0.0703125 2.53125 -0.21875 C 2.394531 -0.375 2.328125 -0.554688 2.328125 -0.765625 L 2.328125 -16.625 C 2.328125 -16.832031 2.398438 -17.007812 2.546875 -17.15625 C 2.703125 -17.3125 2.894531 -17.390625 3.125 -17.390625 C 3.320312 -17.390625 3.5 -17.3125 3.65625 -17.15625 C 3.820312 -17.007812 3.90625 -16.832031 3.90625 -16.625 Z M 3.90625 -0.765625 "/></g></g></g><g fill="#404040" fill-opacity="1"><g transform="translate(67.630436, 52.838726)"><g><path d="M 7.125 0.25 C 5.863281 0.257812 4.769531 0.0625 3.84375 -0.34375 C 2.914062 -0.757812 2.03125 -1.382812 1.1875 -2.21875 C 1.101562 -2.28125 1.03125 -2.359375 0.96875 -2.453125 C 0.914062 -2.554688 0.890625 -2.675781 0.890625 -2.8125 C 0.890625 -3.007812 0.96875 -3.191406 1.125 -3.359375 C 1.28125 -3.523438 1.460938 -3.609375 1.671875 -3.609375 C 1.867188 -3.609375 2.050781 -3.523438 2.21875 -3.359375 C 2.863281 -2.660156 3.59375 -2.128906 4.40625 -1.765625 C 5.226562 -1.398438 6.113281 -1.21875 7.0625 -1.21875 C 7.851562 -1.21875 8.554688 -1.34375 9.171875 -1.59375 C 9.796875 -1.84375 10.289062 -2.195312 10.65625 -2.65625 C 11.019531 -3.125 11.203125 -3.660156 11.203125 -4.265625 C 11.203125 -5.035156 10.992188 -5.65625 10.578125 -6.125 C 10.171875 -6.59375 9.625 -6.976562 8.9375 -7.28125 C 8.257812 -7.59375 7.507812 -7.875 6.6875 -8.125 C 6.007812 -8.320312 5.363281 -8.546875 4.75 -8.796875 C 4.132812 -9.054688 3.585938 -9.375 3.109375 -9.75 C 2.628906 -10.125 2.253906 -10.582031 1.984375 -11.125 C 1.722656 -11.675781 1.59375 -12.34375 1.59375 -13.125 C 1.59375 -14 1.820312 -14.773438 2.28125 -15.453125 C 2.75 -16.128906 3.410156 -16.660156 4.265625 -17.046875 C 5.117188 -17.441406 6.109375 -17.640625 7.234375 -17.640625 C 8.203125 -17.640625 9.140625 -17.472656 10.046875 -17.140625 C 10.953125 -16.804688 11.671875 -16.316406 12.203125 -15.671875 C 12.453125 -15.410156 12.578125 -15.171875 12.578125 -14.953125 C 12.578125 -14.785156 12.492188 -14.617188 12.328125 -14.453125 C 12.160156 -14.285156 11.976562 -14.203125 11.78125 -14.203125 C 11.613281 -14.203125 11.472656 -14.265625 11.359375 -14.390625 C 11.078125 -14.734375 10.71875 -15.039062 10.28125 -15.3125 C 9.851562 -15.582031 9.378906 -15.789062 8.859375 -15.9375 C 8.335938 -16.09375 7.796875 -16.171875 7.234375 -16.171875 C 6.453125 -16.171875 5.75 -16.050781 5.125 -15.8125 C 4.507812 -15.570312 4.019531 -15.226562 3.65625 -14.78125 C 3.300781 -14.332031 3.125 -13.796875 3.125 -13.171875 C 3.125 -12.472656 3.320312 -11.898438 3.71875 -11.453125 C 4.125 -11.003906 4.648438 -10.632812 5.296875 -10.34375 C 5.941406 -10.050781 6.628906 -9.785156 7.359375 -9.546875 C 8.066406 -9.335938 8.75 -9.101562 9.40625 -8.84375 C 10.0625 -8.59375 10.640625 -8.273438 11.140625 -7.890625 C 11.648438 -7.515625 12.046875 -7.035156 12.328125 -6.453125 C 12.617188 -5.878906 12.765625 -5.148438 12.765625 -4.265625 C 12.765625 -3.421875 12.523438 -2.660156 12.046875 -1.984375 C 11.566406 -1.304688 10.90625 -0.769531 10.0625 -0.375 C 9.226562 0.0195312 8.25 0.226562 7.125 0.25 Z M 7.125 0.25 "/></g></g></g><g fill="#404040" fill-opacity="1"><g transform="translate(81.588451, 52.838726)"><g/></g></g><g fill="#404040" fill-opacity="1"><g transform="translate(88.368763, 52.838726)"><g><path d="M 22.453125 -17.4375 C 22.671875 -17.4375 22.859375 -17.375 23.015625 -17.25 C 23.171875 -17.125 23.25 -16.9375 23.25 -16.6875 C 23.25 -16.613281 23.234375 -16.507812 23.203125 -16.375 L 17.71875 -0.46875 C 17.664062 -0.320312 17.570312 -0.207031 17.4375 -0.125 C 17.300781 -0.0390625 17.171875 0 17.046875 0 C 16.878906 0 16.726562 -0.0351562 16.59375 -0.109375 C 16.457031 -0.179688 16.359375 -0.300781 16.296875 -0.46875 L 11.90625 -11.359375 L 12.09375 -11.296875 L 7.703125 -0.46875 C 7.640625 -0.300781 7.535156 -0.179688 7.390625 -0.109375 C 7.253906 -0.0351562 7.109375 0 6.953125 0 C 6.816406 0 6.6875 -0.0390625 6.5625 -0.125 C 6.445312 -0.207031 6.363281 -0.320312 6.3125 -0.46875 L 0.8125 -16.375 C 0.769531 -16.507812 0.75 -16.609375 0.75 -16.671875 C 0.75 -16.921875 0.835938 -17.109375 1.015625 -17.234375 C 1.203125 -17.367188 1.382812 -17.4375 1.5625 -17.4375 C 1.726562 -17.4375 1.878906 -17.394531 2.015625 -17.3125 C 2.148438 -17.226562 2.238281 -17.113281 2.28125 -16.96875 L 7.28125 -2.40625 L 7 -2.390625 L 11.328125 -13.171875 C 11.378906 -13.316406 11.46875 -13.429688 11.59375 -13.515625 C 11.71875 -13.609375 11.863281 -13.648438 12.03125 -13.640625 C 12.1875 -13.648438 12.328125 -13.609375 12.453125 -13.515625 C 12.578125 -13.429688 12.675781 -13.316406 12.75 -13.171875 L 17.015625 -2.4375 L 16.75 -2.328125 L 21.71875 -16.96875 C 21.757812 -17.113281 21.847656 -17.226562 21.984375 -17.3125 C 22.117188 -17.394531 22.273438 -17.4375 22.453125 -17.4375 Z M 22.453125 -17.4375 "/></g></g></g><g fill="#404040" fill-opacity="1"><g transform="translate(112.360649, 52.838726)"><g><path d="M 3.078125 -17.390625 L 12.203125 -17.390625 C 12.398438 -17.390625 12.570312 -17.316406 12.71875 -17.171875 C 12.863281 -17.035156 12.9375 -16.859375 12.9375 -16.640625 C 12.9375 -16.429688 12.863281 -16.257812 12.71875 -16.125 C 12.570312 -15.988281 12.398438 -15.921875 12.203125 -15.921875 L 3.65625 -15.921875 L 3.90625 -16.34375 L 3.90625 -9.359375 L 3.625 -9.6875 L 11.078125 -9.6875 C 11.273438 -9.6875 11.445312 -9.609375 11.59375 -9.453125 C 11.75 -9.304688 11.828125 -9.132812 11.828125 -8.9375 C 11.828125 -8.726562 11.75 -8.554688 11.59375 -8.421875 C 11.445312 -8.285156 11.273438 -8.21875 11.078125 -8.21875 L 3.671875 -8.21875 L 3.90625 -8.46875 L 3.90625 -1.3125 L 3.78125 -1.46875 L 12.203125 -1.46875 C 12.398438 -1.46875 12.570312 -1.390625 12.71875 -1.234375 C 12.863281 -1.085938 12.9375 -0.914062 12.9375 -0.71875 C 12.9375 -0.5 12.863281 -0.320312 12.71875 -0.1875 C 12.570312 -0.0625 12.398438 0 12.203125 0 L 3.078125 0 C 2.878906 0 2.703125 -0.0703125 2.546875 -0.21875 C 2.398438 -0.375 2.328125 -0.550781 2.328125 -0.75 L 2.328125 -16.640625 C 2.328125 -16.835938 2.398438 -17.007812 2.546875 -17.15625 C 2.703125 -17.3125 2.878906 -17.390625 3.078125 -17.390625 Z M 3.078125 -17.390625 "/></g></g></g><g fill="#404040" fill-opacity="1"><g transform="translate(126.467672, 52.838726)"><g><path d="M 3.078125 -17.390625 L 12.203125 -17.390625 C 12.398438 -17.390625 12.570312 -17.316406 12.71875 -17.171875 C 12.863281 -17.035156 12.9375 -16.859375 12.9375 -16.640625 C 12.9375 -16.429688 12.863281 -16.257812 12.71875 -16.125 C 12.570312 -15.988281 12.398438 -15.921875 12.203125 -15.921875 L 3.65625 -15.921875 L 3.90625 -16.34375 L 3.90625 -9.359375 L 3.625 -9.6875 L 11.078125 -9.6875 C 11.273438 -9.6875 11.445312 -9.609375 11.59375 -9.453125 C 11.75 -9.304688 11.828125 -9.132812 11.828125 -8.9375 C 11.828125 -8.726562 11.75 -8.554688 11.59375 -8.421875 C 11.445312 -8.285156 11.273438 -8.21875 11.078125 -8.21875 L 3.671875 -8.21875 L 3.90625 -8.46875 L 3.90625 -1.3125 L 3.78125 -1.46875 L 12.203125 -1.46875 C 12.398438 -1.46875 12.570312 -1.390625 12.71875 -1.234375 C 12.863281 -1.085938 12.9375 -0.914062 12.9375 -0.71875 C 12.9375 -0.5 12.863281 -0.320312 12.71875 -0.1875 C 12.570312 -0.0625 12.398438 0 12.203125 0 L 3.078125 0 C 2.878906 0 2.703125 -0.0703125 2.546875 -0.21875 C 2.398438 -0.375 2.328125 -0.550781 2.328125 -0.75 L 2.328125 -16.640625 C 2.328125 -16.835938 2.398438 -17.007812 2.546875 -17.15625 C 2.703125 -17.3125 2.878906 -17.390625 3.078125 -17.390625 Z M 3.078125 -17.390625 "/></g></g></g><g fill="#404040" fill-opacity="1"><g transform="translate(140.574696, 52.838726)"><g><path d="M 14.75 0.09375 C 14.539062 0.09375 14.359375 0.00390625 14.203125 -0.171875 L 7.15625 -9.046875 L 8.328125 -10.203125 L 15.421875 -1.21875 C 15.546875 -1.050781 15.609375 -0.878906 15.609375 -0.703125 C 15.609375 -0.429688 15.507812 -0.226562 15.3125 -0.09375 C 15.125 0.03125 14.9375 0.09375 14.75 0.09375 Z M 14.484375 -17.34375 C 14.679688 -17.34375 14.847656 -17.265625 14.984375 -17.109375 C 15.128906 -16.960938 15.203125 -16.800781 15.203125 -16.625 C 15.203125 -16.425781 15.128906 -16.25 14.984375 -16.09375 L 3.703125 -5.546875 L 3.5 -7.234375 L 13.9375 -17.09375 C 14.101562 -17.257812 14.285156 -17.34375 14.484375 -17.34375 Z M 3.109375 0 C 2.867188 0 2.675781 -0.0703125 2.53125 -0.21875 C 2.394531 -0.375 2.328125 -0.554688 2.328125 -0.765625 L 2.328125 -16.625 C 2.328125 -16.832031 2.398438 -17.007812 2.546875 -17.15625 C 2.703125 -17.3125 2.894531 -17.390625 3.125 -17.390625 C 3.34375 -17.390625 3.523438 -17.3125 3.671875 -17.15625 C 3.828125 -17.007812 3.90625 -16.832031 3.90625 -16.625 L 3.90625 -0.765625 C 3.882812 -0.554688 3.796875 -0.375 3.640625 -0.21875 C 3.492188 -0.0703125 3.316406 0 3.109375 0 Z M 3.109375 0 "/></g></g></g><g fill="#404040" fill-opacity="1"><g transform="translate(28.538075, 389.707456)"><g><path d="M 15.0625 -17.390625 C 15.269531 -17.390625 15.4375 -17.320312 15.5625 -17.1875 C 15.6875 -17.0625 15.75 -16.894531 15.75 -16.6875 L 15.75 -0.796875 C 15.75 -0.546875 15.671875 -0.347656 15.515625 -0.203125 C 15.359375 -0.0664062 15.179688 0 14.984375 0 C 14.878906 0 14.769531 -0.0195312 14.65625 -0.0625 C 14.539062 -0.101562 14.453125 -0.164062 14.390625 -0.25 L 3.296875 -15.171875 L 3.71875 -15.40625 L 3.71875 -0.671875 C 3.71875 -0.484375 3.648438 -0.320312 3.515625 -0.1875 C 3.390625 -0.0625 3.226562 0 3.03125 0 C 2.8125 0 2.640625 -0.0625 2.515625 -0.1875 C 2.390625 -0.320312 2.328125 -0.484375 2.328125 -0.671875 L 2.328125 -16.640625 C 2.328125 -16.890625 2.398438 -17.078125 2.546875 -17.203125 C 2.703125 -17.328125 2.875 -17.390625 3.0625 -17.390625 C 3.15625 -17.390625 3.257812 -17.367188 3.375 -17.328125 C 3.488281 -17.285156 3.582031 -17.21875 3.65625 -17.125 L 14.609375 -2.359375 L 14.359375 -1.90625 L 14.359375 -16.6875 C 14.359375 -16.894531 14.425781 -17.0625 14.5625 -17.1875 C 14.707031 -17.320312 14.875 -17.390625 15.0625 -17.390625 Z M 15.0625 -17.390625 "/></g></g></g><g fill="#404040" fill-opacity="1"><g transform="translate(46.618915, 389.707456)"><g><path d="M 3.078125 -17.390625 L 12.203125 -17.390625 C 12.398438 -17.390625 12.570312 -17.316406 12.71875 -17.171875 C 12.863281 -17.035156 12.9375 -16.859375 12.9375 -16.640625 C 12.9375 -16.429688 12.863281 -16.257812 12.71875 -16.125 C 12.570312 -15.988281 12.398438 -15.921875 12.203125 -15.921875 L 3.65625 -15.921875 L 3.90625 -16.34375 L 3.90625 -9.359375 L 3.625 -9.6875 L 11.078125 -9.6875 C 11.273438 -9.6875 11.445312 -9.609375 11.59375 -9.453125 C 11.75 -9.304688 11.828125 -9.132812 11.828125 -8.9375 C 11.828125 -8.726562 11.75 -8.554688 11.59375 -8.421875 C 11.445312 -8.285156 11.273438 -8.21875 11.078125 -8.21875 L 3.671875 -8.21875 L 3.90625 -8.46875 L 3.90625 -1.3125 L 3.78125 -1.46875 L 12.203125 -1.46875 C 12.398438 -1.46875 12.570312 -1.390625 12.71875 -1.234375 C 12.863281 -1.085938 12.9375 -0.914062 12.9375 -0.71875 C 12.9375 -0.5 12.863281 -0.320312 12.71875 -0.1875 C 12.570312 -0.0625 12.398438 0 12.203125 0 L 3.078125 0 C 2.878906 0 2.703125 -0.0703125 2.546875 -0.21875 C 2.398438 -0.375 2.328125 -0.550781 2.328125 -0.75 L 2.328125 -16.640625 C 2.328125 -16.835938 2.398438 -17.007812 2.546875 -17.15625 C 2.703125 -17.3125 2.878906 -17.390625 3.078125 -17.390625 Z M 3.078125 -17.390625 "/></g></g></g><g fill="#404040" fill-opacity="1"><g transform="translate(60.725939, 389.707456)"><g><path d="M 13.484375 -17.46875 C 13.679688 -17.46875 13.847656 -17.40625 13.984375 -17.28125 C 14.128906 -17.15625 14.203125 -17 14.203125 -16.8125 C 14.203125 -16.65625 14.144531 -16.5 14.03125 -16.34375 L 8.328125 -8.578125 L 7.5 -9.78125 L 12.890625 -17.140625 C 13.054688 -17.359375 13.253906 -17.46875 13.484375 -17.46875 Z M 1.609375 -17.46875 C 1.878906 -17.46875 2.085938 -17.367188 2.234375 -17.171875 L 14.03125 -1.125 C 14.144531 -0.96875 14.203125 -0.816406 14.203125 -0.671875 C 14.203125 -0.441406 14.117188 -0.257812 13.953125 -0.125 C 13.796875 0.0078125 13.625 0.078125 13.4375 0.078125 C 13.175781 0.078125 12.976562 -0.0195312 12.84375 -0.21875 L 1.015625 -16.265625 C 0.898438 -16.398438 0.84375 -16.550781 0.84375 -16.71875 C 0.84375 -16.9375 0.921875 -17.113281 1.078125 -17.25 C 1.234375 -17.394531 1.410156 -17.46875 1.609375 -17.46875 Z M 1.546875 0.078125 C 1.328125 0.078125 1.160156 0.0078125 1.046875 -0.125 C 0.929688 -0.269531 0.875 -0.421875 0.875 -0.578125 C 0.875 -0.722656 0.929688 -0.882812 1.046875 -1.0625 L 6.75 -8.84375 L 7.546875 -7.609375 L 2.140625 -0.25 C 1.984375 -0.03125 1.785156 0.078125 1.546875 0.078125 Z M 1.546875 0.078125 "/></g></g></g><g fill="#404040" fill-opacity="1"><g transform="translate(75.776752, 389.707456)"><g><path d="M 7.5 0 C 7.269531 0 7.082031 -0.0703125 6.9375 -0.21875 C 6.800781 -0.375 6.734375 -0.550781 6.734375 -0.75 L 6.734375 -16.578125 L 8.265625 -16.578125 L 8.265625 -0.75 C 8.265625 -0.550781 8.191406 -0.375 8.046875 -0.21875 C 7.898438 -0.0703125 7.71875 0 7.5 0 Z M 1.59375 -15.96875 C 1.394531 -15.96875 1.21875 -16.035156 1.0625 -16.171875 C 0.914062 -16.304688 0.84375 -16.476562 0.84375 -16.6875 C 0.84375 -16.894531 0.914062 -17.0625 1.0625 -17.1875 C 1.21875 -17.320312 1.394531 -17.390625 1.59375 -17.390625 L 13.421875 -17.390625 C 13.617188 -17.390625 13.789062 -17.320312 13.9375 -17.1875 C 14.082031 -17.0625 14.15625 -16.890625 14.15625 -16.671875 C 14.15625 -16.453125 14.082031 -16.28125 13.9375 -16.15625 C 13.789062 -16.03125 13.617188 -15.96875 13.421875 -15.96875 Z M 1.59375 -15.96875 "/></g></g></g><g fill="#404040" fill-opacity="1"><g transform="translate(90.777891, 389.707456)"><g/></g></g><g fill="#404040" fill-opacity="1"><g transform="translate(97.558203, 389.707456)"><g><path d="M 22.453125 -17.4375 C 22.671875 -17.4375 22.859375 -17.375 23.015625 -17.25 C 23.171875 -17.125 23.25 -16.9375 23.25 -16.6875 C 23.25 -16.613281 23.234375 -16.507812 23.203125 -16.375 L 17.71875 -0.46875 C 17.664062 -0.320312 17.570312 -0.207031 17.4375 -0.125 C 17.300781 -0.0390625 17.171875 0 17.046875 0 C 16.878906 0 16.726562 -0.0351562 16.59375 -0.109375 C 16.457031 -0.179688 16.359375 -0.300781 16.296875 -0.46875 L 11.90625 -11.359375 L 12.09375 -11.296875 L 7.703125 -0.46875 C 7.640625 -0.300781 7.535156 -0.179688 7.390625 -0.109375 C 7.253906 -0.0351562 7.109375 0 6.953125 0 C 6.816406 0 6.6875 -0.0390625 6.5625 -0.125 C 6.445312 -0.207031 6.363281 -0.320312 6.3125 -0.46875 L 0.8125 -16.375 C 0.769531 -16.507812 0.75 -16.609375 0.75 -16.671875 C 0.75 -16.921875 0.835938 -17.109375 1.015625 -17.234375 C 1.203125 -17.367188 1.382812 -17.4375 1.5625 -17.4375 C 1.726562 -17.4375 1.878906 -17.394531 2.015625 -17.3125 C 2.148438 -17.226562 2.238281 -17.113281 2.28125 -16.96875 L 7.28125 -2.40625 L 7 -2.390625 L 11.328125 -13.171875 C 11.378906 -13.316406 11.46875 -13.429688 11.59375 -13.515625 C 11.71875 -13.609375 11.863281 -13.648438 12.03125 -13.640625 C 12.1875 -13.648438 12.328125 -13.609375 12.453125 -13.515625 C 12.578125 -13.429688 12.675781 -13.316406 12.75 -13.171875 L 17.015625 -2.4375 L 16.75 -2.328125 L 21.71875 -16.96875 C 21.757812 -17.113281 21.847656 -17.226562 21.984375 -17.3125 C 22.117188 -17.394531 22.273438 -17.4375 22.453125 -17.4375 Z M 22.453125 -17.4375 "/></g></g></g><g fill="#404040" fill-opacity="1"><g transform="translate(121.550089, 389.707456)"><g><path d="M 3.078125 -17.390625 L 12.203125 -17.390625 C 12.398438 -17.390625 12.570312 -17.316406 12.71875 -17.171875 C 12.863281 -17.035156 12.9375 -16.859375 12.9375 -16.640625 C 12.9375 -16.429688 12.863281 -16.257812 12.71875 -16.125 C 12.570312 -15.988281 12.398438 -15.921875 12.203125 -15.921875 L 3.65625 -15.921875 L 3.90625 -16.34375 L 3.90625 -9.359375 L 3.625 -9.6875 L 11.078125 -9.6875 C 11.273438 -9.6875 11.445312 -9.609375 11.59375 -9.453125 C 11.75 -9.304688 11.828125 -9.132812 11.828125 -8.9375 C 11.828125 -8.726562 11.75 -8.554688 11.59375 -8.421875 C 11.445312 -8.285156 11.273438 -8.21875 11.078125 -8.21875 L 3.671875 -8.21875 L 3.90625 -8.46875 L 3.90625 -1.3125 L 3.78125 -1.46875 L 12.203125 -1.46875 C 12.398438 -1.46875 12.570312 -1.390625 12.71875 -1.234375 C 12.863281 -1.085938 12.9375 -0.914062 12.9375 -0.71875 C 12.9375 -0.5 12.863281 -0.320312 12.71875 -0.1875 C 12.570312 -0.0625 12.398438 0 12.203125 0 L 3.078125 0 C 2.878906 0 2.703125 -0.0703125 2.546875 -0.21875 C 2.398438 -0.375 2.328125 -0.550781 2.328125 -0.75 L 2.328125 -16.640625 C 2.328125 -16.835938 2.398438 -17.007812 2.546875 -17.15625 C 2.703125 -17.3125 2.878906 -17.390625 3.078125 -17.390625 Z M 3.078125 -17.390625 "/></g></g></g><g fill="#404040" fill-opacity="1"><g transform="translate(135.657113, 389.707456)"><g><path d="M 3.078125 -17.390625 L 12.203125 -17.390625 C 12.398438 -17.390625 12.570312 -17.316406 12.71875 -17.171875 C 12.863281 -17.035156 12.9375 -16.859375 12.9375 -16.640625 C 12.9375 -16.429688 12.863281 -16.257812 12.71875 -16.125 C 12.570312 -15.988281 12.398438 -15.921875 12.203125 -15.921875 L 3.65625 -15.921875 L 3.90625 -16.34375 L 3.90625 -9.359375 L 3.625 -9.6875 L 11.078125 -9.6875 C 11.273438 -9.6875 11.445312 -9.609375 11.59375 -9.453125 C 11.75 -9.304688 11.828125 -9.132812 11.828125 -8.9375 C 11.828125 -8.726562 11.75 -8.554688 11.59375 -8.421875 C 11.445312 -8.285156 11.273438 -8.21875 11.078125 -8.21875 L 3.671875 -8.21875 L 3.90625 -8.46875 L 3.90625 -1.3125 L 3.78125 -1.46875 L 12.203125 -1.46875 C 12.398438 -1.46875 12.570312 -1.390625 12.71875 -1.234375 C 12.863281 -1.085938 12.9375 -0.914062 12.9375 -0.71875 C 12.9375 -0.5 12.863281 -0.320312 12.71875 -0.1875 C 12.570312 -0.0625 12.398438 0 12.203125 0 L 3.078125 0 C 2.878906 0 2.703125 -0.0703125 2.546875 -0.21875 C 2.398438 -0.375 2.328125 -0.550781 2.328125 -0.75 L 2.328125 -16.640625 C 2.328125 -16.835938 2.398438 -17.007812 2.546875 -17.15625 C 2.703125 -17.3125 2.878906 -17.390625 3.078125 -17.390625 Z M 3.078125 -17.390625 "/></g></g></g><g fill="#404040" fill-opacity="1"><g transform="translate(149.764137, 389.707456)"><g><path d="M 14.75 0.09375 C 14.539062 0.09375 14.359375 0.00390625 14.203125 -0.171875 L 7.15625 -9.046875 L 8.328125 -10.203125 L 15.421875 -1.21875 C 15.546875 -1.050781 15.609375 -0.878906 15.609375 -0.703125 C 15.609375 -0.429688 15.507812 -0.226562 15.3125 -0.09375 C 15.125 0.03125 14.9375 0.09375 14.75 0.09375 Z M 14.484375 -17.34375 C 14.679688 -17.34375 14.847656 -17.265625 14.984375 -17.109375 C 15.128906 -16.960938 15.203125 -16.800781 15.203125 -16.625 C 15.203125 -16.425781 15.128906 -16.25 14.984375 -16.09375 L 3.703125 -5.546875 L 3.5 -7.234375 L 13.9375 -17.09375 C 14.101562 -17.257812 14.285156 -17.34375 14.484375 -17.34375 Z M 3.109375 0 C 2.867188 0 2.675781 -0.0703125 2.53125 -0.21875 C 2.394531 -0.375 2.328125 -0.554688 2.328125 -0.765625 L 2.328125 -16.625 C 2.328125 -16.832031 2.398438 -17.007812 2.546875 -17.15625 C 2.703125 -17.3125 2.894531 -17.390625 3.125 -17.390625 C 3.34375 -17.390625 3.523438 -17.3125 3.671875 -17.15625 C 3.828125 -17.007812 3.90625 -16.832031 3.90625 -16.625 L 3.90625 -0.765625 C 3.882812 -0.554688 3.796875 -0.375 3.640625 -0.21875 C 3.492188 -0.0703125 3.316406 0 3.109375 0 Z M 3.109375 0 "/></g></g></g><g clip-path="url(#b33f046828)"><g clip-path="url(#99fc3e11db)"><path stroke-linecap="butt" transform="matrix(0.748716, 0, 0, 0.748716, 20.852022, 423.196564)" fill="none" stroke-linejoin="miter" d="M 1.9976 -0.00167147 L 19.313711 -0.00167147 C 19.845873 -0.00167147 20.351948 0.212237 20.727591 0.58788 C 21.103234 0.958306 21.311925 1.469598 21.311925 2.001759 L 21.311925 19.312653 C 21.311925 19.844814 21.103234 20.350889 20.727591 20.726533 C 20.351948 21.102176 19.845873 21.310867 19.313711 21.310867 L 1.9976 21.310867 C 1.470656 21.310867 0.959364 21.102176 0.583721 20.726533 C 0.208078 20.350889 -0.000613142 19.844814 -0.000613142 19.312653 L -0.000613142 2.001759 C -0.000613142 1.469598 0.208078 0.958306 0.583721 0.58788 C 0.959364 0.212237 1.470656 -0.00167147 1.9976 -0.00167147 Z M 1.9976 -0.00167147 " stroke="#000000" stroke-width="2" stroke-opacity="1" stroke-miterlimit="4"/></g></g><g clip-path="url(#e869a930dd)"><g clip-path="url(#dfa49169ed)"><path stroke-linecap="butt" transform="matrix(0.748716, 0, 0, 0.748716, 20.852022, 451.534052)" fill="none" stroke-linejoin="miter" d="M 1.9976 0.00147427 L 19.313711 0.00147427 C 19.845873 0.00147427 20.351948 0.210165 20.727591 0.585808 C 21.103234 0.961451 21.311925 1.467526 21.311925 1.999688 L 21.311925 19.310582 C 21.311925 19.842743 21.103234 20.354035 20.727591 20.724461 C 20.351948 21.100104 19.845873 21.314012 19.313711 21.314012 L 1.9976 21.314012 C 1.470656 21.314012 0.959364 21.100104 0.583721 20.724461 C 0.208078 20.354035 -0.000613142 19.842743 -0.000613142 19.310582 L -0.000613142 1.999688 C -0.000613142 1.467526 0.208078 0.961451 0.583721 0.585808 C 0.959364 0.210165 1.470656 0.00147427 1.9976 0.00147427 Z M 1.9976 0.00147427 " stroke="#000000" stroke-width="2" stroke-opacity="1" stroke-miterlimit="4"/></g></g><g clip-path="url(#e9cad22b60)"><g clip-path="url(#ced0da9d29)"><path stroke-linecap="butt" transform="matrix(0.748716, 0, 0, 0.748716, 20.852022, 479.871541)" fill="none" stroke-linejoin="miter" d="M 1.9976 -0.000597268 L 19.313711 -0.000597268 C 19.845873 -0.000597268 20.351948 0.208093 20.727591 0.583737 C 21.103234 0.95938 21.311925 1.470672 21.311925 1.997616 L 21.311925 19.313727 C 21.311925 19.845889 21.103234 20.351963 20.727591 20.727607 C 20.351948 21.10325 19.845873 21.311941 19.313711 21.311941 L 1.9976 21.311941 C 1.470656 21.311941 0.959364 21.10325 0.583721 20.727607 C 0.208078 20.351963 -0.000613142 19.845889 -0.000613142 19.313727 L -0.000613142 1.997616 C -0.000613142 1.470672 0.208078 0.95938 0.583721 0.583737 C 0.959364 0.208093 1.470656 -0.000597268 1.9976 -0.000597268 Z M 1.9976 -0.000597268 " stroke="#000000" stroke-width="2" stroke-opacity="1" stroke-miterlimit="4"/></g></g><g clip-path="url(#f91aef18df)"><g clip-path="url(#90e8489ecc)"><path stroke-linecap="butt" transform="matrix(0.748716, 0, 0, 0.748716, 20.852022, 508.209029)" fill="none" stroke-linejoin="miter" d="M 1.9976 0.00254847 L 19.313711 0.00254847 C 19.845873 0.00254847 20.351948 0.211239 20.727591 0.586882 C 21.103234 0.962526 21.311925 1.468601 21.311925 2.000762 L 21.311925 19.311656 C 21.311925 19.843817 21.103234 20.349892 20.727591 20.725535 C 20.351948 21.101178 19.845873 21.315086 19.313711 21.315086 L 1.9976 21.315086 C 1.470656 21.315086 0.959364 21.101178 0.583721 20.725535 C 0.208078 20.349892 -0.000613142 19.843817 -0.000613142 19.311656 L -0.000613142 2.000762 C -0.000613142 1.468601 0.208078 0.962526 0.583721 0.586882 C 0.959364 0.211239 1.470656 0.00254847 1.9976 0.00254847 Z M 1.9976 0.00254847 " stroke="#000000" stroke-width="2" stroke-opacity="1" stroke-miterlimit="4"/></g></g><path stroke-linecap="round" transform="matrix(0.748716, 0, 0, 0.748716, 44.328746, 438.114958)" fill="none" stroke-linejoin="miter" d="M 0.500029 0.498618 L 495.441301 0.498618 " stroke="#000000" stroke-width="1" stroke-opacity="1" stroke-miterlimit="4"/><path stroke-linecap="round" transform="matrix(0.748716, 0, 0, 0.748716, 44.328746, 466.452447)" fill="none" stroke-linejoin="miter" d="M 0.500029 0.501763 L 495.441301 0.501763 " stroke="#000000" stroke-width="1" stroke-opacity="1" stroke-miterlimit="4"/><path stroke-linecap="round" transform="matrix(0.748716, 0, 0, 0.748716, 44.328746, 494.789935)" fill="none" stroke-linejoin="miter" d="M 0.500029 0.499692 L 495.441301 0.499692 " stroke="#000000" stroke-width="1" stroke-opacity="1" stroke-miterlimit="4"/><path stroke-linecap="round" transform="matrix(0.748716, 0, 0, 0.748716, 44.328746, 523.127424)" fill="none" stroke-linejoin="miter" d="M 0.500029 0.49762 L 495.441301 0.49762 " stroke="#000000" stroke-width="1" stroke-opacity="1" stroke-miterlimit="4"/><g clip-path="url(#49edd9b0fe)"><g clip-path="url(#7ec23f7071)"><path stroke-linecap="butt" transform="matrix(0.748716, 0, 0, 0.748716, 20.852022, 536.897708)" fill="none" stroke-linejoin="miter" d="M 1.9976 0.000974981 L 19.313711 0.000974981 C 19.845873 0.000974981 20.351948 0.209666 20.727591 0.585309 C 21.103234 0.960952 21.311925 1.467027 21.311925 1.999188 L 21.311925 19.315299 C 21.311925 19.842244 21.103234 20.353536 20.727591 20.729179 C 20.351948 21.099605 19.845873 21.313513 19.313711 21.313513 L 1.9976 21.313513 C 1.470656 21.313513 0.959364 21.099605 0.583721 20.729179 C 0.208078 20.353536 -0.000613142 19.842244 -0.000613142 19.315299 L -0.000613142 1.999188 C -0.000613142 1.467027 0.208078 0.960952 0.583721 0.585309 C 0.959364 0.209666 1.470656 0.000974981 1.9976 0.000974981 Z M 1.9976 0.000974981 " stroke="#000000" stroke-width="2" stroke-opacity="1" stroke-miterlimit="4"/></g></g><g clip-path="url(#49c9d18195)"><g clip-path="url(#c7aada9887)"><path stroke-linecap="butt" transform="matrix(0.748716, 0, 0, 0.748716, 20.852022, 565.235436)" fill="none" stroke-linejoin="miter" d="M 1.9976 -0.00141655 L 19.313711 -0.00141655 C 19.845873 -0.00141655 20.351948 0.212491 20.727591 0.588135 C 21.103234 0.958561 21.311925 1.469853 21.311925 2.002014 L 21.311925 19.312908 C 21.311925 19.845069 21.103234 20.351144 20.727591 20.726787 C 20.351948 21.102431 19.845873 21.311121 19.313711 21.311121 L 1.9976 21.311121 C 1.470656 21.311121 0.959364 21.102431 0.583721 20.726787 C 0.208078 20.351144 -0.000613142 19.845069 -0.000613142 19.312908 L -0.000613142 2.002014 C -0.000613142 1.469853 0.208078 0.958561 0.583721 0.588135 C 0.959364 0.212491 1.470656 -0.00141655 1.9976 -0.00141655 Z M 1.9976 -0.00141655 " stroke="#000000" stroke-width="2" stroke-opacity="1" stroke-miterlimit="4"/></g></g><g clip-path="url(#d11a5eefc6)"><g clip-path="url(#0313933bfa)"><path stroke-linecap="butt" transform="matrix(0.748716, 0, 0, 0.748716, 20.852022, 593.572924)" fill="none" stroke-linejoin="miter" d="M 1.9976 0.00172918 L 19.313711 0.00172918 C 19.845873 0.00172918 20.351948 0.21042 20.727591 0.586063 C 21.103234 0.961706 21.311925 1.467781 21.311925 1.999943 L 21.311925 19.310836 C 21.311925 19.842998 21.103234 20.35429 20.727591 20.724716 C 20.351948 21.100359 19.845873 21.314267 19.313711 21.314267 L 1.9976 21.314267 C 1.470656 21.314267 0.959364 21.100359 0.583721 20.724716 C 0.208078 20.35429 -0.000613142 19.842998 -0.000613142 19.310836 L -0.000613142 1.999943 C -0.000613142 1.467781 0.208078 0.961706 0.583721 0.586063 C 0.959364 0.21042 1.470656 0.00172918 1.9976 0.00172918 Z M 1.9976 0.00172918 " stroke="#000000" stroke-width="2" stroke-opacity="1" stroke-miterlimit="4"/></g></g><g clip-path="url(#2539544861)"><g clip-path="url(#865d76c236)"><path stroke-linecap="butt" transform="matrix(0.748716, 0, 0, 0.748716, 20.852022, 621.910413)" fill="none" stroke-linejoin="miter" d="M 1.9976 -0.000342355 L 19.313711 -0.000342355 C 19.845873 -0.000342355 20.351948 0.208348 20.727591 0.583992 C 21.103234 0.959635 21.311925 1.470927 21.311925 1.997871 L 21.311925 19.313982 C 21.311925 19.840926 21.103234 20.352218 20.727591 20.727862 C 20.351948 21.103505 19.845873 21.312196 19.313711 21.312196 L 1.9976 21.312196 C 1.470656 21.312196 0.959364 21.103505 0.583721 20.727862 C 0.208078 20.352218 -0.000613142 19.840926 -0.000613142 19.313982 L -0.000613142 1.997871 C -0.000613142 1.470927 0.208078 0.959635 0.583721 0.583992 C 0.959364 0.208348 1.470656 -0.000342355 1.9976 -0.000342355 Z M 1.9976 -0.000342355 " stroke="#000000" stroke-width="2" stroke-opacity="1" stroke-miterlimit="4"/></g></g><path stroke-linecap="round" transform="matrix(0.748716, 0, 0, 0.748716, 44.328746, 551.816102)" fill="none" stroke-linejoin="miter" d="M 0.500029 0.501264 L 495.441301 0.501264 " stroke="#000000" stroke-width="1" stroke-opacity="1" stroke-miterlimit="4"/><path stroke-linecap="round" transform="matrix(0.748716, 0, 0, 0.748716, 44.328746, 580.15359)" fill="none" stroke-linejoin="miter" d="M 0.500029 0.499193 L 495.441301 0.499193 " stroke="#000000" stroke-width="1" stroke-opacity="1" stroke-miterlimit="4"/><path stroke-linecap="round" transform="matrix(0.748716, 0, 0, 0.748716, 44.328746, 608.491079)" fill="none" stroke-linejoin="miter" d="M 0.500029 0.502338 L 495.441301 0.502338 " stroke="#000000" stroke-width="1" stroke-opacity="1" stroke-miterlimit="4"/><path stroke-linecap="round" transform="matrix(0.748716, 0, 0, 0.748716, 44.328746, 636.828807)" fill="none" stroke-linejoin="miter" d="M 0.500029 0.499947 L 495.441301 0.499947 " stroke="#000000" stroke-width="1" stroke-opacity="1" stroke-miterlimit="4"/><g clip-path="url(#61b848c65c)"><g clip-path="url(#4a682b7461)"><path stroke-linecap="butt" transform="matrix(0.748716, 0, 0, 0.748716, 20.852022, 89.133189)" fill="none" stroke-linejoin="miter" d="M 1.9976 -0.000502328 L 19.313711 -0.000502328 C 19.845873 -0.000502328 20.351948 0.208188 20.727591 0.583832 C 21.103234 0.959475 21.311925 1.470767 21.311925 1.997711 L 21.311925 19.313822 C 21.311925 19.840766 21.103234 20.352058 20.727591 20.727702 C 20.351948 21.103345 19.845873 21.312036 19.313711 21.312036 L 1.9976 21.312036 C 1.470656 21.312036 0.959364 21.103345 0.583721 20.727702 C 0.208078 20.352058 -0.000613142 19.840766 -0.000613142 19.313822 L -0.000613142 1.997711 C -0.000613142 1.470767 0.208078 0.959475 0.583721 0.583832 C 0.959364 0.208188 1.470656 -0.000502328 1.9976 -0.000502328 Z M 1.9976 -0.000502328 " stroke="#000000" stroke-width="2" stroke-opacity="1" stroke-miterlimit="4"/></g></g><g clip-path="url(#269e1967c6)"><g clip-path="url(#0ad5cdffd8)"><path stroke-linecap="butt" transform="matrix(0.748716, 0, 0, 0.748716, 20.852022, 117.470675)" fill="none" stroke-linejoin="miter" d="M 1.9976 -0.00257066 L 19.313711 -0.00257066 C 19.845873 -0.00257066 20.351948 0.211337 20.727591 0.586981 C 21.103234 0.962624 21.311925 1.468699 21.311925 2.00086 L 21.311925 19.311754 C 21.311925 19.843915 21.103234 20.34999 20.727591 20.725633 C 20.351948 21.101277 19.845873 21.309967 19.313711 21.309967 L 1.9976 21.309967 C 1.470656 21.309967 0.959364 21.101277 0.583721 20.725633 C 0.208078 20.34999 -0.000613142 19.843915 -0.000613142 19.311754 L -0.000613142 2.00086 C -0.000613142 1.468699 0.208078 0.962624 0.583721 0.586981 C 0.959364 0.211337 1.470656 -0.00257066 1.9976 -0.00257066 Z M 1.9976 -0.00257066 " stroke="#000000" stroke-width="2" stroke-opacity="1" stroke-miterlimit="4"/></g></g><g clip-path="url(#747c97ab03)"><g clip-path="url(#4bb2a6c74d)"><path stroke-linecap="butt" transform="matrix(0.748716, 0, 0, 0.748716, 20.852022, 145.807928)" fill="none" stroke-linejoin="miter" d="M 1.9976 0.00088867 L 19.313711 0.00088867 C 19.845873 0.00088867 20.351948 0.209579 20.727591 0.585223 C 21.103234 0.960866 21.311925 1.466941 21.311925 1.999102 L 21.311925 19.315213 C 21.311925 19.842157 21.103234 20.353449 20.727591 20.729093 C 20.351948 21.099519 19.845873 21.313427 19.313711 21.313427 L 1.9976 21.313427 C 1.470656 21.313427 0.959364 21.099519 0.583721 20.729093 C 0.208078 20.353449 -0.000613142 19.842157 -0.000613142 19.315213 L -0.000613142 1.999102 C -0.000613142 1.466941 0.208078 0.960866 0.583721 0.585223 C 0.959364 0.209579 1.470656 0.00088867 1.9976 0.00088867 Z M 1.9976 0.00088867 " stroke="#000000" stroke-width="2" stroke-opacity="1" stroke-miterlimit="4"/></g></g><g clip-path="url(#94d0a830d7)"><g clip-path="url(#c5e307e1e2)"><path stroke-linecap="butt" transform="matrix(0.748716, 0, 0, 0.748716, 20.852022, 174.145414)" fill="none" stroke-linejoin="miter" d="M 1.9976 -0.00117966 L 19.313711 -0.00117966 C 19.845873 -0.00117966 20.351948 0.212728 20.727591 0.583154 C 21.103234 0.958798 21.311925 1.47009 21.311925 1.997034 L 21.311925 19.313145 C 21.311925 19.845306 21.103234 20.351381 20.727591 20.727024 C 20.351948 21.102668 19.845873 21.311358 19.313711 21.311358 L 1.9976 21.311358 C 1.470656 21.311358 0.959364 21.102668 0.583721 20.727024 C 0.208078 20.351381 -0.000613142 19.845306 -0.000613142 19.313145 L -0.000613142 1.997034 C -0.000613142 1.47009 0.208078 0.958798 0.583721 0.583154 C 0.959364 0.212728 1.470656 -0.00117966 1.9976 -0.00117966 Z M 1.9976 -0.00117966 " stroke="#000000" stroke-width="2" stroke-opacity="1" stroke-miterlimit="4"/></g></g><path stroke-linecap="round" transform="matrix(0.748716, 0, 0, 0.748716, 44.328746, 104.051583)" fill="none" stroke-linejoin="miter" d="M 0.500029 0.499787 L 495.441301 0.499787 " stroke="#000000" stroke-width="1" stroke-opacity="1" stroke-miterlimit="4"/><path stroke-linecap="round" transform="matrix(0.748716, 0, 0, 0.748716, 44.328746, 132.389069)" fill="none" stroke-linejoin="miter" d="M 0.500029 0.497719 L 495.441301 0.497719 " stroke="#000000" stroke-width="1" stroke-opacity="1" stroke-miterlimit="4"/><path stroke-linecap="round" transform="matrix(0.748716, 0, 0, 0.748716, 44.328746, 160.726323)" fill="none" stroke-linejoin="miter" d="M 0.500029 0.501178 L 495.441301 0.501178 " stroke="#000000" stroke-width="1" stroke-opacity="1" stroke-miterlimit="4"/><path stroke-linecap="round" transform="matrix(0.748716, 0, 0, 0.748716, 44.328746, 189.063809)" fill="none" stroke-linejoin="miter" d="M 0.500029 0.49911 L 495.441301 0.49911 " stroke="#000000" stroke-width="1" stroke-opacity="1" stroke-miterlimit="4"/><g clip-path="url(#9f0871eb66)"><g clip-path="url(#814bb467ea)"><path stroke-linecap="butt" transform="matrix(0.748716, 0, 0, 0.748716, 20.852022, 202.834327)" fill="none" stroke-linejoin="miter" d="M 1.9976 0.00215052 L 19.313711 0.00215052 C 19.845873 0.00215052 20.351948 0.210841 20.727591 0.586484 C 21.103234 0.962128 21.311925 1.468203 21.311925 2.000364 L 21.311925 19.311258 C 21.311925 19.843419 21.103234 20.349494 20.727591 20.725137 C 20.351948 21.100781 19.845873 21.314689 19.313711 21.314689 L 1.9976 21.314689 C 1.470656 21.314689 0.959364 21.100781 0.583721 20.725137 C 0.208078 20.349494 -0.000613142 19.843419 -0.000613142 19.311258 L -0.000613142 2.000364 C -0.000613142 1.468203 0.208078 0.962128 0.583721 0.586484 C 0.959364 0.210841 1.470656 0.00215052 1.9976 0.00215052 Z M 1.9976 0.00215052 " stroke="#000000" stroke-width="2" stroke-opacity="1" stroke-miterlimit="4"/></g></g><g clip-path="url(#2570a2f28b)"><g clip-path="url(#98e5e3d548)"><path stroke-linecap="butt" transform="matrix(0.748716, 0, 0, 0.748716, 20.852022, 231.171813)" fill="none" stroke-linejoin="miter" d="M 1.9976 0.0000821844 L 19.313711 0.0000821844 C 19.845873 0.0000821844 20.351948 0.208773 20.727591 0.584416 C 21.103234 0.960059 21.311925 1.471352 21.311925 1.998296 L 21.311925 19.314407 C 21.311925 19.841351 21.103234 20.352643 20.727591 20.728286 C 20.351948 21.103929 19.845873 21.31262 19.313711 21.31262 L 1.9976 21.31262 C 1.470656 21.31262 0.959364 21.103929 0.583721 20.728286 C 0.208078 20.352643 -0.000613142 19.841351 -0.000613142 19.314407 L -0.000613142 1.998296 C -0.000613142 1.471352 0.208078 0.960059 0.583721 0.584416 C 0.959364 0.208773 1.470656 0.0000821844 1.9976 0.0000821844 Z M 1.9976 0.0000821844 " stroke="#000000" stroke-width="2" stroke-opacity="1" stroke-miterlimit="4"/></g></g><g clip-path="url(#6447b1bd87)"><g clip-path="url(#f93f23029e)"><path stroke-linecap="butt" transform="matrix(0.748716, 0, 0, 0.748716, 20.852022, 259.509534)" fill="none" stroke-linejoin="miter" d="M 1.9976 -0.00229975 L 19.313711 -0.00229975 C 19.845873 -0.00229975 20.351948 0.211608 20.727591 0.587251 C 21.103234 0.962895 21.311925 1.46897 21.311925 2.001131 L 21.311925 19.312025 C 21.311925 19.844186 21.103234 20.350261 20.727591 20.725904 C 20.351948 21.101548 19.845873 21.310238 19.313711 21.310238 L 1.9976 21.310238 C 1.470656 21.310238 0.959364 21.101548 0.583721 20.725904 C 0.208078 20.350261 -0.000613142 19.844186 -0.000613142 19.312025 L -0.000613142 2.001131 C -0.000613142 1.46897 0.208078 0.962895 0.583721 0.587251 C 0.959364 0.211608 1.470656 -0.00229975 1.9976 -0.00229975 Z M 1.9976 -0.00229975 " stroke="#000000" stroke-width="2" stroke-opacity="1" stroke-miterlimit="4"/></g></g><g clip-path="url(#c7fb70aab1)"><g clip-path="url(#3d4e1c2b09)"><path stroke-linecap="butt" transform="matrix(0.748716, 0, 0, 0.748716, 20.852022, 287.84702)" fill="none" stroke-linejoin="miter" d="M 1.9976 0.000849183 L 19.313711 0.000849183 C 19.845873 0.000849183 20.351948 0.20954 20.727591 0.585183 C 21.103234 0.960826 21.311925 1.466901 21.311925 1.999063 L 21.311925 19.315174 C 21.311925 19.842118 21.103234 20.35341 20.727591 20.729053 C 20.351948 21.099479 19.845873 21.313387 19.313711 21.313387 L 1.9976 21.313387 C 1.470656 21.313387 0.959364 21.099479 0.583721 20.729053 C 0.208078 20.35341 -0.000613142 19.842118 -0.000613142 19.315174 L -0.000613142 1.999063 C -0.000613142 1.466901 0.208078 0.960826 0.583721 0.585183 C 0.959364 0.20954 1.470656 0.000849183 1.9976 0.000849183 Z M 1.9976 0.000849183 " stroke="#000000" stroke-width="2" stroke-opacity="1" stroke-miterlimit="4"/></g></g><path stroke-linecap="round" transform="matrix(0.748716, 0, 0, 0.748716, 44.328746, 217.752724)" fill="none" stroke-linejoin="miter" d="M 0.500029 0.502437 L 495.441301 0.502437 " stroke="#000000" stroke-width="1" stroke-opacity="1" stroke-miterlimit="4"/><path stroke-linecap="round" transform="matrix(0.748716, 0, 0, 0.748716, 44.328746, 246.09021)" fill="none" stroke-linejoin="miter" d="M 0.500029 0.500368 L 495.441301 0.500368 " stroke="#000000" stroke-width="1" stroke-opacity="1" stroke-miterlimit="4"/><path stroke-linecap="round" transform="matrix(0.748716, 0, 0, 0.748716, 44.328746, 274.427696)" fill="none" stroke-linejoin="miter" d="M 0.500029 0.4983 L 495.441301 0.4983 " stroke="#000000" stroke-width="1" stroke-opacity="1" stroke-miterlimit="4"/><path stroke-linecap="round" transform="matrix(0.748716, 0, 0, 0.748716, 44.328746, 302.765415)" fill="none" stroke-linejoin="miter" d="M 0.500029 0.501138 L 495.441301 0.501138 " stroke="#000000" stroke-width="1" stroke-opacity="1" stroke-miterlimit="4"/></svg>