<svg xmlns="http://www.w3.org/2000/svg" xmlns:xlink="http://www.w3.org/1999/xlink" width="583" zoomAndPan="magnify" viewBox="0 0 437.25 674.99998" height="900" preserveAspectRatio="xMidYMid meet" version="1.0"><defs><g/><clipPath id="c2a76d0d94"><path d="M 0.0820312 0.578125 L 436.496094 0.578125 L 436.496094 652.394531 L 0.0820312 652.394531 Z M 0.0820312 0.578125 " clip-rule="nonzero"/></clipPath><clipPath id="f4931accd3"><path d="M 20.890625 95.167969 L 36.613281 95.167969 L 36.613281 110.890625 L 20.890625 110.890625 Z M 20.890625 95.167969 " clip-rule="nonzero"/></clipPath><clipPath id="89a1b6c80e"><path d="M 22.386719 95.167969 L 35.351562 95.167969 C 35.75 95.167969 36.128906 95.324219 36.410156 95.605469 C 36.691406 95.886719 36.847656 96.269531 36.847656 96.664062 L 36.847656 109.628906 C 36.847656 110.023438 36.691406 110.40625 36.410156 110.6875 C 36.128906 110.96875 35.75 111.125 35.351562 111.125 L 22.386719 111.125 C 21.992188 111.125 21.609375 110.96875 21.328125 110.6875 C 21.050781 110.40625 20.890625 110.023438 20.890625 109.628906 L 20.890625 96.664062 C 20.890625 96.269531 21.050781 95.886719 21.328125 95.605469 C 21.609375 95.324219 21.992188 95.167969 22.386719 95.167969 Z M 22.386719 95.167969 " clip-rule="nonzero"/></clipPath><clipPath id="e44451e4a8"><path d="M 20.890625 123.503906 L 36.613281 123.503906 L 36.613281 139.226562 L 20.890625 139.226562 Z M 20.890625 123.503906 " clip-rule="nonzero"/></clipPath><clipPath id="1424e51503"><path d="M 22.386719 123.503906 L 35.351562 123.503906 C 35.75 123.503906 36.128906 123.664062 36.410156 123.945312 C 36.691406 124.222656 36.847656 124.605469 36.847656 125.003906 L 36.847656 137.964844 C 36.847656 138.363281 36.691406 138.742188 36.410156 139.023438 C 36.128906 139.304688 35.75 139.460938 35.351562 139.460938 L 22.386719 139.460938 C 21.992188 139.460938 21.609375 139.304688 21.328125 139.023438 C 21.050781 138.742188 20.890625 138.363281 20.890625 137.964844 L 20.890625 125.003906 C 20.890625 124.605469 21.050781 124.222656 21.328125 123.945312 C 21.609375 123.664062 21.992188 123.503906 22.386719 123.503906 Z M 22.386719 123.503906 " clip-rule="nonzero"/></clipPath><clipPath id="331c78111a"><path d="M 20.890625 605.242188 L 36.613281 605.242188 L 36.613281 620.964844 L 20.890625 620.964844 Z M 20.890625 605.242188 " clip-rule="nonzero"/></clipPath><clipPath id="3c3dd00122"><path d="M 22.386719 605.242188 L 35.351562 605.242188 C 35.75 605.242188 36.128906 605.398438 36.410156 605.679688 C 36.691406 605.960938 36.847656 606.34375 36.847656 606.738281 L 36.847656 619.703125 C 36.847656 620.097656 36.691406 620.480469 36.410156 620.761719 C 36.128906 621.042969 35.75 621.199219 35.351562 621.199219 L 22.386719 621.199219 C 21.992188 621.199219 21.609375 621.042969 21.328125 620.761719 C 21.050781 620.480469 20.890625 620.097656 20.890625 619.703125 L 20.890625 606.738281 C 20.890625 606.34375 21.050781 605.960938 21.328125 605.679688 C 21.609375 605.398438 21.992188 605.242188 22.386719 605.242188 Z M 22.386719 605.242188 " clip-rule="nonzero"/></clipPath><clipPath id="3e51e52f5d"><path d="M 20.890625 151.84375 L 36.613281 151.84375 L 36.613281 167.566406 L 20.890625 167.566406 Z M 20.890625 151.84375 " clip-rule="nonzero"/></clipPath><clipPath id="818c842d7c"><path d="M 22.386719 151.84375 L 35.351562 151.84375 C 35.75 151.84375 36.128906 152 36.410156 152.28125 C 36.691406 152.5625 36.847656 152.941406 36.847656 153.339844 L 36.847656 166.300781 C 36.847656 166.699219 36.691406 167.082031 36.410156 167.359375 C 36.128906 167.640625 35.75 167.800781 35.351562 167.800781 L 22.386719 167.800781 C 21.992188 167.800781 21.609375 167.640625 21.328125 167.359375 C 21.050781 167.082031 20.890625 166.699219 20.890625 166.300781 L 20.890625 153.339844 C 20.890625 152.941406 21.050781 152.5625 21.328125 152.28125 C 21.609375 152 21.992188 151.84375 22.386719 151.84375 Z M 22.386719 151.84375 " clip-rule="nonzero"/></clipPath><clipPath id="4c0fe7a4bf"><path d="M 20.890625 180.179688 L 36.613281 180.179688 L 36.613281 195.902344 L 20.890625 195.902344 Z M 20.890625 180.179688 " clip-rule="nonzero"/></clipPath><clipPath id="7dd0eb8d62"><path d="M 22.386719 180.179688 L 35.351562 180.179688 C 35.75 180.179688 36.128906 180.335938 36.410156 180.617188 C 36.691406 180.898438 36.847656 181.28125 36.847656 181.675781 L 36.847656 194.640625 C 36.847656 195.039062 36.691406 195.417969 36.410156 195.699219 C 36.128906 195.980469 35.75 196.136719 35.351562 196.136719 L 22.386719 196.136719 C 21.992188 196.136719 21.609375 195.980469 21.328125 195.699219 C 21.050781 195.417969 20.890625 195.039062 20.890625 194.640625 L 20.890625 181.675781 C 20.890625 181.28125 21.050781 180.898438 21.328125 180.617188 C 21.609375 180.335938 21.992188 180.179688 22.386719 180.179688 Z M 22.386719 180.179688 " clip-rule="nonzero"/></clipPath><clipPath id="3614080052"><path d="M 20.890625 208.519531 L 36.613281 208.519531 L 36.613281 224.242188 L 20.890625 224.242188 Z M 20.890625 208.519531 " clip-rule="nonzero"/></clipPath><clipPath id="c13acb21c7"><path d="M 22.386719 208.519531 L 35.351562 208.519531 C 35.75 208.519531 36.128906 208.675781 36.410156 208.957031 C 36.691406 209.238281 36.847656 209.617188 36.847656 210.015625 L 36.847656 222.976562 C 36.847656 223.375 36.691406 223.753906 36.410156 224.035156 C 36.128906 224.316406 35.75 224.476562 35.351562 224.476562 L 22.386719 224.476562 C 21.992188 224.476562 21.609375 224.316406 21.328125 224.035156 C 21.050781 223.753906 20.890625 223.375 20.890625 222.976562 L 20.890625 210.015625 C 20.890625 209.617188 21.050781 209.238281 21.328125 208.957031 C 21.609375 208.675781 21.992188 208.519531 22.386719 208.519531 Z M 22.386719 208.519531 " clip-rule="nonzero"/></clipPath><clipPath id="fc9fd5a33d"><path d="M 20.890625 236.855469 L 36.613281 236.855469 L 36.613281 252.578125 L 20.890625 252.578125 Z M 20.890625 236.855469 " clip-rule="nonzero"/></clipPath><clipPath id="921bca0270"><path d="M 22.386719 236.855469 L 35.351562 236.855469 C 35.75 236.855469 36.128906 237.011719 36.410156 237.292969 C 36.691406 237.574219 36.847656 237.957031 36.847656 238.351562 L 36.847656 251.316406 C 36.847656 251.710938 36.691406 252.09375 36.410156 252.375 C 36.128906 252.65625 35.75 252.8125 35.351562 252.8125 L 22.386719 252.8125 C 21.992188 252.8125 21.609375 252.65625 21.328125 252.375 C 21.050781 252.09375 20.890625 251.710938 20.890625 251.316406 L 20.890625 238.351562 C 20.890625 237.957031 21.050781 237.574219 21.328125 237.292969 C 21.609375 237.011719 21.992188 236.855469 22.386719 236.855469 Z M 22.386719 236.855469 " clip-rule="nonzero"/></clipPath><clipPath id="be31e0123e"><path d="M 20.890625 265.191406 L 36.613281 265.191406 L 36.613281 280.914062 L 20.890625 280.914062 Z M 20.890625 265.191406 " clip-rule="nonzero"/></clipPath><clipPath id="082e8df15d"><path d="M 22.386719 265.191406 L 35.351562 265.191406 C 35.75 265.191406 36.128906 265.351562 36.410156 265.632812 C 36.691406 265.910156 36.847656 266.292969 36.847656 266.691406 L 36.847656 279.652344 C 36.847656 280.050781 36.691406 280.429688 36.410156 280.710938 C 36.128906 280.992188 35.75 281.148438 35.351562 281.148438 L 22.386719 281.148438 C 21.992188 281.148438 21.609375 280.992188 21.328125 280.710938 C 21.050781 280.429688 20.890625 280.050781 20.890625 279.652344 L 20.890625 266.691406 C 20.890625 266.292969 21.050781 265.910156 21.328125 265.632812 C 21.609375 265.351562 21.992188 265.191406 22.386719 265.191406 Z M 22.386719 265.191406 " clip-rule="nonzero"/></clipPath><clipPath id="8ebbd2bbd5"><path d="M 20.890625 293.53125 L 36.613281 293.53125 L 36.613281 309.253906 L 20.890625 309.253906 Z M 20.890625 293.53125 " clip-rule="nonzero"/></clipPath><clipPath id="457e0f27a2"><path d="M 22.386719 293.53125 L 35.351562 293.53125 C 35.75 293.53125 36.128906 293.6875 36.410156 293.96875 C 36.691406 294.25 36.847656 294.628906 36.847656 295.027344 L 36.847656 307.988281 C 36.847656 308.386719 36.691406 308.769531 36.410156 309.046875 C 36.128906 309.328125 35.75 309.488281 35.351562 309.488281 L 22.386719 309.488281 C 21.992188 309.488281 21.609375 309.328125 21.328125 309.046875 C 21.050781 308.769531 20.890625 308.386719 20.890625 307.988281 L 20.890625 295.027344 C 20.890625 294.628906 21.050781 294.25 21.328125 293.96875 C 21.609375 293.6875 21.992188 293.53125 22.386719 293.53125 Z M 22.386719 293.53125 " clip-rule="nonzero"/></clipPath><clipPath id="14987c6c52"><path d="M 20.890625 321.867188 L 36.613281 321.867188 L 36.613281 337.589844 L 20.890625 337.589844 Z M 20.890625 321.867188 " clip-rule="nonzero"/></clipPath><clipPath id="8d89c77456"><path d="M 22.386719 321.867188 L 35.351562 321.867188 C 35.75 321.867188 36.128906 322.023438 36.410156 322.304688 C 36.691406 322.585938 36.847656 322.96875 36.847656 323.363281 L 36.847656 336.328125 C 36.847656 336.722656 36.691406 337.105469 36.410156 337.386719 C 36.128906 337.667969 35.75 337.824219 35.351562 337.824219 L 22.386719 337.824219 C 21.992188 337.824219 21.609375 337.667969 21.328125 337.386719 C 21.050781 337.105469 20.890625 336.722656 20.890625 336.328125 L 20.890625 323.363281 C 20.890625 322.96875 21.050781 322.585938 21.328125 322.304688 C 21.609375 322.023438 21.992188 321.867188 22.386719 321.867188 Z M 22.386719 321.867188 " clip-rule="nonzero"/></clipPath><clipPath id="dc3dc03d80"><path d="M 20.890625 350.203125 L 36.613281 350.203125 L 36.613281 365.929688 L 20.890625 365.929688 Z M 20.890625 350.203125 " clip-rule="nonzero"/></clipPath><clipPath id="5cf03e93a6"><path d="M 22.386719 350.203125 L 35.351562 350.203125 C 35.75 350.203125 36.128906 350.363281 36.410156 350.644531 C 36.691406 350.925781 36.847656 351.304688 36.847656 351.703125 L 36.847656 364.664062 C 36.847656 365.0625 36.691406 365.441406 36.410156 365.722656 C 36.128906 366.003906 35.75 366.160156 35.351562 366.160156 L 22.386719 366.160156 C 21.992188 366.160156 21.609375 366.003906 21.328125 365.722656 C 21.050781 365.441406 20.890625 365.0625 20.890625 364.664062 L 20.890625 351.703125 C 20.890625 351.304688 21.050781 350.925781 21.328125 350.644531 C 21.609375 350.363281 21.992188 350.203125 22.386719 350.203125 Z M 22.386719 350.203125 " clip-rule="nonzero"/></clipPath><clipPath id="81efb2eaaf"><path d="M 20.890625 378.542969 L 36.613281 378.542969 L 36.613281 394.265625 L 20.890625 394.265625 Z M 20.890625 378.542969 " clip-rule="nonzero"/></clipPath><clipPath id="4718fa9229"><path d="M 22.386719 378.542969 L 35.351562 378.542969 C 35.75 378.542969 36.128906 378.699219 36.410156 378.980469 C 36.691406 379.261719 36.847656 379.640625 36.847656 380.039062 L 36.847656 393.003906 C 36.847656 393.398438 36.691406 393.78125 36.410156 394.0625 C 36.128906 394.339844 35.75 394.5 35.351562 394.5 L 22.386719 394.5 C 21.992188 394.5 21.609375 394.339844 21.328125 394.0625 C 21.050781 393.78125 20.890625 393.398438 20.890625 393.003906 L 20.890625 380.039062 C 20.890625 379.640625 21.050781 379.261719 21.328125 378.980469 C 21.609375 378.699219 21.992188 378.542969 22.386719 378.542969 Z M 22.386719 378.542969 " clip-rule="nonzero"/></clipPath><clipPath id="ce3556e711"><path d="M 20.890625 406.878906 L 36.613281 406.878906 L 36.613281 422.601562 L 20.890625 422.601562 Z M 20.890625 406.878906 " clip-rule="nonzero"/></clipPath><clipPath id="84e26ef818"><path d="M 22.386719 406.878906 L 35.351562 406.878906 C 35.75 406.878906 36.128906 407.039062 36.410156 407.320312 C 36.691406 407.597656 36.847656 407.980469 36.847656 408.378906 L 36.847656 421.339844 C 36.847656 421.738281 36.691406 422.117188 36.410156 422.398438 C 36.128906 422.679688 35.75 422.835938 35.351562 422.835938 L 22.386719 422.835938 C 21.992188 422.835938 21.609375 422.679688 21.328125 422.398438 C 21.050781 422.117188 20.890625 421.738281 20.890625 421.339844 L 20.890625 408.378906 C 20.890625 407.980469 21.050781 407.597656 21.328125 407.320312 C 21.609375 407.039062 21.992188 406.878906 22.386719 406.878906 Z M 22.386719 406.878906 " clip-rule="nonzero"/></clipPath><clipPath id="ea7e935bf7"><path d="M 20.890625 435.21875 L 36.613281 435.21875 L 36.613281 450.941406 L 20.890625 450.941406 Z M 20.890625 435.21875 " clip-rule="nonzero"/></clipPath><clipPath id="b250c90197"><path d="M 22.386719 435.21875 L 35.351562 435.21875 C 35.75 435.21875 36.128906 435.375 36.410156 435.65625 C 36.691406 435.9375 36.847656 436.316406 36.847656 436.714844 L 36.847656 449.675781 C 36.847656 450.074219 36.691406 450.457031 36.410156 450.734375 C 36.128906 451.015625 35.75 451.175781 35.351562 451.175781 L 22.386719 451.175781 C 21.992188 451.175781 21.609375 451.015625 21.328125 450.734375 C 21.050781 450.457031 20.890625 450.074219 20.890625 449.675781 L 20.890625 436.714844 C 20.890625 436.316406 21.050781 435.9375 21.328125 435.65625 C 21.609375 435.375 21.992188 435.21875 22.386719 435.21875 Z M 22.386719 435.21875 " clip-rule="nonzero"/></clipPath><clipPath id="aacc6d4f27"><path d="M 20.890625 463.554688 L 36.613281 463.554688 L 36.613281 479.277344 L 20.890625 479.277344 Z M 20.890625 463.554688 " clip-rule="nonzero"/></clipPath><clipPath id="b5c574277e"><path d="M 22.386719 463.554688 L 35.351562 463.554688 C 35.75 463.554688 36.128906 463.710938 36.410156 463.992188 C 36.691406 464.273438 36.847656 464.65625 36.847656 465.050781 L 36.847656 478.015625 C 36.847656 478.410156 36.691406 478.792969 36.410156 479.074219 C 36.128906 479.355469 35.75 479.511719 35.351562 479.511719 L 22.386719 479.511719 C 21.992188 479.511719 21.609375 479.355469 21.328125 479.074219 C 21.050781 478.792969 20.890625 478.410156 20.890625 478.015625 L 20.890625 465.050781 C 20.890625 464.65625 21.050781 464.273438 21.328125 463.992188 C 21.609375 463.710938 21.992188 463.554688 22.386719 463.554688 Z M 22.386719 463.554688 " clip-rule="nonzero"/></clipPath><clipPath id="88ae42acd4"><path d="M 20.890625 491.890625 L 36.613281 491.890625 L 36.613281 507.617188 L 20.890625 507.617188 Z M 20.890625 491.890625 " clip-rule="nonzero"/></clipPath><clipPath id="2e0f3b4705"><path d="M 22.386719 491.890625 L 35.351562 491.890625 C 35.75 491.890625 36.128906 492.050781 36.410156 492.332031 C 36.691406 492.613281 36.847656 492.992188 36.847656 493.390625 L 36.847656 506.351562 C 36.847656 506.75 36.691406 507.128906 36.410156 507.410156 C 36.128906 507.691406 35.75 507.847656 35.351562 507.847656 L 22.386719 507.847656 C 21.992188 507.847656 21.609375 507.691406 21.328125 507.410156 C 21.050781 507.128906 20.890625 506.75 20.890625 506.351562 L 20.890625 493.390625 C 20.890625 492.992188 21.050781 492.613281 21.328125 492.332031 C 21.609375 492.050781 21.992188 491.890625 22.386719 491.890625 Z M 22.386719 491.890625 " clip-rule="nonzero"/></clipPath><clipPath id="65d28713a3"><path d="M 20.890625 520.230469 L 36.613281 520.230469 L 36.613281 535.953125 L 20.890625 535.953125 Z M 20.890625 520.230469 " clip-rule="nonzero"/></clipPath><clipPath id="c29e6f44f6"><path d="M 22.386719 520.230469 L 35.351562 520.230469 C 35.75 520.230469 36.128906 520.386719 36.410156 520.667969 C 36.691406 520.949219 36.847656 521.328125 36.847656 521.726562 L 36.847656 534.691406 C 36.847656 535.085938 36.691406 535.46875 36.410156 535.75 C 36.128906 536.027344 35.75 536.1875 35.351562 536.1875 L 22.386719 536.1875 C 21.992188 536.1875 21.609375 536.027344 21.328125 535.75 C 21.050781 535.46875 20.890625 535.085938 20.890625 534.691406 L 20.890625 521.726562 C 20.890625 521.328125 21.050781 520.949219 21.328125 520.667969 C 21.609375 520.386719 21.992188 520.230469 22.386719 520.230469 Z M 22.386719 520.230469 " clip-rule="nonzero"/></clipPath><clipPath id="523cb58f9b"><path d="M 20.890625 548.566406 L 36.613281 548.566406 L 36.613281 564.289062 L 20.890625 564.289062 Z M 20.890625 548.566406 " clip-rule="nonzero"/></clipPath><clipPath id="1041da4b88"><path d="M 22.386719 548.566406 L 35.351562 548.566406 C 35.75 548.566406 36.128906 548.726562 36.410156 549.003906 C 36.691406 549.285156 36.847656 549.667969 36.847656 550.0625 L 36.847656 563.027344 C 36.847656 563.425781 36.691406 563.804688 36.410156 564.085938 C 36.128906 564.367188 35.75 564.523438 35.351562 564.523438 L 22.386719 564.523438 C 21.992188 564.523438 21.609375 564.367188 21.328125 564.085938 C 21.050781 563.804688 20.890625 563.425781 20.890625 563.027344 L 20.890625 550.0625 C 20.890625 549.667969 21.050781 549.285156 21.328125 549.003906 C 21.609375 548.726562 21.992188 548.566406 22.386719 548.566406 Z M 22.386719 548.566406 " clip-rule="nonzero"/></clipPath><clipPath id="837f2a9c2c"><path d="M 20.890625 576.90625 L 36.613281 576.90625 L 36.613281 592.628906 L 20.890625 592.628906 Z M 20.890625 576.90625 " clip-rule="nonzero"/></clipPath><clipPath id="20eea81a38"><path d="M 22.386719 576.90625 L 35.351562 576.90625 C 35.75 576.90625 36.128906 577.0625 36.410156 577.34375 C 36.691406 577.625 36.847656 578.003906 36.847656 578.402344 L 36.847656 591.363281 C 36.847656 591.761719 36.691406 592.140625 36.410156 592.421875 C 36.128906 592.703125 35.75 592.863281 35.351562 592.863281 L 22.386719 592.863281 C 21.992188 592.863281 21.609375 592.703125 21.328125 592.421875 C 21.050781 592.140625 20.890625 591.761719 20.890625 591.363281 L 20.890625 578.402344 C 20.890625 578.003906 21.050781 577.625 21.328125 577.34375 C 21.609375 577.0625 21.992188 576.90625 22.386719 576.90625 Z M 22.386719 576.90625 " clip-rule="nonzero"/></clipPath><clipPath id="cf259b9d1f"><path d="M 0 75 L 436.5 75 L 436.5 77 L 0 77 Z M 0 75 " clip-rule="nonzero"/></clipPath><clipPath id="f2f4c32d80"><rect x="0" width="135" y="0" height="32"/></clipPath></defs><g clip-path="url(#c2a76d0d94)"><path stroke-linecap="butt" transform="matrix(0.748716, 0, 0, 0.748716, 0.0801416, 0.577901)" fill="none" stroke-linejoin="miter" d="M 0.00252383 0.000299234 L 582.886016 0.000299234 L 582.886016 870.579539 L 0.00252383 870.579539 Z M 0.00252383 0.000299234 " stroke="#000000" stroke-width="4" stroke-opacity="1" stroke-miterlimit="4"/></g><path stroke-linecap="round" transform="matrix(0.748716, 0, 0, 0.748716, 44.36818, 110.0861)" fill="none" stroke-linejoin="miter" d="M 0.499532 0.500641 L 495.440805 0.500641 " stroke="#000000" stroke-width="1" stroke-opacity="1" stroke-miterlimit="4"/><path stroke-linecap="round" transform="matrix(0.748716, 0, 0, 0.748716, 44.36818, 138.423572)" fill="none" stroke-linejoin="miter" d="M 0.499532 0.498592 L 495.440805 0.498592 " stroke="#000000" stroke-width="1" stroke-opacity="1" stroke-miterlimit="4"/><path stroke-linecap="round" transform="matrix(0.748716, 0, 0, 0.748716, 44.36818, 166.761043)" fill="none" stroke-linejoin="miter" d="M 0.499532 0.50176 L 495.440805 0.50176 " stroke="#000000" stroke-width="1" stroke-opacity="1" stroke-miterlimit="4"/><g clip-path="url(#f4931accd3)"><g clip-path="url(#89a1b6c80e)"><path stroke-linecap="butt" transform="matrix(0.748716, 0, 0, 0.748716, 20.891455, 95.167706)" fill="none" stroke-linejoin="miter" d="M 1.997105 0.000351538 L 19.313216 0.000351538 C 19.845377 0.000351538 20.351452 0.209042 20.727095 0.584686 C 21.102738 0.960329 21.311429 1.471621 21.311429 1.998565 L 21.311429 19.314676 C 21.311429 19.84162 21.102738 20.352912 20.727095 20.728556 C 20.351452 21.104199 19.845377 21.31289 19.313216 21.31289 L 1.997105 21.31289 C 1.470161 21.31289 0.958868 21.104199 0.583225 20.728556 C 0.212799 20.352912 -0.00110895 19.84162 -0.00110895 19.314676 L -0.00110895 1.998565 C -0.00110895 1.471621 0.212799 0.960329 0.583225 0.584686 C 0.958868 0.209042 1.470161 0.000351538 1.997105 0.000351538 Z M 1.997105 0.000351538 " stroke="#000000" stroke-width="2" stroke-opacity="1" stroke-miterlimit="4"/></g></g><g clip-path="url(#e44451e4a8)"><g clip-path="url(#1424e51503)"><path stroke-linecap="butt" transform="matrix(0.748716, 0, 0, 0.748716, 20.891455, 123.505177)" fill="none" stroke-linejoin="miter" d="M 1.997105 -0.0016976 L 19.313216 -0.0016976 C 19.845377 -0.0016976 20.351452 0.21221 20.727095 0.587854 C 21.102738 0.95828 21.311429 1.469572 21.311429 2.001733 L 21.311429 19.312627 C 21.311429 19.844788 21.102738 20.350863 20.727095 20.726506 C 20.351452 21.10215 19.845377 21.31084 19.313216 21.31084 L 1.997105 21.31084 C 1.470161 21.31084 0.958868 21.10215 0.583225 20.726506 C 0.212799 20.350863 -0.00110895 19.844788 -0.00110895 19.312627 L -0.00110895 2.001733 C -0.00110895 1.469572 0.212799 0.95828 0.583225 0.587854 C 0.958868 0.21221 1.470161 -0.0016976 1.997105 -0.0016976 Z M 1.997105 -0.0016976 " stroke="#000000" stroke-width="2" stroke-opacity="1" stroke-miterlimit="4"/></g></g><g clip-path="url(#331c78111a)"><g clip-path="url(#3c3dd00122)"><path stroke-linecap="butt" transform="matrix(0.748716, 0, 0, 0.748716, 20.891455, 605.242228)" fill="none" stroke-linejoin="miter" d="M 1.997105 -0.0000536135 L 19.313216 -0.0000536135 C 19.845377 -0.0000536135 20.351452 0.208637 20.727095 0.58428 C 21.102738 0.959924 21.311429 1.471216 21.311429 1.99816 L 21.311429 19.314271 C 21.311429 19.841215 21.102738 20.352507 20.727095 20.72815 C 20.351452 21.103794 19.845377 21.312484 19.313216 21.312484 L 1.997105 21.312484 C 1.470161 21.312484 0.958868 21.103794 0.583225 20.72815 C 0.212799 20.352507 -0.00110895 19.841215 -0.00110895 19.314271 L -0.00110895 1.99816 C -0.00110895 1.471216 0.212799 0.959924 0.583225 0.58428 C 0.958868 0.208637 1.470161 -0.0000536135 1.997105 -0.0000536135 Z M 1.997105 -0.0000536135 " stroke="#000000" stroke-width="2" stroke-opacity="1" stroke-miterlimit="4"/></g></g><g clip-path="url(#3e51e52f5d)"><g clip-path="url(#818c842d7c)"><path stroke-linecap="butt" transform="matrix(0.748716, 0, 0, 0.748716, 20.891455, 151.842649)" fill="none" stroke-linejoin="miter" d="M 1.997105 0.00147054 L 19.313216 0.00147054 C 19.845377 0.00147054 20.351452 0.210161 20.727095 0.585805 C 21.102738 0.961448 21.311429 1.467523 21.311429 1.999684 L 21.311429 19.310578 C 21.311429 19.842739 21.102738 20.354031 20.727095 20.724457 C 20.351452 21.100101 19.845377 21.314009 19.313216 21.314009 L 1.997105 21.314009 C 1.470161 21.314009 0.958868 21.100101 0.583225 20.724457 C 0.212799 20.354031 -0.00110895 19.842739 -0.00110895 19.310578 L -0.00110895 1.999684 C -0.00110895 1.467523 0.212799 0.961448 0.583225 0.585805 C 0.958868 0.210161 1.470161 0.00147054 1.997105 0.00147054 Z M 1.997105 0.00147054 " stroke="#000000" stroke-width="2" stroke-opacity="1" stroke-miterlimit="4"/></g></g><g clip-path="url(#4c0fe7a4bf)"><g clip-path="url(#7dd0eb8d62)"><path stroke-linecap="butt" transform="matrix(0.748716, 0, 0, 0.748716, 20.891455, 180.180135)" fill="none" stroke-linejoin="miter" d="M 1.997105 -0.000597798 L 19.313216 -0.000597798 C 19.845377 -0.000597798 20.351452 0.208093 20.727095 0.583736 C 21.102738 0.959379 21.311429 1.470672 21.311429 1.997616 L 21.311429 19.313727 C 21.311429 19.845888 21.102738 20.351963 20.727095 20.727606 C 20.351452 21.103249 19.845377 21.31194 19.313216 21.31194 L 1.997105 21.31194 C 1.470161 21.31194 0.958868 21.103249 0.583225 20.727606 C 0.212799 20.351963 -0.00110895 19.845888 -0.00110895 19.313727 L -0.00110895 1.997616 C -0.00110895 1.470672 0.212799 0.959379 0.583225 0.583736 C 0.958868 0.208093 1.470161 -0.000597798 1.997105 -0.000597798 Z M 1.997105 -0.000597798 " stroke="#000000" stroke-width="2" stroke-opacity="1" stroke-miterlimit="4"/></g></g><g clip-path="url(#3614080052)"><g clip-path="url(#c13acb21c7)"><path stroke-linecap="butt" transform="matrix(0.748716, 0, 0, 0.748716, 20.891455, 208.517607)" fill="none" stroke-linejoin="miter" d="M 1.997105 0.00257033 L 19.313216 0.00257033 C 19.845377 0.00257033 20.351452 0.211261 20.727095 0.586904 C 21.102738 0.962548 21.311429 1.468623 21.311429 2.000784 L 21.311429 19.311678 C 21.311429 19.843839 21.102738 20.349914 20.727095 20.725557 C 20.351452 21.1012 19.845377 21.315108 19.313216 21.315108 L 1.997105 21.315108 C 1.470161 21.315108 0.958868 21.1012 0.583225 20.725557 C 0.212799 20.349914 -0.00110895 19.843839 -0.00110895 19.311678 L -0.00110895 2.000784 C -0.00110895 1.468623 0.212799 0.962548 0.583225 0.586904 C 0.958868 0.211261 1.470161 0.00257033 1.997105 0.00257033 Z M 1.997105 0.00257033 " stroke="#000000" stroke-width="2" stroke-opacity="1" stroke-miterlimit="4"/></g></g><g clip-path="url(#fc9fd5a33d)"><g clip-path="url(#921bca0270)"><path stroke-linecap="butt" transform="matrix(0.748716, 0, 0, 0.748716, 20.891455, 236.855079)" fill="none" stroke-linejoin="miter" d="M 1.997105 0.0005212 L 19.313216 0.0005212 C 19.845377 0.0005212 20.351452 0.209212 20.727095 0.584855 C 21.102738 0.960498 21.311429 1.471791 21.311429 1.998735 L 21.311429 19.314846 C 21.311429 19.84179 21.102738 20.353082 20.727095 20.728725 C 20.351452 21.104368 19.845377 21.313059 19.313216 21.313059 L 1.997105 21.313059 C 1.470161 21.313059 0.958868 21.104368 0.583225 20.728725 C 0.212799 20.353082 -0.00110895 19.84179 -0.00110895 19.314846 L -0.00110895 1.998735 C -0.00110895 1.471791 0.212799 0.960498 0.583225 0.584855 C 0.958868 0.209212 1.470161 0.0005212 1.997105 0.0005212 Z M 1.997105 0.0005212 " stroke="#000000" stroke-width="2" stroke-opacity="1" stroke-miterlimit="4"/></g></g><g clip-path="url(#be31e0123e)"><g clip-path="url(#082e8df15d)"><path stroke-linecap="butt" transform="matrix(0.748716, 0, 0, 0.748716, 20.891455, 265.19255)" fill="none" stroke-linejoin="miter" d="M 1.997105 -0.00152793 L 19.313216 -0.00152793 C 19.845377 -0.00152793 20.351452 0.21238 20.727095 0.588023 C 21.102738 0.958449 21.311429 1.469742 21.311429 2.001903 L 21.311429 19.312797 C 21.311429 19.844958 21.102738 20.351033 20.727095 20.726676 C 20.351452 21.102319 19.845377 21.31101 19.313216 21.31101 L 1.997105 21.31101 C 1.470161 21.31101 0.958868 21.102319 0.583225 20.726676 C 0.212799 20.351033 -0.00110895 19.844958 -0.00110895 19.312797 L -0.00110895 2.001903 C -0.00110895 1.469742 0.212799 0.958449 0.583225 0.588023 C 0.958868 0.21238 1.470161 -0.00152793 1.997105 -0.00152793 Z M 1.997105 -0.00152793 " stroke="#000000" stroke-width="2" stroke-opacity="1" stroke-miterlimit="4"/></g></g><g clip-path="url(#8ebbd2bbd5)"><g clip-path="url(#457e0f27a2)"><path stroke-linecap="butt" transform="matrix(0.748716, 0, 0, 0.748716, 20.891455, 293.530008)" fill="none" stroke-linejoin="miter" d="M 1.997105 0.0016594 L 19.313216 0.0016594 C 19.845377 0.0016594 20.351452 0.21035 20.727095 0.585993 C 21.102738 0.961637 21.311429 1.467712 21.311429 1.999873 L 21.311429 19.310767 C 21.311429 19.842928 21.102738 20.35422 20.727095 20.724646 C 20.351452 21.100289 19.845377 21.314197 19.313216 21.314197 L 1.997105 21.314197 C 1.470161 21.314197 0.958868 21.100289 0.583225 20.724646 C 0.212799 20.35422 -0.00110895 19.842928 -0.00110895 19.310767 L -0.00110895 1.999873 C -0.00110895 1.467712 0.212799 0.961637 0.583225 0.585993 C 0.958868 0.21035 1.470161 0.0016594 1.997105 0.0016594 Z M 1.997105 0.0016594 " stroke="#000000" stroke-width="2" stroke-opacity="1" stroke-miterlimit="4"/></g></g><g clip-path="url(#14987c6c52)"><g clip-path="url(#8d89c77456)"><path stroke-linecap="butt" transform="matrix(0.748716, 0, 0, 0.748716, 20.891455, 321.867494)" fill="none" stroke-linejoin="miter" d="M 1.997105 -0.000408937 L 19.313216 -0.000408937 C 19.845377 -0.000408937 20.351452 0.208282 20.727095 0.583925 C 21.102738 0.959568 21.311429 1.470861 21.311429 1.997805 L 21.311429 19.313916 C 21.311429 19.84086 21.102738 20.352152 20.727095 20.727795 C 20.351452 21.103438 19.845377 21.312129 19.313216 21.312129 L 1.997105 21.312129 C 1.470161 21.312129 0.958868 21.103438 0.583225 20.727795 C 0.212799 20.352152 -0.00110895 19.84086 -0.00110895 19.313916 L -0.00110895 1.997805 C -0.00110895 1.470861 0.212799 0.959568 0.583225 0.583925 C 0.958868 0.208282 1.470161 -0.000408937 1.997105 -0.000408937 Z M 1.997105 -0.000408937 " stroke="#000000" stroke-width="2" stroke-opacity="1" stroke-miterlimit="4"/></g></g><g clip-path="url(#dc3dc03d80)"><g clip-path="url(#5cf03e93a6)"><path stroke-linecap="butt" transform="matrix(0.748716, 0, 0, 0.748716, 20.891455, 350.20498)" fill="none" stroke-linejoin="miter" d="M 1.997105 -0.00247727 L 19.313216 -0.00247727 C 19.845377 -0.00247727 20.351452 0.211431 20.727095 0.587074 C 21.102738 0.962717 21.311429 1.468792 21.311429 2.000953 L 21.311429 19.311847 C 21.311429 19.844009 21.102738 20.350083 20.727095 20.725727 C 20.351452 21.10137 19.845377 21.310061 19.313216 21.310061 L 1.997105 21.310061 C 1.470161 21.310061 0.958868 21.10137 0.583225 20.725727 C 0.212799 20.350083 -0.00110895 19.844009 -0.00110895 19.311847 L -0.00110895 2.000953 C -0.00110895 1.468792 0.212799 0.962717 0.583225 0.587074 C 0.958868 0.211431 1.470161 -0.00247727 1.997105 -0.00247727 Z M 1.997105 -0.00247727 " stroke="#000000" stroke-width="2" stroke-opacity="1" stroke-miterlimit="4"/></g></g><g clip-path="url(#81efb2eaaf)"><g clip-path="url(#4718fa9229)"><path stroke-linecap="butt" transform="matrix(0.748716, 0, 0, 0.748716, 20.891455, 378.542466)" fill="none" stroke-linejoin="miter" d="M 1.997105 0.000671661 L 19.313216 0.000671661 C 19.845377 0.000671661 20.351452 0.209362 20.727095 0.585006 C 21.102738 0.960649 21.311429 1.466724 21.311429 1.998885 L 21.311429 19.314996 C 21.311429 19.84194 21.102738 20.353232 20.727095 20.728876 C 20.351452 21.099302 19.845377 21.31321 19.313216 21.31321 L 1.997105 21.31321 C 1.470161 21.31321 0.958868 21.099302 0.583225 20.728876 C 0.212799 20.353232 -0.00110895 19.84194 -0.00110895 19.314996 L -0.00110895 1.998885 C -0.00110895 1.466724 0.212799 0.960649 0.583225 0.585006 C 0.958868 0.209362 1.470161 0.000671661 1.997105 0.000671661 Z M 1.997105 0.000671661 " stroke="#000000" stroke-width="2" stroke-opacity="1" stroke-miterlimit="4"/></g></g><g clip-path="url(#ce3556e711)"><g clip-path="url(#84e26ef818)"><path stroke-linecap="butt" transform="matrix(0.748716, 0, 0, 0.748716, 20.891455, 406.879928)" fill="none" stroke-linejoin="miter" d="M 1.997105 -0.00136467 L 19.313216 -0.00136467 C 19.845377 -0.00136467 20.351452 0.212543 20.727095 0.588187 C 21.102738 0.958613 21.311429 1.469905 21.311429 2.002066 L 21.311429 19.31296 C 21.311429 19.845121 21.102738 20.351196 20.727095 20.726839 C 20.351452 21.102483 19.845377 21.311173 19.313216 21.311173 L 1.997105 21.311173 C 1.470161 21.311173 0.958868 21.102483 0.583225 20.726839 C 0.212799 20.351196 -0.00110895 19.845121 -0.00110895 19.31296 L -0.00110895 2.002066 C -0.00110895 1.469905 0.212799 0.958613 0.583225 0.588187 C 0.958868 0.212543 1.470161 -0.00136467 1.997105 -0.00136467 Z M 1.997105 -0.00136467 " stroke="#000000" stroke-width="2" stroke-opacity="1" stroke-miterlimit="4"/></g></g><g clip-path="url(#ea7e935bf7)"><g clip-path="url(#b250c90197)"><path stroke-linecap="butt" transform="matrix(0.748716, 0, 0, 0.748716, 20.891455, 435.217369)" fill="none" stroke-linejoin="miter" d="M 1.997105 0.00184506 L 19.313216 0.00184506 C 19.845377 0.00184506 20.351452 0.210536 20.727095 0.586179 C 21.102738 0.961822 21.311429 1.467897 21.311429 2.000059 L 21.311429 19.310952 C 21.311429 19.843114 21.102738 20.354406 20.727095 20.724832 C 20.351452 21.100475 19.845377 21.314383 19.313216 21.314383 L 1.997105 21.314383 C 1.470161 21.314383 0.958868 21.100475 0.583225 20.724832 C 0.212799 20.354406 -0.00110895 19.843114 -0.00110895 19.310952 L -0.00110895 2.000059 C -0.00110895 1.467897 0.212799 0.961822 0.583225 0.586179 C 0.958868 0.210536 1.470161 0.00184506 1.997105 0.00184506 Z M 1.997105 0.00184506 " stroke="#000000" stroke-width="2" stroke-opacity="1" stroke-miterlimit="4"/></g></g><g clip-path="url(#aacc6d4f27)"><g clip-path="url(#b5c574277e)"><path stroke-linecap="butt" transform="matrix(0.748716, 0, 0, 0.748716, 20.891455, 463.554905)" fill="none" stroke-linejoin="miter" d="M 1.997105 -0.000290475 L 19.313216 -0.000290475 C 19.845377 -0.000290475 20.351452 0.2084 20.727095 0.584043 C 21.102738 0.959687 21.311429 1.470979 21.311429 1.997923 L 21.311429 19.314034 C 21.311429 19.840978 21.102738 20.35227 20.727095 20.727914 C 20.351452 21.103557 19.845377 21.312248 19.313216 21.312248 L 1.997105 21.312248 C 1.470161 21.312248 0.958868 21.103557 0.583225 20.727914 C 0.212799 20.35227 -0.00110895 19.840978 -0.00110895 19.314034 L -0.00110895 1.997923 C -0.00110895 1.470979 0.212799 0.959687 0.583225 0.584043 C 0.958868 0.2084 1.470161 -0.000290475 1.997105 -0.000290475 Z M 1.997105 -0.000290475 " stroke="#000000" stroke-width="2" stroke-opacity="1" stroke-miterlimit="4"/></g></g><g clip-path="url(#88ae42acd4)"><g clip-path="url(#2e0f3b4705)"><path stroke-linecap="butt" transform="matrix(0.748716, 0, 0, 0.748716, 20.891455, 491.892346)" fill="none" stroke-linejoin="miter" d="M 1.997105 -0.00229801 L 19.313216 -0.00229801 C 19.845377 -0.00229801 20.351452 0.21161 20.727095 0.587253 C 21.102738 0.962896 21.311429 1.468971 21.311429 2.001133 L 21.311429 19.312027 C 21.311429 19.844188 21.102738 20.350263 20.727095 20.725906 C 20.351452 21.101549 19.845377 21.31024 19.313216 21.31024 L 1.997105 21.31024 C 1.470161 21.31024 0.958868 21.101549 0.583225 20.725906 C 0.212799 20.350263 -0.00110895 19.844188 -0.00110895 19.312027 L -0.00110895 2.001133 C -0.00110895 1.468971 0.212799 0.962896 0.583225 0.587253 C 0.958868 0.21161 1.470161 -0.00229801 1.997105 -0.00229801 Z M 1.997105 -0.00229801 " stroke="#000000" stroke-width="2" stroke-opacity="1" stroke-miterlimit="4"/></g></g><g clip-path="url(#65d28713a3)"><g clip-path="url(#c29e6f44f6)"><path stroke-linecap="butt" transform="matrix(0.748716, 0, 0, 0.748716, 20.891455, 520.229786)" fill="none" stroke-linejoin="miter" d="M 1.997105 0.000911723 L 19.313216 0.000911723 C 19.845377 0.000911723 20.351452 0.209602 20.727095 0.585246 C 21.102738 0.960889 21.311429 1.466964 21.311429 1.999125 L 21.311429 19.315236 C 21.311429 19.84218 21.102738 20.353472 20.727095 20.729116 C 20.351452 21.099542 19.845377 21.31345 19.313216 21.31345 L 1.997105 21.31345 C 1.470161 21.31345 0.958868 21.099542 0.583225 20.729116 C 0.212799 20.353472 -0.00110895 19.84218 -0.00110895 19.315236 L -0.00110895 1.999125 C -0.00110895 1.466964 0.212799 0.960889 0.583225 0.585246 C 0.958868 0.209602 1.470161 0.000911723 1.997105 0.000911723 Z M 1.997105 0.000911723 " stroke="#000000" stroke-width="2" stroke-opacity="1" stroke-miterlimit="4"/></g></g><g clip-path="url(#523cb58f9b)"><g clip-path="url(#1041da4b88)"><path stroke-linecap="butt" transform="matrix(0.748716, 0, 0, 0.748716, 20.891455, 548.567323)" fill="none" stroke-linejoin="miter" d="M 1.997105 -0.00122381 L 19.313216 -0.00122381 C 19.845377 -0.00122381 20.351452 0.212684 20.727095 0.58311 C 21.102738 0.958753 21.311429 1.470046 21.311429 1.99699 L 21.311429 19.313101 C 21.311429 19.845262 21.102738 20.351337 20.727095 20.72698 C 20.351452 21.102623 19.845377 21.311314 19.313216 21.311314 L 1.997105 21.311314 C 1.470161 21.311314 0.958868 21.102623 0.583225 20.72698 C 0.212799 20.351337 -0.00110895 19.845262 -0.00110895 19.313101 L -0.00110895 1.99699 C -0.00110895 1.470046 0.212799 0.958753 0.583225 0.58311 C 0.958868 0.212684 1.470161 -0.00122381 1.997105 -0.00122381 Z M 1.997105 -0.00122381 " stroke="#000000" stroke-width="2" stroke-opacity="1" stroke-miterlimit="4"/></g></g><g clip-path="url(#837f2a9c2c)"><g clip-path="url(#20eea81a38)"><path stroke-linecap="butt" transform="matrix(0.748716, 0, 0, 0.748716, 20.891455, 576.904763)" fill="none" stroke-linejoin="miter" d="M 1.997105 0.00198592 L 19.313216 0.00198592 C 19.845377 0.00198592 20.351452 0.210677 20.727095 0.58632 C 21.102738 0.961963 21.311429 1.468038 21.311429 2.000199 L 21.311429 19.311093 C 21.311429 19.843254 21.102738 20.349329 20.727095 20.724973 C 20.351452 21.100616 19.845377 21.314524 19.313216 21.314524 L 1.997105 21.314524 C 1.470161 21.314524 0.958868 21.100616 0.583225 20.724973 C 0.212799 20.349329 -0.00110895 19.843254 -0.00110895 19.311093 L -0.00110895 2.000199 C -0.00110895 1.468038 0.212799 0.961963 0.583225 0.58632 C 0.958868 0.210677 1.470161 0.00198592 1.997105 0.00198592 Z M 1.997105 0.00198592 " stroke="#000000" stroke-width="2" stroke-opacity="1" stroke-miterlimit="4"/></g></g><path stroke-linecap="round" transform="matrix(0.748716, 0, 0, 0.748716, 44.36818, 620.160622)" fill="none" stroke-linejoin="miter" d="M 0.499532 0.500236 L 495.440805 0.500236 " stroke="#000000" stroke-width="1" stroke-opacity="1" stroke-miterlimit="4"/><path stroke-linecap="round" transform="matrix(0.748716, 0, 0, 0.748716, 44.36818, 195.098515)" fill="none" stroke-linejoin="miter" d="M 0.499532 0.499711 L 495.440805 0.499711 " stroke="#000000" stroke-width="1" stroke-opacity="1" stroke-miterlimit="4"/><path stroke-linecap="round" transform="matrix(0.748716, 0, 0, 0.748716, 44.36818, 223.435987)" fill="none" stroke-linejoin="miter" d="M 0.499532 0.497661 L 495.440805 0.497661 " stroke="#000000" stroke-width="1" stroke-opacity="1" stroke-miterlimit="4"/><path stroke-linecap="round" transform="matrix(0.748716, 0, 0, 0.748716, 44.36818, 251.773459)" fill="none" stroke-linejoin="miter" d="M 0.499532 0.50083 L 495.440805 0.50083 " stroke="#000000" stroke-width="1" stroke-opacity="1" stroke-miterlimit="4"/><path stroke-linecap="round" transform="matrix(0.748716, 0, 0, 0.748716, 44.36818, 280.110945)" fill="none" stroke-linejoin="miter" d="M 0.499532 0.498761 L 495.440805 0.498761 " stroke="#000000" stroke-width="1" stroke-opacity="1" stroke-miterlimit="4"/><path stroke-linecap="round" transform="matrix(0.748716, 0, 0, 0.748716, 44.36818, 308.448431)" fill="none" stroke-linejoin="miter" d="M 0.499532 0.50191 L 495.440805 0.50191 " stroke="#000000" stroke-width="1" stroke-opacity="1" stroke-miterlimit="4"/><path stroke-linecap="round" transform="matrix(0.748716, 0, 0, 0.748716, 44.36818, 336.785888)" fill="none" stroke-linejoin="miter" d="M 0.499532 0.49988 L 495.440805 0.49988 " stroke="#000000" stroke-width="1" stroke-opacity="1" stroke-miterlimit="4"/><path stroke-linecap="round" transform="matrix(0.748716, 0, 0, 0.748716, 44.36818, 365.123345)" fill="none" stroke-linejoin="miter" d="M 0.499532 0.49785 L 495.440805 0.49785 " stroke="#000000" stroke-width="1" stroke-opacity="1" stroke-miterlimit="4"/><path stroke-linecap="round" transform="matrix(0.748716, 0, 0, 0.748716, 44.36818, 393.46086)" fill="none" stroke-linejoin="miter" d="M 0.499532 0.500961 L 495.440805 0.500961 " stroke="#000000" stroke-width="1" stroke-opacity="1" stroke-miterlimit="4"/><path stroke-linecap="round" transform="matrix(0.748716, 0, 0, 0.748716, 44.36818, 421.798322)" fill="none" stroke-linejoin="miter" d="M 0.499532 0.498925 L 495.440805 0.498925 " stroke="#000000" stroke-width="1" stroke-opacity="1" stroke-miterlimit="4"/><path stroke-linecap="round" transform="matrix(0.748716, 0, 0, 0.748716, 44.36818, 450.135763)" fill="none" stroke-linejoin="miter" d="M 0.499532 0.502134 L 495.440805 0.502134 " stroke="#000000" stroke-width="1" stroke-opacity="1" stroke-miterlimit="4"/><path stroke-linecap="round" transform="matrix(0.748716, 0, 0, 0.748716, 44.36818, 478.473251)" fill="none" stroke-linejoin="miter" d="M 0.499532 0.500063 L 495.440805 0.500063 " stroke="#000000" stroke-width="1" stroke-opacity="1" stroke-miterlimit="4"/><path stroke-linecap="round" transform="matrix(0.748716, 0, 0, 0.748716, 44.36818, 506.81074)" fill="none" stroke-linejoin="miter" d="M 0.499532 0.497991 L 495.440805 0.497991 " stroke="#000000" stroke-width="1" stroke-opacity="1" stroke-miterlimit="4"/><path stroke-linecap="round" transform="matrix(0.748716, 0, 0, 0.748716, 44.36818, 535.148228)" fill="none" stroke-linejoin="miter" d="M 0.499532 0.501137 L 495.440805 0.501137 " stroke="#000000" stroke-width="1" stroke-opacity="1" stroke-miterlimit="4"/><path stroke-linecap="round" transform="matrix(0.748716, 0, 0, 0.748716, 44.36818, 563.485669)" fill="none" stroke-linejoin="miter" d="M 0.499532 0.499129 L 495.440805 0.499129 " stroke="#000000" stroke-width="1" stroke-opacity="1" stroke-miterlimit="4"/><path stroke-linecap="round" transform="matrix(0.748716, 0, 0, 0.748716, 44.36818, 591.823157)" fill="none" stroke-linejoin="miter" d="M 0.499532 0.502275 L 495.440805 0.502275 " stroke="#000000" stroke-width="1" stroke-opacity="1" stroke-miterlimit="4"/><g clip-path="url(#cf259b9d1f)"><path stroke-linecap="butt" transform="matrix(0.748716, 0, 0, 0.748716, 0.00000000000004256, 75.384267)" fill="none" stroke-linejoin="miter" d="M -0.000000000000056843 0.999773 L 582.893964 0.999773 " stroke="#000000" stroke-width="2" stroke-opacity="1" stroke-miterlimit="4"/></g><g transform="matrix(1, 0, 0, 1, 151, 25)"><g clip-path="url(#f2f4c32d80)"><g fill="#404040" fill-opacity="1"><g transform="translate(0.851782, 25.647595)"><g><path d="M 7.5 0 C 7.269531 0 7.082031 -0.0703125 6.9375 -0.21875 C 6.800781 -0.375 6.734375 -0.550781 6.734375 -0.75 L 6.734375 -16.578125 L 8.265625 -16.578125 L 8.265625 -0.75 C 8.265625 -0.550781 8.191406 -0.375 8.046875 -0.21875 C 7.898438 -0.0703125 7.71875 0 7.5 0 Z M 1.59375 -15.96875 C 1.394531 -15.96875 1.21875 -16.035156 1.0625 -16.171875 C 0.914062 -16.304688 0.84375 -16.476562 0.84375 -16.6875 C 0.84375 -16.894531 0.914062 -17.0625 1.0625 -17.1875 C 1.21875 -17.320312 1.394531 -17.390625 1.59375 -17.390625 L 13.421875 -17.390625 C 13.617188 -17.390625 13.789062 -17.320312 13.9375 -17.1875 C 14.082031 -17.0625 14.15625 -16.890625 14.15625 -16.671875 C 14.15625 -16.453125 14.082031 -16.28125 13.9375 -16.15625 C 13.789062 -16.03125 13.617188 -15.96875 13.421875 -15.96875 Z M 1.59375 -15.96875 "/></g></g></g><g fill="#404040" fill-opacity="1"><g transform="translate(15.854234, 25.647595)"><g><path d="M 17.84375 -8.6875 C 17.84375 -7.382812 17.640625 -6.191406 17.234375 -5.109375 C 16.828125 -4.023438 16.25 -3.078125 15.5 -2.265625 C 14.757812 -1.460938 13.878906 -0.84375 12.859375 -0.40625 C 11.835938 0.03125 10.722656 0.25 9.515625 0.25 C 8.304688 0.25 7.191406 0.03125 6.171875 -0.40625 C 5.148438 -0.84375 4.265625 -1.460938 3.515625 -2.265625 C 2.773438 -3.078125 2.203125 -4.023438 1.796875 -5.109375 C 1.390625 -6.191406 1.1875 -7.382812 1.1875 -8.6875 C 1.1875 -10 1.390625 -11.195312 1.796875 -12.28125 C 2.203125 -13.363281 2.773438 -14.304688 3.515625 -15.109375 C 4.265625 -15.921875 5.148438 -16.546875 6.171875 -16.984375 C 7.191406 -17.421875 8.304688 -17.640625 9.515625 -17.640625 C 10.722656 -17.640625 11.835938 -17.421875 12.859375 -16.984375 C 13.878906 -16.546875 14.757812 -15.921875 15.5 -15.109375 C 16.25 -14.304688 16.828125 -13.363281 17.234375 -12.28125 C 17.640625 -11.195312 17.84375 -10 17.84375 -8.6875 Z M 16.25 -8.6875 C 16.25 -10.164062 15.960938 -11.460938 15.390625 -12.578125 C 14.816406 -13.703125 14.023438 -14.578125 13.015625 -15.203125 C 12.003906 -15.828125 10.835938 -16.140625 9.515625 -16.140625 C 8.203125 -16.140625 7.035156 -15.828125 6.015625 -15.203125 C 5.003906 -14.578125 4.210938 -13.703125 3.640625 -12.578125 C 3.066406 -11.460938 2.78125 -10.164062 2.78125 -8.6875 C 2.78125 -7.21875 3.066406 -5.921875 3.640625 -4.796875 C 4.210938 -3.679688 5.003906 -2.804688 6.015625 -2.171875 C 7.035156 -1.546875 8.203125 -1.234375 9.515625 -1.234375 C 10.835938 -1.234375 12.003906 -1.546875 13.015625 -2.171875 C 14.023438 -2.804688 14.816406 -3.679688 15.390625 -4.796875 C 15.960938 -5.921875 16.25 -7.21875 16.25 -8.6875 Z M 16.25 -8.6875 "/></g></g></g><g fill="#404040" fill-opacity="1"><g transform="translate(34.880526, 25.647595)"><g/></g></g><g fill="#404040" fill-opacity="1"><g transform="translate(41.661435, 25.647595)"><g><path d="M 9.421875 -17.390625 C 10.640625 -17.390625 11.707031 -17.15625 12.625 -16.6875 C 13.550781 -16.226562 14.3125 -15.585938 14.90625 -14.765625 C 15.5 -13.953125 15.941406 -13.019531 16.234375 -11.96875 C 16.523438 -10.925781 16.671875 -9.832031 16.671875 -8.6875 C 16.671875 -7.101562 16.410156 -5.648438 15.890625 -4.328125 C 15.367188 -3.015625 14.570312 -1.960938 13.5 -1.171875 C 12.4375 -0.390625 11.078125 0 9.421875 0 L 3.078125 0 C 2.878906 0 2.703125 -0.0703125 2.546875 -0.21875 C 2.398438 -0.375 2.328125 -0.550781 2.328125 -0.75 L 2.328125 -16.640625 C 2.328125 -16.835938 2.398438 -17.007812 2.546875 -17.15625 C 2.703125 -17.3125 2.878906 -17.390625 3.078125 -17.390625 Z M 9.171875 -1.46875 C 10.578125 -1.46875 11.707031 -1.789062 12.5625 -2.4375 C 13.425781 -3.082031 14.0625 -3.953125 14.46875 -5.046875 C 14.875 -6.148438 15.078125 -7.363281 15.078125 -8.6875 C 15.078125 -9.65625 14.960938 -10.570312 14.734375 -11.4375 C 14.515625 -12.3125 14.171875 -13.082031 13.703125 -13.75 C 13.234375 -14.414062 12.617188 -14.941406 11.859375 -15.328125 C 11.109375 -15.722656 10.210938 -15.921875 9.171875 -15.921875 L 3.71875 -15.921875 L 3.90625 -16.140625 L 3.90625 -1.21875 L 3.75 -1.46875 Z M 9.171875 -1.46875 "/></g></g></g><g fill="#404040" fill-opacity="1"><g transform="translate(59.520317, 25.647595)"><g><path d="M 17.84375 -8.6875 C 17.84375 -7.382812 17.640625 -6.191406 17.234375 -5.109375 C 16.828125 -4.023438 16.25 -3.078125 15.5 -2.265625 C 14.757812 -1.460938 13.878906 -0.84375 12.859375 -0.40625 C 11.835938 0.03125 10.722656 0.25 9.515625 0.25 C 8.304688 0.25 7.191406 0.03125 6.171875 -0.40625 C 5.148438 -0.84375 4.265625 -1.460938 3.515625 -2.265625 C 2.773438 -3.078125 2.203125 -4.023438 1.796875 -5.109375 C 1.390625 -6.191406 1.1875 -7.382812 1.1875 -8.6875 C 1.1875 -10 1.390625 -11.195312 1.796875 -12.28125 C 2.203125 -13.363281 2.773438 -14.304688 3.515625 -15.109375 C 4.265625 -15.921875 5.148438 -16.546875 6.171875 -16.984375 C 7.191406 -17.421875 8.304688 -17.640625 9.515625 -17.640625 C 10.722656 -17.640625 11.835938 -17.421875 12.859375 -16.984375 C 13.878906 -16.546875 14.757812 -15.921875 15.5 -15.109375 C 16.25 -14.304688 16.828125 -13.363281 17.234375 -12.28125 C 17.640625 -11.195312 17.84375 -10 17.84375 -8.6875 Z M 16.25 -8.6875 C 16.25 -10.164062 15.960938 -11.460938 15.390625 -12.578125 C 14.816406 -13.703125 14.023438 -14.578125 13.015625 -15.203125 C 12.003906 -15.828125 10.835938 -16.140625 9.515625 -16.140625 C 8.203125 -16.140625 7.035156 -15.828125 6.015625 -15.203125 C 5.003906 -14.578125 4.210938 -13.703125 3.640625 -12.578125 C 3.066406 -11.460938 2.78125 -10.164062 2.78125 -8.6875 C 2.78125 -7.21875 3.066406 -5.921875 3.640625 -4.796875 C 4.210938 -3.679688 5.003906 -2.804688 6.015625 -2.171875 C 7.035156 -1.546875 8.203125 -1.234375 9.515625 -1.234375 C 10.835938 -1.234375 12.003906 -1.546875 13.015625 -2.171875 C 14.023438 -2.804688 14.816406 -3.679688 15.390625 -4.796875 C 15.960938 -5.921875 16.25 -7.21875 16.25 -8.6875 Z M 16.25 -8.6875 "/></g></g></g><g fill="#404040" fill-opacity="1"><g transform="translate(78.546609, 25.647595)"><g/></g></g><g fill="#404040" fill-opacity="1"><g transform="translate(85.327518, 25.647595)"><g><path d="M 11.953125 -1.46875 C 12.148438 -1.46875 12.320312 -1.394531 12.46875 -1.25 C 12.613281 -1.113281 12.6875 -0.945312 12.6875 -0.75 C 12.6875 -0.53125 12.613281 -0.347656 12.46875 -0.203125 C 12.320312 -0.0664062 12.148438 0 11.953125 0 L 3.078125 0 C 2.859375 0 2.675781 -0.0703125 2.53125 -0.21875 C 2.394531 -0.375 2.328125 -0.550781 2.328125 -0.75 L 2.328125 -16.640625 C 2.328125 -16.835938 2.398438 -17.007812 2.546875 -17.15625 C 2.703125 -17.3125 2.894531 -17.390625 3.125 -17.390625 C 3.320312 -17.390625 3.5 -17.3125 3.65625 -17.15625 C 3.820312 -17.007812 3.90625 -16.835938 3.90625 -16.640625 L 3.90625 -1.046875 L 3.421875 -1.46875 Z M 11.953125 -1.46875 "/></g></g></g><g fill="#404040" fill-opacity="1"><g transform="translate(98.541606, 25.647595)"><g><path d="M 3.90625 -0.765625 C 3.882812 -0.554688 3.796875 -0.375 3.640625 -0.21875 C 3.484375 -0.0703125 3.304688 0 3.109375 0 C 2.867188 0 2.675781 -0.0703125 2.53125 -0.21875 C 2.394531 -0.375 2.328125 -0.554688 2.328125 -0.765625 L 2.328125 -16.625 C 2.328125 -16.832031 2.398438 -17.007812 2.546875 -17.15625 C 2.703125 -17.3125 2.894531 -17.390625 3.125 -17.390625 C 3.320312 -17.390625 3.5 -17.3125 3.65625 -17.15625 C 3.820312 -17.007812 3.90625 -16.832031 3.90625 -16.625 Z M 3.90625 -0.765625 "/></g></g></g><g fill="#404040" fill-opacity="1"><g transform="translate(104.751226, 25.647595)"><g><path d="M 7.125 0.25 C 5.863281 0.257812 4.769531 0.0625 3.84375 -0.34375 C 2.914062 -0.757812 2.03125 -1.382812 1.1875 -2.21875 C 1.101562 -2.28125 1.03125 -2.359375 0.96875 -2.453125 C 0.914062 -2.554688 0.890625 -2.675781 0.890625 -2.8125 C 0.890625 -3.007812 0.96875 -3.191406 1.125 -3.359375 C 1.28125 -3.523438 1.460938 -3.609375 1.671875 -3.609375 C 1.867188 -3.609375 2.050781 -3.523438 2.21875 -3.359375 C 2.863281 -2.660156 3.59375 -2.128906 4.40625 -1.765625 C 5.226562 -1.398438 6.113281 -1.21875 7.0625 -1.21875 C 7.851562 -1.21875 8.554688 -1.34375 9.171875 -1.59375 C 9.796875 -1.84375 10.289062 -2.195312 10.65625 -2.65625 C 11.019531 -3.125 11.203125 -3.660156 11.203125 -4.265625 C 11.203125 -5.035156 10.992188 -5.65625 10.578125 -6.125 C 10.171875 -6.59375 9.625 -6.976562 8.9375 -7.28125 C 8.257812 -7.59375 7.507812 -7.875 6.6875 -8.125 C 6.007812 -8.320312 5.363281 -8.546875 4.75 -8.796875 C 4.132812 -9.054688 3.585938 -9.375 3.109375 -9.75 C 2.628906 -10.125 2.253906 -10.582031 1.984375 -11.125 C 1.722656 -11.675781 1.59375 -12.34375 1.59375 -13.125 C 1.59375 -14 1.820312 -14.773438 2.28125 -15.453125 C 2.75 -16.128906 3.410156 -16.660156 4.265625 -17.046875 C 5.117188 -17.441406 6.109375 -17.640625 7.234375 -17.640625 C 8.203125 -17.640625 9.140625 -17.472656 10.046875 -17.140625 C 10.953125 -16.804688 11.671875 -16.316406 12.203125 -15.671875 C 12.453125 -15.410156 12.578125 -15.171875 12.578125 -14.953125 C 12.578125 -14.785156 12.492188 -14.617188 12.328125 -14.453125 C 12.160156 -14.285156 11.976562 -14.203125 11.78125 -14.203125 C 11.613281 -14.203125 11.472656 -14.265625 11.359375 -14.390625 C 11.078125 -14.734375 10.71875 -15.039062 10.28125 -15.3125 C 9.851562 -15.582031 9.378906 -15.789062 8.859375 -15.9375 C 8.335938 -16.09375 7.796875 -16.171875 7.234375 -16.171875 C 6.453125 -16.171875 5.75 -16.050781 5.125 -15.8125 C 4.507812 -15.570312 4.019531 -15.226562 3.65625 -14.78125 C 3.300781 -14.332031 3.125 -13.796875 3.125 -13.171875 C 3.125 -12.472656 3.320312 -11.898438 3.71875 -11.453125 C 4.125 -11.003906 4.648438 -10.632812 5.296875 -10.34375 C 5.941406 -10.050781 6.628906 -9.785156 7.359375 -9.546875 C 8.066406 -9.335938 8.75 -9.101562 9.40625 -8.84375 C 10.0625 -8.59375 10.640625 -8.273438 11.140625 -7.890625 C 11.648438 -7.515625 12.046875 -7.035156 12.328125 -6.453125 C 12.617188 -5.878906 12.765625 -5.148438 12.765625 -4.265625 C 12.765625 -3.421875 12.523438 -2.660156 12.046875 -1.984375 C 11.566406 -1.304688 10.90625 -0.769531 10.0625 -0.375 C 9.226562 0.0195312 8.25 0.226562 7.125 0.25 Z M 7.125 0.25 "/></g></g></g><g fill="#404040" fill-opacity="1"><g transform="translate(118.710466, 25.647595)"><g><path d="M 7.5 0 C 7.269531 0 7.082031 -0.0703125 6.9375 -0.21875 C 6.800781 -0.375 6.734375 -0.550781 6.734375 -0.75 L 6.734375 -16.578125 L 8.265625 -16.578125 L 8.265625 -0.75 C 8.265625 -0.550781 8.191406 -0.375 8.046875 -0.21875 C 7.898438 -0.0703125 7.71875 0 7.5 0 Z M 1.59375 -15.96875 C 1.394531 -15.96875 1.21875 -16.035156 1.0625 -16.171875 C 0.914062 -16.304688 0.84375 -16.476562 0.84375 -16.6875 C 0.84375 -16.894531 0.914062 -17.0625 1.0625 -17.1875 C 1.21875 -17.320312 1.394531 -17.390625 1.59375 -17.390625 L 13.421875 -17.390625 C 13.617188 -17.390625 13.789062 -17.320312 13.9375 -17.1875 C 14.082031 -17.0625 14.15625 -16.890625 14.15625 -16.671875 C 14.15625 -16.453125 14.082031 -16.28125 13.9375 -16.15625 C 13.789062 -16.03125 13.617188 -15.96875 13.421875 -15.96875 Z M 1.59375 -15.96875 "/></g></g></g></g></g></svg>