<svg xmlns="http://www.w3.org/2000/svg" xmlns:xlink="http://www.w3.org/1999/xlink" width="583" zoomAndPan="magnify" viewBox="0 0 437.25 674.99998" height="900" preserveAspectRatio="xMidYMid meet" version="1.0"><defs><clipPath id="e9ed017032"><path d="M 0 33.808594 L 436.5 33.808594 L 436.5 35 L 0 35 Z M 0 33.808594 " clip-rule="nonzero"/></clipPath><clipPath id="bc4352a5f5"><path d="M 0 68 L 436.5 68 L 436.5 70 L 0 70 Z M 0 68 " clip-rule="nonzero"/></clipPath><clipPath id="db06467631"><path d="M 0 103 L 436.5 103 L 436.5 105 L 0 105 Z M 0 103 " clip-rule="nonzero"/></clipPath><clipPath id="2abb8048ae"><path d="M 0 138 L 436.5 138 L 436.5 140 L 0 140 Z M 0 138 " clip-rule="nonzero"/></clipPath><clipPath id="d21ae6853e"><path d="M 0 173 L 436.5 173 L 436.5 175 L 0 175 Z M 0 173 " clip-rule="nonzero"/></clipPath><clipPath id="45a501b06a"><path d="M 0 208 L 436.5 208 L 436.5 210 L 0 210 Z M 0 208 " clip-rule="nonzero"/></clipPath><clipPath id="f9ad4fc98c"><path d="M 0 243 L 436.5 243 L 436.5 244.949219 L 0 244.949219 Z M 0 243 " clip-rule="nonzero"/></clipPath><clipPath id="b2ea780fb4"><path d="M 0 277.535156 L 436.5 277.535156 L 436.5 279 L 0 279 Z M 0 277.535156 " clip-rule="nonzero"/></clipPath><clipPath id="68d6d750d3"><path d="M 0 312 L 436.5 312 L 436.5 314 L 0 314 Z M 0 312 " clip-rule="nonzero"/></clipPath><clipPath id="a1415ce0ce"><path d="M 0 347 L 436.5 347 L 436.5 349 L 0 349 Z M 0 347 " clip-rule="nonzero"/></clipPath><clipPath id="4773c18f8c"><path d="M 0 382 L 436.5 382 L 436.5 384 L 0 384 Z M 0 382 " clip-rule="nonzero"/></clipPath><clipPath id="bfb344afeb"><path d="M 0 417 L 436.5 417 L 436.5 419 L 0 419 Z M 0 417 " clip-rule="nonzero"/></clipPath><clipPath id="2bda3e0007"><path d="M 0 452 L 436.5 452 L 436.5 454 L 0 454 Z M 0 452 " clip-rule="nonzero"/></clipPath><clipPath id="2dfe350e7c"><path d="M 0 487 L 436.5 487 L 436.5 488.675781 L 0 488.675781 Z M 0 487 " clip-rule="nonzero"/></clipPath><clipPath id="42f7f8158c"><path d="M 0 521.636719 L 436.5 521.636719 L 436.5 523 L 0 523 Z M 0 521.636719 " clip-rule="nonzero"/></clipPath><clipPath id="6b08315868"><path d="M 0 556 L 436.5 556 L 436.5 558 L 0 558 Z M 0 556 " clip-rule="nonzero"/></clipPath><clipPath id="1347506c56"><path d="M 0 591 L 436.5 591 L 436.5 593 L 0 593 Z M 0 591 " clip-rule="nonzero"/></clipPath><clipPath id="8dcedcf884"><path d="M 0 626 L 436.5 626 L 436.5 628 L 0 628 Z M 0 626 " clip-rule="nonzero"/></clipPath><clipPath id="78bdc11a4f"><path d="M 0 661 L 436.5 661 L 436.5 663 L 0 663 Z M 0 661 " clip-rule="nonzero"/></clipPath></defs><g clip-path="url(#e9ed017032)"><path fill="#000000" d="M 0.128906 33.808594 L 436.375 33.808594 L 436.375 34.976562 L 0.128906 34.976562 Z M 0.128906 33.808594 " fill-opacity="1" fill-rule="nonzero"/></g><g clip-path="url(#bc4352a5f5)"><path fill="#000000" d="M 0.128906 68.804688 L 436.375 68.804688 L 436.375 69.972656 L 0.128906 69.972656 Z M 0.128906 68.804688 " fill-opacity="1" fill-rule="nonzero"/></g><g clip-path="url(#db06467631)"><path fill="#000000" d="M 0.128906 103.796875 L 436.375 103.796875 L 436.375 104.964844 L 0.128906 104.964844 Z M 0.128906 103.796875 " fill-opacity="1" fill-rule="nonzero"/></g><g clip-path="url(#2abb8048ae)"><path fill="#000000" d="M 0.128906 138.800781 L 436.375 138.800781 L 436.375 139.96875 L 0.128906 139.96875 Z M 0.128906 138.800781 " fill-opacity="1" fill-rule="nonzero"/></g><g clip-path="url(#d21ae6853e)"><path fill="#000000" d="M 0.128906 173.792969 L 436.375 173.792969 L 436.375 174.960938 L 0.128906 174.960938 Z M 0.128906 173.792969 " fill-opacity="1" fill-rule="nonzero"/></g><g clip-path="url(#45a501b06a)"><path fill="#000000" d="M 0.128906 208.785156 L 436.375 208.785156 L 436.375 209.953125 L 0.128906 209.953125 Z M 0.128906 208.785156 " fill-opacity="1" fill-rule="nonzero"/></g><g clip-path="url(#f9ad4fc98c)"><path fill="#000000" d="M 0.128906 243.78125 L 436.375 243.78125 L 436.375 244.949219 L 0.128906 244.949219 Z M 0.128906 243.78125 " fill-opacity="1" fill-rule="nonzero"/></g><g clip-path="url(#b2ea780fb4)"><path fill="#000000" d="M 0.128906 277.535156 L 436.375 277.535156 L 436.375 278.703125 L 0.128906 278.703125 Z M 0.128906 277.535156 " fill-opacity="1" fill-rule="nonzero"/></g><g clip-path="url(#68d6d750d3)"><path fill="#000000" d="M 0.128906 312.53125 L 436.375 312.53125 L 436.375 313.699219 L 0.128906 313.699219 Z M 0.128906 312.53125 " fill-opacity="1" fill-rule="nonzero"/></g><g clip-path="url(#a1415ce0ce)"><path fill="#000000" d="M 0.128906 347.523438 L 436.375 347.523438 L 436.375 348.691406 L 0.128906 348.691406 Z M 0.128906 347.523438 " fill-opacity="1" fill-rule="nonzero"/></g><g clip-path="url(#4773c18f8c)"><path fill="#000000" d="M 0.128906 382.527344 L 436.375 382.527344 L 436.375 383.695312 L 0.128906 383.695312 Z M 0.128906 382.527344 " fill-opacity="1" fill-rule="nonzero"/></g><g clip-path="url(#bfb344afeb)"><path fill="#000000" d="M 0.128906 417.519531 L 436.375 417.519531 L 436.375 418.6875 L 0.128906 418.6875 Z M 0.128906 417.519531 " fill-opacity="1" fill-rule="nonzero"/></g><g clip-path="url(#2bda3e0007)"><path fill="#000000" d="M 0.128906 452.511719 L 436.375 452.511719 L 436.375 453.679688 L 0.128906 453.679688 Z M 0.128906 452.511719 " fill-opacity="1" fill-rule="nonzero"/></g><g clip-path="url(#2dfe350e7c)"><path fill="#000000" d="M 0.128906 487.507812 L 436.375 487.507812 L 436.375 488.675781 L 0.128906 488.675781 Z M 0.128906 487.507812 " fill-opacity="1" fill-rule="nonzero"/></g><g clip-path="url(#42f7f8158c)"><path fill="#000000" d="M 0.128906 521.636719 L 436.375 521.636719 L 436.375 522.804688 L 0.128906 522.804688 Z M 0.128906 521.636719 " fill-opacity="1" fill-rule="nonzero"/></g><g clip-path="url(#6b08315868)"><path fill="#000000" d="M 0.128906 556.628906 L 436.375 556.628906 L 436.375 557.796875 L 0.128906 557.796875 Z M 0.128906 556.628906 " fill-opacity="1" fill-rule="nonzero"/></g><g clip-path="url(#1347506c56)"><path fill="#000000" d="M 0.128906 591.625 L 436.375 591.625 L 436.375 592.792969 L 0.128906 592.792969 Z M 0.128906 591.625 " fill-opacity="1" fill-rule="nonzero"/></g><g clip-path="url(#8dcedcf884)"><path fill="#000000" d="M 0.128906 626.628906 L 436.375 626.628906 L 436.375 627.796875 L 0.128906 627.796875 Z M 0.128906 626.628906 " fill-opacity="1" fill-rule="nonzero"/></g><g clip-path="url(#78bdc11a4f)"><path fill="#000000" d="M 0.128906 661.621094 L 436.375 661.621094 L 436.375 662.789062 L 0.128906 662.789062 Z M 0.128906 661.621094 " fill-opacity="1" fill-rule="nonzero"/></g></svg>