<svg xmlns="http://www.w3.org/2000/svg" xmlns:xlink="http://www.w3.org/1999/xlink" width="600" zoomAndPan="magnify" viewBox="0 0 450 299.999988" height="400" preserveAspectRatio="xMidYMid meet" version="1.0"><defs><g/><clipPath id="d32f1a2c66"><path d="M 0.289062 0.652344 L 361.804688 0.652344 L 361.804688 240.945312 L 0.289062 240.945312 Z M 0.289062 0.652344 " clip-rule="nonzero"/></clipPath><clipPath id="c128d9b9bd"><rect x="0" width="128" y="0" height="34"/></clipPath><clipPath id="3932a2ab2d"><rect x="0" width="362" y="0" height="242"/></clipPath></defs><g transform="matrix(1, 0, 0, 1, 44, 29)"><g clip-path="url(#3932a2ab2d)"><path fill="#ffffff" d="M 31.769531 1.867188 L 330.234375 1.867188 C 346.886719 1.867188 360.515625 15.496094 360.515625 32.148438 L 360.515625 209.5 C 360.515625 226.152344 346.886719 239.78125 330.234375 239.78125 L 31.769531 239.78125 C 15.117188 239.78125 1.492188 226.152344 1.492188 209.5 L 1.492188 32.148438 C 1.492188 15.496094 15.117188 1.867188 31.769531 1.867188 " fill-opacity="1" fill-rule="evenodd"/><path fill="#ffffff" d="M 31.769531 1.867188 L 330.234375 1.867188 C 346.886719 1.867188 360.515625 15.496094 360.515625 32.148438 L 360.515625 60.988281 L 1.492188 60.988281 L 1.492188 32.148438 C 1.492188 15.496094 15.117188 1.867188 31.769531 1.867188 " fill-opacity="1" fill-rule="evenodd"/><g clip-path="url(#d32f1a2c66)"><path fill="#000000" d="M 2.691406 59.785156 L 359.304688 59.785156 L 359.304688 32.148438 C 359.304688 24.152344 356.035156 16.886719 350.761719 11.613281 C 345.492188 6.339844 338.226562 3.070312 330.226562 3.070312 L 31.769531 3.070312 C 23.773438 3.070312 16.507812 6.339844 11.234375 11.613281 C 5.964844 16.886719 2.691406 24.152344 2.691406 32.148438 Z M 359.304688 62.191406 L 2.691406 62.191406 L 2.691406 209.5 C 2.691406 217.496094 5.964844 224.761719 11.234375 230.035156 C 16.507812 235.308594 23.773438 238.578125 31.769531 238.578125 L 330.234375 238.578125 C 338.234375 238.578125 345.5 235.308594 350.769531 230.035156 C 356.042969 224.761719 359.3125 217.496094 359.3125 209.5 L 359.3125 62.191406 Z M 31.769531 0.671875 L 330.234375 0.671875 C 338.890625 0.671875 346.761719 4.214844 352.464844 9.917969 C 358.171875 15.625 361.710938 23.492188 361.710938 32.148438 L 361.710938 209.5 C 361.710938 218.15625 358.171875 226.023438 352.464844 231.730469 C 346.761719 237.433594 338.890625 240.976562 330.234375 240.976562 L 31.769531 240.976562 C 23.117188 240.976562 15.246094 237.433594 9.539062 231.730469 C 3.828125 226.023438 0.289062 218.15625 0.289062 209.5 L 0.289062 32.148438 C 0.289062 23.492188 3.828125 15.625 9.53125 9.917969 C 15.238281 4.214844 23.109375 0.671875 31.769531 0.671875 Z M 31.769531 0.671875 " fill-opacity="1" fill-rule="nonzero"/></g><path fill="#ffffff" d="M 238.035156 23.964844 C 239.566406 23.824219 242.15625 24.226562 244.203125 25.113281 C 245.734375 25.808594 246.480469 27.308594 246.25 28.601562 C 245.785156 31.140625 241.140625 31.109375 238.003906 30.132812 C 237.921875 27.480469 237.921875 25.605469 238.035156 23.964844 M 237.492188 21.882812 C 235.90625 21.941406 235.039062 22.222656 234.316406 22.515625 C 233.390625 22.890625 233.621094 24.621094 234.808594 24.390625 C 235.011719 24.359375 235.332031 24.277344 235.675781 24.1875 C 235.585938 27.878906 235.734375 32.785156 236.019531 39.617188 C 236.019531 40.914062 238.066406 41.027344 238.15625 39.789062 C 238.09375 37.449219 237.953125 34.628906 237.894531 32.261719 C 238.417969 32.351562 238.820312 32.492188 239.222656 32.664062 C 242.023438 34.566406 245.21875 40.734375 249.371094 40.59375 C 250.582031 40.59375 251.042969 38.578125 249.714844 38.578125 C 247.09375 38.546875 243.769531 33.761719 242.308594 32.410156 C 245.046875 32.671875 248.222656 31.542969 248.625 28.570312 C 248.824219 25.832031 246.921875 23.84375 244.964844 23.039062 C 242.21875 21.800781 239.796875 21.738281 237.492188 21.882812 Z M 230.597656 22.089844 C 228.089844 21.976562 220.128906 21.917969 218.890625 22.089844 C 218.515625 22.121094 218.082031 22.179688 217.621094 22.230469 C 216.378906 22.574219 216.289062 24.417969 217.882812 24.367188 L 218.375 24.277344 C 218.375 24.710938 218.484375 29.730469 218.574219 32.933594 C 218.574219 33.246094 218.71875 35.328125 218.6875 36.480469 C 218.6875 38.121094 218.65625 39.101562 219 40.488281 C 219.03125 40.921875 219.777344 41.296875 219.925781 41.296875 C 225.058594 41.296875 226.011719 41.09375 227.714844 40.984375 C 228.523438 40.921875 229.476562 40.871094 231.121094 40.871094 C 233.136719 40.871094 233.601562 38.882812 231.554688 38.703125 C 230.628906 38.703125 224.117188 39.28125 221.085938 39.136719 C 220.996094 38.472656 220.851562 32.941406 220.851562 32.566406 C 222.957031 32.566406 227.515625 32.878906 231.121094 32.222656 C 232.824219 31.328125 232.070312 30.085938 230.394531 30.207031 C 227.976562 30.5 223.363281 30.582031 220.824219 30.410156 C 220.792969 28.824219 220.652344 24.785156 220.621094 24.179688 C 221.832031 24.089844 229.125 24.269531 230.597656 24.269531 C 232.160156 24.136719 232.1875 22.03125 230.597656 22.089844 Z M 202.050781 24.136719 C 203.835938 23.90625 205.828125 23.875 207.875 24.335938 C 211.109375 25.085938 212.863281 27.824219 212.863281 30.828125 C 212.863281 34.058594 210.644531 36.421875 207.179688 37.578125 C 204.84375 38.242188 204.269531 38.355469 202.28125 38.355469 C 202.511719 34.628906 202.574219 27.886719 202.050781 24.136719 Z M 198.703125 22.777344 C 197.636719 23.179688 198.414062 25.285156 199.710938 24.710938 C 199.621094 24.742188 199.742188 24.679688 199.882812 24.652344 C 200.460938 29.175781 200.226562 34.054688 199.972656 38.980469 C 199.914062 39.585938 200.378906 40.421875 201.304688 40.421875 C 203.722656 40.734375 207.015625 40.25 210.011719 38.71875 C 213.242188 36.957031 215.140625 34.507812 215.089844 30.558594 C 215.058594 28.109375 213.738281 24.441406 210.644531 23 C 207.039062 21.628906 202.796875 21.425781 198.703125 22.777344 Z M 184.457031 22.140625 C 183.792969 21.597656 182.722656 21.710938 182.695312 22.664062 C 182.261719 29.265625 183.1875 32.558594 182.582031 39.59375 C 182.492188 40.570312 184.285156 41.410156 184.777344 39.996094 C 185.210938 34.835938 184.664062 30.59375 184.664062 25.949219 C 186.367188 28.460938 187.636719 30.738281 188.125 31.460938 C 190.371094 34.808594 193.113281 38.265625 194.8125 40.488281 C 195.507812 41.125 196.597656 40.75 196.628906 39.652344 C 196.515625 38.121094 196.570312 34.320312 196.457031 32.730469 C 196.398438 32.007812 196.316406 29.296875 196.023438 23.128906 C 195.964844 21.6875 193.714844 21.367188 193.828125 22.925781 L 194.261719 32.871094 C 194.351562 33.972656 194.605469 35.644531 194.664062 36.824219 C 193.535156 35.351562 190.714844 31.917969 189.414062 29.667969 C 188.609375 28.601562 186.105469 24.136719 184.457031 22.140625 Z M 178.117188 21.738281 C 172.753906 21.738281 174.941406 21.769531 170.964844 21.941406 C 170.214844 22 169.664062 23.957031 170.875 23.957031 C 172.859375 23.816406 173.039062 23.785156 173.695312 23.785156 C 173.808594 27.796875 173.839844 29.929688 173.925781 31.859375 C 174.070312 34.367188 174.128906 37.390625 174.070312 38.488281 C 173.375 38.488281 172.253906 38.429688 171.390625 38.488281 C 170.613281 38.519531 170.460938 40.675781 171.300781 40.59375 C 175.25 40.453125 178.160156 40.796875 179.691406 40.59375 C 180.761719 40.453125 180.902344 38.457031 179.894531 38.519531 C 178.855469 38.660156 177.355469 38.609375 176.316406 38.519531 C 176.316406 35.433594 176.289062 34.023438 176.144531 31.828125 C 176.003906 29.839844 176.003906 27.644531 176.003906 23.636719 C 176.953125 23.636719 177.765625 23.34375 178.140625 23.898438 C 178.773438 24.824219 180.042969 24.53125 180.042969 23.351562 C 180.019531 22.261719 179.15625 21.738281 178.117188 21.738281 Z M 153.632812 22.808594 C 153.316406 21.539062 151.816406 21.828125 151.382812 23.121094 C 149.417969 27.9375 149.277344 34.277344 147 39.210938 C 146.539062 40.855469 148.472656 41.230469 149.105469 39.847656 C 150.433594 37.046875 152.308594 27.96875 152.5625 26.554688 C 152.882812 27.625 153.339844 29.238281 153.894531 31.664062 C 154.414062 34.03125 155.421875 36.621094 156.34375 38.957031 C 156.886719 40.289062 157.523438 41.238281 158.449219 39.707031 C 159.375 38.03125 160.234375 35.957031 161.097656 33.558594 C 161.359375 32.722656 161.761719 31.050781 163.0625 27.128906 C 163.355469 28.773438 163.699219 31.253906 163.988281 32.261719 C 164.480469 34.105469 165.832031 38.75 166.667969 40.332031 C 167.132812 41.484375 169.289062 40.707031 168.773438 39.207031 C 168 37.765625 166.558594 33.550781 166.09375 31.679688 C 165.054688 27.324219 165.199219 25.855469 164.5625 22.851562 C 164.421875 21.8125 162.921875 21.785156 162.429688 22.710938 C 161.5625 24.554688 160.695312 26.953125 159.484375 31.183594 C 158.992188 32.859375 158.359375 34.5 157.613281 36.316406 C 156.917969 34.441406 156.109375 32.363281 155.9375 31.007812 C 155.59375 28.347656 154.09375 24.308594 153.632812 22.808594 Z M 143.394531 22.089844 C 140.882812 21.976562 132.925781 21.917969 131.683594 22.089844 C 131.3125 22.121094 130.878906 22.179688 130.414062 22.230469 C 129.175781 22.574219 129.085938 24.417969 130.675781 24.367188 L 131.167969 24.277344 C 131.167969 24.710938 131.28125 29.730469 131.371094 32.933594 C 131.371094 33.246094 131.511719 35.328125 131.484375 36.480469 C 131.484375 38.121094 131.453125 39.101562 131.796875 40.488281 C 131.828125 40.921875 132.574219 41.296875 132.722656 41.296875 C 137.851562 41.296875 138.808594 41.09375 140.511719 40.984375 C 141.316406 40.921875 142.273438 40.871094 143.917969 40.871094 C 145.933594 40.871094 146.394531 38.882812 144.347656 38.703125 C 143.421875 38.703125 136.910156 39.28125 133.878906 39.136719 C 133.789062 38.472656 133.648438 32.941406 133.648438 32.566406 C 135.753906 32.566406 140.308594 32.878906 143.917969 32.222656 C 145.617188 31.328125 144.863281 30.085938 143.191406 30.207031 C 140.773438 30.5 136.15625 30.582031 133.617188 30.410156 C 133.589844 28.824219 133.445312 24.785156 133.417969 24.179688 C 134.625 24.089844 141.921875 24.269531 143.394531 24.269531 C 144.953125 24.136719 144.984375 22.03125 143.394531 22.089844 Z M 115.601562 23.964844 C 117.128906 23.824219 119.722656 24.226562 121.769531 25.113281 C 123.296875 25.808594 124.046875 27.308594 123.8125 28.601562 C 123.351562 31.140625 118.707031 31.109375 115.570312 30.132812 C 115.480469 27.480469 115.480469 25.605469 115.601562 23.964844 Z M 115.046875 21.882812 C 113.464844 21.941406 112.597656 22.222656 111.875 22.515625 C 110.949219 22.890625 111.179688 24.621094 112.367188 24.390625 C 112.566406 24.359375 112.890625 24.277344 113.234375 24.1875 C 113.144531 27.878906 113.292969 32.785156 113.574219 39.617188 C 113.574219 40.914062 115.621094 41.027344 115.710938 39.789062 C 115.652344 37.449219 115.511719 34.628906 115.449219 32.261719 C 115.972656 32.351562 116.375 32.492188 116.78125 32.664062 C 119.578125 34.566406 122.777344 40.734375 126.929688 40.59375 C 128.136719 40.59375 128.601562 38.578125 127.269531 38.578125 C 124.648438 38.546875 121.328125 33.761719 119.863281 32.410156 C 122.605469 32.671875 125.777344 31.542969 126.179688 28.570312 C 126.382812 25.832031 124.476562 23.84375 122.523438 23.039062 C 119.78125 21.800781 117.355469 21.738281 115.046875 21.882812 Z M 115.046875 21.882812 " fill-opacity="1" fill-rule="nonzero"/><g transform="matrix(1, 0, 0, 1, 117, 12)"><g clip-path="url(#c128d9b9bd)"><g fill="#000000" fill-opacity="1"><g transform="translate(1.010781, 25.080531)"><g><path d="M 1.921875 0 L 1.921875 -17.484375 L 9.40625 -17.484375 C 11.101562 -17.484375 12.476562 -17.019531 13.53125 -16.09375 C 14.582031 -15.164062 15.109375 -13.953125 15.109375 -12.453125 C 15.109375 -11.304688 14.769531 -10.316406 14.09375 -9.484375 C 13.414062 -8.648438 12.515625 -8.078125 11.390625 -7.765625 L 15.3125 0 L 13.1875 0 L 9.4375 -7.515625 L 3.84375 -7.515625 L 3.84375 0 Z M 9.28125 -15.75 L 3.84375 -15.75 L 3.84375 -9.140625 L 9.28125 -9.140625 C 10.445312 -9.140625 11.390625 -9.441406 12.109375 -10.046875 C 12.828125 -10.660156 13.1875 -11.460938 13.1875 -12.453125 C 13.1875 -13.453125 12.828125 -14.25 12.109375 -14.84375 C 11.390625 -15.445312 10.445312 -15.75 9.28125 -15.75 Z M 9.28125 -15.75 "/></g></g></g><g fill="#000000" fill-opacity="1"><g transform="translate(17.116115, 25.080531)"><g><path d="M 1.921875 0 L 1.921875 -17.484375 L 14.4375 -17.484375 L 14.4375 -15.78125 L 3.84375 -15.78125 L 3.84375 -9.65625 L 10.765625 -9.65625 L 10.765625 -7.984375 L 3.84375 -7.984375 L 3.84375 -1.703125 L 14.53125 -1.703125 L 14.53125 0 Z M 1.921875 0 "/></g></g></g><g fill="#000000" fill-opacity="1"><g transform="translate(32.497333, 25.080531)"><g><path d="M 10.5625 -1.25 L 3.71875 -15.25 L 3.71875 0 L 1.921875 0 L 1.921875 -17.484375 L 4.625 -17.484375 L 10.59375 -5.0625 L 16.53125 -17.484375 L 19.21875 -17.484375 L 19.21875 0 L 17.40625 0 L 17.40625 -15.28125 Z M 10.5625 -1.25 "/></g></g></g><g fill="#000000" fill-opacity="1"><g transform="translate(53.646511, 25.080531)"><g><path d="M 1.921875 0 L 1.921875 -17.484375 L 3.84375 -17.484375 L 3.84375 0 Z M 1.921875 0 "/></g></g></g><g fill="#000000" fill-opacity="1"><g transform="translate(59.414472, 25.080531)"><g><path d="M 1.921875 -17.484375 L 3.84375 -17.484375 L 14.359375 -3.296875 L 14.359375 -17.484375 L 16.1875 -17.484375 L 16.1875 0 L 14.484375 0 L 3.75 -14.5625 L 3.75 0 L 1.921875 0 Z M 1.921875 -17.484375 "/></g></g></g><g fill="#000000" fill-opacity="1"><g transform="translate(77.51737, 25.080531)"><g><path d="M 1.921875 0 L 1.921875 -17.484375 L 7.6875 -17.484375 C 9 -17.484375 10.222656 -17.257812 11.359375 -16.8125 C 12.492188 -16.375 13.46875 -15.769531 14.28125 -15 C 15.09375 -14.238281 15.726562 -13.320312 16.1875 -12.25 C 16.644531 -11.175781 16.875 -10.003906 16.875 -8.734375 C 16.875 -7.472656 16.644531 -6.304688 16.1875 -5.234375 C 15.726562 -4.160156 15.09375 -3.238281 14.28125 -2.46875 C 13.476562 -1.707031 12.507812 -1.101562 11.375 -0.65625 C 10.25 -0.21875 9.019531 0 7.6875 0 Z M 7.796875 -15.734375 L 3.84375 -15.734375 L 3.84375 -1.75 L 7.796875 -1.75 C 8.785156 -1.75 9.722656 -1.925781 10.609375 -2.28125 C 11.492188 -2.644531 12.25 -3.132812 12.875 -3.75 C 13.507812 -4.375 14.007812 -5.113281 14.375 -5.96875 C 14.75 -6.832031 14.9375 -7.753906 14.9375 -8.734375 C 14.9375 -9.722656 14.75 -10.644531 14.375 -11.5 C 14.007812 -12.351562 13.507812 -13.09375 12.875 -13.71875 C 12.25 -14.34375 11.492188 -14.832031 10.609375 -15.1875 C 9.722656 -15.550781 8.785156 -15.734375 7.796875 -15.734375 Z M 7.796875 -15.734375 "/></g></g></g><g fill="#000000" fill-opacity="1"><g transform="translate(95.495428, 25.080531)"><g><path d="M 1.921875 0 L 1.921875 -17.484375 L 14.4375 -17.484375 L 14.4375 -15.78125 L 3.84375 -15.78125 L 3.84375 -9.65625 L 10.765625 -9.65625 L 10.765625 -7.984375 L 3.84375 -7.984375 L 3.84375 -1.703125 L 14.53125 -1.703125 L 14.53125 0 Z M 1.921875 0 "/></g></g></g><g fill="#000000" fill-opacity="1"><g transform="translate(110.876646, 25.080531)"><g><path d="M 1.921875 0 L 1.921875 -17.484375 L 9.40625 -17.484375 C 11.101562 -17.484375 12.476562 -17.019531 13.53125 -16.09375 C 14.582031 -15.164062 15.109375 -13.953125 15.109375 -12.453125 C 15.109375 -11.304688 14.769531 -10.316406 14.09375 -9.484375 C 13.414062 -8.648438 12.515625 -8.078125 11.390625 -7.765625 L 15.3125 0 L 13.1875 0 L 9.4375 -7.515625 L 3.84375 -7.515625 L 3.84375 0 Z M 9.28125 -15.75 L 3.84375 -15.75 L 3.84375 -9.140625 L 9.28125 -9.140625 C 10.445312 -9.140625 11.390625 -9.441406 12.109375 -10.046875 C 12.828125 -10.660156 13.1875 -11.460938 13.1875 -12.453125 C 13.1875 -13.453125 12.828125 -14.25 12.109375 -14.84375 C 11.390625 -15.445312 10.445312 -15.75 9.28125 -15.75 Z M 9.28125 -15.75 "/></g></g></g></g></g></g></g></svg>