<svg xmlns="http://www.w3.org/2000/svg" xmlns:xlink="http://www.w3.org/1999/xlink" width="600" zoomAndPan="magnify" viewBox="0 0 450 112.499997" height="150" preserveAspectRatio="xMidYMid meet" version="1.0"><defs><g/></defs><g fill="#000000" fill-opacity="1"><g transform="translate(-0.488715, 77.834153)"><g><path d="M 23.046875 0.796875 C 18.984375 0.859375 15.453125 0.222656 12.453125 -1.109375 C 9.453125 -2.453125 6.585938 -4.46875 3.859375 -7.15625 C 3.585938 -7.363281 3.359375 -7.628906 3.171875 -7.953125 C 2.984375 -8.273438 2.890625 -8.648438 2.890625 -9.078125 C 2.890625 -9.722656 3.144531 -10.3125 3.65625 -10.84375 C 4.164062 -11.375 4.738281 -11.640625 5.375 -11.640625 C 6.019531 -11.640625 6.613281 -11.375 7.15625 -10.84375 C 9.238281 -8.59375 11.601562 -6.878906 14.25 -5.703125 C 16.90625 -4.523438 19.757812 -3.9375 22.8125 -3.9375 C 25.382812 -3.9375 27.671875 -4.335938 29.671875 -5.140625 C 31.679688 -5.941406 33.273438 -7.09375 34.453125 -8.59375 C 35.640625 -10.09375 36.234375 -11.832031 36.234375 -13.8125 C 36.234375 -16.28125 35.5625 -18.273438 34.21875 -19.796875 C 32.882812 -21.328125 31.117188 -22.585938 28.921875 -23.578125 C 26.722656 -24.566406 24.285156 -25.460938 21.609375 -26.265625 C 19.410156 -26.910156 17.320312 -27.644531 15.34375 -28.46875 C 13.363281 -29.300781 11.597656 -30.320312 10.046875 -31.53125 C 8.492188 -32.738281 7.285156 -34.222656 6.421875 -35.984375 C 5.566406 -37.753906 5.140625 -39.894531 5.140625 -42.40625 C 5.140625 -45.25 5.890625 -47.765625 7.390625 -49.953125 C 8.890625 -52.148438 11.015625 -53.878906 13.765625 -55.140625 C 16.523438 -56.398438 19.726562 -57.03125 23.375 -57.03125 C 26.53125 -57.03125 29.566406 -56.492188 32.484375 -55.421875 C 35.410156 -54.347656 37.726562 -52.769531 39.4375 -50.6875 C 40.238281 -49.832031 40.640625 -49.054688 40.640625 -48.359375 C 40.640625 -47.816406 40.375 -47.28125 39.84375 -46.75 C 39.3125 -46.21875 38.722656 -45.953125 38.078125 -45.953125 C 37.535156 -45.953125 37.078125 -46.140625 36.703125 -46.515625 C 35.796875 -47.640625 34.644531 -48.640625 33.25 -49.515625 C 31.863281 -50.398438 30.328125 -51.082031 28.640625 -51.5625 C 26.953125 -52.050781 25.195312 -52.296875 23.375 -52.296875 C 20.851562 -52.296875 18.585938 -51.90625 16.578125 -51.125 C 14.578125 -50.351562 13 -49.242188 11.84375 -47.796875 C 10.695312 -46.347656 10.125 -44.609375 10.125 -42.578125 C 10.125 -40.328125 10.765625 -38.476562 12.046875 -37.03125 C 13.335938 -35.582031 15.023438 -34.390625 17.109375 -33.453125 C 19.203125 -32.515625 21.425781 -31.644531 23.78125 -30.84375 C 26.082031 -30.195312 28.289062 -29.457031 30.40625 -28.625 C 32.519531 -27.800781 34.394531 -26.773438 36.03125 -25.546875 C 37.664062 -24.316406 38.945312 -22.765625 39.875 -20.890625 C 40.8125 -19.015625 41.28125 -16.65625 41.28125 -13.8125 C 41.28125 -11.082031 40.503906 -8.617188 38.953125 -6.421875 C 37.398438 -4.222656 35.269531 -2.484375 32.5625 -1.203125 C 29.863281 0.078125 26.691406 0.742188 23.046875 0.796875 Z M 23.046875 0.796875 "/></g></g></g><g fill="#000000" fill-opacity="1"><g transform="translate(44.65479, 77.834153)"><g><path d="M 9.953125 -56.234375 L 39.4375 -56.234375 C 40.082031 -56.234375 40.644531 -56.003906 41.125 -55.546875 C 41.601562 -55.085938 41.84375 -54.507812 41.84375 -53.8125 C 41.84375 -53.125 41.601562 -52.5625 41.125 -52.125 C 40.644531 -51.695312 40.082031 -51.484375 39.4375 -51.484375 L 11.8125 -51.484375 L 12.609375 -52.859375 L 12.609375 -30.28125 L 11.734375 -31.328125 L 35.828125 -31.328125 C 36.472656 -31.328125 37.035156 -31.082031 37.515625 -30.59375 C 37.992188 -30.113281 38.234375 -29.554688 38.234375 -28.921875 C 38.234375 -28.222656 37.992188 -27.660156 37.515625 -27.234375 C 37.035156 -26.804688 36.472656 -26.59375 35.828125 -26.59375 L 11.890625 -26.59375 L 12.609375 -27.390625 L 12.609375 -4.25 L 12.203125 -4.734375 L 39.4375 -4.734375 C 40.082031 -4.734375 40.644531 -4.492188 41.125 -4.015625 C 41.601562 -3.535156 41.84375 -2.972656 41.84375 -2.328125 C 41.84375 -1.628906 41.601562 -1.066406 41.125 -0.640625 C 40.644531 -0.210938 40.082031 0 39.4375 0 L 9.953125 0 C 9.316406 0 8.753906 -0.238281 8.265625 -0.71875 C 7.785156 -1.207031 7.546875 -1.769531 7.546875 -2.40625 L 7.546875 -53.8125 C 7.546875 -54.457031 7.785156 -55.019531 8.265625 -55.5 C 8.753906 -55.988281 9.316406 -56.234375 9.953125 -56.234375 Z M 9.953125 -56.234375 "/></g></g></g><g fill="#000000" fill-opacity="1"><g transform="translate(90.28025, 77.834153)"><g><path d="M 29 -56.234375 C 32 -56.234375 34.648438 -55.550781 36.953125 -54.1875 C 39.253906 -52.820312 41.070312 -50.929688 42.40625 -48.515625 C 43.75 -46.109375 44.421875 -43.351562 44.421875 -40.25 C 44.421875 -37.132812 43.75 -34.332031 42.40625 -31.84375 C 41.070312 -29.351562 39.253906 -27.382812 36.953125 -25.9375 C 34.648438 -24.5 32 -23.78125 29 -23.78125 L 11.96875 -23.78125 L 12.375 -24.578125 L 12.375 -2.40625 C 12.375 -1.769531 12.128906 -1.207031 11.640625 -0.71875 C 11.160156 -0.238281 10.597656 0 9.953125 0 C 9.210938 0 8.625 -0.238281 8.1875 -0.71875 C 7.757812 -1.207031 7.546875 -1.769531 7.546875 -2.40625 L 7.546875 -53.8125 C 7.546875 -54.457031 7.785156 -55.019531 8.265625 -55.5 C 8.753906 -55.988281 9.316406 -56.234375 9.953125 -56.234375 Z M 29 -28.4375 C 31.082031 -28.4375 32.898438 -28.957031 34.453125 -30 C 36.015625 -31.039062 37.234375 -32.457031 38.109375 -34.25 C 38.992188 -36.050781 39.4375 -38.050781 39.4375 -40.25 C 39.4375 -42.4375 38.992188 -44.375 38.109375 -46.0625 C 37.234375 -47.75 36.015625 -49.070312 34.453125 -50.03125 C 32.898438 -51 31.082031 -51.484375 29 -51.484375 L 11.96875 -51.484375 L 12.375 -52.21875 L 12.375 -27.953125 L 11.890625 -28.4375 Z M 29 -28.4375 "/></g></g></g><g fill="#000000" fill-opacity="1"><g transform="translate(138.154858, 77.834153)"><g><path d="M 24.265625 0 C 23.515625 0 22.910156 -0.238281 22.453125 -0.71875 C 21.992188 -1.207031 21.765625 -1.769531 21.765625 -2.40625 L 21.765625 -53.578125 L 26.75 -53.578125 L 26.75 -2.40625 C 26.75 -1.769531 26.503906 -1.207031 26.015625 -0.71875 C 25.535156 -0.238281 24.953125 0 24.265625 0 Z M 5.140625 -51.65625 C 4.492188 -51.65625 3.929688 -51.867188 3.453125 -52.296875 C 2.972656 -52.722656 2.734375 -53.285156 2.734375 -53.984375 C 2.734375 -54.617188 2.972656 -55.148438 3.453125 -55.578125 C 3.929688 -56.015625 4.492188 -56.234375 5.140625 -56.234375 L 43.375 -56.234375 C 44.019531 -56.234375 44.582031 -56.015625 45.0625 -55.578125 C 45.539062 -55.148438 45.78125 -54.59375 45.78125 -53.90625 C 45.78125 -53.207031 45.539062 -52.65625 45.0625 -52.25 C 44.582031 -51.851562 44.019531 -51.65625 43.375 -51.65625 Z M 5.140625 -51.65625 "/></g></g></g><g fill="#000000" fill-opacity="1"><g transform="translate(186.672079, 77.834153)"><g><path d="M 9.953125 -56.234375 L 39.4375 -56.234375 C 40.082031 -56.234375 40.644531 -56.003906 41.125 -55.546875 C 41.601562 -55.085938 41.84375 -54.507812 41.84375 -53.8125 C 41.84375 -53.125 41.601562 -52.5625 41.125 -52.125 C 40.644531 -51.695312 40.082031 -51.484375 39.4375 -51.484375 L 11.8125 -51.484375 L 12.609375 -52.859375 L 12.609375 -30.28125 L 11.734375 -31.328125 L 35.828125 -31.328125 C 36.472656 -31.328125 37.035156 -31.082031 37.515625 -30.59375 C 37.992188 -30.113281 38.234375 -29.554688 38.234375 -28.921875 C 38.234375 -28.222656 37.992188 -27.660156 37.515625 -27.234375 C 37.035156 -26.804688 36.472656 -26.59375 35.828125 -26.59375 L 11.890625 -26.59375 L 12.609375 -27.390625 L 12.609375 -4.25 L 12.203125 -4.734375 L 39.4375 -4.734375 C 40.082031 -4.734375 40.644531 -4.492188 41.125 -4.015625 C 41.601562 -3.535156 41.84375 -2.972656 41.84375 -2.328125 C 41.84375 -1.628906 41.601562 -1.066406 41.125 -0.640625 C 40.644531 -0.210938 40.082031 0 39.4375 0 L 9.953125 0 C 9.316406 0 8.753906 -0.238281 8.265625 -0.71875 C 7.785156 -1.207031 7.546875 -1.769531 7.546875 -2.40625 L 7.546875 -53.8125 C 7.546875 -54.457031 7.785156 -55.019531 8.265625 -55.5 C 8.753906 -55.988281 9.316406 -56.234375 9.953125 -56.234375 Z M 9.953125 -56.234375 "/></g></g></g><g fill="#000000" fill-opacity="1"><g transform="translate(232.297538, 77.834153)"><g><path d="M 9.953125 -56.234375 C 10.328125 -56.234375 10.71875 -56.148438 11.125 -55.984375 C 11.53125 -55.828125 11.863281 -55.5625 12.125 -55.1875 L 34.296875 -21.921875 L 32.125 -22.015625 L 54.375 -55.1875 C 54.96875 -55.988281 55.691406 -56.335938 56.546875 -56.234375 C 57.191406 -56.234375 57.738281 -56.003906 58.1875 -55.546875 C 58.644531 -55.085938 58.875 -54.507812 58.875 -53.8125 L 58.875 -2.40625 C 58.875 -1.769531 58.632812 -1.207031 58.15625 -0.71875 C 57.675781 -0.238281 57.085938 0 56.390625 0 C 55.640625 0 55.019531 -0.238281 54.53125 -0.71875 C 54.050781 -1.207031 53.8125 -1.769531 53.8125 -2.40625 L 53.8125 -48.921875 L 55.265625 -48.765625 L 34.9375 -18 C 34.78125 -17.675781 34.539062 -17.421875 34.21875 -17.234375 C 33.894531 -17.046875 33.519531 -16.976562 33.09375 -17.03125 C 32.71875 -16.976562 32.351562 -17.046875 32 -17.234375 C 31.65625 -17.421875 31.378906 -17.675781 31.171875 -18 L 10.765625 -49.078125 L 12.296875 -50.125 L 12.296875 -2.40625 C 12.296875 -1.769531 12.066406 -1.207031 11.609375 -0.71875 C 11.148438 -0.238281 10.570312 0 9.875 0 C 9.1875 0 8.625 -0.238281 8.1875 -0.71875 C 7.757812 -1.207031 7.546875 -1.769531 7.546875 -2.40625 L 7.546875 -53.8125 C 7.546875 -54.457031 7.773438 -55.019531 8.234375 -55.5 C 8.691406 -55.988281 9.265625 -56.234375 9.953125 -56.234375 Z M 9.953125 -56.234375 "/></g></g></g><g fill="#000000" fill-opacity="1"><g transform="translate(298.72757, 77.834153)"><g><path d="M 31.25 -56.234375 C 35.75 -56.234375 39.269531 -55.015625 41.8125 -52.578125 C 44.351562 -50.140625 45.625 -46.75 45.625 -42.40625 C 45.625 -40.164062 45.140625 -38.023438 44.171875 -35.984375 C 43.210938 -33.953125 41.796875 -32.304688 39.921875 -31.046875 C 38.046875 -29.785156 35.71875 -29.078125 32.9375 -28.921875 L 32.609375 -30.53125 C 34.585938 -30.53125 36.523438 -30.25 38.421875 -29.6875 C 40.328125 -29.125 42.03125 -28.222656 43.53125 -26.984375 C 45.03125 -25.753906 46.234375 -24.210938 47.140625 -22.359375 C 48.054688 -20.515625 48.515625 -18.28125 48.515625 -15.65625 C 48.515625 -12.875 48.046875 -10.476562 47.109375 -8.46875 C 46.171875 -6.46875 44.910156 -4.847656 43.328125 -3.609375 C 41.753906 -2.378906 39.945312 -1.46875 37.90625 -0.875 C 35.875 -0.289062 33.757812 0 31.5625 0 L 9.953125 0 C 9.316406 0 8.753906 -0.238281 8.265625 -0.71875 C 7.785156 -1.207031 7.546875 -1.769531 7.546875 -2.40625 L 7.546875 -53.8125 C 7.546875 -54.457031 7.785156 -55.019531 8.265625 -55.5 C 8.753906 -55.988281 9.316406 -56.234375 9.953125 -56.234375 Z M 30.609375 -51.484375 L 11.734375 -51.484375 L 12.6875 -52.9375 L 12.6875 -30.203125 L 11.8125 -31.40625 L 30.609375 -31.40625 C 33.390625 -31.457031 35.726562 -32.367188 37.625 -34.140625 C 39.53125 -35.910156 40.484375 -38.535156 40.484375 -42.015625 C 40.484375 -44.960938 39.625 -47.273438 37.90625 -48.953125 C 36.195312 -50.640625 33.765625 -51.484375 30.609375 -51.484375 Z M 31.171875 -26.59375 L 12.296875 -26.59375 L 12.6875 -27.078125 L 12.6875 -4.015625 L 12.203125 -4.734375 L 31.328125 -4.734375 C 34.753906 -4.734375 37.617188 -5.601562 39.921875 -7.34375 C 42.222656 -9.082031 43.375 -11.851562 43.375 -15.65625 C 43.375 -18.34375 42.8125 -20.488281 41.6875 -22.09375 C 40.5625 -23.695312 39.0625 -24.847656 37.1875 -25.546875 C 35.3125 -26.242188 33.304688 -26.59375 31.171875 -26.59375 Z M 31.171875 -26.59375 "/></g></g></g><g fill="#000000" fill-opacity="1"><g transform="translate(351.020148, 77.834153)"><g><path d="M 9.953125 -56.234375 L 39.4375 -56.234375 C 40.082031 -56.234375 40.644531 -56.003906 41.125 -55.546875 C 41.601562 -55.085938 41.84375 -54.507812 41.84375 -53.8125 C 41.84375 -53.125 41.601562 -52.5625 41.125 -52.125 C 40.644531 -51.695312 40.082031 -51.484375 39.4375 -51.484375 L 11.8125 -51.484375 L 12.609375 -52.859375 L 12.609375 -30.28125 L 11.734375 -31.328125 L 35.828125 -31.328125 C 36.472656 -31.328125 37.035156 -31.082031 37.515625 -30.59375 C 37.992188 -30.113281 38.234375 -29.554688 38.234375 -28.921875 C 38.234375 -28.222656 37.992188 -27.660156 37.515625 -27.234375 C 37.035156 -26.804688 36.472656 -26.59375 35.828125 -26.59375 L 11.890625 -26.59375 L 12.609375 -27.390625 L 12.609375 -4.25 L 12.203125 -4.734375 L 39.4375 -4.734375 C 40.082031 -4.734375 40.644531 -4.492188 41.125 -4.015625 C 41.601562 -3.535156 41.84375 -2.972656 41.84375 -2.328125 C 41.84375 -1.628906 41.601562 -1.066406 41.125 -0.640625 C 40.644531 -0.210938 40.082031 0 39.4375 0 L 9.953125 0 C 9.316406 0 8.753906 -0.238281 8.265625 -0.71875 C 7.785156 -1.207031 7.546875 -1.769531 7.546875 -2.40625 L 7.546875 -53.8125 C 7.546875 -54.457031 7.785156 -55.019531 8.265625 -55.5 C 8.753906 -55.988281 9.316406 -56.234375 9.953125 -56.234375 Z M 9.953125 -56.234375 "/></g></g></g><g fill="#000000" fill-opacity="1"><g transform="translate(396.645597, 77.834153)"><g><path d="M 10.28125 0 C 9.476562 0 8.820312 -0.238281 8.3125 -0.71875 C 7.800781 -1.207031 7.546875 -1.769531 7.546875 -2.40625 L 7.546875 -53.8125 C 7.546875 -54.457031 7.785156 -55.019531 8.265625 -55.5 C 8.753906 -55.988281 9.316406 -56.234375 9.953125 -56.234375 L 31.65625 -56.234375 C 34.707031 -56.234375 37.4375 -55.578125 39.84375 -54.265625 C 42.25 -52.953125 44.132812 -51.144531 45.5 -48.84375 C 46.863281 -46.539062 47.546875 -43.941406 47.546875 -41.046875 C 47.546875 -38.691406 47.117188 -36.519531 46.265625 -34.53125 C 45.410156 -32.550781 44.207031 -30.878906 42.65625 -29.515625 C 41.101562 -28.148438 39.363281 -27.148438 37.4375 -26.515625 L 34.625 -27.390625 C 36.601562 -27.234375 38.445312 -26.601562 40.15625 -25.5 C 41.875 -24.40625 43.253906 -22.90625 44.296875 -21 C 45.347656 -19.101562 45.898438 -16.816406 45.953125 -14.140625 C 46.003906 -11.835938 46.125 -10.039062 46.3125 -8.75 C 46.5 -7.46875 46.78125 -6.503906 47.15625 -5.859375 C 47.53125 -5.222656 48.007812 -4.71875 48.59375 -4.34375 C 49.132812 -4.019531 49.5 -3.5625 49.6875 -2.96875 C 49.875 -2.382812 49.804688 -1.820312 49.484375 -1.28125 C 49.265625 -0.851562 48.953125 -0.546875 48.546875 -0.359375 C 48.148438 -0.171875 47.738281 -0.078125 47.3125 -0.078125 C 46.882812 -0.078125 46.457031 -0.1875 46.03125 -0.40625 C 45.28125 -0.832031 44.515625 -1.5 43.734375 -2.40625 C 42.960938 -3.320312 42.320312 -4.660156 41.8125 -6.421875 C 41.300781 -8.191406 41.046875 -10.65625 41.046875 -13.8125 C 41.046875 -15.90625 40.710938 -17.617188 40.046875 -18.953125 C 39.378906 -20.296875 38.519531 -21.328125 37.46875 -22.046875 C 36.425781 -22.773438 35.273438 -23.285156 34.015625 -23.578125 C 32.753906 -23.867188 31.5625 -24.015625 30.4375 -24.015625 L 11.734375 -24.015625 L 12.609375 -25.140625 L 12.609375 -2.40625 C 12.609375 -1.769531 12.394531 -1.207031 11.96875 -0.71875 C 11.539062 -0.238281 10.976562 0 10.28125 0 Z M 11.734375 -28.4375 L 31.890625 -28.4375 C 33.710938 -28.59375 35.425781 -29.191406 37.03125 -30.234375 C 38.632812 -31.285156 39.929688 -32.71875 40.921875 -34.53125 C 41.910156 -36.351562 42.40625 -38.472656 42.40625 -40.890625 C 42.40625 -43.941406 41.375 -46.46875 39.3125 -48.46875 C 37.257812 -50.476562 34.570312 -51.484375 31.25 -51.484375 L 12.046875 -51.484375 L 12.609375 -52.609375 L 12.609375 -27.3125 Z M 11.734375 -28.4375 "/></g></g></g></svg>