<svg xmlns="http://www.w3.org/2000/svg" xmlns:xlink="http://www.w3.org/1999/xlink" width="1176" zoomAndPan="magnify" viewBox="0 0 882 749.999995" height="1000" preserveAspectRatio="xMidYMid meet" version="1.0"><defs><g/><clipPath id="0dd435a1b7"><path d="M 254 1.199219 L 262 1.199219 L 262 26 L 254 26 Z M 254 1.199219 " clip-rule="nonzero"/></clipPath><clipPath id="923b5c9448"><path d="M 0.160156 6 L 6 6 L 6 21 L 0.160156 21 Z M 0.160156 6 " clip-rule="nonzero"/></clipPath><clipPath id="690990d416"><rect x="0" width="8" y="0" height="25"/></clipPath><clipPath id="a248a93c24"><path d="M 380 1.199219 L 392 1.199219 L 392 26 L 380 26 Z M 380 1.199219 " clip-rule="nonzero"/></clipPath><clipPath id="49e2e7480b"><rect x="0" width="12" y="0" height="25"/></clipPath><clipPath id="6d05e1f5de"><path d="M 505 1.199219 L 517 1.199219 L 517 26 L 505 26 Z M 505 1.199219 " clip-rule="nonzero"/></clipPath><clipPath id="446c0b3f5c"><rect x="0" width="12" y="0" height="25"/></clipPath><clipPath id="54a54b8eb5"><path d="M 631 1.199219 L 643 1.199219 L 643 26 L 631 26 Z M 631 1.199219 " clip-rule="nonzero"/></clipPath><clipPath id="7a7ef6a626"><rect x="0" width="12" y="0" height="25"/></clipPath><clipPath id="a9e61f101f"><path d="M 757 1.199219 L 769 1.199219 L 769 26 L 757 26 Z M 757 1.199219 " clip-rule="nonzero"/></clipPath><clipPath id="dcde9c35bf"><rect x="0" width="12" y="0" height="25"/></clipPath><clipPath id="4a0d955ee8"><rect x="0" width="12" y="0" height="25"/></clipPath><clipPath id="fe0eb59bae"><rect x="0" width="11" y="0" height="25"/></clipPath><clipPath id="5d9ed9d840"><rect x="0" width="12" y="0" height="25"/></clipPath><clipPath id="fef454f5e8"><rect x="0" width="12" y="0" height="25"/></clipPath><clipPath id="bcab6ccea3"><rect x="0" width="20" y="0" height="25"/></clipPath><clipPath id="23a644b4ca"><rect x="0" width="16" y="0" height="25"/></clipPath><clipPath id="5a09a4d230"><rect x="0" width="19" y="0" height="25"/></clipPath><clipPath id="4ced99a1c8"><rect x="0" width="19" y="0" height="25"/></clipPath><clipPath id="bb18eadff1"><path d="M 0.398438 6 L 6 6 L 6 20 L 0.398438 20 Z M 0.398438 6 " clip-rule="nonzero"/></clipPath><clipPath id="acd51e1f21"><rect x="0" width="19" y="0" height="25"/></clipPath><clipPath id="4cd099a186"><path d="M 0.160156 6 L 6 6 L 6 20 L 0.160156 20 Z M 0.160156 6 " clip-rule="nonzero"/></clipPath><clipPath id="cf2a31100e"><rect x="0" width="19" y="0" height="25"/></clipPath><clipPath id="2dd446ee6f"><path d="M 0.160156 6 L 6 6 L 6 20 L 0.160156 20 Z M 0.160156 6 " clip-rule="nonzero"/></clipPath><clipPath id="da7788067b"><rect x="0" width="18" y="0" height="25"/></clipPath><clipPath id="7fd7863a83"><rect x="0" width="19" y="0" height="25"/></clipPath><clipPath id="33b3586e19"><rect x="0" width="19" y="0" height="25"/></clipPath><clipPath id="6c55161fa7"><rect x="0" width="19" y="0" height="25"/></clipPath><clipPath id="232a5e58b4"><path d="M 2 450.480469 L 25 450.480469 L 25 476 L 2 476 Z M 2 450.480469 " clip-rule="nonzero"/></clipPath><clipPath id="608a5f2e48"><rect x="0" width="23" y="0" height="26"/></clipPath><clipPath id="61152631a7"><path d="M 128 450.480469 L 147 450.480469 L 147 476 L 128 476 Z M 128 450.480469 " clip-rule="nonzero"/></clipPath><clipPath id="cc3845dac1"><rect x="0" width="19" y="0" height="26"/></clipPath><clipPath id="a2c0c4ba98"><path d="M 254 450.480469 L 276 450.480469 L 276 476 L 254 476 Z M 254 450.480469 " clip-rule="nonzero"/></clipPath><clipPath id="48d802d585"><rect x="0" width="22" y="0" height="26"/></clipPath><clipPath id="73c0f30793"><path d="M 380 450.480469 L 402 450.480469 L 402 476 L 380 476 Z M 380 450.480469 " clip-rule="nonzero"/></clipPath><clipPath id="600fc0025d"><rect x="0" width="22" y="0" height="26"/></clipPath><clipPath id="bceeeb6482"><path d="M 505 450.480469 L 528 450.480469 L 528 476 L 505 476 Z M 505 450.480469 " clip-rule="nonzero"/></clipPath><clipPath id="bbbcbc2677"><rect x="0" width="23" y="0" height="26"/></clipPath><clipPath id="b2c4c77ae4"><path d="M 631 450.480469 L 654 450.480469 L 654 476 L 631 476 Z M 631 450.480469 " clip-rule="nonzero"/></clipPath><clipPath id="8a790e4b53"><rect x="0" width="23" y="0" height="26"/></clipPath><clipPath id="8021df20ec"><path d="M 757 450.480469 L 779 450.480469 L 779 476 L 757 476 Z M 757 450.480469 " clip-rule="nonzero"/></clipPath><clipPath id="306de0b63b"><rect x="0" width="22" y="0" height="26"/></clipPath><clipPath id="37eeeb8a92"><path d="M 2 600.238281 L 24 600.238281 L 24 625 L 2 625 Z M 2 600.238281 " clip-rule="nonzero"/></clipPath><clipPath id="8286a4e48d"><rect x="0" width="22" y="0" height="25"/></clipPath><clipPath id="e05284c9e2"><path d="M 128 600.238281 L 150 600.238281 L 150 625 L 128 625 Z M 128 600.238281 " clip-rule="nonzero"/></clipPath><clipPath id="db5f285ce1"><rect x="0" width="22" y="0" height="25"/></clipPath><clipPath id="d9bd09bd46"><path d="M 254 600.238281 L 276 600.238281 L 276 625 L 254 625 Z M 254 600.238281 " clip-rule="nonzero"/></clipPath><clipPath id="cfcd239722"><rect x="0" width="22" y="0" height="25"/></clipPath><clipPath id="af8ef7a8b4"><path d="M 380 600.238281 L 402 600.238281 L 402 625 L 380 625 Z M 380 600.238281 " clip-rule="nonzero"/></clipPath><clipPath id="e777a0d516"><rect x="0" width="22" y="0" height="25"/></clipPath></defs><g clip-path="url(#0dd435a1b7)"><g transform="matrix(1, 0, 0, 1, 254, 1)"><g clip-path="url(#690990d416)"><g clip-path="url(#923b5c9448)"><g fill="#201f1f" fill-opacity="1"><g transform="translate(0.340489, 20.039309)"><g><path d="M 4.296875 0 C 4.117188 0 3.972656 -0.0546875 3.859375 -0.171875 C 3.742188 -0.285156 3.6875 -0.421875 3.6875 -0.578125 L 3.6875 -12.03125 L 3.90625 -11.84375 L 1.375 -10.15625 C 1.269531 -10.070312 1.160156 -10.03125 1.046875 -10.03125 C 0.890625 -10.03125 0.75 -10.09375 0.625 -10.21875 C 0.507812 -10.351562 0.453125 -10.492188 0.453125 -10.640625 C 0.453125 -10.847656 0.554688 -11.007812 0.765625 -11.125 L 3.9375 -13.234375 C 4.019531 -13.285156 4.097656 -13.316406 4.171875 -13.328125 C 4.253906 -13.347656 4.332031 -13.347656 4.40625 -13.328125 C 4.5625 -13.316406 4.6875 -13.253906 4.78125 -13.140625 C 4.875 -13.035156 4.921875 -12.910156 4.921875 -12.765625 L 4.921875 -0.578125 C 4.921875 -0.421875 4.863281 -0.285156 4.75 -0.171875 C 4.632812 -0.0546875 4.484375 0 4.296875 0 Z M 4.296875 0 "/></g></g></g></g></g></g></g><g clip-path="url(#a248a93c24)"><g transform="matrix(1, 0, 0, 1, 380, 1)"><g clip-path="url(#49e2e7480b)"><g fill="#201f1f" fill-opacity="1"><g transform="translate(0.160219, 20.039309)"><g><path d="M 9.03125 -1.109375 C 9.175781 -1.109375 9.300781 -1.050781 9.40625 -0.9375 C 9.519531 -0.832031 9.578125 -0.703125 9.578125 -0.546875 C 9.578125 -0.390625 9.519531 -0.257812 9.40625 -0.15625 C 9.300781 -0.0507812 9.175781 0 9.03125 0 L 1.890625 0 C 1.722656 0 1.578125 -0.046875 1.453125 -0.140625 C 1.335938 -0.234375 1.28125 -0.378906 1.28125 -0.578125 C 1.28125 -0.710938 1.328125 -0.84375 1.421875 -0.96875 L 5.828125 -5.828125 C 6.523438 -6.585938 7.046875 -7.285156 7.390625 -7.921875 C 7.742188 -8.566406 7.921875 -9.144531 7.921875 -9.65625 C 7.921875 -10.488281 7.664062 -11.160156 7.15625 -11.671875 C 6.65625 -12.179688 5.972656 -12.4375 5.109375 -12.4375 C 4.710938 -12.4375 4.320312 -12.351562 3.9375 -12.1875 C 3.550781 -12.019531 3.207031 -11.800781 2.90625 -11.53125 C 2.601562 -11.269531 2.367188 -10.96875 2.203125 -10.625 C 2.128906 -10.5 2.050781 -10.410156 1.96875 -10.359375 C 1.882812 -10.304688 1.789062 -10.28125 1.6875 -10.28125 C 1.539062 -10.28125 1.410156 -10.328125 1.296875 -10.421875 C 1.179688 -10.523438 1.125 -10.644531 1.125 -10.78125 C 1.125 -10.863281 1.144531 -10.953125 1.1875 -11.046875 C 1.226562 -11.140625 1.296875 -11.242188 1.390625 -11.359375 C 1.617188 -11.742188 1.9375 -12.101562 2.34375 -12.4375 C 2.75 -12.769531 3.203125 -13.03125 3.703125 -13.21875 C 4.203125 -13.414062 4.695312 -13.515625 5.1875 -13.515625 C 6 -13.515625 6.695312 -13.359375 7.28125 -13.046875 C 7.875 -12.742188 8.332031 -12.304688 8.65625 -11.734375 C 8.976562 -11.171875 9.140625 -10.503906 9.140625 -9.734375 C 9.140625 -9.078125 8.929688 -8.359375 8.515625 -7.578125 C 8.109375 -6.796875 7.5 -5.953125 6.6875 -5.046875 L 2.96875 -0.875 L 2.78125 -1.109375 Z M 9.03125 -1.109375 "/></g></g></g></g></g></g><g clip-path="url(#6d05e1f5de)"><g transform="matrix(1, 0, 0, 1, 505, 1)"><g clip-path="url(#446c0b3f5c)"><g fill="#201f1f" fill-opacity="1"><g transform="translate(0.979978, 20.039309)"><g><path d="M 1.6875 -1.96875 C 1.757812 -1.96875 1.828125 -1.953125 1.890625 -1.921875 C 1.960938 -1.898438 2.050781 -1.84375 2.15625 -1.75 C 2.414062 -1.46875 2.726562 -1.253906 3.09375 -1.109375 C 3.46875 -0.960938 3.890625 -0.890625 4.359375 -0.890625 C 4.984375 -0.890625 5.550781 -1.03125 6.0625 -1.3125 C 6.582031 -1.59375 6.992188 -1.984375 7.296875 -2.484375 C 7.597656 -2.984375 7.75 -3.554688 7.75 -4.203125 C 7.75 -4.941406 7.585938 -5.535156 7.265625 -5.984375 C 6.941406 -6.441406 6.53125 -6.78125 6.03125 -7 C 5.53125 -7.21875 5.019531 -7.328125 4.5 -7.328125 C 4.351562 -7.328125 4.210938 -7.316406 4.078125 -7.296875 C 3.953125 -7.285156 3.832031 -7.265625 3.71875 -7.234375 C 3.601562 -7.210938 3.515625 -7.203125 3.453125 -7.203125 C 3.285156 -7.203125 3.15625 -7.253906 3.0625 -7.359375 C 2.976562 -7.472656 2.9375 -7.609375 2.9375 -7.765625 C 2.9375 -7.859375 2.953125 -7.9375 2.984375 -8 C 3.023438 -8.070312 3.078125 -8.15625 3.140625 -8.25 L 7.015625 -12.453125 L 7.234375 -12.15625 L 1.46875 -12.15625 C 1.3125 -12.15625 1.179688 -12.207031 1.078125 -12.3125 C 0.972656 -12.414062 0.921875 -12.546875 0.921875 -12.703125 C 0.921875 -12.859375 0.972656 -12.984375 1.078125 -13.078125 C 1.179688 -13.179688 1.3125 -13.234375 1.46875 -13.234375 L 7.859375 -13.234375 C 8.078125 -13.234375 8.226562 -13.164062 8.3125 -13.03125 C 8.40625 -12.90625 8.453125 -12.773438 8.453125 -12.640625 C 8.453125 -12.566406 8.429688 -12.492188 8.390625 -12.421875 C 8.359375 -12.359375 8.3125 -12.285156 8.25 -12.203125 L 4.375 -8 L 3.96875 -8.25 C 4 -8.28125 4.125 -8.316406 4.34375 -8.359375 C 4.570312 -8.410156 4.75 -8.4375 4.875 -8.4375 C 5.570312 -8.4375 6.226562 -8.269531 6.84375 -7.9375 C 7.457031 -7.613281 7.957031 -7.140625 8.34375 -6.515625 C 8.738281 -5.898438 8.9375 -5.144531 8.9375 -4.25 C 8.9375 -3.363281 8.722656 -2.585938 8.296875 -1.921875 C 7.878906 -1.253906 7.316406 -0.734375 6.609375 -0.359375 C 5.898438 0.00390625 5.113281 0.1875 4.25 0.1875 C 3.726562 0.1875 3.210938 0.0976562 2.703125 -0.078125 C 2.191406 -0.253906 1.75 -0.519531 1.375 -0.875 C 1.28125 -0.945312 1.210938 -1.019531 1.171875 -1.09375 C 1.140625 -1.175781 1.125 -1.253906 1.125 -1.328125 C 1.125 -1.484375 1.175781 -1.628906 1.28125 -1.765625 C 1.394531 -1.898438 1.53125 -1.96875 1.6875 -1.96875 Z M 1.6875 -1.96875 "/></g></g></g></g></g></g><g clip-path="url(#54a54b8eb5)"><g transform="matrix(1, 0, 0, 1, 631, 1)"><g clip-path="url(#7a7ef6a626)"><g fill="#201f1f" fill-opacity="1"><g transform="translate(0.799738, 20.039309)"><g><path d="M 6.984375 0 C 6.828125 0 6.695312 -0.0546875 6.59375 -0.171875 C 6.488281 -0.285156 6.4375 -0.421875 6.4375 -0.578125 L 6.4375 -11.75 L 6.6875 -11.59375 L 1.671875 -4.96875 L 1.625 -5.1875 L 8.9375 -5.1875 C 9.082031 -5.1875 9.207031 -5.132812 9.3125 -5.03125 C 9.425781 -4.925781 9.484375 -4.796875 9.484375 -4.640625 C 9.484375 -4.492188 9.425781 -4.367188 9.3125 -4.265625 C 9.207031 -4.160156 9.082031 -4.109375 8.9375 -4.109375 L 0.84375 -4.109375 C 0.6875 -4.109375 0.550781 -4.164062 0.4375 -4.28125 C 0.320312 -4.40625 0.265625 -4.546875 0.265625 -4.703125 C 0.265625 -4.847656 0.3125 -4.972656 0.40625 -5.078125 L 6.53125 -13.109375 C 6.59375 -13.191406 6.671875 -13.25 6.765625 -13.28125 C 6.859375 -13.3125 6.941406 -13.328125 7.015625 -13.328125 C 7.171875 -13.328125 7.300781 -13.269531 7.40625 -13.15625 C 7.519531 -13.039062 7.578125 -12.910156 7.578125 -12.765625 L 7.578125 -0.578125 C 7.578125 -0.421875 7.519531 -0.285156 7.40625 -0.171875 C 7.289062 -0.0546875 7.148438 0 6.984375 0 Z M 6.984375 0 "/></g></g></g></g></g></g><g clip-path="url(#a9e61f101f)"><g transform="matrix(1, 0, 0, 1, 757, 1)"><g clip-path="url(#dcde9c35bf)"><g fill="#201f1f" fill-opacity="1"><g transform="translate(0.619439, 20.039309)"><g><path d="M 4.453125 0.03125 C 3.929688 0.03125 3.40625 -0.0507812 2.875 -0.21875 C 2.351562 -0.382812 1.890625 -0.640625 1.484375 -0.984375 C 1.410156 -1.046875 1.347656 -1.125 1.296875 -1.21875 C 1.253906 -1.3125 1.234375 -1.398438 1.234375 -1.484375 C 1.234375 -1.609375 1.285156 -1.726562 1.390625 -1.84375 C 1.492188 -1.96875 1.628906 -2.03125 1.796875 -2.03125 C 1.929688 -2.03125 2.066406 -1.972656 2.203125 -1.859375 C 2.535156 -1.609375 2.894531 -1.410156 3.28125 -1.265625 C 3.664062 -1.128906 4.054688 -1.0625 4.453125 -1.0625 C 5.203125 -1.0625 5.851562 -1.203125 6.40625 -1.484375 C 6.96875 -1.773438 7.398438 -2.179688 7.703125 -2.703125 C 8.015625 -3.234375 8.171875 -3.847656 8.171875 -4.546875 C 8.171875 -5.203125 8.03125 -5.765625 7.75 -6.234375 C 7.46875 -6.710938 7.070312 -7.085938 6.5625 -7.359375 C 6.050781 -7.628906 5.445312 -7.765625 4.75 -7.765625 C 4.289062 -7.765625 3.875 -7.695312 3.5 -7.5625 C 3.125 -7.425781 2.796875 -7.28125 2.515625 -7.125 C 2.242188 -6.976562 2.023438 -6.90625 1.859375 -6.90625 C 1.710938 -6.90625 1.59375 -6.941406 1.5 -7.015625 C 1.40625 -7.097656 1.335938 -7.195312 1.296875 -7.3125 C 1.265625 -7.425781 1.265625 -7.546875 1.296875 -7.671875 L 2.109375 -12.765625 C 2.128906 -12.878906 2.191406 -12.984375 2.296875 -13.078125 C 2.398438 -13.171875 2.535156 -13.21875 2.703125 -13.21875 L 8.4375 -13.21875 C 8.59375 -13.21875 8.722656 -13.160156 8.828125 -13.046875 C 8.929688 -12.941406 8.984375 -12.816406 8.984375 -12.671875 C 8.984375 -12.503906 8.929688 -12.363281 8.828125 -12.25 C 8.722656 -12.144531 8.59375 -12.09375 8.4375 -12.09375 L 2.96875 -12.09375 L 3.140625 -12.265625 L 2.359375 -7.75 L 2.015625 -8 C 2.179688 -8.125 2.421875 -8.25 2.734375 -8.375 C 3.046875 -8.507812 3.394531 -8.625 3.78125 -8.71875 C 4.164062 -8.8125 4.578125 -8.859375 5.015625 -8.859375 C 5.835938 -8.859375 6.570312 -8.675781 7.21875 -8.3125 C 7.863281 -7.945312 8.375 -7.441406 8.75 -6.796875 C 9.125 -6.160156 9.3125 -5.425781 9.3125 -4.59375 C 9.3125 -3.664062 9.109375 -2.851562 8.703125 -2.15625 C 8.304688 -1.46875 7.742188 -0.929688 7.015625 -0.546875 C 6.296875 -0.160156 5.441406 0.03125 4.453125 0.03125 Z M 4.453125 0.03125 "/></g></g></g></g></g></g><g transform="matrix(1, 0, 0, 1, 2, 151)"><g clip-path="url(#4a0d955ee8)"><g fill="#201f1f" fill-opacity="1"><g transform="translate(0.700995, 19.799072)"><g><path d="M 5.46875 0.1875 C 4.726562 0.1875 4.082031 0.0546875 3.53125 -0.203125 C 2.976562 -0.472656 2.519531 -0.832031 2.15625 -1.28125 C 1.800781 -1.738281 1.535156 -2.25 1.359375 -2.8125 C 1.191406 -3.382812 1.109375 -3.972656 1.109375 -4.578125 C 1.109375 -5.179688 1.179688 -5.832031 1.328125 -6.53125 C 1.484375 -7.238281 1.71875 -7.953125 2.03125 -8.671875 C 2.351562 -9.398438 2.742188 -10.085938 3.203125 -10.734375 C 3.671875 -11.390625 4.210938 -11.972656 4.828125 -12.484375 C 5.441406 -12.992188 6.132812 -13.394531 6.90625 -13.6875 C 7 -13.71875 7.078125 -13.734375 7.140625 -13.734375 C 7.304688 -13.734375 7.445312 -13.6875 7.5625 -13.59375 C 7.6875 -13.507812 7.75 -13.359375 7.75 -13.140625 C 7.75 -13.015625 7.707031 -12.90625 7.625 -12.8125 C 7.539062 -12.71875 7.429688 -12.644531 7.296875 -12.59375 C 6.765625 -12.363281 6.238281 -12.035156 5.71875 -11.609375 C 5.195312 -11.191406 4.710938 -10.710938 4.265625 -10.171875 C 3.816406 -9.628906 3.4375 -9.039062 3.125 -8.40625 C 2.820312 -7.78125 2.601562 -7.144531 2.46875 -6.5 L 2.0625 -6.25 C 2.289062 -6.664062 2.582031 -7.035156 2.9375 -7.359375 C 3.300781 -7.679688 3.71875 -7.941406 4.1875 -8.140625 C 4.65625 -8.335938 5.164062 -8.4375 5.71875 -8.4375 C 6.289062 -8.4375 6.816406 -8.316406 7.296875 -8.078125 C 7.773438 -7.835938 8.1875 -7.507812 8.53125 -7.09375 C 8.882812 -6.675781 9.160156 -6.207031 9.359375 -5.6875 C 9.554688 -5.175781 9.65625 -4.640625 9.65625 -4.078125 C 9.65625 -3.328125 9.472656 -2.628906 9.109375 -1.984375 C 8.753906 -1.335938 8.257812 -0.8125 7.625 -0.40625 C 7 -0.0078125 6.28125 0.1875 5.46875 0.1875 Z M 5.453125 -0.921875 C 6.035156 -0.921875 6.550781 -1.050781 7 -1.3125 C 7.457031 -1.582031 7.816406 -1.953125 8.078125 -2.421875 C 8.335938 -2.898438 8.46875 -3.453125 8.46875 -4.078125 C 8.46875 -4.648438 8.359375 -5.179688 8.140625 -5.671875 C 7.921875 -6.160156 7.59375 -6.554688 7.15625 -6.859375 C 6.71875 -7.171875 6.175781 -7.328125 5.53125 -7.328125 C 4.851562 -7.328125 4.269531 -7.175781 3.78125 -6.875 C 3.289062 -6.570312 2.914062 -6.171875 2.65625 -5.671875 C 2.394531 -5.171875 2.265625 -4.617188 2.265625 -4.015625 C 2.265625 -3.484375 2.390625 -2.976562 2.640625 -2.5 C 2.898438 -2.03125 3.265625 -1.648438 3.734375 -1.359375 C 4.210938 -1.066406 4.785156 -0.921875 5.453125 -0.921875 Z M 5.453125 -0.921875 "/></g></g></g></g></g><g transform="matrix(1, 0, 0, 1, 128, 151)"><g clip-path="url(#fe0eb59bae)"><g fill="#201f1f" fill-opacity="1"><g transform="translate(0.520744, 19.799072)"><g><path d="M 3.390625 0.0625 C 3.234375 0.0625 3.09375 0.0078125 2.96875 -0.09375 C 2.84375 -0.195312 2.78125 -0.320312 2.78125 -0.46875 C 2.78125 -0.5625 2.800781 -0.660156 2.84375 -0.765625 L 7.90625 -12.40625 L 8.109375 -12.125 L 1.671875 -12.125 C 1.523438 -12.125 1.394531 -12.175781 1.28125 -12.28125 C 1.175781 -12.394531 1.125 -12.53125 1.125 -12.6875 C 1.125 -12.851562 1.175781 -12.984375 1.28125 -13.078125 C 1.394531 -13.179688 1.523438 -13.234375 1.671875 -13.234375 L 8.671875 -13.234375 C 8.859375 -13.234375 8.992188 -13.179688 9.078125 -13.078125 C 9.171875 -12.984375 9.21875 -12.859375 9.21875 -12.703125 C 9.21875 -12.597656 9.195312 -12.503906 9.15625 -12.421875 L 3.921875 -0.328125 C 3.878906 -0.210938 3.804688 -0.117188 3.703125 -0.046875 C 3.609375 0.0234375 3.503906 0.0625 3.390625 0.0625 Z M 3.390625 0.0625 "/></g></g></g></g></g><g transform="matrix(1, 0, 0, 1, 254, 151)"><g clip-path="url(#5d9ed9d840)"><g fill="#201f1f" fill-opacity="1"><g transform="translate(0.340489, 19.799072)"><g><path d="M 6.9375 -6.703125 L 6.875 -6.875 C 7.3125 -6.707031 7.707031 -6.460938 8.0625 -6.140625 C 8.414062 -5.816406 8.695312 -5.4375 8.90625 -5 C 9.125 -4.5625 9.234375 -4.082031 9.234375 -3.5625 C 9.234375 -2.875 9.050781 -2.25 8.6875 -1.6875 C 8.332031 -1.132812 7.84375 -0.691406 7.21875 -0.359375 C 6.59375 -0.0234375 5.898438 0.140625 5.140625 0.140625 C 4.367188 0.140625 3.675781 -0.0234375 3.0625 -0.359375 C 2.445312 -0.691406 1.957031 -1.132812 1.59375 -1.6875 C 1.226562 -2.25 1.046875 -2.875 1.046875 -3.5625 C 1.046875 -4.125 1.15625 -4.625 1.375 -5.0625 C 1.601562 -5.5 1.894531 -5.867188 2.25 -6.171875 C 2.613281 -6.472656 2.992188 -6.707031 3.390625 -6.875 L 3.328125 -6.6875 C 2.984375 -6.851562 2.660156 -7.078125 2.359375 -7.359375 C 2.066406 -7.648438 1.828125 -7.992188 1.640625 -8.390625 C 1.453125 -8.785156 1.359375 -9.226562 1.359375 -9.71875 C 1.359375 -10.40625 1.523438 -11.019531 1.859375 -11.5625 C 2.191406 -12.101562 2.644531 -12.53125 3.21875 -12.84375 C 3.800781 -13.164062 4.441406 -13.328125 5.140625 -13.328125 C 5.835938 -13.328125 6.46875 -13.164062 7.03125 -12.84375 C 7.601562 -12.53125 8.054688 -12.101562 8.390625 -11.5625 C 8.722656 -11.019531 8.890625 -10.40625 8.890625 -9.71875 C 8.890625 -9.21875 8.796875 -8.769531 8.609375 -8.375 C 8.421875 -7.988281 8.171875 -7.648438 7.859375 -7.359375 C 7.554688 -7.078125 7.25 -6.859375 6.9375 -6.703125 Z M 2.53125 -9.71875 C 2.53125 -9.207031 2.648438 -8.757812 2.890625 -8.375 C 3.128906 -8 3.445312 -7.703125 3.84375 -7.484375 C 4.238281 -7.265625 4.671875 -7.15625 5.140625 -7.15625 C 5.597656 -7.15625 6.023438 -7.265625 6.421875 -7.484375 C 6.816406 -7.703125 7.128906 -8 7.359375 -8.375 C 7.597656 -8.757812 7.71875 -9.207031 7.71875 -9.71875 C 7.71875 -10.46875 7.472656 -11.078125 6.984375 -11.546875 C 6.503906 -12.015625 5.890625 -12.25 5.140625 -12.25 C 4.367188 -12.25 3.738281 -12.015625 3.25 -11.546875 C 2.769531 -11.078125 2.53125 -10.46875 2.53125 -9.71875 Z M 5.140625 -0.953125 C 6.003906 -0.953125 6.707031 -1.195312 7.25 -1.6875 C 7.789062 -2.1875 8.0625 -2.8125 8.0625 -3.5625 C 8.0625 -4.070312 7.925781 -4.53125 7.65625 -4.9375 C 7.382812 -5.34375 7.023438 -5.660156 6.578125 -5.890625 C 6.140625 -6.117188 5.660156 -6.234375 5.140625 -6.234375 C 4.617188 -6.234375 4.132812 -6.117188 3.6875 -5.890625 C 3.25 -5.660156 2.894531 -5.34375 2.625 -4.9375 C 2.363281 -4.53125 2.234375 -4.070312 2.234375 -3.5625 C 2.234375 -2.8125 2.5 -2.1875 3.03125 -1.6875 C 3.5625 -1.195312 4.265625 -0.953125 5.140625 -0.953125 Z M 5.140625 -0.953125 "/></g></g></g></g></g><g transform="matrix(1, 0, 0, 1, 380, 151)"><g clip-path="url(#fef454f5e8)"><g fill="#201f1f" fill-opacity="1"><g transform="translate(0.160219, 19.799072)"><g><path d="M 5.28125 -13.546875 C 6.03125 -13.546875 6.679688 -13.410156 7.234375 -13.140625 C 7.785156 -12.878906 8.238281 -12.519531 8.59375 -12.0625 C 8.945312 -11.613281 9.210938 -11.101562 9.390625 -10.53125 C 9.566406 -9.957031 9.65625 -9.375 9.65625 -8.78125 C 9.65625 -8.164062 9.578125 -7.515625 9.421875 -6.828125 C 9.265625 -6.140625 9.03125 -5.441406 8.71875 -4.734375 C 8.40625 -4.023438 8.015625 -3.351562 7.546875 -2.71875 C 7.085938 -2.082031 6.546875 -1.507812 5.921875 -1 C 5.296875 -0.5 4.601562 -0.109375 3.84375 0.171875 C 3.738281 0.191406 3.65625 0.203125 3.59375 0.203125 C 3.445312 0.203125 3.3125 0.148438 3.1875 0.046875 C 3.070312 -0.0546875 3.015625 -0.195312 3.015625 -0.375 C 3.015625 -0.507812 3.050781 -0.625 3.125 -0.71875 C 3.195312 -0.8125 3.3125 -0.882812 3.46875 -0.9375 C 4.1875 -1.238281 4.882812 -1.691406 5.5625 -2.296875 C 6.238281 -2.898438 6.816406 -3.597656 7.296875 -4.390625 C 7.785156 -5.179688 8.113281 -6.003906 8.28125 -6.859375 L 8.6875 -7.109375 C 8.46875 -6.703125 8.171875 -6.332031 7.796875 -6 C 7.429688 -5.664062 7.015625 -5.40625 6.546875 -5.21875 C 6.085938 -5.039062 5.585938 -4.953125 5.046875 -4.953125 C 4.234375 -4.953125 3.53125 -5.148438 2.9375 -5.546875 C 2.351562 -5.953125 1.898438 -6.484375 1.578125 -7.140625 C 1.265625 -7.804688 1.109375 -8.519531 1.109375 -9.28125 C 1.109375 -10.03125 1.285156 -10.726562 1.640625 -11.375 C 2.003906 -12.019531 2.5 -12.539062 3.125 -12.9375 C 3.757812 -13.34375 4.476562 -13.546875 5.28125 -13.546875 Z M 5.3125 -12.4375 C 4.71875 -12.4375 4.191406 -12.300781 3.734375 -12.03125 C 3.273438 -11.769531 2.914062 -11.398438 2.65625 -10.921875 C 2.394531 -10.441406 2.265625 -9.894531 2.265625 -9.28125 C 2.265625 -8.71875 2.375 -8.1875 2.59375 -7.6875 C 2.820312 -7.195312 3.15625 -6.800781 3.59375 -6.5 C 4.039062 -6.207031 4.582031 -6.0625 5.21875 -6.0625 C 5.90625 -6.0625 6.488281 -6.207031 6.96875 -6.5 C 7.445312 -6.800781 7.820312 -7.195312 8.09375 -7.6875 C 8.363281 -8.1875 8.5 -8.734375 8.5 -9.328125 C 8.5 -9.878906 8.367188 -10.390625 8.109375 -10.859375 C 7.859375 -11.328125 7.5 -11.707031 7.03125 -12 C 6.5625 -12.289062 5.988281 -12.4375 5.3125 -12.4375 Z M 5.3125 -12.4375 "/></g></g></g></g></g><g transform="matrix(1, 0, 0, 1, 505, 151)"><g clip-path="url(#bcab6ccea3)"><g fill="#201f1f" fill-opacity="1"><g transform="translate(0.979978, 19.799072)"><g><path d="M 4.296875 0 C 4.117188 0 3.972656 -0.0546875 3.859375 -0.171875 C 3.742188 -0.285156 3.6875 -0.421875 3.6875 -0.578125 L 3.6875 -12.03125 L 3.90625 -11.84375 L 1.375 -10.15625 C 1.269531 -10.070312 1.160156 -10.03125 1.046875 -10.03125 C 0.890625 -10.03125 0.75 -10.09375 0.625 -10.21875 C 0.507812 -10.351562 0.453125 -10.492188 0.453125 -10.640625 C 0.453125 -10.847656 0.554688 -11.007812 0.765625 -11.125 L 3.9375 -13.234375 C 4.019531 -13.285156 4.097656 -13.316406 4.171875 -13.328125 C 4.253906 -13.347656 4.332031 -13.347656 4.40625 -13.328125 C 4.5625 -13.316406 4.6875 -13.253906 4.78125 -13.140625 C 4.875 -13.035156 4.921875 -12.910156 4.921875 -12.765625 L 4.921875 -0.578125 C 4.921875 -0.421875 4.863281 -0.285156 4.75 -0.171875 C 4.632812 -0.0546875 4.484375 0 4.296875 0 Z M 4.296875 0 "/></g></g></g><g fill="#201f1f" fill-opacity="1"><g transform="translate(8.027361, 19.799072)"><g><path d="M 5.65625 0.1875 C 4.644531 0.1875 3.796875 -0.113281 3.109375 -0.71875 C 2.421875 -1.332031 1.90625 -2.15625 1.5625 -3.1875 C 1.21875 -4.226562 1.046875 -5.390625 1.046875 -6.671875 C 1.046875 -7.960938 1.21875 -9.125 1.5625 -10.15625 C 1.90625 -11.195312 2.421875 -12.015625 3.109375 -12.609375 C 3.796875 -13.210938 4.644531 -13.515625 5.65625 -13.515625 C 6.695312 -13.515625 7.554688 -13.210938 8.234375 -12.609375 C 8.910156 -12.015625 9.421875 -11.195312 9.765625 -10.15625 C 10.109375 -9.125 10.28125 -7.960938 10.28125 -6.671875 C 10.28125 -5.390625 10.109375 -4.226562 9.765625 -3.1875 C 9.421875 -2.15625 8.910156 -1.332031 8.234375 -0.71875 C 7.554688 -0.113281 6.695312 0.1875 5.65625 0.1875 Z M 5.65625 -0.984375 C 6.40625 -0.984375 7.03125 -1.21875 7.53125 -1.6875 C 8.03125 -2.164062 8.410156 -2.832031 8.671875 -3.6875 C 8.929688 -4.539062 9.0625 -5.535156 9.0625 -6.671875 C 9.0625 -7.804688 8.929688 -8.800781 8.671875 -9.65625 C 8.410156 -10.519531 8.03125 -11.1875 7.53125 -11.65625 C 7.03125 -12.125 6.40625 -12.359375 5.65625 -12.359375 C 4.914062 -12.359375 4.296875 -12.125 3.796875 -11.65625 C 3.296875 -11.1875 2.914062 -10.519531 2.65625 -9.65625 C 2.394531 -8.800781 2.265625 -7.804688 2.265625 -6.671875 C 2.265625 -5.535156 2.394531 -4.539062 2.65625 -3.6875 C 2.914062 -2.832031 3.296875 -2.164062 3.796875 -1.6875 C 4.296875 -1.21875 4.914062 -0.984375 5.65625 -0.984375 Z M 5.65625 -0.984375 "/></g></g></g></g></g><g transform="matrix(1, 0, 0, 1, 631, 151)"><g clip-path="url(#23a644b4ca)"><g fill="#201f1f" fill-opacity="1"><g transform="translate(0.799738, 19.799072)"><g><path d="M 4.296875 0 C 4.117188 0 3.972656 -0.0546875 3.859375 -0.171875 C 3.742188 -0.285156 3.6875 -0.421875 3.6875 -0.578125 L 3.6875 -12.03125 L 3.90625 -11.84375 L 1.375 -10.15625 C 1.269531 -10.070312 1.160156 -10.03125 1.046875 -10.03125 C 0.890625 -10.03125 0.75 -10.09375 0.625 -10.21875 C 0.507812 -10.351562 0.453125 -10.492188 0.453125 -10.640625 C 0.453125 -10.847656 0.554688 -11.007812 0.765625 -11.125 L 3.9375 -13.234375 C 4.019531 -13.285156 4.097656 -13.316406 4.171875 -13.328125 C 4.253906 -13.347656 4.332031 -13.347656 4.40625 -13.328125 C 4.5625 -13.316406 4.6875 -13.253906 4.78125 -13.140625 C 4.875 -13.035156 4.921875 -12.910156 4.921875 -12.765625 L 4.921875 -0.578125 C 4.921875 -0.421875 4.863281 -0.285156 4.75 -0.171875 C 4.632812 -0.0546875 4.484375 0 4.296875 0 Z M 4.296875 0 "/></g></g></g><g fill="#201f1f" fill-opacity="1"><g transform="translate(7.84712, 19.799072)"><g><path d="M 4.296875 0 C 4.117188 0 3.972656 -0.0546875 3.859375 -0.171875 C 3.742188 -0.285156 3.6875 -0.421875 3.6875 -0.578125 L 3.6875 -12.03125 L 3.90625 -11.84375 L 1.375 -10.15625 C 1.269531 -10.070312 1.160156 -10.03125 1.046875 -10.03125 C 0.890625 -10.03125 0.75 -10.09375 0.625 -10.21875 C 0.507812 -10.351562 0.453125 -10.492188 0.453125 -10.640625 C 0.453125 -10.847656 0.554688 -11.007812 0.765625 -11.125 L 3.9375 -13.234375 C 4.019531 -13.285156 4.097656 -13.316406 4.171875 -13.328125 C 4.253906 -13.347656 4.332031 -13.347656 4.40625 -13.328125 C 4.5625 -13.316406 4.6875 -13.253906 4.78125 -13.140625 C 4.875 -13.035156 4.921875 -12.910156 4.921875 -12.765625 L 4.921875 -0.578125 C 4.921875 -0.421875 4.863281 -0.285156 4.75 -0.171875 C 4.632812 -0.0546875 4.484375 0 4.296875 0 Z M 4.296875 0 "/></g></g></g></g></g><g transform="matrix(1, 0, 0, 1, 757, 151)"><g clip-path="url(#5a09a4d230)"><g fill="#201f1f" fill-opacity="1"><g transform="translate(0.619439, 19.799072)"><g><path d="M 4.296875 0 C 4.117188 0 3.972656 -0.0546875 3.859375 -0.171875 C 3.742188 -0.285156 3.6875 -0.421875 3.6875 -0.578125 L 3.6875 -12.03125 L 3.90625 -11.84375 L 1.375 -10.15625 C 1.269531 -10.070312 1.160156 -10.03125 1.046875 -10.03125 C 0.890625 -10.03125 0.75 -10.09375 0.625 -10.21875 C 0.507812 -10.351562 0.453125 -10.492188 0.453125 -10.640625 C 0.453125 -10.847656 0.554688 -11.007812 0.765625 -11.125 L 3.9375 -13.234375 C 4.019531 -13.285156 4.097656 -13.316406 4.171875 -13.328125 C 4.253906 -13.347656 4.332031 -13.347656 4.40625 -13.328125 C 4.5625 -13.316406 4.6875 -13.253906 4.78125 -13.140625 C 4.875 -13.035156 4.921875 -12.910156 4.921875 -12.765625 L 4.921875 -0.578125 C 4.921875 -0.421875 4.863281 -0.285156 4.75 -0.171875 C 4.632812 -0.0546875 4.484375 0 4.296875 0 Z M 4.296875 0 "/></g></g></g><g fill="#201f1f" fill-opacity="1"><g transform="translate(7.666821, 19.799072)"><g><path d="M 9.03125 -1.109375 C 9.175781 -1.109375 9.300781 -1.050781 9.40625 -0.9375 C 9.519531 -0.832031 9.578125 -0.703125 9.578125 -0.546875 C 9.578125 -0.390625 9.519531 -0.257812 9.40625 -0.15625 C 9.300781 -0.0507812 9.175781 0 9.03125 0 L 1.890625 0 C 1.722656 0 1.578125 -0.046875 1.453125 -0.140625 C 1.335938 -0.234375 1.28125 -0.378906 1.28125 -0.578125 C 1.28125 -0.710938 1.328125 -0.84375 1.421875 -0.96875 L 5.828125 -5.828125 C 6.523438 -6.585938 7.046875 -7.285156 7.390625 -7.921875 C 7.742188 -8.566406 7.921875 -9.144531 7.921875 -9.65625 C 7.921875 -10.488281 7.664062 -11.160156 7.15625 -11.671875 C 6.65625 -12.179688 5.972656 -12.4375 5.109375 -12.4375 C 4.710938 -12.4375 4.320312 -12.351562 3.9375 -12.1875 C 3.550781 -12.019531 3.207031 -11.800781 2.90625 -11.53125 C 2.601562 -11.269531 2.367188 -10.96875 2.203125 -10.625 C 2.128906 -10.5 2.050781 -10.410156 1.96875 -10.359375 C 1.882812 -10.304688 1.789062 -10.28125 1.6875 -10.28125 C 1.539062 -10.28125 1.410156 -10.328125 1.296875 -10.421875 C 1.179688 -10.523438 1.125 -10.644531 1.125 -10.78125 C 1.125 -10.863281 1.144531 -10.953125 1.1875 -11.046875 C 1.226562 -11.140625 1.296875 -11.242188 1.390625 -11.359375 C 1.617188 -11.742188 1.9375 -12.101562 2.34375 -12.4375 C 2.75 -12.769531 3.203125 -13.03125 3.703125 -13.21875 C 4.203125 -13.414062 4.695312 -13.515625 5.1875 -13.515625 C 6 -13.515625 6.695312 -13.359375 7.28125 -13.046875 C 7.875 -12.742188 8.332031 -12.304688 8.65625 -11.734375 C 8.976562 -11.171875 9.140625 -10.503906 9.140625 -9.734375 C 9.140625 -9.078125 8.929688 -8.359375 8.515625 -7.578125 C 8.109375 -6.796875 7.5 -5.953125 6.6875 -5.046875 L 2.96875 -0.875 L 2.78125 -1.109375 Z M 9.03125 -1.109375 "/></g></g></g></g></g><g transform="matrix(1, 0, 0, 1, 2, 301)"><g clip-path="url(#4ced99a1c8)"><g fill="#201f1f" fill-opacity="1"><g transform="translate(0.700995, 19.55883)"><g><path d="M 4.296875 0 C 4.117188 0 3.972656 -0.0546875 3.859375 -0.171875 C 3.742188 -0.285156 3.6875 -0.421875 3.6875 -0.578125 L 3.6875 -12.03125 L 3.90625 -11.84375 L 1.375 -10.15625 C 1.269531 -10.070312 1.160156 -10.03125 1.046875 -10.03125 C 0.890625 -10.03125 0.75 -10.09375 0.625 -10.21875 C 0.507812 -10.351562 0.453125 -10.492188 0.453125 -10.640625 C 0.453125 -10.847656 0.554688 -11.007812 0.765625 -11.125 L 3.9375 -13.234375 C 4.019531 -13.285156 4.097656 -13.316406 4.171875 -13.328125 C 4.253906 -13.347656 4.332031 -13.347656 4.40625 -13.328125 C 4.5625 -13.316406 4.6875 -13.253906 4.78125 -13.140625 C 4.875 -13.035156 4.921875 -12.910156 4.921875 -12.765625 L 4.921875 -0.578125 C 4.921875 -0.421875 4.863281 -0.285156 4.75 -0.171875 C 4.632812 -0.0546875 4.484375 0 4.296875 0 Z M 4.296875 0 "/></g></g></g><g fill="#201f1f" fill-opacity="1"><g transform="translate(7.748378, 19.55883)"><g><path d="M 1.6875 -1.96875 C 1.757812 -1.96875 1.828125 -1.953125 1.890625 -1.921875 C 1.960938 -1.898438 2.050781 -1.84375 2.15625 -1.75 C 2.414062 -1.46875 2.726562 -1.253906 3.09375 -1.109375 C 3.46875 -0.960938 3.890625 -0.890625 4.359375 -0.890625 C 4.984375 -0.890625 5.550781 -1.03125 6.0625 -1.3125 C 6.582031 -1.59375 6.992188 -1.984375 7.296875 -2.484375 C 7.597656 -2.984375 7.75 -3.554688 7.75 -4.203125 C 7.75 -4.941406 7.585938 -5.535156 7.265625 -5.984375 C 6.941406 -6.441406 6.53125 -6.78125 6.03125 -7 C 5.53125 -7.21875 5.019531 -7.328125 4.5 -7.328125 C 4.351562 -7.328125 4.210938 -7.316406 4.078125 -7.296875 C 3.953125 -7.285156 3.832031 -7.265625 3.71875 -7.234375 C 3.601562 -7.210938 3.515625 -7.203125 3.453125 -7.203125 C 3.285156 -7.203125 3.15625 -7.253906 3.0625 -7.359375 C 2.976562 -7.472656 2.9375 -7.609375 2.9375 -7.765625 C 2.9375 -7.859375 2.953125 -7.9375 2.984375 -8 C 3.023438 -8.070312 3.078125 -8.15625 3.140625 -8.25 L 7.015625 -12.453125 L 7.234375 -12.15625 L 1.46875 -12.15625 C 1.3125 -12.15625 1.179688 -12.207031 1.078125 -12.3125 C 0.972656 -12.414062 0.921875 -12.546875 0.921875 -12.703125 C 0.921875 -12.859375 0.972656 -12.984375 1.078125 -13.078125 C 1.179688 -13.179688 1.3125 -13.234375 1.46875 -13.234375 L 7.859375 -13.234375 C 8.078125 -13.234375 8.226562 -13.164062 8.3125 -13.03125 C 8.40625 -12.90625 8.453125 -12.773438 8.453125 -12.640625 C 8.453125 -12.566406 8.429688 -12.492188 8.390625 -12.421875 C 8.359375 -12.359375 8.3125 -12.285156 8.25 -12.203125 L 4.375 -8 L 3.96875 -8.25 C 4 -8.28125 4.125 -8.316406 4.34375 -8.359375 C 4.570312 -8.410156 4.75 -8.4375 4.875 -8.4375 C 5.570312 -8.4375 6.226562 -8.269531 6.84375 -7.9375 C 7.457031 -7.613281 7.957031 -7.140625 8.34375 -6.515625 C 8.738281 -5.898438 8.9375 -5.144531 8.9375 -4.25 C 8.9375 -3.363281 8.722656 -2.585938 8.296875 -1.921875 C 7.878906 -1.253906 7.316406 -0.734375 6.609375 -0.359375 C 5.898438 0.00390625 5.113281 0.1875 4.25 0.1875 C 3.726562 0.1875 3.210938 0.0976562 2.703125 -0.078125 C 2.191406 -0.253906 1.75 -0.519531 1.375 -0.875 C 1.28125 -0.945312 1.210938 -1.019531 1.171875 -1.09375 C 1.140625 -1.175781 1.125 -1.253906 1.125 -1.328125 C 1.125 -1.484375 1.175781 -1.628906 1.28125 -1.765625 C 1.394531 -1.898438 1.53125 -1.96875 1.6875 -1.96875 Z M 1.6875 -1.96875 "/></g></g></g></g></g><g transform="matrix(1, 0, 0, 1, 128, 301)"><g clip-path="url(#acd51e1f21)"><g clip-path="url(#bb18eadff1)"><g fill="#201f1f" fill-opacity="1"><g transform="translate(0.520744, 19.55883)"><g><path d="M 4.296875 0 C 4.117188 0 3.972656 -0.0546875 3.859375 -0.171875 C 3.742188 -0.285156 3.6875 -0.421875 3.6875 -0.578125 L 3.6875 -12.03125 L 3.90625 -11.84375 L 1.375 -10.15625 C 1.269531 -10.070312 1.160156 -10.03125 1.046875 -10.03125 C 0.890625 -10.03125 0.75 -10.09375 0.625 -10.21875 C 0.507812 -10.351562 0.453125 -10.492188 0.453125 -10.640625 C 0.453125 -10.847656 0.554688 -11.007812 0.765625 -11.125 L 3.9375 -13.234375 C 4.019531 -13.285156 4.097656 -13.316406 4.171875 -13.328125 C 4.253906 -13.347656 4.332031 -13.347656 4.40625 -13.328125 C 4.5625 -13.316406 4.6875 -13.253906 4.78125 -13.140625 C 4.875 -13.035156 4.921875 -12.910156 4.921875 -12.765625 L 4.921875 -0.578125 C 4.921875 -0.421875 4.863281 -0.285156 4.75 -0.171875 C 4.632812 -0.0546875 4.484375 0 4.296875 0 Z M 4.296875 0 "/></g></g></g></g><g fill="#201f1f" fill-opacity="1"><g transform="translate(7.568126, 19.55883)"><g><path d="M 6.984375 0 C 6.828125 0 6.695312 -0.0546875 6.59375 -0.171875 C 6.488281 -0.285156 6.4375 -0.421875 6.4375 -0.578125 L 6.4375 -11.75 L 6.6875 -11.59375 L 1.671875 -4.96875 L 1.625 -5.1875 L 8.9375 -5.1875 C 9.082031 -5.1875 9.207031 -5.132812 9.3125 -5.03125 C 9.425781 -4.925781 9.484375 -4.796875 9.484375 -4.640625 C 9.484375 -4.492188 9.425781 -4.367188 9.3125 -4.265625 C 9.207031 -4.160156 9.082031 -4.109375 8.9375 -4.109375 L 0.84375 -4.109375 C 0.6875 -4.109375 0.550781 -4.164062 0.4375 -4.28125 C 0.320312 -4.40625 0.265625 -4.546875 0.265625 -4.703125 C 0.265625 -4.847656 0.3125 -4.972656 0.40625 -5.078125 L 6.53125 -13.109375 C 6.59375 -13.191406 6.671875 -13.25 6.765625 -13.28125 C 6.859375 -13.3125 6.941406 -13.328125 7.015625 -13.328125 C 7.171875 -13.328125 7.300781 -13.269531 7.40625 -13.15625 C 7.519531 -13.039062 7.578125 -12.910156 7.578125 -12.765625 L 7.578125 -0.578125 C 7.578125 -0.421875 7.519531 -0.285156 7.40625 -0.171875 C 7.289062 -0.0546875 7.148438 0 6.984375 0 Z M 6.984375 0 "/></g></g></g></g></g><g transform="matrix(1, 0, 0, 1, 254, 301)"><g clip-path="url(#cf2a31100e)"><g clip-path="url(#4cd099a186)"><g fill="#201f1f" fill-opacity="1"><g transform="translate(0.340489, 19.55883)"><g><path d="M 4.296875 0 C 4.117188 0 3.972656 -0.0546875 3.859375 -0.171875 C 3.742188 -0.285156 3.6875 -0.421875 3.6875 -0.578125 L 3.6875 -12.03125 L 3.90625 -11.84375 L 1.375 -10.15625 C 1.269531 -10.070312 1.160156 -10.03125 1.046875 -10.03125 C 0.890625 -10.03125 0.75 -10.09375 0.625 -10.21875 C 0.507812 -10.351562 0.453125 -10.492188 0.453125 -10.640625 C 0.453125 -10.847656 0.554688 -11.007812 0.765625 -11.125 L 3.9375 -13.234375 C 4.019531 -13.285156 4.097656 -13.316406 4.171875 -13.328125 C 4.253906 -13.347656 4.332031 -13.347656 4.40625 -13.328125 C 4.5625 -13.316406 4.6875 -13.253906 4.78125 -13.140625 C 4.875 -13.035156 4.921875 -12.910156 4.921875 -12.765625 L 4.921875 -0.578125 C 4.921875 -0.421875 4.863281 -0.285156 4.75 -0.171875 C 4.632812 -0.0546875 4.484375 0 4.296875 0 Z M 4.296875 0 "/></g></g></g></g><g fill="#201f1f" fill-opacity="1"><g transform="translate(7.387871, 19.55883)"><g><path d="M 4.453125 0.03125 C 3.929688 0.03125 3.40625 -0.0507812 2.875 -0.21875 C 2.351562 -0.382812 1.890625 -0.640625 1.484375 -0.984375 C 1.410156 -1.046875 1.347656 -1.125 1.296875 -1.21875 C 1.253906 -1.3125 1.234375 -1.398438 1.234375 -1.484375 C 1.234375 -1.609375 1.285156 -1.726562 1.390625 -1.84375 C 1.492188 -1.96875 1.628906 -2.03125 1.796875 -2.03125 C 1.929688 -2.03125 2.066406 -1.972656 2.203125 -1.859375 C 2.535156 -1.609375 2.894531 -1.410156 3.28125 -1.265625 C 3.664062 -1.128906 4.054688 -1.0625 4.453125 -1.0625 C 5.203125 -1.0625 5.851562 -1.203125 6.40625 -1.484375 C 6.96875 -1.773438 7.398438 -2.179688 7.703125 -2.703125 C 8.015625 -3.234375 8.171875 -3.847656 8.171875 -4.546875 C 8.171875 -5.203125 8.03125 -5.765625 7.75 -6.234375 C 7.46875 -6.710938 7.070312 -7.085938 6.5625 -7.359375 C 6.050781 -7.628906 5.445312 -7.765625 4.75 -7.765625 C 4.289062 -7.765625 3.875 -7.695312 3.5 -7.5625 C 3.125 -7.425781 2.796875 -7.28125 2.515625 -7.125 C 2.242188 -6.976562 2.023438 -6.90625 1.859375 -6.90625 C 1.710938 -6.90625 1.59375 -6.941406 1.5 -7.015625 C 1.40625 -7.097656 1.335938 -7.195312 1.296875 -7.3125 C 1.265625 -7.425781 1.265625 -7.546875 1.296875 -7.671875 L 2.109375 -12.765625 C 2.128906 -12.878906 2.191406 -12.984375 2.296875 -13.078125 C 2.398438 -13.171875 2.535156 -13.21875 2.703125 -13.21875 L 8.4375 -13.21875 C 8.59375 -13.21875 8.722656 -13.160156 8.828125 -13.046875 C 8.929688 -12.941406 8.984375 -12.816406 8.984375 -12.671875 C 8.984375 -12.503906 8.929688 -12.363281 8.828125 -12.25 C 8.722656 -12.144531 8.59375 -12.09375 8.4375 -12.09375 L 2.96875 -12.09375 L 3.140625 -12.265625 L 2.359375 -7.75 L 2.015625 -8 C 2.179688 -8.125 2.421875 -8.25 2.734375 -8.375 C 3.046875 -8.507812 3.394531 -8.625 3.78125 -8.71875 C 4.164062 -8.8125 4.578125 -8.859375 5.015625 -8.859375 C 5.835938 -8.859375 6.570312 -8.675781 7.21875 -8.3125 C 7.863281 -7.945312 8.375 -7.441406 8.75 -6.796875 C 9.125 -6.160156 9.3125 -5.425781 9.3125 -4.59375 C 9.3125 -3.664062 9.109375 -2.851562 8.703125 -2.15625 C 8.304688 -1.46875 7.742188 -0.929688 7.015625 -0.546875 C 6.296875 -0.160156 5.441406 0.03125 4.453125 0.03125 Z M 4.453125 0.03125 "/></g></g></g></g></g><g transform="matrix(1, 0, 0, 1, 380, 301)"><g clip-path="url(#da7788067b)"><g clip-path="url(#2dd446ee6f)"><g fill="#201f1f" fill-opacity="1"><g transform="translate(0.160219, 19.55883)"><g><path d="M 4.296875 0 C 4.117188 0 3.972656 -0.0546875 3.859375 -0.171875 C 3.742188 -0.285156 3.6875 -0.421875 3.6875 -0.578125 L 3.6875 -12.03125 L 3.90625 -11.84375 L 1.375 -10.15625 C 1.269531 -10.070312 1.160156 -10.03125 1.046875 -10.03125 C 0.890625 -10.03125 0.75 -10.09375 0.625 -10.21875 C 0.507812 -10.351562 0.453125 -10.492188 0.453125 -10.640625 C 0.453125 -10.847656 0.554688 -11.007812 0.765625 -11.125 L 3.9375 -13.234375 C 4.019531 -13.285156 4.097656 -13.316406 4.171875 -13.328125 C 4.253906 -13.347656 4.332031 -13.347656 4.40625 -13.328125 C 4.5625 -13.316406 4.6875 -13.253906 4.78125 -13.140625 C 4.875 -13.035156 4.921875 -12.910156 4.921875 -12.765625 L 4.921875 -0.578125 C 4.921875 -0.421875 4.863281 -0.285156 4.75 -0.171875 C 4.632812 -0.0546875 4.484375 0 4.296875 0 Z M 4.296875 0 "/></g></g></g></g><g fill="#201f1f" fill-opacity="1"><g transform="translate(7.207601, 19.55883)"><g><path d="M 5.46875 0.1875 C 4.726562 0.1875 4.082031 0.0546875 3.53125 -0.203125 C 2.976562 -0.472656 2.519531 -0.832031 2.15625 -1.28125 C 1.800781 -1.738281 1.535156 -2.25 1.359375 -2.8125 C 1.191406 -3.382812 1.109375 -3.972656 1.109375 -4.578125 C 1.109375 -5.179688 1.179688 -5.832031 1.328125 -6.53125 C 1.484375 -7.238281 1.71875 -7.953125 2.03125 -8.671875 C 2.351562 -9.398438 2.742188 -10.085938 3.203125 -10.734375 C 3.671875 -11.390625 4.210938 -11.972656 4.828125 -12.484375 C 5.441406 -12.992188 6.132812 -13.394531 6.90625 -13.6875 C 7 -13.71875 7.078125 -13.734375 7.140625 -13.734375 C 7.304688 -13.734375 7.445312 -13.6875 7.5625 -13.59375 C 7.6875 -13.507812 7.75 -13.359375 7.75 -13.140625 C 7.75 -13.015625 7.707031 -12.90625 7.625 -12.8125 C 7.539062 -12.71875 7.429688 -12.644531 7.296875 -12.59375 C 6.765625 -12.363281 6.238281 -12.035156 5.71875 -11.609375 C 5.195312 -11.191406 4.710938 -10.710938 4.265625 -10.171875 C 3.816406 -9.628906 3.4375 -9.039062 3.125 -8.40625 C 2.820312 -7.78125 2.601562 -7.144531 2.46875 -6.5 L 2.0625 -6.25 C 2.289062 -6.664062 2.582031 -7.035156 2.9375 -7.359375 C 3.300781 -7.679688 3.71875 -7.941406 4.1875 -8.140625 C 4.65625 -8.335938 5.164062 -8.4375 5.71875 -8.4375 C 6.289062 -8.4375 6.816406 -8.316406 7.296875 -8.078125 C 7.773438 -7.835938 8.1875 -7.507812 8.53125 -7.09375 C 8.882812 -6.675781 9.160156 -6.207031 9.359375 -5.6875 C 9.554688 -5.175781 9.65625 -4.640625 9.65625 -4.078125 C 9.65625 -3.328125 9.472656 -2.628906 9.109375 -1.984375 C 8.753906 -1.335938 8.257812 -0.8125 7.625 -0.40625 C 7 -0.0078125 6.28125 0.1875 5.46875 0.1875 Z M 5.453125 -0.921875 C 6.035156 -0.921875 6.550781 -1.050781 7 -1.3125 C 7.457031 -1.582031 7.816406 -1.953125 8.078125 -2.421875 C 8.335938 -2.898438 8.46875 -3.453125 8.46875 -4.078125 C 8.46875 -4.648438 8.359375 -5.179688 8.140625 -5.671875 C 7.921875 -6.160156 7.59375 -6.554688 7.15625 -6.859375 C 6.71875 -7.171875 6.175781 -7.328125 5.53125 -7.328125 C 4.851562 -7.328125 4.269531 -7.175781 3.78125 -6.875 C 3.289062 -6.570312 2.914062 -6.171875 2.65625 -5.671875 C 2.394531 -5.171875 2.265625 -4.617188 2.265625 -4.015625 C 2.265625 -3.484375 2.390625 -2.976562 2.640625 -2.5 C 2.898438 -2.03125 3.265625 -1.648438 3.734375 -1.359375 C 4.210938 -1.066406 4.785156 -0.921875 5.453125 -0.921875 Z M 5.453125 -0.921875 "/></g></g></g></g></g><g transform="matrix(1, 0, 0, 1, 505, 301)"><g clip-path="url(#7fd7863a83)"><g fill="#201f1f" fill-opacity="1"><g transform="translate(0.979978, 19.55883)"><g><path d="M 4.296875 0 C 4.117188 0 3.972656 -0.0546875 3.859375 -0.171875 C 3.742188 -0.285156 3.6875 -0.421875 3.6875 -0.578125 L 3.6875 -12.03125 L 3.90625 -11.84375 L 1.375 -10.15625 C 1.269531 -10.070312 1.160156 -10.03125 1.046875 -10.03125 C 0.890625 -10.03125 0.75 -10.09375 0.625 -10.21875 C 0.507812 -10.351562 0.453125 -10.492188 0.453125 -10.640625 C 0.453125 -10.847656 0.554688 -11.007812 0.765625 -11.125 L 3.9375 -13.234375 C 4.019531 -13.285156 4.097656 -13.316406 4.171875 -13.328125 C 4.253906 -13.347656 4.332031 -13.347656 4.40625 -13.328125 C 4.5625 -13.316406 4.6875 -13.253906 4.78125 -13.140625 C 4.875 -13.035156 4.921875 -12.910156 4.921875 -12.765625 L 4.921875 -0.578125 C 4.921875 -0.421875 4.863281 -0.285156 4.75 -0.171875 C 4.632812 -0.0546875 4.484375 0 4.296875 0 Z M 4.296875 0 "/></g></g></g><g fill="#201f1f" fill-opacity="1"><g transform="translate(8.027361, 19.55883)"><g><path d="M 3.390625 0.0625 C 3.234375 0.0625 3.09375 0.0078125 2.96875 -0.09375 C 2.84375 -0.195312 2.78125 -0.320312 2.78125 -0.46875 C 2.78125 -0.5625 2.800781 -0.660156 2.84375 -0.765625 L 7.90625 -12.40625 L 8.109375 -12.125 L 1.671875 -12.125 C 1.523438 -12.125 1.394531 -12.175781 1.28125 -12.28125 C 1.175781 -12.394531 1.125 -12.53125 1.125 -12.6875 C 1.125 -12.851562 1.175781 -12.984375 1.28125 -13.078125 C 1.394531 -13.179688 1.523438 -13.234375 1.671875 -13.234375 L 8.671875 -13.234375 C 8.859375 -13.234375 8.992188 -13.179688 9.078125 -13.078125 C 9.171875 -12.984375 9.21875 -12.859375 9.21875 -12.703125 C 9.21875 -12.597656 9.195312 -12.503906 9.15625 -12.421875 L 3.921875 -0.328125 C 3.878906 -0.210938 3.804688 -0.117188 3.703125 -0.046875 C 3.609375 0.0234375 3.503906 0.0625 3.390625 0.0625 Z M 3.390625 0.0625 "/></g></g></g></g></g><g transform="matrix(1, 0, 0, 1, 631, 301)"><g clip-path="url(#33b3586e19)"><g fill="#201f1f" fill-opacity="1"><g transform="translate(0.799738, 19.55883)"><g><path d="M 4.296875 0 C 4.117188 0 3.972656 -0.0546875 3.859375 -0.171875 C 3.742188 -0.285156 3.6875 -0.421875 3.6875 -0.578125 L 3.6875 -12.03125 L 3.90625 -11.84375 L 1.375 -10.15625 C 1.269531 -10.070312 1.160156 -10.03125 1.046875 -10.03125 C 0.890625 -10.03125 0.75 -10.09375 0.625 -10.21875 C 0.507812 -10.351562 0.453125 -10.492188 0.453125 -10.640625 C 0.453125 -10.847656 0.554688 -11.007812 0.765625 -11.125 L 3.9375 -13.234375 C 4.019531 -13.285156 4.097656 -13.316406 4.171875 -13.328125 C 4.253906 -13.347656 4.332031 -13.347656 4.40625 -13.328125 C 4.5625 -13.316406 4.6875 -13.253906 4.78125 -13.140625 C 4.875 -13.035156 4.921875 -12.910156 4.921875 -12.765625 L 4.921875 -0.578125 C 4.921875 -0.421875 4.863281 -0.285156 4.75 -0.171875 C 4.632812 -0.0546875 4.484375 0 4.296875 0 Z M 4.296875 0 "/></g></g></g><g fill="#201f1f" fill-opacity="1"><g transform="translate(7.84712, 19.55883)"><g><path d="M 6.9375 -6.703125 L 6.875 -6.875 C 7.3125 -6.707031 7.707031 -6.460938 8.0625 -6.140625 C 8.414062 -5.816406 8.695312 -5.4375 8.90625 -5 C 9.125 -4.5625 9.234375 -4.082031 9.234375 -3.5625 C 9.234375 -2.875 9.050781 -2.25 8.6875 -1.6875 C 8.332031 -1.132812 7.84375 -0.691406 7.21875 -0.359375 C 6.59375 -0.0234375 5.898438 0.140625 5.140625 0.140625 C 4.367188 0.140625 3.675781 -0.0234375 3.0625 -0.359375 C 2.445312 -0.691406 1.957031 -1.132812 1.59375 -1.6875 C 1.226562 -2.25 1.046875 -2.875 1.046875 -3.5625 C 1.046875 -4.125 1.15625 -4.625 1.375 -5.0625 C 1.601562 -5.5 1.894531 -5.867188 2.25 -6.171875 C 2.613281 -6.472656 2.992188 -6.707031 3.390625 -6.875 L 3.328125 -6.6875 C 2.984375 -6.851562 2.660156 -7.078125 2.359375 -7.359375 C 2.066406 -7.648438 1.828125 -7.992188 1.640625 -8.390625 C 1.453125 -8.785156 1.359375 -9.226562 1.359375 -9.71875 C 1.359375 -10.40625 1.523438 -11.019531 1.859375 -11.5625 C 2.191406 -12.101562 2.644531 -12.53125 3.21875 -12.84375 C 3.800781 -13.164062 4.441406 -13.328125 5.140625 -13.328125 C 5.835938 -13.328125 6.46875 -13.164062 7.03125 -12.84375 C 7.601562 -12.53125 8.054688 -12.101562 8.390625 -11.5625 C 8.722656 -11.019531 8.890625 -10.40625 8.890625 -9.71875 C 8.890625 -9.21875 8.796875 -8.769531 8.609375 -8.375 C 8.421875 -7.988281 8.171875 -7.648438 7.859375 -7.359375 C 7.554688 -7.078125 7.25 -6.859375 6.9375 -6.703125 Z M 2.53125 -9.71875 C 2.53125 -9.207031 2.648438 -8.757812 2.890625 -8.375 C 3.128906 -8 3.445312 -7.703125 3.84375 -7.484375 C 4.238281 -7.265625 4.671875 -7.15625 5.140625 -7.15625 C 5.597656 -7.15625 6.023438 -7.265625 6.421875 -7.484375 C 6.816406 -7.703125 7.128906 -8 7.359375 -8.375 C 7.597656 -8.757812 7.71875 -9.207031 7.71875 -9.71875 C 7.71875 -10.46875 7.472656 -11.078125 6.984375 -11.546875 C 6.503906 -12.015625 5.890625 -12.25 5.140625 -12.25 C 4.367188 -12.25 3.738281 -12.015625 3.25 -11.546875 C 2.769531 -11.078125 2.53125 -10.46875 2.53125 -9.71875 Z M 5.140625 -0.953125 C 6.003906 -0.953125 6.707031 -1.195312 7.25 -1.6875 C 7.789062 -2.1875 8.0625 -2.8125 8.0625 -3.5625 C 8.0625 -4.070312 7.925781 -4.53125 7.65625 -4.9375 C 7.382812 -5.34375 7.023438 -5.660156 6.578125 -5.890625 C 6.140625 -6.117188 5.660156 -6.234375 5.140625 -6.234375 C 4.617188 -6.234375 4.132812 -6.117188 3.6875 -5.890625 C 3.25 -5.660156 2.894531 -5.34375 2.625 -4.9375 C 2.363281 -4.53125 2.234375 -4.070312 2.234375 -3.5625 C 2.234375 -2.8125 2.5 -2.1875 3.03125 -1.6875 C 3.5625 -1.195312 4.265625 -0.953125 5.140625 -0.953125 Z M 5.140625 -0.953125 "/></g></g></g></g></g><g transform="matrix(1, 0, 0, 1, 757, 301)"><g clip-path="url(#6c55161fa7)"><g fill="#201f1f" fill-opacity="1"><g transform="translate(0.619439, 19.55883)"><g><path d="M 4.296875 0 C 4.117188 0 3.972656 -0.0546875 3.859375 -0.171875 C 3.742188 -0.285156 3.6875 -0.421875 3.6875 -0.578125 L 3.6875 -12.03125 L 3.90625 -11.84375 L 1.375 -10.15625 C 1.269531 -10.070312 1.160156 -10.03125 1.046875 -10.03125 C 0.890625 -10.03125 0.75 -10.09375 0.625 -10.21875 C 0.507812 -10.351562 0.453125 -10.492188 0.453125 -10.640625 C 0.453125 -10.847656 0.554688 -11.007812 0.765625 -11.125 L 3.9375 -13.234375 C 4.019531 -13.285156 4.097656 -13.316406 4.171875 -13.328125 C 4.253906 -13.347656 4.332031 -13.347656 4.40625 -13.328125 C 4.5625 -13.316406 4.6875 -13.253906 4.78125 -13.140625 C 4.875 -13.035156 4.921875 -12.910156 4.921875 -12.765625 L 4.921875 -0.578125 C 4.921875 -0.421875 4.863281 -0.285156 4.75 -0.171875 C 4.632812 -0.0546875 4.484375 0 4.296875 0 Z M 4.296875 0 "/></g></g></g><g fill="#201f1f" fill-opacity="1"><g transform="translate(7.666821, 19.55883)"><g><path d="M 5.28125 -13.546875 C 6.03125 -13.546875 6.679688 -13.410156 7.234375 -13.140625 C 7.785156 -12.878906 8.238281 -12.519531 8.59375 -12.0625 C 8.945312 -11.613281 9.210938 -11.101562 9.390625 -10.53125 C 9.566406 -9.957031 9.65625 -9.375 9.65625 -8.78125 C 9.65625 -8.164062 9.578125 -7.515625 9.421875 -6.828125 C 9.265625 -6.140625 9.03125 -5.441406 8.71875 -4.734375 C 8.40625 -4.023438 8.015625 -3.351562 7.546875 -2.71875 C 7.085938 -2.082031 6.546875 -1.507812 5.921875 -1 C 5.296875 -0.5 4.601562 -0.109375 3.84375 0.171875 C 3.738281 0.191406 3.65625 0.203125 3.59375 0.203125 C 3.445312 0.203125 3.3125 0.148438 3.1875 0.046875 C 3.070312 -0.0546875 3.015625 -0.195312 3.015625 -0.375 C 3.015625 -0.507812 3.050781 -0.625 3.125 -0.71875 C 3.195312 -0.8125 3.3125 -0.882812 3.46875 -0.9375 C 4.1875 -1.238281 4.882812 -1.691406 5.5625 -2.296875 C 6.238281 -2.898438 6.816406 -3.597656 7.296875 -4.390625 C 7.785156 -5.179688 8.113281 -6.003906 8.28125 -6.859375 L 8.6875 -7.109375 C 8.46875 -6.703125 8.171875 -6.332031 7.796875 -6 C 7.429688 -5.664062 7.015625 -5.40625 6.546875 -5.21875 C 6.085938 -5.039062 5.585938 -4.953125 5.046875 -4.953125 C 4.234375 -4.953125 3.53125 -5.148438 2.9375 -5.546875 C 2.351562 -5.953125 1.898438 -6.484375 1.578125 -7.140625 C 1.265625 -7.804688 1.109375 -8.519531 1.109375 -9.28125 C 1.109375 -10.03125 1.285156 -10.726562 1.640625 -11.375 C 2.003906 -12.019531 2.5 -12.539062 3.125 -12.9375 C 3.757812 -13.34375 4.476562 -13.546875 5.28125 -13.546875 Z M 5.3125 -12.4375 C 4.71875 -12.4375 4.191406 -12.300781 3.734375 -12.03125 C 3.273438 -11.769531 2.914062 -11.398438 2.65625 -10.921875 C 2.394531 -10.441406 2.265625 -9.894531 2.265625 -9.28125 C 2.265625 -8.71875 2.375 -8.1875 2.59375 -7.6875 C 2.820312 -7.195312 3.15625 -6.800781 3.59375 -6.5 C 4.039062 -6.207031 4.582031 -6.0625 5.21875 -6.0625 C 5.90625 -6.0625 6.488281 -6.207031 6.96875 -6.5 C 7.445312 -6.800781 7.820312 -7.195312 8.09375 -7.6875 C 8.363281 -8.1875 8.5 -8.734375 8.5 -9.328125 C 8.5 -9.878906 8.367188 -10.390625 8.109375 -10.859375 C 7.859375 -11.328125 7.5 -11.707031 7.03125 -12 C 6.5625 -12.289062 5.988281 -12.4375 5.3125 -12.4375 Z M 5.3125 -12.4375 "/></g></g></g></g></g><g clip-path="url(#232a5e58b4)"><g transform="matrix(1, 0, 0, 1, 2, 450)"><g clip-path="url(#608a5f2e48)"><g fill="#201f1f" fill-opacity="1"><g transform="translate(0.700995, 20.318823)"><g><path d="M 9.03125 -1.109375 C 9.175781 -1.109375 9.300781 -1.050781 9.40625 -0.9375 C 9.519531 -0.832031 9.578125 -0.703125 9.578125 -0.546875 C 9.578125 -0.390625 9.519531 -0.257812 9.40625 -0.15625 C 9.300781 -0.0507812 9.175781 0 9.03125 0 L 1.890625 0 C 1.722656 0 1.578125 -0.046875 1.453125 -0.140625 C 1.335938 -0.234375 1.28125 -0.378906 1.28125 -0.578125 C 1.28125 -0.710938 1.328125 -0.84375 1.421875 -0.96875 L 5.828125 -5.828125 C 6.523438 -6.585938 7.046875 -7.285156 7.390625 -7.921875 C 7.742188 -8.566406 7.921875 -9.144531 7.921875 -9.65625 C 7.921875 -10.488281 7.664062 -11.160156 7.15625 -11.671875 C 6.65625 -12.179688 5.972656 -12.4375 5.109375 -12.4375 C 4.710938 -12.4375 4.320312 -12.351562 3.9375 -12.1875 C 3.550781 -12.019531 3.207031 -11.800781 2.90625 -11.53125 C 2.601562 -11.269531 2.367188 -10.96875 2.203125 -10.625 C 2.128906 -10.5 2.050781 -10.410156 1.96875 -10.359375 C 1.882812 -10.304688 1.789062 -10.28125 1.6875 -10.28125 C 1.539062 -10.28125 1.410156 -10.328125 1.296875 -10.421875 C 1.179688 -10.523438 1.125 -10.644531 1.125 -10.78125 C 1.125 -10.863281 1.144531 -10.953125 1.1875 -11.046875 C 1.226562 -11.140625 1.296875 -11.242188 1.390625 -11.359375 C 1.617188 -11.742188 1.9375 -12.101562 2.34375 -12.4375 C 2.75 -12.769531 3.203125 -13.03125 3.703125 -13.21875 C 4.203125 -13.414062 4.695312 -13.515625 5.1875 -13.515625 C 6 -13.515625 6.695312 -13.359375 7.28125 -13.046875 C 7.875 -12.742188 8.332031 -12.304688 8.65625 -11.734375 C 8.976562 -11.171875 9.140625 -10.503906 9.140625 -9.734375 C 9.140625 -9.078125 8.929688 -8.359375 8.515625 -7.578125 C 8.109375 -6.796875 7.5 -5.953125 6.6875 -5.046875 L 2.96875 -0.875 L 2.78125 -1.109375 Z M 9.03125 -1.109375 "/></g></g></g><g fill="#201f1f" fill-opacity="1"><g transform="translate(11.253019, 20.318823)"><g><path d="M 5.65625 0.1875 C 4.644531 0.1875 3.796875 -0.113281 3.109375 -0.71875 C 2.421875 -1.332031 1.90625 -2.15625 1.5625 -3.1875 C 1.21875 -4.226562 1.046875 -5.390625 1.046875 -6.671875 C 1.046875 -7.960938 1.21875 -9.125 1.5625 -10.15625 C 1.90625 -11.195312 2.421875 -12.015625 3.109375 -12.609375 C 3.796875 -13.210938 4.644531 -13.515625 5.65625 -13.515625 C 6.695312 -13.515625 7.554688 -13.210938 8.234375 -12.609375 C 8.910156 -12.015625 9.421875 -11.195312 9.765625 -10.15625 C 10.109375 -9.125 10.28125 -7.960938 10.28125 -6.671875 C 10.28125 -5.390625 10.109375 -4.226562 9.765625 -3.1875 C 9.421875 -2.15625 8.910156 -1.332031 8.234375 -0.71875 C 7.554688 -0.113281 6.695312 0.1875 5.65625 0.1875 Z M 5.65625 -0.984375 C 6.40625 -0.984375 7.03125 -1.21875 7.53125 -1.6875 C 8.03125 -2.164062 8.410156 -2.832031 8.671875 -3.6875 C 8.929688 -4.539062 9.0625 -5.535156 9.0625 -6.671875 C 9.0625 -7.804688 8.929688 -8.800781 8.671875 -9.65625 C 8.410156 -10.519531 8.03125 -11.1875 7.53125 -11.65625 C 7.03125 -12.125 6.40625 -12.359375 5.65625 -12.359375 C 4.914062 -12.359375 4.296875 -12.125 3.796875 -11.65625 C 3.296875 -11.1875 2.914062 -10.519531 2.65625 -9.65625 C 2.394531 -8.800781 2.265625 -7.804688 2.265625 -6.671875 C 2.265625 -5.535156 2.394531 -4.539062 2.65625 -3.6875 C 2.914062 -2.832031 3.296875 -2.164062 3.796875 -1.6875 C 4.296875 -1.21875 4.914062 -0.984375 5.65625 -0.984375 Z M 5.65625 -0.984375 "/></g></g></g></g></g></g><g clip-path="url(#61152631a7)"><g transform="matrix(1, 0, 0, 1, 128, 450)"><g clip-path="url(#cc3845dac1)"><g fill="#201f1f" fill-opacity="1"><g transform="translate(0.520744, 20.318823)"><g><path d="M 9.03125 -1.109375 C 9.175781 -1.109375 9.300781 -1.050781 9.40625 -0.9375 C 9.519531 -0.832031 9.578125 -0.703125 9.578125 -0.546875 C 9.578125 -0.390625 9.519531 -0.257812 9.40625 -0.15625 C 9.300781 -0.0507812 9.175781 0 9.03125 0 L 1.890625 0 C 1.722656 0 1.578125 -0.046875 1.453125 -0.140625 C 1.335938 -0.234375 1.28125 -0.378906 1.28125 -0.578125 C 1.28125 -0.710938 1.328125 -0.84375 1.421875 -0.96875 L 5.828125 -5.828125 C 6.523438 -6.585938 7.046875 -7.285156 7.390625 -7.921875 C 7.742188 -8.566406 7.921875 -9.144531 7.921875 -9.65625 C 7.921875 -10.488281 7.664062 -11.160156 7.15625 -11.671875 C 6.65625 -12.179688 5.972656 -12.4375 5.109375 -12.4375 C 4.710938 -12.4375 4.320312 -12.351562 3.9375 -12.1875 C 3.550781 -12.019531 3.207031 -11.800781 2.90625 -11.53125 C 2.601562 -11.269531 2.367188 -10.96875 2.203125 -10.625 C 2.128906 -10.5 2.050781 -10.410156 1.96875 -10.359375 C 1.882812 -10.304688 1.789062 -10.28125 1.6875 -10.28125 C 1.539062 -10.28125 1.410156 -10.328125 1.296875 -10.421875 C 1.179688 -10.523438 1.125 -10.644531 1.125 -10.78125 C 1.125 -10.863281 1.144531 -10.953125 1.1875 -11.046875 C 1.226562 -11.140625 1.296875 -11.242188 1.390625 -11.359375 C 1.617188 -11.742188 1.9375 -12.101562 2.34375 -12.4375 C 2.75 -12.769531 3.203125 -13.03125 3.703125 -13.21875 C 4.203125 -13.414062 4.695312 -13.515625 5.1875 -13.515625 C 6 -13.515625 6.695312 -13.359375 7.28125 -13.046875 C 7.875 -12.742188 8.332031 -12.304688 8.65625 -11.734375 C 8.976562 -11.171875 9.140625 -10.503906 9.140625 -9.734375 C 9.140625 -9.078125 8.929688 -8.359375 8.515625 -7.578125 C 8.109375 -6.796875 7.5 -5.953125 6.6875 -5.046875 L 2.96875 -0.875 L 2.78125 -1.109375 Z M 9.03125 -1.109375 "/></g></g></g><g fill="#201f1f" fill-opacity="1"><g transform="translate(11.072768, 20.318823)"><g><path d="M 4.296875 0 C 4.117188 0 3.972656 -0.0546875 3.859375 -0.171875 C 3.742188 -0.285156 3.6875 -0.421875 3.6875 -0.578125 L 3.6875 -12.03125 L 3.90625 -11.84375 L 1.375 -10.15625 C 1.269531 -10.070312 1.160156 -10.03125 1.046875 -10.03125 C 0.890625 -10.03125 0.75 -10.09375 0.625 -10.21875 C 0.507812 -10.351562 0.453125 -10.492188 0.453125 -10.640625 C 0.453125 -10.847656 0.554688 -11.007812 0.765625 -11.125 L 3.9375 -13.234375 C 4.019531 -13.285156 4.097656 -13.316406 4.171875 -13.328125 C 4.253906 -13.347656 4.332031 -13.347656 4.40625 -13.328125 C 4.5625 -13.316406 4.6875 -13.253906 4.78125 -13.140625 C 4.875 -13.035156 4.921875 -12.910156 4.921875 -12.765625 L 4.921875 -0.578125 C 4.921875 -0.421875 4.863281 -0.285156 4.75 -0.171875 C 4.632812 -0.0546875 4.484375 0 4.296875 0 Z M 4.296875 0 "/></g></g></g></g></g></g><g clip-path="url(#a2c0c4ba98)"><g transform="matrix(1, 0, 0, 1, 254, 450)"><g clip-path="url(#48d802d585)"><g fill="#201f1f" fill-opacity="1"><g transform="translate(0.340489, 20.318823)"><g><path d="M 9.03125 -1.109375 C 9.175781 -1.109375 9.300781 -1.050781 9.40625 -0.9375 C 9.519531 -0.832031 9.578125 -0.703125 9.578125 -0.546875 C 9.578125 -0.390625 9.519531 -0.257812 9.40625 -0.15625 C 9.300781 -0.0507812 9.175781 0 9.03125 0 L 1.890625 0 C 1.722656 0 1.578125 -0.046875 1.453125 -0.140625 C 1.335938 -0.234375 1.28125 -0.378906 1.28125 -0.578125 C 1.28125 -0.710938 1.328125 -0.84375 1.421875 -0.96875 L 5.828125 -5.828125 C 6.523438 -6.585938 7.046875 -7.285156 7.390625 -7.921875 C 7.742188 -8.566406 7.921875 -9.144531 7.921875 -9.65625 C 7.921875 -10.488281 7.664062 -11.160156 7.15625 -11.671875 C 6.65625 -12.179688 5.972656 -12.4375 5.109375 -12.4375 C 4.710938 -12.4375 4.320312 -12.351562 3.9375 -12.1875 C 3.550781 -12.019531 3.207031 -11.800781 2.90625 -11.53125 C 2.601562 -11.269531 2.367188 -10.96875 2.203125 -10.625 C 2.128906 -10.5 2.050781 -10.410156 1.96875 -10.359375 C 1.882812 -10.304688 1.789062 -10.28125 1.6875 -10.28125 C 1.539062 -10.28125 1.410156 -10.328125 1.296875 -10.421875 C 1.179688 -10.523438 1.125 -10.644531 1.125 -10.78125 C 1.125 -10.863281 1.144531 -10.953125 1.1875 -11.046875 C 1.226562 -11.140625 1.296875 -11.242188 1.390625 -11.359375 C 1.617188 -11.742188 1.9375 -12.101562 2.34375 -12.4375 C 2.75 -12.769531 3.203125 -13.03125 3.703125 -13.21875 C 4.203125 -13.414062 4.695312 -13.515625 5.1875 -13.515625 C 6 -13.515625 6.695312 -13.359375 7.28125 -13.046875 C 7.875 -12.742188 8.332031 -12.304688 8.65625 -11.734375 C 8.976562 -11.171875 9.140625 -10.503906 9.140625 -9.734375 C 9.140625 -9.078125 8.929688 -8.359375 8.515625 -7.578125 C 8.109375 -6.796875 7.5 -5.953125 6.6875 -5.046875 L 2.96875 -0.875 L 2.78125 -1.109375 Z M 9.03125 -1.109375 "/></g></g></g><g fill="#201f1f" fill-opacity="1"><g transform="translate(10.892512, 20.318823)"><g><path d="M 9.03125 -1.109375 C 9.175781 -1.109375 9.300781 -1.050781 9.40625 -0.9375 C 9.519531 -0.832031 9.578125 -0.703125 9.578125 -0.546875 C 9.578125 -0.390625 9.519531 -0.257812 9.40625 -0.15625 C 9.300781 -0.0507812 9.175781 0 9.03125 0 L 1.890625 0 C 1.722656 0 1.578125 -0.046875 1.453125 -0.140625 C 1.335938 -0.234375 1.28125 -0.378906 1.28125 -0.578125 C 1.28125 -0.710938 1.328125 -0.84375 1.421875 -0.96875 L 5.828125 -5.828125 C 6.523438 -6.585938 7.046875 -7.285156 7.390625 -7.921875 C 7.742188 -8.566406 7.921875 -9.144531 7.921875 -9.65625 C 7.921875 -10.488281 7.664062 -11.160156 7.15625 -11.671875 C 6.65625 -12.179688 5.972656 -12.4375 5.109375 -12.4375 C 4.710938 -12.4375 4.320312 -12.351562 3.9375 -12.1875 C 3.550781 -12.019531 3.207031 -11.800781 2.90625 -11.53125 C 2.601562 -11.269531 2.367188 -10.96875 2.203125 -10.625 C 2.128906 -10.5 2.050781 -10.410156 1.96875 -10.359375 C 1.882812 -10.304688 1.789062 -10.28125 1.6875 -10.28125 C 1.539062 -10.28125 1.410156 -10.328125 1.296875 -10.421875 C 1.179688 -10.523438 1.125 -10.644531 1.125 -10.78125 C 1.125 -10.863281 1.144531 -10.953125 1.1875 -11.046875 C 1.226562 -11.140625 1.296875 -11.242188 1.390625 -11.359375 C 1.617188 -11.742188 1.9375 -12.101562 2.34375 -12.4375 C 2.75 -12.769531 3.203125 -13.03125 3.703125 -13.21875 C 4.203125 -13.414062 4.695312 -13.515625 5.1875 -13.515625 C 6 -13.515625 6.695312 -13.359375 7.28125 -13.046875 C 7.875 -12.742188 8.332031 -12.304688 8.65625 -11.734375 C 8.976562 -11.171875 9.140625 -10.503906 9.140625 -9.734375 C 9.140625 -9.078125 8.929688 -8.359375 8.515625 -7.578125 C 8.109375 -6.796875 7.5 -5.953125 6.6875 -5.046875 L 2.96875 -0.875 L 2.78125 -1.109375 Z M 9.03125 -1.109375 "/></g></g></g></g></g></g><g clip-path="url(#73c0f30793)"><g transform="matrix(1, 0, 0, 1, 380, 450)"><g clip-path="url(#600fc0025d)"><g fill="#201f1f" fill-opacity="1"><g transform="translate(0.160219, 20.318823)"><g><path d="M 9.03125 -1.109375 C 9.175781 -1.109375 9.300781 -1.050781 9.40625 -0.9375 C 9.519531 -0.832031 9.578125 -0.703125 9.578125 -0.546875 C 9.578125 -0.390625 9.519531 -0.257812 9.40625 -0.15625 C 9.300781 -0.0507812 9.175781 0 9.03125 0 L 1.890625 0 C 1.722656 0 1.578125 -0.046875 1.453125 -0.140625 C 1.335938 -0.234375 1.28125 -0.378906 1.28125 -0.578125 C 1.28125 -0.710938 1.328125 -0.84375 1.421875 -0.96875 L 5.828125 -5.828125 C 6.523438 -6.585938 7.046875 -7.285156 7.390625 -7.921875 C 7.742188 -8.566406 7.921875 -9.144531 7.921875 -9.65625 C 7.921875 -10.488281 7.664062 -11.160156 7.15625 -11.671875 C 6.65625 -12.179688 5.972656 -12.4375 5.109375 -12.4375 C 4.710938 -12.4375 4.320312 -12.351562 3.9375 -12.1875 C 3.550781 -12.019531 3.207031 -11.800781 2.90625 -11.53125 C 2.601562 -11.269531 2.367188 -10.96875 2.203125 -10.625 C 2.128906 -10.5 2.050781 -10.410156 1.96875 -10.359375 C 1.882812 -10.304688 1.789062 -10.28125 1.6875 -10.28125 C 1.539062 -10.28125 1.410156 -10.328125 1.296875 -10.421875 C 1.179688 -10.523438 1.125 -10.644531 1.125 -10.78125 C 1.125 -10.863281 1.144531 -10.953125 1.1875 -11.046875 C 1.226562 -11.140625 1.296875 -11.242188 1.390625 -11.359375 C 1.617188 -11.742188 1.9375 -12.101562 2.34375 -12.4375 C 2.75 -12.769531 3.203125 -13.03125 3.703125 -13.21875 C 4.203125 -13.414062 4.695312 -13.515625 5.1875 -13.515625 C 6 -13.515625 6.695312 -13.359375 7.28125 -13.046875 C 7.875 -12.742188 8.332031 -12.304688 8.65625 -11.734375 C 8.976562 -11.171875 9.140625 -10.503906 9.140625 -9.734375 C 9.140625 -9.078125 8.929688 -8.359375 8.515625 -7.578125 C 8.109375 -6.796875 7.5 -5.953125 6.6875 -5.046875 L 2.96875 -0.875 L 2.78125 -1.109375 Z M 9.03125 -1.109375 "/></g></g></g><g fill="#201f1f" fill-opacity="1"><g transform="translate(10.712243, 20.318823)"><g><path d="M 1.6875 -1.96875 C 1.757812 -1.96875 1.828125 -1.953125 1.890625 -1.921875 C 1.960938 -1.898438 2.050781 -1.84375 2.15625 -1.75 C 2.414062 -1.46875 2.726562 -1.253906 3.09375 -1.109375 C 3.46875 -0.960938 3.890625 -0.890625 4.359375 -0.890625 C 4.984375 -0.890625 5.550781 -1.03125 6.0625 -1.3125 C 6.582031 -1.59375 6.992188 -1.984375 7.296875 -2.484375 C 7.597656 -2.984375 7.75 -3.554688 7.75 -4.203125 C 7.75 -4.941406 7.585938 -5.535156 7.265625 -5.984375 C 6.941406 -6.441406 6.53125 -6.78125 6.03125 -7 C 5.53125 -7.21875 5.019531 -7.328125 4.5 -7.328125 C 4.351562 -7.328125 4.210938 -7.316406 4.078125 -7.296875 C 3.953125 -7.285156 3.832031 -7.265625 3.71875 -7.234375 C 3.601562 -7.210938 3.515625 -7.203125 3.453125 -7.203125 C 3.285156 -7.203125 3.15625 -7.253906 3.0625 -7.359375 C 2.976562 -7.472656 2.9375 -7.609375 2.9375 -7.765625 C 2.9375 -7.859375 2.953125 -7.9375 2.984375 -8 C 3.023438 -8.070312 3.078125 -8.15625 3.140625 -8.25 L 7.015625 -12.453125 L 7.234375 -12.15625 L 1.46875 -12.15625 C 1.3125 -12.15625 1.179688 -12.207031 1.078125 -12.3125 C 0.972656 -12.414062 0.921875 -12.546875 0.921875 -12.703125 C 0.921875 -12.859375 0.972656 -12.984375 1.078125 -13.078125 C 1.179688 -13.179688 1.3125 -13.234375 1.46875 -13.234375 L 7.859375 -13.234375 C 8.078125 -13.234375 8.226562 -13.164062 8.3125 -13.03125 C 8.40625 -12.90625 8.453125 -12.773438 8.453125 -12.640625 C 8.453125 -12.566406 8.429688 -12.492188 8.390625 -12.421875 C 8.359375 -12.359375 8.3125 -12.285156 8.25 -12.203125 L 4.375 -8 L 3.96875 -8.25 C 4 -8.28125 4.125 -8.316406 4.34375 -8.359375 C 4.570312 -8.410156 4.75 -8.4375 4.875 -8.4375 C 5.570312 -8.4375 6.226562 -8.269531 6.84375 -7.9375 C 7.457031 -7.613281 7.957031 -7.140625 8.34375 -6.515625 C 8.738281 -5.898438 8.9375 -5.144531 8.9375 -4.25 C 8.9375 -3.363281 8.722656 -2.585938 8.296875 -1.921875 C 7.878906 -1.253906 7.316406 -0.734375 6.609375 -0.359375 C 5.898438 0.00390625 5.113281 0.1875 4.25 0.1875 C 3.726562 0.1875 3.210938 0.0976562 2.703125 -0.078125 C 2.191406 -0.253906 1.75 -0.519531 1.375 -0.875 C 1.28125 -0.945312 1.210938 -1.019531 1.171875 -1.09375 C 1.140625 -1.175781 1.125 -1.253906 1.125 -1.328125 C 1.125 -1.484375 1.175781 -1.628906 1.28125 -1.765625 C 1.394531 -1.898438 1.53125 -1.96875 1.6875 -1.96875 Z M 1.6875 -1.96875 "/></g></g></g></g></g></g><g clip-path="url(#bceeeb6482)"><g transform="matrix(1, 0, 0, 1, 505, 450)"><g clip-path="url(#bbbcbc2677)"><g fill="#201f1f" fill-opacity="1"><g transform="translate(0.979978, 20.318823)"><g><path d="M 9.03125 -1.109375 C 9.175781 -1.109375 9.300781 -1.050781 9.40625 -0.9375 C 9.519531 -0.832031 9.578125 -0.703125 9.578125 -0.546875 C 9.578125 -0.390625 9.519531 -0.257812 9.40625 -0.15625 C 9.300781 -0.0507812 9.175781 0 9.03125 0 L 1.890625 0 C 1.722656 0 1.578125 -0.046875 1.453125 -0.140625 C 1.335938 -0.234375 1.28125 -0.378906 1.28125 -0.578125 C 1.28125 -0.710938 1.328125 -0.84375 1.421875 -0.96875 L 5.828125 -5.828125 C 6.523438 -6.585938 7.046875 -7.285156 7.390625 -7.921875 C 7.742188 -8.566406 7.921875 -9.144531 7.921875 -9.65625 C 7.921875 -10.488281 7.664062 -11.160156 7.15625 -11.671875 C 6.65625 -12.179688 5.972656 -12.4375 5.109375 -12.4375 C 4.710938 -12.4375 4.320312 -12.351562 3.9375 -12.1875 C 3.550781 -12.019531 3.207031 -11.800781 2.90625 -11.53125 C 2.601562 -11.269531 2.367188 -10.96875 2.203125 -10.625 C 2.128906 -10.5 2.050781 -10.410156 1.96875 -10.359375 C 1.882812 -10.304688 1.789062 -10.28125 1.6875 -10.28125 C 1.539062 -10.28125 1.410156 -10.328125 1.296875 -10.421875 C 1.179688 -10.523438 1.125 -10.644531 1.125 -10.78125 C 1.125 -10.863281 1.144531 -10.953125 1.1875 -11.046875 C 1.226562 -11.140625 1.296875 -11.242188 1.390625 -11.359375 C 1.617188 -11.742188 1.9375 -12.101562 2.34375 -12.4375 C 2.75 -12.769531 3.203125 -13.03125 3.703125 -13.21875 C 4.203125 -13.414062 4.695312 -13.515625 5.1875 -13.515625 C 6 -13.515625 6.695312 -13.359375 7.28125 -13.046875 C 7.875 -12.742188 8.332031 -12.304688 8.65625 -11.734375 C 8.976562 -11.171875 9.140625 -10.503906 9.140625 -9.734375 C 9.140625 -9.078125 8.929688 -8.359375 8.515625 -7.578125 C 8.109375 -6.796875 7.5 -5.953125 6.6875 -5.046875 L 2.96875 -0.875 L 2.78125 -1.109375 Z M 9.03125 -1.109375 "/></g></g></g><g fill="#201f1f" fill-opacity="1"><g transform="translate(11.532002, 20.318823)"><g><path d="M 6.984375 0 C 6.828125 0 6.695312 -0.0546875 6.59375 -0.171875 C 6.488281 -0.285156 6.4375 -0.421875 6.4375 -0.578125 L 6.4375 -11.75 L 6.6875 -11.59375 L 1.671875 -4.96875 L 1.625 -5.1875 L 8.9375 -5.1875 C 9.082031 -5.1875 9.207031 -5.132812 9.3125 -5.03125 C 9.425781 -4.925781 9.484375 -4.796875 9.484375 -4.640625 C 9.484375 -4.492188 9.425781 -4.367188 9.3125 -4.265625 C 9.207031 -4.160156 9.082031 -4.109375 8.9375 -4.109375 L 0.84375 -4.109375 C 0.6875 -4.109375 0.550781 -4.164062 0.4375 -4.28125 C 0.320312 -4.40625 0.265625 -4.546875 0.265625 -4.703125 C 0.265625 -4.847656 0.3125 -4.972656 0.40625 -5.078125 L 6.53125 -13.109375 C 6.59375 -13.191406 6.671875 -13.25 6.765625 -13.28125 C 6.859375 -13.3125 6.941406 -13.328125 7.015625 -13.328125 C 7.171875 -13.328125 7.300781 -13.269531 7.40625 -13.15625 C 7.519531 -13.039062 7.578125 -12.910156 7.578125 -12.765625 L 7.578125 -0.578125 C 7.578125 -0.421875 7.519531 -0.285156 7.40625 -0.171875 C 7.289062 -0.0546875 7.148438 0 6.984375 0 Z M 6.984375 0 "/></g></g></g></g></g></g><g clip-path="url(#b2c4c77ae4)"><g transform="matrix(1, 0, 0, 1, 631, 450)"><g clip-path="url(#8a790e4b53)"><g fill="#201f1f" fill-opacity="1"><g transform="translate(0.799738, 20.318823)"><g><path d="M 9.03125 -1.109375 C 9.175781 -1.109375 9.300781 -1.050781 9.40625 -0.9375 C 9.519531 -0.832031 9.578125 -0.703125 9.578125 -0.546875 C 9.578125 -0.390625 9.519531 -0.257812 9.40625 -0.15625 C 9.300781 -0.0507812 9.175781 0 9.03125 0 L 1.890625 0 C 1.722656 0 1.578125 -0.046875 1.453125 -0.140625 C 1.335938 -0.234375 1.28125 -0.378906 1.28125 -0.578125 C 1.28125 -0.710938 1.328125 -0.84375 1.421875 -0.96875 L 5.828125 -5.828125 C 6.523438 -6.585938 7.046875 -7.285156 7.390625 -7.921875 C 7.742188 -8.566406 7.921875 -9.144531 7.921875 -9.65625 C 7.921875 -10.488281 7.664062 -11.160156 7.15625 -11.671875 C 6.65625 -12.179688 5.972656 -12.4375 5.109375 -12.4375 C 4.710938 -12.4375 4.320312 -12.351562 3.9375 -12.1875 C 3.550781 -12.019531 3.207031 -11.800781 2.90625 -11.53125 C 2.601562 -11.269531 2.367188 -10.96875 2.203125 -10.625 C 2.128906 -10.5 2.050781 -10.410156 1.96875 -10.359375 C 1.882812 -10.304688 1.789062 -10.28125 1.6875 -10.28125 C 1.539062 -10.28125 1.410156 -10.328125 1.296875 -10.421875 C 1.179688 -10.523438 1.125 -10.644531 1.125 -10.78125 C 1.125 -10.863281 1.144531 -10.953125 1.1875 -11.046875 C 1.226562 -11.140625 1.296875 -11.242188 1.390625 -11.359375 C 1.617188 -11.742188 1.9375 -12.101562 2.34375 -12.4375 C 2.75 -12.769531 3.203125 -13.03125 3.703125 -13.21875 C 4.203125 -13.414062 4.695312 -13.515625 5.1875 -13.515625 C 6 -13.515625 6.695312 -13.359375 7.28125 -13.046875 C 7.875 -12.742188 8.332031 -12.304688 8.65625 -11.734375 C 8.976562 -11.171875 9.140625 -10.503906 9.140625 -9.734375 C 9.140625 -9.078125 8.929688 -8.359375 8.515625 -7.578125 C 8.109375 -6.796875 7.5 -5.953125 6.6875 -5.046875 L 2.96875 -0.875 L 2.78125 -1.109375 Z M 9.03125 -1.109375 "/></g></g></g><g fill="#201f1f" fill-opacity="1"><g transform="translate(11.351762, 20.318823)"><g><path d="M 4.453125 0.03125 C 3.929688 0.03125 3.40625 -0.0507812 2.875 -0.21875 C 2.351562 -0.382812 1.890625 -0.640625 1.484375 -0.984375 C 1.410156 -1.046875 1.347656 -1.125 1.296875 -1.21875 C 1.253906 -1.3125 1.234375 -1.398438 1.234375 -1.484375 C 1.234375 -1.609375 1.285156 -1.726562 1.390625 -1.84375 C 1.492188 -1.96875 1.628906 -2.03125 1.796875 -2.03125 C 1.929688 -2.03125 2.066406 -1.972656 2.203125 -1.859375 C 2.535156 -1.609375 2.894531 -1.410156 3.28125 -1.265625 C 3.664062 -1.128906 4.054688 -1.0625 4.453125 -1.0625 C 5.203125 -1.0625 5.851562 -1.203125 6.40625 -1.484375 C 6.96875 -1.773438 7.398438 -2.179688 7.703125 -2.703125 C 8.015625 -3.234375 8.171875 -3.847656 8.171875 -4.546875 C 8.171875 -5.203125 8.03125 -5.765625 7.75 -6.234375 C 7.46875 -6.710938 7.070312 -7.085938 6.5625 -7.359375 C 6.050781 -7.628906 5.445312 -7.765625 4.75 -7.765625 C 4.289062 -7.765625 3.875 -7.695312 3.5 -7.5625 C 3.125 -7.425781 2.796875 -7.28125 2.515625 -7.125 C 2.242188 -6.976562 2.023438 -6.90625 1.859375 -6.90625 C 1.710938 -6.90625 1.59375 -6.941406 1.5 -7.015625 C 1.40625 -7.097656 1.335938 -7.195312 1.296875 -7.3125 C 1.265625 -7.425781 1.265625 -7.546875 1.296875 -7.671875 L 2.109375 -12.765625 C 2.128906 -12.878906 2.191406 -12.984375 2.296875 -13.078125 C 2.398438 -13.171875 2.535156 -13.21875 2.703125 -13.21875 L 8.4375 -13.21875 C 8.59375 -13.21875 8.722656 -13.160156 8.828125 -13.046875 C 8.929688 -12.941406 8.984375 -12.816406 8.984375 -12.671875 C 8.984375 -12.503906 8.929688 -12.363281 8.828125 -12.25 C 8.722656 -12.144531 8.59375 -12.09375 8.4375 -12.09375 L 2.96875 -12.09375 L 3.140625 -12.265625 L 2.359375 -7.75 L 2.015625 -8 C 2.179688 -8.125 2.421875 -8.25 2.734375 -8.375 C 3.046875 -8.507812 3.394531 -8.625 3.78125 -8.71875 C 4.164062 -8.8125 4.578125 -8.859375 5.015625 -8.859375 C 5.835938 -8.859375 6.570312 -8.675781 7.21875 -8.3125 C 7.863281 -7.945312 8.375 -7.441406 8.75 -6.796875 C 9.125 -6.160156 9.3125 -5.425781 9.3125 -4.59375 C 9.3125 -3.664062 9.109375 -2.851562 8.703125 -2.15625 C 8.304688 -1.46875 7.742188 -0.929688 7.015625 -0.546875 C 6.296875 -0.160156 5.441406 0.03125 4.453125 0.03125 Z M 4.453125 0.03125 "/></g></g></g></g></g></g><g clip-path="url(#8021df20ec)"><g transform="matrix(1, 0, 0, 1, 757, 450)"><g clip-path="url(#306de0b63b)"><g fill="#201f1f" fill-opacity="1"><g transform="translate(0.619439, 20.318823)"><g><path d="M 9.03125 -1.109375 C 9.175781 -1.109375 9.300781 -1.050781 9.40625 -0.9375 C 9.519531 -0.832031 9.578125 -0.703125 9.578125 -0.546875 C 9.578125 -0.390625 9.519531 -0.257812 9.40625 -0.15625 C 9.300781 -0.0507812 9.175781 0 9.03125 0 L 1.890625 0 C 1.722656 0 1.578125 -0.046875 1.453125 -0.140625 C 1.335938 -0.234375 1.28125 -0.378906 1.28125 -0.578125 C 1.28125 -0.710938 1.328125 -0.84375 1.421875 -0.96875 L 5.828125 -5.828125 C 6.523438 -6.585938 7.046875 -7.285156 7.390625 -7.921875 C 7.742188 -8.566406 7.921875 -9.144531 7.921875 -9.65625 C 7.921875 -10.488281 7.664062 -11.160156 7.15625 -11.671875 C 6.65625 -12.179688 5.972656 -12.4375 5.109375 -12.4375 C 4.710938 -12.4375 4.320312 -12.351562 3.9375 -12.1875 C 3.550781 -12.019531 3.207031 -11.800781 2.90625 -11.53125 C 2.601562 -11.269531 2.367188 -10.96875 2.203125 -10.625 C 2.128906 -10.5 2.050781 -10.410156 1.96875 -10.359375 C 1.882812 -10.304688 1.789062 -10.28125 1.6875 -10.28125 C 1.539062 -10.28125 1.410156 -10.328125 1.296875 -10.421875 C 1.179688 -10.523438 1.125 -10.644531 1.125 -10.78125 C 1.125 -10.863281 1.144531 -10.953125 1.1875 -11.046875 C 1.226562 -11.140625 1.296875 -11.242188 1.390625 -11.359375 C 1.617188 -11.742188 1.9375 -12.101562 2.34375 -12.4375 C 2.75 -12.769531 3.203125 -13.03125 3.703125 -13.21875 C 4.203125 -13.414062 4.695312 -13.515625 5.1875 -13.515625 C 6 -13.515625 6.695312 -13.359375 7.28125 -13.046875 C 7.875 -12.742188 8.332031 -12.304688 8.65625 -11.734375 C 8.976562 -11.171875 9.140625 -10.503906 9.140625 -9.734375 C 9.140625 -9.078125 8.929688 -8.359375 8.515625 -7.578125 C 8.109375 -6.796875 7.5 -5.953125 6.6875 -5.046875 L 2.96875 -0.875 L 2.78125 -1.109375 Z M 9.03125 -1.109375 "/></g></g></g><g fill="#201f1f" fill-opacity="1"><g transform="translate(11.171462, 20.318823)"><g><path d="M 5.46875 0.1875 C 4.726562 0.1875 4.082031 0.0546875 3.53125 -0.203125 C 2.976562 -0.472656 2.519531 -0.832031 2.15625 -1.28125 C 1.800781 -1.738281 1.535156 -2.25 1.359375 -2.8125 C 1.191406 -3.382812 1.109375 -3.972656 1.109375 -4.578125 C 1.109375 -5.179688 1.179688 -5.832031 1.328125 -6.53125 C 1.484375 -7.238281 1.71875 -7.953125 2.03125 -8.671875 C 2.351562 -9.398438 2.742188 -10.085938 3.203125 -10.734375 C 3.671875 -11.390625 4.210938 -11.972656 4.828125 -12.484375 C 5.441406 -12.992188 6.132812 -13.394531 6.90625 -13.6875 C 7 -13.71875 7.078125 -13.734375 7.140625 -13.734375 C 7.304688 -13.734375 7.445312 -13.6875 7.5625 -13.59375 C 7.6875 -13.507812 7.75 -13.359375 7.75 -13.140625 C 7.75 -13.015625 7.707031 -12.90625 7.625 -12.8125 C 7.539062 -12.71875 7.429688 -12.644531 7.296875 -12.59375 C 6.765625 -12.363281 6.238281 -12.035156 5.71875 -11.609375 C 5.195312 -11.191406 4.710938 -10.710938 4.265625 -10.171875 C 3.816406 -9.628906 3.4375 -9.039062 3.125 -8.40625 C 2.820312 -7.78125 2.601562 -7.144531 2.46875 -6.5 L 2.0625 -6.25 C 2.289062 -6.664062 2.582031 -7.035156 2.9375 -7.359375 C 3.300781 -7.679688 3.71875 -7.941406 4.1875 -8.140625 C 4.65625 -8.335938 5.164062 -8.4375 5.71875 -8.4375 C 6.289062 -8.4375 6.816406 -8.316406 7.296875 -8.078125 C 7.773438 -7.835938 8.1875 -7.507812 8.53125 -7.09375 C 8.882812 -6.675781 9.160156 -6.207031 9.359375 -5.6875 C 9.554688 -5.175781 9.65625 -4.640625 9.65625 -4.078125 C 9.65625 -3.328125 9.472656 -2.628906 9.109375 -1.984375 C 8.753906 -1.335938 8.257812 -0.8125 7.625 -0.40625 C 7 -0.0078125 6.28125 0.1875 5.46875 0.1875 Z M 5.453125 -0.921875 C 6.035156 -0.921875 6.550781 -1.050781 7 -1.3125 C 7.457031 -1.582031 7.816406 -1.953125 8.078125 -2.421875 C 8.335938 -2.898438 8.46875 -3.453125 8.46875 -4.078125 C 8.46875 -4.648438 8.359375 -5.179688 8.140625 -5.671875 C 7.921875 -6.160156 7.59375 -6.554688 7.15625 -6.859375 C 6.71875 -7.171875 6.175781 -7.328125 5.53125 -7.328125 C 4.851562 -7.328125 4.269531 -7.175781 3.78125 -6.875 C 3.289062 -6.570312 2.914062 -6.171875 2.65625 -5.671875 C 2.394531 -5.171875 2.265625 -4.617188 2.265625 -4.015625 C 2.265625 -3.484375 2.390625 -2.976562 2.640625 -2.5 C 2.898438 -2.03125 3.265625 -1.648438 3.734375 -1.359375 C 4.210938 -1.066406 4.785156 -0.921875 5.453125 -0.921875 Z M 5.453125 -0.921875 "/></g></g></g></g></g></g><g clip-path="url(#37eeeb8a92)"><g transform="matrix(1, 0, 0, 1, 2, 600)"><g clip-path="url(#8286a4e48d)"><g fill="#201f1f" fill-opacity="1"><g transform="translate(0.700995, 20.078552)"><g><path d="M 9.03125 -1.109375 C 9.175781 -1.109375 9.300781 -1.050781 9.40625 -0.9375 C 9.519531 -0.832031 9.578125 -0.703125 9.578125 -0.546875 C 9.578125 -0.390625 9.519531 -0.257812 9.40625 -0.15625 C 9.300781 -0.0507812 9.175781 0 9.03125 0 L 1.890625 0 C 1.722656 0 1.578125 -0.046875 1.453125 -0.140625 C 1.335938 -0.234375 1.28125 -0.378906 1.28125 -0.578125 C 1.28125 -0.710938 1.328125 -0.84375 1.421875 -0.96875 L 5.828125 -5.828125 C 6.523438 -6.585938 7.046875 -7.285156 7.390625 -7.921875 C 7.742188 -8.566406 7.921875 -9.144531 7.921875 -9.65625 C 7.921875 -10.488281 7.664062 -11.160156 7.15625 -11.671875 C 6.65625 -12.179688 5.972656 -12.4375 5.109375 -12.4375 C 4.710938 -12.4375 4.320312 -12.351562 3.9375 -12.1875 C 3.550781 -12.019531 3.207031 -11.800781 2.90625 -11.53125 C 2.601562 -11.269531 2.367188 -10.96875 2.203125 -10.625 C 2.128906 -10.5 2.050781 -10.410156 1.96875 -10.359375 C 1.882812 -10.304688 1.789062 -10.28125 1.6875 -10.28125 C 1.539062 -10.28125 1.410156 -10.328125 1.296875 -10.421875 C 1.179688 -10.523438 1.125 -10.644531 1.125 -10.78125 C 1.125 -10.863281 1.144531 -10.953125 1.1875 -11.046875 C 1.226562 -11.140625 1.296875 -11.242188 1.390625 -11.359375 C 1.617188 -11.742188 1.9375 -12.101562 2.34375 -12.4375 C 2.75 -12.769531 3.203125 -13.03125 3.703125 -13.21875 C 4.203125 -13.414062 4.695312 -13.515625 5.1875 -13.515625 C 6 -13.515625 6.695312 -13.359375 7.28125 -13.046875 C 7.875 -12.742188 8.332031 -12.304688 8.65625 -11.734375 C 8.976562 -11.171875 9.140625 -10.503906 9.140625 -9.734375 C 9.140625 -9.078125 8.929688 -8.359375 8.515625 -7.578125 C 8.109375 -6.796875 7.5 -5.953125 6.6875 -5.046875 L 2.96875 -0.875 L 2.78125 -1.109375 Z M 9.03125 -1.109375 "/></g></g></g><g fill="#201f1f" fill-opacity="1"><g transform="translate(11.253019, 20.078552)"><g><path d="M 3.390625 0.0625 C 3.234375 0.0625 3.09375 0.0078125 2.96875 -0.09375 C 2.84375 -0.195312 2.78125 -0.320312 2.78125 -0.46875 C 2.78125 -0.5625 2.800781 -0.660156 2.84375 -0.765625 L 7.90625 -12.40625 L 8.109375 -12.125 L 1.671875 -12.125 C 1.523438 -12.125 1.394531 -12.175781 1.28125 -12.28125 C 1.175781 -12.394531 1.125 -12.53125 1.125 -12.6875 C 1.125 -12.851562 1.175781 -12.984375 1.28125 -13.078125 C 1.394531 -13.179688 1.523438 -13.234375 1.671875 -13.234375 L 8.671875 -13.234375 C 8.859375 -13.234375 8.992188 -13.179688 9.078125 -13.078125 C 9.171875 -12.984375 9.21875 -12.859375 9.21875 -12.703125 C 9.21875 -12.597656 9.195312 -12.503906 9.15625 -12.421875 L 3.921875 -0.328125 C 3.878906 -0.210938 3.804688 -0.117188 3.703125 -0.046875 C 3.609375 0.0234375 3.503906 0.0625 3.390625 0.0625 Z M 3.390625 0.0625 "/></g></g></g></g></g></g><g clip-path="url(#e05284c9e2)"><g transform="matrix(1, 0, 0, 1, 128, 600)"><g clip-path="url(#db5f285ce1)"><g fill="#201f1f" fill-opacity="1"><g transform="translate(0.520744, 20.078552)"><g><path d="M 9.03125 -1.109375 C 9.175781 -1.109375 9.300781 -1.050781 9.40625 -0.9375 C 9.519531 -0.832031 9.578125 -0.703125 9.578125 -0.546875 C 9.578125 -0.390625 9.519531 -0.257812 9.40625 -0.15625 C 9.300781 -0.0507812 9.175781 0 9.03125 0 L 1.890625 0 C 1.722656 0 1.578125 -0.046875 1.453125 -0.140625 C 1.335938 -0.234375 1.28125 -0.378906 1.28125 -0.578125 C 1.28125 -0.710938 1.328125 -0.84375 1.421875 -0.96875 L 5.828125 -5.828125 C 6.523438 -6.585938 7.046875 -7.285156 7.390625 -7.921875 C 7.742188 -8.566406 7.921875 -9.144531 7.921875 -9.65625 C 7.921875 -10.488281 7.664062 -11.160156 7.15625 -11.671875 C 6.65625 -12.179688 5.972656 -12.4375 5.109375 -12.4375 C 4.710938 -12.4375 4.320312 -12.351562 3.9375 -12.1875 C 3.550781 -12.019531 3.207031 -11.800781 2.90625 -11.53125 C 2.601562 -11.269531 2.367188 -10.96875 2.203125 -10.625 C 2.128906 -10.5 2.050781 -10.410156 1.96875 -10.359375 C 1.882812 -10.304688 1.789062 -10.28125 1.6875 -10.28125 C 1.539062 -10.28125 1.410156 -10.328125 1.296875 -10.421875 C 1.179688 -10.523438 1.125 -10.644531 1.125 -10.78125 C 1.125 -10.863281 1.144531 -10.953125 1.1875 -11.046875 C 1.226562 -11.140625 1.296875 -11.242188 1.390625 -11.359375 C 1.617188 -11.742188 1.9375 -12.101562 2.34375 -12.4375 C 2.75 -12.769531 3.203125 -13.03125 3.703125 -13.21875 C 4.203125 -13.414062 4.695312 -13.515625 5.1875 -13.515625 C 6 -13.515625 6.695312 -13.359375 7.28125 -13.046875 C 7.875 -12.742188 8.332031 -12.304688 8.65625 -11.734375 C 8.976562 -11.171875 9.140625 -10.503906 9.140625 -9.734375 C 9.140625 -9.078125 8.929688 -8.359375 8.515625 -7.578125 C 8.109375 -6.796875 7.5 -5.953125 6.6875 -5.046875 L 2.96875 -0.875 L 2.78125 -1.109375 Z M 9.03125 -1.109375 "/></g></g></g><g fill="#201f1f" fill-opacity="1"><g transform="translate(11.072768, 20.078552)"><g><path d="M 6.9375 -6.703125 L 6.875 -6.875 C 7.3125 -6.707031 7.707031 -6.460938 8.0625 -6.140625 C 8.414062 -5.816406 8.695312 -5.4375 8.90625 -5 C 9.125 -4.5625 9.234375 -4.082031 9.234375 -3.5625 C 9.234375 -2.875 9.050781 -2.25 8.6875 -1.6875 C 8.332031 -1.132812 7.84375 -0.691406 7.21875 -0.359375 C 6.59375 -0.0234375 5.898438 0.140625 5.140625 0.140625 C 4.367188 0.140625 3.675781 -0.0234375 3.0625 -0.359375 C 2.445312 -0.691406 1.957031 -1.132812 1.59375 -1.6875 C 1.226562 -2.25 1.046875 -2.875 1.046875 -3.5625 C 1.046875 -4.125 1.15625 -4.625 1.375 -5.0625 C 1.601562 -5.5 1.894531 -5.867188 2.25 -6.171875 C 2.613281 -6.472656 2.992188 -6.707031 3.390625 -6.875 L 3.328125 -6.6875 C 2.984375 -6.851562 2.660156 -7.078125 2.359375 -7.359375 C 2.066406 -7.648438 1.828125 -7.992188 1.640625 -8.390625 C 1.453125 -8.785156 1.359375 -9.226562 1.359375 -9.71875 C 1.359375 -10.40625 1.523438 -11.019531 1.859375 -11.5625 C 2.191406 -12.101562 2.644531 -12.53125 3.21875 -12.84375 C 3.800781 -13.164062 4.441406 -13.328125 5.140625 -13.328125 C 5.835938 -13.328125 6.46875 -13.164062 7.03125 -12.84375 C 7.601562 -12.53125 8.054688 -12.101562 8.390625 -11.5625 C 8.722656 -11.019531 8.890625 -10.40625 8.890625 -9.71875 C 8.890625 -9.21875 8.796875 -8.769531 8.609375 -8.375 C 8.421875 -7.988281 8.171875 -7.648438 7.859375 -7.359375 C 7.554688 -7.078125 7.25 -6.859375 6.9375 -6.703125 Z M 2.53125 -9.71875 C 2.53125 -9.207031 2.648438 -8.757812 2.890625 -8.375 C 3.128906 -8 3.445312 -7.703125 3.84375 -7.484375 C 4.238281 -7.265625 4.671875 -7.15625 5.140625 -7.15625 C 5.597656 -7.15625 6.023438 -7.265625 6.421875 -7.484375 C 6.816406 -7.703125 7.128906 -8 7.359375 -8.375 C 7.597656 -8.757812 7.71875 -9.207031 7.71875 -9.71875 C 7.71875 -10.46875 7.472656 -11.078125 6.984375 -11.546875 C 6.503906 -12.015625 5.890625 -12.25 5.140625 -12.25 C 4.367188 -12.25 3.738281 -12.015625 3.25 -11.546875 C 2.769531 -11.078125 2.53125 -10.46875 2.53125 -9.71875 Z M 5.140625 -0.953125 C 6.003906 -0.953125 6.707031 -1.195312 7.25 -1.6875 C 7.789062 -2.1875 8.0625 -2.8125 8.0625 -3.5625 C 8.0625 -4.070312 7.925781 -4.53125 7.65625 -4.9375 C 7.382812 -5.34375 7.023438 -5.660156 6.578125 -5.890625 C 6.140625 -6.117188 5.660156 -6.234375 5.140625 -6.234375 C 4.617188 -6.234375 4.132812 -6.117188 3.6875 -5.890625 C 3.25 -5.660156 2.894531 -5.34375 2.625 -4.9375 C 2.363281 -4.53125 2.234375 -4.070312 2.234375 -3.5625 C 2.234375 -2.8125 2.5 -2.1875 3.03125 -1.6875 C 3.5625 -1.195312 4.265625 -0.953125 5.140625 -0.953125 Z M 5.140625 -0.953125 "/></g></g></g></g></g></g><g clip-path="url(#d9bd09bd46)"><g transform="matrix(1, 0, 0, 1, 254, 600)"><g clip-path="url(#cfcd239722)"><g fill="#201f1f" fill-opacity="1"><g transform="translate(0.340489, 20.078552)"><g><path d="M 9.03125 -1.109375 C 9.175781 -1.109375 9.300781 -1.050781 9.40625 -0.9375 C 9.519531 -0.832031 9.578125 -0.703125 9.578125 -0.546875 C 9.578125 -0.390625 9.519531 -0.257812 9.40625 -0.15625 C 9.300781 -0.0507812 9.175781 0 9.03125 0 L 1.890625 0 C 1.722656 0 1.578125 -0.046875 1.453125 -0.140625 C 1.335938 -0.234375 1.28125 -0.378906 1.28125 -0.578125 C 1.28125 -0.710938 1.328125 -0.84375 1.421875 -0.96875 L 5.828125 -5.828125 C 6.523438 -6.585938 7.046875 -7.285156 7.390625 -7.921875 C 7.742188 -8.566406 7.921875 -9.144531 7.921875 -9.65625 C 7.921875 -10.488281 7.664062 -11.160156 7.15625 -11.671875 C 6.65625 -12.179688 5.972656 -12.4375 5.109375 -12.4375 C 4.710938 -12.4375 4.320312 -12.351562 3.9375 -12.1875 C 3.550781 -12.019531 3.207031 -11.800781 2.90625 -11.53125 C 2.601562 -11.269531 2.367188 -10.96875 2.203125 -10.625 C 2.128906 -10.5 2.050781 -10.410156 1.96875 -10.359375 C 1.882812 -10.304688 1.789062 -10.28125 1.6875 -10.28125 C 1.539062 -10.28125 1.410156 -10.328125 1.296875 -10.421875 C 1.179688 -10.523438 1.125 -10.644531 1.125 -10.78125 C 1.125 -10.863281 1.144531 -10.953125 1.1875 -11.046875 C 1.226562 -11.140625 1.296875 -11.242188 1.390625 -11.359375 C 1.617188 -11.742188 1.9375 -12.101562 2.34375 -12.4375 C 2.75 -12.769531 3.203125 -13.03125 3.703125 -13.21875 C 4.203125 -13.414062 4.695312 -13.515625 5.1875 -13.515625 C 6 -13.515625 6.695312 -13.359375 7.28125 -13.046875 C 7.875 -12.742188 8.332031 -12.304688 8.65625 -11.734375 C 8.976562 -11.171875 9.140625 -10.503906 9.140625 -9.734375 C 9.140625 -9.078125 8.929688 -8.359375 8.515625 -7.578125 C 8.109375 -6.796875 7.5 -5.953125 6.6875 -5.046875 L 2.96875 -0.875 L 2.78125 -1.109375 Z M 9.03125 -1.109375 "/></g></g></g><g fill="#201f1f" fill-opacity="1"><g transform="translate(10.892512, 20.078552)"><g><path d="M 5.28125 -13.546875 C 6.03125 -13.546875 6.679688 -13.410156 7.234375 -13.140625 C 7.785156 -12.878906 8.238281 -12.519531 8.59375 -12.0625 C 8.945312 -11.613281 9.210938 -11.101562 9.390625 -10.53125 C 9.566406 -9.957031 9.65625 -9.375 9.65625 -8.78125 C 9.65625 -8.164062 9.578125 -7.515625 9.421875 -6.828125 C 9.265625 -6.140625 9.03125 -5.441406 8.71875 -4.734375 C 8.40625 -4.023438 8.015625 -3.351562 7.546875 -2.71875 C 7.085938 -2.082031 6.546875 -1.507812 5.921875 -1 C 5.296875 -0.5 4.601562 -0.109375 3.84375 0.171875 C 3.738281 0.191406 3.65625 0.203125 3.59375 0.203125 C 3.445312 0.203125 3.3125 0.148438 3.1875 0.046875 C 3.070312 -0.0546875 3.015625 -0.195312 3.015625 -0.375 C 3.015625 -0.507812 3.050781 -0.625 3.125 -0.71875 C 3.195312 -0.8125 3.3125 -0.882812 3.46875 -0.9375 C 4.1875 -1.238281 4.882812 -1.691406 5.5625 -2.296875 C 6.238281 -2.898438 6.816406 -3.597656 7.296875 -4.390625 C 7.785156 -5.179688 8.113281 -6.003906 8.28125 -6.859375 L 8.6875 -7.109375 C 8.46875 -6.703125 8.171875 -6.332031 7.796875 -6 C 7.429688 -5.664062 7.015625 -5.40625 6.546875 -5.21875 C 6.085938 -5.039062 5.585938 -4.953125 5.046875 -4.953125 C 4.234375 -4.953125 3.53125 -5.148438 2.9375 -5.546875 C 2.351562 -5.953125 1.898438 -6.484375 1.578125 -7.140625 C 1.265625 -7.804688 1.109375 -8.519531 1.109375 -9.28125 C 1.109375 -10.03125 1.285156 -10.726562 1.640625 -11.375 C 2.003906 -12.019531 2.5 -12.539062 3.125 -12.9375 C 3.757812 -13.34375 4.476562 -13.546875 5.28125 -13.546875 Z M 5.3125 -12.4375 C 4.71875 -12.4375 4.191406 -12.300781 3.734375 -12.03125 C 3.273438 -11.769531 2.914062 -11.398438 2.65625 -10.921875 C 2.394531 -10.441406 2.265625 -9.894531 2.265625 -9.28125 C 2.265625 -8.71875 2.375 -8.1875 2.59375 -7.6875 C 2.820312 -7.195312 3.15625 -6.800781 3.59375 -6.5 C 4.039062 -6.207031 4.582031 -6.0625 5.21875 -6.0625 C 5.90625 -6.0625 6.488281 -6.207031 6.96875 -6.5 C 7.445312 -6.800781 7.820312 -7.195312 8.09375 -7.6875 C 8.363281 -8.1875 8.5 -8.734375 8.5 -9.328125 C 8.5 -9.878906 8.367188 -10.390625 8.109375 -10.859375 C 7.859375 -11.328125 7.5 -11.707031 7.03125 -12 C 6.5625 -12.289062 5.988281 -12.4375 5.3125 -12.4375 Z M 5.3125 -12.4375 "/></g></g></g></g></g></g><g clip-path="url(#af8ef7a8b4)"><g transform="matrix(1, 0, 0, 1, 380, 600)"><g clip-path="url(#e777a0d516)"><g fill="#201f1f" fill-opacity="1"><g transform="translate(0.160219, 20.078552)"><g><path d="M 1.6875 -1.96875 C 1.757812 -1.96875 1.828125 -1.953125 1.890625 -1.921875 C 1.960938 -1.898438 2.050781 -1.84375 2.15625 -1.75 C 2.414062 -1.46875 2.726562 -1.253906 3.09375 -1.109375 C 3.46875 -0.960938 3.890625 -0.890625 4.359375 -0.890625 C 4.984375 -0.890625 5.550781 -1.03125 6.0625 -1.3125 C 6.582031 -1.59375 6.992188 -1.984375 7.296875 -2.484375 C 7.597656 -2.984375 7.75 -3.554688 7.75 -4.203125 C 7.75 -4.941406 7.585938 -5.535156 7.265625 -5.984375 C 6.941406 -6.441406 6.53125 -6.78125 6.03125 -7 C 5.53125 -7.21875 5.019531 -7.328125 4.5 -7.328125 C 4.351562 -7.328125 4.210938 -7.316406 4.078125 -7.296875 C 3.953125 -7.285156 3.832031 -7.265625 3.71875 -7.234375 C 3.601562 -7.210938 3.515625 -7.203125 3.453125 -7.203125 C 3.285156 -7.203125 3.15625 -7.253906 3.0625 -7.359375 C 2.976562 -7.472656 2.9375 -7.609375 2.9375 -7.765625 C 2.9375 -7.859375 2.953125 -7.9375 2.984375 -8 C 3.023438 -8.070312 3.078125 -8.15625 3.140625 -8.25 L 7.015625 -12.453125 L 7.234375 -12.15625 L 1.46875 -12.15625 C 1.3125 -12.15625 1.179688 -12.207031 1.078125 -12.3125 C 0.972656 -12.414062 0.921875 -12.546875 0.921875 -12.703125 C 0.921875 -12.859375 0.972656 -12.984375 1.078125 -13.078125 C 1.179688 -13.179688 1.3125 -13.234375 1.46875 -13.234375 L 7.859375 -13.234375 C 8.078125 -13.234375 8.226562 -13.164062 8.3125 -13.03125 C 8.40625 -12.90625 8.453125 -12.773438 8.453125 -12.640625 C 8.453125 -12.566406 8.429688 -12.492188 8.390625 -12.421875 C 8.359375 -12.359375 8.3125 -12.285156 8.25 -12.203125 L 4.375 -8 L 3.96875 -8.25 C 4 -8.28125 4.125 -8.316406 4.34375 -8.359375 C 4.570312 -8.410156 4.75 -8.4375 4.875 -8.4375 C 5.570312 -8.4375 6.226562 -8.269531 6.84375 -7.9375 C 7.457031 -7.613281 7.957031 -7.140625 8.34375 -6.515625 C 8.738281 -5.898438 8.9375 -5.144531 8.9375 -4.25 C 8.9375 -3.363281 8.722656 -2.585938 8.296875 -1.921875 C 7.878906 -1.253906 7.316406 -0.734375 6.609375 -0.359375 C 5.898438 0.00390625 5.113281 0.1875 4.25 0.1875 C 3.726562 0.1875 3.210938 0.0976562 2.703125 -0.078125 C 2.191406 -0.253906 1.75 -0.519531 1.375 -0.875 C 1.28125 -0.945312 1.210938 -1.019531 1.171875 -1.09375 C 1.140625 -1.175781 1.125 -1.253906 1.125 -1.328125 C 1.125 -1.484375 1.175781 -1.628906 1.28125 -1.765625 C 1.394531 -1.898438 1.53125 -1.96875 1.6875 -1.96875 Z M 1.6875 -1.96875 "/></g></g></g><g fill="#201f1f" fill-opacity="1"><g transform="translate(10.140838, 20.078552)"><g><path d="M 5.65625 0.1875 C 4.644531 0.1875 3.796875 -0.113281 3.109375 -0.71875 C 2.421875 -1.332031 1.90625 -2.15625 1.5625 -3.1875 C 1.21875 -4.226562 1.046875 -5.390625 1.046875 -6.671875 C 1.046875 -7.960938 1.21875 -9.125 1.5625 -10.15625 C 1.90625 -11.195312 2.421875 -12.015625 3.109375 -12.609375 C 3.796875 -13.210938 4.644531 -13.515625 5.65625 -13.515625 C 6.695312 -13.515625 7.554688 -13.210938 8.234375 -12.609375 C 8.910156 -12.015625 9.421875 -11.195312 9.765625 -10.15625 C 10.109375 -9.125 10.28125 -7.960938 10.28125 -6.671875 C 10.28125 -5.390625 10.109375 -4.226562 9.765625 -3.1875 C 9.421875 -2.15625 8.910156 -1.332031 8.234375 -0.71875 C 7.554688 -0.113281 6.695312 0.1875 5.65625 0.1875 Z M 5.65625 -0.984375 C 6.40625 -0.984375 7.03125 -1.21875 7.53125 -1.6875 C 8.03125 -2.164062 8.410156 -2.832031 8.671875 -3.6875 C 8.929688 -4.539062 9.0625 -5.535156 9.0625 -6.671875 C 9.0625 -7.804688 8.929688 -8.800781 8.671875 -9.65625 C 8.410156 -10.519531 8.03125 -11.1875 7.53125 -11.65625 C 7.03125 -12.125 6.40625 -12.359375 5.65625 -12.359375 C 4.914062 -12.359375 4.296875 -12.125 3.796875 -11.65625 C 3.296875 -11.1875 2.914062 -10.519531 2.65625 -9.65625 C 2.394531 -8.800781 2.265625 -7.804688 2.265625 -6.671875 C 2.265625 -5.535156 2.394531 -4.539062 2.65625 -3.6875 C 2.914062 -2.832031 3.296875 -2.164062 3.796875 -1.6875 C 4.296875 -1.21875 4.914062 -0.984375 5.65625 -0.984375 Z M 5.65625 -0.984375 "/></g></g></g></g></g></g><path stroke-linecap="butt" transform="matrix(0.75, 0, 0, 0.75, 0.0000031164, 0.00002)" fill-opacity="1" fill="#000000" fill-rule="nonzero" stroke-linejoin="miter" d="M 0.802079 1.598932 L 0.802079 998.401064 M 168.562504 1.598932 L 168.562504 998.401064 M 336.317721 1.598932 L 336.317721 998.401064 M 504.078145 1.598932 L 504.078145 998.401064 M 671.83857 1.598932 L 671.83857 998.401064 M 839.598995 1.598932 L 839.598995 998.401064 M 1007.35942 1.598932 L 1007.35942 998.401064 M 1175.119845 1.598932 L 1175.119845 998.401064 M -0.0000041552 0.802057 L 1175.91672 0.802057 M -0.0000041552 200.47915 L 1175.91672 200.47915 M -0.0000041552 400.161451 L 1175.91672 400.161451 M -0.0000041552 599.838544 L 1175.91672 599.838544 M -0.0000041552 799.520846 L 1175.91672 799.520846 M -0.0000041552 999.197939 L 1175.91672 999.197939 " stroke="#000000" stroke-width="1.601323" stroke-opacity="1" stroke-miterlimit="4"/></svg>