<svg xmlns="http://www.w3.org/2000/svg" xmlns:xlink="http://www.w3.org/1999/xlink" width="583" zoomAndPan="magnify" viewBox="0 0 438 300.000006" height="450" preserveAspectRatio="xMidYMid meet" version="1.0"><defs><g/><clipPath id="75560d2c4d"><path d="M 0.726562 0 L 338 0 L 338 299.003906 L 0.726562 299.003906 Z M 0.726562 0 " clip-rule="nonzero"/></clipPath><clipPath id="f9e23a332a"><path d="M 245 274 L 280 274 L 280 299.003906 L 245 299.003906 Z M 245 274 " clip-rule="nonzero"/></clipPath><clipPath id="82a25f4876"><path d="M 219 290 L 253 290 L 253 299.003906 L 219 299.003906 Z M 219 290 " clip-rule="nonzero"/></clipPath><clipPath id="7039d17ef6"><path d="M 97 295 L 130 295 L 130 299.003906 L 97 299.003906 Z M 97 295 " clip-rule="nonzero"/></clipPath><clipPath id="785b15bf4e"><path d="M 68 281 L 103 281 L 103 299.003906 L 68 299.003906 Z M 68 281 " clip-rule="nonzero"/></clipPath><clipPath id="26d373d66b"><path d="M 0.726562 151 L 30 151 L 30 182 L 0.726562 182 Z M 0.726562 151 " clip-rule="nonzero"/></clipPath><clipPath id="88eb69eb23"><path d="M 170 57 L 182.785156 57 L 182.785156 60 L 170 60 Z M 170 57 " clip-rule="nonzero"/></clipPath><clipPath id="fd13d3912b"><rect x="0" width="183" y="0" height="64"/></clipPath><clipPath id="9ee2b7ffb7"><rect x="0" width="338" y="0" height="300"/></clipPath></defs><g clip-path="url(#75560d2c4d)"><g transform="matrix(1, 0, 0, 1, 0.000000000000000111, -0.000000000000035785)"><g clip-path="url(#9ee2b7ffb7)"><path fill="#000000" d="M 328.429688 200.789062 C 328.035156 200.789062 327.640625 200.722656 327.242188 200.660156 L 312.402344 197.691406 C 308.90625 196.964844 306.53125 193.734375 307.125 190.5 C 307.257812 189.707031 307.386719 188.984375 307.453125 188.125 C 307.519531 187.796875 307.519531 187.464844 307.585938 187.136719 L 308.046875 183.707031 C 308.179688 182.78125 308.246094 181.925781 308.3125 181 L 308.640625 176.847656 C 308.773438 175.195312 309.566406 173.746094 310.753906 172.691406 C 312.003906 171.570312 313.65625 170.976562 315.371094 171.042969 L 330.542969 171.4375 C 332.320312 171.503906 333.90625 172.230469 335.09375 173.613281 C 336.347656 175 336.941406 176.847656 336.742188 178.628906 L 336.347656 183.507812 C 336.28125 184.628906 336.148438 185.75 336.015625 186.871094 L 335.488281 190.960938 C 335.421875 191.359375 335.355469 191.753906 335.355469 192.082031 C 335.222656 193.074219 335.09375 194.0625 334.894531 195.050781 C 334.566406 196.964844 333.445312 198.679688 331.925781 199.734375 C 330.804688 200.394531 329.617188 200.789062 328.429688 200.789062 Z M 308.445312 190.832031 C 307.980469 193.269531 309.894531 195.710938 312.597656 196.304688 L 327.441406 199.273438 C 328.695312 199.539062 329.949219 199.273438 331.003906 198.546875 C 332.257812 197.691406 333.113281 196.371094 333.378906 194.789062 C 333.574219 193.796875 333.707031 192.875 333.839844 191.886719 C 333.90625 191.488281 333.90625 191.09375 333.972656 190.699219 L 334.5 186.609375 C 334.628906 185.488281 334.761719 184.367188 334.828125 183.308594 L 335.222656 178.429688 C 335.355469 177.042969 334.894531 175.59375 333.90625 174.472656 C 332.980469 173.414062 331.726562 172.824219 330.410156 172.824219 L 315.238281 172.425781 C 313.917969 172.359375 312.597656 172.824219 311.609375 173.746094 C 310.6875 174.539062 310.09375 175.660156 309.960938 176.910156 L 309.632812 181.066406 C 309.566406 181.992188 309.5 182.914062 309.367188 183.839844 L 308.972656 187.335938 C 308.90625 187.664062 308.90625 187.992188 308.839844 188.324219 C 308.707031 189.113281 308.640625 189.972656 308.445312 190.832031 Z M 308.445312 190.832031 " fill-opacity="1" fill-rule="nonzero"/><path fill="#000000" d="M 319.789062 232.386719 C 318.996094 232.386719 318.207031 232.253906 317.414062 231.925781 L 303.429688 225.988281 C 300.132812 224.535156 298.484375 220.910156 299.671875 217.875 C 301.320312 213.585938 302.703125 209.234375 303.890625 204.8125 C 304.089844 204.089844 304.417969 203.429688 305.011719 202.703125 C 305.476562 202.109375 306.070312 201.582031 306.792969 201.1875 C 308.246094 200.328125 309.960938 200.132812 311.609375 200.527344 L 326.386719 203.957031 C 328.101562 204.351562 329.550781 205.40625 330.410156 206.992188 C 330.871094 207.78125 331.136719 208.574219 331.265625 209.496094 C 331.398438 210.355469 331.332031 211.277344 331.070312 212.269531 C 329.617188 217.609375 327.902344 222.886719 325.988281 228.03125 C 325.265625 229.878906 323.878906 231.332031 322.164062 232.058594 C 321.4375 232.1875 320.648438 232.386719 319.789062 232.386719 Z M 310.160156 201.714844 C 309.234375 201.714844 308.378906 201.910156 307.585938 202.375 C 307.058594 202.703125 306.597656 203.097656 306.199219 203.5625 C 305.738281 204.15625 305.476562 204.617188 305.34375 205.144531 C 304.15625 209.628906 302.703125 214.050781 301.054688 218.335938 C 300.132812 220.644531 301.515625 223.480469 304.023438 224.535156 L 318.007812 230.472656 C 319.128906 231 320.449219 231 321.636719 230.472656 C 323.019531 229.878906 324.078125 228.757812 324.671875 227.308594 C 326.582031 222.226562 328.296875 216.953125 329.75 211.675781 C 329.949219 210.882812 330.011719 210.15625 329.949219 209.496094 C 329.816406 208.773438 329.617188 208.113281 329.289062 207.519531 C 328.628906 206.332031 327.507812 205.472656 326.1875 205.144531 L 311.410156 201.714844 C 311.015625 201.78125 310.554688 201.714844 310.160156 201.714844 Z M 310.160156 201.714844 " fill-opacity="1" fill-rule="nonzero"/><path fill="#000000" d="M 305.078125 261.542969 C 303.828125 261.542969 302.574219 261.144531 301.515625 260.421875 L 289.050781 251.78125 C 287.664062 250.789062 286.675781 249.40625 286.28125 247.757812 C 285.882812 246.105469 286.148438 244.457031 287.003906 243.136719 C 287.203125 242.808594 287.46875 242.414062 287.664062 242.082031 C 288.0625 241.488281 288.457031 240.894531 288.785156 240.234375 L 290.5 237.203125 C 290.699219 236.871094 290.898438 236.476562 291.160156 236.082031 C 291.492188 235.488281 291.886719 234.828125 292.21875 234.167969 L 293.800781 231.066406 C 295.382812 228.097656 299.078125 226.976562 302.308594 228.429688 L 316.09375 234.761719 C 317.613281 235.421875 318.867188 236.804688 319.394531 238.457031 C 319.988281 240.234375 319.855469 242.148438 318.933594 243.796875 L 317.085938 247.425781 C 316.6875 248.21875 316.226562 249.007812 315.765625 249.800781 C 315.5 250.195312 315.304688 250.59375 315.039062 251.054688 L 312.996094 254.617188 C 312.535156 255.40625 312.003906 256.199219 311.542969 256.925781 C 311.28125 257.320312 311.015625 257.714844 310.816406 258.113281 C 309.828125 259.695312 308.246094 260.816406 306.597656 261.210938 C 306.070312 261.476562 305.542969 261.542969 305.078125 261.542969 Z M 299.472656 229.351562 C 297.691406 229.351562 295.976562 230.277344 295.121094 231.859375 L 293.535156 234.960938 C 293.207031 235.617188 292.808594 236.277344 292.414062 236.9375 C 292.21875 237.269531 292.019531 237.664062 291.820312 237.992188 L 290.105469 241.027344 C 289.710938 241.6875 289.3125 242.28125 288.917969 242.941406 C 288.722656 243.269531 288.457031 243.667969 288.257812 243.996094 C 287.597656 244.984375 287.46875 246.238281 287.730469 247.492188 C 288.0625 248.8125 288.785156 249.933594 289.90625 250.660156 L 302.375 259.234375 C 303.496094 260.023438 304.882812 260.222656 306.199219 259.960938 C 307.519531 259.628906 308.773438 258.707031 309.566406 257.519531 C 309.828125 257.121094 310.09375 256.726562 310.355469 256.332031 C 310.816406 255.605469 311.347656 254.8125 311.742188 254.089844 L 313.785156 250.527344 C 313.984375 250.128906 314.25 249.667969 314.511719 249.273438 C 314.972656 248.546875 315.4375 247.757812 315.832031 246.964844 L 317.746094 243.269531 C 318.46875 241.953125 318.601562 240.433594 318.074219 239.046875 C 317.613281 237.796875 316.6875 236.738281 315.566406 236.210938 L 301.78125 229.878906 C 300.988281 229.484375 300.199219 229.351562 299.472656 229.351562 Z M 299.472656 229.351562 " fill-opacity="1" fill-rule="nonzero"/><path fill="#000000" d="M 284.761719 287.136719 C 282.980469 287.136719 281.398438 286.476562 280.210938 285.222656 L 269.722656 274.273438 C 268.535156 273.019531 267.875 271.4375 267.8125 269.789062 C 267.8125 269.0625 267.941406 268.269531 268.207031 267.480469 C 268.46875 266.6875 268.867188 266.027344 269.460938 265.433594 L 270.382812 264.511719 C 271.636719 263.191406 272.957031 261.804688 274.144531 260.421875 L 276.453125 257.78125 C 276.914062 257.253906 277.375 256.660156 277.835938 256.066406 C 278.101562 255.738281 278.363281 255.40625 278.628906 255.078125 C 279.617188 253.824219 281.070312 253.03125 282.785156 252.902344 C 284.433594 252.769531 286.148438 253.164062 287.46875 254.15625 L 299.671875 263.125 C 301.054688 264.179688 301.980469 265.765625 302.175781 267.542969 C 302.375 269.324219 301.78125 271.105469 300.660156 272.558594 C 300.332031 272.953125 300.066406 273.285156 299.800781 273.679688 C 299.273438 274.40625 298.679688 275.128906 298.085938 275.789062 L 295.382812 278.890625 C 293.867188 280.671875 292.21875 282.453125 290.632812 284.101562 L 289.777344 284.957031 C 289.117188 285.617188 288.390625 286.144531 287.535156 286.542969 C 286.742188 286.871094 285.882812 287.070312 284.960938 287.136719 C 284.894531 287.136719 284.828125 287.136719 284.761719 287.136719 Z M 283.378906 254.285156 C 283.179688 254.285156 283.046875 254.285156 282.851562 254.285156 C 281.53125 254.417969 280.410156 255.011719 279.683594 255.933594 C 279.421875 256.265625 279.15625 256.59375 278.890625 256.925781 C 278.429688 257.519531 277.96875 258.113281 277.441406 258.707031 L 275.199219 261.34375 C 274.011719 262.796875 272.691406 264.179688 271.371094 265.5 L 270.449219 266.421875 C 270.054688 266.886719 269.722656 267.347656 269.527344 267.941406 C 269.328125 268.601562 269.195312 269.195312 269.195312 269.722656 C 269.195312 271.039062 269.722656 272.292969 270.714844 273.285156 L 281.199219 284.234375 C 282.125 285.222656 283.378906 285.75 284.828125 285.683594 C 285.554688 285.683594 286.28125 285.488281 286.808594 285.222656 C 287.46875 284.894531 288.0625 284.496094 288.589844 283.96875 L 289.445312 283.113281 C 291.03125 281.464844 292.679688 279.746094 294.128906 277.96875 L 296.835938 274.867188 C 297.429688 274.207031 297.957031 273.480469 298.484375 272.820312 C 298.746094 272.425781 299.078125 272.03125 299.40625 271.699219 C 300.332031 270.578125 300.792969 269.0625 300.660156 267.742188 C 300.527344 266.421875 299.800781 265.171875 298.746094 264.378906 L 286.542969 255.277344 C 285.621094 254.617188 284.5 254.285156 283.378906 254.285156 Z M 283.378906 254.285156 " fill-opacity="1" fill-rule="nonzero"/><g clip-path="url(#f9e23a332a)"><path fill="#000000" d="M 259.828125 308.179688 C 259.433594 308.179688 259.039062 308.113281 258.640625 308.046875 C 256.859375 307.714844 255.410156 306.726562 254.421875 305.277344 L 246.308594 292.480469 C 245.382812 291.027344 245.054688 289.3125 245.316406 287.664062 C 245.449219 286.871094 245.714844 286.144531 246.175781 285.421875 C 246.570312 284.761719 247.164062 284.234375 247.824219 283.707031 L 250.660156 281.726562 C 250.925781 281.527344 251.253906 281.332031 251.519531 281.132812 C 252.175781 280.671875 252.835938 280.210938 253.429688 279.746094 L 256.792969 277.109375 C 257.453125 276.582031 258.179688 275.988281 258.839844 275.460938 C 261.347656 273.285156 265.304688 273.679688 267.746094 276.316406 L 277.902344 287.53125 C 279.023438 288.71875 279.550781 290.300781 279.484375 292.015625 C 279.355469 293.863281 278.496094 295.644531 276.980469 296.964844 C 276.1875 297.691406 275.265625 298.414062 274.40625 299.074219 L 270.515625 302.109375 C 269.722656 302.703125 268.933594 303.296875 268.140625 303.890625 C 267.8125 304.089844 267.480469 304.351562 267.152344 304.550781 L 263.785156 306.925781 C 263.0625 307.453125 262.203125 307.847656 261.214844 308.046875 C 260.753906 308.113281 260.289062 308.179688 259.828125 308.179688 Z M 248.679688 284.894531 C 248.152344 285.289062 247.757812 285.75 247.429688 286.210938 C 247.097656 286.738281 246.902344 287.269531 246.769531 287.925781 C 246.570312 289.246094 246.835938 290.566406 247.492188 291.6875 L 255.609375 304.484375 C 256.332031 305.605469 257.453125 306.398438 258.839844 306.59375 C 259.5 306.726562 260.226562 306.726562 260.949219 306.59375 C 261.675781 306.460938 262.402344 306.132812 262.929688 305.738281 L 266.292969 303.363281 C 266.625 303.097656 266.953125 302.902344 267.28125 302.636719 C 268.074219 302.109375 268.867188 301.515625 269.589844 300.921875 L 273.484375 297.820312 C 274.339844 297.160156 275.199219 296.503906 275.988281 295.777344 C 277.175781 294.722656 277.902344 293.335938 277.96875 291.820312 C 278.035156 290.5 277.640625 289.3125 276.78125 288.390625 L 266.625 277.175781 C 264.710938 275.128906 261.675781 274.734375 259.761719 276.382812 C 259.105469 276.976562 258.378906 277.570312 257.652344 278.097656 L 254.355469 280.738281 C 253.761719 281.265625 253.035156 281.726562 252.375 282.1875 C 252.113281 282.386719 251.78125 282.585938 251.519531 282.78125 Z M 248.679688 284.894531 " fill-opacity="1" fill-rule="nonzero"/></g><g clip-path="url(#82a25f4876)"><path fill="#000000" d="M 231.136719 323.746094 C 230.144531 323.746094 229.222656 323.546875 228.300781 323.152344 C 226.78125 322.492188 225.59375 321.238281 225 319.722656 L 219.65625 305.539062 C 218.40625 302.175781 219.921875 298.480469 222.957031 297.292969 C 224.210938 296.765625 225.460938 296.171875 226.714844 295.578125 C 227.574219 295.183594 228.363281 294.789062 229.222656 294.457031 L 235.355469 291.355469 C 238.191406 289.773438 242.019531 290.894531 243.800781 293.996094 L 251.519531 307.054688 C 252.375 308.441406 252.574219 310.15625 252.175781 311.804688 C 251.714844 313.585938 250.460938 315.167969 248.746094 316.160156 C 248.023438 316.554688 247.296875 316.886719 246.570312 317.28125 C 244.855469 318.136719 243.140625 319.0625 241.359375 319.917969 C 240.566406 320.25 239.84375 320.644531 239.050781 320.972656 C 237.335938 321.765625 235.554688 322.558594 233.773438 323.347656 C 232.980469 323.613281 232.058594 323.746094 231.136719 323.746094 Z M 238.191406 292.015625 C 237.46875 292.015625 236.742188 292.214844 236.082031 292.542969 L 229.882812 295.710938 C 229.023438 296.105469 228.167969 296.503906 227.308594 296.832031 C 226.054688 297.425781 224.804688 297.953125 223.484375 298.546875 C 221.175781 299.472656 220.054688 302.308594 221.042969 304.945312 L 226.386719 319.128906 C 226.847656 320.316406 227.707031 321.238281 228.894531 321.765625 C 230.277344 322.359375 231.859375 322.359375 233.3125 321.832031 C 235.027344 321.105469 236.808594 320.316406 238.523438 319.523438 C 239.316406 319.195312 240.039062 318.796875 240.832031 318.46875 C 242.546875 317.609375 244.261719 316.753906 245.976562 315.828125 C 246.703125 315.433594 247.429688 315.105469 248.152344 314.707031 C 249.472656 313.984375 250.460938 312.730469 250.859375 311.277344 C 251.1875 310.023438 250.988281 308.707031 250.394531 307.648438 L 242.679688 294.589844 C 241.625 293.007812 239.910156 292.015625 238.191406 292.015625 Z M 238.191406 292.015625 " fill-opacity="1" fill-rule="nonzero"/></g><g clip-path="url(#7039d17ef6)"><path fill="#000000" d="M 119 328.363281 C 118.273438 328.363281 117.480469 328.230469 116.691406 327.964844 L 112.796875 326.648438 C 112.601562 326.582031 112.335938 326.515625 112.136719 326.449219 C 111.675781 326.316406 111.28125 326.1875 110.820312 325.988281 L 105.082031 323.746094 C 104.882812 323.679688 104.617188 323.546875 104.421875 323.480469 C 104.023438 323.285156 103.5625 323.152344 103.167969 322.953125 L 101.253906 322.097656 C 99.472656 321.304688 98.089844 319.789062 97.429688 318.070312 C 96.835938 316.488281 96.96875 314.773438 97.691406 313.324219 L 104.289062 299.667969 C 105.871094 296.4375 109.566406 294.984375 112.535156 296.304688 L 114.117188 297.03125 C 114.449219 297.160156 114.777344 297.292969 115.105469 297.425781 C 115.304688 297.492188 115.503906 297.558594 115.699219 297.691406 L 120.515625 299.601562 C 120.84375 299.734375 121.175781 299.867188 121.503906 299.933594 C 121.703125 300 121.902344 300.0625 122.097656 300.128906 L 125.398438 301.25 C 126.121094 301.515625 126.847656 301.910156 127.441406 302.503906 C 128.035156 303.03125 128.496094 303.625 128.894531 304.351562 C 129.617188 305.867188 129.816406 307.585938 129.355469 309.234375 L 125.199219 323.8125 C 124.738281 325.527344 123.550781 326.84375 121.96875 327.703125 C 121.175781 328.097656 120.316406 328.363281 119.460938 328.429688 C 119.328125 328.363281 119.195312 328.363281 119 328.363281 Z M 110.359375 297.226562 C 108.511719 297.226562 106.597656 298.414062 105.675781 300.261719 L 99.078125 313.917969 C 98.550781 315.039062 98.417969 316.355469 98.878906 317.542969 C 99.34375 318.929688 100.464844 320.117188 101.914062 320.777344 L 103.761719 321.632812 C 104.15625 321.832031 104.554688 321.964844 104.949219 322.097656 C 105.148438 322.160156 105.410156 322.292969 105.609375 322.359375 L 111.347656 324.601562 C 111.742188 324.734375 112.136719 324.867188 112.601562 325.0625 C 112.796875 325.128906 113.0625 325.195312 113.261719 325.328125 L 117.152344 326.648438 C 117.878906 326.910156 118.601562 326.976562 119.328125 326.976562 C 120.054688 326.910156 120.714844 326.714844 121.308594 326.382812 C 122.5625 325.722656 123.417969 324.667969 123.8125 323.414062 L 127.96875 308.835938 C 128.367188 307.519531 128.234375 306.199219 127.640625 305.011719 C 127.375 304.484375 126.980469 303.957031 126.519531 303.558594 C 125.992188 303.097656 125.527344 302.769531 124.933594 302.636719 L 121.636719 301.515625 C 121.4375 301.449219 121.242188 301.382812 121.042969 301.316406 C 120.714844 301.1875 120.316406 301.054688 119.988281 300.921875 L 115.171875 299.007812 C 114.976562 298.941406 114.777344 298.878906 114.578125 298.8125 C 114.25 298.679688 113.855469 298.546875 113.523438 298.347656 L 111.941406 297.625 C 111.480469 297.359375 110.953125 297.226562 110.359375 297.226562 Z M 110.359375 297.226562 " fill-opacity="1" fill-rule="nonzero"/></g><g clip-path="url(#785b15bf4e)"><path fill="#000000" d="M 89.183594 315.167969 C 87.996094 315.167969 86.808594 314.839844 85.621094 314.179688 L 82.058594 312.136719 C 81.269531 311.671875 80.476562 311.144531 79.75 310.683594 C 79.355469 310.421875 78.960938 310.15625 78.5625 309.957031 L 75.066406 307.714844 C 74.277344 307.1875 73.550781 306.660156 72.824219 306.132812 L 71.703125 305.339844 C 70.1875 304.21875 69.132812 302.703125 68.800781 300.921875 C 68.472656 299.140625 68.933594 297.359375 69.988281 295.976562 L 79.222656 283.96875 C 80.277344 282.585938 81.730469 281.726562 83.378906 281.460938 C 85.09375 281.132812 86.675781 281.460938 87.996094 282.386719 C 88.324219 282.648438 88.722656 282.914062 89.050781 283.179688 C 89.644531 283.574219 90.238281 284.035156 90.765625 284.429688 L 93.667969 286.277344 C 94 286.476562 94.394531 286.738281 94.722656 286.9375 C 95.316406 287.332031 95.910156 287.730469 96.570312 288.125 L 99.539062 289.839844 C 100.859375 290.566406 101.847656 291.886719 102.308594 293.601562 C 102.773438 295.25 102.574219 296.964844 101.78125 298.480469 L 94.789062 311.9375 C 94 313.519531 92.546875 314.578125 90.832031 315.105469 C 90.304688 315.105469 89.777344 315.167969 89.183594 315.167969 Z M 84.632812 282.714844 C 84.300781 282.714844 83.972656 282.714844 83.644531 282.78125 C 82.324219 282.980469 81.203125 283.707031 80.34375 284.761719 L 71.109375 296.765625 C 70.316406 297.820312 69.988281 299.207031 70.1875 300.59375 C 70.449219 301.976562 71.242188 303.164062 72.496094 304.089844 L 73.617188 304.878906 C 74.34375 305.40625 75.066406 305.933594 75.859375 306.460938 L 79.289062 308.707031 C 79.683594 308.96875 80.082031 309.234375 80.476562 309.429688 C 81.203125 309.894531 81.992188 310.421875 82.785156 310.882812 L 86.347656 312.925781 C 87.730469 313.71875 89.183594 313.917969 90.4375 313.519531 C 91.820312 313.125 92.878906 312.265625 93.535156 311.082031 L 100.527344 297.625 C 101.121094 296.4375 101.320312 295.050781 100.992188 293.796875 C 100.59375 292.480469 99.871094 291.488281 98.878906 290.894531 L 95.847656 289.179688 C 95.1875 288.785156 94.59375 288.390625 93.933594 287.992188 C 93.601562 287.796875 93.207031 287.53125 92.878906 287.332031 L 89.976562 285.488281 C 89.382812 285.089844 88.789062 284.628906 88.195312 284.234375 C 87.863281 283.96875 87.46875 283.707031 87.140625 283.441406 C 86.480469 282.980469 85.554688 282.714844 84.632812 282.714844 Z M 84.632812 282.714844 " fill-opacity="1" fill-rule="nonzero"/></g><path fill="#000000" d="M 62.601562 296.238281 C 60.953125 296.238281 59.238281 295.578125 57.984375 294.457031 C 56.335938 293.074219 54.75 291.554688 53.234375 290.105469 C 52.773438 289.707031 52.375 289.246094 51.914062 288.851562 C 50.398438 287.464844 49.011719 286.015625 47.628906 284.5625 C 47.097656 284.035156 46.636719 283.507812 46.109375 282.980469 C 45.449219 282.253906 44.921875 281.527344 44.59375 280.671875 C 44.261719 279.8125 44.132812 278.957031 44.195312 278.03125 C 44.261719 276.25 44.988281 274.601562 46.308594 273.480469 L 57.785156 263.519531 C 59.105469 262.398438 60.6875 261.804688 62.402344 261.871094 C 63.195312 261.871094 63.984375 262.070312 64.710938 262.398438 C 65.4375 262.730469 66.164062 263.125 66.691406 263.71875 C 67.152344 264.246094 67.679688 264.707031 68.140625 265.234375 C 69.195312 266.355469 70.316406 267.542969 71.503906 268.667969 C 71.96875 269.0625 72.363281 269.523438 72.824219 269.917969 C 74.011719 271.105469 75.265625 272.292969 76.585938 273.347656 C 77.773438 274.40625 78.496094 275.921875 78.5625 277.636719 C 78.628906 279.351562 78.101562 281 77.046875 282.253906 L 67.480469 293.996094 C 66.359375 295.382812 64.710938 296.238281 62.929688 296.238281 C 62.796875 296.238281 62.734375 296.238281 62.601562 296.238281 Z M 62.203125 263.257812 C 60.953125 263.257812 59.699219 263.71875 58.707031 264.578125 L 47.230469 274.535156 C 46.242188 275.394531 45.648438 276.648438 45.582031 278.03125 C 45.582031 278.757812 45.648438 279.417969 45.910156 280.078125 C 46.175781 280.738281 46.570312 281.332031 47.097656 281.925781 C 47.628906 282.453125 48.089844 282.980469 48.617188 283.507812 C 49.9375 284.957031 51.386719 286.410156 52.839844 287.730469 C 53.300781 288.125 53.761719 288.585938 54.15625 288.984375 C 55.675781 290.433594 57.191406 291.949219 58.839844 293.269531 C 59.960938 294.257812 61.414062 294.789062 62.796875 294.722656 C 64.117188 294.65625 65.4375 293.996094 66.230469 293.007812 L 75.792969 281.265625 C 76.652344 280.210938 77.046875 278.957031 76.980469 277.570312 C 76.914062 276.25 76.386719 275.128906 75.527344 274.339844 C 74.210938 273.21875 72.957031 272.03125 71.703125 270.84375 C 71.308594 270.445312 70.847656 270.050781 70.449219 269.589844 C 69.261719 268.46875 68.074219 267.28125 67.019531 266.09375 C 66.558594 265.566406 66.097656 265.105469 65.570312 264.578125 C 65.171875 264.113281 64.644531 263.785156 64.050781 263.585938 C 63.457031 263.324219 62.929688 263.191406 62.269531 263.191406 C 62.269531 263.257812 62.269531 263.257812 62.203125 263.257812 Z M 62.203125 263.257812 " fill-opacity="1" fill-rule="nonzero"/><path fill="#000000" d="M 40.304688 272.359375 C 40.105469 272.359375 39.84375 272.359375 39.578125 272.292969 C 37.734375 272.097656 35.953125 271.105469 34.765625 269.589844 L 34.105469 268.796875 L 29.882812 262.925781 C 28.828125 261.34375 27.839844 259.761719 26.847656 258.242188 C 26.386719 257.519531 25.859375 256.726562 25.398438 256 C 24.472656 254.484375 24.144531 252.570312 24.539062 250.789062 C 24.9375 249.007812 25.992188 247.625 27.507812 246.765625 L 40.699219 239.3125 C 43.800781 237.597656 47.691406 238.519531 49.34375 241.292969 C 49.804688 242.015625 50.265625 242.742188 50.792969 243.535156 C 51.519531 244.722656 52.308594 245.910156 53.101562 247.097656 L 56.597656 252.042969 L 57.125 252.703125 C 59.171875 255.277344 58.578125 259.234375 55.804688 261.542969 L 44.066406 271.171875 C 43.140625 271.832031 41.757812 272.359375 40.304688 272.359375 Z M 44.195312 239.773438 C 43.273438 239.773438 42.351562 239.972656 41.558594 240.5 L 28.367188 247.953125 C 27.179688 248.613281 26.386719 249.734375 26.058594 251.054688 C 25.726562 252.503906 25.992188 253.957031 26.71875 255.210938 C 27.179688 255.933594 27.707031 256.726562 28.167969 257.453125 C 29.15625 258.96875 30.148438 260.550781 31.203125 262.070312 L 35.359375 267.941406 L 35.953125 268.730469 C 36.941406 269.984375 38.328125 270.777344 39.777344 270.910156 C 41.097656 271.039062 42.285156 270.710938 43.273438 269.917969 L 55.015625 260.289062 C 57.191406 258.507812 57.652344 255.472656 56.136719 253.496094 L 55.609375 252.835938 L 52.046875 247.886719 C 51.253906 246.699219 50.464844 245.449219 49.671875 244.261719 C 49.210938 243.535156 48.75 242.742188 48.222656 242.015625 C 47.429688 240.5 45.847656 239.773438 44.195312 239.773438 Z M 44.195312 239.773438 " fill-opacity="1" fill-rule="nonzero"/><path fill="#000000" d="M 23.222656 244.457031 C 22.5625 244.457031 21.902344 244.324219 21.242188 244.128906 C 19.460938 243.535156 17.945312 242.214844 17.085938 240.5 C 16.691406 239.640625 16.359375 238.851562 15.964844 238.058594 C 15.171875 236.410156 14.382812 234.628906 13.65625 232.914062 C 13.328125 232.058594 12.996094 231.265625 12.667969 230.40625 C 12.007812 228.691406 11.28125 226.910156 10.621094 225.195312 C 9.960938 223.351562 10.09375 221.304688 10.953125 219.65625 C 11.742188 218.140625 12.996094 217.015625 14.578125 216.554688 L 29.027344 211.9375 C 32.457031 210.882812 36.082031 212.53125 37.140625 215.632812 C 37.601562 216.953125 38.128906 218.269531 38.65625 219.589844 C 38.984375 220.449219 39.316406 221.238281 39.644531 222.097656 C 40.171875 223.351562 40.765625 224.667969 41.359375 225.921875 C 41.757812 226.714844 42.085938 227.570312 42.480469 228.363281 C 43.933594 231.265625 42.546875 235.023438 39.449219 236.675781 L 25.992188 243.730469 C 25.199219 244.195312 24.210938 244.457031 23.222656 244.457031 Z M 31.269531 213.125 C 30.742188 213.125 30.148438 213.191406 29.554688 213.390625 L 15.109375 218.007812 C 13.921875 218.402344 12.929688 219.195312 12.335938 220.382812 C 11.675781 221.699219 11.546875 223.285156 12.074219 224.800781 C 12.667969 226.515625 13.390625 228.296875 14.050781 229.945312 C 14.382812 230.804688 14.710938 231.59375 15.042969 232.453125 C 15.765625 234.167969 16.558594 235.882812 17.285156 237.53125 C 17.679688 238.324219 18.011719 239.113281 18.40625 239.972656 C 19.066406 241.359375 20.253906 242.414062 21.703125 242.808594 C 22.957031 243.203125 24.277344 243.136719 25.398438 242.542969 L 38.855469 235.488281 C 41.292969 234.167969 42.351562 231.332031 41.292969 229.089844 C 40.898438 228.230469 40.570312 227.4375 40.171875 226.648438 C 39.578125 225.394531 38.984375 224.074219 38.457031 222.757812 C 38.128906 221.898438 37.796875 221.105469 37.46875 220.25 C 36.941406 218.929688 36.414062 217.609375 35.953125 216.226562 C 35.226562 214.246094 33.378906 213.125 31.269531 213.125 Z M 31.269531 213.125 " fill-opacity="1" fill-rule="nonzero"/><path fill="#000000" d="M 12.074219 213.71875 C 10.953125 213.71875 9.832031 213.390625 8.773438 212.796875 C 7.191406 211.804688 6.070312 210.222656 5.675781 208.507812 L 4.289062 202.503906 C 4.15625 202.042969 4.089844 201.582031 4.027344 201.1875 C 3.960938 200.921875 3.960938 200.722656 3.894531 200.460938 L 3.101562 195.910156 C 2.90625 194.722656 2.640625 193.535156 2.507812 192.28125 C 2.246094 190.367188 2.773438 188.390625 3.960938 186.9375 C 5.015625 185.617188 6.464844 184.828125 8.117188 184.628906 L 23.222656 183.046875 C 26.78125 182.714844 30.015625 185.027344 30.410156 188.324219 C 30.476562 189.246094 30.675781 190.238281 30.871094 191.160156 L 31.597656 195.050781 C 31.664062 195.25 31.664062 195.449219 31.730469 195.644531 C 31.796875 195.976562 31.863281 196.371094 31.929688 196.699219 L 33.117188 201.78125 C 33.445312 203.429688 33.179688 205.011719 32.324219 206.398438 C 31.464844 207.847656 30.082031 208.902344 28.433594 209.367188 L 13.855469 213.519531 C 13.195312 213.585938 12.601562 213.71875 12.074219 213.71875 Z M 23.878906 184.367188 C 23.683594 184.367188 23.484375 184.367188 23.285156 184.367188 L 8.246094 186.015625 C 6.992188 186.148438 5.871094 186.742188 5.082031 187.796875 C 4.15625 188.984375 3.761719 190.5 3.960938 192.082031 C 4.089844 193.269531 4.289062 194.457031 4.488281 195.644531 L 5.277344 200.195312 C 5.34375 200.460938 5.34375 200.660156 5.410156 200.921875 C 5.476562 201.316406 5.542969 201.78125 5.675781 202.175781 L 7.058594 208.179688 C 7.324219 209.5625 8.246094 210.816406 9.5 211.542969 C 10.6875 212.269531 12.074219 212.464844 13.328125 212.070312 L 27.902344 207.914062 C 29.222656 207.519531 30.277344 206.726562 31.003906 205.605469 C 31.664062 204.550781 31.863281 203.363281 31.597656 202.109375 L 30.410156 197.097656 C 30.34375 196.699219 30.277344 196.371094 30.214844 195.976562 C 30.148438 195.777344 30.148438 195.578125 30.082031 195.382812 L 29.355469 191.488281 C 29.15625 190.5 29.027344 189.511719 28.894531 188.519531 C 28.695312 186.082031 26.453125 184.367188 23.878906 184.367188 Z M 23.878906 184.367188 " fill-opacity="1" fill-rule="nonzero"/><g clip-path="url(#26d373d66b)"><path fill="#000000" d="M 7.390625 181.332031 C 5.808594 181.332031 4.289062 180.738281 3.101562 179.617188 C 2.441406 179.023438 1.914062 178.296875 1.585938 177.503906 C 1.1875 176.714844 0.992188 175.855469 0.992188 174.800781 L 0.859375 170.578125 C 0.792969 169.261719 0.792969 167.875 0.859375 166.488281 L 0.992188 162.398438 C 0.992188 162.003906 0.992188 161.609375 0.992188 161.277344 C 0.992188 160.289062 1.058594 159.300781 1.125 158.246094 C 1.253906 156.332031 2.179688 154.484375 3.628906 153.296875 C 4.949219 152.242188 6.53125 151.714844 8.179688 151.847656 L 23.285156 153.296875 C 26.847656 153.691406 29.554688 156.59375 29.289062 159.894531 C 29.222656 160.683594 29.222656 161.476562 29.15625 162.269531 C 29.15625 162.597656 29.15625 162.929688 29.15625 163.324219 L 29.089844 166.753906 C 29.027344 167.875 29.089844 168.929688 29.089844 170.050781 L 29.15625 173.679688 C 29.15625 174.40625 29.027344 175.195312 28.695312 176.054688 C 28.433594 176.78125 27.96875 177.441406 27.441406 178.035156 C 26.320312 179.285156 24.738281 180.011719 23.023438 180.144531 L 7.917969 181.265625 C 7.71875 181.332031 7.523438 181.332031 7.390625 181.332031 Z M 7.523438 153.296875 C 6.464844 153.296875 5.410156 153.691406 4.488281 154.417969 C 3.367188 155.34375 2.640625 156.792969 2.507812 158.375 C 2.441406 159.367188 2.375 160.355469 2.375 161.277344 C 2.375 161.675781 2.375 162.070312 2.375 162.464844 L 2.246094 166.554688 C 2.179688 167.875 2.246094 169.261719 2.246094 170.578125 L 2.375 174.800781 C 2.375 175.660156 2.574219 176.316406 2.839844 176.910156 C 3.167969 177.570312 3.5625 178.097656 4.089844 178.628906 C 5.082031 179.550781 6.398438 180.078125 7.71875 179.945312 L 22.824219 178.824219 C 24.144531 178.691406 25.398438 178.164062 26.320312 177.175781 C 26.71875 176.714844 27.046875 176.1875 27.308594 175.660156 C 27.574219 175 27.640625 174.40625 27.640625 173.878906 L 27.574219 170.25 C 27.507812 169.128906 27.507812 168.007812 27.574219 166.886719 L 27.640625 163.457031 C 27.640625 163.125 27.640625 162.796875 27.640625 162.464844 C 27.640625 161.675781 27.640625 160.816406 27.773438 159.960938 C 27.96875 157.453125 25.859375 155.210938 23.089844 154.945312 L 7.984375 153.496094 C 7.851562 153.296875 7.652344 153.296875 7.523438 153.296875 Z M 7.523438 153.296875 " fill-opacity="1" fill-rule="nonzero"/></g><path fill="#000000" d="M 24.40625 150.527344 C 24.144531 150.527344 23.816406 150.527344 23.550781 150.460938 L 8.511719 148.546875 C 6.796875 148.351562 5.214844 147.425781 4.222656 145.910156 C 3.167969 144.390625 2.707031 142.480469 3.101562 140.765625 L 3.894531 136.476562 C 4.089844 135.222656 4.355469 133.90625 4.683594 132.652344 L 5.742188 128.164062 C 6.003906 126.976562 6.269531 125.789062 6.664062 124.605469 C 7.191406 122.757812 8.445312 121.171875 10.09375 120.25 C 11.613281 119.457031 13.261719 119.261719 14.84375 119.789062 L 29.355469 124.273438 C 32.785156 125.328125 34.832031 128.757812 33.90625 131.925781 C 33.644531 132.847656 33.378906 133.773438 33.179688 134.695312 L 32.257812 138.585938 C 31.992188 139.578125 31.796875 140.632812 31.664062 141.6875 L 31.003906 145.382812 C 30.675781 147.03125 29.75 148.417969 28.496094 149.273438 C 27.179688 150.132812 25.792969 150.527344 24.40625 150.527344 Z M 12.863281 120.976562 C 12.074219 120.976562 11.347656 121.171875 10.621094 121.570312 C 9.300781 122.292969 8.3125 123.546875 7.917969 125.066406 C 7.585938 126.1875 7.324219 127.375 7.058594 128.496094 L 6.003906 133.046875 C 5.675781 134.300781 5.476562 135.554688 5.277344 136.808594 L 4.488281 141.09375 C 4.222656 142.480469 4.554688 143.929688 5.410156 145.183594 C 6.203125 146.304688 7.390625 147.03125 8.710938 147.230469 L 23.75 149.140625 C 25.066406 149.273438 26.386719 149.011719 27.507812 148.21875 C 28.496094 147.492188 29.15625 146.4375 29.421875 145.183594 L 30.082031 141.488281 C 30.277344 140.433594 30.476562 139.378906 30.742188 138.324219 L 31.597656 134.496094 C 31.796875 133.574219 32.058594 132.585938 32.324219 131.59375 C 32.984375 129.222656 31.398438 126.582031 28.695312 125.726562 L 14.183594 121.238281 C 13.789062 121.042969 13.328125 120.976562 12.863281 120.976562 Z M 12.863281 120.976562 " fill-opacity="1" fill-rule="nonzero"/><path fill="#000000" d="M 32.257812 121.964844 C 31.53125 121.964844 30.742188 121.832031 30.082031 121.570312 L 15.699219 116.6875 C 14.050781 116.09375 12.734375 114.90625 12.007812 113.257812 C 11.675781 112.464844 11.480469 111.542969 11.414062 110.683594 C 11.414062 109.761719 11.613281 108.839844 11.941406 107.980469 C 12.203125 107.320312 12.46875 106.597656 12.734375 105.9375 C 13.457031 104.089844 14.183594 102.175781 15.109375 100.328125 C 15.371094 99.734375 15.636719 99.140625 15.898438 98.546875 C 16.757812 96.636719 17.613281 94.722656 18.601562 92.875 C 19.460938 91.226562 20.847656 89.972656 22.496094 89.378906 C 24.144531 88.785156 25.992188 88.917969 27.507812 89.773438 L 40.765625 97.097656 C 42.21875 97.886719 43.339844 99.207031 43.933594 100.855469 C 44.527344 102.441406 44.394531 104.15625 43.667969 105.539062 C 42.878906 106.992188 42.21875 108.507812 41.558594 110.027344 C 41.292969 110.621094 41.03125 111.214844 40.765625 111.742188 C 40.042969 113.191406 39.449219 114.710938 38.921875 116.226562 C 38.65625 116.886719 38.390625 117.480469 38.195312 118.140625 C 37.929688 118.863281 37.46875 119.589844 36.808594 120.117188 C 36.28125 120.644531 35.621094 121.109375 34.894531 121.4375 C 34.105469 121.765625 33.179688 121.964844 32.257812 121.964844 Z M 24.605469 90.433594 C 24.078125 90.433594 23.550781 90.5 23.023438 90.699219 C 21.703125 91.160156 20.582031 92.148438 19.921875 93.46875 C 18.933594 95.316406 18.074219 97.230469 17.21875 99.074219 C 16.953125 99.667969 16.691406 100.261719 16.425781 100.921875 C 15.570312 102.703125 14.84375 104.617188 14.117188 106.464844 C 13.855469 107.125 13.589844 107.847656 13.328125 108.507812 C 13.0625 109.234375 12.929688 109.960938 12.929688 110.683594 C 12.929688 111.34375 13.128906 112.070312 13.390625 112.664062 C 13.984375 113.917969 14.976562 114.90625 16.230469 115.304688 L 30.609375 120.183594 C 31.863281 120.644531 33.246094 120.578125 34.433594 120.050781 C 34.960938 119.789062 35.488281 119.457031 35.886719 118.996094 C 36.347656 118.535156 36.675781 118.074219 36.941406 117.480469 C 37.203125 116.820312 37.46875 116.226562 37.667969 115.566406 C 38.261719 114.050781 38.855469 112.53125 39.578125 111.015625 C 39.84375 110.421875 40.105469 109.894531 40.371094 109.300781 C 41.03125 107.78125 41.757812 106.199219 42.546875 104.75 C 43.074219 103.695312 43.140625 102.441406 42.679688 101.1875 C 42.21875 99.867188 41.359375 98.878906 40.171875 98.21875 L 26.847656 91.027344 C 26.1875 90.632812 25.398438 90.433594 24.605469 90.433594 Z M 24.605469 90.433594 " fill-opacity="1" fill-rule="nonzero"/><path fill="#000000" d="M 45.714844 95.578125 C 44.527344 95.578125 43.339844 95.25 42.285156 94.65625 L 29.222656 86.9375 C 27.707031 86.082031 26.652344 84.5625 26.253906 82.847656 C 25.859375 81.132812 26.253906 79.289062 27.246094 77.703125 L 29.488281 74.207031 L 32.652344 69.722656 C 33.179688 68.996094 33.707031 68.207031 34.300781 67.480469 L 36.875 64.246094 C 38.0625 62.730469 39.710938 61.808594 41.425781 61.609375 C 43.207031 61.410156 44.921875 61.875 46.308594 63.058594 L 57.851562 72.890625 C 59.171875 74.011719 59.960938 75.527344 60.160156 77.175781 C 60.359375 78.890625 59.960938 80.539062 58.972656 81.726562 L 56.863281 84.433594 L 52.839844 90.039062 L 50.992188 92.941406 C 50.132812 94.261719 48.75 95.183594 47.097656 95.515625 C 46.636719 95.515625 46.175781 95.578125 45.714844 95.578125 Z M 42.21875 62.929688 C 42.019531 62.929688 41.824219 62.929688 41.625 62.996094 C 40.304688 63.125 38.984375 63.917969 38.0625 65.105469 L 35.554688 68.335938 C 35.027344 69.0625 34.5 69.789062 33.972656 70.582031 L 30.804688 75.066406 L 28.628906 78.496094 C 27.839844 79.816406 27.507812 81.265625 27.839844 82.585938 C 28.167969 83.96875 28.960938 85.09375 30.082031 85.75 L 43.140625 93.46875 C 44.328125 94.128906 45.648438 94.394531 46.902344 94.0625 C 48.222656 93.800781 49.277344 93.074219 49.871094 92.082031 L 51.714844 89.179688 L 55.742188 83.507812 L 57.917969 80.738281 C 58.644531 79.882812 58.90625 78.628906 58.773438 77.242188 C 58.644531 75.921875 57.984375 74.734375 56.929688 73.878906 L 45.382812 64.050781 C 44.460938 63.324219 43.40625 62.929688 42.21875 62.929688 Z M 42.21875 62.929688 " fill-opacity="1" fill-rule="nonzero"/><path fill="#000000" d="M 64.316406 72.425781 C 62.734375 72.425781 61.015625 71.832031 59.699219 70.644531 L 48.417969 60.488281 C 47.164062 59.367188 46.441406 57.847656 46.375 56.199219 C 46.308594 54.351562 47.035156 52.441406 48.351562 51.054688 C 52.046875 47.230469 56.136719 43.402344 60.421875 39.777344 C 61.742188 38.589844 63.589844 37.996094 65.4375 38.125 C 67.21875 38.257812 68.800781 39.117188 69.921875 40.5 L 79.289062 52.441406 C 80.34375 53.757812 80.871094 55.476562 80.742188 57.125 C 80.609375 58.707031 79.882812 60.222656 78.695312 61.28125 C 75.066406 64.3125 71.703125 67.480469 68.601562 70.710938 C 67.480469 71.832031 65.898438 72.425781 64.316406 72.425781 Z M 64.976562 39.511719 C 63.65625 39.511719 62.402344 39.972656 61.480469 40.832031 C 57.191406 44.457031 53.167969 48.21875 49.472656 52.042969 C 48.417969 53.164062 47.824219 54.683594 47.890625 56.132812 C 47.957031 57.453125 48.484375 58.574219 49.40625 59.433594 L 60.6875 69.589844 C 62.734375 71.4375 65.898438 71.4375 67.613281 69.65625 C 70.714844 66.425781 74.144531 63.257812 77.773438 60.15625 C 78.695312 59.300781 79.222656 58.179688 79.355469 56.925781 C 79.421875 55.605469 79.023438 54.289062 78.234375 53.230469 L 68.867188 41.292969 C 68.007812 40.238281 66.820312 39.578125 65.4375 39.511719 C 65.238281 39.511719 65.105469 39.511719 64.976562 39.511719 Z M 64.976562 39.511719 " fill-opacity="1" fill-rule="nonzero"/><path fill="#000000" d="M 86.941406 53.429688 C 84.960938 53.429688 82.851562 52.441406 81.53125 50.660156 L 72.5625 38.457031 C 71.570312 37.136719 71.175781 35.488281 71.441406 33.839844 C 71.703125 31.992188 72.824219 30.277344 74.40625 29.15625 C 75.992188 28.101562 77.640625 27.042969 79.15625 26.054688 C 79.882812 25.59375 80.609375 25.132812 81.335938 24.671875 C 83.050781 23.679688 84.699219 22.691406 86.347656 21.769531 C 87.074219 21.371094 87.796875 20.976562 88.457031 20.515625 C 90.238281 19.589844 92.21875 19.394531 94 19.988281 C 95.648438 20.515625 96.902344 21.636719 97.625 23.085938 L 104.355469 36.675781 C 105.9375 39.90625 104.816406 43.734375 101.914062 45.183594 C 101.121094 45.644531 100.265625 46.109375 99.472656 46.636719 C 98.285156 47.296875 97.097656 47.953125 95.976562 48.679688 C 95.253906 49.140625 94.460938 49.671875 93.667969 50.132812 C 92.480469 50.855469 91.292969 51.648438 90.171875 52.375 C 89.316406 53.101562 88.128906 53.429688 86.941406 53.429688 Z M 91.953125 21.109375 C 91.03125 21.109375 90.105469 21.304688 89.25 21.769531 C 88.589844 22.164062 87.863281 22.558594 87.140625 22.953125 C 85.488281 23.878906 83.773438 24.867188 82.125 25.855469 C 81.398438 26.320312 80.675781 26.78125 79.949219 27.242188 C 78.367188 28.230469 76.78125 29.289062 75.199219 30.277344 C 73.945312 31.199219 73.089844 32.519531 72.824219 33.972656 C 72.625 35.222656 72.890625 36.542969 73.683594 37.53125 L 82.652344 49.734375 C 84.300781 51.980469 87.335938 52.636719 89.382812 51.1875 C 90.570312 50.394531 91.757812 49.605469 92.945312 48.878906 C 93.734375 48.417969 94.460938 47.890625 95.253906 47.425781 C 96.441406 46.703125 97.625 46.042969 98.8125 45.382812 C 99.605469 44.921875 100.464844 44.457031 101.253906 43.929688 C 103.496094 42.808594 104.289062 39.777344 103.035156 37.335938 L 96.375 23.746094 C 95.847656 22.625 94.855469 21.769531 93.601562 21.371094 C 93.074219 21.175781 92.480469 21.109375 91.953125 21.109375 Z M 91.953125 21.109375 " fill-opacity="1" fill-rule="nonzero"/><path fill="#000000" d="M 112.863281 39.378906 C 112.863281 39.378906 112.796875 39.378906 112.796875 39.378906 C 112.007812 39.378906 111.214844 39.183594 110.488281 38.851562 C 108.972656 38.191406 107.71875 37.003906 106.992188 35.421875 L 100.660156 21.636719 C 99.933594 20.050781 99.933594 18.273438 100.59375 16.621094 C 100.925781 15.832031 101.453125 15.105469 102.046875 14.445312 C 102.773438 13.71875 103.496094 13.191406 104.355469 12.863281 L 111.082031 10.222656 L 118.933594 7.585938 L 119.921875 7.320312 C 121.835938 6.792969 123.8125 6.992188 125.398438 7.914062 C 126.847656 8.773438 127.902344 10.09375 128.300781 11.675781 L 132.191406 26.386719 C 133.046875 29.882812 131.269531 33.378906 128.101562 34.300781 L 127.242188 34.566406 L 120.714844 36.742188 L 115.105469 38.984375 C 114.316406 39.246094 113.589844 39.378906 112.863281 39.378906 Z M 121.96875 8.507812 C 121.4375 8.507812 120.84375 8.574219 120.316406 8.773438 L 119.328125 9.035156 L 111.546875 11.675781 L 104.882812 14.3125 C 104.222656 14.578125 103.628906 14.972656 103.101562 15.5 C 102.574219 16.027344 102.246094 16.621094 101.914062 17.214844 C 101.386719 18.46875 101.386719 19.855469 101.980469 21.109375 L 108.3125 34.894531 C 108.90625 36.082031 109.828125 37.070312 111.082031 37.597656 C 111.675781 37.863281 112.269531 37.996094 112.863281 37.996094 C 113.457031 37.996094 113.984375 37.863281 114.644531 37.664062 L 120.253906 35.421875 L 126.847656 33.179688 L 127.707031 32.914062 C 130.082031 32.253906 131.464844 29.484375 130.804688 26.78125 L 126.914062 12.136719 C 126.585938 10.949219 125.792969 9.894531 124.671875 9.234375 C 123.878906 8.707031 122.957031 8.507812 121.96875 8.507812 Z M 121.96875 8.507812 " fill-opacity="1" fill-rule="nonzero"/><path fill="#000000" d="M 141.226562 30.871094 C 139.976562 30.871094 138.722656 30.476562 137.667969 29.75 C 136.28125 28.824219 135.292969 27.375 134.894531 25.726562 L 131.464844 10.949219 C 131.070312 9.234375 131.398438 7.453125 132.457031 6.003906 C 133.511719 4.484375 135.09375 3.429688 136.941406 3.167969 L 143.007812 2.109375 C 143.472656 2.042969 143.933594 1.980469 144.394531 1.914062 C 144.660156 1.914062 144.855469 1.847656 145.121094 1.847656 L 149.605469 1.253906 C 150.859375 1.121094 152.113281 0.921875 153.367188 0.859375 C 155.277344 0.726562 157.191406 1.320312 158.640625 2.574219 C 159.894531 3.695312 160.621094 5.210938 160.753906 6.859375 L 161.609375 22.03125 C 161.808594 25.59375 159.234375 28.695312 156.003906 28.957031 C 155.015625 29.023438 153.957031 29.15625 153.035156 29.289062 L 149.210938 29.75 C 149.011719 29.75 148.8125 29.816406 148.617188 29.816406 C 148.285156 29.882812 147.890625 29.882812 147.5625 29.945312 L 142.480469 30.871094 C 141.886719 30.871094 141.558594 30.871094 141.226562 30.871094 Z M 153.894531 2.242188 C 153.761719 2.242188 153.5625 2.242188 153.429688 2.242188 C 152.179688 2.308594 150.925781 2.507812 149.738281 2.636719 L 145.25 3.230469 C 144.988281 3.230469 144.789062 3.296875 144.527344 3.296875 C 144.066406 3.363281 143.667969 3.429688 143.207031 3.496094 L 137.136719 4.550781 C 135.753906 4.75 134.433594 5.605469 133.640625 6.792969 C 132.851562 7.914062 132.585938 9.300781 132.917969 10.621094 L 136.347656 25.394531 C 136.675781 26.714844 137.402344 27.835938 138.523438 28.5625 C 139.511719 29.289062 140.765625 29.550781 142.019531 29.351562 L 147.097656 28.429688 C 147.496094 28.363281 147.890625 28.296875 148.21875 28.296875 C 148.417969 28.296875 148.617188 28.230469 148.8125 28.230469 L 152.640625 27.769531 C 153.628906 27.636719 154.683594 27.507812 155.738281 27.441406 C 158.246094 27.242188 160.160156 24.800781 160.027344 22.03125 L 159.171875 6.859375 C 159.105469 5.605469 158.511719 4.417969 157.585938 3.5625 C 156.664062 2.703125 155.277344 2.242188 153.894531 2.242188 Z M 153.894531 2.242188 " fill-opacity="1" fill-rule="nonzero"/><path fill="#000000" d="M 184.960938 29.15625 C 184.699219 29.15625 184.5 29.15625 184.234375 29.089844 C 183.445312 28.957031 182.71875 28.890625 181.925781 28.890625 C 181.597656 28.890625 181.203125 28.824219 180.871094 28.824219 L 177.441406 28.5625 C 176.519531 28.496094 175.527344 28.429688 174.605469 28.429688 L 170.515625 28.296875 C 168.867188 28.230469 167.347656 27.574219 166.226562 26.386719 C 165.039062 25.199219 164.382812 23.546875 164.382812 21.832031 L 163.984375 6.664062 C 163.917969 4.882812 164.644531 3.230469 165.898438 1.980469 C 167.21875 0.660156 169 0 170.84375 0.0664062 L 175.59375 0.199219 C 176.714844 0.199219 177.96875 0.265625 179.089844 0.394531 L 183.179688 0.726562 C 183.578125 0.792969 183.972656 0.792969 184.367188 0.792969 C 185.355469 0.859375 186.347656 0.921875 187.335938 1.054688 C 189.25 1.320312 191.03125 2.308594 192.152344 3.761719 C 193.140625 5.078125 193.601562 6.726562 193.339844 8.378906 L 191.160156 23.351562 C 190.632812 26.714844 187.929688 29.15625 184.960938 29.15625 Z M 184.433594 27.636719 C 186.941406 27.96875 189.25 25.988281 189.710938 23.21875 L 191.886719 8.246094 C 192.085938 6.992188 191.753906 5.738281 190.964844 4.75 C 190.105469 3.5625 188.65625 2.769531 187.136719 2.574219 C 186.214844 2.441406 185.226562 2.375 184.300781 2.308594 C 183.90625 2.308594 183.511719 2.242188 183.113281 2.242188 L 179.023438 1.914062 C 177.902344 1.78125 176.714844 1.78125 175.59375 1.78125 L 170.84375 1.648438 C 169.460938 1.582031 168.007812 2.109375 166.953125 3.167969 C 165.964844 4.15625 165.4375 5.410156 165.4375 6.726562 L 165.832031 21.898438 C 165.898438 23.21875 166.359375 24.539062 167.285156 25.460938 C 168.140625 26.386719 169.261719 26.847656 170.582031 26.914062 L 174.605469 27.042969 C 175.527344 27.042969 176.519531 27.109375 177.507812 27.175781 L 180.9375 27.441406 C 181.265625 27.441406 181.664062 27.507812 181.992188 27.507812 C 182.785156 27.441406 183.578125 27.507812 184.433594 27.636719 Z M 184.433594 27.636719 " fill-opacity="1" fill-rule="nonzero"/><path fill="#000000" d="M 213.722656 35.289062 C 213.128906 35.289062 212.535156 35.222656 211.941406 35.027344 C 211.742188 34.960938 211.542969 34.894531 211.347656 34.828125 C 211.015625 34.695312 210.6875 34.566406 210.355469 34.5 L 205.34375 33.113281 C 205.144531 33.046875 204.949219 32.980469 204.75 32.914062 C 204.421875 32.785156 204.089844 32.71875 203.695312 32.652344 L 198.617188 31.464844 C 197.03125 31.070312 195.714844 30.078125 194.855469 28.757812 C 193.933594 27.308594 193.601562 25.660156 193.933594 23.945312 L 196.570312 9.035156 C 196.902344 7.320312 197.890625 5.804688 199.40625 4.882812 C 200.992188 3.890625 202.902344 3.5625 204.617188 4.023438 L 210.621094 5.410156 C 211.082031 5.539062 211.542969 5.671875 211.941406 5.804688 C 212.136719 5.871094 212.402344 5.9375 212.601562 6.003906 L 218.535156 7.71875 C 219 7.847656 219.394531 7.980469 219.855469 8.113281 C 220.054688 8.179688 220.316406 8.246094 220.515625 8.3125 C 222.363281 8.972656 223.878906 10.289062 224.671875 11.9375 C 225.398438 13.457031 225.460938 15.171875 224.933594 16.6875 L 219.722656 30.9375 C 218.800781 33.574219 216.292969 35.289062 213.722656 35.289062 Z M 203.035156 5.144531 C 202.046875 5.144531 201.054688 5.410156 200.132812 6.003906 C 198.945312 6.726562 198.152344 7.914062 197.957031 9.234375 L 195.316406 24.140625 C 195.054688 25.460938 195.316406 26.78125 196.042969 27.902344 C 196.703125 28.957031 197.691406 29.683594 198.945312 30.011719 L 203.957031 31.199219 C 204.355469 31.265625 204.683594 31.398438 205.078125 31.53125 C 205.277344 31.597656 205.476562 31.664062 205.671875 31.726562 L 210.6875 33.113281 C 211.082031 33.246094 211.414062 33.378906 211.808594 33.441406 C 212.007812 33.507812 212.203125 33.574219 212.402344 33.640625 C 214.777344 34.433594 217.480469 32.980469 218.46875 30.34375 L 223.679688 16.09375 C 224.144531 14.90625 224.078125 13.65625 223.484375 12.46875 C 222.824219 11.148438 221.636719 10.09375 220.121094 9.566406 C 219.921875 9.5 219.65625 9.433594 219.460938 9.367188 C 219.0625 9.234375 218.601562 9.101562 218.207031 8.972656 L 212.269531 7.257812 C 212.070312 7.191406 211.808594 7.125 211.609375 7.058594 C 211.214844 6.925781 210.753906 6.792969 210.355469 6.726562 L 204.355469 5.34375 C 203.894531 5.210938 203.429688 5.144531 203.035156 5.144531 Z M 203.035156 5.144531 " fill-opacity="1" fill-rule="nonzero"/><path fill="#000000" d="M 240.632812 47.164062 C 239.644531 47.164062 238.65625 46.898438 237.796875 46.4375 L 235.554688 45.117188 L 231.730469 43.140625 C 230.144531 42.28125 228.496094 41.554688 226.847656 40.832031 C 226.386719 40.632812 225.925781 40.433594 225.460938 40.238281 C 224.738281 39.90625 224.078125 39.445312 223.550781 38.785156 C 222.957031 38.125 222.558594 37.46875 222.363281 36.808594 C 221.769531 35.222656 221.769531 33.507812 222.429688 31.925781 L 228.035156 17.808594 C 228.695312 16.160156 229.949219 14.90625 231.664062 14.3125 C 232.585938 13.984375 233.445312 13.851562 234.300781 13.851562 C 235.226562 13.917969 236.082031 14.117188 236.941406 14.511719 L 238.257812 15.105469 C 240.304688 16.027344 242.414062 16.953125 244.460938 18.074219 L 249.011719 20.449219 L 251.714844 22.03125 C 253.296875 22.953125 254.484375 24.472656 255.015625 26.121094 C 255.542969 27.835938 255.277344 29.617188 254.355469 31.132812 L 246.371094 44.0625 C 245.515625 45.515625 244.128906 46.503906 242.480469 47.03125 C 241.886719 47.03125 241.226562 47.164062 240.632812 47.164062 Z M 238.523438 45.117188 C 239.578125 45.710938 240.832031 45.84375 242.085938 45.449219 C 243.40625 45.050781 244.460938 44.261719 245.183594 43.140625 L 253.167969 30.210938 C 253.890625 29.089844 254.089844 27.636719 253.695312 26.386719 C 253.296875 25.066406 252.308594 23.878906 251.054688 23.152344 L 248.351562 21.636719 L 243.800781 19.328125 C 241.820312 18.273438 239.710938 17.347656 237.730469 16.425781 L 236.414062 15.832031 C 235.753906 15.5 235.027344 15.371094 234.300781 15.304688 C 233.640625 15.304688 232.980469 15.371094 232.257812 15.632812 C 230.9375 16.160156 229.949219 17.085938 229.484375 18.335938 L 223.878906 32.453125 C 223.351562 33.707031 223.351562 35.09375 223.8125 36.28125 C 224.011719 36.808594 224.339844 37.335938 224.804688 37.863281 C 225.199219 38.324219 225.660156 38.71875 226.253906 38.917969 C 226.714844 39.117188 227.175781 39.3125 227.640625 39.511719 C 229.289062 40.238281 230.9375 41.027344 232.585938 41.886719 L 236.414062 43.863281 Z M 238.523438 45.117188 " fill-opacity="1" fill-rule="nonzero"/><path fill="#000000" d="M 264.84375 64.183594 C 263.457031 64.183594 262.007812 63.71875 260.882812 62.796875 L 258.246094 60.488281 C 257.71875 60.027344 257.125 59.5625 256.53125 59.101562 C 256.199219 58.839844 255.871094 58.574219 255.542969 58.3125 L 252.835938 56.199219 C 252.242188 55.738281 251.648438 55.34375 251.121094 54.945312 C 250.792969 54.683594 250.394531 54.484375 250.066406 54.222656 C 248.746094 53.296875 247.957031 51.847656 247.691406 50.199219 C 247.429688 48.546875 247.757812 46.898438 248.746094 45.449219 L 257.125 32.785156 C 258.113281 31.332031 259.632812 30.34375 261.414062 30.078125 C 263.128906 29.816406 265.039062 30.277344 266.492188 31.332031 C 266.886719 31.597656 267.28125 31.859375 267.613281 32.125 C 268.339844 32.652344 269.128906 33.179688 269.855469 33.707031 L 273.085938 36.28125 C 273.484375 36.609375 273.8125 36.875 274.210938 37.136719 C 274.933594 37.664062 275.660156 38.257812 276.320312 38.851562 L 279.421875 41.554688 C 280.871094 42.742188 281.730469 44.523438 281.859375 46.371094 C 281.925781 48.085938 281.332031 49.800781 280.210938 51.054688 L 269.789062 62.070312 C 268.46875 63.457031 266.625 64.183594 264.84375 64.183594 Z M 261.875 61.675781 C 263.851562 63.324219 266.886719 63.058594 268.734375 61.082031 L 279.15625 50.066406 C 280.078125 49.140625 280.542969 47.824219 280.410156 46.503906 C 280.34375 45.050781 279.617188 43.667969 278.496094 42.742188 L 275.394531 40.039062 C 274.738281 39.445312 274.011719 38.917969 273.351562 38.390625 C 272.957031 38.125 272.625 37.796875 272.230469 37.53125 L 268.996094 35.027344 C 268.273438 34.5 267.546875 33.972656 266.820312 33.441406 C 266.425781 33.179688 266.03125 32.914062 265.699219 32.652344 C 264.511719 31.792969 262.996094 31.398438 261.675781 31.597656 C 260.289062 31.792969 259.101562 32.585938 258.378906 33.707031 L 250 46.371094 C 249.273438 47.492188 248.945312 48.8125 249.210938 50.132812 C 249.40625 51.449219 250.066406 52.574219 250.988281 53.230469 C 251.320312 53.496094 251.648438 53.695312 252.046875 53.957031 C 252.640625 54.351562 253.234375 54.816406 253.828125 55.277344 L 256.53125 57.453125 C 256.859375 57.71875 257.191406 57.980469 257.519531 58.246094 C 258.113281 58.707031 258.707031 59.167969 259.234375 59.628906 Z M 261.875 61.675781 " fill-opacity="1" fill-rule="nonzero"/><path fill="#000000" d="M 285.160156 85.816406 C 284.894531 85.816406 284.632812 85.816406 284.300781 85.75 C 282.71875 85.554688 281.332031 84.761719 280.277344 83.507812 L 277.046875 79.417969 C 276.847656 79.15625 276.582031 78.890625 276.386719 78.628906 C 276.253906 78.496094 276.121094 78.296875 275.988281 78.164062 L 272.625 74.207031 C 272.429688 73.945312 272.164062 73.679688 271.898438 73.417969 L 271.4375 72.953125 C 269.195312 70.578125 269.394531 66.621094 271.898438 64.050781 L 282.652344 53.296875 C 283.773438 52.109375 285.355469 51.515625 287.070312 51.515625 C 288.917969 51.515625 290.765625 52.375 292.152344 53.757812 L 292.613281 54.289062 C 292.941406 54.617188 293.273438 54.945312 293.535156 55.277344 L 297.625 59.960938 C 297.757812 60.15625 297.957031 60.355469 298.085938 60.488281 C 298.417969 60.816406 298.679688 61.148438 298.945312 61.542969 L 302.769531 66.425781 C 303.890625 67.808594 304.417969 69.65625 304.15625 71.503906 C 303.957031 73.285156 303.035156 74.867188 301.582031 75.855469 L 289.183594 84.5625 C 287.929688 85.355469 286.542969 85.816406 285.160156 85.816406 Z M 281.398438 82.585938 C 282.257812 83.574219 283.3125 84.167969 284.5 84.300781 C 285.820312 84.5 287.136719 84.101562 288.257812 83.375 L 300.660156 74.667969 C 301.78125 73.878906 302.441406 72.691406 302.640625 71.304688 C 302.835938 69.855469 302.441406 68.335938 301.515625 67.28125 L 297.691406 62.402344 C 297.429688 62.070312 297.164062 61.742188 296.835938 61.410156 C 296.703125 61.214844 296.503906 61.015625 296.371094 60.882812 L 292.347656 56.199219 C 292.085938 55.871094 291.753906 55.539062 291.425781 55.210938 L 290.964844 54.683594 C 289.90625 53.5625 288.390625 52.902344 286.941406 52.902344 C 286.941406 52.902344 286.941406 52.902344 286.875 52.902344 C 285.621094 52.902344 284.433594 53.363281 283.574219 54.289062 L 272.824219 65.039062 C 270.84375 67.019531 270.648438 70.117188 272.429688 71.964844 L 272.890625 72.425781 C 273.152344 72.691406 273.417969 72.953125 273.679688 73.21875 L 277.113281 77.175781 C 277.242188 77.308594 277.375 77.507812 277.507812 77.636719 C 277.769531 77.902344 278.035156 78.230469 278.234375 78.496094 Z M 281.398438 82.585938 " fill-opacity="1" fill-rule="nonzero"/><path fill="#000000" d="M 300.726562 111.015625 C 298.285156 111.015625 296.042969 109.761719 295.121094 107.585938 L 291.953125 101.449219 L 288.523438 95.515625 C 286.742188 92.808594 287.730469 88.917969 290.699219 86.9375 L 303.363281 78.5625 C 304.75 77.636719 306.398438 77.308594 308.046875 77.703125 C 309.894531 78.101562 311.542969 79.222656 312.597656 80.871094 L 316.753906 88.058594 L 320.515625 95.449219 C 321.304688 97.230469 321.4375 99.273438 320.710938 100.988281 C 320.117188 102.570312 318.933594 103.824219 317.414062 104.417969 L 303.496094 110.488281 C 302.574219 110.816406 301.648438 111.015625 300.726562 111.015625 Z M 306.730469 78.957031 C 305.804688 78.957031 304.949219 79.222656 304.15625 79.75 L 291.492188 88.125 C 289.183594 89.710938 288.390625 92.675781 289.710938 94.789062 L 293.207031 100.792969 L 296.371094 106.992188 C 297.363281 109.234375 300.332031 110.222656 302.902344 109.101562 L 316.820312 103.035156 C 317.941406 102.570312 318.867188 101.582031 319.328125 100.394531 C 319.855469 99.011719 319.789062 97.425781 319.128906 95.976562 L 315.371094 88.652344 L 311.28125 81.53125 C 310.421875 80.210938 309.167969 79.289062 307.71875 79.023438 C 307.386719 78.957031 307.058594 78.957031 306.730469 78.957031 Z M 306.730469 78.957031 " fill-opacity="1" fill-rule="nonzero"/><path fill="#000000" d="M 310.949219 138.851562 C 307.980469 138.851562 305.277344 136.9375 304.683594 134.234375 C 304.550781 133.441406 304.289062 132.71875 304.089844 131.925781 C 304.023438 131.59375 303.890625 131.265625 303.828125 130.9375 L 302.902344 127.636719 C 302.703125 126.847656 302.441406 126.121094 302.175781 125.328125 C 302.046875 125 301.980469 124.667969 301.847656 124.339844 L 300.726562 121.042969 C 300.59375 120.644531 300.527344 120.25 300.460938 119.855469 C 300.394531 119.523438 300.394531 119.0625 300.394531 118.667969 C 300.460938 117.875 300.660156 117.148438 300.988281 116.359375 C 301.714844 114.839844 303.035156 113.652344 304.550781 112.996094 L 318.601562 107.320312 C 320.25 106.660156 322.03125 106.726562 323.613281 107.519531 C 324.40625 107.914062 325.132812 108.441406 325.726562 109.101562 C 326.054688 109.433594 326.320312 109.828125 326.582031 110.15625 C 326.847656 110.621094 327.046875 111.015625 327.175781 111.476562 L 328.496094 115.367188 C 328.628906 115.765625 328.761719 116.09375 328.890625 116.425781 C 329.222656 117.347656 329.550781 118.335938 329.816406 119.328125 L 330.9375 123.285156 C 331.070312 123.679688 331.136719 124.011719 331.265625 124.40625 C 331.53125 125.328125 331.792969 126.320312 332.058594 127.308594 C 332.519531 129.222656 332.191406 131.199219 331.136719 132.78125 C 330.210938 134.234375 328.824219 135.15625 327.242188 135.488281 L 312.402344 138.585938 C 311.875 138.785156 311.410156 138.851562 310.949219 138.851562 Z M 306.070312 133.90625 C 306.664062 136.34375 309.300781 137.863281 312.070312 137.335938 L 326.914062 134.234375 C 328.167969 133.96875 329.222656 133.246094 329.882812 132.1875 C 330.671875 130.9375 330.9375 129.351562 330.605469 127.835938 C 330.410156 126.914062 330.144531 125.921875 329.882812 125 C 329.75 124.605469 329.683594 124.273438 329.550781 123.878906 L 328.429688 119.921875 C 328.167969 118.996094 327.835938 118.007812 327.574219 117.082031 C 327.441406 116.753906 327.308594 116.359375 327.175781 115.960938 L 325.859375 112.070312 C 325.726562 111.742188 325.59375 111.34375 325.394531 111.015625 C 325.199219 110.75 325 110.421875 324.738281 110.15625 C 324.273438 109.628906 323.679688 109.234375 323.085938 108.90625 C 321.835938 108.3125 320.449219 108.246094 319.195312 108.773438 L 305.144531 114.445312 C 303.890625 114.972656 302.902344 115.898438 302.308594 117.082031 C 302.046875 117.675781 301.847656 118.207031 301.847656 118.800781 C 301.847656 119.0625 301.847656 119.390625 301.914062 119.65625 C 301.980469 119.984375 302.046875 120.316406 302.109375 120.578125 L 303.234375 123.878906 C 303.363281 124.207031 303.429688 124.539062 303.5625 124.800781 C 303.828125 125.59375 304.089844 126.382812 304.289062 127.175781 L 305.210938 130.472656 C 305.277344 130.804688 305.410156 131.132812 305.476562 131.464844 C 305.671875 132.253906 305.871094 133.046875 306.070312 133.90625 Z M 306.070312 133.90625 " fill-opacity="1" fill-rule="nonzero"/><path fill="#000000" d="M 315.304688 168.203125 C 311.742188 168.203125 308.773438 165.5 308.640625 162.269531 C 308.640625 161.34375 308.574219 160.355469 308.507812 159.367188 L 308.179688 155.40625 C 308.179688 155.210938 308.179688 155.011719 308.113281 154.75 C 308.113281 154.417969 308.046875 154.023438 308.046875 153.691406 L 307.386719 148.546875 C 307.257812 147.824219 307.320312 147.03125 307.585938 146.171875 C 307.785156 145.449219 308.113281 144.722656 308.640625 144.0625 C 309.632812 142.742188 311.148438 141.820312 312.796875 141.554688 L 327.703125 138.851562 C 329.417969 138.523438 331.199219 138.984375 332.585938 140.039062 C 333.3125 140.566406 333.90625 141.226562 334.367188 142.019531 C 334.828125 142.742188 335.09375 143.601562 335.222656 144.65625 L 336.015625 150.789062 C 336.082031 151.253906 336.082031 151.714844 336.148438 152.175781 C 336.148438 152.441406 336.214844 152.636719 336.214844 152.902344 L 336.542969 157.519531 C 336.609375 158.707031 336.742188 159.960938 336.742188 161.148438 C 336.808594 163.058594 336.082031 164.972656 334.761719 166.292969 C 333.574219 167.480469 332.058594 168.140625 330.410156 168.140625 Z M 310.09375 162.203125 C 310.160156 164.707031 312.46875 166.753906 315.304688 166.753906 L 330.476562 166.6875 C 331.726562 166.6875 332.914062 166.160156 333.839844 165.238281 C 334.894531 164.179688 335.421875 162.664062 335.421875 161.148438 C 335.421875 159.960938 335.289062 158.773438 335.222656 157.585938 L 334.894531 152.96875 C 334.894531 152.703125 334.828125 152.503906 334.828125 152.242188 C 334.828125 151.78125 334.761719 151.382812 334.695312 150.921875 L 333.90625 144.789062 C 333.773438 143.996094 333.574219 143.269531 333.246094 142.742188 C 332.851562 142.148438 332.386719 141.621094 331.859375 141.160156 C 330.738281 140.300781 329.417969 139.972656 328.101562 140.238281 L 313.191406 142.941406 C 311.875 143.203125 310.6875 143.863281 309.894531 144.921875 C 309.5 145.449219 309.234375 145.976562 309.101562 146.503906 C 308.90625 147.164062 308.839844 147.757812 308.972656 148.351562 L 309.632812 153.496094 C 309.695312 153.890625 309.695312 154.285156 309.695312 154.617188 C 309.695312 154.816406 309.695312 155.011719 309.761719 155.210938 L 310.09375 159.167969 C 310.027344 160.222656 310.09375 161.210938 310.09375 162.203125 Z M 310.09375 162.203125 " fill-opacity="1" fill-rule="nonzero"/><g transform="matrix(1, 0, 0, 1, 77, 136)"><g clip-path="url(#fd13d3912b)"><g fill="#000000" fill-opacity="1"><g transform="translate(2.783113, 23.743187)"><g><path d="M 1.796875 0 L 1.796875 -16.359375 L 3.59375 -16.359375 L 3.59375 -9.046875 L 13.109375 -9.046875 L 13.109375 -16.359375 L 14.90625 -16.359375 L 14.90625 0 L 13.109375 0 L 13.109375 -7.4375 L 3.59375 -7.4375 L 3.59375 0 Z M 1.796875 0 "/></g></g></g><g fill="#000000" fill-opacity="1"><g transform="translate(19.489575, 23.743187)"><g><path d="M 0.09375 0 L 6.890625 -16.359375 L 9.0625 -16.359375 L 15.78125 0 L 13.8125 0 L 11.75 -5.140625 L 4.046875 -5.140625 L 1.96875 0 Z M 4.671875 -6.6875 L 11.125 -6.6875 L 7.921875 -14.671875 Z M 4.671875 -6.6875 "/></g></g></g><g fill="#000000" fill-opacity="1"><g transform="translate(35.354879, 23.743187)"><g><path d="M 1.796875 -16.359375 L 8.4375 -16.359375 C 10.007812 -16.359375 11.265625 -15.976562 12.203125 -15.21875 C 13.140625 -14.457031 13.609375 -13.4375 13.609375 -12.15625 C 13.609375 -11.3125 13.382812 -10.578125 12.9375 -9.953125 C 12.488281 -9.328125 11.878906 -8.851562 11.109375 -8.53125 C 12.085938 -8.238281 12.859375 -7.742188 13.421875 -7.046875 C 13.992188 -6.347656 14.28125 -5.535156 14.28125 -4.609375 C 14.28125 -3.203125 13.769531 -2.082031 12.75 -1.25 C 11.726562 -0.414062 10.382812 0 8.71875 0 L 1.796875 0 Z M 8.34375 -14.796875 L 3.59375 -14.796875 L 3.59375 -9.234375 L 8.34375 -9.234375 C 9.40625 -9.234375 10.25 -9.484375 10.875 -9.984375 C 11.507812 -10.492188 11.828125 -11.171875 11.828125 -12.015625 C 11.828125 -12.859375 11.507812 -13.53125 10.875 -14.03125 C 10.25 -14.539062 9.40625 -14.796875 8.34375 -14.796875 Z M 8.578125 -1.5625 C 9.742188 -1.5625 10.679688 -1.84375 11.390625 -2.40625 C 12.097656 -2.96875 12.453125 -3.71875 12.453125 -4.65625 C 12.453125 -5.582031 12.097656 -6.328125 11.390625 -6.890625 C 10.679688 -7.453125 9.742188 -7.734375 8.578125 -7.734375 L 3.59375 -7.734375 L 3.59375 -1.5625 Z M 8.578125 -1.5625 "/></g></g></g><g fill="#000000" fill-opacity="1"><g transform="translate(50.706133, 23.743187)"><g><path d="M 1.796875 0 L 1.796875 -16.359375 L 3.59375 -16.359375 L 3.59375 0 Z M 1.796875 0 "/></g></g></g><g fill="#000000" fill-opacity="1"><g transform="translate(56.103608, 23.743187)"><g><path d="M 0.390625 -14.75 L 0.390625 -16.359375 L 14.03125 -16.359375 L 14.03125 -14.75 L 8.109375 -14.75 L 8.109375 0 L 6.3125 0 L 6.3125 -14.75 Z M 0.390625 -14.75 "/></g></g></g><g fill="#000000" fill-opacity="1"><g transform="translate(70.52024, 23.743187)"><g/></g></g><g fill="#000000" fill-opacity="1"><g transform="translate(75.543861, 23.743187)"><g><path d="M 0.390625 -14.75 L 0.390625 -16.359375 L 14.03125 -16.359375 L 14.03125 -14.75 L 8.109375 -14.75 L 8.109375 0 L 6.3125 0 L 6.3125 -14.75 Z M 0.390625 -14.75 "/></g></g></g><g fill="#000000" fill-opacity="1"><g transform="translate(89.960492, 23.743187)"><g><path d="M 1.796875 0 L 1.796875 -16.359375 L 8.8125 -16.359375 C 10.40625 -16.359375 11.691406 -15.925781 12.671875 -15.0625 C 13.648438 -14.195312 14.140625 -13.066406 14.140625 -11.671875 C 14.140625 -10.585938 13.820312 -9.65625 13.1875 -8.875 C 12.5625 -8.101562 11.71875 -7.566406 10.65625 -7.265625 L 14.328125 0 L 12.34375 0 L 8.828125 -7.03125 L 3.59375 -7.03125 L 3.59375 0 Z M 8.703125 -14.75 L 3.59375 -14.75 L 3.59375 -8.5625 L 8.703125 -8.5625 C 9.785156 -8.5625 10.660156 -8.84375 11.328125 -9.40625 C 12.003906 -9.976562 12.34375 -10.734375 12.34375 -11.671875 C 12.34375 -12.597656 12.003906 -13.34375 11.328125 -13.90625 C 10.660156 -14.46875 9.785156 -14.75 8.703125 -14.75 Z M 8.703125 -14.75 "/></g></g></g><g fill="#000000" fill-opacity="1"><g transform="translate(105.26504, 23.743187)"><g><path d="M 0.09375 0 L 6.890625 -16.359375 L 9.0625 -16.359375 L 15.78125 0 L 13.8125 0 L 11.75 -5.140625 L 4.046875 -5.140625 L 1.96875 0 Z M 4.671875 -6.6875 L 11.125 -6.6875 L 7.921875 -14.671875 Z M 4.671875 -6.6875 "/></g></g></g><g fill="#000000" fill-opacity="1"><g transform="translate(120.289069, 23.743187)"><g><path d="M 9.5625 -1.40625 C 10.570312 -1.40625 11.535156 -1.601562 12.453125 -2 C 13.378906 -2.394531 14.148438 -2.941406 14.765625 -3.640625 L 15.9375 -2.4375 C 15.125 -1.59375 14.15625 -0.929688 13.03125 -0.453125 C 11.914062 0.015625 10.742188 0.25 9.515625 0.25 C 8.328125 0.25 7.210938 0.0351562 6.171875 -0.390625 C 5.140625 -0.828125 4.242188 -1.421875 3.484375 -2.171875 C 2.722656 -2.929688 2.125 -3.828125 1.6875 -4.859375 C 1.25 -5.898438 1.03125 -7.007812 1.03125 -8.1875 C 1.03125 -9.351562 1.25 -10.453125 1.6875 -11.484375 C 2.125 -12.523438 2.722656 -13.421875 3.484375 -14.171875 C 4.242188 -14.929688 5.140625 -15.53125 6.171875 -15.96875 C 7.210938 -16.40625 8.328125 -16.625 9.515625 -16.625 C 10.773438 -16.625 11.96875 -16.382812 13.09375 -15.90625 C 14.226562 -15.425781 15.191406 -14.769531 15.984375 -13.9375 L 14.796875 -12.671875 C 14.160156 -13.390625 13.367188 -13.945312 12.421875 -14.34375 C 11.484375 -14.75 10.515625 -14.953125 9.515625 -14.953125 C 8.578125 -14.953125 7.695312 -14.773438 6.875 -14.421875 C 6.0625 -14.078125 5.359375 -13.601562 4.765625 -13 C 4.171875 -12.40625 3.703125 -11.691406 3.359375 -10.859375 C 3.023438 -10.023438 2.859375 -9.132812 2.859375 -8.1875 C 2.859375 -7.226562 3.023438 -6.332031 3.359375 -5.5 C 3.703125 -4.664062 4.175781 -3.945312 4.78125 -3.34375 C 5.382812 -2.75 6.09375 -2.273438 6.90625 -1.921875 C 7.726562 -1.578125 8.613281 -1.40625 9.5625 -1.40625 Z M 9.5625 -1.40625 "/></g></g></g><g fill="#000000" fill-opacity="1"><g transform="translate(137.159099, 23.743187)"><g><path d="M 1.796875 0 L 1.796875 -16.359375 L 3.59375 -16.359375 L 3.59375 -8.609375 L 12.0625 -16.359375 L 14.421875 -16.359375 L 5.546875 -8.34375 L 14.609375 0 L 12.078125 0 L 3.59375 -7.859375 L 3.59375 0 Z M 1.796875 0 "/></g></g></g><g fill="#000000" fill-opacity="1"><g transform="translate(151.57573, 23.743187)"><g><path d="M 1.796875 0 L 1.796875 -16.359375 L 13.515625 -16.359375 L 13.515625 -14.765625 L 3.59375 -14.765625 L 3.59375 -9.046875 L 10.078125 -9.046875 L 10.078125 -7.484375 L 3.59375 -7.484375 L 3.59375 -1.59375 L 13.609375 -1.59375 L 13.609375 0 Z M 1.796875 0 "/></g></g></g><g fill="#000000" fill-opacity="1"><g transform="translate(165.968989, 23.743187)"><g><path d="M 1.796875 0 L 1.796875 -16.359375 L 8.8125 -16.359375 C 10.40625 -16.359375 11.691406 -15.925781 12.671875 -15.0625 C 13.648438 -14.195312 14.140625 -13.066406 14.140625 -11.671875 C 14.140625 -10.585938 13.820312 -9.65625 13.1875 -8.875 C 12.5625 -8.101562 11.71875 -7.566406 10.65625 -7.265625 L 14.328125 0 L 12.34375 0 L 8.828125 -7.03125 L 3.59375 -7.03125 L 3.59375 0 Z M 8.703125 -14.75 L 3.59375 -14.75 L 3.59375 -8.5625 L 8.703125 -8.5625 C 9.785156 -8.5625 10.660156 -8.84375 11.328125 -9.40625 C 12.003906 -9.976562 12.34375 -10.734375 12.34375 -11.671875 C 12.34375 -12.597656 12.003906 -13.34375 11.328125 -13.90625 C 10.660156 -14.46875 9.785156 -14.75 8.703125 -14.75 Z M 8.703125 -14.75 "/></g></g></g><g fill="#000000" fill-opacity="1"><g transform="translate(1.806245, 55.847828)"><g><path d="M 11.296875 1.875 L 11.296875 3.203125 L -0.015625 3.203125 L -0.015625 1.875 Z M 11.296875 1.875 "/></g></g></g><g fill="#000000" fill-opacity="1"><g transform="translate(13.0685, 55.847828)"><g><path d="M 11.296875 1.875 L 11.296875 3.203125 L -0.015625 3.203125 L -0.015625 1.875 Z M 11.296875 1.875 "/></g></g></g><g fill="#000000" fill-opacity="1"><g transform="translate(24.330756, 55.847828)"><g><path d="M 11.296875 1.875 L 11.296875 3.203125 L -0.015625 3.203125 L -0.015625 1.875 Z M 11.296875 1.875 "/></g></g></g><g fill="#000000" fill-opacity="1"><g transform="translate(35.593011, 55.847828)"><g><path d="M 11.296875 1.875 L 11.296875 3.203125 L -0.015625 3.203125 L -0.015625 1.875 Z M 11.296875 1.875 "/></g></g></g><g fill="#000000" fill-opacity="1"><g transform="translate(46.855267, 55.847828)"><g><path d="M 11.296875 1.875 L 11.296875 3.203125 L -0.015625 3.203125 L -0.015625 1.875 Z M 11.296875 1.875 "/></g></g></g><g fill="#000000" fill-opacity="1"><g transform="translate(58.117522, 55.847828)"><g><path d="M 11.296875 1.875 L 11.296875 3.203125 L -0.015625 3.203125 L -0.015625 1.875 Z M 11.296875 1.875 "/></g></g></g><g fill="#000000" fill-opacity="1"><g transform="translate(69.379777, 55.847828)"><g><path d="M 11.296875 1.875 L 11.296875 3.203125 L -0.015625 3.203125 L -0.015625 1.875 Z M 11.296875 1.875 "/></g></g></g><g fill="#000000" fill-opacity="1"><g transform="translate(80.642033, 55.847828)"><g><path d="M 11.296875 1.875 L 11.296875 3.203125 L -0.015625 3.203125 L -0.015625 1.875 Z M 11.296875 1.875 "/></g></g></g><g fill="#000000" fill-opacity="1"><g transform="translate(91.904288, 55.847828)"><g><path d="M 11.296875 1.875 L 11.296875 3.203125 L -0.015625 3.203125 L -0.015625 1.875 Z M 11.296875 1.875 "/></g></g></g><g fill="#000000" fill-opacity="1"><g transform="translate(103.166544, 55.847828)"><g><path d="M 11.296875 1.875 L 11.296875 3.203125 L -0.015625 3.203125 L -0.015625 1.875 Z M 11.296875 1.875 "/></g></g></g><g fill="#000000" fill-opacity="1"><g transform="translate(114.428799, 55.847828)"><g><path d="M 11.296875 1.875 L 11.296875 3.203125 L -0.015625 3.203125 L -0.015625 1.875 Z M 11.296875 1.875 "/></g></g></g><g fill="#000000" fill-opacity="1"><g transform="translate(125.691054, 55.847828)"><g><path d="M 11.296875 1.875 L 11.296875 3.203125 L -0.015625 3.203125 L -0.015625 1.875 Z M 11.296875 1.875 "/></g></g></g><g fill="#000000" fill-opacity="1"><g transform="translate(136.95331, 55.847828)"><g><path d="M 11.296875 1.875 L 11.296875 3.203125 L -0.015625 3.203125 L -0.015625 1.875 Z M 11.296875 1.875 "/></g></g></g><g fill="#000000" fill-opacity="1"><g transform="translate(148.215565, 55.847828)"><g><path d="M 11.296875 1.875 L 11.296875 3.203125 L -0.015625 3.203125 L -0.015625 1.875 Z M 11.296875 1.875 "/></g></g></g><g fill="#000000" fill-opacity="1"><g transform="translate(159.477821, 55.847828)"><g><path d="M 11.296875 1.875 L 11.296875 3.203125 L -0.015625 3.203125 L -0.015625 1.875 Z M 11.296875 1.875 "/></g></g></g><g clip-path="url(#88eb69eb23)"><g fill="#000000" fill-opacity="1"><g transform="translate(170.740076, 55.847828)"><g><path d="M 11.296875 1.875 L 11.296875 3.203125 L -0.015625 3.203125 L -0.015625 1.875 Z M 11.296875 1.875 "/></g></g></g></g></g></g></g></g></g></svg>