<svg xmlns="http://www.w3.org/2000/svg" xmlns:xlink="http://www.w3.org/1999/xlink" width="583" zoomAndPan="magnify" viewBox="0 0 438 300.000006" height="450" preserveAspectRatio="xMidYMid meet" version="1.0"><defs><clipPath id="3db3233629"><path d="M 0.726562 0 L 337.105469 0 L 337.105469 299.003906 L 0.726562 299.003906 Z M 0.726562 0 " clip-rule="nonzero"/></clipPath><clipPath id="5ebbe0b4f2"><path d="M 337.105469 0 L 436.523438 0 L 436.523438 299.003906 L 337.105469 299.003906 Z M 337.105469 0 " clip-rule="nonzero"/></clipPath></defs><g clip-path="url(#3db3233629)"><path fill="#000000" d="M 330.828125 307.898438 L 330.828125 336.378906 L 329.984375 336.378906 L 329.984375 28.480469 L 330.828125 28.480469 Z M 317.371094 28.480469 L 316.53125 28.480469 L 316.53125 336.378906 L 317.371094 336.378906 Z M 303.917969 28.480469 L 303.074219 28.480469 L 303.074219 336.378906 L 303.917969 336.378906 Z M 290.460938 28.480469 L 289.621094 28.480469 L 289.621094 336.378906 L 290.460938 336.378906 Z M 277.007812 28.480469 L 276.164062 28.480469 L 276.164062 336.378906 L 277.007812 336.378906 Z M 263.550781 28.480469 L 262.710938 28.480469 L 262.710938 336.378906 L 263.550781 336.378906 Z M 250.097656 28.480469 L 249.253906 28.480469 L 249.253906 336.378906 L 250.097656 336.378906 Z M 236.640625 28.480469 L 235.800781 28.480469 L 235.800781 336.378906 L 236.640625 336.378906 Z M 223.1875 28.480469 L 222.34375 28.480469 L 222.34375 336.378906 L 223.1875 336.378906 Z M 209.730469 28.480469 L 208.890625 28.480469 L 208.890625 336.378906 L 209.730469 336.378906 Z M 196.277344 28.480469 L 195.433594 28.480469 L 195.433594 336.378906 L 196.277344 336.378906 Z M 182.820312 28.480469 L 181.980469 28.480469 L 181.980469 336.378906 L 182.820312 336.378906 Z M 169.367188 28.480469 L 168.523438 28.480469 L 168.523438 336.378906 L 169.367188 336.378906 Z M 155.910156 28.480469 L 155.070312 28.480469 L 155.070312 336.378906 L 155.910156 336.378906 Z M 142.457031 28.480469 L 141.613281 28.480469 L 141.613281 336.378906 L 142.457031 336.378906 Z M 129 28.480469 L 128.160156 28.480469 L 128.160156 336.378906 L 129 336.378906 Z M 115.542969 28.480469 L 114.703125 28.480469 L 114.703125 336.378906 L 115.542969 336.378906 Z M 102.089844 28.480469 L 101.25 28.480469 L 101.25 336.378906 L 102.089844 336.378906 Z M 88.632812 28.480469 L 87.792969 28.480469 L 87.792969 336.378906 L 88.632812 336.378906 Z M 75.179688 28.480469 L 74.339844 28.480469 L 74.339844 336.378906 L 75.179688 336.378906 Z M 61.722656 28.480469 L 60.882812 28.480469 L 60.882812 336.378906 L 61.722656 336.378906 Z M 48.269531 28.480469 L 47.429688 28.480469 L 47.429688 336.378906 L 48.269531 336.378906 Z M 34.8125 28.480469 L 33.972656 28.480469 L 33.972656 336.378906 L 34.8125 336.378906 Z M 21.359375 28.480469 L 20.519531 28.480469 L 20.519531 336.378906 L 21.359375 336.378906 Z M 7.902344 28.480469 L 7.0625 28.480469 L 7.0625 336.378906 L 7.902344 336.378906 Z M 330.828125 28.480469 L 330.828125 0 L 329.984375 0 L 329.984375 28.480469 Z M 317.371094 28.480469 L 317.371094 0 L 316.53125 0 L 316.53125 28.480469 Z M 303.917969 28.480469 L 303.917969 0 L 303.074219 0 L 303.074219 28.480469 Z M 290.460938 28.480469 L 290.460938 0 L 289.621094 0 L 289.621094 28.480469 Z M 277.007812 28.480469 L 277.007812 0 L 276.164062 0 L 276.164062 28.480469 Z M 263.550781 28.480469 L 263.550781 0 L 262.710938 0 L 262.710938 28.480469 Z M 250.097656 28.480469 L 250.097656 0 L 249.253906 0 L 249.253906 28.480469 Z M 236.640625 28.480469 L 236.640625 0 L 235.800781 0 L 235.800781 28.480469 Z M 223.1875 28.480469 L 223.1875 0 L 222.34375 0 L 222.34375 28.480469 Z M 209.730469 28.480469 L 209.730469 0 L 208.890625 0 L 208.890625 28.480469 Z M 196.277344 28.480469 L 196.277344 0 L 195.433594 0 L 195.433594 28.480469 Z M 182.820312 28.480469 L 182.820312 0 L 181.980469 0 L 181.980469 28.480469 Z M 169.367188 28.480469 L 169.367188 0 L 168.523438 0 L 168.523438 28.480469 Z M 155.910156 28.480469 L 155.910156 0 L 155.070312 0 L 155.070312 28.480469 Z M 142.457031 28.480469 L 142.457031 0 L 141.613281 0 L 141.613281 28.480469 Z M 129 28.480469 L 129 0 L 128.160156 0 L 128.160156 28.480469 Z M 115.542969 28.480469 L 115.542969 0 L 114.703125 0 L 114.703125 28.480469 Z M 102.089844 28.480469 L 102.089844 0 L 101.25 0 L 101.25 28.480469 Z M 88.632812 28.480469 L 88.632812 0 L 87.792969 0 L 87.792969 28.480469 Z M 75.179688 28.480469 L 75.179688 0 L 74.339844 0 L 74.339844 28.480469 Z M 61.722656 28.480469 L 61.722656 0 L 60.882812 0 L 60.882812 28.480469 Z M 48.269531 28.480469 L 48.269531 0 L 47.429688 0 L 47.429688 28.480469 Z M 34.8125 28.480469 L 34.8125 0 L 33.972656 0 L 33.972656 28.480469 Z M 21.359375 28.480469 L 21.359375 0 L 20.519531 0 L 20.519531 28.480469 Z M 7.902344 28.480469 L 7.902344 0 L 7.0625 0 L 7.0625 28.480469 Z M 308.625 330.101562 L 308.625 329.257812 L 0.726562 329.257812 L 0.726562 330.101562 Z M 308.625 316.644531 L 308.625 315.804688 L 0.726562 315.804688 L 0.726562 316.644531 Z M 308.625 303.1875 L 308.625 302.347656 L 0.726562 302.347656 L 0.726562 303.1875 Z M 308.625 289.734375 L 308.625 288.894531 L 0.726562 288.894531 L 0.726562 289.734375 Z M 308.625 276.277344 L 308.625 275.4375 L 0.726562 275.4375 L 0.726562 276.277344 Z M 308.625 262.824219 L 308.625 261.984375 L 0.726562 261.984375 L 0.726562 262.824219 Z M 308.625 249.367188 L 308.625 248.527344 L 0.726562 248.527344 L 0.726562 249.367188 Z M 308.625 235.914062 L 308.625 235.074219 L 0.726562 235.074219 L 0.726562 235.914062 Z M 308.625 222.457031 L 308.625 221.617188 L 0.726562 221.617188 L 0.726562 222.457031 Z M 308.625 209.003906 L 308.625 208.164062 L 0.726562 208.164062 L 0.726562 209.003906 Z M 308.625 195.546875 L 308.625 194.707031 L 0.726562 194.707031 L 0.726562 195.546875 Z M 308.625 182.09375 L 308.625 181.253906 L 0.726562 181.253906 L 0.726562 182.09375 Z M 308.625 168.636719 L 308.625 167.796875 L 0.726562 167.796875 L 0.726562 168.636719 Z M 308.625 155.183594 L 308.625 154.339844 L 0.726562 154.339844 L 0.726562 155.183594 Z M 308.625 141.726562 L 308.625 140.886719 L 0.726562 140.886719 L 0.726562 141.726562 Z M 308.625 128.273438 L 308.625 127.429688 L 0.726562 127.429688 L 0.726562 128.273438 Z M 308.625 114.816406 L 308.625 113.976562 L 0.726562 113.976562 L 0.726562 114.816406 Z M 308.625 101.363281 L 308.625 100.519531 L 0.726562 100.519531 L 0.726562 101.363281 Z M 308.625 87.90625 L 308.625 87.066406 L 0.726562 87.066406 L 0.726562 87.90625 Z M 308.625 74.453125 L 308.625 73.609375 L 0.726562 73.609375 L 0.726562 74.453125 Z M 308.625 60.996094 L 308.625 60.15625 L 0.726562 60.15625 L 0.726562 60.996094 Z M 308.625 47.542969 L 308.625 46.699219 L 0.726562 46.699219 L 0.726562 47.542969 Z M 308.625 34.085938 L 308.625 33.246094 L 0.726562 33.246094 L 0.726562 34.085938 Z M 308.625 20.632812 L 308.625 19.789062 L 0.726562 19.789062 L 0.726562 20.632812 Z M 308.625 7.175781 L 308.625 6.335938 L 0.726562 6.335938 L 0.726562 7.175781 Z M 308.625 330.101562 L 337.105469 330.101562 L 337.105469 329.257812 L 308.625 329.257812 Z M 308.625 316.644531 L 337.105469 316.644531 L 337.105469 315.804688 L 308.625 315.804688 Z M 308.625 303.1875 L 337.105469 303.1875 L 337.105469 302.347656 L 308.625 302.347656 Z M 308.625 289.734375 L 337.105469 289.734375 L 337.105469 288.894531 L 308.625 288.894531 Z M 308.625 276.277344 L 337.105469 276.277344 L 337.105469 275.4375 L 308.625 275.4375 Z M 308.625 262.824219 L 337.105469 262.824219 L 337.105469 261.984375 L 308.625 261.984375 Z M 308.625 249.367188 L 337.105469 249.367188 L 337.105469 248.527344 L 308.625 248.527344 Z M 308.625 235.914062 L 337.105469 235.914062 L 337.105469 235.074219 L 308.625 235.074219 Z M 308.625 222.457031 L 337.105469 222.457031 L 337.105469 221.617188 L 308.625 221.617188 Z M 308.625 209.003906 L 337.105469 209.003906 L 337.105469 208.164062 L 308.625 208.164062 Z M 308.625 195.546875 L 337.105469 195.546875 L 337.105469 194.707031 L 308.625 194.707031 Z M 308.625 182.09375 L 337.105469 182.09375 L 337.105469 181.253906 L 308.625 181.253906 Z M 308.625 168.636719 L 337.105469 168.636719 L 337.105469 167.796875 L 308.625 167.796875 Z M 308.625 155.183594 L 337.105469 155.183594 L 337.105469 154.339844 L 308.625 154.339844 Z M 308.625 141.726562 L 337.105469 141.726562 L 337.105469 140.886719 L 308.625 140.886719 Z M 308.625 128.273438 L 337.105469 128.273438 L 337.105469 127.429688 L 308.625 127.429688 Z M 308.625 114.816406 L 337.105469 114.816406 L 337.105469 113.976562 L 308.625 113.976562 Z M 308.625 101.363281 L 337.105469 101.363281 L 337.105469 100.519531 L 308.625 100.519531 Z M 308.625 87.90625 L 337.105469 87.90625 L 337.105469 87.066406 L 308.625 87.066406 Z M 308.625 74.453125 L 337.105469 74.453125 L 337.105469 73.609375 L 308.625 73.609375 Z M 308.625 60.996094 L 337.105469 60.996094 L 337.105469 60.15625 L 308.625 60.15625 Z M 308.625 47.542969 L 337.105469 47.542969 L 337.105469 46.699219 L 308.625 46.699219 Z M 308.625 34.085938 L 337.105469 34.085938 L 337.105469 33.246094 L 308.625 33.246094 Z M 308.625 20.632812 L 337.105469 20.632812 L 337.105469 19.789062 L 308.625 19.789062 Z M 308.625 7.175781 L 337.105469 7.175781 L 337.105469 6.335938 L 308.625 6.335938 Z M 308.625 7.175781 " fill-opacity="1" fill-rule="nonzero"/></g><g clip-path="url(#5ebbe0b4f2)"><path fill="#000000" d="M 667.207031 307.898438 L 667.207031 336.378906 L 666.363281 336.378906 L 666.363281 28.480469 L 667.207031 28.480469 Z M 653.75 28.480469 L 652.910156 28.480469 L 652.910156 336.378906 L 653.75 336.378906 Z M 640.296875 28.480469 L 639.453125 28.480469 L 639.453125 336.378906 L 640.296875 336.378906 Z M 626.839844 28.480469 L 626 28.480469 L 626 336.378906 L 626.839844 336.378906 Z M 613.386719 28.480469 L 612.542969 28.480469 L 612.542969 336.378906 L 613.386719 336.378906 Z M 599.929688 28.480469 L 599.089844 28.480469 L 599.089844 336.378906 L 599.929688 336.378906 Z M 586.476562 28.480469 L 585.632812 28.480469 L 585.632812 336.378906 L 586.476562 336.378906 Z M 573.019531 28.480469 L 572.179688 28.480469 L 572.179688 336.378906 L 573.019531 336.378906 Z M 559.566406 28.480469 L 558.722656 28.480469 L 558.722656 336.378906 L 559.566406 336.378906 Z M 546.109375 28.480469 L 545.269531 28.480469 L 545.269531 336.378906 L 546.109375 336.378906 Z M 532.65625 28.480469 L 531.8125 28.480469 L 531.8125 336.378906 L 532.65625 336.378906 Z M 519.199219 28.480469 L 518.359375 28.480469 L 518.359375 336.378906 L 519.199219 336.378906 Z M 505.746094 28.480469 L 504.902344 28.480469 L 504.902344 336.378906 L 505.746094 336.378906 Z M 492.289062 28.480469 L 491.449219 28.480469 L 491.449219 336.378906 L 492.289062 336.378906 Z M 478.832031 28.480469 L 477.992188 28.480469 L 477.992188 336.378906 L 478.832031 336.378906 Z M 465.378906 28.480469 L 464.539062 28.480469 L 464.539062 336.378906 L 465.378906 336.378906 Z M 451.921875 28.480469 L 451.082031 28.480469 L 451.082031 336.378906 L 451.921875 336.378906 Z M 438.46875 28.480469 L 437.628906 28.480469 L 437.628906 336.378906 L 438.46875 336.378906 Z M 425.011719 28.480469 L 424.171875 28.480469 L 424.171875 336.378906 L 425.011719 336.378906 Z M 411.558594 28.480469 L 410.71875 28.480469 L 410.71875 336.378906 L 411.558594 336.378906 Z M 398.101562 28.480469 L 397.261719 28.480469 L 397.261719 336.378906 L 398.101562 336.378906 Z M 384.648438 28.480469 L 383.808594 28.480469 L 383.808594 336.378906 L 384.648438 336.378906 Z M 371.191406 28.480469 L 370.351562 28.480469 L 370.351562 336.378906 L 371.191406 336.378906 Z M 357.738281 28.480469 L 356.898438 28.480469 L 356.898438 336.378906 L 357.738281 336.378906 Z M 344.28125 28.480469 L 343.441406 28.480469 L 343.441406 336.378906 L 344.28125 336.378906 Z M 667.207031 28.480469 L 667.207031 0 L 666.363281 0 L 666.363281 28.480469 Z M 653.75 28.480469 L 653.75 0 L 652.910156 0 L 652.910156 28.480469 Z M 640.296875 28.480469 L 640.296875 0 L 639.453125 0 L 639.453125 28.480469 Z M 626.839844 28.480469 L 626.839844 0 L 626 0 L 626 28.480469 Z M 613.386719 28.480469 L 613.386719 0 L 612.542969 0 L 612.542969 28.480469 Z M 599.929688 28.480469 L 599.929688 0 L 599.089844 0 L 599.089844 28.480469 Z M 586.476562 28.480469 L 586.476562 0 L 585.632812 0 L 585.632812 28.480469 Z M 573.019531 28.480469 L 573.019531 0 L 572.179688 0 L 572.179688 28.480469 Z M 559.566406 28.480469 L 559.566406 0 L 558.722656 0 L 558.722656 28.480469 Z M 546.109375 28.480469 L 546.109375 0 L 545.269531 0 L 545.269531 28.480469 Z M 532.65625 28.480469 L 532.65625 0 L 531.8125 0 L 531.8125 28.480469 Z M 519.199219 28.480469 L 519.199219 0 L 518.359375 0 L 518.359375 28.480469 Z M 505.746094 28.480469 L 505.746094 0 L 504.902344 0 L 504.902344 28.480469 Z M 492.289062 28.480469 L 492.289062 0 L 491.449219 0 L 491.449219 28.480469 Z M 478.832031 28.480469 L 478.832031 0 L 477.992188 0 L 477.992188 28.480469 Z M 465.378906 28.480469 L 465.378906 0 L 464.539062 0 L 464.539062 28.480469 Z M 451.921875 28.480469 L 451.921875 0 L 451.082031 0 L 451.082031 28.480469 Z M 438.46875 28.480469 L 438.46875 0 L 437.628906 0 L 437.628906 28.480469 Z M 425.011719 28.480469 L 425.011719 0 L 424.171875 0 L 424.171875 28.480469 Z M 411.558594 28.480469 L 411.558594 0 L 410.71875 0 L 410.71875 28.480469 Z M 398.101562 28.480469 L 398.101562 0 L 397.261719 0 L 397.261719 28.480469 Z M 384.648438 28.480469 L 384.648438 0 L 383.808594 0 L 383.808594 28.480469 Z M 371.191406 28.480469 L 371.191406 0 L 370.351562 0 L 370.351562 28.480469 Z M 357.738281 28.480469 L 357.738281 0 L 356.898438 0 L 356.898438 28.480469 Z M 344.28125 28.480469 L 344.28125 0 L 343.441406 0 L 343.441406 28.480469 Z M 645.003906 330.101562 L 645.003906 329.257812 L 337.105469 329.257812 L 337.105469 330.101562 Z M 645.003906 316.644531 L 645.003906 315.804688 L 337.105469 315.804688 L 337.105469 316.644531 Z M 645.003906 303.1875 L 645.003906 302.347656 L 337.105469 302.347656 L 337.105469 303.1875 Z M 645.003906 289.734375 L 645.003906 288.894531 L 337.105469 288.894531 L 337.105469 289.734375 Z M 645.003906 276.277344 L 645.003906 275.4375 L 337.105469 275.4375 L 337.105469 276.277344 Z M 645.003906 262.824219 L 645.003906 261.984375 L 337.105469 261.984375 L 337.105469 262.824219 Z M 645.003906 249.367188 L 645.003906 248.527344 L 337.105469 248.527344 L 337.105469 249.367188 Z M 645.003906 235.914062 L 645.003906 235.074219 L 337.105469 235.074219 L 337.105469 235.914062 Z M 645.003906 222.457031 L 645.003906 221.617188 L 337.105469 221.617188 L 337.105469 222.457031 Z M 645.003906 209.003906 L 645.003906 208.164062 L 337.105469 208.164062 L 337.105469 209.003906 Z M 645.003906 195.546875 L 645.003906 194.707031 L 337.105469 194.707031 L 337.105469 195.546875 Z M 645.003906 182.09375 L 645.003906 181.253906 L 337.105469 181.253906 L 337.105469 182.09375 Z M 645.003906 168.636719 L 645.003906 167.796875 L 337.105469 167.796875 L 337.105469 168.636719 Z M 645.003906 155.183594 L 645.003906 154.339844 L 337.105469 154.339844 L 337.105469 155.183594 Z M 645.003906 141.726562 L 645.003906 140.886719 L 337.105469 140.886719 L 337.105469 141.726562 Z M 645.003906 128.273438 L 645.003906 127.429688 L 337.105469 127.429688 L 337.105469 128.273438 Z M 645.003906 114.816406 L 645.003906 113.976562 L 337.105469 113.976562 L 337.105469 114.816406 Z M 645.003906 101.363281 L 645.003906 100.519531 L 337.105469 100.519531 L 337.105469 101.363281 Z M 645.003906 87.90625 L 645.003906 87.066406 L 337.105469 87.066406 L 337.105469 87.90625 Z M 645.003906 74.453125 L 645.003906 73.609375 L 337.105469 73.609375 L 337.105469 74.453125 Z M 645.003906 60.996094 L 645.003906 60.15625 L 337.105469 60.15625 L 337.105469 60.996094 Z M 645.003906 47.542969 L 645.003906 46.699219 L 337.105469 46.699219 L 337.105469 47.542969 Z M 645.003906 34.085938 L 645.003906 33.246094 L 337.105469 33.246094 L 337.105469 34.085938 Z M 645.003906 20.632812 L 645.003906 19.789062 L 337.105469 19.789062 L 337.105469 20.632812 Z M 645.003906 7.175781 L 645.003906 6.335938 L 337.105469 6.335938 L 337.105469 7.175781 Z M 645.003906 330.101562 L 673.484375 330.101562 L 673.484375 329.257812 L 645.003906 329.257812 Z M 645.003906 316.644531 L 673.484375 316.644531 L 673.484375 315.804688 L 645.003906 315.804688 Z M 645.003906 303.1875 L 673.484375 303.1875 L 673.484375 302.347656 L 645.003906 302.347656 Z M 645.003906 289.734375 L 673.484375 289.734375 L 673.484375 288.894531 L 645.003906 288.894531 Z M 645.003906 276.277344 L 673.484375 276.277344 L 673.484375 275.4375 L 645.003906 275.4375 Z M 645.003906 262.824219 L 673.484375 262.824219 L 673.484375 261.984375 L 645.003906 261.984375 Z M 645.003906 249.367188 L 673.484375 249.367188 L 673.484375 248.527344 L 645.003906 248.527344 Z M 645.003906 235.914062 L 673.484375 235.914062 L 673.484375 235.074219 L 645.003906 235.074219 Z M 645.003906 222.457031 L 673.484375 222.457031 L 673.484375 221.617188 L 645.003906 221.617188 Z M 645.003906 209.003906 L 673.484375 209.003906 L 673.484375 208.164062 L 645.003906 208.164062 Z M 645.003906 195.546875 L 673.484375 195.546875 L 673.484375 194.707031 L 645.003906 194.707031 Z M 645.003906 182.09375 L 673.484375 182.09375 L 673.484375 181.253906 L 645.003906 181.253906 Z M 645.003906 168.636719 L 673.484375 168.636719 L 673.484375 167.796875 L 645.003906 167.796875 Z M 645.003906 155.183594 L 673.484375 155.183594 L 673.484375 154.339844 L 645.003906 154.339844 Z M 645.003906 141.726562 L 673.484375 141.726562 L 673.484375 140.886719 L 645.003906 140.886719 Z M 645.003906 128.273438 L 673.484375 128.273438 L 673.484375 127.429688 L 645.003906 127.429688 Z M 645.003906 114.816406 L 673.484375 114.816406 L 673.484375 113.976562 L 645.003906 113.976562 Z M 645.003906 101.363281 L 673.484375 101.363281 L 673.484375 100.519531 L 645.003906 100.519531 Z M 645.003906 87.90625 L 673.484375 87.90625 L 673.484375 87.066406 L 645.003906 87.066406 Z M 645.003906 74.453125 L 673.484375 74.453125 L 673.484375 73.609375 L 645.003906 73.609375 Z M 645.003906 60.996094 L 673.484375 60.996094 L 673.484375 60.15625 L 645.003906 60.15625 Z M 645.003906 47.542969 L 673.484375 47.542969 L 673.484375 46.699219 L 645.003906 46.699219 Z M 645.003906 34.085938 L 673.484375 34.085938 L 673.484375 33.246094 L 645.003906 33.246094 Z M 645.003906 20.632812 L 673.484375 20.632812 L 673.484375 19.789062 L 645.003906 19.789062 Z M 645.003906 7.175781 L 673.484375 7.175781 L 673.484375 6.335938 L 645.003906 6.335938 Z M 645.003906 7.175781 " fill-opacity="1" fill-rule="nonzero"/></g></svg>