<svg xmlns="http://www.w3.org/2000/svg" xmlns:xlink="http://www.w3.org/1999/xlink" width="583" zoomAndPan="magnify" viewBox="0 0 438 300.000006" height="450" preserveAspectRatio="xMidYMid meet" version="1.0"><defs><g/><clipPath id="f47694f538"><path d="M 0.726562 0 L 436.523438 0 L 436.523438 290 L 0.726562 290 Z M 0.726562 0 " clip-rule="nonzero"/></clipPath><clipPath id="3dd7238b71"><rect x="0" width="256" y="0" height="67"/></clipPath></defs><path fill="#f7f7f7" d="M 38.6875 1.464844 L 398.574219 1.464844 C 418.652344 1.464844 435.085938 17.898438 435.085938 37.976562 L 435.085938 251.824219 C 435.085938 271.902344 418.652344 288.335938 398.574219 288.335938 L 38.6875 288.335938 C 18.609375 288.335938 2.175781 271.902344 2.175781 251.824219 L 2.175781 37.976562 C 2.175781 17.898438 18.609375 1.464844 38.6875 1.464844 " fill-opacity="1" fill-rule="evenodd"/><path fill="#f7f7f7" d="M 38.6875 1.464844 L 398.574219 1.464844 C 418.652344 1.464844 435.085938 17.898438 435.085938 37.976562 L 435.085938 72.75 L 2.175781 72.75 L 2.175781 37.976562 C 2.175781 17.898438 18.609375 1.464844 38.6875 1.464844 " fill-opacity="1" fill-rule="evenodd"/><g clip-path="url(#f47694f538)"><path fill="#000000" d="M 3.625 71.300781 L 433.625 71.300781 L 433.625 37.976562 C 433.625 28.332031 429.683594 19.570312 423.324219 13.214844 C 416.96875 6.859375 408.207031 2.914062 398.5625 2.914062 L 38.6875 2.914062 C 29.046875 2.914062 20.285156 6.859375 13.925781 13.214844 C 7.570312 19.570312 3.625 28.332031 3.625 37.976562 Z M 433.625 74.199219 L 3.625 74.199219 L 3.625 251.824219 C 3.625 261.464844 7.570312 270.226562 13.925781 276.585938 C 20.285156 282.941406 29.046875 286.886719 38.6875 286.886719 L 398.574219 286.886719 C 408.214844 286.886719 416.976562 282.941406 423.332031 276.585938 C 429.691406 270.226562 433.632812 261.464844 433.632812 251.824219 L 433.632812 74.199219 Z M 38.6875 0.0234375 L 398.574219 0.0234375 C 409.007812 0.0234375 418.5 4.292969 425.378906 11.171875 C 432.257812 18.050781 436.523438 27.539062 436.523438 37.976562 L 436.523438 251.824219 C 436.523438 262.257812 432.257812 271.75 425.378906 278.628906 C 418.5 285.507812 409.007812 289.777344 398.574219 289.777344 L 38.6875 289.777344 C 28.253906 289.777344 18.761719 285.507812 11.882812 278.628906 C 4.996094 271.75 0.726562 262.257812 0.726562 251.824219 L 0.726562 37.976562 C 0.726562 27.539062 4.996094 18.050781 11.875 11.171875 C 18.753906 4.292969 28.242188 0.0234375 38.6875 0.0234375 Z M 38.6875 0.0234375 " fill-opacity="1" fill-rule="nonzero"/></g><path fill="#f7f7f7" d="M 287.398438 28.109375 C 289.246094 27.9375 292.371094 28.421875 294.835938 29.496094 C 296.683594 30.332031 297.582031 32.140625 297.304688 33.699219 C 296.746094 36.761719 291.144531 36.726562 287.363281 35.546875 C 287.265625 32.347656 287.265625 30.089844 287.398438 28.109375 M 286.742188 25.597656 C 284.832031 25.667969 283.789062 26.011719 282.914062 26.359375 C 281.800781 26.8125 282.078125 28.898438 283.507812 28.621094 C 283.753906 28.585938 284.140625 28.484375 284.554688 28.378906 C 284.445312 32.824219 284.625 38.742188 284.96875 46.980469 C 284.96875 48.546875 287.433594 48.683594 287.542969 47.1875 C 287.472656 44.371094 287.300781 40.964844 287.226562 38.113281 C 287.859375 38.21875 288.34375 38.390625 288.832031 38.597656 C 292.207031 40.894531 296.0625 48.332031 301.066406 48.160156 C 302.527344 48.160156 303.085938 45.730469 301.480469 45.730469 C 298.320312 45.691406 294.316406 39.921875 292.550781 38.292969 C 295.855469 38.605469 299.679688 37.246094 300.167969 33.664062 C 300.410156 30.359375 298.113281 27.964844 295.753906 26.992188 C 292.441406 25.496094 289.523438 25.425781 286.742188 25.597656 Z M 278.429688 25.847656 C 275.40625 25.710938 265.808594 25.640625 264.3125 25.847656 C 263.863281 25.882812 263.339844 25.957031 262.78125 26.019531 C 261.289062 26.433594 261.179688 28.65625 263.097656 28.59375 L 263.691406 28.484375 C 263.691406 29.007812 263.828125 35.058594 263.933594 38.921875 C 263.933594 39.300781 264.105469 41.8125 264.070312 43.199219 C 264.070312 45.179688 264.035156 46.359375 264.449219 48.035156 C 264.484375 48.554688 265.382812 49.007812 265.566406 49.007812 C 271.75 49.007812 272.902344 48.761719 274.957031 48.628906 C 275.929688 48.554688 277.082031 48.492188 279.0625 48.492188 C 281.492188 48.492188 282.050781 46.097656 279.582031 45.882812 C 278.46875 45.882812 270.617188 46.574219 266.960938 46.402344 C 266.851562 45.601562 266.679688 38.929688 266.679688 38.480469 C 269.21875 38.480469 274.710938 38.859375 279.0625 38.066406 C 281.113281 36.984375 280.207031 35.492188 278.1875 35.636719 C 275.269531 35.988281 269.707031 36.085938 266.644531 35.878906 C 266.609375 33.96875 266.4375 29.097656 266.402344 28.367188 C 267.859375 28.261719 276.65625 28.476562 278.429688 28.476562 C 280.3125 28.316406 280.347656 25.777344 278.429688 25.847656 Z M 244.007812 28.316406 C 246.160156 28.035156 248.566406 28 251.03125 28.558594 C 254.929688 29.457031 257.046875 32.761719 257.046875 36.382812 C 257.046875 40.28125 254.371094 43.125 250.195312 44.523438 C 247.375 45.324219 246.683594 45.457031 244.289062 45.457031 C 244.566406 40.964844 244.640625 32.835938 244.007812 28.316406 Z M 239.976562 26.675781 C 238.6875 27.164062 239.625 29.703125 241.191406 29.007812 C 241.082031 29.042969 241.226562 28.972656 241.398438 28.9375 C 242.089844 34.394531 241.8125 40.273438 241.503906 46.214844 C 241.433594 46.945312 241.992188 47.953125 243.109375 47.953125 C 246.027344 48.332031 249.996094 47.746094 253.605469 45.898438 C 257.503906 43.773438 259.792969 40.820312 259.730469 36.058594 C 259.695312 33.105469 258.101562 28.683594 254.371094 26.945312 C 250.023438 25.289062 244.910156 25.046875 239.976562 26.675781 Z M 222.796875 25.910156 C 221.992188 25.253906 220.707031 25.390625 220.671875 26.542969 C 220.148438 34.5 221.265625 38.472656 220.535156 46.953125 C 220.425781 48.132812 222.589844 49.140625 223.183594 47.441406 C 223.703125 41.21875 223.046875 36.105469 223.046875 30.503906 C 225.101562 33.527344 226.632812 36.273438 227.214844 37.148438 C 229.925781 41.183594 233.230469 45.351562 235.285156 48.035156 C 236.121094 48.800781 237.4375 48.347656 237.472656 47.027344 C 237.335938 45.179688 237.398438 40.597656 237.265625 38.679688 C 237.191406 37.804688 237.09375 34.535156 236.742188 27.097656 C 236.671875 25.363281 233.960938 24.972656 234.09375 26.855469 L 234.617188 38.851562 C 234.726562 40.171875 235.03125 42.191406 235.105469 43.613281 C 233.742188 41.839844 230.339844 37.699219 228.773438 34.988281 C 227.800781 33.699219 224.785156 28.316406 222.796875 25.910156 Z M 215.152344 25.425781 C 208.6875 25.425781 211.324219 25.460938 206.523438 25.667969 C 205.625 25.738281 204.957031 28.097656 206.417969 28.097656 C 208.8125 27.929688 209.027344 27.890625 209.820312 27.890625 C 209.957031 32.726562 209.992188 35.300781 210.097656 37.625 C 210.269531 40.652344 210.34375 44.296875 210.269531 45.621094 C 209.433594 45.621094 208.082031 45.550781 207.039062 45.621094 C 206.101562 45.65625 205.921875 48.257812 206.929688 48.160156 C 211.691406 47.988281 215.203125 48.402344 217.050781 48.160156 C 218.339844 47.988281 218.507812 45.585938 217.292969 45.65625 C 216.042969 45.828125 214.230469 45.765625 212.980469 45.65625 C 212.980469 41.9375 212.945312 40.238281 212.773438 37.589844 C 212.601562 35.195312 212.601562 32.546875 212.601562 27.710938 C 213.746094 27.710938 214.726562 27.359375 215.175781 28.027344 C 215.941406 29.144531 217.472656 28.792969 217.472656 27.371094 C 217.445312 26.054688 216.402344 25.425781 215.152344 25.425781 Z M 185.625 26.710938 C 185.25 25.179688 183.4375 25.53125 182.917969 27.089844 C 180.546875 32.898438 180.375 40.542969 177.628906 46.496094 C 177.074219 48.476562 179.40625 48.925781 180.167969 47.257812 C 181.773438 43.882812 184.03125 32.933594 184.339844 31.230469 C 184.726562 32.519531 185.273438 34.464844 185.941406 37.390625 C 186.570312 40.246094 187.789062 43.371094 188.894531 46.1875 C 189.550781 47.789062 190.316406 48.933594 191.433594 47.089844 C 192.550781 45.070312 193.585938 42.570312 194.628906 39.679688 C 194.945312 38.667969 195.433594 36.652344 197 31.925781 C 197.351562 33.90625 197.765625 36.894531 198.113281 38.113281 C 198.710938 40.335938 200.339844 45.9375 201.347656 47.84375 C 201.90625 49.230469 204.507812 48.296875 203.886719 46.484375 C 202.949219 44.746094 201.210938 39.667969 200.652344 37.410156 C 199.402344 32.160156 199.574219 30.386719 198.808594 26.765625 C 198.636719 25.515625 196.828125 25.480469 196.234375 26.59375 C 195.1875 28.820312 194.144531 31.710938 192.683594 36.816406 C 192.089844 38.832031 191.324219 40.8125 190.425781 43 C 189.589844 40.742188 188.617188 38.238281 188.410156 36.597656 C 187.996094 33.394531 186.183594 28.523438 185.625 26.710938 Z M 173.28125 25.847656 C 170.257812 25.710938 160.65625 25.640625 159.164062 25.847656 C 158.714844 25.882812 158.191406 25.957031 157.632812 26.019531 C 156.136719 26.433594 156.03125 28.65625 157.949219 28.59375 L 158.542969 28.484375 C 158.542969 29.007812 158.675781 35.058594 158.785156 38.921875 C 158.785156 39.300781 158.957031 41.8125 158.921875 43.199219 C 158.921875 45.179688 158.882812 46.359375 159.296875 48.035156 C 159.335938 48.554688 160.234375 49.007812 160.414062 49.007812 C 166.601562 49.007812 167.753906 48.761719 169.804688 48.628906 C 170.777344 48.554688 171.929688 48.492188 173.910156 48.492188 C 176.34375 48.492188 176.902344 46.097656 174.433594 45.882812 C 173.316406 45.882812 165.464844 46.574219 161.808594 46.402344 C 161.703125 45.601562 161.53125 38.929688 161.53125 38.480469 C 164.070312 38.480469 169.5625 38.859375 173.910156 38.066406 C 175.964844 36.984375 175.054688 35.492188 173.039062 35.636719 C 170.121094 35.988281 164.558594 36.085938 161.496094 35.878906 C 161.460938 33.96875 161.289062 29.097656 161.253906 28.367188 C 162.710938 28.261719 171.507812 28.476562 173.28125 28.476562 C 175.164062 28.316406 175.199219 25.777344 173.28125 25.847656 Z M 139.769531 28.109375 C 141.613281 27.9375 144.738281 28.421875 147.207031 29.496094 C 149.050781 30.332031 149.953125 32.140625 149.671875 33.699219 C 149.113281 36.761719 143.515625 36.726562 139.734375 35.546875 C 139.625 32.347656 139.625 30.089844 139.769531 28.109375 Z M 139.101562 25.597656 C 137.195312 25.667969 136.148438 26.011719 135.277344 26.359375 C 134.160156 26.8125 134.4375 28.898438 135.871094 28.621094 C 136.113281 28.585938 136.5 28.484375 136.914062 28.378906 C 136.804688 32.824219 136.984375 38.742188 137.328125 46.980469 C 137.328125 48.546875 139.796875 48.683594 139.902344 47.1875 C 139.832031 44.371094 139.660156 40.964844 139.589844 38.113281 C 140.21875 38.21875 140.703125 38.390625 141.191406 38.597656 C 144.566406 40.894531 148.421875 48.332031 153.425781 48.160156 C 154.886719 48.160156 155.445312 45.730469 153.84375 45.730469 C 150.679688 45.691406 146.675781 39.921875 144.910156 38.292969 C 148.214844 38.605469 152.042969 37.246094 152.527344 33.664062 C 152.769531 30.359375 150.472656 27.964844 148.117188 26.992188 C 144.8125 25.496094 141.882812 25.425781 139.101562 25.597656 Z M 139.101562 25.597656 " fill-opacity="1" fill-rule="nonzero"/><g transform="matrix(1, 0, 0, 1, 91, 6)"><g clip-path="url(#3dd7238b71)"><g fill="#000000" fill-opacity="1"><g transform="translate(1.329226, 49.864101)"><g><path d="M 3.859375 0 L 3.859375 -35.046875 L 18.875 -35.046875 C 22.28125 -35.046875 25.03125 -34.117188 27.125 -32.265625 C 29.226562 -30.410156 30.28125 -27.984375 30.28125 -24.984375 C 30.28125 -22.679688 29.601562 -20.691406 28.25 -19.015625 C 26.90625 -17.347656 25.097656 -16.195312 22.828125 -15.5625 L 30.6875 0 L 26.4375 0 L 18.921875 -15.0625 L 7.703125 -15.0625 L 7.703125 0 Z M 18.625 -31.59375 L 7.703125 -31.59375 L 7.703125 -18.328125 L 18.625 -18.328125 C 20.957031 -18.328125 22.84375 -18.9375 24.28125 -20.15625 C 25.71875 -21.375 26.4375 -22.984375 26.4375 -24.984375 C 26.4375 -26.984375 25.71875 -28.582031 24.28125 -29.78125 C 22.84375 -30.988281 20.957031 -31.59375 18.625 -31.59375 Z M 18.625 -31.59375 "/></g></g></g><g fill="#000000" fill-opacity="1"><g transform="translate(33.618464, 49.864101)"><g><path d="M 3.859375 0 L 3.859375 -35.046875 L 28.9375 -35.046875 L 28.9375 -31.640625 L 7.703125 -31.640625 L 7.703125 -19.375 L 21.578125 -19.375 L 21.578125 -16.015625 L 7.703125 -16.015625 L 7.703125 -3.40625 L 29.140625 -3.40625 L 29.140625 0 Z M 3.859375 0 "/></g></g></g><g fill="#000000" fill-opacity="1"><g transform="translate(64.455938, 49.864101)"><g><path d="M 21.171875 -2.5 L 7.453125 -30.59375 L 7.453125 0 L 3.859375 0 L 3.859375 -35.046875 L 9.265625 -35.046875 L 21.21875 -10.15625 L 33.140625 -35.046875 L 38.546875 -35.046875 L 38.546875 0 L 34.890625 0 L 34.890625 -30.640625 Z M 21.171875 -2.5 "/></g></g></g><g fill="#000000" fill-opacity="1"><g transform="translate(106.857471, 49.864101)"><g><path d="M 3.859375 0 L 3.859375 -35.046875 L 7.703125 -35.046875 L 7.703125 0 Z M 3.859375 0 "/></g></g></g><g fill="#000000" fill-opacity="1"><g transform="translate(118.421531, 49.864101)"><g><path d="M 3.859375 -35.046875 L 7.703125 -35.046875 L 28.78125 -6.609375 L 28.78125 -35.046875 L 32.4375 -35.046875 L 32.4375 0 L 29.03125 0 L 7.515625 -29.1875 L 7.515625 0 L 3.859375 0 Z M 3.859375 -35.046875 "/></g></g></g><g fill="#000000" fill-opacity="1"><g transform="translate(154.715644, 49.864101)"><g><path d="M 3.859375 0 L 3.859375 -35.046875 L 15.421875 -35.046875 C 18.054688 -35.046875 20.507812 -34.601562 22.78125 -33.71875 C 25.050781 -32.832031 27.003906 -31.617188 28.640625 -30.078125 C 30.273438 -28.546875 31.550781 -26.703125 32.46875 -24.546875 C 33.382812 -22.398438 33.84375 -20.054688 33.84375 -17.515625 C 33.84375 -14.984375 33.382812 -12.640625 32.46875 -10.484375 C 31.550781 -8.335938 30.28125 -6.492188 28.65625 -4.953125 C 27.039062 -3.421875 25.097656 -2.210938 22.828125 -1.328125 C 20.554688 -0.441406 18.085938 0 15.421875 0 Z M 15.625 -31.546875 L 7.703125 -31.546875 L 7.703125 -3.5 L 15.625 -3.5 C 17.625 -3.5 19.507812 -3.859375 21.28125 -4.578125 C 23.050781 -5.296875 24.566406 -6.28125 25.828125 -7.53125 C 27.097656 -8.78125 28.097656 -10.265625 28.828125 -11.984375 C 29.566406 -13.703125 29.9375 -15.546875 29.9375 -17.515625 C 29.9375 -19.484375 29.566406 -21.328125 28.828125 -23.046875 C 28.097656 -24.765625 27.097656 -26.25 25.828125 -27.5 C 24.566406 -28.757812 23.050781 -29.75 21.28125 -30.46875 C 19.507812 -31.1875 17.625 -31.546875 15.625 -31.546875 Z M 15.625 -31.546875 "/></g></g></g><g fill="#000000" fill-opacity="1"><g transform="translate(190.759464, 49.864101)"><g><path d="M 3.859375 0 L 3.859375 -35.046875 L 28.9375 -35.046875 L 28.9375 -31.640625 L 7.703125 -31.640625 L 7.703125 -19.375 L 21.578125 -19.375 L 21.578125 -16.015625 L 7.703125 -16.015625 L 7.703125 -3.40625 L 29.140625 -3.40625 L 29.140625 0 Z M 3.859375 0 "/></g></g></g><g fill="#000000" fill-opacity="1"><g transform="translate(221.596938, 49.864101)"><g><path d="M 3.859375 0 L 3.859375 -35.046875 L 18.875 -35.046875 C 22.28125 -35.046875 25.03125 -34.117188 27.125 -32.265625 C 29.226562 -30.410156 30.28125 -27.984375 30.28125 -24.984375 C 30.28125 -22.679688 29.601562 -20.691406 28.25 -19.015625 C 26.90625 -17.347656 25.097656 -16.195312 22.828125 -15.5625 L 30.6875 0 L 26.4375 0 L 18.921875 -15.0625 L 7.703125 -15.0625 L 7.703125 0 Z M 18.625 -31.59375 L 7.703125 -31.59375 L 7.703125 -18.328125 L 18.625 -18.328125 C 20.957031 -18.328125 22.84375 -18.9375 24.28125 -20.15625 C 25.71875 -21.375 26.4375 -22.984375 26.4375 -24.984375 C 26.4375 -26.984375 25.71875 -28.582031 24.28125 -29.78125 C 22.84375 -30.988281 20.957031 -31.59375 18.625 -31.59375 Z M 18.625 -31.59375 "/></g></g></g></g></g></svg>