<svg xmlns="http://www.w3.org/2000/svg" xmlns:xlink="http://www.w3.org/1999/xlink" width="583" zoomAndPan="magnify" viewBox="0 0 438 300.000006" height="450" preserveAspectRatio="xMidYMid meet" version="1.0"><defs><g/><clipPath id="c56c9f123c"><path d="M 93 157.789062 L 159 157.789062 L 159 284.117188 L 93 284.117188 Z M 93 157.789062 " clip-rule="nonzero"/></clipPath><clipPath id="89eefb8b73"><path d="M 371 157.789062 L 436.523438 157.789062 L 436.523438 284.117188 L 371 284.117188 Z M 371 157.789062 " clip-rule="nonzero"/></clipPath><clipPath id="f40a400df4"><path d="M 279 157.789062 L 344 157.789062 L 344 284.117188 L 279 284.117188 Z M 279 157.789062 " clip-rule="nonzero"/></clipPath><clipPath id="7e887c7f5c"><path d="M 186 157.789062 L 251 157.789062 L 251 284.117188 L 186 284.117188 Z M 186 157.789062 " clip-rule="nonzero"/></clipPath><clipPath id="765cae1551"><path d="M 0.726562 157.789062 L 66 157.789062 L 66 284.117188 L 0.726562 284.117188 Z M 0.726562 157.789062 " clip-rule="nonzero"/></clipPath></defs><path fill="#ffcc11" d="M 148.558594 275.871094 L 103.199219 275.871094 C 101.648438 275.871094 100.390625 274.375 100.390625 272.527344 L 100.390625 262.1875 C 100.390625 260.335938 101.648438 258.839844 103.199219 258.839844 L 148.558594 258.839844 C 150.109375 258.839844 151.367188 260.335938 151.367188 262.1875 L 151.367188 272.527344 C 151.367188 274.375 150.109375 275.871094 148.558594 275.871094 Z M 148.558594 275.871094 " fill-opacity="1" fill-rule="nonzero"/><path fill="#ffcc11" d="M 148.558594 254.964844 L 103.199219 254.964844 C 101.648438 254.964844 100.390625 253.464844 100.390625 251.617188 L 100.390625 241.277344 C 100.390625 239.429688 101.648438 237.929688 103.199219 237.929688 L 148.558594 237.929688 C 150.109375 237.929688 151.367188 239.429688 151.367188 241.277344 L 151.367188 251.617188 C 151.367188 253.464844 150.109375 254.964844 148.558594 254.964844 Z M 148.558594 254.964844 " fill-opacity="1" fill-rule="nonzero"/><g clip-path="url(#c56c9f123c)"><path fill="#ffcc11" d="M 145.050781 166.890625 L 138.804688 166.890625 C 138.84375 166.710938 138.863281 166.519531 138.863281 166.328125 L 138.863281 160.636719 C 138.863281 159.085938 137.605469 157.828125 136.050781 157.828125 L 115.703125 157.828125 C 114.152344 157.828125 112.894531 159.085938 112.894531 160.636719 L 112.894531 166.328125 C 112.894531 166.519531 112.914062 166.710938 112.949219 166.890625 L 106.707031 166.890625 C 99.457031 166.890625 93.558594 172.332031 93.558594 179.019531 L 93.558594 272.054688 C 93.558594 278.742188 99.457031 284.183594 106.707031 284.183594 L 145.050781 284.183594 C 152.300781 284.183594 158.199219 278.742188 158.199219 272.054688 L 158.199219 179.019531 C 158.199219 172.332031 152.300781 166.890625 145.050781 166.890625 Z M 155.390625 272.054688 C 155.390625 277.195312 150.75 281.375 145.050781 281.375 L 106.707031 281.375 C 101.007812 281.375 96.367188 277.195312 96.367188 272.054688 L 96.367188 179.019531 C 96.367188 173.882812 101.007812 169.699219 106.707031 169.699219 L 145.050781 169.699219 C 150.75 169.699219 155.390625 173.882812 155.390625 179.019531 Z M 155.390625 272.054688 " fill-opacity="1" fill-rule="nonzero"/></g><path fill="#51be4b" d="M 426.800781 275.871094 L 381.441406 275.871094 C 379.890625 275.871094 378.632812 274.375 378.632812 272.527344 L 378.632812 262.1875 C 378.632812 260.335938 379.890625 258.839844 381.441406 258.839844 L 426.800781 258.839844 C 428.351562 258.839844 429.609375 260.335938 429.609375 262.1875 L 429.609375 272.527344 C 429.609375 274.375 428.351562 275.871094 426.800781 275.871094 Z M 426.800781 275.871094 " fill-opacity="1" fill-rule="nonzero"/><path fill="#51be4b" d="M 426.800781 254.964844 L 381.441406 254.964844 C 379.890625 254.964844 378.632812 253.464844 378.632812 251.617188 L 378.632812 241.277344 C 378.632812 239.429688 379.890625 237.929688 381.441406 237.929688 L 426.800781 237.929688 C 428.351562 237.929688 429.609375 239.429688 429.609375 241.277344 L 429.609375 251.617188 C 429.609375 253.464844 428.351562 254.964844 426.800781 254.964844 Z M 426.800781 254.964844 " fill-opacity="1" fill-rule="nonzero"/><path fill="#51be4b" d="M 426.800781 234.054688 L 381.441406 234.054688 C 379.890625 234.054688 378.632812 232.554688 378.632812 230.707031 L 378.632812 220.367188 C 378.632812 218.519531 379.890625 217.019531 381.441406 217.019531 L 426.800781 217.019531 C 428.351562 217.019531 429.609375 218.519531 429.609375 220.367188 L 429.609375 230.707031 C 429.609375 232.554688 428.351562 234.054688 426.800781 234.054688 Z M 426.800781 234.054688 " fill-opacity="1" fill-rule="nonzero"/><path fill="#51be4b" d="M 426.800781 213.144531 L 381.441406 213.144531 C 379.890625 213.144531 378.632812 211.648438 378.632812 209.796875 L 378.632812 199.460938 C 378.632812 197.609375 379.890625 196.113281 381.441406 196.113281 L 426.800781 196.113281 C 428.351562 196.113281 429.609375 197.609375 429.609375 199.460938 L 429.609375 209.796875 C 429.609375 211.648438 428.351562 213.144531 426.800781 213.144531 Z M 426.800781 213.144531 " fill-opacity="1" fill-rule="nonzero"/><path fill="#51be4b" d="M 426.800781 192.238281 L 381.441406 192.238281 C 379.890625 192.238281 378.632812 190.738281 378.632812 188.890625 L 378.632812 178.550781 C 378.632812 176.703125 379.890625 175.203125 381.441406 175.203125 L 426.800781 175.203125 C 428.351562 175.203125 429.609375 176.703125 429.609375 178.550781 L 429.609375 188.890625 C 429.609375 190.738281 428.351562 192.238281 426.800781 192.238281 Z M 426.800781 192.238281 " fill-opacity="1" fill-rule="nonzero"/><g clip-path="url(#89eefb8b73)"><path fill="#51be4b" d="M 423.292969 166.890625 L 417.050781 166.890625 C 417.085938 166.710938 417.105469 166.519531 417.105469 166.328125 L 417.105469 160.636719 C 417.105469 159.085938 415.847656 157.828125 414.296875 157.828125 L 393.949219 157.828125 C 392.394531 157.828125 391.136719 159.085938 391.136719 160.636719 L 391.136719 166.328125 C 391.136719 166.519531 391.15625 166.710938 391.195312 166.890625 L 384.949219 166.890625 C 377.699219 166.890625 371.800781 172.332031 371.800781 179.019531 L 371.800781 272.054688 C 371.800781 278.742188 377.699219 284.183594 384.949219 284.183594 L 423.292969 284.183594 C 430.542969 284.183594 436.441406 278.742188 436.441406 272.054688 L 436.441406 179.019531 C 436.441406 172.332031 430.542969 166.890625 423.292969 166.890625 Z M 433.632812 272.054688 C 433.632812 277.195312 428.992188 281.375 423.292969 281.375 L 384.949219 281.375 C 379.25 281.375 374.609375 277.195312 374.609375 272.054688 L 374.609375 179.019531 C 374.609375 173.882812 379.25 169.699219 384.949219 169.699219 L 423.292969 169.699219 C 428.992188 169.699219 433.632812 173.882812 433.632812 179.019531 Z M 433.632812 272.054688 " fill-opacity="1" fill-rule="nonzero"/></g><path fill="#88cb46" d="M 334.054688 275.871094 L 288.695312 275.871094 C 287.140625 275.871094 285.882812 274.375 285.882812 272.527344 L 285.882812 262.1875 C 285.882812 260.335938 287.140625 258.839844 288.695312 258.839844 L 334.054688 258.839844 C 335.605469 258.839844 336.863281 260.335938 336.863281 262.1875 L 336.863281 272.527344 C 336.863281 274.375 335.605469 275.871094 334.054688 275.871094 Z M 334.054688 275.871094 " fill-opacity="1" fill-rule="nonzero"/><path fill="#88cb46" d="M 334.054688 254.964844 L 288.695312 254.964844 C 287.140625 254.964844 285.882812 253.464844 285.882812 251.617188 L 285.882812 241.277344 C 285.882812 239.429688 287.140625 237.929688 288.695312 237.929688 L 334.054688 237.929688 C 335.605469 237.929688 336.863281 239.429688 336.863281 241.277344 L 336.863281 251.617188 C 336.863281 253.464844 335.605469 254.964844 334.054688 254.964844 Z M 334.054688 254.964844 " fill-opacity="1" fill-rule="nonzero"/><path fill="#88cb46" d="M 334.054688 234.054688 L 288.695312 234.054688 C 287.140625 234.054688 285.882812 232.554688 285.882812 230.707031 L 285.882812 220.367188 C 285.882812 218.519531 287.140625 217.019531 288.695312 217.019531 L 334.054688 217.019531 C 335.605469 217.019531 336.863281 218.519531 336.863281 220.367188 L 336.863281 230.707031 C 336.863281 232.554688 335.605469 234.054688 334.054688 234.054688 Z M 334.054688 234.054688 " fill-opacity="1" fill-rule="nonzero"/><path fill="#88cb46" d="M 334.054688 213.144531 L 288.695312 213.144531 C 287.140625 213.144531 285.882812 211.648438 285.882812 209.796875 L 285.882812 199.460938 C 285.882812 197.609375 287.140625 196.113281 288.695312 196.113281 L 334.054688 196.113281 C 335.605469 196.113281 336.863281 197.609375 336.863281 199.460938 L 336.863281 209.796875 C 336.863281 211.648438 335.605469 213.144531 334.054688 213.144531 Z M 334.054688 213.144531 " fill-opacity="1" fill-rule="nonzero"/><g clip-path="url(#f40a400df4)"><path fill="#88cb46" d="M 330.542969 166.890625 L 324.300781 166.890625 C 324.339844 166.710938 324.359375 166.519531 324.359375 166.328125 L 324.359375 160.636719 C 324.359375 159.085938 323.101562 157.828125 321.546875 157.828125 L 301.199219 157.828125 C 299.648438 157.828125 298.390625 159.085938 298.390625 160.636719 L 298.390625 166.328125 C 298.390625 166.519531 298.410156 166.710938 298.445312 166.890625 L 292.203125 166.890625 C 284.953125 166.890625 279.050781 172.332031 279.050781 179.019531 L 279.050781 272.054688 C 279.050781 278.742188 284.953125 284.183594 292.203125 284.183594 L 330.542969 284.183594 C 337.796875 284.183594 343.695312 278.742188 343.695312 272.054688 L 343.695312 179.019531 C 343.695312 172.332031 337.796875 166.890625 330.542969 166.890625 Z M 340.882812 272.054688 C 340.882812 277.195312 336.246094 281.375 330.542969 281.375 L 292.203125 281.375 C 286.5 281.375 281.863281 277.195312 281.863281 272.054688 L 281.863281 179.019531 C 281.863281 173.882812 286.5 169.699219 292.203125 169.699219 L 330.542969 169.699219 C 336.246094 169.699219 340.882812 173.882812 340.882812 179.019531 Z M 340.882812 272.054688 " fill-opacity="1" fill-rule="nonzero"/></g><path fill="#fdf31c" d="M 241.304688 275.871094 L 195.945312 275.871094 C 194.394531 275.871094 193.136719 274.375 193.136719 272.527344 L 193.136719 262.1875 C 193.136719 260.335938 194.394531 258.839844 195.945312 258.839844 L 241.304688 258.839844 C 242.859375 258.839844 244.117188 260.335938 244.117188 262.1875 L 244.117188 272.527344 C 244.117188 274.375 242.859375 275.871094 241.304688 275.871094 Z M 241.304688 275.871094 " fill-opacity="1" fill-rule="nonzero"/><path fill="#fdf31c" d="M 241.304688 254.964844 L 195.945312 254.964844 C 194.394531 254.964844 193.136719 253.464844 193.136719 251.617188 L 193.136719 241.277344 C 193.136719 239.429688 194.394531 237.929688 195.945312 237.929688 L 241.304688 237.929688 C 242.859375 237.929688 244.117188 239.429688 244.117188 241.277344 L 244.117188 251.617188 C 244.117188 253.464844 242.859375 254.964844 241.304688 254.964844 Z M 241.304688 254.964844 " fill-opacity="1" fill-rule="nonzero"/><path fill="#fdf31c" d="M 241.304688 234.054688 L 195.945312 234.054688 C 194.394531 234.054688 193.136719 232.554688 193.136719 230.707031 L 193.136719 220.367188 C 193.136719 218.519531 194.394531 217.019531 195.945312 217.019531 L 241.304688 217.019531 C 242.859375 217.019531 244.117188 218.519531 244.117188 220.367188 L 244.117188 230.707031 C 244.117188 232.554688 242.859375 234.054688 241.304688 234.054688 Z M 241.304688 234.054688 " fill-opacity="1" fill-rule="nonzero"/><g clip-path="url(#7e887c7f5c)"><path fill="#fdf31c" d="M 237.796875 166.890625 L 231.554688 166.890625 C 231.589844 166.710938 231.609375 166.519531 231.609375 166.328125 L 231.609375 160.636719 C 231.609375 159.085938 230.351562 157.828125 228.800781 157.828125 L 208.453125 157.828125 C 206.898438 157.828125 205.640625 159.085938 205.640625 160.636719 L 205.640625 166.328125 C 205.640625 166.519531 205.660156 166.710938 205.699219 166.890625 L 199.457031 166.890625 C 192.203125 166.890625 186.304688 172.332031 186.304688 179.019531 L 186.304688 272.054688 C 186.304688 278.742188 192.203125 284.183594 199.457031 284.183594 L 237.796875 284.183594 C 245.046875 284.183594 250.949219 278.742188 250.949219 272.054688 L 250.949219 179.019531 C 250.949219 172.332031 245.046875 166.890625 237.796875 166.890625 Z M 248.136719 272.054688 C 248.136719 277.195312 243.5 281.375 237.796875 281.375 L 199.457031 281.375 C 193.753906 281.375 189.117188 277.195312 189.117188 272.054688 L 189.117188 179.019531 C 189.117188 173.882812 193.753906 169.699219 199.457031 169.699219 L 237.796875 169.699219 C 243.5 169.699219 248.136719 173.882812 248.136719 179.019531 Z M 248.136719 272.054688 " fill-opacity="1" fill-rule="nonzero"/></g><path fill="#de5e20" d="M 55.808594 275.871094 L 10.453125 275.871094 C 8.898438 275.871094 7.640625 274.375 7.640625 272.527344 L 7.640625 262.1875 C 7.640625 260.335938 8.898438 258.839844 10.453125 258.839844 L 55.808594 258.839844 C 57.363281 258.839844 58.621094 260.335938 58.621094 262.1875 L 58.621094 272.527344 C 58.621094 274.375 57.363281 275.871094 55.808594 275.871094 Z M 55.808594 275.871094 " fill-opacity="1" fill-rule="nonzero"/><g clip-path="url(#765cae1551)"><path fill="#de5e20" d="M 52.300781 166.890625 L 46.058594 166.890625 C 46.09375 166.710938 46.113281 166.519531 46.113281 166.328125 L 46.113281 160.636719 C 46.113281 159.085938 44.855469 157.828125 43.304688 157.828125 L 22.957031 157.828125 C 21.40625 157.828125 20.148438 159.085938 20.148438 160.636719 L 20.148438 166.328125 C 20.148438 166.519531 20.167969 166.710938 20.203125 166.890625 L 13.960938 166.890625 C 6.707031 166.890625 0.808594 172.332031 0.808594 179.019531 L 0.808594 272.054688 C 0.808594 278.742188 6.707031 284.183594 13.960938 284.183594 L 52.300781 284.183594 C 59.554688 284.183594 65.453125 278.742188 65.453125 272.054688 L 65.453125 179.019531 C 65.453125 172.332031 59.554688 166.890625 52.300781 166.890625 Z M 62.640625 272.054688 C 62.640625 277.195312 58.003906 281.375 52.300781 281.375 L 13.960938 281.375 C 8.257812 281.375 3.621094 277.195312 3.621094 272.054688 L 3.621094 179.019531 C 3.621094 173.882812 8.257812 169.699219 13.960938 169.699219 L 52.300781 169.699219 C 58.003906 169.699219 62.640625 173.882812 62.640625 179.019531 Z M 62.640625 272.054688 " fill-opacity="1" fill-rule="nonzero"/></g><g fill="#000000" fill-opacity="1"><g transform="translate(107.796453, 51.332893)"><g><path d="M 4.234375 0 L 4.234375 -38.515625 L 31.796875 -38.515625 L 31.796875 -34.765625 L 8.46875 -34.765625 L 8.46875 -21.296875 L 23.71875 -21.296875 L 23.71875 -17.609375 L 8.46875 -17.609375 L 8.46875 -3.734375 L 32.015625 -3.734375 L 32.015625 0 Z M 4.234375 0 "/></g></g></g><g fill="#000000" fill-opacity="1"><g transform="translate(141.683857, 51.332893)"><g><path d="M 4.234375 -38.515625 L 8.46875 -38.515625 L 31.640625 -7.265625 L 31.640625 -38.515625 L 35.65625 -38.515625 L 35.65625 0 L 31.90625 0 L 8.25 -32.078125 L 8.25 0 L 4.234375 0 Z M 4.234375 -38.515625 "/></g></g></g><g fill="#000000" fill-opacity="1"><g transform="translate(181.567569, 51.332893)"><g><path d="M 4.234375 0 L 4.234375 -38.515625 L 31.796875 -38.515625 L 31.796875 -34.765625 L 8.46875 -34.765625 L 8.46875 -21.296875 L 23.71875 -21.296875 L 23.71875 -17.609375 L 8.46875 -17.609375 L 8.46875 -3.734375 L 32.015625 -3.734375 L 32.015625 0 Z M 4.234375 0 "/></g></g></g><g fill="#000000" fill-opacity="1"><g transform="translate(215.454973, 51.332893)"><g><path d="M 4.234375 0 L 4.234375 -38.515625 L 20.734375 -38.515625 C 24.484375 -38.515625 27.507812 -37.492188 29.8125 -35.453125 C 32.125 -33.421875 33.28125 -30.753906 33.28125 -27.453125 C 33.28125 -24.921875 32.535156 -22.738281 31.046875 -20.90625 C 29.566406 -19.070312 27.582031 -17.804688 25.09375 -17.109375 L 33.71875 0 L 29.046875 0 L 20.796875 -16.5625 L 8.46875 -16.5625 L 8.46875 0 Z M 20.46875 -34.71875 L 8.46875 -34.71875 L 8.46875 -20.140625 L 20.46875 -20.140625 C 23.03125 -20.140625 25.097656 -20.804688 26.671875 -22.140625 C 28.253906 -23.484375 29.046875 -25.253906 29.046875 -27.453125 C 29.046875 -29.648438 28.253906 -31.410156 26.671875 -32.734375 C 25.097656 -34.054688 23.03125 -34.71875 20.46875 -34.71875 Z M 20.46875 -34.71875 "/></g></g></g><g fill="#000000" fill-opacity="1"><g transform="translate(250.937721, 51.332893)"><g><path d="M 41.046875 -18.4375 C 41.046875 -15.757812 40.566406 -13.253906 39.609375 -10.921875 C 38.660156 -8.585938 37.34375 -6.578125 35.65625 -4.890625 C 33.96875 -3.203125 31.984375 -1.863281 29.703125 -0.875 C 27.429688 0.113281 24.976562 0.609375 22.34375 0.609375 C 19.582031 0.609375 16.984375 0.0859375 14.546875 -0.953125 C 12.109375 -2.003906 10 -3.421875 8.21875 -5.203125 C 6.445312 -6.984375 5.035156 -9.082031 3.984375 -11.5 C 2.941406 -13.914062 2.421875 -16.5 2.421875 -19.25 C 2.421875 -22 2.929688 -24.582031 3.953125 -27 C 4.984375 -29.425781 6.390625 -31.53125 8.171875 -33.3125 C 9.953125 -35.09375 12.0625 -36.503906 14.5 -37.546875 C 16.9375 -38.585938 19.53125 -39.109375 22.28125 -39.109375 C 25.25 -39.109375 28.050781 -38.550781 30.6875 -37.4375 C 33.332031 -36.320312 35.59375 -34.773438 37.46875 -32.796875 L 34.609375 -29.875 C 33.140625 -31.5625 31.300781 -32.867188 29.09375 -33.796875 C 26.894531 -34.734375 24.625 -35.203125 22.28125 -35.203125 C 20.082031 -35.203125 18.03125 -34.789062 16.125 -33.96875 C 14.21875 -33.144531 12.570312 -32.023438 11.1875 -30.609375 C 9.8125 -29.203125 8.722656 -27.515625 7.921875 -25.546875 C 7.117188 -23.585938 6.71875 -21.488281 6.71875 -19.25 C 6.71875 -17.019531 7.117188 -14.921875 7.921875 -12.953125 C 8.722656 -10.992188 9.8125 -9.304688 11.1875 -7.890625 C 12.570312 -6.484375 14.21875 -5.363281 16.125 -4.53125 C 18.03125 -3.707031 20.082031 -3.296875 22.28125 -3.296875 C 24.226562 -3.296875 26.050781 -3.625 27.75 -4.28125 C 29.457031 -4.945312 30.941406 -5.859375 32.203125 -7.015625 C 33.472656 -8.171875 34.507812 -9.554688 35.3125 -11.171875 C 36.125 -12.785156 36.601562 -14.523438 36.75 -16.390625 L 22.9375 -16.390625 L 22.9375 -20.140625 L 41.046875 -20.140625 Z M 41.046875 -18.4375 "/></g></g></g><g fill="#000000" fill-opacity="1"><g transform="translate(294.287191, 51.332893)"><g><path d="M 15.453125 0 L 15.453125 -15.671875 L 0.171875 -38.515625 L 5.109375 -38.515625 L 17.71875 -19.421875 L 30.265625 -38.515625 L 35.046875 -38.515625 L 19.703125 -15.515625 L 19.703125 0 Z M 15.453125 0 "/></g></g></g><g fill="#000000" fill-opacity="1"><g transform="translate(93.710594, 100.668441)"><g><path d="M 0.9375 -34.71875 L 0.9375 -38.515625 L 33.015625 -38.515625 L 33.015625 -34.71875 L 19.09375 -34.71875 L 19.09375 0 L 14.859375 0 L 14.859375 -34.71875 Z M 0.9375 -34.71875 "/></g></g></g><g fill="#000000" fill-opacity="1"><g transform="translate(127.653009, 100.668441)"><g><path d="M 4.234375 0 L 4.234375 -38.515625 L 20.734375 -38.515625 C 24.484375 -38.515625 27.507812 -37.492188 29.8125 -35.453125 C 32.125 -33.421875 33.28125 -30.753906 33.28125 -27.453125 C 33.28125 -24.921875 32.535156 -22.738281 31.046875 -20.90625 C 29.566406 -19.070312 27.582031 -17.804688 25.09375 -17.109375 L 33.71875 0 L 29.046875 0 L 20.796875 -16.5625 L 8.46875 -16.5625 L 8.46875 0 Z M 20.46875 -34.71875 L 8.46875 -34.71875 L 8.46875 -20.140625 L 20.46875 -20.140625 C 23.03125 -20.140625 25.097656 -20.804688 26.671875 -22.140625 C 28.253906 -23.484375 29.046875 -25.253906 29.046875 -27.453125 C 29.046875 -29.648438 28.253906 -31.410156 26.671875 -32.734375 C 25.097656 -34.054688 23.03125 -34.71875 20.46875 -34.71875 Z M 20.46875 -34.71875 "/></g></g></g><g fill="#000000" fill-opacity="1"><g transform="translate(163.135757, 100.668441)"><g><path d="M 0.21875 0 L 16.234375 -38.515625 L 21.34375 -38.515625 L 37.140625 0 L 32.515625 0 L 27.671875 -12.109375 L 9.515625 -12.109375 L 4.625 0 Z M 11 -15.734375 L 26.1875 -15.734375 L 18.65625 -34.546875 Z M 11 -15.734375 "/></g></g></g><g fill="#000000" fill-opacity="1"><g transform="translate(200.488918, 100.668441)"><g><path d="M 22.5 -3.296875 C 24.882812 -3.296875 27.15625 -3.765625 29.3125 -4.703125 C 31.476562 -5.640625 33.296875 -6.929688 34.765625 -8.578125 L 37.515625 -5.71875 C 35.609375 -3.738281 33.332031 -2.1875 30.6875 -1.0625 C 28.050781 0.0507812 25.285156 0.609375 22.390625 0.609375 C 19.597656 0.609375 16.984375 0.0976562 14.546875 -0.921875 C 12.109375 -1.953125 9.988281 -3.359375 8.1875 -5.140625 C 6.394531 -6.921875 4.984375 -9.03125 3.953125 -11.46875 C 2.929688 -13.90625 2.421875 -16.5 2.421875 -19.25 C 2.421875 -22 2.929688 -24.59375 3.953125 -27.03125 C 4.984375 -29.476562 6.394531 -31.585938 8.1875 -33.359375 C 9.988281 -35.140625 12.109375 -36.539062 14.546875 -37.5625 C 16.984375 -38.59375 19.597656 -39.109375 22.390625 -39.109375 C 25.359375 -39.109375 28.171875 -38.550781 30.828125 -37.4375 C 33.492188 -36.320312 35.757812 -34.773438 37.625 -32.796875 L 34.828125 -29.8125 C 33.316406 -31.5 31.453125 -32.816406 29.234375 -33.765625 C 27.015625 -34.722656 24.734375 -35.203125 22.390625 -35.203125 C 20.191406 -35.203125 18.128906 -34.789062 16.203125 -33.96875 C 14.273438 -33.144531 12.613281 -32.023438 11.21875 -30.609375 C 9.820312 -29.203125 8.722656 -27.515625 7.921875 -25.546875 C 7.117188 -23.585938 6.71875 -21.488281 6.71875 -19.25 C 6.71875 -17.019531 7.117188 -14.921875 7.921875 -12.953125 C 8.722656 -10.992188 9.832031 -9.304688 11.25 -7.890625 C 12.664062 -6.484375 14.332031 -5.363281 16.25 -4.53125 C 18.175781 -3.707031 20.257812 -3.296875 22.5 -3.296875 Z M 22.5 -3.296875 "/></g></g></g><g fill="#000000" fill-opacity="1"><g transform="translate(240.207596, 100.668441)"><g><path d="M 4.234375 0 L 4.234375 -38.515625 L 8.46875 -38.515625 L 8.46875 -20.25 L 28.390625 -38.515625 L 33.9375 -38.515625 L 13.03125 -19.640625 L 34.390625 0 L 28.4375 0 L 8.46875 -18.484375 L 8.46875 0 Z M 4.234375 0 "/></g></g></g><g fill="#000000" fill-opacity="1"><g transform="translate(274.150012, 100.668441)"><g><path d="M 4.234375 0 L 4.234375 -38.515625 L 31.796875 -38.515625 L 31.796875 -34.765625 L 8.46875 -34.765625 L 8.46875 -21.296875 L 23.71875 -21.296875 L 23.71875 -17.609375 L 8.46875 -17.609375 L 8.46875 -3.734375 L 32.015625 -3.734375 L 32.015625 0 Z M 4.234375 0 "/></g></g></g><g fill="#000000" fill-opacity="1"><g transform="translate(308.037427, 100.668441)"><g><path d="M 4.234375 0 L 4.234375 -38.515625 L 20.734375 -38.515625 C 24.484375 -38.515625 27.507812 -37.492188 29.8125 -35.453125 C 32.125 -33.421875 33.28125 -30.753906 33.28125 -27.453125 C 33.28125 -24.921875 32.535156 -22.738281 31.046875 -20.90625 C 29.566406 -19.070312 27.582031 -17.804688 25.09375 -17.109375 L 33.71875 0 L 29.046875 0 L 20.796875 -16.5625 L 8.46875 -16.5625 L 8.46875 0 Z M 20.46875 -34.71875 L 8.46875 -34.71875 L 8.46875 -20.140625 L 20.46875 -20.140625 C 23.03125 -20.140625 25.097656 -20.804688 26.671875 -22.140625 C 28.253906 -23.484375 29.046875 -25.253906 29.046875 -27.453125 C 29.046875 -29.648438 28.253906 -31.410156 26.671875 -32.734375 C 25.097656 -34.054688 23.03125 -34.71875 20.46875 -34.71875 Z M 20.46875 -34.71875 "/></g></g></g></svg>