<svg xmlns="http://www.w3.org/2000/svg" xmlns:xlink="http://www.w3.org/1999/xlink" width="583" zoomAndPan="magnify" viewBox="0 0 438 300.000006" height="450" preserveAspectRatio="xMidYMid meet" version="1.0"><defs><g/><clipPath id="1993bf05c8"><path d="M 0.734375 32 L 435.785156 32 L 435.785156 299.003906 L 0.734375 299.003906 Z M 0.734375 32 " clip-rule="nonzero"/></clipPath><clipPath id="104df14e56"><path d="M 0.734375 31.605469 L 435.785156 31.605469 L 435.785156 299.003906 L 0.734375 299.003906 Z M 0.734375 31.605469 " clip-rule="nonzero"/></clipPath><clipPath id="1f88c9b257"><rect x="0" width="45" y="0" height="29"/></clipPath><clipPath id="069e413f49"><rect x="0" width="53" y="0" height="30"/></clipPath><clipPath id="cac15c267c"><rect x="0" width="44" y="0" height="30"/></clipPath><clipPath id="a31433abf3"><rect x="0" width="50" y="0" height="30"/></clipPath><clipPath id="2928945128"><rect x="0" width="45" y="0" height="30"/></clipPath><clipPath id="9b0c3b6cea"><rect x="0" width="34" y="0" height="30"/></clipPath><clipPath id="3dfc19c56c"><rect x="0" width="40" y="0" height="30"/></clipPath></defs><g clip-path="url(#1993bf05c8)"><path fill="#000000" d="M 1.214844 32.566406 L 1.214844 335.273438 M 63.191406 32.566406 L 63.191406 335.273438 M 125.164062 32.566406 L 125.164062 335.273438 M 187.140625 32.566406 L 187.140625 335.273438 M 249.113281 32.566406 L 249.113281 335.273438 M 311.089844 32.566406 L 311.089844 335.273438 M 373.0625 32.566406 L 373.0625 335.273438 M 435.039062 32.566406 L 435.039062 335.273438 M 0.734375 32.085938 L 435.519531 32.085938 M 0.734375 92.820312 L 435.519531 92.820312 M 0.734375 153.550781 L 435.519531 153.550781 M 0.734375 214.285156 L 435.519531 214.285156 M 0.734375 275.019531 L 435.519531 275.019531 M 0.734375 335.753906 L 435.519531 335.753906 " fill-opacity="1" fill-rule="nonzero"/></g><g clip-path="url(#104df14e56)"><path stroke-linecap="butt" transform="matrix(0.747508, 0, 0, 0.747508, 0.73526, 31.60508)" fill="none" stroke-linejoin="miter" d="M 0.641576 1.286041 L 0.641576 406.240789 M 83.552446 1.286041 L 83.552446 406.240789 M 166.458091 1.286041 L 166.458091 406.240789 M 249.36896 1.286041 L 249.36896 406.240789 M 332.274605 1.286041 L 332.274605 406.240789 M 415.185474 1.286041 L 415.185474 406.240789 M 498.091119 1.286041 L 498.091119 406.240789 M 581.001988 1.286041 L 581.001988 406.240789 M -0.00118394 0.64328 L 581.644749 0.64328 M -0.00118394 81.892379 L 581.644749 81.892379 M -0.00118394 163.136252 L 581.644749 163.136252 M -0.00118394 244.385351 L 581.644749 244.385351 M -0.00118394 325.63445 L 581.644749 325.63445 M -0.00118394 406.883549 L 581.644749 406.883549 " stroke="#000000" stroke-width="1.285358" stroke-opacity="1" stroke-miterlimit="4"/></g><g transform="matrix(1, 0, 0, 1, 12, 6)"><g clip-path="url(#1f88c9b257)"><g fill="#000000" fill-opacity="1"><g transform="translate(0.977976, 21.538269)"><g><path d="M 0.234375 -2.53125 L 1.3125 -3.640625 C 2.0625 -2.835938 2.867188 -2.226562 3.734375 -1.8125 C 4.597656 -1.40625 5.507812 -1.203125 6.46875 -1.203125 C 7.613281 -1.203125 8.554688 -1.472656 9.296875 -2.015625 C 10.046875 -2.566406 10.421875 -3.265625 10.421875 -4.109375 C 10.421875 -4.867188 10.15625 -5.453125 9.625 -5.859375 C 9.101562 -6.265625 8.238281 -6.566406 7.03125 -6.765625 L 4.90625 -7.09375 C 3.488281 -7.320312 2.441406 -7.738281 1.765625 -8.34375 C 1.097656 -8.957031 0.765625 -9.785156 0.765625 -10.828125 C 0.765625 -12.046875 1.238281 -13.035156 2.1875 -13.796875 C 3.144531 -14.554688 4.394531 -14.9375 5.9375 -14.9375 C 6.96875 -14.9375 7.988281 -14.765625 9 -14.421875 C 10.007812 -14.085938 10.925781 -13.601562 11.75 -12.96875 L 10.828125 -11.703125 C 10.023438 -12.304688 9.207031 -12.765625 8.375 -13.078125 C 7.550781 -13.390625 6.71875 -13.546875 5.875 -13.546875 C 4.820312 -13.546875 3.96875 -13.300781 3.3125 -12.8125 C 2.664062 -12.332031 2.34375 -11.710938 2.34375 -10.953125 C 2.34375 -10.265625 2.570312 -9.738281 3.03125 -9.375 C 3.5 -9.007812 4.265625 -8.742188 5.328125 -8.578125 L 7.4375 -8.234375 C 9.039062 -7.960938 10.207031 -7.503906 10.9375 -6.859375 C 11.675781 -6.210938 12.046875 -5.320312 12.046875 -4.1875 C 12.046875 -3.539062 11.90625 -2.945312 11.625 -2.40625 C 11.351562 -1.863281 10.96875 -1.398438 10.46875 -1.015625 C 9.976562 -0.628906 9.382812 -0.328125 8.6875 -0.109375 C 7.988281 0.0976562 7.226562 0.203125 6.40625 0.203125 C 5.238281 0.203125 4.117188 -0.03125 3.046875 -0.5 C 1.972656 -0.96875 1.035156 -1.644531 0.234375 -2.53125 Z M 0.234375 -2.53125 "/></g></g></g><g fill="#000000" fill-opacity="1"><g transform="translate(13.618423, 21.538269)"><g><path d="M 13.5 -6.234375 C 13.5 -4.265625 12.945312 -2.691406 11.84375 -1.515625 C 10.738281 -0.347656 9.257812 0.234375 7.40625 0.234375 C 5.539062 0.234375 4.0625 -0.347656 2.96875 -1.515625 C 1.875 -2.679688 1.328125 -4.253906 1.328125 -6.234375 L 1.328125 -14.75 L 2.953125 -14.75 L 2.953125 -6.234375 C 2.953125 -4.734375 3.359375 -3.53125 4.171875 -2.625 C 4.984375 -1.71875 6.0625 -1.265625 7.40625 -1.265625 C 8.757812 -1.265625 9.84375 -1.71875 10.65625 -2.625 C 11.46875 -3.53125 11.875 -4.734375 11.875 -6.234375 L 11.875 -14.75 L 13.5 -14.75 Z M 13.5 -6.234375 "/></g></g></g><g fill="#000000" fill-opacity="1"><g transform="translate(28.449881, 21.538269)"><g><path d="M 1.625 -14.75 L 3.25 -14.75 L 12.109375 -2.78125 L 12.109375 -14.75 L 13.65625 -14.75 L 13.65625 0 L 12.21875 0 L 3.15625 -12.28125 L 3.15625 0 L 1.625 0 Z M 1.625 -14.75 "/></g></g></g></g></g><g transform="matrix(1, 0, 0, 1, 69, 6)"><g clip-path="url(#069e413f49)"><g fill="#000000" fill-opacity="1"><g transform="translate(1.02437, 22.857472)"><g><path d="M 9.09375 -1.078125 L 3.203125 -13.125 L 3.203125 0 L 1.65625 0 L 1.65625 -15.046875 L 3.96875 -15.046875 L 9.109375 -4.359375 L 14.21875 -15.046875 L 16.546875 -15.046875 L 16.546875 0 L 14.96875 0 L 14.96875 -13.15625 Z M 9.09375 -1.078125 "/></g></g></g><g fill="#000000" fill-opacity="1"><g transform="translate(19.221568, 22.857472)"><g><path d="M 16.4375 -7.515625 C 16.4375 -6.441406 16.234375 -5.425781 15.828125 -4.46875 C 15.429688 -3.519531 14.882812 -2.695312 14.1875 -2 C 13.5 -1.3125 12.679688 -0.765625 11.734375 -0.359375 C 10.785156 0.0351562 9.773438 0.234375 8.703125 0.234375 C 7.628906 0.234375 6.613281 0.0351562 5.65625 -0.359375 C 4.707031 -0.765625 3.882812 -1.3125 3.1875 -2 C 2.5 -2.695312 1.953125 -3.519531 1.546875 -4.46875 C 1.148438 -5.425781 0.953125 -6.441406 0.953125 -7.515625 C 0.953125 -8.585938 1.148438 -9.597656 1.546875 -10.546875 C 1.953125 -11.503906 2.5 -12.332031 3.1875 -13.03125 C 3.882812 -13.726562 4.707031 -14.273438 5.65625 -14.671875 C 6.613281 -15.078125 7.628906 -15.28125 8.703125 -15.28125 C 9.773438 -15.28125 10.785156 -15.078125 11.734375 -14.671875 C 12.679688 -14.273438 13.5 -13.726562 14.1875 -13.03125 C 14.882812 -12.332031 15.429688 -11.503906 15.828125 -10.546875 C 16.234375 -9.597656 16.4375 -8.585938 16.4375 -7.515625 Z M 14.765625 -7.515625 C 14.765625 -8.390625 14.601562 -9.207031 14.28125 -9.96875 C 13.96875 -10.738281 13.539062 -11.398438 13 -11.953125 C 12.46875 -12.503906 11.828125 -12.941406 11.078125 -13.265625 C 10.335938 -13.585938 9.546875 -13.75 8.703125 -13.75 C 7.835938 -13.75 7.03125 -13.585938 6.28125 -13.265625 C 5.539062 -12.941406 4.898438 -12.503906 4.359375 -11.953125 C 3.828125 -11.398438 3.40625 -10.738281 3.09375 -9.96875 C 2.78125 -9.207031 2.625 -8.390625 2.625 -7.515625 C 2.625 -6.640625 2.78125 -5.820312 3.09375 -5.0625 C 3.40625 -4.3125 3.828125 -3.65625 4.359375 -3.09375 C 4.898438 -2.53125 5.539062 -2.085938 6.28125 -1.765625 C 7.03125 -1.453125 7.835938 -1.296875 8.703125 -1.296875 C 9.546875 -1.296875 10.335938 -1.453125 11.078125 -1.765625 C 11.828125 -2.085938 12.46875 -2.53125 13 -3.09375 C 13.539062 -3.65625 13.96875 -4.3125 14.28125 -5.0625 C 14.601562 -5.820312 14.765625 -6.640625 14.765625 -7.515625 Z M 14.765625 -7.515625 "/></g></g></g><g fill="#000000" fill-opacity="1"><g transform="translate(36.602361, 22.857472)"><g><path d="M 1.65625 -15.046875 L 3.3125 -15.046875 L 12.359375 -2.84375 L 12.359375 -15.046875 L 13.921875 -15.046875 L 13.921875 0 L 12.46875 0 L 3.21875 -12.53125 L 3.21875 0 L 1.65625 0 Z M 1.65625 -15.046875 "/></g></g></g></g></g><g transform="matrix(1, 0, 0, 1, 135, 6)"><g clip-path="url(#cac15c267c)"><g fill="#000000" fill-opacity="1"><g transform="translate(1.230739, 22.857472)"><g><path d="M 0.359375 -13.5625 L 0.359375 -15.046875 L 12.890625 -15.046875 L 12.890625 -13.5625 L 7.453125 -13.5625 L 7.453125 0 L 5.796875 0 L 5.796875 -13.5625 Z M 0.359375 -13.5625 "/></g></g></g><g fill="#000000" fill-opacity="1"><g transform="translate(14.486549, 22.857472)"><g><path d="M 13.765625 -6.359375 C 13.765625 -4.359375 13.203125 -2.757812 12.078125 -1.5625 C 10.960938 -0.363281 9.457031 0.234375 7.5625 0.234375 C 5.65625 0.234375 4.144531 -0.359375 3.03125 -1.546875 C 1.914062 -2.734375 1.359375 -4.335938 1.359375 -6.359375 L 1.359375 -15.046875 L 3.015625 -15.046875 L 3.015625 -6.359375 C 3.015625 -4.828125 3.425781 -3.597656 4.25 -2.671875 C 5.082031 -1.753906 6.1875 -1.296875 7.5625 -1.296875 C 8.9375 -1.296875 10.039062 -1.753906 10.875 -2.671875 C 11.707031 -3.597656 12.125 -4.828125 12.125 -6.359375 L 12.125 -15.046875 L 13.765625 -15.046875 Z M 13.765625 -6.359375 "/></g></g></g><g fill="#000000" fill-opacity="1"><g transform="translate(29.611489, 22.857472)"><g><path d="M 1.65625 0 L 1.65625 -15.046875 L 12.421875 -15.046875 L 12.421875 -13.578125 L 3.3125 -13.578125 L 3.3125 -8.3125 L 9.265625 -8.3125 L 9.265625 -6.875 L 3.3125 -6.875 L 3.3125 -1.46875 L 12.5 -1.46875 L 12.5 0 Z M 1.65625 0 "/></g></g></g></g></g><g transform="matrix(1, 0, 0, 1, 193, 6)"><g clip-path="url(#a31433abf3)"><g fill="#000000" fill-opacity="1"><g transform="translate(1.004027, 22.857472)"><g><path d="M 5.671875 0 L 4 0 L 0.75 -15.046875 L 2.421875 -15.046875 L 4.984375 -2.625 L 8.703125 -15.046875 L 10.3125 -15.046875 L 14.03125 -2.671875 L 16.609375 -15.046875 L 18.21875 -15.046875 L 14.96875 0 L 13.296875 0 L 9.5 -12.734375 Z M 5.671875 0 "/></g></g></g><g fill="#000000" fill-opacity="1"><g transform="translate(19.953173, 22.857472)"><g><path d="M 1.65625 0 L 1.65625 -15.046875 L 12.421875 -15.046875 L 12.421875 -13.578125 L 3.3125 -13.578125 L 3.3125 -8.3125 L 9.265625 -8.3125 L 9.265625 -6.875 L 3.3125 -6.875 L 3.3125 -1.46875 L 12.5 -1.46875 L 12.5 0 Z M 1.65625 0 "/></g></g></g><g fill="#000000" fill-opacity="1"><g transform="translate(33.187491, 22.857472)"><g><path d="M 1.65625 0 L 1.65625 -15.046875 L 6.625 -15.046875 C 7.75 -15.046875 8.796875 -14.851562 9.765625 -14.46875 C 10.742188 -14.09375 11.582031 -13.570312 12.28125 -12.90625 C 12.988281 -12.25 13.539062 -11.457031 13.9375 -10.53125 C 14.332031 -9.613281 14.53125 -8.609375 14.53125 -7.515625 C 14.53125 -6.429688 14.332031 -5.425781 13.9375 -4.5 C 13.539062 -3.570312 12.992188 -2.78125 12.296875 -2.125 C 11.609375 -1.46875 10.773438 -0.945312 9.796875 -0.5625 C 8.828125 -0.1875 7.769531 0 6.625 0 Z M 6.703125 -13.53125 L 3.3125 -13.53125 L 3.3125 -1.5 L 6.703125 -1.5 C 7.566406 -1.5 8.375 -1.648438 9.125 -1.953125 C 9.882812 -2.265625 10.535156 -2.691406 11.078125 -3.234375 C 11.628906 -3.773438 12.0625 -4.410156 12.375 -5.140625 C 12.6875 -5.878906 12.84375 -6.671875 12.84375 -7.515625 C 12.84375 -8.359375 12.6875 -9.148438 12.375 -9.890625 C 12.0625 -10.628906 11.628906 -11.265625 11.078125 -11.796875 C 10.535156 -12.335938 9.882812 -12.757812 9.125 -13.0625 C 8.375 -13.375 7.566406 -13.53125 6.703125 -13.53125 Z M 6.703125 -13.53125 "/></g></g></g></g></g><g transform="matrix(1, 0, 0, 1, 256, 6)"><g clip-path="url(#2928945128)"><g fill="#000000" fill-opacity="1"><g transform="translate(0.805834, 22.857472)"><g><path d="M 0.359375 -13.5625 L 0.359375 -15.046875 L 12.890625 -15.046875 L 12.890625 -13.5625 L 7.453125 -13.5625 L 7.453125 0 L 5.796875 0 L 5.796875 -13.5625 Z M 0.359375 -13.5625 "/></g></g></g><g fill="#000000" fill-opacity="1"><g transform="translate(14.061644, 22.857472)"><g><path d="M 1.65625 0 L 1.65625 -15.046875 L 3.3125 -15.046875 L 3.3125 -8.3125 L 12.046875 -8.3125 L 12.046875 -15.046875 L 13.703125 -15.046875 L 13.703125 0 L 12.046875 0 L 12.046875 -6.828125 L 3.3125 -6.828125 L 3.3125 0 Z M 1.65625 0 "/></g></g></g><g fill="#000000" fill-opacity="1"><g transform="translate(29.422915, 22.857472)"><g><path d="M 13.765625 -6.359375 C 13.765625 -4.359375 13.203125 -2.757812 12.078125 -1.5625 C 10.960938 -0.363281 9.457031 0.234375 7.5625 0.234375 C 5.65625 0.234375 4.144531 -0.359375 3.03125 -1.546875 C 1.914062 -2.734375 1.359375 -4.335938 1.359375 -6.359375 L 1.359375 -15.046875 L 3.015625 -15.046875 L 3.015625 -6.359375 C 3.015625 -4.828125 3.425781 -3.597656 4.25 -2.671875 C 5.082031 -1.753906 6.1875 -1.296875 7.5625 -1.296875 C 8.9375 -1.296875 10.039062 -1.753906 10.875 -2.671875 C 11.707031 -3.597656 12.125 -4.828125 12.125 -6.359375 L 12.125 -15.046875 L 13.765625 -15.046875 Z M 13.765625 -6.359375 "/></g></g></g></g></g><g transform="matrix(1, 0, 0, 1, 323, 6)"><g clip-path="url(#9b0c3b6cea)"><g fill="#000000" fill-opacity="1"><g transform="translate(0.850423, 22.857472)"><g><path d="M 1.65625 0 L 1.65625 -15.046875 L 12.421875 -15.046875 L 12.421875 -13.578125 L 3.3125 -13.578125 L 3.3125 -8.203125 L 9.28125 -8.203125 L 9.28125 -6.765625 L 3.3125 -6.765625 L 3.3125 0 Z M 1.65625 0 "/></g></g></g><g fill="#000000" fill-opacity="1"><g transform="translate(13.891384, 22.857472)"><g><path d="M 1.65625 0 L 1.65625 -15.046875 L 8.09375 -15.046875 C 9.5625 -15.046875 10.742188 -14.644531 11.640625 -13.84375 C 12.546875 -13.050781 13 -12.007812 13 -10.71875 C 13 -9.726562 12.707031 -8.875 12.125 -8.15625 C 11.550781 -7.445312 10.773438 -6.957031 9.796875 -6.6875 L 13.171875 0 L 11.34375 0 L 8.125 -6.46875 L 3.3125 -6.46875 L 3.3125 0 Z M 8 -13.5625 L 3.3125 -13.5625 L 3.3125 -7.859375 L 8 -7.859375 C 9 -7.859375 9.804688 -8.117188 10.421875 -8.640625 C 11.035156 -9.171875 11.34375 -9.863281 11.34375 -10.71875 C 11.34375 -11.582031 11.035156 -12.269531 10.421875 -12.78125 C 9.804688 -13.300781 9 -13.5625 8 -13.5625 Z M 8 -13.5625 "/></g></g></g><g fill="#000000" fill-opacity="1"><g transform="translate(27.748748, 22.857472)"><g><path d="M 1.65625 0 L 1.65625 -15.046875 L 3.3125 -15.046875 L 3.3125 0 Z M 1.65625 0 "/></g></g></g></g></g><g transform="matrix(1, 0, 0, 1, 383, 6)"><g clip-path="url(#3dfc19c56c)"><g fill="#000000" fill-opacity="1"><g transform="translate(0.995351, 22.180489)"><g><path d="M 0.234375 -2.578125 L 1.328125 -3.71875 C 2.109375 -2.90625 2.9375 -2.285156 3.8125 -1.859375 C 4.695312 -1.429688 5.625 -1.21875 6.59375 -1.21875 C 7.769531 -1.21875 8.738281 -1.5 9.5 -2.0625 C 10.257812 -2.625 10.640625 -3.332031 10.640625 -4.1875 C 10.640625 -4.957031 10.367188 -5.550781 9.828125 -5.96875 C 9.296875 -6.382812 8.410156 -6.691406 7.171875 -6.890625 L 5 -7.234375 C 3.5625 -7.460938 2.5 -7.890625 1.8125 -8.515625 C 1.125 -9.140625 0.78125 -9.984375 0.78125 -11.046875 C 0.78125 -12.285156 1.265625 -13.289062 2.234375 -14.0625 C 3.210938 -14.84375 4.488281 -15.234375 6.0625 -15.234375 C 7.101562 -15.234375 8.140625 -15.0625 9.171875 -14.71875 C 10.203125 -14.375 11.140625 -13.878906 11.984375 -13.234375 L 11.046875 -11.953125 C 10.222656 -12.566406 9.390625 -13.03125 8.546875 -13.34375 C 7.703125 -13.65625 6.851562 -13.8125 6 -13.8125 C 4.925781 -13.8125 4.054688 -13.5625 3.390625 -13.0625 C 2.722656 -12.570312 2.390625 -11.941406 2.390625 -11.171875 C 2.390625 -10.472656 2.625 -9.9375 3.09375 -9.5625 C 3.5625 -9.1875 4.34375 -8.914062 5.4375 -8.75 L 7.578125 -8.40625 C 9.210938 -8.132812 10.40625 -7.664062 11.15625 -7 C 11.914062 -6.34375 12.296875 -5.4375 12.296875 -4.28125 C 12.296875 -3.613281 12.15625 -3.003906 11.875 -2.453125 C 11.59375 -1.910156 11.195312 -1.441406 10.6875 -1.046875 C 10.175781 -0.648438 9.566406 -0.335938 8.859375 -0.109375 C 8.148438 0.109375 7.375 0.21875 6.53125 0.21875 C 5.34375 0.21875 4.203125 -0.0195312 3.109375 -0.5 C 2.015625 -0.976562 1.054688 -1.671875 0.234375 -2.578125 Z M 0.234375 -2.578125 "/></g></g></g><g fill="#000000" fill-opacity="1"><g transform="translate(13.671058, 22.180489)"><g><path d="M 0.09375 0 L 6.34375 -15.046875 L 8.34375 -15.046875 L 14.5 0 L 12.703125 0 L 10.8125 -4.734375 L 3.71875 -4.734375 L 1.8125 0 Z M 4.296875 -6.140625 L 10.234375 -6.140625 L 7.28125 -13.5 Z M 4.296875 -6.140625 "/></g></g></g><g fill="#000000" fill-opacity="1"><g transform="translate(25.508565, 22.180489)"><g><path d="M 0.359375 -13.5625 L 0.359375 -15.046875 L 12.890625 -15.046875 L 12.890625 -13.5625 L 7.453125 -13.5625 L 7.453125 0 L 5.796875 0 L 5.796875 -13.5625 Z M 0.359375 -13.5625 "/></g></g></g></g></g></svg>