<svg xmlns="http://www.w3.org/2000/svg" xmlns:xlink="http://www.w3.org/1999/xlink" width="1167" zoomAndPan="magnify" viewBox="0 0 875.25 675.000002" height="900" preserveAspectRatio="xMidYMid meet" version="1.0"><defs><g/><clipPath id="9336d331f1"><path d="M 0.273438 120 L 874.226562 120 L 874.226562 670 L 0.273438 670 Z M 0.273438 120 " clip-rule="nonzero"/></clipPath><clipPath id="56dc29c403"><path d="M 0.351562 5 L 8 5 L 8 16 L 0.351562 16 Z M 0.351562 5 " clip-rule="nonzero"/></clipPath><clipPath id="b579b8adb3"><rect x="0" width="58" y="0" height="20"/></clipPath><clipPath id="cecdcc1cdd"><rect x="0" width="63" y="0" height="20"/></clipPath><clipPath id="106008bb99"><rect x="0" width="64" y="0" height="20"/></clipPath><clipPath id="38b89f1b76"><rect x="0" width="88" y="0" height="20"/></clipPath><clipPath id="55f1351bea"><rect x="0" width="76" y="0" height="20"/></clipPath><clipPath id="c311674784"><rect x="0" width="51" y="0" height="20"/></clipPath><clipPath id="5bd4e92ab6"><rect x="0" width="75" y="0" height="20"/></clipPath><clipPath id="e355181c0e"><path d="M 1.460938 3 L 873.753906 3 L 873.753906 547 L 1.460938 547 Z M 1.460938 3 " clip-rule="nonzero"/></clipPath><clipPath id="e885e009d5"><path d="M 1.460938 2.4375 L 873.753906 2.4375 L 873.753906 547.445312 L 1.460938 547.445312 Z M 1.460938 2.4375 " clip-rule="nonzero"/></clipPath><clipPath id="08e3a157f1"><path d="M 37.085938 9.957031 L 71.753906 9.957031 L 71.753906 44.628906 L 37.085938 44.628906 Z M 37.085938 9.957031 " clip-rule="nonzero"/></clipPath><clipPath id="dc671ecc20"><rect x="0" width="875" y="0" height="550"/></clipPath></defs><g clip-path="url(#9336d331f1)"><g transform="matrix(1, 0, 0, 1, 0.000000000000000056, 120)"><g clip-path="url(#dc671ecc20)"><g transform="matrix(1, 0, 0, 1, 137, 16)"><g clip-path="url(#b579b8adb3)"><g clip-path="url(#56dc29c403)"><g fill="#000000" fill-opacity="1"><g transform="translate(0.427168, 15.332707)"><g><path d="M 4.09375 0.140625 C 3.375 0.148438 2.742188 0.0351562 2.203125 -0.203125 C 1.671875 -0.441406 1.164062 -0.796875 0.6875 -1.265625 C 0.632812 -1.304688 0.59375 -1.351562 0.5625 -1.40625 C 0.53125 -1.46875 0.515625 -1.535156 0.515625 -1.609375 C 0.515625 -1.722656 0.554688 -1.828125 0.640625 -1.921875 C 0.734375 -2.015625 0.835938 -2.0625 0.953125 -2.0625 C 1.066406 -2.0625 1.171875 -2.015625 1.265625 -1.921875 C 1.640625 -1.523438 2.0625 -1.222656 2.53125 -1.015625 C 3 -0.804688 3.503906 -0.703125 4.046875 -0.703125 C 4.503906 -0.703125 4.910156 -0.769531 5.265625 -0.90625 C 5.628906 -1.050781 5.914062 -1.253906 6.125 -1.515625 C 6.332031 -1.785156 6.4375 -2.097656 6.4375 -2.453125 C 6.4375 -2.890625 6.316406 -3.242188 6.078125 -3.515625 C 5.835938 -3.785156 5.519531 -4.007812 5.125 -4.1875 C 4.738281 -4.363281 4.3125 -4.523438 3.84375 -4.671875 C 3.445312 -4.785156 3.070312 -4.914062 2.71875 -5.0625 C 2.375 -5.207031 2.0625 -5.382812 1.78125 -5.59375 C 1.507812 -5.8125 1.296875 -6.078125 1.140625 -6.390625 C 0.984375 -6.703125 0.90625 -7.082031 0.90625 -7.53125 C 0.90625 -8.03125 1.039062 -8.472656 1.3125 -8.859375 C 1.582031 -9.253906 1.960938 -9.5625 2.453125 -9.78125 C 2.941406 -10.007812 3.507812 -10.125 4.15625 -10.125 C 4.71875 -10.125 5.253906 -10.03125 5.765625 -9.84375 C 6.285156 -9.65625 6.695312 -9.375 7 -9 C 7.144531 -8.84375 7.21875 -8.707031 7.21875 -8.59375 C 7.21875 -8.488281 7.171875 -8.390625 7.078125 -8.296875 C 6.984375 -8.203125 6.878906 -8.15625 6.765625 -8.15625 C 6.671875 -8.15625 6.585938 -8.191406 6.515625 -8.265625 C 6.359375 -8.460938 6.15625 -8.640625 5.90625 -8.796875 C 5.65625 -8.953125 5.378906 -9.070312 5.078125 -9.15625 C 4.785156 -9.238281 4.476562 -9.28125 4.15625 -9.28125 C 3.707031 -9.28125 3.300781 -9.210938 2.9375 -9.078125 C 2.582031 -8.941406 2.300781 -8.742188 2.09375 -8.484375 C 1.894531 -8.234375 1.796875 -7.925781 1.796875 -7.5625 C 1.796875 -7.164062 1.910156 -6.835938 2.140625 -6.578125 C 2.367188 -6.316406 2.664062 -6.101562 3.03125 -5.9375 C 3.40625 -5.769531 3.800781 -5.617188 4.21875 -5.484375 C 4.632812 -5.367188 5.03125 -5.234375 5.40625 -5.078125 C 5.78125 -4.929688 6.109375 -4.75 6.390625 -4.53125 C 6.679688 -4.3125 6.910156 -4.035156 7.078125 -3.703125 C 7.242188 -3.367188 7.328125 -2.953125 7.328125 -2.453125 C 7.328125 -1.960938 7.1875 -1.523438 6.90625 -1.140625 C 6.632812 -0.753906 6.257812 -0.445312 5.78125 -0.21875 C 5.300781 0.0078125 4.738281 0.128906 4.09375 0.140625 Z M 4.09375 0.140625 "/></g></g></g></g><g fill="#000000" fill-opacity="1"><g transform="translate(8.443684, 15.332707)"><g><path d="M 8.40625 -9.984375 C 8.539062 -9.984375 8.644531 -9.941406 8.71875 -9.859375 C 8.789062 -9.785156 8.828125 -9.6875 8.828125 -9.5625 L 8.828125 -3.65625 C 8.828125 -2.945312 8.660156 -2.304688 8.328125 -1.734375 C 7.992188 -1.171875 7.546875 -0.71875 6.984375 -0.375 C 6.429688 -0.0390625 5.800781 0.125 5.09375 0.125 C 4.382812 0.125 3.75 -0.0390625 3.1875 -0.375 C 2.625 -0.71875 2.175781 -1.171875 1.84375 -1.734375 C 1.507812 -2.304688 1.34375 -2.945312 1.34375 -3.65625 L 1.34375 -9.5625 C 1.34375 -9.6875 1.378906 -9.785156 1.453125 -9.859375 C 1.535156 -9.941406 1.648438 -9.984375 1.796875 -9.984375 C 1.910156 -9.984375 2.007812 -9.941406 2.09375 -9.859375 C 2.175781 -9.785156 2.21875 -9.6875 2.21875 -9.5625 L 2.21875 -3.65625 C 2.21875 -3.101562 2.347656 -2.609375 2.609375 -2.171875 C 2.878906 -1.734375 3.234375 -1.382812 3.671875 -1.125 C 4.109375 -0.863281 4.582031 -0.734375 5.09375 -0.734375 C 5.625 -0.734375 6.109375 -0.863281 6.546875 -1.125 C 6.984375 -1.382812 7.332031 -1.734375 7.59375 -2.171875 C 7.851562 -2.609375 7.984375 -3.101562 7.984375 -3.65625 L 7.984375 -9.5625 C 7.984375 -9.6875 8.019531 -9.785156 8.09375 -9.859375 C 8.175781 -9.941406 8.28125 -9.984375 8.40625 -9.984375 Z M 8.40625 -9.984375 "/></g></g></g><g fill="#000000" fill-opacity="1"><g transform="translate(18.614101, 15.332707)"><g><path d="M 8.640625 -9.984375 C 8.765625 -9.984375 8.863281 -9.941406 8.9375 -9.859375 C 9.007812 -9.785156 9.046875 -9.695312 9.046875 -9.59375 L 9.046875 -0.453125 C 9.046875 -0.316406 9 -0.207031 8.90625 -0.125 C 8.8125 -0.0390625 8.710938 0 8.609375 0 C 8.546875 0 8.476562 -0.0078125 8.40625 -0.03125 C 8.34375 -0.0625 8.296875 -0.0976562 8.265625 -0.140625 L 1.890625 -8.71875 L 2.140625 -8.84375 L 2.140625 -0.390625 C 2.140625 -0.285156 2.097656 -0.191406 2.015625 -0.109375 C 1.941406 -0.0351562 1.847656 0 1.734375 0 C 1.617188 0 1.523438 -0.0351562 1.453125 -0.109375 C 1.378906 -0.191406 1.34375 -0.285156 1.34375 -0.390625 L 1.34375 -9.5625 C 1.34375 -9.695312 1.382812 -9.800781 1.46875 -9.875 C 1.550781 -9.945312 1.644531 -9.984375 1.75 -9.984375 C 1.8125 -9.984375 1.875 -9.972656 1.9375 -9.953125 C 2.007812 -9.929688 2.0625 -9.890625 2.09375 -9.828125 L 8.390625 -1.359375 L 8.25 -1.09375 L 8.25 -9.59375 C 8.25 -9.695312 8.285156 -9.785156 8.359375 -9.859375 C 8.441406 -9.941406 8.535156 -9.984375 8.640625 -9.984375 Z M 8.640625 -9.984375 "/></g></g></g><g fill="#000000" fill-opacity="1"><g transform="translate(28.998483, 15.332707)"><g><path d="M 5.40625 -9.984375 C 6.113281 -9.984375 6.726562 -9.847656 7.25 -9.578125 C 7.78125 -9.316406 8.21875 -8.953125 8.5625 -8.484375 C 8.90625 -8.015625 9.160156 -7.476562 9.328125 -6.875 C 9.492188 -6.28125 9.578125 -5.65625 9.578125 -5 C 9.578125 -4.082031 9.425781 -3.242188 9.125 -2.484375 C 8.820312 -1.734375 8.363281 -1.128906 7.75 -0.671875 C 7.132812 -0.222656 6.351562 0 5.40625 0 L 1.765625 0 C 1.648438 0 1.550781 -0.0390625 1.46875 -0.125 C 1.382812 -0.207031 1.34375 -0.304688 1.34375 -0.421875 L 1.34375 -9.5625 C 1.34375 -9.675781 1.382812 -9.773438 1.46875 -9.859375 C 1.550781 -9.941406 1.648438 -9.984375 1.765625 -9.984375 Z M 5.265625 -0.84375 C 6.066406 -0.84375 6.710938 -1.023438 7.203125 -1.390625 C 7.703125 -1.765625 8.066406 -2.269531 8.296875 -2.90625 C 8.535156 -3.539062 8.65625 -4.238281 8.65625 -5 C 8.65625 -5.550781 8.59375 -6.070312 8.46875 -6.5625 C 8.34375 -7.0625 8.140625 -7.503906 7.859375 -7.890625 C 7.585938 -8.273438 7.234375 -8.578125 6.796875 -8.796875 C 6.367188 -9.023438 5.859375 -9.140625 5.265625 -9.140625 L 2.140625 -9.140625 L 2.234375 -9.265625 L 2.234375 -0.703125 L 2.15625 -0.84375 Z M 5.265625 -0.84375 "/></g></g></g><g fill="#000000" fill-opacity="1"><g transform="translate(39.25449, 15.332707)"><g><path d="M 4.671875 -8.890625 L 1.21875 -0.265625 C 1.175781 -0.171875 1.117188 -0.0976562 1.046875 -0.046875 C 0.984375 -0.00390625 0.910156 0.015625 0.828125 0.015625 C 0.691406 0.015625 0.585938 -0.0195312 0.515625 -0.09375 C 0.453125 -0.164062 0.414062 -0.253906 0.40625 -0.359375 C 0.40625 -0.398438 0.410156 -0.457031 0.421875 -0.53125 L 4.1875 -9.75 C 4.238281 -9.851562 4.300781 -9.925781 4.375 -9.96875 C 4.445312 -10.007812 4.53125 -10.03125 4.625 -10.03125 C 4.71875 -10.03125 4.800781 -10.003906 4.875 -9.953125 C 4.945312 -9.898438 5 -9.832031 5.03125 -9.75 L 8.78125 -0.578125 C 8.800781 -0.515625 8.8125 -0.457031 8.8125 -0.40625 C 8.8125 -0.269531 8.769531 -0.164062 8.6875 -0.09375 C 8.601562 -0.0195312 8.503906 0.015625 8.390625 0.015625 C 8.296875 0.015625 8.210938 -0.0078125 8.140625 -0.0625 C 8.066406 -0.113281 8.007812 -0.179688 7.96875 -0.265625 L 4.421875 -8.9375 Z M 2.046875 -2.875 L 2.390625 -3.71875 L 6.8125 -3.71875 L 6.984375 -2.875 Z M 2.046875 -2.875 "/></g></g></g><g fill="#000000" fill-opacity="1"><g transform="translate(48.483469, 15.332707)"><g><path d="M 7.296875 -10.046875 C 7.410156 -10.046875 7.507812 -10 7.59375 -9.90625 C 7.675781 -9.8125 7.71875 -9.710938 7.71875 -9.609375 C 7.71875 -9.566406 7.707031 -9.523438 7.6875 -9.484375 C 7.675781 -9.441406 7.65625 -9.394531 7.625 -9.34375 L 4.28125 -4.734375 L 4.453125 -5.296875 L 4.453125 -0.421875 C 4.453125 -0.304688 4.40625 -0.207031 4.3125 -0.125 C 4.226562 -0.0390625 4.128906 0 4.015625 0 C 3.890625 0 3.785156 -0.0390625 3.703125 -0.125 C 3.617188 -0.207031 3.578125 -0.304688 3.578125 -0.421875 L 3.578125 -5.1875 L 3.65625 -4.84375 L 0.390625 -9.3125 C 0.347656 -9.363281 0.316406 -9.414062 0.296875 -9.46875 C 0.273438 -9.519531 0.265625 -9.566406 0.265625 -9.609375 C 0.265625 -9.734375 0.316406 -9.835938 0.421875 -9.921875 C 0.523438 -10.003906 0.628906 -10.046875 0.734375 -10.046875 C 0.867188 -10.046875 0.984375 -9.976562 1.078125 -9.84375 L 4.15625 -5.65625 L 3.9375 -5.6875 L 6.921875 -9.84375 C 7.015625 -9.976562 7.140625 -10.046875 7.296875 -10.046875 Z M 7.296875 -10.046875 "/></g></g></g></g></g><g transform="matrix(1, 0, 0, 1, 243, 16)"><g clip-path="url(#cecdcc1cdd)"><g fill="#000000" fill-opacity="1"><g transform="translate(0.971183, 15.332707)"><g><path d="M 1.765625 -9.984375 C 1.835938 -9.984375 1.90625 -9.96875 1.96875 -9.9375 C 2.039062 -9.914062 2.101562 -9.867188 2.15625 -9.796875 L 6.09375 -3.890625 L 5.703125 -3.90625 L 9.65625 -9.796875 C 9.757812 -9.941406 9.890625 -10.003906 10.046875 -9.984375 C 10.160156 -9.984375 10.253906 -9.941406 10.328125 -9.859375 C 10.410156 -9.785156 10.453125 -9.6875 10.453125 -9.5625 L 10.453125 -0.421875 C 10.453125 -0.304688 10.410156 -0.207031 10.328125 -0.125 C 10.242188 -0.0390625 10.140625 0 10.015625 0 C 9.878906 0 9.769531 -0.0390625 9.6875 -0.125 C 9.601562 -0.207031 9.5625 -0.304688 9.5625 -0.421875 L 9.5625 -8.6875 L 9.8125 -8.65625 L 6.203125 -3.203125 C 6.171875 -3.140625 6.125 -3.09375 6.0625 -3.0625 C 6.007812 -3.03125 5.945312 -3.019531 5.875 -3.03125 C 5.8125 -3.019531 5.75 -3.03125 5.6875 -3.0625 C 5.625 -3.09375 5.570312 -3.140625 5.53125 -3.203125 L 1.90625 -8.71875 L 2.1875 -8.90625 L 2.1875 -0.421875 C 2.1875 -0.304688 2.144531 -0.207031 2.0625 -0.125 C 1.976562 -0.0390625 1.875 0 1.75 0 C 1.625 0 1.523438 -0.0390625 1.453125 -0.125 C 1.378906 -0.207031 1.34375 -0.304688 1.34375 -0.421875 L 1.34375 -9.5625 C 1.34375 -9.675781 1.378906 -9.773438 1.453125 -9.859375 C 1.535156 -9.941406 1.640625 -9.984375 1.765625 -9.984375 Z M 1.765625 -9.984375 "/></g></g></g><g fill="#000000" fill-opacity="1"><g transform="translate(12.767726, 15.332707)"><g><path d="M 10.25 -5 C 10.25 -4.238281 10.128906 -3.546875 9.890625 -2.921875 C 9.660156 -2.304688 9.332031 -1.765625 8.90625 -1.296875 C 8.476562 -0.835938 7.96875 -0.484375 7.375 -0.234375 C 6.789062 0.015625 6.15625 0.140625 5.46875 0.140625 C 4.769531 0.140625 4.128906 0.015625 3.546875 -0.234375 C 2.960938 -0.484375 2.457031 -0.835938 2.03125 -1.296875 C 1.601562 -1.765625 1.269531 -2.304688 1.03125 -2.921875 C 0.800781 -3.546875 0.6875 -4.238281 0.6875 -5 C 0.6875 -5.75 0.800781 -6.429688 1.03125 -7.046875 C 1.269531 -7.671875 1.601562 -8.210938 2.03125 -8.671875 C 2.457031 -9.140625 2.960938 -9.5 3.546875 -9.75 C 4.128906 -10 4.769531 -10.125 5.46875 -10.125 C 6.15625 -10.125 6.789062 -10 7.375 -9.75 C 7.96875 -9.5 8.476562 -9.140625 8.90625 -8.671875 C 9.332031 -8.210938 9.660156 -7.671875 9.890625 -7.046875 C 10.128906 -6.429688 10.25 -5.75 10.25 -5 Z M 9.328125 -5 C 9.328125 -5.84375 9.160156 -6.582031 8.828125 -7.21875 C 8.503906 -7.863281 8.050781 -8.363281 7.46875 -8.71875 C 6.894531 -9.082031 6.226562 -9.265625 5.46875 -9.265625 C 4.71875 -9.265625 4.046875 -9.082031 3.453125 -8.71875 C 2.867188 -8.363281 2.410156 -7.863281 2.078125 -7.21875 C 1.753906 -6.582031 1.59375 -5.84375 1.59375 -5 C 1.59375 -4.144531 1.753906 -3.394531 2.078125 -2.75 C 2.410156 -2.113281 2.867188 -1.613281 3.453125 -1.25 C 4.046875 -0.894531 4.71875 -0.71875 5.46875 -0.71875 C 6.226562 -0.71875 6.894531 -0.894531 7.46875 -1.25 C 8.050781 -1.613281 8.503906 -2.113281 8.828125 -2.75 C 9.160156 -3.394531 9.328125 -4.144531 9.328125 -5 Z M 9.328125 -5 "/></g></g></g><g fill="#000000" fill-opacity="1"><g transform="translate(23.694156, 15.332707)"><g><path d="M 8.640625 -9.984375 C 8.765625 -9.984375 8.863281 -9.941406 8.9375 -9.859375 C 9.007812 -9.785156 9.046875 -9.695312 9.046875 -9.59375 L 9.046875 -0.453125 C 9.046875 -0.316406 9 -0.207031 8.90625 -0.125 C 8.8125 -0.0390625 8.710938 0 8.609375 0 C 8.546875 0 8.476562 -0.0078125 8.40625 -0.03125 C 8.34375 -0.0625 8.296875 -0.0976562 8.265625 -0.140625 L 1.890625 -8.71875 L 2.140625 -8.84375 L 2.140625 -0.390625 C 2.140625 -0.285156 2.097656 -0.191406 2.015625 -0.109375 C 1.941406 -0.0351562 1.847656 0 1.734375 0 C 1.617188 0 1.523438 -0.0351562 1.453125 -0.109375 C 1.378906 -0.191406 1.34375 -0.285156 1.34375 -0.390625 L 1.34375 -9.5625 C 1.34375 -9.695312 1.382812 -9.800781 1.46875 -9.875 C 1.550781 -9.945312 1.644531 -9.984375 1.75 -9.984375 C 1.8125 -9.984375 1.875 -9.972656 1.9375 -9.953125 C 2.007812 -9.929688 2.0625 -9.890625 2.09375 -9.828125 L 8.390625 -1.359375 L 8.25 -1.09375 L 8.25 -9.59375 C 8.25 -9.695312 8.285156 -9.785156 8.359375 -9.859375 C 8.441406 -9.941406 8.535156 -9.984375 8.640625 -9.984375 Z M 8.640625 -9.984375 "/></g></g></g><g fill="#000000" fill-opacity="1"><g transform="translate(34.078538, 15.332707)"><g><path d="M 5.40625 -9.984375 C 6.113281 -9.984375 6.726562 -9.847656 7.25 -9.578125 C 7.78125 -9.316406 8.21875 -8.953125 8.5625 -8.484375 C 8.90625 -8.015625 9.160156 -7.476562 9.328125 -6.875 C 9.492188 -6.28125 9.578125 -5.65625 9.578125 -5 C 9.578125 -4.082031 9.425781 -3.242188 9.125 -2.484375 C 8.820312 -1.734375 8.363281 -1.128906 7.75 -0.671875 C 7.132812 -0.222656 6.351562 0 5.40625 0 L 1.765625 0 C 1.648438 0 1.550781 -0.0390625 1.46875 -0.125 C 1.382812 -0.207031 1.34375 -0.304688 1.34375 -0.421875 L 1.34375 -9.5625 C 1.34375 -9.675781 1.382812 -9.773438 1.46875 -9.859375 C 1.550781 -9.941406 1.648438 -9.984375 1.765625 -9.984375 Z M 5.265625 -0.84375 C 6.066406 -0.84375 6.710938 -1.023438 7.203125 -1.390625 C 7.703125 -1.765625 8.066406 -2.269531 8.296875 -2.90625 C 8.535156 -3.539062 8.65625 -4.238281 8.65625 -5 C 8.65625 -5.550781 8.59375 -6.070312 8.46875 -6.5625 C 8.34375 -7.0625 8.140625 -7.503906 7.859375 -7.890625 C 7.585938 -8.273438 7.234375 -8.578125 6.796875 -8.796875 C 6.367188 -9.023438 5.859375 -9.140625 5.265625 -9.140625 L 2.140625 -9.140625 L 2.234375 -9.265625 L 2.234375 -0.703125 L 2.15625 -0.84375 Z M 5.265625 -0.84375 "/></g></g></g><g fill="#000000" fill-opacity="1"><g transform="translate(44.334545, 15.332707)"><g><path d="M 4.671875 -8.890625 L 1.21875 -0.265625 C 1.175781 -0.171875 1.117188 -0.0976562 1.046875 -0.046875 C 0.984375 -0.00390625 0.910156 0.015625 0.828125 0.015625 C 0.691406 0.015625 0.585938 -0.0195312 0.515625 -0.09375 C 0.453125 -0.164062 0.414062 -0.253906 0.40625 -0.359375 C 0.40625 -0.398438 0.410156 -0.457031 0.421875 -0.53125 L 4.1875 -9.75 C 4.238281 -9.851562 4.300781 -9.925781 4.375 -9.96875 C 4.445312 -10.007812 4.53125 -10.03125 4.625 -10.03125 C 4.71875 -10.03125 4.800781 -10.003906 4.875 -9.953125 C 4.945312 -9.898438 5 -9.832031 5.03125 -9.75 L 8.78125 -0.578125 C 8.800781 -0.515625 8.8125 -0.457031 8.8125 -0.40625 C 8.8125 -0.269531 8.769531 -0.164062 8.6875 -0.09375 C 8.601562 -0.0195312 8.503906 0.015625 8.390625 0.015625 C 8.296875 0.015625 8.210938 -0.0078125 8.140625 -0.0625 C 8.066406 -0.113281 8.007812 -0.179688 7.96875 -0.265625 L 4.421875 -8.9375 Z M 2.046875 -2.875 L 2.390625 -3.71875 L 6.8125 -3.71875 L 6.984375 -2.875 Z M 2.046875 -2.875 "/></g></g></g><g fill="#000000" fill-opacity="1"><g transform="translate(53.563523, 15.332707)"><g><path d="M 7.296875 -10.046875 C 7.410156 -10.046875 7.507812 -10 7.59375 -9.90625 C 7.675781 -9.8125 7.71875 -9.710938 7.71875 -9.609375 C 7.71875 -9.566406 7.707031 -9.523438 7.6875 -9.484375 C 7.675781 -9.441406 7.65625 -9.394531 7.625 -9.34375 L 4.28125 -4.734375 L 4.453125 -5.296875 L 4.453125 -0.421875 C 4.453125 -0.304688 4.40625 -0.207031 4.3125 -0.125 C 4.226562 -0.0390625 4.128906 0 4.015625 0 C 3.890625 0 3.785156 -0.0390625 3.703125 -0.125 C 3.617188 -0.207031 3.578125 -0.304688 3.578125 -0.421875 L 3.578125 -5.1875 L 3.65625 -4.84375 L 0.390625 -9.3125 C 0.347656 -9.363281 0.316406 -9.414062 0.296875 -9.46875 C 0.273438 -9.519531 0.265625 -9.566406 0.265625 -9.609375 C 0.265625 -9.734375 0.316406 -9.835938 0.421875 -9.921875 C 0.523438 -10.003906 0.628906 -10.046875 0.734375 -10.046875 C 0.867188 -10.046875 0.984375 -9.976562 1.078125 -9.84375 L 4.15625 -5.65625 L 3.9375 -5.6875 L 6.921875 -9.84375 C 7.015625 -9.976562 7.140625 -10.046875 7.296875 -10.046875 Z M 7.296875 -10.046875 "/></g></g></g></g></g><g transform="matrix(1, 0, 0, 1, 351, 16)"><g clip-path="url(#106008bb99)"><g fill="#000000" fill-opacity="1"><g transform="translate(0.885464, 15.332707)"><g><path d="M 4.3125 0 C 4.175781 0 4.066406 -0.0390625 3.984375 -0.125 C 3.898438 -0.207031 3.859375 -0.304688 3.859375 -0.421875 L 3.859375 -9.515625 L 4.75 -9.515625 L 4.75 -0.421875 C 4.75 -0.304688 4.707031 -0.207031 4.625 -0.125 C 4.539062 -0.0390625 4.4375 0 4.3125 0 Z M 0.90625 -9.171875 C 0.789062 -9.171875 0.691406 -9.207031 0.609375 -9.28125 C 0.523438 -9.363281 0.484375 -9.46875 0.484375 -9.59375 C 0.484375 -9.695312 0.523438 -9.785156 0.609375 -9.859375 C 0.691406 -9.941406 0.789062 -9.984375 0.90625 -9.984375 L 7.703125 -9.984375 C 7.816406 -9.984375 7.914062 -9.941406 8 -9.859375 C 8.082031 -9.785156 8.125 -9.691406 8.125 -9.578125 C 8.125 -9.453125 8.082031 -9.351562 8 -9.28125 C 7.914062 -9.207031 7.816406 -9.171875 7.703125 -9.171875 Z M 0.90625 -9.171875 "/></g></g></g><g fill="#000000" fill-opacity="1"><g transform="translate(9.501078, 15.332707)"><g><path d="M 8.40625 -9.984375 C 8.539062 -9.984375 8.644531 -9.941406 8.71875 -9.859375 C 8.789062 -9.785156 8.828125 -9.6875 8.828125 -9.5625 L 8.828125 -3.65625 C 8.828125 -2.945312 8.660156 -2.304688 8.328125 -1.734375 C 7.992188 -1.171875 7.546875 -0.71875 6.984375 -0.375 C 6.429688 -0.0390625 5.800781 0.125 5.09375 0.125 C 4.382812 0.125 3.75 -0.0390625 3.1875 -0.375 C 2.625 -0.71875 2.175781 -1.171875 1.84375 -1.734375 C 1.507812 -2.304688 1.34375 -2.945312 1.34375 -3.65625 L 1.34375 -9.5625 C 1.34375 -9.6875 1.378906 -9.785156 1.453125 -9.859375 C 1.535156 -9.941406 1.648438 -9.984375 1.796875 -9.984375 C 1.910156 -9.984375 2.007812 -9.941406 2.09375 -9.859375 C 2.175781 -9.785156 2.21875 -9.6875 2.21875 -9.5625 L 2.21875 -3.65625 C 2.21875 -3.101562 2.347656 -2.609375 2.609375 -2.171875 C 2.878906 -1.734375 3.234375 -1.382812 3.671875 -1.125 C 4.109375 -0.863281 4.582031 -0.734375 5.09375 -0.734375 C 5.625 -0.734375 6.109375 -0.863281 6.546875 -1.125 C 6.984375 -1.382812 7.332031 -1.734375 7.59375 -2.171875 C 7.851562 -2.609375 7.984375 -3.101562 7.984375 -3.65625 L 7.984375 -9.5625 C 7.984375 -9.6875 8.019531 -9.785156 8.09375 -9.859375 C 8.175781 -9.941406 8.28125 -9.984375 8.40625 -9.984375 Z M 8.40625 -9.984375 "/></g></g></g><g fill="#000000" fill-opacity="1"><g transform="translate(19.671495, 15.332707)"><g><path d="M 1.765625 -9.984375 L 7 -9.984375 C 7.113281 -9.984375 7.210938 -9.941406 7.296875 -9.859375 C 7.390625 -9.785156 7.4375 -9.6875 7.4375 -9.5625 C 7.4375 -9.4375 7.390625 -9.332031 7.296875 -9.25 C 7.210938 -9.175781 7.113281 -9.140625 7 -9.140625 L 2.09375 -9.140625 L 2.234375 -9.390625 L 2.234375 -5.375 L 2.078125 -5.5625 L 6.359375 -5.5625 C 6.472656 -5.5625 6.570312 -5.519531 6.65625 -5.4375 C 6.75 -5.351562 6.796875 -5.253906 6.796875 -5.140625 C 6.796875 -5.015625 6.75 -4.910156 6.65625 -4.828125 C 6.570312 -4.753906 6.472656 -4.71875 6.359375 -4.71875 L 2.109375 -4.71875 L 2.234375 -4.859375 L 2.234375 -0.75 L 2.171875 -0.84375 L 7 -0.84375 C 7.113281 -0.84375 7.210938 -0.796875 7.296875 -0.703125 C 7.390625 -0.617188 7.4375 -0.519531 7.4375 -0.40625 C 7.4375 -0.289062 7.390625 -0.191406 7.296875 -0.109375 C 7.210938 -0.0351562 7.113281 0 7 0 L 1.765625 0 C 1.648438 0 1.550781 -0.0390625 1.46875 -0.125 C 1.382812 -0.207031 1.34375 -0.304688 1.34375 -0.421875 L 1.34375 -9.5625 C 1.34375 -9.675781 1.382812 -9.773438 1.46875 -9.859375 C 1.550781 -9.941406 1.648438 -9.984375 1.765625 -9.984375 Z M 1.765625 -9.984375 "/></g></g></g><g fill="#000000" fill-opacity="1"><g transform="translate(27.773595, 15.332707)"><g><path d="M 4.09375 0.140625 C 3.375 0.148438 2.742188 0.0351562 2.203125 -0.203125 C 1.671875 -0.441406 1.164062 -0.796875 0.6875 -1.265625 C 0.632812 -1.304688 0.59375 -1.351562 0.5625 -1.40625 C 0.53125 -1.46875 0.515625 -1.535156 0.515625 -1.609375 C 0.515625 -1.722656 0.554688 -1.828125 0.640625 -1.921875 C 0.734375 -2.015625 0.835938 -2.0625 0.953125 -2.0625 C 1.066406 -2.0625 1.171875 -2.015625 1.265625 -1.921875 C 1.640625 -1.523438 2.0625 -1.222656 2.53125 -1.015625 C 3 -0.804688 3.503906 -0.703125 4.046875 -0.703125 C 4.503906 -0.703125 4.910156 -0.769531 5.265625 -0.90625 C 5.628906 -1.050781 5.914062 -1.253906 6.125 -1.515625 C 6.332031 -1.785156 6.4375 -2.097656 6.4375 -2.453125 C 6.4375 -2.890625 6.316406 -3.242188 6.078125 -3.515625 C 5.835938 -3.785156 5.519531 -4.007812 5.125 -4.1875 C 4.738281 -4.363281 4.3125 -4.523438 3.84375 -4.671875 C 3.445312 -4.785156 3.070312 -4.914062 2.71875 -5.0625 C 2.375 -5.207031 2.0625 -5.382812 1.78125 -5.59375 C 1.507812 -5.8125 1.296875 -6.078125 1.140625 -6.390625 C 0.984375 -6.703125 0.90625 -7.082031 0.90625 -7.53125 C 0.90625 -8.03125 1.039062 -8.472656 1.3125 -8.859375 C 1.582031 -9.253906 1.960938 -9.5625 2.453125 -9.78125 C 2.941406 -10.007812 3.507812 -10.125 4.15625 -10.125 C 4.71875 -10.125 5.253906 -10.03125 5.765625 -9.84375 C 6.285156 -9.65625 6.695312 -9.375 7 -9 C 7.144531 -8.84375 7.21875 -8.707031 7.21875 -8.59375 C 7.21875 -8.488281 7.171875 -8.390625 7.078125 -8.296875 C 6.984375 -8.203125 6.878906 -8.15625 6.765625 -8.15625 C 6.671875 -8.15625 6.585938 -8.191406 6.515625 -8.265625 C 6.359375 -8.460938 6.15625 -8.640625 5.90625 -8.796875 C 5.65625 -8.953125 5.378906 -9.070312 5.078125 -9.15625 C 4.785156 -9.238281 4.476562 -9.28125 4.15625 -9.28125 C 3.707031 -9.28125 3.300781 -9.210938 2.9375 -9.078125 C 2.582031 -8.941406 2.300781 -8.742188 2.09375 -8.484375 C 1.894531 -8.234375 1.796875 -7.925781 1.796875 -7.5625 C 1.796875 -7.164062 1.910156 -6.835938 2.140625 -6.578125 C 2.367188 -6.316406 2.664062 -6.101562 3.03125 -5.9375 C 3.40625 -5.769531 3.800781 -5.617188 4.21875 -5.484375 C 4.632812 -5.367188 5.03125 -5.234375 5.40625 -5.078125 C 5.78125 -4.929688 6.109375 -4.75 6.390625 -4.53125 C 6.679688 -4.3125 6.910156 -4.035156 7.078125 -3.703125 C 7.242188 -3.367188 7.328125 -2.953125 7.328125 -2.453125 C 7.328125 -1.960938 7.1875 -1.523438 6.90625 -1.140625 C 6.632812 -0.753906 6.257812 -0.445312 5.78125 -0.21875 C 5.300781 0.0078125 4.738281 0.128906 4.09375 0.140625 Z M 4.09375 0.140625 "/></g></g></g><g fill="#000000" fill-opacity="1"><g transform="translate(35.790112, 15.332707)"><g><path d="M 5.40625 -9.984375 C 6.113281 -9.984375 6.726562 -9.847656 7.25 -9.578125 C 7.78125 -9.316406 8.21875 -8.953125 8.5625 -8.484375 C 8.90625 -8.015625 9.160156 -7.476562 9.328125 -6.875 C 9.492188 -6.28125 9.578125 -5.65625 9.578125 -5 C 9.578125 -4.082031 9.425781 -3.242188 9.125 -2.484375 C 8.820312 -1.734375 8.363281 -1.128906 7.75 -0.671875 C 7.132812 -0.222656 6.351562 0 5.40625 0 L 1.765625 0 C 1.648438 0 1.550781 -0.0390625 1.46875 -0.125 C 1.382812 -0.207031 1.34375 -0.304688 1.34375 -0.421875 L 1.34375 -9.5625 C 1.34375 -9.675781 1.382812 -9.773438 1.46875 -9.859375 C 1.550781 -9.941406 1.648438 -9.984375 1.765625 -9.984375 Z M 5.265625 -0.84375 C 6.066406 -0.84375 6.710938 -1.023438 7.203125 -1.390625 C 7.703125 -1.765625 8.066406 -2.269531 8.296875 -2.90625 C 8.535156 -3.539062 8.65625 -4.238281 8.65625 -5 C 8.65625 -5.550781 8.59375 -6.070312 8.46875 -6.5625 C 8.34375 -7.0625 8.140625 -7.503906 7.859375 -7.890625 C 7.585938 -8.273438 7.234375 -8.578125 6.796875 -8.796875 C 6.367188 -9.023438 5.859375 -9.140625 5.265625 -9.140625 L 2.140625 -9.140625 L 2.234375 -9.265625 L 2.234375 -0.703125 L 2.15625 -0.84375 Z M 5.265625 -0.84375 "/></g></g></g><g fill="#000000" fill-opacity="1"><g transform="translate(46.046119, 15.332707)"><g><path d="M 4.671875 -8.890625 L 1.21875 -0.265625 C 1.175781 -0.171875 1.117188 -0.0976562 1.046875 -0.046875 C 0.984375 -0.00390625 0.910156 0.015625 0.828125 0.015625 C 0.691406 0.015625 0.585938 -0.0195312 0.515625 -0.09375 C 0.453125 -0.164062 0.414062 -0.253906 0.40625 -0.359375 C 0.40625 -0.398438 0.410156 -0.457031 0.421875 -0.53125 L 4.1875 -9.75 C 4.238281 -9.851562 4.300781 -9.925781 4.375 -9.96875 C 4.445312 -10.007812 4.53125 -10.03125 4.625 -10.03125 C 4.71875 -10.03125 4.800781 -10.003906 4.875 -9.953125 C 4.945312 -9.898438 5 -9.832031 5.03125 -9.75 L 8.78125 -0.578125 C 8.800781 -0.515625 8.8125 -0.457031 8.8125 -0.40625 C 8.8125 -0.269531 8.769531 -0.164062 8.6875 -0.09375 C 8.601562 -0.0195312 8.503906 0.015625 8.390625 0.015625 C 8.296875 0.015625 8.210938 -0.0078125 8.140625 -0.0625 C 8.066406 -0.113281 8.007812 -0.179688 7.96875 -0.265625 L 4.421875 -8.9375 Z M 2.046875 -2.875 L 2.390625 -3.71875 L 6.8125 -3.71875 L 6.984375 -2.875 Z M 2.046875 -2.875 "/></g></g></g><g fill="#000000" fill-opacity="1"><g transform="translate(55.275097, 15.332707)"><g><path d="M 7.296875 -10.046875 C 7.410156 -10.046875 7.507812 -10 7.59375 -9.90625 C 7.675781 -9.8125 7.71875 -9.710938 7.71875 -9.609375 C 7.71875 -9.566406 7.707031 -9.523438 7.6875 -9.484375 C 7.675781 -9.441406 7.65625 -9.394531 7.625 -9.34375 L 4.28125 -4.734375 L 4.453125 -5.296875 L 4.453125 -0.421875 C 4.453125 -0.304688 4.40625 -0.207031 4.3125 -0.125 C 4.226562 -0.0390625 4.128906 0 4.015625 0 C 3.890625 0 3.785156 -0.0390625 3.703125 -0.125 C 3.617188 -0.207031 3.578125 -0.304688 3.578125 -0.421875 L 3.578125 -5.1875 L 3.65625 -4.84375 L 0.390625 -9.3125 C 0.347656 -9.363281 0.316406 -9.414062 0.296875 -9.46875 C 0.273438 -9.519531 0.265625 -9.566406 0.265625 -9.609375 C 0.265625 -9.734375 0.316406 -9.835938 0.421875 -9.921875 C 0.523438 -10.003906 0.628906 -10.046875 0.734375 -10.046875 C 0.867188 -10.046875 0.984375 -9.976562 1.078125 -9.84375 L 4.15625 -5.65625 L 3.9375 -5.6875 L 6.921875 -9.84375 C 7.015625 -9.976562 7.140625 -10.046875 7.296875 -10.046875 Z M 7.296875 -10.046875 "/></g></g></g></g></g><g transform="matrix(1, 0, 0, 1, 448, 16)"><g clip-path="url(#38b89f1b76)"><g fill="#000000" fill-opacity="1"><g transform="translate(0.830952, 15.332707)"><g><path d="M 12.890625 -10.015625 C 13.015625 -10.015625 13.125 -9.976562 13.21875 -9.90625 C 13.3125 -9.832031 13.359375 -9.726562 13.359375 -9.59375 C 13.359375 -9.539062 13.347656 -9.476562 13.328125 -9.40625 L 10.171875 -0.265625 C 10.140625 -0.179688 10.085938 -0.113281 10.015625 -0.0625 C 9.941406 -0.0195312 9.863281 0 9.78125 0 C 9.6875 0 9.601562 -0.0195312 9.53125 -0.0625 C 9.457031 -0.101562 9.398438 -0.171875 9.359375 -0.265625 L 6.828125 -6.515625 L 6.953125 -6.484375 L 4.421875 -0.265625 C 4.378906 -0.171875 4.316406 -0.101562 4.234375 -0.0625 C 4.160156 -0.0195312 4.082031 0 4 0 C 3.914062 0 3.835938 -0.0195312 3.765625 -0.0625 C 3.703125 -0.113281 3.65625 -0.179688 3.625 -0.265625 L 0.46875 -9.40625 C 0.4375 -9.476562 0.421875 -9.535156 0.421875 -9.578125 C 0.421875 -9.710938 0.472656 -9.816406 0.578125 -9.890625 C 0.679688 -9.972656 0.789062 -10.015625 0.90625 -10.015625 C 1 -10.015625 1.082031 -9.988281 1.15625 -9.9375 C 1.226562 -9.894531 1.28125 -9.832031 1.3125 -9.75 L 4.1875 -1.390625 L 4.015625 -1.375 L 6.5 -7.5625 C 6.53125 -7.644531 6.582031 -7.710938 6.65625 -7.765625 C 6.726562 -7.816406 6.8125 -7.835938 6.90625 -7.828125 C 7 -7.835938 7.082031 -7.816406 7.15625 -7.765625 C 7.226562 -7.710938 7.28125 -7.644531 7.3125 -7.5625 L 9.765625 -1.390625 L 9.609375 -1.34375 L 12.46875 -9.75 C 12.5 -9.832031 12.550781 -9.894531 12.625 -9.9375 C 12.695312 -9.988281 12.785156 -10.015625 12.890625 -10.015625 Z M 12.890625 -10.015625 "/></g></g></g><g fill="#000000" fill-opacity="1"><g transform="translate(14.610228, 15.332707)"><g><path d="M 1.765625 -9.984375 L 7 -9.984375 C 7.113281 -9.984375 7.210938 -9.941406 7.296875 -9.859375 C 7.390625 -9.785156 7.4375 -9.6875 7.4375 -9.5625 C 7.4375 -9.4375 7.390625 -9.332031 7.296875 -9.25 C 7.210938 -9.175781 7.113281 -9.140625 7 -9.140625 L 2.09375 -9.140625 L 2.234375 -9.390625 L 2.234375 -5.375 L 2.078125 -5.5625 L 6.359375 -5.5625 C 6.472656 -5.5625 6.570312 -5.519531 6.65625 -5.4375 C 6.75 -5.351562 6.796875 -5.253906 6.796875 -5.140625 C 6.796875 -5.015625 6.75 -4.910156 6.65625 -4.828125 C 6.570312 -4.753906 6.472656 -4.71875 6.359375 -4.71875 L 2.109375 -4.71875 L 2.234375 -4.859375 L 2.234375 -0.75 L 2.171875 -0.84375 L 7 -0.84375 C 7.113281 -0.84375 7.210938 -0.796875 7.296875 -0.703125 C 7.390625 -0.617188 7.4375 -0.519531 7.4375 -0.40625 C 7.4375 -0.289062 7.390625 -0.191406 7.296875 -0.109375 C 7.210938 -0.0351562 7.113281 0 7 0 L 1.765625 0 C 1.648438 0 1.550781 -0.0390625 1.46875 -0.125 C 1.382812 -0.207031 1.34375 -0.304688 1.34375 -0.421875 L 1.34375 -9.5625 C 1.34375 -9.675781 1.382812 -9.773438 1.46875 -9.859375 C 1.550781 -9.941406 1.648438 -9.984375 1.765625 -9.984375 Z M 1.765625 -9.984375 "/></g></g></g><g fill="#000000" fill-opacity="1"><g transform="translate(22.712328, 15.332707)"><g><path d="M 5.40625 -9.984375 C 6.113281 -9.984375 6.726562 -9.847656 7.25 -9.578125 C 7.78125 -9.316406 8.21875 -8.953125 8.5625 -8.484375 C 8.90625 -8.015625 9.160156 -7.476562 9.328125 -6.875 C 9.492188 -6.28125 9.578125 -5.65625 9.578125 -5 C 9.578125 -4.082031 9.425781 -3.242188 9.125 -2.484375 C 8.820312 -1.734375 8.363281 -1.128906 7.75 -0.671875 C 7.132812 -0.222656 6.351562 0 5.40625 0 L 1.765625 0 C 1.648438 0 1.550781 -0.0390625 1.46875 -0.125 C 1.382812 -0.207031 1.34375 -0.304688 1.34375 -0.421875 L 1.34375 -9.5625 C 1.34375 -9.675781 1.382812 -9.773438 1.46875 -9.859375 C 1.550781 -9.941406 1.648438 -9.984375 1.765625 -9.984375 Z M 5.265625 -0.84375 C 6.066406 -0.84375 6.710938 -1.023438 7.203125 -1.390625 C 7.703125 -1.765625 8.066406 -2.269531 8.296875 -2.90625 C 8.535156 -3.539062 8.65625 -4.238281 8.65625 -5 C 8.65625 -5.550781 8.59375 -6.070312 8.46875 -6.5625 C 8.34375 -7.0625 8.140625 -7.503906 7.859375 -7.890625 C 7.585938 -8.273438 7.234375 -8.578125 6.796875 -8.796875 C 6.367188 -9.023438 5.859375 -9.140625 5.265625 -9.140625 L 2.140625 -9.140625 L 2.234375 -9.265625 L 2.234375 -0.703125 L 2.15625 -0.84375 Z M 5.265625 -0.84375 "/></g></g></g><g fill="#000000" fill-opacity="1"><g transform="translate(32.968336, 15.332707)"><g><path d="M 8.640625 -9.984375 C 8.765625 -9.984375 8.863281 -9.941406 8.9375 -9.859375 C 9.007812 -9.785156 9.046875 -9.695312 9.046875 -9.59375 L 9.046875 -0.453125 C 9.046875 -0.316406 9 -0.207031 8.90625 -0.125 C 8.8125 -0.0390625 8.710938 0 8.609375 0 C 8.546875 0 8.476562 -0.0078125 8.40625 -0.03125 C 8.34375 -0.0625 8.296875 -0.0976562 8.265625 -0.140625 L 1.890625 -8.71875 L 2.140625 -8.84375 L 2.140625 -0.390625 C 2.140625 -0.285156 2.097656 -0.191406 2.015625 -0.109375 C 1.941406 -0.0351562 1.847656 0 1.734375 0 C 1.617188 0 1.523438 -0.0351562 1.453125 -0.109375 C 1.378906 -0.191406 1.34375 -0.285156 1.34375 -0.390625 L 1.34375 -9.5625 C 1.34375 -9.695312 1.382812 -9.800781 1.46875 -9.875 C 1.550781 -9.945312 1.644531 -9.984375 1.75 -9.984375 C 1.8125 -9.984375 1.875 -9.972656 1.9375 -9.953125 C 2.007812 -9.929688 2.0625 -9.890625 2.09375 -9.828125 L 8.390625 -1.359375 L 8.25 -1.09375 L 8.25 -9.59375 C 8.25 -9.695312 8.285156 -9.785156 8.359375 -9.859375 C 8.441406 -9.941406 8.535156 -9.984375 8.640625 -9.984375 Z M 8.640625 -9.984375 "/></g></g></g><g fill="#000000" fill-opacity="1"><g transform="translate(43.352718, 15.332707)"><g><path d="M 1.765625 -9.984375 L 7 -9.984375 C 7.113281 -9.984375 7.210938 -9.941406 7.296875 -9.859375 C 7.390625 -9.785156 7.4375 -9.6875 7.4375 -9.5625 C 7.4375 -9.4375 7.390625 -9.332031 7.296875 -9.25 C 7.210938 -9.175781 7.113281 -9.140625 7 -9.140625 L 2.09375 -9.140625 L 2.234375 -9.390625 L 2.234375 -5.375 L 2.078125 -5.5625 L 6.359375 -5.5625 C 6.472656 -5.5625 6.570312 -5.519531 6.65625 -5.4375 C 6.75 -5.351562 6.796875 -5.253906 6.796875 -5.140625 C 6.796875 -5.015625 6.75 -4.910156 6.65625 -4.828125 C 6.570312 -4.753906 6.472656 -4.71875 6.359375 -4.71875 L 2.109375 -4.71875 L 2.234375 -4.859375 L 2.234375 -0.75 L 2.171875 -0.84375 L 7 -0.84375 C 7.113281 -0.84375 7.210938 -0.796875 7.296875 -0.703125 C 7.390625 -0.617188 7.4375 -0.519531 7.4375 -0.40625 C 7.4375 -0.289062 7.390625 -0.191406 7.296875 -0.109375 C 7.210938 -0.0351562 7.113281 0 7 0 L 1.765625 0 C 1.648438 0 1.550781 -0.0390625 1.46875 -0.125 C 1.382812 -0.207031 1.34375 -0.304688 1.34375 -0.421875 L 1.34375 -9.5625 C 1.34375 -9.675781 1.382812 -9.773438 1.46875 -9.859375 C 1.550781 -9.941406 1.648438 -9.984375 1.765625 -9.984375 Z M 1.765625 -9.984375 "/></g></g></g><g fill="#000000" fill-opacity="1"><g transform="translate(51.454818, 15.332707)"><g><path d="M 4.09375 0.140625 C 3.375 0.148438 2.742188 0.0351562 2.203125 -0.203125 C 1.671875 -0.441406 1.164062 -0.796875 0.6875 -1.265625 C 0.632812 -1.304688 0.59375 -1.351562 0.5625 -1.40625 C 0.53125 -1.46875 0.515625 -1.535156 0.515625 -1.609375 C 0.515625 -1.722656 0.554688 -1.828125 0.640625 -1.921875 C 0.734375 -2.015625 0.835938 -2.0625 0.953125 -2.0625 C 1.066406 -2.0625 1.171875 -2.015625 1.265625 -1.921875 C 1.640625 -1.523438 2.0625 -1.222656 2.53125 -1.015625 C 3 -0.804688 3.503906 -0.703125 4.046875 -0.703125 C 4.503906 -0.703125 4.910156 -0.769531 5.265625 -0.90625 C 5.628906 -1.050781 5.914062 -1.253906 6.125 -1.515625 C 6.332031 -1.785156 6.4375 -2.097656 6.4375 -2.453125 C 6.4375 -2.890625 6.316406 -3.242188 6.078125 -3.515625 C 5.835938 -3.785156 5.519531 -4.007812 5.125 -4.1875 C 4.738281 -4.363281 4.3125 -4.523438 3.84375 -4.671875 C 3.445312 -4.785156 3.070312 -4.914062 2.71875 -5.0625 C 2.375 -5.207031 2.0625 -5.382812 1.78125 -5.59375 C 1.507812 -5.8125 1.296875 -6.078125 1.140625 -6.390625 C 0.984375 -6.703125 0.90625 -7.082031 0.90625 -7.53125 C 0.90625 -8.03125 1.039062 -8.472656 1.3125 -8.859375 C 1.582031 -9.253906 1.960938 -9.5625 2.453125 -9.78125 C 2.941406 -10.007812 3.507812 -10.125 4.15625 -10.125 C 4.71875 -10.125 5.253906 -10.03125 5.765625 -9.84375 C 6.285156 -9.65625 6.695312 -9.375 7 -9 C 7.144531 -8.84375 7.21875 -8.707031 7.21875 -8.59375 C 7.21875 -8.488281 7.171875 -8.390625 7.078125 -8.296875 C 6.984375 -8.203125 6.878906 -8.15625 6.765625 -8.15625 C 6.671875 -8.15625 6.585938 -8.191406 6.515625 -8.265625 C 6.359375 -8.460938 6.15625 -8.640625 5.90625 -8.796875 C 5.65625 -8.953125 5.378906 -9.070312 5.078125 -9.15625 C 4.785156 -9.238281 4.476562 -9.28125 4.15625 -9.28125 C 3.707031 -9.28125 3.300781 -9.210938 2.9375 -9.078125 C 2.582031 -8.941406 2.300781 -8.742188 2.09375 -8.484375 C 1.894531 -8.234375 1.796875 -7.925781 1.796875 -7.5625 C 1.796875 -7.164062 1.910156 -6.835938 2.140625 -6.578125 C 2.367188 -6.316406 2.664062 -6.101562 3.03125 -5.9375 C 3.40625 -5.769531 3.800781 -5.617188 4.21875 -5.484375 C 4.632812 -5.367188 5.03125 -5.234375 5.40625 -5.078125 C 5.78125 -4.929688 6.109375 -4.75 6.390625 -4.53125 C 6.679688 -4.3125 6.910156 -4.035156 7.078125 -3.703125 C 7.242188 -3.367188 7.328125 -2.953125 7.328125 -2.453125 C 7.328125 -1.960938 7.1875 -1.523438 6.90625 -1.140625 C 6.632812 -0.753906 6.257812 -0.445312 5.78125 -0.21875 C 5.300781 0.0078125 4.738281 0.128906 4.09375 0.140625 Z M 4.09375 0.140625 "/></g></g></g><g fill="#000000" fill-opacity="1"><g transform="translate(59.471334, 15.332707)"><g><path d="M 5.40625 -9.984375 C 6.113281 -9.984375 6.726562 -9.847656 7.25 -9.578125 C 7.78125 -9.316406 8.21875 -8.953125 8.5625 -8.484375 C 8.90625 -8.015625 9.160156 -7.476562 9.328125 -6.875 C 9.492188 -6.28125 9.578125 -5.65625 9.578125 -5 C 9.578125 -4.082031 9.425781 -3.242188 9.125 -2.484375 C 8.820312 -1.734375 8.363281 -1.128906 7.75 -0.671875 C 7.132812 -0.222656 6.351562 0 5.40625 0 L 1.765625 0 C 1.648438 0 1.550781 -0.0390625 1.46875 -0.125 C 1.382812 -0.207031 1.34375 -0.304688 1.34375 -0.421875 L 1.34375 -9.5625 C 1.34375 -9.675781 1.382812 -9.773438 1.46875 -9.859375 C 1.550781 -9.941406 1.648438 -9.984375 1.765625 -9.984375 Z M 5.265625 -0.84375 C 6.066406 -0.84375 6.710938 -1.023438 7.203125 -1.390625 C 7.703125 -1.765625 8.066406 -2.269531 8.296875 -2.90625 C 8.535156 -3.539062 8.65625 -4.238281 8.65625 -5 C 8.65625 -5.550781 8.59375 -6.070312 8.46875 -6.5625 C 8.34375 -7.0625 8.140625 -7.503906 7.859375 -7.890625 C 7.585938 -8.273438 7.234375 -8.578125 6.796875 -8.796875 C 6.367188 -9.023438 5.859375 -9.140625 5.265625 -9.140625 L 2.140625 -9.140625 L 2.234375 -9.265625 L 2.234375 -0.703125 L 2.15625 -0.84375 Z M 5.265625 -0.84375 "/></g></g></g><g fill="#000000" fill-opacity="1"><g transform="translate(69.727342, 15.332707)"><g><path d="M 4.671875 -8.890625 L 1.21875 -0.265625 C 1.175781 -0.171875 1.117188 -0.0976562 1.046875 -0.046875 C 0.984375 -0.00390625 0.910156 0.015625 0.828125 0.015625 C 0.691406 0.015625 0.585938 -0.0195312 0.515625 -0.09375 C 0.453125 -0.164062 0.414062 -0.253906 0.40625 -0.359375 C 0.40625 -0.398438 0.410156 -0.457031 0.421875 -0.53125 L 4.1875 -9.75 C 4.238281 -9.851562 4.300781 -9.925781 4.375 -9.96875 C 4.445312 -10.007812 4.53125 -10.03125 4.625 -10.03125 C 4.71875 -10.03125 4.800781 -10.003906 4.875 -9.953125 C 4.945312 -9.898438 5 -9.832031 5.03125 -9.75 L 8.78125 -0.578125 C 8.800781 -0.515625 8.8125 -0.457031 8.8125 -0.40625 C 8.8125 -0.269531 8.769531 -0.164062 8.6875 -0.09375 C 8.601562 -0.0195312 8.503906 0.015625 8.390625 0.015625 C 8.296875 0.015625 8.210938 -0.0078125 8.140625 -0.0625 C 8.066406 -0.113281 8.007812 -0.179688 7.96875 -0.265625 L 4.421875 -8.9375 Z M 2.046875 -2.875 L 2.390625 -3.71875 L 6.8125 -3.71875 L 6.984375 -2.875 Z M 2.046875 -2.875 "/></g></g></g><g fill="#000000" fill-opacity="1"><g transform="translate(78.95632, 15.332707)"><g><path d="M 7.296875 -10.046875 C 7.410156 -10.046875 7.507812 -10 7.59375 -9.90625 C 7.675781 -9.8125 7.71875 -9.710938 7.71875 -9.609375 C 7.71875 -9.566406 7.707031 -9.523438 7.6875 -9.484375 C 7.675781 -9.441406 7.65625 -9.394531 7.625 -9.34375 L 4.28125 -4.734375 L 4.453125 -5.296875 L 4.453125 -0.421875 C 4.453125 -0.304688 4.40625 -0.207031 4.3125 -0.125 C 4.226562 -0.0390625 4.128906 0 4.015625 0 C 3.890625 0 3.785156 -0.0390625 3.703125 -0.125 C 3.617188 -0.207031 3.578125 -0.304688 3.578125 -0.421875 L 3.578125 -5.1875 L 3.65625 -4.84375 L 0.390625 -9.3125 C 0.347656 -9.363281 0.316406 -9.414062 0.296875 -9.46875 C 0.273438 -9.519531 0.265625 -9.566406 0.265625 -9.609375 C 0.265625 -9.734375 0.316406 -9.835938 0.421875 -9.921875 C 0.523438 -10.003906 0.628906 -10.046875 0.734375 -10.046875 C 0.867188 -10.046875 0.984375 -9.976562 1.078125 -9.84375 L 4.15625 -5.65625 L 3.9375 -5.6875 L 6.921875 -9.84375 C 7.015625 -9.976562 7.140625 -10.046875 7.296875 -10.046875 Z M 7.296875 -10.046875 "/></g></g></g></g></g><g transform="matrix(1, 0, 0, 1, 563, 16)"><g clip-path="url(#55f1351bea)"><g fill="#000000" fill-opacity="1"><g transform="translate(0.652542, 15.332707)"><g><path d="M 4.3125 0 C 4.175781 0 4.066406 -0.0390625 3.984375 -0.125 C 3.898438 -0.207031 3.859375 -0.304688 3.859375 -0.421875 L 3.859375 -9.515625 L 4.75 -9.515625 L 4.75 -0.421875 C 4.75 -0.304688 4.707031 -0.207031 4.625 -0.125 C 4.539062 -0.0390625 4.4375 0 4.3125 0 Z M 0.90625 -9.171875 C 0.789062 -9.171875 0.691406 -9.207031 0.609375 -9.28125 C 0.523438 -9.363281 0.484375 -9.46875 0.484375 -9.59375 C 0.484375 -9.695312 0.523438 -9.785156 0.609375 -9.859375 C 0.691406 -9.941406 0.789062 -9.984375 0.90625 -9.984375 L 7.703125 -9.984375 C 7.816406 -9.984375 7.914062 -9.941406 8 -9.859375 C 8.082031 -9.785156 8.125 -9.691406 8.125 -9.578125 C 8.125 -9.453125 8.082031 -9.351562 8 -9.28125 C 7.914062 -9.207031 7.816406 -9.171875 7.703125 -9.171875 Z M 0.90625 -9.171875 "/></g></g></g><g fill="#000000" fill-opacity="1"><g transform="translate(9.268157, 15.332707)"><g><path d="M 1.796875 -9.984375 C 1.910156 -9.984375 2.007812 -9.941406 2.09375 -9.859375 C 2.1875 -9.773438 2.234375 -9.671875 2.234375 -9.546875 L 2.234375 -0.4375 C 2.222656 -0.3125 2.171875 -0.207031 2.078125 -0.125 C 1.992188 -0.0390625 1.894531 0 1.78125 0 C 1.644531 0 1.535156 -0.0390625 1.453125 -0.125 C 1.378906 -0.207031 1.34375 -0.3125 1.34375 -0.4375 L 1.34375 -9.546875 C 1.34375 -9.671875 1.382812 -9.773438 1.46875 -9.859375 C 1.550781 -9.941406 1.660156 -9.984375 1.796875 -9.984375 Z M 8.484375 -9.984375 C 8.617188 -9.984375 8.726562 -9.941406 8.8125 -9.859375 C 8.894531 -9.773438 8.9375 -9.671875 8.9375 -9.546875 L 8.9375 -0.4375 C 8.925781 -0.3125 8.878906 -0.207031 8.796875 -0.125 C 8.710938 -0.0390625 8.601562 0 8.46875 0 C 8.34375 0 8.238281 -0.0390625 8.15625 -0.125 C 8.070312 -0.207031 8.03125 -0.3125 8.03125 -0.4375 L 8.03125 -9.546875 C 8.03125 -9.671875 8.070312 -9.773438 8.15625 -9.859375 C 8.25 -9.941406 8.359375 -9.984375 8.484375 -9.984375 Z M 1.71875 -5.515625 L 8.5 -5.515625 L 8.484375 -4.6875 L 1.671875 -4.6875 Z M 1.71875 -5.515625 "/></g></g></g><g fill="#000000" fill-opacity="1"><g transform="translate(19.53843, 15.332707)"><g><path d="M 8.40625 -9.984375 C 8.539062 -9.984375 8.644531 -9.941406 8.71875 -9.859375 C 8.789062 -9.785156 8.828125 -9.6875 8.828125 -9.5625 L 8.828125 -3.65625 C 8.828125 -2.945312 8.660156 -2.304688 8.328125 -1.734375 C 7.992188 -1.171875 7.546875 -0.71875 6.984375 -0.375 C 6.429688 -0.0390625 5.800781 0.125 5.09375 0.125 C 4.382812 0.125 3.75 -0.0390625 3.1875 -0.375 C 2.625 -0.71875 2.175781 -1.171875 1.84375 -1.734375 C 1.507812 -2.304688 1.34375 -2.945312 1.34375 -3.65625 L 1.34375 -9.5625 C 1.34375 -9.6875 1.378906 -9.785156 1.453125 -9.859375 C 1.535156 -9.941406 1.648438 -9.984375 1.796875 -9.984375 C 1.910156 -9.984375 2.007812 -9.941406 2.09375 -9.859375 C 2.175781 -9.785156 2.21875 -9.6875 2.21875 -9.5625 L 2.21875 -3.65625 C 2.21875 -3.101562 2.347656 -2.609375 2.609375 -2.171875 C 2.878906 -1.734375 3.234375 -1.382812 3.671875 -1.125 C 4.109375 -0.863281 4.582031 -0.734375 5.09375 -0.734375 C 5.625 -0.734375 6.109375 -0.863281 6.546875 -1.125 C 6.984375 -1.382812 7.332031 -1.734375 7.59375 -2.171875 C 7.851562 -2.609375 7.984375 -3.101562 7.984375 -3.65625 L 7.984375 -9.5625 C 7.984375 -9.6875 8.019531 -9.785156 8.09375 -9.859375 C 8.175781 -9.941406 8.28125 -9.984375 8.40625 -9.984375 Z M 8.40625 -9.984375 "/></g></g></g><g fill="#000000" fill-opacity="1"><g transform="translate(29.708847, 15.332707)"><g><path d="M 1.828125 0 C 1.679688 0 1.5625 -0.0390625 1.46875 -0.125 C 1.382812 -0.207031 1.34375 -0.304688 1.34375 -0.421875 L 1.34375 -9.5625 C 1.34375 -9.675781 1.382812 -9.773438 1.46875 -9.859375 C 1.550781 -9.941406 1.648438 -9.984375 1.765625 -9.984375 L 5.625 -9.984375 C 6.164062 -9.984375 6.648438 -9.863281 7.078125 -9.625 C 7.503906 -9.394531 7.835938 -9.078125 8.078125 -8.671875 C 8.316406 -8.265625 8.4375 -7.804688 8.4375 -7.296875 C 8.4375 -6.867188 8.359375 -6.476562 8.203125 -6.125 C 8.054688 -5.78125 7.84375 -5.484375 7.5625 -5.234375 C 7.289062 -4.992188 6.984375 -4.816406 6.640625 -4.703125 L 6.15625 -4.859375 C 6.5 -4.835938 6.820312 -4.726562 7.125 -4.53125 C 7.4375 -4.332031 7.679688 -4.0625 7.859375 -3.71875 C 8.046875 -3.382812 8.144531 -2.984375 8.15625 -2.515625 C 8.164062 -2.097656 8.1875 -1.773438 8.21875 -1.546875 C 8.257812 -1.328125 8.3125 -1.160156 8.375 -1.046875 C 8.4375 -0.929688 8.519531 -0.835938 8.625 -0.765625 C 8.71875 -0.710938 8.78125 -0.632812 8.8125 -0.53125 C 8.851562 -0.425781 8.84375 -0.328125 8.78125 -0.234375 C 8.75 -0.148438 8.695312 -0.09375 8.625 -0.0625 C 8.550781 -0.03125 8.472656 -0.015625 8.390625 -0.015625 C 8.316406 -0.015625 8.242188 -0.0351562 8.171875 -0.078125 C 8.035156 -0.148438 7.898438 -0.265625 7.765625 -0.421875 C 7.628906 -0.585938 7.515625 -0.828125 7.421875 -1.140625 C 7.335938 -1.453125 7.296875 -1.890625 7.296875 -2.453125 C 7.296875 -2.828125 7.234375 -3.128906 7.109375 -3.359375 C 6.992188 -3.597656 6.84375 -3.78125 6.65625 -3.90625 C 6.46875 -4.039062 6.257812 -4.132812 6.03125 -4.1875 C 5.8125 -4.238281 5.601562 -4.265625 5.40625 -4.265625 L 2.078125 -4.265625 L 2.234375 -4.46875 L 2.234375 -0.421875 C 2.234375 -0.304688 2.195312 -0.207031 2.125 -0.125 C 2.050781 -0.0390625 1.953125 0 1.828125 0 Z M 2.078125 -5.046875 L 5.65625 -5.046875 C 5.988281 -5.078125 6.296875 -5.1875 6.578125 -5.375 C 6.859375 -5.5625 7.085938 -5.816406 7.265625 -6.140625 C 7.441406 -6.460938 7.53125 -6.835938 7.53125 -7.265625 C 7.53125 -7.804688 7.347656 -8.253906 6.984375 -8.609375 C 6.617188 -8.960938 6.140625 -9.140625 5.546875 -9.140625 L 2.140625 -9.140625 L 2.234375 -9.34375 L 2.234375 -4.84375 Z M 2.078125 -5.046875 "/></g></g></g><g fill="#000000" fill-opacity="1"><g transform="translate(39.265907, 15.332707)"><g><path d="M 4.09375 0.140625 C 3.375 0.148438 2.742188 0.0351562 2.203125 -0.203125 C 1.671875 -0.441406 1.164062 -0.796875 0.6875 -1.265625 C 0.632812 -1.304688 0.59375 -1.351562 0.5625 -1.40625 C 0.53125 -1.46875 0.515625 -1.535156 0.515625 -1.609375 C 0.515625 -1.722656 0.554688 -1.828125 0.640625 -1.921875 C 0.734375 -2.015625 0.835938 -2.0625 0.953125 -2.0625 C 1.066406 -2.0625 1.171875 -2.015625 1.265625 -1.921875 C 1.640625 -1.523438 2.0625 -1.222656 2.53125 -1.015625 C 3 -0.804688 3.503906 -0.703125 4.046875 -0.703125 C 4.503906 -0.703125 4.910156 -0.769531 5.265625 -0.90625 C 5.628906 -1.050781 5.914062 -1.253906 6.125 -1.515625 C 6.332031 -1.785156 6.4375 -2.097656 6.4375 -2.453125 C 6.4375 -2.890625 6.316406 -3.242188 6.078125 -3.515625 C 5.835938 -3.785156 5.519531 -4.007812 5.125 -4.1875 C 4.738281 -4.363281 4.3125 -4.523438 3.84375 -4.671875 C 3.445312 -4.785156 3.070312 -4.914062 2.71875 -5.0625 C 2.375 -5.207031 2.0625 -5.382812 1.78125 -5.59375 C 1.507812 -5.8125 1.296875 -6.078125 1.140625 -6.390625 C 0.984375 -6.703125 0.90625 -7.082031 0.90625 -7.53125 C 0.90625 -8.03125 1.039062 -8.472656 1.3125 -8.859375 C 1.582031 -9.253906 1.960938 -9.5625 2.453125 -9.78125 C 2.941406 -10.007812 3.507812 -10.125 4.15625 -10.125 C 4.71875 -10.125 5.253906 -10.03125 5.765625 -9.84375 C 6.285156 -9.65625 6.695312 -9.375 7 -9 C 7.144531 -8.84375 7.21875 -8.707031 7.21875 -8.59375 C 7.21875 -8.488281 7.171875 -8.390625 7.078125 -8.296875 C 6.984375 -8.203125 6.878906 -8.15625 6.765625 -8.15625 C 6.671875 -8.15625 6.585938 -8.191406 6.515625 -8.265625 C 6.359375 -8.460938 6.15625 -8.640625 5.90625 -8.796875 C 5.65625 -8.953125 5.378906 -9.070312 5.078125 -9.15625 C 4.785156 -9.238281 4.476562 -9.28125 4.15625 -9.28125 C 3.707031 -9.28125 3.300781 -9.210938 2.9375 -9.078125 C 2.582031 -8.941406 2.300781 -8.742188 2.09375 -8.484375 C 1.894531 -8.234375 1.796875 -7.925781 1.796875 -7.5625 C 1.796875 -7.164062 1.910156 -6.835938 2.140625 -6.578125 C 2.367188 -6.316406 2.664062 -6.101562 3.03125 -5.9375 C 3.40625 -5.769531 3.800781 -5.617188 4.21875 -5.484375 C 4.632812 -5.367188 5.03125 -5.234375 5.40625 -5.078125 C 5.78125 -4.929688 6.109375 -4.75 6.390625 -4.53125 C 6.679688 -4.3125 6.910156 -4.035156 7.078125 -3.703125 C 7.242188 -3.367188 7.328125 -2.953125 7.328125 -2.453125 C 7.328125 -1.960938 7.1875 -1.523438 6.90625 -1.140625 C 6.632812 -0.753906 6.257812 -0.445312 5.78125 -0.21875 C 5.300781 0.0078125 4.738281 0.128906 4.09375 0.140625 Z M 4.09375 0.140625 "/></g></g></g><g fill="#000000" fill-opacity="1"><g transform="translate(47.282423, 15.332707)"><g><path d="M 5.40625 -9.984375 C 6.113281 -9.984375 6.726562 -9.847656 7.25 -9.578125 C 7.78125 -9.316406 8.21875 -8.953125 8.5625 -8.484375 C 8.90625 -8.015625 9.160156 -7.476562 9.328125 -6.875 C 9.492188 -6.28125 9.578125 -5.65625 9.578125 -5 C 9.578125 -4.082031 9.425781 -3.242188 9.125 -2.484375 C 8.820312 -1.734375 8.363281 -1.128906 7.75 -0.671875 C 7.132812 -0.222656 6.351562 0 5.40625 0 L 1.765625 0 C 1.648438 0 1.550781 -0.0390625 1.46875 -0.125 C 1.382812 -0.207031 1.34375 -0.304688 1.34375 -0.421875 L 1.34375 -9.5625 C 1.34375 -9.675781 1.382812 -9.773438 1.46875 -9.859375 C 1.550781 -9.941406 1.648438 -9.984375 1.765625 -9.984375 Z M 5.265625 -0.84375 C 6.066406 -0.84375 6.710938 -1.023438 7.203125 -1.390625 C 7.703125 -1.765625 8.066406 -2.269531 8.296875 -2.90625 C 8.535156 -3.539062 8.65625 -4.238281 8.65625 -5 C 8.65625 -5.550781 8.59375 -6.070312 8.46875 -6.5625 C 8.34375 -7.0625 8.140625 -7.503906 7.859375 -7.890625 C 7.585938 -8.273438 7.234375 -8.578125 6.796875 -8.796875 C 6.367188 -9.023438 5.859375 -9.140625 5.265625 -9.140625 L 2.140625 -9.140625 L 2.234375 -9.265625 L 2.234375 -0.703125 L 2.15625 -0.84375 Z M 5.265625 -0.84375 "/></g></g></g><g fill="#000000" fill-opacity="1"><g transform="translate(57.53843, 15.332707)"><g><path d="M 4.671875 -8.890625 L 1.21875 -0.265625 C 1.175781 -0.171875 1.117188 -0.0976562 1.046875 -0.046875 C 0.984375 -0.00390625 0.910156 0.015625 0.828125 0.015625 C 0.691406 0.015625 0.585938 -0.0195312 0.515625 -0.09375 C 0.453125 -0.164062 0.414062 -0.253906 0.40625 -0.359375 C 0.40625 -0.398438 0.410156 -0.457031 0.421875 -0.53125 L 4.1875 -9.75 C 4.238281 -9.851562 4.300781 -9.925781 4.375 -9.96875 C 4.445312 -10.007812 4.53125 -10.03125 4.625 -10.03125 C 4.71875 -10.03125 4.800781 -10.003906 4.875 -9.953125 C 4.945312 -9.898438 5 -9.832031 5.03125 -9.75 L 8.78125 -0.578125 C 8.800781 -0.515625 8.8125 -0.457031 8.8125 -0.40625 C 8.8125 -0.269531 8.769531 -0.164062 8.6875 -0.09375 C 8.601562 -0.0195312 8.503906 0.015625 8.390625 0.015625 C 8.296875 0.015625 8.210938 -0.0078125 8.140625 -0.0625 C 8.066406 -0.113281 8.007812 -0.179688 7.96875 -0.265625 L 4.421875 -8.9375 Z M 2.046875 -2.875 L 2.390625 -3.71875 L 6.8125 -3.71875 L 6.984375 -2.875 Z M 2.046875 -2.875 "/></g></g></g><g fill="#000000" fill-opacity="1"><g transform="translate(66.767409, 15.332707)"><g><path d="M 7.296875 -10.046875 C 7.410156 -10.046875 7.507812 -10 7.59375 -9.90625 C 7.675781 -9.8125 7.71875 -9.710938 7.71875 -9.609375 C 7.71875 -9.566406 7.707031 -9.523438 7.6875 -9.484375 C 7.675781 -9.441406 7.65625 -9.394531 7.625 -9.34375 L 4.28125 -4.734375 L 4.453125 -5.296875 L 4.453125 -0.421875 C 4.453125 -0.304688 4.40625 -0.207031 4.3125 -0.125 C 4.226562 -0.0390625 4.128906 0 4.015625 0 C 3.890625 0 3.785156 -0.0390625 3.703125 -0.125 C 3.617188 -0.207031 3.578125 -0.304688 3.578125 -0.421875 L 3.578125 -5.1875 L 3.65625 -4.84375 L 0.390625 -9.3125 C 0.347656 -9.363281 0.316406 -9.414062 0.296875 -9.46875 C 0.273438 -9.519531 0.265625 -9.566406 0.265625 -9.609375 C 0.265625 -9.734375 0.316406 -9.835938 0.421875 -9.921875 C 0.523438 -10.003906 0.628906 -10.046875 0.734375 -10.046875 C 0.867188 -10.046875 0.984375 -9.976562 1.078125 -9.84375 L 4.15625 -5.65625 L 3.9375 -5.6875 L 6.921875 -9.84375 C 7.015625 -9.976562 7.140625 -10.046875 7.296875 -10.046875 Z M 7.296875 -10.046875 "/></g></g></g></g></g><g transform="matrix(1, 0, 0, 1, 684, 16)"><g clip-path="url(#c311674784)"><g fill="#000000" fill-opacity="1"><g transform="translate(1.184606, 15.332707)"><g><path d="M 1.78125 0 C 1.644531 0 1.535156 -0.0390625 1.453125 -0.125 C 1.378906 -0.207031 1.34375 -0.304688 1.34375 -0.421875 L 1.34375 -9.5625 C 1.34375 -9.675781 1.382812 -9.773438 1.46875 -9.859375 C 1.550781 -9.941406 1.648438 -9.984375 1.765625 -9.984375 L 6.96875 -9.984375 C 7.082031 -9.984375 7.179688 -9.941406 7.265625 -9.859375 C 7.347656 -9.785156 7.390625 -9.6875 7.390625 -9.5625 C 7.390625 -9.445312 7.347656 -9.347656 7.265625 -9.265625 C 7.179688 -9.179688 7.082031 -9.140625 6.96875 -9.140625 L 2.15625 -9.140625 L 2.21875 -9.234375 L 2.21875 -5.4375 L 2.140625 -5.5625 L 6.3125 -5.5625 C 6.4375 -5.5625 6.539062 -5.519531 6.625 -5.4375 C 6.707031 -5.363281 6.75 -5.269531 6.75 -5.15625 C 6.75 -5.03125 6.707031 -4.925781 6.625 -4.84375 C 6.539062 -4.769531 6.4375 -4.734375 6.3125 -4.734375 L 2.109375 -4.734375 L 2.21875 -4.84375 L 2.21875 -0.421875 C 2.21875 -0.304688 2.175781 -0.207031 2.09375 -0.125 C 2.007812 -0.0390625 1.90625 0 1.78125 0 Z M 1.78125 0 "/></g></g></g><g fill="#000000" fill-opacity="1"><g transform="translate(9.258181, 15.332707)"><g><path d="M 1.828125 0 C 1.679688 0 1.5625 -0.0390625 1.46875 -0.125 C 1.382812 -0.207031 1.34375 -0.304688 1.34375 -0.421875 L 1.34375 -9.5625 C 1.34375 -9.675781 1.382812 -9.773438 1.46875 -9.859375 C 1.550781 -9.941406 1.648438 -9.984375 1.765625 -9.984375 L 5.625 -9.984375 C 6.164062 -9.984375 6.648438 -9.863281 7.078125 -9.625 C 7.503906 -9.394531 7.835938 -9.078125 8.078125 -8.671875 C 8.316406 -8.265625 8.4375 -7.804688 8.4375 -7.296875 C 8.4375 -6.867188 8.359375 -6.476562 8.203125 -6.125 C 8.054688 -5.78125 7.84375 -5.484375 7.5625 -5.234375 C 7.289062 -4.992188 6.984375 -4.816406 6.640625 -4.703125 L 6.15625 -4.859375 C 6.5 -4.835938 6.820312 -4.726562 7.125 -4.53125 C 7.4375 -4.332031 7.679688 -4.0625 7.859375 -3.71875 C 8.046875 -3.382812 8.144531 -2.984375 8.15625 -2.515625 C 8.164062 -2.097656 8.1875 -1.773438 8.21875 -1.546875 C 8.257812 -1.328125 8.3125 -1.160156 8.375 -1.046875 C 8.4375 -0.929688 8.519531 -0.835938 8.625 -0.765625 C 8.71875 -0.710938 8.78125 -0.632812 8.8125 -0.53125 C 8.851562 -0.425781 8.84375 -0.328125 8.78125 -0.234375 C 8.75 -0.148438 8.695312 -0.09375 8.625 -0.0625 C 8.550781 -0.03125 8.472656 -0.015625 8.390625 -0.015625 C 8.316406 -0.015625 8.242188 -0.0351562 8.171875 -0.078125 C 8.035156 -0.148438 7.898438 -0.265625 7.765625 -0.421875 C 7.628906 -0.585938 7.515625 -0.828125 7.421875 -1.140625 C 7.335938 -1.453125 7.296875 -1.890625 7.296875 -2.453125 C 7.296875 -2.828125 7.234375 -3.128906 7.109375 -3.359375 C 6.992188 -3.597656 6.84375 -3.78125 6.65625 -3.90625 C 6.46875 -4.039062 6.257812 -4.132812 6.03125 -4.1875 C 5.8125 -4.238281 5.601562 -4.265625 5.40625 -4.265625 L 2.078125 -4.265625 L 2.234375 -4.46875 L 2.234375 -0.421875 C 2.234375 -0.304688 2.195312 -0.207031 2.125 -0.125 C 2.050781 -0.0390625 1.953125 0 1.828125 0 Z M 2.078125 -5.046875 L 5.65625 -5.046875 C 5.988281 -5.078125 6.296875 -5.1875 6.578125 -5.375 C 6.859375 -5.5625 7.085938 -5.816406 7.265625 -6.140625 C 7.441406 -6.460938 7.53125 -6.835938 7.53125 -7.265625 C 7.53125 -7.804688 7.347656 -8.253906 6.984375 -8.609375 C 6.617188 -8.960938 6.140625 -9.140625 5.546875 -9.140625 L 2.140625 -9.140625 L 2.234375 -9.34375 L 2.234375 -4.84375 Z M 2.078125 -5.046875 "/></g></g></g><g fill="#000000" fill-opacity="1"><g transform="translate(18.81524, 15.332707)"><g><path d="M 2.234375 -0.4375 C 2.222656 -0.3125 2.171875 -0.207031 2.078125 -0.125 C 1.992188 -0.0390625 1.894531 0 1.78125 0 C 1.644531 0 1.535156 -0.0390625 1.453125 -0.125 C 1.378906 -0.207031 1.34375 -0.3125 1.34375 -0.4375 L 1.34375 -9.546875 C 1.34375 -9.671875 1.382812 -9.773438 1.46875 -9.859375 C 1.550781 -9.941406 1.660156 -9.984375 1.796875 -9.984375 C 1.910156 -9.984375 2.007812 -9.941406 2.09375 -9.859375 C 2.1875 -9.773438 2.234375 -9.671875 2.234375 -9.546875 Z M 2.234375 -0.4375 "/></g></g></g><g fill="#000000" fill-opacity="1"><g transform="translate(22.381308, 15.332707)"><g><path d="M 5.40625 -9.984375 C 6.113281 -9.984375 6.726562 -9.847656 7.25 -9.578125 C 7.78125 -9.316406 8.21875 -8.953125 8.5625 -8.484375 C 8.90625 -8.015625 9.160156 -7.476562 9.328125 -6.875 C 9.492188 -6.28125 9.578125 -5.65625 9.578125 -5 C 9.578125 -4.082031 9.425781 -3.242188 9.125 -2.484375 C 8.820312 -1.734375 8.363281 -1.128906 7.75 -0.671875 C 7.132812 -0.222656 6.351562 0 5.40625 0 L 1.765625 0 C 1.648438 0 1.550781 -0.0390625 1.46875 -0.125 C 1.382812 -0.207031 1.34375 -0.304688 1.34375 -0.421875 L 1.34375 -9.5625 C 1.34375 -9.675781 1.382812 -9.773438 1.46875 -9.859375 C 1.550781 -9.941406 1.648438 -9.984375 1.765625 -9.984375 Z M 5.265625 -0.84375 C 6.066406 -0.84375 6.710938 -1.023438 7.203125 -1.390625 C 7.703125 -1.765625 8.066406 -2.269531 8.296875 -2.90625 C 8.535156 -3.539062 8.65625 -4.238281 8.65625 -5 C 8.65625 -5.550781 8.59375 -6.070312 8.46875 -6.5625 C 8.34375 -7.0625 8.140625 -7.503906 7.859375 -7.890625 C 7.585938 -8.273438 7.234375 -8.578125 6.796875 -8.796875 C 6.367188 -9.023438 5.859375 -9.140625 5.265625 -9.140625 L 2.140625 -9.140625 L 2.234375 -9.265625 L 2.234375 -0.703125 L 2.15625 -0.84375 Z M 5.265625 -0.84375 "/></g></g></g><g fill="#000000" fill-opacity="1"><g transform="translate(32.637315, 15.332707)"><g><path d="M 4.671875 -8.890625 L 1.21875 -0.265625 C 1.175781 -0.171875 1.117188 -0.0976562 1.046875 -0.046875 C 0.984375 -0.00390625 0.910156 0.015625 0.828125 0.015625 C 0.691406 0.015625 0.585938 -0.0195312 0.515625 -0.09375 C 0.453125 -0.164062 0.414062 -0.253906 0.40625 -0.359375 C 0.40625 -0.398438 0.410156 -0.457031 0.421875 -0.53125 L 4.1875 -9.75 C 4.238281 -9.851562 4.300781 -9.925781 4.375 -9.96875 C 4.445312 -10.007812 4.53125 -10.03125 4.625 -10.03125 C 4.71875 -10.03125 4.800781 -10.003906 4.875 -9.953125 C 4.945312 -9.898438 5 -9.832031 5.03125 -9.75 L 8.78125 -0.578125 C 8.800781 -0.515625 8.8125 -0.457031 8.8125 -0.40625 C 8.8125 -0.269531 8.769531 -0.164062 8.6875 -0.09375 C 8.601562 -0.0195312 8.503906 0.015625 8.390625 0.015625 C 8.296875 0.015625 8.210938 -0.0078125 8.140625 -0.0625 C 8.066406 -0.113281 8.007812 -0.179688 7.96875 -0.265625 L 4.421875 -8.9375 Z M 2.046875 -2.875 L 2.390625 -3.71875 L 6.8125 -3.71875 L 6.984375 -2.875 Z M 2.046875 -2.875 "/></g></g></g><g fill="#000000" fill-opacity="1"><g transform="translate(41.866294, 15.332707)"><g><path d="M 7.296875 -10.046875 C 7.410156 -10.046875 7.507812 -10 7.59375 -9.90625 C 7.675781 -9.8125 7.71875 -9.710938 7.71875 -9.609375 C 7.71875 -9.566406 7.707031 -9.523438 7.6875 -9.484375 C 7.675781 -9.441406 7.65625 -9.394531 7.625 -9.34375 L 4.28125 -4.734375 L 4.453125 -5.296875 L 4.453125 -0.421875 C 4.453125 -0.304688 4.40625 -0.207031 4.3125 -0.125 C 4.226562 -0.0390625 4.128906 0 4.015625 0 C 3.890625 0 3.785156 -0.0390625 3.703125 -0.125 C 3.617188 -0.207031 3.578125 -0.304688 3.578125 -0.421875 L 3.578125 -5.1875 L 3.65625 -4.84375 L 0.390625 -9.3125 C 0.347656 -9.363281 0.316406 -9.414062 0.296875 -9.46875 C 0.273438 -9.519531 0.265625 -9.566406 0.265625 -9.609375 C 0.265625 -9.734375 0.316406 -9.835938 0.421875 -9.921875 C 0.523438 -10.003906 0.628906 -10.046875 0.734375 -10.046875 C 0.867188 -10.046875 0.984375 -9.976562 1.078125 -9.84375 L 4.15625 -5.65625 L 3.9375 -5.6875 L 6.921875 -9.84375 C 7.015625 -9.976562 7.140625 -10.046875 7.296875 -10.046875 Z M 7.296875 -10.046875 "/></g></g></g></g></g><g transform="matrix(1, 0, 0, 1, 781, 16)"><g clip-path="url(#5bd4e92ab6)"><g fill="#000000" fill-opacity="1"><g transform="translate(0.799808, 15.332707)"><g><path d="M 4.09375 0.140625 C 3.375 0.148438 2.742188 0.0351562 2.203125 -0.203125 C 1.671875 -0.441406 1.164062 -0.796875 0.6875 -1.265625 C 0.632812 -1.304688 0.59375 -1.351562 0.5625 -1.40625 C 0.53125 -1.46875 0.515625 -1.535156 0.515625 -1.609375 C 0.515625 -1.722656 0.554688 -1.828125 0.640625 -1.921875 C 0.734375 -2.015625 0.835938 -2.0625 0.953125 -2.0625 C 1.066406 -2.0625 1.171875 -2.015625 1.265625 -1.921875 C 1.640625 -1.523438 2.0625 -1.222656 2.53125 -1.015625 C 3 -0.804688 3.503906 -0.703125 4.046875 -0.703125 C 4.503906 -0.703125 4.910156 -0.769531 5.265625 -0.90625 C 5.628906 -1.050781 5.914062 -1.253906 6.125 -1.515625 C 6.332031 -1.785156 6.4375 -2.097656 6.4375 -2.453125 C 6.4375 -2.890625 6.316406 -3.242188 6.078125 -3.515625 C 5.835938 -3.785156 5.519531 -4.007812 5.125 -4.1875 C 4.738281 -4.363281 4.3125 -4.523438 3.84375 -4.671875 C 3.445312 -4.785156 3.070312 -4.914062 2.71875 -5.0625 C 2.375 -5.207031 2.0625 -5.382812 1.78125 -5.59375 C 1.507812 -5.8125 1.296875 -6.078125 1.140625 -6.390625 C 0.984375 -6.703125 0.90625 -7.082031 0.90625 -7.53125 C 0.90625 -8.03125 1.039062 -8.472656 1.3125 -8.859375 C 1.582031 -9.253906 1.960938 -9.5625 2.453125 -9.78125 C 2.941406 -10.007812 3.507812 -10.125 4.15625 -10.125 C 4.71875 -10.125 5.253906 -10.03125 5.765625 -9.84375 C 6.285156 -9.65625 6.695312 -9.375 7 -9 C 7.144531 -8.84375 7.21875 -8.707031 7.21875 -8.59375 C 7.21875 -8.488281 7.171875 -8.390625 7.078125 -8.296875 C 6.984375 -8.203125 6.878906 -8.15625 6.765625 -8.15625 C 6.671875 -8.15625 6.585938 -8.191406 6.515625 -8.265625 C 6.359375 -8.460938 6.15625 -8.640625 5.90625 -8.796875 C 5.65625 -8.953125 5.378906 -9.070312 5.078125 -9.15625 C 4.785156 -9.238281 4.476562 -9.28125 4.15625 -9.28125 C 3.707031 -9.28125 3.300781 -9.210938 2.9375 -9.078125 C 2.582031 -8.941406 2.300781 -8.742188 2.09375 -8.484375 C 1.894531 -8.234375 1.796875 -7.925781 1.796875 -7.5625 C 1.796875 -7.164062 1.910156 -6.835938 2.140625 -6.578125 C 2.367188 -6.316406 2.664062 -6.101562 3.03125 -5.9375 C 3.40625 -5.769531 3.800781 -5.617188 4.21875 -5.484375 C 4.632812 -5.367188 5.03125 -5.234375 5.40625 -5.078125 C 5.78125 -4.929688 6.109375 -4.75 6.390625 -4.53125 C 6.679688 -4.3125 6.910156 -4.035156 7.078125 -3.703125 C 7.242188 -3.367188 7.328125 -2.953125 7.328125 -2.453125 C 7.328125 -1.960938 7.1875 -1.523438 6.90625 -1.140625 C 6.632812 -0.753906 6.257812 -0.445312 5.78125 -0.21875 C 5.300781 0.0078125 4.738281 0.128906 4.09375 0.140625 Z M 4.09375 0.140625 "/></g></g></g><g fill="#000000" fill-opacity="1"><g transform="translate(8.816325, 15.332707)"><g><path d="M 4.671875 -8.890625 L 1.21875 -0.265625 C 1.175781 -0.171875 1.117188 -0.0976562 1.046875 -0.046875 C 0.984375 -0.00390625 0.910156 0.015625 0.828125 0.015625 C 0.691406 0.015625 0.585938 -0.0195312 0.515625 -0.09375 C 0.453125 -0.164062 0.414062 -0.253906 0.40625 -0.359375 C 0.40625 -0.398438 0.410156 -0.457031 0.421875 -0.53125 L 4.1875 -9.75 C 4.238281 -9.851562 4.300781 -9.925781 4.375 -9.96875 C 4.445312 -10.007812 4.53125 -10.03125 4.625 -10.03125 C 4.71875 -10.03125 4.800781 -10.003906 4.875 -9.953125 C 4.945312 -9.898438 5 -9.832031 5.03125 -9.75 L 8.78125 -0.578125 C 8.800781 -0.515625 8.8125 -0.457031 8.8125 -0.40625 C 8.8125 -0.269531 8.769531 -0.164062 8.6875 -0.09375 C 8.601562 -0.0195312 8.503906 0.015625 8.390625 0.015625 C 8.296875 0.015625 8.210938 -0.0078125 8.140625 -0.0625 C 8.066406 -0.113281 8.007812 -0.179688 7.96875 -0.265625 L 4.421875 -8.9375 Z M 2.046875 -2.875 L 2.390625 -3.71875 L 6.8125 -3.71875 L 6.984375 -2.875 Z M 2.046875 -2.875 "/></g></g></g><g fill="#000000" fill-opacity="1"><g transform="translate(18.045303, 15.332707)"><g><path d="M 4.3125 0 C 4.175781 0 4.066406 -0.0390625 3.984375 -0.125 C 3.898438 -0.207031 3.859375 -0.304688 3.859375 -0.421875 L 3.859375 -9.515625 L 4.75 -9.515625 L 4.75 -0.421875 C 4.75 -0.304688 4.707031 -0.207031 4.625 -0.125 C 4.539062 -0.0390625 4.4375 0 4.3125 0 Z M 0.90625 -9.171875 C 0.789062 -9.171875 0.691406 -9.207031 0.609375 -9.28125 C 0.523438 -9.363281 0.484375 -9.46875 0.484375 -9.59375 C 0.484375 -9.695312 0.523438 -9.785156 0.609375 -9.859375 C 0.691406 -9.941406 0.789062 -9.984375 0.90625 -9.984375 L 7.703125 -9.984375 C 7.816406 -9.984375 7.914062 -9.941406 8 -9.859375 C 8.082031 -9.785156 8.125 -9.691406 8.125 -9.578125 C 8.125 -9.453125 8.082031 -9.351562 8 -9.28125 C 7.914062 -9.207031 7.816406 -9.171875 7.703125 -9.171875 Z M 0.90625 -9.171875 "/></g></g></g><g fill="#000000" fill-opacity="1"><g transform="translate(26.660918, 15.332707)"><g><path d="M 8.40625 -9.984375 C 8.539062 -9.984375 8.644531 -9.941406 8.71875 -9.859375 C 8.789062 -9.785156 8.828125 -9.6875 8.828125 -9.5625 L 8.828125 -3.65625 C 8.828125 -2.945312 8.660156 -2.304688 8.328125 -1.734375 C 7.992188 -1.171875 7.546875 -0.71875 6.984375 -0.375 C 6.429688 -0.0390625 5.800781 0.125 5.09375 0.125 C 4.382812 0.125 3.75 -0.0390625 3.1875 -0.375 C 2.625 -0.71875 2.175781 -1.171875 1.84375 -1.734375 C 1.507812 -2.304688 1.34375 -2.945312 1.34375 -3.65625 L 1.34375 -9.5625 C 1.34375 -9.6875 1.378906 -9.785156 1.453125 -9.859375 C 1.535156 -9.941406 1.648438 -9.984375 1.796875 -9.984375 C 1.910156 -9.984375 2.007812 -9.941406 2.09375 -9.859375 C 2.175781 -9.785156 2.21875 -9.6875 2.21875 -9.5625 L 2.21875 -3.65625 C 2.21875 -3.101562 2.347656 -2.609375 2.609375 -2.171875 C 2.878906 -1.734375 3.234375 -1.382812 3.671875 -1.125 C 4.109375 -0.863281 4.582031 -0.734375 5.09375 -0.734375 C 5.625 -0.734375 6.109375 -0.863281 6.546875 -1.125 C 6.984375 -1.382812 7.332031 -1.734375 7.59375 -2.171875 C 7.851562 -2.609375 7.984375 -3.101562 7.984375 -3.65625 L 7.984375 -9.5625 C 7.984375 -9.6875 8.019531 -9.785156 8.09375 -9.859375 C 8.175781 -9.941406 8.28125 -9.984375 8.40625 -9.984375 Z M 8.40625 -9.984375 "/></g></g></g><g fill="#000000" fill-opacity="1"><g transform="translate(36.831335, 15.332707)"><g><path d="M 1.828125 0 C 1.679688 0 1.5625 -0.0390625 1.46875 -0.125 C 1.382812 -0.207031 1.34375 -0.304688 1.34375 -0.421875 L 1.34375 -9.5625 C 1.34375 -9.675781 1.382812 -9.773438 1.46875 -9.859375 C 1.550781 -9.941406 1.648438 -9.984375 1.765625 -9.984375 L 5.625 -9.984375 C 6.164062 -9.984375 6.648438 -9.863281 7.078125 -9.625 C 7.503906 -9.394531 7.835938 -9.078125 8.078125 -8.671875 C 8.316406 -8.265625 8.4375 -7.804688 8.4375 -7.296875 C 8.4375 -6.867188 8.359375 -6.476562 8.203125 -6.125 C 8.054688 -5.78125 7.84375 -5.484375 7.5625 -5.234375 C 7.289062 -4.992188 6.984375 -4.816406 6.640625 -4.703125 L 6.15625 -4.859375 C 6.5 -4.835938 6.820312 -4.726562 7.125 -4.53125 C 7.4375 -4.332031 7.679688 -4.0625 7.859375 -3.71875 C 8.046875 -3.382812 8.144531 -2.984375 8.15625 -2.515625 C 8.164062 -2.097656 8.1875 -1.773438 8.21875 -1.546875 C 8.257812 -1.328125 8.3125 -1.160156 8.375 -1.046875 C 8.4375 -0.929688 8.519531 -0.835938 8.625 -0.765625 C 8.71875 -0.710938 8.78125 -0.632812 8.8125 -0.53125 C 8.851562 -0.425781 8.84375 -0.328125 8.78125 -0.234375 C 8.75 -0.148438 8.695312 -0.09375 8.625 -0.0625 C 8.550781 -0.03125 8.472656 -0.015625 8.390625 -0.015625 C 8.316406 -0.015625 8.242188 -0.0351562 8.171875 -0.078125 C 8.035156 -0.148438 7.898438 -0.265625 7.765625 -0.421875 C 7.628906 -0.585938 7.515625 -0.828125 7.421875 -1.140625 C 7.335938 -1.453125 7.296875 -1.890625 7.296875 -2.453125 C 7.296875 -2.828125 7.234375 -3.128906 7.109375 -3.359375 C 6.992188 -3.597656 6.84375 -3.78125 6.65625 -3.90625 C 6.46875 -4.039062 6.257812 -4.132812 6.03125 -4.1875 C 5.8125 -4.238281 5.601562 -4.265625 5.40625 -4.265625 L 2.078125 -4.265625 L 2.234375 -4.46875 L 2.234375 -0.421875 C 2.234375 -0.304688 2.195312 -0.207031 2.125 -0.125 C 2.050781 -0.0390625 1.953125 0 1.828125 0 Z M 2.078125 -5.046875 L 5.65625 -5.046875 C 5.988281 -5.078125 6.296875 -5.1875 6.578125 -5.375 C 6.859375 -5.5625 7.085938 -5.816406 7.265625 -6.140625 C 7.441406 -6.460938 7.53125 -6.835938 7.53125 -7.265625 C 7.53125 -7.804688 7.347656 -8.253906 6.984375 -8.609375 C 6.617188 -8.960938 6.140625 -9.140625 5.546875 -9.140625 L 2.140625 -9.140625 L 2.234375 -9.34375 L 2.234375 -4.84375 Z M 2.078125 -5.046875 "/></g></g></g><g fill="#000000" fill-opacity="1"><g transform="translate(46.388394, 15.332707)"><g><path d="M 5.40625 -9.984375 C 6.113281 -9.984375 6.726562 -9.847656 7.25 -9.578125 C 7.78125 -9.316406 8.21875 -8.953125 8.5625 -8.484375 C 8.90625 -8.015625 9.160156 -7.476562 9.328125 -6.875 C 9.492188 -6.28125 9.578125 -5.65625 9.578125 -5 C 9.578125 -4.082031 9.425781 -3.242188 9.125 -2.484375 C 8.820312 -1.734375 8.363281 -1.128906 7.75 -0.671875 C 7.132812 -0.222656 6.351562 0 5.40625 0 L 1.765625 0 C 1.648438 0 1.550781 -0.0390625 1.46875 -0.125 C 1.382812 -0.207031 1.34375 -0.304688 1.34375 -0.421875 L 1.34375 -9.5625 C 1.34375 -9.675781 1.382812 -9.773438 1.46875 -9.859375 C 1.550781 -9.941406 1.648438 -9.984375 1.765625 -9.984375 Z M 5.265625 -0.84375 C 6.066406 -0.84375 6.710938 -1.023438 7.203125 -1.390625 C 7.703125 -1.765625 8.066406 -2.269531 8.296875 -2.90625 C 8.535156 -3.539062 8.65625 -4.238281 8.65625 -5 C 8.65625 -5.550781 8.59375 -6.070312 8.46875 -6.5625 C 8.34375 -7.0625 8.140625 -7.503906 7.859375 -7.890625 C 7.585938 -8.273438 7.234375 -8.578125 6.796875 -8.796875 C 6.367188 -9.023438 5.859375 -9.140625 5.265625 -9.140625 L 2.140625 -9.140625 L 2.234375 -9.265625 L 2.234375 -0.703125 L 2.15625 -0.84375 Z M 5.265625 -0.84375 "/></g></g></g><g fill="#000000" fill-opacity="1"><g transform="translate(56.644401, 15.332707)"><g><path d="M 4.671875 -8.890625 L 1.21875 -0.265625 C 1.175781 -0.171875 1.117188 -0.0976562 1.046875 -0.046875 C 0.984375 -0.00390625 0.910156 0.015625 0.828125 0.015625 C 0.691406 0.015625 0.585938 -0.0195312 0.515625 -0.09375 C 0.453125 -0.164062 0.414062 -0.253906 0.40625 -0.359375 C 0.40625 -0.398438 0.410156 -0.457031 0.421875 -0.53125 L 4.1875 -9.75 C 4.238281 -9.851562 4.300781 -9.925781 4.375 -9.96875 C 4.445312 -10.007812 4.53125 -10.03125 4.625 -10.03125 C 4.71875 -10.03125 4.800781 -10.003906 4.875 -9.953125 C 4.945312 -9.898438 5 -9.832031 5.03125 -9.75 L 8.78125 -0.578125 C 8.800781 -0.515625 8.8125 -0.457031 8.8125 -0.40625 C 8.8125 -0.269531 8.769531 -0.164062 8.6875 -0.09375 C 8.601562 -0.0195312 8.503906 0.015625 8.390625 0.015625 C 8.296875 0.015625 8.210938 -0.0078125 8.140625 -0.0625 C 8.066406 -0.113281 8.007812 -0.179688 7.96875 -0.265625 L 4.421875 -8.9375 Z M 2.046875 -2.875 L 2.390625 -3.71875 L 6.8125 -3.71875 L 6.984375 -2.875 Z M 2.046875 -2.875 "/></g></g></g><g fill="#000000" fill-opacity="1"><g transform="translate(65.87338, 15.332707)"><g><path d="M 7.296875 -10.046875 C 7.410156 -10.046875 7.507812 -10 7.59375 -9.90625 C 7.675781 -9.8125 7.71875 -9.710938 7.71875 -9.609375 C 7.71875 -9.566406 7.707031 -9.523438 7.6875 -9.484375 C 7.675781 -9.441406 7.65625 -9.394531 7.625 -9.34375 L 4.28125 -4.734375 L 4.453125 -5.296875 L 4.453125 -0.421875 C 4.453125 -0.304688 4.40625 -0.207031 4.3125 -0.125 C 4.226562 -0.0390625 4.128906 0 4.015625 0 C 3.890625 0 3.785156 -0.0390625 3.703125 -0.125 C 3.617188 -0.207031 3.578125 -0.304688 3.578125 -0.421875 L 3.578125 -5.1875 L 3.65625 -4.84375 L 0.390625 -9.3125 C 0.347656 -9.363281 0.316406 -9.414062 0.296875 -9.46875 C 0.273438 -9.519531 0.265625 -9.566406 0.265625 -9.609375 C 0.265625 -9.734375 0.316406 -9.835938 0.421875 -9.921875 C 0.523438 -10.003906 0.628906 -10.046875 0.734375 -10.046875 C 0.867188 -10.046875 0.984375 -9.976562 1.078125 -9.84375 L 4.15625 -5.65625 L 3.9375 -5.6875 L 6.921875 -9.84375 C 7.015625 -9.976562 7.140625 -10.046875 7.296875 -10.046875 Z M 7.296875 -10.046875 "/></g></g></g></g></g><g clip-path="url(#e355181c0e)"><path fill="#000000" d="M 2.15625 3.824219 L 2.15625 545.878906 M 110.96875 3.824219 L 110.96875 545.878906 M 219.78125 3.824219 L 219.78125 545.878906 M 328.597656 3.824219 L 328.597656 545.878906 M 437.410156 3.824219 L 437.410156 545.878906 M 546.222656 3.824219 L 546.222656 545.878906 M 655.035156 3.824219 L 655.035156 545.878906 M 763.851562 3.824219 L 763.851562 545.878906 M 872.664062 3.824219 L 872.664062 545.878906 M 1.460938 3.132812 L 873.359375 3.132812 M 1.460938 48.460938 L 873.359375 48.460938 M 1.460938 93.789062 L 873.359375 93.789062 M 1.460938 139.121094 L 873.359375 139.121094 M 1.460938 184.449219 L 873.359375 184.449219 M 1.460938 232.25 L 873.359375 232.25 M 1.460938 274.59375 L 873.359375 274.59375 M 1.460938 319.921875 L 873.359375 319.921875 M 1.460938 365.253906 L 873.359375 365.253906 M 1.460938 410.582031 L 873.359375 410.582031 M 1.460938 455.910156 L 873.359375 455.910156 M 1.460938 501.242188 L 873.359375 501.242188 M 1.460938 546.570312 L 873.359375 546.570312 " fill-opacity="1" fill-rule="nonzero"/></g><g clip-path="url(#e885e009d5)"><path stroke-linecap="butt" transform="matrix(0.693395, 0, 0, 0.693395, 1.461649, 2.438235)" fill="none" stroke-linejoin="miter" d="M 1.001739 1.998839 L 1.001739 783.739403 M 157.928978 1.998839 L 157.928978 783.739403 M 314.856216 1.998839 L 314.856216 783.739403 M 471.789088 1.998839 L 471.789088 783.739403 M 628.716327 1.998839 L 628.716327 783.739403 M 785.643565 1.998839 L 785.643565 783.739403 M 942.570803 1.998839 L 942.570803 783.739403 M 1099.503675 1.998839 L 1099.503675 783.739403 M 1256.430914 1.998839 L 1256.430914 783.739403 M -0.00102659 1.001706 L 1257.43368 1.001706 M -0.00102659 66.373033 L 1257.43368 66.373033 M -0.00102659 131.74436 L 1257.43368 131.74436 M -0.00102659 197.12132 L 1257.43368 197.12132 M -0.00102659 262.492646 L 1257.43368 262.492646 M -0.00102659 331.429989 L 1257.43368 331.429989 M -0.00102659 392.497309 L 1257.43368 392.497309 M -0.00102659 457.868636 L 1257.43368 457.868636 M -0.00102659 523.245596 L 1257.43368 523.245596 M -0.00102659 588.616922 L 1257.43368 588.616922 M -0.00102659 653.988249 L 1257.43368 653.988249 M -0.00102659 719.365209 L 1257.43368 719.365209 M -0.00102659 784.736536 L 1257.43368 784.736536 " stroke="#000000" stroke-width="2" stroke-opacity="1" stroke-miterlimit="4"/></g><g clip-path="url(#08e3a157f1)"><path fill="#000000" d="M 54.421875 9.957031 C 44.832031 9.957031 37.085938 17.757812 37.085938 27.292969 C 37.085938 36.828125 44.832031 44.628906 54.421875 44.628906 C 64.007812 44.628906 71.753906 36.882812 71.753906 27.292969 C 71.753906 17.703125 64.007812 9.957031 54.421875 9.957031 Z M 54.421875 42.574219 C 45.988281 42.574219 39.140625 35.722656 39.140625 27.292969 C 39.140625 18.863281 45.988281 12.011719 54.421875 12.011719 C 62.851562 12.011719 69.699219 18.863281 69.699219 27.292969 C 69.699219 35.722656 62.851562 42.574219 54.421875 42.574219 Z M 54.421875 42.574219 " fill-opacity="1" fill-rule="nonzero"/></g><path fill="#000000" d="M 60.796875 27.925781 C 61.164062 27.925781 61.425781 27.609375 61.425781 27.292969 C 61.425781 26.925781 61.113281 26.660156 60.796875 26.660156 L 55.789062 26.660156 C 55.632812 26.34375 55.367188 26.027344 55 25.921875 L 55 17.757812 C 55 17.386719 54.734375 17.125 54.367188 17.125 C 54 17.125 53.734375 17.386719 53.734375 17.757812 L 53.734375 25.871094 C 53.207031 26.132812 52.839844 26.660156 52.839844 27.292969 C 52.839844 28.136719 53.523438 28.820312 54.367188 28.820312 C 55 28.820312 55.527344 28.453125 55.738281 27.925781 Z M 60.796875 27.925781 " fill-opacity="1" fill-rule="nonzero"/><path fill="#000000" d="M 54.523438 15.226562 C 54.789062 15.226562 55 15.015625 55 14.753906 L 55 13.226562 C 55 12.960938 54.789062 12.75 54.523438 12.75 C 54.261719 12.75 54.050781 12.960938 54.050781 13.226562 L 54.050781 14.753906 C 54.050781 15.015625 54.261719 15.226562 54.523438 15.226562 Z M 54.523438 15.226562 " fill-opacity="1" fill-rule="nonzero"/><path fill="#000000" d="M 47.886719 14.753906 C 47.726562 14.542969 47.464844 14.4375 47.253906 14.59375 C 47.042969 14.753906 46.9375 15.015625 47.097656 15.226562 L 47.886719 16.542969 C 48.042969 16.753906 48.308594 16.859375 48.519531 16.703125 C 48.730469 16.542969 48.835938 16.28125 48.675781 16.070312 Z M 47.886719 14.753906 " fill-opacity="1" fill-rule="nonzero"/><path fill="#000000" d="M 43.828125 20.496094 L 42.511719 19.707031 C 42.300781 19.546875 41.984375 19.652344 41.878906 19.863281 C 41.722656 20.074219 41.828125 20.390625 42.039062 20.496094 L 43.355469 21.285156 C 43.566406 21.445312 43.882812 21.339844 43.988281 21.128906 C 44.144531 20.917969 44.09375 20.601562 43.828125 20.496094 Z M 43.828125 20.496094 " fill-opacity="1" fill-rule="nonzero"/><path fill="#000000" d="M 42.355469 27.1875 C 42.355469 26.925781 42.144531 26.714844 41.878906 26.714844 L 40.351562 26.714844 C 40.089844 26.714844 39.878906 26.925781 39.878906 27.1875 C 39.878906 27.449219 40.089844 27.660156 40.351562 27.660156 L 41.878906 27.660156 C 42.144531 27.660156 42.355469 27.449219 42.355469 27.1875 Z M 42.355469 27.1875 " fill-opacity="1" fill-rule="nonzero"/><path fill="#000000" d="M 43.25 33.035156 L 41.933594 33.828125 C 41.722656 33.984375 41.617188 34.246094 41.773438 34.457031 C 41.933594 34.667969 42.195312 34.773438 42.40625 34.617188 L 43.722656 33.828125 C 43.933594 33.667969 44.039062 33.40625 43.882812 33.195312 C 43.777344 32.984375 43.460938 32.929688 43.25 33.035156 Z M 43.25 33.035156 " fill-opacity="1" fill-rule="nonzero"/><path fill="#000000" d="M 48.253906 37.671875 C 48.042969 37.515625 47.726562 37.621094 47.621094 37.832031 L 46.832031 39.148438 C 46.675781 39.359375 46.78125 39.675781 46.992188 39.78125 C 47.203125 39.9375 47.519531 39.832031 47.621094 39.621094 L 48.414062 38.304688 C 48.570312 38.09375 48.519531 37.832031 48.253906 37.671875 Z M 48.253906 37.671875 " fill-opacity="1" fill-rule="nonzero"/><path fill="#000000" d="M 54.316406 39.359375 C 54.050781 39.359375 53.839844 39.570312 53.839844 39.832031 L 53.839844 41.359375 C 53.839844 41.625 54.050781 41.835938 54.316406 41.835938 C 54.578125 41.835938 54.789062 41.625 54.789062 41.359375 L 54.789062 39.832031 C 54.789062 39.570312 54.578125 39.359375 54.316406 39.359375 Z M 54.316406 39.359375 " fill-opacity="1" fill-rule="nonzero"/><path fill="#000000" d="M 61.007812 37.988281 C 60.847656 37.777344 60.585938 37.671875 60.375 37.832031 C 60.164062 37.988281 60.058594 38.253906 60.214844 38.464844 L 61.007812 39.78125 C 61.164062 39.992188 61.425781 40.097656 61.636719 39.9375 C 61.847656 39.78125 61.953125 39.515625 61.796875 39.304688 Z M 61.007812 37.988281 " fill-opacity="1" fill-rule="nonzero"/><path fill="#000000" d="M 66.800781 34.039062 L 65.484375 33.246094 C 65.273438 33.089844 64.957031 33.195312 64.851562 33.40625 C 64.695312 33.617188 64.800781 33.933594 65.011719 34.039062 L 66.328125 34.828125 C 66.539062 34.984375 66.855469 34.878906 66.960938 34.667969 C 67.117188 34.457031 67.011719 34.140625 66.800781 34.039062 Z M 66.800781 34.039062 " fill-opacity="1" fill-rule="nonzero"/><path fill="#000000" d="M 68.539062 26.925781 L 67.011719 26.925781 C 66.75 26.925781 66.539062 27.136719 66.539062 27.398438 C 66.539062 27.660156 66.75 27.871094 67.011719 27.871094 L 68.539062 27.871094 C 68.804688 27.871094 69.015625 27.660156 69.015625 27.398438 C 69.015625 27.136719 68.804688 26.925781 68.539062 26.925781 Z M 68.539062 26.925781 " fill-opacity="1" fill-rule="nonzero"/><path fill="#000000" d="M 65.589844 21.550781 L 66.90625 20.757812 C 67.117188 20.601562 67.222656 20.335938 67.066406 20.128906 C 66.90625 19.917969 66.644531 19.8125 66.433594 19.96875 L 65.117188 20.757812 C 64.90625 20.917969 64.800781 21.179688 64.957031 21.390625 C 65.0625 21.601562 65.378906 21.65625 65.589844 21.550781 Z M 65.589844 21.550781 " fill-opacity="1" fill-rule="nonzero"/><path fill="#000000" d="M 61.796875 14.753906 C 61.585938 14.59375 61.269531 14.699219 61.164062 14.910156 L 60.375 16.226562 C 60.214844 16.4375 60.320312 16.753906 60.53125 16.859375 C 60.742188 17.019531 61.058594 16.914062 61.164062 16.703125 L 61.953125 15.386719 C 62.113281 15.175781 62.058594 14.859375 61.796875 14.753906 Z M 61.796875 14.753906 " fill-opacity="1" fill-rule="nonzero"/></g></g></g><g fill="#000000" fill-opacity="1"><g transform="translate(0.272928, 54.191843)"><g><path d="M 49.828125 -38.703125 C 50.304688 -38.703125 50.71875 -38.5625 51.0625 -38.28125 C 51.414062 -38.007812 51.59375 -37.597656 51.59375 -37.046875 C 51.59375 -36.859375 51.554688 -36.617188 51.484375 -36.328125 L 39.296875 -1.046875 C 39.191406 -0.710938 38.988281 -0.453125 38.6875 -0.265625 C 38.394531 -0.0859375 38.101562 0 37.8125 0 C 37.445312 0 37.113281 -0.0820312 36.8125 -0.25 C 36.519531 -0.414062 36.300781 -0.679688 36.15625 -1.046875 L 26.40625 -25.1875 L 26.84375 -25.078125 L 17.09375 -1.046875 C 16.945312 -0.679688 16.71875 -0.414062 16.40625 -0.25 C 16.09375 -0.0820312 15.769531 0 15.4375 0 C 15.144531 0 14.859375 -0.0859375 14.578125 -0.265625 C 14.304688 -0.453125 14.113281 -0.710938 14 -1.046875 L 1.8125 -36.328125 C 1.707031 -36.617188 1.65625 -36.835938 1.65625 -36.984375 C 1.65625 -37.535156 1.851562 -37.957031 2.25 -38.25 C 2.65625 -38.550781 3.0625 -38.703125 3.46875 -38.703125 C 3.84375 -38.703125 4.175781 -38.609375 4.46875 -38.421875 C 4.757812 -38.234375 4.960938 -37.976562 5.078125 -37.65625 L 16.15625 -5.34375 L 15.546875 -5.296875 L 25.140625 -29.21875 C 25.242188 -29.550781 25.429688 -29.816406 25.703125 -30.015625 C 25.984375 -30.210938 26.3125 -30.296875 26.6875 -30.265625 C 27.050781 -30.296875 27.367188 -30.210938 27.640625 -30.015625 C 27.921875 -29.816406 28.132812 -29.550781 28.28125 -29.21875 L 37.765625 -5.40625 L 37.15625 -5.1875 L 48.171875 -37.65625 C 48.285156 -37.976562 48.488281 -38.234375 48.78125 -38.421875 C 49.082031 -38.609375 49.429688 -38.703125 49.828125 -38.703125 Z M 49.828125 -38.703125 "/></g></g></g><g fill="#000000" fill-opacity="1"><g transform="translate(53.512797, 54.191843)"><g><path d="M 6.828125 -38.59375 L 27.0625 -38.59375 C 27.507812 -38.59375 27.894531 -38.4375 28.21875 -38.125 C 28.550781 -37.8125 28.71875 -37.414062 28.71875 -36.9375 C 28.71875 -36.457031 28.550781 -36.066406 28.21875 -35.765625 C 27.894531 -35.472656 27.507812 -35.328125 27.0625 -35.328125 L 8.109375 -35.328125 L 8.65625 -36.265625 L 8.65625 -20.78125 L 8.046875 -21.5 L 24.578125 -21.5 C 25.023438 -21.5 25.410156 -21.332031 25.734375 -21 C 26.066406 -20.664062 26.234375 -20.28125 26.234375 -19.84375 C 26.234375 -19.363281 26.066406 -18.976562 25.734375 -18.6875 C 25.410156 -18.394531 25.023438 -18.25 24.578125 -18.25 L 8.15625 -18.25 L 8.65625 -18.796875 L 8.65625 -2.921875 L 8.375 -3.25 L 27.0625 -3.25 C 27.507812 -3.25 27.894531 -3.082031 28.21875 -2.75 C 28.550781 -2.425781 28.71875 -2.039062 28.71875 -1.59375 C 28.71875 -1.113281 28.550781 -0.726562 28.21875 -0.4375 C 27.894531 -0.144531 27.507812 0 27.0625 0 L 6.828125 0 C 6.390625 0 6.003906 -0.164062 5.671875 -0.5 C 5.347656 -0.832031 5.1875 -1.21875 5.1875 -1.65625 L 5.1875 -36.9375 C 5.1875 -37.375 5.347656 -37.757812 5.671875 -38.09375 C 6.003906 -38.425781 6.390625 -38.59375 6.828125 -38.59375 Z M 6.828125 -38.59375 "/></g></g></g><g fill="#000000" fill-opacity="1"><g transform="translate(84.817405, 54.191843)"><g><path d="M 6.828125 -38.59375 L 27.0625 -38.59375 C 27.507812 -38.59375 27.894531 -38.4375 28.21875 -38.125 C 28.550781 -37.8125 28.71875 -37.414062 28.71875 -36.9375 C 28.71875 -36.457031 28.550781 -36.066406 28.21875 -35.765625 C 27.894531 -35.472656 27.507812 -35.328125 27.0625 -35.328125 L 8.109375 -35.328125 L 8.65625 -36.265625 L 8.65625 -20.78125 L 8.046875 -21.5 L 24.578125 -21.5 C 25.023438 -21.5 25.410156 -21.332031 25.734375 -21 C 26.066406 -20.664062 26.234375 -20.28125 26.234375 -19.84375 C 26.234375 -19.363281 26.066406 -18.976562 25.734375 -18.6875 C 25.410156 -18.394531 25.023438 -18.25 24.578125 -18.25 L 8.15625 -18.25 L 8.65625 -18.796875 L 8.65625 -2.921875 L 8.375 -3.25 L 27.0625 -3.25 C 27.507812 -3.25 27.894531 -3.082031 28.21875 -2.75 C 28.550781 -2.425781 28.71875 -2.039062 28.71875 -1.59375 C 28.71875 -1.113281 28.550781 -0.726562 28.21875 -0.4375 C 27.894531 -0.144531 27.507812 0 27.0625 0 L 6.828125 0 C 6.390625 0 6.003906 -0.164062 5.671875 -0.5 C 5.347656 -0.832031 5.1875 -1.21875 5.1875 -1.65625 L 5.1875 -36.9375 C 5.1875 -37.375 5.347656 -37.757812 5.671875 -38.09375 C 6.003906 -38.425781 6.390625 -38.59375 6.828125 -38.59375 Z M 6.828125 -38.59375 "/></g></g></g><g fill="#000000" fill-opacity="1"><g transform="translate(116.122012, 54.191843)"><g><path d="M 32.75 0.21875 C 32.269531 0.21875 31.863281 0.015625 31.53125 -0.390625 L 15.875 -20.0625 L 18.46875 -22.65625 L 34.234375 -2.703125 C 34.492188 -2.335938 34.625 -1.953125 34.625 -1.546875 C 34.625 -0.953125 34.410156 -0.507812 33.984375 -0.21875 C 33.554688 0.0703125 33.144531 0.21875 32.75 0.21875 Z M 32.140625 -38.484375 C 32.578125 -38.484375 32.953125 -38.316406 33.265625 -37.984375 C 33.578125 -37.648438 33.734375 -37.28125 33.734375 -36.875 C 33.734375 -36.4375 33.566406 -36.050781 33.234375 -35.71875 L 8.21875 -12.296875 L 7.765625 -16.046875 L 30.921875 -37.921875 C 31.285156 -38.296875 31.691406 -38.484375 32.140625 -38.484375 Z M 6.890625 0 C 6.378906 0 5.96875 -0.164062 5.65625 -0.5 C 5.34375 -0.832031 5.1875 -1.234375 5.1875 -1.703125 L 5.1875 -36.875 C 5.1875 -37.351562 5.347656 -37.757812 5.671875 -38.09375 C 6.003906 -38.425781 6.429688 -38.59375 6.953125 -38.59375 C 7.421875 -38.59375 7.820312 -38.425781 8.15625 -38.09375 C 8.488281 -37.757812 8.65625 -37.351562 8.65625 -36.875 L 8.65625 -1.703125 C 8.613281 -1.234375 8.425781 -0.832031 8.09375 -0.5 C 7.769531 -0.164062 7.367188 0 6.890625 0 Z M 6.890625 0 "/></g></g></g><g fill="#000000" fill-opacity="1"><g transform="translate(153.323791, 54.191843)"><g><path d="M 26.515625 -3.25 C 26.953125 -3.25 27.335938 -3.09375 27.671875 -2.78125 C 28.003906 -2.46875 28.171875 -2.09375 28.171875 -1.65625 C 28.171875 -1.175781 28.003906 -0.78125 27.671875 -0.46875 C 27.335938 -0.15625 26.953125 0 26.515625 0 L 6.828125 0 C 6.359375 0 5.96875 -0.164062 5.65625 -0.5 C 5.34375 -0.832031 5.1875 -1.21875 5.1875 -1.65625 L 5.1875 -36.9375 C 5.1875 -37.375 5.347656 -37.757812 5.671875 -38.09375 C 6.003906 -38.425781 6.429688 -38.59375 6.953125 -38.59375 C 7.390625 -38.59375 7.78125 -38.425781 8.125 -38.09375 C 8.476562 -37.757812 8.65625 -37.375 8.65625 -36.9375 L 8.65625 -2.3125 L 7.609375 -3.25 Z M 26.515625 -3.25 "/></g></g></g><g fill="#000000" fill-opacity="1"><g transform="translate(179.3372, 54.191843)"><g><path d="M 28.171875 -38.8125 C 28.648438 -38.8125 29.046875 -38.632812 29.359375 -38.28125 C 29.671875 -37.9375 29.828125 -37.5625 29.828125 -37.15625 C 29.828125 -36.96875 29.796875 -36.789062 29.734375 -36.625 C 29.679688 -36.457031 29.597656 -36.285156 29.484375 -36.109375 L 16.53125 -18.296875 L 17.203125 -20.453125 L 17.203125 -1.65625 C 17.203125 -1.21875 17.035156 -0.832031 16.703125 -0.5 C 16.367188 -0.164062 15.960938 0 15.484375 0 C 15.015625 0 14.625 -0.164062 14.3125 -0.5 C 14 -0.832031 13.84375 -1.21875 13.84375 -1.65625 L 13.84375 -20.0625 L 14.109375 -18.75 L 1.484375 -36 C 1.335938 -36.175781 1.226562 -36.363281 1.15625 -36.5625 C 1.082031 -36.769531 1.046875 -36.96875 1.046875 -37.15625 C 1.046875 -37.632812 1.238281 -38.03125 1.625 -38.34375 C 2.007812 -38.65625 2.40625 -38.8125 2.8125 -38.8125 C 3.363281 -38.8125 3.820312 -38.550781 4.1875 -38.03125 L 16.046875 -21.890625 L 15.21875 -22 L 26.734375 -38.03125 C 27.097656 -38.550781 27.578125 -38.8125 28.171875 -38.8125 Z M 28.171875 -38.8125 "/></g></g></g><g fill="#000000" fill-opacity="1"><g transform="translate(210.145789, 54.191843)"><g/></g></g><g fill="#000000" fill-opacity="1"><g transform="translate(225.191842, 54.191843)"><g><path d="M 15.828125 0.546875 C 13.023438 0.585938 10.59375 0.148438 8.53125 -0.765625 C 6.476562 -1.691406 4.515625 -3.070312 2.640625 -4.90625 C 2.460938 -5.050781 2.304688 -5.234375 2.171875 -5.453125 C 2.046875 -5.671875 1.984375 -5.929688 1.984375 -6.234375 C 1.984375 -6.671875 2.15625 -7.070312 2.5 -7.4375 C 2.851562 -7.8125 3.25 -8 3.6875 -8 C 4.132812 -8 4.539062 -7.8125 4.90625 -7.4375 C 6.34375 -5.894531 7.96875 -4.71875 9.78125 -3.90625 C 11.601562 -3.101562 13.5625 -2.703125 15.65625 -2.703125 C 17.414062 -2.703125 18.984375 -2.976562 20.359375 -3.53125 C 21.742188 -4.082031 22.835938 -4.867188 23.640625 -5.890625 C 24.453125 -6.921875 24.859375 -8.117188 24.859375 -9.484375 C 24.859375 -11.171875 24.398438 -12.535156 23.484375 -13.578125 C 22.566406 -14.628906 21.351562 -15.492188 19.84375 -16.171875 C 18.332031 -16.859375 16.660156 -17.476562 14.828125 -18.03125 C 13.316406 -18.46875 11.878906 -18.96875 10.515625 -19.53125 C 9.160156 -20.101562 7.953125 -20.800781 6.890625 -21.625 C 5.828125 -22.457031 5 -23.476562 4.40625 -24.6875 C 3.820312 -25.90625 3.53125 -27.378906 3.53125 -29.109375 C 3.53125 -31.054688 4.039062 -32.78125 5.0625 -34.28125 C 6.09375 -35.789062 7.554688 -36.976562 9.453125 -37.84375 C 11.347656 -38.707031 13.546875 -39.140625 16.046875 -39.140625 C 18.210938 -39.140625 20.296875 -38.769531 22.296875 -38.03125 C 24.296875 -37.300781 25.882812 -36.21875 27.0625 -34.78125 C 27.613281 -34.195312 27.890625 -33.664062 27.890625 -33.1875 C 27.890625 -32.820312 27.707031 -32.453125 27.34375 -32.078125 C 26.976562 -31.710938 26.570312 -31.53125 26.125 -31.53125 C 25.757812 -31.53125 25.445312 -31.660156 25.1875 -31.921875 C 24.5625 -32.691406 23.769531 -33.378906 22.8125 -33.984375 C 21.863281 -34.585938 20.8125 -35.054688 19.65625 -35.390625 C 18.5 -35.722656 17.296875 -35.890625 16.046875 -35.890625 C 14.316406 -35.890625 12.757812 -35.617188 11.375 -35.078125 C 10 -34.546875 8.914062 -33.785156 8.125 -32.796875 C 7.34375 -31.804688 6.953125 -30.613281 6.953125 -29.21875 C 6.953125 -27.675781 7.390625 -26.40625 8.265625 -25.40625 C 9.148438 -24.414062 10.304688 -23.597656 11.734375 -22.953125 C 13.171875 -22.316406 14.695312 -21.722656 16.3125 -21.171875 C 17.894531 -20.722656 19.410156 -20.210938 20.859375 -19.640625 C 22.316406 -19.078125 23.601562 -18.375 24.71875 -17.53125 C 25.84375 -16.6875 26.722656 -15.617188 27.359375 -14.328125 C 28.003906 -13.046875 28.328125 -11.429688 28.328125 -9.484375 C 28.328125 -7.609375 27.796875 -5.914062 26.734375 -4.40625 C 25.671875 -2.90625 24.207031 -1.710938 22.34375 -0.828125 C 20.488281 0.0546875 18.316406 0.515625 15.828125 0.546875 Z M 15.828125 0.546875 "/></g></g></g><g fill="#000000" fill-opacity="1"><g transform="translate(256.165759, 54.191843)"><g><path d="M 33.34375 -35.71875 C 33.789062 -35.425781 34.050781 -35.050781 34.125 -34.59375 C 34.195312 -34.132812 34.085938 -33.679688 33.796875 -33.234375 C 33.535156 -32.910156 33.203125 -32.726562 32.796875 -32.6875 C 32.390625 -32.65625 32.003906 -32.726562 31.640625 -32.90625 C 30.242188 -33.820312 28.742188 -34.535156 27.140625 -35.046875 C 25.546875 -35.566406 23.832031 -35.828125 22 -35.828125 C 19.75 -35.828125 17.660156 -35.429688 15.734375 -34.640625 C 13.804688 -33.847656 12.125 -32.707031 10.6875 -31.21875 C 9.257812 -29.738281 8.148438 -27.988281 7.359375 -25.96875 C 6.566406 -23.945312 6.171875 -21.722656 6.171875 -19.296875 C 6.171875 -16.796875 6.570312 -14.523438 7.375 -12.484375 C 8.1875 -10.441406 9.316406 -8.6875 10.765625 -7.21875 C 12.222656 -5.75 13.90625 -4.628906 15.8125 -3.859375 C 17.726562 -3.085938 19.789062 -2.703125 22 -2.703125 C 23.800781 -2.703125 25.5 -2.957031 27.09375 -3.46875 C 28.6875 -3.988281 30.1875 -4.6875 31.59375 -5.5625 C 31.957031 -5.78125 32.347656 -5.863281 32.765625 -5.8125 C 33.191406 -5.757812 33.535156 -5.550781 33.796875 -5.1875 C 34.117188 -4.78125 34.234375 -4.347656 34.140625 -3.890625 C 34.054688 -3.429688 33.8125 -3.070312 33.40625 -2.8125 C 32.488281 -2.21875 31.40625 -1.664062 30.15625 -1.15625 C 28.90625 -0.644531 27.582031 -0.234375 26.1875 0.078125 C 24.789062 0.390625 23.394531 0.546875 22 0.546875 C 19.351562 0.546875 16.867188 0.0703125 14.546875 -0.875 C 12.234375 -1.832031 10.175781 -3.179688 8.375 -4.921875 C 6.570312 -6.671875 5.164062 -8.757812 4.15625 -11.1875 C 3.144531 -13.613281 2.640625 -16.316406 2.640625 -19.296875 C 2.640625 -22.160156 3.132812 -24.796875 4.125 -27.203125 C 5.125 -29.609375 6.503906 -31.691406 8.265625 -33.453125 C 10.035156 -35.222656 12.09375 -36.601562 14.4375 -37.59375 C 16.789062 -38.582031 19.3125 -39.078125 22 -39.078125 C 24.09375 -39.078125 26.113281 -38.78125 28.0625 -38.1875 C 30.007812 -37.601562 31.769531 -36.78125 33.34375 -35.71875 Z M 33.34375 -35.71875 "/></g></g></g><g fill="#000000" fill-opacity="1"><g transform="translate(292.155012, 54.191843)"><g><path d="M 6.953125 -38.59375 C 7.390625 -38.59375 7.78125 -38.425781 8.125 -38.09375 C 8.476562 -37.757812 8.65625 -37.351562 8.65625 -36.875 L 8.65625 -1.703125 C 8.613281 -1.234375 8.414062 -0.832031 8.0625 -0.5 C 7.71875 -0.164062 7.328125 0 6.890625 0 C 6.378906 0 5.96875 -0.164062 5.65625 -0.5 C 5.34375 -0.832031 5.1875 -1.234375 5.1875 -1.703125 L 5.1875 -36.875 C 5.1875 -37.351562 5.347656 -37.757812 5.671875 -38.09375 C 6.003906 -38.425781 6.429688 -38.59375 6.953125 -38.59375 Z M 32.796875 -38.59375 C 33.316406 -38.59375 33.734375 -38.425781 34.046875 -38.09375 C 34.359375 -37.757812 34.515625 -37.351562 34.515625 -36.875 L 34.515625 -1.703125 C 34.472656 -1.234375 34.296875 -0.832031 33.984375 -0.5 C 33.671875 -0.164062 33.257812 0 32.75 0 C 32.269531 0 31.863281 -0.164062 31.53125 -0.5 C 31.195312 -0.832031 31.03125 -1.234375 31.03125 -1.703125 L 31.03125 -36.875 C 31.03125 -37.351562 31.203125 -37.757812 31.546875 -38.09375 C 31.898438 -38.425781 32.316406 -38.59375 32.796875 -38.59375 Z M 6.671875 -21.328125 L 32.859375 -21.328125 L 32.796875 -18.140625 L 6.453125 -18.140625 Z M 6.671875 -21.328125 "/></g></g></g><g fill="#000000" fill-opacity="1"><g transform="translate(331.83693, 54.191843)"><g><path d="M 6.828125 -38.59375 L 27.0625 -38.59375 C 27.507812 -38.59375 27.894531 -38.4375 28.21875 -38.125 C 28.550781 -37.8125 28.71875 -37.414062 28.71875 -36.9375 C 28.71875 -36.457031 28.550781 -36.066406 28.21875 -35.765625 C 27.894531 -35.472656 27.507812 -35.328125 27.0625 -35.328125 L 8.109375 -35.328125 L 8.65625 -36.265625 L 8.65625 -20.78125 L 8.046875 -21.5 L 24.578125 -21.5 C 25.023438 -21.5 25.410156 -21.332031 25.734375 -21 C 26.066406 -20.664062 26.234375 -20.28125 26.234375 -19.84375 C 26.234375 -19.363281 26.066406 -18.976562 25.734375 -18.6875 C 25.410156 -18.394531 25.023438 -18.25 24.578125 -18.25 L 8.15625 -18.25 L 8.65625 -18.796875 L 8.65625 -2.921875 L 8.375 -3.25 L 27.0625 -3.25 C 27.507812 -3.25 27.894531 -3.082031 28.21875 -2.75 C 28.550781 -2.425781 28.71875 -2.039062 28.71875 -1.59375 C 28.71875 -1.113281 28.550781 -0.726562 28.21875 -0.4375 C 27.894531 -0.144531 27.507812 0 27.0625 0 L 6.828125 0 C 6.390625 0 6.003906 -0.164062 5.671875 -0.5 C 5.347656 -0.832031 5.1875 -1.21875 5.1875 -1.65625 L 5.1875 -36.9375 C 5.1875 -37.375 5.347656 -37.757812 5.671875 -38.09375 C 6.003906 -38.425781 6.390625 -38.59375 6.828125 -38.59375 Z M 6.828125 -38.59375 "/></g></g></g><g fill="#000000" fill-opacity="1"><g transform="translate(363.141527, 54.191843)"><g><path d="M 20.890625 -38.59375 C 23.609375 -38.59375 25.988281 -38.078125 28.03125 -37.046875 C 30.070312 -36.015625 31.753906 -34.585938 33.078125 -32.765625 C 34.398438 -30.953125 35.378906 -28.882812 36.015625 -26.5625 C 36.660156 -24.25 36.984375 -21.828125 36.984375 -19.296875 C 36.984375 -15.765625 36.40625 -12.535156 35.25 -9.609375 C 34.09375 -6.691406 32.328125 -4.359375 29.953125 -2.609375 C 27.585938 -0.867188 24.566406 0 20.890625 0 L 6.828125 0 C 6.390625 0 6.003906 -0.164062 5.671875 -0.5 C 5.347656 -0.832031 5.1875 -1.21875 5.1875 -1.65625 L 5.1875 -36.9375 C 5.1875 -37.375 5.347656 -37.757812 5.671875 -38.09375 C 6.003906 -38.425781 6.390625 -38.59375 6.828125 -38.59375 Z M 20.34375 -3.25 C 23.46875 -3.25 25.984375 -3.960938 27.890625 -5.390625 C 29.804688 -6.828125 31.210938 -8.769531 32.109375 -11.21875 C 33.003906 -13.664062 33.453125 -16.359375 33.453125 -19.296875 C 33.453125 -21.421875 33.203125 -23.445312 32.703125 -25.375 C 32.210938 -27.3125 31.441406 -29.023438 30.390625 -30.515625 C 29.347656 -32.003906 27.988281 -33.175781 26.3125 -34.03125 C 24.644531 -34.894531 22.65625 -35.328125 20.34375 -35.328125 L 8.265625 -35.328125 L 8.65625 -35.828125 L 8.65625 -2.703125 L 8.328125 -3.25 Z M 20.34375 -3.25 "/></g></g></g><g fill="#000000" fill-opacity="1"><g transform="translate(402.768297, 54.191843)"><g><path d="M 32.46875 -38.59375 C 32.976562 -38.59375 33.378906 -38.4375 33.671875 -38.125 C 33.972656 -37.8125 34.125 -37.414062 34.125 -36.9375 L 34.125 -14.109375 C 34.125 -11.390625 33.476562 -8.925781 32.1875 -6.71875 C 30.90625 -4.519531 29.179688 -2.765625 27.015625 -1.453125 C 24.847656 -0.148438 22.398438 0.5 19.671875 0.5 C 16.953125 0.5 14.5 -0.148438 12.3125 -1.453125 C 10.132812 -2.765625 8.398438 -4.519531 7.109375 -6.71875 C 5.828125 -8.925781 5.1875 -11.390625 5.1875 -14.109375 L 5.1875 -36.9375 C 5.1875 -37.414062 5.34375 -37.8125 5.65625 -38.125 C 5.96875 -38.4375 6.398438 -38.59375 6.953125 -38.59375 C 7.390625 -38.59375 7.769531 -38.4375 8.09375 -38.125 C 8.425781 -37.8125 8.59375 -37.414062 8.59375 -36.9375 L 8.59375 -14.109375 C 8.59375 -11.984375 9.097656 -10.070312 10.109375 -8.375 C 11.117188 -6.6875 12.46875 -5.335938 14.15625 -4.328125 C 15.851562 -3.316406 17.691406 -2.8125 19.671875 -2.8125 C 21.734375 -2.8125 23.609375 -3.316406 25.296875 -4.328125 C 26.992188 -5.335938 28.347656 -6.6875 29.359375 -8.375 C 30.367188 -10.070312 30.875 -11.984375 30.875 -14.109375 L 30.875 -36.9375 C 30.875 -37.414062 31.019531 -37.8125 31.3125 -38.125 C 31.601562 -38.4375 31.988281 -38.59375 32.46875 -38.59375 Z M 32.46875 -38.59375 "/></g></g></g><g fill="#000000" fill-opacity="1"><g transform="translate(442.064388, 54.191843)"><g><path d="M 26.515625 -3.25 C 26.953125 -3.25 27.335938 -3.09375 27.671875 -2.78125 C 28.003906 -2.46875 28.171875 -2.09375 28.171875 -1.65625 C 28.171875 -1.175781 28.003906 -0.78125 27.671875 -0.46875 C 27.335938 -0.15625 26.953125 0 26.515625 0 L 6.828125 0 C 6.359375 0 5.96875 -0.164062 5.65625 -0.5 C 5.34375 -0.832031 5.1875 -1.21875 5.1875 -1.65625 L 5.1875 -36.9375 C 5.1875 -37.375 5.347656 -37.757812 5.671875 -38.09375 C 6.003906 -38.425781 6.429688 -38.59375 6.953125 -38.59375 C 7.390625 -38.59375 7.78125 -38.425781 8.125 -38.09375 C 8.476562 -37.757812 8.65625 -37.375 8.65625 -36.9375 L 8.65625 -2.3125 L 7.609375 -3.25 Z M 26.515625 -3.25 "/></g></g></g><g fill="#000000" fill-opacity="1"><g transform="translate(471.384933, 54.191843)"><g><path d="M 6.828125 -38.59375 L 27.0625 -38.59375 C 27.507812 -38.59375 27.894531 -38.4375 28.21875 -38.125 C 28.550781 -37.8125 28.71875 -37.414062 28.71875 -36.9375 C 28.71875 -36.457031 28.550781 -36.066406 28.21875 -35.765625 C 27.894531 -35.472656 27.507812 -35.328125 27.0625 -35.328125 L 8.109375 -35.328125 L 8.65625 -36.265625 L 8.65625 -20.78125 L 8.046875 -21.5 L 24.578125 -21.5 C 25.023438 -21.5 25.410156 -21.332031 25.734375 -21 C 26.066406 -20.664062 26.234375 -20.28125 26.234375 -19.84375 C 26.234375 -19.363281 26.066406 -18.976562 25.734375 -18.6875 C 25.410156 -18.394531 25.023438 -18.25 24.578125 -18.25 L 8.15625 -18.25 L 8.65625 -18.796875 L 8.65625 -2.921875 L 8.375 -3.25 L 27.0625 -3.25 C 27.507812 -3.25 27.894531 -3.082031 28.21875 -2.75 C 28.550781 -2.425781 28.71875 -2.039062 28.71875 -1.59375 C 28.71875 -1.113281 28.550781 -0.726562 28.21875 -0.4375 C 27.894531 -0.144531 27.507812 0 27.0625 0 L 6.828125 0 C 6.390625 0 6.003906 -0.164062 5.671875 -0.5 C 5.347656 -0.832031 5.1875 -1.21875 5.1875 -1.65625 L 5.1875 -36.9375 C 5.1875 -37.375 5.347656 -37.757812 5.671875 -38.09375 C 6.003906 -38.425781 6.390625 -38.59375 6.828125 -38.59375 Z M 6.828125 -38.59375 "/></g></g></g></svg>