<svg xmlns="http://www.w3.org/2000/svg" xmlns:xlink="http://www.w3.org/1999/xlink" width="1200" zoomAndPan="magnify" viewBox="0 0 900 675.000002" height="900" preserveAspectRatio="xMidYMid meet" version="1.0"><defs><g/><clipPath id="133aa65fdd"><path d="M 3.964844 4.316406 L 774.269531 4.316406 L 774.269531 431.476562 L 3.964844 431.476562 Z M 3.964844 4.316406 " clip-rule="nonzero"/></clipPath><clipPath id="da6c1c7c86"><path d="M 12.199219 4.316406 L 765.894531 4.316406 C 768.078125 4.316406 770.171875 5.183594 771.71875 6.726562 C 773.261719 8.273438 774.128906 10.367188 774.128906 12.550781 L 774.128906 423.441406 C 774.128906 425.625 773.261719 427.71875 771.71875 429.265625 C 770.171875 430.808594 768.078125 431.679688 765.894531 431.679688 L 12.199219 431.679688 C 10.015625 431.679688 7.921875 430.808594 6.375 429.265625 C 4.832031 427.71875 3.964844 425.625 3.964844 423.441406 L 3.964844 12.550781 C 3.964844 10.367188 4.832031 8.273438 6.375 6.726562 C 7.921875 5.183594 10.015625 4.316406 12.199219 4.316406 Z M 12.199219 4.316406 " clip-rule="nonzero"/></clipPath><clipPath id="aacfb5fdd6"><path d="M 53 3 L 60.714844 3 L 60.714844 13 L 53 13 Z M 53 3 " clip-rule="nonzero"/></clipPath><clipPath id="dd28b30850"><rect x="0" width="61" y="0" height="17"/></clipPath><clipPath id="c44e1b1315"><rect x="0" width="60" y="0" height="17"/></clipPath><clipPath id="f1447855bd"><rect x="0" width="224" y="0" height="17"/></clipPath><clipPath id="30ae0fe433"><rect x="0" width="270" y="0" height="17"/></clipPath><clipPath id="0701485330"><path d="M 3 345 L 777.703125 345 L 777.703125 348 L 3 348 Z M 3 345 " clip-rule="nonzero"/></clipPath><clipPath id="7a3120ccec"><rect x="0" width="54" y="0" height="17"/></clipPath><clipPath id="7f0d5d277c"><path d="M 0.296875 71 L 775 71 L 775 73 L 0.296875 73 Z M 0.296875 71 " clip-rule="nonzero"/></clipPath><clipPath id="9cc09917d8"><rect x="0" width="58" y="0" height="17"/></clipPath><clipPath id="142f9a1ab6"><path d="M 3 143 L 777.703125 143 L 777.703125 146 L 3 146 Z M 3 143 " clip-rule="nonzero"/></clipPath><clipPath id="d7f66a09a0"><rect x="0" width="778" y="0" height="437"/></clipPath></defs><g transform="matrix(1, 0, 0, 1, 61, 119)"><g clip-path="url(#d7f66a09a0)"><g clip-path="url(#133aa65fdd)"><g clip-path="url(#da6c1c7c86)"><path stroke-linecap="butt" transform="matrix(0.646235, 0, 0, 0.646235, 3.963107, 4.314817)" fill="none" stroke-linejoin="miter" d="M 12.744758 0.00245949 L 1179.030999 0.00245949 C 1182.409944 0.00245949 1185.649863 1.344366 1188.043535 3.731993 C 1190.431162 6.125665 1191.779113 9.365584 1191.779113 12.744529 L 1191.779113 648.566558 C 1191.779113 651.945503 1190.431162 655.185422 1188.043535 657.579094 C 1185.649863 659.966721 1182.409944 661.314672 1179.030999 661.314672 L 12.744758 661.314672 C 9.365812 661.314672 6.125893 659.966721 3.732222 657.579094 C 1.344595 655.185422 0.00268789 651.945503 0.00268789 648.566558 L 0.00268789 12.744529 C 0.00268789 9.365584 1.344595 6.125665 3.732222 3.731993 C 6.125893 1.344366 9.365812 0.00245949 12.744758 0.00245949 Z M 12.744758 0.00245949 " stroke="#000000" stroke-width="2.317702" stroke-opacity="1" stroke-miterlimit="4"/></g></g><g transform="matrix(1, 0, 0, 1, 358, 8)"><g clip-path="url(#dd28b30850)"><g fill="#23120b" fill-opacity="1"><g transform="translate(0.849885, 12.074151)"><g><path d="M 0.203125 -7.578125 L 0.203125 -8.40625 L 7.203125 -8.40625 L 7.203125 -7.578125 L 4.171875 -7.578125 L 4.171875 0 L 3.25 0 L 3.25 -7.578125 Z M 0.203125 -7.578125 "/></g></g></g><g fill="#23120b" fill-opacity="1"><g transform="translate(8.259261, 12.074151)"><g><path d="M 0.921875 0 L 0.921875 -8.40625 L 1.84375 -8.40625 L 1.84375 -4.65625 L 6.734375 -4.65625 L 6.734375 -8.40625 L 7.671875 -8.40625 L 7.671875 0 L 6.734375 0 L 6.734375 -3.828125 L 1.84375 -3.828125 L 1.84375 0 Z M 0.921875 0 "/></g></g></g><g fill="#23120b" fill-opacity="1"><g transform="translate(16.845498, 12.074151)"><g><path d="M 9.1875 -4.203125 C 9.1875 -3.597656 9.070312 -3.03125 8.84375 -2.5 C 8.625 -1.96875 8.320312 -1.507812 7.9375 -1.125 C 7.550781 -0.738281 7.09375 -0.429688 6.5625 -0.203125 C 6.03125 0.015625 5.460938 0.125 4.859375 0.125 C 4.265625 0.125 3.695312 0.015625 3.15625 -0.203125 C 2.625 -0.429688 2.164062 -0.738281 1.78125 -1.125 C 1.394531 -1.507812 1.085938 -1.96875 0.859375 -2.5 C 0.640625 -3.03125 0.53125 -3.597656 0.53125 -4.203125 C 0.53125 -4.804688 0.640625 -5.375 0.859375 -5.90625 C 1.085938 -6.4375 1.394531 -6.894531 1.78125 -7.28125 C 2.164062 -7.675781 2.625 -7.984375 3.15625 -8.203125 C 3.695312 -8.429688 4.265625 -8.546875 4.859375 -8.546875 C 5.460938 -8.546875 6.03125 -8.429688 6.5625 -8.203125 C 7.09375 -7.984375 7.550781 -7.675781 7.9375 -7.28125 C 8.320312 -6.894531 8.625 -6.4375 8.84375 -5.90625 C 9.070312 -5.375 9.1875 -4.804688 9.1875 -4.203125 Z M 8.25 -4.203125 C 8.25 -4.691406 8.160156 -5.148438 7.984375 -5.578125 C 7.804688 -6.003906 7.566406 -6.375 7.265625 -6.6875 C 6.972656 -7 6.617188 -7.242188 6.203125 -7.421875 C 5.785156 -7.597656 5.335938 -7.6875 4.859375 -7.6875 C 4.378906 -7.6875 3.929688 -7.597656 3.515625 -7.421875 C 3.097656 -7.242188 2.738281 -7 2.4375 -6.6875 C 2.144531 -6.375 1.910156 -6.003906 1.734375 -5.578125 C 1.554688 -5.148438 1.46875 -4.691406 1.46875 -4.203125 C 1.46875 -3.710938 1.554688 -3.253906 1.734375 -2.828125 C 1.910156 -2.410156 2.144531 -2.046875 2.4375 -1.734375 C 2.738281 -1.421875 3.097656 -1.171875 3.515625 -0.984375 C 3.929688 -0.804688 4.378906 -0.71875 4.859375 -0.71875 C 5.335938 -0.71875 5.785156 -0.804688 6.203125 -0.984375 C 6.617188 -1.171875 6.972656 -1.421875 7.265625 -1.734375 C 7.566406 -2.046875 7.804688 -2.410156 7.984375 -2.828125 C 8.160156 -3.253906 8.25 -3.710938 8.25 -4.203125 Z M 8.25 -4.203125 "/></g></g></g><g fill="#23120b" fill-opacity="1"><g transform="translate(26.560547, 12.074151)"><g><path d="M 7.703125 -3.5625 C 7.703125 -2.4375 7.382812 -1.539062 6.75 -0.875 C 6.125 -0.207031 5.285156 0.125 4.234375 0.125 C 3.160156 0.125 2.3125 -0.203125 1.6875 -0.859375 C 1.0625 -1.523438 0.75 -2.425781 0.75 -3.5625 L 0.75 -8.40625 L 1.6875 -8.40625 L 1.6875 -3.5625 C 1.6875 -2.695312 1.914062 -2.003906 2.375 -1.484375 C 2.84375 -0.972656 3.460938 -0.71875 4.234375 -0.71875 C 5.003906 -0.71875 5.617188 -0.972656 6.078125 -1.484375 C 6.546875 -2.003906 6.78125 -2.695312 6.78125 -3.5625 L 6.78125 -8.40625 L 7.703125 -8.40625 Z M 7.703125 -3.5625 "/></g></g></g><g fill="#23120b" fill-opacity="1"><g transform="translate(35.014685, 12.074151)"><g><path d="M 8.96875 -4.03125 C 8.96875 -3.4375 8.863281 -2.882812 8.65625 -2.375 C 8.445312 -1.875 8.15625 -1.4375 7.78125 -1.0625 C 7.414062 -0.695312 6.984375 -0.40625 6.484375 -0.1875 C 5.992188 0.0195312 5.457031 0.125 4.875 0.125 C 4.28125 0.125 3.710938 0.015625 3.171875 -0.203125 C 2.640625 -0.429688 2.179688 -0.738281 1.796875 -1.125 C 1.410156 -1.519531 1.101562 -1.976562 0.875 -2.5 C 0.644531 -3.03125 0.53125 -3.597656 0.53125 -4.203125 C 0.53125 -4.804688 0.640625 -5.367188 0.859375 -5.890625 C 1.085938 -6.421875 1.394531 -6.878906 1.78125 -7.265625 C 2.164062 -7.660156 2.625 -7.972656 3.15625 -8.203125 C 3.695312 -8.429688 4.265625 -8.546875 4.859375 -8.546875 C 5.515625 -8.546875 6.128906 -8.421875 6.703125 -8.171875 C 7.273438 -7.929688 7.769531 -7.59375 8.1875 -7.15625 L 7.5625 -6.53125 C 7.238281 -6.894531 6.835938 -7.175781 6.359375 -7.375 C 5.878906 -7.582031 5.378906 -7.6875 4.859375 -7.6875 C 4.378906 -7.6875 3.929688 -7.597656 3.515625 -7.421875 C 3.097656 -7.242188 2.738281 -7 2.4375 -6.6875 C 2.144531 -6.375 1.910156 -6.003906 1.734375 -5.578125 C 1.554688 -5.148438 1.46875 -4.691406 1.46875 -4.203125 C 1.46875 -3.710938 1.554688 -3.253906 1.734375 -2.828125 C 1.910156 -2.398438 2.144531 -2.03125 2.4375 -1.71875 C 2.738281 -1.414062 3.097656 -1.171875 3.515625 -0.984375 C 3.929688 -0.804688 4.378906 -0.71875 4.859375 -0.71875 C 5.285156 -0.71875 5.6875 -0.789062 6.0625 -0.9375 C 6.4375 -1.082031 6.757812 -1.28125 7.03125 -1.53125 C 7.3125 -1.78125 7.539062 -2.082031 7.71875 -2.4375 C 7.894531 -2.789062 8 -3.171875 8.03125 -3.578125 L 5.015625 -3.578125 L 5.015625 -4.390625 L 8.96875 -4.390625 Z M 8.96875 -4.03125 "/></g></g></g><g fill="#23120b" fill-opacity="1"><g transform="translate(44.477555, 12.074151)"><g><path d="M 0.921875 0 L 0.921875 -8.40625 L 1.84375 -8.40625 L 1.84375 -4.65625 L 6.734375 -4.65625 L 6.734375 -8.40625 L 7.671875 -8.40625 L 7.671875 0 L 6.734375 0 L 6.734375 -3.828125 L 1.84375 -3.828125 L 1.84375 0 Z M 0.921875 0 "/></g></g></g><g clip-path="url(#aacfb5fdd6)"><g fill="#23120b" fill-opacity="1"><g transform="translate(53.063792, 12.074151)"><g><path d="M 0.203125 -7.578125 L 0.203125 -8.40625 L 7.203125 -8.40625 L 7.203125 -7.578125 L 4.171875 -7.578125 L 4.171875 0 L 3.25 0 L 3.25 -7.578125 Z M 0.203125 -7.578125 "/></g></g></g></g></g></g><g transform="matrix(1, 0, 0, 1, 358, 77)"><g clip-path="url(#c44e1b1315)"><g fill="#23120b" fill-opacity="1"><g transform="translate(0.89257, 11.71099)"><g><path d="M 0.921875 0 L 0.921875 -8.40625 L 6.9375 -8.40625 L 6.9375 -7.59375 L 1.84375 -7.59375 L 1.84375 -4.59375 L 5.1875 -4.59375 L 5.1875 -3.78125 L 1.84375 -3.78125 L 1.84375 0 Z M 0.921875 0 "/></g></g></g><g fill="#23120b" fill-opacity="1"><g transform="translate(8.181866, 11.71099)"><g><path d="M 0.921875 0 L 0.921875 -8.40625 L 6.9375 -8.40625 L 6.9375 -7.59375 L 1.84375 -7.59375 L 1.84375 -4.65625 L 5.171875 -4.65625 L 5.171875 -3.84375 L 1.84375 -3.84375 L 1.84375 -0.8125 L 7 -0.8125 L 7 0 Z M 0.921875 0 "/></g></g></g><g fill="#23120b" fill-opacity="1"><g transform="translate(15.579236, 11.71099)"><g><path d="M 0.921875 0 L 0.921875 -8.40625 L 6.9375 -8.40625 L 6.9375 -7.59375 L 1.84375 -7.59375 L 1.84375 -4.65625 L 5.171875 -4.65625 L 5.171875 -3.84375 L 1.84375 -3.84375 L 1.84375 -0.8125 L 7 -0.8125 L 7 0 Z M 0.921875 0 "/></g></g></g><g fill="#23120b" fill-opacity="1"><g transform="translate(22.976607, 11.71099)"><g><path d="M 0.921875 0 L 0.921875 -8.40625 L 1.84375 -8.40625 L 1.84375 -0.828125 L 6.859375 -0.828125 L 6.859375 0 Z M 0.921875 0 "/></g></g></g><g fill="#23120b" fill-opacity="1"><g transform="translate(30.229873, 11.71099)"><g><path d="M 0.921875 0 L 0.921875 -8.40625 L 1.84375 -8.40625 L 1.84375 0 Z M 0.921875 0 "/></g></g></g><g fill="#23120b" fill-opacity="1"><g transform="translate(33.00389, 11.71099)"><g><path d="M 0.921875 -8.40625 L 1.84375 -8.40625 L 6.90625 -1.59375 L 6.90625 -8.40625 L 7.78125 -8.40625 L 7.78125 0 L 6.96875 0 L 1.796875 -7 L 1.796875 0 L 0.921875 0 Z M 0.921875 -8.40625 "/></g></g></g><g fill="#23120b" fill-opacity="1"><g transform="translate(41.710207, 11.71099)"><g><path d="M 8.96875 -4.03125 C 8.96875 -3.4375 8.863281 -2.882812 8.65625 -2.375 C 8.445312 -1.875 8.15625 -1.4375 7.78125 -1.0625 C 7.414062 -0.695312 6.984375 -0.40625 6.484375 -0.1875 C 5.992188 0.0195312 5.457031 0.125 4.875 0.125 C 4.28125 0.125 3.710938 0.015625 3.171875 -0.203125 C 2.640625 -0.429688 2.179688 -0.738281 1.796875 -1.125 C 1.410156 -1.519531 1.101562 -1.976562 0.875 -2.5 C 0.644531 -3.03125 0.53125 -3.597656 0.53125 -4.203125 C 0.53125 -4.804688 0.640625 -5.367188 0.859375 -5.890625 C 1.085938 -6.421875 1.394531 -6.878906 1.78125 -7.265625 C 2.164062 -7.660156 2.625 -7.972656 3.15625 -8.203125 C 3.695312 -8.429688 4.265625 -8.546875 4.859375 -8.546875 C 5.515625 -8.546875 6.128906 -8.421875 6.703125 -8.171875 C 7.273438 -7.929688 7.769531 -7.59375 8.1875 -7.15625 L 7.5625 -6.53125 C 7.238281 -6.894531 6.835938 -7.175781 6.359375 -7.375 C 5.878906 -7.582031 5.378906 -7.6875 4.859375 -7.6875 C 4.378906 -7.6875 3.929688 -7.597656 3.515625 -7.421875 C 3.097656 -7.242188 2.738281 -7 2.4375 -6.6875 C 2.144531 -6.375 1.910156 -6.003906 1.734375 -5.578125 C 1.554688 -5.148438 1.46875 -4.691406 1.46875 -4.203125 C 1.46875 -3.710938 1.554688 -3.253906 1.734375 -2.828125 C 1.910156 -2.398438 2.144531 -2.03125 2.4375 -1.71875 C 2.738281 -1.414062 3.097656 -1.171875 3.515625 -0.984375 C 3.929688 -0.804688 4.378906 -0.71875 4.859375 -0.71875 C 5.285156 -0.71875 5.6875 -0.789062 6.0625 -0.9375 C 6.4375 -1.082031 6.757812 -1.28125 7.03125 -1.53125 C 7.3125 -1.78125 7.539062 -2.082031 7.71875 -2.4375 C 7.894531 -2.789062 8 -3.171875 8.03125 -3.578125 L 5.015625 -3.578125 L 5.015625 -4.390625 L 8.96875 -4.390625 Z M 8.96875 -4.03125 "/></g></g></g><g fill="#23120b" fill-opacity="1"><g transform="translate(51.173077, 11.71099)"><g><path d="M 0.125 -1.4375 L 0.75 -2.078125 C 1.175781 -1.617188 1.632812 -1.269531 2.125 -1.03125 C 2.625 -0.800781 3.144531 -0.6875 3.6875 -0.6875 C 4.34375 -0.6875 4.882812 -0.84375 5.3125 -1.15625 C 5.738281 -1.46875 5.953125 -1.863281 5.953125 -2.34375 C 5.953125 -2.769531 5.800781 -3.097656 5.5 -3.328125 C 5.195312 -3.566406 4.703125 -3.742188 4.015625 -3.859375 L 2.796875 -4.046875 C 1.992188 -4.171875 1.398438 -4.40625 1.015625 -4.75 C 0.628906 -5.101562 0.4375 -5.578125 0.4375 -6.171875 C 0.4375 -6.867188 0.707031 -7.429688 1.25 -7.859375 C 1.789062 -8.296875 2.503906 -8.515625 3.390625 -8.515625 C 3.972656 -8.515625 4.550781 -8.414062 5.125 -8.21875 C 5.707031 -8.03125 6.234375 -7.757812 6.703125 -7.40625 L 6.171875 -6.6875 C 5.710938 -7.03125 5.25 -7.285156 4.78125 -7.453125 C 4.3125 -7.628906 3.835938 -7.71875 3.359375 -7.71875 C 2.753906 -7.71875 2.265625 -7.578125 1.890625 -7.296875 C 1.515625 -7.023438 1.328125 -6.675781 1.328125 -6.25 C 1.328125 -5.851562 1.457031 -5.550781 1.71875 -5.34375 C 1.988281 -5.132812 2.429688 -4.984375 3.046875 -4.890625 L 4.234375 -4.703125 C 5.148438 -4.546875 5.816406 -4.28125 6.234375 -3.90625 C 6.660156 -3.539062 6.875 -3.035156 6.875 -2.390625 C 6.875 -2.023438 6.796875 -1.6875 6.640625 -1.375 C 6.484375 -1.0625 6.257812 -0.796875 5.96875 -0.578125 C 5.6875 -0.359375 5.347656 -0.1875 4.953125 -0.0625 C 4.554688 0.0625 4.125 0.125 3.65625 0.125 C 2.988281 0.125 2.347656 -0.0078125 1.734375 -0.28125 C 1.117188 -0.550781 0.582031 -0.9375 0.125 -1.4375 Z M 0.125 -1.4375 "/></g></g></g></g></g><g transform="matrix(1, 0, 0, 1, 88, 150)"><g clip-path="url(#f1447855bd)"><g fill="#23120b" fill-opacity="1"><g transform="translate(1.460355, 11.689766)"><g><path d="M 0.921875 0 L 0.921875 -8.40625 L 6.9375 -8.40625 L 6.9375 -7.59375 L 1.84375 -7.59375 L 1.84375 -4.65625 L 5.171875 -4.65625 L 5.171875 -3.84375 L 1.84375 -3.84375 L 1.84375 -0.8125 L 7 -0.8125 L 7 0 Z M 0.921875 0 "/></g></g></g><g fill="#23120b" fill-opacity="1"><g transform="translate(8.857725, 11.689766)"><g><path d="M 3.5 0 L 0.046875 -8.40625 L 1.046875 -8.40625 L 4.078125 -0.859375 L 7.171875 -8.40625 L 8.109375 -8.40625 L 4.609375 0 Z M 3.5 0 "/></g></g></g><g fill="#23120b" fill-opacity="1"><g transform="translate(17.011649, 11.689766)"><g><path d="M 0.921875 0 L 0.921875 -8.40625 L 1.84375 -8.40625 L 1.84375 0 Z M 0.921875 0 "/></g></g></g><g fill="#23120b" fill-opacity="1"><g transform="translate(19.785666, 11.689766)"><g><path d="M 0.921875 0 L 0.921875 -8.40625 L 3.703125 -8.40625 C 4.335938 -8.40625 4.925781 -8.300781 5.46875 -8.09375 C 6.007812 -7.882812 6.476562 -7.59375 6.875 -7.21875 C 7.269531 -6.851562 7.578125 -6.410156 7.796875 -5.890625 C 8.015625 -5.378906 8.125 -4.816406 8.125 -4.203125 C 8.125 -3.597656 8.015625 -3.035156 7.796875 -2.515625 C 7.578125 -2.003906 7.269531 -1.5625 6.875 -1.1875 C 6.488281 -0.820312 6.019531 -0.53125 5.46875 -0.3125 C 4.925781 -0.101562 4.335938 0 3.703125 0 Z M 3.75 -7.5625 L 1.84375 -7.5625 L 1.84375 -0.84375 L 3.75 -0.84375 C 4.226562 -0.84375 4.679688 -0.925781 5.109375 -1.09375 C 5.535156 -1.269531 5.898438 -1.507812 6.203125 -1.8125 C 6.503906 -2.113281 6.742188 -2.46875 6.921875 -2.875 C 7.097656 -3.289062 7.1875 -3.734375 7.1875 -4.203125 C 7.1875 -4.679688 7.097656 -5.125 6.921875 -5.53125 C 6.742188 -5.945312 6.503906 -6.300781 6.203125 -6.59375 C 5.898438 -6.894531 5.535156 -7.128906 5.109375 -7.296875 C 4.679688 -7.472656 4.226562 -7.5625 3.75 -7.5625 Z M 3.75 -7.5625 "/></g></g></g><g fill="#23120b" fill-opacity="1"><g transform="translate(28.431943, 11.689766)"><g><path d="M 0.921875 0 L 0.921875 -8.40625 L 6.9375 -8.40625 L 6.9375 -7.59375 L 1.84375 -7.59375 L 1.84375 -4.65625 L 5.171875 -4.65625 L 5.171875 -3.84375 L 1.84375 -3.84375 L 1.84375 -0.8125 L 7 -0.8125 L 7 0 Z M 0.921875 0 "/></g></g></g><g fill="#23120b" fill-opacity="1"><g transform="translate(35.829314, 11.689766)"><g><path d="M 0.921875 -8.40625 L 1.84375 -8.40625 L 6.90625 -1.59375 L 6.90625 -8.40625 L 7.78125 -8.40625 L 7.78125 0 L 6.96875 0 L 1.796875 -7 L 1.796875 0 L 0.921875 0 Z M 0.921875 -8.40625 "/></g></g></g><g fill="#23120b" fill-opacity="1"><g transform="translate(44.535631, 11.689766)"><g><path d="M 4.921875 -0.71875 C 5.441406 -0.71875 5.9375 -0.816406 6.40625 -1.015625 C 6.875 -1.222656 7.269531 -1.507812 7.59375 -1.875 L 8.1875 -1.25 C 7.769531 -0.8125 7.273438 -0.472656 6.703125 -0.234375 C 6.128906 0.00390625 5.523438 0.125 4.890625 0.125 C 4.285156 0.125 3.710938 0.015625 3.171875 -0.203125 C 2.640625 -0.429688 2.175781 -0.738281 1.78125 -1.125 C 1.394531 -1.507812 1.085938 -1.96875 0.859375 -2.5 C 0.640625 -3.03125 0.53125 -3.597656 0.53125 -4.203125 C 0.53125 -4.804688 0.640625 -5.375 0.859375 -5.90625 C 1.085938 -6.4375 1.394531 -6.894531 1.78125 -7.28125 C 2.175781 -7.675781 2.640625 -7.984375 3.171875 -8.203125 C 3.710938 -8.429688 4.285156 -8.546875 4.890625 -8.546875 C 5.535156 -8.546875 6.148438 -8.421875 6.734375 -8.171875 C 7.316406 -7.929688 7.8125 -7.59375 8.21875 -7.15625 L 7.609375 -6.515625 C 7.273438 -6.878906 6.863281 -7.164062 6.375 -7.375 C 5.894531 -7.582031 5.398438 -7.6875 4.890625 -7.6875 C 4.410156 -7.6875 3.957031 -7.597656 3.53125 -7.421875 C 3.113281 -7.242188 2.753906 -7 2.453125 -6.6875 C 2.148438 -6.375 1.910156 -6.003906 1.734375 -5.578125 C 1.554688 -5.148438 1.46875 -4.691406 1.46875 -4.203125 C 1.46875 -3.710938 1.554688 -3.253906 1.734375 -2.828125 C 1.910156 -2.398438 2.148438 -2.03125 2.453125 -1.71875 C 2.765625 -1.414062 3.128906 -1.171875 3.546875 -0.984375 C 3.972656 -0.804688 4.429688 -0.71875 4.921875 -0.71875 Z M 4.921875 -0.71875 "/></g></g></g><g fill="#23120b" fill-opacity="1"><g transform="translate(53.205933, 11.689766)"><g><path d="M 0.921875 0 L 0.921875 -8.40625 L 6.9375 -8.40625 L 6.9375 -7.59375 L 1.84375 -7.59375 L 1.84375 -4.65625 L 5.171875 -4.65625 L 5.171875 -3.84375 L 1.84375 -3.84375 L 1.84375 -0.8125 L 7 -0.8125 L 7 0 Z M 0.921875 0 "/></g></g></g><g fill="#23120b" fill-opacity="1"><g transform="translate(60.603303, 11.689766)"><g/></g></g><g fill="#23120b" fill-opacity="1"><g transform="translate(63.185181, 11.689766)"><g><path d="M 0.203125 -7.578125 L 0.203125 -8.40625 L 7.203125 -8.40625 L 7.203125 -7.578125 L 4.171875 -7.578125 L 4.171875 0 L 3.25 0 L 3.25 -7.578125 Z M 0.203125 -7.578125 "/></g></g></g><g fill="#23120b" fill-opacity="1"><g transform="translate(70.594557, 11.689766)"><g><path d="M 0.921875 0 L 0.921875 -8.40625 L 1.84375 -8.40625 L 1.84375 -4.65625 L 6.734375 -4.65625 L 6.734375 -8.40625 L 7.671875 -8.40625 L 7.671875 0 L 6.734375 0 L 6.734375 -3.828125 L 1.84375 -3.828125 L 1.84375 0 Z M 0.921875 0 "/></g></g></g><g fill="#23120b" fill-opacity="1"><g transform="translate(79.180794, 11.689766)"><g><path d="M 0.046875 0 L 3.546875 -8.40625 L 4.65625 -8.40625 L 8.109375 0 L 7.09375 0 L 6.046875 -2.640625 L 2.078125 -2.640625 L 1.015625 0 Z M 2.40625 -3.4375 L 5.71875 -3.4375 L 4.078125 -7.546875 Z M 2.40625 -3.4375 "/></g></g></g><g fill="#23120b" fill-opacity="1"><g transform="translate(87.334717, 11.689766)"><g><path d="M 0.203125 -7.578125 L 0.203125 -8.40625 L 7.203125 -8.40625 L 7.203125 -7.578125 L 4.171875 -7.578125 L 4.171875 0 L 3.25 0 L 3.25 -7.578125 Z M 0.203125 -7.578125 "/></g></g></g><g fill="#23120b" fill-opacity="1"><g transform="translate(94.744093, 11.689766)"><g/></g></g><g fill="#23120b" fill-opacity="1"><g transform="translate(97.325971, 11.689766)"><g><path d="M 0.125 -1.4375 L 0.75 -2.078125 C 1.175781 -1.617188 1.632812 -1.269531 2.125 -1.03125 C 2.625 -0.800781 3.144531 -0.6875 3.6875 -0.6875 C 4.34375 -0.6875 4.882812 -0.84375 5.3125 -1.15625 C 5.738281 -1.46875 5.953125 -1.863281 5.953125 -2.34375 C 5.953125 -2.769531 5.800781 -3.097656 5.5 -3.328125 C 5.195312 -3.566406 4.703125 -3.742188 4.015625 -3.859375 L 2.796875 -4.046875 C 1.992188 -4.171875 1.398438 -4.40625 1.015625 -4.75 C 0.628906 -5.101562 0.4375 -5.578125 0.4375 -6.171875 C 0.4375 -6.867188 0.707031 -7.429688 1.25 -7.859375 C 1.789062 -8.296875 2.503906 -8.515625 3.390625 -8.515625 C 3.972656 -8.515625 4.550781 -8.414062 5.125 -8.21875 C 5.707031 -8.03125 6.234375 -7.757812 6.703125 -7.40625 L 6.171875 -6.6875 C 5.710938 -7.03125 5.25 -7.285156 4.78125 -7.453125 C 4.3125 -7.628906 3.835938 -7.71875 3.359375 -7.71875 C 2.753906 -7.71875 2.265625 -7.578125 1.890625 -7.296875 C 1.515625 -7.023438 1.328125 -6.675781 1.328125 -6.25 C 1.328125 -5.851562 1.457031 -5.550781 1.71875 -5.34375 C 1.988281 -5.132812 2.429688 -4.984375 3.046875 -4.890625 L 4.234375 -4.703125 C 5.148438 -4.546875 5.816406 -4.28125 6.234375 -3.90625 C 6.660156 -3.539062 6.875 -3.035156 6.875 -2.390625 C 6.875 -2.023438 6.796875 -1.6875 6.640625 -1.375 C 6.484375 -1.0625 6.257812 -0.796875 5.96875 -0.578125 C 5.6875 -0.359375 5.347656 -0.1875 4.953125 -0.0625 C 4.554688 0.0625 4.125 0.125 3.65625 0.125 C 2.988281 0.125 2.347656 -0.0078125 1.734375 -0.28125 C 1.117188 -0.550781 0.582031 -0.9375 0.125 -1.4375 Z M 0.125 -1.4375 "/></g></g></g><g fill="#23120b" fill-opacity="1"><g transform="translate(104.531202, 11.689766)"><g><path d="M 7.703125 -3.5625 C 7.703125 -2.4375 7.382812 -1.539062 6.75 -0.875 C 6.125 -0.207031 5.285156 0.125 4.234375 0.125 C 3.160156 0.125 2.3125 -0.203125 1.6875 -0.859375 C 1.0625 -1.523438 0.75 -2.425781 0.75 -3.5625 L 0.75 -8.40625 L 1.6875 -8.40625 L 1.6875 -3.5625 C 1.6875 -2.695312 1.914062 -2.003906 2.375 -1.484375 C 2.84375 -0.972656 3.460938 -0.71875 4.234375 -0.71875 C 5.003906 -0.71875 5.617188 -0.972656 6.078125 -1.484375 C 6.546875 -2.003906 6.78125 -2.695312 6.78125 -3.5625 L 6.78125 -8.40625 L 7.703125 -8.40625 Z M 7.703125 -3.5625 "/></g></g></g><g fill="#23120b" fill-opacity="1"><g transform="translate(112.985339, 11.689766)"><g><path d="M 0.921875 0 L 0.921875 -8.40625 L 4.578125 -8.40625 C 5.390625 -8.40625 6.046875 -8.179688 6.546875 -7.734375 C 7.046875 -7.296875 7.296875 -6.710938 7.296875 -5.984375 C 7.296875 -5.253906 7.046875 -4.664062 6.546875 -4.21875 C 6.046875 -3.769531 5.390625 -3.546875 4.578125 -3.546875 L 1.84375 -3.546875 L 1.84375 0 Z M 4.5 -7.578125 L 1.84375 -7.578125 L 1.84375 -4.34375 L 4.5 -4.34375 C 5.070312 -4.34375 5.523438 -4.488281 5.859375 -4.78125 C 6.203125 -5.082031 6.375 -5.476562 6.375 -5.96875 C 6.375 -6.46875 6.203125 -6.859375 5.859375 -7.140625 C 5.523438 -7.429688 5.070312 -7.578125 4.5 -7.578125 Z M 4.5 -7.578125 "/></g></g></g><g fill="#23120b" fill-opacity="1"><g transform="translate(120.754984, 11.689766)"><g><path d="M 0.921875 0 L 0.921875 -8.40625 L 4.578125 -8.40625 C 5.390625 -8.40625 6.046875 -8.179688 6.546875 -7.734375 C 7.046875 -7.296875 7.296875 -6.710938 7.296875 -5.984375 C 7.296875 -5.253906 7.046875 -4.664062 6.546875 -4.21875 C 6.046875 -3.769531 5.390625 -3.546875 4.578125 -3.546875 L 1.84375 -3.546875 L 1.84375 0 Z M 4.5 -7.578125 L 1.84375 -7.578125 L 1.84375 -4.34375 L 4.5 -4.34375 C 5.070312 -4.34375 5.523438 -4.488281 5.859375 -4.78125 C 6.203125 -5.082031 6.375 -5.476562 6.375 -5.96875 C 6.375 -6.46875 6.203125 -6.859375 5.859375 -7.140625 C 5.523438 -7.429688 5.070312 -7.578125 4.5 -7.578125 Z M 4.5 -7.578125 "/></g></g></g><g fill="#23120b" fill-opacity="1"><g transform="translate(128.524628, 11.689766)"><g><path d="M 9.1875 -4.203125 C 9.1875 -3.597656 9.070312 -3.03125 8.84375 -2.5 C 8.625 -1.96875 8.320312 -1.507812 7.9375 -1.125 C 7.550781 -0.738281 7.09375 -0.429688 6.5625 -0.203125 C 6.03125 0.015625 5.460938 0.125 4.859375 0.125 C 4.265625 0.125 3.695312 0.015625 3.15625 -0.203125 C 2.625 -0.429688 2.164062 -0.738281 1.78125 -1.125 C 1.394531 -1.507812 1.085938 -1.96875 0.859375 -2.5 C 0.640625 -3.03125 0.53125 -3.597656 0.53125 -4.203125 C 0.53125 -4.804688 0.640625 -5.375 0.859375 -5.90625 C 1.085938 -6.4375 1.394531 -6.894531 1.78125 -7.28125 C 2.164062 -7.675781 2.625 -7.984375 3.15625 -8.203125 C 3.695312 -8.429688 4.265625 -8.546875 4.859375 -8.546875 C 5.460938 -8.546875 6.03125 -8.429688 6.5625 -8.203125 C 7.09375 -7.984375 7.550781 -7.675781 7.9375 -7.28125 C 8.320312 -6.894531 8.625 -6.4375 8.84375 -5.90625 C 9.070312 -5.375 9.1875 -4.804688 9.1875 -4.203125 Z M 8.25 -4.203125 C 8.25 -4.691406 8.160156 -5.148438 7.984375 -5.578125 C 7.804688 -6.003906 7.566406 -6.375 7.265625 -6.6875 C 6.972656 -7 6.617188 -7.242188 6.203125 -7.421875 C 5.785156 -7.597656 5.335938 -7.6875 4.859375 -7.6875 C 4.378906 -7.6875 3.929688 -7.597656 3.515625 -7.421875 C 3.097656 -7.242188 2.738281 -7 2.4375 -6.6875 C 2.144531 -6.375 1.910156 -6.003906 1.734375 -5.578125 C 1.554688 -5.148438 1.46875 -4.691406 1.46875 -4.203125 C 1.46875 -3.710938 1.554688 -3.253906 1.734375 -2.828125 C 1.910156 -2.410156 2.144531 -2.046875 2.4375 -1.734375 C 2.738281 -1.421875 3.097656 -1.171875 3.515625 -0.984375 C 3.929688 -0.804688 4.378906 -0.71875 4.859375 -0.71875 C 5.335938 -0.71875 5.785156 -0.804688 6.203125 -0.984375 C 6.617188 -1.171875 6.972656 -1.421875 7.265625 -1.734375 C 7.566406 -2.046875 7.804688 -2.410156 7.984375 -2.828125 C 8.160156 -3.253906 8.25 -3.710938 8.25 -4.203125 Z M 8.25 -4.203125 "/></g></g></g><g fill="#23120b" fill-opacity="1"><g transform="translate(138.239678, 11.689766)"><g><path d="M 0.921875 0 L 0.921875 -8.40625 L 4.53125 -8.40625 C 5.34375 -8.40625 6 -8.179688 6.5 -7.734375 C 7.007812 -7.296875 7.265625 -6.71875 7.265625 -6 C 7.265625 -5.445312 7.101562 -4.96875 6.78125 -4.5625 C 6.457031 -4.164062 6.023438 -3.890625 5.484375 -3.734375 L 7.359375 0 L 6.34375 0 L 4.546875 -3.609375 L 1.84375 -3.609375 L 1.84375 0 Z M 4.46875 -7.578125 L 1.84375 -7.578125 L 1.84375 -4.390625 L 4.46875 -4.390625 C 5.03125 -4.390625 5.484375 -4.535156 5.828125 -4.828125 C 6.171875 -5.128906 6.34375 -5.519531 6.34375 -6 C 6.34375 -6.476562 6.171875 -6.859375 5.828125 -7.140625 C 5.484375 -7.429688 5.03125 -7.578125 4.46875 -7.578125 Z M 4.46875 -7.578125 "/></g></g></g><g fill="#23120b" fill-opacity="1"><g transform="translate(145.985297, 11.689766)"><g><path d="M 0.203125 -7.578125 L 0.203125 -8.40625 L 7.203125 -8.40625 L 7.203125 -7.578125 L 4.171875 -7.578125 L 4.171875 0 L 3.25 0 L 3.25 -7.578125 Z M 0.203125 -7.578125 "/></g></g></g><g fill="#23120b" fill-opacity="1"><g transform="translate(153.394673, 11.689766)"><g><path d="M 0.125 -1.4375 L 0.75 -2.078125 C 1.175781 -1.617188 1.632812 -1.269531 2.125 -1.03125 C 2.625 -0.800781 3.144531 -0.6875 3.6875 -0.6875 C 4.34375 -0.6875 4.882812 -0.84375 5.3125 -1.15625 C 5.738281 -1.46875 5.953125 -1.863281 5.953125 -2.34375 C 5.953125 -2.769531 5.800781 -3.097656 5.5 -3.328125 C 5.195312 -3.566406 4.703125 -3.742188 4.015625 -3.859375 L 2.796875 -4.046875 C 1.992188 -4.171875 1.398438 -4.40625 1.015625 -4.75 C 0.628906 -5.101562 0.4375 -5.578125 0.4375 -6.171875 C 0.4375 -6.867188 0.707031 -7.429688 1.25 -7.859375 C 1.789062 -8.296875 2.503906 -8.515625 3.390625 -8.515625 C 3.972656 -8.515625 4.550781 -8.414062 5.125 -8.21875 C 5.707031 -8.03125 6.234375 -7.757812 6.703125 -7.40625 L 6.171875 -6.6875 C 5.710938 -7.03125 5.25 -7.285156 4.78125 -7.453125 C 4.3125 -7.628906 3.835938 -7.71875 3.359375 -7.71875 C 2.753906 -7.71875 2.265625 -7.578125 1.890625 -7.296875 C 1.515625 -7.023438 1.328125 -6.675781 1.328125 -6.25 C 1.328125 -5.851562 1.457031 -5.550781 1.71875 -5.34375 C 1.988281 -5.132812 2.429688 -4.984375 3.046875 -4.890625 L 4.234375 -4.703125 C 5.148438 -4.546875 5.816406 -4.28125 6.234375 -3.90625 C 6.660156 -3.539062 6.875 -3.035156 6.875 -2.390625 C 6.875 -2.023438 6.796875 -1.6875 6.640625 -1.375 C 6.484375 -1.0625 6.257812 -0.796875 5.96875 -0.578125 C 5.6875 -0.359375 5.347656 -0.1875 4.953125 -0.0625 C 4.554688 0.0625 4.125 0.125 3.65625 0.125 C 2.988281 0.125 2.347656 -0.0078125 1.734375 -0.28125 C 1.117188 -0.550781 0.582031 -0.9375 0.125 -1.4375 Z M 0.125 -1.4375 "/></g></g></g><g fill="#23120b" fill-opacity="1"><g transform="translate(160.599904, 11.689766)"><g/></g></g><g fill="#23120b" fill-opacity="1"><g transform="translate(163.181782, 11.689766)"><g><path d="M 0.203125 -7.578125 L 0.203125 -8.40625 L 7.203125 -8.40625 L 7.203125 -7.578125 L 4.171875 -7.578125 L 4.171875 0 L 3.25 0 L 3.25 -7.578125 Z M 0.203125 -7.578125 "/></g></g></g><g fill="#23120b" fill-opacity="1"><g transform="translate(170.591158, 11.689766)"><g><path d="M 0.921875 0 L 0.921875 -8.40625 L 1.84375 -8.40625 L 1.84375 -4.65625 L 6.734375 -4.65625 L 6.734375 -8.40625 L 7.671875 -8.40625 L 7.671875 0 L 6.734375 0 L 6.734375 -3.828125 L 1.84375 -3.828125 L 1.84375 0 Z M 0.921875 0 "/></g></g></g><g fill="#23120b" fill-opacity="1"><g transform="translate(179.177395, 11.689766)"><g><path d="M 9.1875 -4.203125 C 9.1875 -3.597656 9.070312 -3.03125 8.84375 -2.5 C 8.625 -1.96875 8.320312 -1.507812 7.9375 -1.125 C 7.550781 -0.738281 7.09375 -0.429688 6.5625 -0.203125 C 6.03125 0.015625 5.460938 0.125 4.859375 0.125 C 4.265625 0.125 3.695312 0.015625 3.15625 -0.203125 C 2.625 -0.429688 2.164062 -0.738281 1.78125 -1.125 C 1.394531 -1.507812 1.085938 -1.96875 0.859375 -2.5 C 0.640625 -3.03125 0.53125 -3.597656 0.53125 -4.203125 C 0.53125 -4.804688 0.640625 -5.375 0.859375 -5.90625 C 1.085938 -6.4375 1.394531 -6.894531 1.78125 -7.28125 C 2.164062 -7.675781 2.625 -7.984375 3.15625 -8.203125 C 3.695312 -8.429688 4.265625 -8.546875 4.859375 -8.546875 C 5.460938 -8.546875 6.03125 -8.429688 6.5625 -8.203125 C 7.09375 -7.984375 7.550781 -7.675781 7.9375 -7.28125 C 8.320312 -6.894531 8.625 -6.4375 8.84375 -5.90625 C 9.070312 -5.375 9.1875 -4.804688 9.1875 -4.203125 Z M 8.25 -4.203125 C 8.25 -4.691406 8.160156 -5.148438 7.984375 -5.578125 C 7.804688 -6.003906 7.566406 -6.375 7.265625 -6.6875 C 6.972656 -7 6.617188 -7.242188 6.203125 -7.421875 C 5.785156 -7.597656 5.335938 -7.6875 4.859375 -7.6875 C 4.378906 -7.6875 3.929688 -7.597656 3.515625 -7.421875 C 3.097656 -7.242188 2.738281 -7 2.4375 -6.6875 C 2.144531 -6.375 1.910156 -6.003906 1.734375 -5.578125 C 1.554688 -5.148438 1.46875 -4.691406 1.46875 -4.203125 C 1.46875 -3.710938 1.554688 -3.253906 1.734375 -2.828125 C 1.910156 -2.410156 2.144531 -2.046875 2.4375 -1.734375 C 2.738281 -1.421875 3.097656 -1.171875 3.515625 -0.984375 C 3.929688 -0.804688 4.378906 -0.71875 4.859375 -0.71875 C 5.335938 -0.71875 5.785156 -0.804688 6.203125 -0.984375 C 6.617188 -1.171875 6.972656 -1.421875 7.265625 -1.734375 C 7.566406 -2.046875 7.804688 -2.410156 7.984375 -2.828125 C 8.160156 -3.253906 8.25 -3.710938 8.25 -4.203125 Z M 8.25 -4.203125 "/></g></g></g><g fill="#23120b" fill-opacity="1"><g transform="translate(188.892444, 11.689766)"><g><path d="M 7.703125 -3.5625 C 7.703125 -2.4375 7.382812 -1.539062 6.75 -0.875 C 6.125 -0.207031 5.285156 0.125 4.234375 0.125 C 3.160156 0.125 2.3125 -0.203125 1.6875 -0.859375 C 1.0625 -1.523438 0.75 -2.425781 0.75 -3.5625 L 0.75 -8.40625 L 1.6875 -8.40625 L 1.6875 -3.5625 C 1.6875 -2.695312 1.914062 -2.003906 2.375 -1.484375 C 2.84375 -0.972656 3.460938 -0.71875 4.234375 -0.71875 C 5.003906 -0.71875 5.617188 -0.972656 6.078125 -1.484375 C 6.546875 -2.003906 6.78125 -2.695312 6.78125 -3.5625 L 6.78125 -8.40625 L 7.703125 -8.40625 Z M 7.703125 -3.5625 "/></g></g></g><g fill="#23120b" fill-opacity="1"><g transform="translate(197.346582, 11.689766)"><g><path d="M 8.96875 -4.03125 C 8.96875 -3.4375 8.863281 -2.882812 8.65625 -2.375 C 8.445312 -1.875 8.15625 -1.4375 7.78125 -1.0625 C 7.414062 -0.695312 6.984375 -0.40625 6.484375 -0.1875 C 5.992188 0.0195312 5.457031 0.125 4.875 0.125 C 4.28125 0.125 3.710938 0.015625 3.171875 -0.203125 C 2.640625 -0.429688 2.179688 -0.738281 1.796875 -1.125 C 1.410156 -1.519531 1.101562 -1.976562 0.875 -2.5 C 0.644531 -3.03125 0.53125 -3.597656 0.53125 -4.203125 C 0.53125 -4.804688 0.640625 -5.367188 0.859375 -5.890625 C 1.085938 -6.421875 1.394531 -6.878906 1.78125 -7.265625 C 2.164062 -7.660156 2.625 -7.972656 3.15625 -8.203125 C 3.695312 -8.429688 4.265625 -8.546875 4.859375 -8.546875 C 5.515625 -8.546875 6.128906 -8.421875 6.703125 -8.171875 C 7.273438 -7.929688 7.769531 -7.59375 8.1875 -7.15625 L 7.5625 -6.53125 C 7.238281 -6.894531 6.835938 -7.175781 6.359375 -7.375 C 5.878906 -7.582031 5.378906 -7.6875 4.859375 -7.6875 C 4.378906 -7.6875 3.929688 -7.597656 3.515625 -7.421875 C 3.097656 -7.242188 2.738281 -7 2.4375 -6.6875 C 2.144531 -6.375 1.910156 -6.003906 1.734375 -5.578125 C 1.554688 -5.148438 1.46875 -4.691406 1.46875 -4.203125 C 1.46875 -3.710938 1.554688 -3.253906 1.734375 -2.828125 C 1.910156 -2.398438 2.144531 -2.03125 2.4375 -1.71875 C 2.738281 -1.414062 3.097656 -1.171875 3.515625 -0.984375 C 3.929688 -0.804688 4.378906 -0.71875 4.859375 -0.71875 C 5.285156 -0.71875 5.6875 -0.789062 6.0625 -0.9375 C 6.4375 -1.082031 6.757812 -1.28125 7.03125 -1.53125 C 7.3125 -1.78125 7.539062 -2.082031 7.71875 -2.4375 C 7.894531 -2.789062 8 -3.171875 8.03125 -3.578125 L 5.015625 -3.578125 L 5.015625 -4.390625 L 8.96875 -4.390625 Z M 8.96875 -4.03125 "/></g></g></g><g fill="#23120b" fill-opacity="1"><g transform="translate(206.809452, 11.689766)"><g><path d="M 0.921875 0 L 0.921875 -8.40625 L 1.84375 -8.40625 L 1.84375 -4.65625 L 6.734375 -4.65625 L 6.734375 -8.40625 L 7.671875 -8.40625 L 7.671875 0 L 6.734375 0 L 6.734375 -3.828125 L 1.84375 -3.828125 L 1.84375 0 Z M 0.921875 0 "/></g></g></g><g fill="#23120b" fill-opacity="1"><g transform="translate(215.395689, 11.689766)"><g><path d="M 0.203125 -7.578125 L 0.203125 -8.40625 L 7.203125 -8.40625 L 7.203125 -7.578125 L 4.171875 -7.578125 L 4.171875 0 L 3.25 0 L 3.25 -7.578125 Z M 0.203125 -7.578125 "/></g></g></g></g></g><path stroke-linecap="butt" transform="matrix(0.00335839, -0.646227, 0.646227, 0.00335839, 388.397504, 267.069104)" fill="none" stroke-linejoin="miter" d="M -0.00272329 0.998835 L 188.948768 1.002155 " stroke="#000000" stroke-width="2" stroke-opacity="1" stroke-miterlimit="4"/><g transform="matrix(1, 0, 0, 1, 443, 149)"><g clip-path="url(#30ae0fe433)"><g fill="#23120b" fill-opacity="1"><g transform="translate(0.934748, 11.993372)"><g><path d="M 0.921875 0 L 0.921875 -8.40625 L 6.9375 -8.40625 L 6.9375 -7.59375 L 1.84375 -7.59375 L 1.84375 -4.65625 L 5.171875 -4.65625 L 5.171875 -3.84375 L 1.84375 -3.84375 L 1.84375 -0.8125 L 7 -0.8125 L 7 0 Z M 0.921875 0 "/></g></g></g><g fill="#23120b" fill-opacity="1"><g transform="translate(8.332119, 11.993372)"><g><path d="M 3.5 0 L 0.046875 -8.40625 L 1.046875 -8.40625 L 4.078125 -0.859375 L 7.171875 -8.40625 L 8.109375 -8.40625 L 4.609375 0 Z M 3.5 0 "/></g></g></g><g fill="#23120b" fill-opacity="1"><g transform="translate(16.486042, 11.993372)"><g><path d="M 0.921875 0 L 0.921875 -8.40625 L 1.84375 -8.40625 L 1.84375 0 Z M 0.921875 0 "/></g></g></g><g fill="#23120b" fill-opacity="1"><g transform="translate(19.26006, 11.993372)"><g><path d="M 0.921875 0 L 0.921875 -8.40625 L 3.703125 -8.40625 C 4.335938 -8.40625 4.925781 -8.300781 5.46875 -8.09375 C 6.007812 -7.882812 6.476562 -7.59375 6.875 -7.21875 C 7.269531 -6.851562 7.578125 -6.410156 7.796875 -5.890625 C 8.015625 -5.378906 8.125 -4.816406 8.125 -4.203125 C 8.125 -3.597656 8.015625 -3.035156 7.796875 -2.515625 C 7.578125 -2.003906 7.269531 -1.5625 6.875 -1.1875 C 6.488281 -0.820312 6.019531 -0.53125 5.46875 -0.3125 C 4.925781 -0.101562 4.335938 0 3.703125 0 Z M 3.75 -7.5625 L 1.84375 -7.5625 L 1.84375 -0.84375 L 3.75 -0.84375 C 4.226562 -0.84375 4.679688 -0.925781 5.109375 -1.09375 C 5.535156 -1.269531 5.898438 -1.507812 6.203125 -1.8125 C 6.503906 -2.113281 6.742188 -2.46875 6.921875 -2.875 C 7.097656 -3.289062 7.1875 -3.734375 7.1875 -4.203125 C 7.1875 -4.679688 7.097656 -5.125 6.921875 -5.53125 C 6.742188 -5.945312 6.503906 -6.300781 6.203125 -6.59375 C 5.898438 -6.894531 5.535156 -7.128906 5.109375 -7.296875 C 4.679688 -7.472656 4.226562 -7.5625 3.75 -7.5625 Z M 3.75 -7.5625 "/></g></g></g><g fill="#23120b" fill-opacity="1"><g transform="translate(27.906337, 11.993372)"><g><path d="M 0.921875 0 L 0.921875 -8.40625 L 6.9375 -8.40625 L 6.9375 -7.59375 L 1.84375 -7.59375 L 1.84375 -4.65625 L 5.171875 -4.65625 L 5.171875 -3.84375 L 1.84375 -3.84375 L 1.84375 -0.8125 L 7 -0.8125 L 7 0 Z M 0.921875 0 "/></g></g></g><g fill="#23120b" fill-opacity="1"><g transform="translate(35.303707, 11.993372)"><g><path d="M 0.921875 -8.40625 L 1.84375 -8.40625 L 6.90625 -1.59375 L 6.90625 -8.40625 L 7.78125 -8.40625 L 7.78125 0 L 6.96875 0 L 1.796875 -7 L 1.796875 0 L 0.921875 0 Z M 0.921875 -8.40625 "/></g></g></g><g fill="#23120b" fill-opacity="1"><g transform="translate(44.010025, 11.993372)"><g><path d="M 4.921875 -0.71875 C 5.441406 -0.71875 5.9375 -0.816406 6.40625 -1.015625 C 6.875 -1.222656 7.269531 -1.507812 7.59375 -1.875 L 8.1875 -1.25 C 7.769531 -0.8125 7.273438 -0.472656 6.703125 -0.234375 C 6.128906 0.00390625 5.523438 0.125 4.890625 0.125 C 4.285156 0.125 3.710938 0.015625 3.171875 -0.203125 C 2.640625 -0.429688 2.175781 -0.738281 1.78125 -1.125 C 1.394531 -1.507812 1.085938 -1.96875 0.859375 -2.5 C 0.640625 -3.03125 0.53125 -3.597656 0.53125 -4.203125 C 0.53125 -4.804688 0.640625 -5.375 0.859375 -5.90625 C 1.085938 -6.4375 1.394531 -6.894531 1.78125 -7.28125 C 2.175781 -7.675781 2.640625 -7.984375 3.171875 -8.203125 C 3.710938 -8.429688 4.285156 -8.546875 4.890625 -8.546875 C 5.535156 -8.546875 6.148438 -8.421875 6.734375 -8.171875 C 7.316406 -7.929688 7.8125 -7.59375 8.21875 -7.15625 L 7.609375 -6.515625 C 7.273438 -6.878906 6.863281 -7.164062 6.375 -7.375 C 5.894531 -7.582031 5.398438 -7.6875 4.890625 -7.6875 C 4.410156 -7.6875 3.957031 -7.597656 3.53125 -7.421875 C 3.113281 -7.242188 2.753906 -7 2.453125 -6.6875 C 2.148438 -6.375 1.910156 -6.003906 1.734375 -5.578125 C 1.554688 -5.148438 1.46875 -4.691406 1.46875 -4.203125 C 1.46875 -3.710938 1.554688 -3.253906 1.734375 -2.828125 C 1.910156 -2.398438 2.148438 -2.03125 2.453125 -1.71875 C 2.765625 -1.414062 3.128906 -1.171875 3.546875 -0.984375 C 3.972656 -0.804688 4.429688 -0.71875 4.921875 -0.71875 Z M 4.921875 -0.71875 "/></g></g></g><g fill="#23120b" fill-opacity="1"><g transform="translate(52.680326, 11.993372)"><g><path d="M 0.921875 0 L 0.921875 -8.40625 L 6.9375 -8.40625 L 6.9375 -7.59375 L 1.84375 -7.59375 L 1.84375 -4.65625 L 5.171875 -4.65625 L 5.171875 -3.84375 L 1.84375 -3.84375 L 1.84375 -0.8125 L 7 -0.8125 L 7 0 Z M 0.921875 0 "/></g></g></g><g fill="#23120b" fill-opacity="1"><g transform="translate(60.077697, 11.993372)"><g/></g></g><g fill="#23120b" fill-opacity="1"><g transform="translate(62.659574, 11.993372)"><g><path d="M 0.203125 -7.578125 L 0.203125 -8.40625 L 7.203125 -8.40625 L 7.203125 -7.578125 L 4.171875 -7.578125 L 4.171875 0 L 3.25 0 L 3.25 -7.578125 Z M 0.203125 -7.578125 "/></g></g></g><g fill="#23120b" fill-opacity="1"><g transform="translate(70.06895, 11.993372)"><g><path d="M 0.921875 0 L 0.921875 -8.40625 L 1.84375 -8.40625 L 1.84375 -4.65625 L 6.734375 -4.65625 L 6.734375 -8.40625 L 7.671875 -8.40625 L 7.671875 0 L 6.734375 0 L 6.734375 -3.828125 L 1.84375 -3.828125 L 1.84375 0 Z M 0.921875 0 "/></g></g></g><g fill="#23120b" fill-opacity="1"><g transform="translate(78.655187, 11.993372)"><g><path d="M 0.046875 0 L 3.546875 -8.40625 L 4.65625 -8.40625 L 8.109375 0 L 7.09375 0 L 6.046875 -2.640625 L 2.078125 -2.640625 L 1.015625 0 Z M 2.40625 -3.4375 L 5.71875 -3.4375 L 4.078125 -7.546875 Z M 2.40625 -3.4375 "/></g></g></g><g fill="#23120b" fill-opacity="1"><g transform="translate(86.809111, 11.993372)"><g><path d="M 0.203125 -7.578125 L 0.203125 -8.40625 L 7.203125 -8.40625 L 7.203125 -7.578125 L 4.171875 -7.578125 L 4.171875 0 L 3.25 0 L 3.25 -7.578125 Z M 0.203125 -7.578125 "/></g></g></g><g fill="#23120b" fill-opacity="1"><g transform="translate(94.218486, 11.993372)"><g/></g></g><g fill="#23120b" fill-opacity="1"><g transform="translate(96.800364, 11.993372)"><g><path d="M 0.921875 0 L 0.921875 -8.40625 L 3.703125 -8.40625 C 4.335938 -8.40625 4.925781 -8.300781 5.46875 -8.09375 C 6.007812 -7.882812 6.476562 -7.59375 6.875 -7.21875 C 7.269531 -6.851562 7.578125 -6.410156 7.796875 -5.890625 C 8.015625 -5.378906 8.125 -4.816406 8.125 -4.203125 C 8.125 -3.597656 8.015625 -3.035156 7.796875 -2.515625 C 7.578125 -2.003906 7.269531 -1.5625 6.875 -1.1875 C 6.488281 -0.820312 6.019531 -0.53125 5.46875 -0.3125 C 4.925781 -0.101562 4.335938 0 3.703125 0 Z M 3.75 -7.5625 L 1.84375 -7.5625 L 1.84375 -0.84375 L 3.75 -0.84375 C 4.226562 -0.84375 4.679688 -0.925781 5.109375 -1.09375 C 5.535156 -1.269531 5.898438 -1.507812 6.203125 -1.8125 C 6.503906 -2.113281 6.742188 -2.46875 6.921875 -2.875 C 7.097656 -3.289062 7.1875 -3.734375 7.1875 -4.203125 C 7.1875 -4.679688 7.097656 -5.125 6.921875 -5.53125 C 6.742188 -5.945312 6.503906 -6.300781 6.203125 -6.59375 C 5.898438 -6.894531 5.535156 -7.128906 5.109375 -7.296875 C 4.679688 -7.472656 4.226562 -7.5625 3.75 -7.5625 Z M 3.75 -7.5625 "/></g></g></g><g fill="#23120b" fill-opacity="1"><g transform="translate(105.446641, 11.993372)"><g><path d="M 9.1875 -4.203125 C 9.1875 -3.597656 9.070312 -3.03125 8.84375 -2.5 C 8.625 -1.96875 8.320312 -1.507812 7.9375 -1.125 C 7.550781 -0.738281 7.09375 -0.429688 6.5625 -0.203125 C 6.03125 0.015625 5.460938 0.125 4.859375 0.125 C 4.265625 0.125 3.695312 0.015625 3.15625 -0.203125 C 2.625 -0.429688 2.164062 -0.738281 1.78125 -1.125 C 1.394531 -1.507812 1.085938 -1.96875 0.859375 -2.5 C 0.640625 -3.03125 0.53125 -3.597656 0.53125 -4.203125 C 0.53125 -4.804688 0.640625 -5.375 0.859375 -5.90625 C 1.085938 -6.4375 1.394531 -6.894531 1.78125 -7.28125 C 2.164062 -7.675781 2.625 -7.984375 3.15625 -8.203125 C 3.695312 -8.429688 4.265625 -8.546875 4.859375 -8.546875 C 5.460938 -8.546875 6.03125 -8.429688 6.5625 -8.203125 C 7.09375 -7.984375 7.550781 -7.675781 7.9375 -7.28125 C 8.320312 -6.894531 8.625 -6.4375 8.84375 -5.90625 C 9.070312 -5.375 9.1875 -4.804688 9.1875 -4.203125 Z M 8.25 -4.203125 C 8.25 -4.691406 8.160156 -5.148438 7.984375 -5.578125 C 7.804688 -6.003906 7.566406 -6.375 7.265625 -6.6875 C 6.972656 -7 6.617188 -7.242188 6.203125 -7.421875 C 5.785156 -7.597656 5.335938 -7.6875 4.859375 -7.6875 C 4.378906 -7.6875 3.929688 -7.597656 3.515625 -7.421875 C 3.097656 -7.242188 2.738281 -7 2.4375 -6.6875 C 2.144531 -6.375 1.910156 -6.003906 1.734375 -5.578125 C 1.554688 -5.148438 1.46875 -4.691406 1.46875 -4.203125 C 1.46875 -3.710938 1.554688 -3.253906 1.734375 -2.828125 C 1.910156 -2.410156 2.144531 -2.046875 2.4375 -1.734375 C 2.738281 -1.421875 3.097656 -1.171875 3.515625 -0.984375 C 3.929688 -0.804688 4.378906 -0.71875 4.859375 -0.71875 C 5.335938 -0.71875 5.785156 -0.804688 6.203125 -0.984375 C 6.617188 -1.171875 6.972656 -1.421875 7.265625 -1.734375 C 7.566406 -2.046875 7.804688 -2.410156 7.984375 -2.828125 C 8.160156 -3.253906 8.25 -3.710938 8.25 -4.203125 Z M 8.25 -4.203125 "/></g></g></g><g fill="#23120b" fill-opacity="1"><g transform="translate(115.161691, 11.993372)"><g><path d="M 0.921875 0 L 0.921875 -8.40625 L 6.9375 -8.40625 L 6.9375 -7.59375 L 1.84375 -7.59375 L 1.84375 -4.65625 L 5.171875 -4.65625 L 5.171875 -3.84375 L 1.84375 -3.84375 L 1.84375 -0.8125 L 7 -0.8125 L 7 0 Z M 0.921875 0 "/></g></g></g><g fill="#23120b" fill-opacity="1"><g transform="translate(122.559062, 11.993372)"><g><path d="M 0.125 -1.4375 L 0.75 -2.078125 C 1.175781 -1.617188 1.632812 -1.269531 2.125 -1.03125 C 2.625 -0.800781 3.144531 -0.6875 3.6875 -0.6875 C 4.34375 -0.6875 4.882812 -0.84375 5.3125 -1.15625 C 5.738281 -1.46875 5.953125 -1.863281 5.953125 -2.34375 C 5.953125 -2.769531 5.800781 -3.097656 5.5 -3.328125 C 5.195312 -3.566406 4.703125 -3.742188 4.015625 -3.859375 L 2.796875 -4.046875 C 1.992188 -4.171875 1.398438 -4.40625 1.015625 -4.75 C 0.628906 -5.101562 0.4375 -5.578125 0.4375 -6.171875 C 0.4375 -6.867188 0.707031 -7.429688 1.25 -7.859375 C 1.789062 -8.296875 2.503906 -8.515625 3.390625 -8.515625 C 3.972656 -8.515625 4.550781 -8.414062 5.125 -8.21875 C 5.707031 -8.03125 6.234375 -7.757812 6.703125 -7.40625 L 6.171875 -6.6875 C 5.710938 -7.03125 5.25 -7.285156 4.78125 -7.453125 C 4.3125 -7.628906 3.835938 -7.71875 3.359375 -7.71875 C 2.753906 -7.71875 2.265625 -7.578125 1.890625 -7.296875 C 1.515625 -7.023438 1.328125 -6.675781 1.328125 -6.25 C 1.328125 -5.851562 1.457031 -5.550781 1.71875 -5.34375 C 1.988281 -5.132812 2.429688 -4.984375 3.046875 -4.890625 L 4.234375 -4.703125 C 5.148438 -4.546875 5.816406 -4.28125 6.234375 -3.90625 C 6.660156 -3.539062 6.875 -3.035156 6.875 -2.390625 C 6.875 -2.023438 6.796875 -1.6875 6.640625 -1.375 C 6.484375 -1.0625 6.257812 -0.796875 5.96875 -0.578125 C 5.6875 -0.359375 5.347656 -0.1875 4.953125 -0.0625 C 4.554688 0.0625 4.125 0.125 3.65625 0.125 C 2.988281 0.125 2.347656 -0.0078125 1.734375 -0.28125 C 1.117188 -0.550781 0.582031 -0.9375 0.125 -1.4375 Z M 0.125 -1.4375 "/></g></g></g><g fill="#23120b" fill-opacity="1"><g transform="translate(129.764293, 11.993372)"><g><path d="M 0.921875 -8.40625 L 1.84375 -8.40625 L 6.90625 -1.59375 L 6.90625 -8.40625 L 7.78125 -8.40625 L 7.78125 0 L 6.96875 0 L 1.796875 -7 L 1.796875 0 L 0.921875 0 Z M 0.921875 -8.40625 "/></g></g></g><g fill="#23120b" fill-opacity="1"><g transform="translate(138.47061, 11.993372)"><g><path d="M 0.53125 -6.109375 Z M 1.21875 -8.640625 L 2.1875 -8.640625 L 1.21875 -6.109375 L 0.53125 -6.109375 Z M 1.21875 -8.640625 "/></g></g></g><g fill="#23120b" fill-opacity="1"><g transform="translate(140.848343, 11.993372)"><g><path d="M 0.203125 -7.578125 L 0.203125 -8.40625 L 7.203125 -8.40625 L 7.203125 -7.578125 L 4.171875 -7.578125 L 4.171875 0 L 3.25 0 L 3.25 -7.578125 Z M 0.203125 -7.578125 "/></g></g></g><g fill="#23120b" fill-opacity="1"><g transform="translate(148.257719, 11.993372)"><g/></g></g><g fill="#23120b" fill-opacity="1"><g transform="translate(150.839597, 11.993372)"><g><path d="M 0.125 -1.4375 L 0.75 -2.078125 C 1.175781 -1.617188 1.632812 -1.269531 2.125 -1.03125 C 2.625 -0.800781 3.144531 -0.6875 3.6875 -0.6875 C 4.34375 -0.6875 4.882812 -0.84375 5.3125 -1.15625 C 5.738281 -1.46875 5.953125 -1.863281 5.953125 -2.34375 C 5.953125 -2.769531 5.800781 -3.097656 5.5 -3.328125 C 5.195312 -3.566406 4.703125 -3.742188 4.015625 -3.859375 L 2.796875 -4.046875 C 1.992188 -4.171875 1.398438 -4.40625 1.015625 -4.75 C 0.628906 -5.101562 0.4375 -5.578125 0.4375 -6.171875 C 0.4375 -6.867188 0.707031 -7.429688 1.25 -7.859375 C 1.789062 -8.296875 2.503906 -8.515625 3.390625 -8.515625 C 3.972656 -8.515625 4.550781 -8.414062 5.125 -8.21875 C 5.707031 -8.03125 6.234375 -7.757812 6.703125 -7.40625 L 6.171875 -6.6875 C 5.710938 -7.03125 5.25 -7.285156 4.78125 -7.453125 C 4.3125 -7.628906 3.835938 -7.71875 3.359375 -7.71875 C 2.753906 -7.71875 2.265625 -7.578125 1.890625 -7.296875 C 1.515625 -7.023438 1.328125 -6.675781 1.328125 -6.25 C 1.328125 -5.851562 1.457031 -5.550781 1.71875 -5.34375 C 1.988281 -5.132812 2.429688 -4.984375 3.046875 -4.890625 L 4.234375 -4.703125 C 5.148438 -4.546875 5.816406 -4.28125 6.234375 -3.90625 C 6.660156 -3.539062 6.875 -3.035156 6.875 -2.390625 C 6.875 -2.023438 6.796875 -1.6875 6.640625 -1.375 C 6.484375 -1.0625 6.257812 -0.796875 5.96875 -0.578125 C 5.6875 -0.359375 5.347656 -0.1875 4.953125 -0.0625 C 4.554688 0.0625 4.125 0.125 3.65625 0.125 C 2.988281 0.125 2.347656 -0.0078125 1.734375 -0.28125 C 1.117188 -0.550781 0.582031 -0.9375 0.125 -1.4375 Z M 0.125 -1.4375 "/></g></g></g><g fill="#23120b" fill-opacity="1"><g transform="translate(158.044828, 11.993372)"><g><path d="M 7.703125 -3.5625 C 7.703125 -2.4375 7.382812 -1.539062 6.75 -0.875 C 6.125 -0.207031 5.285156 0.125 4.234375 0.125 C 3.160156 0.125 2.3125 -0.203125 1.6875 -0.859375 C 1.0625 -1.523438 0.75 -2.425781 0.75 -3.5625 L 0.75 -8.40625 L 1.6875 -8.40625 L 1.6875 -3.5625 C 1.6875 -2.695312 1.914062 -2.003906 2.375 -1.484375 C 2.84375 -0.972656 3.460938 -0.71875 4.234375 -0.71875 C 5.003906 -0.71875 5.617188 -0.972656 6.078125 -1.484375 C 6.546875 -2.003906 6.78125 -2.695312 6.78125 -3.5625 L 6.78125 -8.40625 L 7.703125 -8.40625 Z M 7.703125 -3.5625 "/></g></g></g><g fill="#23120b" fill-opacity="1"><g transform="translate(166.498965, 11.993372)"><g><path d="M 0.921875 0 L 0.921875 -8.40625 L 4.578125 -8.40625 C 5.390625 -8.40625 6.046875 -8.179688 6.546875 -7.734375 C 7.046875 -7.296875 7.296875 -6.710938 7.296875 -5.984375 C 7.296875 -5.253906 7.046875 -4.664062 6.546875 -4.21875 C 6.046875 -3.769531 5.390625 -3.546875 4.578125 -3.546875 L 1.84375 -3.546875 L 1.84375 0 Z M 4.5 -7.578125 L 1.84375 -7.578125 L 1.84375 -4.34375 L 4.5 -4.34375 C 5.070312 -4.34375 5.523438 -4.488281 5.859375 -4.78125 C 6.203125 -5.082031 6.375 -5.476562 6.375 -5.96875 C 6.375 -6.46875 6.203125 -6.859375 5.859375 -7.140625 C 5.523438 -7.429688 5.070312 -7.578125 4.5 -7.578125 Z M 4.5 -7.578125 "/></g></g></g><g fill="#23120b" fill-opacity="1"><g transform="translate(174.26861, 11.993372)"><g><path d="M 0.921875 0 L 0.921875 -8.40625 L 4.578125 -8.40625 C 5.390625 -8.40625 6.046875 -8.179688 6.546875 -7.734375 C 7.046875 -7.296875 7.296875 -6.710938 7.296875 -5.984375 C 7.296875 -5.253906 7.046875 -4.664062 6.546875 -4.21875 C 6.046875 -3.769531 5.390625 -3.546875 4.578125 -3.546875 L 1.84375 -3.546875 L 1.84375 0 Z M 4.5 -7.578125 L 1.84375 -7.578125 L 1.84375 -4.34375 L 4.5 -4.34375 C 5.070312 -4.34375 5.523438 -4.488281 5.859375 -4.78125 C 6.203125 -5.082031 6.375 -5.476562 6.375 -5.96875 C 6.375 -6.46875 6.203125 -6.859375 5.859375 -7.140625 C 5.523438 -7.429688 5.070312 -7.578125 4.5 -7.578125 Z M 4.5 -7.578125 "/></g></g></g><g fill="#23120b" fill-opacity="1"><g transform="translate(182.038254, 11.993372)"><g><path d="M 9.1875 -4.203125 C 9.1875 -3.597656 9.070312 -3.03125 8.84375 -2.5 C 8.625 -1.96875 8.320312 -1.507812 7.9375 -1.125 C 7.550781 -0.738281 7.09375 -0.429688 6.5625 -0.203125 C 6.03125 0.015625 5.460938 0.125 4.859375 0.125 C 4.265625 0.125 3.695312 0.015625 3.15625 -0.203125 C 2.625 -0.429688 2.164062 -0.738281 1.78125 -1.125 C 1.394531 -1.507812 1.085938 -1.96875 0.859375 -2.5 C 0.640625 -3.03125 0.53125 -3.597656 0.53125 -4.203125 C 0.53125 -4.804688 0.640625 -5.375 0.859375 -5.90625 C 1.085938 -6.4375 1.394531 -6.894531 1.78125 -7.28125 C 2.164062 -7.675781 2.625 -7.984375 3.15625 -8.203125 C 3.695312 -8.429688 4.265625 -8.546875 4.859375 -8.546875 C 5.460938 -8.546875 6.03125 -8.429688 6.5625 -8.203125 C 7.09375 -7.984375 7.550781 -7.675781 7.9375 -7.28125 C 8.320312 -6.894531 8.625 -6.4375 8.84375 -5.90625 C 9.070312 -5.375 9.1875 -4.804688 9.1875 -4.203125 Z M 8.25 -4.203125 C 8.25 -4.691406 8.160156 -5.148438 7.984375 -5.578125 C 7.804688 -6.003906 7.566406 -6.375 7.265625 -6.6875 C 6.972656 -7 6.617188 -7.242188 6.203125 -7.421875 C 5.785156 -7.597656 5.335938 -7.6875 4.859375 -7.6875 C 4.378906 -7.6875 3.929688 -7.597656 3.515625 -7.421875 C 3.097656 -7.242188 2.738281 -7 2.4375 -6.6875 C 2.144531 -6.375 1.910156 -6.003906 1.734375 -5.578125 C 1.554688 -5.148438 1.46875 -4.691406 1.46875 -4.203125 C 1.46875 -3.710938 1.554688 -3.253906 1.734375 -2.828125 C 1.910156 -2.410156 2.144531 -2.046875 2.4375 -1.734375 C 2.738281 -1.421875 3.097656 -1.171875 3.515625 -0.984375 C 3.929688 -0.804688 4.378906 -0.71875 4.859375 -0.71875 C 5.335938 -0.71875 5.785156 -0.804688 6.203125 -0.984375 C 6.617188 -1.171875 6.972656 -1.421875 7.265625 -1.734375 C 7.566406 -2.046875 7.804688 -2.410156 7.984375 -2.828125 C 8.160156 -3.253906 8.25 -3.710938 8.25 -4.203125 Z M 8.25 -4.203125 "/></g></g></g><g fill="#23120b" fill-opacity="1"><g transform="translate(191.753304, 11.993372)"><g><path d="M 0.921875 0 L 0.921875 -8.40625 L 4.53125 -8.40625 C 5.34375 -8.40625 6 -8.179688 6.5 -7.734375 C 7.007812 -7.296875 7.265625 -6.71875 7.265625 -6 C 7.265625 -5.445312 7.101562 -4.96875 6.78125 -4.5625 C 6.457031 -4.164062 6.023438 -3.890625 5.484375 -3.734375 L 7.359375 0 L 6.34375 0 L 4.546875 -3.609375 L 1.84375 -3.609375 L 1.84375 0 Z M 4.46875 -7.578125 L 1.84375 -7.578125 L 1.84375 -4.390625 L 4.46875 -4.390625 C 5.03125 -4.390625 5.484375 -4.535156 5.828125 -4.828125 C 6.171875 -5.128906 6.34375 -5.519531 6.34375 -6 C 6.34375 -6.476562 6.171875 -6.859375 5.828125 -7.140625 C 5.484375 -7.429688 5.03125 -7.578125 4.46875 -7.578125 Z M 4.46875 -7.578125 "/></g></g></g><g fill="#23120b" fill-opacity="1"><g transform="translate(199.498923, 11.993372)"><g><path d="M 0.203125 -7.578125 L 0.203125 -8.40625 L 7.203125 -8.40625 L 7.203125 -7.578125 L 4.171875 -7.578125 L 4.171875 0 L 3.25 0 L 3.25 -7.578125 Z M 0.203125 -7.578125 "/></g></g></g><g fill="#23120b" fill-opacity="1"><g transform="translate(206.908299, 11.993372)"><g/></g></g><g fill="#23120b" fill-opacity="1"><g transform="translate(209.490177, 11.993372)"><g><path d="M 0.203125 -7.578125 L 0.203125 -8.40625 L 7.203125 -8.40625 L 7.203125 -7.578125 L 4.171875 -7.578125 L 4.171875 0 L 3.25 0 L 3.25 -7.578125 Z M 0.203125 -7.578125 "/></g></g></g><g fill="#23120b" fill-opacity="1"><g transform="translate(216.899553, 11.993372)"><g><path d="M 0.921875 0 L 0.921875 -8.40625 L 1.84375 -8.40625 L 1.84375 -4.65625 L 6.734375 -4.65625 L 6.734375 -8.40625 L 7.671875 -8.40625 L 7.671875 0 L 6.734375 0 L 6.734375 -3.828125 L 1.84375 -3.828125 L 1.84375 0 Z M 0.921875 0 "/></g></g></g><g fill="#23120b" fill-opacity="1"><g transform="translate(225.48579, 11.993372)"><g><path d="M 9.1875 -4.203125 C 9.1875 -3.597656 9.070312 -3.03125 8.84375 -2.5 C 8.625 -1.96875 8.320312 -1.507812 7.9375 -1.125 C 7.550781 -0.738281 7.09375 -0.429688 6.5625 -0.203125 C 6.03125 0.015625 5.460938 0.125 4.859375 0.125 C 4.265625 0.125 3.695312 0.015625 3.15625 -0.203125 C 2.625 -0.429688 2.164062 -0.738281 1.78125 -1.125 C 1.394531 -1.507812 1.085938 -1.96875 0.859375 -2.5 C 0.640625 -3.03125 0.53125 -3.597656 0.53125 -4.203125 C 0.53125 -4.804688 0.640625 -5.375 0.859375 -5.90625 C 1.085938 -6.4375 1.394531 -6.894531 1.78125 -7.28125 C 2.164062 -7.675781 2.625 -7.984375 3.15625 -8.203125 C 3.695312 -8.429688 4.265625 -8.546875 4.859375 -8.546875 C 5.460938 -8.546875 6.03125 -8.429688 6.5625 -8.203125 C 7.09375 -7.984375 7.550781 -7.675781 7.9375 -7.28125 C 8.320312 -6.894531 8.625 -6.4375 8.84375 -5.90625 C 9.070312 -5.375 9.1875 -4.804688 9.1875 -4.203125 Z M 8.25 -4.203125 C 8.25 -4.691406 8.160156 -5.148438 7.984375 -5.578125 C 7.804688 -6.003906 7.566406 -6.375 7.265625 -6.6875 C 6.972656 -7 6.617188 -7.242188 6.203125 -7.421875 C 5.785156 -7.597656 5.335938 -7.6875 4.859375 -7.6875 C 4.378906 -7.6875 3.929688 -7.597656 3.515625 -7.421875 C 3.097656 -7.242188 2.738281 -7 2.4375 -6.6875 C 2.144531 -6.375 1.910156 -6.003906 1.734375 -5.578125 C 1.554688 -5.148438 1.46875 -4.691406 1.46875 -4.203125 C 1.46875 -3.710938 1.554688 -3.253906 1.734375 -2.828125 C 1.910156 -2.410156 2.144531 -2.046875 2.4375 -1.734375 C 2.738281 -1.421875 3.097656 -1.171875 3.515625 -0.984375 C 3.929688 -0.804688 4.378906 -0.71875 4.859375 -0.71875 C 5.335938 -0.71875 5.785156 -0.804688 6.203125 -0.984375 C 6.617188 -1.171875 6.972656 -1.421875 7.265625 -1.734375 C 7.566406 -2.046875 7.804688 -2.410156 7.984375 -2.828125 C 8.160156 -3.253906 8.25 -3.710938 8.25 -4.203125 Z M 8.25 -4.203125 "/></g></g></g><g fill="#23120b" fill-opacity="1"><g transform="translate(235.200839, 11.993372)"><g><path d="M 7.703125 -3.5625 C 7.703125 -2.4375 7.382812 -1.539062 6.75 -0.875 C 6.125 -0.207031 5.285156 0.125 4.234375 0.125 C 3.160156 0.125 2.3125 -0.203125 1.6875 -0.859375 C 1.0625 -1.523438 0.75 -2.425781 0.75 -3.5625 L 0.75 -8.40625 L 1.6875 -8.40625 L 1.6875 -3.5625 C 1.6875 -2.695312 1.914062 -2.003906 2.375 -1.484375 C 2.84375 -0.972656 3.460938 -0.71875 4.234375 -0.71875 C 5.003906 -0.71875 5.617188 -0.972656 6.078125 -1.484375 C 6.546875 -2.003906 6.78125 -2.695312 6.78125 -3.5625 L 6.78125 -8.40625 L 7.703125 -8.40625 Z M 7.703125 -3.5625 "/></g></g></g><g fill="#23120b" fill-opacity="1"><g transform="translate(243.654977, 11.993372)"><g><path d="M 8.96875 -4.03125 C 8.96875 -3.4375 8.863281 -2.882812 8.65625 -2.375 C 8.445312 -1.875 8.15625 -1.4375 7.78125 -1.0625 C 7.414062 -0.695312 6.984375 -0.40625 6.484375 -0.1875 C 5.992188 0.0195312 5.457031 0.125 4.875 0.125 C 4.28125 0.125 3.710938 0.015625 3.171875 -0.203125 C 2.640625 -0.429688 2.179688 -0.738281 1.796875 -1.125 C 1.410156 -1.519531 1.101562 -1.976562 0.875 -2.5 C 0.644531 -3.03125 0.53125 -3.597656 0.53125 -4.203125 C 0.53125 -4.804688 0.640625 -5.367188 0.859375 -5.890625 C 1.085938 -6.421875 1.394531 -6.878906 1.78125 -7.265625 C 2.164062 -7.660156 2.625 -7.972656 3.15625 -8.203125 C 3.695312 -8.429688 4.265625 -8.546875 4.859375 -8.546875 C 5.515625 -8.546875 6.128906 -8.421875 6.703125 -8.171875 C 7.273438 -7.929688 7.769531 -7.59375 8.1875 -7.15625 L 7.5625 -6.53125 C 7.238281 -6.894531 6.835938 -7.175781 6.359375 -7.375 C 5.878906 -7.582031 5.378906 -7.6875 4.859375 -7.6875 C 4.378906 -7.6875 3.929688 -7.597656 3.515625 -7.421875 C 3.097656 -7.242188 2.738281 -7 2.4375 -6.6875 C 2.144531 -6.375 1.910156 -6.003906 1.734375 -5.578125 C 1.554688 -5.148438 1.46875 -4.691406 1.46875 -4.203125 C 1.46875 -3.710938 1.554688 -3.253906 1.734375 -2.828125 C 1.910156 -2.398438 2.144531 -2.03125 2.4375 -1.71875 C 2.738281 -1.414062 3.097656 -1.171875 3.515625 -0.984375 C 3.929688 -0.804688 4.378906 -0.71875 4.859375 -0.71875 C 5.285156 -0.71875 5.6875 -0.789062 6.0625 -0.9375 C 6.4375 -1.082031 6.757812 -1.28125 7.03125 -1.53125 C 7.3125 -1.78125 7.539062 -2.082031 7.71875 -2.4375 C 7.894531 -2.789062 8 -3.171875 8.03125 -3.578125 L 5.015625 -3.578125 L 5.015625 -4.390625 L 8.96875 -4.390625 Z M 8.96875 -4.03125 "/></g></g></g><g fill="#23120b" fill-opacity="1"><g transform="translate(253.117861, 11.993372)"><g><path d="M 0.921875 0 L 0.921875 -8.40625 L 1.84375 -8.40625 L 1.84375 -4.65625 L 6.734375 -4.65625 L 6.734375 -8.40625 L 7.671875 -8.40625 L 7.671875 0 L 6.734375 0 L 6.734375 -3.828125 L 1.84375 -3.828125 L 1.84375 0 Z M 0.921875 0 "/></g></g></g><g fill="#23120b" fill-opacity="1"><g transform="translate(261.704084, 11.993372)"><g><path d="M 0.203125 -7.578125 L 0.203125 -8.40625 L 7.203125 -8.40625 L 7.203125 -7.578125 L 4.171875 -7.578125 L 4.171875 0 L 3.25 0 L 3.25 -7.578125 Z M 0.203125 -7.578125 "/></g></g></g></g></g><g clip-path="url(#0701485330)"><path stroke-linecap="butt" transform="matrix(0.646235, 0, 0, 0.646235, 3.956393, 345.982067)" fill="none" stroke-linejoin="miter" d="M 0.000987551 1.000935 L 1195.827312 1.000935 " stroke="#000000" stroke-width="2" stroke-opacity="1" stroke-miterlimit="4"/></g><g transform="matrix(1, 0, 0, 1, 363, 272)"><g clip-path="url(#7a3120ccec)"><g fill="#23120b" fill-opacity="1"><g transform="translate(0.541822, 11.631625)"><g><path d="M 0.921875 0 L 0.921875 -8.40625 L 6.9375 -8.40625 L 6.9375 -7.59375 L 1.84375 -7.59375 L 1.84375 -4.65625 L 5.171875 -4.65625 L 5.171875 -3.84375 L 1.84375 -3.84375 L 1.84375 -0.8125 L 7 -0.8125 L 7 0 Z M 0.921875 0 "/></g></g></g><g fill="#23120b" fill-opacity="1"><g transform="translate(7.939193, 11.631625)"><g><path d="M 1.125 0 L 0.03125 0 L 3.28125 -4.359375 L 0.234375 -8.40625 L 1.375 -8.40625 L 3.828125 -5.078125 L 6.296875 -8.40625 L 7.375 -8.40625 L 4.375 -4.375 L 7.625 0 L 6.515625 0 L 3.828125 -3.671875 Z M 1.125 0 "/></g></g></g><g fill="#23120b" fill-opacity="1"><g transform="translate(15.600762, 11.631625)"><g><path d="M 0.046875 0 L 3.546875 -8.40625 L 4.65625 -8.40625 L 8.109375 0 L 7.09375 0 L 6.046875 -2.640625 L 2.078125 -2.640625 L 1.015625 0 Z M 2.40625 -3.4375 L 5.71875 -3.4375 L 4.078125 -7.546875 Z M 2.40625 -3.4375 "/></g></g></g><g fill="#23120b" fill-opacity="1"><g transform="translate(23.754685, 11.631625)"><g><path d="M 5.078125 -0.59375 L 1.796875 -7.34375 L 1.796875 0 L 0.921875 0 L 0.921875 -8.40625 L 2.21875 -8.40625 L 5.09375 -2.4375 L 7.953125 -8.40625 L 9.25 -8.40625 L 9.25 0 L 8.375 0 L 8.375 -7.359375 Z M 5.078125 -0.59375 "/></g></g></g><g fill="#23120b" fill-opacity="1"><g transform="translate(33.926073, 11.631625)"><g><path d="M 0.921875 0 L 0.921875 -8.40625 L 1.84375 -8.40625 L 1.84375 0 Z M 0.921875 0 "/></g></g></g><g fill="#23120b" fill-opacity="1"><g transform="translate(36.70009, 11.631625)"><g><path d="M 0.921875 -8.40625 L 1.84375 -8.40625 L 6.90625 -1.59375 L 6.90625 -8.40625 L 7.78125 -8.40625 L 7.78125 0 L 6.96875 0 L 1.796875 -7 L 1.796875 0 L 0.921875 0 Z M 0.921875 -8.40625 "/></g></g></g><g fill="#23120b" fill-opacity="1"><g transform="translate(45.406408, 11.631625)"><g><path d="M 0.921875 0 L 0.921875 -8.40625 L 6.9375 -8.40625 L 6.9375 -7.59375 L 1.84375 -7.59375 L 1.84375 -4.65625 L 5.171875 -4.65625 L 5.171875 -3.84375 L 1.84375 -3.84375 L 1.84375 -0.8125 L 7 -0.8125 L 7 0 Z M 0.921875 0 "/></g></g></g></g></g><path stroke-linecap="butt" transform="matrix(0.646235, 0, 0, 0.646235, 2.655452, 266.885627)" fill="none" stroke-linejoin="miter" d="M 0.00123519 0.999052 L 1195.827559 0.999052 " stroke="#000000" stroke-width="2" stroke-opacity="1" stroke-miterlimit="4"/><g clip-path="url(#7f0d5d277c)"><path stroke-linecap="butt" transform="matrix(0.646235, 0, 0, 0.646235, 1.2588, 71.509676)" fill="none" stroke-linejoin="miter" d="M -0.00152846 1.000524 L 1195.824796 1.000524 " stroke="#000000" stroke-width="2" stroke-opacity="1" stroke-miterlimit="4"/></g><g transform="matrix(1, 0, 0, 1, 360, 351)"><g clip-path="url(#9cc09917d8)"><g fill="#23120b" fill-opacity="1"><g transform="translate(1.038126, 11.834987)"><g><path d="M 0.921875 0 L 0.921875 -8.40625 L 4.53125 -8.40625 C 5.34375 -8.40625 6 -8.179688 6.5 -7.734375 C 7.007812 -7.296875 7.265625 -6.71875 7.265625 -6 C 7.265625 -5.445312 7.101562 -4.96875 6.78125 -4.5625 C 6.457031 -4.164062 6.023438 -3.890625 5.484375 -3.734375 L 7.359375 0 L 6.34375 0 L 4.546875 -3.609375 L 1.84375 -3.609375 L 1.84375 0 Z M 4.46875 -7.578125 L 1.84375 -7.578125 L 1.84375 -4.390625 L 4.46875 -4.390625 C 5.03125 -4.390625 5.484375 -4.535156 5.828125 -4.828125 C 6.171875 -5.128906 6.34375 -5.519531 6.34375 -6 C 6.34375 -6.476562 6.171875 -6.859375 5.828125 -7.140625 C 5.484375 -7.429688 5.03125 -7.578125 4.46875 -7.578125 Z M 4.46875 -7.578125 "/></g></g></g><g fill="#23120b" fill-opacity="1"><g transform="translate(8.783746, 11.834987)"><g><path d="M 0.921875 0 L 0.921875 -8.40625 L 6.9375 -8.40625 L 6.9375 -7.59375 L 1.84375 -7.59375 L 1.84375 -4.65625 L 5.171875 -4.65625 L 5.171875 -3.84375 L 1.84375 -3.84375 L 1.84375 -0.8125 L 7 -0.8125 L 7 0 Z M 0.921875 0 "/></g></g></g><g fill="#23120b" fill-opacity="1"><g transform="translate(16.181117, 11.834987)"><g><path d="M 0.921875 0 L 0.921875 -8.40625 L 6.9375 -8.40625 L 6.9375 -7.59375 L 1.84375 -7.59375 L 1.84375 -4.59375 L 5.1875 -4.59375 L 5.1875 -3.78125 L 1.84375 -3.78125 L 1.84375 0 Z M 0.921875 0 "/></g></g></g><g fill="#23120b" fill-opacity="1"><g transform="translate(23.470412, 11.834987)"><g><path d="M 0.921875 0 L 0.921875 -8.40625 L 4.53125 -8.40625 C 5.34375 -8.40625 6 -8.179688 6.5 -7.734375 C 7.007812 -7.296875 7.265625 -6.71875 7.265625 -6 C 7.265625 -5.445312 7.101562 -4.96875 6.78125 -4.5625 C 6.457031 -4.164062 6.023438 -3.890625 5.484375 -3.734375 L 7.359375 0 L 6.34375 0 L 4.546875 -3.609375 L 1.84375 -3.609375 L 1.84375 0 Z M 4.46875 -7.578125 L 1.84375 -7.578125 L 1.84375 -4.390625 L 4.46875 -4.390625 C 5.03125 -4.390625 5.484375 -4.535156 5.828125 -4.828125 C 6.171875 -5.128906 6.34375 -5.519531 6.34375 -6 C 6.34375 -6.476562 6.171875 -6.859375 5.828125 -7.140625 C 5.484375 -7.429688 5.03125 -7.578125 4.46875 -7.578125 Z M 4.46875 -7.578125 "/></g></g></g><g fill="#23120b" fill-opacity="1"><g transform="translate(31.216032, 11.834987)"><g><path d="M 0.046875 0 L 3.546875 -8.40625 L 4.65625 -8.40625 L 8.109375 0 L 7.09375 0 L 6.046875 -2.640625 L 2.078125 -2.640625 L 1.015625 0 Z M 2.40625 -3.4375 L 5.71875 -3.4375 L 4.078125 -7.546875 Z M 2.40625 -3.4375 "/></g></g></g><g fill="#23120b" fill-opacity="1"><g transform="translate(39.369955, 11.834987)"><g><path d="M 5.078125 -0.59375 L 1.796875 -7.34375 L 1.796875 0 L 0.921875 0 L 0.921875 -8.40625 L 2.21875 -8.40625 L 5.09375 -2.4375 L 7.953125 -8.40625 L 9.25 -8.40625 L 9.25 0 L 8.375 0 L 8.375 -7.359375 Z M 5.078125 -0.59375 "/></g></g></g><g fill="#23120b" fill-opacity="1"><g transform="translate(49.541343, 11.834987)"><g><path d="M 0.921875 0 L 0.921875 -8.40625 L 6.9375 -8.40625 L 6.9375 -7.59375 L 1.84375 -7.59375 L 1.84375 -4.65625 L 5.171875 -4.65625 L 5.171875 -3.84375 L 1.84375 -3.84375 L 1.84375 -0.8125 L 7 -0.8125 L 7 0 Z M 0.921875 0 "/></g></g></g></g></g><g clip-path="url(#142f9a1ab6)"><path stroke-linecap="butt" transform="matrix(0.646235, 0, 0, 0.646235, 3.956393, 143.7735)" fill="none" stroke-linejoin="miter" d="M 0.000987551 0.997267 L 1195.827312 0.997267 " stroke="#000000" stroke-width="2" stroke-opacity="1" stroke-miterlimit="4"/></g></g></g></svg>