<svg xmlns="http://www.w3.org/2000/svg" xmlns:xlink="http://www.w3.org/1999/xlink" width="1536" zoomAndPan="magnify" viewBox="0 0 1152 1535.999932" height="2048" preserveAspectRatio="xMidYMid meet" version="1.0"><defs><g/><clipPath id="5195e36758"><path d="M 129.089844 100.507812 L 1022.910156 100.507812 L 1022.910156 1435.484375 L 129.089844 1435.484375 Z M 129.089844 100.507812 " clip-rule="nonzero"/></clipPath><clipPath id="b06a110702"><path d="M 171.710938 294.234375 L 204.710938 294.234375 L 204.710938 327 L 171.710938 327 Z M 171.710938 294.234375 " clip-rule="nonzero"/></clipPath><clipPath id="90886e47b5"><path d="M 174.710938 294.234375 L 201.398438 294.234375 C 202.191406 294.234375 202.957031 294.550781 203.519531 295.113281 C 204.082031 295.675781 204.394531 296.4375 204.394531 297.234375 L 204.394531 323.917969 C 204.394531 324.714844 204.082031 325.476562 203.519531 326.039062 C 202.957031 326.601562 202.191406 326.917969 201.398438 326.917969 L 174.710938 326.917969 C 173.917969 326.917969 173.152344 326.601562 172.589844 326.039062 C 172.027344 325.476562 171.710938 324.714844 171.710938 323.917969 L 171.710938 297.234375 C 171.710938 296.4375 172.027344 295.675781 172.589844 295.113281 C 173.152344 294.550781 173.917969 294.234375 174.710938 294.234375 Z M 174.710938 294.234375 " clip-rule="nonzero"/></clipPath><clipPath id="622a373594"><path d="M 171.710938 352.273438 L 204.710938 352.273438 L 204.710938 385 L 171.710938 385 Z M 171.710938 352.273438 " clip-rule="nonzero"/></clipPath><clipPath id="9b6cb7c1fb"><path d="M 174.710938 352.273438 L 201.398438 352.273438 C 202.191406 352.273438 202.957031 352.589844 203.519531 353.152344 C 204.082031 353.714844 204.394531 354.476562 204.394531 355.269531 L 204.394531 381.957031 C 204.394531 382.75 204.082031 383.515625 203.519531 384.078125 C 202.957031 384.640625 202.191406 384.957031 201.398438 384.957031 L 174.710938 384.957031 C 173.917969 384.957031 173.152344 384.640625 172.589844 384.078125 C 172.027344 383.515625 171.710938 382.75 171.710938 381.957031 L 171.710938 355.269531 C 171.710938 354.476562 172.027344 353.714844 172.589844 353.152344 C 173.152344 352.589844 173.917969 352.273438 174.710938 352.273438 Z M 174.710938 352.273438 " clip-rule="nonzero"/></clipPath><clipPath id="54031c0f98"><path d="M 171.710938 1338.90625 L 204.710938 1338.90625 L 204.710938 1371.90625 L 171.710938 1371.90625 Z M 171.710938 1338.90625 " clip-rule="nonzero"/></clipPath><clipPath id="3cb2789cf2"><path d="M 174.710938 1338.90625 L 201.398438 1338.90625 C 202.191406 1338.90625 202.957031 1339.222656 203.519531 1339.785156 C 204.082031 1340.347656 204.394531 1341.109375 204.394531 1341.90625 L 204.394531 1368.589844 C 204.394531 1369.386719 204.082031 1370.148438 203.519531 1370.710938 C 202.957031 1371.273438 202.191406 1371.589844 201.398438 1371.589844 L 174.710938 1371.589844 C 173.917969 1371.589844 173.152344 1371.273438 172.589844 1370.710938 C 172.027344 1370.148438 171.710938 1369.386719 171.710938 1368.589844 L 171.710938 1341.90625 C 171.710938 1341.109375 172.027344 1340.347656 172.589844 1339.785156 C 173.152344 1339.222656 173.917969 1338.90625 174.710938 1338.90625 Z M 174.710938 1338.90625 " clip-rule="nonzero"/></clipPath><clipPath id="f71014d2d7"><path d="M 171.710938 410.308594 L 204.710938 410.308594 L 204.710938 443 L 171.710938 443 Z M 171.710938 410.308594 " clip-rule="nonzero"/></clipPath><clipPath id="2ffce32fbc"><path d="M 174.710938 410.308594 L 201.398438 410.308594 C 202.191406 410.308594 202.957031 410.625 203.519531 411.1875 C 204.082031 411.75 204.394531 412.511719 204.394531 413.308594 L 204.394531 439.992188 C 204.394531 440.789062 204.082031 441.550781 203.519531 442.113281 C 202.957031 442.675781 202.191406 442.992188 201.398438 442.992188 L 174.710938 442.992188 C 173.917969 442.992188 173.152344 442.675781 172.589844 442.113281 C 172.027344 441.550781 171.710938 440.789062 171.710938 439.992188 L 171.710938 413.308594 C 171.710938 412.511719 172.027344 411.75 172.589844 411.1875 C 173.152344 410.625 173.917969 410.308594 174.710938 410.308594 Z M 174.710938 410.308594 " clip-rule="nonzero"/></clipPath><clipPath id="0b15bd5605"><path d="M 171.710938 468.347656 L 204.710938 468.347656 L 204.710938 501.347656 L 171.710938 501.347656 Z M 171.710938 468.347656 " clip-rule="nonzero"/></clipPath><clipPath id="61760ea743"><path d="M 174.710938 468.347656 L 201.398438 468.347656 C 202.191406 468.347656 202.957031 468.664062 203.519531 469.226562 C 204.082031 469.789062 204.394531 470.550781 204.394531 471.347656 L 204.394531 498.03125 C 204.394531 498.824219 204.082031 499.589844 203.519531 500.152344 C 202.957031 500.714844 202.191406 501.03125 201.398438 501.03125 L 174.710938 501.03125 C 173.917969 501.03125 173.152344 500.714844 172.589844 500.152344 C 172.027344 499.589844 171.710938 498.824219 171.710938 498.03125 L 171.710938 471.347656 C 171.710938 470.550781 172.027344 469.789062 172.589844 469.226562 C 173.152344 468.664062 173.917969 468.347656 174.710938 468.347656 Z M 174.710938 468.347656 " clip-rule="nonzero"/></clipPath><clipPath id="eefc56e8b0"><path d="M 171.710938 526.382812 L 204.710938 526.382812 L 204.710938 559.382812 L 171.710938 559.382812 Z M 171.710938 526.382812 " clip-rule="nonzero"/></clipPath><clipPath id="b811f93734"><path d="M 174.710938 526.382812 L 201.398438 526.382812 C 202.191406 526.382812 202.957031 526.699219 203.519531 527.261719 C 204.082031 527.824219 204.394531 528.585938 204.394531 529.382812 L 204.394531 556.066406 C 204.394531 556.863281 204.082031 557.625 203.519531 558.1875 C 202.957031 558.75 202.191406 559.066406 201.398438 559.066406 L 174.710938 559.066406 C 173.917969 559.066406 173.152344 558.75 172.589844 558.1875 C 172.027344 557.625 171.710938 556.863281 171.710938 556.066406 L 171.710938 529.382812 C 171.710938 528.585938 172.027344 527.824219 172.589844 527.261719 C 173.152344 526.699219 173.917969 526.382812 174.710938 526.382812 Z M 174.710938 526.382812 " clip-rule="nonzero"/></clipPath><clipPath id="4943a28211"><path d="M 171.710938 584.421875 L 204.710938 584.421875 L 204.710938 617.421875 L 171.710938 617.421875 Z M 171.710938 584.421875 " clip-rule="nonzero"/></clipPath><clipPath id="e2e1b2cabe"><path d="M 174.710938 584.421875 L 201.398438 584.421875 C 202.191406 584.421875 202.957031 584.738281 203.519531 585.300781 C 204.082031 585.863281 204.394531 586.625 204.394531 587.421875 L 204.394531 614.105469 C 204.394531 614.902344 204.082031 615.664062 203.519531 616.226562 C 202.957031 616.789062 202.191406 617.105469 201.398438 617.105469 L 174.710938 617.105469 C 173.917969 617.105469 173.152344 616.789062 172.589844 616.226562 C 172.027344 615.664062 171.710938 614.902344 171.710938 614.105469 L 171.710938 587.421875 C 171.710938 586.625 172.027344 585.863281 172.589844 585.300781 C 173.152344 584.738281 173.917969 584.421875 174.710938 584.421875 Z M 174.710938 584.421875 " clip-rule="nonzero"/></clipPath><clipPath id="d28b5baf94"><path d="M 171.710938 642.457031 L 204.710938 642.457031 L 204.710938 675.457031 L 171.710938 675.457031 Z M 171.710938 642.457031 " clip-rule="nonzero"/></clipPath><clipPath id="1e92839d85"><path d="M 174.710938 642.457031 L 201.398438 642.457031 C 202.191406 642.457031 202.957031 642.773438 203.519531 643.335938 C 204.082031 643.898438 204.394531 644.664062 204.394531 645.457031 L 204.394531 672.140625 C 204.394531 672.9375 204.082031 673.699219 203.519531 674.261719 C 202.957031 674.824219 202.191406 675.140625 201.398438 675.140625 L 174.710938 675.140625 C 173.917969 675.140625 173.152344 674.824219 172.589844 674.261719 C 172.027344 673.699219 171.710938 672.9375 171.710938 672.140625 L 171.710938 645.457031 C 171.710938 644.664062 172.027344 643.898438 172.589844 643.335938 C 173.152344 642.773438 173.917969 642.457031 174.710938 642.457031 Z M 174.710938 642.457031 " clip-rule="nonzero"/></clipPath><clipPath id="87c80d8c67"><path d="M 171.710938 700.496094 L 204.710938 700.496094 L 204.710938 733.496094 L 171.710938 733.496094 Z M 171.710938 700.496094 " clip-rule="nonzero"/></clipPath><clipPath id="a2f1c1bd4b"><path d="M 174.710938 700.496094 L 201.398438 700.496094 C 202.191406 700.496094 202.957031 700.8125 203.519531 701.375 C 204.082031 701.9375 204.394531 702.699219 204.394531 703.496094 L 204.394531 730.179688 C 204.394531 730.976562 204.082031 731.738281 203.519531 732.300781 C 202.957031 732.863281 202.191406 733.179688 201.398438 733.179688 L 174.710938 733.179688 C 173.917969 733.179688 173.152344 732.863281 172.589844 732.300781 C 172.027344 731.738281 171.710938 730.976562 171.710938 730.179688 L 171.710938 703.496094 C 171.710938 702.699219 172.027344 701.9375 172.589844 701.375 C 173.152344 700.8125 173.917969 700.496094 174.710938 700.496094 Z M 174.710938 700.496094 " clip-rule="nonzero"/></clipPath><clipPath id="00d4244eb7"><path d="M 171.710938 758.53125 L 204.710938 758.53125 L 204.710938 791.53125 L 171.710938 791.53125 Z M 171.710938 758.53125 " clip-rule="nonzero"/></clipPath><clipPath id="fd2f0f16b2"><path d="M 174.710938 758.53125 L 201.398438 758.53125 C 202.191406 758.53125 202.957031 758.847656 203.519531 759.410156 C 204.082031 759.972656 204.394531 760.738281 204.394531 761.53125 L 204.394531 788.21875 C 204.394531 789.011719 204.082031 789.777344 203.519531 790.339844 C 202.957031 790.902344 202.191406 791.214844 201.398438 791.214844 L 174.710938 791.214844 C 173.917969 791.214844 173.152344 790.902344 172.589844 790.339844 C 172.027344 789.777344 171.710938 789.011719 171.710938 788.21875 L 171.710938 761.53125 C 171.710938 760.738281 172.027344 759.972656 172.589844 759.410156 C 173.152344 758.847656 173.917969 758.53125 174.710938 758.53125 Z M 174.710938 758.53125 " clip-rule="nonzero"/></clipPath><clipPath id="05af863c06"><path d="M 171.710938 816.570312 L 204.710938 816.570312 L 204.710938 849.570312 L 171.710938 849.570312 Z M 171.710938 816.570312 " clip-rule="nonzero"/></clipPath><clipPath id="d324b700ad"><path d="M 174.710938 816.570312 L 201.398438 816.570312 C 202.191406 816.570312 202.957031 816.886719 203.519531 817.449219 C 204.082031 818.011719 204.394531 818.773438 204.394531 819.570312 L 204.394531 846.253906 C 204.394531 847.050781 204.082031 847.8125 203.519531 848.375 C 202.957031 848.9375 202.191406 849.253906 201.398438 849.253906 L 174.710938 849.253906 C 173.917969 849.253906 173.152344 848.9375 172.589844 848.375 C 172.027344 847.8125 171.710938 847.050781 171.710938 846.253906 L 171.710938 819.570312 C 171.710938 818.773438 172.027344 818.011719 172.589844 817.449219 C 173.152344 816.886719 173.917969 816.570312 174.710938 816.570312 Z M 174.710938 816.570312 " clip-rule="nonzero"/></clipPath><clipPath id="4eef96039a"><path d="M 171.710938 874.609375 L 204.710938 874.609375 L 204.710938 907.609375 L 171.710938 907.609375 Z M 171.710938 874.609375 " clip-rule="nonzero"/></clipPath><clipPath id="f5f447346a"><path d="M 174.710938 874.609375 L 201.398438 874.609375 C 202.191406 874.609375 202.957031 874.921875 203.519531 875.484375 C 204.082031 876.046875 204.394531 876.8125 204.394531 877.605469 L 204.394531 904.292969 C 204.394531 905.085938 204.082031 905.851562 203.519531 906.414062 C 202.957031 906.976562 202.191406 907.292969 201.398438 907.292969 L 174.710938 907.292969 C 173.917969 907.292969 173.152344 906.976562 172.589844 906.414062 C 172.027344 905.851562 171.710938 905.085938 171.710938 904.292969 L 171.710938 877.605469 C 171.710938 876.8125 172.027344 876.046875 172.589844 875.484375 C 173.152344 874.921875 173.917969 874.609375 174.710938 874.609375 Z M 174.710938 874.609375 " clip-rule="nonzero"/></clipPath><clipPath id="f34501a868"><path d="M 171.710938 932.644531 L 204.710938 932.644531 L 204.710938 965.644531 L 171.710938 965.644531 Z M 171.710938 932.644531 " clip-rule="nonzero"/></clipPath><clipPath id="7a6a98074f"><path d="M 174.710938 932.644531 L 201.398438 932.644531 C 202.191406 932.644531 202.957031 932.960938 203.519531 933.523438 C 204.082031 934.085938 204.394531 934.847656 204.394531 935.644531 L 204.394531 962.328125 C 204.394531 963.125 204.082031 963.886719 203.519531 964.449219 C 202.957031 965.011719 202.191406 965.328125 201.398438 965.328125 L 174.710938 965.328125 C 173.917969 965.328125 173.152344 965.011719 172.589844 964.449219 C 172.027344 963.886719 171.710938 963.125 171.710938 962.328125 L 171.710938 935.644531 C 171.710938 934.847656 172.027344 934.085938 172.589844 933.523438 C 173.152344 932.960938 173.917969 932.644531 174.710938 932.644531 Z M 174.710938 932.644531 " clip-rule="nonzero"/></clipPath><clipPath id="7a6b03223d"><path d="M 171.710938 990.683594 L 204.710938 990.683594 L 204.710938 1023.683594 L 171.710938 1023.683594 Z M 171.710938 990.683594 " clip-rule="nonzero"/></clipPath><clipPath id="c6d1d41537"><path d="M 174.710938 990.683594 L 201.398438 990.683594 C 202.191406 990.683594 202.957031 991 203.519531 991.5625 C 204.082031 992.125 204.394531 992.886719 204.394531 993.683594 L 204.394531 1020.367188 C 204.394531 1021.160156 204.082031 1021.925781 203.519531 1022.488281 C 202.957031 1023.050781 202.191406 1023.367188 201.398438 1023.367188 L 174.710938 1023.367188 C 173.917969 1023.367188 173.152344 1023.050781 172.589844 1022.488281 C 172.027344 1021.925781 171.710938 1021.160156 171.710938 1020.367188 L 171.710938 993.683594 C 171.710938 992.886719 172.027344 992.125 172.589844 991.5625 C 173.152344 991 173.917969 990.683594 174.710938 990.683594 Z M 174.710938 990.683594 " clip-rule="nonzero"/></clipPath><clipPath id="ade299e33c"><path d="M 171.710938 1048.71875 L 204.710938 1048.71875 L 204.710938 1081.71875 L 171.710938 1081.71875 Z M 171.710938 1048.71875 " clip-rule="nonzero"/></clipPath><clipPath id="4eaeaabc59"><path d="M 174.710938 1048.71875 L 201.398438 1048.71875 C 202.191406 1048.71875 202.957031 1049.035156 203.519531 1049.597656 C 204.082031 1050.160156 204.394531 1050.921875 204.394531 1051.71875 L 204.394531 1078.402344 C 204.394531 1079.199219 204.082031 1079.960938 203.519531 1080.523438 C 202.957031 1081.085938 202.191406 1081.402344 201.398438 1081.402344 L 174.710938 1081.402344 C 173.917969 1081.402344 173.152344 1081.085938 172.589844 1080.523438 C 172.027344 1079.960938 171.710938 1079.199219 171.710938 1078.402344 L 171.710938 1051.71875 C 171.710938 1050.921875 172.027344 1050.160156 172.589844 1049.597656 C 173.152344 1049.035156 173.917969 1048.71875 174.710938 1048.71875 Z M 174.710938 1048.71875 " clip-rule="nonzero"/></clipPath><clipPath id="7f8f09dbbe"><path d="M 171.710938 1106.757812 L 204.710938 1106.757812 L 204.710938 1139.757812 L 171.710938 1139.757812 Z M 171.710938 1106.757812 " clip-rule="nonzero"/></clipPath><clipPath id="22586c37f3"><path d="M 174.710938 1106.757812 L 201.398438 1106.757812 C 202.191406 1106.757812 202.957031 1107.074219 203.519531 1107.636719 C 204.082031 1108.199219 204.394531 1108.960938 204.394531 1109.757812 L 204.394531 1136.441406 C 204.394531 1137.238281 204.082031 1138 203.519531 1138.5625 C 202.957031 1139.125 202.191406 1139.441406 201.398438 1139.441406 L 174.710938 1139.441406 C 173.917969 1139.441406 173.152344 1139.125 172.589844 1138.5625 C 172.027344 1138 171.710938 1137.238281 171.710938 1136.441406 L 171.710938 1109.757812 C 171.710938 1108.960938 172.027344 1108.199219 172.589844 1107.636719 C 173.152344 1107.074219 173.917969 1106.757812 174.710938 1106.757812 Z M 174.710938 1106.757812 " clip-rule="nonzero"/></clipPath><clipPath id="d6a4d6965c"><path d="M 171.710938 1164.792969 L 204.710938 1164.792969 L 204.710938 1197.792969 L 171.710938 1197.792969 Z M 171.710938 1164.792969 " clip-rule="nonzero"/></clipPath><clipPath id="96638b4cf6"><path d="M 174.710938 1164.792969 L 201.398438 1164.792969 C 202.191406 1164.792969 202.957031 1165.109375 203.519531 1165.671875 C 204.082031 1166.234375 204.394531 1166.996094 204.394531 1167.792969 L 204.394531 1194.476562 C 204.394531 1195.273438 204.082031 1196.035156 203.519531 1196.597656 C 202.957031 1197.160156 202.191406 1197.476562 201.398438 1197.476562 L 174.710938 1197.476562 C 173.917969 1197.476562 173.152344 1197.160156 172.589844 1196.597656 C 172.027344 1196.035156 171.710938 1195.273438 171.710938 1194.476562 L 171.710938 1167.792969 C 171.710938 1166.996094 172.027344 1166.234375 172.589844 1165.671875 C 173.152344 1165.109375 173.917969 1164.792969 174.710938 1164.792969 Z M 174.710938 1164.792969 " clip-rule="nonzero"/></clipPath><clipPath id="680edf1ff1"><path d="M 171.710938 1222.832031 L 204.710938 1222.832031 L 204.710938 1255.832031 L 171.710938 1255.832031 Z M 171.710938 1222.832031 " clip-rule="nonzero"/></clipPath><clipPath id="69673ad8f4"><path d="M 174.710938 1222.832031 L 201.398438 1222.832031 C 202.191406 1222.832031 202.957031 1223.148438 203.519531 1223.710938 C 204.082031 1224.273438 204.394531 1225.035156 204.394531 1225.832031 L 204.394531 1252.515625 C 204.394531 1253.3125 204.082031 1254.074219 203.519531 1254.636719 C 202.957031 1255.199219 202.191406 1255.515625 201.398438 1255.515625 L 174.710938 1255.515625 C 173.917969 1255.515625 173.152344 1255.199219 172.589844 1254.636719 C 172.027344 1254.074219 171.710938 1253.3125 171.710938 1252.515625 L 171.710938 1225.832031 C 171.710938 1225.035156 172.027344 1224.273438 172.589844 1223.710938 C 173.152344 1223.148438 173.917969 1222.832031 174.710938 1222.832031 Z M 174.710938 1222.832031 " clip-rule="nonzero"/></clipPath><clipPath id="a7c59093e5"><path d="M 171.710938 1280.867188 L 204.710938 1280.867188 L 204.710938 1313.867188 L 171.710938 1313.867188 Z M 171.710938 1280.867188 " clip-rule="nonzero"/></clipPath><clipPath id="ef60b12145"><path d="M 174.710938 1280.867188 L 201.398438 1280.867188 C 202.191406 1280.867188 202.957031 1281.183594 203.519531 1281.746094 C 204.082031 1282.308594 204.394531 1283.074219 204.394531 1283.867188 L 204.394531 1310.550781 C 204.394531 1311.347656 204.082031 1312.109375 203.519531 1312.671875 C 202.957031 1313.234375 202.191406 1313.550781 201.398438 1313.550781 L 174.710938 1313.550781 C 173.917969 1313.550781 173.152344 1313.234375 172.589844 1312.671875 C 172.027344 1312.109375 171.710938 1311.347656 171.710938 1310.550781 L 171.710938 1283.867188 C 171.710938 1283.074219 172.027344 1282.308594 172.589844 1281.746094 C 173.152344 1281.183594 173.917969 1280.867188 174.710938 1280.867188 Z M 174.710938 1280.867188 " clip-rule="nonzero"/></clipPath></defs><g clip-path="url(#5195e36758)"><path stroke-linecap="butt" transform="matrix(0.75, 0, 0, 0.75, 129.088637, 100.507575)" fill="none" stroke-linejoin="miter" d="M 0.00160937 0.000317224 L 1191.762128 0.000317224 L 1191.762128 1779.96922 L 0.00160937 1779.96922 Z M 0.00160937 0.000317224 " stroke="#000000" stroke-width="4" stroke-opacity="1" stroke-miterlimit="4"/></g><path stroke-linecap="round" transform="matrix(0.75, 0, 0, 0.75, 219.794771, 324.805351)" fill="none" stroke-linejoin="miter" d="M 0.997597 0.999115 L 1012.992475 0.999115 " stroke="#000000" stroke-width="2" stroke-opacity="1" stroke-miterlimit="4"/><path stroke-linecap="round" transform="matrix(0.75, 0, 0, 0.75, 219.794771, 382.842662)" fill="none" stroke-linejoin="miter" d="M 0.997597 1.00145 L 1012.992475 1.00145 " stroke="#000000" stroke-width="2" stroke-opacity="1" stroke-miterlimit="4"/><path stroke-linecap="round" transform="matrix(0.75, 0, 0, 0.75, 219.794771, 440.879966)" fill="none" stroke-linejoin="miter" d="M 0.997597 0.998587 L 1012.992475 0.998587 " stroke="#000000" stroke-width="2" stroke-opacity="1" stroke-miterlimit="4"/><g clip-path="url(#b06a110702)"><g clip-path="url(#90886e47b5)"><path stroke-linecap="butt" transform="matrix(0.75, 0, 0, 0.75, 171.712657, 294.234682)" fill="none" stroke-linejoin="miter" d="M 3.997708 -0.000409296 L 39.581044 -0.000409296 C 40.638336 -0.000409296 41.659169 0.421466 42.409169 1.171466 C 43.159169 1.921466 43.575836 2.937091 43.575836 3.999591 L 43.575836 39.577719 C 43.575836 40.640219 43.159169 41.655844 42.409169 42.405844 C 41.659169 43.155844 40.638336 43.577719 39.581044 43.577719 L 3.997708 43.577719 C 2.940416 43.577719 1.919582 43.155844 1.169582 42.405844 C 0.419582 41.655844 -0.00229275 40.640219 -0.00229275 39.577719 L -0.00229275 3.999591 C -0.00229275 2.937091 0.419582 1.921466 1.169582 1.171466 C 1.919582 0.421466 2.940416 -0.000409296 3.997708 -0.000409296 Z M 3.997708 -0.000409296 " stroke="#000000" stroke-width="4" stroke-opacity="1" stroke-miterlimit="4"/></g></g><g clip-path="url(#622a373594)"><g clip-path="url(#9b6cb7c1fb)"><path stroke-linecap="butt" transform="matrix(0.75, 0, 0, 0.75, 171.712657, 352.271962)" fill="none" stroke-linejoin="miter" d="M 3.997708 0.00196761 L 39.581044 0.00196761 C 40.638336 0.00196761 41.659169 0.423843 42.409169 1.173843 C 43.159169 1.923843 43.575836 2.939468 43.575836 3.99676 L 43.575836 39.580096 C 43.575836 40.637388 43.159169 41.658221 42.409169 42.408221 C 41.659169 43.158221 40.638336 43.580096 39.581044 43.580096 L 3.997708 43.580096 C 2.940416 43.580096 1.919582 43.158221 1.169582 42.408221 C 0.419582 41.658221 -0.00229275 40.637388 -0.00229275 39.580096 L -0.00229275 3.99676 C -0.00229275 2.939468 0.419582 1.923843 1.169582 1.173843 C 1.919582 0.423843 2.940416 0.00196761 3.997708 0.00196761 Z M 3.997708 0.00196761 " stroke="#000000" stroke-width="4" stroke-opacity="1" stroke-miterlimit="4"/></g></g><g clip-path="url(#54031c0f98)"><g clip-path="url(#3cb2789cf2)"><path stroke-linecap="butt" transform="matrix(0.75, 0, 0, 0.75, 171.712657, 1338.905961)" fill="none" stroke-linejoin="miter" d="M 3.997708 0.000385068 L 39.581044 0.000385068 C 40.638336 0.000385068 41.659169 0.42226 42.409169 1.17226 C 43.159169 1.92226 43.575836 2.937885 43.575836 4.000385 L 43.575836 39.578513 C 43.575836 40.641014 43.159169 41.656639 42.409169 42.406639 C 41.659169 43.156639 40.638336 43.578514 39.581044 43.578514 L 3.997708 43.578514 C 2.940416 43.578514 1.919582 43.156639 1.169582 42.406639 C 0.419582 41.656639 -0.00229275 40.641014 -0.00229275 39.578513 L -0.00229275 4.000385 C -0.00229275 2.937885 0.419582 1.92226 1.169582 1.17226 C 1.919582 0.42226 2.940416 0.000385068 3.997708 0.000385068 Z M 3.997708 0.000385068 " stroke="#000000" stroke-width="4" stroke-opacity="1" stroke-miterlimit="4"/></g></g><g clip-path="url(#f71014d2d7)"><g clip-path="url(#2ffce32fbc)"><path stroke-linecap="butt" transform="matrix(0.75, 0, 0, 0.75, 171.712657, 410.309273)" fill="none" stroke-linejoin="miter" d="M 3.997708 -0.000905426 L 39.581044 -0.000905426 C 40.638336 -0.000905426 41.659169 0.42097 42.409169 1.17097 C 43.159169 1.92097 43.575836 2.936595 43.575836 3.999095 L 43.575836 39.577223 C 43.575836 40.639723 43.159169 41.655348 42.409169 42.405348 C 41.659169 43.155348 40.638336 43.577223 39.581044 43.577223 L 3.997708 43.577223 C 2.940416 43.577223 1.919582 43.155348 1.169582 42.405348 C 0.419582 41.655348 -0.00229275 40.639723 -0.00229275 39.577223 L -0.00229275 3.999095 C -0.00229275 2.936595 0.419582 1.92097 1.169582 1.17097 C 1.919582 0.42097 2.940416 -0.000905426 3.997708 -0.000905426 Z M 3.997708 -0.000905426 " stroke="#000000" stroke-width="4" stroke-opacity="1" stroke-miterlimit="4"/></g></g><g clip-path="url(#0b15bd5605)"><g clip-path="url(#61760ea743)"><path stroke-linecap="butt" transform="matrix(0.75, 0, 0, 0.75, 171.712657, 468.346548)" fill="none" stroke-linejoin="miter" d="M 3.997708 0.00147788 L 39.581044 0.00147788 C 40.638336 0.00147788 41.659169 0.423353 42.409169 1.173353 C 43.159169 1.923353 43.575836 2.938978 43.575836 4.001478 L 43.575836 39.579606 C 43.575836 40.636898 43.159169 41.657731 42.409169 42.407732 C 41.659169 43.157732 40.638336 43.579607 39.581044 43.579607 L 3.997708 43.579607 C 2.940416 43.579607 1.919582 43.157732 1.169582 42.407732 C 0.419582 41.657731 -0.00229275 40.636898 -0.00229275 39.579606 L -0.00229275 4.001478 C -0.00229275 2.938978 0.419582 1.923353 1.169582 1.173353 C 1.919582 0.423353 2.940416 0.00147788 3.997708 0.00147788 Z M 3.997708 0.00147788 " stroke="#000000" stroke-width="4" stroke-opacity="1" stroke-miterlimit="4"/></g></g><g clip-path="url(#eefc56e8b0)"><g clip-path="url(#b811f93734)"><path stroke-linecap="butt" transform="matrix(0.75, 0, 0, 0.75, 171.712657, 526.383871)" fill="none" stroke-linejoin="miter" d="M 3.997708 -0.00141116 L 39.581044 -0.00141116 C 40.638336 -0.00141116 41.659169 0.420464 42.409169 1.170464 C 43.159169 1.920464 43.575836 2.936089 43.575836 3.998589 L 43.575836 39.576717 C 43.575836 40.639217 43.159169 41.654842 42.409169 42.404842 C 41.659169 43.154843 40.638336 43.576718 39.581044 43.576718 L 3.997708 43.576718 C 2.940416 43.576718 1.919582 43.154843 1.169582 42.404842 C 0.419582 41.654842 -0.00229275 40.639217 -0.00229275 39.576717 L -0.00229275 3.998589 C -0.00229275 2.936089 0.419582 1.920464 1.169582 1.170464 C 1.919582 0.420464 2.940416 -0.00141116 3.997708 -0.00141116 Z M 3.997708 -0.00141116 " stroke="#000000" stroke-width="4" stroke-opacity="1" stroke-miterlimit="4"/></g></g><g clip-path="url(#4943a28211)"><g clip-path="url(#e2e1b2cabe)"><path stroke-linecap="butt" transform="matrix(0.75, 0, 0, 0.75, 171.712657, 584.421146)" fill="none" stroke-linejoin="miter" d="M 3.997708 0.000972146 L 39.581044 0.000972146 C 40.638336 0.000972146 41.659169 0.422847 42.409169 1.172847 C 43.159169 1.922847 43.575836 2.938472 43.575836 4.000972 L 43.575836 39.579101 C 43.575836 40.641601 43.159169 41.657226 42.409169 42.407226 C 41.659169 43.157226 40.638336 43.579101 39.581044 43.579101 L 3.997708 43.579101 C 2.940416 43.579101 1.919582 43.157226 1.169582 42.407226 C 0.419582 41.657226 -0.00229275 40.641601 -0.00229275 39.579101 L -0.00229275 4.000972 C -0.00229275 2.938472 0.419582 1.922847 1.169582 1.172847 C 1.919582 0.422847 2.940416 0.000972146 3.997708 0.000972146 Z M 3.997708 0.000972146 " stroke="#000000" stroke-width="4" stroke-opacity="1" stroke-miterlimit="4"/></g></g><g clip-path="url(#d28b5baf94)"><g clip-path="url(#1e92839d85)"><path stroke-linecap="butt" transform="matrix(0.75, 0, 0, 0.75, 171.712657, 642.458421)" fill="none" stroke-linejoin="miter" d="M 3.997708 -0.00185289 L 39.581044 -0.00185289 C 40.638336 -0.00185289 41.659169 0.420022 42.409169 1.170022 C 43.159169 1.920022 43.575836 2.940856 43.575836 3.998147 L 43.575836 39.576276 C 43.575836 40.638776 43.159169 41.654401 42.409169 42.404401 C 41.659169 43.154401 40.638336 43.576276 39.581044 43.576276 L 3.997708 43.576276 C 2.940416 43.576276 1.919582 43.154401 1.169582 42.404401 C 0.419582 41.654401 -0.00229275 40.638776 -0.00229275 39.576276 L -0.00229275 3.998147 C -0.00229275 2.940856 0.419582 1.920022 1.169582 1.170022 C 1.919582 0.420022 2.940416 -0.00185289 3.997708 -0.00185289 Z M 3.997708 -0.00185289 " stroke="#000000" stroke-width="4" stroke-opacity="1" stroke-miterlimit="4"/></g></g><g clip-path="url(#87c80d8c67)"><g clip-path="url(#a2f1c1bd4b)"><path stroke-linecap="butt" transform="matrix(0.75, 0, 0, 0.75, 171.712657, 700.495696)" fill="none" stroke-linejoin="miter" d="M 3.997708 0.000530416 L 39.581044 0.000530416 C 40.638336 0.000530416 41.659169 0.422405 42.409169 1.172406 C 43.159169 1.922406 43.575836 2.938031 43.575836 4.000531 L 43.575836 39.578659 C 43.575836 40.641159 43.159169 41.656784 42.409169 42.406784 C 41.659169 43.156784 40.638336 43.578659 39.581044 43.578659 L 3.997708 43.578659 C 2.940416 43.578659 1.919582 43.156784 1.169582 42.406784 C 0.419582 41.656784 -0.00229275 40.641159 -0.00229275 39.578659 L -0.00229275 4.000531 C -0.00229275 2.938031 0.419582 1.922406 1.169582 1.172406 C 1.919582 0.422405 2.940416 0.000530416 3.997708 0.000530416 Z M 3.997708 0.000530416 " stroke="#000000" stroke-width="4" stroke-opacity="1" stroke-miterlimit="4"/></g></g><g clip-path="url(#00d4244eb7)"><g clip-path="url(#fd2f0f16b2)"><path stroke-linecap="butt" transform="matrix(0.75, 0, 0, 0.75, 171.712657, 758.533043)" fill="none" stroke-linejoin="miter" d="M 3.997708 -0.00239062 L 39.581044 -0.00239062 C 40.638336 -0.00239062 41.659169 0.419484 42.409169 1.169484 C 43.159169 1.919485 43.575836 2.940318 43.575836 3.99761 L 43.575836 39.580946 C 43.575836 40.638238 43.159169 41.659071 42.409169 42.409071 C 41.659169 43.159071 40.638336 43.575738 39.581044 43.575738 L 3.997708 43.575738 C 2.940416 43.575738 1.919582 43.159071 1.169582 42.409071 C 0.419582 41.659071 -0.00229275 40.638238 -0.00229275 39.580946 L -0.00229275 3.99761 C -0.00229275 2.940318 0.419582 1.919485 1.169582 1.169484 C 1.919582 0.419484 2.940416 -0.00239062 3.997708 -0.00239062 Z M 3.997708 -0.00239062 " stroke="#000000" stroke-width="4" stroke-opacity="1" stroke-miterlimit="4"/></g></g><g clip-path="url(#05af863c06)"><g clip-path="url(#d324b700ad)"><path stroke-linecap="butt" transform="matrix(0.75, 0, 0, 0.75, 171.712657, 816.57027)" fill="none" stroke-linejoin="miter" d="M 3.997708 0.000056686 L 39.581044 0.000056686 C 40.638336 0.000056686 41.659169 0.421932 42.409169 1.171932 C 43.159169 1.921932 43.575836 2.937557 43.575836 4.000057 L 43.575836 39.578185 C 43.575836 40.640685 43.159169 41.65631 42.409169 42.40631 C 41.659169 43.15631 40.638336 43.578185 39.581044 43.578185 L 3.997708 43.578185 C 2.940416 43.578185 1.919582 43.15631 1.169582 42.40631 C 0.419582 41.65631 -0.00229275 40.640685 -0.00229275 39.578185 L -0.00229275 4.000057 C -0.00229275 2.937557 0.419582 1.921932 1.169582 1.171932 C 1.919582 0.421932 2.940416 0.000056686 3.997708 0.000056686 Z M 3.997708 0.000056686 " stroke="#000000" stroke-width="4" stroke-opacity="1" stroke-miterlimit="4"/></g></g><g clip-path="url(#4eef96039a)"><g clip-path="url(#f5f447346a)"><path stroke-linecap="butt" transform="matrix(0.75, 0, 0, 0.75, 171.712657, 874.607593)" fill="none" stroke-linejoin="miter" d="M 3.997708 0.00237599 L 39.581044 0.00237599 C 40.638336 0.00237599 41.659169 0.419043 42.409169 1.169043 C 43.159169 1.919043 43.575836 2.939876 43.575836 3.997168 L 43.575836 39.580504 C 43.575836 40.637796 43.159169 41.65863 42.409169 42.40863 C 41.659169 43.15863 40.638336 43.580505 39.581044 43.580505 L 3.997708 43.580505 C 2.940416 43.580505 1.919582 43.15863 1.169582 42.40863 C 0.419582 41.65863 -0.00229275 40.637796 -0.00229275 39.580504 L -0.00229275 3.997168 C -0.00229275 2.939876 0.419582 1.919043 1.169582 1.169043 C 1.919582 0.419043 2.940416 0.00237599 3.997708 0.00237599 Z M 3.997708 0.00237599 " stroke="#000000" stroke-width="4" stroke-opacity="1" stroke-miterlimit="4"/></g></g><g clip-path="url(#f34501a868)"><g clip-path="url(#7a6a98074f)"><path stroke-linecap="butt" transform="matrix(0.75, 0, 0, 0.75, 171.712657, 932.64494)" fill="none" stroke-linejoin="miter" d="M 3.997708 -0.000545044 L 39.581044 -0.000545044 C 40.638336 -0.000545044 41.659169 0.42133 42.409169 1.17133 C 43.159169 1.92133 43.575836 2.936955 43.575836 3.999455 L 43.575836 39.577583 C 43.575836 40.640083 43.159169 41.655709 42.409169 42.405709 C 41.659169 43.155709 40.638336 43.577584 39.581044 43.577584 L 3.997708 43.577584 C 2.940416 43.577584 1.919582 43.155709 1.169582 42.405709 C 0.419582 41.655709 -0.00229275 40.640083 -0.00229275 39.577583 L -0.00229275 3.999455 C -0.00229275 2.936955 0.419582 1.92133 1.169582 1.17133 C 1.919582 0.42133 2.940416 -0.000545044 3.997708 -0.000545044 Z M 3.997708 -0.000545044 " stroke="#000000" stroke-width="4" stroke-opacity="1" stroke-miterlimit="4"/></g></g><g clip-path="url(#7a6b03223d)"><g clip-path="url(#c6d1d41537)"><path stroke-linecap="butt" transform="matrix(0.75, 0, 0, 0.75, 171.712657, 990.682287)" fill="none" stroke-linejoin="miter" d="M 3.997708 0.00174226 L 39.581044 0.00174226 C 40.638336 0.00174226 41.659169 0.423617 42.409169 1.173617 C 43.159169 1.923617 43.575836 2.939243 43.575836 4.001743 L 43.575836 39.579871 C 43.575836 40.637162 43.159169 41.657996 42.409169 42.407996 C 41.659169 43.157996 40.638336 43.579871 39.581044 43.579871 L 3.997708 43.579871 C 2.940416 43.579871 1.919582 43.157996 1.169582 42.407996 C 0.419582 41.657996 -0.00229275 40.637162 -0.00229275 39.579871 L -0.00229275 4.001743 C -0.00229275 2.939243 0.419582 1.923617 1.169582 1.173617 C 1.919582 0.423617 2.940416 0.00174226 3.997708 0.00174226 Z M 3.997708 0.00174226 " stroke="#000000" stroke-width="4" stroke-opacity="1" stroke-miterlimit="4"/></g></g><g clip-path="url(#ade299e33c)"><g clip-path="url(#4eaeaabc59)"><path stroke-linecap="butt" transform="matrix(0.75, 0, 0, 0.75, 171.712657, 1048.71949)" fill="none" stroke-linejoin="miter" d="M 3.997708 -0.000986774 L 39.581044 -0.000986774 C 40.638336 -0.000986774 41.659169 0.420888 42.409169 1.170888 C 43.159169 1.920888 43.575836 2.936513 43.575836 3.999014 L 43.575836 39.577142 C 43.575836 40.639642 43.159169 41.655267 42.409169 42.405267 C 41.659169 43.155267 40.638336 43.577142 39.581044 43.577142 L 3.997708 43.577142 C 2.940416 43.577142 1.919582 43.155267 1.169582 42.405267 C 0.419582 41.655267 -0.00229275 40.639642 -0.00229275 39.577142 L -0.00229275 3.999014 C -0.00229275 2.936513 0.419582 1.920888 1.169582 1.170888 C 1.919582 0.420888 2.940416 -0.000986774 3.997708 -0.000986774 Z M 3.997708 -0.000986774 " stroke="#000000" stroke-width="4" stroke-opacity="1" stroke-miterlimit="4"/></g></g><g clip-path="url(#7f8f09dbbe)"><g clip-path="url(#22586c37f3)"><path stroke-linecap="butt" transform="matrix(0.75, 0, 0, 0.75, 171.712657, 1106.756837)" fill="none" stroke-linejoin="miter" d="M 3.997708 0.00130053 L 39.581044 0.00130053 C 40.638336 0.00130053 41.659169 0.423176 42.409169 1.173176 C 43.159169 1.923176 43.575836 2.938801 43.575836 4.001301 L 43.575836 39.579429 C 43.575836 40.641929 43.159169 41.657554 42.409169 42.407554 C 41.659169 43.157554 40.638336 43.579429 39.581044 43.579429 L 3.997708 43.579429 C 2.940416 43.579429 1.919582 43.157554 1.169582 42.407554 C 0.419582 41.657554 -0.00229275 40.641929 -0.00229275 39.579429 L -0.00229275 4.001301 C -0.00229275 2.938801 0.419582 1.923176 1.169582 1.173176 C 1.919582 0.423176 2.940416 0.00130053 3.997708 0.00130053 Z M 3.997708 0.00130053 " stroke="#000000" stroke-width="4" stroke-opacity="1" stroke-miterlimit="4"/></g></g><g clip-path="url(#d6a4d6965c)"><g clip-path="url(#96638b4cf6)"><path stroke-linecap="butt" transform="matrix(0.75, 0, 0, 0.75, 171.712657, 1164.794064)" fill="none" stroke-linejoin="miter" d="M 3.997708 -0.0014605 L 39.581044 -0.0014605 C 40.638336 -0.0014605 41.659169 0.420415 42.409169 1.170415 C 43.159169 1.920415 43.575836 2.93604 43.575836 3.99854 L 43.575836 39.576668 C 43.575836 40.639168 43.159169 41.654793 42.409169 42.404793 C 41.659169 43.154793 40.638336 43.576668 39.581044 43.576668 L 3.997708 43.576668 C 2.940416 43.576668 1.919582 43.154793 1.169582 42.404793 C 0.419582 41.654793 -0.00229275 40.639168 -0.00229275 39.576668 L -0.00229275 3.99854 C -0.00229275 2.93604 0.419582 1.920415 1.169582 1.170415 C 1.919582 0.420415 2.940416 -0.0014605 3.997708 -0.0014605 Z M 3.997708 -0.0014605 " stroke="#000000" stroke-width="4" stroke-opacity="1" stroke-miterlimit="4"/></g></g><g clip-path="url(#680edf1ff1)"><g clip-path="url(#69673ad8f4)"><path stroke-linecap="butt" transform="matrix(0.75, 0, 0, 0.75, 171.712657, 1222.831387)" fill="none" stroke-linejoin="miter" d="M 3.997708 0.000858798 L 39.581044 0.000858798 C 40.638336 0.000858798 41.659169 0.422734 42.409169 1.172734 C 43.159169 1.922734 43.575836 2.938359 43.575836 4.000859 L 43.575836 39.578987 C 43.575836 40.641487 43.159169 41.657112 42.409169 42.407112 C 41.659169 43.157112 40.638336 43.578988 39.581044 43.578988 L 3.997708 43.578988 C 2.940416 43.578988 1.919582 43.157112 1.169582 42.407112 C 0.419582 41.657112 -0.00229275 40.641487 -0.00229275 39.578987 L -0.00229275 4.000859 C -0.00229275 2.938359 0.419582 1.922734 1.169582 1.172734 C 1.919582 0.422734 2.940416 0.000858798 3.997708 0.000858798 Z M 3.997708 0.000858798 " stroke="#000000" stroke-width="4" stroke-opacity="1" stroke-miterlimit="4"/></g></g><g clip-path="url(#a7c59093e5)"><g clip-path="url(#ef60b12145)"><path stroke-linecap="butt" transform="matrix(0.75, 0, 0, 0.75, 171.712657, 1280.868614)" fill="none" stroke-linejoin="miter" d="M 3.997708 -0.00190223 L 39.581044 -0.00190223 C 40.638336 -0.00190223 41.659169 0.419973 42.409169 1.169973 C 43.159169 1.919973 43.575836 2.940806 43.575836 3.998098 L 43.575836 39.576226 C 43.575836 40.638726 43.159169 41.654351 42.409169 42.404351 C 41.659169 43.154351 40.638336 43.576227 39.581044 43.576227 L 3.997708 43.576227 C 2.940416 43.576227 1.919582 43.154351 1.169582 42.404351 C 0.419582 41.654351 -0.00229275 40.638726 -0.00229275 39.576226 L -0.00229275 3.998098 C -0.00229275 2.940806 0.419582 1.919973 1.169582 1.169973 C 1.919582 0.419973 2.940416 -0.00190223 3.997708 -0.00190223 Z M 3.997708 -0.00190223 " stroke="#000000" stroke-width="4" stroke-opacity="1" stroke-miterlimit="4"/></g></g><path stroke-linecap="round" transform="matrix(0.75, 0, 0, 0.75, 219.794771, 1369.476655)" fill="none" stroke-linejoin="miter" d="M 0.997597 0.999877 L 1012.992475 0.999877 " stroke="#000000" stroke-width="2" stroke-opacity="1" stroke-miterlimit="4"/><path stroke-linecap="round" transform="matrix(0.75, 0, 0, 0.75, 219.794771, 498.917217)" fill="none" stroke-linejoin="miter" d="M 0.997597 1.001002 L 1012.992475 1.001002 " stroke="#000000" stroke-width="2" stroke-opacity="1" stroke-miterlimit="4"/><path stroke-linecap="round" transform="matrix(0.75, 0, 0, 0.75, 219.794771, 556.954564)" fill="none" stroke-linejoin="miter" d="M 0.997597 0.998081 L 1012.992475 0.998081 " stroke="#000000" stroke-width="2" stroke-opacity="1" stroke-miterlimit="4"/><path stroke-linecap="round" transform="matrix(0.75, 0, 0, 0.75, 219.794771, 614.991839)" fill="none" stroke-linejoin="miter" d="M 0.997597 1.000464 L 1012.992475 1.000464 " stroke="#000000" stroke-width="2" stroke-opacity="1" stroke-miterlimit="4"/><path stroke-linecap="round" transform="matrix(0.75, 0, 0, 0.75, 219.794771, 673.029186)" fill="none" stroke-linejoin="miter" d="M 0.997597 0.997543 L 1012.992475 0.997543 " stroke="#000000" stroke-width="2" stroke-opacity="1" stroke-miterlimit="4"/><path stroke-linecap="round" transform="matrix(0.75, 0, 0, 0.75, 219.794771, 731.066461)" fill="none" stroke-linejoin="miter" d="M 0.997597 0.999927 L 1012.992475 0.999927 " stroke="#000000" stroke-width="2" stroke-opacity="1" stroke-miterlimit="4"/><path stroke-linecap="round" transform="matrix(0.75, 0, 0, 0.75, 219.794771, 789.103736)" fill="none" stroke-linejoin="miter" d="M 0.997597 1.00231 L 1012.992475 1.00231 " stroke="#000000" stroke-width="2" stroke-opacity="1" stroke-miterlimit="4"/><path stroke-linecap="round" transform="matrix(0.75, 0, 0, 0.75, 219.794771, 847.141011)" fill="none" stroke-linejoin="miter" d="M 0.997597 0.999485 L 1012.992475 0.999485 " stroke="#000000" stroke-width="2" stroke-opacity="1" stroke-miterlimit="4"/><path stroke-linecap="round" transform="matrix(0.75, 0, 0, 0.75, 219.794771, 905.17831)" fill="none" stroke-linejoin="miter" d="M 0.997597 1.001836 L 1012.992475 1.001836 " stroke="#000000" stroke-width="2" stroke-opacity="1" stroke-miterlimit="4"/><path stroke-linecap="round" transform="matrix(0.75, 0, 0, 0.75, 219.794771, 963.215585)" fill="none" stroke-linejoin="miter" d="M 0.997597 0.999011 L 1012.992475 0.999011 " stroke="#000000" stroke-width="2" stroke-opacity="1" stroke-miterlimit="4"/><path stroke-linecap="round" transform="matrix(0.75, 0, 0, 0.75, 219.794771, 1021.25286)" fill="none" stroke-linejoin="miter" d="M 0.997597 1.001395 L 1012.992475 1.001395 " stroke="#000000" stroke-width="2" stroke-opacity="1" stroke-miterlimit="4"/><path stroke-linecap="round" transform="matrix(0.75, 0, 0, 0.75, 219.794771, 1079.290207)" fill="none" stroke-linejoin="miter" d="M 0.997597 0.998473 L 1012.992475 0.998473 " stroke="#000000" stroke-width="2" stroke-opacity="1" stroke-miterlimit="4"/><path stroke-linecap="round" transform="matrix(0.75, 0, 0, 0.75, 219.794771, 1137.32741)" fill="none" stroke-linejoin="miter" d="M 0.997597 1.000953 L 1012.992475 1.000953 " stroke="#000000" stroke-width="2" stroke-opacity="1" stroke-miterlimit="4"/><path stroke-linecap="round" transform="matrix(0.75, 0, 0, 0.75, 219.794771, 1195.364758)" fill="none" stroke-linejoin="miter" d="M 0.997597 0.998032 L 1012.992475 0.998032 " stroke="#000000" stroke-width="2" stroke-opacity="1" stroke-miterlimit="4"/><path stroke-linecap="round" transform="matrix(0.75, 0, 0, 0.75, 219.794771, 1253.402105)" fill="none" stroke-linejoin="miter" d="M 0.997597 1.000319 L 1012.992475 1.000319 " stroke="#000000" stroke-width="2" stroke-opacity="1" stroke-miterlimit="4"/><path stroke-linecap="round" transform="matrix(0.75, 0, 0, 0.75, 219.794771, 1311.439428)" fill="none" stroke-linejoin="miter" d="M 0.997597 0.99743 L 1012.992475 0.99743 " stroke="#000000" stroke-width="2" stroke-opacity="1" stroke-miterlimit="4"/><path stroke-linecap="butt" transform="matrix(0.75, 0, 0, 0.75, 128.925365, 254.500096)" fill="none" stroke-linejoin="miter" d="M 0.000555356 0.999872 L 1191.766283 0.999872 " stroke="#000000" stroke-width="2" stroke-opacity="1" stroke-miterlimit="4"/><g fill="#404040" fill-opacity="1"><g transform="translate(439.929334, 203.054099)"><g><path d="M 15.359375 0 C 14.890625 0 14.507812 -0.148438 14.21875 -0.453125 C 13.925781 -0.765625 13.78125 -1.125 13.78125 -1.53125 L 13.78125 -33.9375 L 16.9375 -33.9375 L 16.9375 -1.53125 C 16.9375 -1.125 16.785156 -0.765625 16.484375 -0.453125 C 16.179688 -0.148438 15.804688 0 15.359375 0 Z M 3.25 -32.71875 C 2.84375 -32.71875 2.488281 -32.851562 2.1875 -33.125 C 1.882812 -33.394531 1.734375 -33.75 1.734375 -34.1875 C 1.734375 -34.59375 1.882812 -34.929688 2.1875 -35.203125 C 2.488281 -35.472656 2.84375 -35.609375 3.25 -35.609375 L 27.46875 -35.609375 C 27.875 -35.609375 28.226562 -35.472656 28.53125 -35.203125 C 28.84375 -34.929688 29 -34.578125 29 -34.140625 C 29 -33.691406 28.84375 -33.34375 28.53125 -33.09375 C 28.226562 -32.84375 27.875 -32.71875 27.46875 -32.71875 Z M 3.25 -32.71875 "/></g></g></g><g fill="#404040" fill-opacity="1"><g transform="translate(470.655494, 203.054099)"><g><path d="M 36.53125 -17.8125 C 36.53125 -15.125 36.113281 -12.671875 35.28125 -10.453125 C 34.445312 -8.234375 33.265625 -6.300781 31.734375 -4.65625 C 30.210938 -3.007812 28.410156 -1.734375 26.328125 -0.828125 C 24.242188 0.0664062 21.960938 0.515625 19.484375 0.515625 C 17.003906 0.515625 14.722656 0.0664062 12.640625 -0.828125 C 10.554688 -1.734375 8.75 -3.007812 7.21875 -4.65625 C 5.695312 -6.300781 4.519531 -8.234375 3.6875 -10.453125 C 2.851562 -12.671875 2.4375 -15.125 2.4375 -17.8125 C 2.4375 -20.488281 2.851562 -22.9375 3.6875 -25.15625 C 4.519531 -27.375 5.695312 -29.304688 7.21875 -30.953125 C 8.75 -32.597656 10.554688 -33.867188 12.640625 -34.765625 C 14.722656 -35.671875 17.003906 -36.125 19.484375 -36.125 C 21.960938 -36.125 24.242188 -35.671875 26.328125 -34.765625 C 28.410156 -33.867188 30.210938 -32.597656 31.734375 -30.953125 C 33.265625 -29.304688 34.445312 -27.375 35.28125 -25.15625 C 36.113281 -22.9375 36.53125 -20.488281 36.53125 -17.8125 Z M 33.265625 -17.8125 C 33.265625 -20.820312 32.679688 -23.472656 31.515625 -25.765625 C 30.347656 -28.054688 28.726562 -29.84375 26.65625 -31.125 C 24.59375 -32.414062 22.203125 -33.0625 19.484375 -33.0625 C 16.804688 -33.0625 14.421875 -32.414062 12.328125 -31.125 C 10.242188 -29.84375 8.617188 -28.054688 7.453125 -25.765625 C 6.285156 -23.472656 5.703125 -20.820312 5.703125 -17.8125 C 5.703125 -14.789062 6.285156 -12.132812 7.453125 -9.84375 C 8.617188 -7.550781 10.242188 -5.757812 12.328125 -4.46875 C 14.421875 -3.1875 16.804688 -2.546875 19.484375 -2.546875 C 22.203125 -2.546875 24.59375 -3.1875 26.65625 -4.46875 C 28.726562 -5.757812 30.347656 -7.550781 31.515625 -9.84375 C 32.679688 -12.132812 33.265625 -14.789062 33.265625 -17.8125 Z M 33.265625 -17.8125 "/></g></g></g><g fill="#404040" fill-opacity="1"><g transform="translate(509.622783, 203.054099)"><g/></g></g><g fill="#404040" fill-opacity="1"><g transform="translate(523.510599, 203.054099)"><g><path d="M 19.28125 -35.609375 C 21.789062 -35.609375 23.984375 -35.132812 25.859375 -34.1875 C 27.742188 -33.238281 29.296875 -31.925781 30.515625 -30.25 C 31.742188 -28.570312 32.65625 -26.660156 33.25 -24.515625 C 33.84375 -22.378906 34.140625 -20.144531 34.140625 -17.8125 C 34.140625 -14.550781 33.601562 -11.570312 32.53125 -8.875 C 31.46875 -6.175781 29.84375 -4.019531 27.65625 -2.40625 C 25.46875 -0.800781 22.675781 0 19.28125 0 L 6.3125 0 C 5.90625 0 5.546875 -0.148438 5.234375 -0.453125 C 4.929688 -0.765625 4.78125 -1.125 4.78125 -1.53125 L 4.78125 -34.09375 C 4.78125 -34.5 4.929688 -34.851562 5.234375 -35.15625 C 5.546875 -35.457031 5.90625 -35.609375 6.3125 -35.609375 Z M 18.765625 -3 C 21.648438 -3 23.972656 -3.660156 25.734375 -4.984375 C 27.503906 -6.304688 28.800781 -8.09375 29.625 -10.34375 C 30.457031 -12.601562 30.875 -15.09375 30.875 -17.8125 C 30.875 -19.769531 30.644531 -21.640625 30.1875 -23.421875 C 29.726562 -25.203125 29.015625 -26.78125 28.046875 -28.15625 C 27.085938 -29.53125 25.835938 -30.613281 24.296875 -31.40625 C 22.753906 -32.207031 20.910156 -32.609375 18.765625 -32.609375 L 7.625 -32.609375 L 7.984375 -33.0625 L 7.984375 -2.5 L 7.6875 -3 Z M 18.765625 -3 "/></g></g></g><g fill="#404040" fill-opacity="1"><g transform="translate(560.086943, 203.054099)"><g><path d="M 36.53125 -17.8125 C 36.53125 -15.125 36.113281 -12.671875 35.28125 -10.453125 C 34.445312 -8.234375 33.265625 -6.300781 31.734375 -4.65625 C 30.210938 -3.007812 28.410156 -1.734375 26.328125 -0.828125 C 24.242188 0.0664062 21.960938 0.515625 19.484375 0.515625 C 17.003906 0.515625 14.722656 0.0664062 12.640625 -0.828125 C 10.554688 -1.734375 8.75 -3.007812 7.21875 -4.65625 C 5.695312 -6.300781 4.519531 -8.234375 3.6875 -10.453125 C 2.851562 -12.671875 2.4375 -15.125 2.4375 -17.8125 C 2.4375 -20.488281 2.851562 -22.9375 3.6875 -25.15625 C 4.519531 -27.375 5.695312 -29.304688 7.21875 -30.953125 C 8.75 -32.597656 10.554688 -33.867188 12.640625 -34.765625 C 14.722656 -35.671875 17.003906 -36.125 19.484375 -36.125 C 21.960938 -36.125 24.242188 -35.671875 26.328125 -34.765625 C 28.410156 -33.867188 30.210938 -32.597656 31.734375 -30.953125 C 33.265625 -29.304688 34.445312 -27.375 35.28125 -25.15625 C 36.113281 -22.9375 36.53125 -20.488281 36.53125 -17.8125 Z M 33.265625 -17.8125 C 33.265625 -20.820312 32.679688 -23.472656 31.515625 -25.765625 C 30.347656 -28.054688 28.726562 -29.84375 26.65625 -31.125 C 24.59375 -32.414062 22.203125 -33.0625 19.484375 -33.0625 C 16.804688 -33.0625 14.421875 -32.414062 12.328125 -31.125 C 10.242188 -29.84375 8.617188 -28.054688 7.453125 -25.765625 C 6.285156 -23.472656 5.703125 -20.820312 5.703125 -17.8125 C 5.703125 -14.789062 6.285156 -12.132812 7.453125 -9.84375 C 8.617188 -7.550781 10.242188 -5.757812 12.328125 -4.46875 C 14.421875 -3.1875 16.804688 -2.546875 19.484375 -2.546875 C 22.203125 -2.546875 24.59375 -3.1875 26.65625 -4.46875 C 28.726562 -5.757812 30.347656 -7.550781 31.515625 -9.84375 C 32.679688 -12.132812 33.265625 -14.789062 33.265625 -17.8125 Z M 33.265625 -17.8125 "/></g></g></g><g fill="#404040" fill-opacity="1"><g transform="translate(599.054233, 203.054099)"><g/></g></g><g fill="#404040" fill-opacity="1"><g transform="translate(612.942049, 203.054099)"><g><path d="M 24.46875 -3 C 24.875 -3 25.226562 -2.851562 25.53125 -2.5625 C 25.84375 -2.28125 26 -1.9375 26 -1.53125 C 26 -1.082031 25.84375 -0.710938 25.53125 -0.421875 C 25.226562 -0.140625 24.875 0 24.46875 0 L 6.3125 0 C 5.863281 0 5.492188 -0.148438 5.203125 -0.453125 C 4.921875 -0.765625 4.78125 -1.125 4.78125 -1.53125 L 4.78125 -34.09375 C 4.78125 -34.5 4.929688 -34.851562 5.234375 -35.15625 C 5.546875 -35.457031 5.9375 -35.609375 6.40625 -35.609375 C 6.8125 -35.609375 7.175781 -35.457031 7.5 -35.15625 C 7.820312 -34.851562 7.984375 -34.5 7.984375 -34.09375 L 7.984375 -2.140625 L 7.015625 -3 Z M 24.46875 -3 "/></g></g></g><g fill="#404040" fill-opacity="1"><g transform="translate(640.005504, 203.054099)"><g><path d="M 7.984375 -1.578125 C 7.953125 -1.140625 7.773438 -0.765625 7.453125 -0.453125 C 7.128906 -0.148438 6.765625 0 6.359375 0 C 5.878906 0 5.492188 -0.148438 5.203125 -0.453125 C 4.921875 -0.765625 4.78125 -1.140625 4.78125 -1.578125 L 4.78125 -34.03125 C 4.78125 -34.476562 4.929688 -34.851562 5.234375 -35.15625 C 5.546875 -35.457031 5.9375 -35.609375 6.40625 -35.609375 C 6.8125 -35.609375 7.175781 -35.457031 7.5 -35.15625 C 7.820312 -34.851562 7.984375 -34.476562 7.984375 -34.03125 Z M 7.984375 -1.578125 "/></g></g></g><g fill="#404040" fill-opacity="1"><g transform="translate(652.723276, 203.054099)"><g><path d="M 14.59375 0.515625 C 12.019531 0.546875 9.78125 0.140625 7.875 -0.703125 C 5.976562 -1.554688 4.164062 -2.832031 2.4375 -4.53125 C 2.269531 -4.664062 2.125 -4.832031 2 -5.03125 C 1.882812 -5.238281 1.828125 -5.476562 1.828125 -5.75 C 1.828125 -6.15625 1.988281 -6.523438 2.3125 -6.859375 C 2.632812 -7.203125 3 -7.375 3.40625 -7.375 C 3.8125 -7.375 4.1875 -7.207031 4.53125 -6.875 C 5.851562 -5.445312 7.351562 -4.359375 9.03125 -3.609375 C 10.707031 -2.867188 12.515625 -2.5 14.453125 -2.5 C 16.078125 -2.5 17.523438 -2.75 18.796875 -3.25 C 20.066406 -3.757812 21.070312 -4.488281 21.8125 -5.4375 C 22.5625 -6.394531 22.9375 -7.5 22.9375 -8.75 C 22.9375 -10.3125 22.515625 -11.570312 21.671875 -12.53125 C 20.828125 -13.5 19.707031 -14.296875 18.3125 -14.921875 C 16.925781 -15.554688 15.382812 -16.128906 13.6875 -16.640625 C 12.289062 -17.046875 10.960938 -17.507812 9.703125 -18.03125 C 8.453125 -18.5625 7.335938 -19.207031 6.359375 -19.96875 C 5.378906 -20.726562 4.613281 -21.664062 4.0625 -22.78125 C 3.519531 -23.90625 3.25 -25.265625 3.25 -26.859375 C 3.25 -28.660156 3.722656 -30.253906 4.671875 -31.640625 C 5.628906 -33.035156 6.976562 -34.128906 8.71875 -34.921875 C 10.46875 -35.722656 12.492188 -36.125 14.796875 -36.125 C 16.804688 -36.125 18.734375 -35.785156 20.578125 -35.109375 C 22.429688 -34.429688 23.898438 -33.429688 24.984375 -32.109375 C 25.492188 -31.554688 25.75 -31.0625 25.75 -30.625 C 25.75 -30.289062 25.578125 -29.953125 25.234375 -29.609375 C 24.890625 -29.265625 24.515625 -29.09375 24.109375 -29.09375 C 23.773438 -29.09375 23.488281 -29.210938 23.25 -29.453125 C 22.675781 -30.171875 21.945312 -30.804688 21.0625 -31.359375 C 20.175781 -31.921875 19.195312 -32.351562 18.125 -32.65625 C 17.0625 -32.96875 15.953125 -33.125 14.796875 -33.125 C 13.203125 -33.125 11.769531 -32.875 10.5 -32.375 C 9.226562 -31.882812 8.226562 -31.179688 7.5 -30.265625 C 6.769531 -29.347656 6.40625 -28.25 6.40625 -26.96875 C 6.40625 -25.539062 6.8125 -24.367188 7.625 -23.453125 C 8.445312 -22.535156 9.519531 -21.78125 10.84375 -21.1875 C 12.164062 -20.59375 13.570312 -20.039062 15.0625 -19.53125 C 16.519531 -19.125 17.914062 -18.65625 19.25 -18.125 C 20.59375 -17.601562 21.78125 -16.953125 22.8125 -16.171875 C 23.851562 -15.398438 24.671875 -14.421875 25.265625 -13.234375 C 25.859375 -12.046875 26.15625 -10.550781 26.15625 -8.75 C 26.15625 -7.019531 25.660156 -5.457031 24.671875 -4.0625 C 23.691406 -2.675781 22.34375 -1.578125 20.625 -0.765625 C 18.914062 0.046875 16.90625 0.472656 14.59375 0.515625 Z M 14.59375 0.515625 "/></g></g></g><g fill="#404040" fill-opacity="1"><g transform="translate(681.312858, 203.054099)"><g><path d="M 15.359375 0 C 14.890625 0 14.507812 -0.148438 14.21875 -0.453125 C 13.925781 -0.765625 13.78125 -1.125 13.78125 -1.53125 L 13.78125 -33.9375 L 16.9375 -33.9375 L 16.9375 -1.53125 C 16.9375 -1.125 16.785156 -0.765625 16.484375 -0.453125 C 16.179688 -0.148438 15.804688 0 15.359375 0 Z M 3.25 -32.71875 C 2.84375 -32.71875 2.488281 -32.851562 2.1875 -33.125 C 1.882812 -33.394531 1.734375 -33.75 1.734375 -34.1875 C 1.734375 -34.59375 1.882812 -34.929688 2.1875 -35.203125 C 2.488281 -35.472656 2.84375 -35.609375 3.25 -35.609375 L 27.46875 -35.609375 C 27.875 -35.609375 28.226562 -35.472656 28.53125 -35.203125 C 28.84375 -34.929688 29 -34.578125 29 -34.140625 C 29 -33.691406 28.84375 -33.34375 28.53125 -33.09375 C 28.226562 -32.84375 27.875 -32.71875 27.46875 -32.71875 Z M 3.25 -32.71875 "/></g></g></g></svg>