<svg xmlns="http://www.w3.org/2000/svg" xmlns:xlink="http://www.w3.org/1999/xlink" width="583" zoomAndPan="magnify" viewBox="0 0 438 300.000006" height="450" preserveAspectRatio="xMidYMid meet" version="1.0"><defs><g/><clipPath id="6b9e57e624"><path d="M 1 111.828125 L 41 111.828125 L 41 150.695312 L 1 150.695312 Z M 1 111.828125 " clip-rule="nonzero"/></clipPath><clipPath id="36ee2a17a4"><path d="M 56 148 L 429.796875 148 L 429.796875 150.695312 L 56 150.695312 Z M 56 148 " clip-rule="nonzero"/></clipPath><clipPath id="d5958c52d1"><path d="M 1 204.523438 L 41 204.523438 L 41 243.390625 L 1 243.390625 Z M 1 204.523438 " clip-rule="nonzero"/></clipPath><clipPath id="7e4fc99877"><path d="M 56 241 L 429.796875 241 L 429.796875 243.390625 L 56 243.390625 Z M 56 241 " clip-rule="nonzero"/></clipPath><clipPath id="328e89d329"><path d="M 1 297.21875 L 41 297.21875 L 41 299.003906 L 1 299.003906 Z M 1 297.21875 " clip-rule="nonzero"/></clipPath></defs><g fill="#000000" fill-opacity="1"><g transform="translate(12.106446, 52.056487)"><g><path d="M 0.9375 -34.71875 L 0.9375 -38.515625 L 33.015625 -38.515625 L 33.015625 -34.71875 L 19.09375 -34.71875 L 19.09375 0 L 14.859375 0 L 14.859375 -34.71875 Z M 0.9375 -34.71875 "/></g></g></g><g fill="#000000" fill-opacity="1"><g transform="translate(43.188001, 52.056487)"><g><path d="M 42.09375 -19.25 C 42.09375 -16.5 41.578125 -13.90625 40.546875 -11.46875 C 39.515625 -9.03125 38.109375 -6.921875 36.328125 -5.140625 C 34.554688 -3.359375 32.457031 -1.953125 30.03125 -0.921875 C 27.613281 0.0976562 25.03125 0.609375 22.28125 0.609375 C 19.53125 0.609375 16.9375 0.0976562 14.5 -0.921875 C 12.0625 -1.953125 9.953125 -3.359375 8.171875 -5.140625 C 6.390625 -6.921875 4.984375 -9.03125 3.953125 -11.46875 C 2.929688 -13.90625 2.421875 -16.5 2.421875 -19.25 C 2.421875 -22 2.929688 -24.59375 3.953125 -27.03125 C 4.984375 -29.476562 6.390625 -31.585938 8.171875 -33.359375 C 9.953125 -35.140625 12.0625 -36.539062 14.5 -37.5625 C 16.9375 -38.59375 19.53125 -39.109375 22.28125 -39.109375 C 25.03125 -39.109375 27.613281 -38.59375 30.03125 -37.5625 C 32.457031 -36.539062 34.554688 -35.140625 36.328125 -33.359375 C 38.109375 -31.585938 39.515625 -29.476562 40.546875 -27.03125 C 41.578125 -24.59375 42.09375 -22 42.09375 -19.25 Z M 37.796875 -19.25 C 37.796875 -21.488281 37.390625 -23.585938 36.578125 -25.546875 C 35.773438 -27.515625 34.6875 -29.203125 33.3125 -30.609375 C 31.9375 -32.023438 30.296875 -33.144531 28.390625 -33.96875 C 26.484375 -34.789062 24.445312 -35.203125 22.28125 -35.203125 C 20.082031 -35.203125 18.03125 -34.789062 16.125 -33.96875 C 14.21875 -33.144531 12.570312 -32.023438 11.1875 -30.609375 C 9.8125 -29.203125 8.722656 -27.515625 7.921875 -25.546875 C 7.117188 -23.585938 6.71875 -21.488281 6.71875 -19.25 C 6.71875 -17.019531 7.117188 -14.929688 7.921875 -12.984375 C 8.722656 -11.035156 9.8125 -9.347656 11.1875 -7.921875 C 12.570312 -6.492188 14.21875 -5.363281 16.125 -4.53125 C 18.03125 -3.707031 20.082031 -3.296875 22.28125 -3.296875 C 24.445312 -3.296875 26.484375 -3.707031 28.390625 -4.53125 C 30.296875 -5.363281 31.9375 -6.492188 33.3125 -7.921875 C 34.6875 -9.347656 35.773438 -11.035156 36.578125 -12.984375 C 37.390625 -14.929688 37.796875 -17.019531 37.796875 -19.25 Z M 37.796875 -19.25 "/></g></g></g><g fill="#000000" fill-opacity="1"><g transform="translate(87.692724, 52.056487)"><g><path d="M 4.234375 0 L 4.234375 -38.515625 L 20.953125 -38.515625 C 24.703125 -38.515625 27.710938 -37.492188 29.984375 -35.453125 C 32.253906 -33.421875 33.390625 -30.734375 33.390625 -27.390625 C 33.390625 -24.054688 32.242188 -21.363281 29.953125 -19.3125 C 27.660156 -17.257812 24.660156 -16.234375 20.953125 -16.234375 L 8.46875 -16.234375 L 8.46875 0 Z M 20.625 -34.71875 L 8.46875 -34.71875 L 8.46875 -19.921875 L 20.625 -19.921875 C 23.226562 -19.921875 25.300781 -20.585938 26.84375 -21.921875 C 28.382812 -23.265625 29.15625 -25.070312 29.15625 -27.34375 C 29.15625 -29.613281 28.382812 -31.410156 26.84375 -32.734375 C 25.300781 -34.054688 23.226562 -34.71875 20.625 -34.71875 Z M 20.625 -34.71875 "/></g></g></g><g fill="#000000" fill-opacity="1"><g transform="translate(123.285495, 52.056487)"><g/></g></g><g fill="#000000" fill-opacity="1"><g transform="translate(135.113077, 52.056487)"><g><path d="M 4.234375 0 L 4.234375 -38.515625 L 20.953125 -38.515625 C 24.703125 -38.515625 27.710938 -37.492188 29.984375 -35.453125 C 32.253906 -33.421875 33.390625 -30.734375 33.390625 -27.390625 C 33.390625 -24.054688 32.242188 -21.363281 29.953125 -19.3125 C 27.660156 -17.257812 24.660156 -16.234375 20.953125 -16.234375 L 8.46875 -16.234375 L 8.46875 0 Z M 20.625 -34.71875 L 8.46875 -34.71875 L 8.46875 -19.921875 L 20.625 -19.921875 C 23.226562 -19.921875 25.300781 -20.585938 26.84375 -21.921875 C 28.382812 -23.265625 29.15625 -25.070312 29.15625 -27.34375 C 29.15625 -29.613281 28.382812 -31.410156 26.84375 -32.734375 C 25.300781 -34.054688 23.226562 -34.71875 20.625 -34.71875 Z M 20.625 -34.71875 "/></g></g></g><g fill="#000000" fill-opacity="1"><g transform="translate(170.705848, 52.056487)"><g><path d="M 4.234375 0 L 4.234375 -38.515625 L 20.734375 -38.515625 C 24.484375 -38.515625 27.507812 -37.492188 29.8125 -35.453125 C 32.125 -33.421875 33.28125 -30.753906 33.28125 -27.453125 C 33.28125 -24.921875 32.535156 -22.738281 31.046875 -20.90625 C 29.566406 -19.070312 27.582031 -17.804688 25.09375 -17.109375 L 33.71875 0 L 29.046875 0 L 20.796875 -16.5625 L 8.46875 -16.5625 L 8.46875 0 Z M 20.46875 -34.71875 L 8.46875 -34.71875 L 8.46875 -20.140625 L 20.46875 -20.140625 C 23.03125 -20.140625 25.097656 -20.804688 26.671875 -22.140625 C 28.253906 -23.484375 29.046875 -25.253906 29.046875 -27.453125 C 29.046875 -29.648438 28.253906 -31.410156 26.671875 -32.734375 C 25.097656 -34.054688 23.03125 -34.71875 20.46875 -34.71875 Z M 20.46875 -34.71875 "/></g></g></g><g fill="#000000" fill-opacity="1"><g transform="translate(206.188596, 52.056487)"><g><path d="M 4.234375 0 L 4.234375 -38.515625 L 8.46875 -38.515625 L 8.46875 0 Z M 4.234375 0 "/></g></g></g><g fill="#000000" fill-opacity="1"><g transform="translate(218.896374, 52.056487)"><g><path d="M 42.09375 -19.25 C 42.09375 -16.5 41.578125 -13.90625 40.546875 -11.46875 C 39.515625 -9.03125 38.109375 -6.921875 36.328125 -5.140625 C 34.554688 -3.359375 32.457031 -1.953125 30.03125 -0.921875 C 27.613281 0.0976562 25.03125 0.609375 22.28125 0.609375 C 19.53125 0.609375 16.9375 0.0976562 14.5 -0.921875 C 12.0625 -1.953125 9.953125 -3.359375 8.171875 -5.140625 C 6.390625 -6.921875 4.984375 -9.03125 3.953125 -11.46875 C 2.929688 -13.90625 2.421875 -16.5 2.421875 -19.25 C 2.421875 -22 2.929688 -24.59375 3.953125 -27.03125 C 4.984375 -29.476562 6.390625 -31.585938 8.171875 -33.359375 C 9.953125 -35.140625 12.0625 -36.539062 14.5 -37.5625 C 16.9375 -38.59375 19.53125 -39.109375 22.28125 -39.109375 C 25.03125 -39.109375 27.613281 -38.59375 30.03125 -37.5625 C 32.457031 -36.539062 34.554688 -35.140625 36.328125 -33.359375 C 38.109375 -31.585938 39.515625 -29.476562 40.546875 -27.03125 C 41.578125 -24.59375 42.09375 -22 42.09375 -19.25 Z M 37.796875 -19.25 C 37.796875 -21.488281 37.390625 -23.585938 36.578125 -25.546875 C 35.773438 -27.515625 34.6875 -29.203125 33.3125 -30.609375 C 31.9375 -32.023438 30.296875 -33.144531 28.390625 -33.96875 C 26.484375 -34.789062 24.445312 -35.203125 22.28125 -35.203125 C 20.082031 -35.203125 18.03125 -34.789062 16.125 -33.96875 C 14.21875 -33.144531 12.570312 -32.023438 11.1875 -30.609375 C 9.8125 -29.203125 8.722656 -27.515625 7.921875 -25.546875 C 7.117188 -23.585938 6.71875 -21.488281 6.71875 -19.25 C 6.71875 -17.019531 7.117188 -14.929688 7.921875 -12.984375 C 8.722656 -11.035156 9.8125 -9.347656 11.1875 -7.921875 C 12.570312 -6.492188 14.21875 -5.363281 16.125 -4.53125 C 18.03125 -3.707031 20.082031 -3.296875 22.28125 -3.296875 C 24.445312 -3.296875 26.484375 -3.707031 28.390625 -4.53125 C 30.296875 -5.363281 31.9375 -6.492188 33.3125 -7.921875 C 34.6875 -9.347656 35.773438 -11.035156 36.578125 -12.984375 C 37.390625 -14.929688 37.796875 -17.019531 37.796875 -19.25 Z M 37.796875 -19.25 "/></g></g></g><g fill="#000000" fill-opacity="1"><g transform="translate(263.401085, 52.056487)"><g><path d="M 4.234375 0 L 4.234375 -38.515625 L 20.734375 -38.515625 C 24.484375 -38.515625 27.507812 -37.492188 29.8125 -35.453125 C 32.125 -33.421875 33.28125 -30.753906 33.28125 -27.453125 C 33.28125 -24.921875 32.535156 -22.738281 31.046875 -20.90625 C 29.566406 -19.070312 27.582031 -17.804688 25.09375 -17.109375 L 33.71875 0 L 29.046875 0 L 20.796875 -16.5625 L 8.46875 -16.5625 L 8.46875 0 Z M 20.46875 -34.71875 L 8.46875 -34.71875 L 8.46875 -20.140625 L 20.46875 -20.140625 C 23.03125 -20.140625 25.097656 -20.804688 26.671875 -22.140625 C 28.253906 -23.484375 29.046875 -25.253906 29.046875 -27.453125 C 29.046875 -29.648438 28.253906 -31.410156 26.671875 -32.734375 C 25.097656 -34.054688 23.03125 -34.71875 20.46875 -34.71875 Z M 20.46875 -34.71875 "/></g></g></g><g fill="#000000" fill-opacity="1"><g transform="translate(298.883845, 52.056487)"><g><path d="M 4.234375 0 L 4.234375 -38.515625 L 8.46875 -38.515625 L 8.46875 0 Z M 4.234375 0 "/></g></g></g><g fill="#000000" fill-opacity="1"><g transform="translate(311.591622, 52.056487)"><g><path d="M 0.9375 -34.71875 L 0.9375 -38.515625 L 33.015625 -38.515625 L 33.015625 -34.71875 L 19.09375 -34.71875 L 19.09375 0 L 14.859375 0 L 14.859375 -34.71875 Z M 0.9375 -34.71875 "/></g></g></g><g fill="#000000" fill-opacity="1"><g transform="translate(345.534038, 52.056487)"><g><path d="M 4.234375 0 L 4.234375 -38.515625 L 8.46875 -38.515625 L 8.46875 0 Z M 4.234375 0 "/></g></g></g><g fill="#000000" fill-opacity="1"><g transform="translate(358.241816, 52.056487)"><g><path d="M 4.234375 0 L 4.234375 -38.515625 L 31.796875 -38.515625 L 31.796875 -34.765625 L 8.46875 -34.765625 L 8.46875 -21.296875 L 23.71875 -21.296875 L 23.71875 -17.609375 L 8.46875 -17.609375 L 8.46875 -3.734375 L 32.015625 -3.734375 L 32.015625 0 Z M 4.234375 0 "/></g></g></g><g fill="#000000" fill-opacity="1"><g transform="translate(392.129231, 52.056487)"><g><path d="M 0.609375 -6.609375 L 3.40625 -9.515625 C 5.382812 -7.421875 7.503906 -5.832031 9.765625 -4.75 C 12.023438 -3.675781 14.398438 -3.140625 16.890625 -3.140625 C 19.898438 -3.140625 22.375 -3.851562 24.3125 -5.28125 C 26.257812 -6.707031 27.234375 -8.523438 27.234375 -10.734375 C 27.234375 -12.710938 26.546875 -14.234375 25.171875 -15.296875 C 23.796875 -16.359375 21.53125 -17.144531 18.375 -17.65625 L 12.8125 -18.546875 C 9.113281 -19.128906 6.382812 -20.21875 4.625 -21.8125 C 2.863281 -23.40625 1.984375 -25.5625 1.984375 -28.28125 C 1.984375 -31.46875 3.226562 -34.050781 5.71875 -36.03125 C 8.21875 -38.007812 11.484375 -39 15.515625 -39 C 18.191406 -39 20.847656 -38.554688 23.484375 -37.671875 C 26.128906 -36.796875 28.535156 -35.535156 30.703125 -33.890625 L 28.28125 -30.59375 C 26.1875 -32.164062 24.054688 -33.351562 21.890625 -34.15625 C 19.734375 -34.96875 17.550781 -35.375 15.34375 -35.375 C 12.59375 -35.375 10.363281 -34.738281 8.65625 -33.46875 C 6.957031 -32.207031 6.109375 -30.585938 6.109375 -28.609375 C 6.109375 -26.804688 6.710938 -25.425781 7.921875 -24.46875 C 9.128906 -23.519531 11.128906 -22.828125 13.921875 -22.390625 L 19.421875 -21.515625 C 23.597656 -20.816406 26.648438 -19.625 28.578125 -17.9375 C 30.503906 -16.25 31.46875 -13.921875 31.46875 -10.953125 C 31.46875 -9.265625 31.109375 -7.710938 30.390625 -6.296875 C 29.679688 -4.890625 28.675781 -3.679688 27.375 -2.671875 C 26.070312 -1.660156 24.507812 -0.867188 22.6875 -0.296875 C 20.875 0.265625 18.882812 0.546875 16.71875 0.546875 C 13.675781 0.546875 10.75 -0.0664062 7.9375 -1.296875 C 5.132812 -2.523438 2.691406 -4.296875 0.609375 -6.609375 Z M 0.609375 -6.609375 "/></g></g></g><g clip-path="url(#6b9e57e624)"><path fill="#000000" d="M 40.21875 112.765625 C 40.21875 112.234375 39.789062 111.804688 39.253906 111.804688 L 2.214844 111.804688 C 1.683594 111.804688 1.25 112.234375 1.25 112.765625 L 1.25 149.546875 C 1.25 150.074219 1.683594 150.503906 2.214844 150.503906 L 39.253906 150.503906 C 39.789062 150.503906 40.21875 150.074219 40.21875 149.546875 Z M 38.289062 113.722656 L 38.289062 148.585938 C 38.289062 148.585938 3.179688 148.585938 3.179688 148.585938 C 3.179688 148.585938 3.179688 113.722656 3.179688 113.722656 Z M 38.289062 113.722656 " fill-opacity="1" fill-rule="evenodd"/></g><g clip-path="url(#36ee2a17a4)"><path fill="#000000" d="M 57.777344 150.675781 L 428.179688 150.675781 C 428.808594 150.675781 429.316406 150.167969 429.316406 149.546875 C 429.316406 148.921875 428.808594 148.417969 428.179688 148.417969 L 57.777344 148.417969 C 57.152344 148.417969 56.640625 148.921875 56.640625 149.546875 C 56.640625 150.167969 57.152344 150.675781 57.777344 150.675781 Z M 57.777344 150.675781 " fill-opacity="1" fill-rule="evenodd"/></g><g clip-path="url(#d5958c52d1)"><path fill="#000000" d="M 40.21875 205.460938 C 40.21875 204.929688 39.789062 204.503906 39.253906 204.503906 L 2.214844 204.503906 C 1.683594 204.503906 1.25 204.929688 1.25 205.460938 L 1.25 242.242188 C 1.25 242.769531 1.683594 243.199219 2.214844 243.199219 L 39.253906 243.199219 C 39.789062 243.199219 40.21875 242.769531 40.21875 242.242188 Z M 38.289062 206.417969 L 38.289062 241.285156 C 38.289062 241.285156 3.179688 241.285156 3.179688 241.285156 C 3.179688 241.285156 3.179688 206.417969 3.179688 206.417969 Z M 38.289062 206.417969 " fill-opacity="1" fill-rule="evenodd"/></g><g clip-path="url(#7e4fc99877)"><path fill="#000000" d="M 57.777344 243.371094 L 428.179688 243.371094 C 428.808594 243.371094 429.316406 242.863281 429.316406 242.242188 C 429.316406 241.617188 428.808594 241.113281 428.179688 241.113281 L 57.777344 241.113281 C 57.152344 241.113281 56.640625 241.617188 56.640625 242.242188 C 56.640625 242.863281 57.152344 243.371094 57.777344 243.371094 Z M 57.777344 243.371094 " fill-opacity="1" fill-rule="evenodd"/></g><g clip-path="url(#328e89d329)"><path fill="#000000" d="M 40.21875 298.15625 C 40.21875 297.625 39.789062 297.199219 39.253906 297.199219 L 2.214844 297.199219 C 1.683594 297.199219 1.25 297.625 1.25 298.15625 L 1.25 334.9375 C 1.25 335.464844 1.683594 335.894531 2.214844 335.894531 L 39.253906 335.894531 C 39.789062 335.894531 40.21875 335.464844 40.21875 334.9375 Z M 38.289062 299.113281 L 38.289062 333.980469 C 38.289062 333.980469 3.179688 333.980469 3.179688 333.980469 C 3.179688 333.980469 3.179688 299.113281 3.179688 299.113281 Z M 38.289062 299.113281 " fill-opacity="1" fill-rule="evenodd"/></g></svg>