<svg xmlns="http://www.w3.org/2000/svg" xmlns:xlink="http://www.w3.org/1999/xlink" width="600" zoomAndPan="magnify" viewBox="0 0 450 299.999988" height="400" preserveAspectRatio="xMidYMid meet" version="1.0"><defs><g/><clipPath id="35165748e6"><path d="M 0.839844 79.664062 L 268 79.664062 L 268 153.007812 L 0.839844 153.007812 Z M 0.839844 79.664062 " clip-rule="nonzero"/></clipPath><clipPath id="a1d79751be"><path d="M 0.839844 79.664062 L 309 79.664062 L 309 153.007812 L 0.839844 153.007812 Z M 0.839844 79.664062 " clip-rule="nonzero"/></clipPath><clipPath id="c5be298e4f"><path d="M 0.839844 79.664062 L 347.042969 79.664062 L 347.042969 153.007812 L 0.839844 153.007812 Z M 0.839844 79.664062 " clip-rule="nonzero"/></clipPath><clipPath id="23bf55df5c"><path d="M 39 79.664062 L 347.042969 79.664062 L 347.042969 153.007812 L 39 153.007812 Z M 39 79.664062 " clip-rule="nonzero"/></clipPath><clipPath id="0c25944089"><path d="M 80 79.664062 L 347.042969 79.664062 L 347.042969 153.007812 L 80 153.007812 Z M 80 79.664062 " clip-rule="nonzero"/></clipPath><clipPath id="230772040a"><path d="M 49 0.878906 L 299 0.878906 L 299 49 L 49 49 Z M 49 0.878906 " clip-rule="nonzero"/></clipPath><clipPath id="1a740e391b"><rect x="0" width="250" y="0" height="49"/></clipPath><clipPath id="f6bdb389ae"><rect x="0" width="348" y="0" height="154"/></clipPath></defs><g transform="matrix(1, 0, 0, 1, 51, 68)"><g clip-path="url(#f6bdb389ae)"><g clip-path="url(#35165748e6)"><path stroke-linecap="butt" transform="matrix(0.219475, 0, 0, 0.2201, 0.841041, 81.075789)" fill="none" stroke-linejoin="miter" d="M 223.432342 197.008925 C 223.432342 249.044875 181.25076 291.23091 129.20901 291.23091 C 77.185059 291.23091 35.003477 249.044875 35.003477 197.008925 C 35.003477 142.932002 92.794025 74.30205 117.8538 40.705852 C 123.513607 33.092133 134.904414 33.092133 140.564221 40.705852 C 165.623996 74.30205 223.432342 142.932002 223.432342 197.008925 Z M 223.432342 197.008925 " stroke="#ffffff" stroke-width="70" stroke-opacity="1" stroke-miterlimit="10"/></g><g clip-path="url(#a1d79751be)"><path stroke-linecap="butt" transform="matrix(0.219475, 0, 0, 0.2201, 0.841041, 81.075789)" fill="none" stroke-linejoin="miter" d="M 411.843408 197.008925 C 411.843408 249.044875 369.679624 291.23091 317.637875 291.23091 C 265.596125 291.23091 223.432342 249.044875 223.432342 197.008925 C 223.432342 142.932002 281.222889 74.30205 306.282664 40.705852 C 311.942471 33.092133 323.333278 33.092133 328.993085 40.705852 C 354.05286 74.30205 411.843408 142.932002 411.843408 197.008925 Z M 411.843408 197.008925 " stroke="#ffffff" stroke-width="70" stroke-opacity="1" stroke-miterlimit="10"/></g><g clip-path="url(#c5be298e4f)"><path stroke-linecap="butt" transform="matrix(0.219475, 0, 0, 0.2201, 0.841041, 81.075789)" fill="none" stroke-linejoin="miter" d="M 600.272272 197.008925 C 600.272272 249.044875 558.09069 291.23091 506.066739 291.23091 C 454.024989 291.23091 411.843408 249.044875 411.843408 197.008925 C 411.843408 142.932002 469.651753 74.30205 494.711528 40.705852 C 500.371335 33.092133 511.762142 33.092133 517.421949 40.705852 C 542.481725 74.30205 600.272272 142.932002 600.272272 197.008925 Z M 600.272272 197.008925 " stroke="#ffffff" stroke-width="70" stroke-opacity="1" stroke-miterlimit="10"/><path stroke-linecap="butt" transform="matrix(0.219475, 0, 0, 0.2201, 0.841041, 81.075789)" fill="none" stroke-linejoin="miter" d="M 788.701136 197.008925 C 788.701136 249.044875 746.519554 291.23091 694.495603 291.23091 C 642.453854 291.23091 600.272272 249.044875 600.272272 197.008925 C 600.272272 142.932002 658.080617 74.30205 683.122594 40.705852 C 688.800199 33.092133 700.173208 33.092133 705.850813 40.705852 C 730.910589 74.30205 788.701136 142.932002 788.701136 197.008925 Z M 788.701136 197.008925 " stroke="#ffffff" stroke-width="70" stroke-opacity="1" stroke-miterlimit="10"/><path stroke-linecap="butt" transform="matrix(0.219475, 0, 0, 0.2201, 0.841041, 81.075789)" fill="none" stroke-linejoin="miter" d="M 977.13 197.008925 C 977.13 249.044875 934.948418 291.23091 882.906669 291.23091 C 830.882718 291.23091 788.701136 249.044875 788.701136 197.008925 C 788.701136 142.932002 846.491683 74.30205 871.551458 40.705852 C 877.229063 33.092133 888.602072 33.092133 894.279677 40.705852 C 919.321655 74.30205 977.13 142.932002 977.13 197.008925 Z M 977.13 197.008925 " stroke="#ffffff" stroke-width="70" stroke-opacity="1" stroke-miterlimit="10"/><path stroke-linecap="butt" transform="matrix(0.219475, 0, 0, 0.2201, 0.841041, 81.075789)" fill="none" stroke-linejoin="miter" d="M 1165.558864 197.008925 C 1165.558864 249.044875 1123.377282 291.23091 1071.335533 291.23091 C 1019.311582 291.23091 977.13 249.044875 977.13 197.008925 C 977.13 142.932002 1034.920547 74.30205 1059.980322 40.705852 C 1065.640129 33.092133 1077.030936 33.092133 1082.690743 40.705852 C 1107.750519 74.30205 1165.558864 142.932002 1165.558864 197.008925 Z M 1165.558864 197.008925 " stroke="#ffffff" stroke-width="70" stroke-opacity="1" stroke-miterlimit="10"/></g><g clip-path="url(#23bf55df5c)"><path stroke-linecap="butt" transform="matrix(0.219475, 0, 0, 0.2201, 0.841041, 81.075789)" fill="none" stroke-linejoin="miter" d="M 1353.987728 197.008925 C 1353.987728 249.044875 1311.806146 291.23091 1259.764397 291.23091 C 1207.740446 291.23091 1165.558864 249.044875 1165.558864 197.008925 C 1165.558864 142.932002 1223.349411 74.30205 1248.409186 40.705852 C 1254.068993 33.092133 1265.4598 33.092133 1271.119607 40.705852 C 1296.179383 74.30205 1353.96993 142.932002 1353.96993 197.008925 Z M 1353.987728 197.008925 " stroke="#ffffff" stroke-width="70" stroke-opacity="1" stroke-miterlimit="10"/></g><g clip-path="url(#0c25944089)"><path stroke-linecap="butt" transform="matrix(0.219475, 0, 0, 0.2201, 0.841041, 81.075789)" fill="none" stroke-linejoin="miter" d="M 1542.398794 197.008925 C 1542.398794 249.044875 1500.217212 291.23091 1448.193261 291.23091 C 1396.151512 291.23091 1353.96993 249.044875 1353.96993 197.008925 C 1353.96993 142.932002 1411.778275 74.30205 1436.83805 40.705852 C 1442.497857 33.092133 1453.888664 33.092133 1459.548472 40.705852 C 1484.608247 74.30205 1542.398794 142.932002 1542.398794 197.008925 Z M 1542.398794 197.008925 " stroke="#ffffff" stroke-width="70" stroke-opacity="1" stroke-miterlimit="10"/></g><path stroke-linecap="butt" transform="matrix(0.219475, 0, 0, 0.2201, 0.841041, 81.075789)" fill-opacity="1" fill="#ffffff" fill-rule="nonzero" stroke-linejoin="round" d="M 223.432342 197.008925 C 223.432342 249.044875 181.25076 291.23091 129.20901 291.23091 C 77.185059 291.23091 35.003477 249.044875 35.003477 197.008925 C 35.003477 142.932002 92.794025 74.30205 117.8538 40.705852 C 123.513607 33.092133 134.904414 33.092133 140.564221 40.705852 C 165.623996 74.30205 223.432342 142.932002 223.432342 197.008925 Z M 223.432342 197.008925 " stroke="#231f20" stroke-width="12" stroke-opacity="1" stroke-miterlimit="4"/><path stroke-linecap="butt" transform="matrix(0.219475, 0, 0, 0.2201, 0.841041, 81.075789)" fill-opacity="1" fill="#ffffff" fill-rule="nonzero" stroke-linejoin="round" d="M 411.843408 197.008925 C 411.843408 249.044875 369.679624 291.23091 317.637875 291.23091 C 265.596125 291.23091 223.432342 249.044875 223.432342 197.008925 C 223.432342 142.932002 281.222889 74.30205 306.282664 40.705852 C 311.942471 33.092133 323.333278 33.092133 328.993085 40.705852 C 354.05286 74.30205 411.843408 142.932002 411.843408 197.008925 Z M 411.843408 197.008925 " stroke="#231f20" stroke-width="12" stroke-opacity="1" stroke-miterlimit="4"/><path stroke-linecap="butt" transform="matrix(0.219475, 0, 0, 0.2201, 0.841041, 81.075789)" fill-opacity="1" fill="#ffffff" fill-rule="nonzero" stroke-linejoin="round" d="M 600.272272 197.008925 C 600.272272 249.044875 558.09069 291.23091 506.066739 291.23091 C 454.024989 291.23091 411.843408 249.044875 411.843408 197.008925 C 411.843408 142.932002 469.651753 74.30205 494.711528 40.705852 C 500.371335 33.092133 511.762142 33.092133 517.421949 40.705852 C 542.481725 74.30205 600.272272 142.932002 600.272272 197.008925 Z M 600.272272 197.008925 " stroke="#231f20" stroke-width="12" stroke-opacity="1" stroke-miterlimit="4"/><path stroke-linecap="butt" transform="matrix(0.219475, 0, 0, 0.2201, 0.841041, 81.075789)" fill-opacity="1" fill="#ffffff" fill-rule="nonzero" stroke-linejoin="round" d="M 788.701136 197.008925 C 788.701136 249.044875 746.519554 291.23091 694.495603 291.23091 C 642.453854 291.23091 600.272272 249.044875 600.272272 197.008925 C 600.272272 142.932002 658.080617 74.30205 683.122594 40.705852 C 688.800199 33.092133 700.173208 33.092133 705.850813 40.705852 C 730.910589 74.30205 788.701136 142.932002 788.701136 197.008925 Z M 788.701136 197.008925 " stroke="#231f20" stroke-width="12" stroke-opacity="1" stroke-miterlimit="4"/><path stroke-linecap="butt" transform="matrix(0.219475, 0, 0, 0.2201, 0.841041, 81.075789)" fill-opacity="1" fill="#ffffff" fill-rule="nonzero" stroke-linejoin="round" d="M 977.13 197.008925 C 977.13 249.044875 934.948418 291.23091 882.906669 291.23091 C 830.882718 291.23091 788.701136 249.044875 788.701136 197.008925 C 788.701136 142.932002 846.491683 74.30205 871.551458 40.705852 C 877.229063 33.092133 888.602072 33.092133 894.279677 40.705852 C 919.321655 74.30205 977.13 142.932002 977.13 197.008925 Z M 977.13 197.008925 " stroke="#231f20" stroke-width="12" stroke-opacity="1" stroke-miterlimit="4"/><path stroke-linecap="butt" transform="matrix(0.219475, 0, 0, 0.2201, 0.841041, 81.075789)" fill-opacity="1" fill="#ffffff" fill-rule="nonzero" stroke-linejoin="round" d="M 1165.558864 197.008925 C 1165.558864 249.044875 1123.377282 291.23091 1071.335533 291.23091 C 1019.311582 291.23091 977.13 249.044875 977.13 197.008925 C 977.13 142.932002 1034.920547 74.30205 1059.980322 40.705852 C 1065.640129 33.092133 1077.030936 33.092133 1082.690743 40.705852 C 1107.750519 74.30205 1165.558864 142.932002 1165.558864 197.008925 Z M 1165.558864 197.008925 " stroke="#231f20" stroke-width="12" stroke-opacity="1" stroke-miterlimit="4"/><path stroke-linecap="butt" transform="matrix(0.219475, 0, 0, 0.2201, 0.841041, 81.075789)" fill-opacity="1" fill="#ffffff" fill-rule="nonzero" stroke-linejoin="round" d="M 1353.987728 197.008925 C 1353.987728 249.044875 1311.806146 291.23091 1259.764397 291.23091 C 1207.740446 291.23091 1165.558864 249.044875 1165.558864 197.008925 C 1165.558864 142.932002 1223.349411 74.30205 1248.409186 40.705852 C 1254.068993 33.092133 1265.4598 33.092133 1271.119607 40.705852 C 1296.179383 74.30205 1353.96993 142.932002 1353.96993 197.008925 Z M 1353.987728 197.008925 " stroke="#231f20" stroke-width="12" stroke-opacity="1" stroke-miterlimit="4"/><path stroke-linecap="butt" transform="matrix(0.219475, 0, 0, 0.2201, 0.841041, 81.075789)" fill-opacity="1" fill="#ffffff" fill-rule="nonzero" stroke-linejoin="round" d="M 1542.398794 197.008925 C 1542.398794 249.044875 1500.217212 291.23091 1448.193261 291.23091 C 1396.151512 291.23091 1353.96993 249.044875 1353.96993 197.008925 C 1353.96993 142.932002 1411.778275 74.30205 1436.83805 40.705852 C 1442.497857 33.092133 1453.888664 33.092133 1459.548472 40.705852 C 1484.608247 74.30205 1542.398794 142.932002 1542.398794 197.008925 Z M 1542.398794 197.008925 " stroke="#231f20" stroke-width="12" stroke-opacity="1" stroke-miterlimit="4"/><g clip-path="url(#230772040a)"><g transform="matrix(1, 0, 0, 1, 49, 0)"><g clip-path="url(#1a740e391b)"><g fill="#000000" fill-opacity="1"><g transform="translate(0.795634, 36.58585)"><g><path d="M 2.8125 0 L 2.8125 -25.578125 L 5.625 -25.578125 L 5.625 -14.140625 L 20.5 -14.140625 L 20.5 -25.578125 L 23.3125 -25.578125 L 23.3125 0 L 20.5 0 L 20.5 -11.625 L 5.625 -11.625 L 5.625 0 Z M 2.8125 0 "/></g></g></g><g fill="#000000" fill-opacity="1"><g transform="translate(26.927765, 36.58585)"><g><path d="M 1.359375 0 L 1.359375 -1.96875 L 11.03125 -11.296875 C 12.71875 -12.953125 13.875 -14.285156 14.5 -15.296875 C 15.132812 -16.304688 15.453125 -17.382812 15.453125 -18.53125 C 15.453125 -19.988281 14.898438 -21.191406 13.796875 -22.140625 C 12.691406 -23.097656 11.296875 -23.578125 9.609375 -23.578125 C 8.367188 -23.578125 7.207031 -23.332031 6.125 -22.84375 C 5.039062 -22.351562 3.835938 -21.550781 2.515625 -20.4375 L 0.953125 -22.296875 C 2.335938 -23.515625 3.75 -24.421875 5.1875 -25.015625 C 6.625 -25.609375 8.109375 -25.90625 9.640625 -25.90625 C 10.859375 -25.90625 11.992188 -25.722656 13.046875 -25.359375 C 14.097656 -24.992188 14.992188 -24.492188 15.734375 -23.859375 C 16.472656 -23.234375 17.050781 -22.472656 17.46875 -21.578125 C 17.882812 -20.691406 18.09375 -19.722656 18.09375 -18.671875 C 18.09375 -17.921875 18.007812 -17.210938 17.84375 -16.546875 C 17.6875 -15.890625 17.40625 -15.226562 17 -14.5625 C 16.601562 -13.894531 16.0625 -13.175781 15.375 -12.40625 C 14.695312 -11.632812 13.835938 -10.753906 12.796875 -9.765625 L 5 -2.34375 L 18.5625 -2.34375 L 18.5625 0 Z M 1.359375 0 "/></g></g></g><g fill="#000000" fill-opacity="1"><g transform="translate(46.737032, 36.58585)"><g><path d="M 27.953125 -12.796875 C 27.953125 -10.960938 27.609375 -9.234375 26.921875 -7.609375 C 26.242188 -5.992188 25.3125 -4.59375 24.125 -3.40625 C 22.945312 -2.226562 21.554688 -1.296875 19.953125 -0.609375 C 18.347656 0.0664062 16.628906 0.40625 14.796875 0.40625 C 12.972656 0.40625 11.25 0.0664062 9.625 -0.609375 C 8.007812 -1.296875 6.609375 -2.226562 5.421875 -3.40625 C 4.242188 -4.59375 3.3125 -5.992188 2.625 -7.609375 C 1.945312 -9.234375 1.609375 -10.960938 1.609375 -12.796875 C 1.609375 -14.617188 1.945312 -16.335938 2.625 -17.953125 C 3.3125 -19.578125 4.242188 -20.976562 5.421875 -22.15625 C 6.609375 -23.34375 8.007812 -24.273438 9.625 -24.953125 C 11.25 -25.640625 12.972656 -25.984375 14.796875 -25.984375 C 16.628906 -25.984375 18.347656 -25.640625 19.953125 -24.953125 C 21.554688 -24.273438 22.945312 -23.34375 24.125 -22.15625 C 25.3125 -20.976562 26.242188 -19.578125 26.921875 -17.953125 C 27.609375 -16.335938 27.953125 -14.617188 27.953125 -12.796875 Z M 25.109375 -12.796875 C 25.109375 -14.273438 24.835938 -15.664062 24.296875 -16.96875 C 23.765625 -18.28125 23.039062 -19.40625 22.125 -20.34375 C 21.21875 -21.28125 20.128906 -22.019531 18.859375 -22.5625 C 17.585938 -23.113281 16.234375 -23.390625 14.796875 -23.390625 C 13.335938 -23.390625 11.972656 -23.113281 10.703125 -22.5625 C 9.441406 -22.019531 8.351562 -21.28125 7.4375 -20.34375 C 6.519531 -19.40625 5.789062 -18.28125 5.25 -16.96875 C 4.71875 -15.664062 4.453125 -14.273438 4.453125 -12.796875 C 4.453125 -11.304688 4.71875 -9.914062 5.25 -8.625 C 5.789062 -7.332031 6.519531 -6.210938 7.4375 -5.265625 C 8.351562 -4.316406 9.441406 -3.566406 10.703125 -3.015625 C 11.972656 -2.460938 13.335938 -2.1875 14.796875 -2.1875 C 16.234375 -2.1875 17.585938 -2.460938 18.859375 -3.015625 C 20.128906 -3.566406 21.21875 -4.316406 22.125 -5.265625 C 23.039062 -6.210938 23.765625 -7.332031 24.296875 -8.625 C 24.835938 -9.914062 25.109375 -11.304688 25.109375 -12.796875 Z M 25.109375 -12.796875 "/></g></g></g><g fill="#000000" fill-opacity="1"><g transform="translate(76.304727, 36.58585)"><g/></g></g><g fill="#000000" fill-opacity="1"><g transform="translate(84.16264, 36.58585)"><g><path d="M 0.625 -23.0625 L 0.625 -25.578125 L 21.921875 -25.578125 L 21.921875 -23.0625 L 12.6875 -23.0625 L 12.6875 0 L 9.875 0 L 9.875 -23.0625 Z M 0.625 -23.0625 "/></g></g></g><g fill="#000000" fill-opacity="1"><g transform="translate(106.713034, 36.58585)"><g><path d="M 2.8125 0 L 2.8125 -25.578125 L 13.78125 -25.578125 C 16.257812 -25.578125 18.265625 -24.898438 19.796875 -23.546875 C 21.335938 -22.203125 22.109375 -20.429688 22.109375 -18.234375 C 22.109375 -16.554688 21.613281 -15.109375 20.625 -13.890625 C 19.644531 -12.671875 18.328125 -11.828125 16.671875 -11.359375 L 22.40625 0 L 19.296875 0 L 13.8125 -11 L 5.625 -11 L 5.625 0 Z M 13.59375 -23.0625 L 5.625 -23.0625 L 5.625 -13.375 L 13.59375 -13.375 C 15.300781 -13.375 16.675781 -13.816406 17.71875 -14.703125 C 18.769531 -15.597656 19.296875 -16.773438 19.296875 -18.234375 C 19.296875 -19.703125 18.769531 -20.875 17.71875 -21.75 C 16.675781 -22.625 15.300781 -23.0625 13.59375 -23.0625 Z M 13.59375 -23.0625 "/></g></g></g><g fill="#000000" fill-opacity="1"><g transform="translate(130.652301, 36.58585)"><g><path d="M 0.140625 0 L 10.78125 -25.578125 L 14.1875 -25.578125 L 24.671875 0 L 21.59375 0 L 18.390625 -8.046875 L 6.328125 -8.046875 L 3.0625 0 Z M 7.3125 -10.453125 L 17.390625 -10.453125 L 12.390625 -22.953125 Z M 7.3125 -10.453125 "/></g></g></g><g fill="#000000" fill-opacity="1"><g transform="translate(154.152781, 36.58585)"><g><path d="M 14.953125 -2.1875 C 16.535156 -2.1875 18.046875 -2.5 19.484375 -3.125 C 20.921875 -3.75 22.125 -4.609375 23.09375 -5.703125 L 24.921875 -3.796875 C 23.660156 -2.484375 22.148438 -1.453125 20.390625 -0.703125 C 18.640625 0.0351562 16.800781 0.40625 14.875 0.40625 C 13.019531 0.40625 11.28125 0.0664062 9.65625 -0.609375 C 8.039062 -1.296875 6.632812 -2.226562 5.4375 -3.40625 C 4.25 -4.59375 3.3125 -5.992188 2.625 -7.609375 C 1.945312 -9.234375 1.609375 -10.960938 1.609375 -12.796875 C 1.609375 -14.617188 1.945312 -16.335938 2.625 -17.953125 C 3.3125 -19.578125 4.25 -20.976562 5.4375 -22.15625 C 6.632812 -23.34375 8.039062 -24.273438 9.65625 -24.953125 C 11.28125 -25.640625 13.019531 -25.984375 14.875 -25.984375 C 16.84375 -25.984375 18.710938 -25.609375 20.484375 -24.859375 C 22.253906 -24.117188 23.757812 -23.09375 25 -21.78125 L 23.140625 -19.8125 C 22.140625 -20.925781 20.898438 -21.800781 19.421875 -22.4375 C 17.953125 -23.070312 16.4375 -23.390625 14.875 -23.390625 C 13.414062 -23.390625 12.046875 -23.113281 10.765625 -22.5625 C 9.484375 -22.019531 8.378906 -21.28125 7.453125 -20.34375 C 6.523438 -19.40625 5.789062 -18.28125 5.25 -16.96875 C 4.71875 -15.664062 4.453125 -14.273438 4.453125 -12.796875 C 4.453125 -11.304688 4.71875 -9.910156 5.25 -8.609375 C 5.789062 -7.304688 6.53125 -6.1875 7.46875 -5.25 C 8.40625 -4.3125 9.515625 -3.566406 10.796875 -3.015625 C 12.078125 -2.460938 13.460938 -2.1875 14.953125 -2.1875 Z M 14.953125 -2.1875 "/></g></g></g><g fill="#000000" fill-opacity="1"><g transform="translate(180.540765, 36.58585)"><g><path d="M 2.8125 0 L 2.8125 -25.578125 L 5.625 -25.578125 L 5.625 -13.453125 L 18.859375 -25.578125 L 22.546875 -25.578125 L 8.65625 -13.046875 L 22.84375 0 L 18.890625 0 L 5.625 -12.28125 L 5.625 0 Z M 2.8125 0 "/></g></g></g><g fill="#000000" fill-opacity="1"><g transform="translate(203.091159, 36.58585)"><g><path d="M 2.8125 0 L 2.8125 -25.578125 L 21.125 -25.578125 L 21.125 -23.09375 L 5.625 -23.09375 L 5.625 -14.140625 L 15.75 -14.140625 L 15.75 -11.6875 L 5.625 -11.6875 L 5.625 -2.484375 L 21.265625 -2.484375 L 21.265625 0 Z M 2.8125 0 "/></g></g></g><g fill="#000000" fill-opacity="1"><g transform="translate(225.604993, 36.58585)"><g><path d="M 2.8125 0 L 2.8125 -25.578125 L 13.78125 -25.578125 C 16.257812 -25.578125 18.265625 -24.898438 19.796875 -23.546875 C 21.335938 -22.203125 22.109375 -20.429688 22.109375 -18.234375 C 22.109375 -16.554688 21.613281 -15.109375 20.625 -13.890625 C 19.644531 -12.671875 18.328125 -11.828125 16.671875 -11.359375 L 22.40625 0 L 19.296875 0 L 13.8125 -11 L 5.625 -11 L 5.625 0 Z M 13.59375 -23.0625 L 5.625 -23.0625 L 5.625 -13.375 L 13.59375 -13.375 C 15.300781 -13.375 16.675781 -13.816406 17.71875 -14.703125 C 18.769531 -15.597656 19.296875 -16.773438 19.296875 -18.234375 C 19.296875 -19.703125 18.769531 -20.875 17.71875 -21.75 C 16.675781 -22.625 15.300781 -23.0625 13.59375 -23.0625 Z M 13.59375 -23.0625 "/></g></g></g></g></g></g></g></g></svg>