<svg xmlns="http://www.w3.org/2000/svg" xmlns:xlink="http://www.w3.org/1999/xlink" width="1200" zoomAndPan="magnify" viewBox="0 0 900 675.000002" height="900" preserveAspectRatio="xMidYMid meet" version="1.0"><defs><g/><clipPath id="f186583a49"><path d="M 6.933594 6.917969 L 162.179688 6.917969 L 162.179688 294.371094 L 6.933594 294.371094 Z M 6.933594 6.917969 " clip-rule="nonzero"/></clipPath><clipPath id="5b044177bd"><path d="M 347.816406 309.667969 L 503.0625 309.667969 L 503.0625 597.121094 L 347.816406 597.121094 Z M 347.816406 309.667969 " clip-rule="nonzero"/></clipPath><clipPath id="d630e69e01"><path d="M 6.9375 6.875 L 162.175781 6.875 L 162.175781 37.273438 L 6.9375 37.273438 Z M 6.9375 6.875 " clip-rule="nonzero"/></clipPath><clipPath id="c6f9bc1e32"><path d="M 34 68 L 149.8125 68 L 149.8125 69.550781 L 34 69.550781 Z M 34 68 " clip-rule="nonzero"/></clipPath><clipPath id="3c8b58bf89"><path d="M 17.273438 55.640625 L 31 55.640625 L 31 69 L 17.273438 69 Z M 17.273438 55.640625 " clip-rule="nonzero"/></clipPath><clipPath id="f69357f73d"><path d="M 34 102 L 149.8125 102 L 149.8125 102.855469 L 34 102.855469 Z M 34 102 " clip-rule="nonzero"/></clipPath><clipPath id="4756723084"><path d="M 17.273438 88.945312 L 31 88.945312 L 31 102.855469 L 17.273438 102.855469 Z M 17.273438 88.945312 " clip-rule="nonzero"/></clipPath><clipPath id="4b3c4c67e7"><path d="M 34 135 L 149.8125 135 L 149.8125 136.164062 L 34 136.164062 Z M 34 135 " clip-rule="nonzero"/></clipPath><clipPath id="c3b73833a7"><path d="M 17.273438 122.253906 L 31 122.253906 L 31 136 L 17.273438 136 Z M 17.273438 122.253906 " clip-rule="nonzero"/></clipPath><clipPath id="a61d32e6b1"><path d="M 34 168 L 149.8125 168 L 149.8125 169.472656 L 34 169.472656 Z M 34 168 " clip-rule="nonzero"/></clipPath><clipPath id="71fb13c71f"><path d="M 17.273438 155.5625 L 31 155.5625 L 31 169 L 17.273438 169 Z M 17.273438 155.5625 " clip-rule="nonzero"/></clipPath><clipPath id="869ffb2327"><path d="M 34 202 L 149.8125 202 L 149.8125 202.777344 L 34 202.777344 Z M 34 202 " clip-rule="nonzero"/></clipPath><clipPath id="2619a9916b"><path d="M 17.273438 188.867188 L 31 188.867188 L 31 202.777344 L 17.273438 202.777344 Z M 17.273438 188.867188 " clip-rule="nonzero"/></clipPath><clipPath id="212e1756d8"><path d="M 34 235 L 149.8125 235 L 149.8125 236.085938 L 34 236.085938 Z M 34 235 " clip-rule="nonzero"/></clipPath><clipPath id="61422e7779"><path d="M 17.273438 222.175781 L 31 222.175781 L 31 236 L 17.273438 236 Z M 17.273438 222.175781 " clip-rule="nonzero"/></clipPath><clipPath id="098fc17c87"><path d="M 34 268 L 149.8125 268 L 149.8125 269.394531 L 34 269.394531 Z M 34 268 " clip-rule="nonzero"/></clipPath><clipPath id="93b2bb7a9c"><path d="M 17.273438 255.484375 L 31 255.484375 L 31 269 L 17.273438 269 Z M 17.273438 255.484375 " clip-rule="nonzero"/></clipPath><clipPath id="69ee545391"><path d="M 177.375 6.957031 L 332.621094 6.957031 L 332.621094 294.410156 L 177.375 294.410156 Z M 177.375 6.957031 " clip-rule="nonzero"/></clipPath><clipPath id="b1a0bf522f"><path d="M 177.378906 6.914062 L 332.617188 6.914062 L 332.617188 37.3125 L 177.378906 37.3125 Z M 177.378906 6.914062 " clip-rule="nonzero"/></clipPath><clipPath id="624464f9bb"><path d="M 204 68 L 320.253906 68 L 320.253906 69.589844 L 204 69.589844 Z M 204 68 " clip-rule="nonzero"/></clipPath><clipPath id="3355541add"><path d="M 187.714844 55.675781 L 202 55.675781 L 202 69 L 187.714844 69 Z M 187.714844 55.675781 " clip-rule="nonzero"/></clipPath><clipPath id="73c0975f68"><path d="M 204 102 L 320.253906 102 L 320.253906 102.894531 L 204 102.894531 Z M 204 102 " clip-rule="nonzero"/></clipPath><clipPath id="23d89eadd7"><path d="M 187.714844 88.984375 L 202 88.984375 L 202 102.894531 L 187.714844 102.894531 Z M 187.714844 88.984375 " clip-rule="nonzero"/></clipPath><clipPath id="e55eb58ce3"><path d="M 204 135 L 320.253906 135 L 320.253906 136.203125 L 204 136.203125 Z M 204 135 " clip-rule="nonzero"/></clipPath><clipPath id="e69127b03b"><path d="M 187.714844 122.292969 L 202 122.292969 L 202 136 L 187.714844 136 Z M 187.714844 122.292969 " clip-rule="nonzero"/></clipPath><clipPath id="01006858bf"><path d="M 204 168 L 320.253906 168 L 320.253906 169.511719 L 204 169.511719 Z M 204 168 " clip-rule="nonzero"/></clipPath><clipPath id="e2fdf8cc2a"><path d="M 187.714844 155.597656 L 202 155.597656 L 202 169 L 187.714844 169 Z M 187.714844 155.597656 " clip-rule="nonzero"/></clipPath><clipPath id="12f7841dbc"><path d="M 204 202 L 320.253906 202 L 320.253906 202.816406 L 204 202.816406 Z M 204 202 " clip-rule="nonzero"/></clipPath><clipPath id="52afb0740a"><path d="M 187.714844 188.90625 L 202 188.90625 L 202 202.816406 L 187.714844 202.816406 Z M 187.714844 188.90625 " clip-rule="nonzero"/></clipPath><clipPath id="6dd4d4acea"><path d="M 204 235 L 320.253906 235 L 320.253906 236.125 L 204 236.125 Z M 204 235 " clip-rule="nonzero"/></clipPath><clipPath id="8362e416c3"><path d="M 187.714844 222.214844 L 202 222.214844 L 202 236 L 187.714844 236 Z M 187.714844 222.214844 " clip-rule="nonzero"/></clipPath><clipPath id="e5075f4768"><path d="M 204 268 L 320.253906 268 L 320.253906 269.429688 L 204 269.429688 Z M 204 268 " clip-rule="nonzero"/></clipPath><clipPath id="0e71cbb678"><path d="M 187.714844 255.519531 L 202 255.519531 L 202 269 L 187.714844 269 Z M 187.714844 255.519531 " clip-rule="nonzero"/></clipPath><clipPath id="03b03a50e5"><path d="M 347.816406 6.992188 L 503.0625 6.992188 L 503.0625 294.449219 L 347.816406 294.449219 Z M 347.816406 6.992188 " clip-rule="nonzero"/></clipPath><clipPath id="2ac206178b"><path d="M 347.820312 6.953125 L 503.058594 6.953125 L 503.058594 37.351562 L 347.820312 37.351562 Z M 347.820312 6.953125 " clip-rule="nonzero"/></clipPath><clipPath id="4c149aa817"><path d="M 374 68 L 490.695312 68 L 490.695312 69.625 L 374 69.625 Z M 374 68 " clip-rule="nonzero"/></clipPath><clipPath id="b25ae8c1d5"><path d="M 358.160156 55.714844 L 372 55.714844 L 372 69 L 358.160156 69 Z M 358.160156 55.714844 " clip-rule="nonzero"/></clipPath><clipPath id="705f9033b5"><path d="M 374 102 L 490.695312 102 L 490.695312 102.933594 L 374 102.933594 Z M 374 102 " clip-rule="nonzero"/></clipPath><clipPath id="f3533f9de9"><path d="M 358.160156 89.023438 L 372 89.023438 L 372 102.933594 L 358.160156 102.933594 Z M 358.160156 89.023438 " clip-rule="nonzero"/></clipPath><clipPath id="29896ff888"><path d="M 374 135 L 490.695312 135 L 490.695312 136.242188 L 374 136.242188 Z M 374 135 " clip-rule="nonzero"/></clipPath><clipPath id="cbdce92311"><path d="M 358.160156 122.332031 L 372 122.332031 L 372 136 L 358.160156 136 Z M 358.160156 122.332031 " clip-rule="nonzero"/></clipPath><clipPath id="cb15c190e7"><path d="M 374 168 L 490.695312 168 L 490.695312 169.546875 L 374 169.546875 Z M 374 168 " clip-rule="nonzero"/></clipPath><clipPath id="4039ec5a22"><path d="M 358.160156 155.636719 L 372 155.636719 L 372 169 L 358.160156 169 Z M 358.160156 155.636719 " clip-rule="nonzero"/></clipPath><clipPath id="9b39c436e8"><path d="M 374 202 L 490.695312 202 L 490.695312 202.855469 L 374 202.855469 Z M 374 202 " clip-rule="nonzero"/></clipPath><clipPath id="7d6bed196e"><path d="M 358.160156 188.945312 L 372 188.945312 L 372 202.855469 L 358.160156 202.855469 Z M 358.160156 188.945312 " clip-rule="nonzero"/></clipPath><clipPath id="383f9ce3a4"><path d="M 374 235 L 490.695312 235 L 490.695312 236.164062 L 374 236.164062 Z M 374 235 " clip-rule="nonzero"/></clipPath><clipPath id="3ba5058c70"><path d="M 358.160156 222.253906 L 372 222.253906 L 372 236 L 358.160156 236 Z M 358.160156 222.253906 " clip-rule="nonzero"/></clipPath><clipPath id="3ca0382780"><path d="M 374 268 L 490.695312 268 L 490.695312 269.46875 L 374 269.46875 Z M 374 268 " clip-rule="nonzero"/></clipPath><clipPath id="8f5dcfeda4"><path d="M 358.160156 255.558594 L 372 255.558594 L 372 269 L 358.160156 269 Z M 358.160156 255.558594 " clip-rule="nonzero"/></clipPath><clipPath id="88f1f65493"><path d="M 6.933594 309.667969 L 162.179688 309.667969 L 162.179688 597.121094 L 6.933594 597.121094 Z M 6.933594 309.667969 " clip-rule="nonzero"/></clipPath><clipPath id="b21a4d5d04"><path d="M 6.9375 309.625 L 162.175781 309.625 L 162.175781 340.023438 L 6.9375 340.023438 Z M 6.9375 309.625 " clip-rule="nonzero"/></clipPath><clipPath id="262c72e913"><path d="M 34 371 L 149.8125 371 L 149.8125 372.300781 L 34 372.300781 Z M 34 371 " clip-rule="nonzero"/></clipPath><clipPath id="0584cc530a"><path d="M 17.273438 358.390625 L 31 358.390625 L 31 372 L 17.273438 372 Z M 17.273438 358.390625 " clip-rule="nonzero"/></clipPath><clipPath id="4ec69c33da"><path d="M 34 404 L 149.8125 404 L 149.8125 405.605469 L 34 405.605469 Z M 34 404 " clip-rule="nonzero"/></clipPath><clipPath id="435dc020ad"><path d="M 17.273438 391.695312 L 31 391.695312 L 31 405 L 17.273438 405 Z M 17.273438 391.695312 " clip-rule="nonzero"/></clipPath><clipPath id="0d00b3de74"><path d="M 34 438 L 149.8125 438 L 149.8125 438.914062 L 34 438.914062 Z M 34 438 " clip-rule="nonzero"/></clipPath><clipPath id="6a9e149d21"><path d="M 17.273438 425.003906 L 31 425.003906 L 31 438.914062 L 17.273438 438.914062 Z M 17.273438 425.003906 " clip-rule="nonzero"/></clipPath><clipPath id="82d9569824"><path d="M 34 471 L 149.8125 471 L 149.8125 472.222656 L 34 472.222656 Z M 34 471 " clip-rule="nonzero"/></clipPath><clipPath id="a86161cd90"><path d="M 17.273438 458.3125 L 31 458.3125 L 31 472 L 17.273438 472 Z M 17.273438 458.3125 " clip-rule="nonzero"/></clipPath><clipPath id="76370d3063"><path d="M 34 504 L 149.8125 504 L 149.8125 505.527344 L 34 505.527344 Z M 34 504 " clip-rule="nonzero"/></clipPath><clipPath id="9108422c0c"><path d="M 17.273438 491.617188 L 31 491.617188 L 31 505 L 17.273438 505 Z M 17.273438 491.617188 " clip-rule="nonzero"/></clipPath><clipPath id="72d589344b"><path d="M 34 538 L 149.8125 538 L 149.8125 538.835938 L 34 538.835938 Z M 34 538 " clip-rule="nonzero"/></clipPath><clipPath id="5d8fa3f798"><path d="M 17.273438 524.925781 L 31 524.925781 L 31 538.835938 L 17.273438 538.835938 Z M 17.273438 524.925781 " clip-rule="nonzero"/></clipPath><clipPath id="515f498146"><path d="M 34 571 L 149.8125 571 L 149.8125 572.144531 L 34 572.144531 Z M 34 571 " clip-rule="nonzero"/></clipPath><clipPath id="e9c174a3d2"><path d="M 17.273438 558.234375 L 31 558.234375 L 31 572 L 17.273438 572 Z M 17.273438 558.234375 " clip-rule="nonzero"/></clipPath><clipPath id="a7bd2b9073"><path d="M 177.375 309.667969 L 332.621094 309.667969 L 332.621094 597.121094 L 177.375 597.121094 Z M 177.375 309.667969 " clip-rule="nonzero"/></clipPath><clipPath id="f776cb0d7b"><path d="M 177.378906 309.625 L 332.617188 309.625 L 332.617188 340.023438 L 177.378906 340.023438 Z M 177.378906 309.625 " clip-rule="nonzero"/></clipPath><clipPath id="feea84f26f"><path d="M 204 371 L 320.253906 371 L 320.253906 372.300781 L 204 372.300781 Z M 204 371 " clip-rule="nonzero"/></clipPath><clipPath id="5a5abab7cc"><path d="M 187.714844 358.390625 L 202 358.390625 L 202 372 L 187.714844 372 Z M 187.714844 358.390625 " clip-rule="nonzero"/></clipPath><clipPath id="590d585092"><path d="M 204 404 L 320.253906 404 L 320.253906 405.605469 L 204 405.605469 Z M 204 404 " clip-rule="nonzero"/></clipPath><clipPath id="7cce1d7490"><path d="M 187.714844 391.695312 L 202 391.695312 L 202 405 L 187.714844 405 Z M 187.714844 391.695312 " clip-rule="nonzero"/></clipPath><clipPath id="342f424f91"><path d="M 204 438 L 320.253906 438 L 320.253906 438.914062 L 204 438.914062 Z M 204 438 " clip-rule="nonzero"/></clipPath><clipPath id="55fe892865"><path d="M 187.714844 425.003906 L 202 425.003906 L 202 438.914062 L 187.714844 438.914062 Z M 187.714844 425.003906 " clip-rule="nonzero"/></clipPath><clipPath id="ecb0224921"><path d="M 204 471 L 320.253906 471 L 320.253906 472.222656 L 204 472.222656 Z M 204 471 " clip-rule="nonzero"/></clipPath><clipPath id="10db5d0786"><path d="M 187.714844 458.3125 L 202 458.3125 L 202 472 L 187.714844 472 Z M 187.714844 458.3125 " clip-rule="nonzero"/></clipPath><clipPath id="516d3f08fb"><path d="M 204 504 L 320.253906 504 L 320.253906 505.527344 L 204 505.527344 Z M 204 504 " clip-rule="nonzero"/></clipPath><clipPath id="a0eaf86d46"><path d="M 187.714844 491.617188 L 202 491.617188 L 202 505 L 187.714844 505 Z M 187.714844 491.617188 " clip-rule="nonzero"/></clipPath><clipPath id="da221c16db"><path d="M 204 538 L 320.253906 538 L 320.253906 538.835938 L 204 538.835938 Z M 204 538 " clip-rule="nonzero"/></clipPath><clipPath id="f2550e0d37"><path d="M 187.714844 524.925781 L 202 524.925781 L 202 538.835938 L 187.714844 538.835938 Z M 187.714844 524.925781 " clip-rule="nonzero"/></clipPath><clipPath id="162d1db709"><path d="M 204 571 L 320.253906 571 L 320.253906 572.144531 L 204 572.144531 Z M 204 571 " clip-rule="nonzero"/></clipPath><clipPath id="8d0566eacc"><path d="M 187.714844 558.234375 L 202 558.234375 L 202 572 L 187.714844 572 Z M 187.714844 558.234375 " clip-rule="nonzero"/></clipPath><clipPath id="5d6760ae68"><path d="M 347.820312 309.664062 L 503.058594 309.664062 L 503.058594 340.0625 L 347.820312 340.0625 Z M 347.820312 309.664062 " clip-rule="nonzero"/></clipPath><clipPath id="cae737ee48"><path d="M 376 371 L 492.578125 371 L 492.578125 372.300781 L 376 372.300781 Z M 376 371 " clip-rule="nonzero"/></clipPath><clipPath id="df2cb457d0"><path d="M 360.039062 358.390625 L 374 358.390625 L 374 372 L 360.039062 372 Z M 360.039062 358.390625 " clip-rule="nonzero"/></clipPath><clipPath id="30b9db3d4f"><path d="M 376 404 L 492.578125 404 L 492.578125 405.605469 L 376 405.605469 Z M 376 404 " clip-rule="nonzero"/></clipPath><clipPath id="4a2ccd753a"><path d="M 360.039062 391.695312 L 374 391.695312 L 374 405 L 360.039062 405 Z M 360.039062 391.695312 " clip-rule="nonzero"/></clipPath><clipPath id="3587a9d3d0"><path d="M 376 438 L 492.578125 438 L 492.578125 438.914062 L 376 438.914062 Z M 376 438 " clip-rule="nonzero"/></clipPath><clipPath id="833a33b394"><path d="M 360.039062 425.003906 L 374 425.003906 L 374 438.914062 L 360.039062 438.914062 Z M 360.039062 425.003906 " clip-rule="nonzero"/></clipPath><clipPath id="31da9ff2ae"><path d="M 376 471 L 492.578125 471 L 492.578125 472.222656 L 376 472.222656 Z M 376 471 " clip-rule="nonzero"/></clipPath><clipPath id="678d6acd60"><path d="M 360.039062 458.3125 L 374 458.3125 L 374 472 L 360.039062 472 Z M 360.039062 458.3125 " clip-rule="nonzero"/></clipPath><clipPath id="c88e8b0a3d"><path d="M 376 504 L 492.578125 504 L 492.578125 505.527344 L 376 505.527344 Z M 376 504 " clip-rule="nonzero"/></clipPath><clipPath id="207f9a9b48"><path d="M 360.039062 491.617188 L 374 491.617188 L 374 505 L 360.039062 505 Z M 360.039062 491.617188 " clip-rule="nonzero"/></clipPath><clipPath id="c624cc99fc"><path d="M 376 538 L 492.578125 538 L 492.578125 538.835938 L 376 538.835938 Z M 376 538 " clip-rule="nonzero"/></clipPath><clipPath id="beb5d130dc"><path d="M 360.039062 524.925781 L 374 524.925781 L 374 538.835938 L 360.039062 538.835938 Z M 360.039062 524.925781 " clip-rule="nonzero"/></clipPath><clipPath id="c2bec6f78a"><path d="M 376 571 L 492.578125 571 L 492.578125 572.144531 L 376 572.144531 Z M 376 571 " clip-rule="nonzero"/></clipPath><clipPath id="2debd27e15"><path d="M 360.039062 558.234375 L 374 558.234375 L 374 572 L 360.039062 572 Z M 360.039062 558.234375 " clip-rule="nonzero"/></clipPath><clipPath id="1057d73eab"><rect x="0" width="509" y="0" height="602"/></clipPath></defs><g transform="matrix(1, 0, 0, 1, 195, 35)"><g clip-path="url(#1057d73eab)"><g clip-path="url(#f186583a49)"><path stroke-linecap="butt" transform="matrix(0.386406, 0, 0, 0.386406, 6.933629, 6.916559)" fill="none" stroke-linejoin="miter" d="M -0.000092466 0.00364948 L 401.76912 0.00364948 L 401.76912 743.918121 L -0.000092466 743.918121 Z M -0.000092466 0.00364948 " stroke="#000000" stroke-width="3.876183" stroke-opacity="1" stroke-miterlimit="4"/></g><g clip-path="url(#5b044177bd)"><path stroke-linecap="butt" transform="matrix(0.386406, 0, 0, 0.386406, 347.81782, 309.666665)" fill="none" stroke-linejoin="miter" d="M -0.00365916 0.00337311 L 401.765554 0.00337311 L 401.765554 743.917845 L -0.00365916 743.917845 Z M -0.00365916 0.00337311 " stroke="#000000" stroke-width="3.876183" stroke-opacity="1" stroke-miterlimit="4"/></g><g clip-path="url(#d630e69e01)"><path stroke-linecap="butt" transform="matrix(0.386406, 0, 0, 0.386406, 6.938003, 6.874935)" fill="none" stroke-linejoin="miter" d="M -0.00130112 0.000169157 L 401.747664 0.000169157 L 401.747664 78.669816 L -0.00130112 78.669816 Z M -0.00130112 0.000169157 " stroke="#000000" stroke-width="3.876183" stroke-opacity="1" stroke-miterlimit="4"/></g><g fill="#000000" fill-opacity="1"><g transform="translate(58.271309, 26.195242)"><g><path d="M 5.234375 -0.625 L 1.84375 -7.5625 L 1.84375 0 L 0.953125 0 L 0.953125 -8.65625 L 2.296875 -8.65625 L 5.25 -2.515625 L 8.1875 -8.65625 L 9.53125 -8.65625 L 9.53125 0 L 8.625 0 L 8.625 -7.578125 Z M 5.234375 -0.625 "/></g></g></g><g fill="#000000" fill-opacity="1"><g transform="translate(68.74448, 26.195242)"><g><path d="M 9.46875 -4.328125 C 9.46875 -3.710938 9.351562 -3.128906 9.125 -2.578125 C 8.894531 -2.023438 8.578125 -1.550781 8.171875 -1.15625 C 7.773438 -0.757812 7.300781 -0.441406 6.75 -0.203125 C 6.207031 0.0234375 5.628906 0.140625 5.015625 0.140625 C 4.390625 0.140625 3.800781 0.0234375 3.25 -0.203125 C 2.707031 -0.441406 2.234375 -0.757812 1.828125 -1.15625 C 1.429688 -1.550781 1.117188 -2.023438 0.890625 -2.578125 C 0.660156 -3.128906 0.546875 -3.710938 0.546875 -4.328125 C 0.546875 -4.953125 0.660156 -5.535156 0.890625 -6.078125 C 1.117188 -6.628906 1.429688 -7.101562 1.828125 -7.5 C 2.234375 -7.90625 2.707031 -8.222656 3.25 -8.453125 C 3.800781 -8.679688 4.390625 -8.796875 5.015625 -8.796875 C 5.628906 -8.796875 6.207031 -8.679688 6.75 -8.453125 C 7.300781 -8.222656 7.773438 -7.90625 8.171875 -7.5 C 8.578125 -7.101562 8.894531 -6.628906 9.125 -6.078125 C 9.351562 -5.535156 9.46875 -4.953125 9.46875 -4.328125 Z M 8.5 -4.328125 C 8.5 -4.835938 8.40625 -5.3125 8.21875 -5.75 C 8.039062 -6.1875 7.796875 -6.5625 7.484375 -6.875 C 7.179688 -7.195312 6.8125 -7.453125 6.375 -7.640625 C 5.945312 -7.828125 5.492188 -7.921875 5.015625 -7.921875 C 4.515625 -7.921875 4.050781 -7.828125 3.625 -7.640625 C 3.195312 -7.453125 2.828125 -7.195312 2.515625 -6.875 C 2.203125 -6.5625 1.957031 -6.1875 1.78125 -5.75 C 1.601562 -5.3125 1.515625 -4.835938 1.515625 -4.328125 C 1.515625 -3.828125 1.601562 -3.359375 1.78125 -2.921875 C 1.957031 -2.484375 2.203125 -2.101562 2.515625 -1.78125 C 2.828125 -1.457031 3.195312 -1.203125 3.625 -1.015625 C 4.050781 -0.835938 4.515625 -0.75 5.015625 -0.75 C 5.492188 -0.75 5.945312 -0.835938 6.375 -1.015625 C 6.8125 -1.203125 7.179688 -1.457031 7.484375 -1.78125 C 7.796875 -2.101562 8.039062 -2.484375 8.21875 -2.921875 C 8.40625 -3.359375 8.5 -3.828125 8.5 -4.328125 Z M 8.5 -4.328125 "/></g></g></g><g fill="#000000" fill-opacity="1"><g transform="translate(78.74778, 26.195242)"><g><path d="M 0.953125 -8.65625 L 1.90625 -8.65625 L 7.109375 -1.640625 L 7.109375 -8.65625 L 8.015625 -8.65625 L 8.015625 0 L 7.171875 0 L 1.859375 -7.21875 L 1.859375 0 L 0.953125 0 Z M 0.953125 -8.65625 "/></g></g></g><g fill="#000000" fill-opacity="1"><g transform="translate(87.71242, 26.195242)"><g><path d="M 0.953125 0 L 0.953125 -8.65625 L 3.8125 -8.65625 C 4.46875 -8.65625 5.070312 -8.546875 5.625 -8.328125 C 6.1875 -8.109375 6.671875 -7.8125 7.078125 -7.4375 C 7.484375 -7.0625 7.796875 -6.601562 8.015625 -6.0625 C 8.242188 -5.53125 8.359375 -4.953125 8.359375 -4.328125 C 8.359375 -3.703125 8.242188 -3.125 8.015625 -2.59375 C 7.796875 -2.0625 7.484375 -1.601562 7.078125 -1.21875 C 6.679688 -0.84375 6.203125 -0.546875 5.640625 -0.328125 C 5.078125 -0.109375 4.46875 0 3.8125 0 Z M 3.859375 -7.796875 L 1.90625 -7.796875 L 1.90625 -0.859375 L 3.859375 -0.859375 C 4.359375 -0.859375 4.828125 -0.945312 5.265625 -1.125 C 5.703125 -1.300781 6.078125 -1.546875 6.390625 -1.859375 C 6.703125 -2.171875 6.945312 -2.535156 7.125 -2.953125 C 7.3125 -3.378906 7.40625 -3.835938 7.40625 -4.328125 C 7.40625 -4.816406 7.3125 -5.273438 7.125 -5.703125 C 6.945312 -6.128906 6.703125 -6.492188 6.390625 -6.796875 C 6.078125 -7.109375 5.703125 -7.351562 5.265625 -7.53125 C 4.828125 -7.707031 4.359375 -7.796875 3.859375 -7.796875 Z M 3.859375 -7.796875 "/></g></g></g><g fill="#000000" fill-opacity="1"><g transform="translate(96.16996, 26.195242)"><g><path d="M 0.046875 0 L 3.65625 -8.65625 L 4.796875 -8.65625 L 8.359375 0 L 7.3125 0 L 6.21875 -2.71875 L 2.140625 -2.71875 L 1.046875 0 Z M 2.46875 -3.546875 L 5.890625 -3.546875 L 4.1875 -7.765625 Z M 2.46875 -3.546875 "/></g></g></g><g fill="#000000" fill-opacity="1"><g transform="translate(102.933117, 26.195242)"><g><path d="M 3.484375 0 L 3.484375 -3.53125 L 0.03125 -8.65625 L 1.15625 -8.65625 L 3.984375 -4.375 L 6.8125 -8.65625 L 7.890625 -8.65625 L 4.4375 -3.484375 L 4.4375 0 Z M 3.484375 0 "/></g></g></g><g clip-path="url(#c6f9bc1e32)"><path fill="#000000" d="M 34.402344 69.527344 L 149.445312 69.527344 C 149.640625 69.527344 149.800781 69.371094 149.800781 69.179688 C 149.800781 68.984375 149.640625 68.828125 149.445312 68.828125 L 34.402344 68.828125 C 34.207031 68.828125 34.046875 68.984375 34.046875 69.179688 C 34.046875 69.371094 34.207031 69.527344 34.402344 69.527344 Z M 34.402344 69.527344 " fill-opacity="1" fill-rule="evenodd"/></g><g clip-path="url(#3c8b58bf89)"><path fill="#000000" d="M 23.957031 55.648438 C 20.265625 55.648438 17.269531 58.609375 17.269531 62.253906 C 17.269531 65.902344 20.265625 68.863281 23.957031 68.863281 C 27.644531 68.863281 30.640625 65.902344 30.640625 62.253906 C 30.640625 58.609375 27.644531 55.648438 23.957031 55.648438 Z M 23.957031 56.175781 C 27.351562 56.175781 30.109375 58.902344 30.109375 62.253906 C 30.109375 65.609375 27.351562 68.335938 23.957031 68.335938 C 20.558594 68.335938 17.804688 65.609375 17.804688 62.253906 C 17.804688 58.902344 20.558594 56.175781 23.957031 56.175781 Z M 23.957031 56.175781 " fill-opacity="1" fill-rule="evenodd"/></g><g clip-path="url(#f69357f73d)"><path fill="#000000" d="M 34.402344 102.835938 L 149.445312 102.835938 C 149.640625 102.835938 149.800781 102.675781 149.800781 102.484375 C 149.800781 102.292969 149.640625 102.136719 149.445312 102.136719 L 34.402344 102.136719 C 34.207031 102.136719 34.046875 102.292969 34.046875 102.484375 C 34.046875 102.675781 34.207031 102.835938 34.402344 102.835938 Z M 34.402344 102.835938 " fill-opacity="1" fill-rule="evenodd"/></g><g clip-path="url(#4756723084)"><path fill="#000000" d="M 23.957031 88.957031 C 20.265625 88.957031 17.269531 91.917969 17.269531 95.5625 C 17.269531 99.210938 20.265625 102.167969 23.957031 102.167969 C 27.644531 102.167969 30.640625 99.210938 30.640625 95.5625 C 30.640625 91.917969 27.644531 88.957031 23.957031 88.957031 Z M 23.957031 89.484375 C 27.351562 89.484375 30.109375 92.207031 30.109375 95.5625 C 30.109375 98.917969 27.351562 101.640625 23.957031 101.640625 C 20.558594 101.640625 17.804688 98.917969 17.804688 95.5625 C 17.804688 92.207031 20.558594 89.484375 23.957031 89.484375 Z M 23.957031 89.484375 " fill-opacity="1" fill-rule="evenodd"/></g><g clip-path="url(#4b3c4c67e7)"><path fill="#000000" d="M 34.402344 136.140625 L 149.445312 136.140625 C 149.640625 136.140625 149.800781 135.984375 149.800781 135.792969 C 149.800781 135.601562 149.640625 135.445312 149.445312 135.445312 L 34.402344 135.445312 C 34.207031 135.445312 34.046875 135.601562 34.046875 135.792969 C 34.046875 135.984375 34.207031 136.140625 34.402344 136.140625 Z M 34.402344 136.140625 " fill-opacity="1" fill-rule="evenodd"/></g><g clip-path="url(#c3b73833a7)"><path fill="#000000" d="M 23.957031 122.261719 C 20.265625 122.261719 17.269531 125.222656 17.269531 128.871094 C 17.269531 132.515625 20.265625 135.476562 23.957031 135.476562 C 27.644531 135.476562 30.640625 132.515625 30.640625 128.871094 C 30.640625 125.222656 27.644531 122.261719 23.957031 122.261719 Z M 23.957031 122.792969 C 27.351562 122.792969 30.109375 125.515625 30.109375 128.871094 C 30.109375 132.226562 27.351562 134.949219 23.957031 134.949219 C 20.558594 134.949219 17.804688 132.226562 17.804688 128.871094 C 17.804688 125.515625 20.558594 122.792969 23.957031 122.792969 Z M 23.957031 122.792969 " fill-opacity="1" fill-rule="evenodd"/></g><g clip-path="url(#a61d32e6b1)"><path fill="#000000" d="M 34.402344 169.449219 L 149.445312 169.449219 C 149.640625 169.449219 149.800781 169.292969 149.800781 169.101562 C 149.800781 168.90625 149.640625 168.75 149.445312 168.75 L 34.402344 168.75 C 34.207031 168.75 34.046875 168.90625 34.046875 169.101562 C 34.046875 169.292969 34.207031 169.449219 34.402344 169.449219 Z M 34.402344 169.449219 " fill-opacity="1" fill-rule="evenodd"/></g><g clip-path="url(#71fb13c71f)"><path fill="#000000" d="M 23.957031 155.570312 C 20.265625 155.570312 17.269531 158.53125 17.269531 162.175781 C 17.269531 165.824219 20.265625 168.785156 23.957031 168.785156 C 27.644531 168.785156 30.640625 165.824219 30.640625 162.175781 C 30.640625 158.53125 27.644531 155.570312 23.957031 155.570312 Z M 23.957031 156.097656 C 27.351562 156.097656 30.109375 158.824219 30.109375 162.175781 C 30.109375 165.53125 27.351562 168.253906 23.957031 168.253906 C 20.558594 168.253906 17.804688 165.53125 17.804688 162.175781 C 17.804688 158.824219 20.558594 156.097656 23.957031 156.097656 Z M 23.957031 156.097656 " fill-opacity="1" fill-rule="evenodd"/></g><g clip-path="url(#869ffb2327)"><path fill="#000000" d="M 34.402344 202.753906 L 149.445312 202.753906 C 149.640625 202.753906 149.800781 202.597656 149.800781 202.40625 C 149.800781 202.214844 149.640625 202.058594 149.445312 202.058594 L 34.402344 202.058594 C 34.207031 202.058594 34.046875 202.214844 34.046875 202.40625 C 34.046875 202.597656 34.207031 202.753906 34.402344 202.753906 Z M 34.402344 202.753906 " fill-opacity="1" fill-rule="evenodd"/></g><g clip-path="url(#2619a9916b)"><path fill="#000000" d="M 23.957031 188.878906 C 20.265625 188.878906 17.269531 191.839844 17.269531 195.484375 C 17.269531 199.132812 20.265625 202.089844 23.957031 202.089844 C 27.644531 202.089844 30.640625 199.132812 30.640625 195.484375 C 30.640625 191.839844 27.644531 188.878906 23.957031 188.878906 Z M 23.957031 189.40625 C 27.351562 189.40625 30.109375 192.128906 30.109375 195.484375 C 30.109375 198.839844 27.351562 201.5625 23.957031 201.5625 C 20.558594 201.5625 17.804688 198.839844 17.804688 195.484375 C 17.804688 192.128906 20.558594 189.40625 23.957031 189.40625 Z M 23.957031 189.40625 " fill-opacity="1" fill-rule="evenodd"/></g><g clip-path="url(#212e1756d8)"><path fill="#000000" d="M 34.402344 236.0625 L 149.445312 236.0625 C 149.640625 236.0625 149.800781 235.90625 149.800781 235.714844 C 149.800781 235.523438 149.640625 235.363281 149.445312 235.363281 L 34.402344 235.363281 C 34.207031 235.363281 34.046875 235.523438 34.046875 235.714844 C 34.046875 235.90625 34.207031 236.0625 34.402344 236.0625 Z M 34.402344 236.0625 " fill-opacity="1" fill-rule="evenodd"/></g><g clip-path="url(#61422e7779)"><path fill="#000000" d="M 23.957031 222.183594 C 20.265625 222.183594 17.269531 225.144531 17.269531 228.792969 C 17.269531 232.4375 20.265625 235.398438 23.957031 235.398438 C 27.644531 235.398438 30.640625 232.4375 30.640625 228.792969 C 30.640625 225.144531 27.644531 222.183594 23.957031 222.183594 Z M 23.957031 222.714844 C 27.351562 222.714844 30.109375 225.4375 30.109375 228.792969 C 30.109375 232.148438 27.351562 234.871094 23.957031 234.871094 C 20.558594 234.871094 17.804688 232.148438 17.804688 228.792969 C 17.804688 225.4375 20.558594 222.714844 23.957031 222.714844 Z M 23.957031 222.714844 " fill-opacity="1" fill-rule="evenodd"/></g><g clip-path="url(#098fc17c87)"><path fill="#000000" d="M 34.402344 269.371094 L 149.445312 269.371094 C 149.640625 269.371094 149.800781 269.214844 149.800781 269.019531 C 149.800781 268.828125 149.640625 268.671875 149.445312 268.671875 L 34.402344 268.671875 C 34.207031 268.671875 34.046875 268.828125 34.046875 269.019531 C 34.046875 269.214844 34.207031 269.371094 34.402344 269.371094 Z M 34.402344 269.371094 " fill-opacity="1" fill-rule="evenodd"/></g><g clip-path="url(#93b2bb7a9c)"><path fill="#000000" d="M 23.957031 255.492188 C 20.265625 255.492188 17.269531 258.453125 17.269531 262.097656 C 17.269531 265.746094 20.265625 268.707031 23.957031 268.707031 C 27.644531 268.707031 30.640625 265.746094 30.640625 262.097656 C 30.640625 258.453125 27.644531 255.492188 23.957031 255.492188 Z M 23.957031 256.019531 C 27.351562 256.019531 30.109375 258.742188 30.109375 262.097656 C 30.109375 265.453125 27.351562 268.175781 23.957031 268.175781 C 20.558594 268.175781 17.804688 265.453125 17.804688 262.097656 C 17.804688 258.742188 20.558594 256.019531 23.957031 256.019531 Z M 23.957031 256.019531 " fill-opacity="1" fill-rule="evenodd"/></g><g clip-path="url(#69ee545391)"><path stroke-linecap="butt" transform="matrix(0.386406, 0, 0, 0.386406, 177.375695, 6.955089)" fill="none" stroke-linejoin="miter" d="M -0.00179922 0.00502602 L 401.767414 0.00502602 L 401.767414 743.919498 L -0.00179922 743.919498 Z M -0.00179922 0.00502602 " stroke="#000000" stroke-width="3.876183" stroke-opacity="1" stroke-miterlimit="4"/></g><g clip-path="url(#b1a0bf522f)"><path stroke-linecap="butt" transform="matrix(0.386406, 0, 0, 0.386406, 177.380083, 6.913461)" fill="none" stroke-linejoin="miter" d="M -0.0030457 0.00155562 L 401.745919 0.00155562 L 401.745919 78.671203 L -0.0030457 78.671203 Z M -0.0030457 0.00155562 " stroke="#000000" stroke-width="3.876183" stroke-opacity="1" stroke-miterlimit="4"/></g><g fill="#000000" fill-opacity="1"><g transform="translate(227.74739, 26.233769)"><g><path d="M 0.203125 -7.8125 L 0.203125 -8.65625 L 7.421875 -8.65625 L 7.421875 -7.8125 L 4.296875 -7.8125 L 4.296875 0 L 3.34375 0 L 3.34375 -7.8125 Z M 0.203125 -7.8125 "/></g></g></g><g fill="#000000" fill-opacity="1"><g transform="translate(235.376606, 26.233769)"><g><path d="M 7.9375 -3.65625 C 7.9375 -2.507812 7.609375 -1.585938 6.953125 -0.890625 C 6.304688 -0.203125 5.441406 0.140625 4.359375 0.140625 C 3.253906 0.140625 2.378906 -0.203125 1.734375 -0.890625 C 1.097656 -1.578125 0.78125 -2.5 0.78125 -3.65625 L 0.78125 -8.65625 L 1.734375 -8.65625 L 1.734375 -3.65625 C 1.734375 -2.78125 1.972656 -2.078125 2.453125 -1.546875 C 2.929688 -1.015625 3.566406 -0.75 4.359375 -0.75 C 5.148438 -0.75 5.785156 -1.015625 6.265625 -1.546875 C 6.742188 -2.078125 6.984375 -2.78125 6.984375 -3.65625 L 6.984375 -8.65625 L 7.9375 -8.65625 Z M 7.9375 -3.65625 "/></g></g></g><g fill="#000000" fill-opacity="1"><g transform="translate(244.081582, 26.233769)"><g><path d="M 0.953125 0 L 0.953125 -8.65625 L 7.15625 -8.65625 L 7.15625 -7.828125 L 1.90625 -7.828125 L 1.90625 -4.796875 L 5.328125 -4.796875 L 5.328125 -3.953125 L 1.90625 -3.953125 L 1.90625 -0.84375 L 7.203125 -0.84375 L 7.203125 0 Z M 0.953125 0 "/></g></g></g><g fill="#000000" fill-opacity="1"><g transform="translate(251.698434, 26.233769)"><g><path d="M 0.140625 -1.484375 L 0.765625 -2.140625 C 1.210938 -1.671875 1.6875 -1.3125 2.1875 -1.0625 C 2.695312 -0.820312 3.234375 -0.703125 3.796875 -0.703125 C 4.472656 -0.703125 5.03125 -0.863281 5.46875 -1.1875 C 5.90625 -1.507812 6.125 -1.914062 6.125 -2.40625 C 6.125 -2.851562 5.96875 -3.195312 5.65625 -3.4375 C 5.351562 -3.675781 4.847656 -3.851562 4.140625 -3.96875 L 2.890625 -4.171875 C 2.054688 -4.304688 1.441406 -4.550781 1.046875 -4.90625 C 0.648438 -5.257812 0.453125 -5.742188 0.453125 -6.359375 C 0.453125 -7.078125 0.726562 -7.660156 1.28125 -8.109375 C 1.84375 -8.554688 2.578125 -8.78125 3.484375 -8.78125 C 4.085938 -8.78125 4.6875 -8.679688 5.28125 -8.484375 C 5.875 -8.285156 6.414062 -8 6.90625 -7.625 L 6.359375 -6.875 C 5.890625 -7.226562 5.410156 -7.492188 4.921875 -7.671875 C 4.429688 -7.859375 3.941406 -7.953125 3.453125 -7.953125 C 2.835938 -7.953125 2.335938 -7.8125 1.953125 -7.53125 C 1.566406 -7.25 1.375 -6.882812 1.375 -6.4375 C 1.375 -6.03125 1.507812 -5.71875 1.78125 -5.5 C 2.050781 -5.289062 2.5 -5.132812 3.125 -5.03125 L 4.375 -4.84375 C 5.3125 -4.6875 5.992188 -4.414062 6.421875 -4.03125 C 6.859375 -3.65625 7.078125 -3.132812 7.078125 -2.46875 C 7.078125 -2.082031 6.992188 -1.726562 6.828125 -1.40625 C 6.671875 -1.09375 6.445312 -0.820312 6.15625 -0.59375 C 5.863281 -0.375 5.507812 -0.195312 5.09375 -0.0625 C 4.6875 0.0625 4.242188 0.125 3.765625 0.125 C 3.078125 0.125 2.414062 -0.0078125 1.78125 -0.28125 C 1.15625 -0.5625 0.609375 -0.960938 0.140625 -1.484375 Z M 0.140625 -1.484375 "/></g></g></g><g fill="#000000" fill-opacity="1"><g transform="translate(259.117448, 26.233769)"><g><path d="M 0.953125 0 L 0.953125 -8.65625 L 3.8125 -8.65625 C 4.46875 -8.65625 5.070312 -8.546875 5.625 -8.328125 C 6.1875 -8.109375 6.671875 -7.8125 7.078125 -7.4375 C 7.484375 -7.0625 7.796875 -6.601562 8.015625 -6.0625 C 8.242188 -5.53125 8.359375 -4.953125 8.359375 -4.328125 C 8.359375 -3.703125 8.242188 -3.125 8.015625 -2.59375 C 7.796875 -2.0625 7.484375 -1.601562 7.078125 -1.21875 C 6.679688 -0.84375 6.203125 -0.546875 5.640625 -0.328125 C 5.078125 -0.109375 4.46875 0 3.8125 0 Z M 3.859375 -7.796875 L 1.90625 -7.796875 L 1.90625 -0.859375 L 3.859375 -0.859375 C 4.359375 -0.859375 4.828125 -0.945312 5.265625 -1.125 C 5.703125 -1.300781 6.078125 -1.546875 6.390625 -1.859375 C 6.703125 -2.171875 6.945312 -2.535156 7.125 -2.953125 C 7.3125 -3.378906 7.40625 -3.835938 7.40625 -4.328125 C 7.40625 -4.816406 7.3125 -5.273438 7.125 -5.703125 C 6.945312 -6.128906 6.703125 -6.492188 6.390625 -6.796875 C 6.078125 -7.109375 5.703125 -7.351562 5.265625 -7.53125 C 4.828125 -7.707031 4.359375 -7.796875 3.859375 -7.796875 Z M 3.859375 -7.796875 "/></g></g></g><g fill="#000000" fill-opacity="1"><g transform="translate(267.574988, 26.233769)"><g><path d="M 0.046875 0 L 3.65625 -8.65625 L 4.796875 -8.65625 L 8.359375 0 L 7.3125 0 L 6.21875 -2.71875 L 2.140625 -2.71875 L 1.046875 0 Z M 2.46875 -3.546875 L 5.890625 -3.546875 L 4.1875 -7.765625 Z M 2.46875 -3.546875 "/></g></g></g><g fill="#000000" fill-opacity="1"><g transform="translate(274.338145, 26.233769)"><g><path d="M 3.484375 0 L 3.484375 -3.53125 L 0.03125 -8.65625 L 1.15625 -8.65625 L 3.984375 -4.375 L 6.8125 -8.65625 L 7.890625 -8.65625 L 4.4375 -3.484375 L 4.4375 0 Z M 3.484375 0 "/></g></g></g><g clip-path="url(#624464f9bb)"><path fill="#000000" d="M 204.84375 69.566406 L 319.890625 69.566406 C 320.082031 69.566406 320.242188 69.410156 320.242188 69.214844 C 320.242188 69.023438 320.082031 68.867188 319.890625 68.867188 L 204.84375 68.867188 C 204.648438 68.867188 204.492188 69.023438 204.492188 69.214844 C 204.492188 69.410156 204.648438 69.566406 204.84375 69.566406 Z M 204.84375 69.566406 " fill-opacity="1" fill-rule="evenodd"/></g><g clip-path="url(#3355541add)"><path fill="#000000" d="M 194.398438 55.6875 C 190.707031 55.6875 187.710938 58.648438 187.710938 62.292969 C 187.710938 65.941406 190.707031 68.902344 194.398438 68.902344 C 198.089844 68.902344 201.082031 65.941406 201.082031 62.292969 C 201.082031 58.648438 198.089844 55.6875 194.398438 55.6875 Z M 194.398438 56.214844 C 197.792969 56.214844 200.550781 58.9375 200.550781 62.292969 C 200.550781 65.648438 197.792969 68.371094 194.398438 68.371094 C 191 68.371094 188.246094 65.648438 188.246094 62.292969 C 188.246094 58.9375 191 56.214844 194.398438 56.214844 Z M 194.398438 56.214844 " fill-opacity="1" fill-rule="evenodd"/></g><g clip-path="url(#73c0975f68)"><path fill="#000000" d="M 204.84375 102.871094 L 319.890625 102.871094 C 320.082031 102.871094 320.242188 102.714844 320.242188 102.523438 C 320.242188 102.332031 320.082031 102.175781 319.890625 102.175781 L 204.84375 102.175781 C 204.648438 102.175781 204.492188 102.332031 204.492188 102.523438 C 204.492188 102.714844 204.648438 102.871094 204.84375 102.871094 Z M 204.84375 102.871094 " fill-opacity="1" fill-rule="evenodd"/></g><g clip-path="url(#23d89eadd7)"><path fill="#000000" d="M 194.398438 88.996094 C 190.707031 88.996094 187.710938 91.953125 187.710938 95.601562 C 187.710938 99.246094 190.707031 102.207031 194.398438 102.207031 C 198.089844 102.207031 201.082031 99.246094 201.082031 95.601562 C 201.082031 91.953125 198.089844 88.996094 194.398438 88.996094 Z M 194.398438 89.523438 C 197.792969 89.523438 200.550781 92.246094 200.550781 95.601562 C 200.550781 98.957031 197.792969 101.679688 194.398438 101.679688 C 191 101.679688 188.246094 98.957031 188.246094 95.601562 C 188.246094 92.246094 191 89.523438 194.398438 89.523438 Z M 194.398438 89.523438 " fill-opacity="1" fill-rule="evenodd"/></g><g clip-path="url(#e55eb58ce3)"><path fill="#000000" d="M 204.84375 136.179688 L 319.890625 136.179688 C 320.082031 136.179688 320.242188 136.023438 320.242188 135.832031 C 320.242188 135.636719 320.082031 135.480469 319.890625 135.480469 L 204.84375 135.480469 C 204.648438 135.480469 204.492188 135.636719 204.492188 135.832031 C 204.492188 136.023438 204.648438 136.179688 204.84375 136.179688 Z M 204.84375 136.179688 " fill-opacity="1" fill-rule="evenodd"/></g><g clip-path="url(#e69127b03b)"><path fill="#000000" d="M 194.398438 122.300781 C 190.707031 122.300781 187.710938 125.261719 187.710938 128.910156 C 187.710938 132.554688 190.707031 135.515625 194.398438 135.515625 C 198.089844 135.515625 201.082031 132.554688 201.082031 128.910156 C 201.082031 125.261719 198.089844 122.300781 194.398438 122.300781 Z M 194.398438 122.828125 C 197.792969 122.828125 200.550781 125.554688 200.550781 128.910156 C 200.550781 132.261719 197.792969 134.988281 194.398438 134.988281 C 191 134.988281 188.246094 132.261719 188.246094 128.910156 C 188.246094 125.554688 191 122.828125 194.398438 122.828125 Z M 194.398438 122.828125 " fill-opacity="1" fill-rule="evenodd"/></g><g clip-path="url(#01006858bf)"><path fill="#000000" d="M 204.84375 169.488281 L 319.890625 169.488281 C 320.082031 169.488281 320.242188 169.332031 320.242188 169.136719 C 320.242188 168.945312 320.082031 168.789062 319.890625 168.789062 L 204.84375 168.789062 C 204.648438 168.789062 204.492188 168.945312 204.492188 169.136719 C 204.492188 169.332031 204.648438 169.488281 204.84375 169.488281 Z M 204.84375 169.488281 " fill-opacity="1" fill-rule="evenodd"/></g><g clip-path="url(#e2fdf8cc2a)"><path fill="#000000" d="M 194.398438 155.609375 C 190.707031 155.609375 187.710938 158.570312 187.710938 162.214844 C 187.710938 165.863281 190.707031 168.824219 194.398438 168.824219 C 198.089844 168.824219 201.082031 165.863281 201.082031 162.214844 C 201.082031 158.570312 198.089844 155.609375 194.398438 155.609375 Z M 194.398438 156.136719 C 197.792969 156.136719 200.550781 158.859375 200.550781 162.214844 C 200.550781 165.570312 197.792969 168.292969 194.398438 168.292969 C 191 168.292969 188.246094 165.570312 188.246094 162.214844 C 188.246094 158.859375 191 156.136719 194.398438 156.136719 Z M 194.398438 156.136719 " fill-opacity="1" fill-rule="evenodd"/></g><g clip-path="url(#12f7841dbc)"><path fill="#000000" d="M 204.84375 202.792969 L 319.890625 202.792969 C 320.082031 202.792969 320.242188 202.636719 320.242188 202.445312 C 320.242188 202.253906 320.082031 202.097656 319.890625 202.097656 L 204.84375 202.097656 C 204.648438 202.097656 204.492188 202.253906 204.492188 202.445312 C 204.492188 202.636719 204.648438 202.792969 204.84375 202.792969 Z M 204.84375 202.792969 " fill-opacity="1" fill-rule="evenodd"/></g><g clip-path="url(#52afb0740a)"><path fill="#000000" d="M 194.398438 188.914062 C 190.707031 188.914062 187.710938 191.875 187.710938 195.523438 C 187.710938 199.167969 190.707031 202.128906 194.398438 202.128906 C 198.089844 202.128906 201.082031 199.167969 201.082031 195.523438 C 201.082031 191.875 198.089844 188.914062 194.398438 188.914062 Z M 194.398438 189.445312 C 197.792969 189.445312 200.550781 192.167969 200.550781 195.523438 C 200.550781 198.878906 197.792969 201.601562 194.398438 201.601562 C 191 201.601562 188.246094 198.878906 188.246094 195.523438 C 188.246094 192.167969 191 189.445312 194.398438 189.445312 Z M 194.398438 189.445312 " fill-opacity="1" fill-rule="evenodd"/></g><g clip-path="url(#6dd4d4acea)"><path fill="#000000" d="M 204.84375 236.101562 L 319.890625 236.101562 C 320.082031 236.101562 320.242188 235.945312 320.242188 235.753906 C 320.242188 235.558594 320.082031 235.402344 319.890625 235.402344 L 204.84375 235.402344 C 204.648438 235.402344 204.492188 235.558594 204.492188 235.753906 C 204.492188 235.945312 204.648438 236.101562 204.84375 236.101562 Z M 204.84375 236.101562 " fill-opacity="1" fill-rule="evenodd"/></g><g clip-path="url(#8362e416c3)"><path fill="#000000" d="M 194.398438 222.222656 C 190.707031 222.222656 187.710938 225.183594 187.710938 228.832031 C 187.710938 232.476562 190.707031 235.4375 194.398438 235.4375 C 198.089844 235.4375 201.082031 232.476562 201.082031 228.832031 C 201.082031 225.183594 198.089844 222.222656 194.398438 222.222656 Z M 194.398438 222.75 C 197.792969 222.75 200.550781 225.476562 200.550781 228.832031 C 200.550781 232.183594 197.792969 234.910156 194.398438 234.910156 C 191 234.910156 188.246094 232.183594 188.246094 228.832031 C 188.246094 225.476562 191 222.75 194.398438 222.75 Z M 194.398438 222.75 " fill-opacity="1" fill-rule="evenodd"/></g><g clip-path="url(#e5075f4768)"><path fill="#000000" d="M 204.84375 269.410156 L 319.890625 269.410156 C 320.082031 269.410156 320.242188 269.253906 320.242188 269.058594 C 320.242188 268.867188 320.082031 268.710938 319.890625 268.710938 L 204.84375 268.710938 C 204.648438 268.710938 204.492188 268.867188 204.492188 269.058594 C 204.492188 269.253906 204.648438 269.410156 204.84375 269.410156 Z M 204.84375 269.410156 " fill-opacity="1" fill-rule="evenodd"/></g><g clip-path="url(#0e71cbb678)"><path fill="#000000" d="M 194.398438 255.53125 C 190.707031 255.53125 187.710938 258.492188 187.710938 262.136719 C 187.710938 265.785156 190.707031 268.746094 194.398438 268.746094 C 198.089844 268.746094 201.082031 265.785156 201.082031 262.136719 C 201.082031 258.492188 198.089844 255.53125 194.398438 255.53125 Z M 194.398438 256.058594 C 197.792969 256.058594 200.550781 258.78125 200.550781 262.136719 C 200.550781 265.492188 197.792969 268.214844 194.398438 268.214844 C 191 268.214844 188.246094 265.492188 188.246094 262.136719 C 188.246094 258.78125 191 256.058594 194.398438 256.058594 Z M 194.398438 256.058594 " fill-opacity="1" fill-rule="evenodd"/></g><g clip-path="url(#03b03a50e5)"><path stroke-linecap="butt" transform="matrix(0.386406, 0, 0, 0.386406, 347.81782, 6.993613)" fill="none" stroke-linejoin="miter" d="M -0.00365916 -0.00368802 L 401.765554 -0.00368802 L 401.765554 743.920893 L -0.00365916 743.920893 Z M -0.00365916 -0.00368802 " stroke="#000000" stroke-width="3.876183" stroke-opacity="1" stroke-miterlimit="4"/></g><g clip-path="url(#2ac206178b)"><path stroke-linecap="butt" transform="matrix(0.386406, 0, 0, 0.386406, 347.82221, 6.951988)" fill="none" stroke-linejoin="miter" d="M -0.00491184 0.00294146 L 401.744053 0.00294146 L 401.744053 78.672589 L -0.00491184 78.672589 Z M -0.00491184 0.00294146 " stroke="#000000" stroke-width="3.876183" stroke-opacity="1" stroke-miterlimit="4"/></g><g fill="#000000" fill-opacity="1"><g transform="translate(388.161037, 26.272296)"><g><path d="M 3.265625 0 L 2.296875 0 L 0.4375 -8.65625 L 1.390625 -8.65625 L 2.875 -1.515625 L 5.015625 -8.65625 L 5.9375 -8.65625 L 8.078125 -1.53125 L 9.5625 -8.65625 L 10.5 -8.65625 L 8.625 0 L 7.65625 0 L 5.46875 -7.34375 Z M 3.265625 0 "/></g></g></g><g fill="#000000" fill-opacity="1"><g transform="translate(399.066987, 26.272296)"><g><path d="M 0.953125 0 L 0.953125 -8.65625 L 7.15625 -8.65625 L 7.15625 -7.828125 L 1.90625 -7.828125 L 1.90625 -4.796875 L 5.328125 -4.796875 L 5.328125 -3.953125 L 1.90625 -3.953125 L 1.90625 -0.84375 L 7.203125 -0.84375 L 7.203125 0 Z M 0.953125 0 "/></g></g></g><g fill="#000000" fill-opacity="1"><g transform="translate(406.683839, 26.272296)"><g><path d="M 0.953125 0 L 0.953125 -8.65625 L 3.8125 -8.65625 C 4.46875 -8.65625 5.070312 -8.546875 5.625 -8.328125 C 6.1875 -8.109375 6.671875 -7.8125 7.078125 -7.4375 C 7.484375 -7.0625 7.796875 -6.601562 8.015625 -6.0625 C 8.242188 -5.53125 8.359375 -4.953125 8.359375 -4.328125 C 8.359375 -3.703125 8.242188 -3.125 8.015625 -2.59375 C 7.796875 -2.0625 7.484375 -1.601562 7.078125 -1.21875 C 6.679688 -0.84375 6.203125 -0.546875 5.640625 -0.328125 C 5.078125 -0.109375 4.46875 0 3.8125 0 Z M 3.859375 -7.796875 L 1.90625 -7.796875 L 1.90625 -0.859375 L 3.859375 -0.859375 C 4.359375 -0.859375 4.828125 -0.945312 5.265625 -1.125 C 5.703125 -1.300781 6.078125 -1.546875 6.390625 -1.859375 C 6.703125 -2.171875 6.945312 -2.535156 7.125 -2.953125 C 7.3125 -3.378906 7.40625 -3.835938 7.40625 -4.328125 C 7.40625 -4.816406 7.3125 -5.273438 7.125 -5.703125 C 6.945312 -6.128906 6.703125 -6.492188 6.390625 -6.796875 C 6.078125 -7.109375 5.703125 -7.351562 5.265625 -7.53125 C 4.828125 -7.707031 4.359375 -7.796875 3.859375 -7.796875 Z M 3.859375 -7.796875 "/></g></g></g><g fill="#000000" fill-opacity="1"><g transform="translate(415.586658, 26.272296)"><g><path d="M 0.953125 -8.65625 L 1.90625 -8.65625 L 7.109375 -1.640625 L 7.109375 -8.65625 L 8.015625 -8.65625 L 8.015625 0 L 7.171875 0 L 1.859375 -7.21875 L 1.859375 0 L 0.953125 0 Z M 0.953125 -8.65625 "/></g></g></g><g fill="#000000" fill-opacity="1"><g transform="translate(424.551297, 26.272296)"><g><path d="M 0.953125 0 L 0.953125 -8.65625 L 7.15625 -8.65625 L 7.15625 -7.828125 L 1.90625 -7.828125 L 1.90625 -4.796875 L 5.328125 -4.796875 L 5.328125 -3.953125 L 1.90625 -3.953125 L 1.90625 -0.84375 L 7.203125 -0.84375 L 7.203125 0 Z M 0.953125 0 "/></g></g></g><g fill="#000000" fill-opacity="1"><g transform="translate(432.168149, 26.272296)"><g><path d="M 0.140625 -1.484375 L 0.765625 -2.140625 C 1.210938 -1.671875 1.6875 -1.3125 2.1875 -1.0625 C 2.695312 -0.820312 3.234375 -0.703125 3.796875 -0.703125 C 4.472656 -0.703125 5.03125 -0.863281 5.46875 -1.1875 C 5.90625 -1.507812 6.125 -1.914062 6.125 -2.40625 C 6.125 -2.851562 5.96875 -3.195312 5.65625 -3.4375 C 5.351562 -3.675781 4.847656 -3.851562 4.140625 -3.96875 L 2.890625 -4.171875 C 2.054688 -4.304688 1.441406 -4.550781 1.046875 -4.90625 C 0.648438 -5.257812 0.453125 -5.742188 0.453125 -6.359375 C 0.453125 -7.078125 0.726562 -7.660156 1.28125 -8.109375 C 1.84375 -8.554688 2.578125 -8.78125 3.484375 -8.78125 C 4.085938 -8.78125 4.6875 -8.679688 5.28125 -8.484375 C 5.875 -8.285156 6.414062 -8 6.90625 -7.625 L 6.359375 -6.875 C 5.890625 -7.226562 5.410156 -7.492188 4.921875 -7.671875 C 4.429688 -7.859375 3.941406 -7.953125 3.453125 -7.953125 C 2.835938 -7.953125 2.335938 -7.8125 1.953125 -7.53125 C 1.566406 -7.25 1.375 -6.882812 1.375 -6.4375 C 1.375 -6.03125 1.507812 -5.71875 1.78125 -5.5 C 2.050781 -5.289062 2.5 -5.132812 3.125 -5.03125 L 4.375 -4.84375 C 5.3125 -4.6875 5.992188 -4.414062 6.421875 -4.03125 C 6.859375 -3.65625 7.078125 -3.132812 7.078125 -2.46875 C 7.078125 -2.082031 6.992188 -1.726562 6.828125 -1.40625 C 6.671875 -1.09375 6.445312 -0.820312 6.15625 -0.59375 C 5.863281 -0.375 5.507812 -0.195312 5.09375 -0.0625 C 4.6875 0.0625 4.242188 0.125 3.765625 0.125 C 3.078125 0.125 2.414062 -0.0078125 1.78125 -0.28125 C 1.15625 -0.5625 0.609375 -0.960938 0.140625 -1.484375 Z M 0.140625 -1.484375 "/></g></g></g><g fill="#000000" fill-opacity="1"><g transform="translate(439.587163, 26.272296)"><g><path d="M 0.953125 0 L 0.953125 -8.65625 L 3.8125 -8.65625 C 4.46875 -8.65625 5.070312 -8.546875 5.625 -8.328125 C 6.1875 -8.109375 6.671875 -7.8125 7.078125 -7.4375 C 7.484375 -7.0625 7.796875 -6.601562 8.015625 -6.0625 C 8.242188 -5.53125 8.359375 -4.953125 8.359375 -4.328125 C 8.359375 -3.703125 8.242188 -3.125 8.015625 -2.59375 C 7.796875 -2.0625 7.484375 -1.601562 7.078125 -1.21875 C 6.679688 -0.84375 6.203125 -0.546875 5.640625 -0.328125 C 5.078125 -0.109375 4.46875 0 3.8125 0 Z M 3.859375 -7.796875 L 1.90625 -7.796875 L 1.90625 -0.859375 L 3.859375 -0.859375 C 4.359375 -0.859375 4.828125 -0.945312 5.265625 -1.125 C 5.703125 -1.300781 6.078125 -1.546875 6.390625 -1.859375 C 6.703125 -2.171875 6.945312 -2.535156 7.125 -2.953125 C 7.3125 -3.378906 7.40625 -3.835938 7.40625 -4.328125 C 7.40625 -4.816406 7.3125 -5.273438 7.125 -5.703125 C 6.945312 -6.128906 6.703125 -6.492188 6.390625 -6.796875 C 6.078125 -7.109375 5.703125 -7.351562 5.265625 -7.53125 C 4.828125 -7.707031 4.359375 -7.796875 3.859375 -7.796875 Z M 3.859375 -7.796875 "/></g></g></g><g fill="#000000" fill-opacity="1"><g transform="translate(448.044703, 26.272296)"><g><path d="M 0.046875 0 L 3.65625 -8.65625 L 4.796875 -8.65625 L 8.359375 0 L 7.3125 0 L 6.21875 -2.71875 L 2.140625 -2.71875 L 1.046875 0 Z M 2.46875 -3.546875 L 5.890625 -3.546875 L 4.1875 -7.765625 Z M 2.46875 -3.546875 "/></g></g></g><g fill="#000000" fill-opacity="1"><g transform="translate(454.80786, 26.272296)"><g><path d="M 3.484375 0 L 3.484375 -3.53125 L 0.03125 -8.65625 L 1.15625 -8.65625 L 3.984375 -4.375 L 6.8125 -8.65625 L 7.890625 -8.65625 L 4.4375 -3.484375 L 4.4375 0 Z M 3.484375 0 "/></g></g></g><g clip-path="url(#4c149aa817)"><path fill="#000000" d="M 375.285156 69.605469 L 490.332031 69.605469 C 490.527344 69.605469 490.683594 69.449219 490.683594 69.253906 C 490.683594 69.0625 490.527344 68.90625 490.332031 68.90625 L 375.285156 68.90625 C 375.089844 68.90625 374.933594 69.0625 374.933594 69.253906 C 374.933594 69.449219 375.089844 69.605469 375.285156 69.605469 Z M 375.285156 69.605469 " fill-opacity="1" fill-rule="evenodd"/></g><g clip-path="url(#b25ae8c1d5)"><path fill="#000000" d="M 364.839844 55.726562 C 361.148438 55.726562 358.152344 58.6875 358.152344 62.332031 C 358.152344 65.980469 361.148438 68.941406 364.839844 68.941406 C 368.53125 68.941406 371.527344 65.980469 371.527344 62.332031 C 371.527344 58.6875 368.53125 55.726562 364.839844 55.726562 Z M 364.839844 56.253906 C 368.234375 56.253906 370.992188 58.976562 370.992188 62.332031 C 370.992188 65.6875 368.234375 68.410156 364.839844 68.410156 C 361.445312 68.410156 358.6875 65.6875 358.6875 62.332031 C 358.6875 58.976562 361.445312 56.253906 364.839844 56.253906 Z M 364.839844 56.253906 " fill-opacity="1" fill-rule="evenodd"/></g><g clip-path="url(#705f9033b5)"><path fill="#000000" d="M 375.285156 102.910156 L 490.332031 102.910156 C 490.527344 102.910156 490.683594 102.753906 490.683594 102.5625 C 490.683594 102.371094 490.527344 102.214844 490.332031 102.214844 L 375.285156 102.214844 C 375.089844 102.214844 374.933594 102.371094 374.933594 102.5625 C 374.933594 102.753906 375.089844 102.910156 375.285156 102.910156 Z M 375.285156 102.910156 " fill-opacity="1" fill-rule="evenodd"/></g><g clip-path="url(#f3533f9de9)"><path fill="#000000" d="M 364.839844 89.03125 C 361.148438 89.03125 358.152344 91.992188 358.152344 95.640625 C 358.152344 99.285156 361.148438 102.246094 364.839844 102.246094 C 368.53125 102.246094 371.527344 99.285156 371.527344 95.640625 C 371.527344 91.992188 368.53125 89.03125 364.839844 89.03125 Z M 364.839844 89.5625 C 368.234375 89.5625 370.992188 92.285156 370.992188 95.640625 C 370.992188 98.996094 368.234375 101.71875 364.839844 101.71875 C 361.445312 101.71875 358.6875 98.996094 358.6875 95.640625 C 358.6875 92.285156 361.445312 89.5625 364.839844 89.5625 Z M 364.839844 89.5625 " fill-opacity="1" fill-rule="evenodd"/></g><g clip-path="url(#29896ff888)"><path fill="#000000" d="M 375.285156 136.21875 L 490.332031 136.21875 C 490.527344 136.21875 490.683594 136.0625 490.683594 135.871094 C 490.683594 135.675781 490.527344 135.519531 490.332031 135.519531 L 375.285156 135.519531 C 375.089844 135.519531 374.933594 135.675781 374.933594 135.871094 C 374.933594 136.0625 375.089844 136.21875 375.285156 136.21875 Z M 375.285156 136.21875 " fill-opacity="1" fill-rule="evenodd"/></g><g clip-path="url(#cbdce92311)"><path fill="#000000" d="M 364.839844 122.339844 C 361.148438 122.339844 358.152344 125.300781 358.152344 128.945312 C 358.152344 132.59375 361.148438 135.554688 364.839844 135.554688 C 368.53125 135.554688 371.527344 132.59375 371.527344 128.945312 C 371.527344 125.300781 368.53125 122.339844 364.839844 122.339844 Z M 364.839844 122.867188 C 368.234375 122.867188 370.992188 125.59375 370.992188 128.945312 C 370.992188 132.300781 368.234375 135.027344 364.839844 135.027344 C 361.445312 135.027344 358.6875 132.300781 358.6875 128.945312 C 358.6875 125.59375 361.445312 122.867188 364.839844 122.867188 Z M 364.839844 122.867188 " fill-opacity="1" fill-rule="evenodd"/></g><g clip-path="url(#cb15c190e7)"><path fill="#000000" d="M 375.285156 169.527344 L 490.332031 169.527344 C 490.527344 169.527344 490.683594 169.371094 490.683594 169.175781 C 490.683594 168.984375 490.527344 168.828125 490.332031 168.828125 L 375.285156 168.828125 C 375.089844 168.828125 374.933594 168.984375 374.933594 169.175781 C 374.933594 169.371094 375.089844 169.527344 375.285156 169.527344 Z M 375.285156 169.527344 " fill-opacity="1" fill-rule="evenodd"/></g><g clip-path="url(#4039ec5a22)"><path fill="#000000" d="M 364.839844 155.648438 C 361.148438 155.648438 358.152344 158.609375 358.152344 162.253906 C 358.152344 165.902344 361.148438 168.863281 364.839844 168.863281 C 368.53125 168.863281 371.527344 165.902344 371.527344 162.253906 C 371.527344 158.609375 368.53125 155.648438 364.839844 155.648438 Z M 364.839844 156.175781 C 368.234375 156.175781 370.992188 158.898438 370.992188 162.253906 C 370.992188 165.609375 368.234375 168.332031 364.839844 168.332031 C 361.445312 168.332031 358.6875 165.609375 358.6875 162.253906 C 358.6875 158.898438 361.445312 156.175781 364.839844 156.175781 Z M 364.839844 156.175781 " fill-opacity="1" fill-rule="evenodd"/></g><g clip-path="url(#9b39c436e8)"><path fill="#000000" d="M 375.285156 202.832031 L 490.332031 202.832031 C 490.527344 202.832031 490.683594 202.675781 490.683594 202.484375 C 490.683594 202.292969 490.527344 202.136719 490.332031 202.136719 L 375.285156 202.136719 C 375.089844 202.136719 374.933594 202.292969 374.933594 202.484375 C 374.933594 202.675781 375.089844 202.832031 375.285156 202.832031 Z M 375.285156 202.832031 " fill-opacity="1" fill-rule="evenodd"/></g><g clip-path="url(#7d6bed196e)"><path fill="#000000" d="M 364.839844 188.953125 C 361.148438 188.953125 358.152344 191.914062 358.152344 195.5625 C 358.152344 199.207031 361.148438 202.167969 364.839844 202.167969 C 368.53125 202.167969 371.527344 199.207031 371.527344 195.5625 C 371.527344 191.914062 368.53125 188.953125 364.839844 188.953125 Z M 364.839844 189.484375 C 368.234375 189.484375 370.992188 192.207031 370.992188 195.5625 C 370.992188 198.917969 368.234375 201.640625 364.839844 201.640625 C 361.445312 201.640625 358.6875 198.917969 358.6875 195.5625 C 358.6875 192.207031 361.445312 189.484375 364.839844 189.484375 Z M 364.839844 189.484375 " fill-opacity="1" fill-rule="evenodd"/></g><g clip-path="url(#383f9ce3a4)"><path fill="#000000" d="M 375.285156 236.140625 L 490.332031 236.140625 C 490.527344 236.140625 490.683594 235.984375 490.683594 235.792969 C 490.683594 235.597656 490.527344 235.441406 490.332031 235.441406 L 375.285156 235.441406 C 375.089844 235.441406 374.933594 235.597656 374.933594 235.792969 C 374.933594 235.984375 375.089844 236.140625 375.285156 236.140625 Z M 375.285156 236.140625 " fill-opacity="1" fill-rule="evenodd"/></g><g clip-path="url(#3ba5058c70)"><path fill="#000000" d="M 364.839844 222.261719 C 361.148438 222.261719 358.152344 225.222656 358.152344 228.867188 C 358.152344 232.515625 361.148438 235.476562 364.839844 235.476562 C 368.53125 235.476562 371.527344 232.515625 371.527344 228.867188 C 371.527344 225.222656 368.53125 222.261719 364.839844 222.261719 Z M 364.839844 222.789062 C 368.234375 222.789062 370.992188 225.515625 370.992188 228.867188 C 370.992188 232.222656 368.234375 234.949219 364.839844 234.949219 C 361.445312 234.949219 358.6875 232.222656 358.6875 228.867188 C 358.6875 225.515625 361.445312 222.789062 364.839844 222.789062 Z M 364.839844 222.789062 " fill-opacity="1" fill-rule="evenodd"/></g><g clip-path="url(#3ca0382780)"><path fill="#000000" d="M 375.285156 269.445312 L 490.332031 269.445312 C 490.527344 269.445312 490.683594 269.289062 490.683594 269.097656 C 490.683594 268.90625 490.527344 268.75 490.332031 268.75 L 375.285156 268.75 C 375.089844 268.75 374.933594 268.90625 374.933594 269.097656 C 374.933594 269.289062 375.089844 269.445312 375.285156 269.445312 Z M 375.285156 269.445312 " fill-opacity="1" fill-rule="evenodd"/></g><g clip-path="url(#8f5dcfeda4)"><path fill="#000000" d="M 364.839844 255.570312 C 361.148438 255.570312 358.152344 258.53125 358.152344 262.175781 C 358.152344 265.824219 361.148438 268.78125 364.839844 268.78125 C 368.53125 268.78125 371.527344 265.824219 371.527344 262.175781 C 371.527344 258.53125 368.53125 255.570312 364.839844 255.570312 Z M 364.839844 256.097656 C 368.234375 256.097656 370.992188 258.820312 370.992188 262.175781 C 370.992188 265.53125 368.234375 268.253906 364.839844 268.253906 C 361.445312 268.253906 358.6875 265.53125 358.6875 262.175781 C 358.6875 258.820312 361.445312 256.097656 364.839844 256.097656 Z M 364.839844 256.097656 " fill-opacity="1" fill-rule="evenodd"/></g><g clip-path="url(#88f1f65493)"><path stroke-linecap="butt" transform="matrix(0.386406, 0, 0, 0.386406, 6.933629, 309.666665)" fill="none" stroke-linejoin="miter" d="M -0.000092466 0.00337311 L 401.76912 0.00337311 L 401.76912 743.917845 L -0.000092466 743.917845 Z M -0.000092466 0.00337311 " stroke="#000000" stroke-width="3.876183" stroke-opacity="1" stroke-miterlimit="4"/></g><g clip-path="url(#b21a4d5d04)"><path stroke-linecap="butt" transform="matrix(0.386406, 0, 0, 0.386406, 6.938003, 309.625037)" fill="none" stroke-linejoin="miter" d="M -0.00130112 -0.0000948022 L 401.747664 -0.0000948022 L 401.747664 78.669552 L -0.00130112 78.669552 Z M -0.00130112 -0.0000948022 " stroke="#000000" stroke-width="3.876183" stroke-opacity="1" stroke-miterlimit="4"/></g><g fill="#000000" fill-opacity="1"><g transform="translate(52.69257, 328.945344)"><g><path d="M 0.203125 -7.8125 L 0.203125 -8.65625 L 7.421875 -8.65625 L 7.421875 -7.8125 L 4.296875 -7.8125 L 4.296875 0 L 3.34375 0 L 3.34375 -7.8125 Z M 0.203125 -7.8125 "/></g></g></g><g fill="#000000" fill-opacity="1"><g transform="translate(60.321786, 328.945344)"><g><path d="M 0.953125 0 L 0.953125 -8.65625 L 1.90625 -8.65625 L 1.90625 -4.796875 L 6.9375 -4.796875 L 6.9375 -8.65625 L 7.890625 -8.65625 L 7.890625 0 L 6.9375 0 L 6.9375 -3.9375 L 1.90625 -3.9375 L 1.90625 0 Z M 0.953125 0 "/></g></g></g><g fill="#000000" fill-opacity="1"><g transform="translate(69.162778, 328.945344)"><g><path d="M 7.9375 -3.65625 C 7.9375 -2.507812 7.609375 -1.585938 6.953125 -0.890625 C 6.304688 -0.203125 5.441406 0.140625 4.359375 0.140625 C 3.253906 0.140625 2.378906 -0.203125 1.734375 -0.890625 C 1.097656 -1.578125 0.78125 -2.5 0.78125 -3.65625 L 0.78125 -8.65625 L 1.734375 -8.65625 L 1.734375 -3.65625 C 1.734375 -2.78125 1.972656 -2.078125 2.453125 -1.546875 C 2.929688 -1.015625 3.566406 -0.75 4.359375 -0.75 C 5.148438 -0.75 5.785156 -1.015625 6.265625 -1.546875 C 6.742188 -2.078125 6.984375 -2.78125 6.984375 -3.65625 L 6.984375 -8.65625 L 7.9375 -8.65625 Z M 7.9375 -3.65625 "/></g></g></g><g fill="#000000" fill-opacity="1"><g transform="translate(77.867754, 328.945344)"><g><path d="M 0.953125 0 L 0.953125 -8.65625 L 4.671875 -8.65625 C 5.503906 -8.65625 6.179688 -8.425781 6.703125 -7.96875 C 7.222656 -7.507812 7.484375 -6.910156 7.484375 -6.171875 C 7.484375 -5.609375 7.316406 -5.117188 6.984375 -4.703125 C 6.648438 -4.285156 6.203125 -4 5.640625 -3.84375 L 7.59375 0 L 6.53125 0 L 4.671875 -3.71875 L 1.90625 -3.71875 L 1.90625 0 Z M 4.609375 -7.8125 L 1.90625 -7.8125 L 1.90625 -4.53125 L 4.609375 -4.53125 C 5.179688 -4.53125 5.644531 -4.679688 6 -4.984375 C 6.351562 -5.285156 6.53125 -5.679688 6.53125 -6.171875 C 6.53125 -6.671875 6.351562 -7.066406 6 -7.359375 C 5.644531 -7.660156 5.179688 -7.8125 4.609375 -7.8125 Z M 4.609375 -7.8125 "/></g></g></g><g fill="#000000" fill-opacity="1"><g transform="translate(85.867934, 328.945344)"><g><path d="M 0.140625 -1.484375 L 0.765625 -2.140625 C 1.210938 -1.671875 1.6875 -1.3125 2.1875 -1.0625 C 2.695312 -0.820312 3.234375 -0.703125 3.796875 -0.703125 C 4.472656 -0.703125 5.03125 -0.863281 5.46875 -1.1875 C 5.90625 -1.507812 6.125 -1.914062 6.125 -2.40625 C 6.125 -2.851562 5.96875 -3.195312 5.65625 -3.4375 C 5.351562 -3.675781 4.847656 -3.851562 4.140625 -3.96875 L 2.890625 -4.171875 C 2.054688 -4.304688 1.441406 -4.550781 1.046875 -4.90625 C 0.648438 -5.257812 0.453125 -5.742188 0.453125 -6.359375 C 0.453125 -7.078125 0.726562 -7.660156 1.28125 -8.109375 C 1.84375 -8.554688 2.578125 -8.78125 3.484375 -8.78125 C 4.085938 -8.78125 4.6875 -8.679688 5.28125 -8.484375 C 5.875 -8.285156 6.414062 -8 6.90625 -7.625 L 6.359375 -6.875 C 5.890625 -7.226562 5.410156 -7.492188 4.921875 -7.671875 C 4.429688 -7.859375 3.941406 -7.953125 3.453125 -7.953125 C 2.835938 -7.953125 2.335938 -7.8125 1.953125 -7.53125 C 1.566406 -7.25 1.375 -6.882812 1.375 -6.4375 C 1.375 -6.03125 1.507812 -5.71875 1.78125 -5.5 C 2.050781 -5.289062 2.5 -5.132812 3.125 -5.03125 L 4.375 -4.84375 C 5.3125 -4.6875 5.992188 -4.414062 6.421875 -4.03125 C 6.859375 -3.65625 7.078125 -3.132812 7.078125 -2.46875 C 7.078125 -2.082031 6.992188 -1.726562 6.828125 -1.40625 C 6.671875 -1.09375 6.445312 -0.820312 6.15625 -0.59375 C 5.863281 -0.375 5.507812 -0.195312 5.09375 -0.0625 C 4.6875 0.0625 4.242188 0.125 3.765625 0.125 C 3.078125 0.125 2.414062 -0.0078125 1.78125 -0.28125 C 1.15625 -0.5625 0.609375 -0.960938 0.140625 -1.484375 Z M 0.140625 -1.484375 "/></g></g></g><g fill="#000000" fill-opacity="1"><g transform="translate(93.286949, 328.945344)"><g><path d="M 0.953125 0 L 0.953125 -8.65625 L 3.8125 -8.65625 C 4.46875 -8.65625 5.070312 -8.546875 5.625 -8.328125 C 6.1875 -8.109375 6.671875 -7.8125 7.078125 -7.4375 C 7.484375 -7.0625 7.796875 -6.601562 8.015625 -6.0625 C 8.242188 -5.53125 8.359375 -4.953125 8.359375 -4.328125 C 8.359375 -3.703125 8.242188 -3.125 8.015625 -2.59375 C 7.796875 -2.0625 7.484375 -1.601562 7.078125 -1.21875 C 6.679688 -0.84375 6.203125 -0.546875 5.640625 -0.328125 C 5.078125 -0.109375 4.46875 0 3.8125 0 Z M 3.859375 -7.796875 L 1.90625 -7.796875 L 1.90625 -0.859375 L 3.859375 -0.859375 C 4.359375 -0.859375 4.828125 -0.945312 5.265625 -1.125 C 5.703125 -1.300781 6.078125 -1.546875 6.390625 -1.859375 C 6.703125 -2.171875 6.945312 -2.535156 7.125 -2.953125 C 7.3125 -3.378906 7.40625 -3.835938 7.40625 -4.328125 C 7.40625 -4.816406 7.3125 -5.273438 7.125 -5.703125 C 6.945312 -6.128906 6.703125 -6.492188 6.390625 -6.796875 C 6.078125 -7.109375 5.703125 -7.351562 5.265625 -7.53125 C 4.828125 -7.707031 4.359375 -7.796875 3.859375 -7.796875 Z M 3.859375 -7.796875 "/></g></g></g><g fill="#000000" fill-opacity="1"><g transform="translate(101.744489, 328.945344)"><g><path d="M 0.046875 0 L 3.65625 -8.65625 L 4.796875 -8.65625 L 8.359375 0 L 7.3125 0 L 6.21875 -2.71875 L 2.140625 -2.71875 L 1.046875 0 Z M 2.46875 -3.546875 L 5.890625 -3.546875 L 4.1875 -7.765625 Z M 2.46875 -3.546875 "/></g></g></g><g fill="#000000" fill-opacity="1"><g transform="translate(108.507646, 328.945344)"><g><path d="M 3.484375 0 L 3.484375 -3.53125 L 0.03125 -8.65625 L 1.15625 -8.65625 L 3.984375 -4.375 L 6.8125 -8.65625 L 7.890625 -8.65625 L 4.4375 -3.484375 L 4.4375 0 Z M 3.484375 0 "/></g></g></g><g clip-path="url(#262c72e913)"><path fill="#000000" d="M 34.402344 372.277344 L 149.445312 372.277344 C 149.640625 372.277344 149.800781 372.121094 149.800781 371.929688 C 149.800781 371.734375 149.640625 371.578125 149.445312 371.578125 L 34.402344 371.578125 C 34.207031 371.578125 34.046875 371.734375 34.046875 371.929688 C 34.046875 372.121094 34.207031 372.277344 34.402344 372.277344 Z M 34.402344 372.277344 " fill-opacity="1" fill-rule="evenodd"/></g><g clip-path="url(#0584cc530a)"><path fill="#000000" d="M 23.957031 358.398438 C 20.265625 358.398438 17.269531 361.359375 17.269531 365.003906 C 17.269531 368.652344 20.265625 371.613281 23.957031 371.613281 C 27.644531 371.613281 30.640625 368.652344 30.640625 365.003906 C 30.640625 361.359375 27.644531 358.398438 23.957031 358.398438 Z M 23.957031 358.925781 C 27.351562 358.925781 30.109375 361.652344 30.109375 365.003906 C 30.109375 368.359375 27.351562 371.085938 23.957031 371.085938 C 20.558594 371.085938 17.804688 368.359375 17.804688 365.003906 C 17.804688 361.652344 20.558594 358.925781 23.957031 358.925781 Z M 23.957031 358.925781 " fill-opacity="1" fill-rule="evenodd"/></g><g clip-path="url(#4ec69c33da)"><path fill="#000000" d="M 34.402344 405.585938 L 149.445312 405.585938 C 149.640625 405.585938 149.800781 405.429688 149.800781 405.234375 C 149.800781 405.042969 149.640625 404.886719 149.445312 404.886719 L 34.402344 404.886719 C 34.207031 404.886719 34.046875 405.042969 34.046875 405.234375 C 34.046875 405.429688 34.207031 405.585938 34.402344 405.585938 Z M 34.402344 405.585938 " fill-opacity="1" fill-rule="evenodd"/></g><g clip-path="url(#435dc020ad)"><path fill="#000000" d="M 23.957031 391.707031 C 20.265625 391.707031 17.269531 394.667969 17.269531 398.3125 C 17.269531 401.960938 20.265625 404.921875 23.957031 404.921875 C 27.644531 404.921875 30.640625 401.960938 30.640625 398.3125 C 30.640625 394.667969 27.644531 391.707031 23.957031 391.707031 Z M 23.957031 392.234375 C 27.351562 392.234375 30.109375 394.957031 30.109375 398.3125 C 30.109375 401.667969 27.351562 404.390625 23.957031 404.390625 C 20.558594 404.390625 17.804688 401.667969 17.804688 398.3125 C 17.804688 394.957031 20.558594 392.234375 23.957031 392.234375 Z M 23.957031 392.234375 " fill-opacity="1" fill-rule="evenodd"/></g><g clip-path="url(#0d00b3de74)"><path fill="#000000" d="M 34.402344 438.890625 L 149.445312 438.890625 C 149.640625 438.890625 149.800781 438.734375 149.800781 438.542969 C 149.800781 438.351562 149.640625 438.195312 149.445312 438.195312 L 34.402344 438.195312 C 34.207031 438.195312 34.046875 438.351562 34.046875 438.542969 C 34.046875 438.734375 34.207031 438.890625 34.402344 438.890625 Z M 34.402344 438.890625 " fill-opacity="1" fill-rule="evenodd"/></g><g clip-path="url(#6a9e149d21)"><path fill="#000000" d="M 23.957031 425.011719 C 20.265625 425.011719 17.269531 427.972656 17.269531 431.621094 C 17.269531 435.265625 20.265625 438.226562 23.957031 438.226562 C 27.644531 438.226562 30.640625 435.265625 30.640625 431.621094 C 30.640625 427.972656 27.644531 425.011719 23.957031 425.011719 Z M 23.957031 425.542969 C 27.351562 425.542969 30.109375 428.265625 30.109375 431.621094 C 30.109375 434.976562 27.351562 437.699219 23.957031 437.699219 C 20.558594 437.699219 17.804688 434.976562 17.804688 431.621094 C 17.804688 428.265625 20.558594 425.542969 23.957031 425.542969 Z M 23.957031 425.542969 " fill-opacity="1" fill-rule="evenodd"/></g><g clip-path="url(#82d9569824)"><path fill="#000000" d="M 34.402344 472.199219 L 149.445312 472.199219 C 149.640625 472.199219 149.800781 472.042969 149.800781 471.851562 C 149.800781 471.65625 149.640625 471.5 149.445312 471.5 L 34.402344 471.5 C 34.207031 471.5 34.046875 471.65625 34.046875 471.851562 C 34.046875 472.042969 34.207031 472.199219 34.402344 472.199219 Z M 34.402344 472.199219 " fill-opacity="1" fill-rule="evenodd"/></g><g clip-path="url(#a86161cd90)"><path fill="#000000" d="M 23.957031 458.320312 C 20.265625 458.320312 17.269531 461.28125 17.269531 464.925781 C 17.269531 468.574219 20.265625 471.535156 23.957031 471.535156 C 27.644531 471.535156 30.640625 468.574219 30.640625 464.925781 C 30.640625 461.28125 27.644531 458.320312 23.957031 458.320312 Z M 23.957031 458.847656 C 27.351562 458.847656 30.109375 461.574219 30.109375 464.925781 C 30.109375 468.28125 27.351562 471.007812 23.957031 471.007812 C 20.558594 471.007812 17.804688 468.28125 17.804688 464.925781 C 17.804688 461.574219 20.558594 458.847656 23.957031 458.847656 Z M 23.957031 458.847656 " fill-opacity="1" fill-rule="evenodd"/></g><g clip-path="url(#76370d3063)"><path fill="#000000" d="M 34.402344 505.507812 L 149.445312 505.507812 C 149.640625 505.507812 149.800781 505.347656 149.800781 505.15625 C 149.800781 504.964844 149.640625 504.808594 149.445312 504.808594 L 34.402344 504.808594 C 34.207031 504.808594 34.046875 504.964844 34.046875 505.15625 C 34.046875 505.347656 34.207031 505.507812 34.402344 505.507812 Z M 34.402344 505.507812 " fill-opacity="1" fill-rule="evenodd"/></g><g clip-path="url(#9108422c0c)"><path fill="#000000" d="M 23.957031 491.628906 C 20.265625 491.628906 17.269531 494.589844 17.269531 498.234375 C 17.269531 501.882812 20.265625 504.839844 23.957031 504.839844 C 27.644531 504.839844 30.640625 501.882812 30.640625 498.234375 C 30.640625 494.589844 27.644531 491.628906 23.957031 491.628906 Z M 23.957031 492.15625 C 27.351562 492.15625 30.109375 494.878906 30.109375 498.234375 C 30.109375 501.589844 27.351562 504.3125 23.957031 504.3125 C 20.558594 504.3125 17.804688 501.589844 17.804688 498.234375 C 17.804688 494.878906 20.558594 492.15625 23.957031 492.15625 Z M 23.957031 492.15625 " fill-opacity="1" fill-rule="evenodd"/></g><g clip-path="url(#72d589344b)"><path fill="#000000" d="M 34.402344 538.8125 L 149.445312 538.8125 C 149.640625 538.8125 149.800781 538.65625 149.800781 538.464844 C 149.800781 538.273438 149.640625 538.117188 149.445312 538.117188 L 34.402344 538.117188 C 34.207031 538.117188 34.046875 538.273438 34.046875 538.464844 C 34.046875 538.65625 34.207031 538.8125 34.402344 538.8125 Z M 34.402344 538.8125 " fill-opacity="1" fill-rule="evenodd"/></g><g clip-path="url(#5d8fa3f798)"><path fill="#000000" d="M 23.957031 524.933594 C 20.265625 524.933594 17.269531 527.894531 17.269531 531.542969 C 17.269531 535.1875 20.265625 538.148438 23.957031 538.148438 C 27.644531 538.148438 30.640625 535.1875 30.640625 531.542969 C 30.640625 527.894531 27.644531 524.933594 23.957031 524.933594 Z M 23.957031 525.464844 C 27.351562 525.464844 30.109375 528.1875 30.109375 531.542969 C 30.109375 534.898438 27.351562 537.621094 23.957031 537.621094 C 20.558594 537.621094 17.804688 534.898438 17.804688 531.542969 C 17.804688 528.1875 20.558594 525.464844 23.957031 525.464844 Z M 23.957031 525.464844 " fill-opacity="1" fill-rule="evenodd"/></g><g clip-path="url(#515f498146)"><path fill="#000000" d="M 34.402344 572.121094 L 149.445312 572.121094 C 149.640625 572.121094 149.800781 571.964844 149.800781 571.769531 C 149.800781 571.578125 149.640625 571.421875 149.445312 571.421875 L 34.402344 571.421875 C 34.207031 571.421875 34.046875 571.578125 34.046875 571.769531 C 34.046875 571.964844 34.207031 572.121094 34.402344 572.121094 Z M 34.402344 572.121094 " fill-opacity="1" fill-rule="evenodd"/></g><g clip-path="url(#e9c174a3d2)"><path fill="#000000" d="M 23.957031 558.242188 C 20.265625 558.242188 17.269531 561.203125 17.269531 564.847656 C 17.269531 568.496094 20.265625 571.457031 23.957031 571.457031 C 27.644531 571.457031 30.640625 568.496094 30.640625 564.847656 C 30.640625 561.203125 27.644531 558.242188 23.957031 558.242188 Z M 23.957031 558.769531 C 27.351562 558.769531 30.109375 561.492188 30.109375 564.847656 C 30.109375 568.203125 27.351562 570.925781 23.957031 570.925781 C 20.558594 570.925781 17.804688 568.203125 17.804688 564.847656 C 17.804688 561.492188 20.558594 558.769531 23.957031 558.769531 Z M 23.957031 558.769531 " fill-opacity="1" fill-rule="evenodd"/></g><g clip-path="url(#a7bd2b9073)"><path stroke-linecap="butt" transform="matrix(0.386406, 0, 0, 0.386406, 177.375695, 309.666665)" fill="none" stroke-linejoin="miter" d="M -0.00179922 0.00337311 L 401.767414 0.00337311 L 401.767414 743.917845 L -0.00179922 743.917845 Z M -0.00179922 0.00337311 " stroke="#000000" stroke-width="3.876183" stroke-opacity="1" stroke-miterlimit="4"/></g><g clip-path="url(#f776cb0d7b)"><path stroke-linecap="butt" transform="matrix(0.386406, 0, 0, 0.386406, 177.380083, 309.625037)" fill="none" stroke-linejoin="miter" d="M -0.0030457 -0.0000948022 L 401.745919 -0.0000948022 L 401.745919 78.669552 L -0.0030457 78.669552 Z M -0.0030457 -0.0000948022 " stroke="#000000" stroke-width="3.876183" stroke-opacity="1" stroke-miterlimit="4"/></g><g fill="#000000" fill-opacity="1"><g transform="translate(234.267994, 328.945344)"><g><path d="M 0.953125 0 L 0.953125 -8.65625 L 7.15625 -8.65625 L 7.15625 -7.828125 L 1.90625 -7.828125 L 1.90625 -4.734375 L 5.34375 -4.734375 L 5.34375 -3.890625 L 1.90625 -3.890625 L 1.90625 0 Z M 0.953125 0 "/></g></g></g><g fill="#000000" fill-opacity="1"><g transform="translate(241.773563, 328.945344)"><g><path d="M 0.953125 0 L 0.953125 -8.65625 L 4.671875 -8.65625 C 5.503906 -8.65625 6.179688 -8.425781 6.703125 -7.96875 C 7.222656 -7.507812 7.484375 -6.910156 7.484375 -6.171875 C 7.484375 -5.609375 7.316406 -5.117188 6.984375 -4.703125 C 6.648438 -4.285156 6.203125 -4 5.640625 -3.84375 L 7.59375 0 L 6.53125 0 L 4.671875 -3.71875 L 1.90625 -3.71875 L 1.90625 0 Z M 4.609375 -7.8125 L 1.90625 -7.8125 L 1.90625 -4.53125 L 4.609375 -4.53125 C 5.179688 -4.53125 5.644531 -4.679688 6 -4.984375 C 6.351562 -5.285156 6.53125 -5.679688 6.53125 -6.171875 C 6.53125 -6.671875 6.351562 -7.066406 6 -7.359375 C 5.644531 -7.660156 5.179688 -7.8125 4.609375 -7.8125 Z M 4.609375 -7.8125 "/></g></g></g><g fill="#000000" fill-opacity="1"><g transform="translate(249.749004, 328.945344)"><g><path d="M 0.953125 0 L 0.953125 -8.65625 L 1.90625 -8.65625 L 1.90625 0 Z M 0.953125 0 "/></g></g></g><g fill="#000000" fill-opacity="1"><g transform="translate(252.605323, 328.945344)"><g><path d="M 0.953125 0 L 0.953125 -8.65625 L 3.8125 -8.65625 C 4.46875 -8.65625 5.070312 -8.546875 5.625 -8.328125 C 6.1875 -8.109375 6.671875 -7.8125 7.078125 -7.4375 C 7.484375 -7.0625 7.796875 -6.601562 8.015625 -6.0625 C 8.242188 -5.53125 8.359375 -4.953125 8.359375 -4.328125 C 8.359375 -3.703125 8.242188 -3.125 8.015625 -2.59375 C 7.796875 -2.0625 7.484375 -1.601562 7.078125 -1.21875 C 6.679688 -0.84375 6.203125 -0.546875 5.640625 -0.328125 C 5.078125 -0.109375 4.46875 0 3.8125 0 Z M 3.859375 -7.796875 L 1.90625 -7.796875 L 1.90625 -0.859375 L 3.859375 -0.859375 C 4.359375 -0.859375 4.828125 -0.945312 5.265625 -1.125 C 5.703125 -1.300781 6.078125 -1.546875 6.390625 -1.859375 C 6.703125 -2.171875 6.945312 -2.535156 7.125 -2.953125 C 7.3125 -3.378906 7.40625 -3.835938 7.40625 -4.328125 C 7.40625 -4.816406 7.3125 -5.273438 7.125 -5.703125 C 6.945312 -6.128906 6.703125 -6.492188 6.390625 -6.796875 C 6.078125 -7.109375 5.703125 -7.351562 5.265625 -7.53125 C 4.828125 -7.707031 4.359375 -7.796875 3.859375 -7.796875 Z M 3.859375 -7.796875 "/></g></g></g><g fill="#000000" fill-opacity="1"><g transform="translate(261.062863, 328.945344)"><g><path d="M 0.046875 0 L 3.65625 -8.65625 L 4.796875 -8.65625 L 8.359375 0 L 7.3125 0 L 6.21875 -2.71875 L 2.140625 -2.71875 L 1.046875 0 Z M 2.46875 -3.546875 L 5.890625 -3.546875 L 4.1875 -7.765625 Z M 2.46875 -3.546875 "/></g></g></g><g fill="#000000" fill-opacity="1"><g transform="translate(267.82602, 328.945344)"><g><path d="M 3.484375 0 L 3.484375 -3.53125 L 0.03125 -8.65625 L 1.15625 -8.65625 L 3.984375 -4.375 L 6.8125 -8.65625 L 7.890625 -8.65625 L 4.4375 -3.484375 L 4.4375 0 Z M 3.484375 0 "/></g></g></g><g clip-path="url(#feea84f26f)"><path fill="#000000" d="M 204.84375 372.277344 L 319.890625 372.277344 C 320.082031 372.277344 320.242188 372.121094 320.242188 371.929688 C 320.242188 371.734375 320.082031 371.578125 319.890625 371.578125 L 204.84375 371.578125 C 204.648438 371.578125 204.492188 371.734375 204.492188 371.929688 C 204.492188 372.121094 204.648438 372.277344 204.84375 372.277344 Z M 204.84375 372.277344 " fill-opacity="1" fill-rule="evenodd"/></g><g clip-path="url(#5a5abab7cc)"><path fill="#000000" d="M 194.398438 358.398438 C 190.707031 358.398438 187.710938 361.359375 187.710938 365.003906 C 187.710938 368.652344 190.707031 371.613281 194.398438 371.613281 C 198.089844 371.613281 201.082031 368.652344 201.082031 365.003906 C 201.082031 361.359375 198.089844 358.398438 194.398438 358.398438 Z M 194.398438 358.925781 C 197.792969 358.925781 200.550781 361.652344 200.550781 365.003906 C 200.550781 368.359375 197.792969 371.085938 194.398438 371.085938 C 191 371.085938 188.246094 368.359375 188.246094 365.003906 C 188.246094 361.652344 191 358.925781 194.398438 358.925781 Z M 194.398438 358.925781 " fill-opacity="1" fill-rule="evenodd"/></g><g clip-path="url(#590d585092)"><path fill="#000000" d="M 204.84375 405.585938 L 319.890625 405.585938 C 320.082031 405.585938 320.242188 405.429688 320.242188 405.234375 C 320.242188 405.042969 320.082031 404.886719 319.890625 404.886719 L 204.84375 404.886719 C 204.648438 404.886719 204.492188 405.042969 204.492188 405.234375 C 204.492188 405.429688 204.648438 405.585938 204.84375 405.585938 Z M 204.84375 405.585938 " fill-opacity="1" fill-rule="evenodd"/></g><g clip-path="url(#7cce1d7490)"><path fill="#000000" d="M 194.398438 391.707031 C 190.707031 391.707031 187.710938 394.667969 187.710938 398.3125 C 187.710938 401.960938 190.707031 404.921875 194.398438 404.921875 C 198.089844 404.921875 201.082031 401.960938 201.082031 398.3125 C 201.082031 394.667969 198.089844 391.707031 194.398438 391.707031 Z M 194.398438 392.234375 C 197.792969 392.234375 200.550781 394.957031 200.550781 398.3125 C 200.550781 401.667969 197.792969 404.390625 194.398438 404.390625 C 191 404.390625 188.246094 401.667969 188.246094 398.3125 C 188.246094 394.957031 191 392.234375 194.398438 392.234375 Z M 194.398438 392.234375 " fill-opacity="1" fill-rule="evenodd"/></g><g clip-path="url(#342f424f91)"><path fill="#000000" d="M 204.84375 438.890625 L 319.890625 438.890625 C 320.082031 438.890625 320.242188 438.734375 320.242188 438.542969 C 320.242188 438.351562 320.082031 438.195312 319.890625 438.195312 L 204.84375 438.195312 C 204.648438 438.195312 204.492188 438.351562 204.492188 438.542969 C 204.492188 438.734375 204.648438 438.890625 204.84375 438.890625 Z M 204.84375 438.890625 " fill-opacity="1" fill-rule="evenodd"/></g><g clip-path="url(#55fe892865)"><path fill="#000000" d="M 194.398438 425.011719 C 190.707031 425.011719 187.710938 427.972656 187.710938 431.621094 C 187.710938 435.265625 190.707031 438.226562 194.398438 438.226562 C 198.089844 438.226562 201.082031 435.265625 201.082031 431.621094 C 201.082031 427.972656 198.089844 425.011719 194.398438 425.011719 Z M 194.398438 425.542969 C 197.792969 425.542969 200.550781 428.265625 200.550781 431.621094 C 200.550781 434.976562 197.792969 437.699219 194.398438 437.699219 C 191 437.699219 188.246094 434.976562 188.246094 431.621094 C 188.246094 428.265625 191 425.542969 194.398438 425.542969 Z M 194.398438 425.542969 " fill-opacity="1" fill-rule="evenodd"/></g><g clip-path="url(#ecb0224921)"><path fill="#000000" d="M 204.84375 472.199219 L 319.890625 472.199219 C 320.082031 472.199219 320.242188 472.042969 320.242188 471.851562 C 320.242188 471.65625 320.082031 471.5 319.890625 471.5 L 204.84375 471.5 C 204.648438 471.5 204.492188 471.65625 204.492188 471.851562 C 204.492188 472.042969 204.648438 472.199219 204.84375 472.199219 Z M 204.84375 472.199219 " fill-opacity="1" fill-rule="evenodd"/></g><g clip-path="url(#10db5d0786)"><path fill="#000000" d="M 194.398438 458.320312 C 190.707031 458.320312 187.710938 461.28125 187.710938 464.925781 C 187.710938 468.574219 190.707031 471.535156 194.398438 471.535156 C 198.089844 471.535156 201.082031 468.574219 201.082031 464.925781 C 201.082031 461.28125 198.089844 458.320312 194.398438 458.320312 Z M 194.398438 458.847656 C 197.792969 458.847656 200.550781 461.574219 200.550781 464.925781 C 200.550781 468.28125 197.792969 471.007812 194.398438 471.007812 C 191 471.007812 188.246094 468.28125 188.246094 464.925781 C 188.246094 461.574219 191 458.847656 194.398438 458.847656 Z M 194.398438 458.847656 " fill-opacity="1" fill-rule="evenodd"/></g><g clip-path="url(#516d3f08fb)"><path fill="#000000" d="M 204.84375 505.507812 L 319.890625 505.507812 C 320.082031 505.507812 320.242188 505.347656 320.242188 505.15625 C 320.242188 504.964844 320.082031 504.808594 319.890625 504.808594 L 204.84375 504.808594 C 204.648438 504.808594 204.492188 504.964844 204.492188 505.15625 C 204.492188 505.347656 204.648438 505.507812 204.84375 505.507812 Z M 204.84375 505.507812 " fill-opacity="1" fill-rule="evenodd"/></g><g clip-path="url(#a0eaf86d46)"><path fill="#000000" d="M 194.398438 491.628906 C 190.707031 491.628906 187.710938 494.589844 187.710938 498.234375 C 187.710938 501.882812 190.707031 504.839844 194.398438 504.839844 C 198.089844 504.839844 201.082031 501.882812 201.082031 498.234375 C 201.082031 494.589844 198.089844 491.628906 194.398438 491.628906 Z M 194.398438 492.15625 C 197.792969 492.15625 200.550781 494.878906 200.550781 498.234375 C 200.550781 501.589844 197.792969 504.3125 194.398438 504.3125 C 191 504.3125 188.246094 501.589844 188.246094 498.234375 C 188.246094 494.878906 191 492.15625 194.398438 492.15625 Z M 194.398438 492.15625 " fill-opacity="1" fill-rule="evenodd"/></g><g clip-path="url(#da221c16db)"><path fill="#000000" d="M 204.84375 538.8125 L 319.890625 538.8125 C 320.082031 538.8125 320.242188 538.65625 320.242188 538.464844 C 320.242188 538.273438 320.082031 538.117188 319.890625 538.117188 L 204.84375 538.117188 C 204.648438 538.117188 204.492188 538.273438 204.492188 538.464844 C 204.492188 538.65625 204.648438 538.8125 204.84375 538.8125 Z M 204.84375 538.8125 " fill-opacity="1" fill-rule="evenodd"/></g><g clip-path="url(#f2550e0d37)"><path fill="#000000" d="M 194.398438 524.933594 C 190.707031 524.933594 187.710938 527.894531 187.710938 531.542969 C 187.710938 535.1875 190.707031 538.148438 194.398438 538.148438 C 198.089844 538.148438 201.082031 535.1875 201.082031 531.542969 C 201.082031 527.894531 198.089844 524.933594 194.398438 524.933594 Z M 194.398438 525.464844 C 197.792969 525.464844 200.550781 528.1875 200.550781 531.542969 C 200.550781 534.898438 197.792969 537.621094 194.398438 537.621094 C 191 537.621094 188.246094 534.898438 188.246094 531.542969 C 188.246094 528.1875 191 525.464844 194.398438 525.464844 Z M 194.398438 525.464844 " fill-opacity="1" fill-rule="evenodd"/></g><g clip-path="url(#162d1db709)"><path fill="#000000" d="M 204.84375 572.121094 L 319.890625 572.121094 C 320.082031 572.121094 320.242188 571.964844 320.242188 571.769531 C 320.242188 571.578125 320.082031 571.421875 319.890625 571.421875 L 204.84375 571.421875 C 204.648438 571.421875 204.492188 571.578125 204.492188 571.769531 C 204.492188 571.964844 204.648438 572.121094 204.84375 572.121094 Z M 204.84375 572.121094 " fill-opacity="1" fill-rule="evenodd"/></g><g clip-path="url(#8d0566eacc)"><path fill="#000000" d="M 194.398438 558.242188 C 190.707031 558.242188 187.710938 561.203125 187.710938 564.847656 C 187.710938 568.496094 190.707031 571.457031 194.398438 571.457031 C 198.089844 571.457031 201.082031 568.496094 201.082031 564.847656 C 201.082031 561.203125 198.089844 558.242188 194.398438 558.242188 Z M 194.398438 558.769531 C 197.792969 558.769531 200.550781 561.492188 200.550781 564.847656 C 200.550781 568.203125 197.792969 570.925781 194.398438 570.925781 C 191 570.925781 188.246094 568.203125 188.246094 564.847656 C 188.246094 561.492188 191 558.769531 194.398438 558.769531 Z M 194.398438 558.769531 " fill-opacity="1" fill-rule="evenodd"/></g><g clip-path="url(#5d6760ae68)"><path stroke-linecap="butt" transform="matrix(0.386406, 0, 0, 0.386406, 347.82221, 309.663564)" fill="none" stroke-linejoin="miter" d="M -0.00491184 0.00128918 L 401.744053 0.00128918 L 401.744053 78.670936 L -0.00491184 78.670936 Z M -0.00491184 0.00128918 " stroke="#000000" stroke-width="3.876183" stroke-opacity="1" stroke-miterlimit="4"/></g><g fill="#000000" fill-opacity="1"><g transform="translate(395.810671, 328.983872)"><g><path d="M 3.265625 0 L 2.296875 0 L 0.4375 -8.65625 L 1.390625 -8.65625 L 2.875 -1.515625 L 5.015625 -8.65625 L 5.9375 -8.65625 L 8.078125 -1.53125 L 9.5625 -8.65625 L 10.5 -8.65625 L 8.625 0 L 7.65625 0 L 5.46875 -7.34375 Z M 3.265625 0 "/></g></g></g><g fill="#000000" fill-opacity="1"><g transform="translate(406.716621, 328.983872)"><g><path d="M 0.953125 0 L 0.953125 -8.65625 L 7.15625 -8.65625 L 7.15625 -7.828125 L 1.90625 -7.828125 L 1.90625 -4.796875 L 5.328125 -4.796875 L 5.328125 -3.953125 L 1.90625 -3.953125 L 1.90625 -0.84375 L 7.203125 -0.84375 L 7.203125 0 Z M 0.953125 0 "/></g></g></g><g fill="#000000" fill-opacity="1"><g transform="translate(414.333473, 328.983872)"><g><path d="M 0.953125 0 L 0.953125 -8.65625 L 7.15625 -8.65625 L 7.15625 -7.828125 L 1.90625 -7.828125 L 1.90625 -4.796875 L 5.328125 -4.796875 L 5.328125 -3.953125 L 1.90625 -3.953125 L 1.90625 -0.84375 L 7.203125 -0.84375 L 7.203125 0 Z M 0.953125 0 "/></g></g></g><g fill="#000000" fill-opacity="1"><g transform="translate(421.950325, 328.983872)"><g><path d="M 0.953125 0 L 0.953125 -8.65625 L 1.90625 -8.65625 L 1.90625 -4.546875 L 6.390625 -8.65625 L 7.640625 -8.65625 L 2.9375 -4.421875 L 7.734375 0 L 6.390625 0 L 1.90625 -4.15625 L 1.90625 0 Z M 0.953125 0 "/></g></g></g><g fill="#000000" fill-opacity="1"><g transform="translate(429.579541, 328.983872)"><g><path d="M 0.953125 0 L 0.953125 -8.65625 L 7.15625 -8.65625 L 7.15625 -7.828125 L 1.90625 -7.828125 L 1.90625 -4.796875 L 5.328125 -4.796875 L 5.328125 -3.953125 L 1.90625 -3.953125 L 1.90625 -0.84375 L 7.203125 -0.84375 L 7.203125 0 Z M 0.953125 0 "/></g></g></g><g fill="#000000" fill-opacity="1"><g transform="translate(437.196393, 328.983872)"><g><path d="M 0.953125 -8.65625 L 1.90625 -8.65625 L 7.109375 -1.640625 L 7.109375 -8.65625 L 8.015625 -8.65625 L 8.015625 0 L 7.171875 0 L 1.859375 -7.21875 L 1.859375 0 L 0.953125 0 Z M 0.953125 -8.65625 "/></g></g></g><g fill="#000000" fill-opacity="1"><g transform="translate(446.161033, 328.983872)"><g><path d="M 0.953125 0 L 0.953125 -8.65625 L 3.8125 -8.65625 C 4.46875 -8.65625 5.070312 -8.546875 5.625 -8.328125 C 6.1875 -8.109375 6.671875 -7.8125 7.078125 -7.4375 C 7.484375 -7.0625 7.796875 -6.601562 8.015625 -6.0625 C 8.242188 -5.53125 8.359375 -4.953125 8.359375 -4.328125 C 8.359375 -3.703125 8.242188 -3.125 8.015625 -2.59375 C 7.796875 -2.0625 7.484375 -1.601562 7.078125 -1.21875 C 6.679688 -0.84375 6.203125 -0.546875 5.640625 -0.328125 C 5.078125 -0.109375 4.46875 0 3.8125 0 Z M 3.859375 -7.796875 L 1.90625 -7.796875 L 1.90625 -0.859375 L 3.859375 -0.859375 C 4.359375 -0.859375 4.828125 -0.945312 5.265625 -1.125 C 5.703125 -1.300781 6.078125 -1.546875 6.390625 -1.859375 C 6.703125 -2.171875 6.945312 -2.535156 7.125 -2.953125 C 7.3125 -3.378906 7.40625 -3.835938 7.40625 -4.328125 C 7.40625 -4.816406 7.3125 -5.273438 7.125 -5.703125 C 6.945312 -6.128906 6.703125 -6.492188 6.390625 -6.796875 C 6.078125 -7.109375 5.703125 -7.351562 5.265625 -7.53125 C 4.828125 -7.707031 4.359375 -7.796875 3.859375 -7.796875 Z M 3.859375 -7.796875 "/></g></g></g><g clip-path="url(#cae737ee48)"><path fill="#000000" d="M 377.167969 372.277344 L 492.214844 372.277344 C 492.40625 372.277344 492.566406 372.121094 492.566406 371.929688 C 492.566406 371.734375 492.40625 371.578125 492.214844 371.578125 L 377.167969 371.578125 C 376.972656 371.578125 376.816406 371.734375 376.816406 371.929688 C 376.816406 372.121094 376.972656 372.277344 377.167969 372.277344 Z M 377.167969 372.277344 " fill-opacity="1" fill-rule="evenodd"/></g><g clip-path="url(#df2cb457d0)"><path fill="#000000" d="M 366.722656 358.398438 C 363.03125 358.398438 360.035156 361.359375 360.035156 365.003906 C 360.035156 368.652344 363.03125 371.613281 366.722656 371.613281 C 370.414062 371.613281 373.40625 368.652344 373.40625 365.003906 C 373.40625 361.359375 370.414062 358.398438 366.722656 358.398438 Z M 366.722656 358.925781 C 370.117188 358.925781 372.875 361.652344 372.875 365.003906 C 372.875 368.359375 370.117188 371.085938 366.722656 371.085938 C 363.324219 371.085938 360.570312 368.359375 360.570312 365.003906 C 360.570312 361.652344 363.324219 358.925781 366.722656 358.925781 Z M 366.722656 358.925781 " fill-opacity="1" fill-rule="evenodd"/></g><g clip-path="url(#30b9db3d4f)"><path fill="#000000" d="M 377.167969 405.585938 L 492.214844 405.585938 C 492.40625 405.585938 492.566406 405.429688 492.566406 405.234375 C 492.566406 405.042969 492.40625 404.886719 492.214844 404.886719 L 377.167969 404.886719 C 376.972656 404.886719 376.816406 405.042969 376.816406 405.234375 C 376.816406 405.429688 376.972656 405.585938 377.167969 405.585938 Z M 377.167969 405.585938 " fill-opacity="1" fill-rule="evenodd"/></g><g clip-path="url(#4a2ccd753a)"><path fill="#000000" d="M 366.722656 391.707031 C 363.03125 391.707031 360.035156 394.667969 360.035156 398.3125 C 360.035156 401.960938 363.03125 404.921875 366.722656 404.921875 C 370.414062 404.921875 373.40625 401.960938 373.40625 398.3125 C 373.40625 394.667969 370.414062 391.707031 366.722656 391.707031 Z M 366.722656 392.234375 C 370.117188 392.234375 372.875 394.957031 372.875 398.3125 C 372.875 401.667969 370.117188 404.390625 366.722656 404.390625 C 363.324219 404.390625 360.570312 401.667969 360.570312 398.3125 C 360.570312 394.957031 363.324219 392.234375 366.722656 392.234375 Z M 366.722656 392.234375 " fill-opacity="1" fill-rule="evenodd"/></g><g clip-path="url(#3587a9d3d0)"><path fill="#000000" d="M 377.167969 438.890625 L 492.214844 438.890625 C 492.40625 438.890625 492.566406 438.734375 492.566406 438.542969 C 492.566406 438.351562 492.40625 438.195312 492.214844 438.195312 L 377.167969 438.195312 C 376.972656 438.195312 376.816406 438.351562 376.816406 438.542969 C 376.816406 438.734375 376.972656 438.890625 377.167969 438.890625 Z M 377.167969 438.890625 " fill-opacity="1" fill-rule="evenodd"/></g><g clip-path="url(#833a33b394)"><path fill="#000000" d="M 366.722656 425.011719 C 363.03125 425.011719 360.035156 427.972656 360.035156 431.621094 C 360.035156 435.265625 363.03125 438.226562 366.722656 438.226562 C 370.414062 438.226562 373.40625 435.265625 373.40625 431.621094 C 373.40625 427.972656 370.414062 425.011719 366.722656 425.011719 Z M 366.722656 425.542969 C 370.117188 425.542969 372.875 428.265625 372.875 431.621094 C 372.875 434.976562 370.117188 437.699219 366.722656 437.699219 C 363.324219 437.699219 360.570312 434.976562 360.570312 431.621094 C 360.570312 428.265625 363.324219 425.542969 366.722656 425.542969 Z M 366.722656 425.542969 " fill-opacity="1" fill-rule="evenodd"/></g><g clip-path="url(#31da9ff2ae)"><path fill="#000000" d="M 377.167969 472.199219 L 492.214844 472.199219 C 492.40625 472.199219 492.566406 472.042969 492.566406 471.851562 C 492.566406 471.65625 492.40625 471.5 492.214844 471.5 L 377.167969 471.5 C 376.972656 471.5 376.816406 471.65625 376.816406 471.851562 C 376.816406 472.042969 376.972656 472.199219 377.167969 472.199219 Z M 377.167969 472.199219 " fill-opacity="1" fill-rule="evenodd"/></g><g clip-path="url(#678d6acd60)"><path fill="#000000" d="M 366.722656 458.320312 C 363.03125 458.320312 360.035156 461.28125 360.035156 464.925781 C 360.035156 468.574219 363.03125 471.535156 366.722656 471.535156 C 370.414062 471.535156 373.40625 468.574219 373.40625 464.925781 C 373.40625 461.28125 370.414062 458.320312 366.722656 458.320312 Z M 366.722656 458.847656 C 370.117188 458.847656 372.875 461.574219 372.875 464.925781 C 372.875 468.28125 370.117188 471.007812 366.722656 471.007812 C 363.324219 471.007812 360.570312 468.28125 360.570312 464.925781 C 360.570312 461.574219 363.324219 458.847656 366.722656 458.847656 Z M 366.722656 458.847656 " fill-opacity="1" fill-rule="evenodd"/></g><g clip-path="url(#c88e8b0a3d)"><path fill="#000000" d="M 377.167969 505.507812 L 492.214844 505.507812 C 492.40625 505.507812 492.566406 505.347656 492.566406 505.15625 C 492.566406 504.964844 492.40625 504.808594 492.214844 504.808594 L 377.167969 504.808594 C 376.972656 504.808594 376.816406 504.964844 376.816406 505.15625 C 376.816406 505.347656 376.972656 505.507812 377.167969 505.507812 Z M 377.167969 505.507812 " fill-opacity="1" fill-rule="evenodd"/></g><g clip-path="url(#207f9a9b48)"><path fill="#000000" d="M 366.722656 491.628906 C 363.03125 491.628906 360.035156 494.589844 360.035156 498.234375 C 360.035156 501.882812 363.03125 504.839844 366.722656 504.839844 C 370.414062 504.839844 373.40625 501.882812 373.40625 498.234375 C 373.40625 494.589844 370.414062 491.628906 366.722656 491.628906 Z M 366.722656 492.15625 C 370.117188 492.15625 372.875 494.878906 372.875 498.234375 C 372.875 501.589844 370.117188 504.3125 366.722656 504.3125 C 363.324219 504.3125 360.570312 501.589844 360.570312 498.234375 C 360.570312 494.878906 363.324219 492.15625 366.722656 492.15625 Z M 366.722656 492.15625 " fill-opacity="1" fill-rule="evenodd"/></g><g clip-path="url(#c624cc99fc)"><path fill="#000000" d="M 377.167969 538.8125 L 492.214844 538.8125 C 492.40625 538.8125 492.566406 538.65625 492.566406 538.464844 C 492.566406 538.273438 492.40625 538.117188 492.214844 538.117188 L 377.167969 538.117188 C 376.972656 538.117188 376.816406 538.273438 376.816406 538.464844 C 376.816406 538.65625 376.972656 538.8125 377.167969 538.8125 Z M 377.167969 538.8125 " fill-opacity="1" fill-rule="evenodd"/></g><g clip-path="url(#beb5d130dc)"><path fill="#000000" d="M 366.722656 524.933594 C 363.03125 524.933594 360.035156 527.894531 360.035156 531.542969 C 360.035156 535.1875 363.03125 538.148438 366.722656 538.148438 C 370.414062 538.148438 373.40625 535.1875 373.40625 531.542969 C 373.40625 527.894531 370.414062 524.933594 366.722656 524.933594 Z M 366.722656 525.464844 C 370.117188 525.464844 372.875 528.1875 372.875 531.542969 C 372.875 534.898438 370.117188 537.621094 366.722656 537.621094 C 363.324219 537.621094 360.570312 534.898438 360.570312 531.542969 C 360.570312 528.1875 363.324219 525.464844 366.722656 525.464844 Z M 366.722656 525.464844 " fill-opacity="1" fill-rule="evenodd"/></g><g clip-path="url(#c2bec6f78a)"><path fill="#000000" d="M 377.167969 572.121094 L 492.214844 572.121094 C 492.40625 572.121094 492.566406 571.964844 492.566406 571.769531 C 492.566406 571.578125 492.40625 571.421875 492.214844 571.421875 L 377.167969 571.421875 C 376.972656 571.421875 376.816406 571.578125 376.816406 571.769531 C 376.816406 571.964844 376.972656 572.121094 377.167969 572.121094 Z M 377.167969 572.121094 " fill-opacity="1" fill-rule="evenodd"/></g><g clip-path="url(#2debd27e15)"><path fill="#000000" d="M 366.722656 558.242188 C 363.03125 558.242188 360.035156 561.203125 360.035156 564.847656 C 360.035156 568.496094 363.03125 571.457031 366.722656 571.457031 C 370.414062 571.457031 373.40625 568.496094 373.40625 564.847656 C 373.40625 561.203125 370.414062 558.242188 366.722656 558.242188 Z M 366.722656 558.769531 C 370.117188 558.769531 372.875 561.492188 372.875 564.847656 C 372.875 568.203125 370.117188 570.925781 366.722656 570.925781 C 363.324219 570.925781 360.570312 568.203125 360.570312 564.847656 C 360.570312 561.492188 363.324219 558.769531 366.722656 558.769531 Z M 366.722656 558.769531 " fill-opacity="1" fill-rule="evenodd"/></g></g></g></svg>