<svg xmlns="http://www.w3.org/2000/svg" xmlns:xlink="http://www.w3.org/1999/xlink" width="1200" zoomAndPan="magnify" viewBox="0 0 900 675.000002" height="900" preserveAspectRatio="xMidYMid meet" version="1.0"><defs><g/><clipPath id="39a2877644"><path d="M 53 4 L 62.882812 4 L 62.882812 15 L 53 15 Z M 53 4 " clip-rule="nonzero"/></clipPath><clipPath id="30190438fb"><rect x="0" width="63" y="0" height="20"/></clipPath><clipPath id="cff20e1cc8"><path d="M 0.0664062 4 L 9 4 L 9 15 L 0.0664062 15 Z M 0.0664062 4 " clip-rule="nonzero"/></clipPath><clipPath id="178296d419"><rect x="0" width="65" y="0" height="20"/></clipPath><clipPath id="c3b46bb9c8"><rect x="0" width="88" y="0" height="20"/></clipPath><clipPath id="fde3bc7d24"><path d="M 0.222656 4 L 9 4 L 9 15 L 0.222656 15 Z M 0.222656 4 " clip-rule="nonzero"/></clipPath><clipPath id="24a26b3449"><rect x="0" width="75" y="0" height="20"/></clipPath><clipPath id="861f239b01"><rect x="0" width="51" y="0" height="20"/></clipPath><clipPath id="b4f6632598"><path d="M 65 4 L 74.699219 4 L 74.699219 15 L 65 15 Z M 65 4 " clip-rule="nonzero"/></clipPath><clipPath id="b0b28ea590"><rect x="0" width="75" y="0" height="20"/></clipPath><clipPath id="0b1aa5417c"><path d="M 0.25 4 L 9 4 L 9 15 L 0.25 15 Z M 0.25 4 " clip-rule="nonzero"/></clipPath><clipPath id="392b696c89"><rect x="0" width="58" y="0" height="20"/></clipPath><clipPath id="ae0f0dde2c"><path d="M 52.910156 47 L 847.480469 47 L 847.480469 627 L 52.910156 627 Z M 52.910156 47 " clip-rule="nonzero"/></clipPath><clipPath id="4d02c5f23a"><path d="M 52.910156 46.777344 L 847.480469 46.777344 L 847.480469 627.917969 L 52.910156 627.917969 Z M 52.910156 46.777344 " clip-rule="nonzero"/></clipPath><clipPath id="79f2137ef8"><path d="M 80.515625 54.0625 L 114.21875 54.0625 L 114.21875 87.765625 L 80.515625 87.765625 Z M 80.515625 54.0625 " clip-rule="nonzero"/></clipPath></defs><g transform="matrix(1, 0, 0, 1, 170, 61)"><g clip-path="url(#30190438fb)"><g fill="#000000" fill-opacity="1"><g transform="translate(1.185364, 14.605673)"><g><path d="M 5.84375 -0.6875 L 2.0625 -8.453125 L 2.0625 0 L 1.0625 0 L 1.0625 -9.671875 L 2.5625 -9.671875 L 5.859375 -2.8125 L 9.15625 -9.671875 L 10.640625 -9.671875 L 10.640625 0 L 9.640625 0 L 9.640625 -8.46875 Z M 5.84375 -0.6875 "/></g></g></g><g fill="#000000" fill-opacity="1"><g transform="translate(12.892602, 14.605673)"><g><path d="M 10.578125 -4.84375 C 10.578125 -4.144531 10.445312 -3.488281 10.1875 -2.875 C 9.925781 -2.269531 9.570312 -1.742188 9.125 -1.296875 C 8.6875 -0.847656 8.160156 -0.492188 7.546875 -0.234375 C 6.941406 0.0234375 6.289062 0.15625 5.59375 0.15625 C 4.90625 0.15625 4.253906 0.0234375 3.640625 -0.234375 C 3.023438 -0.492188 2.492188 -0.847656 2.046875 -1.296875 C 1.597656 -1.742188 1.242188 -2.269531 0.984375 -2.875 C 0.734375 -3.488281 0.609375 -4.144531 0.609375 -4.84375 C 0.609375 -5.53125 0.734375 -6.179688 0.984375 -6.796875 C 1.242188 -7.410156 1.597656 -7.941406 2.046875 -8.390625 C 2.492188 -8.835938 3.023438 -9.1875 3.640625 -9.4375 C 4.253906 -9.695312 4.90625 -9.828125 5.59375 -9.828125 C 6.289062 -9.828125 6.941406 -9.695312 7.546875 -9.4375 C 8.160156 -9.1875 8.6875 -8.835938 9.125 -8.390625 C 9.570312 -7.941406 9.925781 -7.410156 10.1875 -6.796875 C 10.445312 -6.179688 10.578125 -5.53125 10.578125 -4.84375 Z M 9.5 -4.84375 C 9.5 -5.40625 9.394531 -5.929688 9.1875 -6.421875 C 8.988281 -6.910156 8.71875 -7.332031 8.375 -7.6875 C 8.03125 -8.050781 7.617188 -8.332031 7.140625 -8.53125 C 6.660156 -8.738281 6.144531 -8.84375 5.59375 -8.84375 C 5.039062 -8.84375 4.523438 -8.738281 4.046875 -8.53125 C 3.566406 -8.332031 3.15625 -8.050781 2.8125 -7.6875 C 2.46875 -7.332031 2.191406 -6.910156 1.984375 -6.421875 C 1.785156 -5.929688 1.6875 -5.40625 1.6875 -4.84375 C 1.6875 -4.28125 1.785156 -3.753906 1.984375 -3.265625 C 2.191406 -2.773438 2.46875 -2.347656 2.8125 -1.984375 C 3.15625 -1.628906 3.566406 -1.347656 4.046875 -1.140625 C 4.523438 -0.929688 5.039062 -0.828125 5.59375 -0.828125 C 6.144531 -0.828125 6.660156 -0.929688 7.140625 -1.140625 C 7.617188 -1.347656 8.03125 -1.628906 8.375 -1.984375 C 8.71875 -2.347656 8.988281 -2.773438 9.1875 -3.265625 C 9.394531 -3.753906 9.5 -4.28125 9.5 -4.84375 Z M 9.5 -4.84375 "/></g></g></g><g fill="#000000" fill-opacity="1"><g transform="translate(24.074599, 14.605673)"><g><path d="M 1.0625 -9.671875 L 2.125 -9.671875 L 7.953125 -1.828125 L 7.953125 -9.671875 L 8.953125 -9.671875 L 8.953125 0 L 8.015625 0 L 2.078125 -8.0625 L 2.078125 0 L 1.0625 0 Z M 1.0625 -9.671875 "/></g></g></g><g fill="#000000" fill-opacity="1"><g transform="translate(34.095551, 14.605673)"><g><path d="M 1.0625 0 L 1.0625 -9.671875 L 4.265625 -9.671875 C 4.984375 -9.671875 5.65625 -9.550781 6.28125 -9.3125 C 6.914062 -9.070312 7.457031 -8.738281 7.90625 -8.3125 C 8.363281 -7.882812 8.71875 -7.375 8.96875 -6.78125 C 9.21875 -6.1875 9.34375 -5.539062 9.34375 -4.84375 C 9.34375 -4.132812 9.21875 -3.484375 8.96875 -2.890625 C 8.71875 -2.296875 8.367188 -1.785156 7.921875 -1.359375 C 7.472656 -0.941406 6.929688 -0.609375 6.296875 -0.359375 C 5.671875 -0.117188 4.992188 0 4.265625 0 Z M 4.3125 -8.71875 L 2.125 -8.71875 L 2.125 -0.96875 L 4.3125 -0.96875 C 4.863281 -0.96875 5.382812 -1.066406 5.875 -1.265625 C 6.363281 -1.460938 6.78125 -1.734375 7.125 -2.078125 C 7.476562 -2.421875 7.753906 -2.832031 7.953125 -3.3125 C 8.160156 -3.789062 8.265625 -4.300781 8.265625 -4.84375 C 8.265625 -5.382812 8.160156 -5.890625 7.953125 -6.359375 C 7.753906 -6.835938 7.476562 -7.25 7.125 -7.59375 C 6.78125 -7.9375 6.363281 -8.207031 5.875 -8.40625 C 5.382812 -8.613281 4.863281 -8.71875 4.3125 -8.71875 Z M 4.3125 -8.71875 "/></g></g></g><g fill="#000000" fill-opacity="1"><g transform="translate(44.047397, 14.605673)"><g><path d="M 0.0625 0 L 4.078125 -9.671875 L 5.359375 -9.671875 L 9.328125 0 L 8.171875 0 L 6.953125 -3.046875 L 2.390625 -3.046875 L 1.15625 0 Z M 2.765625 -3.953125 L 6.578125 -3.953125 L 4.6875 -8.6875 Z M 2.765625 -3.953125 "/></g></g></g><g clip-path="url(#39a2877644)"><g fill="#000000" fill-opacity="1"><g transform="translate(53.432537, 14.605673)"><g><path d="M 3.890625 0 L 3.890625 -3.9375 L 0.046875 -9.671875 L 1.28125 -9.671875 L 4.453125 -4.875 L 7.609375 -9.671875 L 8.8125 -9.671875 L 4.953125 -3.90625 L 4.953125 0 Z M 3.890625 0 "/></g></g></g></g></g></g><g transform="matrix(1, 0, 0, 1, 269, 61)"><g clip-path="url(#178296d419)"><g clip-path="url(#cff20e1cc8)"><g fill="#000000" fill-opacity="1"><g transform="translate(0.26646, 14.605673)"><g><path d="M 0.234375 -8.71875 L 0.234375 -9.671875 L 8.296875 -9.671875 L 8.296875 -8.71875 L 4.796875 -8.71875 L 4.796875 0 L 3.734375 0 L 3.734375 -8.71875 Z M 0.234375 -8.71875 "/></g></g></g></g><g fill="#000000" fill-opacity="1"><g transform="translate(8.794633, 14.605673)"><g><path d="M 8.859375 -4.09375 C 8.859375 -2.800781 8.492188 -1.769531 7.765625 -1 C 7.046875 -0.226562 6.082031 0.15625 4.875 0.15625 C 3.644531 0.15625 2.671875 -0.222656 1.953125 -0.984375 C 1.234375 -1.753906 0.875 -2.789062 0.875 -4.09375 L 0.875 -9.671875 L 1.9375 -9.671875 L 1.9375 -4.09375 C 1.9375 -3.101562 2.203125 -2.3125 2.734375 -1.71875 C 3.273438 -1.125 3.988281 -0.828125 4.875 -0.828125 C 5.75 -0.828125 6.453125 -1.125 6.984375 -1.71875 C 7.523438 -2.3125 7.796875 -3.101562 7.796875 -4.09375 L 7.796875 -9.671875 L 8.859375 -9.671875 Z M 8.859375 -4.09375 "/></g></g></g><g fill="#000000" fill-opacity="1"><g transform="translate(18.525323, 14.605673)"><g><path d="M 1.0625 0 L 1.0625 -9.671875 L 8 -9.671875 L 8 -8.734375 L 2.125 -8.734375 L 2.125 -5.34375 L 5.953125 -5.34375 L 5.953125 -4.421875 L 2.125 -4.421875 L 2.125 -0.9375 L 8.046875 -0.9375 L 8.046875 0 Z M 1.0625 0 "/></g></g></g><g fill="#000000" fill-opacity="1"><g transform="translate(27.039679, 14.605673)"><g><path d="M 0.15625 -1.65625 L 0.859375 -2.390625 C 1.359375 -1.867188 1.890625 -1.46875 2.453125 -1.1875 C 3.023438 -0.914062 3.625 -0.78125 4.25 -0.78125 C 5 -0.78125 5.617188 -0.957031 6.109375 -1.3125 C 6.597656 -1.675781 6.84375 -2.140625 6.84375 -2.703125 C 6.84375 -3.191406 6.671875 -3.570312 6.328125 -3.84375 C 5.984375 -4.113281 5.414062 -4.3125 4.625 -4.4375 L 3.21875 -4.65625 C 2.289062 -4.800781 1.601562 -5.070312 1.15625 -5.46875 C 0.71875 -5.875 0.5 -6.421875 0.5 -7.109375 C 0.5 -7.910156 0.8125 -8.554688 1.4375 -9.046875 C 2.0625 -9.546875 2.882812 -9.796875 3.90625 -9.796875 C 4.570312 -9.796875 5.238281 -9.6875 5.90625 -9.46875 C 6.570312 -9.25 7.175781 -8.929688 7.71875 -8.515625 L 7.109375 -7.6875 C 6.578125 -8.082031 6.039062 -8.378906 5.5 -8.578125 C 4.957031 -8.785156 4.410156 -8.890625 3.859375 -8.890625 C 3.171875 -8.890625 2.609375 -8.726562 2.171875 -8.40625 C 1.742188 -8.09375 1.53125 -7.6875 1.53125 -7.1875 C 1.53125 -6.738281 1.679688 -6.394531 1.984375 -6.15625 C 2.296875 -5.914062 2.800781 -5.738281 3.5 -5.625 L 4.875 -5.40625 C 5.925781 -5.226562 6.691406 -4.925781 7.171875 -4.5 C 7.660156 -4.082031 7.90625 -3.5 7.90625 -2.75 C 7.90625 -2.320312 7.816406 -1.929688 7.640625 -1.578125 C 7.460938 -1.222656 7.207031 -0.921875 6.875 -0.671875 C 6.550781 -0.421875 6.160156 -0.222656 5.703125 -0.078125 C 5.242188 0.0664062 4.742188 0.140625 4.203125 0.140625 C 3.441406 0.140625 2.707031 -0.0078125 2 -0.3125 C 1.289062 -0.625 0.675781 -1.070312 0.15625 -1.65625 Z M 0.15625 -1.65625 "/></g></g></g><g fill="#000000" fill-opacity="1"><g transform="translate(35.33288, 14.605673)"><g><path d="M 1.0625 0 L 1.0625 -9.671875 L 4.265625 -9.671875 C 4.984375 -9.671875 5.65625 -9.550781 6.28125 -9.3125 C 6.914062 -9.070312 7.457031 -8.738281 7.90625 -8.3125 C 8.363281 -7.882812 8.71875 -7.375 8.96875 -6.78125 C 9.21875 -6.1875 9.34375 -5.539062 9.34375 -4.84375 C 9.34375 -4.132812 9.21875 -3.484375 8.96875 -2.890625 C 8.71875 -2.296875 8.367188 -1.785156 7.921875 -1.359375 C 7.472656 -0.941406 6.929688 -0.609375 6.296875 -0.359375 C 5.671875 -0.117188 4.992188 0 4.265625 0 Z M 4.3125 -8.71875 L 2.125 -8.71875 L 2.125 -0.96875 L 4.3125 -0.96875 C 4.863281 -0.96875 5.382812 -1.066406 5.875 -1.265625 C 6.363281 -1.460938 6.78125 -1.734375 7.125 -2.078125 C 7.476562 -2.421875 7.753906 -2.832031 7.953125 -3.3125 C 8.160156 -3.789062 8.265625 -4.300781 8.265625 -4.84375 C 8.265625 -5.382812 8.160156 -5.890625 7.953125 -6.359375 C 7.753906 -6.835938 7.476562 -7.25 7.125 -7.59375 C 6.78125 -7.9375 6.363281 -8.207031 5.875 -8.40625 C 5.382812 -8.613281 4.863281 -8.71875 4.3125 -8.71875 Z M 4.3125 -8.71875 "/></g></g></g><g fill="#000000" fill-opacity="1"><g transform="translate(45.284725, 14.605673)"><g><path d="M 0.0625 0 L 4.078125 -9.671875 L 5.359375 -9.671875 L 9.328125 0 L 8.171875 0 L 6.953125 -3.046875 L 2.390625 -3.046875 L 1.15625 0 Z M 2.765625 -3.953125 L 6.578125 -3.953125 L 4.6875 -8.6875 Z M 2.765625 -3.953125 "/></g></g></g><g fill="#000000" fill-opacity="1"><g transform="translate(54.669866, 14.605673)"><g><path d="M 3.890625 0 L 3.890625 -3.9375 L 0.046875 -9.671875 L 1.28125 -9.671875 L 4.453125 -4.875 L 7.609375 -9.671875 L 8.8125 -9.671875 L 4.953125 -3.90625 L 4.953125 0 Z M 3.890625 0 "/></g></g></g></g></g><g transform="matrix(1, 0, 0, 1, 356, 61)"><g clip-path="url(#c3b46bb9c8)"><g fill="#000000" fill-opacity="1"><g transform="translate(1.222777, 14.605673)"><g><path d="M 3.65625 0 L 2.578125 0 L 0.484375 -9.671875 L 1.5625 -9.671875 L 3.203125 -1.6875 L 5.59375 -9.671875 L 6.640625 -9.671875 L 9.03125 -1.71875 L 10.6875 -9.671875 L 11.71875 -9.671875 L 9.640625 0 L 8.5625 0 L 6.109375 -8.203125 Z M 3.65625 0 "/></g></g></g><g fill="#000000" fill-opacity="1"><g transform="translate(13.413785, 14.605673)"><g><path d="M 1.0625 0 L 1.0625 -9.671875 L 8 -9.671875 L 8 -8.734375 L 2.125 -8.734375 L 2.125 -5.34375 L 5.953125 -5.34375 L 5.953125 -4.421875 L 2.125 -4.421875 L 2.125 -0.9375 L 8.046875 -0.9375 L 8.046875 0 Z M 1.0625 0 "/></g></g></g><g fill="#000000" fill-opacity="1"><g transform="translate(21.92814, 14.605673)"><g><path d="M 1.0625 0 L 1.0625 -9.671875 L 4.265625 -9.671875 C 4.984375 -9.671875 5.65625 -9.550781 6.28125 -9.3125 C 6.914062 -9.070312 7.457031 -8.738281 7.90625 -8.3125 C 8.363281 -7.882812 8.71875 -7.375 8.96875 -6.78125 C 9.21875 -6.1875 9.34375 -5.539062 9.34375 -4.84375 C 9.34375 -4.132812 9.21875 -3.484375 8.96875 -2.890625 C 8.71875 -2.296875 8.367188 -1.785156 7.921875 -1.359375 C 7.472656 -0.941406 6.929688 -0.609375 6.296875 -0.359375 C 5.671875 -0.117188 4.992188 0 4.265625 0 Z M 4.3125 -8.71875 L 2.125 -8.71875 L 2.125 -0.96875 L 4.3125 -0.96875 C 4.863281 -0.96875 5.382812 -1.066406 5.875 -1.265625 C 6.363281 -1.460938 6.78125 -1.734375 7.125 -2.078125 C 7.476562 -2.421875 7.753906 -2.832031 7.953125 -3.3125 C 8.160156 -3.789062 8.265625 -4.300781 8.265625 -4.84375 C 8.265625 -5.382812 8.160156 -5.890625 7.953125 -6.359375 C 7.753906 -6.835938 7.476562 -7.25 7.125 -7.59375 C 6.78125 -7.9375 6.363281 -8.207031 5.875 -8.40625 C 5.382812 -8.613281 4.863281 -8.71875 4.3125 -8.71875 Z M 4.3125 -8.71875 "/></g></g></g><g fill="#000000" fill-opacity="1"><g transform="translate(31.879986, 14.605673)"><g><path d="M 1.0625 -9.671875 L 2.125 -9.671875 L 7.953125 -1.828125 L 7.953125 -9.671875 L 8.953125 -9.671875 L 8.953125 0 L 8.015625 0 L 2.078125 -8.0625 L 2.078125 0 L 1.0625 0 Z M 1.0625 -9.671875 "/></g></g></g><g fill="#000000" fill-opacity="1"><g transform="translate(41.900938, 14.605673)"><g><path d="M 1.0625 0 L 1.0625 -9.671875 L 8 -9.671875 L 8 -8.734375 L 2.125 -8.734375 L 2.125 -5.34375 L 5.953125 -5.34375 L 5.953125 -4.421875 L 2.125 -4.421875 L 2.125 -0.9375 L 8.046875 -0.9375 L 8.046875 0 Z M 1.0625 0 "/></g></g></g><g fill="#000000" fill-opacity="1"><g transform="translate(50.415294, 14.605673)"><g><path d="M 0.15625 -1.65625 L 0.859375 -2.390625 C 1.359375 -1.867188 1.890625 -1.46875 2.453125 -1.1875 C 3.023438 -0.914062 3.625 -0.78125 4.25 -0.78125 C 5 -0.78125 5.617188 -0.957031 6.109375 -1.3125 C 6.597656 -1.675781 6.84375 -2.140625 6.84375 -2.703125 C 6.84375 -3.191406 6.671875 -3.570312 6.328125 -3.84375 C 5.984375 -4.113281 5.414062 -4.3125 4.625 -4.4375 L 3.21875 -4.65625 C 2.289062 -4.800781 1.601562 -5.070312 1.15625 -5.46875 C 0.71875 -5.875 0.5 -6.421875 0.5 -7.109375 C 0.5 -7.910156 0.8125 -8.554688 1.4375 -9.046875 C 2.0625 -9.546875 2.882812 -9.796875 3.90625 -9.796875 C 4.570312 -9.796875 5.238281 -9.6875 5.90625 -9.46875 C 6.570312 -9.25 7.175781 -8.929688 7.71875 -8.515625 L 7.109375 -7.6875 C 6.578125 -8.082031 6.039062 -8.378906 5.5 -8.578125 C 4.957031 -8.785156 4.410156 -8.890625 3.859375 -8.890625 C 3.171875 -8.890625 2.609375 -8.726562 2.171875 -8.40625 C 1.742188 -8.09375 1.53125 -7.6875 1.53125 -7.1875 C 1.53125 -6.738281 1.679688 -6.394531 1.984375 -6.15625 C 2.296875 -5.914062 2.800781 -5.738281 3.5 -5.625 L 4.875 -5.40625 C 5.925781 -5.226562 6.691406 -4.925781 7.171875 -4.5 C 7.660156 -4.082031 7.90625 -3.5 7.90625 -2.75 C 7.90625 -2.320312 7.816406 -1.929688 7.640625 -1.578125 C 7.460938 -1.222656 7.207031 -0.921875 6.875 -0.671875 C 6.550781 -0.421875 6.160156 -0.222656 5.703125 -0.078125 C 5.242188 0.0664062 4.742188 0.140625 4.203125 0.140625 C 3.441406 0.140625 2.707031 -0.0078125 2 -0.3125 C 1.289062 -0.625 0.675781 -1.070312 0.15625 -1.65625 Z M 0.15625 -1.65625 "/></g></g></g><g fill="#000000" fill-opacity="1"><g transform="translate(58.708494, 14.605673)"><g><path d="M 1.0625 0 L 1.0625 -9.671875 L 4.265625 -9.671875 C 4.984375 -9.671875 5.65625 -9.550781 6.28125 -9.3125 C 6.914062 -9.070312 7.457031 -8.738281 7.90625 -8.3125 C 8.363281 -7.882812 8.71875 -7.375 8.96875 -6.78125 C 9.21875 -6.1875 9.34375 -5.539062 9.34375 -4.84375 C 9.34375 -4.132812 9.21875 -3.484375 8.96875 -2.890625 C 8.71875 -2.296875 8.367188 -1.785156 7.921875 -1.359375 C 7.472656 -0.941406 6.929688 -0.609375 6.296875 -0.359375 C 5.671875 -0.117188 4.992188 0 4.265625 0 Z M 4.3125 -8.71875 L 2.125 -8.71875 L 2.125 -0.96875 L 4.3125 -0.96875 C 4.863281 -0.96875 5.382812 -1.066406 5.875 -1.265625 C 6.363281 -1.460938 6.78125 -1.734375 7.125 -2.078125 C 7.476562 -2.421875 7.753906 -2.832031 7.953125 -3.3125 C 8.160156 -3.789062 8.265625 -4.300781 8.265625 -4.84375 C 8.265625 -5.382812 8.160156 -5.890625 7.953125 -6.359375 C 7.753906 -6.835938 7.476562 -7.25 7.125 -7.59375 C 6.78125 -7.9375 6.363281 -8.207031 5.875 -8.40625 C 5.382812 -8.613281 4.863281 -8.71875 4.3125 -8.71875 Z M 4.3125 -8.71875 "/></g></g></g><g fill="#000000" fill-opacity="1"><g transform="translate(68.66034, 14.605673)"><g><path d="M 0.0625 0 L 4.078125 -9.671875 L 5.359375 -9.671875 L 9.328125 0 L 8.171875 0 L 6.953125 -3.046875 L 2.390625 -3.046875 L 1.15625 0 Z M 2.765625 -3.953125 L 6.578125 -3.953125 L 4.6875 -8.6875 Z M 2.765625 -3.953125 "/></g></g></g><g fill="#000000" fill-opacity="1"><g transform="translate(78.04548, 14.605673)"><g><path d="M 3.890625 0 L 3.890625 -3.9375 L 0.046875 -9.671875 L 1.28125 -9.671875 L 4.453125 -4.875 L 7.609375 -9.671875 L 8.8125 -9.671875 L 4.953125 -3.90625 L 4.953125 0 Z M 3.890625 0 "/></g></g></g></g></g><g transform="matrix(1, 0, 0, 1, 462, 61)"><g clip-path="url(#24a26b3449)"><g clip-path="url(#fde3bc7d24)"><g fill="#000000" fill-opacity="1"><g transform="translate(0.453175, 14.605673)"><g><path d="M 0.234375 -8.71875 L 0.234375 -9.671875 L 8.296875 -9.671875 L 8.296875 -8.71875 L 4.796875 -8.71875 L 4.796875 0 L 3.734375 0 L 3.734375 -8.71875 Z M 0.234375 -8.71875 "/></g></g></g></g><g fill="#000000" fill-opacity="1"><g transform="translate(8.981348, 14.605673)"><g><path d="M 1.0625 0 L 1.0625 -9.671875 L 2.125 -9.671875 L 2.125 -5.34375 L 7.75 -5.34375 L 7.75 -9.671875 L 8.828125 -9.671875 L 8.828125 0 L 7.75 0 L 7.75 -4.390625 L 2.125 -4.390625 L 2.125 0 Z M 1.0625 0 "/></g></g></g><g fill="#000000" fill-opacity="1"><g transform="translate(18.864081, 14.605673)"><g><path d="M 8.859375 -4.09375 C 8.859375 -2.800781 8.492188 -1.769531 7.765625 -1 C 7.046875 -0.226562 6.082031 0.15625 4.875 0.15625 C 3.644531 0.15625 2.671875 -0.222656 1.953125 -0.984375 C 1.234375 -1.753906 0.875 -2.789062 0.875 -4.09375 L 0.875 -9.671875 L 1.9375 -9.671875 L 1.9375 -4.09375 C 1.9375 -3.101562 2.203125 -2.3125 2.734375 -1.71875 C 3.273438 -1.125 3.988281 -0.828125 4.875 -0.828125 C 5.75 -0.828125 6.453125 -1.125 6.984375 -1.71875 C 7.523438 -2.3125 7.796875 -3.101562 7.796875 -4.09375 L 7.796875 -9.671875 L 8.859375 -9.671875 Z M 8.859375 -4.09375 "/></g></g></g><g fill="#000000" fill-opacity="1"><g transform="translate(28.594772, 14.605673)"><g><path d="M 1.0625 0 L 1.0625 -9.671875 L 5.21875 -9.671875 C 6.15625 -9.671875 6.910156 -9.414062 7.484375 -8.90625 C 8.066406 -8.394531 8.359375 -7.726562 8.359375 -6.90625 C 8.359375 -6.269531 8.171875 -5.71875 7.796875 -5.25 C 7.429688 -4.789062 6.9375 -4.472656 6.3125 -4.296875 L 8.484375 0 L 7.296875 0 L 5.234375 -4.15625 L 2.125 -4.15625 L 2.125 0 Z M 5.140625 -8.71875 L 2.125 -8.71875 L 2.125 -5.0625 L 5.140625 -5.0625 C 5.785156 -5.0625 6.304688 -5.226562 6.703125 -5.5625 C 7.097656 -5.90625 7.296875 -6.351562 7.296875 -6.90625 C 7.296875 -7.457031 7.097656 -7.894531 6.703125 -8.21875 C 6.304688 -8.550781 5.785156 -8.71875 5.140625 -8.71875 Z M 5.140625 -8.71875 "/></g></g></g><g fill="#000000" fill-opacity="1"><g transform="translate(37.509967, 14.605673)"><g><path d="M 0.15625 -1.65625 L 0.859375 -2.390625 C 1.359375 -1.867188 1.890625 -1.46875 2.453125 -1.1875 C 3.023438 -0.914062 3.625 -0.78125 4.25 -0.78125 C 5 -0.78125 5.617188 -0.957031 6.109375 -1.3125 C 6.597656 -1.675781 6.84375 -2.140625 6.84375 -2.703125 C 6.84375 -3.191406 6.671875 -3.570312 6.328125 -3.84375 C 5.984375 -4.113281 5.414062 -4.3125 4.625 -4.4375 L 3.21875 -4.65625 C 2.289062 -4.800781 1.601562 -5.070312 1.15625 -5.46875 C 0.71875 -5.875 0.5 -6.421875 0.5 -7.109375 C 0.5 -7.910156 0.8125 -8.554688 1.4375 -9.046875 C 2.0625 -9.546875 2.882812 -9.796875 3.90625 -9.796875 C 4.570312 -9.796875 5.238281 -9.6875 5.90625 -9.46875 C 6.570312 -9.25 7.175781 -8.929688 7.71875 -8.515625 L 7.109375 -7.6875 C 6.578125 -8.082031 6.039062 -8.378906 5.5 -8.578125 C 4.957031 -8.785156 4.410156 -8.890625 3.859375 -8.890625 C 3.171875 -8.890625 2.609375 -8.726562 2.171875 -8.40625 C 1.742188 -8.09375 1.53125 -7.6875 1.53125 -7.1875 C 1.53125 -6.738281 1.679688 -6.394531 1.984375 -6.15625 C 2.296875 -5.914062 2.800781 -5.738281 3.5 -5.625 L 4.875 -5.40625 C 5.925781 -5.226562 6.691406 -4.925781 7.171875 -4.5 C 7.660156 -4.082031 7.90625 -3.5 7.90625 -2.75 C 7.90625 -2.320312 7.816406 -1.929688 7.640625 -1.578125 C 7.460938 -1.222656 7.207031 -0.921875 6.875 -0.671875 C 6.550781 -0.421875 6.160156 -0.222656 5.703125 -0.078125 C 5.242188 0.0664062 4.742188 0.140625 4.203125 0.140625 C 3.441406 0.140625 2.707031 -0.0078125 2 -0.3125 C 1.289062 -0.625 0.675781 -1.070312 0.15625 -1.65625 Z M 0.15625 -1.65625 "/></g></g></g><g fill="#000000" fill-opacity="1"><g transform="translate(45.803167, 14.605673)"><g><path d="M 1.0625 0 L 1.0625 -9.671875 L 4.265625 -9.671875 C 4.984375 -9.671875 5.65625 -9.550781 6.28125 -9.3125 C 6.914062 -9.070312 7.457031 -8.738281 7.90625 -8.3125 C 8.363281 -7.882812 8.71875 -7.375 8.96875 -6.78125 C 9.21875 -6.1875 9.34375 -5.539062 9.34375 -4.84375 C 9.34375 -4.132812 9.21875 -3.484375 8.96875 -2.890625 C 8.71875 -2.296875 8.367188 -1.785156 7.921875 -1.359375 C 7.472656 -0.941406 6.929688 -0.609375 6.296875 -0.359375 C 5.671875 -0.117188 4.992188 0 4.265625 0 Z M 4.3125 -8.71875 L 2.125 -8.71875 L 2.125 -0.96875 L 4.3125 -0.96875 C 4.863281 -0.96875 5.382812 -1.066406 5.875 -1.265625 C 6.363281 -1.460938 6.78125 -1.734375 7.125 -2.078125 C 7.476562 -2.421875 7.753906 -2.832031 7.953125 -3.3125 C 8.160156 -3.789062 8.265625 -4.300781 8.265625 -4.84375 C 8.265625 -5.382812 8.160156 -5.890625 7.953125 -6.359375 C 7.753906 -6.835938 7.476562 -7.25 7.125 -7.59375 C 6.78125 -7.9375 6.363281 -8.207031 5.875 -8.40625 C 5.382812 -8.613281 4.863281 -8.71875 4.3125 -8.71875 Z M 4.3125 -8.71875 "/></g></g></g><g fill="#000000" fill-opacity="1"><g transform="translate(55.755013, 14.605673)"><g><path d="M 0.0625 0 L 4.078125 -9.671875 L 5.359375 -9.671875 L 9.328125 0 L 8.171875 0 L 6.953125 -3.046875 L 2.390625 -3.046875 L 1.15625 0 Z M 2.765625 -3.953125 L 6.578125 -3.953125 L 4.6875 -8.6875 Z M 2.765625 -3.953125 "/></g></g></g><g fill="#000000" fill-opacity="1"><g transform="translate(65.140153, 14.605673)"><g><path d="M 3.890625 0 L 3.890625 -3.9375 L 0.046875 -9.671875 L 1.28125 -9.671875 L 4.453125 -4.875 L 7.609375 -9.671875 L 8.8125 -9.671875 L 4.953125 -3.90625 L 4.953125 0 Z M 3.890625 0 "/></g></g></g></g></g><g transform="matrix(1, 0, 0, 1, 573, 61)"><g clip-path="url(#861f239b01)"><g fill="#000000" fill-opacity="1"><g transform="translate(1.043031, 14.605673)"><g><path d="M 1.0625 0 L 1.0625 -9.671875 L 8 -9.671875 L 8 -8.734375 L 2.125 -8.734375 L 2.125 -5.28125 L 5.96875 -5.28125 L 5.96875 -4.359375 L 2.125 -4.359375 L 2.125 0 Z M 1.0625 0 "/></g></g></g><g fill="#000000" fill-opacity="1"><g transform="translate(9.432985, 14.605673)"><g><path d="M 1.0625 0 L 1.0625 -9.671875 L 5.21875 -9.671875 C 6.15625 -9.671875 6.910156 -9.414062 7.484375 -8.90625 C 8.066406 -8.394531 8.359375 -7.726562 8.359375 -6.90625 C 8.359375 -6.269531 8.171875 -5.71875 7.796875 -5.25 C 7.429688 -4.789062 6.9375 -4.472656 6.3125 -4.296875 L 8.484375 0 L 7.296875 0 L 5.234375 -4.15625 L 2.125 -4.15625 L 2.125 0 Z M 5.140625 -8.71875 L 2.125 -8.71875 L 2.125 -5.0625 L 5.140625 -5.0625 C 5.785156 -5.0625 6.304688 -5.226562 6.703125 -5.5625 C 7.097656 -5.90625 7.296875 -6.351562 7.296875 -6.90625 C 7.296875 -7.457031 7.097656 -7.894531 6.703125 -8.21875 C 6.304688 -8.550781 5.785156 -8.71875 5.140625 -8.71875 Z M 5.140625 -8.71875 "/></g></g></g><g fill="#000000" fill-opacity="1"><g transform="translate(18.34818, 14.605673)"><g><path d="M 1.0625 0 L 1.0625 -9.671875 L 2.125 -9.671875 L 2.125 0 Z M 1.0625 0 "/></g></g></g><g fill="#000000" fill-opacity="1"><g transform="translate(21.541063, 14.605673)"><g><path d="M 1.0625 0 L 1.0625 -9.671875 L 4.265625 -9.671875 C 4.984375 -9.671875 5.65625 -9.550781 6.28125 -9.3125 C 6.914062 -9.070312 7.457031 -8.738281 7.90625 -8.3125 C 8.363281 -7.882812 8.71875 -7.375 8.96875 -6.78125 C 9.21875 -6.1875 9.34375 -5.539062 9.34375 -4.84375 C 9.34375 -4.132812 9.21875 -3.484375 8.96875 -2.890625 C 8.71875 -2.296875 8.367188 -1.785156 7.921875 -1.359375 C 7.472656 -0.941406 6.929688 -0.609375 6.296875 -0.359375 C 5.671875 -0.117188 4.992188 0 4.265625 0 Z M 4.3125 -8.71875 L 2.125 -8.71875 L 2.125 -0.96875 L 4.3125 -0.96875 C 4.863281 -0.96875 5.382812 -1.066406 5.875 -1.265625 C 6.363281 -1.460938 6.78125 -1.734375 7.125 -2.078125 C 7.476562 -2.421875 7.753906 -2.832031 7.953125 -3.3125 C 8.160156 -3.789062 8.265625 -4.300781 8.265625 -4.84375 C 8.265625 -5.382812 8.160156 -5.890625 7.953125 -6.359375 C 7.753906 -6.835938 7.476562 -7.25 7.125 -7.59375 C 6.78125 -7.9375 6.363281 -8.207031 5.875 -8.40625 C 5.382812 -8.613281 4.863281 -8.71875 4.3125 -8.71875 Z M 4.3125 -8.71875 "/></g></g></g><g fill="#000000" fill-opacity="1"><g transform="translate(31.492909, 14.605673)"><g><path d="M 0.0625 0 L 4.078125 -9.671875 L 5.359375 -9.671875 L 9.328125 0 L 8.171875 0 L 6.953125 -3.046875 L 2.390625 -3.046875 L 1.15625 0 Z M 2.765625 -3.953125 L 6.578125 -3.953125 L 4.6875 -8.6875 Z M 2.765625 -3.953125 "/></g></g></g><g fill="#000000" fill-opacity="1"><g transform="translate(40.878049, 14.605673)"><g><path d="M 3.890625 0 L 3.890625 -3.9375 L 0.046875 -9.671875 L 1.28125 -9.671875 L 4.453125 -4.875 L 7.609375 -9.671875 L 8.8125 -9.671875 L 4.953125 -3.90625 L 4.953125 0 Z M 3.890625 0 "/></g></g></g></g></g><g transform="matrix(1, 0, 0, 1, 660, 61)"><g clip-path="url(#b0b28ea590)"><g fill="#000000" fill-opacity="1"><g transform="translate(1.032517, 14.605673)"><g><path d="M 0.15625 -1.65625 L 0.859375 -2.390625 C 1.359375 -1.867188 1.890625 -1.46875 2.453125 -1.1875 C 3.023438 -0.914062 3.625 -0.78125 4.25 -0.78125 C 5 -0.78125 5.617188 -0.957031 6.109375 -1.3125 C 6.597656 -1.675781 6.84375 -2.140625 6.84375 -2.703125 C 6.84375 -3.191406 6.671875 -3.570312 6.328125 -3.84375 C 5.984375 -4.113281 5.414062 -4.3125 4.625 -4.4375 L 3.21875 -4.65625 C 2.289062 -4.800781 1.601562 -5.070312 1.15625 -5.46875 C 0.71875 -5.875 0.5 -6.421875 0.5 -7.109375 C 0.5 -7.910156 0.8125 -8.554688 1.4375 -9.046875 C 2.0625 -9.546875 2.882812 -9.796875 3.90625 -9.796875 C 4.570312 -9.796875 5.238281 -9.6875 5.90625 -9.46875 C 6.570312 -9.25 7.175781 -8.929688 7.71875 -8.515625 L 7.109375 -7.6875 C 6.578125 -8.082031 6.039062 -8.378906 5.5 -8.578125 C 4.957031 -8.785156 4.410156 -8.890625 3.859375 -8.890625 C 3.171875 -8.890625 2.609375 -8.726562 2.171875 -8.40625 C 1.742188 -8.09375 1.53125 -7.6875 1.53125 -7.1875 C 1.53125 -6.738281 1.679688 -6.394531 1.984375 -6.15625 C 2.296875 -5.914062 2.800781 -5.738281 3.5 -5.625 L 4.875 -5.40625 C 5.925781 -5.226562 6.691406 -4.925781 7.171875 -4.5 C 7.660156 -4.082031 7.90625 -3.5 7.90625 -2.75 C 7.90625 -2.320312 7.816406 -1.929688 7.640625 -1.578125 C 7.460938 -1.222656 7.207031 -0.921875 6.875 -0.671875 C 6.550781 -0.421875 6.160156 -0.222656 5.703125 -0.078125 C 5.242188 0.0664062 4.742188 0.140625 4.203125 0.140625 C 3.441406 0.140625 2.707031 -0.0078125 2 -0.3125 C 1.289062 -0.625 0.675781 -1.070312 0.15625 -1.65625 Z M 0.15625 -1.65625 "/></g></g></g><g fill="#000000" fill-opacity="1"><g transform="translate(9.325718, 14.605673)"><g><path d="M 0.0625 0 L 4.078125 -9.671875 L 5.359375 -9.671875 L 9.328125 0 L 8.171875 0 L 6.953125 -3.046875 L 2.390625 -3.046875 L 1.15625 0 Z M 2.765625 -3.953125 L 6.578125 -3.953125 L 4.6875 -8.6875 Z M 2.765625 -3.953125 "/></g></g></g><g fill="#000000" fill-opacity="1"><g transform="translate(18.710858, 14.605673)"><g><path d="M 0.234375 -8.71875 L 0.234375 -9.671875 L 8.296875 -9.671875 L 8.296875 -8.71875 L 4.796875 -8.71875 L 4.796875 0 L 3.734375 0 L 3.734375 -8.71875 Z M 0.234375 -8.71875 "/></g></g></g><g fill="#000000" fill-opacity="1"><g transform="translate(27.239031, 14.605673)"><g><path d="M 8.859375 -4.09375 C 8.859375 -2.800781 8.492188 -1.769531 7.765625 -1 C 7.046875 -0.226562 6.082031 0.15625 4.875 0.15625 C 3.644531 0.15625 2.671875 -0.222656 1.953125 -0.984375 C 1.234375 -1.753906 0.875 -2.789062 0.875 -4.09375 L 0.875 -9.671875 L 1.9375 -9.671875 L 1.9375 -4.09375 C 1.9375 -3.101562 2.203125 -2.3125 2.734375 -1.71875 C 3.273438 -1.125 3.988281 -0.828125 4.875 -0.828125 C 5.75 -0.828125 6.453125 -1.125 6.984375 -1.71875 C 7.523438 -2.3125 7.796875 -3.101562 7.796875 -4.09375 L 7.796875 -9.671875 L 8.859375 -9.671875 Z M 8.859375 -4.09375 "/></g></g></g><g fill="#000000" fill-opacity="1"><g transform="translate(36.969722, 14.605673)"><g><path d="M 1.0625 0 L 1.0625 -9.671875 L 5.21875 -9.671875 C 6.15625 -9.671875 6.910156 -9.414062 7.484375 -8.90625 C 8.066406 -8.394531 8.359375 -7.726562 8.359375 -6.90625 C 8.359375 -6.269531 8.171875 -5.71875 7.796875 -5.25 C 7.429688 -4.789062 6.9375 -4.472656 6.3125 -4.296875 L 8.484375 0 L 7.296875 0 L 5.234375 -4.15625 L 2.125 -4.15625 L 2.125 0 Z M 5.140625 -8.71875 L 2.125 -8.71875 L 2.125 -5.0625 L 5.140625 -5.0625 C 5.785156 -5.0625 6.304688 -5.226562 6.703125 -5.5625 C 7.097656 -5.90625 7.296875 -6.351562 7.296875 -6.90625 C 7.296875 -7.457031 7.097656 -7.894531 6.703125 -8.21875 C 6.304688 -8.550781 5.785156 -8.71875 5.140625 -8.71875 Z M 5.140625 -8.71875 "/></g></g></g><g fill="#000000" fill-opacity="1"><g transform="translate(45.884917, 14.605673)"><g><path d="M 1.0625 0 L 1.0625 -9.671875 L 4.265625 -9.671875 C 4.984375 -9.671875 5.65625 -9.550781 6.28125 -9.3125 C 6.914062 -9.070312 7.457031 -8.738281 7.90625 -8.3125 C 8.363281 -7.882812 8.71875 -7.375 8.96875 -6.78125 C 9.21875 -6.1875 9.34375 -5.539062 9.34375 -4.84375 C 9.34375 -4.132812 9.21875 -3.484375 8.96875 -2.890625 C 8.71875 -2.296875 8.367188 -1.785156 7.921875 -1.359375 C 7.472656 -0.941406 6.929688 -0.609375 6.296875 -0.359375 C 5.671875 -0.117188 4.992188 0 4.265625 0 Z M 4.3125 -8.71875 L 2.125 -8.71875 L 2.125 -0.96875 L 4.3125 -0.96875 C 4.863281 -0.96875 5.382812 -1.066406 5.875 -1.265625 C 6.363281 -1.460938 6.78125 -1.734375 7.125 -2.078125 C 7.476562 -2.421875 7.753906 -2.832031 7.953125 -3.3125 C 8.160156 -3.789062 8.265625 -4.300781 8.265625 -4.84375 C 8.265625 -5.382812 8.160156 -5.890625 7.953125 -6.359375 C 7.753906 -6.835938 7.476562 -7.25 7.125 -7.59375 C 6.78125 -7.9375 6.363281 -8.207031 5.875 -8.40625 C 5.382812 -8.613281 4.863281 -8.71875 4.3125 -8.71875 Z M 4.3125 -8.71875 "/></g></g></g><g fill="#000000" fill-opacity="1"><g transform="translate(55.836763, 14.605673)"><g><path d="M 0.0625 0 L 4.078125 -9.671875 L 5.359375 -9.671875 L 9.328125 0 L 8.171875 0 L 6.953125 -3.046875 L 2.390625 -3.046875 L 1.15625 0 Z M 2.765625 -3.953125 L 6.578125 -3.953125 L 4.6875 -8.6875 Z M 2.765625 -3.953125 "/></g></g></g><g clip-path="url(#b4f6632598)"><g fill="#000000" fill-opacity="1"><g transform="translate(65.221903, 14.605673)"><g><path d="M 3.890625 0 L 3.890625 -3.9375 L 0.046875 -9.671875 L 1.28125 -9.671875 L 4.453125 -4.875 L 7.609375 -9.671875 L 8.8125 -9.671875 L 4.953125 -3.90625 L 4.953125 0 Z M 3.890625 0 "/></g></g></g></g></g></g><g transform="matrix(1, 0, 0, 1, 768, 61)"><g clip-path="url(#392b696c89)"><g clip-path="url(#0b1aa5417c)"><g fill="#000000" fill-opacity="1"><g transform="translate(0.598359, 14.605673)"><g><path d="M 0.15625 -1.65625 L 0.859375 -2.390625 C 1.359375 -1.867188 1.890625 -1.46875 2.453125 -1.1875 C 3.023438 -0.914062 3.625 -0.78125 4.25 -0.78125 C 5 -0.78125 5.617188 -0.957031 6.109375 -1.3125 C 6.597656 -1.675781 6.84375 -2.140625 6.84375 -2.703125 C 6.84375 -3.191406 6.671875 -3.570312 6.328125 -3.84375 C 5.984375 -4.113281 5.414062 -4.3125 4.625 -4.4375 L 3.21875 -4.65625 C 2.289062 -4.800781 1.601562 -5.070312 1.15625 -5.46875 C 0.71875 -5.875 0.5 -6.421875 0.5 -7.109375 C 0.5 -7.910156 0.8125 -8.554688 1.4375 -9.046875 C 2.0625 -9.546875 2.882812 -9.796875 3.90625 -9.796875 C 4.570312 -9.796875 5.238281 -9.6875 5.90625 -9.46875 C 6.570312 -9.25 7.175781 -8.929688 7.71875 -8.515625 L 7.109375 -7.6875 C 6.578125 -8.082031 6.039062 -8.378906 5.5 -8.578125 C 4.957031 -8.785156 4.410156 -8.890625 3.859375 -8.890625 C 3.171875 -8.890625 2.609375 -8.726562 2.171875 -8.40625 C 1.742188 -8.09375 1.53125 -7.6875 1.53125 -7.1875 C 1.53125 -6.738281 1.679688 -6.394531 1.984375 -6.15625 C 2.296875 -5.914062 2.800781 -5.738281 3.5 -5.625 L 4.875 -5.40625 C 5.925781 -5.226562 6.691406 -4.925781 7.171875 -4.5 C 7.660156 -4.082031 7.90625 -3.5 7.90625 -2.75 C 7.90625 -2.320312 7.816406 -1.929688 7.640625 -1.578125 C 7.460938 -1.222656 7.207031 -0.921875 6.875 -0.671875 C 6.550781 -0.421875 6.160156 -0.222656 5.703125 -0.078125 C 5.242188 0.0664062 4.742188 0.140625 4.203125 0.140625 C 3.441406 0.140625 2.707031 -0.0078125 2 -0.3125 C 1.289062 -0.625 0.675781 -1.070312 0.15625 -1.65625 Z M 0.15625 -1.65625 "/></g></g></g></g><g fill="#000000" fill-opacity="1"><g transform="translate(8.89156, 14.605673)"><g><path d="M 8.859375 -4.09375 C 8.859375 -2.800781 8.492188 -1.769531 7.765625 -1 C 7.046875 -0.226562 6.082031 0.15625 4.875 0.15625 C 3.644531 0.15625 2.671875 -0.222656 1.953125 -0.984375 C 1.234375 -1.753906 0.875 -2.789062 0.875 -4.09375 L 0.875 -9.671875 L 1.9375 -9.671875 L 1.9375 -4.09375 C 1.9375 -3.101562 2.203125 -2.3125 2.734375 -1.71875 C 3.273438 -1.125 3.988281 -0.828125 4.875 -0.828125 C 5.75 -0.828125 6.453125 -1.125 6.984375 -1.71875 C 7.523438 -2.3125 7.796875 -3.101562 7.796875 -4.09375 L 7.796875 -9.671875 L 8.859375 -9.671875 Z M 8.859375 -4.09375 "/></g></g></g><g fill="#000000" fill-opacity="1"><g transform="translate(18.62225, 14.605673)"><g><path d="M 1.0625 -9.671875 L 2.125 -9.671875 L 7.953125 -1.828125 L 7.953125 -9.671875 L 8.953125 -9.671875 L 8.953125 0 L 8.015625 0 L 2.078125 -8.0625 L 2.078125 0 L 1.0625 0 Z M 1.0625 -9.671875 "/></g></g></g><g fill="#000000" fill-opacity="1"><g transform="translate(28.643202, 14.605673)"><g><path d="M 1.0625 0 L 1.0625 -9.671875 L 4.265625 -9.671875 C 4.984375 -9.671875 5.65625 -9.550781 6.28125 -9.3125 C 6.914062 -9.070312 7.457031 -8.738281 7.90625 -8.3125 C 8.363281 -7.882812 8.71875 -7.375 8.96875 -6.78125 C 9.21875 -6.1875 9.34375 -5.539062 9.34375 -4.84375 C 9.34375 -4.132812 9.21875 -3.484375 8.96875 -2.890625 C 8.71875 -2.296875 8.367188 -1.785156 7.921875 -1.359375 C 7.472656 -0.941406 6.929688 -0.609375 6.296875 -0.359375 C 5.671875 -0.117188 4.992188 0 4.265625 0 Z M 4.3125 -8.71875 L 2.125 -8.71875 L 2.125 -0.96875 L 4.3125 -0.96875 C 4.863281 -0.96875 5.382812 -1.066406 5.875 -1.265625 C 6.363281 -1.460938 6.78125 -1.734375 7.125 -2.078125 C 7.476562 -2.421875 7.753906 -2.832031 7.953125 -3.3125 C 8.160156 -3.789062 8.265625 -4.300781 8.265625 -4.84375 C 8.265625 -5.382812 8.160156 -5.890625 7.953125 -6.359375 C 7.753906 -6.835938 7.476562 -7.25 7.125 -7.59375 C 6.78125 -7.9375 6.363281 -8.207031 5.875 -8.40625 C 5.382812 -8.613281 4.863281 -8.71875 4.3125 -8.71875 Z M 4.3125 -8.71875 "/></g></g></g><g fill="#000000" fill-opacity="1"><g transform="translate(38.595048, 14.605673)"><g><path d="M 0.0625 0 L 4.078125 -9.671875 L 5.359375 -9.671875 L 9.328125 0 L 8.171875 0 L 6.953125 -3.046875 L 2.390625 -3.046875 L 1.15625 0 Z M 2.765625 -3.953125 L 6.578125 -3.953125 L 4.6875 -8.6875 Z M 2.765625 -3.953125 "/></g></g></g><g fill="#000000" fill-opacity="1"><g transform="translate(47.980188, 14.605673)"><g><path d="M 3.890625 0 L 3.890625 -3.9375 L 0.046875 -9.671875 L 1.28125 -9.671875 L 4.453125 -4.875 L 7.609375 -9.671875 L 8.8125 -9.671875 L 4.953125 -3.90625 L 4.953125 0 Z M 3.890625 0 "/></g></g></g></g></g><g clip-path="url(#ae0f0dde2c)"><path fill="#000000" d="M 53.34375 47.648438 L 53.34375 626.351562 M 152.507812 47.648438 L 152.507812 626.351562 M 251.671875 47.648438 L 251.671875 626.351562 M 350.835938 47.648438 L 350.835938 626.351562 M 450 47.648438 L 450 626.351562 M 549.164062 47.648438 L 549.164062 626.351562 M 648.328125 47.648438 L 648.328125 626.351562 M 747.492188 47.648438 L 747.492188 626.351562 M 846.65625 47.648438 L 846.65625 626.351562 M 52.910156 47.214844 L 847.089844 47.214844 M 52.910156 95.554688 L 847.089844 95.554688 M 52.910156 143.898438 L 847.089844 143.898438 M 52.910156 192.242188 L 847.089844 192.242188 M 52.910156 240.585938 L 847.089844 240.585938 M 52.910156 291.566406 L 847.089844 291.566406 M 52.910156 336.726562 L 847.089844 336.726562 M 52.910156 385.070312 L 847.089844 385.070312 M 52.910156 433.414062 L 847.089844 433.414062 M 52.910156 481.757812 L 847.089844 481.757812 M 52.910156 530.101562 L 847.089844 530.101562 M 52.910156 578.445312 L 847.089844 578.445312 M 52.910156 626.789062 L 847.089844 626.789062 " fill-opacity="1" fill-rule="nonzero"/></g><g clip-path="url(#4d02c5f23a)"><path stroke-linecap="butt" transform="matrix(0.748891, 0, 0, 0.748891, 52.909419, 46.777161)" fill="none" stroke-linejoin="miter" d="M 0.579966 1.163423 L 0.579966 773.910737 M 132.994601 1.163423 L 132.994601 773.910737 M 265.409235 1.163423 L 265.409235 773.910737 M 397.82387 1.163423 L 397.82387 773.910737 M 530.238505 1.163423 L 530.238505 773.910737 M 662.65314 1.163423 L 662.65314 773.910737 M 795.067775 1.163423 L 795.067775 773.910737 M 927.482409 1.163423 L 927.482409 773.910737 M 1059.897044 1.163423 L 1059.897044 773.910737 M 0.000984478 0.584441 L 1060.476026 0.584441 M 0.000984478 65.133055 L 1060.476026 65.133055 M 0.000984478 129.686885 L 1060.476026 129.686885 M 0.000984478 194.240714 L 1060.476026 194.240714 M 0.000984478 258.794544 L 1060.476026 258.794544 M 0.000984478 326.869207 L 1060.476026 326.869207 M 0.000984478 387.171956 L 1060.476026 387.171956 M 0.000984478 451.725786 L 1060.476026 451.725786 M 0.000984478 516.279616 L 1060.476026 516.279616 M 0.000984478 580.833445 L 1060.476026 580.833445 M 0.000984478 645.387275 L 1060.476026 645.387275 M 0.000984478 709.941105 L 1060.476026 709.941105 M 0.000984478 774.494934 L 1060.476026 774.494934 " stroke="#000000" stroke-width="1.163769" stroke-opacity="1" stroke-miterlimit="4"/></g><g clip-path="url(#79f2137ef8)"><path fill="#000000" d="M 97.367188 54.0625 C 88.046875 54.0625 80.515625 61.644531 80.515625 70.914062 C 80.515625 80.183594 88.046875 87.765625 97.367188 87.765625 C 106.6875 87.765625 114.21875 80.234375 114.21875 70.914062 C 114.21875 61.59375 106.6875 54.0625 97.367188 54.0625 Z M 97.367188 85.765625 C 89.171875 85.765625 82.515625 79.109375 82.515625 70.914062 C 82.515625 62.71875 89.171875 56.0625 97.367188 56.0625 C 105.5625 56.0625 112.21875 62.71875 112.21875 70.914062 C 112.21875 79.109375 105.5625 85.765625 97.367188 85.765625 Z M 97.367188 85.765625 " fill-opacity="1" fill-rule="nonzero"/></g><path fill="#000000" d="M 103.5625 71.527344 C 103.921875 71.527344 104.179688 71.222656 104.179688 70.914062 C 104.179688 70.554688 103.871094 70.300781 103.5625 70.300781 L 98.699219 70.300781 C 98.546875 69.992188 98.289062 69.683594 97.929688 69.582031 L 97.929688 61.644531 C 97.929688 61.285156 97.675781 61.027344 97.316406 61.027344 C 96.957031 61.027344 96.703125 61.285156 96.703125 61.644531 L 96.703125 69.53125 C 96.1875 69.785156 95.832031 70.300781 95.832031 70.914062 C 95.832031 71.734375 96.496094 72.398438 97.316406 72.398438 C 97.929688 72.398438 98.441406 72.039062 98.648438 71.527344 Z M 103.5625 71.527344 " fill-opacity="1" fill-rule="nonzero"/><path fill="#000000" d="M 97.46875 59.183594 C 97.726562 59.183594 97.929688 58.980469 97.929688 58.722656 L 97.929688 57.238281 C 97.929688 56.984375 97.726562 56.777344 97.46875 56.777344 C 97.214844 56.777344 97.007812 56.984375 97.007812 57.238281 L 97.007812 58.722656 C 97.007812 58.980469 97.214844 59.183594 97.46875 59.183594 Z M 97.46875 59.183594 " fill-opacity="1" fill-rule="nonzero"/><path fill="#000000" d="M 91.015625 58.722656 C 90.863281 58.519531 90.605469 58.417969 90.402344 58.570312 C 90.195312 58.722656 90.09375 58.980469 90.25 59.183594 L 91.015625 60.464844 C 91.171875 60.671875 91.425781 60.773438 91.632812 60.621094 C 91.835938 60.464844 91.9375 60.210938 91.785156 60.003906 Z M 91.015625 58.722656 " fill-opacity="1" fill-rule="nonzero"/><path fill="#000000" d="M 87.074219 64.308594 L 85.792969 63.539062 C 85.585938 63.386719 85.28125 63.488281 85.179688 63.691406 C 85.023438 63.898438 85.125 64.203125 85.332031 64.308594 L 86.613281 65.074219 C 86.816406 65.230469 87.125 65.125 87.226562 64.921875 C 87.378906 64.714844 87.328125 64.410156 87.074219 64.308594 Z M 87.074219 64.308594 " fill-opacity="1" fill-rule="nonzero"/><path fill="#000000" d="M 85.640625 70.8125 C 85.640625 70.554688 85.433594 70.351562 85.179688 70.351562 L 83.691406 70.351562 C 83.4375 70.351562 83.230469 70.554688 83.230469 70.8125 C 83.230469 71.066406 83.4375 71.273438 83.691406 71.273438 L 85.179688 71.273438 C 85.433594 71.273438 85.640625 71.066406 85.640625 70.8125 Z M 85.640625 70.8125 " fill-opacity="1" fill-rule="nonzero"/><path fill="#000000" d="M 86.507812 76.496094 L 85.230469 77.265625 C 85.023438 77.417969 84.921875 77.675781 85.074219 77.878906 C 85.230469 78.085938 85.484375 78.1875 85.691406 78.03125 L 86.96875 77.265625 C 87.175781 77.109375 87.277344 76.855469 87.125 76.648438 C 87.023438 76.445312 86.714844 76.394531 86.507812 76.496094 Z M 86.507812 76.496094 " fill-opacity="1" fill-rule="nonzero"/><path fill="#000000" d="M 91.375 81.003906 C 91.171875 80.851562 90.863281 80.953125 90.761719 81.15625 L 89.992188 82.4375 C 89.839844 82.640625 89.941406 82.949219 90.144531 83.050781 C 90.351562 83.207031 90.65625 83.101562 90.761719 82.898438 L 91.527344 81.617188 C 91.683594 81.414062 91.632812 81.15625 91.375 81.003906 Z M 91.375 81.003906 " fill-opacity="1" fill-rule="nonzero"/><path fill="#000000" d="M 97.265625 82.640625 C 97.007812 82.640625 96.804688 82.847656 96.804688 83.101562 L 96.804688 84.589844 C 96.804688 84.84375 97.007812 85.050781 97.265625 85.050781 C 97.519531 85.050781 97.726562 84.84375 97.726562 84.589844 L 97.726562 83.101562 C 97.726562 82.847656 97.519531 82.640625 97.265625 82.640625 Z M 97.265625 82.640625 " fill-opacity="1" fill-rule="nonzero"/><path fill="#000000" d="M 103.769531 81.3125 C 103.617188 81.105469 103.359375 81.003906 103.15625 81.15625 C 102.949219 81.3125 102.847656 81.566406 103 81.773438 L 103.769531 83.050781 C 103.921875 83.257812 104.179688 83.359375 104.382812 83.207031 C 104.589844 83.050781 104.691406 82.796875 104.539062 82.589844 Z M 103.769531 81.3125 " fill-opacity="1" fill-rule="nonzero"/><path fill="#000000" d="M 109.402344 77.46875 L 108.121094 76.703125 C 107.917969 76.546875 107.609375 76.648438 107.507812 76.855469 C 107.355469 77.058594 107.457031 77.367188 107.660156 77.46875 L 108.941406 78.238281 C 109.148438 78.390625 109.453125 78.289062 109.554688 78.085938 C 109.710938 77.878906 109.609375 77.570312 109.402344 77.46875 Z M 109.402344 77.46875 " fill-opacity="1" fill-rule="nonzero"/><path fill="#000000" d="M 111.09375 70.554688 L 109.609375 70.554688 C 109.351562 70.554688 109.148438 70.761719 109.148438 71.015625 C 109.148438 71.273438 109.351562 71.476562 109.609375 71.476562 L 111.09375 71.476562 C 111.347656 71.476562 111.554688 71.273438 111.554688 71.015625 C 111.554688 70.761719 111.347656 70.554688 111.09375 70.554688 Z M 111.09375 70.554688 " fill-opacity="1" fill-rule="nonzero"/><path fill="#000000" d="M 108.226562 65.332031 L 109.503906 64.5625 C 109.710938 64.410156 109.8125 64.152344 109.660156 63.949219 C 109.503906 63.742188 109.25 63.640625 109.042969 63.792969 L 107.765625 64.5625 C 107.558594 64.714844 107.457031 64.972656 107.609375 65.175781 C 107.710938 65.382812 108.019531 65.433594 108.226562 65.332031 Z M 108.226562 65.332031 " fill-opacity="1" fill-rule="nonzero"/><path fill="#000000" d="M 104.539062 58.722656 C 104.332031 58.570312 104.023438 58.671875 103.921875 58.878906 L 103.15625 60.160156 C 103 60.363281 103.101562 60.671875 103.308594 60.773438 C 103.511719 60.925781 103.820312 60.824219 103.921875 60.621094 L 104.691406 59.339844 C 104.84375 59.132812 104.792969 58.828125 104.539062 58.722656 Z M 104.539062 58.722656 " fill-opacity="1" fill-rule="nonzero"/></svg>